<?xml version="1.0" encoding="UTF-8" standalone="no"?>
<!-- Created with Inkscape (http://www.inkscape.org/) -->

<svg
   xmlns:dc="http://purl.org/dc/elements/1.1/"
   xmlns:cc="http://creativecommons.org/ns#"
   xmlns:rdf="http://www.w3.org/1999/02/22-rdf-syntax-ns#"
   xmlns:svg="http://www.w3.org/2000/svg"
   xmlns="http://www.w3.org/2000/svg"
   xmlns:sodipodi="http://sodipodi.sourceforge.net/DTD/sodipodi-0.dtd"
   xmlns:inkscape="http://www.inkscape.org/namespaces/inkscape"
   version="1.1"
   id="svg3680"
   xml:space="preserve"
   width="855.72137"
   height="163.79434"
   viewBox="0 0 855.72137 163.79434"
   sodipodi:docname="main-logo.svg"
   inkscape:version="0.92.1 r15371"><metadata
     id="metadata3686"><rdf:RDF><cc:Work
         rdf:about=""><dc:format>image/svg+xml</dc:format><dc:type
           rdf:resource="http://purl.org/dc/dcmitype/StillImage" /><dc:title></dc:title></cc:Work></rdf:RDF></metadata><defs
     id="defs3684"><clipPath
       clipPathUnits="userSpaceOnUse"
       id="clipPath3696"><path
         d="M 0,306.207 H 824.703 V 0 H 0 Z"
         id="path3694"
         inkscape:connector-curvature="0" /></clipPath></defs><sodipodi:namedview
     pagecolor="#000000"
     bordercolor="#666666"
     borderopacity="1"
     objecttolerance="10"
     gridtolerance="10"
     guidetolerance="10"
     inkscape:pageopacity="0"
     inkscape:pageshadow="2"
     inkscape:window-width="1920"
     inkscape:window-height="1017"
     id="namedview3682"
     showgrid="false"
     showguides="false"
     inkscape:guide-bbox="true"
     inkscape:zoom="1.0185485"
     inkscape:cx="264.7561"
     inkscape:cy="21.478444"
     inkscape:window-x="-8"
     inkscape:window-y="-8"
     inkscape:window-maximized="1"
     inkscape:current-layer="g3690"
     showborder="true"
     fit-margin-top="0"
     fit-margin-left="0"
     fit-margin-right="0"
     fit-margin-bottom="0"><sodipodi:guide
       position="289.69776,143.00309"
       orientation="0,1"
       id="guide3856"
       inkscape:locked="false" /><sodipodi:guide
       position="329.46023,23.715688"
       orientation="0,1"
       id="guide3858"
       inkscape:locked="false" /></sodipodi:namedview><g
     id="g3688"
     inkscape:groupmode="layer"
     inkscape:label="OpenEMR Master"
     transform="matrix(1.3333333,0,0,-1.3333333,-145.23488,281.45631)"><g
       id="g3690"><g
         transform="translate(278.6904,159.2139)"
         id="g3698"
         style="fill:#ffffff;fill-opacity:1"><path
           inkscape:connector-curvature="0"
           id="path3700"
           style="fill:#ffffff;fill-opacity:1;fill-rule:nonzero;stroke:none"
           d="m 0,0 c 0,-11.307 6.928,-18.954 17.189,-18.954 10.131,0 17.19,7.712 17.19,18.954 0,11.307 -7.059,18.954 -17.19,18.954 C 6.928,19.02 0,11.307 0,0 m 54.118,0.261 c 0,-21.045 -14.902,-35.228 -36.929,-35.228 -22.156,0 -37.058,14.248 -37.058,35.228 0,21.177 14.902,35.098 37.058,35.098 22.027,0.066 36.929,-13.921 36.929,-35.098" /></g><g
         transform="translate(391.7622,159.7368)"
         id="g3702"
         style="fill:#ffffff;fill-opacity:1"><path
           inkscape:connector-curvature="0"
           id="path3704"
           style="fill:#ffffff;fill-opacity:1;fill-rule:nonzero;stroke:none"
           d="m 0,0 c 0,11.045 -6.928,18.954 -17.059,18.954 -10.13,0 -17.189,-7.843 -17.189,-18.954 0,-11.438 7.059,-19.085 17.189,-19.085 C -6.928,-19.085 0,-11.307 0,0 m 20,-0.654 c 0,-20.915 -12.68,-34.902 -32.026,-34.902 -9.608,0 -17.189,3.856 -22.157,10.785 v -34.902 h -19.738 v 93.922 h 19.738 V 24.118 c 4.902,6.927 12.418,10.784 21.765,10.784 C 6.928,34.902 20,20.653 20,-0.654" /></g><g
         transform="translate(467.0566,165.0962)"
         id="g3706"
         style="fill:#ffffff;fill-opacity:1"><path
           inkscape:connector-curvature="0"
           id="path3708"
           style="fill:#ffffff;fill-opacity:1;fill-rule:nonzero;stroke:none"
           d="M 0,0 C -0.262,9.085 -6.144,15.033 -15.229,15.033 -23.922,15.033 -29.869,9.15 -31.373,0 Z M 18.496,-11.634 H -30.98 c 2.287,-8.693 8.954,-13.856 17.842,-13.856 6.536,0 12.68,2.549 17.451,7.32 l 10.393,-10.523 c -6.929,-7.712 -17.06,-12.157 -29.477,-12.157 -22.027,0 -36.014,14.118 -36.014,35.033 0,21.307 14.511,35.359 35.491,35.359 24.183,0 35.425,-16.078 33.79,-41.176" /></g><g
         transform="translate(559.4092,168.3643)"
         id="g3710"
         style="fill:#ffffff;fill-opacity:1"><path
           inkscape:connector-curvature="0"
           id="path3712"
           style="fill:#ffffff;fill-opacity:1;fill-rule:nonzero;stroke:none"
           d="m 0,0 v -43.333 h -19.738 v 37.581 c 0,8.693 -5.098,14.118 -13.595,14.118 -9.869,-0.131 -15.752,-7.582 -15.752,-17.713 v -33.986 h -19.738 v 68.954 h 19.738 V 13.595 c 4.902,8.562 13.072,12.679 23.856,12.81 C -9.869,26.405 0,16.144 0,0" /></g><path
         inkscape:connector-curvature="0"
         id="path3726"
         style="fill:#ffffff;fill-opacity:1;fill-rule:nonzero;stroke:none"
         d="m 365.292,111.894 h 263.791 v -5.359 H 365.292 Z" /><path
         inkscape:connector-curvature="0"
         id="path3728"
         style="fill:#ffffff;fill-opacity:1;fill-rule:nonzero;stroke:none"
         d="m 258.821,111.894 h 71.176 v -5.359 h -71.176 z" /><g
         transform="translate(689.8672,106.5996)"
         id="g3730"
         style="fill:#ffffff;fill-opacity:1"><path
           inkscape:connector-curvature="0"
           id="path3732"
           style="fill:#ffffff;fill-opacity:1;fill-rule:nonzero;stroke:none"
           d="m 0,0 h 55.947 l 4.837,5.294 H 0 Z" /></g><g
         transform="translate(656.1416,90.3252)"
         id="g3734"
         style="fill:#ffffff;fill-opacity:1"><path
           inkscape:connector-curvature="0"
           id="path3736"
           style="fill:#ffffff;fill-opacity:1;fill-rule:nonzero;stroke:none"
           d="M 0,0 -26.993,86.013 V 16.209 h -7.386 v 86.536 h 9.608 L 0,21.046 24.706,102.745 h 9.477 V 16.274 h -7.321 v 69.804 z" /></g><g
         transform="translate(576.4023,185.5537)"
         id="g3738"
         style="fill:#ffffff;fill-opacity:1"><path
           inkscape:connector-curvature="0"
           id="path3740"
           style="fill:#ffffff;fill-opacity:1;fill-rule:nonzero;stroke:none"
           d="m 0,0 v -22.288 h 34.184 v -7.451 H 0 v -23.202 h 39.478 v -7.386 H -7.777 V 7.517 H 38.171 V 0.065 H 0 Z" /></g><g
         transform="translate(723.2002,154.1157)"
         id="g3742"
         style="fill:#ffffff;fill-opacity:1"><path
           inkscape:connector-curvature="0"
           id="path3744"
           style="fill:#ffffff;fill-opacity:1;fill-rule:nonzero;stroke:none"
           d="m 0,0 c 12.288,0 19.281,5.425 19.281,15.948 0,10.261 -6.993,15.49 -19.281,15.49 H -17.974 V 0 Z M 4.575,-7.255 C 3.138,-7.32 1.568,-7.451 0,-7.451 h -17.974 v -21.372 h -7.713 V 38.955 H 0.065 c 16.928,0 26.733,-8.301 26.733,-22.746 0,-11.242 -5.426,-18.758 -15.164,-21.96 l 15.883,-23.007 h -8.824 z" /></g><g
         id="g3854"
         transform="matrix(0.74202937,0,0,0.74202937,54.025778,36.06183)"
         style="fill:#ffffff;fill-opacity:1"><g
           id="g3714"
           transform="translate(208.2329,185.5537)"
           style="fill:#ffffff;fill-opacity:1"><path
             d="m 0,0 c -7.909,19.673 -27.189,33.529 -49.673,33.529 -29.543,0 -53.53,-23.987 -53.53,-53.529 0,-3.137 0.262,-6.274 0.785,-9.281 -0.85,4.314 -1.308,8.758 -1.308,13.333 0,36.601 29.674,66.275 66.275,66.275 27.451,0 50.98,-16.667 61.046,-40.458 0.654,-1.568 1.046,-3.267 1.046,-5.033 0,-7.058 -5.687,-12.745 -12.745,-12.745 C 6.471,-7.974 1.896,-4.641 0,0"
             style="fill:#ffffff;fill-opacity:1;fill-rule:nonzero;stroke:none"
             id="path3716"
             inkscape:connector-curvature="0" /></g><g
           id="g3718"
           transform="translate(142.416,98.7559)"
           style="fill:#ffffff;fill-opacity:1"><path
             d="m 0,0 c 19.477,-8.3 42.941,-4.444 58.823,11.438 20.915,20.916 20.915,54.837 0,75.752 -2.222,2.222 -4.64,4.248 -7.124,6.013 3.66,-2.418 7.124,-5.229 10.392,-8.496 25.883,-25.883 25.883,-67.844 0,-93.727 -19.411,-19.411 -47.843,-24.248 -71.764,-14.575 -1.569,0.655 -3.007,1.57 -4.314,2.811 -4.967,4.968 -4.967,13.072 0,18.04 C -10.196,1.046 -4.641,1.961 0,0"
             style="fill:#ffffff;fill-opacity:1;fill-rule:nonzero;stroke:none"
             id="path3720"
             inkscape:connector-curvature="0" /></g><g
           id="g3722"
           transform="translate(102.416,184.6387)"
           style="fill:#ffffff;fill-opacity:1"><path
             d="m 0,0 c -8.301,-19.477 -4.444,-42.941 11.438,-58.824 20.915,-20.914 54.836,-20.914 75.751,0 2.223,2.222 4.249,4.641 6.014,7.125 -2.419,-3.66 -5.229,-7.125 -8.497,-10.392 -25.883,-25.883 -67.843,-25.883 -93.726,0 -19.412,19.411 -24.248,47.842 -14.575,71.764 0.654,1.569 1.569,3.007 2.811,4.314 4.967,4.967 13.072,4.967 18.039,0 C 1.046,10.196 1.961,4.641 0,0"
             style="fill:#ffffff;fill-opacity:1;fill-rule:nonzero;stroke:none"
             id="path3724"
             inkscape:connector-curvature="0" /></g><g
           id="g3746"
           transform="translate(208.2329,185.5537)"
           style="fill:#ffffff;fill-opacity:1"><path
             d="m 0,0 c -7.909,19.673 -27.189,33.529 -49.673,33.529 -29.543,0 -53.53,-23.987 -53.53,-53.529 0,-3.137 0.262,-6.274 0.785,-9.281 -0.85,4.314 -1.308,8.758 -1.308,13.333 0,36.601 29.674,66.275 66.275,66.275 27.451,0 50.98,-16.667 61.046,-40.458 0.654,-1.568 1.046,-3.267 1.046,-5.033 0,-7.058 -5.687,-12.745 -12.745,-12.745 C 6.471,-7.974 1.896,-4.641 0,0"
             style="fill:#ffffff;fill-opacity:1;fill-rule:nonzero;stroke:none"
             id="path3748"
             inkscape:connector-curvature="0" /></g><g
           id="g3750"
           transform="translate(142.416,98.7559)"
           style="fill:#ffffff;fill-opacity:1"><path
             d="m 0,0 c 19.477,-8.3 42.941,-4.444 58.823,11.438 20.915,20.916 20.915,54.837 0,75.752 -2.222,2.222 -4.64,4.248 -7.124,6.013 3.66,-2.418 7.124,-5.229 10.392,-8.496 25.883,-25.883 25.883,-67.844 0,-93.727 -19.411,-19.411 -47.843,-24.248 -71.764,-14.575 -1.569,0.655 -3.007,1.57 -4.314,2.811 -4.967,4.968 -4.967,13.072 0,18.04 C -10.196,1.046 -4.641,1.961 0,0"
             style="fill:#ffffff;fill-opacity:1;fill-rule:nonzero;stroke:none"
             id="path3752"
             inkscape:connector-curvature="0" /></g><g
           id="g3754"
           transform="translate(102.416,184.6387)"
           style="fill:#ffffff;fill-opacity:1"><path
             d="m 0,0 c -8.301,-19.477 -4.444,-42.941 11.438,-58.824 20.915,-20.914 54.836,-20.914 75.751,0 2.223,2.222 4.249,4.641 6.014,7.125 -2.419,-3.66 -5.229,-7.125 -8.497,-10.392 -25.883,-25.883 -67.843,-25.883 -93.726,0 -19.412,19.411 -24.248,47.842 -14.575,71.764 0.654,1.569 1.569,3.007 2.811,4.314 4.967,4.967 13.072,4.967 18.039,0 C 1.046,10.196 1.961,4.641 0,0"
             style="fill:#ffffff;fill-opacity:1;fill-rule:nonzero;stroke:none"
             id="path3756"
             inkscape:connector-curvature="0" /></g></g><path
         inkscape:connector-curvature="0"
         id="path3776"
         style="fill:#ffffff;fill-opacity:1;fill-rule:nonzero;stroke:none"
         d="m 258.821,111.894 h 71.176 v -5.359 h -71.176 z" /></g></g></svg>