<svg id="Layer_1" data-name="Layer 1" xmlns="http://www.w3.org/2000/svg" viewBox="0 0 476.59 50.73"><defs><style>.cls-1{fill:#fff;}</style></defs><title>gt_logo</title><path class="cls-1" d="M97.85,14.75a9.8,9.8,0,0,0-.12,1.54,10,10,0,0,0,2.44,6.42l20,20.06L123,40Z"/><path class="cls-1" d="M114.46,8.87a9.83,9.83,0,0,0-6.86-2.65,9.51,9.51,0,0,0-1.31.1l25.39,25.4,2.82-2.81Z"/><path class="cls-1" d="M135.2,5.93a10,10,0,0,0-6.63,2.62L107.3,29.82l2.81,2.82,26.6-26.59A9.51,9.51,0,0,0,135.2,5.93Z"/><path class="cls-1" d="M140.8,7.59,113.25,35.12l2.81,2.82L143.61,10.4A10,10,0,0,0,140.8,7.59Z"/><path class="cls-1" d="M145.27,15.81a11.36,11.36,0,0,0-.11-1.33l-26.61,26.6,2.81,2.81L142.8,22.46A9.93,9.93,0,0,0,145.27,15.81Z"/><path class="cls-1" d="M102.21,7.87a9.92,9.92,0,0,0-1.55,1.26l-.13.13a10.34,10.34,0,0,0-1.14,1.41L127,38.27l2.81-2.81Z"/><rect class="cls-1" x="125.16" y="20" width="3.98" height="8.73" transform="translate(19.96 96.98) rotate(-44.97)"/><rect class="cls-1" x="113.96" y="31.22" width="3.98" height="8.91" transform="translate(8.73 92.42) rotate(-44.99)"/><rect class="cls-1" x="116.81" y="27.86" width="9.06" height="3.98" transform="translate(14.39 94.47) rotate(-44.96)"/><path class="cls-1" d="M20.17,35H14.88l.49-3H20.7l1.18-6.85H16.63l.49-3h5.29L23.84,14h3.3l-1.43,8.15H32L33.45,14h3.3l-1.42,8.15h5.34l-.53,3h-5.3L33.62,32h5.29l-.53,3H33.13l-1.39,7.78h-3.3L29.79,35H23.47l-1.34,7.78h-3.3Zm10.15-3,1.22-6.85H25.23L24,32Z"/><path class="cls-1" d="M63,6.42c8.55,0,13,4.3,13,4.3l-2.53,3.75A16.46,16.46,0,0,0,63.42,11C55,11,50,17.1,50,24.74c0,8.29,5.66,14,13.15,14a14.6,14.6,0,0,0,10.12-4.46V29.14H67.42V24.78H77.79v18h-4.4V40.52c0-.76,0-1.52,0-1.52h-.1a15.4,15.4,0,0,1-11,4.35c-9.61,0-17.55-7.59-17.55-18.51A18,18,0,0,1,63,6.42Z"/><path class="cls-1" d="M85.63,7h5V42.74h-5Z"/><path class="cls-1" d="M152.34,7h5V42.74h-5Z"/><path class="cls-1" d="M167.06,7h5L187.9,30.25c1.31,1.92,3,5.16,3,5.16h.1s-.35-3.19-.35-5.16V7h5V42.74h-4.91L174.8,19.58c-1.32-2-3-5.22-3-5.22h-.1s.36,3.19.36,5.22V42.74h-5Z"/><path class="cls-1" d="M221.18,6.42c8.55,0,13,4.3,13,4.3l-2.53,3.75A16.46,16.46,0,0,0,221.58,11c-8.39,0-13.45,6.12-13.45,13.76,0,8.29,5.67,14,13.15,14a14.6,14.6,0,0,0,10.12-4.46V29.14h-5.82V24.78H236v18h-4.4V40.52c0-.76,0-1.52,0-1.52h-.1a15.4,15.4,0,0,1-11,4.35c-9.61,0-17.55-7.59-17.55-18.51A18,18,0,0,1,221.18,6.42Z"/><path class="cls-1" d="M254.84,11.38H242.6V7h29.49v4.35H259.85V42.74h-5Z"/><path class="cls-1" d="M276.69,7h5V30.1c0,5.46,3.54,8.65,9,8.65s9.11-3.19,9.11-8.75V7h5V30.1c0,7.94-5.72,13.25-14.07,13.25S276.69,38,276.69,30.1Z"/><path class="cls-1" d="M314,7h20.74v4.35H319V22.56h12.8v4.35H319V38.39h16.6v4.35H314Z"/><path class="cls-1" d="M343.1,34.85a14.13,14.13,0,0,0,9.11,3.84c3.34,0,6.17-1.87,6.17-5.26,0-7.74-17.3-6.07-17.3-17,0-5.57,4.81-10,11.53-10S362.73,10,362.73,10l-2.28,4.14a12.61,12.61,0,0,0-7.84-3.08c-3.79,0-6.47,2.37-6.47,5.21,0,7.38,17.3,5.41,17.3,17,0,5.52-4.25,10.07-11.33,10.07a16.7,16.7,0,0,1-11.84-4.71Z"/><path class="cls-1" d="M370.62,7h11.83c10.93,0,18.11,6.52,18.11,17.81s-7.18,17.9-18.11,17.9H370.62ZM382.1,38.39c8,0,13.3-4.75,13.3-13.55s-5.31-13.46-13.3-13.46h-6.47v27Z"/><path class="cls-1" d="M425.55,32.47H412.09l-3.54,10.27H403.4L416.24,7h5.26l12.85,35.71h-5.21Zm-6.73-20.53S418,15.17,417.4,17l-4,11.33h10.82L420.29,17c-.61-1.83-1.37-5.06-1.37-5.06Z"/><path class="cls-1" d="M444.77,27.62,432.78,7h5.67l6.62,11.74c1.11,2,2.18,4.5,2.18,4.5h.1s1.06-2.48,2.17-4.5L456.05,7h5.66L449.78,27.62V42.74h-5Z"/></svg>