<?xml version="1.0" encoding="UTF-8" standalone="no"?>
<!DOCTYPE svg PUBLIC "-//W3C//DTD SVG 1.1//EN"
 "http://www.w3.org/Graphics/SVG/1.1/DTD/svg11.dtd">
<!-- Generated by graphviz version 2.40.1 (20161225.0304)
 -->
<!-- Title: orphans Pages: 1 -->
<svg width="286pt" height="1543pt"
 viewBox="0.00 0.00 286.00 1543.00" xmlns="http://www.w3.org/2000/svg" xmlns:xlink="http://www.w3.org/1999/xlink">
<g id="graph0" class="graph" transform="scale(1 1) rotate(0) translate(4 1539)">
<title>orphans</title>
<polygon fill="#ffffff" stroke="transparent" points="-4,4 -4,-1539 282,-1539 282,4 -4,4"/>
<!-- care_teams -->
<g id="node1" class="node">
<title>care_teams</title>
<g id="a_node1"><a xlink:href="../../tables/care_teams.html" xlink:title="care_teams" target="_top">
<polygon fill="#ffffff" stroke="transparent" points="47,-4 47,-270 231,-270 231,-4 47,-4"/>
<polygon fill="#f5f5f5" stroke="transparent" points="49,-245 49,-268 229,-268 229,-245 49,-245"/>
<polygon fill="none" stroke="#000000" points="49,-245 49,-268 229,-268 229,-245 49,-245"/>
<text text-anchor="start" x="54" y="-253.6" font-family="Helvetica,sans-Serif" font-weight="bold" font-size="11.00" fill="#000000">care_teams</text>
<text text-anchor="start" x="194.0437" y="-253.1" font-family="Helvetica,sans-Serif" font-size="11.00" fill="#000000">[table]</text>
<polygon fill="none" stroke="#000000" points="49,-223 49,-245 162,-245 162,-223 49,-223"/>
<image xlink:href="../../images/primaryKeys.png" width="11px" height="12px" preserveAspectRatio="xMinYMin meet" x="54" y="-240"/>
<text text-anchor="start" x="69" y="-230.1" font-family="Helvetica,sans-Serif" font-size="11.00" fill="#000000">id</text>
<polygon fill="none" stroke="#000000" points="162,-223 162,-245 229,-245 229,-223 162,-223"/>
<text text-anchor="start" x="165" y="-230.7" font-family="Helvetica,sans-Serif" font-size="11.00" fill="#000000">int[10]</text>
<polygon fill="#ffffff" stroke="transparent" points="49,-201 49,-223 162,-223 162,-201 49,-201"/>
<polygon fill="none" stroke="#000000" points="49,-201 49,-223 162,-223 162,-201 49,-201"/>
<text text-anchor="start" x="69" y="-208.1" font-family="Helvetica,sans-Serif" font-size="11.00" fill="#000000">uuid</text>
<polygon fill="none" stroke="#000000" points="162,-201 162,-223 229,-223 229,-201 162,-201"/>
<text text-anchor="start" x="165" y="-208.7" font-family="Helvetica,sans-Serif" font-size="11.00" fill="#000000">binary[16]</text>
<polygon fill="none" stroke="#000000" points="49,-179 49,-201 162,-201 162,-179 49,-179"/>
<text text-anchor="start" x="69" y="-186.1" font-family="Helvetica,sans-Serif" font-size="11.00" fill="#000000">pid</text>
<polygon fill="none" stroke="#000000" points="162,-179 162,-201 229,-201 229,-179 162,-179"/>
<text text-anchor="start" x="165" y="-186.7" font-family="Helvetica,sans-Serif" font-size="11.00" fill="#000000">int[10]</text>
<polygon fill="none" stroke="#000000" points="49,-157 49,-179 162,-179 162,-157 49,-157"/>
<text text-anchor="start" x="69" y="-164.1" font-family="Helvetica,sans-Serif" font-size="11.00" fill="#000000">status</text>
<polygon fill="none" stroke="#000000" points="162,-157 162,-179 229,-179 229,-157 162,-157"/>
<text text-anchor="start" x="164.9365" y="-164.7" font-family="Helvetica,sans-Serif" font-size="11.00" fill="#000000">varchar[100]</text>
<polygon fill="none" stroke="#000000" points="49,-135 49,-157 162,-157 162,-135 49,-135"/>
<text text-anchor="start" x="69" y="-142.1" font-family="Helvetica,sans-Serif" font-size="11.00" fill="#000000">team_name</text>
<polygon fill="none" stroke="#000000" points="162,-135 162,-157 229,-157 229,-135 162,-135"/>
<text text-anchor="start" x="164.9365" y="-142.7" font-family="Helvetica,sans-Serif" font-size="11.00" fill="#000000">varchar[255]</text>
<polygon fill="none" stroke="#000000" points="49,-113 49,-135 162,-135 162,-113 49,-113"/>
<text text-anchor="start" x="69" y="-120.1" font-family="Helvetica,sans-Serif" font-size="11.00" fill="#000000">note</text>
<polygon fill="none" stroke="#000000" points="162,-113 162,-135 229,-135 229,-113 162,-113"/>
<text text-anchor="start" x="165" y="-120.7" font-family="Helvetica,sans-Serif" font-size="11.00" fill="#000000">text[65535]</text>
<polygon fill="none" stroke="#000000" points="49,-91 49,-113 162,-113 162,-91 49,-91"/>
<text text-anchor="start" x="69" y="-98.1" font-family="Helvetica,sans-Serif" font-size="11.00" fill="#000000">date_created</text>
<polygon fill="none" stroke="#000000" points="162,-91 162,-113 229,-113 229,-91 162,-91"/>
<text text-anchor="start" x="165" y="-98.7" font-family="Helvetica,sans-Serif" font-size="11.00" fill="#000000">datetime[19]</text>
<polygon fill="none" stroke="#000000" points="49,-69 49,-91 162,-91 162,-69 49,-69"/>
<text text-anchor="start" x="69" y="-76.1" font-family="Helvetica,sans-Serif" font-size="11.00" fill="#000000">date_updated</text>
<polygon fill="none" stroke="#000000" points="162,-69 162,-91 229,-91 229,-69 162,-69"/>
<text text-anchor="start" x="165" y="-76.7" font-family="Helvetica,sans-Serif" font-size="11.00" fill="#000000">datetime[19]</text>
<polygon fill="none" stroke="#000000" points="49,-47 49,-69 162,-69 162,-47 49,-47"/>
<text text-anchor="start" x="69" y="-54.1" font-family="Helvetica,sans-Serif" font-size="11.00" fill="#000000">created_by</text>
<polygon fill="none" stroke="#000000" points="162,-47 162,-69 229,-69 229,-47 162,-47"/>
<text text-anchor="start" x="165" y="-54.7" font-family="Helvetica,sans-Serif" font-size="11.00" fill="#000000">bigint[19]</text>
<polygon fill="none" stroke="#000000" points="49,-25 49,-47 162,-47 162,-25 49,-25"/>
<text text-anchor="start" x="69" y="-32.1" font-family="Helvetica,sans-Serif" font-size="11.00" fill="#000000">updated_by</text>
<polygon fill="none" stroke="#000000" points="162,-25 162,-47 229,-47 229,-25 162,-25"/>
<text text-anchor="start" x="165" y="-32.7" font-family="Helvetica,sans-Serif" font-size="11.00" fill="#000000">bigint[19]</text>
<polygon fill="#ffffff" stroke="transparent" points="49,-6 49,-25 110,-25 110,-6 49,-6"/>
<polygon fill="none" stroke="#000000" points="49,-6 49,-25 110,-25 110,-6 49,-6"/>
<text text-anchor="start" x="52" y="-12.1" font-family="Helvetica,sans-Serif" font-size="11.00" fill="#000000">&lt; 0</text>
<polygon fill="#ffffff" stroke="transparent" points="110,-6 110,-25 162,-25 162,-6 110,-6"/>
<polygon fill="none" stroke="#000000" points="110,-6 110,-25 162,-25 162,-6 110,-6"/>
<text text-anchor="start" x="152.8862" y="-12.1" font-family="Helvetica,sans-Serif" font-size="11.00" fill="#000000"> &#160;</text>
<polygon fill="#ffffff" stroke="transparent" points="162,-6 162,-25 229,-25 229,-6 162,-6"/>
<polygon fill="none" stroke="#000000" points="162,-6 162,-25 229,-25 229,-6 162,-6"/>
<text text-anchor="start" x="210.4053" y="-12.1" font-family="Helvetica,sans-Serif" font-size="11.00" fill="#000000">0 &gt;</text>
<polygon fill="none" stroke="#000000" stroke-width="2" points="48,-5 48,-269 230,-269 230,-5 48,-5"/>
</a>
</g>
</g>
<!-- onsite_mail -->
<g id="node2" class="node">
<title>onsite_mail</title>
<g id="a_node2"><a xlink:href="../../tables/onsite_mail.html" xlink:title="onsite_mail" target="_top">
<polygon fill="#ffffff" stroke="transparent" points="11,-291 11,-821 267,-821 267,-291 11,-291"/>
<polygon fill="#f5f5f5" stroke="transparent" points="13,-796 13,-819 265,-819 265,-796 13,-796"/>
<polygon fill="none" stroke="#000000" points="13,-796 13,-819 265,-819 265,-796 13,-796"/>
<text text-anchor="start" x="18" y="-804.6" font-family="Helvetica,sans-Serif" font-weight="bold" font-size="11.00" fill="#000000">onsite_mail</text>
<text text-anchor="start" x="230.0437" y="-804.1" font-family="Helvetica,sans-Serif" font-size="11.00" fill="#000000">[table]</text>
<polygon fill="none" stroke="#000000" points="13,-774 13,-796 154,-796 154,-774 13,-774"/>
<image xlink:href="../../images/primaryKeys.png" width="11px" height="12px" preserveAspectRatio="xMinYMin meet" x="18" y="-791"/>
<text text-anchor="start" x="33" y="-781.1" font-family="Helvetica,sans-Serif" font-size="11.00" fill="#000000">id</text>
<polygon fill="none" stroke="#000000" points="154,-774 154,-796 265,-796 265,-774 154,-774"/>
<text text-anchor="start" x="157" y="-781.7" font-family="Helvetica,sans-Serif" font-size="11.00" fill="#000000">bigint[19]</text>
<polygon fill="none" stroke="#000000" points="13,-752 13,-774 154,-774 154,-752 13,-752"/>
<text text-anchor="start" x="33" y="-759.1" font-family="Helvetica,sans-Serif" font-size="11.00" fill="#000000">date</text>
<polygon fill="none" stroke="#000000" points="154,-752 154,-774 265,-774 265,-752 154,-752"/>
<text text-anchor="start" x="157" y="-759.7" font-family="Helvetica,sans-Serif" font-size="11.00" fill="#000000">datetime[19]</text>
<polygon fill="#ffffff" stroke="transparent" points="13,-730 13,-752 154,-752 154,-730 13,-730"/>
<polygon fill="none" stroke="#000000" points="13,-730 13,-752 154,-752 154,-730 13,-730"/>
<text text-anchor="start" x="33" y="-737.1" font-family="Helvetica,sans-Serif" font-size="11.00" fill="#000000">owner</text>
<polygon fill="none" stroke="#000000" points="154,-730 154,-752 265,-752 265,-730 154,-730"/>
<text text-anchor="start" x="157" y="-737.7" font-family="Helvetica,sans-Serif" font-size="11.00" fill="#000000">varchar[128]</text>
<polygon fill="none" stroke="#000000" points="13,-708 13,-730 154,-730 154,-708 13,-708"/>
<text text-anchor="start" x="33" y="-715.1" font-family="Helvetica,sans-Serif" font-size="11.00" fill="#000000">user</text>
<polygon fill="none" stroke="#000000" points="154,-708 154,-730 265,-730 265,-708 154,-708"/>
<text text-anchor="start" x="157" y="-715.7" font-family="Helvetica,sans-Serif" font-size="11.00" fill="#000000">varchar[255]</text>
<polygon fill="none" stroke="#000000" points="13,-686 13,-708 154,-708 154,-686 13,-686"/>
<text text-anchor="start" x="33" y="-693.1" font-family="Helvetica,sans-Serif" font-size="11.00" fill="#000000">groupname</text>
<polygon fill="none" stroke="#000000" points="154,-686 154,-708 265,-708 265,-686 154,-686"/>
<text text-anchor="start" x="157" y="-693.7" font-family="Helvetica,sans-Serif" font-size="11.00" fill="#000000">varchar[255]</text>
<polygon fill="none" stroke="#000000" points="13,-664 13,-686 154,-686 154,-664 13,-664"/>
<text text-anchor="start" x="33" y="-671.1" font-family="Helvetica,sans-Serif" font-size="11.00" fill="#000000">activity</text>
<polygon fill="none" stroke="#000000" points="154,-664 154,-686 265,-686 265,-664 154,-664"/>
<text text-anchor="start" x="157" y="-671.7" font-family="Helvetica,sans-Serif" font-size="11.00" fill="#000000">tinyint[3]</text>
<polygon fill="none" stroke="#000000" points="13,-642 13,-664 154,-664 154,-642 13,-642"/>
<text text-anchor="start" x="33" y="-649.1" font-family="Helvetica,sans-Serif" font-size="11.00" fill="#000000">authorized</text>
<polygon fill="none" stroke="#000000" points="154,-642 154,-664 265,-664 265,-642 154,-642"/>
<text text-anchor="start" x="157" y="-649.7" font-family="Helvetica,sans-Serif" font-size="11.00" fill="#000000">tinyint[3]</text>
<polygon fill="none" stroke="#000000" points="13,-620 13,-642 154,-642 154,-620 13,-620"/>
<text text-anchor="start" x="33" y="-627.1" font-family="Helvetica,sans-Serif" font-size="11.00" fill="#000000">header</text>
<polygon fill="none" stroke="#000000" points="154,-620 154,-642 265,-642 265,-620 154,-620"/>
<text text-anchor="start" x="157" y="-627.7" font-family="Helvetica,sans-Serif" font-size="11.00" fill="#000000">varchar[255]</text>
<polygon fill="none" stroke="#000000" points="13,-598 13,-620 154,-620 154,-598 13,-598"/>
<text text-anchor="start" x="33" y="-605.1" font-family="Helvetica,sans-Serif" font-size="11.00" fill="#000000">title</text>
<polygon fill="none" stroke="#000000" points="154,-598 154,-620 265,-620 265,-598 154,-598"/>
<text text-anchor="start" x="157" y="-605.7" font-family="Helvetica,sans-Serif" font-size="11.00" fill="#000000">varchar[255]</text>
<polygon fill="none" stroke="#000000" points="13,-576 13,-598 154,-598 154,-576 13,-576"/>
<text text-anchor="start" x="33" y="-583.1" font-family="Helvetica,sans-Serif" font-size="11.00" fill="#000000">body</text>
<polygon fill="none" stroke="#000000" points="154,-576 154,-598 265,-598 265,-576 154,-576"/>
<text text-anchor="start" x="156.6115" y="-583.7" font-family="Helvetica,sans-Serif" font-size="11.00" fill="#000000">longtext[2147483647]</text>
<polygon fill="none" stroke="#000000" points="13,-554 13,-576 154,-576 154,-554 13,-554"/>
<text text-anchor="start" x="33" y="-561.1" font-family="Helvetica,sans-Serif" font-size="11.00" fill="#000000">recipient_id</text>
<polygon fill="none" stroke="#000000" points="154,-554 154,-576 265,-576 265,-554 154,-554"/>
<text text-anchor="start" x="157" y="-561.7" font-family="Helvetica,sans-Serif" font-size="11.00" fill="#000000">varchar[128]</text>
<polygon fill="none" stroke="#000000" points="13,-532 13,-554 154,-554 154,-532 13,-532"/>
<text text-anchor="start" x="33" y="-539.1" font-family="Helvetica,sans-Serif" font-size="11.00" fill="#000000">recipient_name</text>
<polygon fill="none" stroke="#000000" points="154,-532 154,-554 265,-554 265,-532 154,-532"/>
<text text-anchor="start" x="157" y="-539.7" font-family="Helvetica,sans-Serif" font-size="11.00" fill="#000000">varchar[255]</text>
<polygon fill="none" stroke="#000000" points="13,-510 13,-532 154,-532 154,-510 13,-510"/>
<text text-anchor="start" x="33" y="-517.1" font-family="Helvetica,sans-Serif" font-size="11.00" fill="#000000">sender_id</text>
<polygon fill="none" stroke="#000000" points="154,-510 154,-532 265,-532 265,-510 154,-510"/>
<text text-anchor="start" x="157" y="-517.7" font-family="Helvetica,sans-Serif" font-size="11.00" fill="#000000">varchar[128]</text>
<polygon fill="none" stroke="#000000" points="13,-488 13,-510 154,-510 154,-488 13,-488"/>
<text text-anchor="start" x="33" y="-495.1" font-family="Helvetica,sans-Serif" font-size="11.00" fill="#000000">sender_name</text>
<polygon fill="none" stroke="#000000" points="154,-488 154,-510 265,-510 265,-488 154,-488"/>
<text text-anchor="start" x="157" y="-495.7" font-family="Helvetica,sans-Serif" font-size="11.00" fill="#000000">varchar[255]</text>
<polygon fill="none" stroke="#000000" points="13,-466 13,-488 154,-488 154,-466 13,-466"/>
<text text-anchor="start" x="33" y="-473.1" font-family="Helvetica,sans-Serif" font-size="11.00" fill="#000000">assigned_to</text>
<polygon fill="none" stroke="#000000" points="154,-466 154,-488 265,-488 265,-466 154,-466"/>
<text text-anchor="start" x="157" y="-473.7" font-family="Helvetica,sans-Serif" font-size="11.00" fill="#000000">varchar[255]</text>
<polygon fill="none" stroke="#000000" points="13,-444 13,-466 154,-466 154,-444 13,-444"/>
<text text-anchor="start" x="33" y="-451.1" font-family="Helvetica,sans-Serif" font-size="11.00" fill="#000000">deleted</text>
<polygon fill="none" stroke="#000000" points="154,-444 154,-466 265,-466 265,-444 154,-444"/>
<text text-anchor="start" x="157" y="-451.7" font-family="Helvetica,sans-Serif" font-size="11.00" fill="#000000">tinyint[3]</text>
<polygon fill="none" stroke="#000000" points="13,-422 13,-444 154,-444 154,-422 13,-422"/>
<text text-anchor="start" x="33" y="-429.1" font-family="Helvetica,sans-Serif" font-size="11.00" fill="#000000">delete_date</text>
<polygon fill="none" stroke="#000000" points="154,-422 154,-444 265,-444 265,-422 154,-422"/>
<text text-anchor="start" x="157" y="-429.7" font-family="Helvetica,sans-Serif" font-size="11.00" fill="#000000">datetime[19]</text>
<polygon fill="none" stroke="#000000" points="13,-400 13,-422 154,-422 154,-400 13,-400"/>
<text text-anchor="start" x="33" y="-407.1" font-family="Helvetica,sans-Serif" font-size="11.00" fill="#000000">mtype</text>
<polygon fill="none" stroke="#000000" points="154,-400 154,-422 265,-422 265,-400 154,-400"/>
<text text-anchor="start" x="157" y="-407.7" font-family="Helvetica,sans-Serif" font-size="11.00" fill="#000000">varchar[128]</text>
<polygon fill="none" stroke="#000000" points="13,-378 13,-400 154,-400 154,-378 13,-378"/>
<text text-anchor="start" x="33" y="-385.1" font-family="Helvetica,sans-Serif" font-size="11.00" fill="#000000">message_status</text>
<polygon fill="none" stroke="#000000" points="154,-378 154,-400 265,-400 265,-378 154,-378"/>
<text text-anchor="start" x="157" y="-385.7" font-family="Helvetica,sans-Serif" font-size="11.00" fill="#000000">varchar[20]</text>
<polygon fill="none" stroke="#000000" points="13,-356 13,-378 154,-378 154,-356 13,-356"/>
<text text-anchor="start" x="33" y="-363.1" font-family="Helvetica,sans-Serif" font-size="11.00" fill="#000000">mail_chain</text>
<polygon fill="none" stroke="#000000" points="154,-356 154,-378 265,-378 265,-356 154,-356"/>
<text text-anchor="start" x="157" y="-363.7" font-family="Helvetica,sans-Serif" font-size="11.00" fill="#000000">int[10]</text>
<polygon fill="none" stroke="#000000" points="13,-334 13,-356 154,-356 154,-334 13,-334"/>
<text text-anchor="start" x="33" y="-341.1" font-family="Helvetica,sans-Serif" font-size="11.00" fill="#000000">reply_mail_chain</text>
<polygon fill="none" stroke="#000000" points="154,-334 154,-356 265,-356 265,-334 154,-334"/>
<text text-anchor="start" x="157" y="-341.7" font-family="Helvetica,sans-Serif" font-size="11.00" fill="#000000">int[10]</text>
<polygon fill="none" stroke="#000000" points="13,-312 13,-334 154,-334 154,-312 13,-312"/>
<text text-anchor="start" x="33" y="-319.1" font-family="Helvetica,sans-Serif" font-size="11.00" fill="#000000">is_msg_encrypted</text>
<polygon fill="none" stroke="#000000" points="154,-312 154,-334 265,-334 265,-312 154,-312"/>
<text text-anchor="start" x="157" y="-319.7" font-family="Helvetica,sans-Serif" font-size="11.00" fill="#000000">tinyint[3]</text>
<polygon fill="#ffffff" stroke="transparent" points="13,-293 13,-312 88,-312 88,-293 13,-293"/>
<polygon fill="none" stroke="#000000" points="13,-293 13,-312 88,-312 88,-293 13,-293"/>
<text text-anchor="start" x="16" y="-299.1" font-family="Helvetica,sans-Serif" font-size="11.00" fill="#000000">&lt; 0</text>
<polygon fill="#ffffff" stroke="transparent" points="88,-293 88,-312 154,-312 154,-293 88,-293"/>
<polygon fill="none" stroke="#000000" points="88,-293 88,-312 154,-312 154,-293 88,-293"/>
<text text-anchor="start" x="144.8862" y="-299.1" font-family="Helvetica,sans-Serif" font-size="11.00" fill="#000000"> &#160;</text>
<polygon fill="#ffffff" stroke="transparent" points="154,-293 154,-312 265,-312 265,-293 154,-293"/>
<polygon fill="none" stroke="#000000" points="154,-293 154,-312 265,-312 265,-293 154,-293"/>
<text text-anchor="start" x="246.4053" y="-299.1" font-family="Helvetica,sans-Serif" font-size="11.00" fill="#000000">0 &gt;</text>
<polygon fill="none" stroke="#000000" stroke-width="2" points="12,-292 12,-820 266,-820 266,-292 12,-292"/>
</a>
</g>
</g>
<!-- onsite_messages -->
<g id="node3" class="node">
<title>onsite_messages</title>
<g id="a_node3"><a xlink:href="../../tables/onsite_messages.html" xlink:title="onsite_messages" target="_top">
<polygon fill="#ffffff" stroke="transparent" points="14,-842 14,-1042 264,-1042 264,-842 14,-842"/>
<polygon fill="#f5f5f5" stroke="transparent" points="16,-1017 16,-1040 262,-1040 262,-1017 16,-1017"/>
<polygon fill="none" stroke="#000000" points="16,-1017 16,-1040 262,-1040 262,-1017 16,-1017"/>
<text text-anchor="start" x="21" y="-1025.6" font-family="Helvetica,sans-Serif" font-weight="bold" font-size="11.00" fill="#000000">onsite_messages</text>
<text text-anchor="start" x="227.0437" y="-1025.1" font-family="Helvetica,sans-Serif" font-size="11.00" fill="#000000">[table]</text>
<polygon fill="none" stroke="#000000" points="16,-995 16,-1017 151,-1017 151,-995 16,-995"/>
<image xlink:href="../../images/primaryKeys.png" width="11px" height="12px" preserveAspectRatio="xMinYMin meet" x="21" y="-1012"/>
<text text-anchor="start" x="36" y="-1002.1" font-family="Helvetica,sans-Serif" font-size="11.00" fill="#000000">id</text>
<polygon fill="none" stroke="#000000" points="151,-995 151,-1017 262,-1017 262,-995 151,-995"/>
<text text-anchor="start" x="154" y="-1002.7" font-family="Helvetica,sans-Serif" font-size="11.00" fill="#000000">int[10]</text>
<polygon fill="none" stroke="#000000" points="16,-973 16,-995 151,-995 151,-973 16,-973"/>
<text text-anchor="start" x="36" y="-980.1" font-family="Helvetica,sans-Serif" font-size="11.00" fill="#000000">username</text>
<polygon fill="none" stroke="#000000" points="151,-973 151,-995 262,-995 262,-973 151,-973"/>
<text text-anchor="start" x="154" y="-980.7" font-family="Helvetica,sans-Serif" font-size="11.00" fill="#000000">varchar[64]</text>
<polygon fill="none" stroke="#000000" points="16,-951 16,-973 151,-973 151,-951 16,-951"/>
<text text-anchor="start" x="36" y="-958.1" font-family="Helvetica,sans-Serif" font-size="11.00" fill="#000000">message</text>
<polygon fill="none" stroke="#000000" points="151,-951 151,-973 262,-973 262,-951 151,-951"/>
<text text-anchor="start" x="153.6115" y="-958.7" font-family="Helvetica,sans-Serif" font-size="11.00" fill="#000000">longtext[2147483647]</text>
<polygon fill="none" stroke="#000000" points="16,-929 16,-951 151,-951 151,-929 16,-929"/>
<text text-anchor="start" x="36" y="-936.1" font-family="Helvetica,sans-Serif" font-size="11.00" fill="#000000">ip</text>
<polygon fill="none" stroke="#000000" points="151,-929 151,-951 262,-951 262,-929 151,-929"/>
<text text-anchor="start" x="154" y="-936.7" font-family="Helvetica,sans-Serif" font-size="11.00" fill="#000000">varchar[15]</text>
<polygon fill="none" stroke="#000000" points="16,-907 16,-929 151,-929 151,-907 16,-907"/>
<text text-anchor="start" x="36" y="-914.1" font-family="Helvetica,sans-Serif" font-size="11.00" fill="#000000">date</text>
<polygon fill="none" stroke="#000000" points="151,-907 151,-929 262,-929 262,-907 151,-907"/>
<text text-anchor="start" x="154" y="-914.7" font-family="Helvetica,sans-Serif" font-size="11.00" fill="#000000">datetime[19]</text>
<polygon fill="none" stroke="#000000" points="16,-885 16,-907 151,-907 151,-885 16,-885"/>
<text text-anchor="start" x="36" y="-892.1" font-family="Helvetica,sans-Serif" font-size="11.00" fill="#000000">sender_id</text>
<polygon fill="none" stroke="#000000" points="151,-885 151,-907 262,-907 262,-885 151,-885"/>
<text text-anchor="start" x="154" y="-892.7" font-family="Helvetica,sans-Serif" font-size="11.00" fill="#000000">varchar[64]</text>
<polygon fill="none" stroke="#000000" points="16,-863 16,-885 151,-885 151,-863 16,-863"/>
<text text-anchor="start" x="36" y="-870.1" font-family="Helvetica,sans-Serif" font-size="11.00" fill="#000000">recip_id</text>
<polygon fill="none" stroke="#000000" points="151,-863 151,-885 262,-885 262,-863 151,-863"/>
<text text-anchor="start" x="154" y="-870.7" font-family="Helvetica,sans-Serif" font-size="11.00" fill="#000000">varchar[255]</text>
<polygon fill="#ffffff" stroke="transparent" points="16,-844 16,-863 88,-863 88,-844 16,-844"/>
<polygon fill="none" stroke="#000000" points="16,-844 16,-863 88,-863 88,-844 16,-844"/>
<text text-anchor="start" x="19" y="-850.1" font-family="Helvetica,sans-Serif" font-size="11.00" fill="#000000">&lt; 0</text>
<polygon fill="#ffffff" stroke="transparent" points="88,-844 88,-863 151,-863 151,-844 88,-844"/>
<polygon fill="none" stroke="#000000" points="88,-844 88,-863 151,-863 151,-844 88,-844"/>
<text text-anchor="start" x="141.8862" y="-850.1" font-family="Helvetica,sans-Serif" font-size="11.00" fill="#000000"> &#160;</text>
<polygon fill="#ffffff" stroke="transparent" points="151,-844 151,-863 262,-863 262,-844 151,-844"/>
<polygon fill="none" stroke="#000000" points="151,-844 151,-863 262,-863 262,-844 151,-844"/>
<text text-anchor="start" x="243.4053" y="-850.1" font-family="Helvetica,sans-Serif" font-size="11.00" fill="#000000">0 &gt;</text>
<polygon fill="none" stroke="#000000" stroke-width="2" points="15,-843 15,-1041 263,-1041 263,-843 15,-843"/>
</a>
</g>
</g>
<!-- address -->
<g id="node4" class="node">
<title>address</title>
<g id="a_node4"><a xlink:href="../../tables/address.html" xlink:title="address" target="_top">
<polygon fill="#ffffff" stroke="transparent" points="91,-1063 91,-1109 187,-1109 187,-1063 91,-1063"/>
<polygon fill="#f5f5f5" stroke="transparent" points="93,-1084 93,-1107 185,-1107 185,-1084 93,-1084"/>
<polygon fill="none" stroke="#000000" points="93,-1084 93,-1107 185,-1107 185,-1084 93,-1084"/>
<text text-anchor="start" x="98" y="-1092.6" font-family="Helvetica,sans-Serif" font-weight="bold" font-size="11.00" fill="#000000">address</text>
<text text-anchor="start" x="150.5219" y="-1092.1" font-family="Helvetica,sans-Serif" font-size="11.00" fill="#000000">[table]</text>
<polygon fill="#ffffff" stroke="transparent" points="93,-1065 93,-1084 133,-1084 133,-1065 93,-1065"/>
<polygon fill="none" stroke="#000000" points="93,-1065 93,-1084 133,-1084 133,-1065 93,-1065"/>
<text text-anchor="start" x="96" y="-1071.1" font-family="Helvetica,sans-Serif" font-size="11.00" fill="#000000">&lt; 0</text>
<polygon fill="#ffffff" stroke="transparent" points="133,-1065 133,-1084 154,-1084 154,-1065 133,-1065"/>
<polygon fill="none" stroke="#000000" points="133,-1065 133,-1084 154,-1084 154,-1065 133,-1065"/>
<text text-anchor="start" x="144.8862" y="-1071.1" font-family="Helvetica,sans-Serif" font-size="11.00" fill="#000000"> &#160;</text>
<polygon fill="#ffffff" stroke="transparent" points="154,-1065 154,-1084 180,-1084 180,-1065 154,-1065"/>
<polygon fill="none" stroke="#000000" points="154,-1065 154,-1084 180,-1084 180,-1065 154,-1065"/>
<text text-anchor="start" x="161.4053" y="-1071.1" font-family="Helvetica,sans-Serif" font-size="11.00" fill="#000000">0 &gt;</text>
<polygon fill="none" stroke="#000000" stroke-width="2" points="92,-1064 92,-1108 186,-1108 186,-1064 92,-1064"/>
</a>
</g>
</g>
<!-- categories -->
<g id="node5" class="node">
<title>categories</title>
<g id="a_node5"><a xlink:href="../../tables/categories.html" xlink:title="categories" target="_top">
<polygon fill="#ffffff" stroke="transparent" points="82,-1130 82,-1176 196,-1176 196,-1130 82,-1130"/>
<polygon fill="#f5f5f5" stroke="transparent" points="84,-1151 84,-1174 194,-1174 194,-1151 84,-1151"/>
<polygon fill="none" stroke="#000000" points="84,-1151 84,-1174 194,-1174 194,-1151 84,-1151"/>
<text text-anchor="start" x="89" y="-1159.6" font-family="Helvetica,sans-Serif" font-weight="bold" font-size="11.00" fill="#000000">categories</text>
<text text-anchor="start" x="159.5219" y="-1159.1" font-family="Helvetica,sans-Serif" font-size="11.00" fill="#000000">[table]</text>
<polygon fill="#ffffff" stroke="transparent" points="84,-1132 84,-1151 133,-1151 133,-1132 84,-1132"/>
<polygon fill="none" stroke="#000000" points="84,-1132 84,-1151 133,-1151 133,-1132 84,-1132"/>
<text text-anchor="start" x="87" y="-1138.1" font-family="Helvetica,sans-Serif" font-size="11.00" fill="#000000">&lt; 0</text>
<polygon fill="#ffffff" stroke="transparent" points="133,-1132 133,-1151 159,-1151 159,-1132 133,-1132"/>
<polygon fill="none" stroke="#000000" points="133,-1132 133,-1151 159,-1151 159,-1132 133,-1132"/>
<text text-anchor="start" x="149.8862" y="-1138.1" font-family="Helvetica,sans-Serif" font-size="11.00" fill="#000000"> &#160;</text>
<polygon fill="#ffffff" stroke="transparent" points="159,-1132 159,-1151 187,-1151 187,-1132 159,-1132"/>
<polygon fill="none" stroke="#000000" points="159,-1132 159,-1151 187,-1151 187,-1132 159,-1132"/>
<text text-anchor="start" x="168.4053" y="-1138.1" font-family="Helvetica,sans-Serif" font-size="11.00" fill="#000000">0 &gt;</text>
<polygon fill="none" stroke="#000000" stroke-width="2" points="83,-1131 83,-1175 195,-1175 195,-1131 83,-1131"/>
</a>
</g>
</g>
<!-- contact -->
<g id="node6" class="node">
<title>contact</title>
<g id="a_node6"><a xlink:href="../../tables/contact.html" xlink:title="contact" target="_top">
<polygon fill="#ffffff" stroke="transparent" points="29.5,-1197 29.5,-1287 248.5,-1287 248.5,-1197 29.5,-1197"/>
<polygon fill="#f5f5f5" stroke="transparent" points="32,-1262 32,-1285 247,-1285 247,-1262 32,-1262"/>
<polygon fill="none" stroke="#000000" points="32,-1262 32,-1285 247,-1285 247,-1262 32,-1262"/>
<text text-anchor="start" x="37" y="-1270.6" font-family="Helvetica,sans-Serif" font-weight="bold" font-size="11.00" fill="#000000">contact</text>
<text text-anchor="start" x="212.0437" y="-1270.1" font-family="Helvetica,sans-Serif" font-size="11.00" fill="#000000">[table]</text>
<polygon fill="none" stroke="#000000" points="32,-1240 32,-1262 185,-1262 185,-1240 32,-1240"/>
<text text-anchor="start" x="52" y="-1247.1" font-family="Helvetica,sans-Serif" font-size="11.00" fill="#000000">foreign_id</text>
<polygon fill="none" stroke="#000000" points="185,-1240 185,-1262 247,-1262 247,-1240 185,-1240"/>
<text text-anchor="start" x="187.878" y="-1247.7" font-family="Helvetica,sans-Serif" font-size="11.00" fill="#000000">unknown[0]</text>
<polygon fill="none" stroke="#000000" points="32,-1218 32,-1240 185,-1240 185,-1218 32,-1218"/>
<text text-anchor="start" x="52" y="-1225.1" font-family="Helvetica,sans-Serif" font-size="11.00" fill="#000000">foreign_table_name</text>
<polygon fill="none" stroke="#000000" points="185,-1218 185,-1240 247,-1240 247,-1218 185,-1218"/>
<text text-anchor="start" x="187.878" y="-1225.7" font-family="Helvetica,sans-Serif" font-size="11.00" fill="#000000">unknown[0]</text>
<polygon fill="#ffffff" stroke="transparent" points="32,-1199 32,-1218 113,-1218 113,-1199 32,-1199"/>
<polygon fill="none" stroke="#000000" points="32,-1199 32,-1218 113,-1218 113,-1199 32,-1199"/>
<text text-anchor="start" x="35" y="-1205.1" font-family="Helvetica,sans-Serif" font-size="11.00" fill="#000000">&lt; 0</text>
<polygon fill="#ffffff" stroke="transparent" points="113,-1199 113,-1218 185,-1218 185,-1199 113,-1199"/>
<polygon fill="none" stroke="#000000" points="113,-1199 113,-1218 185,-1218 185,-1199 113,-1199"/>
<text text-anchor="start" x="175.8862" y="-1205.1" font-family="Helvetica,sans-Serif" font-size="11.00" fill="#000000"> &#160;</text>
<polygon fill="#ffffff" stroke="transparent" points="185,-1199 185,-1218 247,-1218 247,-1199 185,-1199"/>
<polygon fill="none" stroke="#000000" points="185,-1199 185,-1218 247,-1218 247,-1199 185,-1199"/>
<text text-anchor="start" x="228.4053" y="-1205.1" font-family="Helvetica,sans-Serif" font-size="11.00" fill="#000000">0 &gt;</text>
<polygon fill="none" stroke="#000000" stroke-width="2" points="30.5,-1198 30.5,-1286 247.5,-1286 247.5,-1198 30.5,-1198"/>
</a>
</g>
</g>
<!-- form_physical_exam_diagnoses -->
<g id="node7" class="node">
<title>form_physical_exam_diagnoses</title>
<g id="a_node7"><a xlink:href="../../tables/form_physical_exam_diagnoses.html" xlink:title="form_physical_exam_diagnoses" target="_top">
<polygon fill="#ffffff" stroke="transparent" points="12.5,-1308 12.5,-1354 265.5,-1354 265.5,-1308 12.5,-1308"/>
<polygon fill="#f5f5f5" stroke="transparent" points="15,-1329 15,-1352 264,-1352 264,-1329 15,-1329"/>
<polygon fill="none" stroke="#000000" points="15,-1329 15,-1352 264,-1352 264,-1329 15,-1329"/>
<text text-anchor="start" x="20" y="-1337.6" font-family="Helvetica,sans-Serif" font-weight="bold" font-size="11.00" fill="#000000">form_physical_exam_diagnoses</text>
<text text-anchor="start" x="229.5219" y="-1337.1" font-family="Helvetica,sans-Serif" font-size="11.00" fill="#000000">[table]</text>
<polygon fill="#ffffff" stroke="transparent" points="15,-1310 15,-1329 133,-1329 133,-1310 15,-1310"/>
<polygon fill="none" stroke="#000000" points="15,-1310 15,-1329 133,-1329 133,-1310 15,-1310"/>
<text text-anchor="start" x="18" y="-1316.1" font-family="Helvetica,sans-Serif" font-size="11.00" fill="#000000">&lt; 0</text>
<polygon fill="#ffffff" stroke="transparent" points="133,-1310 133,-1329 194,-1329 194,-1310 133,-1310"/>
<polygon fill="none" stroke="#000000" points="133,-1310 133,-1329 194,-1329 194,-1310 133,-1310"/>
<text text-anchor="start" x="184.8862" y="-1316.1" font-family="Helvetica,sans-Serif" font-size="11.00" fill="#000000"> &#160;</text>
<polygon fill="#ffffff" stroke="transparent" points="194,-1310 194,-1329 239,-1329 239,-1310 194,-1310"/>
<polygon fill="none" stroke="#000000" points="194,-1310 194,-1329 239,-1329 239,-1310 194,-1310"/>
<text text-anchor="start" x="220.4053" y="-1316.1" font-family="Helvetica,sans-Serif" font-size="11.00" fill="#000000">0 &gt;</text>
<polygon fill="none" stroke="#000000" stroke-width="2" points="13.5,-1309 13.5,-1353 264.5,-1353 264.5,-1309 13.5,-1309"/>
</a>
</g>
</g>
<!-- form_track_anything_type -->
<g id="node8" class="node">
<title>form_track_anything_type</title>
<g id="a_node8"><a xlink:href="../../tables/form_track_anything_type.html" xlink:title="form_track_anything_type" target="_top">
<polygon fill="#ffffff" stroke="transparent" points="8,-1375 8,-1531 270,-1531 270,-1375 8,-1375"/>
<polygon fill="#f5f5f5" stroke="transparent" points="10,-1506 10,-1529 268,-1529 268,-1506 10,-1506"/>
<polygon fill="none" stroke="#000000" points="10,-1506 10,-1529 268,-1529 268,-1506 10,-1506"/>
<text text-anchor="start" x="15" y="-1514.6" font-family="Helvetica,sans-Serif" font-weight="bold" font-size="11.00" fill="#000000">form_track_anything_type</text>
<text text-anchor="start" x="233.0437" y="-1514.1" font-family="Helvetica,sans-Serif" font-size="11.00" fill="#000000">[table]</text>
<polygon fill="none" stroke="#000000" points="10,-1484 10,-1506 206,-1506 206,-1484 10,-1484"/>
<text text-anchor="start" x="30" y="-1491.1" font-family="Helvetica,sans-Serif" font-size="11.00" fill="#000000">active</text>
<polygon fill="none" stroke="#000000" points="206,-1484 206,-1506 268,-1506 268,-1484 206,-1484"/>
<text text-anchor="start" x="208.878" y="-1491.7" font-family="Helvetica,sans-Serif" font-size="11.00" fill="#000000">unknown[0]</text>
<polygon fill="none" stroke="#000000" points="10,-1462 10,-1484 206,-1484 206,-1462 10,-1462"/>
<text text-anchor="start" x="30" y="-1469.1" font-family="Helvetica,sans-Serif" font-size="11.00" fill="#000000">description</text>
<polygon fill="none" stroke="#000000" points="206,-1462 206,-1484 268,-1484 268,-1462 206,-1462"/>
<text text-anchor="start" x="208.878" y="-1469.7" font-family="Helvetica,sans-Serif" font-size="11.00" fill="#000000">unknown[0]</text>
<polygon fill="none" stroke="#000000" points="10,-1440 10,-1462 206,-1462 206,-1440 10,-1440"/>
<text text-anchor="start" x="30" y="-1447.1" font-family="Helvetica,sans-Serif" font-size="11.00" fill="#000000">name</text>
<polygon fill="none" stroke="#000000" points="206,-1440 206,-1462 268,-1462 268,-1440 206,-1440"/>
<text text-anchor="start" x="208.878" y="-1447.7" font-family="Helvetica,sans-Serif" font-size="11.00" fill="#000000">unknown[0]</text>
<polygon fill="none" stroke="#000000" points="10,-1418 10,-1440 206,-1440 206,-1418 10,-1418"/>
<text text-anchor="start" x="30" y="-1425.1" font-family="Helvetica,sans-Serif" font-size="11.00" fill="#000000">parent</text>
<polygon fill="none" stroke="#000000" points="206,-1418 206,-1440 268,-1440 268,-1418 206,-1418"/>
<text text-anchor="start" x="208.878" y="-1425.7" font-family="Helvetica,sans-Serif" font-size="11.00" fill="#000000">unknown[0]</text>
<polygon fill="none" stroke="#000000" points="10,-1396 10,-1418 206,-1418 206,-1396 10,-1396"/>
<text text-anchor="start" x="30" y="-1403.1" font-family="Helvetica,sans-Serif" font-size="11.00" fill="#000000">position</text>
<polygon fill="none" stroke="#000000" points="206,-1396 206,-1418 268,-1418 268,-1396 206,-1396"/>
<text text-anchor="start" x="208.878" y="-1403.7" font-family="Helvetica,sans-Serif" font-size="11.00" fill="#000000">unknown[0]</text>
<polygon fill="#ffffff" stroke="transparent" points="10,-1377 10,-1396 112,-1396 112,-1377 10,-1377"/>
<polygon fill="none" stroke="#000000" points="10,-1377 10,-1396 112,-1396 112,-1377 10,-1377"/>
<text text-anchor="start" x="13" y="-1383.1" font-family="Helvetica,sans-Serif" font-size="11.00" fill="#000000">&lt; 0</text>
<polygon fill="#ffffff" stroke="transparent" points="112,-1377 112,-1396 206,-1396 206,-1377 112,-1377"/>
<polygon fill="none" stroke="#000000" points="112,-1377 112,-1396 206,-1396 206,-1377 112,-1377"/>
<text text-anchor="start" x="196.8862" y="-1383.1" font-family="Helvetica,sans-Serif" font-size="11.00" fill="#000000"> &#160;</text>
<polygon fill="#ffffff" stroke="transparent" points="206,-1377 206,-1396 268,-1396 268,-1377 206,-1377"/>
<polygon fill="none" stroke="#000000" points="206,-1377 206,-1396 268,-1396 268,-1377 206,-1377"/>
<text text-anchor="start" x="249.4053" y="-1383.1" font-family="Helvetica,sans-Serif" font-size="11.00" fill="#000000">0 &gt;</text>
<polygon fill="none" stroke="#000000" stroke-width="2" points="9,-1376 9,-1530 269,-1530 269,-1376 9,-1376"/>
</a>
</g>
</g>
</g>
</svg>
