<?xml version="1.0" encoding="UTF-8" standalone="no"?>
<!DOCTYPE svg PUBLIC "-//W3C//DTD SVG 1.1//EN"
 "http://www.w3.org/Graphics/SVG/1.1/DTD/svg11.dtd">
<!-- Generated by graphviz version 2.40.1 (20161225.0304)
 -->
<!-- Title: oneDegreeRelationshipsDiagram Pages: 1 -->
<svg width="1024pt" height="817pt"
 viewBox="0.00 0.00 1024.00 816.78" xmlns="http://www.w3.org/2000/svg" xmlns:xlink="http://www.w3.org/1999/xlink">
<g id="graph0" class="graph" transform="scale(1 1) rotate(0) translate(4 812.7781)">
<title>oneDegreeRelationshipsDiagram</title>
<polygon fill="#ffffff" stroke="transparent" points="-4,4 -4,-812.7781 1020,-812.7781 1020,4 -4,4"/>
<text text-anchor="middle" x="72.4936" y="-7.3" font-family="Helvetica,sans-Serif" font-size="11.00" fill="#000000">Generated by SchemaSpy</text>
<!-- amendments -->
<g id="node1" class="node">
<title>amendments</title>
<g id="a_node1"><a xlink:href="../../tables/amendments.html" xlink:title="amendments" target="_top">
<polygon fill="#ffffff" stroke="transparent" points="550,-538.7781 550,-804.7781 779,-804.7781 779,-538.7781 550,-538.7781"/>
<polygon fill="#f5f5f5" stroke="transparent" points="552.5,-779.7781 552.5,-802.7781 777.5,-802.7781 777.5,-779.7781 552.5,-779.7781"/>
<polygon fill="none" stroke="#000000" points="552.5,-779.7781 552.5,-802.7781 777.5,-802.7781 777.5,-779.7781 552.5,-779.7781"/>
<text text-anchor="start" x="557.5" y="-788.3781" font-family="Helvetica,sans-Serif" font-weight="bold" font-size="11.00" fill="#000000">amendments</text>
<text text-anchor="start" x="742.5437" y="-787.8781" font-family="Helvetica,sans-Serif" font-size="11.00" fill="#000000">[table]</text>
<polygon fill="none" stroke="#000000" points="552.5,-757.7781 552.5,-779.7781 702.5,-779.7781 702.5,-757.7781 552.5,-757.7781"/>
<image xlink:href="../../images/primaryKeys.png" width="11px" height="12px" preserveAspectRatio="xMinYMin meet" x="557.5" y="-774.778"/>
<text text-anchor="start" x="572.5" y="-764.8781" font-family="Helvetica,sans-Serif" font-size="11.00" fill="#000000">amendment_id</text>
<polygon fill="none" stroke="#000000" points="702.5,-757.7781 702.5,-779.7781 777.5,-779.7781 777.5,-757.7781 702.5,-757.7781"/>
<text text-anchor="start" x="705.5" y="-765.4781" font-family="Helvetica,sans-Serif" font-size="11.00" fill="#000000">int[10]</text>
<polygon fill="none" stroke="#000000" points="552.5,-735.7781 552.5,-757.7781 702.5,-757.7781 702.5,-735.7781 552.5,-735.7781"/>
<text text-anchor="start" x="572.5" y="-742.8781" font-family="Helvetica,sans-Serif" font-size="11.00" fill="#000000">amendment_date</text>
<polygon fill="none" stroke="#000000" points="702.5,-735.7781 702.5,-757.7781 777.5,-757.7781 777.5,-735.7781 702.5,-735.7781"/>
<text text-anchor="start" x="705.5" y="-743.4781" font-family="Helvetica,sans-Serif" font-size="11.00" fill="#000000">date[10]</text>
<polygon fill="none" stroke="#000000" points="552.5,-713.7781 552.5,-735.7781 702.5,-735.7781 702.5,-713.7781 552.5,-713.7781"/>
<image xlink:href="../../images/foreignKeys.png" width="11px" height="12px" preserveAspectRatio="xMinYMin meet" x="557.5" y="-730.778"/>
<text text-anchor="start" x="572.5" y="-720.8781" font-family="Helvetica,sans-Serif" font-size="11.00" fill="#000000">amendment_by</text>
<polygon fill="none" stroke="#000000" points="702.5,-713.7781 702.5,-735.7781 777.5,-735.7781 777.5,-713.7781 702.5,-713.7781"/>
<text text-anchor="start" x="705.5" y="-721.4781" font-family="Helvetica,sans-Serif" font-size="11.00" fill="#000000">varchar[50]</text>
<polygon fill="none" stroke="#000000" points="552.5,-691.7781 552.5,-713.7781 702.5,-713.7781 702.5,-691.7781 552.5,-691.7781"/>
<image xlink:href="../../images/foreignKeys.png" width="11px" height="12px" preserveAspectRatio="xMinYMin meet" x="557.5" y="-708.778"/>
<text text-anchor="start" x="572.5" y="-698.8781" font-family="Helvetica,sans-Serif" font-size="11.00" fill="#000000">amendment_status</text>
<polygon fill="none" stroke="#000000" points="702.5,-691.7781 702.5,-713.7781 777.5,-713.7781 777.5,-691.7781 702.5,-691.7781"/>
<text text-anchor="start" x="705.5" y="-699.4781" font-family="Helvetica,sans-Serif" font-size="11.00" fill="#000000">varchar[50]</text>
<polygon fill="#ffffff" stroke="transparent" points="552.5,-669.7781 552.5,-691.7781 702.5,-691.7781 702.5,-669.7781 552.5,-669.7781"/>
<polygon fill="none" stroke="#000000" points="552.5,-669.7781 552.5,-691.7781 702.5,-691.7781 702.5,-669.7781 552.5,-669.7781"/>
<image xlink:href="../../images/foreignKeys.png" width="11px" height="12px" preserveAspectRatio="xMinYMin meet" x="557.5" y="-686.778"/>
<text text-anchor="start" x="572.5" y="-676.8781" font-family="Helvetica,sans-Serif" font-size="11.00" fill="#000000">pid</text>
<polygon fill="none" stroke="#000000" points="702.5,-669.7781 702.5,-691.7781 777.5,-691.7781 777.5,-669.7781 702.5,-669.7781"/>
<text text-anchor="start" x="705.5" y="-677.4781" font-family="Helvetica,sans-Serif" font-size="11.00" fill="#000000">bigint[19]</text>
<polygon fill="none" stroke="#000000" points="552.5,-647.7781 552.5,-669.7781 702.5,-669.7781 702.5,-647.7781 552.5,-647.7781"/>
<text text-anchor="start" x="572.5" y="-654.8781" font-family="Helvetica,sans-Serif" font-size="11.00" fill="#000000">amendment_desc</text>
<polygon fill="none" stroke="#000000" points="702.5,-647.7781 702.5,-669.7781 777.5,-669.7781 777.5,-647.7781 702.5,-647.7781"/>
<text text-anchor="start" x="705.5" y="-655.4781" font-family="Helvetica,sans-Serif" font-size="11.00" fill="#000000">text[65535]</text>
<polygon fill="none" stroke="#000000" points="552.5,-625.7781 552.5,-647.7781 702.5,-647.7781 702.5,-625.7781 552.5,-625.7781"/>
<image xlink:href="../../images/foreignKeys.png" width="11px" height="12px" preserveAspectRatio="xMinYMin meet" x="557.5" y="-642.778"/>
<text text-anchor="start" x="572.5" y="-632.8781" font-family="Helvetica,sans-Serif" font-size="11.00" fill="#000000">created_by</text>
<polygon fill="none" stroke="#000000" points="702.5,-625.7781 702.5,-647.7781 777.5,-647.7781 777.5,-625.7781 702.5,-625.7781"/>
<text text-anchor="start" x="705.5" y="-633.4781" font-family="Helvetica,sans-Serif" font-size="11.00" fill="#000000">int[10]</text>
<polygon fill="none" stroke="#000000" points="552.5,-603.7781 552.5,-625.7781 702.5,-625.7781 702.5,-603.7781 552.5,-603.7781"/>
<image xlink:href="../../images/foreignKeys.png" width="11px" height="12px" preserveAspectRatio="xMinYMin meet" x="557.5" y="-620.778"/>
<text text-anchor="start" x="572.5" y="-610.8781" font-family="Helvetica,sans-Serif" font-size="11.00" fill="#000000">modified_by</text>
<polygon fill="none" stroke="#000000" points="702.5,-603.7781 702.5,-625.7781 777.5,-625.7781 777.5,-603.7781 702.5,-603.7781"/>
<text text-anchor="start" x="705.5" y="-611.4781" font-family="Helvetica,sans-Serif" font-size="11.00" fill="#000000">int[10]</text>
<polygon fill="none" stroke="#000000" points="552.5,-581.7781 552.5,-603.7781 702.5,-603.7781 702.5,-581.7781 552.5,-581.7781"/>
<text text-anchor="start" x="572.5" y="-588.8781" font-family="Helvetica,sans-Serif" font-size="11.00" fill="#000000">created_time</text>
<polygon fill="none" stroke="#000000" points="702.5,-581.7781 702.5,-603.7781 777.5,-603.7781 777.5,-581.7781 702.5,-581.7781"/>
<text text-anchor="start" x="705.4666" y="-589.4781" font-family="Helvetica,sans-Serif" font-size="11.00" fill="#000000">timestamp[19]</text>
<polygon fill="none" stroke="#000000" points="552.5,-559.7781 552.5,-581.7781 702.5,-581.7781 702.5,-559.7781 552.5,-559.7781"/>
<text text-anchor="start" x="572.5" y="-566.8781" font-family="Helvetica,sans-Serif" font-size="11.00" fill="#000000">modified_time</text>
<polygon fill="none" stroke="#000000" points="702.5,-559.7781 702.5,-581.7781 777.5,-581.7781 777.5,-559.7781 702.5,-559.7781"/>
<text text-anchor="start" x="705.4666" y="-567.4781" font-family="Helvetica,sans-Serif" font-size="11.00" fill="#000000">timestamp[19]</text>
<polygon fill="#ffffff" stroke="transparent" points="552.5,-540.7781 552.5,-559.7781 631.5,-559.7781 631.5,-540.7781 552.5,-540.7781"/>
<polygon fill="none" stroke="#000000" points="552.5,-540.7781 552.5,-559.7781 631.5,-559.7781 631.5,-540.7781 552.5,-540.7781"/>
<text text-anchor="start" x="555.5" y="-546.8781" font-family="Helvetica,sans-Serif" font-size="11.00" fill="#000000">&lt; 5</text>
<polygon fill="#ffffff" stroke="transparent" points="631.5,-540.7781 631.5,-559.7781 702.5,-559.7781 702.5,-540.7781 631.5,-540.7781"/>
<polygon fill="none" stroke="#000000" points="631.5,-540.7781 631.5,-559.7781 702.5,-559.7781 702.5,-540.7781 631.5,-540.7781"/>
<text text-anchor="start" x="693.3862" y="-546.8781" font-family="Helvetica,sans-Serif" font-size="11.00" fill="#000000"> &#160;</text>
<polygon fill="#ffffff" stroke="transparent" points="702.5,-540.7781 702.5,-559.7781 777.5,-559.7781 777.5,-540.7781 702.5,-540.7781"/>
<polygon fill="none" stroke="#000000" points="702.5,-540.7781 702.5,-559.7781 777.5,-559.7781 777.5,-540.7781 702.5,-540.7781"/>
<text text-anchor="start" x="758.9053" y="-546.8781" font-family="Helvetica,sans-Serif" font-size="11.00" fill="#000000">1 &gt;</text>
<polygon fill="none" stroke="#000000" stroke-width="2" points="551,-539.7781 551,-803.7781 778,-803.7781 778,-539.7781 551,-539.7781"/>
</a>
</g>
</g>
<!-- list_options -->
<g id="node2" class="node">
<title>list_options</title>
<g id="a_node2"><a xlink:href="../../tables/list_options.html" xlink:title="list_options" target="_top">
<polygon fill="#ffffff" stroke="transparent" points="25.5,-90.2781 25.5,-195.2781 157.5,-195.2781 157.5,-90.2781 25.5,-90.2781"/>
<polygon fill="#f5f5f5" stroke="transparent" points="25.5,-171.7781 25.5,-194.7781 157.5,-194.7781 157.5,-171.7781 25.5,-171.7781"/>
<polygon fill="none" stroke="#000000" points="25.5,-171.7781 25.5,-194.7781 157.5,-194.7781 157.5,-171.7781 25.5,-171.7781"/>
<text text-anchor="start" x="30.5" y="-180.3781" font-family="Helvetica,sans-Serif" font-weight="bold" font-size="11.00" fill="#000000">list_options</text>
<text text-anchor="start" x="122.5437" y="-179.8781" font-family="Helvetica,sans-Serif" font-size="11.00" fill="#000000">[table]</text>
<polygon fill="none" stroke="#000000" points="25.5,-149.7781 25.5,-171.7781 157.5,-171.7781 157.5,-149.7781 25.5,-149.7781"/>
<image xlink:href="../../images/primaryKeys.png" width="11px" height="12px" preserveAspectRatio="xMinYMin meet" x="30.5" y="-166.778"/>
<text text-anchor="start" x="45.5" y="-156.8781" font-family="Helvetica,sans-Serif" font-size="11.00" fill="#000000">list_id</text>
<polygon fill="none" stroke="#000000" points="25.5,-127.7781 25.5,-149.7781 157.5,-149.7781 157.5,-127.7781 25.5,-127.7781"/>
<image xlink:href="../../images/primaryKeys.png" width="11px" height="12px" preserveAspectRatio="xMinYMin meet" x="30.5" y="-144.778"/>
<text text-anchor="start" x="45.5" y="-134.8781" font-family="Helvetica,sans-Serif" font-size="11.00" fill="#000000">option_id</text>
<polygon fill="none" stroke="#000000" points="25.5,-108.7781 25.5,-127.7781 157.5,-127.7781 157.5,-108.7781 25.5,-108.7781"/>
<text text-anchor="start" x="28.5" y="-114.8781" font-family="Helvetica,sans-Serif" font-size="11.00" fill="#000000">...</text>
<polygon fill="#ffffff" stroke="transparent" points="25.5,-89.7781 25.5,-108.7781 77.5,-108.7781 77.5,-89.7781 25.5,-89.7781"/>
<polygon fill="none" stroke="#000000" points="25.5,-89.7781 25.5,-108.7781 77.5,-108.7781 77.5,-89.7781 25.5,-89.7781"/>
<text text-anchor="start" x="28.5" y="-95.8781" font-family="Helvetica,sans-Serif" font-size="11.00" fill="#000000"> &#160;</text>
<polygon fill="#ffffff" stroke="transparent" points="77.5,-89.7781 77.5,-108.7781 109.5,-108.7781 109.5,-89.7781 77.5,-89.7781"/>
<polygon fill="none" stroke="#000000" points="77.5,-89.7781 77.5,-108.7781 109.5,-108.7781 109.5,-89.7781 77.5,-89.7781"/>
<text text-anchor="start" x="100.3862" y="-95.8781" font-family="Helvetica,sans-Serif" font-size="11.00" fill="#000000"> &#160;</text>
<polygon fill="#ffffff" stroke="transparent" points="109.5,-89.7781 109.5,-108.7781 157.5,-108.7781 157.5,-89.7781 109.5,-89.7781"/>
<polygon fill="none" stroke="#000000" points="109.5,-89.7781 109.5,-108.7781 157.5,-108.7781 157.5,-89.7781 109.5,-89.7781"/>
<text text-anchor="start" x="132.7904" y="-95.8781" font-family="Helvetica,sans-Serif" font-size="11.00" fill="#000000">98 &gt;</text>
</a>
</g>
</g>
<!-- amendments&#45;&gt;list_options -->
<g id="edge1" class="edge">
<title>amendments:w&#45;&gt;list_options:e</title>
<path fill="none" stroke="#000000" d="M540.5262,-716.6095C498.6407,-650.3698 550.3136,-202.6083 509,-161.7781 481.1621,-134.266 196.6391,-138.7781 157.5,-138.7781"/>
<polygon fill="#000000" stroke="#000000" points="545.8914,-720.2696 550.4712,-727.752 549.1957,-722.5239 552.5,-724.7781 552.5,-724.7781 552.5,-724.7781 549.1957,-722.5239 554.5288,-721.8043 545.8914,-720.2696 545.8914,-720.2696"/>
<ellipse fill="none" stroke="#000000" cx="543.2479" cy="-718.4662" rx="3.2" ry="3.2"/>
</g>
<!-- amendments&#45;&gt;list_options -->
<g id="edge2" class="edge">
<title>amendments:w&#45;&gt;list_options:e</title>
<path fill="none" stroke="#000000" d="M540.4482,-694.5143C498.4145,-627.5055 551.9881,-174.5999 509,-134.7781 451.6934,-81.6925 235.6162,-138.7781 157.5,-138.7781"/>
<polygon fill="#000000" stroke="#000000" points="545.9021,-698.254 550.4641,-705.7472 549.2011,-700.5161 552.5,-702.7781 552.5,-702.7781 552.5,-702.7781 549.2011,-700.5161 554.5359,-699.8091 545.9021,-698.254 545.9021,-698.254"/>
<ellipse fill="none" stroke="#000000" cx="543.2629" cy="-696.4443" rx="3.2" ry="3.2"/>
</g>
<!-- users -->
<g id="node3" class="node">
<title>users</title>
<g id="a_node3"><a xlink:href="../../tables/users.html" xlink:title="users" target="_top">
<polygon fill="#ffffff" stroke="transparent" points="8,-216.2781 8,-431.2781 175,-431.2781 175,-216.2781 8,-216.2781"/>
<polygon fill="#f5f5f5" stroke="transparent" points="8.5,-407.7781 8.5,-430.7781 175.5,-430.7781 175.5,-407.7781 8.5,-407.7781"/>
<polygon fill="none" stroke="#000000" points="8.5,-407.7781 8.5,-430.7781 175.5,-430.7781 175.5,-407.7781 8.5,-407.7781"/>
<text text-anchor="start" x="13.5" y="-416.3781" font-family="Helvetica,sans-Serif" font-weight="bold" font-size="11.00" fill="#000000">users</text>
<text text-anchor="start" x="140.5437" y="-415.8781" font-family="Helvetica,sans-Serif" font-size="11.00" fill="#000000">[table]</text>
<polygon fill="none" stroke="#000000" points="8.5,-385.7781 8.5,-407.7781 175.5,-407.7781 175.5,-385.7781 8.5,-385.7781"/>
<image xlink:href="../../images/primaryKeys.png" width="11px" height="12px" preserveAspectRatio="xMinYMin meet" x="13.5" y="-402.778"/>
<text text-anchor="start" x="28.5" y="-392.8781" font-family="Helvetica,sans-Serif" font-size="11.00" fill="#000000">id</text>
<polygon fill="#ffffff" stroke="transparent" points="8.5,-363.7781 8.5,-385.7781 175.5,-385.7781 175.5,-363.7781 8.5,-363.7781"/>
<polygon fill="none" stroke="#000000" points="8.5,-363.7781 8.5,-385.7781 175.5,-385.7781 175.5,-363.7781 8.5,-363.7781"/>
<text text-anchor="start" x="28.5" y="-370.8781" font-family="Helvetica,sans-Serif" font-size="11.00" fill="#000000">uuid</text>
<polygon fill="none" stroke="#000000" points="8.5,-341.7781 8.5,-363.7781 175.5,-363.7781 175.5,-341.7781 8.5,-341.7781"/>
<image xlink:href="../../images/primaryKeys.png" width="11px" height="12px" preserveAspectRatio="xMinYMin meet" x="13.5" y="-358.778"/>
<text text-anchor="start" x="28.5" y="-348.8781" font-family="Helvetica,sans-Serif" font-size="11.00" fill="#000000">username</text>
<polygon fill="none" stroke="#000000" points="8.5,-319.7781 8.5,-341.7781 175.5,-341.7781 175.5,-319.7781 8.5,-319.7781"/>
<image xlink:href="../../images/foreignKeys.png" width="11px" height="12px" preserveAspectRatio="xMinYMin meet" x="13.5" y="-336.778"/>
<text text-anchor="start" x="28.5" y="-326.8781" font-family="Helvetica,sans-Serif" font-size="11.00" fill="#000000">facility_id</text>
<polygon fill="#ffffff" stroke="transparent" points="8.5,-297.7781 8.5,-319.7781 175.5,-319.7781 175.5,-297.7781 8.5,-297.7781"/>
<polygon fill="none" stroke="#000000" points="8.5,-297.7781 8.5,-319.7781 175.5,-319.7781 175.5,-297.7781 8.5,-297.7781"/>
<text text-anchor="start" x="28.5" y="-304.8781" font-family="Helvetica,sans-Serif" font-size="11.00" fill="#000000">google_signin_email</text>
<polygon fill="#ffffff" stroke="transparent" points="8.5,-275.7781 8.5,-297.7781 175.5,-297.7781 175.5,-275.7781 8.5,-275.7781"/>
<polygon fill="none" stroke="#000000" points="8.5,-275.7781 8.5,-297.7781 175.5,-297.7781 175.5,-275.7781 8.5,-275.7781"/>
<text text-anchor="start" x="28.5" y="-282.8781" font-family="Helvetica,sans-Serif" font-size="11.00" fill="#000000">abook_type</text>
<polygon fill="none" stroke="#000000" points="8.5,-253.7781 8.5,-275.7781 175.5,-275.7781 175.5,-253.7781 8.5,-253.7781"/>
<image xlink:href="../../images/foreignKeys.png" width="11px" height="12px" preserveAspectRatio="xMinYMin meet" x="13.5" y="-270.778"/>
<text text-anchor="start" x="28.5" y="-260.8781" font-family="Helvetica,sans-Serif" font-size="11.00" fill="#000000">billing_facility_id</text>
<polygon fill="none" stroke="#000000" points="8.5,-234.7781 8.5,-253.7781 175.5,-253.7781 175.5,-234.7781 8.5,-234.7781"/>
<text text-anchor="start" x="11.5" y="-240.8781" font-family="Helvetica,sans-Serif" font-size="11.00" fill="#000000">...</text>
<polygon fill="#ffffff" stroke="transparent" points="8.5,-215.7781 8.5,-234.7781 82.5,-234.7781 82.5,-215.7781 8.5,-215.7781"/>
<polygon fill="none" stroke="#000000" points="8.5,-215.7781 8.5,-234.7781 82.5,-234.7781 82.5,-215.7781 8.5,-215.7781"/>
<text text-anchor="start" x="11.5" y="-221.8781" font-family="Helvetica,sans-Serif" font-size="11.00" fill="#000000">&lt; 2</text>
<polygon fill="#ffffff" stroke="transparent" points="82.5,-215.7781 82.5,-234.7781 121.5,-234.7781 121.5,-215.7781 82.5,-215.7781"/>
<polygon fill="none" stroke="#000000" points="82.5,-215.7781 82.5,-234.7781 121.5,-234.7781 121.5,-215.7781 82.5,-215.7781"/>
<text text-anchor="start" x="112.3862" y="-221.8781" font-family="Helvetica,sans-Serif" font-size="11.00" fill="#000000"> &#160;</text>
<polygon fill="#ffffff" stroke="transparent" points="121.5,-215.7781 121.5,-234.7781 175.5,-234.7781 175.5,-215.7781 121.5,-215.7781"/>
<polygon fill="none" stroke="#000000" points="121.5,-215.7781 121.5,-234.7781 175.5,-234.7781 175.5,-215.7781 121.5,-215.7781"/>
<text text-anchor="start" x="150.7904" y="-221.8781" font-family="Helvetica,sans-Serif" font-size="11.00" fill="#000000">90 &gt;</text>
</a>
</g>
</g>
<!-- amendments&#45;&gt;users -->
<g id="edge3" class="edge">
<title>amendments:w&#45;&gt;users:e</title>
<path fill="none" stroke="#000000" d="M537.8398,-637.0532C397.9001,-642.2959 325.2176,-719.6692 216,-624.7781 138.3079,-557.2772 278.4196,-396.7781 175.5,-396.7781"/>
<polygon fill="#000000" stroke="#000000" points="544.5014,-636.9282 552.5675,-640.3775 548.5007,-636.8532 552.5,-636.7781 552.5,-636.7781 552.5,-636.7781 548.5007,-636.8532 552.4325,-633.1788 544.5014,-636.9282 544.5014,-636.9282"/>
<ellipse fill="none" stroke="#000000" cx="541.302" cy="-636.9883" rx="3.2" ry="3.2"/>
</g>
<!-- amendments&#45;&gt;users -->
<g id="edge4" class="edge">
<title>amendments:w&#45;&gt;users:e</title>
<path fill="none" stroke="#000000" d="M538.0554,-615.0838C454.1232,-618.2362 269.3978,-643.7886 216,-597.7781 146.9641,-538.293 266.6287,-396.7781 175.5,-396.7781"/>
<polygon fill="#000000" stroke="#000000" points="544.5018,-614.9474 552.5762,-618.3773 548.5009,-614.8628 552.5,-614.7781 552.5,-614.7781 552.5,-614.7781 548.5009,-614.8628 552.4238,-611.1789 544.5018,-614.9474 544.5018,-614.9474"/>
<ellipse fill="none" stroke="#000000" cx="541.3025" cy="-615.0151" rx="3.2" ry="3.2"/>
</g>
<!-- patient_data -->
<g id="node4" class="node">
<title>patient_data</title>
<g id="a_node4"><a xlink:href="../../tables/patient_data.html" xlink:title="patient_data" target="_top">
<polygon fill="#ffffff" stroke="transparent" points="224,-172.2781 224,-563.2781 501,-563.2781 501,-172.2781 224,-172.2781"/>
<polygon fill="#f5f5f5" stroke="transparent" points="224.5,-539.7781 224.5,-562.7781 501.5,-562.7781 501.5,-539.7781 224.5,-539.7781"/>
<polygon fill="none" stroke="#000000" points="224.5,-539.7781 224.5,-562.7781 501.5,-562.7781 501.5,-539.7781 224.5,-539.7781"/>
<text text-anchor="start" x="229.5" y="-548.3781" font-family="Helvetica,sans-Serif" font-weight="bold" font-size="11.00" fill="#000000">patient_data</text>
<text text-anchor="start" x="466.5437" y="-547.8781" font-family="Helvetica,sans-Serif" font-size="11.00" fill="#000000">[table]</text>
<polygon fill="none" stroke="#000000" points="224.5,-517.7781 224.5,-539.7781 501.5,-539.7781 501.5,-517.7781 224.5,-517.7781"/>
<image xlink:href="../../images/primaryKeys.png" width="11px" height="12px" preserveAspectRatio="xMinYMin meet" x="229.5" y="-534.778"/>
<text text-anchor="start" x="244.5" y="-524.8781" font-family="Helvetica,sans-Serif" font-size="11.00" fill="#000000">id</text>
<polygon fill="#ffffff" stroke="transparent" points="224.5,-495.7781 224.5,-517.7781 501.5,-517.7781 501.5,-495.7781 224.5,-495.7781"/>
<polygon fill="none" stroke="#000000" points="224.5,-495.7781 224.5,-517.7781 501.5,-517.7781 501.5,-495.7781 224.5,-495.7781"/>
<text text-anchor="start" x="244.5" y="-502.8781" font-family="Helvetica,sans-Serif" font-size="11.00" fill="#000000">uuid</text>
<polygon fill="#ffffff" stroke="transparent" points="224.5,-473.7781 224.5,-495.7781 501.5,-495.7781 501.5,-473.7781 224.5,-473.7781"/>
<polygon fill="none" stroke="#000000" points="224.5,-473.7781 224.5,-495.7781 501.5,-495.7781 501.5,-473.7781 224.5,-473.7781"/>
<text text-anchor="start" x="244.5" y="-480.8781" font-family="Helvetica,sans-Serif" font-size="11.00" fill="#000000">fname</text>
<polygon fill="#ffffff" stroke="transparent" points="224.5,-451.7781 224.5,-473.7781 501.5,-473.7781 501.5,-451.7781 224.5,-451.7781"/>
<polygon fill="none" stroke="#000000" points="224.5,-451.7781 224.5,-473.7781 501.5,-473.7781 501.5,-451.7781 224.5,-451.7781"/>
<text text-anchor="start" x="244.5" y="-458.8781" font-family="Helvetica,sans-Serif" font-size="11.00" fill="#000000">lname</text>
<polygon fill="#ffffff" stroke="transparent" points="224.5,-429.7781 224.5,-451.7781 501.5,-451.7781 501.5,-429.7781 224.5,-429.7781"/>
<polygon fill="none" stroke="#000000" points="224.5,-429.7781 224.5,-451.7781 501.5,-451.7781 501.5,-429.7781 224.5,-429.7781"/>
<text text-anchor="start" x="244.5" y="-436.8781" font-family="Helvetica,sans-Serif" font-size="11.00" fill="#000000">DOB</text>
<polygon fill="none" stroke="#000000" points="224.5,-407.7781 224.5,-429.7781 501.5,-429.7781 501.5,-407.7781 224.5,-407.7781"/>
<image xlink:href="../../images/foreignKeys.png" width="11px" height="12px" preserveAspectRatio="xMinYMin meet" x="229.5" y="-424.778"/>
<text text-anchor="start" x="244.5" y="-414.8781" font-family="Helvetica,sans-Serif" font-size="11.00" fill="#000000">pharmacy_id</text>
<polygon fill="none" stroke="#000000" points="224.5,-385.7781 224.5,-407.7781 501.5,-407.7781 501.5,-385.7781 224.5,-385.7781"/>
<image xlink:href="../../images/foreignKeys.png" width="11px" height="12px" preserveAspectRatio="xMinYMin meet" x="229.5" y="-402.778"/>
<text text-anchor="start" x="244.5" y="-392.8781" font-family="Helvetica,sans-Serif" font-size="11.00" fill="#000000">providerID</text>
<polygon fill="none" stroke="#000000" points="224.5,-363.7781 224.5,-385.7781 501.5,-385.7781 501.5,-363.7781 224.5,-363.7781"/>
<image xlink:href="../../images/foreignKeys.png" width="11px" height="12px" preserveAspectRatio="xMinYMin meet" x="229.5" y="-380.778"/>
<text text-anchor="start" x="244.5" y="-370.8781" font-family="Helvetica,sans-Serif" font-size="11.00" fill="#000000">ref_providerID</text>
<polygon fill="none" stroke="#000000" points="224.5,-341.7781 224.5,-363.7781 501.5,-363.7781 501.5,-341.7781 224.5,-341.7781"/>
<image xlink:href="../../images/foreignKeys.png" width="11px" height="12px" preserveAspectRatio="xMinYMin meet" x="229.5" y="-358.778"/>
<text text-anchor="start" x="244.5" y="-348.8781" font-family="Helvetica,sans-Serif" font-size="11.00" fill="#000000">interpreter_needed</text>
<polygon fill="none" stroke="#000000" points="224.5,-319.7781 224.5,-341.7781 501.5,-341.7781 501.5,-319.7781 224.5,-319.7781"/>
<image xlink:href="../../images/primaryKeys.png" width="11px" height="12px" preserveAspectRatio="xMinYMin meet" x="229.5" y="-336.778"/>
<text text-anchor="start" x="244.5" y="-326.8781" font-family="Helvetica,sans-Serif" font-size="11.00" fill="#000000">pid</text>
<polygon fill="none" stroke="#000000" points="224.5,-297.7781 224.5,-319.7781 501.5,-319.7781 501.5,-297.7781 224.5,-297.7781"/>
<image xlink:href="../../images/foreignKeys.png" width="11px" height="12px" preserveAspectRatio="xMinYMin meet" x="229.5" y="-314.778"/>
<text text-anchor="start" x="244.5" y="-304.8781" font-family="Helvetica,sans-Serif" font-size="11.00" fill="#000000">advance_directive_user_authenticator</text>
<polygon fill="none" stroke="#000000" points="224.5,-275.7781 224.5,-297.7781 501.5,-297.7781 501.5,-275.7781 224.5,-275.7781"/>
<image xlink:href="../../images/foreignKeys.png" width="11px" height="12px" preserveAspectRatio="xMinYMin meet" x="229.5" y="-292.778"/>
<text text-anchor="start" x="244.5" y="-282.8781" font-family="Helvetica,sans-Serif" font-size="11.00" fill="#000000">created_by</text>
<polygon fill="none" stroke="#000000" points="224.5,-253.7781 224.5,-275.7781 501.5,-275.7781 501.5,-253.7781 224.5,-253.7781"/>
<image xlink:href="../../images/foreignKeys.png" width="11px" height="12px" preserveAspectRatio="xMinYMin meet" x="229.5" y="-270.778"/>
<text text-anchor="start" x="244.5" y="-260.8781" font-family="Helvetica,sans-Serif" font-size="11.00" fill="#000000">updated_by</text>
<polygon fill="none" stroke="#000000" points="224.5,-231.7781 224.5,-253.7781 501.5,-253.7781 501.5,-231.7781 224.5,-231.7781"/>
<image xlink:href="../../images/foreignKeys.png" width="11px" height="12px" preserveAspectRatio="xMinYMin meet" x="229.5" y="-248.778"/>
<text text-anchor="start" x="244.5" y="-238.8781" font-family="Helvetica,sans-Serif" font-size="11.00" fill="#000000">tribal_affiliations</text>
<polygon fill="none" stroke="#000000" points="224.5,-209.7781 224.5,-231.7781 501.5,-231.7781 501.5,-209.7781 224.5,-209.7781"/>
<image xlink:href="../../images/foreignKeys.png" width="11px" height="12px" preserveAspectRatio="xMinYMin meet" x="229.5" y="-226.778"/>
<text text-anchor="start" x="244.5" y="-216.8781" font-family="Helvetica,sans-Serif" font-size="11.00" fill="#000000">sex_identified</text>
<polygon fill="none" stroke="#000000" points="224.5,-190.7781 224.5,-209.7781 501.5,-209.7781 501.5,-190.7781 224.5,-190.7781"/>
<text text-anchor="start" x="227.5" y="-196.8781" font-family="Helvetica,sans-Serif" font-size="11.00" fill="#000000">...</text>
<polygon fill="#ffffff" stroke="transparent" points="224.5,-171.7781 224.5,-190.7781 353.5,-190.7781 353.5,-171.7781 224.5,-171.7781"/>
<polygon fill="none" stroke="#000000" points="224.5,-171.7781 224.5,-190.7781 353.5,-190.7781 353.5,-171.7781 224.5,-171.7781"/>
<text text-anchor="start" x="227.5" y="-177.8781" font-family="Helvetica,sans-Serif" font-size="11.00" fill="#000000">&lt; 9</text>
<polygon fill="#ffffff" stroke="transparent" points="353.5,-171.7781 353.5,-190.7781 419.5,-190.7781 419.5,-171.7781 353.5,-171.7781"/>
<polygon fill="none" stroke="#000000" points="353.5,-171.7781 353.5,-190.7781 419.5,-190.7781 419.5,-171.7781 353.5,-171.7781"/>
<text text-anchor="start" x="410.3862" y="-177.8781" font-family="Helvetica,sans-Serif" font-size="11.00" fill="#000000"> &#160;</text>
<polygon fill="#ffffff" stroke="transparent" points="419.5,-171.7781 419.5,-190.7781 501.5,-190.7781 501.5,-171.7781 419.5,-171.7781"/>
<polygon fill="none" stroke="#000000" points="419.5,-171.7781 419.5,-190.7781 501.5,-190.7781 501.5,-171.7781 419.5,-171.7781"/>
<text text-anchor="start" x="476.7904" y="-177.8781" font-family="Helvetica,sans-Serif" font-size="11.00" fill="#000000">95 &gt;</text>
</a>
</g>
</g>
<!-- amendments&#45;&gt;patient_data -->
<g id="edge5" class="edge">
<title>amendments:w&#45;&gt;patient_data:e</title>
<path fill="none" stroke="#000000" d="M538.8536,-676.0951C487.5566,-634.5621 574.7262,-330.7781 501.5,-330.7781"/>
<polygon fill="#000000" stroke="#000000" points="544.9332,-678.1814 551.3315,-684.1832 548.7166,-679.4798 552.5,-680.7781 552.5,-680.7781 552.5,-680.7781 548.7166,-679.4798 553.6685,-677.3731 544.9332,-678.1814 544.9332,-678.1814"/>
<ellipse fill="none" stroke="#000000" cx="541.9064" cy="-677.1427" rx="3.2" ry="3.2"/>
</g>
<!-- patient_data&#45;&gt;list_options -->
<g id="edge12" class="edge">
<title>patient_data:w&#45;&gt;list_options:e</title>
<path fill="none" stroke="#000000" d="M210.1545,-350.9281C138.6158,-330.0119 251.7133,-138.7781 157.5,-138.7781"/>
<polygon fill="#000000" stroke="#000000" points="216.5657,-351.7549 224.0395,-356.3486 220.5329,-352.2665 224.5,-352.7781 224.5,-352.7781 224.5,-352.7781 220.5329,-352.2665 224.9605,-349.2077 216.5657,-351.7549 216.5657,-351.7549"/>
<ellipse fill="none" stroke="#000000" cx="213.392" cy="-351.3455" rx="3.2" ry="3.2"/>
</g>
<!-- patient_data&#45;&gt;list_options -->
<g id="edge15" class="edge">
<title>patient_data:w&#45;&gt;list_options:e</title>
<path fill="none" stroke="#000000" d="M210.4031,-217.4621C182.9188,-202.1212 198.8638,-138.7781 157.5,-138.7781"/>
<polygon fill="#000000" stroke="#000000" points="216.7126,-218.9462 223.6756,-224.2825 220.6063,-219.8622 224.5,-220.7781 224.5,-220.7781 224.5,-220.7781 220.6063,-219.8622 225.3244,-217.2738 216.7126,-218.9462 216.7126,-218.9462"/>
<ellipse fill="none" stroke="#000000" cx="213.5976" cy="-218.2135" rx="3.2" ry="3.2"/>
</g>
<!-- patient_data&#45;&gt;list_options -->
<g id="edge16" class="edge">
<title>patient_data:w&#45;&gt;list_options:e</title>
<path fill="none" stroke="#000000" d="M210.1417,-239.5516C177.4901,-221.9975 206.6847,-138.7781 157.5,-138.7781"/>
<polygon fill="#000000" stroke="#000000" points="216.6946,-241.0241 223.7107,-246.2905 220.5973,-241.9011 224.5,-242.7781 224.5,-242.7781 224.5,-242.7781 220.5973,-241.9011 225.2893,-239.2657 216.6946,-241.0241 216.6946,-241.0241"/>
<ellipse fill="none" stroke="#000000" cx="213.5725" cy="-240.3225" rx="3.2" ry="3.2"/>
</g>
<!-- patient_data&#45;&gt;users -->
<g id="edge10" class="edge">
<title>patient_data:w&#45;&gt;users:e</title>
<path fill="none" stroke="#000000" d="M210.4863,-313.2631C189.2228,-331.1957 214.1452,-396.7781 175.5,-396.7781"/>
<polygon fill="#000000" stroke="#000000" points="216.8807,-311.2166 225.5973,-312.2068 220.6903,-309.9974 224.5,-308.7781 224.5,-308.7781 224.5,-308.7781 220.6903,-309.9974 223.4027,-305.3494 216.8807,-311.2166 216.8807,-311.2166"/>
<ellipse fill="none" stroke="#000000" cx="213.833" cy="-312.192" rx="3.2" ry="3.2"/>
</g>
<!-- patient_data&#45;&gt;users -->
<g id="edge11" class="edge">
<title>patient_data:w&#45;&gt;users:e</title>
<path fill="none" stroke="#000000" d="M210.282,-290.6931C182.6981,-310.2884 222.9572,-396.7781 175.5,-396.7781"/>
<polygon fill="#000000" stroke="#000000" points="216.7871,-288.902 225.4557,-290.249 220.6435,-287.8401 224.5,-286.7781 224.5,-286.7781 224.5,-286.7781 220.6435,-287.8401 223.5443,-283.3073 216.7871,-288.902 216.7871,-288.902"/>
<ellipse fill="none" stroke="#000000" cx="213.7019" cy="-289.7515" rx="3.2" ry="3.2"/>
</g>
<!-- patient_data&#45;&gt;users -->
<g id="edge13" class="edge">
<title>patient_data:w&#45;&gt;users:e</title>
<path fill="none" stroke="#000000" d="M209.9909,-396.7781C198.6774,-396.7781 191.4931,-396.7781 175.5,-396.7781"/>
<polygon fill="#000000" stroke="#000000" points="216.5,-396.7782 224.5,-400.3781 220.5,-396.7782 224.5,-396.7781 224.5,-396.7781 224.5,-396.7781 220.5,-396.7782 224.5,-393.1781 216.5,-396.7782 216.5,-396.7782"/>
<ellipse fill="none" stroke="#000000" cx="213.3" cy="-396.7782" rx="3.2" ry="3.2"/>
</g>
<!-- patient_data&#45;&gt;users -->
<g id="edge14" class="edge">
<title>patient_data:w&#45;&gt;users:e</title>
<path fill="none" stroke="#000000" d="M210.1297,-378.2156C198.5865,-384.4031 193.4041,-396.7781 175.5,-396.7781"/>
<polygon fill="#000000" stroke="#000000" points="216.7195,-376.6393 225.3375,-378.2794 220.6098,-375.7087 224.5,-374.7781 224.5,-374.7781 224.5,-374.7781 220.6098,-375.7087 223.6625,-371.2769 216.7195,-376.6393 216.7195,-376.6393"/>
<ellipse fill="none" stroke="#000000" cx="213.6073" cy="-377.3838" rx="3.2" ry="3.2"/>
</g>
<!-- patient_data&#45;&gt;users -->
<g id="edge17" class="edge">
<title>patient_data:w&#45;&gt;users:e</title>
<path fill="none" stroke="#000000" d="M210.3293,-268.0411C174.9817,-288.368 232.2116,-396.7781 175.5,-396.7781"/>
<polygon fill="#000000" stroke="#000000" points="216.704,-266.5733 225.3078,-268.2863 220.602,-265.6757 224.5,-264.7781 224.5,-264.7781 224.5,-264.7781 220.602,-265.6757 223.6922,-261.2699 216.704,-266.5733 216.704,-266.5733"/>
<ellipse fill="none" stroke="#000000" cx="213.5856" cy="-267.2913" rx="3.2" ry="3.2"/>
</g>
<!-- amendments_history -->
<g id="node5" class="node">
<title>amendments_history</title>
<g id="a_node5"><a xlink:href="../../tables/amendments_history.html" xlink:title="amendments_history" target="_top">
<polygon fill="#ffffff" stroke="transparent" points="828,-244.2781 828,-393.2781 1008,-393.2781 1008,-244.2781 828,-244.2781"/>
<polygon fill="#f5f5f5" stroke="transparent" points="828,-369.7781 828,-392.7781 1008,-392.7781 1008,-369.7781 828,-369.7781"/>
<polygon fill="none" stroke="#000000" points="828,-369.7781 828,-392.7781 1008,-392.7781 1008,-369.7781 828,-369.7781"/>
<text text-anchor="start" x="833" y="-378.3781" font-family="Helvetica,sans-Serif" font-weight="bold" font-size="11.00" fill="#000000">amendments_history</text>
<text text-anchor="start" x="973.5219" y="-377.8781" font-family="Helvetica,sans-Serif" font-size="11.00" fill="#000000">[table]</text>
<polygon fill="none" stroke="#000000" points="828,-347.7781 828,-369.7781 1008,-369.7781 1008,-347.7781 828,-347.7781"/>
<image xlink:href="../../images/foreignKeys.png" width="11px" height="12px" preserveAspectRatio="xMinYMin meet" x="833" y="-364.778"/>
<text text-anchor="start" x="857" y="-354.8781" font-family="Helvetica,sans-Serif" font-size="11.00" fill="#000000">amendment_id</text>
<polygon fill="none" stroke="#000000" points="828,-325.7781 828,-347.7781 1008,-347.7781 1008,-325.7781 828,-325.7781"/>
<image xlink:href="../../images/foreignKeys.png" width="11px" height="12px" preserveAspectRatio="xMinYMin meet" x="833" y="-342.778"/>
<text text-anchor="start" x="857" y="-332.8781" font-family="Helvetica,sans-Serif" font-size="11.00" fill="#000000">amendment_note</text>
<polygon fill="none" stroke="#000000" points="828,-303.7781 828,-325.7781 1008,-325.7781 1008,-303.7781 828,-303.7781"/>
<image xlink:href="../../images/foreignKeys.png" width="11px" height="12px" preserveAspectRatio="xMinYMin meet" x="833" y="-320.778"/>
<text text-anchor="start" x="857" y="-310.8781" font-family="Helvetica,sans-Serif" font-size="11.00" fill="#000000">amendment_status</text>
<polygon fill="none" stroke="#000000" points="828,-281.7781 828,-303.7781 1008,-303.7781 1008,-281.7781 828,-281.7781"/>
<image xlink:href="../../images/foreignKeys.png" width="11px" height="12px" preserveAspectRatio="xMinYMin meet" x="833" y="-298.778"/>
<text text-anchor="start" x="857" y="-288.8781" font-family="Helvetica,sans-Serif" font-size="11.00" fill="#000000">created_by</text>
<polygon fill="none" stroke="#000000" points="828,-262.7781 828,-281.7781 1008,-281.7781 1008,-262.7781 828,-262.7781"/>
<text text-anchor="start" x="831" y="-268.8781" font-family="Helvetica,sans-Serif" font-size="11.00" fill="#000000">...</text>
<polygon fill="#ffffff" stroke="transparent" points="828,-243.7781 828,-262.7781 916,-262.7781 916,-243.7781 828,-243.7781"/>
<polygon fill="none" stroke="#000000" points="828,-243.7781 828,-262.7781 916,-262.7781 916,-243.7781 828,-243.7781"/>
<text text-anchor="start" x="831" y="-249.8781" font-family="Helvetica,sans-Serif" font-size="11.00" fill="#000000">&lt; 4</text>
<polygon fill="#ffffff" stroke="transparent" points="916,-243.7781 916,-262.7781 962,-262.7781 962,-243.7781 916,-243.7781"/>
<polygon fill="none" stroke="#000000" points="916,-243.7781 916,-262.7781 962,-262.7781 962,-243.7781 916,-243.7781"/>
<text text-anchor="start" x="952.8862" y="-249.8781" font-family="Helvetica,sans-Serif" font-size="11.00" fill="#000000"> &#160;</text>
<polygon fill="#ffffff" stroke="transparent" points="962,-243.7781 962,-262.7781 1008,-262.7781 1008,-243.7781 962,-243.7781"/>
<polygon fill="none" stroke="#000000" points="962,-243.7781 962,-262.7781 1008,-262.7781 1008,-243.7781 962,-243.7781"/>
<text text-anchor="start" x="998.8862" y="-249.8781" font-family="Helvetica,sans-Serif" font-size="11.00" fill="#000000"> &#160;</text>
</a>
</g>
</g>
<!-- amendments_history&#45;&gt;amendments -->
<g id="edge6" class="edge">
<title>amendments_history:w&#45;&gt;amendments:e</title>
<path fill="none" stroke="#000000" d="M814.0892,-362.8361C751.0258,-405.4174 863.9207,-768.7781 777.5,-768.7781"/>
<polygon fill="#000000" stroke="#000000" points="820.3201,-361.0185 829.0082,-362.2341 824.16,-359.8983 828,-358.7781 828,-358.7781 828,-358.7781 824.16,-359.8983 826.9918,-355.3222 820.3201,-361.0185 820.3201,-361.0185"/>
<ellipse fill="none" stroke="#000000" cx="817.2481" cy="-361.9146" rx="3.2" ry="3.2"/>
</g>
<!-- amendments_history&#45;&gt;list_options -->
<g id="edge7" class="edge">
<title>amendments_history:w&#45;&gt;list_options:e</title>
<path fill="none" stroke="#000000" d="M814.4368,-330.9639C781.653,-296.2822 826.1397,-117.0856 787,-83.7781 690.3656,-1.5432 333.9646,-37.0325 216,-83.7781 182.8233,-96.925 193.1866,-138.7781 157.5,-138.7781"/>
<polygon fill="#000000" stroke="#000000" points="820.6471,-333.6261 826.5816,-340.0869 824.3236,-335.2021 828,-336.7781 828,-336.7781 828,-336.7781 824.3236,-335.2021 829.4184,-333.4693 820.6471,-333.6261 820.6471,-333.6261"/>
<ellipse fill="none" stroke="#000000" cx="817.706" cy="-332.3653" rx="3.2" ry="3.2"/>
</g>
<!-- amendments_history&#45;&gt;list_options -->
<g id="edge8" class="edge">
<title>amendments_history:w&#45;&gt;list_options:e</title>
<path fill="none" stroke="#000000" d="M814.9679,-308.0523C755.6489,-272.9649 518.0011,-112.421 509,-109.7781 384.0523,-73.0915 342.7897,-80.0763 216,-109.7781 187.7456,-116.3971 186.5194,-138.7781 157.5,-138.7781"/>
<polygon fill="#000000" stroke="#000000" points="820.8909,-311.1091 826.3489,-317.9772 824.4455,-312.9436 828,-314.7781 828,-314.7781 828,-314.7781 824.4455,-312.9436 829.6511,-311.5791 820.8909,-311.1091 820.8909,-311.1091"/>
<ellipse fill="none" stroke="#000000" cx="818.0473" cy="-309.6415" rx="3.2" ry="3.2"/>
</g>
<!-- amendments_history&#45;&gt;users -->
<g id="edge9" class="edge">
<title>amendments_history:w&#45;&gt;users:e</title>
<path fill="none" stroke="#000000" d="M813.4566,-293.0945C662.6168,-299.8162 651.7281,-412.5922 542,-528.7781 524.971,-546.8093 531.1231,-562.5675 509,-573.7781 479.9601,-588.4938 241.4585,-594.0693 216,-573.7781 152.8928,-523.4798 256.1997,-396.7781 175.5,-396.7781"/>
<polygon fill="#000000" stroke="#000000" points="820.0019,-292.9522 828.0783,-296.3773 824.0009,-292.8651 828,-292.7781 828,-292.7781 828,-292.7781 824.0009,-292.8651 827.9217,-289.179 820.0019,-292.9522 820.0019,-292.9522"/>
<ellipse fill="none" stroke="#000000" cx="816.8026" cy="-293.0218" rx="3.2" ry="3.2"/>
</g>
</g>
</svg>
