<?xml version="1.0" encoding="UTF-8" standalone="no"?>
<!DOCTYPE svg PUBLIC "-//W3C//DTD SVG 1.1//EN"
 "http://www.w3.org/Graphics/SVG/1.1/DTD/svg11.dtd">
<!-- Generated by graphviz version 2.40.1 (20161225.0304)
 -->
<!-- Title: oneDegreeRelationshipsDiagram Pages: 1 -->
<svg width="1069pt" height="784pt"
 viewBox="0.00 0.00 1069.00 783.70" xmlns="http://www.w3.org/2000/svg" xmlns:xlink="http://www.w3.org/1999/xlink">
<g id="graph0" class="graph" transform="scale(1 1) rotate(0) translate(4 779.7)">
<title>oneDegreeRelationshipsDiagram</title>
<polygon fill="#ffffff" stroke="transparent" points="-4,4 -4,-779.7 1065,-779.7 1065,4 -4,4"/>
<text text-anchor="middle" x="72.4936" y="-7.3" font-family="Helvetica,sans-Serif" font-size="11.00" fill="#000000">Generated by SchemaSpy</text>
<!-- ar_activity -->
<g id="node1" class="node">
<title>ar_activity</title>
<g id="a_node1"><a xlink:href="../../tables/ar_activity.html" xlink:title="ar_activity" target="_top">
<polygon fill="#ffffff" stroke="transparent" points="807,-38.2 807,-568.2 1053,-568.2 1053,-38.2 807,-38.2"/>
<polygon fill="#f5f5f5" stroke="transparent" points="809,-543.2 809,-566.2 1051,-566.2 1051,-543.2 809,-543.2"/>
<polygon fill="none" stroke="#000000" points="809,-543.2 809,-566.2 1051,-566.2 1051,-543.2 809,-543.2"/>
<text text-anchor="start" x="814" y="-551.8" font-family="Helvetica,sans-Serif" font-weight="bold" font-size="11.00" fill="#000000">ar_activity</text>
<text text-anchor="start" x="1016.0437" y="-551.3" font-family="Helvetica,sans-Serif" font-size="11.00" fill="#000000">[table]</text>
<polygon fill="none" stroke="#000000" points="809,-521.2 809,-543.2 968,-543.2 968,-521.2 809,-521.2"/>
<image xlink:href="../../images/primaryKeys.png" width="11px" height="12px" preserveAspectRatio="xMinYMin meet" x="814" y="-538.2"/>
<text text-anchor="start" x="829" y="-528.3" font-family="Helvetica,sans-Serif" font-size="11.00" fill="#000000">pid</text>
<polygon fill="none" stroke="#000000" points="968,-521.2 968,-543.2 1051,-543.2 1051,-521.2 968,-521.2"/>
<text text-anchor="start" x="971" y="-528.9" font-family="Helvetica,sans-Serif" font-size="11.00" fill="#000000">int[10]</text>
<polygon fill="none" stroke="#000000" points="809,-499.2 809,-521.2 968,-521.2 968,-499.2 809,-499.2"/>
<image xlink:href="../../images/primaryKeys.png" width="11px" height="12px" preserveAspectRatio="xMinYMin meet" x="814" y="-516.2"/>
<text text-anchor="start" x="829" y="-506.3" font-family="Helvetica,sans-Serif" font-size="11.00" fill="#000000">encounter</text>
<polygon fill="none" stroke="#000000" points="968,-499.2 968,-521.2 1051,-521.2 1051,-499.2 968,-499.2"/>
<text text-anchor="start" x="971" y="-506.9" font-family="Helvetica,sans-Serif" font-size="11.00" fill="#000000">int[10]</text>
<polygon fill="none" stroke="#000000" points="809,-477.2 809,-499.2 968,-499.2 968,-477.2 809,-477.2"/>
<image xlink:href="../../images/primaryKeys.png" width="11px" height="12px" preserveAspectRatio="xMinYMin meet" x="814" y="-494.2"/>
<text text-anchor="start" x="829" y="-484.3" font-family="Helvetica,sans-Serif" font-size="11.00" fill="#000000">sequence_no</text>
<polygon fill="none" stroke="#000000" points="968,-477.2 968,-499.2 1051,-499.2 1051,-477.2 968,-477.2"/>
<text text-anchor="start" x="970.6783" y="-484.9" font-family="Helvetica,sans-Serif" font-size="11.00" fill="#000000">int unsigned[10]</text>
<polygon fill="none" stroke="#000000" points="809,-455.2 809,-477.2 968,-477.2 968,-455.2 809,-455.2"/>
<text text-anchor="start" x="829" y="-462.3" font-family="Helvetica,sans-Serif" font-size="11.00" fill="#000000">code_type</text>
<polygon fill="none" stroke="#000000" points="968,-455.2 968,-477.2 1051,-477.2 1051,-455.2 968,-455.2"/>
<text text-anchor="start" x="971" y="-462.9" font-family="Helvetica,sans-Serif" font-size="11.00" fill="#000000">varchar[12]</text>
<polygon fill="none" stroke="#000000" points="809,-433.2 809,-455.2 968,-455.2 968,-433.2 809,-433.2"/>
<text text-anchor="start" x="829" y="-440.3" font-family="Helvetica,sans-Serif" font-size="11.00" fill="#000000">code</text>
<polygon fill="none" stroke="#000000" points="968,-433.2 968,-455.2 1051,-455.2 1051,-433.2 968,-433.2"/>
<text text-anchor="start" x="971" y="-440.9" font-family="Helvetica,sans-Serif" font-size="11.00" fill="#000000">varchar[20]</text>
<polygon fill="none" stroke="#000000" points="809,-411.2 809,-433.2 968,-433.2 968,-411.2 809,-411.2"/>
<text text-anchor="start" x="829" y="-418.3" font-family="Helvetica,sans-Serif" font-size="11.00" fill="#000000">fee</text>
<polygon fill="none" stroke="#000000" points="968,-411.2 968,-433.2 1051,-433.2 1051,-411.2 968,-411.2"/>
<text text-anchor="start" x="971" y="-418.9" font-family="Helvetica,sans-Serif" font-size="11.00" fill="#000000">unknown[0]</text>
<polygon fill="none" stroke="#000000" points="809,-389.2 809,-411.2 968,-411.2 968,-389.2 809,-389.2"/>
<text text-anchor="start" x="829" y="-396.3" font-family="Helvetica,sans-Serif" font-size="11.00" fill="#000000">modifier</text>
<polygon fill="none" stroke="#000000" points="968,-389.2 968,-411.2 1051,-411.2 1051,-389.2 968,-389.2"/>
<text text-anchor="start" x="971" y="-396.9" font-family="Helvetica,sans-Serif" font-size="11.00" fill="#000000">varchar[12]</text>
<polygon fill="none" stroke="#000000" points="809,-367.2 809,-389.2 968,-389.2 968,-367.2 809,-367.2"/>
<text text-anchor="start" x="829" y="-374.3" font-family="Helvetica,sans-Serif" font-size="11.00" fill="#000000">payer_type</text>
<polygon fill="none" stroke="#000000" points="968,-367.2 968,-389.2 1051,-389.2 1051,-367.2 968,-367.2"/>
<text text-anchor="start" x="971" y="-374.9" font-family="Helvetica,sans-Serif" font-size="11.00" fill="#000000">int[10]</text>
<polygon fill="none" stroke="#000000" points="809,-345.2 809,-367.2 968,-367.2 968,-345.2 809,-345.2"/>
<text text-anchor="start" x="829" y="-352.3" font-family="Helvetica,sans-Serif" font-size="11.00" fill="#000000">post_time</text>
<polygon fill="none" stroke="#000000" points="968,-345.2 968,-367.2 1051,-367.2 1051,-345.2 968,-345.2"/>
<text text-anchor="start" x="971" y="-352.9" font-family="Helvetica,sans-Serif" font-size="11.00" fill="#000000">datetime[19]</text>
<polygon fill="none" stroke="#000000" points="809,-323.2 809,-345.2 968,-345.2 968,-323.2 809,-323.2"/>
<image xlink:href="../../images/foreignKeys.png" width="11px" height="12px" preserveAspectRatio="xMinYMin meet" x="814" y="-340.2"/>
<text text-anchor="start" x="829" y="-330.3" font-family="Helvetica,sans-Serif" font-size="11.00" fill="#000000">post_user</text>
<polygon fill="none" stroke="#000000" points="968,-323.2 968,-345.2 1051,-345.2 1051,-323.2 968,-323.2"/>
<text text-anchor="start" x="971" y="-330.9" font-family="Helvetica,sans-Serif" font-size="11.00" fill="#000000">int[10]</text>
<polygon fill="#ffffff" stroke="transparent" points="809,-301.2 809,-323.2 968,-323.2 968,-301.2 809,-301.2"/>
<polygon fill="none" stroke="#000000" points="809,-301.2 809,-323.2 968,-323.2 968,-301.2 809,-301.2"/>
<image xlink:href="../../images/foreignKeys.png" width="11px" height="12px" preserveAspectRatio="xMinYMin meet" x="814" y="-318.2"/>
<text text-anchor="start" x="829" y="-308.3" font-family="Helvetica,sans-Serif" font-size="11.00" fill="#000000">session_id</text>
<polygon fill="none" stroke="#000000" points="968,-301.2 968,-323.2 1051,-323.2 1051,-301.2 968,-301.2"/>
<text text-anchor="start" x="970.6783" y="-308.9" font-family="Helvetica,sans-Serif" font-size="11.00" fill="#000000">int unsigned[10]</text>
<polygon fill="none" stroke="#000000" points="809,-279.2 809,-301.2 968,-301.2 968,-279.2 809,-279.2"/>
<text text-anchor="start" x="829" y="-286.3" font-family="Helvetica,sans-Serif" font-size="11.00" fill="#000000">memo</text>
<polygon fill="none" stroke="#000000" points="968,-279.2 968,-301.2 1051,-301.2 1051,-279.2 968,-279.2"/>
<text text-anchor="start" x="971" y="-286.9" font-family="Helvetica,sans-Serif" font-size="11.00" fill="#000000">varchar[255]</text>
<polygon fill="none" stroke="#000000" points="809,-257.2 809,-279.2 968,-279.2 968,-257.2 809,-257.2"/>
<text text-anchor="start" x="829" y="-264.3" font-family="Helvetica,sans-Serif" font-size="11.00" fill="#000000">pay_amount</text>
<polygon fill="none" stroke="#000000" points="968,-257.2 968,-279.2 1051,-279.2 1051,-257.2 968,-257.2"/>
<text text-anchor="start" x="971" y="-264.9" font-family="Helvetica,sans-Serif" font-size="11.00" fill="#000000">decimal[12,2]</text>
<polygon fill="none" stroke="#000000" points="809,-235.2 809,-257.2 968,-257.2 968,-235.2 809,-235.2"/>
<text text-anchor="start" x="829" y="-242.3" font-family="Helvetica,sans-Serif" font-size="11.00" fill="#000000">adj_amount</text>
<polygon fill="none" stroke="#000000" points="968,-235.2 968,-257.2 1051,-257.2 1051,-235.2 968,-235.2"/>
<text text-anchor="start" x="971" y="-242.9" font-family="Helvetica,sans-Serif" font-size="11.00" fill="#000000">decimal[12,2]</text>
<polygon fill="none" stroke="#000000" points="809,-213.2 809,-235.2 968,-235.2 968,-213.2 809,-213.2"/>
<text text-anchor="start" x="829" y="-220.3" font-family="Helvetica,sans-Serif" font-size="11.00" fill="#000000">modified_time</text>
<polygon fill="none" stroke="#000000" points="968,-213.2 968,-235.2 1051,-235.2 1051,-213.2 968,-213.2"/>
<text text-anchor="start" x="971" y="-220.9" font-family="Helvetica,sans-Serif" font-size="11.00" fill="#000000">datetime[19]</text>
<polygon fill="none" stroke="#000000" points="809,-191.2 809,-213.2 968,-213.2 968,-191.2 809,-191.2"/>
<text text-anchor="start" x="829" y="-198.3" font-family="Helvetica,sans-Serif" font-size="11.00" fill="#000000">follow_up</text>
<polygon fill="none" stroke="#000000" points="968,-191.2 968,-213.2 1051,-213.2 1051,-191.2 968,-191.2"/>
<text text-anchor="start" x="971" y="-198.9" font-family="Helvetica,sans-Serif" font-size="11.00" fill="#000000">char[1]</text>
<polygon fill="none" stroke="#000000" points="809,-169.2 809,-191.2 968,-191.2 968,-169.2 809,-169.2"/>
<text text-anchor="start" x="829" y="-176.3" font-family="Helvetica,sans-Serif" font-size="11.00" fill="#000000">follow_up_note</text>
<polygon fill="none" stroke="#000000" points="968,-169.2 968,-191.2 1051,-191.2 1051,-169.2 968,-169.2"/>
<text text-anchor="start" x="971" y="-176.9" font-family="Helvetica,sans-Serif" font-size="11.00" fill="#000000">text[65535]</text>
<polygon fill="none" stroke="#000000" points="809,-147.2 809,-169.2 968,-169.2 968,-147.2 809,-147.2"/>
<text text-anchor="start" x="829" y="-154.3" font-family="Helvetica,sans-Serif" font-size="11.00" fill="#000000">account_code</text>
<polygon fill="none" stroke="#000000" points="968,-147.2 968,-169.2 1051,-169.2 1051,-147.2 968,-147.2"/>
<text text-anchor="start" x="971" y="-154.9" font-family="Helvetica,sans-Serif" font-size="11.00" fill="#000000">varchar[15]</text>
<polygon fill="none" stroke="#000000" points="809,-125.2 809,-147.2 968,-147.2 968,-125.2 809,-125.2"/>
<text text-anchor="start" x="829" y="-132.3" font-family="Helvetica,sans-Serif" font-size="11.00" fill="#000000">reason_code</text>
<polygon fill="none" stroke="#000000" points="968,-125.2 968,-147.2 1051,-147.2 1051,-125.2 968,-125.2"/>
<text text-anchor="start" x="971" y="-132.9" font-family="Helvetica,sans-Serif" font-size="11.00" fill="#000000">varchar[255]</text>
<polygon fill="none" stroke="#000000" points="809,-103.2 809,-125.2 968,-125.2 968,-103.2 809,-103.2"/>
<text text-anchor="start" x="829" y="-110.3" font-family="Helvetica,sans-Serif" font-size="11.00" fill="#000000">deleted</text>
<polygon fill="none" stroke="#000000" points="968,-103.2 968,-125.2 1051,-125.2 1051,-103.2 968,-103.2"/>
<text text-anchor="start" x="971" y="-110.9" font-family="Helvetica,sans-Serif" font-size="11.00" fill="#000000">datetime[19]</text>
<polygon fill="none" stroke="#000000" points="809,-81.2 809,-103.2 968,-103.2 968,-81.2 809,-81.2"/>
<text text-anchor="start" x="829" y="-88.3" font-family="Helvetica,sans-Serif" font-size="11.00" fill="#000000">post_date</text>
<polygon fill="none" stroke="#000000" points="968,-81.2 968,-103.2 1051,-103.2 1051,-81.2 968,-81.2"/>
<text text-anchor="start" x="971" y="-88.9" font-family="Helvetica,sans-Serif" font-size="11.00" fill="#000000">date[10]</text>
<polygon fill="none" stroke="#000000" points="809,-59.2 809,-81.2 968,-81.2 968,-59.2 809,-59.2"/>
<text text-anchor="start" x="829" y="-66.3" font-family="Helvetica,sans-Serif" font-size="11.00" fill="#000000">payer_claim_number</text>
<polygon fill="none" stroke="#000000" points="968,-59.2 968,-81.2 1051,-81.2 1051,-59.2 968,-59.2"/>
<text text-anchor="start" x="971" y="-66.9" font-family="Helvetica,sans-Serif" font-size="11.00" fill="#000000">varchar[30]</text>
<polygon fill="#ffffff" stroke="transparent" points="809,-40.2 809,-59.2 893,-59.2 893,-40.2 809,-40.2"/>
<polygon fill="none" stroke="#000000" points="809,-40.2 809,-59.2 893,-59.2 893,-40.2 809,-40.2"/>
<text text-anchor="start" x="812" y="-46.3" font-family="Helvetica,sans-Serif" font-size="11.00" fill="#000000">&lt; 4</text>
<polygon fill="#ffffff" stroke="transparent" points="893,-40.2 893,-59.2 968,-59.2 968,-40.2 893,-40.2"/>
<polygon fill="none" stroke="#000000" points="893,-40.2 893,-59.2 968,-59.2 968,-40.2 893,-40.2"/>
<text text-anchor="start" x="958.8862" y="-46.3" font-family="Helvetica,sans-Serif" font-size="11.00" fill="#000000"> &#160;</text>
<polygon fill="#ffffff" stroke="transparent" points="968,-40.2 968,-59.2 1051,-59.2 1051,-40.2 968,-40.2"/>
<polygon fill="none" stroke="#000000" points="968,-40.2 968,-59.2 1051,-59.2 1051,-40.2 968,-40.2"/>
<text text-anchor="start" x="1032.4053" y="-46.3" font-family="Helvetica,sans-Serif" font-size="11.00" fill="#000000">0 &gt;</text>
<polygon fill="none" stroke="#000000" stroke-width="2" points="808,-39.2 808,-567.2 1052,-567.2 1052,-39.2 808,-39.2"/>
</a>
</g>
</g>
<!-- form_encounter -->
<g id="node2" class="node">
<title>form_encounter</title>
<g id="a_node2"><a xlink:href="../../tables/form_encounter.html" xlink:title="form_encounter" target="_top">
<polygon fill="#ffffff" stroke="transparent" points="550,-454.7 550,-625.7 758,-625.7 758,-454.7 550,-454.7"/>
<polygon fill="#f5f5f5" stroke="transparent" points="550,-602.2 550,-625.2 758,-625.2 758,-602.2 550,-602.2"/>
<polygon fill="none" stroke="#000000" points="550,-602.2 550,-625.2 758,-625.2 758,-602.2 550,-602.2"/>
<text text-anchor="start" x="555" y="-610.8" font-family="Helvetica,sans-Serif" font-weight="bold" font-size="11.00" fill="#000000">form_encounter</text>
<text text-anchor="start" x="723.0437" y="-610.3" font-family="Helvetica,sans-Serif" font-size="11.00" fill="#000000">[table]</text>
<polygon fill="none" stroke="#000000" points="550,-580.2 550,-602.2 758,-602.2 758,-580.2 550,-580.2"/>
<image xlink:href="../../images/primaryKeys.png" width="11px" height="12px" preserveAspectRatio="xMinYMin meet" x="555" y="-597.2"/>
<text text-anchor="start" x="570" y="-587.3" font-family="Helvetica,sans-Serif" font-size="11.00" fill="#000000">id</text>
<polygon fill="#ffffff" stroke="transparent" points="550,-558.2 550,-580.2 758,-580.2 758,-558.2 550,-558.2"/>
<polygon fill="none" stroke="#000000" points="550,-558.2 550,-580.2 758,-580.2 758,-558.2 550,-558.2"/>
<text text-anchor="start" x="570" y="-565.3" font-family="Helvetica,sans-Serif" font-size="11.00" fill="#000000">uuid</text>
<polygon fill="#ffffff" stroke="transparent" points="550,-536.2 550,-558.2 758,-558.2 758,-536.2 550,-536.2"/>
<polygon fill="none" stroke="#000000" points="550,-536.2 550,-558.2 758,-558.2 758,-536.2 550,-536.2"/>
<text text-anchor="start" x="570" y="-543.3" font-family="Helvetica,sans-Serif" font-size="11.00" fill="#000000">date</text>
<polygon fill="#ffffff" stroke="transparent" points="550,-514.2 550,-536.2 758,-536.2 758,-514.2 550,-514.2"/>
<polygon fill="none" stroke="#000000" points="550,-514.2 550,-536.2 758,-536.2 758,-514.2 550,-514.2"/>
<image xlink:href="../../images/foreignKeys.png" width="11px" height="12px" preserveAspectRatio="xMinYMin meet" x="555" y="-531.2"/>
<text text-anchor="start" x="570" y="-521.3" font-family="Helvetica,sans-Serif" font-size="11.00" fill="#000000">pid</text>
<polygon fill="none" stroke="#000000" points="550,-492.2 550,-514.2 758,-514.2 758,-492.2 550,-492.2"/>
<image xlink:href="../../images/primaryKeys.png" width="11px" height="12px" preserveAspectRatio="xMinYMin meet" x="555" y="-509.2"/>
<text text-anchor="start" x="570" y="-499.3" font-family="Helvetica,sans-Serif" font-size="11.00" fill="#000000">encounter</text>
<polygon fill="none" stroke="#000000" points="550,-473.2 550,-492.2 758,-492.2 758,-473.2 550,-473.2"/>
<text text-anchor="start" x="553" y="-479.3" font-family="Helvetica,sans-Serif" font-size="11.00" fill="#000000">...</text>
<polygon fill="#ffffff" stroke="transparent" points="550,-454.2 550,-473.2 645,-473.2 645,-454.2 550,-454.2"/>
<polygon fill="none" stroke="#000000" points="550,-454.2 550,-473.2 645,-473.2 645,-454.2 550,-454.2"/>
<text text-anchor="start" x="553" y="-460.3" font-family="Helvetica,sans-Serif" font-size="11.00" fill="#000000">&lt; 1</text>
<polygon fill="#ffffff" stroke="transparent" points="645,-454.2 645,-473.2 694,-473.2 694,-454.2 645,-454.2"/>
<polygon fill="none" stroke="#000000" points="645,-454.2 645,-473.2 694,-473.2 694,-454.2 645,-454.2"/>
<text text-anchor="start" x="684.8862" y="-460.3" font-family="Helvetica,sans-Serif" font-size="11.00" fill="#000000"> &#160;</text>
<polygon fill="#ffffff" stroke="transparent" points="694,-454.2 694,-473.2 758,-473.2 758,-454.2 694,-454.2"/>
<polygon fill="none" stroke="#000000" points="694,-454.2 694,-473.2 758,-473.2 758,-454.2 694,-454.2"/>
<text text-anchor="start" x="733.2904" y="-460.3" font-family="Helvetica,sans-Serif" font-size="11.00" fill="#000000">19 &gt;</text>
</a>
</g>
</g>
<!-- ar_activity&#45;&gt;form_encounter -->
<g id="edge1" class="edge">
<title>ar_activity:w&#45;&gt;form_encounter:e</title>
<path fill="none" stroke="#000000" d="M794.5965,-509.1063C782.3977,-507.1375 775.1594,-503.2 758,-503.2"/>
<polygon fill="#000000" stroke="#000000" points="801.023,-509.5942 808.7274,-513.7897 805.0115,-509.8971 809,-510.2 809,-510.2 809,-510.2 805.0115,-509.8971 809.2726,-506.6103 801.023,-509.5942 801.023,-509.5942"/>
<ellipse fill="none" stroke="#000000" cx="797.8322" cy="-509.3519" rx="3.2" ry="3.2"/>
</g>
<!-- patient_data -->
<g id="node3" class="node">
<title>patient_data</title>
<g id="a_node3"><a xlink:href="../../tables/patient_data.html" xlink:title="patient_data" target="_top">
<polygon fill="#ffffff" stroke="transparent" points="224,-380.7 224,-771.7 501,-771.7 501,-380.7 224,-380.7"/>
<polygon fill="#f5f5f5" stroke="transparent" points="224.5,-748.2 224.5,-771.2 501.5,-771.2 501.5,-748.2 224.5,-748.2"/>
<polygon fill="none" stroke="#000000" points="224.5,-748.2 224.5,-771.2 501.5,-771.2 501.5,-748.2 224.5,-748.2"/>
<text text-anchor="start" x="229.5" y="-756.8" font-family="Helvetica,sans-Serif" font-weight="bold" font-size="11.00" fill="#000000">patient_data</text>
<text text-anchor="start" x="466.5437" y="-756.3" font-family="Helvetica,sans-Serif" font-size="11.00" fill="#000000">[table]</text>
<polygon fill="none" stroke="#000000" points="224.5,-726.2 224.5,-748.2 501.5,-748.2 501.5,-726.2 224.5,-726.2"/>
<image xlink:href="../../images/primaryKeys.png" width="11px" height="12px" preserveAspectRatio="xMinYMin meet" x="229.5" y="-743.2"/>
<text text-anchor="start" x="244.5" y="-733.3" font-family="Helvetica,sans-Serif" font-size="11.00" fill="#000000">id</text>
<polygon fill="#ffffff" stroke="transparent" points="224.5,-704.2 224.5,-726.2 501.5,-726.2 501.5,-704.2 224.5,-704.2"/>
<polygon fill="none" stroke="#000000" points="224.5,-704.2 224.5,-726.2 501.5,-726.2 501.5,-704.2 224.5,-704.2"/>
<text text-anchor="start" x="244.5" y="-711.3" font-family="Helvetica,sans-Serif" font-size="11.00" fill="#000000">uuid</text>
<polygon fill="#ffffff" stroke="transparent" points="224.5,-682.2 224.5,-704.2 501.5,-704.2 501.5,-682.2 224.5,-682.2"/>
<polygon fill="none" stroke="#000000" points="224.5,-682.2 224.5,-704.2 501.5,-704.2 501.5,-682.2 224.5,-682.2"/>
<text text-anchor="start" x="244.5" y="-689.3" font-family="Helvetica,sans-Serif" font-size="11.00" fill="#000000">fname</text>
<polygon fill="#ffffff" stroke="transparent" points="224.5,-660.2 224.5,-682.2 501.5,-682.2 501.5,-660.2 224.5,-660.2"/>
<polygon fill="none" stroke="#000000" points="224.5,-660.2 224.5,-682.2 501.5,-682.2 501.5,-660.2 224.5,-660.2"/>
<text text-anchor="start" x="244.5" y="-667.3" font-family="Helvetica,sans-Serif" font-size="11.00" fill="#000000">lname</text>
<polygon fill="#ffffff" stroke="transparent" points="224.5,-638.2 224.5,-660.2 501.5,-660.2 501.5,-638.2 224.5,-638.2"/>
<polygon fill="none" stroke="#000000" points="224.5,-638.2 224.5,-660.2 501.5,-660.2 501.5,-638.2 224.5,-638.2"/>
<text text-anchor="start" x="244.5" y="-645.3" font-family="Helvetica,sans-Serif" font-size="11.00" fill="#000000">DOB</text>
<polygon fill="none" stroke="#000000" points="224.5,-616.2 224.5,-638.2 501.5,-638.2 501.5,-616.2 224.5,-616.2"/>
<image xlink:href="../../images/foreignKeys.png" width="11px" height="12px" preserveAspectRatio="xMinYMin meet" x="229.5" y="-633.2"/>
<text text-anchor="start" x="244.5" y="-623.3" font-family="Helvetica,sans-Serif" font-size="11.00" fill="#000000">pharmacy_id</text>
<polygon fill="none" stroke="#000000" points="224.5,-594.2 224.5,-616.2 501.5,-616.2 501.5,-594.2 224.5,-594.2"/>
<image xlink:href="../../images/foreignKeys.png" width="11px" height="12px" preserveAspectRatio="xMinYMin meet" x="229.5" y="-611.2"/>
<text text-anchor="start" x="244.5" y="-601.3" font-family="Helvetica,sans-Serif" font-size="11.00" fill="#000000">providerID</text>
<polygon fill="none" stroke="#000000" points="224.5,-572.2 224.5,-594.2 501.5,-594.2 501.5,-572.2 224.5,-572.2"/>
<image xlink:href="../../images/foreignKeys.png" width="11px" height="12px" preserveAspectRatio="xMinYMin meet" x="229.5" y="-589.2"/>
<text text-anchor="start" x="244.5" y="-579.3" font-family="Helvetica,sans-Serif" font-size="11.00" fill="#000000">ref_providerID</text>
<polygon fill="none" stroke="#000000" points="224.5,-550.2 224.5,-572.2 501.5,-572.2 501.5,-550.2 224.5,-550.2"/>
<image xlink:href="../../images/foreignKeys.png" width="11px" height="12px" preserveAspectRatio="xMinYMin meet" x="229.5" y="-567.2"/>
<text text-anchor="start" x="244.5" y="-557.3" font-family="Helvetica,sans-Serif" font-size="11.00" fill="#000000">interpreter_needed</text>
<polygon fill="none" stroke="#000000" points="224.5,-528.2 224.5,-550.2 501.5,-550.2 501.5,-528.2 224.5,-528.2"/>
<image xlink:href="../../images/primaryKeys.png" width="11px" height="12px" preserveAspectRatio="xMinYMin meet" x="229.5" y="-545.2"/>
<text text-anchor="start" x="244.5" y="-535.3" font-family="Helvetica,sans-Serif" font-size="11.00" fill="#000000">pid</text>
<polygon fill="none" stroke="#000000" points="224.5,-506.2 224.5,-528.2 501.5,-528.2 501.5,-506.2 224.5,-506.2"/>
<image xlink:href="../../images/foreignKeys.png" width="11px" height="12px" preserveAspectRatio="xMinYMin meet" x="229.5" y="-523.2"/>
<text text-anchor="start" x="244.5" y="-513.3" font-family="Helvetica,sans-Serif" font-size="11.00" fill="#000000">advance_directive_user_authenticator</text>
<polygon fill="none" stroke="#000000" points="224.5,-484.2 224.5,-506.2 501.5,-506.2 501.5,-484.2 224.5,-484.2"/>
<image xlink:href="../../images/foreignKeys.png" width="11px" height="12px" preserveAspectRatio="xMinYMin meet" x="229.5" y="-501.2"/>
<text text-anchor="start" x="244.5" y="-491.3" font-family="Helvetica,sans-Serif" font-size="11.00" fill="#000000">created_by</text>
<polygon fill="none" stroke="#000000" points="224.5,-462.2 224.5,-484.2 501.5,-484.2 501.5,-462.2 224.5,-462.2"/>
<image xlink:href="../../images/foreignKeys.png" width="11px" height="12px" preserveAspectRatio="xMinYMin meet" x="229.5" y="-479.2"/>
<text text-anchor="start" x="244.5" y="-469.3" font-family="Helvetica,sans-Serif" font-size="11.00" fill="#000000">updated_by</text>
<polygon fill="none" stroke="#000000" points="224.5,-440.2 224.5,-462.2 501.5,-462.2 501.5,-440.2 224.5,-440.2"/>
<image xlink:href="../../images/foreignKeys.png" width="11px" height="12px" preserveAspectRatio="xMinYMin meet" x="229.5" y="-457.2"/>
<text text-anchor="start" x="244.5" y="-447.3" font-family="Helvetica,sans-Serif" font-size="11.00" fill="#000000">tribal_affiliations</text>
<polygon fill="none" stroke="#000000" points="224.5,-418.2 224.5,-440.2 501.5,-440.2 501.5,-418.2 224.5,-418.2"/>
<image xlink:href="../../images/foreignKeys.png" width="11px" height="12px" preserveAspectRatio="xMinYMin meet" x="229.5" y="-435.2"/>
<text text-anchor="start" x="244.5" y="-425.3" font-family="Helvetica,sans-Serif" font-size="11.00" fill="#000000">sex_identified</text>
<polygon fill="none" stroke="#000000" points="224.5,-399.2 224.5,-418.2 501.5,-418.2 501.5,-399.2 224.5,-399.2"/>
<text text-anchor="start" x="227.5" y="-405.3" font-family="Helvetica,sans-Serif" font-size="11.00" fill="#000000">...</text>
<polygon fill="#ffffff" stroke="transparent" points="224.5,-380.2 224.5,-399.2 353.5,-399.2 353.5,-380.2 224.5,-380.2"/>
<polygon fill="none" stroke="#000000" points="224.5,-380.2 224.5,-399.2 353.5,-399.2 353.5,-380.2 224.5,-380.2"/>
<text text-anchor="start" x="227.5" y="-386.3" font-family="Helvetica,sans-Serif" font-size="11.00" fill="#000000">&lt; 9</text>
<polygon fill="#ffffff" stroke="transparent" points="353.5,-380.2 353.5,-399.2 419.5,-399.2 419.5,-380.2 353.5,-380.2"/>
<polygon fill="none" stroke="#000000" points="353.5,-380.2 353.5,-399.2 419.5,-399.2 419.5,-380.2 353.5,-380.2"/>
<text text-anchor="start" x="410.3862" y="-386.3" font-family="Helvetica,sans-Serif" font-size="11.00" fill="#000000"> &#160;</text>
<polygon fill="#ffffff" stroke="transparent" points="419.5,-380.2 419.5,-399.2 501.5,-399.2 501.5,-380.2 419.5,-380.2"/>
<polygon fill="none" stroke="#000000" points="419.5,-380.2 419.5,-399.2 501.5,-399.2 501.5,-380.2 419.5,-380.2"/>
<text text-anchor="start" x="476.7904" y="-386.3" font-family="Helvetica,sans-Serif" font-size="11.00" fill="#000000">95 &gt;</text>
</a>
</g>
</g>
<!-- ar_activity&#45;&gt;patient_data -->
<g id="edge2" class="edge">
<title>ar_activity:w&#45;&gt;patient_data:e</title>
<path fill="none" stroke="#000000" d="M794.8325,-535.3308C769.4298,-549.9447 802.544,-611.7651 766,-636.2 683.2403,-691.5367 624.8554,-691.3932 542,-636.2 503.1188,-610.2998 548.218,-539.2 501.5,-539.2"/>
<polygon fill="#000000" stroke="#000000" points="801.1885,-533.9263 809.7768,-535.7152 805.0942,-533.0631 809,-532.2 809,-532.2 809,-532.2 805.0942,-533.0631 808.2232,-528.6848 801.1885,-533.9263 801.1885,-533.9263"/>
<ellipse fill="none" stroke="#000000" cx="798.0638" cy="-534.6168" rx="3.2" ry="3.2"/>
</g>
<!-- users -->
<g id="node4" class="node">
<title>users</title>
<g id="a_node4"><a xlink:href="../../tables/users.html" xlink:title="users" target="_top">
<polygon fill="#ffffff" stroke="transparent" points="8,-314.7 8,-529.7 175,-529.7 175,-314.7 8,-314.7"/>
<polygon fill="#f5f5f5" stroke="transparent" points="8.5,-506.2 8.5,-529.2 175.5,-529.2 175.5,-506.2 8.5,-506.2"/>
<polygon fill="none" stroke="#000000" points="8.5,-506.2 8.5,-529.2 175.5,-529.2 175.5,-506.2 8.5,-506.2"/>
<text text-anchor="start" x="13.5" y="-514.8" font-family="Helvetica,sans-Serif" font-weight="bold" font-size="11.00" fill="#000000">users</text>
<text text-anchor="start" x="140.5437" y="-514.3" font-family="Helvetica,sans-Serif" font-size="11.00" fill="#000000">[table]</text>
<polygon fill="none" stroke="#000000" points="8.5,-484.2 8.5,-506.2 175.5,-506.2 175.5,-484.2 8.5,-484.2"/>
<image xlink:href="../../images/primaryKeys.png" width="11px" height="12px" preserveAspectRatio="xMinYMin meet" x="13.5" y="-501.2"/>
<text text-anchor="start" x="28.5" y="-491.3" font-family="Helvetica,sans-Serif" font-size="11.00" fill="#000000">id</text>
<polygon fill="#ffffff" stroke="transparent" points="8.5,-462.2 8.5,-484.2 175.5,-484.2 175.5,-462.2 8.5,-462.2"/>
<polygon fill="none" stroke="#000000" points="8.5,-462.2 8.5,-484.2 175.5,-484.2 175.5,-462.2 8.5,-462.2"/>
<text text-anchor="start" x="28.5" y="-469.3" font-family="Helvetica,sans-Serif" font-size="11.00" fill="#000000">uuid</text>
<polygon fill="none" stroke="#000000" points="8.5,-440.2 8.5,-462.2 175.5,-462.2 175.5,-440.2 8.5,-440.2"/>
<image xlink:href="../../images/primaryKeys.png" width="11px" height="12px" preserveAspectRatio="xMinYMin meet" x="13.5" y="-457.2"/>
<text text-anchor="start" x="28.5" y="-447.3" font-family="Helvetica,sans-Serif" font-size="11.00" fill="#000000">username</text>
<polygon fill="none" stroke="#000000" points="8.5,-418.2 8.5,-440.2 175.5,-440.2 175.5,-418.2 8.5,-418.2"/>
<image xlink:href="../../images/foreignKeys.png" width="11px" height="12px" preserveAspectRatio="xMinYMin meet" x="13.5" y="-435.2"/>
<text text-anchor="start" x="28.5" y="-425.3" font-family="Helvetica,sans-Serif" font-size="11.00" fill="#000000">facility_id</text>
<polygon fill="#ffffff" stroke="transparent" points="8.5,-396.2 8.5,-418.2 175.5,-418.2 175.5,-396.2 8.5,-396.2"/>
<polygon fill="none" stroke="#000000" points="8.5,-396.2 8.5,-418.2 175.5,-418.2 175.5,-396.2 8.5,-396.2"/>
<text text-anchor="start" x="28.5" y="-403.3" font-family="Helvetica,sans-Serif" font-size="11.00" fill="#000000">google_signin_email</text>
<polygon fill="#ffffff" stroke="transparent" points="8.5,-374.2 8.5,-396.2 175.5,-396.2 175.5,-374.2 8.5,-374.2"/>
<polygon fill="none" stroke="#000000" points="8.5,-374.2 8.5,-396.2 175.5,-396.2 175.5,-374.2 8.5,-374.2"/>
<text text-anchor="start" x="28.5" y="-381.3" font-family="Helvetica,sans-Serif" font-size="11.00" fill="#000000">abook_type</text>
<polygon fill="none" stroke="#000000" points="8.5,-352.2 8.5,-374.2 175.5,-374.2 175.5,-352.2 8.5,-352.2"/>
<image xlink:href="../../images/foreignKeys.png" width="11px" height="12px" preserveAspectRatio="xMinYMin meet" x="13.5" y="-369.2"/>
<text text-anchor="start" x="28.5" y="-359.3" font-family="Helvetica,sans-Serif" font-size="11.00" fill="#000000">billing_facility_id</text>
<polygon fill="none" stroke="#000000" points="8.5,-333.2 8.5,-352.2 175.5,-352.2 175.5,-333.2 8.5,-333.2"/>
<text text-anchor="start" x="11.5" y="-339.3" font-family="Helvetica,sans-Serif" font-size="11.00" fill="#000000">...</text>
<polygon fill="#ffffff" stroke="transparent" points="8.5,-314.2 8.5,-333.2 82.5,-333.2 82.5,-314.2 8.5,-314.2"/>
<polygon fill="none" stroke="#000000" points="8.5,-314.2 8.5,-333.2 82.5,-333.2 82.5,-314.2 8.5,-314.2"/>
<text text-anchor="start" x="11.5" y="-320.3" font-family="Helvetica,sans-Serif" font-size="11.00" fill="#000000">&lt; 2</text>
<polygon fill="#ffffff" stroke="transparent" points="82.5,-314.2 82.5,-333.2 121.5,-333.2 121.5,-314.2 82.5,-314.2"/>
<polygon fill="none" stroke="#000000" points="82.5,-314.2 82.5,-333.2 121.5,-333.2 121.5,-314.2 82.5,-314.2"/>
<text text-anchor="start" x="112.3862" y="-320.3" font-family="Helvetica,sans-Serif" font-size="11.00" fill="#000000"> &#160;</text>
<polygon fill="#ffffff" stroke="transparent" points="121.5,-314.2 121.5,-333.2 175.5,-333.2 175.5,-314.2 121.5,-314.2"/>
<polygon fill="none" stroke="#000000" points="121.5,-314.2 121.5,-333.2 175.5,-333.2 175.5,-314.2 121.5,-314.2"/>
<text text-anchor="start" x="150.7904" y="-320.3" font-family="Helvetica,sans-Serif" font-size="11.00" fill="#000000">90 &gt;</text>
</a>
</g>
</g>
<!-- ar_activity&#45;&gt;users -->
<g id="edge3" class="edge">
<title>ar_activity:w&#45;&gt;users:e</title>
<path fill="none" stroke="#000000" d="M794.605,-335.5345C785.5705,-337.3676 779.4232,-340.6168 766,-342.2 705.231,-349.3675 264.5578,-332.9658 216,-370.2 169.6573,-405.7356 233.8988,-495.2 175.5,-495.2"/>
<polygon fill="#000000" stroke="#000000" points="801.0342,-334.9385 809.3323,-337.7846 805.0171,-334.5693 809,-334.2 809,-334.2 809,-334.2 805.0171,-334.5693 808.6677,-330.6154 801.0342,-334.9385 801.0342,-334.9385"/>
<ellipse fill="none" stroke="#000000" cx="797.8478" cy="-335.234" rx="3.2" ry="3.2"/>
</g>
<!-- ar_session -->
<g id="node5" class="node">
<title>ar_session</title>
<g id="a_node5"><a xlink:href="../../tables/ar_session.html" xlink:title="ar_session" target="_top">
<polygon fill="#ffffff" stroke="transparent" points="585,-72.7 585,-331.7 723,-331.7 723,-72.7 585,-72.7"/>
<polygon fill="#f5f5f5" stroke="transparent" points="585,-308.2 585,-331.2 723,-331.2 723,-308.2 585,-308.2"/>
<polygon fill="none" stroke="#000000" points="585,-308.2 585,-331.2 723,-331.2 723,-308.2 585,-308.2"/>
<text text-anchor="start" x="590" y="-316.8" font-family="Helvetica,sans-Serif" font-weight="bold" font-size="11.00" fill="#000000">ar_session</text>
<text text-anchor="start" x="688.0437" y="-316.3" font-family="Helvetica,sans-Serif" font-size="11.00" fill="#000000">[table]</text>
<polygon fill="none" stroke="#000000" points="585,-286.2 585,-308.2 723,-308.2 723,-286.2 585,-286.2"/>
<image xlink:href="../../images/primaryKeys.png" width="11px" height="12px" preserveAspectRatio="xMinYMin meet" x="590" y="-303.2"/>
<text text-anchor="start" x="605" y="-293.3" font-family="Helvetica,sans-Serif" font-size="11.00" fill="#000000">session_id</text>
<polygon fill="none" stroke="#000000" points="585,-264.2 585,-286.2 723,-286.2 723,-264.2 585,-264.2"/>
<image xlink:href="../../images/foreignKeys.png" width="11px" height="12px" preserveAspectRatio="xMinYMin meet" x="590" y="-281.2"/>
<text text-anchor="start" x="605" y="-271.3" font-family="Helvetica,sans-Serif" font-size="11.00" fill="#000000">payer_id</text>
<polygon fill="#ffffff" stroke="transparent" points="585,-242.2 585,-264.2 723,-264.2 723,-242.2 585,-242.2"/>
<polygon fill="none" stroke="#000000" points="585,-242.2 585,-264.2 723,-264.2 723,-242.2 585,-242.2"/>
<image xlink:href="../../images/foreignKeys.png" width="11px" height="12px" preserveAspectRatio="xMinYMin meet" x="590" y="-259.2"/>
<text text-anchor="start" x="605" y="-249.3" font-family="Helvetica,sans-Serif" font-size="11.00" fill="#000000">user_id</text>
<polygon fill="#ffffff" stroke="transparent" points="585,-220.2 585,-242.2 723,-242.2 723,-220.2 585,-220.2"/>
<polygon fill="none" stroke="#000000" points="585,-220.2 585,-242.2 723,-242.2 723,-220.2 585,-220.2"/>
<text text-anchor="start" x="605" y="-227.3" font-family="Helvetica,sans-Serif" font-size="11.00" fill="#000000">closed</text>
<polygon fill="#ffffff" stroke="transparent" points="585,-198.2 585,-220.2 723,-220.2 723,-198.2 585,-198.2"/>
<polygon fill="none" stroke="#000000" points="585,-198.2 585,-220.2 723,-220.2 723,-198.2 585,-198.2"/>
<text text-anchor="start" x="605" y="-205.3" font-family="Helvetica,sans-Serif" font-size="11.00" fill="#000000">deposit_date</text>
<polygon fill="none" stroke="#000000" points="585,-176.2 585,-198.2 723,-198.2 723,-176.2 585,-176.2"/>
<image xlink:href="../../images/foreignKeys.png" width="11px" height="12px" preserveAspectRatio="xMinYMin meet" x="590" y="-193.2"/>
<text text-anchor="start" x="605" y="-183.3" font-family="Helvetica,sans-Serif" font-size="11.00" fill="#000000">payment_type</text>
<polygon fill="none" stroke="#000000" points="585,-154.2 585,-176.2 723,-176.2 723,-154.2 585,-154.2"/>
<image xlink:href="../../images/foreignKeys.png" width="11px" height="12px" preserveAspectRatio="xMinYMin meet" x="590" y="-171.2"/>
<text text-anchor="start" x="605" y="-161.3" font-family="Helvetica,sans-Serif" font-size="11.00" fill="#000000">adjustment_code</text>
<polygon fill="none" stroke="#000000" points="585,-132.2 585,-154.2 723,-154.2 723,-132.2 585,-132.2"/>
<image xlink:href="../../images/foreignKeys.png" width="11px" height="12px" preserveAspectRatio="xMinYMin meet" x="590" y="-149.2"/>
<text text-anchor="start" x="605" y="-139.3" font-family="Helvetica,sans-Serif" font-size="11.00" fill="#000000">patient_id</text>
<polygon fill="none" stroke="#000000" points="585,-110.2 585,-132.2 723,-132.2 723,-110.2 585,-110.2"/>
<image xlink:href="../../images/foreignKeys.png" width="11px" height="12px" preserveAspectRatio="xMinYMin meet" x="590" y="-127.2"/>
<text text-anchor="start" x="605" y="-117.3" font-family="Helvetica,sans-Serif" font-size="11.00" fill="#000000">payment_method</text>
<polygon fill="none" stroke="#000000" points="585,-91.2 585,-110.2 723,-110.2 723,-91.2 585,-91.2"/>
<text text-anchor="start" x="588" y="-97.3" font-family="Helvetica,sans-Serif" font-size="11.00" fill="#000000">...</text>
<polygon fill="#ffffff" stroke="transparent" points="585,-72.2 585,-91.2 648,-91.2 648,-72.2 585,-72.2"/>
<polygon fill="none" stroke="#000000" points="585,-72.2 585,-91.2 648,-91.2 648,-72.2 585,-72.2"/>
<text text-anchor="start" x="588" y="-78.3" font-family="Helvetica,sans-Serif" font-size="11.00" fill="#000000">&lt; 6</text>
<polygon fill="#ffffff" stroke="transparent" points="648,-72.2 648,-91.2 681,-91.2 681,-72.2 648,-72.2"/>
<polygon fill="none" stroke="#000000" points="648,-72.2 648,-91.2 681,-91.2 681,-72.2 648,-72.2"/>
<text text-anchor="start" x="671.8862" y="-78.3" font-family="Helvetica,sans-Serif" font-size="11.00" fill="#000000"> &#160;</text>
<polygon fill="#ffffff" stroke="transparent" points="681,-72.2 681,-91.2 723,-91.2 723,-72.2 681,-72.2"/>
<polygon fill="none" stroke="#000000" points="681,-72.2 681,-91.2 723,-91.2 723,-72.2 681,-72.2"/>
<text text-anchor="start" x="704.4053" y="-78.3" font-family="Helvetica,sans-Serif" font-size="11.00" fill="#000000">1 &gt;</text>
</a>
</g>
</g>
<!-- ar_activity&#45;&gt;ar_session -->
<g id="edge4" class="edge">
<title>ar_activity:w&#45;&gt;ar_session:e</title>
<path fill="none" stroke="#000000" d="M794.2659,-311.3935C767.2367,-308.2779 756.3431,-297.2 723,-297.2"/>
<polygon fill="#000000" stroke="#000000" points="801.012,-311.7627 808.8032,-315.7946 805.006,-311.9814 809,-312.2 809,-312.2 809,-312.2 805.006,-311.9814 809.1968,-308.6054 801.012,-311.7627 801.012,-311.7627"/>
<ellipse fill="none" stroke="#000000" cx="797.8167" cy="-311.5878" rx="3.2" ry="3.2"/>
</g>
<!-- form_encounter&#45;&gt;patient_data -->
<g id="edge7" class="edge">
<title>form_encounter:w&#45;&gt;patient_data:e</title>
<path fill="none" stroke="#000000" d="M535.753,-527.5118C524.4433,-531.4882 518.1515,-539.2 501.5,-539.2"/>
<polygon fill="#000000" stroke="#000000" points="542.1033,-526.4814 550.5766,-528.7535 546.0516,-525.8407 550,-525.2 550,-525.2 550,-525.2 546.0516,-525.8407 549.4234,-521.6465 542.1033,-526.4814 542.1033,-526.4814"/>
<ellipse fill="none" stroke="#000000" cx="538.9446" cy="-526.994" rx="3.2" ry="3.2"/>
</g>
<!-- patient_data&#45;&gt;users -->
<g id="edge8" class="edge">
<title>patient_data:w&#45;&gt;users:e</title>
<path fill="none" stroke="#000000" d="M210.1297,-513.7625C198.5865,-507.575 193.4041,-495.2 175.5,-495.2"/>
<polygon fill="#000000" stroke="#000000" points="216.7195,-515.3388 223.6625,-520.7012 220.6098,-516.2694 224.5,-517.2 224.5,-517.2 224.5,-517.2 220.6098,-516.2694 225.3375,-513.6988 216.7195,-515.3388 216.7195,-515.3388"/>
<ellipse fill="none" stroke="#000000" cx="213.6073" cy="-514.5943" rx="3.2" ry="3.2"/>
</g>
<!-- patient_data&#45;&gt;users -->
<g id="edge9" class="edge">
<title>patient_data:w&#45;&gt;users:e</title>
<path fill="none" stroke="#000000" d="M209.9909,-495.2C198.6774,-495.2 191.4931,-495.2 175.5,-495.2"/>
<polygon fill="#000000" stroke="#000000" points="216.5,-495.2001 224.5,-498.8 220.5,-495.2 224.5,-495.2 224.5,-495.2 224.5,-495.2 220.5,-495.2 224.5,-491.6 216.5,-495.2001 216.5,-495.2001"/>
<ellipse fill="none" stroke="#000000" cx="213.3" cy="-495.2001" rx="3.2" ry="3.2"/>
</g>
<!-- patient_data&#45;&gt;users -->
<g id="edge10" class="edge">
<title>patient_data:w&#45;&gt;users:e</title>
<path fill="none" stroke="#000000" d="M210.282,-601.285C182.6981,-581.6897 222.9572,-495.2 175.5,-495.2"/>
<polygon fill="#000000" stroke="#000000" points="216.7871,-603.0762 223.5443,-608.6708 220.6435,-604.1381 224.5,-605.2 224.5,-605.2 224.5,-605.2 220.6435,-604.1381 225.4557,-601.7292 216.7871,-603.0762 216.7871,-603.0762"/>
<ellipse fill="none" stroke="#000000" cx="213.7019" cy="-602.2266" rx="3.2" ry="3.2"/>
</g>
<!-- patient_data&#45;&gt;users -->
<g id="edge11" class="edge">
<title>patient_data:w&#45;&gt;users:e</title>
<path fill="none" stroke="#000000" d="M210.4863,-578.7151C189.2228,-560.7824 214.1452,-495.2 175.5,-495.2"/>
<polygon fill="#000000" stroke="#000000" points="216.8807,-580.7615 223.4027,-586.6287 220.6903,-581.9807 224.5,-583.2 224.5,-583.2 224.5,-583.2 220.6903,-581.9807 225.5973,-579.7713 216.8807,-580.7615 216.8807,-580.7615"/>
<ellipse fill="none" stroke="#000000" cx="213.833" cy="-579.7861" rx="3.2" ry="3.2"/>
</g>
<!-- patient_data&#45;&gt;users -->
<g id="edge12" class="edge">
<title>patient_data:w&#45;&gt;users:e</title>
<path fill="none" stroke="#000000" d="M210.1297,-476.6375C198.5865,-482.825 193.4041,-495.2 175.5,-495.2"/>
<polygon fill="#000000" stroke="#000000" points="216.7195,-475.0612 225.3375,-476.7012 220.6098,-474.1306 224.5,-473.2 224.5,-473.2 224.5,-473.2 220.6098,-474.1306 223.6625,-469.6988 216.7195,-475.0612 216.7195,-475.0612"/>
<ellipse fill="none" stroke="#000000" cx="213.6073" cy="-475.8057" rx="3.2" ry="3.2"/>
</g>
<!-- ar_session&#45;&gt;patient_data -->
<g id="edge5" class="edge">
<title>ar_session:w&#45;&gt;patient_data:e</title>
<path fill="none" stroke="#000000" d="M573.8363,-152.5982C540.7808,-212.5662 542.3396,-539.2 501.5,-539.2"/>
<polygon fill="#000000" stroke="#000000" points="578.8799,-148.3522 587.3185,-145.954 581.94,-145.7761 585,-143.2 585,-143.2 585,-143.2 581.94,-145.7761 582.6815,-140.446 578.8799,-148.3522 578.8799,-148.3522"/>
<ellipse fill="none" stroke="#000000" cx="576.4319" cy="-150.4131" rx="3.2" ry="3.2"/>
</g>
<!-- ar_session&#45;&gt;users -->
<g id="edge6" class="edge">
<title>ar_session:w&#45;&gt;users:e</title>
<path fill="none" stroke="#000000" d="M570.3635,-253.1387C411.1965,-251.8306 333.1576,-231.1911 216,-346.2 167.0278,-394.274 244.1249,-495.2 175.5,-495.2"/>
<polygon fill="#000000" stroke="#000000" points="577.0001,-253.1664 584.9849,-256.8 581,-253.1832 585,-253.2 585,-253.2 585,-253.2 581,-253.1832 585.0151,-249.6 577.0001,-253.1664 577.0001,-253.1664"/>
<ellipse fill="none" stroke="#000000" cx="573.8001" cy="-253.153" rx="3.2" ry="3.2"/>
</g>
</g>
</svg>
