<?xml version="1.0" encoding="UTF-8" standalone="no"?>
<!DOCTYPE svg PUBLIC "-//W3C//DTD SVG 1.1//EN"
 "http://www.w3.org/Graphics/SVG/1.1/DTD/svg11.dtd">
<!-- Generated by graphviz version 2.40.1 (20161225.0304)
 -->
<!-- Title: oneDegreeRelationshipsDiagram Pages: 1 -->
<svg width="999pt" height="757pt"
 viewBox="0.00 0.00 999.00 756.78" xmlns="http://www.w3.org/2000/svg" xmlns:xlink="http://www.w3.org/1999/xlink">
<g id="graph0" class="graph" transform="scale(1 1) rotate(0) translate(4 752.7751)">
<title>oneDegreeRelationshipsDiagram</title>
<polygon fill="#ffffff" stroke="transparent" points="-4,4 -4,-752.7751 995,-752.7751 995,4 -4,4"/>
<text text-anchor="middle" x="72.4936" y="-7.3" font-family="Helvetica,sans-Serif" font-size="11.00" fill="#000000">Generated by SchemaSpy</text>
<!-- ar_activity -->
<g id="node1" class="node">
<title>ar_activity</title>
<g id="a_node1"><a xlink:href="../../tables/ar_activity.html" xlink:title="ar_activity" target="_top">
<polygon fill="#ffffff" stroke="transparent" points="824,-443.4311 824,-614.4311 983,-614.4311 983,-443.4311 824,-443.4311"/>
<polygon fill="#f5f5f5" stroke="transparent" points="824.5,-590.9311 824.5,-613.9311 983.5,-613.9311 983.5,-590.9311 824.5,-590.9311"/>
<polygon fill="none" stroke="#000000" points="824.5,-590.9311 824.5,-613.9311 983.5,-613.9311 983.5,-590.9311 824.5,-590.9311"/>
<text text-anchor="start" x="829.5" y="-599.5311" font-family="Helvetica,sans-Serif" font-weight="bold" font-size="11.00" fill="#000000">ar_activity</text>
<text text-anchor="start" x="948.5437" y="-599.0311" font-family="Helvetica,sans-Serif" font-size="11.00" fill="#000000">[table]</text>
<polygon fill="none" stroke="#000000" points="824.5,-568.9311 824.5,-590.9311 983.5,-590.9311 983.5,-568.9311 824.5,-568.9311"/>
<image xlink:href="../../images/primaryKeys.png" width="11px" height="12px" preserveAspectRatio="xMinYMin meet" x="829.5" y="-585.931"/>
<text text-anchor="start" x="844.5" y="-576.0311" font-family="Helvetica,sans-Serif" font-size="11.00" fill="#000000">pid</text>
<polygon fill="none" stroke="#000000" points="824.5,-546.9311 824.5,-568.9311 983.5,-568.9311 983.5,-546.9311 824.5,-546.9311"/>
<image xlink:href="../../images/primaryKeys.png" width="11px" height="12px" preserveAspectRatio="xMinYMin meet" x="829.5" y="-563.931"/>
<text text-anchor="start" x="844.5" y="-554.0311" font-family="Helvetica,sans-Serif" font-size="11.00" fill="#000000">encounter</text>
<polygon fill="none" stroke="#000000" points="824.5,-524.9311 824.5,-546.9311 983.5,-546.9311 983.5,-524.9311 824.5,-524.9311"/>
<image xlink:href="../../images/primaryKeys.png" width="11px" height="12px" preserveAspectRatio="xMinYMin meet" x="829.5" y="-541.931"/>
<text text-anchor="start" x="844.5" y="-532.0311" font-family="Helvetica,sans-Serif" font-size="11.00" fill="#000000">sequence_no</text>
<polygon fill="none" stroke="#000000" points="824.5,-502.9311 824.5,-524.9311 983.5,-524.9311 983.5,-502.9311 824.5,-502.9311"/>
<image xlink:href="../../images/foreignKeys.png" width="11px" height="12px" preserveAspectRatio="xMinYMin meet" x="829.5" y="-519.931"/>
<text text-anchor="start" x="844.5" y="-510.0311" font-family="Helvetica,sans-Serif" font-size="11.00" fill="#000000">post_user</text>
<polygon fill="#ffffff" stroke="transparent" points="824.5,-480.9311 824.5,-502.9311 983.5,-502.9311 983.5,-480.9311 824.5,-480.9311"/>
<polygon fill="none" stroke="#000000" points="824.5,-480.9311 824.5,-502.9311 983.5,-502.9311 983.5,-480.9311 824.5,-480.9311"/>
<image xlink:href="../../images/foreignKeys.png" width="11px" height="12px" preserveAspectRatio="xMinYMin meet" x="829.5" y="-497.931"/>
<text text-anchor="start" x="844.5" y="-488.0311" font-family="Helvetica,sans-Serif" font-size="11.00" fill="#000000">session_id</text>
<polygon fill="none" stroke="#000000" points="824.5,-461.9311 824.5,-480.9311 983.5,-480.9311 983.5,-461.9311 824.5,-461.9311"/>
<text text-anchor="start" x="827.5" y="-468.0311" font-family="Helvetica,sans-Serif" font-size="11.00" fill="#000000">...</text>
<polygon fill="#ffffff" stroke="transparent" points="824.5,-442.9311 824.5,-461.9311 902.5,-461.9311 902.5,-442.9311 824.5,-442.9311"/>
<polygon fill="none" stroke="#000000" points="824.5,-442.9311 824.5,-461.9311 902.5,-461.9311 902.5,-442.9311 824.5,-442.9311"/>
<text text-anchor="start" x="827.5" y="-449.0311" font-family="Helvetica,sans-Serif" font-size="11.00" fill="#000000">&lt; 4</text>
<polygon fill="#ffffff" stroke="transparent" points="902.5,-442.9311 902.5,-461.9311 942.5,-461.9311 942.5,-442.9311 902.5,-442.9311"/>
<polygon fill="none" stroke="#000000" points="902.5,-442.9311 902.5,-461.9311 942.5,-461.9311 942.5,-442.9311 902.5,-442.9311"/>
<text text-anchor="start" x="933.3862" y="-449.0311" font-family="Helvetica,sans-Serif" font-size="11.00" fill="#000000"> &#160;</text>
<polygon fill="#ffffff" stroke="transparent" points="942.5,-442.9311 942.5,-461.9311 983.5,-461.9311 983.5,-442.9311 942.5,-442.9311"/>
<polygon fill="none" stroke="#000000" points="942.5,-442.9311 942.5,-461.9311 983.5,-461.9311 983.5,-442.9311 942.5,-442.9311"/>
<text text-anchor="start" x="974.3862" y="-449.0311" font-family="Helvetica,sans-Serif" font-size="11.00" fill="#000000"> &#160;</text>
</a>
</g>
</g>
<!-- patient_data -->
<g id="node2" class="node">
<title>patient_data</title>
<g id="a_node2"><a xlink:href="../../tables/patient_data.html" xlink:title="patient_data" target="_top">
<polygon fill="#ffffff" stroke="transparent" points="224,-125.4311 224,-516.4311 501,-516.4311 501,-125.4311 224,-125.4311"/>
<polygon fill="#f5f5f5" stroke="transparent" points="224.5,-492.9311 224.5,-515.9311 501.5,-515.9311 501.5,-492.9311 224.5,-492.9311"/>
<polygon fill="none" stroke="#000000" points="224.5,-492.9311 224.5,-515.9311 501.5,-515.9311 501.5,-492.9311 224.5,-492.9311"/>
<text text-anchor="start" x="229.5" y="-501.5311" font-family="Helvetica,sans-Serif" font-weight="bold" font-size="11.00" fill="#000000">patient_data</text>
<text text-anchor="start" x="466.5437" y="-501.0311" font-family="Helvetica,sans-Serif" font-size="11.00" fill="#000000">[table]</text>
<polygon fill="none" stroke="#000000" points="224.5,-470.9311 224.5,-492.9311 501.5,-492.9311 501.5,-470.9311 224.5,-470.9311"/>
<image xlink:href="../../images/primaryKeys.png" width="11px" height="12px" preserveAspectRatio="xMinYMin meet" x="229.5" y="-487.931"/>
<text text-anchor="start" x="244.5" y="-478.0311" font-family="Helvetica,sans-Serif" font-size="11.00" fill="#000000">id</text>
<polygon fill="#ffffff" stroke="transparent" points="224.5,-448.9311 224.5,-470.9311 501.5,-470.9311 501.5,-448.9311 224.5,-448.9311"/>
<polygon fill="none" stroke="#000000" points="224.5,-448.9311 224.5,-470.9311 501.5,-470.9311 501.5,-448.9311 224.5,-448.9311"/>
<text text-anchor="start" x="244.5" y="-456.0311" font-family="Helvetica,sans-Serif" font-size="11.00" fill="#000000">uuid</text>
<polygon fill="#ffffff" stroke="transparent" points="224.5,-426.9311 224.5,-448.9311 501.5,-448.9311 501.5,-426.9311 224.5,-426.9311"/>
<polygon fill="none" stroke="#000000" points="224.5,-426.9311 224.5,-448.9311 501.5,-448.9311 501.5,-426.9311 224.5,-426.9311"/>
<text text-anchor="start" x="244.5" y="-434.0311" font-family="Helvetica,sans-Serif" font-size="11.00" fill="#000000">fname</text>
<polygon fill="#ffffff" stroke="transparent" points="224.5,-404.9311 224.5,-426.9311 501.5,-426.9311 501.5,-404.9311 224.5,-404.9311"/>
<polygon fill="none" stroke="#000000" points="224.5,-404.9311 224.5,-426.9311 501.5,-426.9311 501.5,-404.9311 224.5,-404.9311"/>
<text text-anchor="start" x="244.5" y="-412.0311" font-family="Helvetica,sans-Serif" font-size="11.00" fill="#000000">lname</text>
<polygon fill="#ffffff" stroke="transparent" points="224.5,-382.9311 224.5,-404.9311 501.5,-404.9311 501.5,-382.9311 224.5,-382.9311"/>
<polygon fill="none" stroke="#000000" points="224.5,-382.9311 224.5,-404.9311 501.5,-404.9311 501.5,-382.9311 224.5,-382.9311"/>
<text text-anchor="start" x="244.5" y="-390.0311" font-family="Helvetica,sans-Serif" font-size="11.00" fill="#000000">DOB</text>
<polygon fill="none" stroke="#000000" points="224.5,-360.9311 224.5,-382.9311 501.5,-382.9311 501.5,-360.9311 224.5,-360.9311"/>
<image xlink:href="../../images/foreignKeys.png" width="11px" height="12px" preserveAspectRatio="xMinYMin meet" x="229.5" y="-377.931"/>
<text text-anchor="start" x="244.5" y="-368.0311" font-family="Helvetica,sans-Serif" font-size="11.00" fill="#000000">pharmacy_id</text>
<polygon fill="none" stroke="#000000" points="224.5,-338.9311 224.5,-360.9311 501.5,-360.9311 501.5,-338.9311 224.5,-338.9311"/>
<image xlink:href="../../images/foreignKeys.png" width="11px" height="12px" preserveAspectRatio="xMinYMin meet" x="229.5" y="-355.931"/>
<text text-anchor="start" x="244.5" y="-346.0311" font-family="Helvetica,sans-Serif" font-size="11.00" fill="#000000">providerID</text>
<polygon fill="none" stroke="#000000" points="224.5,-316.9311 224.5,-338.9311 501.5,-338.9311 501.5,-316.9311 224.5,-316.9311"/>
<image xlink:href="../../images/foreignKeys.png" width="11px" height="12px" preserveAspectRatio="xMinYMin meet" x="229.5" y="-333.931"/>
<text text-anchor="start" x="244.5" y="-324.0311" font-family="Helvetica,sans-Serif" font-size="11.00" fill="#000000">ref_providerID</text>
<polygon fill="none" stroke="#000000" points="224.5,-294.9311 224.5,-316.9311 501.5,-316.9311 501.5,-294.9311 224.5,-294.9311"/>
<image xlink:href="../../images/foreignKeys.png" width="11px" height="12px" preserveAspectRatio="xMinYMin meet" x="229.5" y="-311.931"/>
<text text-anchor="start" x="244.5" y="-302.0311" font-family="Helvetica,sans-Serif" font-size="11.00" fill="#000000">interpreter_needed</text>
<polygon fill="none" stroke="#000000" points="224.5,-272.9311 224.5,-294.9311 501.5,-294.9311 501.5,-272.9311 224.5,-272.9311"/>
<image xlink:href="../../images/primaryKeys.png" width="11px" height="12px" preserveAspectRatio="xMinYMin meet" x="229.5" y="-289.931"/>
<text text-anchor="start" x="244.5" y="-280.0311" font-family="Helvetica,sans-Serif" font-size="11.00" fill="#000000">pid</text>
<polygon fill="none" stroke="#000000" points="224.5,-250.9311 224.5,-272.9311 501.5,-272.9311 501.5,-250.9311 224.5,-250.9311"/>
<image xlink:href="../../images/foreignKeys.png" width="11px" height="12px" preserveAspectRatio="xMinYMin meet" x="229.5" y="-267.931"/>
<text text-anchor="start" x="244.5" y="-258.0311" font-family="Helvetica,sans-Serif" font-size="11.00" fill="#000000">advance_directive_user_authenticator</text>
<polygon fill="none" stroke="#000000" points="224.5,-228.9311 224.5,-250.9311 501.5,-250.9311 501.5,-228.9311 224.5,-228.9311"/>
<image xlink:href="../../images/foreignKeys.png" width="11px" height="12px" preserveAspectRatio="xMinYMin meet" x="229.5" y="-245.931"/>
<text text-anchor="start" x="244.5" y="-236.0311" font-family="Helvetica,sans-Serif" font-size="11.00" fill="#000000">created_by</text>
<polygon fill="none" stroke="#000000" points="224.5,-206.9311 224.5,-228.9311 501.5,-228.9311 501.5,-206.9311 224.5,-206.9311"/>
<image xlink:href="../../images/foreignKeys.png" width="11px" height="12px" preserveAspectRatio="xMinYMin meet" x="229.5" y="-223.931"/>
<text text-anchor="start" x="244.5" y="-214.0311" font-family="Helvetica,sans-Serif" font-size="11.00" fill="#000000">updated_by</text>
<polygon fill="none" stroke="#000000" points="224.5,-184.9311 224.5,-206.9311 501.5,-206.9311 501.5,-184.9311 224.5,-184.9311"/>
<image xlink:href="../../images/foreignKeys.png" width="11px" height="12px" preserveAspectRatio="xMinYMin meet" x="229.5" y="-201.931"/>
<text text-anchor="start" x="244.5" y="-192.0311" font-family="Helvetica,sans-Serif" font-size="11.00" fill="#000000">tribal_affiliations</text>
<polygon fill="none" stroke="#000000" points="224.5,-162.9311 224.5,-184.9311 501.5,-184.9311 501.5,-162.9311 224.5,-162.9311"/>
<image xlink:href="../../images/foreignKeys.png" width="11px" height="12px" preserveAspectRatio="xMinYMin meet" x="229.5" y="-179.931"/>
<text text-anchor="start" x="244.5" y="-170.0311" font-family="Helvetica,sans-Serif" font-size="11.00" fill="#000000">sex_identified</text>
<polygon fill="none" stroke="#000000" points="224.5,-143.9311 224.5,-162.9311 501.5,-162.9311 501.5,-143.9311 224.5,-143.9311"/>
<text text-anchor="start" x="227.5" y="-150.0311" font-family="Helvetica,sans-Serif" font-size="11.00" fill="#000000">...</text>
<polygon fill="#ffffff" stroke="transparent" points="224.5,-124.9311 224.5,-143.9311 353.5,-143.9311 353.5,-124.9311 224.5,-124.9311"/>
<polygon fill="none" stroke="#000000" points="224.5,-124.9311 224.5,-143.9311 353.5,-143.9311 353.5,-124.9311 224.5,-124.9311"/>
<text text-anchor="start" x="227.5" y="-131.0311" font-family="Helvetica,sans-Serif" font-size="11.00" fill="#000000">&lt; 9</text>
<polygon fill="#ffffff" stroke="transparent" points="353.5,-124.9311 353.5,-143.9311 419.5,-143.9311 419.5,-124.9311 353.5,-124.9311"/>
<polygon fill="none" stroke="#000000" points="353.5,-124.9311 353.5,-143.9311 419.5,-143.9311 419.5,-124.9311 353.5,-124.9311"/>
<text text-anchor="start" x="410.3862" y="-131.0311" font-family="Helvetica,sans-Serif" font-size="11.00" fill="#000000"> &#160;</text>
<polygon fill="#ffffff" stroke="transparent" points="419.5,-124.9311 419.5,-143.9311 501.5,-143.9311 501.5,-124.9311 419.5,-124.9311"/>
<polygon fill="none" stroke="#000000" points="419.5,-124.9311 419.5,-143.9311 501.5,-143.9311 501.5,-124.9311 419.5,-124.9311"/>
<text text-anchor="start" x="476.7904" y="-131.0311" font-family="Helvetica,sans-Serif" font-size="11.00" fill="#000000">95 &gt;</text>
</a>
</g>
</g>
<!-- ar_activity&#45;&gt;patient_data -->
<g id="edge1" class="edge">
<title>ar_activity:w&#45;&gt;patient_data:e</title>
<path fill="none" stroke="#000000" d="M809.9089,-580.1402C692.4878,-583.4802 628.7818,-624.5593 542,-538.9311 501.1578,-498.6318 558.8769,-283.9311 501.5,-283.9311"/>
<polygon fill="#000000" stroke="#000000" points="816.5008,-580.0458 824.5516,-583.5307 820.5004,-579.9884 824.5,-579.9311 824.5,-579.9311 824.5,-579.9311 820.5004,-579.9884 824.4484,-576.3314 816.5008,-580.0458 816.5008,-580.0458"/>
<ellipse fill="none" stroke="#000000" cx="813.3012" cy="-580.0917" rx="3.2" ry="3.2"/>
</g>
<!-- users -->
<g id="node3" class="node">
<title>users</title>
<g id="a_node3"><a xlink:href="../../tables/users.html" xlink:title="users" target="_top">
<polygon fill="#ffffff" stroke="transparent" points="8,-169.4311 8,-384.4311 175,-384.4311 175,-169.4311 8,-169.4311"/>
<polygon fill="#f5f5f5" stroke="transparent" points="8.5,-360.9311 8.5,-383.9311 175.5,-383.9311 175.5,-360.9311 8.5,-360.9311"/>
<polygon fill="none" stroke="#000000" points="8.5,-360.9311 8.5,-383.9311 175.5,-383.9311 175.5,-360.9311 8.5,-360.9311"/>
<text text-anchor="start" x="13.5" y="-369.5311" font-family="Helvetica,sans-Serif" font-weight="bold" font-size="11.00" fill="#000000">users</text>
<text text-anchor="start" x="140.5437" y="-369.0311" font-family="Helvetica,sans-Serif" font-size="11.00" fill="#000000">[table]</text>
<polygon fill="none" stroke="#000000" points="8.5,-338.9311 8.5,-360.9311 175.5,-360.9311 175.5,-338.9311 8.5,-338.9311"/>
<image xlink:href="../../images/primaryKeys.png" width="11px" height="12px" preserveAspectRatio="xMinYMin meet" x="13.5" y="-355.931"/>
<text text-anchor="start" x="28.5" y="-346.0311" font-family="Helvetica,sans-Serif" font-size="11.00" fill="#000000">id</text>
<polygon fill="#ffffff" stroke="transparent" points="8.5,-316.9311 8.5,-338.9311 175.5,-338.9311 175.5,-316.9311 8.5,-316.9311"/>
<polygon fill="none" stroke="#000000" points="8.5,-316.9311 8.5,-338.9311 175.5,-338.9311 175.5,-316.9311 8.5,-316.9311"/>
<text text-anchor="start" x="28.5" y="-324.0311" font-family="Helvetica,sans-Serif" font-size="11.00" fill="#000000">uuid</text>
<polygon fill="none" stroke="#000000" points="8.5,-294.9311 8.5,-316.9311 175.5,-316.9311 175.5,-294.9311 8.5,-294.9311"/>
<image xlink:href="../../images/primaryKeys.png" width="11px" height="12px" preserveAspectRatio="xMinYMin meet" x="13.5" y="-311.931"/>
<text text-anchor="start" x="28.5" y="-302.0311" font-family="Helvetica,sans-Serif" font-size="11.00" fill="#000000">username</text>
<polygon fill="none" stroke="#000000" points="8.5,-272.9311 8.5,-294.9311 175.5,-294.9311 175.5,-272.9311 8.5,-272.9311"/>
<image xlink:href="../../images/foreignKeys.png" width="11px" height="12px" preserveAspectRatio="xMinYMin meet" x="13.5" y="-289.931"/>
<text text-anchor="start" x="28.5" y="-280.0311" font-family="Helvetica,sans-Serif" font-size="11.00" fill="#000000">facility_id</text>
<polygon fill="#ffffff" stroke="transparent" points="8.5,-250.9311 8.5,-272.9311 175.5,-272.9311 175.5,-250.9311 8.5,-250.9311"/>
<polygon fill="none" stroke="#000000" points="8.5,-250.9311 8.5,-272.9311 175.5,-272.9311 175.5,-250.9311 8.5,-250.9311"/>
<text text-anchor="start" x="28.5" y="-258.0311" font-family="Helvetica,sans-Serif" font-size="11.00" fill="#000000">google_signin_email</text>
<polygon fill="#ffffff" stroke="transparent" points="8.5,-228.9311 8.5,-250.9311 175.5,-250.9311 175.5,-228.9311 8.5,-228.9311"/>
<polygon fill="none" stroke="#000000" points="8.5,-228.9311 8.5,-250.9311 175.5,-250.9311 175.5,-228.9311 8.5,-228.9311"/>
<text text-anchor="start" x="28.5" y="-236.0311" font-family="Helvetica,sans-Serif" font-size="11.00" fill="#000000">abook_type</text>
<polygon fill="none" stroke="#000000" points="8.5,-206.9311 8.5,-228.9311 175.5,-228.9311 175.5,-206.9311 8.5,-206.9311"/>
<image xlink:href="../../images/foreignKeys.png" width="11px" height="12px" preserveAspectRatio="xMinYMin meet" x="13.5" y="-223.931"/>
<text text-anchor="start" x="28.5" y="-214.0311" font-family="Helvetica,sans-Serif" font-size="11.00" fill="#000000">billing_facility_id</text>
<polygon fill="none" stroke="#000000" points="8.5,-187.9311 8.5,-206.9311 175.5,-206.9311 175.5,-187.9311 8.5,-187.9311"/>
<text text-anchor="start" x="11.5" y="-194.0311" font-family="Helvetica,sans-Serif" font-size="11.00" fill="#000000">...</text>
<polygon fill="#ffffff" stroke="transparent" points="8.5,-168.9311 8.5,-187.9311 82.5,-187.9311 82.5,-168.9311 8.5,-168.9311"/>
<polygon fill="none" stroke="#000000" points="8.5,-168.9311 8.5,-187.9311 82.5,-187.9311 82.5,-168.9311 8.5,-168.9311"/>
<text text-anchor="start" x="11.5" y="-175.0311" font-family="Helvetica,sans-Serif" font-size="11.00" fill="#000000">&lt; 2</text>
<polygon fill="#ffffff" stroke="transparent" points="82.5,-168.9311 82.5,-187.9311 121.5,-187.9311 121.5,-168.9311 82.5,-168.9311"/>
<polygon fill="none" stroke="#000000" points="82.5,-168.9311 82.5,-187.9311 121.5,-187.9311 121.5,-168.9311 82.5,-168.9311"/>
<text text-anchor="start" x="112.3862" y="-175.0311" font-family="Helvetica,sans-Serif" font-size="11.00" fill="#000000"> &#160;</text>
<polygon fill="#ffffff" stroke="transparent" points="121.5,-168.9311 121.5,-187.9311 175.5,-187.9311 175.5,-168.9311 121.5,-168.9311"/>
<polygon fill="none" stroke="#000000" points="121.5,-168.9311 121.5,-187.9311 175.5,-187.9311 175.5,-168.9311 121.5,-168.9311"/>
<text text-anchor="start" x="150.7904" y="-175.0311" font-family="Helvetica,sans-Serif" font-size="11.00" fill="#000000">90 &gt;</text>
</a>
</g>
</g>
<!-- ar_activity&#45;&gt;users -->
<g id="edge2" class="edge">
<title>ar_activity:w&#45;&gt;users:e</title>
<path fill="none" stroke="#000000" d="M810.2276,-518.0457C796.4882,-528.7512 803.0923,-557.8278 783,-574.9311 680.6498,-662.0552 640.2143,-673.7937 509,-702.9311 381.8744,-731.1604 313.1873,-789.6055 216,-702.9311 157.0714,-650.3768 254.459,-349.9311 175.5,-349.9311"/>
<polygon fill="#000000" stroke="#000000" points="816.8131,-516.1472 825.4973,-517.3902 820.6565,-515.0391 824.5,-513.9311 824.5,-513.9311 824.5,-513.9311 820.6565,-515.0391 823.5027,-510.4719 816.8131,-516.1472 816.8131,-516.1472"/>
<ellipse fill="none" stroke="#000000" cx="813.7383" cy="-517.0336" rx="3.2" ry="3.2"/>
</g>
<!-- ar_session -->
<g id="node4" class="node">
<title>ar_session</title>
<g id="a_node4"><a xlink:href="../../tables/ar_session.html" xlink:title="ar_session" target="_top">
<polygon fill="#ffffff" stroke="transparent" points="550,-107.9311 550,-527.9311 775,-527.9311 775,-107.9311 550,-107.9311"/>
<polygon fill="#f5f5f5" stroke="transparent" points="552.5,-502.9311 552.5,-525.9311 773.5,-525.9311 773.5,-502.9311 552.5,-502.9311"/>
<polygon fill="none" stroke="#000000" points="552.5,-502.9311 552.5,-525.9311 773.5,-525.9311 773.5,-502.9311 552.5,-502.9311"/>
<text text-anchor="start" x="557.5" y="-511.5311" font-family="Helvetica,sans-Serif" font-weight="bold" font-size="11.00" fill="#000000">ar_session</text>
<text text-anchor="start" x="738.5437" y="-511.0311" font-family="Helvetica,sans-Serif" font-size="11.00" fill="#000000">[table]</text>
<polygon fill="none" stroke="#000000" points="552.5,-480.9311 552.5,-502.9311 690.5,-502.9311 690.5,-480.9311 552.5,-480.9311"/>
<image xlink:href="../../images/primaryKeys.png" width="11px" height="12px" preserveAspectRatio="xMinYMin meet" x="557.5" y="-497.931"/>
<text text-anchor="start" x="572.5" y="-488.0311" font-family="Helvetica,sans-Serif" font-size="11.00" fill="#000000">session_id</text>
<polygon fill="none" stroke="#000000" points="690.5,-480.9311 690.5,-502.9311 773.5,-502.9311 773.5,-480.9311 690.5,-480.9311"/>
<text text-anchor="start" x="693.1783" y="-488.6311" font-family="Helvetica,sans-Serif" font-size="11.00" fill="#000000">int unsigned[10]</text>
<polygon fill="none" stroke="#000000" points="552.5,-458.9311 552.5,-480.9311 690.5,-480.9311 690.5,-458.9311 552.5,-458.9311"/>
<image xlink:href="../../images/foreignKeys.png" width="11px" height="12px" preserveAspectRatio="xMinYMin meet" x="557.5" y="-475.931"/>
<text text-anchor="start" x="572.5" y="-466.0311" font-family="Helvetica,sans-Serif" font-size="11.00" fill="#000000">payer_id</text>
<polygon fill="none" stroke="#000000" points="690.5,-458.9311 690.5,-480.9311 773.5,-480.9311 773.5,-458.9311 690.5,-458.9311"/>
<text text-anchor="start" x="693.5" y="-466.6311" font-family="Helvetica,sans-Serif" font-size="11.00" fill="#000000">int[10]</text>
<polygon fill="#ffffff" stroke="transparent" points="552.5,-436.9311 552.5,-458.9311 690.5,-458.9311 690.5,-436.9311 552.5,-436.9311"/>
<polygon fill="none" stroke="#000000" points="552.5,-436.9311 552.5,-458.9311 690.5,-458.9311 690.5,-436.9311 552.5,-436.9311"/>
<image xlink:href="../../images/foreignKeys.png" width="11px" height="12px" preserveAspectRatio="xMinYMin meet" x="557.5" y="-453.931"/>
<text text-anchor="start" x="572.5" y="-444.0311" font-family="Helvetica,sans-Serif" font-size="11.00" fill="#000000">user_id</text>
<polygon fill="none" stroke="#000000" points="690.5,-436.9311 690.5,-458.9311 773.5,-458.9311 773.5,-436.9311 690.5,-436.9311"/>
<text text-anchor="start" x="693.5" y="-444.6311" font-family="Helvetica,sans-Serif" font-size="11.00" fill="#000000">int[10]</text>
<polygon fill="#ffffff" stroke="transparent" points="552.5,-414.9311 552.5,-436.9311 690.5,-436.9311 690.5,-414.9311 552.5,-414.9311"/>
<polygon fill="none" stroke="#000000" points="552.5,-414.9311 552.5,-436.9311 690.5,-436.9311 690.5,-414.9311 552.5,-414.9311"/>
<text text-anchor="start" x="572.5" y="-422.0311" font-family="Helvetica,sans-Serif" font-size="11.00" fill="#000000">closed</text>
<polygon fill="none" stroke="#000000" points="690.5,-414.9311 690.5,-436.9311 773.5,-436.9311 773.5,-414.9311 690.5,-414.9311"/>
<text text-anchor="start" x="693.5" y="-422.6311" font-family="Helvetica,sans-Serif" font-size="11.00" fill="#000000">boolean[3]</text>
<polygon fill="none" stroke="#000000" points="552.5,-392.9311 552.5,-414.9311 690.5,-414.9311 690.5,-392.9311 552.5,-392.9311"/>
<text text-anchor="start" x="572.5" y="-400.0311" font-family="Helvetica,sans-Serif" font-size="11.00" fill="#000000">reference</text>
<polygon fill="none" stroke="#000000" points="690.5,-392.9311 690.5,-414.9311 773.5,-414.9311 773.5,-392.9311 690.5,-392.9311"/>
<text text-anchor="start" x="693.5" y="-400.6311" font-family="Helvetica,sans-Serif" font-size="11.00" fill="#000000">varchar[255]</text>
<polygon fill="none" stroke="#000000" points="552.5,-370.9311 552.5,-392.9311 690.5,-392.9311 690.5,-370.9311 552.5,-370.9311"/>
<text text-anchor="start" x="572.5" y="-378.0311" font-family="Helvetica,sans-Serif" font-size="11.00" fill="#000000">check_date</text>
<polygon fill="none" stroke="#000000" points="690.5,-370.9311 690.5,-392.9311 773.5,-392.9311 773.5,-370.9311 690.5,-370.9311"/>
<text text-anchor="start" x="693.5" y="-378.6311" font-family="Helvetica,sans-Serif" font-size="11.00" fill="#000000">date[10]</text>
<polygon fill="#ffffff" stroke="transparent" points="552.5,-348.9311 552.5,-370.9311 690.5,-370.9311 690.5,-348.9311 552.5,-348.9311"/>
<polygon fill="none" stroke="#000000" points="552.5,-348.9311 552.5,-370.9311 690.5,-370.9311 690.5,-348.9311 552.5,-348.9311"/>
<text text-anchor="start" x="572.5" y="-356.0311" font-family="Helvetica,sans-Serif" font-size="11.00" fill="#000000">deposit_date</text>
<polygon fill="none" stroke="#000000" points="690.5,-348.9311 690.5,-370.9311 773.5,-370.9311 773.5,-348.9311 690.5,-348.9311"/>
<text text-anchor="start" x="693.5" y="-356.6311" font-family="Helvetica,sans-Serif" font-size="11.00" fill="#000000">date[10]</text>
<polygon fill="none" stroke="#000000" points="552.5,-326.9311 552.5,-348.9311 690.5,-348.9311 690.5,-326.9311 552.5,-326.9311"/>
<text text-anchor="start" x="572.5" y="-334.0311" font-family="Helvetica,sans-Serif" font-size="11.00" fill="#000000">pay_total</text>
<polygon fill="none" stroke="#000000" points="690.5,-326.9311 690.5,-348.9311 773.5,-348.9311 773.5,-326.9311 690.5,-326.9311"/>
<text text-anchor="start" x="693.5" y="-334.6311" font-family="Helvetica,sans-Serif" font-size="11.00" fill="#000000">decimal[12,2]</text>
<polygon fill="none" stroke="#000000" points="552.5,-304.9311 552.5,-326.9311 690.5,-326.9311 690.5,-304.9311 552.5,-304.9311"/>
<text text-anchor="start" x="572.5" y="-312.0311" font-family="Helvetica,sans-Serif" font-size="11.00" fill="#000000">created_time</text>
<polygon fill="none" stroke="#000000" points="690.5,-304.9311 690.5,-326.9311 773.5,-326.9311 773.5,-304.9311 690.5,-304.9311"/>
<text text-anchor="start" x="693.5" y="-312.6311" font-family="Helvetica,sans-Serif" font-size="11.00" fill="#000000">timestamp[19]</text>
<polygon fill="none" stroke="#000000" points="552.5,-282.9311 552.5,-304.9311 690.5,-304.9311 690.5,-282.9311 552.5,-282.9311"/>
<text text-anchor="start" x="572.5" y="-290.0311" font-family="Helvetica,sans-Serif" font-size="11.00" fill="#000000">modified_time</text>
<polygon fill="none" stroke="#000000" points="690.5,-282.9311 690.5,-304.9311 773.5,-304.9311 773.5,-282.9311 690.5,-282.9311"/>
<text text-anchor="start" x="693.5" y="-290.6311" font-family="Helvetica,sans-Serif" font-size="11.00" fill="#000000">datetime[19]</text>
<polygon fill="none" stroke="#000000" points="552.5,-260.9311 552.5,-282.9311 690.5,-282.9311 690.5,-260.9311 552.5,-260.9311"/>
<text text-anchor="start" x="572.5" y="-268.0311" font-family="Helvetica,sans-Serif" font-size="11.00" fill="#000000">global_amount</text>
<polygon fill="none" stroke="#000000" points="690.5,-260.9311 690.5,-282.9311 773.5,-282.9311 773.5,-260.9311 690.5,-260.9311"/>
<text text-anchor="start" x="693.5" y="-268.6311" font-family="Helvetica,sans-Serif" font-size="11.00" fill="#000000">decimal[12,2]</text>
<polygon fill="none" stroke="#000000" points="552.5,-238.9311 552.5,-260.9311 690.5,-260.9311 690.5,-238.9311 552.5,-238.9311"/>
<image xlink:href="../../images/foreignKeys.png" width="11px" height="12px" preserveAspectRatio="xMinYMin meet" x="557.5" y="-255.931"/>
<text text-anchor="start" x="572.5" y="-246.0311" font-family="Helvetica,sans-Serif" font-size="11.00" fill="#000000">payment_type</text>
<polygon fill="none" stroke="#000000" points="690.5,-238.9311 690.5,-260.9311 773.5,-260.9311 773.5,-238.9311 690.5,-238.9311"/>
<text text-anchor="start" x="693.5" y="-246.6311" font-family="Helvetica,sans-Serif" font-size="11.00" fill="#000000">varchar[50]</text>
<polygon fill="none" stroke="#000000" points="552.5,-216.9311 552.5,-238.9311 690.5,-238.9311 690.5,-216.9311 552.5,-216.9311"/>
<text text-anchor="start" x="572.5" y="-224.0311" font-family="Helvetica,sans-Serif" font-size="11.00" fill="#000000">description</text>
<polygon fill="none" stroke="#000000" points="690.5,-216.9311 690.5,-238.9311 773.5,-238.9311 773.5,-216.9311 690.5,-216.9311"/>
<text text-anchor="start" x="693.5" y="-224.6311" font-family="Helvetica,sans-Serif" font-size="11.00" fill="#000000">text[65535]</text>
<polygon fill="none" stroke="#000000" points="552.5,-194.9311 552.5,-216.9311 690.5,-216.9311 690.5,-194.9311 552.5,-194.9311"/>
<image xlink:href="../../images/foreignKeys.png" width="11px" height="12px" preserveAspectRatio="xMinYMin meet" x="557.5" y="-211.931"/>
<text text-anchor="start" x="572.5" y="-202.0311" font-family="Helvetica,sans-Serif" font-size="11.00" fill="#000000">adjustment_code</text>
<polygon fill="none" stroke="#000000" points="690.5,-194.9311 690.5,-216.9311 773.5,-216.9311 773.5,-194.9311 690.5,-194.9311"/>
<text text-anchor="start" x="693.5" y="-202.6311" font-family="Helvetica,sans-Serif" font-size="11.00" fill="#000000">varchar[50]</text>
<polygon fill="none" stroke="#000000" points="552.5,-172.9311 552.5,-194.9311 690.5,-194.9311 690.5,-172.9311 552.5,-172.9311"/>
<text text-anchor="start" x="572.5" y="-180.0311" font-family="Helvetica,sans-Serif" font-size="11.00" fill="#000000">post_to_date</text>
<polygon fill="none" stroke="#000000" points="690.5,-172.9311 690.5,-194.9311 773.5,-194.9311 773.5,-172.9311 690.5,-172.9311"/>
<text text-anchor="start" x="693.5" y="-180.6311" font-family="Helvetica,sans-Serif" font-size="11.00" fill="#000000">date[10]</text>
<polygon fill="none" stroke="#000000" points="552.5,-150.9311 552.5,-172.9311 690.5,-172.9311 690.5,-150.9311 552.5,-150.9311"/>
<image xlink:href="../../images/foreignKeys.png" width="11px" height="12px" preserveAspectRatio="xMinYMin meet" x="557.5" y="-167.931"/>
<text text-anchor="start" x="572.5" y="-158.0311" font-family="Helvetica,sans-Serif" font-size="11.00" fill="#000000">patient_id</text>
<polygon fill="none" stroke="#000000" points="690.5,-150.9311 690.5,-172.9311 773.5,-172.9311 773.5,-150.9311 690.5,-150.9311"/>
<text text-anchor="start" x="693.5" y="-158.6311" font-family="Helvetica,sans-Serif" font-size="11.00" fill="#000000">bigint[19]</text>
<polygon fill="none" stroke="#000000" points="552.5,-128.9311 552.5,-150.9311 690.5,-150.9311 690.5,-128.9311 552.5,-128.9311"/>
<image xlink:href="../../images/foreignKeys.png" width="11px" height="12px" preserveAspectRatio="xMinYMin meet" x="557.5" y="-145.931"/>
<text text-anchor="start" x="572.5" y="-136.0311" font-family="Helvetica,sans-Serif" font-size="11.00" fill="#000000">payment_method</text>
<polygon fill="none" stroke="#000000" points="690.5,-128.9311 690.5,-150.9311 773.5,-150.9311 773.5,-128.9311 690.5,-128.9311"/>
<text text-anchor="start" x="693.5" y="-136.6311" font-family="Helvetica,sans-Serif" font-size="11.00" fill="#000000">varchar[25]</text>
<polygon fill="#ffffff" stroke="transparent" points="552.5,-109.9311 552.5,-128.9311 625.5,-128.9311 625.5,-109.9311 552.5,-109.9311"/>
<polygon fill="none" stroke="#000000" points="552.5,-109.9311 552.5,-128.9311 625.5,-128.9311 625.5,-109.9311 552.5,-109.9311"/>
<text text-anchor="start" x="555.5" y="-116.0311" font-family="Helvetica,sans-Serif" font-size="11.00" fill="#000000">&lt; 6</text>
<polygon fill="#ffffff" stroke="transparent" points="625.5,-109.9311 625.5,-128.9311 690.5,-128.9311 690.5,-109.9311 625.5,-109.9311"/>
<polygon fill="none" stroke="#000000" points="625.5,-109.9311 625.5,-128.9311 690.5,-128.9311 690.5,-109.9311 625.5,-109.9311"/>
<text text-anchor="start" x="681.3862" y="-116.0311" font-family="Helvetica,sans-Serif" font-size="11.00" fill="#000000"> &#160;</text>
<polygon fill="#ffffff" stroke="transparent" points="690.5,-109.9311 690.5,-128.9311 773.5,-128.9311 773.5,-109.9311 690.5,-109.9311"/>
<polygon fill="none" stroke="#000000" points="690.5,-109.9311 690.5,-128.9311 773.5,-128.9311 773.5,-109.9311 690.5,-109.9311"/>
<text text-anchor="start" x="754.9053" y="-116.0311" font-family="Helvetica,sans-Serif" font-size="11.00" fill="#000000">1 &gt;</text>
<polygon fill="none" stroke="#000000" stroke-width="2" points="551,-108.9311 551,-526.9311 774,-526.9311 774,-108.9311 551,-108.9311"/>
</a>
</g>
</g>
<!-- ar_activity&#45;&gt;ar_session -->
<g id="edge3" class="edge">
<title>ar_activity:w&#45;&gt;ar_session:e</title>
<path fill="none" stroke="#000000" d="M809.776,-491.9311C797.7815,-491.9311 790.3229,-491.9311 773.5,-491.9311"/>
<polygon fill="#000000" stroke="#000000" points="816.5,-491.9311 824.5,-495.5311 820.5,-491.9311 824.5,-491.9311 824.5,-491.9311 824.5,-491.9311 820.5,-491.9311 824.5,-488.3311 816.5,-491.9311 816.5,-491.9311"/>
<ellipse fill="none" stroke="#000000" cx="813.3" cy="-491.9311" rx="3.2" ry="3.2"/>
</g>
<!-- patient_data&#45;&gt;users -->
<g id="edge10" class="edge">
<title>patient_data:w&#45;&gt;users:e</title>
<path fill="none" stroke="#000000" d="M210.4863,-266.416C189.2228,-284.3487 214.1452,-349.9311 175.5,-349.9311"/>
<polygon fill="#000000" stroke="#000000" points="216.8807,-264.3696 225.5973,-265.3597 220.6903,-263.1503 224.5,-261.9311 224.5,-261.9311 224.5,-261.9311 220.6903,-263.1503 223.4027,-258.5024 216.8807,-264.3696 216.8807,-264.3696"/>
<ellipse fill="none" stroke="#000000" cx="213.833" cy="-265.345" rx="3.2" ry="3.2"/>
</g>
<!-- patient_data&#45;&gt;users -->
<g id="edge11" class="edge">
<title>patient_data:w&#45;&gt;users:e</title>
<path fill="none" stroke="#000000" d="M210.282,-243.846C182.6981,-263.4413 222.9572,-349.9311 175.5,-349.9311"/>
<polygon fill="#000000" stroke="#000000" points="216.7871,-242.0549 225.4557,-243.4019 220.6435,-240.993 224.5,-239.9311 224.5,-239.9311 224.5,-239.9311 220.6435,-240.993 223.5443,-236.4602 216.7871,-242.0549 216.7871,-242.0549"/>
<ellipse fill="none" stroke="#000000" cx="213.7019" cy="-242.9044" rx="3.2" ry="3.2"/>
</g>
<!-- patient_data&#45;&gt;users -->
<g id="edge13" class="edge">
<title>patient_data:w&#45;&gt;users:e</title>
<path fill="none" stroke="#000000" d="M209.9909,-349.9311C198.6774,-349.9311 191.4931,-349.9311 175.5,-349.9311"/>
<polygon fill="#000000" stroke="#000000" points="216.5,-349.9311 224.5,-353.5311 220.5,-349.9311 224.5,-349.9311 224.5,-349.9311 224.5,-349.9311 220.5,-349.9311 224.5,-346.3311 216.5,-349.9311 216.5,-349.9311"/>
<ellipse fill="none" stroke="#000000" cx="213.3" cy="-349.9311" rx="3.2" ry="3.2"/>
</g>
<!-- patient_data&#45;&gt;users -->
<g id="edge14" class="edge">
<title>patient_data:w&#45;&gt;users:e</title>
<path fill="none" stroke="#000000" d="M210.1297,-331.3686C198.5865,-337.5561 193.4041,-349.9311 175.5,-349.9311"/>
<polygon fill="#000000" stroke="#000000" points="216.7195,-329.7923 225.3375,-331.4323 220.6098,-328.8617 224.5,-327.9311 224.5,-327.9311 224.5,-327.9311 220.6098,-328.8617 223.6625,-324.4298 216.7195,-329.7923 216.7195,-329.7923"/>
<ellipse fill="none" stroke="#000000" cx="213.6073" cy="-330.5367" rx="3.2" ry="3.2"/>
</g>
<!-- patient_data&#45;&gt;users -->
<g id="edge17" class="edge">
<title>patient_data:w&#45;&gt;users:e</title>
<path fill="none" stroke="#000000" d="M210.3293,-221.194C174.9817,-241.5209 232.2116,-349.9311 175.5,-349.9311"/>
<polygon fill="#000000" stroke="#000000" points="216.704,-219.7262 225.3078,-221.4393 220.602,-218.8286 224.5,-217.9311 224.5,-217.9311 224.5,-217.9311 220.602,-218.8286 223.6922,-214.4229 216.704,-219.7262 216.704,-219.7262"/>
<ellipse fill="none" stroke="#000000" cx="213.5856" cy="-220.4443" rx="3.2" ry="3.2"/>
</g>
<!-- list_options -->
<g id="node5" class="node">
<title>list_options</title>
<g id="a_node5"><a xlink:href="../../tables/list_options.html" xlink:title="list_options" target="_top">
<polygon fill="#ffffff" stroke="transparent" points="25.5,-43.4311 25.5,-148.4311 157.5,-148.4311 157.5,-43.4311 25.5,-43.4311"/>
<polygon fill="#f5f5f5" stroke="transparent" points="25.5,-124.9311 25.5,-147.9311 157.5,-147.9311 157.5,-124.9311 25.5,-124.9311"/>
<polygon fill="none" stroke="#000000" points="25.5,-124.9311 25.5,-147.9311 157.5,-147.9311 157.5,-124.9311 25.5,-124.9311"/>
<text text-anchor="start" x="30.5" y="-133.5311" font-family="Helvetica,sans-Serif" font-weight="bold" font-size="11.00" fill="#000000">list_options</text>
<text text-anchor="start" x="122.5437" y="-133.0311" font-family="Helvetica,sans-Serif" font-size="11.00" fill="#000000">[table]</text>
<polygon fill="none" stroke="#000000" points="25.5,-102.9311 25.5,-124.9311 157.5,-124.9311 157.5,-102.9311 25.5,-102.9311"/>
<image xlink:href="../../images/primaryKeys.png" width="11px" height="12px" preserveAspectRatio="xMinYMin meet" x="30.5" y="-119.931"/>
<text text-anchor="start" x="45.5" y="-110.0311" font-family="Helvetica,sans-Serif" font-size="11.00" fill="#000000">list_id</text>
<polygon fill="none" stroke="#000000" points="25.5,-80.9311 25.5,-102.9311 157.5,-102.9311 157.5,-80.9311 25.5,-80.9311"/>
<image xlink:href="../../images/primaryKeys.png" width="11px" height="12px" preserveAspectRatio="xMinYMin meet" x="30.5" y="-97.9311"/>
<text text-anchor="start" x="45.5" y="-88.0311" font-family="Helvetica,sans-Serif" font-size="11.00" fill="#000000">option_id</text>
<polygon fill="none" stroke="#000000" points="25.5,-61.9311 25.5,-80.9311 157.5,-80.9311 157.5,-61.9311 25.5,-61.9311"/>
<text text-anchor="start" x="28.5" y="-68.0311" font-family="Helvetica,sans-Serif" font-size="11.00" fill="#000000">...</text>
<polygon fill="#ffffff" stroke="transparent" points="25.5,-42.9311 25.5,-61.9311 77.5,-61.9311 77.5,-42.9311 25.5,-42.9311"/>
<polygon fill="none" stroke="#000000" points="25.5,-42.9311 25.5,-61.9311 77.5,-61.9311 77.5,-42.9311 25.5,-42.9311"/>
<text text-anchor="start" x="28.5" y="-49.0311" font-family="Helvetica,sans-Serif" font-size="11.00" fill="#000000"> &#160;</text>
<polygon fill="#ffffff" stroke="transparent" points="77.5,-42.9311 77.5,-61.9311 109.5,-61.9311 109.5,-42.9311 77.5,-42.9311"/>
<polygon fill="none" stroke="#000000" points="77.5,-42.9311 77.5,-61.9311 109.5,-61.9311 109.5,-42.9311 77.5,-42.9311"/>
<text text-anchor="start" x="100.3862" y="-49.0311" font-family="Helvetica,sans-Serif" font-size="11.00" fill="#000000"> &#160;</text>
<polygon fill="#ffffff" stroke="transparent" points="109.5,-42.9311 109.5,-61.9311 157.5,-61.9311 157.5,-42.9311 109.5,-42.9311"/>
<polygon fill="none" stroke="#000000" points="109.5,-42.9311 109.5,-61.9311 157.5,-61.9311 157.5,-42.9311 109.5,-42.9311"/>
<text text-anchor="start" x="132.7904" y="-49.0311" font-family="Helvetica,sans-Serif" font-size="11.00" fill="#000000">98 &gt;</text>
</a>
</g>
</g>
<!-- patient_data&#45;&gt;list_options -->
<g id="edge12" class="edge">
<title>patient_data:w&#45;&gt;list_options:e</title>
<path fill="none" stroke="#000000" d="M210.1545,-304.081C138.6158,-283.1648 251.7133,-91.9311 157.5,-91.9311"/>
<polygon fill="#000000" stroke="#000000" points="216.5657,-304.9078 224.0395,-309.5015 220.5329,-305.4194 224.5,-305.9311 224.5,-305.9311 224.5,-305.9311 220.5329,-305.4194 224.9605,-302.3606 216.5657,-304.9078 216.5657,-304.9078"/>
<ellipse fill="none" stroke="#000000" cx="213.392" cy="-304.4985" rx="3.2" ry="3.2"/>
</g>
<!-- patient_data&#45;&gt;list_options -->
<g id="edge15" class="edge">
<title>patient_data:w&#45;&gt;list_options:e</title>
<path fill="none" stroke="#000000" d="M210.4031,-170.615C182.9188,-155.2741 198.8638,-91.9311 157.5,-91.9311"/>
<polygon fill="#000000" stroke="#000000" points="216.7126,-172.0991 223.6756,-177.4354 220.6063,-173.0151 224.5,-173.9311 224.5,-173.9311 224.5,-173.9311 220.6063,-173.0151 225.3244,-170.4267 216.7126,-172.0991 216.7126,-172.0991"/>
<ellipse fill="none" stroke="#000000" cx="213.5976" cy="-171.3664" rx="3.2" ry="3.2"/>
</g>
<!-- patient_data&#45;&gt;list_options -->
<g id="edge16" class="edge">
<title>patient_data:w&#45;&gt;list_options:e</title>
<path fill="none" stroke="#000000" d="M210.1417,-192.7045C177.4901,-175.1504 206.6847,-91.9311 157.5,-91.9311"/>
<polygon fill="#000000" stroke="#000000" points="216.6946,-194.177 223.7107,-199.4435 220.5973,-195.054 224.5,-195.9311 224.5,-195.9311 224.5,-195.9311 220.5973,-195.054 225.2893,-192.4186 216.6946,-194.177 216.6946,-194.177"/>
<ellipse fill="none" stroke="#000000" cx="213.5725" cy="-193.4754" rx="3.2" ry="3.2"/>
</g>
<!-- ar_session&#45;&gt;patient_data -->
<g id="edge5" class="edge">
<title>ar_session:w&#45;&gt;patient_data:e</title>
<path fill="none" stroke="#000000" d="M538.2088,-165.4507C505.9538,-185.4539 554.3005,-283.9311 501.5,-283.9311"/>
<polygon fill="#000000" stroke="#000000" points="544.7321,-163.8442 553.3609,-165.4266 548.6161,-162.8876 552.5,-161.9311 552.5,-161.9311 552.5,-161.9311 548.6161,-162.8876 551.6391,-158.4355 544.7321,-163.8442 544.7321,-163.8442"/>
<ellipse fill="none" stroke="#000000" cx="541.625" cy="-164.6094" rx="3.2" ry="3.2"/>
</g>
<!-- ar_session&#45;&gt;users -->
<g id="edge9" class="edge">
<title>ar_session:w&#45;&gt;users:e</title>
<path fill="none" stroke="#000000" d="M538.4026,-451.8543C520.5319,-465.3131 538.1154,-509.7255 509,-526.9311 452.945,-560.0564 266.9169,-567.5134 216,-526.9311 152.8928,-476.6327 256.1997,-349.9311 175.5,-349.9311"/>
<polygon fill="#000000" stroke="#000000" points="544.7929,-450.0759 553.4652,-451.3993 548.6464,-449.0035 552.5,-447.9311 552.5,-447.9311 552.5,-447.9311 548.6464,-449.0035 551.5348,-444.4628 544.7929,-450.0759 544.7929,-450.0759"/>
<ellipse fill="none" stroke="#000000" cx="541.71" cy="-450.9339" rx="3.2" ry="3.2"/>
</g>
<!-- ar_session&#45;&gt;list_options -->
<g id="edge4" class="edge">
<title>ar_session:w&#45;&gt;list_options:e</title>
<path fill="none" stroke="#000000" d="M538.267,-203.0976C508.9184,-188.2021 549.0415,-118.5953 509,-90.9311 444.7348,-46.5309 235.6114,-91.9311 157.5,-91.9311"/>
<polygon fill="#000000" stroke="#000000" points="544.654,-204.3691 551.7971,-209.4618 548.577,-205.1501 552.5,-205.9311 552.5,-205.9311 552.5,-205.9311 548.577,-205.1501 553.2029,-202.4003 544.654,-204.3691 544.654,-204.3691"/>
<ellipse fill="none" stroke="#000000" cx="541.5155" cy="-203.7443" rx="3.2" ry="3.2"/>
</g>
<!-- ar_session&#45;&gt;list_options -->
<g id="edge7" class="edge">
<title>ar_session:w&#45;&gt;list_options:e</title>
<path fill="none" stroke="#000000" d="M538.3701,-135.687C522.644,-122.7701 535.7383,-83.9068 509,-68.9311 395.3845,-5.2966 343.9447,-44.6829 216,-68.9311 188.5513,-74.1331 185.4373,-91.9311 157.5,-91.9311"/>
<polygon fill="#000000" stroke="#000000" points="544.8381,-137.6297 551.4644,-143.3789 548.6691,-138.7804 552.5,-139.9311 552.5,-139.9311 552.5,-139.9311 548.6691,-138.7804 553.5356,-136.4832 544.8381,-137.6297 544.8381,-137.6297"/>
<ellipse fill="none" stroke="#000000" cx="541.7734" cy="-136.7092" rx="3.2" ry="3.2"/>
</g>
<!-- ar_session&#45;&gt;list_options -->
<g id="edge8" class="edge">
<title>ar_session:w&#45;&gt;list_options:e</title>
<path fill="none" stroke="#000000" d="M538.0517,-247.5201C501.4012,-232.3912 554.0532,-150.0569 509,-114.9311 478.1335,-90.866 196.6391,-91.9311 157.5,-91.9311"/>
<polygon fill="#000000" stroke="#000000" points="544.6091,-248.6143 551.9075,-253.482 548.5546,-249.2727 552.5,-249.9311 552.5,-249.9311 552.5,-249.9311 548.5546,-249.2727 553.0925,-246.3801 544.6091,-248.6143 544.6091,-248.6143"/>
<ellipse fill="none" stroke="#000000" cx="541.4527" cy="-248.0876" rx="3.2" ry="3.2"/>
</g>
<!-- insurance_companies -->
<g id="node6" class="node">
<title>insurance_companies</title>
<g id="a_node6"><a xlink:href="../../tables/insurance_companies.html" xlink:title="insurance_companies" target="_top">
<polygon fill="#ffffff" stroke="transparent" points="268.5,-565.4311 268.5,-692.4311 456.5,-692.4311 456.5,-565.4311 268.5,-565.4311"/>
<polygon fill="#f5f5f5" stroke="transparent" points="268.5,-668.9311 268.5,-691.9311 456.5,-691.9311 456.5,-668.9311 268.5,-668.9311"/>
<polygon fill="none" stroke="#000000" points="268.5,-668.9311 268.5,-691.9311 456.5,-691.9311 456.5,-668.9311 268.5,-668.9311"/>
<text text-anchor="start" x="273.5" y="-677.5311" font-family="Helvetica,sans-Serif" font-weight="bold" font-size="11.00" fill="#000000">insurance_companies</text>
<text text-anchor="start" x="421.5437" y="-677.0311" font-family="Helvetica,sans-Serif" font-size="11.00" fill="#000000">[table]</text>
<polygon fill="none" stroke="#000000" points="268.5,-646.9311 268.5,-668.9311 456.5,-668.9311 456.5,-646.9311 268.5,-646.9311"/>
<image xlink:href="../../images/primaryKeys.png" width="11px" height="12px" preserveAspectRatio="xMinYMin meet" x="273.5" y="-663.931"/>
<text text-anchor="start" x="288.5" y="-654.0311" font-family="Helvetica,sans-Serif" font-size="11.00" fill="#000000">id</text>
<polygon fill="#ffffff" stroke="transparent" points="268.5,-624.9311 268.5,-646.9311 456.5,-646.9311 456.5,-624.9311 268.5,-624.9311"/>
<polygon fill="none" stroke="#000000" points="268.5,-624.9311 268.5,-646.9311 456.5,-646.9311 456.5,-624.9311 268.5,-624.9311"/>
<text text-anchor="start" x="288.5" y="-632.0311" font-family="Helvetica,sans-Serif" font-size="11.00" fill="#000000">uuid</text>
<polygon fill="none" stroke="#000000" points="268.5,-602.9311 268.5,-624.9311 456.5,-624.9311 456.5,-602.9311 268.5,-602.9311"/>
<image xlink:href="../../images/foreignKeys.png" width="11px" height="12px" preserveAspectRatio="xMinYMin meet" x="273.5" y="-619.931"/>
<text text-anchor="start" x="288.5" y="-610.0311" font-family="Helvetica,sans-Serif" font-size="11.00" fill="#000000">ins_type_code</text>
<polygon fill="none" stroke="#000000" points="268.5,-583.9311 268.5,-602.9311 456.5,-602.9311 456.5,-583.9311 268.5,-583.9311"/>
<text text-anchor="start" x="271.5" y="-590.0311" font-family="Helvetica,sans-Serif" font-size="11.00" fill="#000000">...</text>
<polygon fill="#ffffff" stroke="transparent" points="268.5,-564.9311 268.5,-583.9311 356.5,-583.9311 356.5,-564.9311 268.5,-564.9311"/>
<polygon fill="none" stroke="#000000" points="268.5,-564.9311 268.5,-583.9311 356.5,-583.9311 356.5,-564.9311 268.5,-564.9311"/>
<text text-anchor="start" x="271.5" y="-571.0311" font-family="Helvetica,sans-Serif" font-size="11.00" fill="#000000">&lt; 1</text>
<polygon fill="#ffffff" stroke="transparent" points="356.5,-564.9311 356.5,-583.9311 401.5,-583.9311 401.5,-564.9311 356.5,-564.9311"/>
<polygon fill="none" stroke="#000000" points="356.5,-564.9311 356.5,-583.9311 401.5,-583.9311 401.5,-564.9311 356.5,-564.9311"/>
<text text-anchor="start" x="392.3862" y="-571.0311" font-family="Helvetica,sans-Serif" font-size="11.00" fill="#000000"> &#160;</text>
<polygon fill="#ffffff" stroke="transparent" points="401.5,-564.9311 401.5,-583.9311 456.5,-583.9311 456.5,-564.9311 401.5,-564.9311"/>
<polygon fill="none" stroke="#000000" points="401.5,-564.9311 401.5,-583.9311 456.5,-583.9311 456.5,-564.9311 401.5,-564.9311"/>
<text text-anchor="start" x="437.9053" y="-571.0311" font-family="Helvetica,sans-Serif" font-size="11.00" fill="#000000">5 &gt;</text>
</a>
</g>
</g>
<!-- ar_session&#45;&gt;insurance_companies -->
<g id="edge6" class="edge">
<title>ar_session:w&#45;&gt;insurance_companies:e</title>
<path fill="none" stroke="#000000" d="M541.5734,-479.5125C516.1013,-517.8232 476.748,-657.9311 456.5,-657.9311"/>
<polygon fill="#000000" stroke="#000000" points="546.485,-475.2055 554.8735,-472.6378 549.4925,-472.5683 552.5,-469.9311 552.5,-469.9311 552.5,-469.9311 549.4925,-472.5683 550.1265,-467.2243 546.485,-475.2055 546.485,-475.2055"/>
<ellipse fill="none" stroke="#000000" cx="544.079" cy="-477.3153" rx="3.2" ry="3.2"/>
</g>
</g>
</svg>
