<?xml version="1.0" encoding="UTF-8" standalone="no"?>
<!DOCTYPE svg PUBLIC "-//W3C//DTD SVG 1.1//EN"
 "http://www.w3.org/Graphics/SVG/1.1/DTD/svg11.dtd">
<!-- Generated by graphviz version 2.40.1 (20161225.0304)
 -->
<!-- Title: oneDegreeRelationshipsDiagram Pages: 1 -->
<svg width="208pt" height="316pt"
 viewBox="0.00 0.00 208.00 316.20" xmlns="http://www.w3.org/2000/svg" xmlns:xlink="http://www.w3.org/1999/xlink">
<g id="graph0" class="graph" transform="scale(1 1) rotate(0) translate(4 312.2)">
<title>oneDegreeRelationshipsDiagram</title>
<polygon fill="#ffffff" stroke="transparent" points="-4,4 -4,-312.2 204,-312.2 204,4 -4,4"/>
<text text-anchor="middle" x="72.4936" y="-7.3" font-family="Helvetica,sans-Serif" font-size="11.00" fill="#000000">Generated by SchemaSpy</text>
<!-- care_teams -->
<g id="node1" class="node">
<title>care_teams</title>
<g id="a_node1"><a xlink:href="../../tables/care_teams.html" xlink:title="care_teams" target="_top">
<polygon fill="#ffffff" stroke="transparent" points="8,-38.2 8,-304.2 192,-304.2 192,-38.2 8,-38.2"/>
<polygon fill="#f5f5f5" stroke="transparent" points="10,-279.2 10,-302.2 190,-302.2 190,-279.2 10,-279.2"/>
<polygon fill="none" stroke="#000000" points="10,-279.2 10,-302.2 190,-302.2 190,-279.2 10,-279.2"/>
<text text-anchor="start" x="15" y="-287.8" font-family="Helvetica,sans-Serif" font-weight="bold" font-size="11.00" fill="#000000">care_teams</text>
<text text-anchor="start" x="155.0437" y="-287.3" font-family="Helvetica,sans-Serif" font-size="11.00" fill="#000000">[table]</text>
<polygon fill="none" stroke="#000000" points="10,-257.2 10,-279.2 123,-279.2 123,-257.2 10,-257.2"/>
<image xlink:href="../../images/primaryKeys.png" width="11px" height="12px" preserveAspectRatio="xMinYMin meet" x="15" y="-274.2"/>
<text text-anchor="start" x="30" y="-264.3" font-family="Helvetica,sans-Serif" font-size="11.00" fill="#000000">id</text>
<polygon fill="none" stroke="#000000" points="123,-257.2 123,-279.2 190,-279.2 190,-257.2 123,-257.2"/>
<text text-anchor="start" x="126" y="-264.9" font-family="Helvetica,sans-Serif" font-size="11.00" fill="#000000">int[10]</text>
<polygon fill="#ffffff" stroke="transparent" points="10,-235.2 10,-257.2 123,-257.2 123,-235.2 10,-235.2"/>
<polygon fill="none" stroke="#000000" points="10,-235.2 10,-257.2 123,-257.2 123,-235.2 10,-235.2"/>
<text text-anchor="start" x="30" y="-242.3" font-family="Helvetica,sans-Serif" font-size="11.00" fill="#000000">uuid</text>
<polygon fill="none" stroke="#000000" points="123,-235.2 123,-257.2 190,-257.2 190,-235.2 123,-235.2"/>
<text text-anchor="start" x="126" y="-242.9" font-family="Helvetica,sans-Serif" font-size="11.00" fill="#000000">binary[16]</text>
<polygon fill="none" stroke="#000000" points="10,-213.2 10,-235.2 123,-235.2 123,-213.2 10,-213.2"/>
<text text-anchor="start" x="30" y="-220.3" font-family="Helvetica,sans-Serif" font-size="11.00" fill="#000000">pid</text>
<polygon fill="none" stroke="#000000" points="123,-213.2 123,-235.2 190,-235.2 190,-213.2 123,-213.2"/>
<text text-anchor="start" x="126" y="-220.9" font-family="Helvetica,sans-Serif" font-size="11.00" fill="#000000">int[10]</text>
<polygon fill="none" stroke="#000000" points="10,-191.2 10,-213.2 123,-213.2 123,-191.2 10,-191.2"/>
<text text-anchor="start" x="30" y="-198.3" font-family="Helvetica,sans-Serif" font-size="11.00" fill="#000000">status</text>
<polygon fill="none" stroke="#000000" points="123,-191.2 123,-213.2 190,-213.2 190,-191.2 123,-191.2"/>
<text text-anchor="start" x="125.9365" y="-198.9" font-family="Helvetica,sans-Serif" font-size="11.00" fill="#000000">varchar[100]</text>
<polygon fill="none" stroke="#000000" points="10,-169.2 10,-191.2 123,-191.2 123,-169.2 10,-169.2"/>
<text text-anchor="start" x="30" y="-176.3" font-family="Helvetica,sans-Serif" font-size="11.00" fill="#000000">team_name</text>
<polygon fill="none" stroke="#000000" points="123,-169.2 123,-191.2 190,-191.2 190,-169.2 123,-169.2"/>
<text text-anchor="start" x="125.9365" y="-176.9" font-family="Helvetica,sans-Serif" font-size="11.00" fill="#000000">varchar[255]</text>
<polygon fill="none" stroke="#000000" points="10,-147.2 10,-169.2 123,-169.2 123,-147.2 10,-147.2"/>
<text text-anchor="start" x="30" y="-154.3" font-family="Helvetica,sans-Serif" font-size="11.00" fill="#000000">note</text>
<polygon fill="none" stroke="#000000" points="123,-147.2 123,-169.2 190,-169.2 190,-147.2 123,-147.2"/>
<text text-anchor="start" x="126" y="-154.9" font-family="Helvetica,sans-Serif" font-size="11.00" fill="#000000">text[65535]</text>
<polygon fill="none" stroke="#000000" points="10,-125.2 10,-147.2 123,-147.2 123,-125.2 10,-125.2"/>
<text text-anchor="start" x="30" y="-132.3" font-family="Helvetica,sans-Serif" font-size="11.00" fill="#000000">date_created</text>
<polygon fill="none" stroke="#000000" points="123,-125.2 123,-147.2 190,-147.2 190,-125.2 123,-125.2"/>
<text text-anchor="start" x="126" y="-132.9" font-family="Helvetica,sans-Serif" font-size="11.00" fill="#000000">datetime[19]</text>
<polygon fill="none" stroke="#000000" points="10,-103.2 10,-125.2 123,-125.2 123,-103.2 10,-103.2"/>
<text text-anchor="start" x="30" y="-110.3" font-family="Helvetica,sans-Serif" font-size="11.00" fill="#000000">date_updated</text>
<polygon fill="none" stroke="#000000" points="123,-103.2 123,-125.2 190,-125.2 190,-103.2 123,-103.2"/>
<text text-anchor="start" x="126" y="-110.9" font-family="Helvetica,sans-Serif" font-size="11.00" fill="#000000">datetime[19]</text>
<polygon fill="none" stroke="#000000" points="10,-81.2 10,-103.2 123,-103.2 123,-81.2 10,-81.2"/>
<text text-anchor="start" x="30" y="-88.3" font-family="Helvetica,sans-Serif" font-size="11.00" fill="#000000">created_by</text>
<polygon fill="none" stroke="#000000" points="123,-81.2 123,-103.2 190,-103.2 190,-81.2 123,-81.2"/>
<text text-anchor="start" x="126" y="-88.9" font-family="Helvetica,sans-Serif" font-size="11.00" fill="#000000">bigint[19]</text>
<polygon fill="none" stroke="#000000" points="10,-59.2 10,-81.2 123,-81.2 123,-59.2 10,-59.2"/>
<text text-anchor="start" x="30" y="-66.3" font-family="Helvetica,sans-Serif" font-size="11.00" fill="#000000">updated_by</text>
<polygon fill="none" stroke="#000000" points="123,-59.2 123,-81.2 190,-81.2 190,-59.2 123,-59.2"/>
<text text-anchor="start" x="126" y="-66.9" font-family="Helvetica,sans-Serif" font-size="11.00" fill="#000000">bigint[19]</text>
<polygon fill="#ffffff" stroke="transparent" points="10,-40.2 10,-59.2 71,-59.2 71,-40.2 10,-40.2"/>
<polygon fill="none" stroke="#000000" points="10,-40.2 10,-59.2 71,-59.2 71,-40.2 10,-40.2"/>
<text text-anchor="start" x="13" y="-46.3" font-family="Helvetica,sans-Serif" font-size="11.00" fill="#000000">&lt; 0</text>
<polygon fill="#ffffff" stroke="transparent" points="71,-40.2 71,-59.2 123,-59.2 123,-40.2 71,-40.2"/>
<polygon fill="none" stroke="#000000" points="71,-40.2 71,-59.2 123,-59.2 123,-40.2 71,-40.2"/>
<text text-anchor="start" x="113.8862" y="-46.3" font-family="Helvetica,sans-Serif" font-size="11.00" fill="#000000"> &#160;</text>
<polygon fill="#ffffff" stroke="transparent" points="123,-40.2 123,-59.2 190,-59.2 190,-40.2 123,-40.2"/>
<polygon fill="none" stroke="#000000" points="123,-40.2 123,-59.2 190,-59.2 190,-40.2 123,-40.2"/>
<text text-anchor="start" x="171.4053" y="-46.3" font-family="Helvetica,sans-Serif" font-size="11.00" fill="#000000">0 &gt;</text>
<polygon fill="none" stroke="#000000" stroke-width="2" points="9,-39.2 9,-303.2 191,-303.2 191,-39.2 9,-39.2"/>
</a>
</g>
</g>
</g>
</svg>
