<?xml version="1.0" encoding="UTF-8" standalone="no"?>
<!DOCTYPE svg PUBLIC "-//W3C//DTD SVG 1.1//EN"
 "http://www.w3.org/Graphics/SVG/1.1/DTD/svg11.dtd">
<!-- Generated by graphviz version 2.40.1 (20161225.0304)
 -->
<!-- Title: oneDegreeRelationshipsDiagram Pages: 1 -->
<svg width="1018pt" height="694pt"
 viewBox="0.00 0.00 1018.00 693.91" xmlns="http://www.w3.org/2000/svg" xmlns:xlink="http://www.w3.org/1999/xlink">
<g id="graph0" class="graph" transform="scale(1 1) rotate(0) translate(4 689.9116)">
<title>oneDegreeRelationshipsDiagram</title>
<polygon fill="#ffffff" stroke="transparent" points="-4,4 -4,-689.9116 1014,-689.9116 1014,4 -4,4"/>
<text text-anchor="middle" x="72.4936" y="-7.3" font-family="Helvetica,sans-Serif" font-size="11.00" fill="#000000">Generated by SchemaSpy</text>
<!-- care_team_member -->
<g id="node1" class="node">
<title>care_team_member</title>
<g id="a_node1"><a xlink:href="../../tables/care_team_member.html" xlink:title="care_team_member" target="_top">
<polygon fill="#ffffff" stroke="transparent" points="784,-459.9116 784,-681.9116 1002,-681.9116 1002,-459.9116 784,-459.9116"/>
<polygon fill="#f5f5f5" stroke="transparent" points="786,-656.9116 786,-679.9116 1000,-679.9116 1000,-656.9116 786,-656.9116"/>
<polygon fill="none" stroke="#000000" points="786,-656.9116 786,-679.9116 1000,-679.9116 1000,-656.9116 786,-656.9116"/>
<text text-anchor="start" x="791" y="-665.5116" font-family="Helvetica,sans-Serif" font-weight="bold" font-size="11.00" fill="#000000">care_team_member</text>
<text text-anchor="start" x="965.0437" y="-665.0116" font-family="Helvetica,sans-Serif" font-size="11.00" fill="#000000">[table]</text>
<polygon fill="none" stroke="#000000" points="786,-634.9116 786,-656.9116 938,-656.9116 938,-634.9116 786,-634.9116"/>
<image xlink:href="../../images/foreignKeys.png" width="11px" height="12px" preserveAspectRatio="xMinYMin meet" x="791" y="-651.912"/>
<text text-anchor="start" x="806" y="-642.0116" font-family="Helvetica,sans-Serif" font-size="11.00" fill="#000000">care_team_id</text>
<polygon fill="none" stroke="#000000" points="938,-634.9116 938,-656.9116 1000,-656.9116 1000,-634.9116 938,-634.9116"/>
<text text-anchor="start" x="940.878" y="-642.6116" font-family="Helvetica,sans-Serif" font-size="11.00" fill="#000000">unknown[0]</text>
<polygon fill="none" stroke="#000000" points="786,-612.9116 786,-634.9116 938,-634.9116 938,-612.9116 786,-612.9116"/>
<image xlink:href="../../images/foreignKeys.png" width="11px" height="12px" preserveAspectRatio="xMinYMin meet" x="791" y="-629.912"/>
<text text-anchor="start" x="806" y="-620.0116" font-family="Helvetica,sans-Serif" font-size="11.00" fill="#000000">contact_id</text>
<polygon fill="none" stroke="#000000" points="938,-612.9116 938,-634.9116 1000,-634.9116 1000,-612.9116 938,-612.9116"/>
<text text-anchor="start" x="940.878" y="-620.6116" font-family="Helvetica,sans-Serif" font-size="11.00" fill="#000000">unknown[0]</text>
<polygon fill="none" stroke="#000000" points="786,-590.9116 786,-612.9116 938,-612.9116 938,-590.9116 786,-590.9116"/>
<image xlink:href="../../images/foreignKeys.png" width="11px" height="12px" preserveAspectRatio="xMinYMin meet" x="791" y="-607.912"/>
<text text-anchor="start" x="806" y="-598.0116" font-family="Helvetica,sans-Serif" font-size="11.00" fill="#000000">created_by</text>
<polygon fill="none" stroke="#000000" points="938,-590.9116 938,-612.9116 1000,-612.9116 1000,-590.9116 938,-590.9116"/>
<text text-anchor="start" x="940.878" y="-598.6116" font-family="Helvetica,sans-Serif" font-size="11.00" fill="#000000">unknown[0]</text>
<polygon fill="none" stroke="#000000" points="786,-568.9116 786,-590.9116 938,-590.9116 938,-568.9116 786,-568.9116"/>
<image xlink:href="../../images/foreignKeys.png" width="11px" height="12px" preserveAspectRatio="xMinYMin meet" x="791" y="-585.912"/>
<text text-anchor="start" x="806" y="-576.0116" font-family="Helvetica,sans-Serif" font-size="11.00" fill="#000000">facility_id</text>
<polygon fill="none" stroke="#000000" points="938,-568.9116 938,-590.9116 1000,-590.9116 1000,-568.9116 938,-568.9116"/>
<text text-anchor="start" x="940.878" y="-576.6116" font-family="Helvetica,sans-Serif" font-size="11.00" fill="#000000">unknown[0]</text>
<polygon fill="none" stroke="#000000" points="786,-546.9116 786,-568.9116 938,-568.9116 938,-546.9116 786,-546.9116"/>
<image xlink:href="../../images/foreignKeys.png" width="11px" height="12px" preserveAspectRatio="xMinYMin meet" x="791" y="-563.912"/>
<text text-anchor="start" x="806" y="-554.0116" font-family="Helvetica,sans-Serif" font-size="11.00" fill="#000000">role</text>
<polygon fill="none" stroke="#000000" points="938,-546.9116 938,-568.9116 1000,-568.9116 1000,-546.9116 938,-546.9116"/>
<text text-anchor="start" x="940.878" y="-554.6116" font-family="Helvetica,sans-Serif" font-size="11.00" fill="#000000">unknown[0]</text>
<polygon fill="none" stroke="#000000" points="786,-524.9116 786,-546.9116 938,-546.9116 938,-524.9116 786,-524.9116"/>
<image xlink:href="../../images/foreignKeys.png" width="11px" height="12px" preserveAspectRatio="xMinYMin meet" x="791" y="-541.912"/>
<text text-anchor="start" x="806" y="-532.0116" font-family="Helvetica,sans-Serif" font-size="11.00" fill="#000000">status</text>
<polygon fill="none" stroke="#000000" points="938,-524.9116 938,-546.9116 1000,-546.9116 1000,-524.9116 938,-524.9116"/>
<text text-anchor="start" x="940.878" y="-532.6116" font-family="Helvetica,sans-Serif" font-size="11.00" fill="#000000">unknown[0]</text>
<polygon fill="none" stroke="#000000" points="786,-502.9116 786,-524.9116 938,-524.9116 938,-502.9116 786,-502.9116"/>
<image xlink:href="../../images/foreignKeys.png" width="11px" height="12px" preserveAspectRatio="xMinYMin meet" x="791" y="-519.912"/>
<text text-anchor="start" x="806" y="-510.0116" font-family="Helvetica,sans-Serif" font-size="11.00" fill="#000000">updated_by</text>
<polygon fill="none" stroke="#000000" points="938,-502.9116 938,-524.9116 1000,-524.9116 1000,-502.9116 938,-502.9116"/>
<text text-anchor="start" x="940.878" y="-510.6116" font-family="Helvetica,sans-Serif" font-size="11.00" fill="#000000">unknown[0]</text>
<polygon fill="none" stroke="#000000" points="786,-480.9116 786,-502.9116 938,-502.9116 938,-480.9116 786,-480.9116"/>
<image xlink:href="../../images/foreignKeys.png" width="11px" height="12px" preserveAspectRatio="xMinYMin meet" x="791" y="-497.912"/>
<text text-anchor="start" x="806" y="-488.0116" font-family="Helvetica,sans-Serif" font-size="11.00" fill="#000000">user_id</text>
<polygon fill="none" stroke="#000000" points="938,-480.9116 938,-502.9116 1000,-502.9116 1000,-480.9116 938,-480.9116"/>
<text text-anchor="start" x="940.878" y="-488.6116" font-family="Helvetica,sans-Serif" font-size="11.00" fill="#000000">unknown[0]</text>
<polygon fill="#ffffff" stroke="transparent" points="786,-461.9116 786,-480.9116 866,-480.9116 866,-461.9116 786,-461.9116"/>
<polygon fill="none" stroke="#000000" points="786,-461.9116 786,-480.9116 866,-480.9116 866,-461.9116 786,-461.9116"/>
<text text-anchor="start" x="789" y="-468.0116" font-family="Helvetica,sans-Serif" font-size="11.00" fill="#000000">&lt; 8</text>
<polygon fill="#ffffff" stroke="transparent" points="866,-461.9116 866,-480.9116 938,-480.9116 938,-461.9116 866,-461.9116"/>
<polygon fill="none" stroke="#000000" points="866,-461.9116 866,-480.9116 938,-480.9116 938,-461.9116 866,-461.9116"/>
<text text-anchor="start" x="928.8862" y="-468.0116" font-family="Helvetica,sans-Serif" font-size="11.00" fill="#000000"> &#160;</text>
<polygon fill="#ffffff" stroke="transparent" points="938,-461.9116 938,-480.9116 1000,-480.9116 1000,-461.9116 938,-461.9116"/>
<polygon fill="none" stroke="#000000" points="938,-461.9116 938,-480.9116 1000,-480.9116 1000,-461.9116 938,-461.9116"/>
<text text-anchor="start" x="981.4053" y="-468.0116" font-family="Helvetica,sans-Serif" font-size="11.00" fill="#000000">0 &gt;</text>
<polygon fill="none" stroke="#000000" stroke-width="2" points="785,-460.9116 785,-680.9116 1001,-680.9116 1001,-460.9116 785,-460.9116"/>
</a>
</g>
</g>
<!-- patient_data -->
<g id="node2" class="node">
<title>patient_data</title>
<g id="a_node2"><a xlink:href="../../tables/patient_data.html" xlink:title="patient_data" target="_top">
<polygon fill="#ffffff" stroke="transparent" points="458,-130.4116 458,-521.4116 735,-521.4116 735,-130.4116 458,-130.4116"/>
<polygon fill="#f5f5f5" stroke="transparent" points="458.5,-497.9116 458.5,-520.9116 735.5,-520.9116 735.5,-497.9116 458.5,-497.9116"/>
<polygon fill="none" stroke="#000000" points="458.5,-497.9116 458.5,-520.9116 735.5,-520.9116 735.5,-497.9116 458.5,-497.9116"/>
<text text-anchor="start" x="463.5" y="-506.5116" font-family="Helvetica,sans-Serif" font-weight="bold" font-size="11.00" fill="#000000">patient_data</text>
<text text-anchor="start" x="700.5437" y="-506.0116" font-family="Helvetica,sans-Serif" font-size="11.00" fill="#000000">[table]</text>
<polygon fill="none" stroke="#000000" points="458.5,-475.9116 458.5,-497.9116 735.5,-497.9116 735.5,-475.9116 458.5,-475.9116"/>
<image xlink:href="../../images/primaryKeys.png" width="11px" height="12px" preserveAspectRatio="xMinYMin meet" x="463.5" y="-492.912"/>
<text text-anchor="start" x="478.5" y="-483.0116" font-family="Helvetica,sans-Serif" font-size="11.00" fill="#000000">id</text>
<polygon fill="#ffffff" stroke="transparent" points="458.5,-453.9116 458.5,-475.9116 735.5,-475.9116 735.5,-453.9116 458.5,-453.9116"/>
<polygon fill="none" stroke="#000000" points="458.5,-453.9116 458.5,-475.9116 735.5,-475.9116 735.5,-453.9116 458.5,-453.9116"/>
<text text-anchor="start" x="478.5" y="-461.0116" font-family="Helvetica,sans-Serif" font-size="11.00" fill="#000000">uuid</text>
<polygon fill="#ffffff" stroke="transparent" points="458.5,-431.9116 458.5,-453.9116 735.5,-453.9116 735.5,-431.9116 458.5,-431.9116"/>
<polygon fill="none" stroke="#000000" points="458.5,-431.9116 458.5,-453.9116 735.5,-453.9116 735.5,-431.9116 458.5,-431.9116"/>
<text text-anchor="start" x="478.5" y="-439.0116" font-family="Helvetica,sans-Serif" font-size="11.00" fill="#000000">fname</text>
<polygon fill="#ffffff" stroke="transparent" points="458.5,-409.9116 458.5,-431.9116 735.5,-431.9116 735.5,-409.9116 458.5,-409.9116"/>
<polygon fill="none" stroke="#000000" points="458.5,-409.9116 458.5,-431.9116 735.5,-431.9116 735.5,-409.9116 458.5,-409.9116"/>
<text text-anchor="start" x="478.5" y="-417.0116" font-family="Helvetica,sans-Serif" font-size="11.00" fill="#000000">lname</text>
<polygon fill="#ffffff" stroke="transparent" points="458.5,-387.9116 458.5,-409.9116 735.5,-409.9116 735.5,-387.9116 458.5,-387.9116"/>
<polygon fill="none" stroke="#000000" points="458.5,-387.9116 458.5,-409.9116 735.5,-409.9116 735.5,-387.9116 458.5,-387.9116"/>
<text text-anchor="start" x="478.5" y="-395.0116" font-family="Helvetica,sans-Serif" font-size="11.00" fill="#000000">DOB</text>
<polygon fill="none" stroke="#000000" points="458.5,-365.9116 458.5,-387.9116 735.5,-387.9116 735.5,-365.9116 458.5,-365.9116"/>
<image xlink:href="../../images/foreignKeys.png" width="11px" height="12px" preserveAspectRatio="xMinYMin meet" x="463.5" y="-382.912"/>
<text text-anchor="start" x="478.5" y="-373.0116" font-family="Helvetica,sans-Serif" font-size="11.00" fill="#000000">pharmacy_id</text>
<polygon fill="none" stroke="#000000" points="458.5,-343.9116 458.5,-365.9116 735.5,-365.9116 735.5,-343.9116 458.5,-343.9116"/>
<image xlink:href="../../images/foreignKeys.png" width="11px" height="12px" preserveAspectRatio="xMinYMin meet" x="463.5" y="-360.912"/>
<text text-anchor="start" x="478.5" y="-351.0116" font-family="Helvetica,sans-Serif" font-size="11.00" fill="#000000">providerID</text>
<polygon fill="none" stroke="#000000" points="458.5,-321.9116 458.5,-343.9116 735.5,-343.9116 735.5,-321.9116 458.5,-321.9116"/>
<image xlink:href="../../images/foreignKeys.png" width="11px" height="12px" preserveAspectRatio="xMinYMin meet" x="463.5" y="-338.912"/>
<text text-anchor="start" x="478.5" y="-329.0116" font-family="Helvetica,sans-Serif" font-size="11.00" fill="#000000">ref_providerID</text>
<polygon fill="none" stroke="#000000" points="458.5,-299.9116 458.5,-321.9116 735.5,-321.9116 735.5,-299.9116 458.5,-299.9116"/>
<image xlink:href="../../images/foreignKeys.png" width="11px" height="12px" preserveAspectRatio="xMinYMin meet" x="463.5" y="-316.912"/>
<text text-anchor="start" x="478.5" y="-307.0116" font-family="Helvetica,sans-Serif" font-size="11.00" fill="#000000">interpreter_needed</text>
<polygon fill="none" stroke="#000000" points="458.5,-277.9116 458.5,-299.9116 735.5,-299.9116 735.5,-277.9116 458.5,-277.9116"/>
<image xlink:href="../../images/primaryKeys.png" width="11px" height="12px" preserveAspectRatio="xMinYMin meet" x="463.5" y="-294.912"/>
<text text-anchor="start" x="478.5" y="-285.0116" font-family="Helvetica,sans-Serif" font-size="11.00" fill="#000000">pid</text>
<polygon fill="none" stroke="#000000" points="458.5,-255.9116 458.5,-277.9116 735.5,-277.9116 735.5,-255.9116 458.5,-255.9116"/>
<image xlink:href="../../images/foreignKeys.png" width="11px" height="12px" preserveAspectRatio="xMinYMin meet" x="463.5" y="-272.912"/>
<text text-anchor="start" x="478.5" y="-263.0116" font-family="Helvetica,sans-Serif" font-size="11.00" fill="#000000">advance_directive_user_authenticator</text>
<polygon fill="none" stroke="#000000" points="458.5,-233.9116 458.5,-255.9116 735.5,-255.9116 735.5,-233.9116 458.5,-233.9116"/>
<image xlink:href="../../images/foreignKeys.png" width="11px" height="12px" preserveAspectRatio="xMinYMin meet" x="463.5" y="-250.912"/>
<text text-anchor="start" x="478.5" y="-241.0116" font-family="Helvetica,sans-Serif" font-size="11.00" fill="#000000">created_by</text>
<polygon fill="none" stroke="#000000" points="458.5,-211.9116 458.5,-233.9116 735.5,-233.9116 735.5,-211.9116 458.5,-211.9116"/>
<image xlink:href="../../images/foreignKeys.png" width="11px" height="12px" preserveAspectRatio="xMinYMin meet" x="463.5" y="-228.912"/>
<text text-anchor="start" x="478.5" y="-219.0116" font-family="Helvetica,sans-Serif" font-size="11.00" fill="#000000">updated_by</text>
<polygon fill="none" stroke="#000000" points="458.5,-189.9116 458.5,-211.9116 735.5,-211.9116 735.5,-189.9116 458.5,-189.9116"/>
<image xlink:href="../../images/foreignKeys.png" width="11px" height="12px" preserveAspectRatio="xMinYMin meet" x="463.5" y="-206.912"/>
<text text-anchor="start" x="478.5" y="-197.0116" font-family="Helvetica,sans-Serif" font-size="11.00" fill="#000000">tribal_affiliations</text>
<polygon fill="none" stroke="#000000" points="458.5,-167.9116 458.5,-189.9116 735.5,-189.9116 735.5,-167.9116 458.5,-167.9116"/>
<image xlink:href="../../images/foreignKeys.png" width="11px" height="12px" preserveAspectRatio="xMinYMin meet" x="463.5" y="-184.912"/>
<text text-anchor="start" x="478.5" y="-175.0116" font-family="Helvetica,sans-Serif" font-size="11.00" fill="#000000">sex_identified</text>
<polygon fill="none" stroke="#000000" points="458.5,-148.9116 458.5,-167.9116 735.5,-167.9116 735.5,-148.9116 458.5,-148.9116"/>
<text text-anchor="start" x="461.5" y="-155.0116" font-family="Helvetica,sans-Serif" font-size="11.00" fill="#000000">...</text>
<polygon fill="#ffffff" stroke="transparent" points="458.5,-129.9116 458.5,-148.9116 587.5,-148.9116 587.5,-129.9116 458.5,-129.9116"/>
<polygon fill="none" stroke="#000000" points="458.5,-129.9116 458.5,-148.9116 587.5,-148.9116 587.5,-129.9116 458.5,-129.9116"/>
<text text-anchor="start" x="461.5" y="-136.0116" font-family="Helvetica,sans-Serif" font-size="11.00" fill="#000000">&lt; 9</text>
<polygon fill="#ffffff" stroke="transparent" points="587.5,-129.9116 587.5,-148.9116 653.5,-148.9116 653.5,-129.9116 587.5,-129.9116"/>
<polygon fill="none" stroke="#000000" points="587.5,-129.9116 587.5,-148.9116 653.5,-148.9116 653.5,-129.9116 587.5,-129.9116"/>
<text text-anchor="start" x="644.3862" y="-136.0116" font-family="Helvetica,sans-Serif" font-size="11.00" fill="#000000"> &#160;</text>
<polygon fill="#ffffff" stroke="transparent" points="653.5,-129.9116 653.5,-148.9116 735.5,-148.9116 735.5,-129.9116 653.5,-129.9116"/>
<polygon fill="none" stroke="#000000" points="653.5,-129.9116 653.5,-148.9116 735.5,-148.9116 735.5,-129.9116 653.5,-129.9116"/>
<text text-anchor="start" x="710.7904" y="-136.0116" font-family="Helvetica,sans-Serif" font-size="11.00" fill="#000000">95 &gt;</text>
</a>
</g>
</g>
<!-- care_team_member&#45;&gt;patient_data -->
<g id="edge1" class="edge">
<title>care_team_member:w&#45;&gt;patient_data:e</title>
<path fill="none" stroke="#000000" d="M772.109,-641.1349C719.994,-598.7712 810.146,-288.9116 735.5,-288.9116"/>
<polygon fill="#000000" stroke="#000000" points="778.4348,-643.3101 784.8293,-649.3159 782.2174,-644.6108 786,-645.9116 786,-645.9116 786,-645.9116 782.2174,-644.6108 787.1707,-642.5072 778.4348,-643.3101 778.4348,-643.3101"/>
<ellipse fill="none" stroke="#000000" cx="775.4087" cy="-642.2695" rx="3.2" ry="3.2"/>
</g>
<!-- users -->
<g id="node3" class="node">
<title>users</title>
<g id="a_node3"><a xlink:href="../../tables/users.html" xlink:title="users" target="_top">
<polygon fill="#ffffff" stroke="transparent" points="242,-311.4116 242,-526.4116 409,-526.4116 409,-311.4116 242,-311.4116"/>
<polygon fill="#f5f5f5" stroke="transparent" points="242.5,-502.9116 242.5,-525.9116 409.5,-525.9116 409.5,-502.9116 242.5,-502.9116"/>
<polygon fill="none" stroke="#000000" points="242.5,-502.9116 242.5,-525.9116 409.5,-525.9116 409.5,-502.9116 242.5,-502.9116"/>
<text text-anchor="start" x="247.5" y="-511.5116" font-family="Helvetica,sans-Serif" font-weight="bold" font-size="11.00" fill="#000000">users</text>
<text text-anchor="start" x="374.5437" y="-511.0116" font-family="Helvetica,sans-Serif" font-size="11.00" fill="#000000">[table]</text>
<polygon fill="none" stroke="#000000" points="242.5,-480.9116 242.5,-502.9116 409.5,-502.9116 409.5,-480.9116 242.5,-480.9116"/>
<image xlink:href="../../images/primaryKeys.png" width="11px" height="12px" preserveAspectRatio="xMinYMin meet" x="247.5" y="-497.912"/>
<text text-anchor="start" x="262.5" y="-488.0116" font-family="Helvetica,sans-Serif" font-size="11.00" fill="#000000">id</text>
<polygon fill="#ffffff" stroke="transparent" points="242.5,-458.9116 242.5,-480.9116 409.5,-480.9116 409.5,-458.9116 242.5,-458.9116"/>
<polygon fill="none" stroke="#000000" points="242.5,-458.9116 242.5,-480.9116 409.5,-480.9116 409.5,-458.9116 242.5,-458.9116"/>
<text text-anchor="start" x="262.5" y="-466.0116" font-family="Helvetica,sans-Serif" font-size="11.00" fill="#000000">uuid</text>
<polygon fill="none" stroke="#000000" points="242.5,-436.9116 242.5,-458.9116 409.5,-458.9116 409.5,-436.9116 242.5,-436.9116"/>
<image xlink:href="../../images/primaryKeys.png" width="11px" height="12px" preserveAspectRatio="xMinYMin meet" x="247.5" y="-453.912"/>
<text text-anchor="start" x="262.5" y="-444.0116" font-family="Helvetica,sans-Serif" font-size="11.00" fill="#000000">username</text>
<polygon fill="none" stroke="#000000" points="242.5,-414.9116 242.5,-436.9116 409.5,-436.9116 409.5,-414.9116 242.5,-414.9116"/>
<image xlink:href="../../images/foreignKeys.png" width="11px" height="12px" preserveAspectRatio="xMinYMin meet" x="247.5" y="-431.912"/>
<text text-anchor="start" x="262.5" y="-422.0116" font-family="Helvetica,sans-Serif" font-size="11.00" fill="#000000">facility_id</text>
<polygon fill="#ffffff" stroke="transparent" points="242.5,-392.9116 242.5,-414.9116 409.5,-414.9116 409.5,-392.9116 242.5,-392.9116"/>
<polygon fill="none" stroke="#000000" points="242.5,-392.9116 242.5,-414.9116 409.5,-414.9116 409.5,-392.9116 242.5,-392.9116"/>
<text text-anchor="start" x="262.5" y="-400.0116" font-family="Helvetica,sans-Serif" font-size="11.00" fill="#000000">google_signin_email</text>
<polygon fill="#ffffff" stroke="transparent" points="242.5,-370.9116 242.5,-392.9116 409.5,-392.9116 409.5,-370.9116 242.5,-370.9116"/>
<polygon fill="none" stroke="#000000" points="242.5,-370.9116 242.5,-392.9116 409.5,-392.9116 409.5,-370.9116 242.5,-370.9116"/>
<text text-anchor="start" x="262.5" y="-378.0116" font-family="Helvetica,sans-Serif" font-size="11.00" fill="#000000">abook_type</text>
<polygon fill="none" stroke="#000000" points="242.5,-348.9116 242.5,-370.9116 409.5,-370.9116 409.5,-348.9116 242.5,-348.9116"/>
<image xlink:href="../../images/foreignKeys.png" width="11px" height="12px" preserveAspectRatio="xMinYMin meet" x="247.5" y="-365.912"/>
<text text-anchor="start" x="262.5" y="-356.0116" font-family="Helvetica,sans-Serif" font-size="11.00" fill="#000000">billing_facility_id</text>
<polygon fill="none" stroke="#000000" points="242.5,-329.9116 242.5,-348.9116 409.5,-348.9116 409.5,-329.9116 242.5,-329.9116"/>
<text text-anchor="start" x="245.5" y="-336.0116" font-family="Helvetica,sans-Serif" font-size="11.00" fill="#000000">...</text>
<polygon fill="#ffffff" stroke="transparent" points="242.5,-310.9116 242.5,-329.9116 316.5,-329.9116 316.5,-310.9116 242.5,-310.9116"/>
<polygon fill="none" stroke="#000000" points="242.5,-310.9116 242.5,-329.9116 316.5,-329.9116 316.5,-310.9116 242.5,-310.9116"/>
<text text-anchor="start" x="245.5" y="-317.0116" font-family="Helvetica,sans-Serif" font-size="11.00" fill="#000000">&lt; 2</text>
<polygon fill="#ffffff" stroke="transparent" points="316.5,-310.9116 316.5,-329.9116 355.5,-329.9116 355.5,-310.9116 316.5,-310.9116"/>
<polygon fill="none" stroke="#000000" points="316.5,-310.9116 316.5,-329.9116 355.5,-329.9116 355.5,-310.9116 316.5,-310.9116"/>
<text text-anchor="start" x="346.3862" y="-317.0116" font-family="Helvetica,sans-Serif" font-size="11.00" fill="#000000"> &#160;</text>
<polygon fill="#ffffff" stroke="transparent" points="355.5,-310.9116 355.5,-329.9116 409.5,-329.9116 409.5,-310.9116 355.5,-310.9116"/>
<polygon fill="none" stroke="#000000" points="355.5,-310.9116 355.5,-329.9116 409.5,-329.9116 409.5,-310.9116 355.5,-310.9116"/>
<text text-anchor="start" x="384.7904" y="-317.0116" font-family="Helvetica,sans-Serif" font-size="11.00" fill="#000000">90 &gt;</text>
</a>
</g>
</g>
<!-- care_team_member&#45;&gt;users -->
<g id="edge2" class="edge">
<title>care_team_member:w&#45;&gt;users:e</title>
<path fill="none" stroke="#000000" d="M771.3532,-624.2158C687.7795,-627.2998 506.3329,-651.9334 450,-609.9116 405.5559,-576.7582 464.9475,-491.9116 409.5,-491.9116"/>
<polygon fill="#000000" stroke="#000000" points="778.0017,-624.0778 786.0748,-627.5108 782.0009,-623.9947 786,-623.9116 786,-623.9116 786,-623.9116 782.0009,-623.9947 785.9252,-620.3123 778.0017,-624.0778 778.0017,-624.0778"/>
<ellipse fill="none" stroke="#000000" cx="774.8024" cy="-624.1442" rx="3.2" ry="3.2"/>
</g>
<!-- care_team_member&#45;&gt;users -->
<g id="edge3" class="edge">
<title>care_team_member:w&#45;&gt;users:e</title>
<path fill="none" stroke="#000000" d="M771.361,-602.1427C687.9152,-604.4761 507.8763,-622.8712 450,-582.9116 413.5703,-557.7594 453.7691,-491.9116 409.5,-491.9116"/>
<polygon fill="#000000" stroke="#000000" points="778.001,-602.0379 786.0569,-605.5111 782.0005,-601.9747 786,-601.9116 786,-601.9116 786,-601.9116 782.0005,-601.9747 785.9431,-598.312 778.001,-602.0379 778.001,-602.0379"/>
<ellipse fill="none" stroke="#000000" cx="774.8014" cy="-602.0885" rx="3.2" ry="3.2"/>
</g>
<!-- care_team_member&#45;&gt;users -->
<g id="edge7" class="edge">
<title>care_team_member:w&#45;&gt;users:e</title>
<path fill="none" stroke="#000000" d="M772.1319,-518.4799C761.4253,-527.6751 761.9423,-548.1956 743,-555.9116 682.6997,-580.4742 507.0371,-587.3158 450,-555.9116 420.5128,-539.6761 443.1613,-491.9116 409.5,-491.9116"/>
<polygon fill="#000000" stroke="#000000" points="778.4016,-516.4146 787.1264,-517.3308 782.2008,-515.1631 786,-513.9116 786,-513.9116 786,-513.9116 782.2008,-515.1631 784.8736,-510.4923 778.4016,-516.4146 778.4016,-516.4146"/>
<ellipse fill="none" stroke="#000000" cx="775.3623" cy="-517.4158" rx="3.2" ry="3.2"/>
</g>
<!-- care_team_member&#45;&gt;users -->
<g id="edge8" class="edge">
<title>care_team_member:w&#45;&gt;users:e</title>
<path fill="none" stroke="#000000" d="M772.0035,-496.54C761.6209,-505.4344 761.4081,-524.6734 743,-531.9116 682.4049,-555.7378 510.2319,-556.6416 450,-531.9116 426.5966,-522.3026 434.7992,-491.9116 409.5,-491.9116"/>
<polygon fill="#000000" stroke="#000000" points="778.4045,-494.4233 787.1303,-495.3295 782.2023,-493.1675 786,-491.9116 786,-491.9116 786,-491.9116 782.2023,-493.1675 784.8697,-488.4936 778.4045,-494.4233 778.4045,-494.4233"/>
<ellipse fill="none" stroke="#000000" cx="775.3663" cy="-495.4281" rx="3.2" ry="3.2"/>
</g>
<!-- facility -->
<g id="node4" class="node">
<title>facility</title>
<g id="a_node4"><a xlink:href="../../tables/facility.html" xlink:title="facility" target="_top">
<polygon fill="#ffffff" stroke="transparent" points="8,-355.4116 8,-460.4116 193,-460.4116 193,-355.4116 8,-355.4116"/>
<polygon fill="#f5f5f5" stroke="transparent" points="8.5,-436.9116 8.5,-459.9116 193.5,-459.9116 193.5,-436.9116 8.5,-436.9116"/>
<polygon fill="none" stroke="#000000" points="8.5,-436.9116 8.5,-459.9116 193.5,-459.9116 193.5,-436.9116 8.5,-436.9116"/>
<text text-anchor="start" x="13.5" y="-445.5116" font-family="Helvetica,sans-Serif" font-weight="bold" font-size="11.00" fill="#000000">facility</text>
<text text-anchor="start" x="158.5437" y="-445.0116" font-family="Helvetica,sans-Serif" font-size="11.00" fill="#000000">[table]</text>
<polygon fill="none" stroke="#000000" points="8.5,-414.9116 8.5,-436.9116 193.5,-436.9116 193.5,-414.9116 8.5,-414.9116"/>
<image xlink:href="../../images/primaryKeys.png" width="11px" height="12px" preserveAspectRatio="xMinYMin meet" x="13.5" y="-431.912"/>
<text text-anchor="start" x="28.5" y="-422.0116" font-family="Helvetica,sans-Serif" font-size="11.00" fill="#000000">id</text>
<polygon fill="#ffffff" stroke="transparent" points="8.5,-392.9116 8.5,-414.9116 193.5,-414.9116 193.5,-392.9116 8.5,-392.9116"/>
<polygon fill="none" stroke="#000000" points="8.5,-392.9116 8.5,-414.9116 193.5,-414.9116 193.5,-392.9116 8.5,-392.9116"/>
<text text-anchor="start" x="28.5" y="-400.0116" font-family="Helvetica,sans-Serif" font-size="11.00" fill="#000000">uuid</text>
<polygon fill="none" stroke="#000000" points="8.5,-373.9116 8.5,-392.9116 193.5,-392.9116 193.5,-373.9116 8.5,-373.9116"/>
<text text-anchor="start" x="11.5" y="-380.0116" font-family="Helvetica,sans-Serif" font-size="11.00" fill="#000000">...</text>
<polygon fill="#ffffff" stroke="transparent" points="8.5,-354.9116 8.5,-373.9116 87.5,-373.9116 87.5,-354.9116 8.5,-354.9116"/>
<polygon fill="none" stroke="#000000" points="8.5,-354.9116 8.5,-373.9116 87.5,-373.9116 87.5,-354.9116 8.5,-354.9116"/>
<text text-anchor="start" x="11.5" y="-361.0116" font-family="Helvetica,sans-Serif" font-size="11.00" fill="#000000"> &#160;</text>
<polygon fill="#ffffff" stroke="transparent" points="87.5,-354.9116 87.5,-373.9116 132.5,-373.9116 132.5,-354.9116 87.5,-354.9116"/>
<polygon fill="none" stroke="#000000" points="87.5,-354.9116 87.5,-373.9116 132.5,-373.9116 132.5,-354.9116 87.5,-354.9116"/>
<text text-anchor="start" x="123.3862" y="-361.0116" font-family="Helvetica,sans-Serif" font-size="11.00" fill="#000000"> &#160;</text>
<polygon fill="#ffffff" stroke="transparent" points="132.5,-354.9116 132.5,-373.9116 193.5,-373.9116 193.5,-354.9116 132.5,-354.9116"/>
<polygon fill="none" stroke="#000000" points="132.5,-354.9116 132.5,-373.9116 193.5,-373.9116 193.5,-354.9116 132.5,-354.9116"/>
<text text-anchor="start" x="168.7904" y="-361.0116" font-family="Helvetica,sans-Serif" font-size="11.00" fill="#000000">10 &gt;</text>
</a>
</g>
</g>
<!-- care_team_member&#45;&gt;facility -->
<g id="edge4" class="edge">
<title>care_team_member:w&#45;&gt;facility:e</title>
<path fill="none" stroke="#000000" d="M772.1095,-584.5314C760.1332,-595.2838 764.4103,-621.8339 743,-631.9116 625.1772,-687.3697 577.4375,-658.6979 450,-631.9116 347.3679,-610.3391 305.7281,-613.4217 234,-536.9116 198.0832,-498.6002 246.0145,-425.9116 193.5,-425.9116"/>
<polygon fill="#000000" stroke="#000000" points="778.4088,-582.4363 787.1362,-583.3276 782.2044,-581.174 786,-579.9116 786,-579.9116 786,-579.9116 782.2044,-581.174 784.8638,-576.4955 778.4088,-582.4363 778.4088,-582.4363"/>
<ellipse fill="none" stroke="#000000" cx="775.3724" cy="-583.4463" rx="3.2" ry="3.2"/>
</g>
<!-- list_options -->
<g id="node5" class="node">
<title>list_options</title>
<g id="a_node5"><a xlink:href="../../tables/list_options.html" xlink:title="list_options" target="_top">
<polygon fill="#ffffff" stroke="transparent" points="259.5,-130.4116 259.5,-235.4116 391.5,-235.4116 391.5,-130.4116 259.5,-130.4116"/>
<polygon fill="#f5f5f5" stroke="transparent" points="259.5,-211.9116 259.5,-234.9116 391.5,-234.9116 391.5,-211.9116 259.5,-211.9116"/>
<polygon fill="none" stroke="#000000" points="259.5,-211.9116 259.5,-234.9116 391.5,-234.9116 391.5,-211.9116 259.5,-211.9116"/>
<text text-anchor="start" x="264.5" y="-220.5116" font-family="Helvetica,sans-Serif" font-weight="bold" font-size="11.00" fill="#000000">list_options</text>
<text text-anchor="start" x="356.5437" y="-220.0116" font-family="Helvetica,sans-Serif" font-size="11.00" fill="#000000">[table]</text>
<polygon fill="none" stroke="#000000" points="259.5,-189.9116 259.5,-211.9116 391.5,-211.9116 391.5,-189.9116 259.5,-189.9116"/>
<image xlink:href="../../images/primaryKeys.png" width="11px" height="12px" preserveAspectRatio="xMinYMin meet" x="264.5" y="-206.912"/>
<text text-anchor="start" x="279.5" y="-197.0116" font-family="Helvetica,sans-Serif" font-size="11.00" fill="#000000">list_id</text>
<polygon fill="none" stroke="#000000" points="259.5,-167.9116 259.5,-189.9116 391.5,-189.9116 391.5,-167.9116 259.5,-167.9116"/>
<image xlink:href="../../images/primaryKeys.png" width="11px" height="12px" preserveAspectRatio="xMinYMin meet" x="264.5" y="-184.912"/>
<text text-anchor="start" x="279.5" y="-175.0116" font-family="Helvetica,sans-Serif" font-size="11.00" fill="#000000">option_id</text>
<polygon fill="none" stroke="#000000" points="259.5,-148.9116 259.5,-167.9116 391.5,-167.9116 391.5,-148.9116 259.5,-148.9116"/>
<text text-anchor="start" x="262.5" y="-155.0116" font-family="Helvetica,sans-Serif" font-size="11.00" fill="#000000">...</text>
<polygon fill="#ffffff" stroke="transparent" points="259.5,-129.9116 259.5,-148.9116 311.5,-148.9116 311.5,-129.9116 259.5,-129.9116"/>
<polygon fill="none" stroke="#000000" points="259.5,-129.9116 259.5,-148.9116 311.5,-148.9116 311.5,-129.9116 259.5,-129.9116"/>
<text text-anchor="start" x="262.5" y="-136.0116" font-family="Helvetica,sans-Serif" font-size="11.00" fill="#000000"> &#160;</text>
<polygon fill="#ffffff" stroke="transparent" points="311.5,-129.9116 311.5,-148.9116 343.5,-148.9116 343.5,-129.9116 311.5,-129.9116"/>
<polygon fill="none" stroke="#000000" points="311.5,-129.9116 311.5,-148.9116 343.5,-148.9116 343.5,-129.9116 311.5,-129.9116"/>
<text text-anchor="start" x="334.3862" y="-136.0116" font-family="Helvetica,sans-Serif" font-size="11.00" fill="#000000"> &#160;</text>
<polygon fill="#ffffff" stroke="transparent" points="343.5,-129.9116 343.5,-148.9116 391.5,-148.9116 391.5,-129.9116 343.5,-129.9116"/>
<polygon fill="none" stroke="#000000" points="343.5,-129.9116 343.5,-148.9116 391.5,-148.9116 391.5,-129.9116 343.5,-129.9116"/>
<text text-anchor="start" x="366.7904" y="-136.0116" font-family="Helvetica,sans-Serif" font-size="11.00" fill="#000000">98 &gt;</text>
</a>
</g>
</g>
<!-- care_team_member&#45;&gt;list_options -->
<g id="edge5" class="edge">
<title>care_team_member:w&#45;&gt;list_options:e</title>
<path fill="none" stroke="#000000" d="M771.9043,-554.6822C701.5202,-518.1072 811.4932,-182.0098 743,-119.9116 694.7627,-76.178 510.1017,-94.8667 450,-119.9116 415.914,-134.1155 428.427,-178.9116 391.5,-178.9116"/>
<polygon fill="#000000" stroke="#000000" points="778.202,-556.125 785.196,-561.4206 782.101,-557.0183 786,-557.9116 786,-557.9116 786,-557.9116 782.101,-557.0183 786.804,-554.4025 778.202,-556.125 778.202,-556.125"/>
<ellipse fill="none" stroke="#000000" cx="775.0828" cy="-555.4103" rx="3.2" ry="3.2"/>
</g>
<!-- care_team_member&#45;&gt;list_options -->
<g id="edge6" class="edge">
<title>care_team_member:w&#45;&gt;list_options:e</title>
<path fill="none" stroke="#000000" d="M771.6866,-532.631C700.25,-495.4759 812.5292,-154.0461 743,-90.9116 646.5924,-3.3707 564.7733,-29.3898 450,-90.9116 408.607,-113.0994 438.4647,-178.9116 391.5,-178.9116"/>
<polygon fill="#000000" stroke="#000000" points="778.2022,-534.1243 785.1957,-539.4206 782.1011,-535.0179 786,-535.9116 786,-535.9116 786,-535.9116 782.1011,-535.0179 786.8043,-532.4025 778.2022,-534.1243 778.2022,-534.1243"/>
<ellipse fill="none" stroke="#000000" cx="775.0831" cy="-533.4094" rx="3.2" ry="3.2"/>
</g>
<!-- patient_data&#45;&gt;users -->
<g id="edge9" class="edge">
<title>patient_data:w&#45;&gt;users:e</title>
<path fill="none" stroke="#000000" d="M443.9399,-268.8567C372.4128,-290.848 506.247,-491.9116 409.5,-491.9116"/>
<polygon fill="#000000" stroke="#000000" points="450.5704,-267.9709 458.9767,-270.4799 454.5352,-267.4413 458.5,-266.9116 458.5,-266.9116 458.5,-266.9116 454.5352,-267.4413 458.0233,-263.3433 450.5704,-267.9709 450.5704,-267.9709"/>
<ellipse fill="none" stroke="#000000" cx="447.3986" cy="-268.3947" rx="3.2" ry="3.2"/>
</g>
<!-- patient_data&#45;&gt;users -->
<g id="edge10" class="edge">
<title>patient_data:w&#45;&gt;users:e</title>
<path fill="none" stroke="#000000" d="M444.0901,-246.6207C362.9729,-268.4438 515.9524,-491.9116 409.5,-491.9116"/>
<polygon fill="#000000" stroke="#000000" points="450.5557,-245.8539 458.9241,-248.4865 454.5278,-245.3827 458.5,-244.9116 458.5,-244.9116 458.5,-244.9116 454.5278,-245.3827 458.0759,-241.3366 450.5557,-245.8539 450.5557,-245.8539"/>
<ellipse fill="none" stroke="#000000" cx="447.378" cy="-246.2308" rx="3.2" ry="3.2"/>
</g>
<!-- patient_data&#45;&gt;users -->
<g id="edge12" class="edge">
<title>patient_data:w&#45;&gt;users:e</title>
<path fill="none" stroke="#000000" d="M444.3714,-358.0304C407.0981,-378.4229 468.3564,-491.9116 409.5,-491.9116"/>
<polygon fill="#000000" stroke="#000000" points="450.6881,-356.6361 459.276,-358.4269 454.594,-355.7738 458.5,-354.9116 458.5,-354.9116 458.5,-354.9116 454.594,-355.7738 457.724,-351.3962 450.6881,-356.6361 450.6881,-356.6361"/>
<ellipse fill="none" stroke="#000000" cx="447.5633" cy="-357.3259" rx="3.2" ry="3.2"/>
</g>
<!-- patient_data&#45;&gt;users -->
<g id="edge13" class="edge">
<title>patient_data:w&#45;&gt;users:e</title>
<path fill="none" stroke="#000000" d="M444.1688,-335.6713C398.9508,-356.7849 477.6692,-491.9116 409.5,-491.9116"/>
<polygon fill="#000000" stroke="#000000" points="450.6443,-334.4244 459.1808,-336.4466 454.5722,-333.668 458.5,-332.9116 458.5,-332.9116 458.5,-332.9116 454.5722,-333.668 457.8192,-329.3765 450.6443,-334.4244 450.6443,-334.4244"/>
<ellipse fill="none" stroke="#000000" cx="447.5021" cy="-335.0295" rx="3.2" ry="3.2"/>
</g>
<!-- patient_data&#45;&gt;users -->
<g id="edge16" class="edge">
<title>patient_data:w&#45;&gt;users:e</title>
<path fill="none" stroke="#000000" d="M443.9761,-224.4913C353.7741,-246.5367 525.5638,-491.9116 409.5,-491.9116"/>
<polygon fill="#000000" stroke="#000000" points="450.5469,-223.7767 458.8893,-226.4905 454.5235,-223.3441 458.5,-222.9116 458.5,-222.9116 458.5,-222.9116 454.5235,-223.3441 458.1107,-219.3327 450.5469,-223.7767 450.5469,-223.7767"/>
<ellipse fill="none" stroke="#000000" cx="447.3657" cy="-224.1227" rx="3.2" ry="3.2"/>
</g>
<!-- patient_data&#45;&gt;list_options -->
<g id="edge11" class="edge">
<title>patient_data:w&#45;&gt;list_options:e</title>
<path fill="none" stroke="#000000" d="M444.2612,-308.1546C402.846,-289.1989 451.6374,-178.9116 391.5,-178.9116"/>
<polygon fill="#000000" stroke="#000000" points="450.6459,-309.3907 457.8156,-314.4459 454.5729,-310.1512 458.5,-310.9116 458.5,-310.9116 458.5,-310.9116 454.5729,-310.1512 459.1844,-307.3772 450.6459,-309.3907 450.6459,-309.3907"/>
<ellipse fill="none" stroke="#000000" cx="447.5042" cy="-308.7824" rx="3.2" ry="3.2"/>
</g>
<!-- patient_data&#45;&gt;list_options -->
<g id="edge14" class="edge">
<title>patient_data:w&#45;&gt;list_options:e</title>
<path fill="none" stroke="#000000" d="M444.0809,-178.9116C425.2359,-178.9116 415.8108,-178.9116 391.5,-178.9116"/>
<polygon fill="#000000" stroke="#000000" points="450.5,-178.9116 458.5,-182.5116 454.5,-178.9116 458.5,-178.9116 458.5,-178.9116 458.5,-178.9116 454.5,-178.9116 458.5,-175.3116 450.5,-178.9116 450.5,-178.9116"/>
<ellipse fill="none" stroke="#000000" cx="447.3" cy="-178.9116" rx="3.2" ry="3.2"/>
</g>
<!-- patient_data&#45;&gt;list_options -->
<g id="edge15" class="edge">
<title>patient_data:w&#45;&gt;list_options:e</title>
<path fill="none" stroke="#000000" d="M444.1836,-199.1112C424.8056,-193.857 417.3327,-178.9116 391.5,-178.9116"/>
<polygon fill="#000000" stroke="#000000" points="450.5625,-199.9133 458.0508,-204.4834 454.5313,-200.4124 458.5,-200.9116 458.5,-200.9116 458.5,-200.9116 454.5313,-200.4124 458.9492,-197.3397 450.5625,-199.9133 450.5625,-199.9133"/>
<ellipse fill="none" stroke="#000000" cx="447.3875" cy="-199.514" rx="3.2" ry="3.2"/>
</g>
<!-- users&#45;&gt;facility -->
<g id="edge17" class="edge">
<title>users:w&#45;&gt;facility:e</title>
<path fill="none" stroke="#000000" d="M228.8768,-364.6581C212.2322,-379.7913 224.0399,-425.9116 193.5,-425.9116"/>
<polygon fill="#000000" stroke="#000000" points="234.9454,-362.5438 243.6845,-363.3111 238.7227,-361.2277 242.5,-359.9116 242.5,-359.9116 242.5,-359.9116 238.7227,-361.2277 241.3155,-356.512 234.9454,-362.5438 234.9454,-362.5438"/>
<ellipse fill="none" stroke="#000000" cx="231.9236" cy="-363.5966" rx="3.2" ry="3.2"/>
</g>
<!-- users&#45;&gt;facility -->
<g id="edge18" class="edge">
<title>users:w&#45;&gt;facility:e</title>
<path fill="none" stroke="#000000" d="M227.9909,-425.9116C216.6774,-425.9116 209.4931,-425.9116 193.5,-425.9116"/>
<polygon fill="#000000" stroke="#000000" points="234.5,-425.9116 242.5,-429.5116 238.5,-425.9116 242.5,-425.9116 242.5,-425.9116 242.5,-425.9116 238.5,-425.9116 242.5,-422.3116 234.5,-425.9116 234.5,-425.9116"/>
<ellipse fill="none" stroke="#000000" cx="231.3" cy="-425.9116" rx="3.2" ry="3.2"/>
</g>
</g>
</svg>
