<?xml version="1.0" encoding="UTF-8" standalone="no"?>
<!DOCTYPE svg PUBLIC "-//W3C//DTD SVG 1.1//EN"
 "http://www.w3.org/Graphics/SVG/1.1/DTD/svg11.dtd">
<!-- Generated by graphviz version 2.40.1 (20161225.0304)
 -->
<!-- Title: twoDegreesRelationshipsDiagram Pages: 1 -->
<svg width="1045pt" height="451pt"
 viewBox="0.00 0.00 1045.00 450.89" xmlns="http://www.w3.org/2000/svg" xmlns:xlink="http://www.w3.org/1999/xlink">
<g id="graph0" class="graph" transform="scale(1 1) rotate(0) translate(4 446.8898)">
<title>twoDegreesRelationshipsDiagram</title>
<polygon fill="#ffffff" stroke="transparent" points="-4,4 -4,-446.8898 1041,-446.8898 1041,4 -4,4"/>
<text text-anchor="middle" x="72.4936" y="-7.3" font-family="Helvetica,sans-Serif" font-size="11.00" fill="#000000">Generated by SchemaSpy</text>
<!-- clinical_notes_documents -->
<g id="node1" class="node">
<title>clinical_notes_documents</title>
<g id="a_node1"><a xlink:href="../../tables/clinical_notes_documents.html" xlink:title="clinical_notes_documents" target="_top">
<polygon fill="#ffffff" stroke="transparent" points="795,-377.8898 795,-438.8898 1005,-438.8898 1005,-377.8898 795,-377.8898"/>
<polygon fill="#f5f5f5" stroke="transparent" points="795,-415.3898 795,-438.3898 1005,-438.3898 1005,-415.3898 795,-415.3898"/>
<polygon fill="none" stroke="#000000" points="795,-415.3898 795,-438.3898 1005,-438.3898 1005,-415.3898 795,-415.3898"/>
<text text-anchor="start" x="800" y="-423.9898" font-family="Helvetica,sans-Serif" font-weight="bold" font-size="11.00" fill="#000000">clinical_notes_documents</text>
<text text-anchor="start" x="970.5219" y="-423.4898" font-family="Helvetica,sans-Serif" font-size="11.00" fill="#000000">[table]</text>
<polygon fill="none" stroke="#000000" points="795,-396.3898 795,-415.3898 1005,-415.3898 1005,-396.3898 795,-396.3898"/>
<text text-anchor="start" x="798" y="-402.4898" font-family="Helvetica,sans-Serif" font-size="11.00" fill="#000000">...</text>
<polygon fill="#ffffff" stroke="transparent" points="795,-377.3898 795,-396.3898 898,-396.3898 898,-377.3898 795,-377.3898"/>
<polygon fill="none" stroke="#000000" points="795,-377.3898 795,-396.3898 898,-396.3898 898,-377.3898 795,-377.3898"/>
<text text-anchor="start" x="798" y="-383.4898" font-family="Helvetica,sans-Serif" font-size="11.00" fill="#000000">&lt; 3</text>
<polygon fill="#ffffff" stroke="transparent" points="898,-377.3898 898,-396.3898 951,-396.3898 951,-377.3898 898,-377.3898"/>
<polygon fill="none" stroke="#000000" points="898,-377.3898 898,-396.3898 951,-396.3898 951,-377.3898 898,-377.3898"/>
<text text-anchor="start" x="941.8862" y="-383.4898" font-family="Helvetica,sans-Serif" font-size="11.00" fill="#000000"> &#160;</text>
<polygon fill="#ffffff" stroke="transparent" points="951,-377.3898 951,-396.3898 1005,-396.3898 1005,-377.3898 951,-377.3898"/>
<polygon fill="none" stroke="#000000" points="951,-377.3898 951,-396.3898 1005,-396.3898 1005,-377.3898 951,-377.3898"/>
<text text-anchor="start" x="995.8862" y="-383.4898" font-family="Helvetica,sans-Serif" font-size="11.00" fill="#000000"> &#160;</text>
</a>
</g>
</g>
<!-- users -->
<g id="node2" class="node">
<title>users</title>
<g id="a_node2"><a xlink:href="../../tables/users.html" xlink:title="users" target="_top">
<polygon fill="#ffffff" stroke="transparent" points="8,-189.8898 8,-250.8898 83,-250.8898 83,-189.8898 8,-189.8898"/>
<polygon fill="#f5f5f5" stroke="transparent" points="8.5,-227.3898 8.5,-250.3898 83.5,-250.3898 83.5,-227.3898 8.5,-227.3898"/>
<polygon fill="none" stroke="#000000" points="8.5,-227.3898 8.5,-250.3898 83.5,-250.3898 83.5,-227.3898 8.5,-227.3898"/>
<text text-anchor="start" x="13.5" y="-235.9898" font-family="Helvetica,sans-Serif" font-weight="bold" font-size="11.00" fill="#000000">users</text>
<text text-anchor="start" x="49.0219" y="-235.4898" font-family="Helvetica,sans-Serif" font-size="11.00" fill="#000000">[table]</text>
<polygon fill="none" stroke="#000000" points="8.5,-208.3898 8.5,-227.3898 83.5,-227.3898 83.5,-208.3898 8.5,-208.3898"/>
<text text-anchor="start" x="11.5" y="-214.4898" font-family="Helvetica,sans-Serif" font-size="11.00" fill="#000000">...</text>
<polygon fill="#ffffff" stroke="transparent" points="8.5,-189.3898 8.5,-208.3898 36.5,-208.3898 36.5,-189.3898 8.5,-189.3898"/>
<polygon fill="none" stroke="#000000" points="8.5,-189.3898 8.5,-208.3898 36.5,-208.3898 36.5,-189.3898 8.5,-189.3898"/>
<text text-anchor="start" x="11.5" y="-195.4898" font-family="Helvetica,sans-Serif" font-size="11.00" fill="#000000">&lt; 2</text>
<polygon fill="#ffffff" stroke="transparent" points="36.5,-189.3898 36.5,-208.3898 52.5,-208.3898 52.5,-189.3898 36.5,-189.3898"/>
<polygon fill="none" stroke="#000000" points="36.5,-189.3898 36.5,-208.3898 52.5,-208.3898 52.5,-189.3898 36.5,-189.3898"/>
<text text-anchor="start" x="43.3862" y="-195.4898" font-family="Helvetica,sans-Serif" font-size="11.00" fill="#000000"> &#160;</text>
<polygon fill="#ffffff" stroke="transparent" points="52.5,-189.3898 52.5,-208.3898 83.5,-208.3898 83.5,-189.3898 52.5,-189.3898"/>
<polygon fill="none" stroke="#000000" points="52.5,-189.3898 52.5,-208.3898 83.5,-208.3898 83.5,-189.3898 52.5,-189.3898"/>
<text text-anchor="start" x="58.7904" y="-195.4898" font-family="Helvetica,sans-Serif" font-size="11.00" fill="#000000">90 &gt;</text>
</a>
</g>
</g>
<!-- clinical_notes_documents&#45;&gt;users -->
<g id="edge1" class="edge">
<title>clinical_notes_documents:w&#45;&gt;users:e</title>
<path fill="none" stroke="#000000" d="M780.4999,-405.4316C488.2117,-407.1102 367.7498,-457.8171 124,-286.3898 94.914,-265.9338 119.059,-217.3898 83.5,-217.3898"/>
<polygon fill="#000000" stroke="#000000" points="787,-405.4129 795.0104,-408.9897 791,-405.4013 795,-405.3898 795,-405.3898 795,-405.3898 791,-405.4013 794.9896,-401.7898 787,-405.4129 787,-405.4129"/>
<ellipse fill="none" stroke="#000000" cx="783.8" cy="-405.4221" rx="3.2" ry="3.2"/>
</g>
<!-- documents -->
<g id="node3" class="node">
<title>documents</title>
<g id="a_node3"><a xlink:href="../../tables/documents.html" xlink:title="documents" target="_top">
<polygon fill="#ffffff" stroke="transparent" points="499,-63.8898 499,-344.8898 722,-344.8898 722,-63.8898 499,-63.8898"/>
<polygon fill="#f5f5f5" stroke="transparent" points="499.5,-321.3898 499.5,-344.3898 722.5,-344.3898 722.5,-321.3898 499.5,-321.3898"/>
<polygon fill="none" stroke="#000000" points="499.5,-321.3898 499.5,-344.3898 722.5,-344.3898 722.5,-321.3898 499.5,-321.3898"/>
<text text-anchor="start" x="504.5" y="-329.9898" font-family="Helvetica,sans-Serif" font-weight="bold" font-size="11.00" fill="#000000">documents</text>
<text text-anchor="start" x="687.5437" y="-329.4898" font-family="Helvetica,sans-Serif" font-size="11.00" fill="#000000">[table]</text>
<polygon fill="none" stroke="#000000" points="499.5,-299.3898 499.5,-321.3898 722.5,-321.3898 722.5,-299.3898 499.5,-299.3898"/>
<image xlink:href="../../images/primaryKeys.png" width="11px" height="12px" preserveAspectRatio="xMinYMin meet" x="504.5" y="-316.39"/>
<text text-anchor="start" x="519.5" y="-306.4898" font-family="Helvetica,sans-Serif" font-size="11.00" fill="#000000">id</text>
<polygon fill="#ffffff" stroke="transparent" points="499.5,-277.3898 499.5,-299.3898 722.5,-299.3898 722.5,-277.3898 499.5,-277.3898"/>
<polygon fill="none" stroke="#000000" points="499.5,-277.3898 499.5,-299.3898 722.5,-299.3898 722.5,-277.3898 499.5,-277.3898"/>
<text text-anchor="start" x="519.5" y="-284.4898" font-family="Helvetica,sans-Serif" font-size="11.00" fill="#000000">uuid</text>
<polygon fill="#ffffff" stroke="transparent" points="499.5,-255.3898 499.5,-277.3898 722.5,-277.3898 722.5,-255.3898 499.5,-255.3898"/>
<polygon fill="none" stroke="#000000" points="499.5,-255.3898 499.5,-277.3898 722.5,-277.3898 722.5,-255.3898 499.5,-255.3898"/>
<image xlink:href="../../images/foreignKeys.png" width="11px" height="12px" preserveAspectRatio="xMinYMin meet" x="504.5" y="-272.39"/>
<text text-anchor="start" x="519.5" y="-262.4898" font-family="Helvetica,sans-Serif" font-size="11.00" fill="#000000">owner</text>
<polygon fill="#ffffff" stroke="transparent" points="499.5,-233.3898 499.5,-255.3898 722.5,-255.3898 722.5,-233.3898 499.5,-233.3898"/>
<polygon fill="none" stroke="#000000" points="499.5,-233.3898 499.5,-255.3898 722.5,-255.3898 722.5,-233.3898 499.5,-233.3898"/>
<text text-anchor="start" x="519.5" y="-240.4898" font-family="Helvetica,sans-Serif" font-size="11.00" fill="#000000">revision</text>
<polygon fill="#ffffff" stroke="transparent" points="499.5,-211.3898 499.5,-233.3898 722.5,-233.3898 722.5,-211.3898 499.5,-211.3898"/>
<polygon fill="none" stroke="#000000" points="499.5,-211.3898 499.5,-233.3898 722.5,-233.3898 722.5,-211.3898 499.5,-211.3898"/>
<image xlink:href="../../images/foreignKeys.png" width="11px" height="12px" preserveAspectRatio="xMinYMin meet" x="504.5" y="-228.39"/>
<text text-anchor="start" x="519.5" y="-218.4898" font-family="Helvetica,sans-Serif" font-size="11.00" fill="#000000">foreign_id</text>
<polygon fill="none" stroke="#000000" points="499.5,-189.3898 499.5,-211.3898 722.5,-211.3898 722.5,-189.3898 499.5,-189.3898"/>
<image xlink:href="../../images/foreignKeys.png" width="11px" height="12px" preserveAspectRatio="xMinYMin meet" x="504.5" y="-206.39"/>
<text text-anchor="start" x="519.5" y="-196.4898" font-family="Helvetica,sans-Serif" font-size="11.00" fill="#000000">list_id</text>
<polygon fill="#ffffff" stroke="transparent" points="499.5,-167.3898 499.5,-189.3898 722.5,-189.3898 722.5,-167.3898 499.5,-167.3898"/>
<polygon fill="none" stroke="#000000" points="499.5,-167.3898 499.5,-189.3898 722.5,-189.3898 722.5,-167.3898 499.5,-167.3898"/>
<text text-anchor="start" x="519.5" y="-174.4898" font-family="Helvetica,sans-Serif" font-size="11.00" fill="#000000">drive_uuid</text>
<polygon fill="none" stroke="#000000" points="499.5,-145.3898 499.5,-167.3898 722.5,-167.3898 722.5,-145.3898 499.5,-145.3898"/>
<image xlink:href="../../images/foreignKeys.png" width="11px" height="12px" preserveAspectRatio="xMinYMin meet" x="504.5" y="-162.39"/>
<text text-anchor="start" x="519.5" y="-152.4898" font-family="Helvetica,sans-Serif" font-size="11.00" fill="#000000">encounter_id</text>
<polygon fill="#ffffff" stroke="transparent" points="499.5,-123.3898 499.5,-145.3898 722.5,-145.3898 722.5,-123.3898 499.5,-123.3898"/>
<polygon fill="none" stroke="#000000" points="499.5,-123.3898 499.5,-145.3898 722.5,-145.3898 722.5,-123.3898 499.5,-123.3898"/>
<text text-anchor="start" x="519.5" y="-130.4898" font-family="Helvetica,sans-Serif" font-size="11.00" fill="#000000">foreign_reference_id</text>
<polygon fill="#ffffff" stroke="transparent" points="499.5,-101.3898 499.5,-123.3898 722.5,-123.3898 722.5,-101.3898 499.5,-101.3898"/>
<polygon fill="none" stroke="#000000" points="499.5,-101.3898 499.5,-123.3898 722.5,-123.3898 722.5,-101.3898 499.5,-101.3898"/>
<text text-anchor="start" x="519.5" y="-108.4898" font-family="Helvetica,sans-Serif" font-size="11.00" fill="#000000">foreign_reference_table</text>
<polygon fill="none" stroke="#000000" points="499.5,-82.3898 499.5,-101.3898 722.5,-101.3898 722.5,-82.3898 499.5,-82.3898"/>
<text text-anchor="start" x="502.5" y="-88.4898" font-family="Helvetica,sans-Serif" font-size="11.00" fill="#000000">...</text>
<polygon fill="#ffffff" stroke="transparent" points="499.5,-63.3898 499.5,-82.3898 604.5,-82.3898 604.5,-63.3898 499.5,-63.3898"/>
<polygon fill="none" stroke="#000000" points="499.5,-63.3898 499.5,-82.3898 604.5,-82.3898 604.5,-63.3898 499.5,-63.3898"/>
<text text-anchor="start" x="502.5" y="-69.4898" font-family="Helvetica,sans-Serif" font-size="11.00" fill="#000000">&lt; 4</text>
<polygon fill="#ffffff" stroke="transparent" points="604.5,-63.3898 604.5,-82.3898 658.5,-82.3898 658.5,-63.3898 604.5,-63.3898"/>
<polygon fill="none" stroke="#000000" points="604.5,-63.3898 604.5,-82.3898 658.5,-82.3898 658.5,-63.3898 604.5,-63.3898"/>
<text text-anchor="start" x="649.3862" y="-69.4898" font-family="Helvetica,sans-Serif" font-size="11.00" fill="#000000"> &#160;</text>
<polygon fill="#ffffff" stroke="transparent" points="658.5,-63.3898 658.5,-82.3898 722.5,-82.3898 722.5,-63.3898 658.5,-63.3898"/>
<polygon fill="none" stroke="#000000" points="658.5,-63.3898 658.5,-82.3898 722.5,-82.3898 722.5,-63.3898 658.5,-63.3898"/>
<text text-anchor="start" x="703.9053" y="-69.4898" font-family="Helvetica,sans-Serif" font-size="11.00" fill="#000000">4 &gt;</text>
</a>
</g>
</g>
<!-- clinical_notes_documents&#45;&gt;documents -->
<g id="edge2" class="edge">
<title>clinical_notes_documents:w&#45;&gt;documents:e</title>
<path fill="none" stroke="#000000" d="M780.8889,-402.4424C748.0351,-386.4074 770.0112,-310.3898 722.5,-310.3898"/>
<polygon fill="#000000" stroke="#000000" points="787.169,-403.7541 794.2639,-408.9137 791.0845,-404.5719 795,-405.3898 795,-405.3898 795,-405.3898 791.0845,-404.5719 795.7361,-401.8658 787.169,-403.7541 787.169,-403.7541"/>
<ellipse fill="none" stroke="#000000" cx="784.0366" cy="-403.0998" rx="3.2" ry="3.2"/>
</g>
<!-- documents&#45;&gt;users -->
<g id="edge6" class="edge">
<title>documents:w&#45;&gt;users:e</title>
<path fill="none" stroke="#000000" d="M484.6404,-266.5578C329.1053,-270.088 271.7807,-327.3943 124,-261.3898 99.732,-250.5507 110.0786,-217.3898 83.5,-217.3898"/>
<polygon fill="#000000" stroke="#000000" points="491.5005,-266.4803 499.5407,-269.9895 495.5003,-266.435 499.5,-266.3898 499.5,-266.3898 499.5,-266.3898 495.5003,-266.435 499.4593,-262.79 491.5005,-266.4803 491.5005,-266.4803"/>
<ellipse fill="none" stroke="#000000" cx="488.3007" cy="-266.5165" rx="3.2" ry="3.2"/>
</g>
<!-- form_encounter -->
<g id="node4" class="node">
<title>form_encounter</title>
<g id="a_node4"><a xlink:href="../../tables/form_encounter.html" xlink:title="form_encounter" target="_top">
<polygon fill="#ffffff" stroke="transparent" points="305,-80.8898 305,-141.8898 450,-141.8898 450,-80.8898 305,-80.8898"/>
<polygon fill="#f5f5f5" stroke="transparent" points="305.5,-118.3898 305.5,-141.3898 450.5,-141.3898 450.5,-118.3898 305.5,-118.3898"/>
<polygon fill="none" stroke="#000000" points="305.5,-118.3898 305.5,-141.3898 450.5,-141.3898 450.5,-118.3898 305.5,-118.3898"/>
<text text-anchor="start" x="310.5" y="-126.9898" font-family="Helvetica,sans-Serif" font-weight="bold" font-size="11.00" fill="#000000">form_encounter</text>
<text text-anchor="start" x="416.0219" y="-126.4898" font-family="Helvetica,sans-Serif" font-size="11.00" fill="#000000">[table]</text>
<polygon fill="none" stroke="#000000" points="305.5,-99.3898 305.5,-118.3898 450.5,-118.3898 450.5,-99.3898 305.5,-99.3898"/>
<text text-anchor="start" x="308.5" y="-105.4898" font-family="Helvetica,sans-Serif" font-size="11.00" fill="#000000">...</text>
<polygon fill="#ffffff" stroke="transparent" points="305.5,-80.3898 305.5,-99.3898 368.5,-99.3898 368.5,-80.3898 305.5,-80.3898"/>
<polygon fill="none" stroke="#000000" points="305.5,-80.3898 305.5,-99.3898 368.5,-99.3898 368.5,-80.3898 305.5,-80.3898"/>
<text text-anchor="start" x="308.5" y="-86.4898" font-family="Helvetica,sans-Serif" font-size="11.00" fill="#000000">&lt; 1</text>
<polygon fill="#ffffff" stroke="transparent" points="368.5,-80.3898 368.5,-99.3898 401.5,-99.3898 401.5,-80.3898 368.5,-80.3898"/>
<polygon fill="none" stroke="#000000" points="368.5,-80.3898 368.5,-99.3898 401.5,-99.3898 401.5,-80.3898 368.5,-80.3898"/>
<text text-anchor="start" x="392.3862" y="-86.4898" font-family="Helvetica,sans-Serif" font-size="11.00" fill="#000000"> &#160;</text>
<polygon fill="#ffffff" stroke="transparent" points="401.5,-80.3898 401.5,-99.3898 450.5,-99.3898 450.5,-80.3898 401.5,-80.3898"/>
<polygon fill="none" stroke="#000000" points="401.5,-80.3898 401.5,-99.3898 450.5,-99.3898 450.5,-80.3898 401.5,-80.3898"/>
<text text-anchor="start" x="425.7904" y="-86.4898" font-family="Helvetica,sans-Serif" font-size="11.00" fill="#000000">19 &gt;</text>
</a>
</g>
</g>
<!-- documents&#45;&gt;form_encounter -->
<g id="edge3" class="edge">
<title>documents:w&#45;&gt;form_encounter:e</title>
<path fill="none" stroke="#000000" d="M485.8634,-151.6119C472.071,-139.4708 475.0315,-108.3898 450.5,-108.3898"/>
<polygon fill="#000000" stroke="#000000" points="491.95,-153.7444 498.3096,-159.7873 495.725,-155.0671 499.5,-156.3898 499.5,-156.3898 499.5,-156.3898 495.725,-155.0671 500.6904,-152.9923 491.95,-153.7444 491.95,-153.7444"/>
<ellipse fill="none" stroke="#000000" cx="488.93" cy="-152.6863" rx="3.2" ry="3.2"/>
</g>
<!-- patient_data -->
<g id="node5" class="node">
<title>patient_data</title>
<g id="a_node5"><a xlink:href="../../tables/patient_data.html" xlink:title="patient_data" target="_top">
<polygon fill="#ffffff" stroke="transparent" points="132,-189.8898 132,-250.8898 256,-250.8898 256,-189.8898 132,-189.8898"/>
<polygon fill="#f5f5f5" stroke="transparent" points="132,-227.3898 132,-250.3898 256,-250.3898 256,-227.3898 132,-227.3898"/>
<polygon fill="none" stroke="#000000" points="132,-227.3898 132,-250.3898 256,-250.3898 256,-227.3898 132,-227.3898"/>
<text text-anchor="start" x="137" y="-235.9898" font-family="Helvetica,sans-Serif" font-weight="bold" font-size="11.00" fill="#000000">patient_data</text>
<text text-anchor="start" x="221.5219" y="-235.4898" font-family="Helvetica,sans-Serif" font-size="11.00" fill="#000000">[table]</text>
<polygon fill="none" stroke="#000000" points="132,-208.3898 132,-227.3898 256,-227.3898 256,-208.3898 132,-208.3898"/>
<text text-anchor="start" x="135" y="-214.4898" font-family="Helvetica,sans-Serif" font-size="11.00" fill="#000000">...</text>
<polygon fill="#ffffff" stroke="transparent" points="132,-189.3898 132,-208.3898 185,-208.3898 185,-189.3898 132,-189.3898"/>
<polygon fill="none" stroke="#000000" points="132,-189.3898 132,-208.3898 185,-208.3898 185,-189.3898 132,-189.3898"/>
<text text-anchor="start" x="135" y="-195.4898" font-family="Helvetica,sans-Serif" font-size="11.00" fill="#000000">&lt; 9</text>
<polygon fill="#ffffff" stroke="transparent" points="185,-189.3898 185,-208.3898 213,-208.3898 213,-189.3898 185,-189.3898"/>
<polygon fill="none" stroke="#000000" points="185,-189.3898 185,-208.3898 213,-208.3898 213,-189.3898 185,-189.3898"/>
<text text-anchor="start" x="203.8862" y="-195.4898" font-family="Helvetica,sans-Serif" font-size="11.00" fill="#000000"> &#160;</text>
<polygon fill="#ffffff" stroke="transparent" points="213,-189.3898 213,-208.3898 256,-208.3898 256,-189.3898 213,-189.3898"/>
<polygon fill="none" stroke="#000000" points="213,-189.3898 213,-208.3898 256,-208.3898 256,-189.3898 213,-189.3898"/>
<text text-anchor="start" x="231.2904" y="-195.4898" font-family="Helvetica,sans-Serif" font-size="11.00" fill="#000000">95 &gt;</text>
</a>
</g>
</g>
<!-- documents&#45;&gt;patient_data -->
<g id="edge4" class="edge">
<title>documents:w&#45;&gt;patient_data:e</title>
<path fill="none" stroke="#000000" d="M485.1959,-224.6305C476.7087,-227.5606 471.0695,-232.5381 458,-234.3898 387.1519,-244.4273 367.1781,-248.3622 297,-234.3898 277.6532,-230.5378 275.7265,-217.3898 256,-217.3898"/>
<polygon fill="#000000" stroke="#000000" points="491.5964,-223.6279 500.0572,-225.9464 495.5482,-223.0088 499.5,-222.3898 499.5,-222.3898 499.5,-222.3898 495.5482,-223.0088 498.9428,-218.8331 491.5964,-223.6279 491.5964,-223.6279"/>
<ellipse fill="none" stroke="#000000" cx="488.4349" cy="-224.1232" rx="3.2" ry="3.2"/>
</g>
<!-- lists -->
<g id="node6" class="node">
<title>lists</title>
<g id="a_node6"><a xlink:href="../../tables/lists.html" xlink:title="lists" target="_top">
<polygon fill="#ffffff" stroke="transparent" points="344,-162.8898 344,-223.8898 411,-223.8898 411,-162.8898 344,-162.8898"/>
<polygon fill="#f5f5f5" stroke="transparent" points="344.5,-200.3898 344.5,-223.3898 411.5,-223.3898 411.5,-200.3898 344.5,-200.3898"/>
<polygon fill="none" stroke="#000000" points="344.5,-200.3898 344.5,-223.3898 411.5,-223.3898 411.5,-200.3898 344.5,-200.3898"/>
<text text-anchor="start" x="349.5" y="-208.9898" font-family="Helvetica,sans-Serif" font-weight="bold" font-size="11.00" fill="#000000">lists</text>
<text text-anchor="start" x="377.0219" y="-208.4898" font-family="Helvetica,sans-Serif" font-size="11.00" fill="#000000">[table]</text>
<polygon fill="none" stroke="#000000" points="344.5,-181.3898 344.5,-200.3898 411.5,-200.3898 411.5,-181.3898 344.5,-181.3898"/>
<text text-anchor="start" x="347.5" y="-187.4898" font-family="Helvetica,sans-Serif" font-size="11.00" fill="#000000">...</text>
<polygon fill="#ffffff" stroke="transparent" points="344.5,-162.3898 344.5,-181.3898 374.5,-181.3898 374.5,-162.3898 344.5,-162.3898"/>
<polygon fill="none" stroke="#000000" points="344.5,-162.3898 344.5,-181.3898 374.5,-181.3898 374.5,-162.3898 344.5,-162.3898"/>
<text text-anchor="start" x="347.5" y="-168.4898" font-family="Helvetica,sans-Serif" font-size="11.00" fill="#000000">&lt; 11</text>
<polygon fill="#ffffff" stroke="transparent" points="374.5,-162.3898 374.5,-181.3898 388.5,-181.3898 388.5,-162.3898 374.5,-162.3898"/>
<polygon fill="none" stroke="#000000" points="374.5,-162.3898 374.5,-181.3898 388.5,-181.3898 388.5,-162.3898 374.5,-162.3898"/>
<text text-anchor="start" x="379.3862" y="-168.4898" font-family="Helvetica,sans-Serif" font-size="11.00" fill="#000000"> &#160;</text>
<polygon fill="#ffffff" stroke="transparent" points="388.5,-162.3898 388.5,-181.3898 411.5,-181.3898 411.5,-162.3898 388.5,-162.3898"/>
<polygon fill="none" stroke="#000000" points="388.5,-162.3898 388.5,-181.3898 411.5,-181.3898 411.5,-162.3898 388.5,-162.3898"/>
<text text-anchor="start" x="392.9053" y="-168.4898" font-family="Helvetica,sans-Serif" font-size="11.00" fill="#000000">5 &gt;</text>
</a>
</g>
</g>
<!-- documents&#45;&gt;lists -->
<g id="edge5" class="edge">
<title>documents:w&#45;&gt;lists:e</title>
<path fill="none" stroke="#000000" d="M484.8885,-199.8801C457.0388,-197.8423 445.4812,-190.3898 411.5,-190.3898"/>
<polygon fill="#000000" stroke="#000000" points="491.5049,-200.1108 499.3745,-203.9876 495.5024,-200.2503 499.5,-200.3898 499.5,-200.3898 499.5,-200.3898 495.5024,-200.2503 499.6255,-196.7919 491.5049,-200.1108 491.5049,-200.1108"/>
<ellipse fill="none" stroke="#000000" cx="488.3068" cy="-199.9993" rx="3.2" ry="3.2"/>
</g>
<!-- form_encounter&#45;&gt;patient_data -->
<g id="edge7" class="edge">
<title>form_encounter:w&#45;&gt;patient_data:e</title>
<path fill="none" stroke="#000000" d="M291.3375,-112.2691C263.7751,-131.6863 303.1786,-217.3898 256,-217.3898"/>
<polygon fill="#000000" stroke="#000000" points="297.7842,-110.5033 306.4511,-111.8619 301.6421,-109.4465 305.5,-108.3898 305.5,-108.3898 305.5,-108.3898 301.6421,-109.4465 304.5489,-104.9177 297.7842,-110.5033 297.7842,-110.5033"/>
<ellipse fill="none" stroke="#000000" cx="294.6979" cy="-111.3487" rx="3.2" ry="3.2"/>
</g>
<!-- patient_data&#45;&gt;users -->
<g id="edge13" class="edge">
<title>patient_data:w&#45;&gt;users:e</title>
<path fill="none" stroke="#000000" d="M122.154,-206.2877C108.1144,-192.1578 101.3507,-195.8585 83.5,-217.3898"/>
<polygon fill="#000000" stroke="#000000" points="126.6918,-211.4045 129.3066,-219.7784 129.3459,-214.3971 132,-217.3898 132,-217.3898 132,-217.3898 129.3459,-214.3971 134.6934,-215.0011 126.6918,-211.4045 126.6918,-211.4045"/>
<ellipse fill="none" stroke="#000000" cx="124.5686" cy="-209.0103" rx="3.2" ry="3.2"/>
</g>
<!-- patient_data&#45;&gt;users -->
<g id="edge14" class="edge">
<title>patient_data:w&#45;&gt;users:e</title>
<path fill="none" stroke="#000000" d="M119.0917,-210.3915C107.0303,-205.1039 100.0035,-207.4366 83.5,-217.3898"/>
<polygon fill="#000000" stroke="#000000" points="124.9671,-213.5768 130.2842,-220.5546 128.4835,-215.4833 132,-217.3898 132,-217.3898 132,-217.3898 128.4835,-215.4833 133.7158,-214.225 124.9671,-213.5768 124.9671,-213.5768"/>
<ellipse fill="none" stroke="#000000" cx="122.1539" cy="-212.0517" rx="3.2" ry="3.2"/>
</g>
<!-- patient_data&#45;&gt;users -->
<g id="edge15" class="edge">
<title>patient_data:w&#45;&gt;users:e</title>
<path fill="none" stroke="#000000" d="M117.2829,-217.3898C106.2886,-217.3898 99.1615,-217.3898 83.5,-217.3898"/>
<polygon fill="#000000" stroke="#000000" points="124,-217.3898 132,-220.9898 128,-217.3898 132,-217.3898 132,-217.3898 132,-217.3898 128,-217.3898 132,-213.7898 124,-217.3898 124,-217.3898"/>
<ellipse fill="none" stroke="#000000" cx="120.8" cy="-217.3898" rx="3.2" ry="3.2"/>
</g>
<!-- patient_data&#45;&gt;users -->
<g id="edge16" class="edge">
<title>patient_data:w&#45;&gt;users:e</title>
<path fill="none" stroke="#000000" d="M119.0917,-224.3881C107.0303,-229.6757 100.0035,-227.3429 83.5,-217.3898"/>
<polygon fill="#000000" stroke="#000000" points="124.9671,-221.2027 133.7158,-220.5546 128.4835,-219.2962 132,-217.3898 132,-217.3898 132,-217.3898 128.4835,-219.2962 130.2842,-214.225 124.9671,-221.2027 124.9671,-221.2027"/>
<ellipse fill="none" stroke="#000000" cx="122.1539" cy="-222.7279" rx="3.2" ry="3.2"/>
</g>
<!-- patient_data&#45;&gt;users -->
<g id="edge17" class="edge">
<title>patient_data:w&#45;&gt;users:e</title>
<path fill="none" stroke="#000000" d="M122.154,-228.4918C108.1144,-242.6217 101.3507,-238.921 83.5,-217.3898"/>
<polygon fill="#000000" stroke="#000000" points="126.6918,-223.3751 134.6934,-219.7784 129.3459,-220.3824 132,-217.3898 132,-217.3898 132,-217.3898 129.3459,-220.3824 129.3066,-215.0011 126.6918,-223.3751 126.6918,-223.3751"/>
<ellipse fill="none" stroke="#000000" cx="124.5686" cy="-225.7692" rx="3.2" ry="3.2"/>
</g>
<!-- lists&#45;&gt;users -->
<g id="edge9" class="edge">
<title>lists:w&#45;&gt;users:e</title>
<path fill="none" stroke="#000000" d="M330.0726,-189.8725C305.2975,-187.9859 294.6793,-181.4762 264,-179.3898 201.9212,-175.168 181.8576,-156.4964 124,-179.3898 101.0487,-188.4712 108.1827,-217.3898 83.5,-217.3898"/>
<polygon fill="#000000" stroke="#000000" points="336.5051,-190.1031 344.371,-193.9875 340.5026,-190.2464 344.5,-190.3898 344.5,-190.3898 344.5,-190.3898 340.5026,-190.2464 344.629,-186.7921 336.5051,-190.1031 336.5051,-190.1031"/>
<ellipse fill="none" stroke="#000000" cx="333.3072" cy="-189.9884" rx="3.2" ry="3.2"/>
</g>
<!-- lists&#45;&gt;patient_data -->
<g id="edge8" class="edge">
<title>lists:w&#45;&gt;patient_data:e</title>
<path fill="none" stroke="#000000" d="M329.7968,-191.692C301.1007,-197.0854 291.6615,-217.3898 256,-217.3898"/>
<polygon fill="#000000" stroke="#000000" points="336.5312,-191.0956 344.8176,-193.9757 340.5156,-190.7427 344.5,-190.3898 344.5,-190.3898 344.5,-190.3898 340.5156,-190.7427 344.1824,-186.8038 336.5312,-191.0956 336.5312,-191.0956"/>
<ellipse fill="none" stroke="#000000" cx="333.3437" cy="-191.378" rx="3.2" ry="3.2"/>
</g>
<!-- categories_to_documents -->
<g id="node7" class="node">
<title>categories_to_documents</title>
<g id="a_node7"><a xlink:href="../../tables/categories_to_documents.html" xlink:title="categories_to_documents" target="_top">
<polygon fill="#ffffff" stroke="transparent" points="771,-266.3898 771,-356.3898 1029,-356.3898 1029,-266.3898 771,-266.3898"/>
<polygon fill="#f5f5f5" stroke="transparent" points="773,-331.3898 773,-354.3898 1027,-354.3898 1027,-331.3898 773,-331.3898"/>
<polygon fill="none" stroke="#000000" points="773,-331.3898 773,-354.3898 1027,-354.3898 1027,-331.3898 773,-331.3898"/>
<text text-anchor="start" x="778" y="-339.9898" font-family="Helvetica,sans-Serif" font-weight="bold" font-size="11.00" fill="#000000">categories_to_documents</text>
<text text-anchor="start" x="992.0437" y="-339.4898" font-family="Helvetica,sans-Serif" font-size="11.00" fill="#000000">[table]</text>
<polygon fill="none" stroke="#000000" points="773,-309.3898 773,-331.3898 965,-331.3898 965,-309.3898 773,-309.3898"/>
<text text-anchor="start" x="793" y="-316.4898" font-family="Helvetica,sans-Serif" font-size="11.00" fill="#000000">category_id</text>
<polygon fill="none" stroke="#000000" points="965,-309.3898 965,-331.3898 1027,-331.3898 1027,-309.3898 965,-309.3898"/>
<text text-anchor="start" x="967.878" y="-317.0898" font-family="Helvetica,sans-Serif" font-size="11.00" fill="#000000">unknown[0]</text>
<polygon fill="none" stroke="#000000" points="773,-287.3898 773,-309.3898 965,-309.3898 965,-287.3898 773,-287.3898"/>
<image xlink:href="../../images/foreignKeys.png" width="11px" height="12px" preserveAspectRatio="xMinYMin meet" x="778" y="-304.39"/>
<text text-anchor="start" x="793" y="-294.4898" font-family="Helvetica,sans-Serif" font-size="11.00" fill="#000000">document_id</text>
<polygon fill="none" stroke="#000000" points="965,-287.3898 965,-309.3898 1027,-309.3898 1027,-287.3898 965,-287.3898"/>
<text text-anchor="start" x="967.878" y="-295.0898" font-family="Helvetica,sans-Serif" font-size="11.00" fill="#000000">unknown[0]</text>
<polygon fill="#ffffff" stroke="transparent" points="773,-268.3898 773,-287.3898 873,-287.3898 873,-268.3898 773,-268.3898"/>
<polygon fill="none" stroke="#000000" points="773,-268.3898 773,-287.3898 873,-287.3898 873,-268.3898 773,-268.3898"/>
<text text-anchor="start" x="776" y="-274.4898" font-family="Helvetica,sans-Serif" font-size="11.00" fill="#000000">&lt; 1</text>
<polygon fill="#ffffff" stroke="transparent" points="873,-268.3898 873,-287.3898 965,-287.3898 965,-268.3898 873,-268.3898"/>
<polygon fill="none" stroke="#000000" points="873,-268.3898 873,-287.3898 965,-287.3898 965,-268.3898 873,-268.3898"/>
<text text-anchor="start" x="955.8862" y="-274.4898" font-family="Helvetica,sans-Serif" font-size="11.00" fill="#000000"> &#160;</text>
<polygon fill="#ffffff" stroke="transparent" points="965,-268.3898 965,-287.3898 1027,-287.3898 1027,-268.3898 965,-268.3898"/>
<polygon fill="none" stroke="#000000" points="965,-268.3898 965,-287.3898 1027,-287.3898 1027,-268.3898 965,-268.3898"/>
<text text-anchor="start" x="1008.4053" y="-274.4898" font-family="Helvetica,sans-Serif" font-size="11.00" fill="#000000">0 &gt;</text>
<polygon fill="none" stroke="#000000" stroke-width="2" points="772,-267.3898 772,-355.3898 1028,-355.3898 1028,-267.3898 772,-267.3898"/>
</a>
</g>
</g>
<!-- categories_to_documents&#45;&gt;documents -->
<g id="edge10" class="edge">
<title>categories_to_documents:w&#45;&gt;documents:e</title>
<path fill="none" stroke="#000000" d="M758.6211,-300.2648C746.5807,-303.6398 739.8021,-310.3898 722.5,-310.3898"/>
<polygon fill="#000000" stroke="#000000" points="765.0672,-299.4242 773.4655,-301.9595 769.0336,-298.907 773,-298.3898 773,-298.3898 773,-298.3898 769.0336,-298.907 772.5345,-294.82 765.0672,-299.4242 765.0672,-299.4242"/>
<ellipse fill="none" stroke="#000000" cx="761.894" cy="-299.838" rx="3.2" ry="3.2"/>
</g>
<!-- notes -->
<g id="node8" class="node">
<title>notes</title>
<g id="a_node8"><a xlink:href="../../tables/notes.html" xlink:title="notes" target="_top">
<polygon fill="#ffffff" stroke="transparent" points="862,-50.8898 862,-111.8898 938,-111.8898 938,-50.8898 862,-50.8898"/>
<polygon fill="#f5f5f5" stroke="transparent" points="862,-88.3898 862,-111.3898 938,-111.3898 938,-88.3898 862,-88.3898"/>
<polygon fill="none" stroke="#000000" points="862,-88.3898 862,-111.3898 938,-111.3898 938,-88.3898 862,-88.3898"/>
<text text-anchor="start" x="867" y="-96.9898" font-family="Helvetica,sans-Serif" font-weight="bold" font-size="11.00" fill="#000000">notes</text>
<text text-anchor="start" x="903.5219" y="-96.4898" font-family="Helvetica,sans-Serif" font-size="11.00" fill="#000000">[table]</text>
<polygon fill="none" stroke="#000000" points="862,-69.3898 862,-88.3898 938,-88.3898 938,-69.3898 862,-69.3898"/>
<text text-anchor="start" x="865" y="-75.4898" font-family="Helvetica,sans-Serif" font-size="11.00" fill="#000000">...</text>
<polygon fill="#ffffff" stroke="transparent" points="862,-50.3898 862,-69.3898 898,-69.3898 898,-50.3898 862,-50.3898"/>
<polygon fill="none" stroke="#000000" points="862,-50.3898 862,-69.3898 898,-69.3898 898,-50.3898 862,-50.3898"/>
<text text-anchor="start" x="865" y="-56.4898" font-family="Helvetica,sans-Serif" font-size="11.00" fill="#000000">&lt; 2</text>
<polygon fill="#ffffff" stroke="transparent" points="898,-50.3898 898,-69.3898 918,-69.3898 918,-50.3898 898,-50.3898"/>
<polygon fill="none" stroke="#000000" points="898,-50.3898 898,-69.3898 918,-69.3898 918,-50.3898 898,-50.3898"/>
<text text-anchor="start" x="908.8862" y="-56.4898" font-family="Helvetica,sans-Serif" font-size="11.00" fill="#000000"> &#160;</text>
<polygon fill="#ffffff" stroke="transparent" points="918,-50.3898 918,-69.3898 938,-69.3898 938,-50.3898 918,-50.3898"/>
<polygon fill="none" stroke="#000000" points="918,-50.3898 918,-69.3898 938,-69.3898 938,-50.3898 918,-50.3898"/>
<text text-anchor="start" x="928.8862" y="-56.4898" font-family="Helvetica,sans-Serif" font-size="11.00" fill="#000000"> &#160;</text>
</a>
</g>
</g>
<!-- notes&#45;&gt;users -->
<g id="edge12" class="edge">
<title>notes:w&#45;&gt;users:e</title>
<path fill="none" stroke="#000000" d="M847.5852,-77.9806C799.739,-75.1542 784.3394,-58.4902 730,-53.3898 538.2501,-35.3916 481.4089,-14.8442 297,-70.3898 213.2125,-95.6273 190.4744,-107.4825 124,-164.3898 101.4795,-183.6691 113.1456,-217.3898 83.5,-217.3898"/>
<polygon fill="#000000" stroke="#000000" points="854.0032,-78.1627 861.8978,-81.9883 858.0016,-78.2762 862,-78.3898 862,-78.3898 862,-78.3898 858.0016,-78.2762 862.1022,-74.7912 854.0032,-78.1627 854.0032,-78.1627"/>
<ellipse fill="none" stroke="#000000" cx="850.8045" cy="-78.0719" rx="3.2" ry="3.2"/>
</g>
<!-- notes&#45;&gt;documents -->
<g id="edge11" class="edge">
<title>notes:w&#45;&gt;documents:e</title>
<path fill="none" stroke="#000000" d="M847.4386,-79.319C799.7458,-85.8324 791.9791,-125.7743 763,-173.3898 729.9901,-227.6282 785.9938,-310.3898 722.5,-310.3898"/>
<polygon fill="#000000" stroke="#000000" points="854.0162,-78.8993 862.2293,-81.9825 858.0081,-78.6445 862,-78.3898 862,-78.3898 862,-78.3898 858.0081,-78.6445 861.7707,-74.7971 854.0162,-78.8993 854.0162,-78.8993"/>
<ellipse fill="none" stroke="#000000" cx="850.8227" cy="-79.1031" rx="3.2" ry="3.2"/>
</g>
<!-- procedure_result -->
<g id="node9" class="node">
<title>procedure_result</title>
<g id="a_node9"><a xlink:href="../../tables/procedure_result.html" xlink:title="procedure_result" target="_top">
<polygon fill="#ffffff" stroke="transparent" points="823.5,-183.8898 823.5,-244.8898 976.5,-244.8898 976.5,-183.8898 823.5,-183.8898"/>
<polygon fill="#f5f5f5" stroke="transparent" points="824,-221.3898 824,-244.3898 977,-244.3898 977,-221.3898 824,-221.3898"/>
<polygon fill="none" stroke="#000000" points="824,-221.3898 824,-244.3898 977,-244.3898 977,-221.3898 824,-221.3898"/>
<text text-anchor="start" x="829" y="-229.9898" font-family="Helvetica,sans-Serif" font-weight="bold" font-size="11.00" fill="#000000">procedure_result</text>
<text text-anchor="start" x="942.5219" y="-229.4898" font-family="Helvetica,sans-Serif" font-size="11.00" fill="#000000">[table]</text>
<polygon fill="none" stroke="#000000" points="824,-202.3898 824,-221.3898 977,-221.3898 977,-202.3898 824,-202.3898"/>
<text text-anchor="start" x="827" y="-208.4898" font-family="Helvetica,sans-Serif" font-size="11.00" fill="#000000">...</text>
<polygon fill="#ffffff" stroke="transparent" points="824,-183.3898 824,-202.3898 894,-202.3898 894,-183.3898 824,-183.3898"/>
<polygon fill="none" stroke="#000000" points="824,-183.3898 824,-202.3898 894,-202.3898 894,-183.3898 824,-183.3898"/>
<text text-anchor="start" x="827" y="-189.4898" font-family="Helvetica,sans-Serif" font-size="11.00" fill="#000000">&lt; 2</text>
<polygon fill="#ffffff" stroke="transparent" points="894,-183.3898 894,-202.3898 931,-202.3898 931,-183.3898 894,-183.3898"/>
<polygon fill="none" stroke="#000000" points="894,-183.3898 894,-202.3898 931,-202.3898 931,-183.3898 894,-183.3898"/>
<text text-anchor="start" x="921.8862" y="-189.4898" font-family="Helvetica,sans-Serif" font-size="11.00" fill="#000000"> &#160;</text>
<polygon fill="#ffffff" stroke="transparent" points="931,-183.3898 931,-202.3898 977,-202.3898 977,-183.3898 931,-183.3898"/>
<polygon fill="none" stroke="#000000" points="931,-183.3898 931,-202.3898 977,-202.3898 977,-183.3898 931,-183.3898"/>
<text text-anchor="start" x="958.4053" y="-189.4898" font-family="Helvetica,sans-Serif" font-size="11.00" fill="#000000">1 &gt;</text>
</a>
</g>
</g>
<!-- procedure_result&#45;&gt;documents -->
<g id="edge18" class="edge">
<title>procedure_result:w&#45;&gt;documents:e</title>
<path fill="none" stroke="#000000" d="M809.6402,-213.0244C788.6441,-218.4358 782.9927,-236.5547 763,-256.3898 741.703,-277.5188 752.5,-310.3898 722.5,-310.3898"/>
<polygon fill="#000000" stroke="#000000" points="816.0513,-212.2946 824.4072,-214.9667 820.0257,-211.8422 824,-211.3898 824,-211.3898 824,-211.3898 820.0257,-211.8422 823.5928,-207.8129 816.0513,-212.2946 816.0513,-212.2946"/>
<ellipse fill="none" stroke="#000000" cx="812.8719" cy="-212.6566" rx="3.2" ry="3.2"/>
</g>
</g>
</svg>
