<?xml version="1.0" encoding="UTF-8" standalone="no"?>
<!DOCTYPE svg PUBLIC "-//W3C//DTD SVG 1.1//EN"
 "http://www.w3.org/Graphics/SVG/1.1/DTD/svg11.dtd">
<!-- Generated by graphviz version 2.40.1 (20161225.0304)
 -->
<!-- Title: oneDegreeRelationshipsDiagram Pages: 1 -->
<svg width="153pt" height="96pt"
 viewBox="0.00 0.00 152.99 96.20" xmlns="http://www.w3.org/2000/svg" xmlns:xlink="http://www.w3.org/1999/xlink">
<g id="graph0" class="graph" transform="scale(1 1) rotate(0) translate(4 92.2)">
<title>oneDegreeRelationshipsDiagram</title>
<polygon fill="#ffffff" stroke="transparent" points="-4,4 -4,-92.2 148.9871,-92.2 148.9871,4 -4,4"/>
<text text-anchor="middle" x="72.4936" y="-7.3" font-family="Helvetica,sans-Serif" font-size="11.00" fill="#000000">Generated by SchemaSpy</text>
<!-- categories -->
<g id="node1" class="node">
<title>categories</title>
<g id="a_node1"><a xlink:href="../../tables/categories.html" xlink:title="categories" target="_top">
<polygon fill="#ffffff" stroke="transparent" points="15.4936,-38.2 15.4936,-84.2 129.4936,-84.2 129.4936,-38.2 15.4936,-38.2"/>
<polygon fill="#f5f5f5" stroke="transparent" points="17.4936,-59.2 17.4936,-82.2 127.4936,-82.2 127.4936,-59.2 17.4936,-59.2"/>
<polygon fill="none" stroke="#000000" points="17.4936,-59.2 17.4936,-82.2 127.4936,-82.2 127.4936,-59.2 17.4936,-59.2"/>
<text text-anchor="start" x="22.4935" y="-67.8" font-family="Helvetica,sans-Serif" font-weight="bold" font-size="11.00" fill="#000000">categories</text>
<text text-anchor="start" x="93.0154" y="-67.3" font-family="Helvetica,sans-Serif" font-size="11.00" fill="#000000">[table]</text>
<polygon fill="#ffffff" stroke="transparent" points="17.4936,-40.2 17.4936,-59.2 66.4936,-59.2 66.4936,-40.2 17.4936,-40.2"/>
<polygon fill="none" stroke="#000000" points="17.4936,-40.2 17.4936,-59.2 66.4936,-59.2 66.4936,-40.2 17.4936,-40.2"/>
<text text-anchor="start" x="20.4936" y="-46.3" font-family="Helvetica,sans-Serif" font-size="11.00" fill="#000000">&lt; 0</text>
<polygon fill="#ffffff" stroke="transparent" points="66.4936,-40.2 66.4936,-59.2 92.4936,-59.2 92.4936,-40.2 66.4936,-40.2"/>
<polygon fill="none" stroke="#000000" points="66.4936,-40.2 66.4936,-59.2 92.4936,-59.2 92.4936,-40.2 66.4936,-40.2"/>
<text text-anchor="start" x="83.3798" y="-46.3" font-family="Helvetica,sans-Serif" font-size="11.00" fill="#000000"> &#160;</text>
<polygon fill="#ffffff" stroke="transparent" points="92.4936,-40.2 92.4936,-59.2 120.4936,-59.2 120.4936,-40.2 92.4936,-40.2"/>
<polygon fill="none" stroke="#000000" points="92.4936,-40.2 92.4936,-59.2 120.4936,-59.2 120.4936,-40.2 92.4936,-40.2"/>
<text text-anchor="start" x="101.8989" y="-46.3" font-family="Helvetica,sans-Serif" font-size="11.00" fill="#000000">0 &gt;</text>
<polygon fill="none" stroke="#000000" stroke-width="2" points="16.4936,-39.2 16.4936,-83.2 128.4936,-83.2 128.4936,-39.2 16.4936,-39.2"/>
</a>
</g>
</g>
</g>
</svg>
