<?xml version="1.0" encoding="UTF-8" standalone="no"?>
<!DOCTYPE svg PUBLIC "-//W3C//DTD SVG 1.1//EN"
 "http://www.w3.org/Graphics/SVG/1.1/DTD/svg11.dtd">
<!-- Generated by graphviz version 2.40.1 (20161225.0304)
 -->
<!-- Title: oneDegreeRelationshipsDiagram Pages: 1 -->
<svg width="554pt" height="355pt"
 viewBox="0.00 0.00 554.00 354.70" xmlns="http://www.w3.org/2000/svg" xmlns:xlink="http://www.w3.org/1999/xlink">
<g id="graph0" class="graph" transform="scale(1 1) rotate(0) translate(4 350.7)">
<title>oneDegreeRelationshipsDiagram</title>
<polygon fill="#ffffff" stroke="transparent" points="-4,4 -4,-350.7 550,-350.7 550,4 -4,4"/>
<text text-anchor="middle" x="72.4936" y="-7.3" font-family="Helvetica,sans-Serif" font-size="11.00" fill="#000000">Generated by SchemaSpy</text>
<!-- categories_to_documents -->
<g id="node1" class="node">
<title>categories_to_documents</title>
<g id="a_node1"><a xlink:href="../../tables/categories_to_documents.html" xlink:title="categories_to_documents" target="_top">
<polygon fill="#ffffff" stroke="transparent" points="280,-252.7 280,-342.7 538,-342.7 538,-252.7 280,-252.7"/>
<polygon fill="#f5f5f5" stroke="transparent" points="282,-317.7 282,-340.7 536,-340.7 536,-317.7 282,-317.7"/>
<polygon fill="none" stroke="#000000" points="282,-317.7 282,-340.7 536,-340.7 536,-317.7 282,-317.7"/>
<text text-anchor="start" x="287" y="-326.3" font-family="Helvetica,sans-Serif" font-weight="bold" font-size="11.00" fill="#000000">categories_to_documents</text>
<text text-anchor="start" x="501.0437" y="-325.8" font-family="Helvetica,sans-Serif" font-size="11.00" fill="#000000">[table]</text>
<polygon fill="none" stroke="#000000" points="282,-295.7 282,-317.7 474,-317.7 474,-295.7 282,-295.7"/>
<text text-anchor="start" x="302" y="-302.8" font-family="Helvetica,sans-Serif" font-size="11.00" fill="#000000">category_id</text>
<polygon fill="none" stroke="#000000" points="474,-295.7 474,-317.7 536,-317.7 536,-295.7 474,-295.7"/>
<text text-anchor="start" x="476.878" y="-303.4" font-family="Helvetica,sans-Serif" font-size="11.00" fill="#000000">unknown[0]</text>
<polygon fill="none" stroke="#000000" points="282,-273.7 282,-295.7 474,-295.7 474,-273.7 282,-273.7"/>
<image xlink:href="../../images/foreignKeys.png" width="11px" height="12px" preserveAspectRatio="xMinYMin meet" x="287" y="-290.7"/>
<text text-anchor="start" x="302" y="-280.8" font-family="Helvetica,sans-Serif" font-size="11.00" fill="#000000">document_id</text>
<polygon fill="none" stroke="#000000" points="474,-273.7 474,-295.7 536,-295.7 536,-273.7 474,-273.7"/>
<text text-anchor="start" x="476.878" y="-281.4" font-family="Helvetica,sans-Serif" font-size="11.00" fill="#000000">unknown[0]</text>
<polygon fill="#ffffff" stroke="transparent" points="282,-254.7 282,-273.7 382,-273.7 382,-254.7 282,-254.7"/>
<polygon fill="none" stroke="#000000" points="282,-254.7 282,-273.7 382,-273.7 382,-254.7 282,-254.7"/>
<text text-anchor="start" x="285" y="-260.8" font-family="Helvetica,sans-Serif" font-size="11.00" fill="#000000">&lt; 1</text>
<polygon fill="#ffffff" stroke="transparent" points="382,-254.7 382,-273.7 474,-273.7 474,-254.7 382,-254.7"/>
<polygon fill="none" stroke="#000000" points="382,-254.7 382,-273.7 474,-273.7 474,-254.7 382,-254.7"/>
<text text-anchor="start" x="464.8862" y="-260.8" font-family="Helvetica,sans-Serif" font-size="11.00" fill="#000000"> &#160;</text>
<polygon fill="#ffffff" stroke="transparent" points="474,-254.7 474,-273.7 536,-273.7 536,-254.7 474,-254.7"/>
<polygon fill="none" stroke="#000000" points="474,-254.7 474,-273.7 536,-273.7 536,-254.7 474,-254.7"/>
<text text-anchor="start" x="517.4053" y="-260.8" font-family="Helvetica,sans-Serif" font-size="11.00" fill="#000000">0 &gt;</text>
<polygon fill="none" stroke="#000000" stroke-width="2" points="281,-253.7 281,-341.7 537,-341.7 537,-253.7 281,-253.7"/>
</a>
</g>
</g>
<!-- documents -->
<g id="node2" class="node">
<title>documents</title>
<g id="a_node2"><a xlink:href="../../tables/documents.html" xlink:title="documents" target="_top">
<polygon fill="#ffffff" stroke="transparent" points="8,-38.2 8,-319.2 231,-319.2 231,-38.2 8,-38.2"/>
<polygon fill="#f5f5f5" stroke="transparent" points="8.5,-295.7 8.5,-318.7 231.5,-318.7 231.5,-295.7 8.5,-295.7"/>
<polygon fill="none" stroke="#000000" points="8.5,-295.7 8.5,-318.7 231.5,-318.7 231.5,-295.7 8.5,-295.7"/>
<text text-anchor="start" x="13.5" y="-304.3" font-family="Helvetica,sans-Serif" font-weight="bold" font-size="11.00" fill="#000000">documents</text>
<text text-anchor="start" x="196.5437" y="-303.8" font-family="Helvetica,sans-Serif" font-size="11.00" fill="#000000">[table]</text>
<polygon fill="none" stroke="#000000" points="8.5,-273.7 8.5,-295.7 231.5,-295.7 231.5,-273.7 8.5,-273.7"/>
<image xlink:href="../../images/primaryKeys.png" width="11px" height="12px" preserveAspectRatio="xMinYMin meet" x="13.5" y="-290.7"/>
<text text-anchor="start" x="28.5" y="-280.8" font-family="Helvetica,sans-Serif" font-size="11.00" fill="#000000">id</text>
<polygon fill="#ffffff" stroke="transparent" points="8.5,-251.7 8.5,-273.7 231.5,-273.7 231.5,-251.7 8.5,-251.7"/>
<polygon fill="none" stroke="#000000" points="8.5,-251.7 8.5,-273.7 231.5,-273.7 231.5,-251.7 8.5,-251.7"/>
<text text-anchor="start" x="28.5" y="-258.8" font-family="Helvetica,sans-Serif" font-size="11.00" fill="#000000">uuid</text>
<polygon fill="#ffffff" stroke="transparent" points="8.5,-229.7 8.5,-251.7 231.5,-251.7 231.5,-229.7 8.5,-229.7"/>
<polygon fill="none" stroke="#000000" points="8.5,-229.7 8.5,-251.7 231.5,-251.7 231.5,-229.7 8.5,-229.7"/>
<image xlink:href="../../images/foreignKeys.png" width="11px" height="12px" preserveAspectRatio="xMinYMin meet" x="13.5" y="-246.7"/>
<text text-anchor="start" x="28.5" y="-236.8" font-family="Helvetica,sans-Serif" font-size="11.00" fill="#000000">owner</text>
<polygon fill="#ffffff" stroke="transparent" points="8.5,-207.7 8.5,-229.7 231.5,-229.7 231.5,-207.7 8.5,-207.7"/>
<polygon fill="none" stroke="#000000" points="8.5,-207.7 8.5,-229.7 231.5,-229.7 231.5,-207.7 8.5,-207.7"/>
<text text-anchor="start" x="28.5" y="-214.8" font-family="Helvetica,sans-Serif" font-size="11.00" fill="#000000">revision</text>
<polygon fill="#ffffff" stroke="transparent" points="8.5,-185.7 8.5,-207.7 231.5,-207.7 231.5,-185.7 8.5,-185.7"/>
<polygon fill="none" stroke="#000000" points="8.5,-185.7 8.5,-207.7 231.5,-207.7 231.5,-185.7 8.5,-185.7"/>
<image xlink:href="../../images/foreignKeys.png" width="11px" height="12px" preserveAspectRatio="xMinYMin meet" x="13.5" y="-202.7"/>
<text text-anchor="start" x="28.5" y="-192.8" font-family="Helvetica,sans-Serif" font-size="11.00" fill="#000000">foreign_id</text>
<polygon fill="none" stroke="#000000" points="8.5,-163.7 8.5,-185.7 231.5,-185.7 231.5,-163.7 8.5,-163.7"/>
<image xlink:href="../../images/foreignKeys.png" width="11px" height="12px" preserveAspectRatio="xMinYMin meet" x="13.5" y="-180.7"/>
<text text-anchor="start" x="28.5" y="-170.8" font-family="Helvetica,sans-Serif" font-size="11.00" fill="#000000">list_id</text>
<polygon fill="#ffffff" stroke="transparent" points="8.5,-141.7 8.5,-163.7 231.5,-163.7 231.5,-141.7 8.5,-141.7"/>
<polygon fill="none" stroke="#000000" points="8.5,-141.7 8.5,-163.7 231.5,-163.7 231.5,-141.7 8.5,-141.7"/>
<text text-anchor="start" x="28.5" y="-148.8" font-family="Helvetica,sans-Serif" font-size="11.00" fill="#000000">drive_uuid</text>
<polygon fill="none" stroke="#000000" points="8.5,-119.7 8.5,-141.7 231.5,-141.7 231.5,-119.7 8.5,-119.7"/>
<image xlink:href="../../images/foreignKeys.png" width="11px" height="12px" preserveAspectRatio="xMinYMin meet" x="13.5" y="-136.7"/>
<text text-anchor="start" x="28.5" y="-126.8" font-family="Helvetica,sans-Serif" font-size="11.00" fill="#000000">encounter_id</text>
<polygon fill="#ffffff" stroke="transparent" points="8.5,-97.7 8.5,-119.7 231.5,-119.7 231.5,-97.7 8.5,-97.7"/>
<polygon fill="none" stroke="#000000" points="8.5,-97.7 8.5,-119.7 231.5,-119.7 231.5,-97.7 8.5,-97.7"/>
<text text-anchor="start" x="28.5" y="-104.8" font-family="Helvetica,sans-Serif" font-size="11.00" fill="#000000">foreign_reference_id</text>
<polygon fill="#ffffff" stroke="transparent" points="8.5,-75.7 8.5,-97.7 231.5,-97.7 231.5,-75.7 8.5,-75.7"/>
<polygon fill="none" stroke="#000000" points="8.5,-75.7 8.5,-97.7 231.5,-97.7 231.5,-75.7 8.5,-75.7"/>
<text text-anchor="start" x="28.5" y="-82.8" font-family="Helvetica,sans-Serif" font-size="11.00" fill="#000000">foreign_reference_table</text>
<polygon fill="none" stroke="#000000" points="8.5,-56.7 8.5,-75.7 231.5,-75.7 231.5,-56.7 8.5,-56.7"/>
<text text-anchor="start" x="11.5" y="-62.8" font-family="Helvetica,sans-Serif" font-size="11.00" fill="#000000">...</text>
<polygon fill="#ffffff" stroke="transparent" points="8.5,-37.7 8.5,-56.7 113.5,-56.7 113.5,-37.7 8.5,-37.7"/>
<polygon fill="none" stroke="#000000" points="8.5,-37.7 8.5,-56.7 113.5,-56.7 113.5,-37.7 8.5,-37.7"/>
<text text-anchor="start" x="11.5" y="-43.8" font-family="Helvetica,sans-Serif" font-size="11.00" fill="#000000">&lt; 4</text>
<polygon fill="#ffffff" stroke="transparent" points="113.5,-37.7 113.5,-56.7 167.5,-56.7 167.5,-37.7 113.5,-37.7"/>
<polygon fill="none" stroke="#000000" points="113.5,-37.7 113.5,-56.7 167.5,-56.7 167.5,-37.7 113.5,-37.7"/>
<text text-anchor="start" x="158.3862" y="-43.8" font-family="Helvetica,sans-Serif" font-size="11.00" fill="#000000"> &#160;</text>
<polygon fill="#ffffff" stroke="transparent" points="167.5,-37.7 167.5,-56.7 231.5,-56.7 231.5,-37.7 167.5,-37.7"/>
<polygon fill="none" stroke="#000000" points="167.5,-37.7 167.5,-56.7 231.5,-56.7 231.5,-37.7 167.5,-37.7"/>
<text text-anchor="start" x="212.9053" y="-43.8" font-family="Helvetica,sans-Serif" font-size="11.00" fill="#000000">4 &gt;</text>
</a>
</g>
</g>
<!-- categories_to_documents&#45;&gt;documents -->
<g id="edge1" class="edge">
<title>categories_to_documents:w&#45;&gt;documents:e</title>
<path fill="none" stroke="#000000" d="M267.4203,-284.7C255.5435,-284.7 248.158,-284.7 231.5,-284.7"/>
<polygon fill="#000000" stroke="#000000" points="274,-284.7001 282,-288.3 278,-284.7 282,-284.7 282,-284.7 282,-284.7 278,-284.7 282,-281.1 274,-284.7001 274,-284.7001"/>
<ellipse fill="none" stroke="#000000" cx="270.8" cy="-284.7001" rx="3.2" ry="3.2"/>
</g>
</g>
</svg>
