<?xml version="1.0" encoding="UTF-8" standalone="no"?>
<!DOCTYPE svg PUBLIC "-//W3C//DTD SVG 1.1//EN"
 "http://www.w3.org/Graphics/SVG/1.1/DTD/svg11.dtd">
<!-- Generated by graphviz version 2.40.1 (20161225.0304)
 -->
<!-- Title: oneDegreeRelationshipsDiagram Pages: 1 -->
<svg width="826pt" height="641pt"
 viewBox="0.00 0.00 826.00 640.70" xmlns="http://www.w3.org/2000/svg" xmlns:xlink="http://www.w3.org/1999/xlink">
<g id="graph0" class="graph" transform="scale(1 1) rotate(0) translate(4 636.7)">
<title>oneDegreeRelationshipsDiagram</title>
<polygon fill="#ffffff" stroke="transparent" points="-4,4 -4,-636.7 822,-636.7 822,4 -4,4"/>
<text text-anchor="middle" x="72.4936" y="-7.3" font-family="Helvetica,sans-Serif" font-size="11.00" fill="#000000">Generated by SchemaSpy</text>
<!-- claims -->
<g id="node1" class="node">
<title>claims</title>
<g id="a_node1"><a xlink:href="../../tables/claims.html" xlink:title="claims" target="_top">
<polygon fill="#ffffff" stroke="transparent" points="591,-38.2 591,-370.2 810,-370.2 810,-38.2 591,-38.2"/>
<polygon fill="#f5f5f5" stroke="transparent" points="593.5,-345.2 593.5,-368.2 808.5,-368.2 808.5,-345.2 593.5,-345.2"/>
<polygon fill="none" stroke="#000000" points="593.5,-345.2 593.5,-368.2 808.5,-368.2 808.5,-345.2 593.5,-345.2"/>
<text text-anchor="start" x="598.5" y="-353.8" font-family="Helvetica,sans-Serif" font-weight="bold" font-size="11.00" fill="#000000">claims</text>
<text text-anchor="start" x="773.5437" y="-353.3" font-family="Helvetica,sans-Serif" font-size="11.00" fill="#000000">[table]</text>
<polygon fill="none" stroke="#000000" points="593.5,-323.2 593.5,-345.2 725.5,-345.2 725.5,-323.2 593.5,-323.2"/>
<image xlink:href="../../images/primaryKeys.png" width="11px" height="12px" preserveAspectRatio="xMinYMin meet" x="598.5" y="-340.2"/>
<text text-anchor="start" x="613.5" y="-330.3" font-family="Helvetica,sans-Serif" font-size="11.00" fill="#000000">patient_id</text>
<polygon fill="none" stroke="#000000" points="725.5,-323.2 725.5,-345.2 808.5,-345.2 808.5,-323.2 725.5,-323.2"/>
<text text-anchor="start" x="728.5" y="-330.9" font-family="Helvetica,sans-Serif" font-size="11.00" fill="#000000">bigint[19]</text>
<polygon fill="none" stroke="#000000" points="593.5,-301.2 593.5,-323.2 725.5,-323.2 725.5,-301.2 593.5,-301.2"/>
<image xlink:href="../../images/primaryKeys.png" width="11px" height="12px" preserveAspectRatio="xMinYMin meet" x="598.5" y="-318.2"/>
<text text-anchor="start" x="613.5" y="-308.3" font-family="Helvetica,sans-Serif" font-size="11.00" fill="#000000">encounter_id</text>
<polygon fill="none" stroke="#000000" points="725.5,-301.2 725.5,-323.2 808.5,-323.2 808.5,-301.2 725.5,-301.2"/>
<text text-anchor="start" x="728.5" y="-308.9" font-family="Helvetica,sans-Serif" font-size="11.00" fill="#000000">int[10]</text>
<polygon fill="none" stroke="#000000" points="593.5,-279.2 593.5,-301.2 725.5,-301.2 725.5,-279.2 593.5,-279.2"/>
<image xlink:href="../../images/primaryKeys.png" width="11px" height="12px" preserveAspectRatio="xMinYMin meet" x="598.5" y="-296.2"/>
<text text-anchor="start" x="613.5" y="-286.3" font-family="Helvetica,sans-Serif" font-size="11.00" fill="#000000">version</text>
<polygon fill="none" stroke="#000000" points="725.5,-279.2 725.5,-301.2 808.5,-301.2 808.5,-279.2 725.5,-279.2"/>
<text text-anchor="start" x="728.1783" y="-286.9" font-family="Helvetica,sans-Serif" font-size="11.00" fill="#000000">int unsigned[10]</text>
<polygon fill="none" stroke="#000000" points="593.5,-257.2 593.5,-279.2 725.5,-279.2 725.5,-257.2 593.5,-257.2"/>
<image xlink:href="../../images/foreignKeys.png" width="11px" height="12px" preserveAspectRatio="xMinYMin meet" x="598.5" y="-274.2"/>
<text text-anchor="start" x="613.5" y="-264.3" font-family="Helvetica,sans-Serif" font-size="11.00" fill="#000000">payer_id</text>
<polygon fill="none" stroke="#000000" points="725.5,-257.2 725.5,-279.2 808.5,-279.2 808.5,-257.2 725.5,-257.2"/>
<text text-anchor="start" x="728.5" y="-264.9" font-family="Helvetica,sans-Serif" font-size="11.00" fill="#000000">int[10]</text>
<polygon fill="none" stroke="#000000" points="593.5,-235.2 593.5,-257.2 725.5,-257.2 725.5,-235.2 593.5,-235.2"/>
<text text-anchor="start" x="613.5" y="-242.3" font-family="Helvetica,sans-Serif" font-size="11.00" fill="#000000">status</text>
<polygon fill="none" stroke="#000000" points="725.5,-235.2 725.5,-257.2 808.5,-257.2 808.5,-235.2 725.5,-235.2"/>
<text text-anchor="start" x="728.5" y="-242.9" font-family="Helvetica,sans-Serif" font-size="11.00" fill="#000000">tinyint[3]</text>
<polygon fill="none" stroke="#000000" points="593.5,-213.2 593.5,-235.2 725.5,-235.2 725.5,-213.2 593.5,-213.2"/>
<text text-anchor="start" x="613.5" y="-220.3" font-family="Helvetica,sans-Serif" font-size="11.00" fill="#000000">payer_type</text>
<polygon fill="none" stroke="#000000" points="725.5,-213.2 725.5,-235.2 808.5,-235.2 808.5,-213.2 725.5,-213.2"/>
<text text-anchor="start" x="728.5" y="-220.9" font-family="Helvetica,sans-Serif" font-size="11.00" fill="#000000">tinyint[3]</text>
<polygon fill="none" stroke="#000000" points="593.5,-191.2 593.5,-213.2 725.5,-213.2 725.5,-191.2 593.5,-191.2"/>
<text text-anchor="start" x="613.5" y="-198.3" font-family="Helvetica,sans-Serif" font-size="11.00" fill="#000000">bill_process</text>
<polygon fill="none" stroke="#000000" points="725.5,-191.2 725.5,-213.2 808.5,-213.2 808.5,-191.2 725.5,-191.2"/>
<text text-anchor="start" x="728.5" y="-198.9" font-family="Helvetica,sans-Serif" font-size="11.00" fill="#000000">tinyint[3]</text>
<polygon fill="none" stroke="#000000" points="593.5,-169.2 593.5,-191.2 725.5,-191.2 725.5,-169.2 593.5,-169.2"/>
<text text-anchor="start" x="613.5" y="-176.3" font-family="Helvetica,sans-Serif" font-size="11.00" fill="#000000">bill_time</text>
<polygon fill="none" stroke="#000000" points="725.5,-169.2 725.5,-191.2 808.5,-191.2 808.5,-169.2 725.5,-169.2"/>
<text text-anchor="start" x="728.5" y="-176.9" font-family="Helvetica,sans-Serif" font-size="11.00" fill="#000000">datetime[19]</text>
<polygon fill="none" stroke="#000000" points="593.5,-147.2 593.5,-169.2 725.5,-169.2 725.5,-147.2 593.5,-147.2"/>
<text text-anchor="start" x="613.5" y="-154.3" font-family="Helvetica,sans-Serif" font-size="11.00" fill="#000000">process_time</text>
<polygon fill="none" stroke="#000000" points="725.5,-147.2 725.5,-169.2 808.5,-169.2 808.5,-147.2 725.5,-147.2"/>
<text text-anchor="start" x="728.5" y="-154.9" font-family="Helvetica,sans-Serif" font-size="11.00" fill="#000000">datetime[19]</text>
<polygon fill="none" stroke="#000000" points="593.5,-125.2 593.5,-147.2 725.5,-147.2 725.5,-125.2 593.5,-125.2"/>
<text text-anchor="start" x="613.5" y="-132.3" font-family="Helvetica,sans-Serif" font-size="11.00" fill="#000000">process_file</text>
<polygon fill="none" stroke="#000000" points="725.5,-125.2 725.5,-147.2 808.5,-147.2 808.5,-125.2 725.5,-125.2"/>
<text text-anchor="start" x="728.5" y="-132.9" font-family="Helvetica,sans-Serif" font-size="11.00" fill="#000000">varchar[255]</text>
<polygon fill="none" stroke="#000000" points="593.5,-103.2 593.5,-125.2 725.5,-125.2 725.5,-103.2 593.5,-103.2"/>
<text text-anchor="start" x="613.5" y="-110.3" font-family="Helvetica,sans-Serif" font-size="11.00" fill="#000000">target</text>
<polygon fill="none" stroke="#000000" points="725.5,-103.2 725.5,-125.2 808.5,-125.2 808.5,-103.2 725.5,-103.2"/>
<text text-anchor="start" x="728.5" y="-110.9" font-family="Helvetica,sans-Serif" font-size="11.00" fill="#000000">varchar[30]</text>
<polygon fill="none" stroke="#000000" points="593.5,-81.2 593.5,-103.2 725.5,-103.2 725.5,-81.2 593.5,-81.2"/>
<text text-anchor="start" x="613.5" y="-88.3" font-family="Helvetica,sans-Serif" font-size="11.00" fill="#000000">x12_partner_id</text>
<polygon fill="none" stroke="#000000" points="725.5,-81.2 725.5,-103.2 808.5,-103.2 808.5,-81.2 725.5,-81.2"/>
<text text-anchor="start" x="728.5" y="-88.9" font-family="Helvetica,sans-Serif" font-size="11.00" fill="#000000">int[10]</text>
<polygon fill="none" stroke="#000000" points="593.5,-59.2 593.5,-81.2 725.5,-81.2 725.5,-59.2 593.5,-59.2"/>
<text text-anchor="start" x="613.5" y="-66.3" font-family="Helvetica,sans-Serif" font-size="11.00" fill="#000000">submitted_claim</text>
<polygon fill="none" stroke="#000000" points="725.5,-59.2 725.5,-81.2 808.5,-81.2 808.5,-59.2 725.5,-59.2"/>
<text text-anchor="start" x="728.5" y="-66.9" font-family="Helvetica,sans-Serif" font-size="11.00" fill="#000000">text[65535]</text>
<polygon fill="#ffffff" stroke="transparent" points="593.5,-40.2 593.5,-59.2 663.5,-59.2 663.5,-40.2 593.5,-40.2"/>
<polygon fill="none" stroke="#000000" points="593.5,-40.2 593.5,-59.2 663.5,-59.2 663.5,-40.2 593.5,-40.2"/>
<text text-anchor="start" x="596.5" y="-46.3" font-family="Helvetica,sans-Serif" font-size="11.00" fill="#000000">&lt; 3</text>
<polygon fill="#ffffff" stroke="transparent" points="663.5,-40.2 663.5,-59.2 725.5,-59.2 725.5,-40.2 663.5,-40.2"/>
<polygon fill="none" stroke="#000000" points="663.5,-40.2 663.5,-59.2 725.5,-59.2 725.5,-40.2 663.5,-40.2"/>
<text text-anchor="start" x="716.3862" y="-46.3" font-family="Helvetica,sans-Serif" font-size="11.00" fill="#000000"> &#160;</text>
<polygon fill="#ffffff" stroke="transparent" points="725.5,-40.2 725.5,-59.2 808.5,-59.2 808.5,-40.2 725.5,-40.2"/>
<polygon fill="none" stroke="#000000" points="725.5,-40.2 725.5,-59.2 808.5,-59.2 808.5,-40.2 725.5,-40.2"/>
<text text-anchor="start" x="789.9053" y="-46.3" font-family="Helvetica,sans-Serif" font-size="11.00" fill="#000000">0 &gt;</text>
<polygon fill="none" stroke="#000000" stroke-width="2" points="592,-39.2 592,-369.2 809,-369.2 809,-39.2 592,-39.2"/>
</a>
</g>
</g>
<!-- form_encounter -->
<g id="node2" class="node">
<title>form_encounter</title>
<g id="a_node2"><a xlink:href="../../tables/form_encounter.html" xlink:title="form_encounter" target="_top">
<polygon fill="#ffffff" stroke="transparent" points="334,-263.7 334,-434.7 542,-434.7 542,-263.7 334,-263.7"/>
<polygon fill="#f5f5f5" stroke="transparent" points="334,-411.2 334,-434.2 542,-434.2 542,-411.2 334,-411.2"/>
<polygon fill="none" stroke="#000000" points="334,-411.2 334,-434.2 542,-434.2 542,-411.2 334,-411.2"/>
<text text-anchor="start" x="339" y="-419.8" font-family="Helvetica,sans-Serif" font-weight="bold" font-size="11.00" fill="#000000">form_encounter</text>
<text text-anchor="start" x="507.0437" y="-419.3" font-family="Helvetica,sans-Serif" font-size="11.00" fill="#000000">[table]</text>
<polygon fill="none" stroke="#000000" points="334,-389.2 334,-411.2 542,-411.2 542,-389.2 334,-389.2"/>
<image xlink:href="../../images/primaryKeys.png" width="11px" height="12px" preserveAspectRatio="xMinYMin meet" x="339" y="-406.2"/>
<text text-anchor="start" x="354" y="-396.3" font-family="Helvetica,sans-Serif" font-size="11.00" fill="#000000">id</text>
<polygon fill="#ffffff" stroke="transparent" points="334,-367.2 334,-389.2 542,-389.2 542,-367.2 334,-367.2"/>
<polygon fill="none" stroke="#000000" points="334,-367.2 334,-389.2 542,-389.2 542,-367.2 334,-367.2"/>
<text text-anchor="start" x="354" y="-374.3" font-family="Helvetica,sans-Serif" font-size="11.00" fill="#000000">uuid</text>
<polygon fill="#ffffff" stroke="transparent" points="334,-345.2 334,-367.2 542,-367.2 542,-345.2 334,-345.2"/>
<polygon fill="none" stroke="#000000" points="334,-345.2 334,-367.2 542,-367.2 542,-345.2 334,-345.2"/>
<text text-anchor="start" x="354" y="-352.3" font-family="Helvetica,sans-Serif" font-size="11.00" fill="#000000">date</text>
<polygon fill="#ffffff" stroke="transparent" points="334,-323.2 334,-345.2 542,-345.2 542,-323.2 334,-323.2"/>
<polygon fill="none" stroke="#000000" points="334,-323.2 334,-345.2 542,-345.2 542,-323.2 334,-323.2"/>
<image xlink:href="../../images/foreignKeys.png" width="11px" height="12px" preserveAspectRatio="xMinYMin meet" x="339" y="-340.2"/>
<text text-anchor="start" x="354" y="-330.3" font-family="Helvetica,sans-Serif" font-size="11.00" fill="#000000">pid</text>
<polygon fill="none" stroke="#000000" points="334,-301.2 334,-323.2 542,-323.2 542,-301.2 334,-301.2"/>
<image xlink:href="../../images/primaryKeys.png" width="11px" height="12px" preserveAspectRatio="xMinYMin meet" x="339" y="-318.2"/>
<text text-anchor="start" x="354" y="-308.3" font-family="Helvetica,sans-Serif" font-size="11.00" fill="#000000">encounter</text>
<polygon fill="none" stroke="#000000" points="334,-282.2 334,-301.2 542,-301.2 542,-282.2 334,-282.2"/>
<text text-anchor="start" x="337" y="-288.3" font-family="Helvetica,sans-Serif" font-size="11.00" fill="#000000">...</text>
<polygon fill="#ffffff" stroke="transparent" points="334,-263.2 334,-282.2 429,-282.2 429,-263.2 334,-263.2"/>
<polygon fill="none" stroke="#000000" points="334,-263.2 334,-282.2 429,-282.2 429,-263.2 334,-263.2"/>
<text text-anchor="start" x="337" y="-269.3" font-family="Helvetica,sans-Serif" font-size="11.00" fill="#000000">&lt; 1</text>
<polygon fill="#ffffff" stroke="transparent" points="429,-263.2 429,-282.2 478,-282.2 478,-263.2 429,-263.2"/>
<polygon fill="none" stroke="#000000" points="429,-263.2 429,-282.2 478,-282.2 478,-263.2 429,-263.2"/>
<text text-anchor="start" x="468.8862" y="-269.3" font-family="Helvetica,sans-Serif" font-size="11.00" fill="#000000"> &#160;</text>
<polygon fill="#ffffff" stroke="transparent" points="478,-263.2 478,-282.2 542,-282.2 542,-263.2 478,-263.2"/>
<polygon fill="none" stroke="#000000" points="478,-263.2 478,-282.2 542,-282.2 542,-263.2 478,-263.2"/>
<text text-anchor="start" x="517.2904" y="-269.3" font-family="Helvetica,sans-Serif" font-size="11.00" fill="#000000">19 &gt;</text>
</a>
</g>
</g>
<!-- claims&#45;&gt;form_encounter -->
<g id="edge1" class="edge">
<title>claims:w&#45;&gt;form_encounter:e</title>
<path fill="none" stroke="#000000" d="M579.0156,-312.2C566.6771,-312.2 559.1667,-312.2 542,-312.2"/>
<polygon fill="#000000" stroke="#000000" points="585.5,-312.2001 593.5,-315.8 589.5,-312.2 593.5,-312.2 593.5,-312.2 593.5,-312.2 589.5,-312.2 593.5,-308.6 585.5,-312.2001 585.5,-312.2001"/>
<ellipse fill="none" stroke="#000000" cx="582.3" cy="-312.2001" rx="3.2" ry="3.2"/>
</g>
<!-- patient_data -->
<g id="node3" class="node">
<title>patient_data</title>
<g id="a_node3"><a xlink:href="../../tables/patient_data.html" xlink:title="patient_data" target="_top">
<polygon fill="#ffffff" stroke="transparent" points="8,-237.7 8,-628.7 285,-628.7 285,-237.7 8,-237.7"/>
<polygon fill="#f5f5f5" stroke="transparent" points="8.5,-605.2 8.5,-628.2 285.5,-628.2 285.5,-605.2 8.5,-605.2"/>
<polygon fill="none" stroke="#000000" points="8.5,-605.2 8.5,-628.2 285.5,-628.2 285.5,-605.2 8.5,-605.2"/>
<text text-anchor="start" x="13.5" y="-613.8" font-family="Helvetica,sans-Serif" font-weight="bold" font-size="11.00" fill="#000000">patient_data</text>
<text text-anchor="start" x="250.5437" y="-613.3" font-family="Helvetica,sans-Serif" font-size="11.00" fill="#000000">[table]</text>
<polygon fill="none" stroke="#000000" points="8.5,-583.2 8.5,-605.2 285.5,-605.2 285.5,-583.2 8.5,-583.2"/>
<image xlink:href="../../images/primaryKeys.png" width="11px" height="12px" preserveAspectRatio="xMinYMin meet" x="13.5" y="-600.2"/>
<text text-anchor="start" x="28.5" y="-590.3" font-family="Helvetica,sans-Serif" font-size="11.00" fill="#000000">id</text>
<polygon fill="#ffffff" stroke="transparent" points="8.5,-561.2 8.5,-583.2 285.5,-583.2 285.5,-561.2 8.5,-561.2"/>
<polygon fill="none" stroke="#000000" points="8.5,-561.2 8.5,-583.2 285.5,-583.2 285.5,-561.2 8.5,-561.2"/>
<text text-anchor="start" x="28.5" y="-568.3" font-family="Helvetica,sans-Serif" font-size="11.00" fill="#000000">uuid</text>
<polygon fill="#ffffff" stroke="transparent" points="8.5,-539.2 8.5,-561.2 285.5,-561.2 285.5,-539.2 8.5,-539.2"/>
<polygon fill="none" stroke="#000000" points="8.5,-539.2 8.5,-561.2 285.5,-561.2 285.5,-539.2 8.5,-539.2"/>
<text text-anchor="start" x="28.5" y="-546.3" font-family="Helvetica,sans-Serif" font-size="11.00" fill="#000000">fname</text>
<polygon fill="#ffffff" stroke="transparent" points="8.5,-517.2 8.5,-539.2 285.5,-539.2 285.5,-517.2 8.5,-517.2"/>
<polygon fill="none" stroke="#000000" points="8.5,-517.2 8.5,-539.2 285.5,-539.2 285.5,-517.2 8.5,-517.2"/>
<text text-anchor="start" x="28.5" y="-524.3" font-family="Helvetica,sans-Serif" font-size="11.00" fill="#000000">lname</text>
<polygon fill="#ffffff" stroke="transparent" points="8.5,-495.2 8.5,-517.2 285.5,-517.2 285.5,-495.2 8.5,-495.2"/>
<polygon fill="none" stroke="#000000" points="8.5,-495.2 8.5,-517.2 285.5,-517.2 285.5,-495.2 8.5,-495.2"/>
<text text-anchor="start" x="28.5" y="-502.3" font-family="Helvetica,sans-Serif" font-size="11.00" fill="#000000">DOB</text>
<polygon fill="none" stroke="#000000" points="8.5,-473.2 8.5,-495.2 285.5,-495.2 285.5,-473.2 8.5,-473.2"/>
<image xlink:href="../../images/foreignKeys.png" width="11px" height="12px" preserveAspectRatio="xMinYMin meet" x="13.5" y="-490.2"/>
<text text-anchor="start" x="28.5" y="-480.3" font-family="Helvetica,sans-Serif" font-size="11.00" fill="#000000">pharmacy_id</text>
<polygon fill="none" stroke="#000000" points="8.5,-451.2 8.5,-473.2 285.5,-473.2 285.5,-451.2 8.5,-451.2"/>
<image xlink:href="../../images/foreignKeys.png" width="11px" height="12px" preserveAspectRatio="xMinYMin meet" x="13.5" y="-468.2"/>
<text text-anchor="start" x="28.5" y="-458.3" font-family="Helvetica,sans-Serif" font-size="11.00" fill="#000000">providerID</text>
<polygon fill="none" stroke="#000000" points="8.5,-429.2 8.5,-451.2 285.5,-451.2 285.5,-429.2 8.5,-429.2"/>
<image xlink:href="../../images/foreignKeys.png" width="11px" height="12px" preserveAspectRatio="xMinYMin meet" x="13.5" y="-446.2"/>
<text text-anchor="start" x="28.5" y="-436.3" font-family="Helvetica,sans-Serif" font-size="11.00" fill="#000000">ref_providerID</text>
<polygon fill="none" stroke="#000000" points="8.5,-407.2 8.5,-429.2 285.5,-429.2 285.5,-407.2 8.5,-407.2"/>
<image xlink:href="../../images/foreignKeys.png" width="11px" height="12px" preserveAspectRatio="xMinYMin meet" x="13.5" y="-424.2"/>
<text text-anchor="start" x="28.5" y="-414.3" font-family="Helvetica,sans-Serif" font-size="11.00" fill="#000000">interpreter_needed</text>
<polygon fill="none" stroke="#000000" points="8.5,-385.2 8.5,-407.2 285.5,-407.2 285.5,-385.2 8.5,-385.2"/>
<image xlink:href="../../images/primaryKeys.png" width="11px" height="12px" preserveAspectRatio="xMinYMin meet" x="13.5" y="-402.2"/>
<text text-anchor="start" x="28.5" y="-392.3" font-family="Helvetica,sans-Serif" font-size="11.00" fill="#000000">pid</text>
<polygon fill="none" stroke="#000000" points="8.5,-363.2 8.5,-385.2 285.5,-385.2 285.5,-363.2 8.5,-363.2"/>
<image xlink:href="../../images/foreignKeys.png" width="11px" height="12px" preserveAspectRatio="xMinYMin meet" x="13.5" y="-380.2"/>
<text text-anchor="start" x="28.5" y="-370.3" font-family="Helvetica,sans-Serif" font-size="11.00" fill="#000000">advance_directive_user_authenticator</text>
<polygon fill="none" stroke="#000000" points="8.5,-341.2 8.5,-363.2 285.5,-363.2 285.5,-341.2 8.5,-341.2"/>
<image xlink:href="../../images/foreignKeys.png" width="11px" height="12px" preserveAspectRatio="xMinYMin meet" x="13.5" y="-358.2"/>
<text text-anchor="start" x="28.5" y="-348.3" font-family="Helvetica,sans-Serif" font-size="11.00" fill="#000000">created_by</text>
<polygon fill="none" stroke="#000000" points="8.5,-319.2 8.5,-341.2 285.5,-341.2 285.5,-319.2 8.5,-319.2"/>
<image xlink:href="../../images/foreignKeys.png" width="11px" height="12px" preserveAspectRatio="xMinYMin meet" x="13.5" y="-336.2"/>
<text text-anchor="start" x="28.5" y="-326.3" font-family="Helvetica,sans-Serif" font-size="11.00" fill="#000000">updated_by</text>
<polygon fill="none" stroke="#000000" points="8.5,-297.2 8.5,-319.2 285.5,-319.2 285.5,-297.2 8.5,-297.2"/>
<image xlink:href="../../images/foreignKeys.png" width="11px" height="12px" preserveAspectRatio="xMinYMin meet" x="13.5" y="-314.2"/>
<text text-anchor="start" x="28.5" y="-304.3" font-family="Helvetica,sans-Serif" font-size="11.00" fill="#000000">tribal_affiliations</text>
<polygon fill="none" stroke="#000000" points="8.5,-275.2 8.5,-297.2 285.5,-297.2 285.5,-275.2 8.5,-275.2"/>
<image xlink:href="../../images/foreignKeys.png" width="11px" height="12px" preserveAspectRatio="xMinYMin meet" x="13.5" y="-292.2"/>
<text text-anchor="start" x="28.5" y="-282.3" font-family="Helvetica,sans-Serif" font-size="11.00" fill="#000000">sex_identified</text>
<polygon fill="none" stroke="#000000" points="8.5,-256.2 8.5,-275.2 285.5,-275.2 285.5,-256.2 8.5,-256.2"/>
<text text-anchor="start" x="11.5" y="-262.3" font-family="Helvetica,sans-Serif" font-size="11.00" fill="#000000">...</text>
<polygon fill="#ffffff" stroke="transparent" points="8.5,-237.2 8.5,-256.2 137.5,-256.2 137.5,-237.2 8.5,-237.2"/>
<polygon fill="none" stroke="#000000" points="8.5,-237.2 8.5,-256.2 137.5,-256.2 137.5,-237.2 8.5,-237.2"/>
<text text-anchor="start" x="11.5" y="-243.3" font-family="Helvetica,sans-Serif" font-size="11.00" fill="#000000">&lt; 9</text>
<polygon fill="#ffffff" stroke="transparent" points="137.5,-237.2 137.5,-256.2 203.5,-256.2 203.5,-237.2 137.5,-237.2"/>
<polygon fill="none" stroke="#000000" points="137.5,-237.2 137.5,-256.2 203.5,-256.2 203.5,-237.2 137.5,-237.2"/>
<text text-anchor="start" x="194.3862" y="-243.3" font-family="Helvetica,sans-Serif" font-size="11.00" fill="#000000"> &#160;</text>
<polygon fill="#ffffff" stroke="transparent" points="203.5,-237.2 203.5,-256.2 285.5,-256.2 285.5,-237.2 203.5,-237.2"/>
<polygon fill="none" stroke="#000000" points="203.5,-237.2 203.5,-256.2 285.5,-256.2 285.5,-237.2 203.5,-237.2"/>
<text text-anchor="start" x="260.7904" y="-243.3" font-family="Helvetica,sans-Serif" font-size="11.00" fill="#000000">95 &gt;</text>
</a>
</g>
</g>
<!-- claims&#45;&gt;patient_data -->
<g id="edge2" class="edge">
<title>claims:w&#45;&gt;patient_data:e</title>
<path fill="none" stroke="#000000" d="M579.2876,-337.1312C551.3348,-351.9254 588.8134,-418.7232 550,-445.2 467.7574,-501.3023 416.0712,-487.6085 326,-445.2 300.4379,-433.1645 313.7537,-396.2 285.5,-396.2"/>
<polygon fill="#000000" stroke="#000000" points="585.6649,-335.816 594.2272,-337.7258 589.5825,-335.008 593.5,-334.2 593.5,-334.2 593.5,-334.2 589.5825,-335.008 592.7728,-330.6742 585.6649,-335.816 585.6649,-335.816"/>
<ellipse fill="none" stroke="#000000" cx="582.5309" cy="-336.4624" rx="3.2" ry="3.2"/>
</g>
<!-- insurance_companies -->
<g id="node4" class="node">
<title>insurance_companies</title>
<g id="a_node4"><a xlink:href="../../tables/insurance_companies.html" xlink:title="insurance_companies" target="_top">
<polygon fill="#ffffff" stroke="transparent" points="344,-115.7 344,-242.7 532,-242.7 532,-115.7 344,-115.7"/>
<polygon fill="#f5f5f5" stroke="transparent" points="344,-219.2 344,-242.2 532,-242.2 532,-219.2 344,-219.2"/>
<polygon fill="none" stroke="#000000" points="344,-219.2 344,-242.2 532,-242.2 532,-219.2 344,-219.2"/>
<text text-anchor="start" x="349" y="-227.8" font-family="Helvetica,sans-Serif" font-weight="bold" font-size="11.00" fill="#000000">insurance_companies</text>
<text text-anchor="start" x="497.0437" y="-227.3" font-family="Helvetica,sans-Serif" font-size="11.00" fill="#000000">[table]</text>
<polygon fill="none" stroke="#000000" points="344,-197.2 344,-219.2 532,-219.2 532,-197.2 344,-197.2"/>
<image xlink:href="../../images/primaryKeys.png" width="11px" height="12px" preserveAspectRatio="xMinYMin meet" x="349" y="-214.2"/>
<text text-anchor="start" x="364" y="-204.3" font-family="Helvetica,sans-Serif" font-size="11.00" fill="#000000">id</text>
<polygon fill="#ffffff" stroke="transparent" points="344,-175.2 344,-197.2 532,-197.2 532,-175.2 344,-175.2"/>
<polygon fill="none" stroke="#000000" points="344,-175.2 344,-197.2 532,-197.2 532,-175.2 344,-175.2"/>
<text text-anchor="start" x="364" y="-182.3" font-family="Helvetica,sans-Serif" font-size="11.00" fill="#000000">uuid</text>
<polygon fill="none" stroke="#000000" points="344,-153.2 344,-175.2 532,-175.2 532,-153.2 344,-153.2"/>
<image xlink:href="../../images/foreignKeys.png" width="11px" height="12px" preserveAspectRatio="xMinYMin meet" x="349" y="-170.2"/>
<text text-anchor="start" x="364" y="-160.3" font-family="Helvetica,sans-Serif" font-size="11.00" fill="#000000">ins_type_code</text>
<polygon fill="none" stroke="#000000" points="344,-134.2 344,-153.2 532,-153.2 532,-134.2 344,-134.2"/>
<text text-anchor="start" x="347" y="-140.3" font-family="Helvetica,sans-Serif" font-size="11.00" fill="#000000">...</text>
<polygon fill="#ffffff" stroke="transparent" points="344,-115.2 344,-134.2 432,-134.2 432,-115.2 344,-115.2"/>
<polygon fill="none" stroke="#000000" points="344,-115.2 344,-134.2 432,-134.2 432,-115.2 344,-115.2"/>
<text text-anchor="start" x="347" y="-121.3" font-family="Helvetica,sans-Serif" font-size="11.00" fill="#000000">&lt; 1</text>
<polygon fill="#ffffff" stroke="transparent" points="432,-115.2 432,-134.2 477,-134.2 477,-115.2 432,-115.2"/>
<polygon fill="none" stroke="#000000" points="432,-115.2 432,-134.2 477,-134.2 477,-115.2 432,-115.2"/>
<text text-anchor="start" x="467.8862" y="-121.3" font-family="Helvetica,sans-Serif" font-size="11.00" fill="#000000"> &#160;</text>
<polygon fill="#ffffff" stroke="transparent" points="477,-115.2 477,-134.2 532,-134.2 532,-115.2 477,-115.2"/>
<polygon fill="none" stroke="#000000" points="477,-115.2 477,-134.2 532,-134.2 532,-115.2 477,-115.2"/>
<text text-anchor="start" x="513.4053" y="-121.3" font-family="Helvetica,sans-Serif" font-size="11.00" fill="#000000">5 &gt;</text>
</a>
</g>
</g>
<!-- claims&#45;&gt;insurance_companies -->
<g id="edge3" class="edge">
<title>claims:w&#45;&gt;insurance_companies:e</title>
<path fill="none" stroke="#000000" d="M579.3666,-264.4467C558.6136,-251.3113 564.3692,-208.2 532,-208.2"/>
<polygon fill="#000000" stroke="#000000" points="585.768,-266.1466 592.576,-271.6794 589.634,-267.1733 593.5,-268.2 593.5,-268.2 593.5,-268.2 589.634,-267.1733 594.424,-264.7206 585.768,-266.1466 585.768,-266.1466"/>
<ellipse fill="none" stroke="#000000" cx="582.6752" cy="-265.3253" rx="3.2" ry="3.2"/>
</g>
<!-- form_encounter&#45;&gt;patient_data -->
<g id="edge4" class="edge">
<title>form_encounter:w&#45;&gt;patient_data:e</title>
<path fill="none" stroke="#000000" d="M320.3908,-339.065C304.7276,-353.681 314.472,-396.2 285.5,-396.2"/>
<polygon fill="#000000" stroke="#000000" points="326.4669,-336.893 335.2118,-337.5899 330.2334,-335.5465 334,-334.2 334,-334.2 334,-334.2 330.2334,-335.5465 332.7882,-330.8101 326.4669,-336.893 326.4669,-336.893"/>
<ellipse fill="none" stroke="#000000" cx="323.4536" cy="-337.9702" rx="3.2" ry="3.2"/>
</g>
</g>
</svg>
