<?xml version="1.0" encoding="UTF-8" standalone="no"?>
<!DOCTYPE svg PUBLIC "-//W3C//DTD SVG 1.1//EN"
 "http://www.w3.org/Graphics/SVG/1.1/DTD/svg11.dtd">
<!-- Generated by graphviz version 2.40.1 (20161225.0304)
 -->
<!-- Title: oneDegreeRelationshipsDiagram Pages: 1 -->
<svg width="569pt" height="627pt"
 viewBox="0.00 0.00 569.00 627.20" xmlns="http://www.w3.org/2000/svg" xmlns:xlink="http://www.w3.org/1999/xlink">
<g id="graph0" class="graph" transform="scale(1 1) rotate(0) translate(4 623.2)">
<title>oneDegreeRelationshipsDiagram</title>
<polygon fill="#ffffff" stroke="transparent" points="-4,4 -4,-623.2 565,-623.2 565,4 -4,4"/>
<text text-anchor="middle" x="72.4936" y="-7.3" font-family="Helvetica,sans-Serif" font-size="11.00" fill="#000000">Generated by SchemaSpy</text>
<!-- clinical_notes_procedure_results -->
<g id="node1" class="node">
<title>clinical_notes_procedure_results</title>
<g id="a_node1"><a xlink:href="../../tables/clinical_notes_procedure_results.html" xlink:title="clinical_notes_procedure_results" target="_top">
<polygon fill="#ffffff" stroke="transparent" points="234,-312.7 234,-468.7 553,-468.7 553,-312.7 234,-312.7"/>
<polygon fill="#f5f5f5" stroke="transparent" points="236.5,-443.7 236.5,-466.7 551.5,-466.7 551.5,-443.7 236.5,-443.7"/>
<polygon fill="none" stroke="#000000" points="236.5,-443.7 236.5,-466.7 551.5,-466.7 551.5,-443.7 236.5,-443.7"/>
<text text-anchor="start" x="241.5" y="-452.3" font-family="Helvetica,sans-Serif" font-weight="bold" font-size="11.00" fill="#000000">clinical_notes_procedure_results</text>
<text text-anchor="start" x="516.5437" y="-451.8" font-family="Helvetica,sans-Serif" font-size="11.00" fill="#000000">[table]</text>
<polygon fill="none" stroke="#000000" points="236.5,-421.7 236.5,-443.7 476.5,-443.7 476.5,-421.7 236.5,-421.7"/>
<image xlink:href="../../images/primaryKeys.png" width="11px" height="12px" preserveAspectRatio="xMinYMin meet" x="241.5" y="-438.7"/>
<text text-anchor="start" x="256.5" y="-428.8" font-family="Helvetica,sans-Serif" font-size="11.00" fill="#000000">id</text>
<polygon fill="none" stroke="#000000" points="476.5,-421.7 476.5,-443.7 551.5,-443.7 551.5,-421.7 476.5,-421.7"/>
<text text-anchor="start" x="479.5" y="-429.4" font-family="Helvetica,sans-Serif" font-size="11.00" fill="#000000">bigint[19]</text>
<polygon fill="#ffffff" stroke="transparent" points="236.5,-399.7 236.5,-421.7 476.5,-421.7 476.5,-399.7 236.5,-399.7"/>
<polygon fill="none" stroke="#000000" points="236.5,-399.7 236.5,-421.7 476.5,-421.7 476.5,-399.7 236.5,-399.7"/>
<image xlink:href="../../images/foreignKeys.png" width="11px" height="12px" preserveAspectRatio="xMinYMin meet" x="241.5" y="-416.7"/>
<text text-anchor="start" x="256.5" y="-406.8" font-family="Helvetica,sans-Serif" font-size="11.00" fill="#000000">clinical_note_id</text>
<polygon fill="none" stroke="#000000" points="476.5,-399.7 476.5,-421.7 551.5,-421.7 551.5,-399.7 476.5,-399.7"/>
<text text-anchor="start" x="479.5" y="-407.4" font-family="Helvetica,sans-Serif" font-size="11.00" fill="#000000">bigint[19]</text>
<polygon fill="#ffffff" stroke="transparent" points="236.5,-377.7 236.5,-399.7 476.5,-399.7 476.5,-377.7 236.5,-377.7"/>
<polygon fill="none" stroke="#000000" points="236.5,-377.7 236.5,-399.7 476.5,-399.7 476.5,-377.7 236.5,-377.7"/>
<image xlink:href="../../images/foreignKeys.png" width="11px" height="12px" preserveAspectRatio="xMinYMin meet" x="241.5" y="-394.7"/>
<text text-anchor="start" x="256.5" y="-384.8" font-family="Helvetica,sans-Serif" font-size="11.00" fill="#000000">procedure_result_id</text>
<polygon fill="none" stroke="#000000" points="476.5,-377.7 476.5,-399.7 551.5,-399.7 551.5,-377.7 476.5,-377.7"/>
<text text-anchor="start" x="479.5" y="-385.4" font-family="Helvetica,sans-Serif" font-size="11.00" fill="#000000">bigint[19]</text>
<polygon fill="#ffffff" stroke="transparent" points="236.5,-355.7 236.5,-377.7 476.5,-377.7 476.5,-355.7 236.5,-355.7"/>
<polygon fill="none" stroke="#000000" points="236.5,-355.7 236.5,-377.7 476.5,-377.7 476.5,-355.7 236.5,-355.7"/>
<text text-anchor="start" x="256.5" y="-362.8" font-family="Helvetica,sans-Serif" font-size="11.00" fill="#000000">created_at</text>
<polygon fill="none" stroke="#000000" points="476.5,-355.7 476.5,-377.7 551.5,-377.7 551.5,-355.7 476.5,-355.7"/>
<text text-anchor="start" x="479.4666" y="-363.4" font-family="Helvetica,sans-Serif" font-size="11.00" fill="#000000">timestamp[19]</text>
<polygon fill="none" stroke="#000000" points="236.5,-333.7 236.5,-355.7 476.5,-355.7 476.5,-333.7 236.5,-333.7"/>
<image xlink:href="../../images/foreignKeys.png" width="11px" height="12px" preserveAspectRatio="xMinYMin meet" x="241.5" y="-350.7"/>
<text text-anchor="start" x="256.5" y="-340.8" font-family="Helvetica,sans-Serif" font-size="11.00" fill="#000000">created_by</text>
<polygon fill="none" stroke="#000000" points="476.5,-333.7 476.5,-355.7 551.5,-355.7 551.5,-333.7 476.5,-333.7"/>
<text text-anchor="start" x="479.5" y="-341.4" font-family="Helvetica,sans-Serif" font-size="11.00" fill="#000000">varchar[255]</text>
<polygon fill="#ffffff" stroke="transparent" points="236.5,-314.7 236.5,-333.7 360.5,-333.7 360.5,-314.7 236.5,-314.7"/>
<polygon fill="none" stroke="#000000" points="236.5,-314.7 236.5,-333.7 360.5,-333.7 360.5,-314.7 236.5,-314.7"/>
<text text-anchor="start" x="239.5" y="-320.8" font-family="Helvetica,sans-Serif" font-size="11.00" fill="#000000">&lt; 3</text>
<polygon fill="#ffffff" stroke="transparent" points="360.5,-314.7 360.5,-333.7 476.5,-333.7 476.5,-314.7 360.5,-314.7"/>
<polygon fill="none" stroke="#000000" points="360.5,-314.7 360.5,-333.7 476.5,-333.7 476.5,-314.7 360.5,-314.7"/>
<text text-anchor="start" x="467.3862" y="-320.8" font-family="Helvetica,sans-Serif" font-size="11.00" fill="#000000"> &#160;</text>
<polygon fill="#ffffff" stroke="transparent" points="476.5,-314.7 476.5,-333.7 551.5,-333.7 551.5,-314.7 476.5,-314.7"/>
<polygon fill="none" stroke="#000000" points="476.5,-314.7 476.5,-333.7 551.5,-333.7 551.5,-314.7 476.5,-314.7"/>
<text text-anchor="start" x="532.9053" y="-320.8" font-family="Helvetica,sans-Serif" font-size="11.00" fill="#000000">0 &gt;</text>
<polygon fill="none" stroke="#000000" stroke-width="2" points="235,-313.7 235,-467.7 552,-467.7 552,-313.7 235,-313.7"/>
</a>
</g>
</g>
<!-- form_clinical_notes -->
<g id="node2" class="node">
<title>form_clinical_notes</title>
<g id="a_node2"><a xlink:href="../../tables/form_clinical_notes.html" xlink:title="form_clinical_notes" target="_top">
<polygon fill="#ffffff" stroke="transparent" points="8,-444.2 8,-615.2 185,-615.2 185,-444.2 8,-444.2"/>
<polygon fill="#f5f5f5" stroke="transparent" points="8.5,-591.7 8.5,-614.7 185.5,-614.7 185.5,-591.7 8.5,-591.7"/>
<polygon fill="none" stroke="#000000" points="8.5,-591.7 8.5,-614.7 185.5,-614.7 185.5,-591.7 8.5,-591.7"/>
<text text-anchor="start" x="13.5" y="-600.3" font-family="Helvetica,sans-Serif" font-weight="bold" font-size="11.00" fill="#000000">form_clinical_notes</text>
<text text-anchor="start" x="150.5437" y="-599.8" font-family="Helvetica,sans-Serif" font-size="11.00" fill="#000000">[table]</text>
<polygon fill="none" stroke="#000000" points="8.5,-569.7 8.5,-591.7 185.5,-591.7 185.5,-569.7 8.5,-569.7"/>
<image xlink:href="../../images/primaryKeys.png" width="11px" height="12px" preserveAspectRatio="xMinYMin meet" x="13.5" y="-586.7"/>
<text text-anchor="start" x="28.5" y="-576.8" font-family="Helvetica,sans-Serif" font-size="11.00" fill="#000000">id</text>
<polygon fill="#ffffff" stroke="transparent" points="8.5,-547.7 8.5,-569.7 185.5,-569.7 185.5,-547.7 8.5,-547.7"/>
<polygon fill="none" stroke="#000000" points="8.5,-547.7 8.5,-569.7 185.5,-569.7 185.5,-547.7 8.5,-547.7"/>
<text text-anchor="start" x="28.5" y="-554.8" font-family="Helvetica,sans-Serif" font-size="11.00" fill="#000000">uuid</text>
<polygon fill="none" stroke="#000000" points="8.5,-525.7 8.5,-547.7 185.5,-547.7 185.5,-525.7 8.5,-525.7"/>
<image xlink:href="../../images/foreignKeys.png" width="11px" height="12px" preserveAspectRatio="xMinYMin meet" x="13.5" y="-542.7"/>
<text text-anchor="start" x="28.5" y="-532.8" font-family="Helvetica,sans-Serif" font-size="11.00" fill="#000000">pid</text>
<polygon fill="none" stroke="#000000" points="8.5,-503.7 8.5,-525.7 185.5,-525.7 185.5,-503.7 8.5,-503.7"/>
<image xlink:href="../../images/foreignKeys.png" width="11px" height="12px" preserveAspectRatio="xMinYMin meet" x="13.5" y="-520.7"/>
<text text-anchor="start" x="28.5" y="-510.8" font-family="Helvetica,sans-Serif" font-size="11.00" fill="#000000">clinical_notes_type</text>
<polygon fill="none" stroke="#000000" points="8.5,-481.7 8.5,-503.7 185.5,-503.7 185.5,-481.7 8.5,-481.7"/>
<image xlink:href="../../images/foreignKeys.png" width="11px" height="12px" preserveAspectRatio="xMinYMin meet" x="13.5" y="-498.7"/>
<text text-anchor="start" x="28.5" y="-488.8" font-family="Helvetica,sans-Serif" font-size="11.00" fill="#000000">clinical_notes_category</text>
<polygon fill="none" stroke="#000000" points="8.5,-462.7 8.5,-481.7 185.5,-481.7 185.5,-462.7 8.5,-462.7"/>
<text text-anchor="start" x="11.5" y="-468.8" font-family="Helvetica,sans-Serif" font-size="11.00" fill="#000000">...</text>
<polygon fill="#ffffff" stroke="transparent" points="8.5,-443.7 8.5,-462.7 90.5,-462.7 90.5,-443.7 8.5,-443.7"/>
<polygon fill="none" stroke="#000000" points="8.5,-443.7 8.5,-462.7 90.5,-462.7 90.5,-443.7 8.5,-443.7"/>
<text text-anchor="start" x="11.5" y="-449.8" font-family="Helvetica,sans-Serif" font-size="11.00" fill="#000000">&lt; 3</text>
<polygon fill="#ffffff" stroke="transparent" points="90.5,-443.7 90.5,-462.7 133.5,-462.7 133.5,-443.7 90.5,-443.7"/>
<polygon fill="none" stroke="#000000" points="90.5,-443.7 90.5,-462.7 133.5,-462.7 133.5,-443.7 90.5,-443.7"/>
<text text-anchor="start" x="124.3862" y="-449.8" font-family="Helvetica,sans-Serif" font-size="11.00" fill="#000000"> &#160;</text>
<polygon fill="#ffffff" stroke="transparent" points="133.5,-443.7 133.5,-462.7 185.5,-462.7 185.5,-443.7 133.5,-443.7"/>
<polygon fill="none" stroke="#000000" points="133.5,-443.7 133.5,-462.7 185.5,-462.7 185.5,-443.7 133.5,-443.7"/>
<text text-anchor="start" x="166.9053" y="-449.8" font-family="Helvetica,sans-Serif" font-size="11.00" fill="#000000">2 &gt;</text>
</a>
</g>
</g>
<!-- clinical_notes_procedure_results&#45;&gt;form_clinical_notes -->
<g id="edge1" class="edge">
<title>clinical_notes_procedure_results:w&#45;&gt;form_clinical_notes:e</title>
<path fill="none" stroke="#000000" d="M222.167,-413.2351C172.079,-434.3825 258.6818,-580.7 185.5,-580.7"/>
<polygon fill="#000000" stroke="#000000" points="228.6223,-412.0934 237.127,-414.245 232.5611,-411.3967 236.5,-410.7 236.5,-410.7 236.5,-410.7 232.5611,-411.3967 235.873,-407.155 228.6223,-412.0934 228.6223,-412.0934"/>
<ellipse fill="none" stroke="#000000" cx="225.4712" cy="-412.6507" rx="3.2" ry="3.2"/>
</g>
<!-- users -->
<g id="node3" class="node">
<title>users</title>
<g id="a_node3"><a xlink:href="../../tables/users.html" xlink:title="users" target="_top">
<polygon fill="#ffffff" stroke="transparent" points="13,-38.2 13,-253.2 180,-253.2 180,-38.2 13,-38.2"/>
<polygon fill="#f5f5f5" stroke="transparent" points="13.5,-229.7 13.5,-252.7 180.5,-252.7 180.5,-229.7 13.5,-229.7"/>
<polygon fill="none" stroke="#000000" points="13.5,-229.7 13.5,-252.7 180.5,-252.7 180.5,-229.7 13.5,-229.7"/>
<text text-anchor="start" x="18.5" y="-238.3" font-family="Helvetica,sans-Serif" font-weight="bold" font-size="11.00" fill="#000000">users</text>
<text text-anchor="start" x="145.5437" y="-237.8" font-family="Helvetica,sans-Serif" font-size="11.00" fill="#000000">[table]</text>
<polygon fill="none" stroke="#000000" points="13.5,-207.7 13.5,-229.7 180.5,-229.7 180.5,-207.7 13.5,-207.7"/>
<image xlink:href="../../images/primaryKeys.png" width="11px" height="12px" preserveAspectRatio="xMinYMin meet" x="18.5" y="-224.7"/>
<text text-anchor="start" x="33.5" y="-214.8" font-family="Helvetica,sans-Serif" font-size="11.00" fill="#000000">id</text>
<polygon fill="#ffffff" stroke="transparent" points="13.5,-185.7 13.5,-207.7 180.5,-207.7 180.5,-185.7 13.5,-185.7"/>
<polygon fill="none" stroke="#000000" points="13.5,-185.7 13.5,-207.7 180.5,-207.7 180.5,-185.7 13.5,-185.7"/>
<text text-anchor="start" x="33.5" y="-192.8" font-family="Helvetica,sans-Serif" font-size="11.00" fill="#000000">uuid</text>
<polygon fill="none" stroke="#000000" points="13.5,-163.7 13.5,-185.7 180.5,-185.7 180.5,-163.7 13.5,-163.7"/>
<image xlink:href="../../images/primaryKeys.png" width="11px" height="12px" preserveAspectRatio="xMinYMin meet" x="18.5" y="-180.7"/>
<text text-anchor="start" x="33.5" y="-170.8" font-family="Helvetica,sans-Serif" font-size="11.00" fill="#000000">username</text>
<polygon fill="none" stroke="#000000" points="13.5,-141.7 13.5,-163.7 180.5,-163.7 180.5,-141.7 13.5,-141.7"/>
<image xlink:href="../../images/foreignKeys.png" width="11px" height="12px" preserveAspectRatio="xMinYMin meet" x="18.5" y="-158.7"/>
<text text-anchor="start" x="33.5" y="-148.8" font-family="Helvetica,sans-Serif" font-size="11.00" fill="#000000">facility_id</text>
<polygon fill="#ffffff" stroke="transparent" points="13.5,-119.7 13.5,-141.7 180.5,-141.7 180.5,-119.7 13.5,-119.7"/>
<polygon fill="none" stroke="#000000" points="13.5,-119.7 13.5,-141.7 180.5,-141.7 180.5,-119.7 13.5,-119.7"/>
<text text-anchor="start" x="33.5" y="-126.8" font-family="Helvetica,sans-Serif" font-size="11.00" fill="#000000">google_signin_email</text>
<polygon fill="#ffffff" stroke="transparent" points="13.5,-97.7 13.5,-119.7 180.5,-119.7 180.5,-97.7 13.5,-97.7"/>
<polygon fill="none" stroke="#000000" points="13.5,-97.7 13.5,-119.7 180.5,-119.7 180.5,-97.7 13.5,-97.7"/>
<text text-anchor="start" x="33.5" y="-104.8" font-family="Helvetica,sans-Serif" font-size="11.00" fill="#000000">abook_type</text>
<polygon fill="none" stroke="#000000" points="13.5,-75.7 13.5,-97.7 180.5,-97.7 180.5,-75.7 13.5,-75.7"/>
<image xlink:href="../../images/foreignKeys.png" width="11px" height="12px" preserveAspectRatio="xMinYMin meet" x="18.5" y="-92.7"/>
<text text-anchor="start" x="33.5" y="-82.8" font-family="Helvetica,sans-Serif" font-size="11.00" fill="#000000">billing_facility_id</text>
<polygon fill="none" stroke="#000000" points="13.5,-56.7 13.5,-75.7 180.5,-75.7 180.5,-56.7 13.5,-56.7"/>
<text text-anchor="start" x="16.5" y="-62.8" font-family="Helvetica,sans-Serif" font-size="11.00" fill="#000000">...</text>
<polygon fill="#ffffff" stroke="transparent" points="13.5,-37.7 13.5,-56.7 87.5,-56.7 87.5,-37.7 13.5,-37.7"/>
<polygon fill="none" stroke="#000000" points="13.5,-37.7 13.5,-56.7 87.5,-56.7 87.5,-37.7 13.5,-37.7"/>
<text text-anchor="start" x="16.5" y="-43.8" font-family="Helvetica,sans-Serif" font-size="11.00" fill="#000000">&lt; 2</text>
<polygon fill="#ffffff" stroke="transparent" points="87.5,-37.7 87.5,-56.7 126.5,-56.7 126.5,-37.7 87.5,-37.7"/>
<polygon fill="none" stroke="#000000" points="87.5,-37.7 87.5,-56.7 126.5,-56.7 126.5,-37.7 87.5,-37.7"/>
<text text-anchor="start" x="117.3862" y="-43.8" font-family="Helvetica,sans-Serif" font-size="11.00" fill="#000000"> &#160;</text>
<polygon fill="#ffffff" stroke="transparent" points="126.5,-37.7 126.5,-56.7 180.5,-56.7 180.5,-37.7 126.5,-37.7"/>
<polygon fill="none" stroke="#000000" points="126.5,-37.7 126.5,-56.7 180.5,-56.7 180.5,-37.7 126.5,-37.7"/>
<text text-anchor="start" x="155.7904" y="-43.8" font-family="Helvetica,sans-Serif" font-size="11.00" fill="#000000">90 &gt;</text>
</a>
</g>
</g>
<!-- clinical_notes_procedure_results&#45;&gt;users -->
<g id="edge2" class="edge">
<title>clinical_notes_procedure_results:w&#45;&gt;users:e</title>
<path fill="none" stroke="#000000" d="M221.9776,-342.1649C170.8978,-321.0175 254.3007,-174.7 180.5,-174.7"/>
<polygon fill="#000000" stroke="#000000" points="228.6192,-343.3243 235.8809,-348.2464 232.5596,-344.0121 236.5,-344.7 236.5,-344.7 236.5,-344.7 232.5596,-344.0121 237.1191,-341.1536 228.6192,-343.3243 228.6192,-343.3243"/>
<ellipse fill="none" stroke="#000000" cx="225.4668" cy="-342.774" rx="3.2" ry="3.2"/>
</g>
<!-- procedure_result -->
<g id="node4" class="node">
<title>procedure_result</title>
<g id="a_node4"><a xlink:href="../../tables/procedure_result.html" xlink:title="procedure_result" target="_top">
<polygon fill="#ffffff" stroke="transparent" points="18,-274.2 18,-423.2 175,-423.2 175,-274.2 18,-274.2"/>
<polygon fill="#f5f5f5" stroke="transparent" points="18.5,-399.7 18.5,-422.7 175.5,-422.7 175.5,-399.7 18.5,-399.7"/>
<polygon fill="none" stroke="#000000" points="18.5,-399.7 18.5,-422.7 175.5,-422.7 175.5,-399.7 18.5,-399.7"/>
<text text-anchor="start" x="23.5" y="-408.3" font-family="Helvetica,sans-Serif" font-weight="bold" font-size="11.00" fill="#000000">procedure_result</text>
<text text-anchor="start" x="140.5437" y="-407.8" font-family="Helvetica,sans-Serif" font-size="11.00" fill="#000000">[table]</text>
<polygon fill="none" stroke="#000000" points="18.5,-377.7 18.5,-399.7 175.5,-399.7 175.5,-377.7 18.5,-377.7"/>
<image xlink:href="../../images/primaryKeys.png" width="11px" height="12px" preserveAspectRatio="xMinYMin meet" x="23.5" y="-394.7"/>
<text text-anchor="start" x="38.5" y="-384.8" font-family="Helvetica,sans-Serif" font-size="11.00" fill="#000000">procedure_result_id</text>
<polygon fill="#ffffff" stroke="transparent" points="18.5,-355.7 18.5,-377.7 175.5,-377.7 175.5,-355.7 18.5,-355.7"/>
<polygon fill="none" stroke="#000000" points="18.5,-355.7 18.5,-377.7 175.5,-377.7 175.5,-355.7 18.5,-355.7"/>
<text text-anchor="start" x="38.5" y="-362.8" font-family="Helvetica,sans-Serif" font-size="11.00" fill="#000000">uuid</text>
<polygon fill="#ffffff" stroke="transparent" points="18.5,-333.7 18.5,-355.7 175.5,-355.7 175.5,-333.7 18.5,-333.7"/>
<polygon fill="none" stroke="#000000" points="18.5,-333.7 18.5,-355.7 175.5,-355.7 175.5,-333.7 18.5,-333.7"/>
<image xlink:href="../../images/foreignKeys.png" width="11px" height="12px" preserveAspectRatio="xMinYMin meet" x="23.5" y="-350.7"/>
<text text-anchor="start" x="38.5" y="-340.8" font-family="Helvetica,sans-Serif" font-size="11.00" fill="#000000">procedure_report_id</text>
<polygon fill="none" stroke="#000000" points="18.5,-311.7 18.5,-333.7 175.5,-333.7 175.5,-311.7 18.5,-311.7"/>
<image xlink:href="../../images/foreignKeys.png" width="11px" height="12px" preserveAspectRatio="xMinYMin meet" x="23.5" y="-328.7"/>
<text text-anchor="start" x="38.5" y="-318.8" font-family="Helvetica,sans-Serif" font-size="11.00" fill="#000000">document_id</text>
<polygon fill="none" stroke="#000000" points="18.5,-292.7 18.5,-311.7 175.5,-311.7 175.5,-292.7 18.5,-292.7"/>
<text text-anchor="start" x="21.5" y="-298.8" font-family="Helvetica,sans-Serif" font-size="11.00" fill="#000000">...</text>
<polygon fill="#ffffff" stroke="transparent" points="18.5,-273.7 18.5,-292.7 90.5,-292.7 90.5,-273.7 18.5,-273.7"/>
<polygon fill="none" stroke="#000000" points="18.5,-273.7 18.5,-292.7 90.5,-292.7 90.5,-273.7 18.5,-273.7"/>
<text text-anchor="start" x="21.5" y="-279.8" font-family="Helvetica,sans-Serif" font-size="11.00" fill="#000000">&lt; 2</text>
<polygon fill="#ffffff" stroke="transparent" points="90.5,-273.7 90.5,-292.7 128.5,-292.7 128.5,-273.7 90.5,-273.7"/>
<polygon fill="none" stroke="#000000" points="90.5,-273.7 90.5,-292.7 128.5,-292.7 128.5,-273.7 90.5,-273.7"/>
<text text-anchor="start" x="119.3862" y="-279.8" font-family="Helvetica,sans-Serif" font-size="11.00" fill="#000000"> &#160;</text>
<polygon fill="#ffffff" stroke="transparent" points="128.5,-273.7 128.5,-292.7 175.5,-292.7 175.5,-273.7 128.5,-273.7"/>
<polygon fill="none" stroke="#000000" points="128.5,-273.7 128.5,-292.7 175.5,-292.7 175.5,-273.7 128.5,-273.7"/>
<text text-anchor="start" x="156.9053" y="-279.8" font-family="Helvetica,sans-Serif" font-size="11.00" fill="#000000">1 &gt;</text>
</a>
</g>
</g>
<!-- clinical_notes_procedure_results&#45;&gt;procedure_result -->
<g id="edge3" class="edge">
<title>clinical_notes_procedure_results:w&#45;&gt;procedure_result:e</title>
<path fill="none" stroke="#000000" d="M221.6762,-388.7C205.6248,-388.7 196.8924,-388.7 175.5,-388.7"/>
<polygon fill="#000000" stroke="#000000" points="228.5,-388.7001 236.5,-392.3 232.5,-388.7 236.5,-388.7 236.5,-388.7 236.5,-388.7 232.5,-388.7 236.5,-385.1 228.5,-388.7001 228.5,-388.7001"/>
<ellipse fill="none" stroke="#000000" cx="225.3" cy="-388.7001" rx="3.2" ry="3.2"/>
</g>
</g>
</svg>
