<?xml version="1.0" encoding="UTF-8" standalone="no"?>
<!DOCTYPE svg PUBLIC "-//W3C//DTD SVG 1.1//EN"
 "http://www.w3.org/Graphics/SVG/1.1/DTD/svg11.dtd">
<!-- Generated by graphviz version 2.40.1 (20161225.0304)
 -->
<!-- Title: oneDegreeRelationshipsDiagram Pages: 1 -->
<svg width="783pt" height="593pt"
 viewBox="0.00 0.00 783.00 593.20" xmlns="http://www.w3.org/2000/svg" xmlns:xlink="http://www.w3.org/1999/xlink">
<g id="graph0" class="graph" transform="scale(1 1) rotate(0) translate(4 589.2)">
<title>oneDegreeRelationshipsDiagram</title>
<polygon fill="#ffffff" stroke="transparent" points="-4,4 -4,-589.2 779,-589.2 779,4 -4,4"/>
<text text-anchor="middle" x="72.4936" y="-7.3" font-family="Helvetica,sans-Serif" font-size="11.00" fill="#000000">Generated by SchemaSpy</text>
<!-- clinical_notes_documents -->
<g id="node1" class="node">
<title>clinical_notes_documents</title>
<g id="a_node1"><a xlink:href="../../tables/clinical_notes_documents.html" xlink:title="clinical_notes_documents" target="_top">
<polygon fill="#ffffff" stroke="transparent" points="496,-278.7 496,-434.7 767,-434.7 767,-278.7 496,-278.7"/>
<polygon fill="#f5f5f5" stroke="transparent" points="498.5,-409.7 498.5,-432.7 765.5,-432.7 765.5,-409.7 498.5,-409.7"/>
<polygon fill="none" stroke="#000000" points="498.5,-409.7 498.5,-432.7 765.5,-432.7 765.5,-409.7 498.5,-409.7"/>
<text text-anchor="start" x="503.5" y="-418.3" font-family="Helvetica,sans-Serif" font-weight="bold" font-size="11.00" fill="#000000">clinical_notes_documents</text>
<text text-anchor="start" x="730.5437" y="-417.8" font-family="Helvetica,sans-Serif" font-size="11.00" fill="#000000">[table]</text>
<polygon fill="none" stroke="#000000" points="498.5,-387.7 498.5,-409.7 690.5,-409.7 690.5,-387.7 498.5,-387.7"/>
<image xlink:href="../../images/primaryKeys.png" width="11px" height="12px" preserveAspectRatio="xMinYMin meet" x="503.5" y="-404.7"/>
<text text-anchor="start" x="518.5" y="-394.8" font-family="Helvetica,sans-Serif" font-size="11.00" fill="#000000">id</text>
<polygon fill="none" stroke="#000000" points="690.5,-387.7 690.5,-409.7 765.5,-409.7 765.5,-387.7 690.5,-387.7"/>
<text text-anchor="start" x="693.5" y="-395.4" font-family="Helvetica,sans-Serif" font-size="11.00" fill="#000000">bigint[19]</text>
<polygon fill="#ffffff" stroke="transparent" points="498.5,-365.7 498.5,-387.7 690.5,-387.7 690.5,-365.7 498.5,-365.7"/>
<polygon fill="none" stroke="#000000" points="498.5,-365.7 498.5,-387.7 690.5,-387.7 690.5,-365.7 498.5,-365.7"/>
<image xlink:href="../../images/foreignKeys.png" width="11px" height="12px" preserveAspectRatio="xMinYMin meet" x="503.5" y="-382.7"/>
<text text-anchor="start" x="518.5" y="-372.8" font-family="Helvetica,sans-Serif" font-size="11.00" fill="#000000">clinical_note_id</text>
<polygon fill="none" stroke="#000000" points="690.5,-365.7 690.5,-387.7 765.5,-387.7 765.5,-365.7 690.5,-365.7"/>
<text text-anchor="start" x="693.5" y="-373.4" font-family="Helvetica,sans-Serif" font-size="11.00" fill="#000000">bigint[19]</text>
<polygon fill="#ffffff" stroke="transparent" points="498.5,-343.7 498.5,-365.7 690.5,-365.7 690.5,-343.7 498.5,-343.7"/>
<polygon fill="none" stroke="#000000" points="498.5,-343.7 498.5,-365.7 690.5,-365.7 690.5,-343.7 498.5,-343.7"/>
<image xlink:href="../../images/foreignKeys.png" width="11px" height="12px" preserveAspectRatio="xMinYMin meet" x="503.5" y="-360.7"/>
<text text-anchor="start" x="518.5" y="-350.8" font-family="Helvetica,sans-Serif" font-size="11.00" fill="#000000">document_id</text>
<polygon fill="none" stroke="#000000" points="690.5,-343.7 690.5,-365.7 765.5,-365.7 765.5,-343.7 690.5,-343.7"/>
<text text-anchor="start" x="693.5" y="-351.4" font-family="Helvetica,sans-Serif" font-size="11.00" fill="#000000">bigint[19]</text>
<polygon fill="#ffffff" stroke="transparent" points="498.5,-321.7 498.5,-343.7 690.5,-343.7 690.5,-321.7 498.5,-321.7"/>
<polygon fill="none" stroke="#000000" points="498.5,-321.7 498.5,-343.7 690.5,-343.7 690.5,-321.7 498.5,-321.7"/>
<text text-anchor="start" x="518.5" y="-328.8" font-family="Helvetica,sans-Serif" font-size="11.00" fill="#000000">created_at</text>
<polygon fill="none" stroke="#000000" points="690.5,-321.7 690.5,-343.7 765.5,-343.7 765.5,-321.7 690.5,-321.7"/>
<text text-anchor="start" x="693.4666" y="-329.4" font-family="Helvetica,sans-Serif" font-size="11.00" fill="#000000">timestamp[19]</text>
<polygon fill="none" stroke="#000000" points="498.5,-299.7 498.5,-321.7 690.5,-321.7 690.5,-299.7 498.5,-299.7"/>
<image xlink:href="../../images/foreignKeys.png" width="11px" height="12px" preserveAspectRatio="xMinYMin meet" x="503.5" y="-316.7"/>
<text text-anchor="start" x="518.5" y="-306.8" font-family="Helvetica,sans-Serif" font-size="11.00" fill="#000000">created_by</text>
<polygon fill="none" stroke="#000000" points="690.5,-299.7 690.5,-321.7 765.5,-321.7 765.5,-299.7 690.5,-299.7"/>
<text text-anchor="start" x="693.5" y="-307.4" font-family="Helvetica,sans-Serif" font-size="11.00" fill="#000000">varchar[255]</text>
<polygon fill="#ffffff" stroke="transparent" points="498.5,-280.7 498.5,-299.7 598.5,-299.7 598.5,-280.7 498.5,-280.7"/>
<polygon fill="none" stroke="#000000" points="498.5,-280.7 498.5,-299.7 598.5,-299.7 598.5,-280.7 498.5,-280.7"/>
<text text-anchor="start" x="501.5" y="-286.8" font-family="Helvetica,sans-Serif" font-size="11.00" fill="#000000">&lt; 3</text>
<polygon fill="#ffffff" stroke="transparent" points="598.5,-280.7 598.5,-299.7 690.5,-299.7 690.5,-280.7 598.5,-280.7"/>
<polygon fill="none" stroke="#000000" points="598.5,-280.7 598.5,-299.7 690.5,-299.7 690.5,-280.7 598.5,-280.7"/>
<text text-anchor="start" x="681.3862" y="-286.8" font-family="Helvetica,sans-Serif" font-size="11.00" fill="#000000"> &#160;</text>
<polygon fill="#ffffff" stroke="transparent" points="690.5,-280.7 690.5,-299.7 765.5,-299.7 765.5,-280.7 690.5,-280.7"/>
<polygon fill="none" stroke="#000000" points="690.5,-280.7 690.5,-299.7 765.5,-299.7 765.5,-280.7 690.5,-280.7"/>
<text text-anchor="start" x="746.9053" y="-286.8" font-family="Helvetica,sans-Serif" font-size="11.00" fill="#000000">0 &gt;</text>
<polygon fill="none" stroke="#000000" stroke-width="2" points="497,-279.7 497,-433.7 766,-433.7 766,-279.7 497,-279.7"/>
</a>
</g>
</g>
<!-- form_clinical_notes -->
<g id="node2" class="node">
<title>form_clinical_notes</title>
<g id="a_node2"><a xlink:href="../../tables/form_clinical_notes.html" xlink:title="form_clinical_notes" target="_top">
<polygon fill="#ffffff" stroke="transparent" points="247,-410.2 247,-581.2 424,-581.2 424,-410.2 247,-410.2"/>
<polygon fill="#f5f5f5" stroke="transparent" points="247.5,-557.7 247.5,-580.7 424.5,-580.7 424.5,-557.7 247.5,-557.7"/>
<polygon fill="none" stroke="#000000" points="247.5,-557.7 247.5,-580.7 424.5,-580.7 424.5,-557.7 247.5,-557.7"/>
<text text-anchor="start" x="252.5" y="-566.3" font-family="Helvetica,sans-Serif" font-weight="bold" font-size="11.00" fill="#000000">form_clinical_notes</text>
<text text-anchor="start" x="389.5437" y="-565.8" font-family="Helvetica,sans-Serif" font-size="11.00" fill="#000000">[table]</text>
<polygon fill="none" stroke="#000000" points="247.5,-535.7 247.5,-557.7 424.5,-557.7 424.5,-535.7 247.5,-535.7"/>
<image xlink:href="../../images/primaryKeys.png" width="11px" height="12px" preserveAspectRatio="xMinYMin meet" x="252.5" y="-552.7"/>
<text text-anchor="start" x="267.5" y="-542.8" font-family="Helvetica,sans-Serif" font-size="11.00" fill="#000000">id</text>
<polygon fill="#ffffff" stroke="transparent" points="247.5,-513.7 247.5,-535.7 424.5,-535.7 424.5,-513.7 247.5,-513.7"/>
<polygon fill="none" stroke="#000000" points="247.5,-513.7 247.5,-535.7 424.5,-535.7 424.5,-513.7 247.5,-513.7"/>
<text text-anchor="start" x="267.5" y="-520.8" font-family="Helvetica,sans-Serif" font-size="11.00" fill="#000000">uuid</text>
<polygon fill="none" stroke="#000000" points="247.5,-491.7 247.5,-513.7 424.5,-513.7 424.5,-491.7 247.5,-491.7"/>
<image xlink:href="../../images/foreignKeys.png" width="11px" height="12px" preserveAspectRatio="xMinYMin meet" x="252.5" y="-508.7"/>
<text text-anchor="start" x="267.5" y="-498.8" font-family="Helvetica,sans-Serif" font-size="11.00" fill="#000000">pid</text>
<polygon fill="none" stroke="#000000" points="247.5,-469.7 247.5,-491.7 424.5,-491.7 424.5,-469.7 247.5,-469.7"/>
<image xlink:href="../../images/foreignKeys.png" width="11px" height="12px" preserveAspectRatio="xMinYMin meet" x="252.5" y="-486.7"/>
<text text-anchor="start" x="267.5" y="-476.8" font-family="Helvetica,sans-Serif" font-size="11.00" fill="#000000">clinical_notes_type</text>
<polygon fill="none" stroke="#000000" points="247.5,-447.7 247.5,-469.7 424.5,-469.7 424.5,-447.7 247.5,-447.7"/>
<image xlink:href="../../images/foreignKeys.png" width="11px" height="12px" preserveAspectRatio="xMinYMin meet" x="252.5" y="-464.7"/>
<text text-anchor="start" x="267.5" y="-454.8" font-family="Helvetica,sans-Serif" font-size="11.00" fill="#000000">clinical_notes_category</text>
<polygon fill="none" stroke="#000000" points="247.5,-428.7 247.5,-447.7 424.5,-447.7 424.5,-428.7 247.5,-428.7"/>
<text text-anchor="start" x="250.5" y="-434.8" font-family="Helvetica,sans-Serif" font-size="11.00" fill="#000000">...</text>
<polygon fill="#ffffff" stroke="transparent" points="247.5,-409.7 247.5,-428.7 329.5,-428.7 329.5,-409.7 247.5,-409.7"/>
<polygon fill="none" stroke="#000000" points="247.5,-409.7 247.5,-428.7 329.5,-428.7 329.5,-409.7 247.5,-409.7"/>
<text text-anchor="start" x="250.5" y="-415.8" font-family="Helvetica,sans-Serif" font-size="11.00" fill="#000000">&lt; 3</text>
<polygon fill="#ffffff" stroke="transparent" points="329.5,-409.7 329.5,-428.7 372.5,-428.7 372.5,-409.7 329.5,-409.7"/>
<polygon fill="none" stroke="#000000" points="329.5,-409.7 329.5,-428.7 372.5,-428.7 372.5,-409.7 329.5,-409.7"/>
<text text-anchor="start" x="363.3862" y="-415.8" font-family="Helvetica,sans-Serif" font-size="11.00" fill="#000000"> &#160;</text>
<polygon fill="#ffffff" stroke="transparent" points="372.5,-409.7 372.5,-428.7 424.5,-428.7 424.5,-409.7 372.5,-409.7"/>
<polygon fill="none" stroke="#000000" points="372.5,-409.7 372.5,-428.7 424.5,-428.7 424.5,-409.7 372.5,-409.7"/>
<text text-anchor="start" x="405.9053" y="-415.8" font-family="Helvetica,sans-Serif" font-size="11.00" fill="#000000">2 &gt;</text>
</a>
</g>
</g>
<!-- clinical_notes_documents&#45;&gt;form_clinical_notes -->
<g id="edge1" class="edge">
<title>clinical_notes_documents:w&#45;&gt;form_clinical_notes:e</title>
<path fill="none" stroke="#000000" d="M483.9184,-378.9746C427.7022,-399.1478 501.2704,-546.7 424.5,-546.7"/>
<polygon fill="#000000" stroke="#000000" points="490.5956,-377.9331 499.0549,-380.257 494.5478,-377.3165 498.5,-376.7 498.5,-376.7 498.5,-376.7 494.5478,-377.3165 497.9451,-373.143 490.5956,-377.9331 490.5956,-377.9331"/>
<ellipse fill="none" stroke="#000000" cx="487.4338" cy="-378.4263" rx="3.2" ry="3.2"/>
</g>
<!-- users -->
<g id="node3" class="node">
<title>users</title>
<g id="a_node3"><a xlink:href="../../tables/users.html" xlink:title="users" target="_top">
<polygon fill="#ffffff" stroke="transparent" points="8,-38.2 8,-253.2 175,-253.2 175,-38.2 8,-38.2"/>
<polygon fill="#f5f5f5" stroke="transparent" points="8.5,-229.7 8.5,-252.7 175.5,-252.7 175.5,-229.7 8.5,-229.7"/>
<polygon fill="none" stroke="#000000" points="8.5,-229.7 8.5,-252.7 175.5,-252.7 175.5,-229.7 8.5,-229.7"/>
<text text-anchor="start" x="13.5" y="-238.3" font-family="Helvetica,sans-Serif" font-weight="bold" font-size="11.00" fill="#000000">users</text>
<text text-anchor="start" x="140.5437" y="-237.8" font-family="Helvetica,sans-Serif" font-size="11.00" fill="#000000">[table]</text>
<polygon fill="none" stroke="#000000" points="8.5,-207.7 8.5,-229.7 175.5,-229.7 175.5,-207.7 8.5,-207.7"/>
<image xlink:href="../../images/primaryKeys.png" width="11px" height="12px" preserveAspectRatio="xMinYMin meet" x="13.5" y="-224.7"/>
<text text-anchor="start" x="28.5" y="-214.8" font-family="Helvetica,sans-Serif" font-size="11.00" fill="#000000">id</text>
<polygon fill="#ffffff" stroke="transparent" points="8.5,-185.7 8.5,-207.7 175.5,-207.7 175.5,-185.7 8.5,-185.7"/>
<polygon fill="none" stroke="#000000" points="8.5,-185.7 8.5,-207.7 175.5,-207.7 175.5,-185.7 8.5,-185.7"/>
<text text-anchor="start" x="28.5" y="-192.8" font-family="Helvetica,sans-Serif" font-size="11.00" fill="#000000">uuid</text>
<polygon fill="none" stroke="#000000" points="8.5,-163.7 8.5,-185.7 175.5,-185.7 175.5,-163.7 8.5,-163.7"/>
<image xlink:href="../../images/primaryKeys.png" width="11px" height="12px" preserveAspectRatio="xMinYMin meet" x="13.5" y="-180.7"/>
<text text-anchor="start" x="28.5" y="-170.8" font-family="Helvetica,sans-Serif" font-size="11.00" fill="#000000">username</text>
<polygon fill="none" stroke="#000000" points="8.5,-141.7 8.5,-163.7 175.5,-163.7 175.5,-141.7 8.5,-141.7"/>
<image xlink:href="../../images/foreignKeys.png" width="11px" height="12px" preserveAspectRatio="xMinYMin meet" x="13.5" y="-158.7"/>
<text text-anchor="start" x="28.5" y="-148.8" font-family="Helvetica,sans-Serif" font-size="11.00" fill="#000000">facility_id</text>
<polygon fill="#ffffff" stroke="transparent" points="8.5,-119.7 8.5,-141.7 175.5,-141.7 175.5,-119.7 8.5,-119.7"/>
<polygon fill="none" stroke="#000000" points="8.5,-119.7 8.5,-141.7 175.5,-141.7 175.5,-119.7 8.5,-119.7"/>
<text text-anchor="start" x="28.5" y="-126.8" font-family="Helvetica,sans-Serif" font-size="11.00" fill="#000000">google_signin_email</text>
<polygon fill="#ffffff" stroke="transparent" points="8.5,-97.7 8.5,-119.7 175.5,-119.7 175.5,-97.7 8.5,-97.7"/>
<polygon fill="none" stroke="#000000" points="8.5,-97.7 8.5,-119.7 175.5,-119.7 175.5,-97.7 8.5,-97.7"/>
<text text-anchor="start" x="28.5" y="-104.8" font-family="Helvetica,sans-Serif" font-size="11.00" fill="#000000">abook_type</text>
<polygon fill="none" stroke="#000000" points="8.5,-75.7 8.5,-97.7 175.5,-97.7 175.5,-75.7 8.5,-75.7"/>
<image xlink:href="../../images/foreignKeys.png" width="11px" height="12px" preserveAspectRatio="xMinYMin meet" x="13.5" y="-92.7"/>
<text text-anchor="start" x="28.5" y="-82.8" font-family="Helvetica,sans-Serif" font-size="11.00" fill="#000000">billing_facility_id</text>
<polygon fill="none" stroke="#000000" points="8.5,-56.7 8.5,-75.7 175.5,-75.7 175.5,-56.7 8.5,-56.7"/>
<text text-anchor="start" x="11.5" y="-62.8" font-family="Helvetica,sans-Serif" font-size="11.00" fill="#000000">...</text>
<polygon fill="#ffffff" stroke="transparent" points="8.5,-37.7 8.5,-56.7 82.5,-56.7 82.5,-37.7 8.5,-37.7"/>
<polygon fill="none" stroke="#000000" points="8.5,-37.7 8.5,-56.7 82.5,-56.7 82.5,-37.7 8.5,-37.7"/>
<text text-anchor="start" x="11.5" y="-43.8" font-family="Helvetica,sans-Serif" font-size="11.00" fill="#000000">&lt; 2</text>
<polygon fill="#ffffff" stroke="transparent" points="82.5,-37.7 82.5,-56.7 121.5,-56.7 121.5,-37.7 82.5,-37.7"/>
<polygon fill="none" stroke="#000000" points="82.5,-37.7 82.5,-56.7 121.5,-56.7 121.5,-37.7 82.5,-37.7"/>
<text text-anchor="start" x="112.3862" y="-43.8" font-family="Helvetica,sans-Serif" font-size="11.00" fill="#000000"> &#160;</text>
<polygon fill="#ffffff" stroke="transparent" points="121.5,-37.7 121.5,-56.7 175.5,-56.7 175.5,-37.7 121.5,-37.7"/>
<polygon fill="none" stroke="#000000" points="121.5,-37.7 121.5,-56.7 175.5,-56.7 175.5,-37.7 121.5,-37.7"/>
<text text-anchor="start" x="150.7904" y="-43.8" font-family="Helvetica,sans-Serif" font-size="11.00" fill="#000000">90 &gt;</text>
</a>
</g>
</g>
<!-- clinical_notes_documents&#45;&gt;users -->
<g id="edge2" class="edge">
<title>clinical_notes_documents:w&#45;&gt;users:e</title>
<path fill="none" stroke="#000000" d="M484.1659,-309.2822C415.7248,-293.7844 525.6058,-155.3436 455,-97.7 372.7174,-30.5232 306.9274,-42.7876 216,-97.7 182.9004,-117.6894 214.1673,-174.7 175.5,-174.7"/>
<polygon fill="#000000" stroke="#000000" points="490.5388,-309.9125 498.1456,-314.2825 494.5194,-310.3062 498.5,-310.7 498.5,-310.7 498.5,-310.7 494.5194,-310.3062 498.8544,-307.1175 490.5388,-309.9125 490.5388,-309.9125"/>
<ellipse fill="none" stroke="#000000" cx="487.3544" cy="-309.5975" rx="3.2" ry="3.2"/>
</g>
<!-- documents -->
<g id="node4" class="node">
<title>documents</title>
<g id="a_node4"><a xlink:href="../../tables/documents.html" xlink:title="documents" target="_top">
<polygon fill="#ffffff" stroke="transparent" points="224,-108.2 224,-389.2 447,-389.2 447,-108.2 224,-108.2"/>
<polygon fill="#f5f5f5" stroke="transparent" points="224.5,-365.7 224.5,-388.7 447.5,-388.7 447.5,-365.7 224.5,-365.7"/>
<polygon fill="none" stroke="#000000" points="224.5,-365.7 224.5,-388.7 447.5,-388.7 447.5,-365.7 224.5,-365.7"/>
<text text-anchor="start" x="229.5" y="-374.3" font-family="Helvetica,sans-Serif" font-weight="bold" font-size="11.00" fill="#000000">documents</text>
<text text-anchor="start" x="412.5437" y="-373.8" font-family="Helvetica,sans-Serif" font-size="11.00" fill="#000000">[table]</text>
<polygon fill="none" stroke="#000000" points="224.5,-343.7 224.5,-365.7 447.5,-365.7 447.5,-343.7 224.5,-343.7"/>
<image xlink:href="../../images/primaryKeys.png" width="11px" height="12px" preserveAspectRatio="xMinYMin meet" x="229.5" y="-360.7"/>
<text text-anchor="start" x="244.5" y="-350.8" font-family="Helvetica,sans-Serif" font-size="11.00" fill="#000000">id</text>
<polygon fill="#ffffff" stroke="transparent" points="224.5,-321.7 224.5,-343.7 447.5,-343.7 447.5,-321.7 224.5,-321.7"/>
<polygon fill="none" stroke="#000000" points="224.5,-321.7 224.5,-343.7 447.5,-343.7 447.5,-321.7 224.5,-321.7"/>
<text text-anchor="start" x="244.5" y="-328.8" font-family="Helvetica,sans-Serif" font-size="11.00" fill="#000000">uuid</text>
<polygon fill="#ffffff" stroke="transparent" points="224.5,-299.7 224.5,-321.7 447.5,-321.7 447.5,-299.7 224.5,-299.7"/>
<polygon fill="none" stroke="#000000" points="224.5,-299.7 224.5,-321.7 447.5,-321.7 447.5,-299.7 224.5,-299.7"/>
<image xlink:href="../../images/foreignKeys.png" width="11px" height="12px" preserveAspectRatio="xMinYMin meet" x="229.5" y="-316.7"/>
<text text-anchor="start" x="244.5" y="-306.8" font-family="Helvetica,sans-Serif" font-size="11.00" fill="#000000">owner</text>
<polygon fill="#ffffff" stroke="transparent" points="224.5,-277.7 224.5,-299.7 447.5,-299.7 447.5,-277.7 224.5,-277.7"/>
<polygon fill="none" stroke="#000000" points="224.5,-277.7 224.5,-299.7 447.5,-299.7 447.5,-277.7 224.5,-277.7"/>
<text text-anchor="start" x="244.5" y="-284.8" font-family="Helvetica,sans-Serif" font-size="11.00" fill="#000000">revision</text>
<polygon fill="#ffffff" stroke="transparent" points="224.5,-255.7 224.5,-277.7 447.5,-277.7 447.5,-255.7 224.5,-255.7"/>
<polygon fill="none" stroke="#000000" points="224.5,-255.7 224.5,-277.7 447.5,-277.7 447.5,-255.7 224.5,-255.7"/>
<image xlink:href="../../images/foreignKeys.png" width="11px" height="12px" preserveAspectRatio="xMinYMin meet" x="229.5" y="-272.7"/>
<text text-anchor="start" x="244.5" y="-262.8" font-family="Helvetica,sans-Serif" font-size="11.00" fill="#000000">foreign_id</text>
<polygon fill="none" stroke="#000000" points="224.5,-233.7 224.5,-255.7 447.5,-255.7 447.5,-233.7 224.5,-233.7"/>
<image xlink:href="../../images/foreignKeys.png" width="11px" height="12px" preserveAspectRatio="xMinYMin meet" x="229.5" y="-250.7"/>
<text text-anchor="start" x="244.5" y="-240.8" font-family="Helvetica,sans-Serif" font-size="11.00" fill="#000000">list_id</text>
<polygon fill="#ffffff" stroke="transparent" points="224.5,-211.7 224.5,-233.7 447.5,-233.7 447.5,-211.7 224.5,-211.7"/>
<polygon fill="none" stroke="#000000" points="224.5,-211.7 224.5,-233.7 447.5,-233.7 447.5,-211.7 224.5,-211.7"/>
<text text-anchor="start" x="244.5" y="-218.8" font-family="Helvetica,sans-Serif" font-size="11.00" fill="#000000">drive_uuid</text>
<polygon fill="none" stroke="#000000" points="224.5,-189.7 224.5,-211.7 447.5,-211.7 447.5,-189.7 224.5,-189.7"/>
<image xlink:href="../../images/foreignKeys.png" width="11px" height="12px" preserveAspectRatio="xMinYMin meet" x="229.5" y="-206.7"/>
<text text-anchor="start" x="244.5" y="-196.8" font-family="Helvetica,sans-Serif" font-size="11.00" fill="#000000">encounter_id</text>
<polygon fill="#ffffff" stroke="transparent" points="224.5,-167.7 224.5,-189.7 447.5,-189.7 447.5,-167.7 224.5,-167.7"/>
<polygon fill="none" stroke="#000000" points="224.5,-167.7 224.5,-189.7 447.5,-189.7 447.5,-167.7 224.5,-167.7"/>
<text text-anchor="start" x="244.5" y="-174.8" font-family="Helvetica,sans-Serif" font-size="11.00" fill="#000000">foreign_reference_id</text>
<polygon fill="#ffffff" stroke="transparent" points="224.5,-145.7 224.5,-167.7 447.5,-167.7 447.5,-145.7 224.5,-145.7"/>
<polygon fill="none" stroke="#000000" points="224.5,-145.7 224.5,-167.7 447.5,-167.7 447.5,-145.7 224.5,-145.7"/>
<text text-anchor="start" x="244.5" y="-152.8" font-family="Helvetica,sans-Serif" font-size="11.00" fill="#000000">foreign_reference_table</text>
<polygon fill="none" stroke="#000000" points="224.5,-126.7 224.5,-145.7 447.5,-145.7 447.5,-126.7 224.5,-126.7"/>
<text text-anchor="start" x="227.5" y="-132.8" font-family="Helvetica,sans-Serif" font-size="11.00" fill="#000000">...</text>
<polygon fill="#ffffff" stroke="transparent" points="224.5,-107.7 224.5,-126.7 329.5,-126.7 329.5,-107.7 224.5,-107.7"/>
<polygon fill="none" stroke="#000000" points="224.5,-107.7 224.5,-126.7 329.5,-126.7 329.5,-107.7 224.5,-107.7"/>
<text text-anchor="start" x="227.5" y="-113.8" font-family="Helvetica,sans-Serif" font-size="11.00" fill="#000000">&lt; 4</text>
<polygon fill="#ffffff" stroke="transparent" points="329.5,-107.7 329.5,-126.7 383.5,-126.7 383.5,-107.7 329.5,-107.7"/>
<polygon fill="none" stroke="#000000" points="329.5,-107.7 329.5,-126.7 383.5,-126.7 383.5,-107.7 329.5,-107.7"/>
<text text-anchor="start" x="374.3862" y="-113.8" font-family="Helvetica,sans-Serif" font-size="11.00" fill="#000000"> &#160;</text>
<polygon fill="#ffffff" stroke="transparent" points="383.5,-107.7 383.5,-126.7 447.5,-126.7 447.5,-107.7 383.5,-107.7"/>
<polygon fill="none" stroke="#000000" points="383.5,-107.7 383.5,-126.7 447.5,-126.7 447.5,-107.7 383.5,-107.7"/>
<text text-anchor="start" x="428.9053" y="-113.8" font-family="Helvetica,sans-Serif" font-size="11.00" fill="#000000">4 &gt;</text>
</a>
</g>
</g>
<!-- clinical_notes_documents&#45;&gt;documents -->
<g id="edge3" class="edge">
<title>clinical_notes_documents:w&#45;&gt;documents:e</title>
<path fill="none" stroke="#000000" d="M483.776,-354.7C471.7815,-354.7 464.3229,-354.7 447.5,-354.7"/>
<polygon fill="#000000" stroke="#000000" points="490.5,-354.7001 498.5,-358.3 494.5,-354.7 498.5,-354.7 498.5,-354.7 498.5,-354.7 494.5,-354.7 498.5,-351.1 490.5,-354.7001 490.5,-354.7001"/>
<ellipse fill="none" stroke="#000000" cx="487.3" cy="-354.7001" rx="3.2" ry="3.2"/>
</g>
<!-- documents&#45;&gt;users -->
<g id="edge4" class="edge">
<title>documents:w&#45;&gt;users:e</title>
<path fill="none" stroke="#000000" d="M210.6846,-306.5079C187.9325,-288.51 215.855,-218.7 175.5,-218.7"/>
<polygon fill="#000000" stroke="#000000" points="216.8447,-308.377 223.4547,-314.1449 220.6723,-309.5385 224.5,-310.7 224.5,-310.7 224.5,-310.7 220.6723,-309.5385 225.5453,-307.2551 216.8447,-308.377 216.8447,-308.377"/>
<ellipse fill="none" stroke="#000000" cx="213.7825" cy="-307.4479" rx="3.2" ry="3.2"/>
</g>
</g>
</svg>
