<?xml version="1.0" encoding="UTF-8" standalone="no"?>
<!DOCTYPE svg PUBLIC "-//W3C//DTD SVG 1.1//EN"
 "http://www.w3.org/Graphics/SVG/1.1/DTD/svg11.dtd">
<!-- Generated by graphviz version 2.40.1 (20161225.0304)
 -->
<!-- Title: oneDegreeRelationshipsDiagram Pages: 1 -->
<svg width="425pt" height="448pt"
 viewBox="0.00 0.00 425.00 448.20" xmlns="http://www.w3.org/2000/svg" xmlns:xlink="http://www.w3.org/1999/xlink">
<g id="graph0" class="graph" transform="scale(1 1) rotate(0) translate(4 444.2)">
<title>oneDegreeRelationshipsDiagram</title>
<polygon fill="#ffffff" stroke="transparent" points="-4,4 -4,-444.2 421,-444.2 421,4 -4,4"/>
<text text-anchor="middle" x="72.4936" y="-7.3" font-family="Helvetica,sans-Serif" font-size="11.00" fill="#000000">Generated by SchemaSpy</text>
<!-- contact_telecom -->
<g id="node1" class="node">
<title>contact_telecom</title>
<g id="a_node1"><a xlink:href="../../tables/contact_telecom.html" xlink:title="contact_telecom" target="_top">
<polygon fill="#ffffff" stroke="transparent" points="189,-38.2 189,-436.2 409,-436.2 409,-38.2 189,-38.2"/>
<polygon fill="#f5f5f5" stroke="transparent" points="191,-411.2 191,-434.2 407,-434.2 407,-411.2 191,-411.2"/>
<polygon fill="none" stroke="#000000" points="191,-411.2 191,-434.2 407,-434.2 407,-411.2 191,-411.2"/>
<text text-anchor="start" x="196" y="-419.8" font-family="Helvetica,sans-Serif" font-weight="bold" font-size="11.00" fill="#000000">contact_telecom</text>
<text text-anchor="start" x="372.0437" y="-419.3" font-family="Helvetica,sans-Serif" font-size="11.00" fill="#000000">[table]</text>
<polygon fill="none" stroke="#000000" points="191,-389.2 191,-411.2 340,-411.2 340,-389.2 191,-389.2"/>
<image xlink:href="../../images/primaryKeys.png" width="11px" height="12px" preserveAspectRatio="xMinYMin meet" x="196" y="-406.2"/>
<text text-anchor="start" x="211" y="-396.3" font-family="Helvetica,sans-Serif" font-size="11.00" fill="#000000">id</text>
<polygon fill="none" stroke="#000000" points="340,-389.2 340,-411.2 407,-411.2 407,-389.2 340,-389.2"/>
<text text-anchor="start" x="343" y="-396.9" font-family="Helvetica,sans-Serif" font-size="11.00" fill="#000000">bigint[19]</text>
<polygon fill="#ffffff" stroke="transparent" points="191,-367.2 191,-389.2 340,-389.2 340,-367.2 191,-367.2"/>
<polygon fill="none" stroke="#000000" points="191,-367.2 191,-389.2 340,-389.2 340,-367.2 191,-367.2"/>
<text text-anchor="start" x="211" y="-374.3" font-family="Helvetica,sans-Serif" font-size="11.00" fill="#000000">contact_id</text>
<polygon fill="none" stroke="#000000" points="340,-367.2 340,-389.2 407,-389.2 407,-367.2 340,-367.2"/>
<text text-anchor="start" x="343" y="-374.9" font-family="Helvetica,sans-Serif" font-size="11.00" fill="#000000">bigint[19]</text>
<polygon fill="none" stroke="#000000" points="191,-345.2 191,-367.2 340,-367.2 340,-345.2 191,-345.2"/>
<text text-anchor="start" x="211" y="-352.3" font-family="Helvetica,sans-Serif" font-size="11.00" fill="#000000">rank</text>
<polygon fill="none" stroke="#000000" points="340,-345.2 340,-367.2 407,-367.2 407,-345.2 340,-345.2"/>
<text text-anchor="start" x="343" y="-352.9" font-family="Helvetica,sans-Serif" font-size="11.00" fill="#000000">int[10]</text>
<polygon fill="none" stroke="#000000" points="191,-323.2 191,-345.2 340,-345.2 340,-323.2 191,-323.2"/>
<image xlink:href="../../images/foreignKeys.png" width="11px" height="12px" preserveAspectRatio="xMinYMin meet" x="196" y="-340.2"/>
<text text-anchor="start" x="211" y="-330.3" font-family="Helvetica,sans-Serif" font-size="11.00" fill="#000000">system</text>
<polygon fill="none" stroke="#000000" points="340,-323.2 340,-345.2 407,-345.2 407,-323.2 340,-323.2"/>
<text text-anchor="start" x="342.9365" y="-330.9" font-family="Helvetica,sans-Serif" font-size="11.00" fill="#000000">varchar[255]</text>
<polygon fill="none" stroke="#000000" points="191,-301.2 191,-323.2 340,-323.2 340,-301.2 191,-301.2"/>
<image xlink:href="../../images/foreignKeys.png" width="11px" height="12px" preserveAspectRatio="xMinYMin meet" x="196" y="-318.2"/>
<text text-anchor="start" x="211" y="-308.3" font-family="Helvetica,sans-Serif" font-size="11.00" fill="#000000">use</text>
<polygon fill="none" stroke="#000000" points="340,-301.2 340,-323.2 407,-323.2 407,-301.2 340,-301.2"/>
<text text-anchor="start" x="342.9365" y="-308.9" font-family="Helvetica,sans-Serif" font-size="11.00" fill="#000000">varchar[255]</text>
<polygon fill="none" stroke="#000000" points="191,-279.2 191,-301.2 340,-301.2 340,-279.2 191,-279.2"/>
<text text-anchor="start" x="211" y="-286.3" font-family="Helvetica,sans-Serif" font-size="11.00" fill="#000000">value</text>
<polygon fill="none" stroke="#000000" points="340,-279.2 340,-301.2 407,-301.2 407,-279.2 340,-279.2"/>
<text text-anchor="start" x="342.9365" y="-286.9" font-family="Helvetica,sans-Serif" font-size="11.00" fill="#000000">varchar[255]</text>
<polygon fill="none" stroke="#000000" points="191,-257.2 191,-279.2 340,-279.2 340,-257.2 191,-257.2"/>
<text text-anchor="start" x="211" y="-264.3" font-family="Helvetica,sans-Serif" font-size="11.00" fill="#000000">status</text>
<polygon fill="none" stroke="#000000" points="340,-257.2 340,-279.2 407,-279.2 407,-257.2 340,-257.2"/>
<text text-anchor="start" x="343" y="-264.9" font-family="Helvetica,sans-Serif" font-size="11.00" fill="#000000">char[1]</text>
<polygon fill="none" stroke="#000000" points="191,-235.2 191,-257.2 340,-257.2 340,-235.2 191,-235.2"/>
<text text-anchor="start" x="211" y="-242.3" font-family="Helvetica,sans-Serif" font-size="11.00" fill="#000000">is_primary</text>
<polygon fill="none" stroke="#000000" points="340,-235.2 340,-257.2 407,-257.2 407,-235.2 340,-235.2"/>
<text text-anchor="start" x="343" y="-242.9" font-family="Helvetica,sans-Serif" font-size="11.00" fill="#000000">char[1]</text>
<polygon fill="none" stroke="#000000" points="191,-213.2 191,-235.2 340,-235.2 340,-213.2 191,-213.2"/>
<text text-anchor="start" x="211" y="-220.3" font-family="Helvetica,sans-Serif" font-size="11.00" fill="#000000">notes</text>
<polygon fill="none" stroke="#000000" points="340,-213.2 340,-235.2 407,-235.2 407,-213.2 340,-213.2"/>
<text text-anchor="start" x="343" y="-220.9" font-family="Helvetica,sans-Serif" font-size="11.00" fill="#000000">tinytext[255]</text>
<polygon fill="none" stroke="#000000" points="191,-191.2 191,-213.2 340,-213.2 340,-191.2 191,-191.2"/>
<text text-anchor="start" x="211" y="-198.3" font-family="Helvetica,sans-Serif" font-size="11.00" fill="#000000">period_start</text>
<polygon fill="none" stroke="#000000" points="340,-191.2 340,-213.2 407,-213.2 407,-191.2 340,-191.2"/>
<text text-anchor="start" x="343" y="-198.9" font-family="Helvetica,sans-Serif" font-size="11.00" fill="#000000">datetime[19]</text>
<polygon fill="none" stroke="#000000" points="191,-169.2 191,-191.2 340,-191.2 340,-169.2 191,-169.2"/>
<text text-anchor="start" x="211" y="-176.3" font-family="Helvetica,sans-Serif" font-size="11.00" fill="#000000">period_end</text>
<polygon fill="none" stroke="#000000" points="340,-169.2 340,-191.2 407,-191.2 407,-169.2 340,-169.2"/>
<text text-anchor="start" x="343" y="-176.9" font-family="Helvetica,sans-Serif" font-size="11.00" fill="#000000">datetime[19]</text>
<polygon fill="none" stroke="#000000" points="191,-147.2 191,-169.2 340,-169.2 340,-147.2 191,-147.2"/>
<text text-anchor="start" x="211" y="-154.3" font-family="Helvetica,sans-Serif" font-size="11.00" fill="#000000">inactivated_reason</text>
<polygon fill="none" stroke="#000000" points="340,-147.2 340,-169.2 407,-169.2 407,-147.2 340,-147.2"/>
<text text-anchor="start" x="343" y="-154.9" font-family="Helvetica,sans-Serif" font-size="11.00" fill="#000000">varchar[45]</text>
<polygon fill="none" stroke="#000000" points="191,-125.2 191,-147.2 340,-147.2 340,-125.2 191,-125.2"/>
<text text-anchor="start" x="211" y="-132.3" font-family="Helvetica,sans-Serif" font-size="11.00" fill="#000000">created_date</text>
<polygon fill="none" stroke="#000000" points="340,-125.2 340,-147.2 407,-147.2 407,-125.2 340,-125.2"/>
<text text-anchor="start" x="343" y="-132.9" font-family="Helvetica,sans-Serif" font-size="11.00" fill="#000000">datetime[19]</text>
<polygon fill="none" stroke="#000000" points="191,-103.2 191,-125.2 340,-125.2 340,-103.2 191,-103.2"/>
<text text-anchor="start" x="211" y="-110.3" font-family="Helvetica,sans-Serif" font-size="11.00" fill="#000000">created_by</text>
<polygon fill="none" stroke="#000000" points="340,-103.2 340,-125.2 407,-125.2 407,-103.2 340,-103.2"/>
<text text-anchor="start" x="343" y="-110.9" font-family="Helvetica,sans-Serif" font-size="11.00" fill="#000000">bigint[19]</text>
<polygon fill="none" stroke="#000000" points="191,-81.2 191,-103.2 340,-103.2 340,-81.2 191,-81.2"/>
<text text-anchor="start" x="211" y="-88.3" font-family="Helvetica,sans-Serif" font-size="11.00" fill="#000000">updated_date</text>
<polygon fill="none" stroke="#000000" points="340,-81.2 340,-103.2 407,-103.2 407,-81.2 340,-81.2"/>
<text text-anchor="start" x="343" y="-88.9" font-family="Helvetica,sans-Serif" font-size="11.00" fill="#000000">datetime[19]</text>
<polygon fill="none" stroke="#000000" points="191,-59.2 191,-81.2 340,-81.2 340,-59.2 191,-59.2"/>
<text text-anchor="start" x="211" y="-66.3" font-family="Helvetica,sans-Serif" font-size="11.00" fill="#000000">updated_by</text>
<polygon fill="none" stroke="#000000" points="340,-59.2 340,-81.2 407,-81.2 407,-59.2 340,-59.2"/>
<text text-anchor="start" x="343" y="-66.9" font-family="Helvetica,sans-Serif" font-size="11.00" fill="#000000">bigint[19]</text>
<polygon fill="#ffffff" stroke="transparent" points="191,-40.2 191,-59.2 270,-59.2 270,-40.2 191,-40.2"/>
<polygon fill="none" stroke="#000000" points="191,-40.2 191,-59.2 270,-59.2 270,-40.2 191,-40.2"/>
<text text-anchor="start" x="194" y="-46.3" font-family="Helvetica,sans-Serif" font-size="11.00" fill="#000000">&lt; 2</text>
<polygon fill="#ffffff" stroke="transparent" points="270,-40.2 270,-59.2 340,-59.2 340,-40.2 270,-40.2"/>
<polygon fill="none" stroke="#000000" points="270,-40.2 270,-59.2 340,-59.2 340,-40.2 270,-40.2"/>
<text text-anchor="start" x="330.8862" y="-46.3" font-family="Helvetica,sans-Serif" font-size="11.00" fill="#000000"> &#160;</text>
<polygon fill="#ffffff" stroke="transparent" points="340,-40.2 340,-59.2 407,-59.2 407,-40.2 340,-40.2"/>
<polygon fill="none" stroke="#000000" points="340,-40.2 340,-59.2 407,-59.2 407,-40.2 340,-40.2"/>
<text text-anchor="start" x="388.4053" y="-46.3" font-family="Helvetica,sans-Serif" font-size="11.00" fill="#000000">0 &gt;</text>
<polygon fill="none" stroke="#000000" stroke-width="2" points="190,-39.2 190,-435.2 408,-435.2 408,-39.2 190,-39.2"/>
</a>
</g>
</g>
<!-- list_options -->
<g id="node2" class="node">
<title>list_options</title>
<g id="a_node2"><a xlink:href="../../tables/list_options.html" xlink:title="list_options" target="_top">
<polygon fill="#ffffff" stroke="transparent" points="8,-274.7 8,-379.7 140,-379.7 140,-274.7 8,-274.7"/>
<polygon fill="#f5f5f5" stroke="transparent" points="8,-356.2 8,-379.2 140,-379.2 140,-356.2 8,-356.2"/>
<polygon fill="none" stroke="#000000" points="8,-356.2 8,-379.2 140,-379.2 140,-356.2 8,-356.2"/>
<text text-anchor="start" x="13" y="-364.8" font-family="Helvetica,sans-Serif" font-weight="bold" font-size="11.00" fill="#000000">list_options</text>
<text text-anchor="start" x="105.0437" y="-364.3" font-family="Helvetica,sans-Serif" font-size="11.00" fill="#000000">[table]</text>
<polygon fill="none" stroke="#000000" points="8,-334.2 8,-356.2 140,-356.2 140,-334.2 8,-334.2"/>
<image xlink:href="../../images/primaryKeys.png" width="11px" height="12px" preserveAspectRatio="xMinYMin meet" x="13" y="-351.2"/>
<text text-anchor="start" x="28" y="-341.3" font-family="Helvetica,sans-Serif" font-size="11.00" fill="#000000">list_id</text>
<polygon fill="none" stroke="#000000" points="8,-312.2 8,-334.2 140,-334.2 140,-312.2 8,-312.2"/>
<image xlink:href="../../images/primaryKeys.png" width="11px" height="12px" preserveAspectRatio="xMinYMin meet" x="13" y="-329.2"/>
<text text-anchor="start" x="28" y="-319.3" font-family="Helvetica,sans-Serif" font-size="11.00" fill="#000000">option_id</text>
<polygon fill="none" stroke="#000000" points="8,-293.2 8,-312.2 140,-312.2 140,-293.2 8,-293.2"/>
<text text-anchor="start" x="11" y="-299.3" font-family="Helvetica,sans-Serif" font-size="11.00" fill="#000000">...</text>
<polygon fill="#ffffff" stroke="transparent" points="8,-274.2 8,-293.2 60,-293.2 60,-274.2 8,-274.2"/>
<polygon fill="none" stroke="#000000" points="8,-274.2 8,-293.2 60,-293.2 60,-274.2 8,-274.2"/>
<text text-anchor="start" x="11" y="-280.3" font-family="Helvetica,sans-Serif" font-size="11.00" fill="#000000"> &#160;</text>
<polygon fill="#ffffff" stroke="transparent" points="60,-274.2 60,-293.2 92,-293.2 92,-274.2 60,-274.2"/>
<polygon fill="none" stroke="#000000" points="60,-274.2 60,-293.2 92,-293.2 92,-274.2 60,-274.2"/>
<text text-anchor="start" x="82.8862" y="-280.3" font-family="Helvetica,sans-Serif" font-size="11.00" fill="#000000"> &#160;</text>
<polygon fill="#ffffff" stroke="transparent" points="92,-274.2 92,-293.2 140,-293.2 140,-274.2 92,-274.2"/>
<polygon fill="none" stroke="#000000" points="92,-274.2 92,-293.2 140,-293.2 140,-274.2 92,-274.2"/>
<text text-anchor="start" x="115.2904" y="-280.3" font-family="Helvetica,sans-Serif" font-size="11.00" fill="#000000">98 &gt;</text>
</a>
</g>
</g>
<!-- contact_telecom&#45;&gt;list_options -->
<g id="edge1" class="edge">
<title>contact_telecom:w&#45;&gt;list_options:e</title>
<path fill="none" stroke="#000000" d="M176.5097,-332.4813C164.3398,-329.3875 157.3909,-323.2 140,-323.2"/>
<polygon fill="#000000" stroke="#000000" points="183.0557,-333.2576 190.5759,-337.7749 187.0278,-333.7288 191,-334.2 191,-334.2 191,-334.2 187.0278,-333.7288 191.4241,-330.6251 183.0557,-333.2576 183.0557,-333.2576"/>
<ellipse fill="none" stroke="#000000" cx="179.878" cy="-332.8807" rx="3.2" ry="3.2"/>
</g>
<!-- contact_telecom&#45;&gt;list_options -->
<g id="edge2" class="edge">
<title>contact_telecom:w&#45;&gt;list_options:e</title>
<path fill="none" stroke="#000000" d="M176.5097,-313.9188C164.3398,-317.0125 157.3909,-323.2 140,-323.2"/>
<polygon fill="#000000" stroke="#000000" points="183.0557,-313.1424 191.4241,-315.7749 187.0278,-312.6712 191,-312.2 191,-312.2 191,-312.2 187.0278,-312.6712 190.5759,-308.6251 183.0557,-313.1424 183.0557,-313.1424"/>
<ellipse fill="none" stroke="#000000" cx="179.878" cy="-313.5193" rx="3.2" ry="3.2"/>
</g>
</g>
</svg>
