<?xml version="1.0" encoding="UTF-8" standalone="no"?>
<!DOCTYPE svg PUBLIC "-//W3C//DTD SVG 1.1//EN"
 "http://www.w3.org/Graphics/SVG/1.1/DTD/svg11.dtd">
<!-- Generated by graphviz version 2.40.1 (20161225.0304)
 -->
<!-- Title: oneDegreeRelationshipsDiagram Pages: 1 -->
<svg width="437pt" height="391pt"
 viewBox="0.00 0.00 437.00 391.20" xmlns="http://www.w3.org/2000/svg" xmlns:xlink="http://www.w3.org/1999/xlink">
<g id="graph0" class="graph" transform="scale(1 1) rotate(0) translate(4 387.2)">
<title>oneDegreeRelationshipsDiagram</title>
<polygon fill="#ffffff" stroke="transparent" points="-4,4 -4,-387.2 433,-387.2 433,4 -4,4"/>
<text text-anchor="middle" x="72.4936" y="-7.3" font-family="Helvetica,sans-Serif" font-size="11.00" fill="#000000">Generated by SchemaSpy</text>
<!-- contact_address -->
<g id="node1" class="node">
<title>contact_address</title>
<g id="a_node1"><a xlink:href="../../tables/contact_address.html" xlink:title="contact_address" target="_top">
<polygon fill="#ffffff" stroke="transparent" points="224,-128.7 224,-350.7 421,-350.7 421,-128.7 224,-128.7"/>
<polygon fill="#f5f5f5" stroke="transparent" points="226.5,-325.7 226.5,-348.7 419.5,-348.7 419.5,-325.7 226.5,-325.7"/>
<polygon fill="none" stroke="#000000" points="226.5,-325.7 226.5,-348.7 419.5,-348.7 419.5,-325.7 226.5,-325.7"/>
<text text-anchor="start" x="231.5" y="-334.3" font-family="Helvetica,sans-Serif" font-weight="bold" font-size="11.00" fill="#000000">contact_address</text>
<text text-anchor="start" x="384.5437" y="-333.8" font-family="Helvetica,sans-Serif" font-size="11.00" fill="#000000">[table]</text>
<polygon fill="none" stroke="#000000" points="226.5,-303.7 226.5,-325.7 357.5,-325.7 357.5,-303.7 226.5,-303.7"/>
<text text-anchor="start" x="246.5" y="-310.8" font-family="Helvetica,sans-Serif" font-size="11.00" fill="#000000">address_id</text>
<polygon fill="none" stroke="#000000" points="357.5,-303.7 357.5,-325.7 419.5,-325.7 419.5,-303.7 357.5,-303.7"/>
<text text-anchor="start" x="360.378" y="-311.4" font-family="Helvetica,sans-Serif" font-size="11.00" fill="#000000">unknown[0]</text>
<polygon fill="none" stroke="#000000" points="226.5,-281.7 226.5,-303.7 357.5,-303.7 357.5,-281.7 226.5,-281.7"/>
<text text-anchor="start" x="246.5" y="-288.8" font-family="Helvetica,sans-Serif" font-size="11.00" fill="#000000">contact_id</text>
<polygon fill="none" stroke="#000000" points="357.5,-281.7 357.5,-303.7 419.5,-303.7 419.5,-281.7 357.5,-281.7"/>
<text text-anchor="start" x="360.378" y="-289.4" font-family="Helvetica,sans-Serif" font-size="11.00" fill="#000000">unknown[0]</text>
<polygon fill="none" stroke="#000000" points="226.5,-259.7 226.5,-281.7 357.5,-281.7 357.5,-259.7 226.5,-259.7"/>
<image xlink:href="../../images/foreignKeys.png" width="11px" height="12px" preserveAspectRatio="xMinYMin meet" x="231.5" y="-276.7"/>
<text text-anchor="start" x="246.5" y="-266.8" font-family="Helvetica,sans-Serif" font-size="11.00" fill="#000000">created_by</text>
<polygon fill="none" stroke="#000000" points="357.5,-259.7 357.5,-281.7 419.5,-281.7 419.5,-259.7 357.5,-259.7"/>
<text text-anchor="start" x="360.378" y="-267.4" font-family="Helvetica,sans-Serif" font-size="11.00" fill="#000000">unknown[0]</text>
<polygon fill="none" stroke="#000000" points="226.5,-237.7 226.5,-259.7 357.5,-259.7 357.5,-237.7 226.5,-237.7"/>
<text text-anchor="start" x="246.5" y="-244.8" font-family="Helvetica,sans-Serif" font-size="11.00" fill="#000000">is_primary</text>
<polygon fill="none" stroke="#000000" points="357.5,-237.7 357.5,-259.7 419.5,-259.7 419.5,-237.7 357.5,-237.7"/>
<text text-anchor="start" x="360.378" y="-245.4" font-family="Helvetica,sans-Serif" font-size="11.00" fill="#000000">unknown[0]</text>
<polygon fill="none" stroke="#000000" points="226.5,-215.7 226.5,-237.7 357.5,-237.7 357.5,-215.7 226.5,-215.7"/>
<text text-anchor="start" x="246.5" y="-222.8" font-family="Helvetica,sans-Serif" font-size="11.00" fill="#000000">status</text>
<polygon fill="none" stroke="#000000" points="357.5,-215.7 357.5,-237.7 419.5,-237.7 419.5,-215.7 357.5,-215.7"/>
<text text-anchor="start" x="360.378" y="-223.4" font-family="Helvetica,sans-Serif" font-size="11.00" fill="#000000">unknown[0]</text>
<polygon fill="none" stroke="#000000" points="226.5,-193.7 226.5,-215.7 357.5,-215.7 357.5,-193.7 226.5,-193.7"/>
<image xlink:href="../../images/foreignKeys.png" width="11px" height="12px" preserveAspectRatio="xMinYMin meet" x="231.5" y="-210.7"/>
<text text-anchor="start" x="246.5" y="-200.8" font-family="Helvetica,sans-Serif" font-size="11.00" fill="#000000">type</text>
<polygon fill="none" stroke="#000000" points="357.5,-193.7 357.5,-215.7 419.5,-215.7 419.5,-193.7 357.5,-193.7"/>
<text text-anchor="start" x="360.378" y="-201.4" font-family="Helvetica,sans-Serif" font-size="11.00" fill="#000000">unknown[0]</text>
<polygon fill="none" stroke="#000000" points="226.5,-171.7 226.5,-193.7 357.5,-193.7 357.5,-171.7 226.5,-171.7"/>
<image xlink:href="../../images/foreignKeys.png" width="11px" height="12px" preserveAspectRatio="xMinYMin meet" x="231.5" y="-188.7"/>
<text text-anchor="start" x="246.5" y="-178.8" font-family="Helvetica,sans-Serif" font-size="11.00" fill="#000000">updated_by</text>
<polygon fill="none" stroke="#000000" points="357.5,-171.7 357.5,-193.7 419.5,-193.7 419.5,-171.7 357.5,-171.7"/>
<text text-anchor="start" x="360.378" y="-179.4" font-family="Helvetica,sans-Serif" font-size="11.00" fill="#000000">unknown[0]</text>
<polygon fill="none" stroke="#000000" points="226.5,-149.7 226.5,-171.7 357.5,-171.7 357.5,-149.7 226.5,-149.7"/>
<image xlink:href="../../images/foreignKeys.png" width="11px" height="12px" preserveAspectRatio="xMinYMin meet" x="231.5" y="-166.7"/>
<text text-anchor="start" x="246.5" y="-156.8" font-family="Helvetica,sans-Serif" font-size="11.00" fill="#000000">use</text>
<polygon fill="none" stroke="#000000" points="357.5,-149.7 357.5,-171.7 419.5,-171.7 419.5,-149.7 357.5,-149.7"/>
<text text-anchor="start" x="360.378" y="-157.4" font-family="Helvetica,sans-Serif" font-size="11.00" fill="#000000">unknown[0]</text>
<polygon fill="#ffffff" stroke="transparent" points="226.5,-130.7 226.5,-149.7 296.5,-149.7 296.5,-130.7 226.5,-130.7"/>
<polygon fill="none" stroke="#000000" points="226.5,-130.7 226.5,-149.7 296.5,-149.7 296.5,-130.7 226.5,-130.7"/>
<text text-anchor="start" x="229.5" y="-136.8" font-family="Helvetica,sans-Serif" font-size="11.00" fill="#000000">&lt; 4</text>
<polygon fill="#ffffff" stroke="transparent" points="296.5,-130.7 296.5,-149.7 357.5,-149.7 357.5,-130.7 296.5,-130.7"/>
<polygon fill="none" stroke="#000000" points="296.5,-130.7 296.5,-149.7 357.5,-149.7 357.5,-130.7 296.5,-130.7"/>
<text text-anchor="start" x="348.3862" y="-136.8" font-family="Helvetica,sans-Serif" font-size="11.00" fill="#000000"> &#160;</text>
<polygon fill="#ffffff" stroke="transparent" points="357.5,-130.7 357.5,-149.7 419.5,-149.7 419.5,-130.7 357.5,-130.7"/>
<polygon fill="none" stroke="#000000" points="357.5,-130.7 357.5,-149.7 419.5,-149.7 419.5,-130.7 357.5,-130.7"/>
<text text-anchor="start" x="400.9053" y="-136.8" font-family="Helvetica,sans-Serif" font-size="11.00" fill="#000000">0 &gt;</text>
<polygon fill="none" stroke="#000000" stroke-width="2" points="225,-129.7 225,-349.7 420,-349.7 420,-129.7 225,-129.7"/>
</a>
</g>
</g>
<!-- users -->
<g id="node2" class="node">
<title>users</title>
<g id="a_node2"><a xlink:href="../../tables/users.html" xlink:title="users" target="_top">
<polygon fill="#ffffff" stroke="transparent" points="8,-164.2 8,-379.2 175,-379.2 175,-164.2 8,-164.2"/>
<polygon fill="#f5f5f5" stroke="transparent" points="8.5,-355.7 8.5,-378.7 175.5,-378.7 175.5,-355.7 8.5,-355.7"/>
<polygon fill="none" stroke="#000000" points="8.5,-355.7 8.5,-378.7 175.5,-378.7 175.5,-355.7 8.5,-355.7"/>
<text text-anchor="start" x="13.5" y="-364.3" font-family="Helvetica,sans-Serif" font-weight="bold" font-size="11.00" fill="#000000">users</text>
<text text-anchor="start" x="140.5437" y="-363.8" font-family="Helvetica,sans-Serif" font-size="11.00" fill="#000000">[table]</text>
<polygon fill="none" stroke="#000000" points="8.5,-333.7 8.5,-355.7 175.5,-355.7 175.5,-333.7 8.5,-333.7"/>
<image xlink:href="../../images/primaryKeys.png" width="11px" height="12px" preserveAspectRatio="xMinYMin meet" x="13.5" y="-350.7"/>
<text text-anchor="start" x="28.5" y="-340.8" font-family="Helvetica,sans-Serif" font-size="11.00" fill="#000000">id</text>
<polygon fill="#ffffff" stroke="transparent" points="8.5,-311.7 8.5,-333.7 175.5,-333.7 175.5,-311.7 8.5,-311.7"/>
<polygon fill="none" stroke="#000000" points="8.5,-311.7 8.5,-333.7 175.5,-333.7 175.5,-311.7 8.5,-311.7"/>
<text text-anchor="start" x="28.5" y="-318.8" font-family="Helvetica,sans-Serif" font-size="11.00" fill="#000000">uuid</text>
<polygon fill="none" stroke="#000000" points="8.5,-289.7 8.5,-311.7 175.5,-311.7 175.5,-289.7 8.5,-289.7"/>
<image xlink:href="../../images/primaryKeys.png" width="11px" height="12px" preserveAspectRatio="xMinYMin meet" x="13.5" y="-306.7"/>
<text text-anchor="start" x="28.5" y="-296.8" font-family="Helvetica,sans-Serif" font-size="11.00" fill="#000000">username</text>
<polygon fill="none" stroke="#000000" points="8.5,-267.7 8.5,-289.7 175.5,-289.7 175.5,-267.7 8.5,-267.7"/>
<image xlink:href="../../images/foreignKeys.png" width="11px" height="12px" preserveAspectRatio="xMinYMin meet" x="13.5" y="-284.7"/>
<text text-anchor="start" x="28.5" y="-274.8" font-family="Helvetica,sans-Serif" font-size="11.00" fill="#000000">facility_id</text>
<polygon fill="#ffffff" stroke="transparent" points="8.5,-245.7 8.5,-267.7 175.5,-267.7 175.5,-245.7 8.5,-245.7"/>
<polygon fill="none" stroke="#000000" points="8.5,-245.7 8.5,-267.7 175.5,-267.7 175.5,-245.7 8.5,-245.7"/>
<text text-anchor="start" x="28.5" y="-252.8" font-family="Helvetica,sans-Serif" font-size="11.00" fill="#000000">google_signin_email</text>
<polygon fill="#ffffff" stroke="transparent" points="8.5,-223.7 8.5,-245.7 175.5,-245.7 175.5,-223.7 8.5,-223.7"/>
<polygon fill="none" stroke="#000000" points="8.5,-223.7 8.5,-245.7 175.5,-245.7 175.5,-223.7 8.5,-223.7"/>
<text text-anchor="start" x="28.5" y="-230.8" font-family="Helvetica,sans-Serif" font-size="11.00" fill="#000000">abook_type</text>
<polygon fill="none" stroke="#000000" points="8.5,-201.7 8.5,-223.7 175.5,-223.7 175.5,-201.7 8.5,-201.7"/>
<image xlink:href="../../images/foreignKeys.png" width="11px" height="12px" preserveAspectRatio="xMinYMin meet" x="13.5" y="-218.7"/>
<text text-anchor="start" x="28.5" y="-208.8" font-family="Helvetica,sans-Serif" font-size="11.00" fill="#000000">billing_facility_id</text>
<polygon fill="none" stroke="#000000" points="8.5,-182.7 8.5,-201.7 175.5,-201.7 175.5,-182.7 8.5,-182.7"/>
<text text-anchor="start" x="11.5" y="-188.8" font-family="Helvetica,sans-Serif" font-size="11.00" fill="#000000">...</text>
<polygon fill="#ffffff" stroke="transparent" points="8.5,-163.7 8.5,-182.7 82.5,-182.7 82.5,-163.7 8.5,-163.7"/>
<polygon fill="none" stroke="#000000" points="8.5,-163.7 8.5,-182.7 82.5,-182.7 82.5,-163.7 8.5,-163.7"/>
<text text-anchor="start" x="11.5" y="-169.8" font-family="Helvetica,sans-Serif" font-size="11.00" fill="#000000">&lt; 2</text>
<polygon fill="#ffffff" stroke="transparent" points="82.5,-163.7 82.5,-182.7 121.5,-182.7 121.5,-163.7 82.5,-163.7"/>
<polygon fill="none" stroke="#000000" points="82.5,-163.7 82.5,-182.7 121.5,-182.7 121.5,-163.7 82.5,-163.7"/>
<text text-anchor="start" x="112.3862" y="-169.8" font-family="Helvetica,sans-Serif" font-size="11.00" fill="#000000"> &#160;</text>
<polygon fill="#ffffff" stroke="transparent" points="121.5,-163.7 121.5,-182.7 175.5,-182.7 175.5,-163.7 121.5,-163.7"/>
<polygon fill="none" stroke="#000000" points="121.5,-163.7 121.5,-182.7 175.5,-182.7 175.5,-163.7 121.5,-163.7"/>
<text text-anchor="start" x="150.7904" y="-169.8" font-family="Helvetica,sans-Serif" font-size="11.00" fill="#000000">90 &gt;</text>
</a>
</g>
</g>
<!-- contact_address&#45;&gt;users -->
<g id="edge1" class="edge">
<title>contact_address:w&#45;&gt;users:e</title>
<path fill="none" stroke="#000000" d="M212.5503,-275.329C193.7607,-291.5294 209.3581,-344.7 175.5,-344.7"/>
<polygon fill="#000000" stroke="#000000" points="218.9071,-273.2196 227.6338,-274.1168 222.7036,-271.9598 226.5,-270.7 226.5,-270.7 226.5,-270.7 222.7036,-271.9598 225.3662,-267.2832 218.9071,-273.2196 218.9071,-273.2196"/>
<ellipse fill="none" stroke="#000000" cx="215.87" cy="-274.2275" rx="3.2" ry="3.2"/>
</g>
<!-- contact_address&#45;&gt;users -->
<g id="edge3" class="edge">
<title>contact_address:w&#45;&gt;users:e</title>
<path fill="none" stroke="#000000" d="M212.1497,-185.3767C165.2278,-206.4397 245.2339,-344.7 175.5,-344.7"/>
<polygon fill="#000000" stroke="#000000" points="218.6356,-184.1669 227.1601,-186.239 222.5678,-183.4335 226.5,-182.7 226.5,-182.7 226.5,-182.7 222.5678,-183.4335 225.8399,-179.161 218.6356,-184.1669 218.6356,-184.1669"/>
<ellipse fill="none" stroke="#000000" cx="215.4899" cy="-184.7537" rx="3.2" ry="3.2"/>
</g>
<!-- list_options -->
<g id="node3" class="node">
<title>list_options</title>
<g id="a_node3"><a xlink:href="../../tables/list_options.html" xlink:title="list_options" target="_top">
<polygon fill="#ffffff" stroke="transparent" points="25.5,-38.2 25.5,-143.2 157.5,-143.2 157.5,-38.2 25.5,-38.2"/>
<polygon fill="#f5f5f5" stroke="transparent" points="25.5,-119.7 25.5,-142.7 157.5,-142.7 157.5,-119.7 25.5,-119.7"/>
<polygon fill="none" stroke="#000000" points="25.5,-119.7 25.5,-142.7 157.5,-142.7 157.5,-119.7 25.5,-119.7"/>
<text text-anchor="start" x="30.5" y="-128.3" font-family="Helvetica,sans-Serif" font-weight="bold" font-size="11.00" fill="#000000">list_options</text>
<text text-anchor="start" x="122.5437" y="-127.8" font-family="Helvetica,sans-Serif" font-size="11.00" fill="#000000">[table]</text>
<polygon fill="none" stroke="#000000" points="25.5,-97.7 25.5,-119.7 157.5,-119.7 157.5,-97.7 25.5,-97.7"/>
<image xlink:href="../../images/primaryKeys.png" width="11px" height="12px" preserveAspectRatio="xMinYMin meet" x="30.5" y="-114.7"/>
<text text-anchor="start" x="45.5" y="-104.8" font-family="Helvetica,sans-Serif" font-size="11.00" fill="#000000">list_id</text>
<polygon fill="none" stroke="#000000" points="25.5,-75.7 25.5,-97.7 157.5,-97.7 157.5,-75.7 25.5,-75.7"/>
<image xlink:href="../../images/primaryKeys.png" width="11px" height="12px" preserveAspectRatio="xMinYMin meet" x="30.5" y="-92.7"/>
<text text-anchor="start" x="45.5" y="-82.8" font-family="Helvetica,sans-Serif" font-size="11.00" fill="#000000">option_id</text>
<polygon fill="none" stroke="#000000" points="25.5,-56.7 25.5,-75.7 157.5,-75.7 157.5,-56.7 25.5,-56.7"/>
<text text-anchor="start" x="28.5" y="-62.8" font-family="Helvetica,sans-Serif" font-size="11.00" fill="#000000">...</text>
<polygon fill="#ffffff" stroke="transparent" points="25.5,-37.7 25.5,-56.7 77.5,-56.7 77.5,-37.7 25.5,-37.7"/>
<polygon fill="none" stroke="#000000" points="25.5,-37.7 25.5,-56.7 77.5,-56.7 77.5,-37.7 25.5,-37.7"/>
<text text-anchor="start" x="28.5" y="-43.8" font-family="Helvetica,sans-Serif" font-size="11.00" fill="#000000"> &#160;</text>
<polygon fill="#ffffff" stroke="transparent" points="77.5,-37.7 77.5,-56.7 109.5,-56.7 109.5,-37.7 77.5,-37.7"/>
<polygon fill="none" stroke="#000000" points="77.5,-37.7 77.5,-56.7 109.5,-56.7 109.5,-37.7 77.5,-37.7"/>
<text text-anchor="start" x="100.3862" y="-43.8" font-family="Helvetica,sans-Serif" font-size="11.00" fill="#000000"> &#160;</text>
<polygon fill="#ffffff" stroke="transparent" points="109.5,-37.7 109.5,-56.7 157.5,-56.7 157.5,-37.7 109.5,-37.7"/>
<polygon fill="none" stroke="#000000" points="109.5,-37.7 109.5,-56.7 157.5,-56.7 157.5,-37.7 109.5,-37.7"/>
<text text-anchor="start" x="132.7904" y="-43.8" font-family="Helvetica,sans-Serif" font-size="11.00" fill="#000000">98 &gt;</text>
</a>
</g>
</g>
<!-- contact_address&#45;&gt;list_options -->
<g id="edge2" class="edge">
<title>contact_address:w&#45;&gt;list_options:e</title>
<path fill="none" stroke="#000000" d="M212.213,-201.7831C174.5968,-183.6121 212.5569,-86.7 157.5,-86.7"/>
<polygon fill="#000000" stroke="#000000" points="218.6617,-203.0997 225.7799,-208.2272 222.5808,-203.8998 226.5,-204.7 226.5,-204.7 226.5,-204.7 222.5808,-203.8998 227.2201,-201.1728 218.6617,-203.0997 218.6617,-203.0997"/>
<ellipse fill="none" stroke="#000000" cx="215.5264" cy="-202.4595" rx="3.2" ry="3.2"/>
</g>
<!-- contact_address&#45;&gt;list_options -->
<g id="edge4" class="edge">
<title>contact_address:w&#45;&gt;list_options:e</title>
<path fill="none" stroke="#000000" d="M212.113,-157.3281C185.8344,-142.8515 196.6714,-86.7 157.5,-86.7"/>
<polygon fill="#000000" stroke="#000000" points="218.7111,-158.8744 225.6785,-164.205 222.6055,-159.7872 226.5,-160.7 226.5,-160.7 226.5,-160.7 222.6055,-159.7872 227.3215,-157.195 218.7111,-158.8744 218.7111,-158.8744"/>
<ellipse fill="none" stroke="#000000" cx="215.5955" cy="-158.1442" rx="3.2" ry="3.2"/>
</g>
</g>
</svg>
