<?xml version="1.0" encoding="UTF-8" standalone="no"?>
<!DOCTYPE svg PUBLIC "-//W3C//DTD SVG 1.1//EN"
 "http://www.w3.org/Graphics/SVG/1.1/DTD/svg11.dtd">
<!-- Generated by graphviz version 2.40.1 (20161225.0304)
 -->
<!-- Title: oneDegreeRelationshipsDiagram Pages: 1 -->
<svg width="526pt" height="641pt"
 viewBox="0.00 0.00 526.00 640.70" xmlns="http://www.w3.org/2000/svg" xmlns:xlink="http://www.w3.org/1999/xlink">
<g id="graph0" class="graph" transform="scale(1 1) rotate(0) translate(4 636.7)">
<title>oneDegreeRelationshipsDiagram</title>
<polygon fill="#ffffff" stroke="transparent" points="-4,4 -4,-636.7 522,-636.7 522,4 -4,4"/>
<text text-anchor="middle" x="72.4936" y="-7.3" font-family="Helvetica,sans-Serif" font-size="11.00" fill="#000000">Generated by SchemaSpy</text>
<!-- contact_relation -->
<g id="node1" class="node">
<title>contact_relation</title>
<g id="a_node1"><a xlink:href="../../tables/contact_relation.html" xlink:title="contact_relation" target="_top">
<polygon fill="#ffffff" stroke="transparent" points="224,-164.7 224,-628.7 510,-628.7 510,-164.7 224,-164.7"/>
<polygon fill="#f5f5f5" stroke="transparent" points="226,-603.7 226,-626.7 508,-626.7 508,-603.7 226,-603.7"/>
<polygon fill="none" stroke="#000000" points="226,-603.7 226,-626.7 508,-626.7 508,-603.7 226,-603.7"/>
<text text-anchor="start" x="231" y="-612.3" font-family="Helvetica,sans-Serif" font-weight="bold" font-size="11.00" fill="#000000">contact_relation</text>
<text text-anchor="start" x="473.0437" y="-611.8" font-family="Helvetica,sans-Serif" font-size="11.00" fill="#000000">[table]</text>
<polygon fill="none" stroke="#000000" points="226,-581.7 226,-603.7 441,-603.7 441,-581.7 226,-581.7"/>
<image xlink:href="../../images/primaryKeys.png" width="11px" height="12px" preserveAspectRatio="xMinYMin meet" x="231" y="-598.7"/>
<text text-anchor="start" x="246" y="-588.8" font-family="Helvetica,sans-Serif" font-size="11.00" fill="#000000">id</text>
<polygon fill="none" stroke="#000000" points="441,-581.7 441,-603.7 508,-603.7 508,-581.7 441,-581.7"/>
<text text-anchor="start" x="444" y="-589.4" font-family="Helvetica,sans-Serif" font-size="11.00" fill="#000000">bigint[19]</text>
<polygon fill="#ffffff" stroke="transparent" points="226,-559.7 226,-581.7 441,-581.7 441,-559.7 226,-559.7"/>
<polygon fill="none" stroke="#000000" points="226,-559.7 226,-581.7 441,-581.7 441,-559.7 226,-559.7"/>
<text text-anchor="start" x="246" y="-566.8" font-family="Helvetica,sans-Serif" font-size="11.00" fill="#000000">contact_id</text>
<polygon fill="none" stroke="#000000" points="441,-559.7 441,-581.7 508,-581.7 508,-559.7 441,-559.7"/>
<text text-anchor="start" x="444" y="-567.4" font-family="Helvetica,sans-Serif" font-size="11.00" fill="#000000">bigint[19]</text>
<polygon fill="#ffffff" stroke="transparent" points="226,-537.7 226,-559.7 441,-559.7 441,-537.7 226,-537.7"/>
<polygon fill="none" stroke="#000000" points="226,-537.7 226,-559.7 441,-559.7 441,-537.7 226,-537.7"/>
<text text-anchor="start" x="246" y="-544.8" font-family="Helvetica,sans-Serif" font-size="11.00" fill="#000000">target_table</text>
<polygon fill="none" stroke="#000000" points="441,-537.7 441,-559.7 508,-559.7 508,-537.7 441,-537.7"/>
<text text-anchor="start" x="443.9365" y="-545.4" font-family="Helvetica,sans-Serif" font-size="11.00" fill="#000000">varchar[255]</text>
<polygon fill="#ffffff" stroke="transparent" points="226,-515.7 226,-537.7 441,-537.7 441,-515.7 226,-515.7"/>
<polygon fill="none" stroke="#000000" points="226,-515.7 226,-537.7 441,-537.7 441,-515.7 226,-515.7"/>
<text text-anchor="start" x="246" y="-522.8" font-family="Helvetica,sans-Serif" font-size="11.00" fill="#000000">target_id</text>
<polygon fill="none" stroke="#000000" points="441,-515.7 441,-537.7 508,-537.7 508,-515.7 441,-515.7"/>
<text text-anchor="start" x="444" y="-523.4" font-family="Helvetica,sans-Serif" font-size="11.00" fill="#000000">bigint[19]</text>
<polygon fill="none" stroke="#000000" points="226,-493.7 226,-515.7 441,-515.7 441,-493.7 226,-493.7"/>
<text text-anchor="start" x="246" y="-500.8" font-family="Helvetica,sans-Serif" font-size="11.00" fill="#000000">active</text>
<polygon fill="none" stroke="#000000" points="441,-493.7 441,-515.7 508,-515.7 508,-493.7 441,-493.7"/>
<text text-anchor="start" x="444" y="-501.4" font-family="Helvetica,sans-Serif" font-size="11.00" fill="#000000">boolean[3]</text>
<polygon fill="none" stroke="#000000" points="226,-471.7 226,-493.7 441,-493.7 441,-471.7 226,-471.7"/>
<image xlink:href="../../images/foreignKeys.png" width="11px" height="12px" preserveAspectRatio="xMinYMin meet" x="231" y="-488.7"/>
<text text-anchor="start" x="246" y="-478.8" font-family="Helvetica,sans-Serif" font-size="11.00" fill="#000000">role</text>
<polygon fill="none" stroke="#000000" points="441,-471.7 441,-493.7 508,-493.7 508,-471.7 441,-471.7"/>
<text text-anchor="start" x="444" y="-479.4" font-family="Helvetica,sans-Serif" font-size="11.00" fill="#000000">varchar[63]</text>
<polygon fill="none" stroke="#000000" points="226,-449.7 226,-471.7 441,-471.7 441,-449.7 226,-449.7"/>
<image xlink:href="../../images/foreignKeys.png" width="11px" height="12px" preserveAspectRatio="xMinYMin meet" x="231" y="-466.7"/>
<text text-anchor="start" x="246" y="-456.8" font-family="Helvetica,sans-Serif" font-size="11.00" fill="#000000">relationship</text>
<polygon fill="none" stroke="#000000" points="441,-449.7 441,-471.7 508,-471.7 508,-449.7 441,-449.7"/>
<text text-anchor="start" x="444" y="-457.4" font-family="Helvetica,sans-Serif" font-size="11.00" fill="#000000">varchar[63]</text>
<polygon fill="none" stroke="#000000" points="226,-427.7 226,-449.7 441,-449.7 441,-427.7 226,-427.7"/>
<text text-anchor="start" x="246" y="-434.8" font-family="Helvetica,sans-Serif" font-size="11.00" fill="#000000">contact_priority</text>
<polygon fill="none" stroke="#000000" points="441,-427.7 441,-449.7 508,-449.7 508,-427.7 441,-427.7"/>
<text text-anchor="start" x="444" y="-435.4" font-family="Helvetica,sans-Serif" font-size="11.00" fill="#000000">int[10]</text>
<polygon fill="none" stroke="#000000" points="226,-405.7 226,-427.7 441,-427.7 441,-405.7 226,-405.7"/>
<text text-anchor="start" x="246" y="-412.8" font-family="Helvetica,sans-Serif" font-size="11.00" fill="#000000">is_primary_contact</text>
<polygon fill="none" stroke="#000000" points="441,-405.7 441,-427.7 508,-427.7 508,-405.7 441,-405.7"/>
<text text-anchor="start" x="444" y="-413.4" font-family="Helvetica,sans-Serif" font-size="11.00" fill="#000000">boolean[3]</text>
<polygon fill="none" stroke="#000000" points="226,-383.7 226,-405.7 441,-405.7 441,-383.7 226,-383.7"/>
<text text-anchor="start" x="246" y="-390.8" font-family="Helvetica,sans-Serif" font-size="11.00" fill="#000000">is_emergency_contact</text>
<polygon fill="none" stroke="#000000" points="441,-383.7 441,-405.7 508,-405.7 508,-383.7 441,-383.7"/>
<text text-anchor="start" x="444" y="-391.4" font-family="Helvetica,sans-Serif" font-size="11.00" fill="#000000">boolean[3]</text>
<polygon fill="none" stroke="#000000" points="226,-361.7 226,-383.7 441,-383.7 441,-361.7 226,-361.7"/>
<text text-anchor="start" x="246" y="-368.8" font-family="Helvetica,sans-Serif" font-size="11.00" fill="#000000">can_make_medical_decisions</text>
<polygon fill="none" stroke="#000000" points="441,-361.7 441,-383.7 508,-383.7 508,-361.7 441,-361.7"/>
<text text-anchor="start" x="444" y="-369.4" font-family="Helvetica,sans-Serif" font-size="11.00" fill="#000000">boolean[3]</text>
<polygon fill="none" stroke="#000000" points="226,-339.7 226,-361.7 441,-361.7 441,-339.7 226,-339.7"/>
<text text-anchor="start" x="246" y="-346.8" font-family="Helvetica,sans-Serif" font-size="11.00" fill="#000000">can_receive_medical_info</text>
<polygon fill="none" stroke="#000000" points="441,-339.7 441,-361.7 508,-361.7 508,-339.7 441,-339.7"/>
<text text-anchor="start" x="444" y="-347.4" font-family="Helvetica,sans-Serif" font-size="11.00" fill="#000000">boolean[3]</text>
<polygon fill="none" stroke="#000000" points="226,-317.7 226,-339.7 441,-339.7 441,-317.7 226,-317.7"/>
<text text-anchor="start" x="246" y="-324.8" font-family="Helvetica,sans-Serif" font-size="11.00" fill="#000000">start_date</text>
<polygon fill="none" stroke="#000000" points="441,-317.7 441,-339.7 508,-339.7 508,-317.7 441,-317.7"/>
<text text-anchor="start" x="444" y="-325.4" font-family="Helvetica,sans-Serif" font-size="11.00" fill="#000000">datetime[19]</text>
<polygon fill="none" stroke="#000000" points="226,-295.7 226,-317.7 441,-317.7 441,-295.7 226,-295.7"/>
<text text-anchor="start" x="246" y="-302.8" font-family="Helvetica,sans-Serif" font-size="11.00" fill="#000000">end_date</text>
<polygon fill="none" stroke="#000000" points="441,-295.7 441,-317.7 508,-317.7 508,-295.7 441,-295.7"/>
<text text-anchor="start" x="444" y="-303.4" font-family="Helvetica,sans-Serif" font-size="11.00" fill="#000000">datetime[19]</text>
<polygon fill="none" stroke="#000000" points="226,-273.7 226,-295.7 441,-295.7 441,-273.7 226,-273.7"/>
<text text-anchor="start" x="246" y="-280.8" font-family="Helvetica,sans-Serif" font-size="11.00" fill="#000000">notes</text>
<polygon fill="none" stroke="#000000" points="441,-273.7 441,-295.7 508,-295.7 508,-273.7 441,-273.7"/>
<text text-anchor="start" x="444" y="-281.4" font-family="Helvetica,sans-Serif" font-size="11.00" fill="#000000">text[65535]</text>
<polygon fill="none" stroke="#000000" points="226,-251.7 226,-273.7 441,-273.7 441,-251.7 226,-251.7"/>
<text text-anchor="start" x="246" y="-258.8" font-family="Helvetica,sans-Serif" font-size="11.00" fill="#000000">created_date</text>
<polygon fill="none" stroke="#000000" points="441,-251.7 441,-273.7 508,-273.7 508,-251.7 441,-251.7"/>
<text text-anchor="start" x="444" y="-259.4" font-family="Helvetica,sans-Serif" font-size="11.00" fill="#000000">datetime[19]</text>
<polygon fill="none" stroke="#000000" points="226,-229.7 226,-251.7 441,-251.7 441,-229.7 226,-229.7"/>
<image xlink:href="../../images/foreignKeys.png" width="11px" height="12px" preserveAspectRatio="xMinYMin meet" x="231" y="-246.7"/>
<text text-anchor="start" x="246" y="-236.8" font-family="Helvetica,sans-Serif" font-size="11.00" fill="#000000">created_by</text>
<polygon fill="none" stroke="#000000" points="441,-229.7 441,-251.7 508,-251.7 508,-229.7 441,-229.7"/>
<text text-anchor="start" x="444" y="-237.4" font-family="Helvetica,sans-Serif" font-size="11.00" fill="#000000">bigint[19]</text>
<polygon fill="none" stroke="#000000" points="226,-207.7 226,-229.7 441,-229.7 441,-207.7 226,-207.7"/>
<text text-anchor="start" x="246" y="-214.8" font-family="Helvetica,sans-Serif" font-size="11.00" fill="#000000">updated_date</text>
<polygon fill="none" stroke="#000000" points="441,-207.7 441,-229.7 508,-229.7 508,-207.7 441,-207.7"/>
<text text-anchor="start" x="444" y="-215.4" font-family="Helvetica,sans-Serif" font-size="11.00" fill="#000000">datetime[19]</text>
<polygon fill="none" stroke="#000000" points="226,-185.7 226,-207.7 441,-207.7 441,-185.7 226,-185.7"/>
<image xlink:href="../../images/foreignKeys.png" width="11px" height="12px" preserveAspectRatio="xMinYMin meet" x="231" y="-202.7"/>
<text text-anchor="start" x="246" y="-192.8" font-family="Helvetica,sans-Serif" font-size="11.00" fill="#000000">updated_by</text>
<polygon fill="none" stroke="#000000" points="441,-185.7 441,-207.7 508,-207.7 508,-185.7 441,-185.7"/>
<text text-anchor="start" x="444" y="-193.4" font-family="Helvetica,sans-Serif" font-size="11.00" fill="#000000">bigint[19]</text>
<polygon fill="#ffffff" stroke="transparent" points="226,-166.7 226,-185.7 338,-185.7 338,-166.7 226,-166.7"/>
<polygon fill="none" stroke="#000000" points="226,-166.7 226,-185.7 338,-185.7 338,-166.7 226,-166.7"/>
<text text-anchor="start" x="229" y="-172.8" font-family="Helvetica,sans-Serif" font-size="11.00" fill="#000000">&lt; 4</text>
<polygon fill="#ffffff" stroke="transparent" points="338,-166.7 338,-185.7 441,-185.7 441,-166.7 338,-166.7"/>
<polygon fill="none" stroke="#000000" points="338,-166.7 338,-185.7 441,-185.7 441,-166.7 338,-166.7"/>
<text text-anchor="start" x="431.8862" y="-172.8" font-family="Helvetica,sans-Serif" font-size="11.00" fill="#000000"> &#160;</text>
<polygon fill="#ffffff" stroke="transparent" points="441,-166.7 441,-185.7 508,-185.7 508,-166.7 441,-166.7"/>
<polygon fill="none" stroke="#000000" points="441,-166.7 441,-185.7 508,-185.7 508,-166.7 441,-166.7"/>
<text text-anchor="start" x="489.4053" y="-172.8" font-family="Helvetica,sans-Serif" font-size="11.00" fill="#000000">0 &gt;</text>
<polygon fill="none" stroke="#000000" stroke-width="2" points="225,-165.7 225,-627.7 509,-627.7 509,-165.7 225,-165.7"/>
</a>
</g>
</g>
<!-- users -->
<g id="node2" class="node">
<title>users</title>
<g id="a_node2"><a xlink:href="../../tables/users.html" xlink:title="users" target="_top">
<polygon fill="#ffffff" stroke="transparent" points="8,-38.2 8,-253.2 175,-253.2 175,-38.2 8,-38.2"/>
<polygon fill="#f5f5f5" stroke="transparent" points="8.5,-229.7 8.5,-252.7 175.5,-252.7 175.5,-229.7 8.5,-229.7"/>
<polygon fill="none" stroke="#000000" points="8.5,-229.7 8.5,-252.7 175.5,-252.7 175.5,-229.7 8.5,-229.7"/>
<text text-anchor="start" x="13.5" y="-238.3" font-family="Helvetica,sans-Serif" font-weight="bold" font-size="11.00" fill="#000000">users</text>
<text text-anchor="start" x="140.5437" y="-237.8" font-family="Helvetica,sans-Serif" font-size="11.00" fill="#000000">[table]</text>
<polygon fill="none" stroke="#000000" points="8.5,-207.7 8.5,-229.7 175.5,-229.7 175.5,-207.7 8.5,-207.7"/>
<image xlink:href="../../images/primaryKeys.png" width="11px" height="12px" preserveAspectRatio="xMinYMin meet" x="13.5" y="-224.7"/>
<text text-anchor="start" x="28.5" y="-214.8" font-family="Helvetica,sans-Serif" font-size="11.00" fill="#000000">id</text>
<polygon fill="#ffffff" stroke="transparent" points="8.5,-185.7 8.5,-207.7 175.5,-207.7 175.5,-185.7 8.5,-185.7"/>
<polygon fill="none" stroke="#000000" points="8.5,-185.7 8.5,-207.7 175.5,-207.7 175.5,-185.7 8.5,-185.7"/>
<text text-anchor="start" x="28.5" y="-192.8" font-family="Helvetica,sans-Serif" font-size="11.00" fill="#000000">uuid</text>
<polygon fill="none" stroke="#000000" points="8.5,-163.7 8.5,-185.7 175.5,-185.7 175.5,-163.7 8.5,-163.7"/>
<image xlink:href="../../images/primaryKeys.png" width="11px" height="12px" preserveAspectRatio="xMinYMin meet" x="13.5" y="-180.7"/>
<text text-anchor="start" x="28.5" y="-170.8" font-family="Helvetica,sans-Serif" font-size="11.00" fill="#000000">username</text>
<polygon fill="none" stroke="#000000" points="8.5,-141.7 8.5,-163.7 175.5,-163.7 175.5,-141.7 8.5,-141.7"/>
<image xlink:href="../../images/foreignKeys.png" width="11px" height="12px" preserveAspectRatio="xMinYMin meet" x="13.5" y="-158.7"/>
<text text-anchor="start" x="28.5" y="-148.8" font-family="Helvetica,sans-Serif" font-size="11.00" fill="#000000">facility_id</text>
<polygon fill="#ffffff" stroke="transparent" points="8.5,-119.7 8.5,-141.7 175.5,-141.7 175.5,-119.7 8.5,-119.7"/>
<polygon fill="none" stroke="#000000" points="8.5,-119.7 8.5,-141.7 175.5,-141.7 175.5,-119.7 8.5,-119.7"/>
<text text-anchor="start" x="28.5" y="-126.8" font-family="Helvetica,sans-Serif" font-size="11.00" fill="#000000">google_signin_email</text>
<polygon fill="#ffffff" stroke="transparent" points="8.5,-97.7 8.5,-119.7 175.5,-119.7 175.5,-97.7 8.5,-97.7"/>
<polygon fill="none" stroke="#000000" points="8.5,-97.7 8.5,-119.7 175.5,-119.7 175.5,-97.7 8.5,-97.7"/>
<text text-anchor="start" x="28.5" y="-104.8" font-family="Helvetica,sans-Serif" font-size="11.00" fill="#000000">abook_type</text>
<polygon fill="none" stroke="#000000" points="8.5,-75.7 8.5,-97.7 175.5,-97.7 175.5,-75.7 8.5,-75.7"/>
<image xlink:href="../../images/foreignKeys.png" width="11px" height="12px" preserveAspectRatio="xMinYMin meet" x="13.5" y="-92.7"/>
<text text-anchor="start" x="28.5" y="-82.8" font-family="Helvetica,sans-Serif" font-size="11.00" fill="#000000">billing_facility_id</text>
<polygon fill="none" stroke="#000000" points="8.5,-56.7 8.5,-75.7 175.5,-75.7 175.5,-56.7 8.5,-56.7"/>
<text text-anchor="start" x="11.5" y="-62.8" font-family="Helvetica,sans-Serif" font-size="11.00" fill="#000000">...</text>
<polygon fill="#ffffff" stroke="transparent" points="8.5,-37.7 8.5,-56.7 82.5,-56.7 82.5,-37.7 8.5,-37.7"/>
<polygon fill="none" stroke="#000000" points="8.5,-37.7 8.5,-56.7 82.5,-56.7 82.5,-37.7 8.5,-37.7"/>
<text text-anchor="start" x="11.5" y="-43.8" font-family="Helvetica,sans-Serif" font-size="11.00" fill="#000000">&lt; 2</text>
<polygon fill="#ffffff" stroke="transparent" points="82.5,-37.7 82.5,-56.7 121.5,-56.7 121.5,-37.7 82.5,-37.7"/>
<polygon fill="none" stroke="#000000" points="82.5,-37.7 82.5,-56.7 121.5,-56.7 121.5,-37.7 82.5,-37.7"/>
<text text-anchor="start" x="112.3862" y="-43.8" font-family="Helvetica,sans-Serif" font-size="11.00" fill="#000000"> &#160;</text>
<polygon fill="#ffffff" stroke="transparent" points="121.5,-37.7 121.5,-56.7 175.5,-56.7 175.5,-37.7 121.5,-37.7"/>
<polygon fill="none" stroke="#000000" points="121.5,-37.7 121.5,-56.7 175.5,-56.7 175.5,-37.7 121.5,-37.7"/>
<text text-anchor="start" x="150.7904" y="-43.8" font-family="Helvetica,sans-Serif" font-size="11.00" fill="#000000">90 &gt;</text>
</a>
</g>
</g>
<!-- contact_relation&#45;&gt;users -->
<g id="edge1" class="edge">
<title>contact_relation:w&#45;&gt;users:e</title>
<path fill="none" stroke="#000000" d="M211.5981,-237.4538C199.4282,-231.3342 194.0526,-218.7 175.5,-218.7"/>
<polygon fill="#000000" stroke="#000000" points="218.1958,-238.9409 225.2084,-244.2119 222.0979,-239.8204 226,-240.7 226,-240.7 226,-240.7 222.0979,-239.8204 226.7916,-237.1881 218.1958,-238.9409 218.1958,-238.9409"/>
<ellipse fill="none" stroke="#000000" cx="215.0741" cy="-238.2373" rx="3.2" ry="3.2"/>
</g>
<!-- contact_relation&#45;&gt;users -->
<g id="edge4" class="edge">
<title>contact_relation:w&#45;&gt;users:e</title>
<path fill="none" stroke="#000000" d="M211.5981,-199.9462C199.4282,-206.0658 194.0526,-218.7 175.5,-218.7"/>
<polygon fill="#000000" stroke="#000000" points="218.1958,-198.4591 226.7916,-200.2119 222.0979,-197.5796 226,-196.7 226,-196.7 226,-196.7 222.0979,-197.5796 225.2084,-193.1881 218.1958,-198.4591 218.1958,-198.4591"/>
<ellipse fill="none" stroke="#000000" cx="215.0741" cy="-199.1627" rx="3.2" ry="3.2"/>
</g>
<!-- list_options -->
<g id="node3" class="node">
<title>list_options</title>
<g id="a_node3"><a xlink:href="../../tables/list_options.html" xlink:title="list_options" target="_top">
<polygon fill="#ffffff" stroke="transparent" points="25.5,-423.2 25.5,-528.2 157.5,-528.2 157.5,-423.2 25.5,-423.2"/>
<polygon fill="#f5f5f5" stroke="transparent" points="25.5,-504.7 25.5,-527.7 157.5,-527.7 157.5,-504.7 25.5,-504.7"/>
<polygon fill="none" stroke="#000000" points="25.5,-504.7 25.5,-527.7 157.5,-527.7 157.5,-504.7 25.5,-504.7"/>
<text text-anchor="start" x="30.5" y="-513.3" font-family="Helvetica,sans-Serif" font-weight="bold" font-size="11.00" fill="#000000">list_options</text>
<text text-anchor="start" x="122.5437" y="-512.8" font-family="Helvetica,sans-Serif" font-size="11.00" fill="#000000">[table]</text>
<polygon fill="none" stroke="#000000" points="25.5,-482.7 25.5,-504.7 157.5,-504.7 157.5,-482.7 25.5,-482.7"/>
<image xlink:href="../../images/primaryKeys.png" width="11px" height="12px" preserveAspectRatio="xMinYMin meet" x="30.5" y="-499.7"/>
<text text-anchor="start" x="45.5" y="-489.8" font-family="Helvetica,sans-Serif" font-size="11.00" fill="#000000">list_id</text>
<polygon fill="none" stroke="#000000" points="25.5,-460.7 25.5,-482.7 157.5,-482.7 157.5,-460.7 25.5,-460.7"/>
<image xlink:href="../../images/primaryKeys.png" width="11px" height="12px" preserveAspectRatio="xMinYMin meet" x="30.5" y="-477.7"/>
<text text-anchor="start" x="45.5" y="-467.8" font-family="Helvetica,sans-Serif" font-size="11.00" fill="#000000">option_id</text>
<polygon fill="none" stroke="#000000" points="25.5,-441.7 25.5,-460.7 157.5,-460.7 157.5,-441.7 25.5,-441.7"/>
<text text-anchor="start" x="28.5" y="-447.8" font-family="Helvetica,sans-Serif" font-size="11.00" fill="#000000">...</text>
<polygon fill="#ffffff" stroke="transparent" points="25.5,-422.7 25.5,-441.7 77.5,-441.7 77.5,-422.7 25.5,-422.7"/>
<polygon fill="none" stroke="#000000" points="25.5,-422.7 25.5,-441.7 77.5,-441.7 77.5,-422.7 25.5,-422.7"/>
<text text-anchor="start" x="28.5" y="-428.8" font-family="Helvetica,sans-Serif" font-size="11.00" fill="#000000"> &#160;</text>
<polygon fill="#ffffff" stroke="transparent" points="77.5,-422.7 77.5,-441.7 109.5,-441.7 109.5,-422.7 77.5,-422.7"/>
<polygon fill="none" stroke="#000000" points="77.5,-422.7 77.5,-441.7 109.5,-441.7 109.5,-422.7 77.5,-422.7"/>
<text text-anchor="start" x="100.3862" y="-428.8" font-family="Helvetica,sans-Serif" font-size="11.00" fill="#000000"> &#160;</text>
<polygon fill="#ffffff" stroke="transparent" points="109.5,-422.7 109.5,-441.7 157.5,-441.7 157.5,-422.7 109.5,-422.7"/>
<polygon fill="none" stroke="#000000" points="109.5,-422.7 109.5,-441.7 157.5,-441.7 157.5,-422.7 109.5,-422.7"/>
<text text-anchor="start" x="132.7904" y="-428.8" font-family="Helvetica,sans-Serif" font-size="11.00" fill="#000000">98 &gt;</text>
</a>
</g>
</g>
<!-- contact_relation&#45;&gt;list_options -->
<g id="edge2" class="edge">
<title>contact_relation:w&#45;&gt;list_options:e</title>
<path fill="none" stroke="#000000" d="M211.4248,-461.6379C191.9356,-464.298 182.7939,-471.7 157.5,-471.7"/>
<polygon fill="#000000" stroke="#000000" points="218.0165,-461.2138 226.2312,-464.2926 222.0083,-460.9569 226,-460.7 226,-460.7 226,-460.7 222.0083,-460.9569 225.7688,-457.1074 218.0165,-461.2138 218.0165,-461.2138"/>
<ellipse fill="none" stroke="#000000" cx="214.8231" cy="-461.4193" rx="3.2" ry="3.2"/>
</g>
<!-- contact_relation&#45;&gt;list_options -->
<g id="edge3" class="edge">
<title>contact_relation:w&#45;&gt;list_options:e</title>
<path fill="none" stroke="#000000" d="M211.4248,-481.7621C191.9356,-479.102 182.7939,-471.7 157.5,-471.7"/>
<polygon fill="#000000" stroke="#000000" points="218.0165,-482.1862 225.7688,-486.2926 222.0083,-482.4431 226,-482.7 226,-482.7 226,-482.7 222.0083,-482.4431 226.2312,-479.1074 218.0165,-482.1862 218.0165,-482.1862"/>
<ellipse fill="none" stroke="#000000" cx="214.8231" cy="-481.9807" rx="3.2" ry="3.2"/>
</g>
</g>
</svg>
