<?xml version="1.0" encoding="UTF-8" standalone="no"?>
<!DOCTYPE svg PUBLIC "-//W3C//DTD SVG 1.1//EN"
 "http://www.w3.org/Graphics/SVG/1.1/DTD/svg11.dtd">
<!-- Generated by graphviz version 2.40.1 (20161225.0304)
 -->
<!-- Title: oneDegreeRelationshipsDiagram Pages: 1 -->
<svg width="578pt" height="441pt"
 viewBox="0.00 0.00 578.00 441.20" xmlns="http://www.w3.org/2000/svg" xmlns:xlink="http://www.w3.org/1999/xlink">
<g id="graph0" class="graph" transform="scale(1 1) rotate(0) translate(4 437.2)">
<title>oneDegreeRelationshipsDiagram</title>
<polygon fill="#ffffff" stroke="transparent" points="-4,4 -4,-437.2 574,-437.2 574,4 -4,4"/>
<text text-anchor="middle" x="72.4936" y="-7.3" font-family="Helvetica,sans-Serif" font-size="11.00" fill="#000000">Generated by SchemaSpy</text>
<!-- document_templates -->
<g id="node1" class="node">
<title>document_templates</title>
<g id="a_node1"><a xlink:href="../../tables/document_templates.html" xlink:title="document_templates" target="_top">
<polygon fill="#ffffff" stroke="transparent" points="334,-142.7 334,-232.7 562,-232.7 562,-142.7 334,-142.7"/>
<polygon fill="#f5f5f5" stroke="transparent" points="336,-207.7 336,-230.7 560,-230.7 560,-207.7 336,-207.7"/>
<polygon fill="none" stroke="#000000" points="336,-207.7 336,-230.7 560,-230.7 560,-207.7 336,-207.7"/>
<text text-anchor="start" x="341" y="-216.3" font-family="Helvetica,sans-Serif" font-weight="bold" font-size="11.00" fill="#000000">document_templates</text>
<text text-anchor="start" x="525.0437" y="-215.8" font-family="Helvetica,sans-Serif" font-size="11.00" fill="#000000">[table]</text>
<polygon fill="none" stroke="#000000" points="336,-185.7 336,-207.7 498,-207.7 498,-185.7 336,-185.7"/>
<image xlink:href="../../images/foreignKeys.png" width="11px" height="12px" preserveAspectRatio="xMinYMin meet" x="341" y="-202.7"/>
<text text-anchor="start" x="356" y="-192.8" font-family="Helvetica,sans-Serif" font-size="11.00" fill="#000000">pid</text>
<polygon fill="none" stroke="#000000" points="498,-185.7 498,-207.7 560,-207.7 560,-185.7 498,-185.7"/>
<text text-anchor="start" x="500.878" y="-193.4" font-family="Helvetica,sans-Serif" font-size="11.00" fill="#000000">unknown[0]</text>
<polygon fill="none" stroke="#000000" points="336,-163.7 336,-185.7 498,-185.7 498,-163.7 336,-163.7"/>
<text text-anchor="start" x="356" y="-170.8" font-family="Helvetica,sans-Serif" font-size="11.00" fill="#000000">template_content</text>
<polygon fill="none" stroke="#000000" points="498,-163.7 498,-185.7 560,-185.7 560,-163.7 498,-163.7"/>
<text text-anchor="start" x="500.878" y="-171.4" font-family="Helvetica,sans-Serif" font-size="11.00" fill="#000000">unknown[0]</text>
<polygon fill="#ffffff" stroke="transparent" points="336,-144.7 336,-163.7 421,-163.7 421,-144.7 336,-144.7"/>
<polygon fill="none" stroke="#000000" points="336,-144.7 336,-163.7 421,-163.7 421,-144.7 336,-144.7"/>
<text text-anchor="start" x="339" y="-150.8" font-family="Helvetica,sans-Serif" font-size="11.00" fill="#000000">&lt; 1</text>
<polygon fill="#ffffff" stroke="transparent" points="421,-144.7 421,-163.7 498,-163.7 498,-144.7 421,-144.7"/>
<polygon fill="none" stroke="#000000" points="421,-144.7 421,-163.7 498,-163.7 498,-144.7 421,-144.7"/>
<text text-anchor="start" x="488.8862" y="-150.8" font-family="Helvetica,sans-Serif" font-size="11.00" fill="#000000"> &#160;</text>
<polygon fill="#ffffff" stroke="transparent" points="498,-144.7 498,-163.7 560,-163.7 560,-144.7 498,-144.7"/>
<polygon fill="none" stroke="#000000" points="498,-144.7 498,-163.7 560,-163.7 560,-144.7 498,-144.7"/>
<text text-anchor="start" x="541.4053" y="-150.8" font-family="Helvetica,sans-Serif" font-size="11.00" fill="#000000">0 &gt;</text>
<polygon fill="none" stroke="#000000" stroke-width="2" points="335,-143.7 335,-231.7 561,-231.7 561,-143.7 335,-143.7"/>
</a>
</g>
</g>
<!-- patient_data -->
<g id="node2" class="node">
<title>patient_data</title>
<g id="a_node2"><a xlink:href="../../tables/patient_data.html" xlink:title="patient_data" target="_top">
<polygon fill="#ffffff" stroke="transparent" points="8,-38.2 8,-429.2 285,-429.2 285,-38.2 8,-38.2"/>
<polygon fill="#f5f5f5" stroke="transparent" points="8.5,-405.7 8.5,-428.7 285.5,-428.7 285.5,-405.7 8.5,-405.7"/>
<polygon fill="none" stroke="#000000" points="8.5,-405.7 8.5,-428.7 285.5,-428.7 285.5,-405.7 8.5,-405.7"/>
<text text-anchor="start" x="13.5" y="-414.3" font-family="Helvetica,sans-Serif" font-weight="bold" font-size="11.00" fill="#000000">patient_data</text>
<text text-anchor="start" x="250.5437" y="-413.8" font-family="Helvetica,sans-Serif" font-size="11.00" fill="#000000">[table]</text>
<polygon fill="none" stroke="#000000" points="8.5,-383.7 8.5,-405.7 285.5,-405.7 285.5,-383.7 8.5,-383.7"/>
<image xlink:href="../../images/primaryKeys.png" width="11px" height="12px" preserveAspectRatio="xMinYMin meet" x="13.5" y="-400.7"/>
<text text-anchor="start" x="28.5" y="-390.8" font-family="Helvetica,sans-Serif" font-size="11.00" fill="#000000">id</text>
<polygon fill="#ffffff" stroke="transparent" points="8.5,-361.7 8.5,-383.7 285.5,-383.7 285.5,-361.7 8.5,-361.7"/>
<polygon fill="none" stroke="#000000" points="8.5,-361.7 8.5,-383.7 285.5,-383.7 285.5,-361.7 8.5,-361.7"/>
<text text-anchor="start" x="28.5" y="-368.8" font-family="Helvetica,sans-Serif" font-size="11.00" fill="#000000">uuid</text>
<polygon fill="#ffffff" stroke="transparent" points="8.5,-339.7 8.5,-361.7 285.5,-361.7 285.5,-339.7 8.5,-339.7"/>
<polygon fill="none" stroke="#000000" points="8.5,-339.7 8.5,-361.7 285.5,-361.7 285.5,-339.7 8.5,-339.7"/>
<text text-anchor="start" x="28.5" y="-346.8" font-family="Helvetica,sans-Serif" font-size="11.00" fill="#000000">fname</text>
<polygon fill="#ffffff" stroke="transparent" points="8.5,-317.7 8.5,-339.7 285.5,-339.7 285.5,-317.7 8.5,-317.7"/>
<polygon fill="none" stroke="#000000" points="8.5,-317.7 8.5,-339.7 285.5,-339.7 285.5,-317.7 8.5,-317.7"/>
<text text-anchor="start" x="28.5" y="-324.8" font-family="Helvetica,sans-Serif" font-size="11.00" fill="#000000">lname</text>
<polygon fill="#ffffff" stroke="transparent" points="8.5,-295.7 8.5,-317.7 285.5,-317.7 285.5,-295.7 8.5,-295.7"/>
<polygon fill="none" stroke="#000000" points="8.5,-295.7 8.5,-317.7 285.5,-317.7 285.5,-295.7 8.5,-295.7"/>
<text text-anchor="start" x="28.5" y="-302.8" font-family="Helvetica,sans-Serif" font-size="11.00" fill="#000000">DOB</text>
<polygon fill="none" stroke="#000000" points="8.5,-273.7 8.5,-295.7 285.5,-295.7 285.5,-273.7 8.5,-273.7"/>
<image xlink:href="../../images/foreignKeys.png" width="11px" height="12px" preserveAspectRatio="xMinYMin meet" x="13.5" y="-290.7"/>
<text text-anchor="start" x="28.5" y="-280.8" font-family="Helvetica,sans-Serif" font-size="11.00" fill="#000000">pharmacy_id</text>
<polygon fill="none" stroke="#000000" points="8.5,-251.7 8.5,-273.7 285.5,-273.7 285.5,-251.7 8.5,-251.7"/>
<image xlink:href="../../images/foreignKeys.png" width="11px" height="12px" preserveAspectRatio="xMinYMin meet" x="13.5" y="-268.7"/>
<text text-anchor="start" x="28.5" y="-258.8" font-family="Helvetica,sans-Serif" font-size="11.00" fill="#000000">providerID</text>
<polygon fill="none" stroke="#000000" points="8.5,-229.7 8.5,-251.7 285.5,-251.7 285.5,-229.7 8.5,-229.7"/>
<image xlink:href="../../images/foreignKeys.png" width="11px" height="12px" preserveAspectRatio="xMinYMin meet" x="13.5" y="-246.7"/>
<text text-anchor="start" x="28.5" y="-236.8" font-family="Helvetica,sans-Serif" font-size="11.00" fill="#000000">ref_providerID</text>
<polygon fill="none" stroke="#000000" points="8.5,-207.7 8.5,-229.7 285.5,-229.7 285.5,-207.7 8.5,-207.7"/>
<image xlink:href="../../images/foreignKeys.png" width="11px" height="12px" preserveAspectRatio="xMinYMin meet" x="13.5" y="-224.7"/>
<text text-anchor="start" x="28.5" y="-214.8" font-family="Helvetica,sans-Serif" font-size="11.00" fill="#000000">interpreter_needed</text>
<polygon fill="none" stroke="#000000" points="8.5,-185.7 8.5,-207.7 285.5,-207.7 285.5,-185.7 8.5,-185.7"/>
<image xlink:href="../../images/primaryKeys.png" width="11px" height="12px" preserveAspectRatio="xMinYMin meet" x="13.5" y="-202.7"/>
<text text-anchor="start" x="28.5" y="-192.8" font-family="Helvetica,sans-Serif" font-size="11.00" fill="#000000">pid</text>
<polygon fill="none" stroke="#000000" points="8.5,-163.7 8.5,-185.7 285.5,-185.7 285.5,-163.7 8.5,-163.7"/>
<image xlink:href="../../images/foreignKeys.png" width="11px" height="12px" preserveAspectRatio="xMinYMin meet" x="13.5" y="-180.7"/>
<text text-anchor="start" x="28.5" y="-170.8" font-family="Helvetica,sans-Serif" font-size="11.00" fill="#000000">advance_directive_user_authenticator</text>
<polygon fill="none" stroke="#000000" points="8.5,-141.7 8.5,-163.7 285.5,-163.7 285.5,-141.7 8.5,-141.7"/>
<image xlink:href="../../images/foreignKeys.png" width="11px" height="12px" preserveAspectRatio="xMinYMin meet" x="13.5" y="-158.7"/>
<text text-anchor="start" x="28.5" y="-148.8" font-family="Helvetica,sans-Serif" font-size="11.00" fill="#000000">created_by</text>
<polygon fill="none" stroke="#000000" points="8.5,-119.7 8.5,-141.7 285.5,-141.7 285.5,-119.7 8.5,-119.7"/>
<image xlink:href="../../images/foreignKeys.png" width="11px" height="12px" preserveAspectRatio="xMinYMin meet" x="13.5" y="-136.7"/>
<text text-anchor="start" x="28.5" y="-126.8" font-family="Helvetica,sans-Serif" font-size="11.00" fill="#000000">updated_by</text>
<polygon fill="none" stroke="#000000" points="8.5,-97.7 8.5,-119.7 285.5,-119.7 285.5,-97.7 8.5,-97.7"/>
<image xlink:href="../../images/foreignKeys.png" width="11px" height="12px" preserveAspectRatio="xMinYMin meet" x="13.5" y="-114.7"/>
<text text-anchor="start" x="28.5" y="-104.8" font-family="Helvetica,sans-Serif" font-size="11.00" fill="#000000">tribal_affiliations</text>
<polygon fill="none" stroke="#000000" points="8.5,-75.7 8.5,-97.7 285.5,-97.7 285.5,-75.7 8.5,-75.7"/>
<image xlink:href="../../images/foreignKeys.png" width="11px" height="12px" preserveAspectRatio="xMinYMin meet" x="13.5" y="-92.7"/>
<text text-anchor="start" x="28.5" y="-82.8" font-family="Helvetica,sans-Serif" font-size="11.00" fill="#000000">sex_identified</text>
<polygon fill="none" stroke="#000000" points="8.5,-56.7 8.5,-75.7 285.5,-75.7 285.5,-56.7 8.5,-56.7"/>
<text text-anchor="start" x="11.5" y="-62.8" font-family="Helvetica,sans-Serif" font-size="11.00" fill="#000000">...</text>
<polygon fill="#ffffff" stroke="transparent" points="8.5,-37.7 8.5,-56.7 137.5,-56.7 137.5,-37.7 8.5,-37.7"/>
<polygon fill="none" stroke="#000000" points="8.5,-37.7 8.5,-56.7 137.5,-56.7 137.5,-37.7 8.5,-37.7"/>
<text text-anchor="start" x="11.5" y="-43.8" font-family="Helvetica,sans-Serif" font-size="11.00" fill="#000000">&lt; 9</text>
<polygon fill="#ffffff" stroke="transparent" points="137.5,-37.7 137.5,-56.7 203.5,-56.7 203.5,-37.7 137.5,-37.7"/>
<polygon fill="none" stroke="#000000" points="137.5,-37.7 137.5,-56.7 203.5,-56.7 203.5,-37.7 137.5,-37.7"/>
<text text-anchor="start" x="194.3862" y="-43.8" font-family="Helvetica,sans-Serif" font-size="11.00" fill="#000000"> &#160;</text>
<polygon fill="#ffffff" stroke="transparent" points="203.5,-37.7 203.5,-56.7 285.5,-56.7 285.5,-37.7 203.5,-37.7"/>
<polygon fill="none" stroke="#000000" points="203.5,-37.7 203.5,-56.7 285.5,-56.7 285.5,-37.7 203.5,-37.7"/>
<text text-anchor="start" x="260.7904" y="-43.8" font-family="Helvetica,sans-Serif" font-size="11.00" fill="#000000">95 &gt;</text>
</a>
</g>
</g>
<!-- document_templates&#45;&gt;patient_data -->
<g id="edge1" class="edge">
<title>document_templates:w&#45;&gt;patient_data:e</title>
<path fill="none" stroke="#000000" d="M321.4203,-196.7C309.5435,-196.7 302.158,-196.7 285.5,-196.7"/>
<polygon fill="#000000" stroke="#000000" points="328,-196.7001 336,-200.3 332,-196.7 336,-196.7 336,-196.7 336,-196.7 332,-196.7 336,-193.1 328,-196.7001 328,-196.7001"/>
<ellipse fill="none" stroke="#000000" cx="324.8" cy="-196.7001" rx="3.2" ry="3.2"/>
</g>
</g>
</svg>
