<?xml version="1.0" encoding="UTF-8" standalone="no"?>
<!DOCTYPE svg PUBLIC "-//W3C//DTD SVG 1.1//EN"
 "http://www.w3.org/Graphics/SVG/1.1/DTD/svg11.dtd">
<!-- Generated by graphviz version 2.40.1 (20161225.0304)
 -->
<!-- Title: oneDegreeRelationshipsDiagram Pages: 1 -->
<svg width="471pt" height="829pt"
 viewBox="0.00 0.00 471.00 828.70" xmlns="http://www.w3.org/2000/svg" xmlns:xlink="http://www.w3.org/1999/xlink">
<g id="graph0" class="graph" transform="scale(1 1) rotate(0) translate(4 824.7)">
<title>oneDegreeRelationshipsDiagram</title>
<polygon fill="#ffffff" stroke="transparent" points="-4,4 -4,-824.7 467,-824.7 467,4 -4,4"/>
<text text-anchor="middle" x="72.4936" y="-7.3" font-family="Helvetica,sans-Serif" font-size="11.00" fill="#000000">Generated by SchemaSpy</text>
<!-- drug_sales -->
<g id="node1" class="node">
<title>drug_sales</title>
<g id="a_node1"><a xlink:href="../../tables/drug_sales.html" xlink:title="drug_sales" target="_top">
<polygon fill="#ffffff" stroke="transparent" points="271,-579.7 271,-816.7 445,-816.7 445,-579.7 271,-579.7"/>
<polygon fill="#f5f5f5" stroke="transparent" points="271,-793.2 271,-816.2 445,-816.2 445,-793.2 271,-793.2"/>
<polygon fill="none" stroke="#000000" points="271,-793.2 271,-816.2 445,-816.2 445,-793.2 271,-793.2"/>
<text text-anchor="start" x="276" y="-801.8" font-family="Helvetica,sans-Serif" font-weight="bold" font-size="11.00" fill="#000000">drug_sales</text>
<text text-anchor="start" x="410.0437" y="-801.3" font-family="Helvetica,sans-Serif" font-size="11.00" fill="#000000">[table]</text>
<polygon fill="#ffffff" stroke="transparent" points="271,-771.2 271,-793.2 445,-793.2 445,-771.2 271,-771.2"/>
<polygon fill="none" stroke="#000000" points="271,-771.2 271,-793.2 445,-793.2 445,-771.2 271,-771.2"/>
<text text-anchor="start" x="291" y="-778.3" font-family="Helvetica,sans-Serif" font-size="11.00" fill="#000000">uuid</text>
<polygon fill="none" stroke="#000000" points="271,-749.2 271,-771.2 445,-771.2 445,-749.2 271,-749.2"/>
<image xlink:href="../../images/primaryKeys.png" width="11px" height="12px" preserveAspectRatio="xMinYMin meet" x="276" y="-766.2"/>
<text text-anchor="start" x="291" y="-756.3" font-family="Helvetica,sans-Serif" font-size="11.00" fill="#000000">sale_id</text>
<polygon fill="none" stroke="#000000" points="271,-727.2 271,-749.2 445,-749.2 445,-727.2 271,-727.2"/>
<image xlink:href="../../images/foreignKeys.png" width="11px" height="12px" preserveAspectRatio="xMinYMin meet" x="276" y="-744.2"/>
<text text-anchor="start" x="291" y="-734.3" font-family="Helvetica,sans-Serif" font-size="11.00" fill="#000000">drug_id</text>
<polygon fill="none" stroke="#000000" points="271,-705.2 271,-727.2 445,-727.2 445,-705.2 271,-705.2"/>
<image xlink:href="../../images/foreignKeys.png" width="11px" height="12px" preserveAspectRatio="xMinYMin meet" x="276" y="-722.2"/>
<text text-anchor="start" x="291" y="-712.3" font-family="Helvetica,sans-Serif" font-size="11.00" fill="#000000">pid</text>
<polygon fill="none" stroke="#000000" points="271,-683.2 271,-705.2 445,-705.2 445,-683.2 271,-683.2"/>
<image xlink:href="../../images/foreignKeys.png" width="11px" height="12px" preserveAspectRatio="xMinYMin meet" x="276" y="-700.2"/>
<text text-anchor="start" x="291" y="-690.3" font-family="Helvetica,sans-Serif" font-size="11.00" fill="#000000">encounter</text>
<polygon fill="none" stroke="#000000" points="271,-661.2 271,-683.2 445,-683.2 445,-661.2 271,-661.2"/>
<image xlink:href="../../images/foreignKeys.png" width="11px" height="12px" preserveAspectRatio="xMinYMin meet" x="276" y="-678.2"/>
<text text-anchor="start" x="291" y="-668.3" font-family="Helvetica,sans-Serif" font-size="11.00" fill="#000000">pharmacy_supply_type</text>
<polygon fill="none" stroke="#000000" points="271,-639.2 271,-661.2 445,-661.2 445,-639.2 271,-639.2"/>
<image xlink:href="../../images/foreignKeys.png" width="11px" height="12px" preserveAspectRatio="xMinYMin meet" x="276" y="-656.2"/>
<text text-anchor="start" x="291" y="-646.3" font-family="Helvetica,sans-Serif" font-size="11.00" fill="#000000">updated_by</text>
<polygon fill="none" stroke="#000000" points="271,-617.2 271,-639.2 445,-639.2 445,-617.2 271,-617.2"/>
<image xlink:href="../../images/foreignKeys.png" width="11px" height="12px" preserveAspectRatio="xMinYMin meet" x="276" y="-634.2"/>
<text text-anchor="start" x="291" y="-624.3" font-family="Helvetica,sans-Serif" font-size="11.00" fill="#000000">created_by</text>
<polygon fill="none" stroke="#000000" points="271,-598.2 271,-617.2 445,-617.2 445,-598.2 271,-598.2"/>
<text text-anchor="start" x="274" y="-604.3" font-family="Helvetica,sans-Serif" font-size="11.00" fill="#000000">...</text>
<polygon fill="#ffffff" stroke="transparent" points="271,-579.2 271,-598.2 356,-598.2 356,-579.2 271,-579.2"/>
<polygon fill="none" stroke="#000000" points="271,-579.2 271,-598.2 356,-598.2 356,-579.2 271,-579.2"/>
<text text-anchor="start" x="274" y="-585.3" font-family="Helvetica,sans-Serif" font-size="11.00" fill="#000000">&lt; 6</text>
<polygon fill="#ffffff" stroke="transparent" points="356,-579.2 356,-598.2 400,-598.2 400,-579.2 356,-579.2"/>
<polygon fill="none" stroke="#000000" points="356,-579.2 356,-598.2 400,-598.2 400,-579.2 356,-579.2"/>
<text text-anchor="start" x="390.8862" y="-585.3" font-family="Helvetica,sans-Serif" font-size="11.00" fill="#000000"> &#160;</text>
<polygon fill="#ffffff" stroke="transparent" points="400,-579.2 400,-598.2 445,-598.2 445,-579.2 400,-579.2"/>
<polygon fill="none" stroke="#000000" points="400,-579.2 400,-598.2 445,-598.2 445,-579.2 400,-579.2"/>
<text text-anchor="start" x="435.8862" y="-585.3" font-family="Helvetica,sans-Serif" font-size="11.00" fill="#000000"> &#160;</text>
</a>
</g>
</g>
<!-- drugs -->
<g id="node2" class="node">
<title>drugs</title>
<g id="a_node2"><a xlink:href="../../tables/drugs.html" xlink:title="drugs" target="_top">
<polygon fill="#ffffff" stroke="transparent" points="8,-38.2 8,-612.2 212,-612.2 212,-38.2 8,-38.2"/>
<polygon fill="#f5f5f5" stroke="transparent" points="10,-587.2 10,-610.2 210,-610.2 210,-587.2 10,-587.2"/>
<polygon fill="none" stroke="#000000" points="10,-587.2 10,-610.2 210,-610.2 210,-587.2 10,-587.2"/>
<text text-anchor="start" x="15" y="-595.8" font-family="Helvetica,sans-Serif" font-weight="bold" font-size="11.00" fill="#000000">drugs</text>
<text text-anchor="start" x="175.0437" y="-595.3" font-family="Helvetica,sans-Serif" font-size="11.00" fill="#000000">[table]</text>
<polygon fill="none" stroke="#000000" points="10,-565.2 10,-587.2 143,-587.2 143,-565.2 10,-565.2"/>
<image xlink:href="../../images/primaryKeys.png" width="11px" height="12px" preserveAspectRatio="xMinYMin meet" x="15" y="-582.2"/>
<text text-anchor="start" x="30" y="-572.3" font-family="Helvetica,sans-Serif" font-size="11.00" fill="#000000">drug_id</text>
<polygon fill="none" stroke="#000000" points="143,-565.2 143,-587.2 210,-587.2 210,-565.2 143,-565.2"/>
<text text-anchor="start" x="146" y="-572.9" font-family="Helvetica,sans-Serif" font-size="11.00" fill="#000000">int[10]</text>
<polygon fill="#ffffff" stroke="transparent" points="10,-543.2 10,-565.2 143,-565.2 143,-543.2 10,-543.2"/>
<polygon fill="none" stroke="#000000" points="10,-543.2 10,-565.2 143,-565.2 143,-543.2 10,-543.2"/>
<text text-anchor="start" x="30" y="-550.3" font-family="Helvetica,sans-Serif" font-size="11.00" fill="#000000">uuid</text>
<polygon fill="none" stroke="#000000" points="143,-543.2 143,-565.2 210,-565.2 210,-543.2 143,-543.2"/>
<text text-anchor="start" x="146" y="-550.9" font-family="Helvetica,sans-Serif" font-size="11.00" fill="#000000">binary[16]</text>
<polygon fill="none" stroke="#000000" points="10,-521.2 10,-543.2 143,-543.2 143,-521.2 10,-521.2"/>
<text text-anchor="start" x="30" y="-528.3" font-family="Helvetica,sans-Serif" font-size="11.00" fill="#000000">name</text>
<polygon fill="none" stroke="#000000" points="143,-521.2 143,-543.2 210,-543.2 210,-521.2 143,-521.2"/>
<text text-anchor="start" x="145.9365" y="-528.9" font-family="Helvetica,sans-Serif" font-size="11.00" fill="#000000">varchar[255]</text>
<polygon fill="none" stroke="#000000" points="10,-499.2 10,-521.2 143,-521.2 143,-499.2 10,-499.2"/>
<text text-anchor="start" x="30" y="-506.3" font-family="Helvetica,sans-Serif" font-size="11.00" fill="#000000">ndc_number</text>
<polygon fill="none" stroke="#000000" points="143,-499.2 143,-521.2 210,-521.2 210,-499.2 143,-499.2"/>
<text text-anchor="start" x="146" y="-506.9" font-family="Helvetica,sans-Serif" font-size="11.00" fill="#000000">varchar[20]</text>
<polygon fill="none" stroke="#000000" points="10,-477.2 10,-499.2 143,-499.2 143,-477.2 10,-477.2"/>
<text text-anchor="start" x="30" y="-484.3" font-family="Helvetica,sans-Serif" font-size="11.00" fill="#000000">on_order</text>
<polygon fill="none" stroke="#000000" points="143,-477.2 143,-499.2 210,-499.2 210,-477.2 143,-477.2"/>
<text text-anchor="start" x="146" y="-484.9" font-family="Helvetica,sans-Serif" font-size="11.00" fill="#000000">int[10]</text>
<polygon fill="none" stroke="#000000" points="10,-455.2 10,-477.2 143,-477.2 143,-455.2 10,-455.2"/>
<text text-anchor="start" x="30" y="-462.3" font-family="Helvetica,sans-Serif" font-size="11.00" fill="#000000">reorder_point</text>
<polygon fill="none" stroke="#000000" points="143,-455.2 143,-477.2 210,-477.2 210,-455.2 143,-455.2"/>
<text text-anchor="start" x="146" y="-462.9" font-family="Helvetica,sans-Serif" font-size="11.00" fill="#000000">float[12]</text>
<polygon fill="none" stroke="#000000" points="10,-433.2 10,-455.2 143,-455.2 143,-433.2 10,-433.2"/>
<text text-anchor="start" x="30" y="-440.3" font-family="Helvetica,sans-Serif" font-size="11.00" fill="#000000">max_level</text>
<polygon fill="none" stroke="#000000" points="143,-433.2 143,-455.2 210,-455.2 210,-433.2 143,-433.2"/>
<text text-anchor="start" x="146" y="-440.9" font-family="Helvetica,sans-Serif" font-size="11.00" fill="#000000">float[12]</text>
<polygon fill="none" stroke="#000000" points="10,-411.2 10,-433.2 143,-433.2 143,-411.2 10,-411.2"/>
<text text-anchor="start" x="30" y="-418.3" font-family="Helvetica,sans-Serif" font-size="11.00" fill="#000000">last_notify</text>
<polygon fill="none" stroke="#000000" points="143,-411.2 143,-433.2 210,-433.2 210,-411.2 143,-411.2"/>
<text text-anchor="start" x="146" y="-418.9" font-family="Helvetica,sans-Serif" font-size="11.00" fill="#000000">date[10]</text>
<polygon fill="none" stroke="#000000" points="10,-389.2 10,-411.2 143,-411.2 143,-389.2 10,-389.2"/>
<text text-anchor="start" x="30" y="-396.3" font-family="Helvetica,sans-Serif" font-size="11.00" fill="#000000">reactions</text>
<polygon fill="none" stroke="#000000" points="143,-389.2 143,-411.2 210,-411.2 210,-389.2 143,-389.2"/>
<text text-anchor="start" x="146" y="-396.9" font-family="Helvetica,sans-Serif" font-size="11.00" fill="#000000">text[65535]</text>
<polygon fill="none" stroke="#000000" points="10,-367.2 10,-389.2 143,-389.2 143,-367.2 10,-367.2"/>
<text text-anchor="start" x="30" y="-374.3" font-family="Helvetica,sans-Serif" font-size="11.00" fill="#000000">form</text>
<polygon fill="none" stroke="#000000" points="143,-367.2 143,-389.2 210,-389.2 210,-367.2 143,-367.2"/>
<text text-anchor="start" x="146" y="-374.9" font-family="Helvetica,sans-Serif" font-size="11.00" fill="#000000">varchar[31]</text>
<polygon fill="none" stroke="#000000" points="10,-345.2 10,-367.2 143,-367.2 143,-345.2 10,-345.2"/>
<text text-anchor="start" x="30" y="-352.3" font-family="Helvetica,sans-Serif" font-size="11.00" fill="#000000">size</text>
<polygon fill="none" stroke="#000000" points="143,-345.2 143,-367.2 210,-367.2 210,-345.2 143,-345.2"/>
<text text-anchor="start" x="146" y="-352.9" font-family="Helvetica,sans-Serif" font-size="11.00" fill="#000000">varchar[25]</text>
<polygon fill="none" stroke="#000000" points="10,-323.2 10,-345.2 143,-345.2 143,-323.2 10,-323.2"/>
<text text-anchor="start" x="30" y="-330.3" font-family="Helvetica,sans-Serif" font-size="11.00" fill="#000000">unit</text>
<polygon fill="none" stroke="#000000" points="143,-323.2 143,-345.2 210,-345.2 210,-323.2 143,-323.2"/>
<text text-anchor="start" x="146" y="-330.9" font-family="Helvetica,sans-Serif" font-size="11.00" fill="#000000">varchar[31]</text>
<polygon fill="none" stroke="#000000" points="10,-301.2 10,-323.2 143,-323.2 143,-301.2 10,-301.2"/>
<text text-anchor="start" x="30" y="-308.3" font-family="Helvetica,sans-Serif" font-size="11.00" fill="#000000">route</text>
<polygon fill="none" stroke="#000000" points="143,-301.2 143,-323.2 210,-323.2 210,-301.2 143,-301.2"/>
<text text-anchor="start" x="146" y="-308.9" font-family="Helvetica,sans-Serif" font-size="11.00" fill="#000000">varchar[31]</text>
<polygon fill="none" stroke="#000000" points="10,-279.2 10,-301.2 143,-301.2 143,-279.2 10,-279.2"/>
<text text-anchor="start" x="30" y="-286.3" font-family="Helvetica,sans-Serif" font-size="11.00" fill="#000000">substitute</text>
<polygon fill="none" stroke="#000000" points="143,-279.2 143,-301.2 210,-301.2 210,-279.2 143,-279.2"/>
<text text-anchor="start" x="146" y="-286.9" font-family="Helvetica,sans-Serif" font-size="11.00" fill="#000000">int[10]</text>
<polygon fill="none" stroke="#000000" points="10,-257.2 10,-279.2 143,-279.2 143,-257.2 10,-257.2"/>
<text text-anchor="start" x="30" y="-264.3" font-family="Helvetica,sans-Serif" font-size="11.00" fill="#000000">related_code</text>
<polygon fill="none" stroke="#000000" points="143,-257.2 143,-279.2 210,-279.2 210,-257.2 143,-257.2"/>
<text text-anchor="start" x="145.9365" y="-264.9" font-family="Helvetica,sans-Serif" font-size="11.00" fill="#000000">varchar[255]</text>
<polygon fill="none" stroke="#000000" points="10,-235.2 10,-257.2 143,-257.2 143,-235.2 10,-235.2"/>
<text text-anchor="start" x="30" y="-242.3" font-family="Helvetica,sans-Serif" font-size="11.00" fill="#000000">cyp_factor</text>
<polygon fill="none" stroke="#000000" points="143,-235.2 143,-257.2 210,-257.2 210,-235.2 143,-235.2"/>
<text text-anchor="start" x="146" y="-242.9" font-family="Helvetica,sans-Serif" font-size="11.00" fill="#000000">float[12]</text>
<polygon fill="none" stroke="#000000" points="10,-213.2 10,-235.2 143,-235.2 143,-213.2 10,-213.2"/>
<text text-anchor="start" x="30" y="-220.3" font-family="Helvetica,sans-Serif" font-size="11.00" fill="#000000">active</text>
<polygon fill="none" stroke="#000000" points="143,-213.2 143,-235.2 210,-235.2 210,-213.2 143,-213.2"/>
<text text-anchor="start" x="146" y="-220.9" font-family="Helvetica,sans-Serif" font-size="11.00" fill="#000000">boolean[3]</text>
<polygon fill="none" stroke="#000000" points="10,-191.2 10,-213.2 143,-213.2 143,-191.2 10,-191.2"/>
<text text-anchor="start" x="30" y="-198.3" font-family="Helvetica,sans-Serif" font-size="11.00" fill="#000000">allow_combining</text>
<polygon fill="none" stroke="#000000" points="143,-191.2 143,-213.2 210,-213.2 210,-191.2 143,-191.2"/>
<text text-anchor="start" x="146" y="-198.9" font-family="Helvetica,sans-Serif" font-size="11.00" fill="#000000">boolean[3]</text>
<polygon fill="none" stroke="#000000" points="10,-169.2 10,-191.2 143,-191.2 143,-169.2 10,-169.2"/>
<text text-anchor="start" x="30" y="-176.3" font-family="Helvetica,sans-Serif" font-size="11.00" fill="#000000">allow_multiple</text>
<polygon fill="none" stroke="#000000" points="143,-169.2 143,-191.2 210,-191.2 210,-169.2 143,-169.2"/>
<text text-anchor="start" x="146" y="-176.9" font-family="Helvetica,sans-Serif" font-size="11.00" fill="#000000">boolean[3]</text>
<polygon fill="none" stroke="#000000" points="10,-147.2 10,-169.2 143,-169.2 143,-147.2 10,-147.2"/>
<text text-anchor="start" x="30" y="-154.3" font-family="Helvetica,sans-Serif" font-size="11.00" fill="#000000">drug_code</text>
<polygon fill="none" stroke="#000000" points="143,-147.2 143,-169.2 210,-169.2 210,-147.2 143,-147.2"/>
<text text-anchor="start" x="146" y="-154.9" font-family="Helvetica,sans-Serif" font-size="11.00" fill="#000000">varchar[25]</text>
<polygon fill="none" stroke="#000000" points="10,-125.2 10,-147.2 143,-147.2 143,-125.2 10,-125.2"/>
<text text-anchor="start" x="30" y="-132.3" font-family="Helvetica,sans-Serif" font-size="11.00" fill="#000000">consumable</text>
<polygon fill="none" stroke="#000000" points="143,-125.2 143,-147.2 210,-147.2 210,-125.2 143,-125.2"/>
<text text-anchor="start" x="146" y="-132.9" font-family="Helvetica,sans-Serif" font-size="11.00" fill="#000000">boolean[3]</text>
<polygon fill="none" stroke="#000000" points="10,-103.2 10,-125.2 143,-125.2 143,-103.2 10,-103.2"/>
<text text-anchor="start" x="30" y="-110.3" font-family="Helvetica,sans-Serif" font-size="11.00" fill="#000000">dispensable</text>
<polygon fill="none" stroke="#000000" points="143,-103.2 143,-125.2 210,-125.2 210,-103.2 143,-103.2"/>
<text text-anchor="start" x="146" y="-110.9" font-family="Helvetica,sans-Serif" font-size="11.00" fill="#000000">boolean[3]</text>
<polygon fill="none" stroke="#000000" points="10,-81.2 10,-103.2 143,-103.2 143,-81.2 10,-81.2"/>
<text text-anchor="start" x="30" y="-88.3" font-family="Helvetica,sans-Serif" font-size="11.00" fill="#000000">date_created</text>
<polygon fill="none" stroke="#000000" points="143,-81.2 143,-103.2 210,-103.2 210,-81.2 143,-81.2"/>
<text text-anchor="start" x="146" y="-88.9" font-family="Helvetica,sans-Serif" font-size="11.00" fill="#000000">datetime[19]</text>
<polygon fill="none" stroke="#000000" points="10,-59.2 10,-81.2 143,-81.2 143,-59.2 10,-59.2"/>
<text text-anchor="start" x="30" y="-66.3" font-family="Helvetica,sans-Serif" font-size="11.00" fill="#000000">last_updated</text>
<polygon fill="none" stroke="#000000" points="143,-59.2 143,-81.2 210,-81.2 210,-59.2 143,-59.2"/>
<text text-anchor="start" x="146" y="-66.9" font-family="Helvetica,sans-Serif" font-size="11.00" fill="#000000">datetime[19]</text>
<polygon fill="#ffffff" stroke="transparent" points="10,-40.2 10,-59.2 81,-59.2 81,-40.2 10,-40.2"/>
<polygon fill="none" stroke="#000000" points="10,-40.2 10,-59.2 81,-59.2 81,-40.2 10,-40.2"/>
<text text-anchor="start" x="13" y="-46.3" font-family="Helvetica,sans-Serif" font-size="11.00" fill="#000000">&lt; 0</text>
<polygon fill="#ffffff" stroke="transparent" points="81,-40.2 81,-59.2 143,-59.2 143,-40.2 81,-40.2"/>
<polygon fill="none" stroke="#000000" points="81,-40.2 81,-59.2 143,-59.2 143,-40.2 81,-40.2"/>
<text text-anchor="start" x="133.8862" y="-46.3" font-family="Helvetica,sans-Serif" font-size="11.00" fill="#000000"> &#160;</text>
<polygon fill="#ffffff" stroke="transparent" points="143,-40.2 143,-59.2 210,-59.2 210,-40.2 143,-40.2"/>
<polygon fill="none" stroke="#000000" points="143,-40.2 143,-59.2 210,-59.2 210,-40.2 143,-40.2"/>
<text text-anchor="start" x="191.4053" y="-46.3" font-family="Helvetica,sans-Serif" font-size="11.00" fill="#000000">2 &gt;</text>
<polygon fill="none" stroke="#000000" stroke-width="2" points="9,-39.2 9,-611.2 211,-611.2 211,-39.2 9,-39.2"/>
</a>
</g>
</g>
<!-- drug_sales&#45;&gt;drugs -->
<g id="edge1" class="edge">
<title>drug_sales:w&#45;&gt;drugs:e</title>
<path fill="none" stroke="#000000" d="M256.5372,-735.6554C206.9149,-715.0455 281.2251,-576.2 210,-576.2"/>
<polygon fill="#000000" stroke="#000000" points="263.121,-736.8137 270.3762,-741.7455 267.0605,-737.5069 271,-738.2 271,-738.2 271,-738.2 267.0605,-737.5069 271.6238,-734.6545 263.121,-736.8137 263.121,-736.8137"/>
<ellipse fill="none" stroke="#000000" cx="259.9694" cy="-736.2592" rx="3.2" ry="3.2"/>
</g>
<!-- prescriptions -->
<g id="node3" class="node">
<title>prescriptions</title>
<g id="a_node3"><a xlink:href="../../tables/prescriptions.html" xlink:title="prescriptions" target="_top">
<polygon fill="#ffffff" stroke="transparent" points="261,-255.7 261,-558.7 455,-558.7 455,-255.7 261,-255.7"/>
<polygon fill="#f5f5f5" stroke="transparent" points="261,-535.2 261,-558.2 455,-558.2 455,-535.2 261,-535.2"/>
<polygon fill="none" stroke="#000000" points="261,-535.2 261,-558.2 455,-558.2 455,-535.2 261,-535.2"/>
<text text-anchor="start" x="266" y="-543.8" font-family="Helvetica,sans-Serif" font-weight="bold" font-size="11.00" fill="#000000">prescriptions</text>
<text text-anchor="start" x="420.0437" y="-543.3" font-family="Helvetica,sans-Serif" font-size="11.00" fill="#000000">[table]</text>
<polygon fill="none" stroke="#000000" points="261,-513.2 261,-535.2 455,-535.2 455,-513.2 261,-513.2"/>
<image xlink:href="../../images/primaryKeys.png" width="11px" height="12px" preserveAspectRatio="xMinYMin meet" x="266" y="-530.2"/>
<text text-anchor="start" x="281" y="-520.3" font-family="Helvetica,sans-Serif" font-size="11.00" fill="#000000">id</text>
<polygon fill="#ffffff" stroke="transparent" points="261,-491.2 261,-513.2 455,-513.2 455,-491.2 261,-491.2"/>
<polygon fill="none" stroke="#000000" points="261,-491.2 261,-513.2 455,-513.2 455,-491.2 261,-491.2"/>
<text text-anchor="start" x="281" y="-498.3" font-family="Helvetica,sans-Serif" font-size="11.00" fill="#000000">uuid</text>
<polygon fill="#ffffff" stroke="transparent" points="261,-469.2 261,-491.2 455,-491.2 455,-469.2 261,-469.2"/>
<polygon fill="none" stroke="#000000" points="261,-469.2 261,-491.2 455,-491.2 455,-469.2 261,-469.2"/>
<image xlink:href="../../images/foreignKeys.png" width="11px" height="12px" preserveAspectRatio="xMinYMin meet" x="266" y="-486.2"/>
<text text-anchor="start" x="281" y="-476.3" font-family="Helvetica,sans-Serif" font-size="11.00" fill="#000000">patient_id</text>
<polygon fill="none" stroke="#000000" points="261,-447.2 261,-469.2 455,-469.2 455,-447.2 261,-447.2"/>
<image xlink:href="../../images/foreignKeys.png" width="11px" height="12px" preserveAspectRatio="xMinYMin meet" x="266" y="-464.2"/>
<text text-anchor="start" x="281" y="-454.3" font-family="Helvetica,sans-Serif" font-size="11.00" fill="#000000">pharmacy_id</text>
<polygon fill="none" stroke="#000000" points="261,-425.2 261,-447.2 455,-447.2 455,-425.2 261,-425.2"/>
<image xlink:href="../../images/foreignKeys.png" width="11px" height="12px" preserveAspectRatio="xMinYMin meet" x="266" y="-442.2"/>
<text text-anchor="start" x="281" y="-432.3" font-family="Helvetica,sans-Serif" font-size="11.00" fill="#000000">provider_id</text>
<polygon fill="none" stroke="#000000" points="261,-403.2 261,-425.2 455,-425.2 455,-403.2 261,-403.2"/>
<image xlink:href="../../images/foreignKeys.png" width="11px" height="12px" preserveAspectRatio="xMinYMin meet" x="266" y="-420.2"/>
<text text-anchor="start" x="281" y="-410.3" font-family="Helvetica,sans-Serif" font-size="11.00" fill="#000000">drug_id</text>
<polygon fill="none" stroke="#000000" points="261,-381.2 261,-403.2 455,-403.2 455,-381.2 261,-381.2"/>
<image xlink:href="../../images/foreignKeys.png" width="11px" height="12px" preserveAspectRatio="xMinYMin meet" x="266" y="-398.2"/>
<text text-anchor="start" x="281" y="-388.3" font-family="Helvetica,sans-Serif" font-size="11.00" fill="#000000">route</text>
<polygon fill="none" stroke="#000000" points="261,-359.2 261,-381.2 455,-381.2 455,-359.2 261,-359.2"/>
<image xlink:href="../../images/foreignKeys.png" width="11px" height="12px" preserveAspectRatio="xMinYMin meet" x="266" y="-376.2"/>
<text text-anchor="start" x="281" y="-366.3" font-family="Helvetica,sans-Serif" font-size="11.00" fill="#000000">usage_category</text>
<polygon fill="none" stroke="#000000" points="261,-337.2 261,-359.2 455,-359.2 455,-337.2 261,-337.2"/>
<image xlink:href="../../images/foreignKeys.png" width="11px" height="12px" preserveAspectRatio="xMinYMin meet" x="266" y="-354.2"/>
<text text-anchor="start" x="281" y="-344.3" font-family="Helvetica,sans-Serif" font-size="11.00" fill="#000000">request_intent</text>
<polygon fill="none" stroke="#000000" points="261,-315.2 261,-337.2 455,-337.2 455,-315.2 261,-315.2"/>
<image xlink:href="../../images/foreignKeys.png" width="11px" height="12px" preserveAspectRatio="xMinYMin meet" x="266" y="-332.2"/>
<text text-anchor="start" x="281" y="-322.3" font-family="Helvetica,sans-Serif" font-size="11.00" fill="#000000">created_by</text>
<polygon fill="none" stroke="#000000" points="261,-293.2 261,-315.2 455,-315.2 455,-293.2 261,-293.2"/>
<image xlink:href="../../images/foreignKeys.png" width="11px" height="12px" preserveAspectRatio="xMinYMin meet" x="266" y="-310.2"/>
<text text-anchor="start" x="281" y="-300.3" font-family="Helvetica,sans-Serif" font-size="11.00" fill="#000000">updated_by</text>
<polygon fill="none" stroke="#000000" points="261,-274.2 261,-293.2 455,-293.2 455,-274.2 261,-274.2"/>
<text text-anchor="start" x="264" y="-280.3" font-family="Helvetica,sans-Serif" font-size="11.00" fill="#000000">...</text>
<polygon fill="#ffffff" stroke="transparent" points="261,-255.2 261,-274.2 352,-274.2 352,-255.2 261,-255.2"/>
<polygon fill="none" stroke="#000000" points="261,-255.2 261,-274.2 352,-274.2 352,-255.2 261,-255.2"/>
<text text-anchor="start" x="264" y="-261.3" font-family="Helvetica,sans-Serif" font-size="11.00" fill="#000000">&lt; 9</text>
<polygon fill="#ffffff" stroke="transparent" points="352,-255.2 352,-274.2 399,-274.2 399,-255.2 352,-255.2"/>
<polygon fill="none" stroke="#000000" points="352,-255.2 352,-274.2 399,-274.2 399,-255.2 352,-255.2"/>
<text text-anchor="start" x="389.8862" y="-261.3" font-family="Helvetica,sans-Serif" font-size="11.00" fill="#000000"> &#160;</text>
<polygon fill="#ffffff" stroke="transparent" points="399,-255.2 399,-274.2 455,-274.2 455,-255.2 399,-255.2"/>
<polygon fill="none" stroke="#000000" points="399,-255.2 399,-274.2 455,-274.2 455,-255.2 399,-255.2"/>
<text text-anchor="start" x="436.4053" y="-261.3" font-family="Helvetica,sans-Serif" font-size="11.00" fill="#000000">1 &gt;</text>
</a>
</g>
</g>
<!-- prescriptions&#45;&gt;drugs -->
<g id="edge2" class="edge">
<title>prescriptions:w&#45;&gt;drugs:e</title>
<path fill="none" stroke="#000000" d="M246.6497,-416.8767C199.7278,-437.9397 279.7339,-576.2 210,-576.2"/>
<polygon fill="#000000" stroke="#000000" points="253.1356,-415.6669 261.6601,-417.739 257.0678,-414.9335 261,-414.2 261,-414.2 261,-414.2 257.0678,-414.9335 260.3399,-410.661 253.1356,-415.6669 253.1356,-415.6669"/>
<ellipse fill="none" stroke="#000000" cx="249.9899" cy="-416.2537" rx="3.2" ry="3.2"/>
</g>
</g>
</svg>
