<?xml version="1.0" encoding="UTF-8" standalone="no"?>
<!DOCTYPE svg PUBLIC "-//W3C//DTD SVG 1.1//EN"
 "http://www.w3.org/Graphics/SVG/1.1/DTD/svg11.dtd">
<!-- Generated by graphviz version 2.40.1 (20161225.0304)
 -->
<!-- Title: oneDegreeRelationshipsDiagram Pages: 1 -->
<svg width="1072pt" height="754pt"
 viewBox="0.00 0.00 1072.00 753.70" xmlns="http://www.w3.org/2000/svg" xmlns:xlink="http://www.w3.org/1999/xlink">
<g id="graph0" class="graph" transform="scale(1 1) rotate(0) translate(4 749.7)">
<title>oneDegreeRelationshipsDiagram</title>
<polygon fill="#ffffff" stroke="transparent" points="-4,4 -4,-749.7 1068,-749.7 1068,4 -4,4"/>
<text text-anchor="middle" x="72.4936" y="-7.3" font-family="Helvetica,sans-Serif" font-size="11.00" fill="#000000">Generated by SchemaSpy</text>
<!-- drug_sales -->
<g id="node1" class="node">
<title>drug_sales</title>
<g id="a_node1"><a xlink:href="../../tables/drug_sales.html" xlink:title="drug_sales" target="_top">
<polygon fill="#ffffff" stroke="transparent" points="807,-145.7 807,-741.7 1056,-741.7 1056,-145.7 807,-145.7"/>
<polygon fill="#f5f5f5" stroke="transparent" points="809.5,-716.7 809.5,-739.7 1054.5,-739.7 1054.5,-716.7 809.5,-716.7"/>
<polygon fill="none" stroke="#000000" points="809.5,-716.7 809.5,-739.7 1054.5,-739.7 1054.5,-716.7 809.5,-716.7"/>
<text text-anchor="start" x="814.5" y="-725.3" font-family="Helvetica,sans-Serif" font-weight="bold" font-size="11.00" fill="#000000">drug_sales</text>
<text text-anchor="start" x="1019.5437" y="-724.8" font-family="Helvetica,sans-Serif" font-size="11.00" fill="#000000">[table]</text>
<polygon fill="#ffffff" stroke="transparent" points="809.5,-694.7 809.5,-716.7 983.5,-716.7 983.5,-694.7 809.5,-694.7"/>
<polygon fill="none" stroke="#000000" points="809.5,-694.7 809.5,-716.7 983.5,-716.7 983.5,-694.7 809.5,-694.7"/>
<text text-anchor="start" x="829.5" y="-701.8" font-family="Helvetica,sans-Serif" font-size="11.00" fill="#000000">uuid</text>
<polygon fill="none" stroke="#000000" points="983.5,-694.7 983.5,-716.7 1054.5,-716.7 1054.5,-694.7 983.5,-694.7"/>
<text text-anchor="start" x="986.5" y="-702.4" font-family="Helvetica,sans-Serif" font-size="11.00" fill="#000000">binary[16]</text>
<polygon fill="none" stroke="#000000" points="809.5,-672.7 809.5,-694.7 983.5,-694.7 983.5,-672.7 809.5,-672.7"/>
<image xlink:href="../../images/primaryKeys.png" width="11px" height="12px" preserveAspectRatio="xMinYMin meet" x="814.5" y="-689.7"/>
<text text-anchor="start" x="829.5" y="-679.8" font-family="Helvetica,sans-Serif" font-size="11.00" fill="#000000">sale_id</text>
<polygon fill="none" stroke="#000000" points="983.5,-672.7 983.5,-694.7 1054.5,-694.7 1054.5,-672.7 983.5,-672.7"/>
<text text-anchor="start" x="986.5" y="-680.4" font-family="Helvetica,sans-Serif" font-size="11.00" fill="#000000">int[10]</text>
<polygon fill="none" stroke="#000000" points="809.5,-650.7 809.5,-672.7 983.5,-672.7 983.5,-650.7 809.5,-650.7"/>
<image xlink:href="../../images/foreignKeys.png" width="11px" height="12px" preserveAspectRatio="xMinYMin meet" x="814.5" y="-667.7"/>
<text text-anchor="start" x="829.5" y="-657.8" font-family="Helvetica,sans-Serif" font-size="11.00" fill="#000000">drug_id</text>
<polygon fill="none" stroke="#000000" points="983.5,-650.7 983.5,-672.7 1054.5,-672.7 1054.5,-650.7 983.5,-650.7"/>
<text text-anchor="start" x="986.5" y="-658.4" font-family="Helvetica,sans-Serif" font-size="11.00" fill="#000000">int[10]</text>
<polygon fill="none" stroke="#000000" points="809.5,-628.7 809.5,-650.7 983.5,-650.7 983.5,-628.7 809.5,-628.7"/>
<text text-anchor="start" x="829.5" y="-635.8" font-family="Helvetica,sans-Serif" font-size="11.00" fill="#000000">inventory_id</text>
<polygon fill="none" stroke="#000000" points="983.5,-628.7 983.5,-650.7 1054.5,-650.7 1054.5,-628.7 983.5,-628.7"/>
<text text-anchor="start" x="986.5" y="-636.4" font-family="Helvetica,sans-Serif" font-size="11.00" fill="#000000">int[10]</text>
<polygon fill="none" stroke="#000000" points="809.5,-606.7 809.5,-628.7 983.5,-628.7 983.5,-606.7 809.5,-606.7"/>
<text text-anchor="start" x="829.5" y="-613.8" font-family="Helvetica,sans-Serif" font-size="11.00" fill="#000000">prescription_id</text>
<polygon fill="none" stroke="#000000" points="983.5,-606.7 983.5,-628.7 1054.5,-628.7 1054.5,-606.7 983.5,-606.7"/>
<text text-anchor="start" x="986.5" y="-614.4" font-family="Helvetica,sans-Serif" font-size="11.00" fill="#000000">int[10]</text>
<polygon fill="none" stroke="#000000" points="809.5,-584.7 809.5,-606.7 983.5,-606.7 983.5,-584.7 809.5,-584.7"/>
<image xlink:href="../../images/foreignKeys.png" width="11px" height="12px" preserveAspectRatio="xMinYMin meet" x="814.5" y="-601.7"/>
<text text-anchor="start" x="829.5" y="-591.8" font-family="Helvetica,sans-Serif" font-size="11.00" fill="#000000">pid</text>
<polygon fill="none" stroke="#000000" points="983.5,-584.7 983.5,-606.7 1054.5,-606.7 1054.5,-584.7 983.5,-584.7"/>
<text text-anchor="start" x="986.5" y="-592.4" font-family="Helvetica,sans-Serif" font-size="11.00" fill="#000000">bigint[19]</text>
<polygon fill="none" stroke="#000000" points="809.5,-562.7 809.5,-584.7 983.5,-584.7 983.5,-562.7 809.5,-562.7"/>
<image xlink:href="../../images/foreignKeys.png" width="11px" height="12px" preserveAspectRatio="xMinYMin meet" x="814.5" y="-579.7"/>
<text text-anchor="start" x="829.5" y="-569.8" font-family="Helvetica,sans-Serif" font-size="11.00" fill="#000000">encounter</text>
<polygon fill="none" stroke="#000000" points="983.5,-562.7 983.5,-584.7 1054.5,-584.7 1054.5,-562.7 983.5,-562.7"/>
<text text-anchor="start" x="986.5" y="-570.4" font-family="Helvetica,sans-Serif" font-size="11.00" fill="#000000">int[10]</text>
<polygon fill="none" stroke="#000000" points="809.5,-540.7 809.5,-562.7 983.5,-562.7 983.5,-540.7 809.5,-540.7"/>
<text text-anchor="start" x="829.5" y="-547.8" font-family="Helvetica,sans-Serif" font-size="11.00" fill="#000000">user</text>
<polygon fill="none" stroke="#000000" points="983.5,-540.7 983.5,-562.7 1054.5,-562.7 1054.5,-540.7 983.5,-540.7"/>
<text text-anchor="start" x="986.5" y="-548.4" font-family="Helvetica,sans-Serif" font-size="11.00" fill="#000000">varchar[255]</text>
<polygon fill="none" stroke="#000000" points="809.5,-518.7 809.5,-540.7 983.5,-540.7 983.5,-518.7 809.5,-518.7"/>
<text text-anchor="start" x="829.5" y="-525.8" font-family="Helvetica,sans-Serif" font-size="11.00" fill="#000000">sale_date</text>
<polygon fill="none" stroke="#000000" points="983.5,-518.7 983.5,-540.7 1054.5,-540.7 1054.5,-518.7 983.5,-518.7"/>
<text text-anchor="start" x="986.5" y="-526.4" font-family="Helvetica,sans-Serif" font-size="11.00" fill="#000000">date[10]</text>
<polygon fill="none" stroke="#000000" points="809.5,-496.7 809.5,-518.7 983.5,-518.7 983.5,-496.7 809.5,-496.7"/>
<text text-anchor="start" x="829.5" y="-503.8" font-family="Helvetica,sans-Serif" font-size="11.00" fill="#000000">quantity</text>
<polygon fill="none" stroke="#000000" points="983.5,-496.7 983.5,-518.7 1054.5,-518.7 1054.5,-496.7 983.5,-496.7"/>
<text text-anchor="start" x="986.5" y="-504.4" font-family="Helvetica,sans-Serif" font-size="11.00" fill="#000000">int[10]</text>
<polygon fill="none" stroke="#000000" points="809.5,-474.7 809.5,-496.7 983.5,-496.7 983.5,-474.7 809.5,-474.7"/>
<text text-anchor="start" x="829.5" y="-481.8" font-family="Helvetica,sans-Serif" font-size="11.00" fill="#000000">fee</text>
<polygon fill="none" stroke="#000000" points="983.5,-474.7 983.5,-496.7 1054.5,-496.7 1054.5,-474.7 983.5,-474.7"/>
<text text-anchor="start" x="986.2981" y="-482.4" font-family="Helvetica,sans-Serif" font-size="11.00" fill="#000000">decimal[12,2]</text>
<polygon fill="none" stroke="#000000" points="809.5,-452.7 809.5,-474.7 983.5,-474.7 983.5,-452.7 809.5,-452.7"/>
<text text-anchor="start" x="829.5" y="-459.8" font-family="Helvetica,sans-Serif" font-size="11.00" fill="#000000">billed</text>
<polygon fill="none" stroke="#000000" points="983.5,-452.7 983.5,-474.7 1054.5,-474.7 1054.5,-452.7 983.5,-452.7"/>
<text text-anchor="start" x="986.5" y="-460.4" font-family="Helvetica,sans-Serif" font-size="11.00" fill="#000000">boolean[3]</text>
<polygon fill="none" stroke="#000000" points="809.5,-430.7 809.5,-452.7 983.5,-452.7 983.5,-430.7 809.5,-430.7"/>
<text text-anchor="start" x="829.5" y="-437.8" font-family="Helvetica,sans-Serif" font-size="11.00" fill="#000000">xfer_inventory_id</text>
<polygon fill="none" stroke="#000000" points="983.5,-430.7 983.5,-452.7 1054.5,-452.7 1054.5,-430.7 983.5,-430.7"/>
<text text-anchor="start" x="986.5" y="-438.4" font-family="Helvetica,sans-Serif" font-size="11.00" fill="#000000">int[10]</text>
<polygon fill="none" stroke="#000000" points="809.5,-408.7 809.5,-430.7 983.5,-430.7 983.5,-408.7 809.5,-408.7"/>
<text text-anchor="start" x="829.5" y="-415.8" font-family="Helvetica,sans-Serif" font-size="11.00" fill="#000000">distributor_id</text>
<polygon fill="none" stroke="#000000" points="983.5,-408.7 983.5,-430.7 1054.5,-430.7 1054.5,-408.7 983.5,-408.7"/>
<text text-anchor="start" x="986.5" y="-416.4" font-family="Helvetica,sans-Serif" font-size="11.00" fill="#000000">bigint[19]</text>
<polygon fill="none" stroke="#000000" points="809.5,-386.7 809.5,-408.7 983.5,-408.7 983.5,-386.7 809.5,-386.7"/>
<text text-anchor="start" x="829.5" y="-393.8" font-family="Helvetica,sans-Serif" font-size="11.00" fill="#000000">notes</text>
<polygon fill="none" stroke="#000000" points="983.5,-386.7 983.5,-408.7 1054.5,-408.7 1054.5,-386.7 983.5,-386.7"/>
<text text-anchor="start" x="986.5" y="-394.4" font-family="Helvetica,sans-Serif" font-size="11.00" fill="#000000">varchar[255]</text>
<polygon fill="none" stroke="#000000" points="809.5,-364.7 809.5,-386.7 983.5,-386.7 983.5,-364.7 809.5,-364.7"/>
<text text-anchor="start" x="829.5" y="-371.8" font-family="Helvetica,sans-Serif" font-size="11.00" fill="#000000">bill_date</text>
<polygon fill="none" stroke="#000000" points="983.5,-364.7 983.5,-386.7 1054.5,-386.7 1054.5,-364.7 983.5,-364.7"/>
<text text-anchor="start" x="986.5" y="-372.4" font-family="Helvetica,sans-Serif" font-size="11.00" fill="#000000">datetime[19]</text>
<polygon fill="none" stroke="#000000" points="809.5,-342.7 809.5,-364.7 983.5,-364.7 983.5,-342.7 809.5,-342.7"/>
<text text-anchor="start" x="829.5" y="-349.8" font-family="Helvetica,sans-Serif" font-size="11.00" fill="#000000">pricelevel</text>
<polygon fill="none" stroke="#000000" points="983.5,-342.7 983.5,-364.7 1054.5,-364.7 1054.5,-342.7 983.5,-342.7"/>
<text text-anchor="start" x="986.5" y="-350.4" font-family="Helvetica,sans-Serif" font-size="11.00" fill="#000000">varchar[31]</text>
<polygon fill="none" stroke="#000000" points="809.5,-320.7 809.5,-342.7 983.5,-342.7 983.5,-320.7 809.5,-320.7"/>
<text text-anchor="start" x="829.5" y="-327.8" font-family="Helvetica,sans-Serif" font-size="11.00" fill="#000000">selector</text>
<polygon fill="none" stroke="#000000" points="983.5,-320.7 983.5,-342.7 1054.5,-342.7 1054.5,-320.7 983.5,-320.7"/>
<text text-anchor="start" x="986.5" y="-328.4" font-family="Helvetica,sans-Serif" font-size="11.00" fill="#000000">varchar[255]</text>
<polygon fill="none" stroke="#000000" points="809.5,-298.7 809.5,-320.7 983.5,-320.7 983.5,-298.7 809.5,-298.7"/>
<text text-anchor="start" x="829.5" y="-305.8" font-family="Helvetica,sans-Serif" font-size="11.00" fill="#000000">trans_type</text>
<polygon fill="none" stroke="#000000" points="983.5,-298.7 983.5,-320.7 1054.5,-320.7 1054.5,-298.7 983.5,-298.7"/>
<text text-anchor="start" x="986.5" y="-306.4" font-family="Helvetica,sans-Serif" font-size="11.00" fill="#000000">tinyint[3]</text>
<polygon fill="none" stroke="#000000" points="809.5,-276.7 809.5,-298.7 983.5,-298.7 983.5,-276.7 809.5,-276.7"/>
<text text-anchor="start" x="829.5" y="-283.8" font-family="Helvetica,sans-Serif" font-size="11.00" fill="#000000">chargecat</text>
<polygon fill="none" stroke="#000000" points="983.5,-276.7 983.5,-298.7 1054.5,-298.7 1054.5,-276.7 983.5,-276.7"/>
<text text-anchor="start" x="986.5" y="-284.4" font-family="Helvetica,sans-Serif" font-size="11.00" fill="#000000">varchar[31]</text>
<polygon fill="none" stroke="#000000" points="809.5,-254.7 809.5,-276.7 983.5,-276.7 983.5,-254.7 809.5,-254.7"/>
<image xlink:href="../../images/foreignKeys.png" width="11px" height="12px" preserveAspectRatio="xMinYMin meet" x="814.5" y="-271.7"/>
<text text-anchor="start" x="829.5" y="-261.8" font-family="Helvetica,sans-Serif" font-size="11.00" fill="#000000">pharmacy_supply_type</text>
<polygon fill="none" stroke="#000000" points="983.5,-254.7 983.5,-276.7 1054.5,-276.7 1054.5,-254.7 983.5,-254.7"/>
<text text-anchor="start" x="986.5" y="-262.4" font-family="Helvetica,sans-Serif" font-size="11.00" fill="#000000">varchar[50]</text>
<polygon fill="none" stroke="#000000" points="809.5,-232.7 809.5,-254.7 983.5,-254.7 983.5,-232.7 809.5,-232.7"/>
<text text-anchor="start" x="829.5" y="-239.8" font-family="Helvetica,sans-Serif" font-size="11.00" fill="#000000">last_updated</text>
<polygon fill="none" stroke="#000000" points="983.5,-232.7 983.5,-254.7 1054.5,-254.7 1054.5,-232.7 983.5,-232.7"/>
<text text-anchor="start" x="986.5" y="-240.4" font-family="Helvetica,sans-Serif" font-size="11.00" fill="#000000">datetime[19]</text>
<polygon fill="none" stroke="#000000" points="809.5,-210.7 809.5,-232.7 983.5,-232.7 983.5,-210.7 809.5,-210.7"/>
<text text-anchor="start" x="829.5" y="-217.8" font-family="Helvetica,sans-Serif" font-size="11.00" fill="#000000">date_created</text>
<polygon fill="none" stroke="#000000" points="983.5,-210.7 983.5,-232.7 1054.5,-232.7 1054.5,-210.7 983.5,-210.7"/>
<text text-anchor="start" x="986.5" y="-218.4" font-family="Helvetica,sans-Serif" font-size="11.00" fill="#000000">datetime[19]</text>
<polygon fill="none" stroke="#000000" points="809.5,-188.7 809.5,-210.7 983.5,-210.7 983.5,-188.7 809.5,-188.7"/>
<image xlink:href="../../images/foreignKeys.png" width="11px" height="12px" preserveAspectRatio="xMinYMin meet" x="814.5" y="-205.7"/>
<text text-anchor="start" x="829.5" y="-195.8" font-family="Helvetica,sans-Serif" font-size="11.00" fill="#000000">updated_by</text>
<polygon fill="none" stroke="#000000" points="983.5,-188.7 983.5,-210.7 1054.5,-210.7 1054.5,-188.7 983.5,-188.7"/>
<text text-anchor="start" x="986.5" y="-196.4" font-family="Helvetica,sans-Serif" font-size="11.00" fill="#000000">bigint[19]</text>
<polygon fill="none" stroke="#000000" points="809.5,-166.7 809.5,-188.7 983.5,-188.7 983.5,-166.7 809.5,-166.7"/>
<image xlink:href="../../images/foreignKeys.png" width="11px" height="12px" preserveAspectRatio="xMinYMin meet" x="814.5" y="-183.7"/>
<text text-anchor="start" x="829.5" y="-173.8" font-family="Helvetica,sans-Serif" font-size="11.00" fill="#000000">created_by</text>
<polygon fill="none" stroke="#000000" points="983.5,-166.7 983.5,-188.7 1054.5,-188.7 1054.5,-166.7 983.5,-166.7"/>
<text text-anchor="start" x="986.5" y="-174.4" font-family="Helvetica,sans-Serif" font-size="11.00" fill="#000000">bigint[19]</text>
<polygon fill="#ffffff" stroke="transparent" points="809.5,-147.7 809.5,-166.7 900.5,-166.7 900.5,-147.7 809.5,-147.7"/>
<polygon fill="none" stroke="#000000" points="809.5,-147.7 809.5,-166.7 900.5,-166.7 900.5,-147.7 809.5,-147.7"/>
<text text-anchor="start" x="812.5" y="-153.8" font-family="Helvetica,sans-Serif" font-size="11.00" fill="#000000">&lt; 6</text>
<polygon fill="#ffffff" stroke="transparent" points="900.5,-147.7 900.5,-166.7 983.5,-166.7 983.5,-147.7 900.5,-147.7"/>
<polygon fill="none" stroke="#000000" points="900.5,-147.7 900.5,-166.7 983.5,-166.7 983.5,-147.7 900.5,-147.7"/>
<text text-anchor="start" x="974.3862" y="-153.8" font-family="Helvetica,sans-Serif" font-size="11.00" fill="#000000"> &#160;</text>
<polygon fill="#ffffff" stroke="transparent" points="983.5,-147.7 983.5,-166.7 1054.5,-166.7 1054.5,-147.7 983.5,-147.7"/>
<polygon fill="none" stroke="#000000" points="983.5,-147.7 983.5,-166.7 1054.5,-166.7 1054.5,-147.7 983.5,-147.7"/>
<text text-anchor="start" x="1035.9053" y="-153.8" font-family="Helvetica,sans-Serif" font-size="11.00" fill="#000000">0 &gt;</text>
<polygon fill="none" stroke="#000000" stroke-width="2" points="808,-146.7 808,-740.7 1055,-740.7 1055,-146.7 808,-146.7"/>
</a>
</g>
</g>
<!-- users -->
<g id="node2" class="node">
<title>users</title>
<g id="a_node2"><a xlink:href="../../tables/users.html" xlink:title="users" target="_top">
<polygon fill="#ffffff" stroke="transparent" points="8,-164.2 8,-379.2 175,-379.2 175,-164.2 8,-164.2"/>
<polygon fill="#f5f5f5" stroke="transparent" points="8.5,-355.7 8.5,-378.7 175.5,-378.7 175.5,-355.7 8.5,-355.7"/>
<polygon fill="none" stroke="#000000" points="8.5,-355.7 8.5,-378.7 175.5,-378.7 175.5,-355.7 8.5,-355.7"/>
<text text-anchor="start" x="13.5" y="-364.3" font-family="Helvetica,sans-Serif" font-weight="bold" font-size="11.00" fill="#000000">users</text>
<text text-anchor="start" x="140.5437" y="-363.8" font-family="Helvetica,sans-Serif" font-size="11.00" fill="#000000">[table]</text>
<polygon fill="none" stroke="#000000" points="8.5,-333.7 8.5,-355.7 175.5,-355.7 175.5,-333.7 8.5,-333.7"/>
<image xlink:href="../../images/primaryKeys.png" width="11px" height="12px" preserveAspectRatio="xMinYMin meet" x="13.5" y="-350.7"/>
<text text-anchor="start" x="28.5" y="-340.8" font-family="Helvetica,sans-Serif" font-size="11.00" fill="#000000">id</text>
<polygon fill="#ffffff" stroke="transparent" points="8.5,-311.7 8.5,-333.7 175.5,-333.7 175.5,-311.7 8.5,-311.7"/>
<polygon fill="none" stroke="#000000" points="8.5,-311.7 8.5,-333.7 175.5,-333.7 175.5,-311.7 8.5,-311.7"/>
<text text-anchor="start" x="28.5" y="-318.8" font-family="Helvetica,sans-Serif" font-size="11.00" fill="#000000">uuid</text>
<polygon fill="none" stroke="#000000" points="8.5,-289.7 8.5,-311.7 175.5,-311.7 175.5,-289.7 8.5,-289.7"/>
<image xlink:href="../../images/primaryKeys.png" width="11px" height="12px" preserveAspectRatio="xMinYMin meet" x="13.5" y="-306.7"/>
<text text-anchor="start" x="28.5" y="-296.8" font-family="Helvetica,sans-Serif" font-size="11.00" fill="#000000">username</text>
<polygon fill="none" stroke="#000000" points="8.5,-267.7 8.5,-289.7 175.5,-289.7 175.5,-267.7 8.5,-267.7"/>
<image xlink:href="../../images/foreignKeys.png" width="11px" height="12px" preserveAspectRatio="xMinYMin meet" x="13.5" y="-284.7"/>
<text text-anchor="start" x="28.5" y="-274.8" font-family="Helvetica,sans-Serif" font-size="11.00" fill="#000000">facility_id</text>
<polygon fill="#ffffff" stroke="transparent" points="8.5,-245.7 8.5,-267.7 175.5,-267.7 175.5,-245.7 8.5,-245.7"/>
<polygon fill="none" stroke="#000000" points="8.5,-245.7 8.5,-267.7 175.5,-267.7 175.5,-245.7 8.5,-245.7"/>
<text text-anchor="start" x="28.5" y="-252.8" font-family="Helvetica,sans-Serif" font-size="11.00" fill="#000000">google_signin_email</text>
<polygon fill="#ffffff" stroke="transparent" points="8.5,-223.7 8.5,-245.7 175.5,-245.7 175.5,-223.7 8.5,-223.7"/>
<polygon fill="none" stroke="#000000" points="8.5,-223.7 8.5,-245.7 175.5,-245.7 175.5,-223.7 8.5,-223.7"/>
<text text-anchor="start" x="28.5" y="-230.8" font-family="Helvetica,sans-Serif" font-size="11.00" fill="#000000">abook_type</text>
<polygon fill="none" stroke="#000000" points="8.5,-201.7 8.5,-223.7 175.5,-223.7 175.5,-201.7 8.5,-201.7"/>
<image xlink:href="../../images/foreignKeys.png" width="11px" height="12px" preserveAspectRatio="xMinYMin meet" x="13.5" y="-218.7"/>
<text text-anchor="start" x="28.5" y="-208.8" font-family="Helvetica,sans-Serif" font-size="11.00" fill="#000000">billing_facility_id</text>
<polygon fill="none" stroke="#000000" points="8.5,-182.7 8.5,-201.7 175.5,-201.7 175.5,-182.7 8.5,-182.7"/>
<text text-anchor="start" x="11.5" y="-188.8" font-family="Helvetica,sans-Serif" font-size="11.00" fill="#000000">...</text>
<polygon fill="#ffffff" stroke="transparent" points="8.5,-163.7 8.5,-182.7 82.5,-182.7 82.5,-163.7 8.5,-163.7"/>
<polygon fill="none" stroke="#000000" points="8.5,-163.7 8.5,-182.7 82.5,-182.7 82.5,-163.7 8.5,-163.7"/>
<text text-anchor="start" x="11.5" y="-169.8" font-family="Helvetica,sans-Serif" font-size="11.00" fill="#000000">&lt; 2</text>
<polygon fill="#ffffff" stroke="transparent" points="82.5,-163.7 82.5,-182.7 121.5,-182.7 121.5,-163.7 82.5,-163.7"/>
<polygon fill="none" stroke="#000000" points="82.5,-163.7 82.5,-182.7 121.5,-182.7 121.5,-163.7 82.5,-163.7"/>
<text text-anchor="start" x="112.3862" y="-169.8" font-family="Helvetica,sans-Serif" font-size="11.00" fill="#000000"> &#160;</text>
<polygon fill="#ffffff" stroke="transparent" points="121.5,-163.7 121.5,-182.7 175.5,-182.7 175.5,-163.7 121.5,-163.7"/>
<polygon fill="none" stroke="#000000" points="121.5,-163.7 121.5,-182.7 175.5,-182.7 175.5,-163.7 121.5,-163.7"/>
<text text-anchor="start" x="150.7904" y="-169.8" font-family="Helvetica,sans-Serif" font-size="11.00" fill="#000000">90 &gt;</text>
</a>
</g>
</g>
<!-- drug_sales&#45;&gt;users -->
<g id="edge1" class="edge">
<title>drug_sales:w&#45;&gt;users:e</title>
<path fill="none" stroke="#000000" d="M795.8892,-182.8382C758.5492,-216.5505 803.1574,-405.9953 766,-446.7 686.4934,-533.7969 625.9984,-497.9167 509,-512.7 444.4025,-520.8622 267.1518,-552.9859 216,-512.7 155.6609,-465.1784 252.3057,-344.7 175.5,-344.7"/>
<polygon fill="#000000" stroke="#000000" points="802.0155,-180.5255 810.7715,-181.068 805.7578,-179.1127 809.5,-177.7 809.5,-177.7 809.5,-177.7 805.7578,-179.1127 808.2285,-174.332 802.0155,-180.5255 802.0155,-180.5255"/>
<ellipse fill="none" stroke="#000000" cx="799.0218" cy="-181.6557" rx="3.2" ry="3.2"/>
</g>
<!-- drug_sales&#45;&gt;users -->
<g id="edge6" class="edge">
<title>drug_sales:w&#45;&gt;users:e</title>
<path fill="none" stroke="#000000" d="M795.8257,-204.5571C755.1621,-238.9328 807.5103,-445.3657 766,-487.7 680.1559,-575.2481 311.4361,-608.6794 216,-531.7 149.8103,-478.311 260.538,-344.7 175.5,-344.7"/>
<polygon fill="#000000" stroke="#000000" points="801.9614,-202.3777 810.705,-203.0924 805.7307,-201.0389 809.5,-199.7 809.5,-199.7 809.5,-199.7 805.7307,-201.0389 808.295,-196.3076 801.9614,-202.3777 801.9614,-202.3777"/>
<ellipse fill="none" stroke="#000000" cx="798.946" cy="-203.4488" rx="3.2" ry="3.2"/>
</g>
<!-- drugs -->
<g id="node3" class="node">
<title>drugs</title>
<g id="a_node3"><a xlink:href="../../tables/drugs.html" xlink:title="drugs" target="_top">
<polygon fill="#ffffff" stroke="transparent" points="587.5,-605.2 587.5,-710.2 720.5,-710.2 720.5,-605.2 587.5,-605.2"/>
<polygon fill="#f5f5f5" stroke="transparent" points="588,-686.7 588,-709.7 721,-709.7 721,-686.7 588,-686.7"/>
<polygon fill="none" stroke="#000000" points="588,-686.7 588,-709.7 721,-709.7 721,-686.7 588,-686.7"/>
<text text-anchor="start" x="593" y="-695.3" font-family="Helvetica,sans-Serif" font-weight="bold" font-size="11.00" fill="#000000">drugs</text>
<text text-anchor="start" x="686.0437" y="-694.8" font-family="Helvetica,sans-Serif" font-size="11.00" fill="#000000">[table]</text>
<polygon fill="none" stroke="#000000" points="588,-664.7 588,-686.7 721,-686.7 721,-664.7 588,-664.7"/>
<image xlink:href="../../images/primaryKeys.png" width="11px" height="12px" preserveAspectRatio="xMinYMin meet" x="593" y="-681.7"/>
<text text-anchor="start" x="608" y="-671.8" font-family="Helvetica,sans-Serif" font-size="11.00" fill="#000000">drug_id</text>
<polygon fill="#ffffff" stroke="transparent" points="588,-642.7 588,-664.7 721,-664.7 721,-642.7 588,-642.7"/>
<polygon fill="none" stroke="#000000" points="588,-642.7 588,-664.7 721,-664.7 721,-642.7 588,-642.7"/>
<text text-anchor="start" x="608" y="-649.8" font-family="Helvetica,sans-Serif" font-size="11.00" fill="#000000">uuid</text>
<polygon fill="none" stroke="#000000" points="588,-623.7 588,-642.7 721,-642.7 721,-623.7 588,-623.7"/>
<text text-anchor="start" x="591" y="-629.8" font-family="Helvetica,sans-Serif" font-size="11.00" fill="#000000">...</text>
<polygon fill="#ffffff" stroke="transparent" points="588,-604.7 588,-623.7 644,-623.7 644,-604.7 588,-604.7"/>
<polygon fill="none" stroke="#000000" points="588,-604.7 588,-623.7 644,-623.7 644,-604.7 588,-604.7"/>
<text text-anchor="start" x="591" y="-610.8" font-family="Helvetica,sans-Serif" font-size="11.00" fill="#000000"> &#160;</text>
<polygon fill="#ffffff" stroke="transparent" points="644,-604.7 644,-623.7 678,-623.7 678,-604.7 644,-604.7"/>
<polygon fill="none" stroke="#000000" points="644,-604.7 644,-623.7 678,-623.7 678,-604.7 644,-604.7"/>
<text text-anchor="start" x="668.8862" y="-610.8" font-family="Helvetica,sans-Serif" font-size="11.00" fill="#000000"> &#160;</text>
<polygon fill="#ffffff" stroke="transparent" points="678,-604.7 678,-623.7 721,-623.7 721,-604.7 678,-604.7"/>
<polygon fill="none" stroke="#000000" points="678,-604.7 678,-623.7 721,-623.7 721,-604.7 678,-604.7"/>
<text text-anchor="start" x="702.4053" y="-610.8" font-family="Helvetica,sans-Serif" font-size="11.00" fill="#000000">2 &gt;</text>
</a>
</g>
</g>
<!-- drug_sales&#45;&gt;drugs -->
<g id="edge2" class="edge">
<title>drug_sales:w&#45;&gt;drugs:e</title>
<path fill="none" stroke="#000000" d="M794.7448,-662.4135C766.6774,-665.2664 755.378,-675.7 721,-675.7"/>
<polygon fill="#000000" stroke="#000000" points="801.5093,-662.0865 809.6739,-665.2958 805.5047,-661.8932 809.5,-661.7 809.5,-661.7 809.5,-661.7 805.5047,-661.8932 809.3261,-658.1042 801.5093,-662.0865 801.5093,-662.0865"/>
<ellipse fill="none" stroke="#000000" cx="798.3131" cy="-662.241" rx="3.2" ry="3.2"/>
</g>
<!-- form_encounter -->
<g id="node4" class="node">
<title>form_encounter</title>
<g id="a_node4"><a xlink:href="../../tables/form_encounter.html" xlink:title="form_encounter" target="_top">
<polygon fill="#ffffff" stroke="transparent" points="550,-265.2 550,-436.2 758,-436.2 758,-265.2 550,-265.2"/>
<polygon fill="#f5f5f5" stroke="transparent" points="550,-412.7 550,-435.7 758,-435.7 758,-412.7 550,-412.7"/>
<polygon fill="none" stroke="#000000" points="550,-412.7 550,-435.7 758,-435.7 758,-412.7 550,-412.7"/>
<text text-anchor="start" x="555" y="-421.3" font-family="Helvetica,sans-Serif" font-weight="bold" font-size="11.00" fill="#000000">form_encounter</text>
<text text-anchor="start" x="723.0437" y="-420.8" font-family="Helvetica,sans-Serif" font-size="11.00" fill="#000000">[table]</text>
<polygon fill="none" stroke="#000000" points="550,-390.7 550,-412.7 758,-412.7 758,-390.7 550,-390.7"/>
<image xlink:href="../../images/primaryKeys.png" width="11px" height="12px" preserveAspectRatio="xMinYMin meet" x="555" y="-407.7"/>
<text text-anchor="start" x="570" y="-397.8" font-family="Helvetica,sans-Serif" font-size="11.00" fill="#000000">id</text>
<polygon fill="#ffffff" stroke="transparent" points="550,-368.7 550,-390.7 758,-390.7 758,-368.7 550,-368.7"/>
<polygon fill="none" stroke="#000000" points="550,-368.7 550,-390.7 758,-390.7 758,-368.7 550,-368.7"/>
<text text-anchor="start" x="570" y="-375.8" font-family="Helvetica,sans-Serif" font-size="11.00" fill="#000000">uuid</text>
<polygon fill="#ffffff" stroke="transparent" points="550,-346.7 550,-368.7 758,-368.7 758,-346.7 550,-346.7"/>
<polygon fill="none" stroke="#000000" points="550,-346.7 550,-368.7 758,-368.7 758,-346.7 550,-346.7"/>
<text text-anchor="start" x="570" y="-353.8" font-family="Helvetica,sans-Serif" font-size="11.00" fill="#000000">date</text>
<polygon fill="#ffffff" stroke="transparent" points="550,-324.7 550,-346.7 758,-346.7 758,-324.7 550,-324.7"/>
<polygon fill="none" stroke="#000000" points="550,-324.7 550,-346.7 758,-346.7 758,-324.7 550,-324.7"/>
<image xlink:href="../../images/foreignKeys.png" width="11px" height="12px" preserveAspectRatio="xMinYMin meet" x="555" y="-341.7"/>
<text text-anchor="start" x="570" y="-331.8" font-family="Helvetica,sans-Serif" font-size="11.00" fill="#000000">pid</text>
<polygon fill="none" stroke="#000000" points="550,-302.7 550,-324.7 758,-324.7 758,-302.7 550,-302.7"/>
<image xlink:href="../../images/primaryKeys.png" width="11px" height="12px" preserveAspectRatio="xMinYMin meet" x="555" y="-319.7"/>
<text text-anchor="start" x="570" y="-309.8" font-family="Helvetica,sans-Serif" font-size="11.00" fill="#000000">encounter</text>
<polygon fill="none" stroke="#000000" points="550,-283.7 550,-302.7 758,-302.7 758,-283.7 550,-283.7"/>
<text text-anchor="start" x="553" y="-289.8" font-family="Helvetica,sans-Serif" font-size="11.00" fill="#000000">...</text>
<polygon fill="#ffffff" stroke="transparent" points="550,-264.7 550,-283.7 645,-283.7 645,-264.7 550,-264.7"/>
<polygon fill="none" stroke="#000000" points="550,-264.7 550,-283.7 645,-283.7 645,-264.7 550,-264.7"/>
<text text-anchor="start" x="553" y="-270.8" font-family="Helvetica,sans-Serif" font-size="11.00" fill="#000000">&lt; 1</text>
<polygon fill="#ffffff" stroke="transparent" points="645,-264.7 645,-283.7 694,-283.7 694,-264.7 645,-264.7"/>
<polygon fill="none" stroke="#000000" points="645,-264.7 645,-283.7 694,-283.7 694,-264.7 645,-264.7"/>
<text text-anchor="start" x="684.8862" y="-270.8" font-family="Helvetica,sans-Serif" font-size="11.00" fill="#000000"> &#160;</text>
<polygon fill="#ffffff" stroke="transparent" points="694,-264.7 694,-283.7 758,-283.7 758,-264.7 694,-264.7"/>
<polygon fill="none" stroke="#000000" points="694,-264.7 694,-283.7 758,-283.7 758,-264.7 694,-264.7"/>
<text text-anchor="start" x="733.2904" y="-270.8" font-family="Helvetica,sans-Serif" font-size="11.00" fill="#000000">19 &gt;</text>
</a>
</g>
</g>
<!-- drug_sales&#45;&gt;form_encounter -->
<g id="edge3" class="edge">
<title>drug_sales:w&#45;&gt;form_encounter:e</title>
<path fill="none" stroke="#000000" d="M795.129,-572.1071C707.9633,-550.3805 870.3938,-313.7 758,-313.7"/>
<polygon fill="#000000" stroke="#000000" points="801.5487,-572.8186 809.1034,-577.2781 805.5243,-573.2593 809.5,-573.7 809.5,-573.7 809.5,-573.7 805.5243,-573.2593 809.8966,-570.1219 801.5487,-572.8186 801.5487,-572.8186"/>
<ellipse fill="none" stroke="#000000" cx="798.3682" cy="-572.466" rx="3.2" ry="3.2"/>
</g>
<!-- list_options -->
<g id="node5" class="node">
<title>list_options</title>
<g id="a_node5"><a xlink:href="../../tables/list_options.html" xlink:title="list_options" target="_top">
<polygon fill="#ffffff" stroke="transparent" points="25.5,-38.2 25.5,-143.2 157.5,-143.2 157.5,-38.2 25.5,-38.2"/>
<polygon fill="#f5f5f5" stroke="transparent" points="25.5,-119.7 25.5,-142.7 157.5,-142.7 157.5,-119.7 25.5,-119.7"/>
<polygon fill="none" stroke="#000000" points="25.5,-119.7 25.5,-142.7 157.5,-142.7 157.5,-119.7 25.5,-119.7"/>
<text text-anchor="start" x="30.5" y="-128.3" font-family="Helvetica,sans-Serif" font-weight="bold" font-size="11.00" fill="#000000">list_options</text>
<text text-anchor="start" x="122.5437" y="-127.8" font-family="Helvetica,sans-Serif" font-size="11.00" fill="#000000">[table]</text>
<polygon fill="none" stroke="#000000" points="25.5,-97.7 25.5,-119.7 157.5,-119.7 157.5,-97.7 25.5,-97.7"/>
<image xlink:href="../../images/primaryKeys.png" width="11px" height="12px" preserveAspectRatio="xMinYMin meet" x="30.5" y="-114.7"/>
<text text-anchor="start" x="45.5" y="-104.8" font-family="Helvetica,sans-Serif" font-size="11.00" fill="#000000">list_id</text>
<polygon fill="none" stroke="#000000" points="25.5,-75.7 25.5,-97.7 157.5,-97.7 157.5,-75.7 25.5,-75.7"/>
<image xlink:href="../../images/primaryKeys.png" width="11px" height="12px" preserveAspectRatio="xMinYMin meet" x="30.5" y="-92.7"/>
<text text-anchor="start" x="45.5" y="-82.8" font-family="Helvetica,sans-Serif" font-size="11.00" fill="#000000">option_id</text>
<polygon fill="none" stroke="#000000" points="25.5,-56.7 25.5,-75.7 157.5,-75.7 157.5,-56.7 25.5,-56.7"/>
<text text-anchor="start" x="28.5" y="-62.8" font-family="Helvetica,sans-Serif" font-size="11.00" fill="#000000">...</text>
<polygon fill="#ffffff" stroke="transparent" points="25.5,-37.7 25.5,-56.7 77.5,-56.7 77.5,-37.7 25.5,-37.7"/>
<polygon fill="none" stroke="#000000" points="25.5,-37.7 25.5,-56.7 77.5,-56.7 77.5,-37.7 25.5,-37.7"/>
<text text-anchor="start" x="28.5" y="-43.8" font-family="Helvetica,sans-Serif" font-size="11.00" fill="#000000"> &#160;</text>
<polygon fill="#ffffff" stroke="transparent" points="77.5,-37.7 77.5,-56.7 109.5,-56.7 109.5,-37.7 77.5,-37.7"/>
<polygon fill="none" stroke="#000000" points="77.5,-37.7 77.5,-56.7 109.5,-56.7 109.5,-37.7 77.5,-37.7"/>
<text text-anchor="start" x="100.3862" y="-43.8" font-family="Helvetica,sans-Serif" font-size="11.00" fill="#000000"> &#160;</text>
<polygon fill="#ffffff" stroke="transparent" points="109.5,-37.7 109.5,-56.7 157.5,-56.7 157.5,-37.7 109.5,-37.7"/>
<polygon fill="none" stroke="#000000" points="109.5,-37.7 109.5,-56.7 157.5,-56.7 157.5,-37.7 109.5,-37.7"/>
<text text-anchor="start" x="132.7904" y="-43.8" font-family="Helvetica,sans-Serif" font-size="11.00" fill="#000000">98 &gt;</text>
</a>
</g>
</g>
<!-- drug_sales&#45;&gt;list_options -->
<g id="edge4" class="edge">
<title>drug_sales:w&#45;&gt;list_options:e</title>
<path fill="none" stroke="#000000" d="M795.3643,-262.3158C733.1938,-239.6054 542.4755,-109.9997 509,-100.7 358.3589,-58.8508 313.8461,-86.7 157.5,-86.7"/>
<polygon fill="#000000" stroke="#000000" points="801.7199,-263.8373 808.6618,-269.2011 805.6099,-264.7687 809.5,-265.7 809.5,-265.7 809.5,-265.7 805.6099,-264.7687 810.3382,-262.1989 801.7199,-263.8373 801.7199,-263.8373"/>
<ellipse fill="none" stroke="#000000" cx="798.6078" cy="-263.0923" rx="3.2" ry="3.2"/>
</g>
<!-- patient_data -->
<g id="node6" class="node">
<title>patient_data</title>
<g id="a_node6"><a xlink:href="../../tables/patient_data.html" xlink:title="patient_data" target="_top">
<polygon fill="#ffffff" stroke="transparent" points="224,-111.2 224,-502.2 501,-502.2 501,-111.2 224,-111.2"/>
<polygon fill="#f5f5f5" stroke="transparent" points="224.5,-478.7 224.5,-501.7 501.5,-501.7 501.5,-478.7 224.5,-478.7"/>
<polygon fill="none" stroke="#000000" points="224.5,-478.7 224.5,-501.7 501.5,-501.7 501.5,-478.7 224.5,-478.7"/>
<text text-anchor="start" x="229.5" y="-487.3" font-family="Helvetica,sans-Serif" font-weight="bold" font-size="11.00" fill="#000000">patient_data</text>
<text text-anchor="start" x="466.5437" y="-486.8" font-family="Helvetica,sans-Serif" font-size="11.00" fill="#000000">[table]</text>
<polygon fill="none" stroke="#000000" points="224.5,-456.7 224.5,-478.7 501.5,-478.7 501.5,-456.7 224.5,-456.7"/>
<image xlink:href="../../images/primaryKeys.png" width="11px" height="12px" preserveAspectRatio="xMinYMin meet" x="229.5" y="-473.7"/>
<text text-anchor="start" x="244.5" y="-463.8" font-family="Helvetica,sans-Serif" font-size="11.00" fill="#000000">id</text>
<polygon fill="#ffffff" stroke="transparent" points="224.5,-434.7 224.5,-456.7 501.5,-456.7 501.5,-434.7 224.5,-434.7"/>
<polygon fill="none" stroke="#000000" points="224.5,-434.7 224.5,-456.7 501.5,-456.7 501.5,-434.7 224.5,-434.7"/>
<text text-anchor="start" x="244.5" y="-441.8" font-family="Helvetica,sans-Serif" font-size="11.00" fill="#000000">uuid</text>
<polygon fill="#ffffff" stroke="transparent" points="224.5,-412.7 224.5,-434.7 501.5,-434.7 501.5,-412.7 224.5,-412.7"/>
<polygon fill="none" stroke="#000000" points="224.5,-412.7 224.5,-434.7 501.5,-434.7 501.5,-412.7 224.5,-412.7"/>
<text text-anchor="start" x="244.5" y="-419.8" font-family="Helvetica,sans-Serif" font-size="11.00" fill="#000000">fname</text>
<polygon fill="#ffffff" stroke="transparent" points="224.5,-390.7 224.5,-412.7 501.5,-412.7 501.5,-390.7 224.5,-390.7"/>
<polygon fill="none" stroke="#000000" points="224.5,-390.7 224.5,-412.7 501.5,-412.7 501.5,-390.7 224.5,-390.7"/>
<text text-anchor="start" x="244.5" y="-397.8" font-family="Helvetica,sans-Serif" font-size="11.00" fill="#000000">lname</text>
<polygon fill="#ffffff" stroke="transparent" points="224.5,-368.7 224.5,-390.7 501.5,-390.7 501.5,-368.7 224.5,-368.7"/>
<polygon fill="none" stroke="#000000" points="224.5,-368.7 224.5,-390.7 501.5,-390.7 501.5,-368.7 224.5,-368.7"/>
<text text-anchor="start" x="244.5" y="-375.8" font-family="Helvetica,sans-Serif" font-size="11.00" fill="#000000">DOB</text>
<polygon fill="none" stroke="#000000" points="224.5,-346.7 224.5,-368.7 501.5,-368.7 501.5,-346.7 224.5,-346.7"/>
<image xlink:href="../../images/foreignKeys.png" width="11px" height="12px" preserveAspectRatio="xMinYMin meet" x="229.5" y="-363.7"/>
<text text-anchor="start" x="244.5" y="-353.8" font-family="Helvetica,sans-Serif" font-size="11.00" fill="#000000">pharmacy_id</text>
<polygon fill="none" stroke="#000000" points="224.5,-324.7 224.5,-346.7 501.5,-346.7 501.5,-324.7 224.5,-324.7"/>
<image xlink:href="../../images/foreignKeys.png" width="11px" height="12px" preserveAspectRatio="xMinYMin meet" x="229.5" y="-341.7"/>
<text text-anchor="start" x="244.5" y="-331.8" font-family="Helvetica,sans-Serif" font-size="11.00" fill="#000000">providerID</text>
<polygon fill="none" stroke="#000000" points="224.5,-302.7 224.5,-324.7 501.5,-324.7 501.5,-302.7 224.5,-302.7"/>
<image xlink:href="../../images/foreignKeys.png" width="11px" height="12px" preserveAspectRatio="xMinYMin meet" x="229.5" y="-319.7"/>
<text text-anchor="start" x="244.5" y="-309.8" font-family="Helvetica,sans-Serif" font-size="11.00" fill="#000000">ref_providerID</text>
<polygon fill="none" stroke="#000000" points="224.5,-280.7 224.5,-302.7 501.5,-302.7 501.5,-280.7 224.5,-280.7"/>
<image xlink:href="../../images/foreignKeys.png" width="11px" height="12px" preserveAspectRatio="xMinYMin meet" x="229.5" y="-297.7"/>
<text text-anchor="start" x="244.5" y="-287.8" font-family="Helvetica,sans-Serif" font-size="11.00" fill="#000000">interpreter_needed</text>
<polygon fill="none" stroke="#000000" points="224.5,-258.7 224.5,-280.7 501.5,-280.7 501.5,-258.7 224.5,-258.7"/>
<image xlink:href="../../images/primaryKeys.png" width="11px" height="12px" preserveAspectRatio="xMinYMin meet" x="229.5" y="-275.7"/>
<text text-anchor="start" x="244.5" y="-265.8" font-family="Helvetica,sans-Serif" font-size="11.00" fill="#000000">pid</text>
<polygon fill="none" stroke="#000000" points="224.5,-236.7 224.5,-258.7 501.5,-258.7 501.5,-236.7 224.5,-236.7"/>
<image xlink:href="../../images/foreignKeys.png" width="11px" height="12px" preserveAspectRatio="xMinYMin meet" x="229.5" y="-253.7"/>
<text text-anchor="start" x="244.5" y="-243.8" font-family="Helvetica,sans-Serif" font-size="11.00" fill="#000000">advance_directive_user_authenticator</text>
<polygon fill="none" stroke="#000000" points="224.5,-214.7 224.5,-236.7 501.5,-236.7 501.5,-214.7 224.5,-214.7"/>
<image xlink:href="../../images/foreignKeys.png" width="11px" height="12px" preserveAspectRatio="xMinYMin meet" x="229.5" y="-231.7"/>
<text text-anchor="start" x="244.5" y="-221.8" font-family="Helvetica,sans-Serif" font-size="11.00" fill="#000000">created_by</text>
<polygon fill="none" stroke="#000000" points="224.5,-192.7 224.5,-214.7 501.5,-214.7 501.5,-192.7 224.5,-192.7"/>
<image xlink:href="../../images/foreignKeys.png" width="11px" height="12px" preserveAspectRatio="xMinYMin meet" x="229.5" y="-209.7"/>
<text text-anchor="start" x="244.5" y="-199.8" font-family="Helvetica,sans-Serif" font-size="11.00" fill="#000000">updated_by</text>
<polygon fill="none" stroke="#000000" points="224.5,-170.7 224.5,-192.7 501.5,-192.7 501.5,-170.7 224.5,-170.7"/>
<image xlink:href="../../images/foreignKeys.png" width="11px" height="12px" preserveAspectRatio="xMinYMin meet" x="229.5" y="-187.7"/>
<text text-anchor="start" x="244.5" y="-177.8" font-family="Helvetica,sans-Serif" font-size="11.00" fill="#000000">tribal_affiliations</text>
<polygon fill="none" stroke="#000000" points="224.5,-148.7 224.5,-170.7 501.5,-170.7 501.5,-148.7 224.5,-148.7"/>
<image xlink:href="../../images/foreignKeys.png" width="11px" height="12px" preserveAspectRatio="xMinYMin meet" x="229.5" y="-165.7"/>
<text text-anchor="start" x="244.5" y="-155.8" font-family="Helvetica,sans-Serif" font-size="11.00" fill="#000000">sex_identified</text>
<polygon fill="none" stroke="#000000" points="224.5,-129.7 224.5,-148.7 501.5,-148.7 501.5,-129.7 224.5,-129.7"/>
<text text-anchor="start" x="227.5" y="-135.8" font-family="Helvetica,sans-Serif" font-size="11.00" fill="#000000">...</text>
<polygon fill="#ffffff" stroke="transparent" points="224.5,-110.7 224.5,-129.7 353.5,-129.7 353.5,-110.7 224.5,-110.7"/>
<polygon fill="none" stroke="#000000" points="224.5,-110.7 224.5,-129.7 353.5,-129.7 353.5,-110.7 224.5,-110.7"/>
<text text-anchor="start" x="227.5" y="-116.8" font-family="Helvetica,sans-Serif" font-size="11.00" fill="#000000">&lt; 9</text>
<polygon fill="#ffffff" stroke="transparent" points="353.5,-110.7 353.5,-129.7 419.5,-129.7 419.5,-110.7 353.5,-110.7"/>
<polygon fill="none" stroke="#000000" points="353.5,-110.7 353.5,-129.7 419.5,-129.7 419.5,-110.7 353.5,-110.7"/>
<text text-anchor="start" x="410.3862" y="-116.8" font-family="Helvetica,sans-Serif" font-size="11.00" fill="#000000"> &#160;</text>
<polygon fill="#ffffff" stroke="transparent" points="419.5,-110.7 419.5,-129.7 501.5,-129.7 501.5,-110.7 419.5,-110.7"/>
<polygon fill="none" stroke="#000000" points="419.5,-110.7 419.5,-129.7 501.5,-129.7 501.5,-110.7 419.5,-110.7"/>
<text text-anchor="start" x="476.7904" y="-116.8" font-family="Helvetica,sans-Serif" font-size="11.00" fill="#000000">95 &gt;</text>
</a>
</g>
</g>
<!-- drug_sales&#45;&gt;patient_data -->
<g id="edge5" class="edge">
<title>drug_sales:w&#45;&gt;patient_data:e</title>
<path fill="none" stroke="#000000" d="M795.0809,-595.5414C669.7765,-592.7088 620.7301,-551.6159 542,-446.7 493.5632,-382.153 582.1997,-269.7 501.5,-269.7"/>
<polygon fill="#000000" stroke="#000000" points="801.5005,-595.612 809.4604,-599.2998 805.5002,-595.656 809.5,-595.7 809.5,-595.7 809.5,-595.7 805.5002,-595.656 809.5396,-592.1002 801.5005,-595.612 801.5005,-595.612"/>
<ellipse fill="none" stroke="#000000" cx="798.3007" cy="-595.5767" rx="3.2" ry="3.2"/>
</g>
<!-- form_encounter&#45;&gt;patient_data -->
<g id="edge7" class="edge">
<title>form_encounter:w&#45;&gt;patient_data:e</title>
<path fill="none" stroke="#000000" d="M535.9938,-330.5211C520.1593,-314.9622 531.6452,-269.7 501.5,-269.7"/>
<polygon fill="#000000" stroke="#000000" points="542.4965,-332.9255 548.7515,-339.0766 546.2483,-334.3127 550,-335.7 550,-335.7 550,-335.7 546.2483,-334.3127 551.2485,-332.3234 542.4965,-332.9255 542.4965,-332.9255"/>
<ellipse fill="none" stroke="#000000" cx="539.4951" cy="-331.8157" rx="3.2" ry="3.2"/>
</g>
<!-- patient_data&#45;&gt;users -->
<g id="edge8" class="edge">
<title>patient_data:w&#45;&gt;users:e</title>
<path fill="none" stroke="#000000" d="M210.5083,-251.868C186.6018,-270.4344 217.762,-344.7 175.5,-344.7"/>
<polygon fill="#000000" stroke="#000000" points="216.8329,-249.984 225.5278,-251.1502 220.6665,-248.842 224.5,-247.7 224.5,-247.7 224.5,-247.7 220.6665,-248.842 223.4722,-244.2498 216.8329,-249.984 216.8329,-249.984"/>
<ellipse fill="none" stroke="#000000" cx="213.7661" cy="-250.8976" rx="3.2" ry="3.2"/>
</g>
<!-- patient_data&#45;&gt;users -->
<g id="edge9" class="edge">
<title>patient_data:w&#45;&gt;users:e</title>
<path fill="none" stroke="#000000" d="M210.2058,-229.3919C179.7333,-249.4778 226.6646,-344.7 175.5,-344.7"/>
<polygon fill="#000000" stroke="#000000" points="216.7542,-227.7006 225.4003,-229.1856 220.6271,-226.7003 224.5,-225.7 224.5,-225.7 224.5,-225.7 220.6271,-226.7003 223.5997,-222.2144 216.7542,-227.7006 216.7542,-227.7006"/>
<ellipse fill="none" stroke="#000000" cx="213.6559" cy="-228.5009" rx="3.2" ry="3.2"/>
</g>
<!-- patient_data&#45;&gt;users -->
<g id="edge11" class="edge">
<title>patient_data:w&#45;&gt;users:e</title>
<path fill="none" stroke="#000000" d="M209.8909,-337.2677C198.6231,-339.8462 191.7606,-344.7 175.5,-344.7"/>
<polygon fill="#000000" stroke="#000000" points="216.5457,-336.5536 224.8841,-339.2795 220.5228,-336.1268 224.5,-335.7 224.5,-335.7 224.5,-335.7 220.5228,-336.1268 224.1159,-332.1205 216.5457,-336.5536 216.5457,-336.5536"/>
<ellipse fill="none" stroke="#000000" cx="213.3639" cy="-336.8951" rx="3.2" ry="3.2"/>
</g>
<!-- patient_data&#45;&gt;users -->
<g id="edge12" class="edge">
<title>patient_data:w&#45;&gt;users:e</title>
<path fill="none" stroke="#000000" d="M210.3168,-318.0104C198.3655,-326.5284 195.2302,-344.7 175.5,-344.7"/>
<polygon fill="#000000" stroke="#000000" points="216.8457,-316.0263 225.5468,-317.1444 220.6728,-314.8631 224.5,-313.7 224.5,-313.7 224.5,-313.7 220.6728,-314.8631 223.4532,-310.2556 216.8457,-316.0263 216.8457,-316.0263"/>
<ellipse fill="none" stroke="#000000" cx="213.7839" cy="-316.9568" rx="3.2" ry="3.2"/>
</g>
<!-- patient_data&#45;&gt;users -->
<g id="edge15" class="edge">
<title>patient_data:w&#45;&gt;users:e</title>
<path fill="none" stroke="#000000" d="M210.034,-206.9099C171.9834,-227.8978 235.8824,-344.7 175.5,-344.7"/>
<polygon fill="#000000" stroke="#000000" points="216.69,-205.433 225.2799,-207.2145 220.595,-204.5665 224.5,-203.7 224.5,-203.7 224.5,-203.7 220.595,-204.5665 223.7201,-200.1855 216.69,-205.433 216.69,-205.433"/>
<ellipse fill="none" stroke="#000000" cx="213.5659" cy="-206.1262" rx="3.2" ry="3.2"/>
</g>
<!-- patient_data&#45;&gt;list_options -->
<g id="edge10" class="edge">
<title>patient_data:w&#45;&gt;list_options:e</title>
<path fill="none" stroke="#000000" d="M209.8337,-289.671C142.5031,-268.3804 247.7374,-86.7 157.5,-86.7"/>
<polygon fill="#000000" stroke="#000000" points="216.5755,-290.6037 224.0066,-295.266 220.5377,-291.1518 224.5,-291.7 224.5,-291.7 224.5,-291.7 220.5377,-291.1518 224.9934,-288.134 216.5755,-290.6037 216.5755,-290.6037"/>
<ellipse fill="none" stroke="#000000" cx="213.4057" cy="-290.1651" rx="3.2" ry="3.2"/>
</g>
<!-- patient_data&#45;&gt;list_options -->
<g id="edge13" class="edge">
<title>patient_data:w&#45;&gt;list_options:e</title>
<path fill="none" stroke="#000000" d="M210.4367,-156.3736C184.8136,-142.0927 195.8614,-86.7 157.5,-86.7"/>
<polygon fill="#000000" stroke="#000000" points="216.7148,-157.8586 223.6713,-163.2033 220.6074,-158.7793 224.5,-159.7 224.5,-159.7 224.5,-159.7 220.6074,-158.7793 225.3287,-156.1967 216.7148,-157.8586 216.7148,-157.8586"/>
<ellipse fill="none" stroke="#000000" cx="213.6007" cy="-157.122" rx="3.2" ry="3.2"/>
</g>
<!-- patient_data&#45;&gt;list_options -->
<g id="edge14" class="edge">
<title>patient_data:w&#45;&gt;list_options:e</title>
<path fill="none" stroke="#000000" d="M210.0734,-178.3189C179.9359,-161.3957 203.3137,-86.7 157.5,-86.7"/>
<polygon fill="#000000" stroke="#000000" points="216.7111,-179.8745 223.6785,-185.205 220.6055,-180.7872 224.5,-181.7 224.5,-181.7 224.5,-181.7 220.6055,-180.7872 225.3215,-178.195 216.7111,-179.8745 216.7111,-179.8745"/>
<ellipse fill="none" stroke="#000000" cx="213.5955" cy="-179.1443" rx="3.2" ry="3.2"/>
</g>
</g>
</svg>
