<?xml version="1.0" encoding="UTF-8" standalone="no"?>
<!DOCTYPE svg PUBLIC "-//W3C//DTD SVG 1.1//EN"
 "http://www.w3.org/Graphics/SVG/1.1/DTD/svg11.dtd">
<!-- Generated by graphviz version 2.40.1 (20161225.0304)
 -->
<!-- Title: oneDegreeRelationshipsDiagram Pages: 1 -->
<svg width="752pt" height="561pt"
 viewBox="0.00 0.00 752.00 560.93" xmlns="http://www.w3.org/2000/svg" xmlns:xlink="http://www.w3.org/1999/xlink">
<g id="graph0" class="graph" transform="scale(1 1) rotate(0) translate(4 556.9331)">
<title>oneDegreeRelationshipsDiagram</title>
<polygon fill="#ffffff" stroke="transparent" points="-4,4 -4,-556.9331 748,-556.9331 748,4 -4,4"/>
<text text-anchor="middle" x="72.4936" y="-7.3" font-family="Helvetica,sans-Serif" font-size="11.00" fill="#000000">Generated by SchemaSpy</text>
<!-- employer_data -->
<g id="node1" class="node">
<title>employer_data</title>
<g id="a_node1"><a xlink:href="../../tables/employer_data.html" xlink:title="employer_data" target="_top">
<polygon fill="#ffffff" stroke="transparent" points="550,-132.7 550,-266.7 736,-266.7 736,-132.7 550,-132.7"/>
<polygon fill="#f5f5f5" stroke="transparent" points="552,-241.7 552,-264.7 734,-264.7 734,-241.7 552,-241.7"/>
<polygon fill="none" stroke="#000000" points="552,-241.7 552,-264.7 734,-264.7 734,-241.7 552,-241.7"/>
<text text-anchor="start" x="557" y="-250.3" font-family="Helvetica,sans-Serif" font-weight="bold" font-size="11.00" fill="#000000">employer_data</text>
<text text-anchor="start" x="699.0437" y="-249.8" font-family="Helvetica,sans-Serif" font-size="11.00" fill="#000000">[table]</text>
<polygon fill="none" stroke="#000000" points="552,-219.7 552,-241.7 672,-241.7 672,-219.7 552,-219.7"/>
<image xlink:href="../../images/foreignKeys.png" width="11px" height="12px" preserveAspectRatio="xMinYMin meet" x="557" y="-236.7"/>
<text text-anchor="start" x="572" y="-226.8" font-family="Helvetica,sans-Serif" font-size="11.00" fill="#000000">created_by</text>
<polygon fill="none" stroke="#000000" points="672,-219.7 672,-241.7 734,-241.7 734,-219.7 672,-219.7"/>
<text text-anchor="start" x="674.878" y="-227.4" font-family="Helvetica,sans-Serif" font-size="11.00" fill="#000000">unknown[0]</text>
<polygon fill="none" stroke="#000000" points="552,-197.7 552,-219.7 672,-219.7 672,-197.7 552,-197.7"/>
<image xlink:href="../../images/foreignKeys.png" width="11px" height="12px" preserveAspectRatio="xMinYMin meet" x="557" y="-214.7"/>
<text text-anchor="start" x="572" y="-204.8" font-family="Helvetica,sans-Serif" font-size="11.00" fill="#000000">industry</text>
<polygon fill="none" stroke="#000000" points="672,-197.7 672,-219.7 734,-219.7 734,-197.7 672,-197.7"/>
<text text-anchor="start" x="674.878" y="-205.4" font-family="Helvetica,sans-Serif" font-size="11.00" fill="#000000">unknown[0]</text>
<polygon fill="none" stroke="#000000" points="552,-175.7 552,-197.7 672,-197.7 672,-175.7 552,-175.7"/>
<image xlink:href="../../images/foreignKeys.png" width="11px" height="12px" preserveAspectRatio="xMinYMin meet" x="557" y="-192.7"/>
<text text-anchor="start" x="572" y="-182.8" font-family="Helvetica,sans-Serif" font-size="11.00" fill="#000000">occupation</text>
<polygon fill="none" stroke="#000000" points="672,-175.7 672,-197.7 734,-197.7 734,-175.7 672,-175.7"/>
<text text-anchor="start" x="674.878" y="-183.4" font-family="Helvetica,sans-Serif" font-size="11.00" fill="#000000">unknown[0]</text>
<polygon fill="none" stroke="#000000" points="552,-153.7 552,-175.7 672,-175.7 672,-153.7 552,-153.7"/>
<image xlink:href="../../images/foreignKeys.png" width="11px" height="12px" preserveAspectRatio="xMinYMin meet" x="557" y="-170.7"/>
<text text-anchor="start" x="572" y="-160.8" font-family="Helvetica,sans-Serif" font-size="11.00" fill="#000000">pid</text>
<polygon fill="none" stroke="#000000" points="672,-153.7 672,-175.7 734,-175.7 734,-153.7 672,-153.7"/>
<text text-anchor="start" x="674.878" y="-161.4" font-family="Helvetica,sans-Serif" font-size="11.00" fill="#000000">unknown[0]</text>
<polygon fill="#ffffff" stroke="transparent" points="552,-134.7 552,-153.7 616,-153.7 616,-134.7 552,-134.7"/>
<polygon fill="none" stroke="#000000" points="552,-134.7 552,-153.7 616,-153.7 616,-134.7 552,-134.7"/>
<text text-anchor="start" x="555" y="-140.8" font-family="Helvetica,sans-Serif" font-size="11.00" fill="#000000">&lt; 4</text>
<polygon fill="#ffffff" stroke="transparent" points="616,-134.7 616,-153.7 672,-153.7 672,-134.7 616,-134.7"/>
<polygon fill="none" stroke="#000000" points="616,-134.7 616,-153.7 672,-153.7 672,-134.7 616,-134.7"/>
<text text-anchor="start" x="662.8862" y="-140.8" font-family="Helvetica,sans-Serif" font-size="11.00" fill="#000000"> &#160;</text>
<polygon fill="#ffffff" stroke="transparent" points="672,-134.7 672,-153.7 734,-153.7 734,-134.7 672,-134.7"/>
<polygon fill="none" stroke="#000000" points="672,-134.7 672,-153.7 734,-153.7 734,-134.7 672,-134.7"/>
<text text-anchor="start" x="715.4053" y="-140.8" font-family="Helvetica,sans-Serif" font-size="11.00" fill="#000000">0 &gt;</text>
<polygon fill="none" stroke="#000000" stroke-width="2" points="551,-133.7 551,-265.7 735,-265.7 735,-133.7 551,-133.7"/>
</a>
</g>
</g>
<!-- users -->
<g id="node2" class="node">
<title>users</title>
<g id="a_node2"><a xlink:href="../../tables/users.html" xlink:title="users" target="_top">
<polygon fill="#ffffff" stroke="transparent" points="8,-164.2 8,-379.2 175,-379.2 175,-164.2 8,-164.2"/>
<polygon fill="#f5f5f5" stroke="transparent" points="8.5,-355.7 8.5,-378.7 175.5,-378.7 175.5,-355.7 8.5,-355.7"/>
<polygon fill="none" stroke="#000000" points="8.5,-355.7 8.5,-378.7 175.5,-378.7 175.5,-355.7 8.5,-355.7"/>
<text text-anchor="start" x="13.5" y="-364.3" font-family="Helvetica,sans-Serif" font-weight="bold" font-size="11.00" fill="#000000">users</text>
<text text-anchor="start" x="140.5437" y="-363.8" font-family="Helvetica,sans-Serif" font-size="11.00" fill="#000000">[table]</text>
<polygon fill="none" stroke="#000000" points="8.5,-333.7 8.5,-355.7 175.5,-355.7 175.5,-333.7 8.5,-333.7"/>
<image xlink:href="../../images/primaryKeys.png" width="11px" height="12px" preserveAspectRatio="xMinYMin meet" x="13.5" y="-350.7"/>
<text text-anchor="start" x="28.5" y="-340.8" font-family="Helvetica,sans-Serif" font-size="11.00" fill="#000000">id</text>
<polygon fill="#ffffff" stroke="transparent" points="8.5,-311.7 8.5,-333.7 175.5,-333.7 175.5,-311.7 8.5,-311.7"/>
<polygon fill="none" stroke="#000000" points="8.5,-311.7 8.5,-333.7 175.5,-333.7 175.5,-311.7 8.5,-311.7"/>
<text text-anchor="start" x="28.5" y="-318.8" font-family="Helvetica,sans-Serif" font-size="11.00" fill="#000000">uuid</text>
<polygon fill="none" stroke="#000000" points="8.5,-289.7 8.5,-311.7 175.5,-311.7 175.5,-289.7 8.5,-289.7"/>
<image xlink:href="../../images/primaryKeys.png" width="11px" height="12px" preserveAspectRatio="xMinYMin meet" x="13.5" y="-306.7"/>
<text text-anchor="start" x="28.5" y="-296.8" font-family="Helvetica,sans-Serif" font-size="11.00" fill="#000000">username</text>
<polygon fill="none" stroke="#000000" points="8.5,-267.7 8.5,-289.7 175.5,-289.7 175.5,-267.7 8.5,-267.7"/>
<image xlink:href="../../images/foreignKeys.png" width="11px" height="12px" preserveAspectRatio="xMinYMin meet" x="13.5" y="-284.7"/>
<text text-anchor="start" x="28.5" y="-274.8" font-family="Helvetica,sans-Serif" font-size="11.00" fill="#000000">facility_id</text>
<polygon fill="#ffffff" stroke="transparent" points="8.5,-245.7 8.5,-267.7 175.5,-267.7 175.5,-245.7 8.5,-245.7"/>
<polygon fill="none" stroke="#000000" points="8.5,-245.7 8.5,-267.7 175.5,-267.7 175.5,-245.7 8.5,-245.7"/>
<text text-anchor="start" x="28.5" y="-252.8" font-family="Helvetica,sans-Serif" font-size="11.00" fill="#000000">google_signin_email</text>
<polygon fill="#ffffff" stroke="transparent" points="8.5,-223.7 8.5,-245.7 175.5,-245.7 175.5,-223.7 8.5,-223.7"/>
<polygon fill="none" stroke="#000000" points="8.5,-223.7 8.5,-245.7 175.5,-245.7 175.5,-223.7 8.5,-223.7"/>
<text text-anchor="start" x="28.5" y="-230.8" font-family="Helvetica,sans-Serif" font-size="11.00" fill="#000000">abook_type</text>
<polygon fill="none" stroke="#000000" points="8.5,-201.7 8.5,-223.7 175.5,-223.7 175.5,-201.7 8.5,-201.7"/>
<image xlink:href="../../images/foreignKeys.png" width="11px" height="12px" preserveAspectRatio="xMinYMin meet" x="13.5" y="-218.7"/>
<text text-anchor="start" x="28.5" y="-208.8" font-family="Helvetica,sans-Serif" font-size="11.00" fill="#000000">billing_facility_id</text>
<polygon fill="none" stroke="#000000" points="8.5,-182.7 8.5,-201.7 175.5,-201.7 175.5,-182.7 8.5,-182.7"/>
<text text-anchor="start" x="11.5" y="-188.8" font-family="Helvetica,sans-Serif" font-size="11.00" fill="#000000">...</text>
<polygon fill="#ffffff" stroke="transparent" points="8.5,-163.7 8.5,-182.7 82.5,-182.7 82.5,-163.7 8.5,-163.7"/>
<polygon fill="none" stroke="#000000" points="8.5,-163.7 8.5,-182.7 82.5,-182.7 82.5,-163.7 8.5,-163.7"/>
<text text-anchor="start" x="11.5" y="-169.8" font-family="Helvetica,sans-Serif" font-size="11.00" fill="#000000">&lt; 2</text>
<polygon fill="#ffffff" stroke="transparent" points="82.5,-163.7 82.5,-182.7 121.5,-182.7 121.5,-163.7 82.5,-163.7"/>
<polygon fill="none" stroke="#000000" points="82.5,-163.7 82.5,-182.7 121.5,-182.7 121.5,-163.7 82.5,-163.7"/>
<text text-anchor="start" x="112.3862" y="-169.8" font-family="Helvetica,sans-Serif" font-size="11.00" fill="#000000"> &#160;</text>
<polygon fill="#ffffff" stroke="transparent" points="121.5,-163.7 121.5,-182.7 175.5,-182.7 175.5,-163.7 121.5,-163.7"/>
<polygon fill="none" stroke="#000000" points="121.5,-163.7 121.5,-182.7 175.5,-182.7 175.5,-163.7 121.5,-163.7"/>
<text text-anchor="start" x="150.7904" y="-169.8" font-family="Helvetica,sans-Serif" font-size="11.00" fill="#000000">90 &gt;</text>
</a>
</g>
</g>
<!-- employer_data&#45;&gt;users -->
<g id="edge1" class="edge">
<title>employer_data:w&#45;&gt;users:e</title>
<path fill="none" stroke="#000000" d="M538.2806,-235.685C497.8447,-270.9548 554.3299,-482.5761 509,-521.7 459.7091,-564.2425 266.9169,-562.2823 216,-521.7 152.8928,-471.4016 256.1997,-344.7 175.5,-344.7"/>
<polygon fill="#000000" stroke="#000000" points="544.481,-233.4321 553.2294,-234.0836 548.2405,-232.066 552,-230.7 552,-230.7 552,-230.7 548.2405,-232.066 550.7706,-227.3164 544.481,-233.4321 544.481,-233.4321"/>
<ellipse fill="none" stroke="#000000" cx="541.4733" cy="-234.5249" rx="3.2" ry="3.2"/>
</g>
<!-- list_options -->
<g id="node3" class="node">
<title>list_options</title>
<g id="a_node3"><a xlink:href="../../tables/list_options.html" xlink:title="list_options" target="_top">
<polygon fill="#ffffff" stroke="transparent" points="25.5,-38.2 25.5,-143.2 157.5,-143.2 157.5,-38.2 25.5,-38.2"/>
<polygon fill="#f5f5f5" stroke="transparent" points="25.5,-119.7 25.5,-142.7 157.5,-142.7 157.5,-119.7 25.5,-119.7"/>
<polygon fill="none" stroke="#000000" points="25.5,-119.7 25.5,-142.7 157.5,-142.7 157.5,-119.7 25.5,-119.7"/>
<text text-anchor="start" x="30.5" y="-128.3" font-family="Helvetica,sans-Serif" font-weight="bold" font-size="11.00" fill="#000000">list_options</text>
<text text-anchor="start" x="122.5437" y="-127.8" font-family="Helvetica,sans-Serif" font-size="11.00" fill="#000000">[table]</text>
<polygon fill="none" stroke="#000000" points="25.5,-97.7 25.5,-119.7 157.5,-119.7 157.5,-97.7 25.5,-97.7"/>
<image xlink:href="../../images/primaryKeys.png" width="11px" height="12px" preserveAspectRatio="xMinYMin meet" x="30.5" y="-114.7"/>
<text text-anchor="start" x="45.5" y="-104.8" font-family="Helvetica,sans-Serif" font-size="11.00" fill="#000000">list_id</text>
<polygon fill="none" stroke="#000000" points="25.5,-75.7 25.5,-97.7 157.5,-97.7 157.5,-75.7 25.5,-75.7"/>
<image xlink:href="../../images/primaryKeys.png" width="11px" height="12px" preserveAspectRatio="xMinYMin meet" x="30.5" y="-92.7"/>
<text text-anchor="start" x="45.5" y="-82.8" font-family="Helvetica,sans-Serif" font-size="11.00" fill="#000000">option_id</text>
<polygon fill="none" stroke="#000000" points="25.5,-56.7 25.5,-75.7 157.5,-75.7 157.5,-56.7 25.5,-56.7"/>
<text text-anchor="start" x="28.5" y="-62.8" font-family="Helvetica,sans-Serif" font-size="11.00" fill="#000000">...</text>
<polygon fill="#ffffff" stroke="transparent" points="25.5,-37.7 25.5,-56.7 77.5,-56.7 77.5,-37.7 25.5,-37.7"/>
<polygon fill="none" stroke="#000000" points="25.5,-37.7 25.5,-56.7 77.5,-56.7 77.5,-37.7 25.5,-37.7"/>
<text text-anchor="start" x="28.5" y="-43.8" font-family="Helvetica,sans-Serif" font-size="11.00" fill="#000000"> &#160;</text>
<polygon fill="#ffffff" stroke="transparent" points="77.5,-37.7 77.5,-56.7 109.5,-56.7 109.5,-37.7 77.5,-37.7"/>
<polygon fill="none" stroke="#000000" points="77.5,-37.7 77.5,-56.7 109.5,-56.7 109.5,-37.7 77.5,-37.7"/>
<text text-anchor="start" x="100.3862" y="-43.8" font-family="Helvetica,sans-Serif" font-size="11.00" fill="#000000"> &#160;</text>
<polygon fill="#ffffff" stroke="transparent" points="109.5,-37.7 109.5,-56.7 157.5,-56.7 157.5,-37.7 109.5,-37.7"/>
<polygon fill="none" stroke="#000000" points="109.5,-37.7 109.5,-56.7 157.5,-56.7 157.5,-37.7 109.5,-37.7"/>
<text text-anchor="start" x="132.7904" y="-43.8" font-family="Helvetica,sans-Serif" font-size="11.00" fill="#000000">98 &gt;</text>
</a>
</g>
</g>
<!-- employer_data&#45;&gt;list_options -->
<g id="edge2" class="edge">
<title>employer_data:w&#45;&gt;list_options:e</title>
<path fill="none" stroke="#000000" d="M537.6674,-205.3877C514.0384,-191.0214 543.1744,-133.7478 509,-109.7 444.9828,-64.6526 235.7782,-86.7 157.5,-86.7"/>
<polygon fill="#000000" stroke="#000000" points="544.2054,-206.8986 551.1894,-212.2076 548.1027,-207.7993 552,-208.7 552,-208.7 552,-208.7 548.1027,-207.7993 552.8106,-205.1924 544.2054,-206.8986 544.2054,-206.8986"/>
<ellipse fill="none" stroke="#000000" cx="541.0876" cy="-206.1781" rx="3.2" ry="3.2"/>
</g>
<!-- employer_data&#45;&gt;list_options -->
<g id="edge3" class="edge">
<title>employer_data:w&#45;&gt;list_options:e</title>
<path fill="none" stroke="#000000" d="M537.8686,-183.6799C511.3548,-169.0294 546.487,-105.036 509,-79.7 401.1085,-6.7805 345.9914,-71.9504 216,-79.7 189.8609,-81.2583 183.6855,-86.7 157.5,-86.7"/>
<polygon fill="#000000" stroke="#000000" points="544.1767,-185.028 551.2476,-190.2205 548.0883,-185.864 552,-186.7 552,-186.7 552,-186.7 548.0883,-185.864 552.7524,-183.1795 544.1767,-185.028 544.1767,-185.028"/>
<ellipse fill="none" stroke="#000000" cx="541.0473" cy="-184.3592" rx="3.2" ry="3.2"/>
</g>
<!-- patient_data -->
<g id="node4" class="node">
<title>patient_data</title>
<g id="a_node4"><a xlink:href="../../tables/patient_data.html" xlink:title="patient_data" target="_top">
<polygon fill="#ffffff" stroke="transparent" points="224,-120.2 224,-511.2 501,-511.2 501,-120.2 224,-120.2"/>
<polygon fill="#f5f5f5" stroke="transparent" points="224.5,-487.7 224.5,-510.7 501.5,-510.7 501.5,-487.7 224.5,-487.7"/>
<polygon fill="none" stroke="#000000" points="224.5,-487.7 224.5,-510.7 501.5,-510.7 501.5,-487.7 224.5,-487.7"/>
<text text-anchor="start" x="229.5" y="-496.3" font-family="Helvetica,sans-Serif" font-weight="bold" font-size="11.00" fill="#000000">patient_data</text>
<text text-anchor="start" x="466.5437" y="-495.8" font-family="Helvetica,sans-Serif" font-size="11.00" fill="#000000">[table]</text>
<polygon fill="none" stroke="#000000" points="224.5,-465.7 224.5,-487.7 501.5,-487.7 501.5,-465.7 224.5,-465.7"/>
<image xlink:href="../../images/primaryKeys.png" width="11px" height="12px" preserveAspectRatio="xMinYMin meet" x="229.5" y="-482.7"/>
<text text-anchor="start" x="244.5" y="-472.8" font-family="Helvetica,sans-Serif" font-size="11.00" fill="#000000">id</text>
<polygon fill="#ffffff" stroke="transparent" points="224.5,-443.7 224.5,-465.7 501.5,-465.7 501.5,-443.7 224.5,-443.7"/>
<polygon fill="none" stroke="#000000" points="224.5,-443.7 224.5,-465.7 501.5,-465.7 501.5,-443.7 224.5,-443.7"/>
<text text-anchor="start" x="244.5" y="-450.8" font-family="Helvetica,sans-Serif" font-size="11.00" fill="#000000">uuid</text>
<polygon fill="#ffffff" stroke="transparent" points="224.5,-421.7 224.5,-443.7 501.5,-443.7 501.5,-421.7 224.5,-421.7"/>
<polygon fill="none" stroke="#000000" points="224.5,-421.7 224.5,-443.7 501.5,-443.7 501.5,-421.7 224.5,-421.7"/>
<text text-anchor="start" x="244.5" y="-428.8" font-family="Helvetica,sans-Serif" font-size="11.00" fill="#000000">fname</text>
<polygon fill="#ffffff" stroke="transparent" points="224.5,-399.7 224.5,-421.7 501.5,-421.7 501.5,-399.7 224.5,-399.7"/>
<polygon fill="none" stroke="#000000" points="224.5,-399.7 224.5,-421.7 501.5,-421.7 501.5,-399.7 224.5,-399.7"/>
<text text-anchor="start" x="244.5" y="-406.8" font-family="Helvetica,sans-Serif" font-size="11.00" fill="#000000">lname</text>
<polygon fill="#ffffff" stroke="transparent" points="224.5,-377.7 224.5,-399.7 501.5,-399.7 501.5,-377.7 224.5,-377.7"/>
<polygon fill="none" stroke="#000000" points="224.5,-377.7 224.5,-399.7 501.5,-399.7 501.5,-377.7 224.5,-377.7"/>
<text text-anchor="start" x="244.5" y="-384.8" font-family="Helvetica,sans-Serif" font-size="11.00" fill="#000000">DOB</text>
<polygon fill="none" stroke="#000000" points="224.5,-355.7 224.5,-377.7 501.5,-377.7 501.5,-355.7 224.5,-355.7"/>
<image xlink:href="../../images/foreignKeys.png" width="11px" height="12px" preserveAspectRatio="xMinYMin meet" x="229.5" y="-372.7"/>
<text text-anchor="start" x="244.5" y="-362.8" font-family="Helvetica,sans-Serif" font-size="11.00" fill="#000000">pharmacy_id</text>
<polygon fill="none" stroke="#000000" points="224.5,-333.7 224.5,-355.7 501.5,-355.7 501.5,-333.7 224.5,-333.7"/>
<image xlink:href="../../images/foreignKeys.png" width="11px" height="12px" preserveAspectRatio="xMinYMin meet" x="229.5" y="-350.7"/>
<text text-anchor="start" x="244.5" y="-340.8" font-family="Helvetica,sans-Serif" font-size="11.00" fill="#000000">providerID</text>
<polygon fill="none" stroke="#000000" points="224.5,-311.7 224.5,-333.7 501.5,-333.7 501.5,-311.7 224.5,-311.7"/>
<image xlink:href="../../images/foreignKeys.png" width="11px" height="12px" preserveAspectRatio="xMinYMin meet" x="229.5" y="-328.7"/>
<text text-anchor="start" x="244.5" y="-318.8" font-family="Helvetica,sans-Serif" font-size="11.00" fill="#000000">ref_providerID</text>
<polygon fill="none" stroke="#000000" points="224.5,-289.7 224.5,-311.7 501.5,-311.7 501.5,-289.7 224.5,-289.7"/>
<image xlink:href="../../images/foreignKeys.png" width="11px" height="12px" preserveAspectRatio="xMinYMin meet" x="229.5" y="-306.7"/>
<text text-anchor="start" x="244.5" y="-296.8" font-family="Helvetica,sans-Serif" font-size="11.00" fill="#000000">interpreter_needed</text>
<polygon fill="none" stroke="#000000" points="224.5,-267.7 224.5,-289.7 501.5,-289.7 501.5,-267.7 224.5,-267.7"/>
<image xlink:href="../../images/primaryKeys.png" width="11px" height="12px" preserveAspectRatio="xMinYMin meet" x="229.5" y="-284.7"/>
<text text-anchor="start" x="244.5" y="-274.8" font-family="Helvetica,sans-Serif" font-size="11.00" fill="#000000">pid</text>
<polygon fill="none" stroke="#000000" points="224.5,-245.7 224.5,-267.7 501.5,-267.7 501.5,-245.7 224.5,-245.7"/>
<image xlink:href="../../images/foreignKeys.png" width="11px" height="12px" preserveAspectRatio="xMinYMin meet" x="229.5" y="-262.7"/>
<text text-anchor="start" x="244.5" y="-252.8" font-family="Helvetica,sans-Serif" font-size="11.00" fill="#000000">advance_directive_user_authenticator</text>
<polygon fill="none" stroke="#000000" points="224.5,-223.7 224.5,-245.7 501.5,-245.7 501.5,-223.7 224.5,-223.7"/>
<image xlink:href="../../images/foreignKeys.png" width="11px" height="12px" preserveAspectRatio="xMinYMin meet" x="229.5" y="-240.7"/>
<text text-anchor="start" x="244.5" y="-230.8" font-family="Helvetica,sans-Serif" font-size="11.00" fill="#000000">created_by</text>
<polygon fill="none" stroke="#000000" points="224.5,-201.7 224.5,-223.7 501.5,-223.7 501.5,-201.7 224.5,-201.7"/>
<image xlink:href="../../images/foreignKeys.png" width="11px" height="12px" preserveAspectRatio="xMinYMin meet" x="229.5" y="-218.7"/>
<text text-anchor="start" x="244.5" y="-208.8" font-family="Helvetica,sans-Serif" font-size="11.00" fill="#000000">updated_by</text>
<polygon fill="none" stroke="#000000" points="224.5,-179.7 224.5,-201.7 501.5,-201.7 501.5,-179.7 224.5,-179.7"/>
<image xlink:href="../../images/foreignKeys.png" width="11px" height="12px" preserveAspectRatio="xMinYMin meet" x="229.5" y="-196.7"/>
<text text-anchor="start" x="244.5" y="-186.8" font-family="Helvetica,sans-Serif" font-size="11.00" fill="#000000">tribal_affiliations</text>
<polygon fill="none" stroke="#000000" points="224.5,-157.7 224.5,-179.7 501.5,-179.7 501.5,-157.7 224.5,-157.7"/>
<image xlink:href="../../images/foreignKeys.png" width="11px" height="12px" preserveAspectRatio="xMinYMin meet" x="229.5" y="-174.7"/>
<text text-anchor="start" x="244.5" y="-164.8" font-family="Helvetica,sans-Serif" font-size="11.00" fill="#000000">sex_identified</text>
<polygon fill="none" stroke="#000000" points="224.5,-138.7 224.5,-157.7 501.5,-157.7 501.5,-138.7 224.5,-138.7"/>
<text text-anchor="start" x="227.5" y="-144.8" font-family="Helvetica,sans-Serif" font-size="11.00" fill="#000000">...</text>
<polygon fill="#ffffff" stroke="transparent" points="224.5,-119.7 224.5,-138.7 353.5,-138.7 353.5,-119.7 224.5,-119.7"/>
<polygon fill="none" stroke="#000000" points="224.5,-119.7 224.5,-138.7 353.5,-138.7 353.5,-119.7 224.5,-119.7"/>
<text text-anchor="start" x="227.5" y="-125.8" font-family="Helvetica,sans-Serif" font-size="11.00" fill="#000000">&lt; 9</text>
<polygon fill="#ffffff" stroke="transparent" points="353.5,-119.7 353.5,-138.7 419.5,-138.7 419.5,-119.7 353.5,-119.7"/>
<polygon fill="none" stroke="#000000" points="353.5,-119.7 353.5,-138.7 419.5,-138.7 419.5,-119.7 353.5,-119.7"/>
<text text-anchor="start" x="410.3862" y="-125.8" font-family="Helvetica,sans-Serif" font-size="11.00" fill="#000000"> &#160;</text>
<polygon fill="#ffffff" stroke="transparent" points="419.5,-119.7 419.5,-138.7 501.5,-138.7 501.5,-119.7 419.5,-119.7"/>
<polygon fill="none" stroke="#000000" points="419.5,-119.7 419.5,-138.7 501.5,-138.7 501.5,-119.7 419.5,-119.7"/>
<text text-anchor="start" x="476.7904" y="-125.8" font-family="Helvetica,sans-Serif" font-size="11.00" fill="#000000">95 &gt;</text>
</a>
</g>
</g>
<!-- employer_data&#45;&gt;patient_data -->
<g id="edge4" class="edge">
<title>employer_data:w&#45;&gt;patient_data:e</title>
<path fill="none" stroke="#000000" d="M537.6679,-168.493C508.3973,-188.2737 550.8543,-278.7 501.5,-278.7"/>
<polygon fill="#000000" stroke="#000000" points="544.2662,-166.7468 552.921,-168.1802 548.1331,-165.7234 552,-164.7 552,-164.7 552,-164.7 548.1331,-165.7234 551.079,-161.2198 544.2662,-166.7468 544.2662,-166.7468"/>
<ellipse fill="none" stroke="#000000" cx="541.1727" cy="-167.5655" rx="3.2" ry="3.2"/>
</g>
<!-- patient_data&#45;&gt;users -->
<g id="edge5" class="edge">
<title>patient_data:w&#45;&gt;users:e</title>
<path fill="none" stroke="#000000" d="M210.4863,-261.1849C189.2228,-279.1176 214.1452,-344.7 175.5,-344.7"/>
<polygon fill="#000000" stroke="#000000" points="216.8807,-259.1385 225.5973,-260.1287 220.6903,-257.9193 224.5,-256.7 224.5,-256.7 224.5,-256.7 220.6903,-257.9193 223.4027,-253.2713 216.8807,-259.1385 216.8807,-259.1385"/>
<ellipse fill="none" stroke="#000000" cx="213.833" cy="-260.1139" rx="3.2" ry="3.2"/>
</g>
<!-- patient_data&#45;&gt;users -->
<g id="edge6" class="edge">
<title>patient_data:w&#45;&gt;users:e</title>
<path fill="none" stroke="#000000" d="M210.282,-238.615C182.6981,-258.2103 222.9572,-344.7 175.5,-344.7"/>
<polygon fill="#000000" stroke="#000000" points="216.7871,-236.8238 225.4557,-238.1708 220.6435,-235.7619 224.5,-234.7 224.5,-234.7 224.5,-234.7 220.6435,-235.7619 223.5443,-231.2292 216.7871,-236.8238 216.7871,-236.8238"/>
<ellipse fill="none" stroke="#000000" cx="213.7019" cy="-237.6734" rx="3.2" ry="3.2"/>
</g>
<!-- patient_data&#45;&gt;users -->
<g id="edge8" class="edge">
<title>patient_data:w&#45;&gt;users:e</title>
<path fill="none" stroke="#000000" d="M209.9909,-344.7C198.6774,-344.7 191.4931,-344.7 175.5,-344.7"/>
<polygon fill="#000000" stroke="#000000" points="216.5,-344.7001 224.5,-348.3 220.5,-344.7 224.5,-344.7 224.5,-344.7 224.5,-344.7 220.5,-344.7 224.5,-341.1 216.5,-344.7001 216.5,-344.7001"/>
<ellipse fill="none" stroke="#000000" cx="213.3" cy="-344.7001" rx="3.2" ry="3.2"/>
</g>
<!-- patient_data&#45;&gt;users -->
<g id="edge9" class="edge">
<title>patient_data:w&#45;&gt;users:e</title>
<path fill="none" stroke="#000000" d="M210.1297,-326.1375C198.5865,-332.325 193.4041,-344.7 175.5,-344.7"/>
<polygon fill="#000000" stroke="#000000" points="216.7195,-324.5612 225.3375,-326.2012 220.6098,-323.6306 224.5,-322.7 224.5,-322.7 224.5,-322.7 220.6098,-323.6306 223.6625,-319.1988 216.7195,-324.5612 216.7195,-324.5612"/>
<ellipse fill="none" stroke="#000000" cx="213.6073" cy="-325.3057" rx="3.2" ry="3.2"/>
</g>
<!-- patient_data&#45;&gt;users -->
<g id="edge12" class="edge">
<title>patient_data:w&#45;&gt;users:e</title>
<path fill="none" stroke="#000000" d="M210.3293,-215.9629C174.9817,-236.2898 232.2116,-344.7 175.5,-344.7"/>
<polygon fill="#000000" stroke="#000000" points="216.704,-214.4951 225.3078,-216.2082 220.602,-213.5976 224.5,-212.7 224.5,-212.7 224.5,-212.7 220.602,-213.5976 223.6922,-209.1918 216.704,-214.4951 216.704,-214.4951"/>
<ellipse fill="none" stroke="#000000" cx="213.5856" cy="-215.2132" rx="3.2" ry="3.2"/>
</g>
<!-- patient_data&#45;&gt;list_options -->
<g id="edge7" class="edge">
<title>patient_data:w&#45;&gt;list_options:e</title>
<path fill="none" stroke="#000000" d="M210.1545,-298.85C138.6158,-277.9338 251.7133,-86.7 157.5,-86.7"/>
<polygon fill="#000000" stroke="#000000" points="216.5657,-299.6767 224.0395,-304.2704 220.5329,-300.1884 224.5,-300.7 224.5,-300.7 224.5,-300.7 220.5329,-300.1884 224.9605,-297.1296 216.5657,-299.6767 216.5657,-299.6767"/>
<ellipse fill="none" stroke="#000000" cx="213.392" cy="-299.2674" rx="3.2" ry="3.2"/>
</g>
<!-- patient_data&#45;&gt;list_options -->
<g id="edge10" class="edge">
<title>patient_data:w&#45;&gt;list_options:e</title>
<path fill="none" stroke="#000000" d="M210.4031,-165.3839C182.9188,-150.043 198.8638,-86.7 157.5,-86.7"/>
<polygon fill="#000000" stroke="#000000" points="216.7126,-166.8681 223.6756,-172.2044 220.6063,-167.784 224.5,-168.7 224.5,-168.7 224.5,-168.7 220.6063,-167.784 225.3244,-165.1956 216.7126,-166.8681 216.7126,-166.8681"/>
<ellipse fill="none" stroke="#000000" cx="213.5976" cy="-166.1353" rx="3.2" ry="3.2"/>
</g>
<!-- patient_data&#45;&gt;list_options -->
<g id="edge11" class="edge">
<title>patient_data:w&#45;&gt;list_options:e</title>
<path fill="none" stroke="#000000" d="M210.1417,-187.4734C177.4901,-169.9194 206.6847,-86.7 157.5,-86.7"/>
<polygon fill="#000000" stroke="#000000" points="216.6946,-188.946 223.7107,-194.2124 220.5973,-189.823 224.5,-190.7 224.5,-190.7 224.5,-190.7 220.5973,-189.823 225.2893,-187.1876 216.6946,-188.946 216.6946,-188.946"/>
<ellipse fill="none" stroke="#000000" cx="213.5725" cy="-188.2443" rx="3.2" ry="3.2"/>
</g>
</g>
</svg>
