<?xml version="1.0" encoding="UTF-8" standalone="no"?>
<!DOCTYPE svg PUBLIC "-//W3C//DTD SVG 1.1//EN"
 "http://www.w3.org/Graphics/SVG/1.1/DTD/svg11.dtd">
<!-- Generated by graphviz version 2.40.1 (20161225.0304)
 -->
<!-- Title: oneDegreeRelationshipsDiagram Pages: 1 -->
<svg width="603pt" height="441pt"
 viewBox="0.00 0.00 603.00 441.20" xmlns="http://www.w3.org/2000/svg" xmlns:xlink="http://www.w3.org/1999/xlink">
<g id="graph0" class="graph" transform="scale(1 1) rotate(0) translate(4 437.2)">
<title>oneDegreeRelationshipsDiagram</title>
<polygon fill="#ffffff" stroke="transparent" points="-4,4 -4,-437.2 599,-437.2 599,4 -4,4"/>
<text text-anchor="middle" x="72.4936" y="-7.3" font-family="Helvetica,sans-Serif" font-size="11.00" fill="#000000">Generated by SchemaSpy</text>
<!-- external_encounters -->
<g id="node1" class="node">
<title>external_encounters</title>
<g id="a_node1"><a xlink:href="../../tables/external_encounters.html" xlink:title="external_encounters" target="_top">
<polygon fill="#ffffff" stroke="transparent" points="334,-76.7 334,-276.7 587,-276.7 587,-76.7 334,-76.7"/>
<polygon fill="#f5f5f5" stroke="transparent" points="336.5,-251.7 336.5,-274.7 585.5,-274.7 585.5,-251.7 336.5,-251.7"/>
<polygon fill="none" stroke="#000000" points="336.5,-251.7 336.5,-274.7 585.5,-274.7 585.5,-251.7 336.5,-251.7"/>
<text text-anchor="start" x="341.5" y="-260.3" font-family="Helvetica,sans-Serif" font-weight="bold" font-size="11.00" fill="#000000">external_encounters</text>
<text text-anchor="start" x="550.5437" y="-259.8" font-family="Helvetica,sans-Serif" font-size="11.00" fill="#000000">[table]</text>
<polygon fill="none" stroke="#000000" points="336.5,-229.7 336.5,-251.7 518.5,-251.7 518.5,-229.7 336.5,-229.7"/>
<image xlink:href="../../images/primaryKeys.png" width="11px" height="12px" preserveAspectRatio="xMinYMin meet" x="341.5" y="-246.7"/>
<text text-anchor="start" x="356.5" y="-236.8" font-family="Helvetica,sans-Serif" font-size="11.00" fill="#000000">ee_id</text>
<polygon fill="none" stroke="#000000" points="518.5,-229.7 518.5,-251.7 585.5,-251.7 585.5,-229.7 518.5,-229.7"/>
<text text-anchor="start" x="521.5" y="-237.4" font-family="Helvetica,sans-Serif" font-size="11.00" fill="#000000">int[10]</text>
<polygon fill="none" stroke="#000000" points="336.5,-207.7 336.5,-229.7 518.5,-229.7 518.5,-207.7 336.5,-207.7"/>
<text text-anchor="start" x="356.5" y="-214.8" font-family="Helvetica,sans-Serif" font-size="11.00" fill="#000000">ee_date</text>
<polygon fill="none" stroke="#000000" points="518.5,-207.7 518.5,-229.7 585.5,-229.7 585.5,-207.7 518.5,-207.7"/>
<text text-anchor="start" x="521.5" y="-215.4" font-family="Helvetica,sans-Serif" font-size="11.00" fill="#000000">date[10]</text>
<polygon fill="none" stroke="#000000" points="336.5,-185.7 336.5,-207.7 518.5,-207.7 518.5,-185.7 336.5,-185.7"/>
<image xlink:href="../../images/foreignKeys.png" width="11px" height="12px" preserveAspectRatio="xMinYMin meet" x="341.5" y="-202.7"/>
<text text-anchor="start" x="356.5" y="-192.8" font-family="Helvetica,sans-Serif" font-size="11.00" fill="#000000">ee_pid</text>
<polygon fill="none" stroke="#000000" points="518.5,-185.7 518.5,-207.7 585.5,-207.7 585.5,-185.7 518.5,-185.7"/>
<text text-anchor="start" x="521.5" y="-193.4" font-family="Helvetica,sans-Serif" font-size="11.00" fill="#000000">int[10]</text>
<polygon fill="none" stroke="#000000" points="336.5,-163.7 336.5,-185.7 518.5,-185.7 518.5,-163.7 336.5,-163.7"/>
<text text-anchor="start" x="356.5" y="-170.8" font-family="Helvetica,sans-Serif" font-size="11.00" fill="#000000">ee_provider_id</text>
<polygon fill="none" stroke="#000000" points="518.5,-163.7 518.5,-185.7 585.5,-185.7 585.5,-163.7 518.5,-163.7"/>
<text text-anchor="start" x="521.4365" y="-171.4" font-family="Helvetica,sans-Serif" font-size="11.00" fill="#000000">varchar[255]</text>
<polygon fill="none" stroke="#000000" points="336.5,-141.7 336.5,-163.7 518.5,-163.7 518.5,-141.7 336.5,-141.7"/>
<text text-anchor="start" x="356.5" y="-148.8" font-family="Helvetica,sans-Serif" font-size="11.00" fill="#000000">ee_facility_id</text>
<polygon fill="none" stroke="#000000" points="518.5,-141.7 518.5,-163.7 585.5,-163.7 585.5,-141.7 518.5,-141.7"/>
<text text-anchor="start" x="521.4365" y="-149.4" font-family="Helvetica,sans-Serif" font-size="11.00" fill="#000000">varchar[255]</text>
<polygon fill="none" stroke="#000000" points="336.5,-119.7 336.5,-141.7 518.5,-141.7 518.5,-119.7 336.5,-119.7"/>
<text text-anchor="start" x="356.5" y="-126.8" font-family="Helvetica,sans-Serif" font-size="11.00" fill="#000000">ee_encounter_diagnosis</text>
<polygon fill="none" stroke="#000000" points="518.5,-119.7 518.5,-141.7 585.5,-141.7 585.5,-119.7 518.5,-119.7"/>
<text text-anchor="start" x="521.4365" y="-127.4" font-family="Helvetica,sans-Serif" font-size="11.00" fill="#000000">varchar[255]</text>
<polygon fill="none" stroke="#000000" points="336.5,-97.7 336.5,-119.7 518.5,-119.7 518.5,-97.7 336.5,-97.7"/>
<text text-anchor="start" x="356.5" y="-104.8" font-family="Helvetica,sans-Serif" font-size="11.00" fill="#000000">ee_external_id</text>
<polygon fill="none" stroke="#000000" points="518.5,-97.7 518.5,-119.7 585.5,-119.7 585.5,-97.7 518.5,-97.7"/>
<text text-anchor="start" x="521.4365" y="-105.4" font-family="Helvetica,sans-Serif" font-size="11.00" fill="#000000">varchar[255]</text>
<polygon fill="#ffffff" stroke="transparent" points="336.5,-78.7 336.5,-97.7 431.5,-97.7 431.5,-78.7 336.5,-78.7"/>
<polygon fill="none" stroke="#000000" points="336.5,-78.7 336.5,-97.7 431.5,-97.7 431.5,-78.7 336.5,-78.7"/>
<text text-anchor="start" x="339.5" y="-84.8" font-family="Helvetica,sans-Serif" font-size="11.00" fill="#000000">&lt; 1</text>
<polygon fill="#ffffff" stroke="transparent" points="431.5,-78.7 431.5,-97.7 518.5,-97.7 518.5,-78.7 431.5,-78.7"/>
<polygon fill="none" stroke="#000000" points="431.5,-78.7 431.5,-97.7 518.5,-97.7 518.5,-78.7 431.5,-78.7"/>
<text text-anchor="start" x="509.3862" y="-84.8" font-family="Helvetica,sans-Serif" font-size="11.00" fill="#000000"> &#160;</text>
<polygon fill="#ffffff" stroke="transparent" points="518.5,-78.7 518.5,-97.7 585.5,-97.7 585.5,-78.7 518.5,-78.7"/>
<polygon fill="none" stroke="#000000" points="518.5,-78.7 518.5,-97.7 585.5,-97.7 585.5,-78.7 518.5,-78.7"/>
<text text-anchor="start" x="566.9053" y="-84.8" font-family="Helvetica,sans-Serif" font-size="11.00" fill="#000000">0 &gt;</text>
<polygon fill="none" stroke="#000000" stroke-width="2" points="335,-77.7 335,-275.7 586,-275.7 586,-77.7 335,-77.7"/>
</a>
</g>
</g>
<!-- patient_data -->
<g id="node2" class="node">
<title>patient_data</title>
<g id="a_node2"><a xlink:href="../../tables/patient_data.html" xlink:title="patient_data" target="_top">
<polygon fill="#ffffff" stroke="transparent" points="8,-38.2 8,-429.2 285,-429.2 285,-38.2 8,-38.2"/>
<polygon fill="#f5f5f5" stroke="transparent" points="8.5,-405.7 8.5,-428.7 285.5,-428.7 285.5,-405.7 8.5,-405.7"/>
<polygon fill="none" stroke="#000000" points="8.5,-405.7 8.5,-428.7 285.5,-428.7 285.5,-405.7 8.5,-405.7"/>
<text text-anchor="start" x="13.5" y="-414.3" font-family="Helvetica,sans-Serif" font-weight="bold" font-size="11.00" fill="#000000">patient_data</text>
<text text-anchor="start" x="250.5437" y="-413.8" font-family="Helvetica,sans-Serif" font-size="11.00" fill="#000000">[table]</text>
<polygon fill="none" stroke="#000000" points="8.5,-383.7 8.5,-405.7 285.5,-405.7 285.5,-383.7 8.5,-383.7"/>
<image xlink:href="../../images/primaryKeys.png" width="11px" height="12px" preserveAspectRatio="xMinYMin meet" x="13.5" y="-400.7"/>
<text text-anchor="start" x="28.5" y="-390.8" font-family="Helvetica,sans-Serif" font-size="11.00" fill="#000000">id</text>
<polygon fill="#ffffff" stroke="transparent" points="8.5,-361.7 8.5,-383.7 285.5,-383.7 285.5,-361.7 8.5,-361.7"/>
<polygon fill="none" stroke="#000000" points="8.5,-361.7 8.5,-383.7 285.5,-383.7 285.5,-361.7 8.5,-361.7"/>
<text text-anchor="start" x="28.5" y="-368.8" font-family="Helvetica,sans-Serif" font-size="11.00" fill="#000000">uuid</text>
<polygon fill="#ffffff" stroke="transparent" points="8.5,-339.7 8.5,-361.7 285.5,-361.7 285.5,-339.7 8.5,-339.7"/>
<polygon fill="none" stroke="#000000" points="8.5,-339.7 8.5,-361.7 285.5,-361.7 285.5,-339.7 8.5,-339.7"/>
<text text-anchor="start" x="28.5" y="-346.8" font-family="Helvetica,sans-Serif" font-size="11.00" fill="#000000">fname</text>
<polygon fill="#ffffff" stroke="transparent" points="8.5,-317.7 8.5,-339.7 285.5,-339.7 285.5,-317.7 8.5,-317.7"/>
<polygon fill="none" stroke="#000000" points="8.5,-317.7 8.5,-339.7 285.5,-339.7 285.5,-317.7 8.5,-317.7"/>
<text text-anchor="start" x="28.5" y="-324.8" font-family="Helvetica,sans-Serif" font-size="11.00" fill="#000000">lname</text>
<polygon fill="#ffffff" stroke="transparent" points="8.5,-295.7 8.5,-317.7 285.5,-317.7 285.5,-295.7 8.5,-295.7"/>
<polygon fill="none" stroke="#000000" points="8.5,-295.7 8.5,-317.7 285.5,-317.7 285.5,-295.7 8.5,-295.7"/>
<text text-anchor="start" x="28.5" y="-302.8" font-family="Helvetica,sans-Serif" font-size="11.00" fill="#000000">DOB</text>
<polygon fill="none" stroke="#000000" points="8.5,-273.7 8.5,-295.7 285.5,-295.7 285.5,-273.7 8.5,-273.7"/>
<image xlink:href="../../images/foreignKeys.png" width="11px" height="12px" preserveAspectRatio="xMinYMin meet" x="13.5" y="-290.7"/>
<text text-anchor="start" x="28.5" y="-280.8" font-family="Helvetica,sans-Serif" font-size="11.00" fill="#000000">pharmacy_id</text>
<polygon fill="none" stroke="#000000" points="8.5,-251.7 8.5,-273.7 285.5,-273.7 285.5,-251.7 8.5,-251.7"/>
<image xlink:href="../../images/foreignKeys.png" width="11px" height="12px" preserveAspectRatio="xMinYMin meet" x="13.5" y="-268.7"/>
<text text-anchor="start" x="28.5" y="-258.8" font-family="Helvetica,sans-Serif" font-size="11.00" fill="#000000">providerID</text>
<polygon fill="none" stroke="#000000" points="8.5,-229.7 8.5,-251.7 285.5,-251.7 285.5,-229.7 8.5,-229.7"/>
<image xlink:href="../../images/foreignKeys.png" width="11px" height="12px" preserveAspectRatio="xMinYMin meet" x="13.5" y="-246.7"/>
<text text-anchor="start" x="28.5" y="-236.8" font-family="Helvetica,sans-Serif" font-size="11.00" fill="#000000">ref_providerID</text>
<polygon fill="none" stroke="#000000" points="8.5,-207.7 8.5,-229.7 285.5,-229.7 285.5,-207.7 8.5,-207.7"/>
<image xlink:href="../../images/foreignKeys.png" width="11px" height="12px" preserveAspectRatio="xMinYMin meet" x="13.5" y="-224.7"/>
<text text-anchor="start" x="28.5" y="-214.8" font-family="Helvetica,sans-Serif" font-size="11.00" fill="#000000">interpreter_needed</text>
<polygon fill="none" stroke="#000000" points="8.5,-185.7 8.5,-207.7 285.5,-207.7 285.5,-185.7 8.5,-185.7"/>
<image xlink:href="../../images/primaryKeys.png" width="11px" height="12px" preserveAspectRatio="xMinYMin meet" x="13.5" y="-202.7"/>
<text text-anchor="start" x="28.5" y="-192.8" font-family="Helvetica,sans-Serif" font-size="11.00" fill="#000000">pid</text>
<polygon fill="none" stroke="#000000" points="8.5,-163.7 8.5,-185.7 285.5,-185.7 285.5,-163.7 8.5,-163.7"/>
<image xlink:href="../../images/foreignKeys.png" width="11px" height="12px" preserveAspectRatio="xMinYMin meet" x="13.5" y="-180.7"/>
<text text-anchor="start" x="28.5" y="-170.8" font-family="Helvetica,sans-Serif" font-size="11.00" fill="#000000">advance_directive_user_authenticator</text>
<polygon fill="none" stroke="#000000" points="8.5,-141.7 8.5,-163.7 285.5,-163.7 285.5,-141.7 8.5,-141.7"/>
<image xlink:href="../../images/foreignKeys.png" width="11px" height="12px" preserveAspectRatio="xMinYMin meet" x="13.5" y="-158.7"/>
<text text-anchor="start" x="28.5" y="-148.8" font-family="Helvetica,sans-Serif" font-size="11.00" fill="#000000">created_by</text>
<polygon fill="none" stroke="#000000" points="8.5,-119.7 8.5,-141.7 285.5,-141.7 285.5,-119.7 8.5,-119.7"/>
<image xlink:href="../../images/foreignKeys.png" width="11px" height="12px" preserveAspectRatio="xMinYMin meet" x="13.5" y="-136.7"/>
<text text-anchor="start" x="28.5" y="-126.8" font-family="Helvetica,sans-Serif" font-size="11.00" fill="#000000">updated_by</text>
<polygon fill="none" stroke="#000000" points="8.5,-97.7 8.5,-119.7 285.5,-119.7 285.5,-97.7 8.5,-97.7"/>
<image xlink:href="../../images/foreignKeys.png" width="11px" height="12px" preserveAspectRatio="xMinYMin meet" x="13.5" y="-114.7"/>
<text text-anchor="start" x="28.5" y="-104.8" font-family="Helvetica,sans-Serif" font-size="11.00" fill="#000000">tribal_affiliations</text>
<polygon fill="none" stroke="#000000" points="8.5,-75.7 8.5,-97.7 285.5,-97.7 285.5,-75.7 8.5,-75.7"/>
<image xlink:href="../../images/foreignKeys.png" width="11px" height="12px" preserveAspectRatio="xMinYMin meet" x="13.5" y="-92.7"/>
<text text-anchor="start" x="28.5" y="-82.8" font-family="Helvetica,sans-Serif" font-size="11.00" fill="#000000">sex_identified</text>
<polygon fill="none" stroke="#000000" points="8.5,-56.7 8.5,-75.7 285.5,-75.7 285.5,-56.7 8.5,-56.7"/>
<text text-anchor="start" x="11.5" y="-62.8" font-family="Helvetica,sans-Serif" font-size="11.00" fill="#000000">...</text>
<polygon fill="#ffffff" stroke="transparent" points="8.5,-37.7 8.5,-56.7 137.5,-56.7 137.5,-37.7 8.5,-37.7"/>
<polygon fill="none" stroke="#000000" points="8.5,-37.7 8.5,-56.7 137.5,-56.7 137.5,-37.7 8.5,-37.7"/>
<text text-anchor="start" x="11.5" y="-43.8" font-family="Helvetica,sans-Serif" font-size="11.00" fill="#000000">&lt; 9</text>
<polygon fill="#ffffff" stroke="transparent" points="137.5,-37.7 137.5,-56.7 203.5,-56.7 203.5,-37.7 137.5,-37.7"/>
<polygon fill="none" stroke="#000000" points="137.5,-37.7 137.5,-56.7 203.5,-56.7 203.5,-37.7 137.5,-37.7"/>
<text text-anchor="start" x="194.3862" y="-43.8" font-family="Helvetica,sans-Serif" font-size="11.00" fill="#000000"> &#160;</text>
<polygon fill="#ffffff" stroke="transparent" points="203.5,-37.7 203.5,-56.7 285.5,-56.7 285.5,-37.7 203.5,-37.7"/>
<polygon fill="none" stroke="#000000" points="203.5,-37.7 203.5,-56.7 285.5,-56.7 285.5,-37.7 203.5,-37.7"/>
<text text-anchor="start" x="260.7904" y="-43.8" font-family="Helvetica,sans-Serif" font-size="11.00" fill="#000000">95 &gt;</text>
</a>
</g>
</g>
<!-- external_encounters&#45;&gt;patient_data -->
<g id="edge1" class="edge">
<title>external_encounters:w&#45;&gt;patient_data:e</title>
<path fill="none" stroke="#000000" d="M321.776,-196.7C309.7815,-196.7 302.3229,-196.7 285.5,-196.7"/>
<polygon fill="#000000" stroke="#000000" points="328.5,-196.7001 336.5,-200.3 332.5,-196.7 336.5,-196.7 336.5,-196.7 336.5,-196.7 332.5,-196.7 336.5,-193.1 328.5,-196.7001 328.5,-196.7001"/>
<ellipse fill="none" stroke="#000000" cx="325.3" cy="-196.7001" rx="3.2" ry="3.2"/>
</g>
</g>
</svg>
