<?xml version="1.0" encoding="UTF-8" standalone="no"?>
<!DOCTYPE svg PUBLIC "-//W3C//DTD SVG 1.1//EN"
 "http://www.w3.org/Graphics/SVG/1.1/DTD/svg11.dtd">
<!-- Generated by graphviz version 2.40.1 (20161225.0304)
 -->
<!-- Title: oneDegreeRelationshipsDiagram Pages: 1 -->
<svg width="881pt" height="441pt"
 viewBox="0.00 0.00 881.00 441.20" xmlns="http://www.w3.org/2000/svg" xmlns:xlink="http://www.w3.org/1999/xlink">
<g id="graph0" class="graph" transform="scale(1 1) rotate(0) translate(4 437.2)">
<title>oneDegreeRelationshipsDiagram</title>
<polygon fill="#ffffff" stroke="transparent" points="-4,4 -4,-437.2 877,-437.2 877,4 -4,4"/>
<text text-anchor="middle" x="72.4936" y="-7.3" font-family="Helvetica,sans-Serif" font-size="11.00" fill="#000000">Generated by SchemaSpy</text>
<!-- external_procedures -->
<g id="node1" class="node">
<title>external_procedures</title>
<g id="a_node1"><a xlink:href="../../tables/external_procedures.html" xlink:title="external_procedures" target="_top">
<polygon fill="#ffffff" stroke="transparent" points="591,-76.7 591,-320.7 865,-320.7 865,-76.7 591,-76.7"/>
<polygon fill="#f5f5f5" stroke="transparent" points="593,-295.7 593,-318.7 863,-318.7 863,-295.7 593,-295.7"/>
<polygon fill="none" stroke="#000000" points="593,-295.7 593,-318.7 863,-318.7 863,-295.7 593,-295.7"/>
<text text-anchor="start" x="598" y="-304.3" font-family="Helvetica,sans-Serif" font-weight="bold" font-size="11.00" fill="#000000">external_procedures</text>
<text text-anchor="start" x="828.0437" y="-303.8" font-family="Helvetica,sans-Serif" font-size="11.00" fill="#000000">[table]</text>
<polygon fill="none" stroke="#000000" points="593,-273.7 593,-295.7 752,-295.7 752,-273.7 593,-273.7"/>
<image xlink:href="../../images/primaryKeys.png" width="11px" height="12px" preserveAspectRatio="xMinYMin meet" x="598" y="-290.7"/>
<text text-anchor="start" x="613" y="-280.8" font-family="Helvetica,sans-Serif" font-size="11.00" fill="#000000">ep_id</text>
<polygon fill="none" stroke="#000000" points="752,-273.7 752,-295.7 863,-295.7 863,-273.7 752,-273.7"/>
<text text-anchor="start" x="755" y="-281.4" font-family="Helvetica,sans-Serif" font-size="11.00" fill="#000000">int[10]</text>
<polygon fill="none" stroke="#000000" points="593,-251.7 593,-273.7 752,-273.7 752,-251.7 593,-251.7"/>
<text text-anchor="start" x="613" y="-258.8" font-family="Helvetica,sans-Serif" font-size="11.00" fill="#000000">ep_date</text>
<polygon fill="none" stroke="#000000" points="752,-251.7 752,-273.7 863,-273.7 863,-251.7 752,-251.7"/>
<text text-anchor="start" x="755" y="-259.4" font-family="Helvetica,sans-Serif" font-size="11.00" fill="#000000">date[10]</text>
<polygon fill="none" stroke="#000000" points="593,-229.7 593,-251.7 752,-251.7 752,-229.7 593,-229.7"/>
<text text-anchor="start" x="613" y="-236.8" font-family="Helvetica,sans-Serif" font-size="11.00" fill="#000000">ep_code_type</text>
<polygon fill="none" stroke="#000000" points="752,-229.7 752,-251.7 863,-251.7 863,-229.7 752,-229.7"/>
<text text-anchor="start" x="755" y="-237.4" font-family="Helvetica,sans-Serif" font-size="11.00" fill="#000000">varchar[20]</text>
<polygon fill="none" stroke="#000000" points="593,-207.7 593,-229.7 752,-229.7 752,-207.7 593,-207.7"/>
<text text-anchor="start" x="613" y="-214.8" font-family="Helvetica,sans-Serif" font-size="11.00" fill="#000000">ep_code</text>
<polygon fill="none" stroke="#000000" points="752,-207.7 752,-229.7 863,-229.7 863,-207.7 752,-207.7"/>
<text text-anchor="start" x="755" y="-215.4" font-family="Helvetica,sans-Serif" font-size="11.00" fill="#000000">varchar[9]</text>
<polygon fill="#ffffff" stroke="transparent" points="593,-185.7 593,-207.7 752,-207.7 752,-185.7 593,-185.7"/>
<polygon fill="none" stroke="#000000" points="593,-185.7 593,-207.7 752,-207.7 752,-185.7 593,-185.7"/>
<image xlink:href="../../images/foreignKeys.png" width="11px" height="12px" preserveAspectRatio="xMinYMin meet" x="598" y="-202.7"/>
<text text-anchor="start" x="613" y="-192.8" font-family="Helvetica,sans-Serif" font-size="11.00" fill="#000000">ep_pid</text>
<polygon fill="none" stroke="#000000" points="752,-185.7 752,-207.7 863,-207.7 863,-185.7 752,-185.7"/>
<text text-anchor="start" x="755" y="-193.4" font-family="Helvetica,sans-Serif" font-size="11.00" fill="#000000">int[10]</text>
<polygon fill="none" stroke="#000000" points="593,-163.7 593,-185.7 752,-185.7 752,-163.7 593,-163.7"/>
<image xlink:href="../../images/foreignKeys.png" width="11px" height="12px" preserveAspectRatio="xMinYMin meet" x="598" y="-180.7"/>
<text text-anchor="start" x="613" y="-170.8" font-family="Helvetica,sans-Serif" font-size="11.00" fill="#000000">ep_encounter</text>
<polygon fill="none" stroke="#000000" points="752,-163.7 752,-185.7 863,-185.7 863,-163.7 752,-163.7"/>
<text text-anchor="start" x="755" y="-171.4" font-family="Helvetica,sans-Serif" font-size="11.00" fill="#000000">int[10]</text>
<polygon fill="none" stroke="#000000" points="593,-141.7 593,-163.7 752,-163.7 752,-141.7 593,-141.7"/>
<text text-anchor="start" x="613" y="-148.8" font-family="Helvetica,sans-Serif" font-size="11.00" fill="#000000">ep_code_text</text>
<polygon fill="none" stroke="#000000" points="752,-141.7 752,-163.7 863,-163.7 863,-141.7 752,-141.7"/>
<text text-anchor="start" x="754.6115" y="-149.4" font-family="Helvetica,sans-Serif" font-size="11.00" fill="#000000">longtext[2147483647]</text>
<polygon fill="none" stroke="#000000" points="593,-119.7 593,-141.7 752,-141.7 752,-119.7 593,-119.7"/>
<text text-anchor="start" x="613" y="-126.8" font-family="Helvetica,sans-Serif" font-size="11.00" fill="#000000">ep_facility_id</text>
<polygon fill="none" stroke="#000000" points="752,-119.7 752,-141.7 863,-141.7 863,-119.7 752,-119.7"/>
<text text-anchor="start" x="755" y="-127.4" font-family="Helvetica,sans-Serif" font-size="11.00" fill="#000000">varchar[255]</text>
<polygon fill="none" stroke="#000000" points="593,-97.7 593,-119.7 752,-119.7 752,-97.7 593,-97.7"/>
<text text-anchor="start" x="613" y="-104.8" font-family="Helvetica,sans-Serif" font-size="11.00" fill="#000000">ep_external_id</text>
<polygon fill="none" stroke="#000000" points="752,-97.7 752,-119.7 863,-119.7 863,-97.7 752,-97.7"/>
<text text-anchor="start" x="755" y="-105.4" font-family="Helvetica,sans-Serif" font-size="11.00" fill="#000000">varchar[255]</text>
<polygon fill="#ffffff" stroke="transparent" points="593,-78.7 593,-97.7 677,-97.7 677,-78.7 593,-78.7"/>
<polygon fill="none" stroke="#000000" points="593,-78.7 593,-97.7 677,-97.7 677,-78.7 593,-78.7"/>
<text text-anchor="start" x="596" y="-84.8" font-family="Helvetica,sans-Serif" font-size="11.00" fill="#000000">&lt; 2</text>
<polygon fill="#ffffff" stroke="transparent" points="677,-78.7 677,-97.7 752,-97.7 752,-78.7 677,-78.7"/>
<polygon fill="none" stroke="#000000" points="677,-78.7 677,-97.7 752,-97.7 752,-78.7 677,-78.7"/>
<text text-anchor="start" x="742.8862" y="-84.8" font-family="Helvetica,sans-Serif" font-size="11.00" fill="#000000"> &#160;</text>
<polygon fill="#ffffff" stroke="transparent" points="752,-78.7 752,-97.7 863,-97.7 863,-78.7 752,-78.7"/>
<polygon fill="none" stroke="#000000" points="752,-78.7 752,-97.7 863,-97.7 863,-78.7 752,-78.7"/>
<text text-anchor="start" x="844.4053" y="-84.8" font-family="Helvetica,sans-Serif" font-size="11.00" fill="#000000">0 &gt;</text>
<polygon fill="none" stroke="#000000" stroke-width="2" points="592,-77.7 592,-319.7 864,-319.7 864,-77.7 592,-77.7"/>
</a>
</g>
</g>
<!-- form_encounter -->
<g id="node2" class="node">
<title>form_encounter</title>
<g id="a_node2"><a xlink:href="../../tables/form_encounter.html" xlink:title="form_encounter" target="_top">
<polygon fill="#ffffff" stroke="transparent" points="334,-64.2 334,-235.2 542,-235.2 542,-64.2 334,-64.2"/>
<polygon fill="#f5f5f5" stroke="transparent" points="334,-211.7 334,-234.7 542,-234.7 542,-211.7 334,-211.7"/>
<polygon fill="none" stroke="#000000" points="334,-211.7 334,-234.7 542,-234.7 542,-211.7 334,-211.7"/>
<text text-anchor="start" x="339" y="-220.3" font-family="Helvetica,sans-Serif" font-weight="bold" font-size="11.00" fill="#000000">form_encounter</text>
<text text-anchor="start" x="507.0437" y="-219.8" font-family="Helvetica,sans-Serif" font-size="11.00" fill="#000000">[table]</text>
<polygon fill="none" stroke="#000000" points="334,-189.7 334,-211.7 542,-211.7 542,-189.7 334,-189.7"/>
<image xlink:href="../../images/primaryKeys.png" width="11px" height="12px" preserveAspectRatio="xMinYMin meet" x="339" y="-206.7"/>
<text text-anchor="start" x="354" y="-196.8" font-family="Helvetica,sans-Serif" font-size="11.00" fill="#000000">id</text>
<polygon fill="#ffffff" stroke="transparent" points="334,-167.7 334,-189.7 542,-189.7 542,-167.7 334,-167.7"/>
<polygon fill="none" stroke="#000000" points="334,-167.7 334,-189.7 542,-189.7 542,-167.7 334,-167.7"/>
<text text-anchor="start" x="354" y="-174.8" font-family="Helvetica,sans-Serif" font-size="11.00" fill="#000000">uuid</text>
<polygon fill="#ffffff" stroke="transparent" points="334,-145.7 334,-167.7 542,-167.7 542,-145.7 334,-145.7"/>
<polygon fill="none" stroke="#000000" points="334,-145.7 334,-167.7 542,-167.7 542,-145.7 334,-145.7"/>
<text text-anchor="start" x="354" y="-152.8" font-family="Helvetica,sans-Serif" font-size="11.00" fill="#000000">date</text>
<polygon fill="#ffffff" stroke="transparent" points="334,-123.7 334,-145.7 542,-145.7 542,-123.7 334,-123.7"/>
<polygon fill="none" stroke="#000000" points="334,-123.7 334,-145.7 542,-145.7 542,-123.7 334,-123.7"/>
<image xlink:href="../../images/foreignKeys.png" width="11px" height="12px" preserveAspectRatio="xMinYMin meet" x="339" y="-140.7"/>
<text text-anchor="start" x="354" y="-130.8" font-family="Helvetica,sans-Serif" font-size="11.00" fill="#000000">pid</text>
<polygon fill="none" stroke="#000000" points="334,-101.7 334,-123.7 542,-123.7 542,-101.7 334,-101.7"/>
<image xlink:href="../../images/primaryKeys.png" width="11px" height="12px" preserveAspectRatio="xMinYMin meet" x="339" y="-118.7"/>
<text text-anchor="start" x="354" y="-108.8" font-family="Helvetica,sans-Serif" font-size="11.00" fill="#000000">encounter</text>
<polygon fill="none" stroke="#000000" points="334,-82.7 334,-101.7 542,-101.7 542,-82.7 334,-82.7"/>
<text text-anchor="start" x="337" y="-88.8" font-family="Helvetica,sans-Serif" font-size="11.00" fill="#000000">...</text>
<polygon fill="#ffffff" stroke="transparent" points="334,-63.7 334,-82.7 429,-82.7 429,-63.7 334,-63.7"/>
<polygon fill="none" stroke="#000000" points="334,-63.7 334,-82.7 429,-82.7 429,-63.7 334,-63.7"/>
<text text-anchor="start" x="337" y="-69.8" font-family="Helvetica,sans-Serif" font-size="11.00" fill="#000000">&lt; 1</text>
<polygon fill="#ffffff" stroke="transparent" points="429,-63.7 429,-82.7 478,-82.7 478,-63.7 429,-63.7"/>
<polygon fill="none" stroke="#000000" points="429,-63.7 429,-82.7 478,-82.7 478,-63.7 429,-63.7"/>
<text text-anchor="start" x="468.8862" y="-69.8" font-family="Helvetica,sans-Serif" font-size="11.00" fill="#000000"> &#160;</text>
<polygon fill="#ffffff" stroke="transparent" points="478,-63.7 478,-82.7 542,-82.7 542,-63.7 478,-63.7"/>
<polygon fill="none" stroke="#000000" points="478,-63.7 478,-82.7 542,-82.7 542,-63.7 478,-63.7"/>
<text text-anchor="start" x="517.2904" y="-69.8" font-family="Helvetica,sans-Serif" font-size="11.00" fill="#000000">19 &gt;</text>
</a>
</g>
</g>
<!-- external_procedures&#45;&gt;form_encounter -->
<g id="edge1" class="edge">
<title>external_procedures:w&#45;&gt;form_encounter:e</title>
<path fill="none" stroke="#000000" d="M578.9998,-169.835C562.6631,-155.219 571.5478,-112.7 542,-112.7"/>
<polygon fill="#000000" stroke="#000000" points="585.4433,-172.074 591.8183,-178.1005 589.2216,-173.387 593,-174.7 593,-174.7 593,-174.7 589.2216,-173.387 594.1817,-171.2995 585.4433,-172.074 585.4433,-172.074"/>
<ellipse fill="none" stroke="#000000" cx="582.4206" cy="-171.0236" rx="3.2" ry="3.2"/>
</g>
<!-- patient_data -->
<g id="node3" class="node">
<title>patient_data</title>
<g id="a_node3"><a xlink:href="../../tables/patient_data.html" xlink:title="patient_data" target="_top">
<polygon fill="#ffffff" stroke="transparent" points="8,-38.2 8,-429.2 285,-429.2 285,-38.2 8,-38.2"/>
<polygon fill="#f5f5f5" stroke="transparent" points="8.5,-405.7 8.5,-428.7 285.5,-428.7 285.5,-405.7 8.5,-405.7"/>
<polygon fill="none" stroke="#000000" points="8.5,-405.7 8.5,-428.7 285.5,-428.7 285.5,-405.7 8.5,-405.7"/>
<text text-anchor="start" x="13.5" y="-414.3" font-family="Helvetica,sans-Serif" font-weight="bold" font-size="11.00" fill="#000000">patient_data</text>
<text text-anchor="start" x="250.5437" y="-413.8" font-family="Helvetica,sans-Serif" font-size="11.00" fill="#000000">[table]</text>
<polygon fill="none" stroke="#000000" points="8.5,-383.7 8.5,-405.7 285.5,-405.7 285.5,-383.7 8.5,-383.7"/>
<image xlink:href="../../images/primaryKeys.png" width="11px" height="12px" preserveAspectRatio="xMinYMin meet" x="13.5" y="-400.7"/>
<text text-anchor="start" x="28.5" y="-390.8" font-family="Helvetica,sans-Serif" font-size="11.00" fill="#000000">id</text>
<polygon fill="#ffffff" stroke="transparent" points="8.5,-361.7 8.5,-383.7 285.5,-383.7 285.5,-361.7 8.5,-361.7"/>
<polygon fill="none" stroke="#000000" points="8.5,-361.7 8.5,-383.7 285.5,-383.7 285.5,-361.7 8.5,-361.7"/>
<text text-anchor="start" x="28.5" y="-368.8" font-family="Helvetica,sans-Serif" font-size="11.00" fill="#000000">uuid</text>
<polygon fill="#ffffff" stroke="transparent" points="8.5,-339.7 8.5,-361.7 285.5,-361.7 285.5,-339.7 8.5,-339.7"/>
<polygon fill="none" stroke="#000000" points="8.5,-339.7 8.5,-361.7 285.5,-361.7 285.5,-339.7 8.5,-339.7"/>
<text text-anchor="start" x="28.5" y="-346.8" font-family="Helvetica,sans-Serif" font-size="11.00" fill="#000000">fname</text>
<polygon fill="#ffffff" stroke="transparent" points="8.5,-317.7 8.5,-339.7 285.5,-339.7 285.5,-317.7 8.5,-317.7"/>
<polygon fill="none" stroke="#000000" points="8.5,-317.7 8.5,-339.7 285.5,-339.7 285.5,-317.7 8.5,-317.7"/>
<text text-anchor="start" x="28.5" y="-324.8" font-family="Helvetica,sans-Serif" font-size="11.00" fill="#000000">lname</text>
<polygon fill="#ffffff" stroke="transparent" points="8.5,-295.7 8.5,-317.7 285.5,-317.7 285.5,-295.7 8.5,-295.7"/>
<polygon fill="none" stroke="#000000" points="8.5,-295.7 8.5,-317.7 285.5,-317.7 285.5,-295.7 8.5,-295.7"/>
<text text-anchor="start" x="28.5" y="-302.8" font-family="Helvetica,sans-Serif" font-size="11.00" fill="#000000">DOB</text>
<polygon fill="none" stroke="#000000" points="8.5,-273.7 8.5,-295.7 285.5,-295.7 285.5,-273.7 8.5,-273.7"/>
<image xlink:href="../../images/foreignKeys.png" width="11px" height="12px" preserveAspectRatio="xMinYMin meet" x="13.5" y="-290.7"/>
<text text-anchor="start" x="28.5" y="-280.8" font-family="Helvetica,sans-Serif" font-size="11.00" fill="#000000">pharmacy_id</text>
<polygon fill="none" stroke="#000000" points="8.5,-251.7 8.5,-273.7 285.5,-273.7 285.5,-251.7 8.5,-251.7"/>
<image xlink:href="../../images/foreignKeys.png" width="11px" height="12px" preserveAspectRatio="xMinYMin meet" x="13.5" y="-268.7"/>
<text text-anchor="start" x="28.5" y="-258.8" font-family="Helvetica,sans-Serif" font-size="11.00" fill="#000000">providerID</text>
<polygon fill="none" stroke="#000000" points="8.5,-229.7 8.5,-251.7 285.5,-251.7 285.5,-229.7 8.5,-229.7"/>
<image xlink:href="../../images/foreignKeys.png" width="11px" height="12px" preserveAspectRatio="xMinYMin meet" x="13.5" y="-246.7"/>
<text text-anchor="start" x="28.5" y="-236.8" font-family="Helvetica,sans-Serif" font-size="11.00" fill="#000000">ref_providerID</text>
<polygon fill="none" stroke="#000000" points="8.5,-207.7 8.5,-229.7 285.5,-229.7 285.5,-207.7 8.5,-207.7"/>
<image xlink:href="../../images/foreignKeys.png" width="11px" height="12px" preserveAspectRatio="xMinYMin meet" x="13.5" y="-224.7"/>
<text text-anchor="start" x="28.5" y="-214.8" font-family="Helvetica,sans-Serif" font-size="11.00" fill="#000000">interpreter_needed</text>
<polygon fill="none" stroke="#000000" points="8.5,-185.7 8.5,-207.7 285.5,-207.7 285.5,-185.7 8.5,-185.7"/>
<image xlink:href="../../images/primaryKeys.png" width="11px" height="12px" preserveAspectRatio="xMinYMin meet" x="13.5" y="-202.7"/>
<text text-anchor="start" x="28.5" y="-192.8" font-family="Helvetica,sans-Serif" font-size="11.00" fill="#000000">pid</text>
<polygon fill="none" stroke="#000000" points="8.5,-163.7 8.5,-185.7 285.5,-185.7 285.5,-163.7 8.5,-163.7"/>
<image xlink:href="../../images/foreignKeys.png" width="11px" height="12px" preserveAspectRatio="xMinYMin meet" x="13.5" y="-180.7"/>
<text text-anchor="start" x="28.5" y="-170.8" font-family="Helvetica,sans-Serif" font-size="11.00" fill="#000000">advance_directive_user_authenticator</text>
<polygon fill="none" stroke="#000000" points="8.5,-141.7 8.5,-163.7 285.5,-163.7 285.5,-141.7 8.5,-141.7"/>
<image xlink:href="../../images/foreignKeys.png" width="11px" height="12px" preserveAspectRatio="xMinYMin meet" x="13.5" y="-158.7"/>
<text text-anchor="start" x="28.5" y="-148.8" font-family="Helvetica,sans-Serif" font-size="11.00" fill="#000000">created_by</text>
<polygon fill="none" stroke="#000000" points="8.5,-119.7 8.5,-141.7 285.5,-141.7 285.5,-119.7 8.5,-119.7"/>
<image xlink:href="../../images/foreignKeys.png" width="11px" height="12px" preserveAspectRatio="xMinYMin meet" x="13.5" y="-136.7"/>
<text text-anchor="start" x="28.5" y="-126.8" font-family="Helvetica,sans-Serif" font-size="11.00" fill="#000000">updated_by</text>
<polygon fill="none" stroke="#000000" points="8.5,-97.7 8.5,-119.7 285.5,-119.7 285.5,-97.7 8.5,-97.7"/>
<image xlink:href="../../images/foreignKeys.png" width="11px" height="12px" preserveAspectRatio="xMinYMin meet" x="13.5" y="-114.7"/>
<text text-anchor="start" x="28.5" y="-104.8" font-family="Helvetica,sans-Serif" font-size="11.00" fill="#000000">tribal_affiliations</text>
<polygon fill="none" stroke="#000000" points="8.5,-75.7 8.5,-97.7 285.5,-97.7 285.5,-75.7 8.5,-75.7"/>
<image xlink:href="../../images/foreignKeys.png" width="11px" height="12px" preserveAspectRatio="xMinYMin meet" x="13.5" y="-92.7"/>
<text text-anchor="start" x="28.5" y="-82.8" font-family="Helvetica,sans-Serif" font-size="11.00" fill="#000000">sex_identified</text>
<polygon fill="none" stroke="#000000" points="8.5,-56.7 8.5,-75.7 285.5,-75.7 285.5,-56.7 8.5,-56.7"/>
<text text-anchor="start" x="11.5" y="-62.8" font-family="Helvetica,sans-Serif" font-size="11.00" fill="#000000">...</text>
<polygon fill="#ffffff" stroke="transparent" points="8.5,-37.7 8.5,-56.7 137.5,-56.7 137.5,-37.7 8.5,-37.7"/>
<polygon fill="none" stroke="#000000" points="8.5,-37.7 8.5,-56.7 137.5,-56.7 137.5,-37.7 8.5,-37.7"/>
<text text-anchor="start" x="11.5" y="-43.8" font-family="Helvetica,sans-Serif" font-size="11.00" fill="#000000">&lt; 9</text>
<polygon fill="#ffffff" stroke="transparent" points="137.5,-37.7 137.5,-56.7 203.5,-56.7 203.5,-37.7 137.5,-37.7"/>
<polygon fill="none" stroke="#000000" points="137.5,-37.7 137.5,-56.7 203.5,-56.7 203.5,-37.7 137.5,-37.7"/>
<text text-anchor="start" x="194.3862" y="-43.8" font-family="Helvetica,sans-Serif" font-size="11.00" fill="#000000"> &#160;</text>
<polygon fill="#ffffff" stroke="transparent" points="203.5,-37.7 203.5,-56.7 285.5,-56.7 285.5,-37.7 203.5,-37.7"/>
<polygon fill="none" stroke="#000000" points="203.5,-37.7 203.5,-56.7 285.5,-56.7 285.5,-37.7 203.5,-37.7"/>
<text text-anchor="start" x="260.7904" y="-43.8" font-family="Helvetica,sans-Serif" font-size="11.00" fill="#000000">95 &gt;</text>
</a>
</g>
</g>
<!-- external_procedures&#45;&gt;patient_data -->
<g id="edge2" class="edge">
<title>external_procedures:w&#45;&gt;patient_data:e</title>
<path fill="none" stroke="#000000" d="M579.082,-201.3677C567.5819,-211.7071 570.6199,-236.3613 550,-245.7 459.3118,-286.7726 416.0712,-288.1085 326,-245.7 300.4379,-233.6645 313.7537,-196.7 285.5,-196.7"/>
<polygon fill="#000000" stroke="#000000" points="585.4152,-199.2438 594.1447,-200.1132 589.2076,-197.9719 593,-196.7 593,-196.7 593,-196.7 589.2076,-197.9719 591.8553,-193.2868 585.4152,-199.2438 585.4152,-199.2438"/>
<ellipse fill="none" stroke="#000000" cx="582.3813" cy="-200.2613" rx="3.2" ry="3.2"/>
</g>
<!-- form_encounter&#45;&gt;patient_data -->
<g id="edge3" class="edge">
<title>form_encounter:w&#45;&gt;patient_data:e</title>
<path fill="none" stroke="#000000" d="M320.3908,-139.565C304.7276,-154.181 314.472,-196.7 285.5,-196.7"/>
<polygon fill="#000000" stroke="#000000" points="326.4669,-137.393 335.2118,-138.0899 330.2334,-136.0465 334,-134.7 334,-134.7 334,-134.7 330.2334,-136.0465 332.7882,-131.3101 326.4669,-137.393 326.4669,-137.393"/>
<ellipse fill="none" stroke="#000000" cx="323.4536" cy="-138.4702" rx="3.2" ry="3.2"/>
</g>
</g>
</svg>
