<?xml version="1.0" encoding="UTF-8" standalone="no"?>
<!DOCTYPE svg PUBLIC "-//W3C//DTD SVG 1.1//EN"
 "http://www.w3.org/Graphics/SVG/1.1/DTD/svg11.dtd">
<!-- Generated by graphviz version 2.40.1 (20161225.0304)
 -->
<!-- Title: oneDegreeRelationshipsDiagram Pages: 1 -->
<svg width="613pt" height="413pt"
 viewBox="0.00 0.00 613.00 413.20" xmlns="http://www.w3.org/2000/svg" xmlns:xlink="http://www.w3.org/1999/xlink">
<g id="graph0" class="graph" transform="scale(1 1) rotate(0) translate(4 409.2)">
<title>oneDegreeRelationshipsDiagram</title>
<polygon fill="#ffffff" stroke="transparent" points="-4,4 -4,-409.2 609,-409.2 609,4 -4,4"/>
<text text-anchor="middle" x="72.4936" y="-7.3" font-family="Helvetica,sans-Serif" font-size="11.00" fill="#000000">Generated by SchemaSpy</text>
<!-- form_vitals_calculation_form_vitals -->
<g id="node1" class="node">
<title>form_vitals_calculation_form_vitals</title>
<g id="a_node1"><a xlink:href="../../tables/form_vitals_calculation_form_vitals.html" xlink:title="form_vitals_calculation_form_vitals" target="_top">
<polygon fill="#ffffff" stroke="transparent" points="283,-216.7 283,-306.7 597,-306.7 597,-216.7 283,-216.7"/>
<polygon fill="#f5f5f5" stroke="transparent" points="285,-281.7 285,-304.7 595,-304.7 595,-281.7 285,-281.7"/>
<polygon fill="none" stroke="#000000" points="285,-281.7 285,-304.7 595,-304.7 595,-281.7 285,-281.7"/>
<text text-anchor="start" x="290" y="-290.3" font-family="Helvetica,sans-Serif" font-weight="bold" font-size="11.00" fill="#000000">form_vitals_calculation_form_vitals</text>
<text text-anchor="start" x="560.0437" y="-289.8" font-family="Helvetica,sans-Serif" font-size="11.00" fill="#000000">[table]</text>
<polygon fill="none" stroke="#000000" points="285,-259.7 285,-281.7 541,-281.7 541,-259.7 285,-259.7"/>
<image xlink:href="../../images/primaryKeys.png" width="11px" height="12px" preserveAspectRatio="xMinYMin meet" x="290" y="-276.7"/>
<text text-anchor="start" x="305" y="-266.8" font-family="Helvetica,sans-Serif" font-size="11.00" fill="#000000">fvc_uuid</text>
<polygon fill="none" stroke="#000000" points="541,-259.7 541,-281.7 595,-281.7 595,-259.7 541,-259.7"/>
<text text-anchor="start" x="543.8545" y="-267.4" font-family="Helvetica,sans-Serif" font-size="11.00" fill="#000000">binary[16]</text>
<polygon fill="none" stroke="#000000" points="285,-237.7 285,-259.7 541,-259.7 541,-237.7 285,-237.7"/>
<image xlink:href="../../images/primaryKeys.png" width="11px" height="12px" preserveAspectRatio="xMinYMin meet" x="290" y="-254.7"/>
<text text-anchor="start" x="305" y="-244.8" font-family="Helvetica,sans-Serif" font-size="11.00" fill="#000000">vitals_id</text>
<polygon fill="none" stroke="#000000" points="541,-237.7 541,-259.7 595,-259.7 595,-237.7 541,-237.7"/>
<text text-anchor="start" x="544" y="-245.4" font-family="Helvetica,sans-Serif" font-size="11.00" fill="#000000">bigint[19]</text>
<polygon fill="#ffffff" stroke="transparent" points="285,-218.7 285,-237.7 417,-237.7 417,-218.7 285,-218.7"/>
<polygon fill="none" stroke="#000000" points="285,-218.7 285,-237.7 417,-237.7 417,-218.7 285,-218.7"/>
<text text-anchor="start" x="288" y="-224.8" font-family="Helvetica,sans-Serif" font-size="11.00" fill="#000000">&lt; 2</text>
<polygon fill="#ffffff" stroke="transparent" points="417,-218.7 417,-237.7 541,-237.7 541,-218.7 417,-218.7"/>
<polygon fill="none" stroke="#000000" points="417,-218.7 417,-237.7 541,-237.7 541,-218.7 417,-218.7"/>
<text text-anchor="start" x="531.8862" y="-224.8" font-family="Helvetica,sans-Serif" font-size="11.00" fill="#000000"> &#160;</text>
<polygon fill="#ffffff" stroke="transparent" points="541,-218.7 541,-237.7 595,-237.7 595,-218.7 541,-218.7"/>
<polygon fill="none" stroke="#000000" points="541,-218.7 541,-237.7 595,-237.7 595,-218.7 541,-218.7"/>
<text text-anchor="start" x="576.4053" y="-224.8" font-family="Helvetica,sans-Serif" font-size="11.00" fill="#000000">0 &gt;</text>
<polygon fill="none" stroke="#000000" stroke-width="2" points="284,-217.7 284,-305.7 596,-305.7 596,-217.7 284,-217.7"/>
</a>
</g>
</g>
<!-- form_vitals_calculation -->
<g id="node2" class="node">
<title>form_vitals_calculation</title>
<g id="a_node2"><a xlink:href="../../tables/form_vitals_calculation.html" xlink:title="form_vitals_calculation" target="_top">
<polygon fill="#ffffff" stroke="transparent" points="24.5,-230.2 24.5,-401.2 217.5,-401.2 217.5,-230.2 24.5,-230.2"/>
<polygon fill="#f5f5f5" stroke="transparent" points="25,-377.7 25,-400.7 218,-400.7 218,-377.7 25,-377.7"/>
<polygon fill="none" stroke="#000000" points="25,-377.7 25,-400.7 218,-400.7 218,-377.7 25,-377.7"/>
<text text-anchor="start" x="30" y="-386.3" font-family="Helvetica,sans-Serif" font-weight="bold" font-size="11.00" fill="#000000">form_vitals_calculation</text>
<text text-anchor="start" x="183.5219" y="-385.8" font-family="Helvetica,sans-Serif" font-size="11.00" fill="#000000">[table]</text>
<polygon fill="none" stroke="#000000" points="25,-355.7 25,-377.7 218,-377.7 218,-355.7 25,-355.7"/>
<image xlink:href="../../images/primaryKeys.png" width="11px" height="12px" preserveAspectRatio="xMinYMin meet" x="30" y="-372.7"/>
<text text-anchor="start" x="54" y="-362.8" font-family="Helvetica,sans-Serif" font-size="11.00" fill="#000000">id</text>
<polygon fill="none" stroke="#000000" points="25,-333.7 25,-355.7 218,-355.7 218,-333.7 25,-333.7"/>
<image xlink:href="../../images/primaryKeys.png" width="11px" height="12px" preserveAspectRatio="xMinYMin meet" x="30" y="-350.7"/>
<text text-anchor="start" x="54" y="-340.8" font-family="Helvetica,sans-Serif" font-size="11.00" fill="#000000">uuid</text>
<polygon fill="#ffffff" stroke="transparent" points="25,-311.7 25,-333.7 218,-333.7 218,-311.7 25,-311.7"/>
<polygon fill="none" stroke="#000000" points="25,-311.7 25,-333.7 218,-333.7 218,-311.7 25,-311.7"/>
<image xlink:href="../../images/foreignKeys.png" width="11px" height="12px" preserveAspectRatio="xMinYMin meet" x="30" y="-328.7"/>
<text text-anchor="start" x="54" y="-318.8" font-family="Helvetica,sans-Serif" font-size="11.00" fill="#000000">encounter</text>
<polygon fill="#ffffff" stroke="transparent" points="25,-289.7 25,-311.7 218,-311.7 218,-289.7 25,-289.7"/>
<polygon fill="none" stroke="#000000" points="25,-289.7 25,-311.7 218,-311.7 218,-289.7 25,-289.7"/>
<image xlink:href="../../images/foreignKeys.png" width="11px" height="12px" preserveAspectRatio="xMinYMin meet" x="30" y="-306.7"/>
<text text-anchor="start" x="54" y="-296.8" font-family="Helvetica,sans-Serif" font-size="11.00" fill="#000000">pid</text>
<polygon fill="#ffffff" stroke="transparent" points="25,-267.7 25,-289.7 218,-289.7 218,-267.7 25,-267.7"/>
<polygon fill="none" stroke="#000000" points="25,-267.7 25,-289.7 218,-289.7 218,-267.7 25,-267.7"/>
<text text-anchor="start" x="54" y="-274.8" font-family="Helvetica,sans-Serif" font-size="11.00" fill="#000000">calculation_id</text>
<polygon fill="none" stroke="#000000" points="25,-248.7 25,-267.7 218,-267.7 218,-248.7 25,-248.7"/>
<text text-anchor="start" x="28" y="-254.8" font-family="Helvetica,sans-Serif" font-size="11.00" fill="#000000">...</text>
<polygon fill="#ffffff" stroke="transparent" points="25,-229.7 25,-248.7 115,-248.7 115,-229.7 25,-229.7"/>
<polygon fill="none" stroke="#000000" points="25,-229.7 25,-248.7 115,-248.7 115,-229.7 25,-229.7"/>
<text text-anchor="start" x="28" y="-235.8" font-family="Helvetica,sans-Serif" font-size="11.00" fill="#000000">&lt; 2</text>
<polygon fill="#ffffff" stroke="transparent" points="115,-229.7 115,-248.7 162,-248.7 162,-229.7 115,-229.7"/>
<polygon fill="none" stroke="#000000" points="115,-229.7 115,-248.7 162,-248.7 162,-229.7 115,-229.7"/>
<text text-anchor="start" x="152.8862" y="-235.8" font-family="Helvetica,sans-Serif" font-size="11.00" fill="#000000"> &#160;</text>
<polygon fill="#ffffff" stroke="transparent" points="162,-229.7 162,-248.7 218,-248.7 218,-229.7 162,-229.7"/>
<polygon fill="none" stroke="#000000" points="162,-229.7 162,-248.7 218,-248.7 218,-229.7 162,-229.7"/>
<text text-anchor="start" x="199.4053" y="-235.8" font-family="Helvetica,sans-Serif" font-size="11.00" fill="#000000">2 &gt;</text>
</a>
</g>
</g>
<!-- form_vitals_calculation_form_vitals&#45;&gt;form_vitals_calculation -->
<g id="edge1" class="edge">
<title>form_vitals_calculation_form_vitals:w&#45;&gt;form_vitals_calculation:e</title>
<path fill="none" stroke="#000000" d="M270.8545,-274.0719C245.1381,-288.5485 256.6475,-344.7 218,-344.7"/>
<polygon fill="#000000" stroke="#000000" points="277.218,-272.5551 285.8348,-274.2019 281.109,-271.6275 285,-270.7 285,-270.7 285,-270.7 281.109,-271.6275 284.1652,-267.1981 277.218,-272.5551 277.218,-272.5551"/>
<ellipse fill="none" stroke="#000000" cx="274.1053" cy="-273.2971" rx="3.2" ry="3.2"/>
</g>
<!-- form_vitals -->
<g id="node3" class="node">
<title>form_vitals</title>
<g id="a_node3"><a xlink:href="../../tables/form_vitals.html" xlink:title="form_vitals" target="_top">
<polygon fill="#ffffff" stroke="transparent" points="8,-38.2 8,-209.2 234,-209.2 234,-38.2 8,-38.2"/>
<polygon fill="#f5f5f5" stroke="transparent" points="8,-185.7 8,-208.7 234,-208.7 234,-185.7 8,-185.7"/>
<polygon fill="none" stroke="#000000" points="8,-185.7 8,-208.7 234,-208.7 234,-185.7 8,-185.7"/>
<text text-anchor="start" x="13" y="-194.3" font-family="Helvetica,sans-Serif" font-weight="bold" font-size="11.00" fill="#000000">form_vitals</text>
<text text-anchor="start" x="199.0437" y="-193.8" font-family="Helvetica,sans-Serif" font-size="11.00" fill="#000000">[table]</text>
<polygon fill="none" stroke="#000000" points="8,-163.7 8,-185.7 234,-185.7 234,-163.7 8,-163.7"/>
<image xlink:href="../../images/primaryKeys.png" width="11px" height="12px" preserveAspectRatio="xMinYMin meet" x="13" y="-180.7"/>
<text text-anchor="start" x="28" y="-170.8" font-family="Helvetica,sans-Serif" font-size="11.00" fill="#000000">id</text>
<polygon fill="#ffffff" stroke="transparent" points="8,-141.7 8,-163.7 234,-163.7 234,-141.7 8,-141.7"/>
<polygon fill="none" stroke="#000000" points="8,-141.7 8,-163.7 234,-163.7 234,-141.7 8,-141.7"/>
<text text-anchor="start" x="28" y="-148.8" font-family="Helvetica,sans-Serif" font-size="11.00" fill="#000000">uuid</text>
<polygon fill="#ffffff" stroke="transparent" points="8,-119.7 8,-141.7 234,-141.7 234,-119.7 8,-119.7"/>
<polygon fill="none" stroke="#000000" points="8,-119.7 8,-141.7 234,-141.7 234,-119.7 8,-119.7"/>
<image xlink:href="../../images/foreignKeys.png" width="11px" height="12px" preserveAspectRatio="xMinYMin meet" x="13" y="-136.7"/>
<text text-anchor="start" x="28" y="-126.8" font-family="Helvetica,sans-Serif" font-size="11.00" fill="#000000">pid</text>
<polygon fill="none" stroke="#000000" points="8,-97.7 8,-119.7 234,-119.7 234,-97.7 8,-97.7"/>
<image xlink:href="../../images/foreignKeys.png" width="11px" height="12px" preserveAspectRatio="xMinYMin meet" x="13" y="-114.7"/>
<text text-anchor="start" x="28" y="-104.8" font-family="Helvetica,sans-Serif" font-size="11.00" fill="#000000">user</text>
<polygon fill="none" stroke="#000000" points="8,-75.7 8,-97.7 234,-97.7 234,-75.7 8,-75.7"/>
<image xlink:href="../../images/foreignKeys.png" width="11px" height="12px" preserveAspectRatio="xMinYMin meet" x="13" y="-92.7"/>
<text text-anchor="start" x="28" y="-82.8" font-family="Helvetica,sans-Serif" font-size="11.00" fill="#000000">groupname</text>
<polygon fill="none" stroke="#000000" points="8,-56.7 8,-75.7 234,-75.7 234,-56.7 8,-56.7"/>
<text text-anchor="start" x="11" y="-62.8" font-family="Helvetica,sans-Serif" font-size="11.00" fill="#000000">...</text>
<polygon fill="#ffffff" stroke="transparent" points="8,-37.7 8,-56.7 115,-56.7 115,-37.7 8,-37.7"/>
<polygon fill="none" stroke="#000000" points="8,-37.7 8,-56.7 115,-56.7 115,-37.7 8,-37.7"/>
<text text-anchor="start" x="11" y="-43.8" font-family="Helvetica,sans-Serif" font-size="11.00" fill="#000000">&lt; 3</text>
<polygon fill="#ffffff" stroke="transparent" points="115,-37.7 115,-56.7 170,-56.7 170,-37.7 115,-37.7"/>
<polygon fill="none" stroke="#000000" points="115,-37.7 115,-56.7 170,-56.7 170,-37.7 115,-37.7"/>
<text text-anchor="start" x="160.8862" y="-43.8" font-family="Helvetica,sans-Serif" font-size="11.00" fill="#000000"> &#160;</text>
<polygon fill="#ffffff" stroke="transparent" points="170,-37.7 170,-56.7 234,-56.7 234,-37.7 170,-37.7"/>
<polygon fill="none" stroke="#000000" points="170,-37.7 170,-56.7 234,-56.7 234,-37.7 170,-37.7"/>
<text text-anchor="start" x="215.4053" y="-43.8" font-family="Helvetica,sans-Serif" font-size="11.00" fill="#000000">2 &gt;</text>
</a>
</g>
</g>
<!-- form_vitals_calculation_form_vitals&#45;&gt;form_vitals -->
<g id="edge2" class="edge">
<title>form_vitals_calculation_form_vitals:w&#45;&gt;form_vitals:e</title>
<path fill="none" stroke="#000000" d="M271.0503,-244.071C252.2607,-227.8706 267.8581,-174.7 234,-174.7"/>
<polygon fill="#000000" stroke="#000000" points="277.4071,-246.1804 283.8662,-252.1168 281.2036,-247.4402 285,-248.7 285,-248.7 285,-248.7 281.2036,-247.4402 286.1338,-245.2832 277.4071,-246.1804 277.4071,-246.1804"/>
<ellipse fill="none" stroke="#000000" cx="274.37" cy="-245.1725" rx="3.2" ry="3.2"/>
</g>
</g>
</svg>
