<?xml version="1.0" encoding="UTF-8" standalone="no"?>
<!DOCTYPE svg PUBLIC "-//W3C//DTD SVG 1.1//EN"
 "http://www.w3.org/Graphics/SVG/1.1/DTD/svg11.dtd">
<!-- Generated by graphviz version 2.40.1 (20161225.0304)
 -->
<!-- Title: oneDegreeRelationshipsDiagram Pages: 1 -->
<svg width="805pt" height="621pt"
 viewBox="0.00 0.00 805.00 621.45" xmlns="http://www.w3.org/2000/svg" xmlns:xlink="http://www.w3.org/1999/xlink">
<g id="graph0" class="graph" transform="scale(1 1) rotate(0) translate(4 617.4544)">
<title>oneDegreeRelationshipsDiagram</title>
<polygon fill="#ffffff" stroke="transparent" points="-4,4 -4,-617.4544 801,-617.4544 801,4 -4,4"/>
<text text-anchor="middle" x="72.4936" y="-7.3" font-family="Helvetica,sans-Serif" font-size="11.00" fill="#000000">Generated by SchemaSpy</text>
<!-- groups -->
<g id="node1" class="node">
<title>groups</title>
<g id="a_node1"><a xlink:href="../../tables/groups.html" xlink:title="groups" target="_top">
<polygon fill="#ffffff" stroke="transparent" points="319.5,-88.9544 319.5,-196.9544 405.5,-196.9544 405.5,-88.9544 319.5,-88.9544"/>
<polygon fill="#f5f5f5" stroke="transparent" points="319.5,-173.9544 319.5,-196.9544 405.5,-196.9544 405.5,-173.9544 319.5,-173.9544"/>
<polygon fill="none" stroke="#000000" points="319.5,-173.9544 319.5,-196.9544 405.5,-196.9544 405.5,-173.9544 319.5,-173.9544"/>
<text text-anchor="start" x="324.5" y="-182.5544" font-family="Helvetica,sans-Serif" font-weight="bold" font-size="11.00" fill="#000000">groups</text>
<text text-anchor="start" x="371.0219" y="-182.0544" font-family="Helvetica,sans-Serif" font-size="11.00" fill="#000000">[table]</text>
<polygon fill="none" stroke="#000000" points="319.5,-151.9544 319.5,-173.9544 405.5,-173.9544 405.5,-151.9544 319.5,-151.9544"/>
<image xlink:href="../../images/primaryKeys.png" width="11px" height="12px" preserveAspectRatio="xMinYMin meet" x="324.5" y="-168.954"/>
<text text-anchor="start" x="348.5" y="-159.0544" font-family="Helvetica,sans-Serif" font-size="11.00" fill="#000000">id</text>
<polygon fill="none" stroke="#000000" points="319.5,-129.9544 319.5,-151.9544 405.5,-151.9544 405.5,-129.9544 319.5,-129.9544"/>
<image xlink:href="../../images/primaryKeys.png" width="11px" height="12px" preserveAspectRatio="xMinYMin meet" x="324.5" y="-146.954"/>
<text text-anchor="start" x="348.5" y="-137.0544" font-family="Helvetica,sans-Serif" font-size="11.00" fill="#000000">name</text>
<polygon fill="none" stroke="#000000" points="319.5,-107.9544 319.5,-129.9544 405.5,-129.9544 405.5,-107.9544 319.5,-107.9544"/>
<image xlink:href="../../images/foreignKeys.png" width="11px" height="12px" preserveAspectRatio="xMinYMin meet" x="324.5" y="-124.954"/>
<text text-anchor="start" x="348.5" y="-115.0544" font-family="Helvetica,sans-Serif" font-size="11.00" fill="#000000">user</text>
<polygon fill="#ffffff" stroke="transparent" points="319.5,-88.9544 319.5,-107.9544 353.5,-107.9544 353.5,-88.9544 319.5,-88.9544"/>
<polygon fill="none" stroke="#000000" points="319.5,-88.9544 319.5,-107.9544 353.5,-107.9544 353.5,-88.9544 319.5,-88.9544"/>
<text text-anchor="start" x="322.5" y="-95.0544" font-family="Helvetica,sans-Serif" font-size="11.00" fill="#000000">&lt; 1</text>
<polygon fill="#ffffff" stroke="transparent" points="353.5,-88.9544 353.5,-107.9544 371.5,-107.9544 371.5,-88.9544 353.5,-88.9544"/>
<polygon fill="none" stroke="#000000" points="353.5,-88.9544 353.5,-107.9544 371.5,-107.9544 371.5,-88.9544 353.5,-88.9544"/>
<text text-anchor="start" x="362.3862" y="-95.0544" font-family="Helvetica,sans-Serif" font-size="11.00" fill="#000000"> &#160;</text>
<polygon fill="#ffffff" stroke="transparent" points="371.5,-88.9544 371.5,-107.9544 405.5,-107.9544 405.5,-88.9544 371.5,-88.9544"/>
<polygon fill="none" stroke="#000000" points="371.5,-88.9544 371.5,-107.9544 405.5,-107.9544 405.5,-88.9544 371.5,-88.9544"/>
<text text-anchor="start" x="380.7904" y="-95.0544" font-family="Helvetica,sans-Serif" font-size="11.00" fill="#000000">17 &gt;</text>
</a>
</g>
</g>
<!-- users -->
<g id="node2" class="node">
<title>users</title>
<g id="a_node2"><a xlink:href="../../tables/users.html" xlink:title="users" target="_top">
<polygon fill="#ffffff" stroke="transparent" points="8,-152.4544 8,-367.4544 175,-367.4544 175,-152.4544 8,-152.4544"/>
<polygon fill="#f5f5f5" stroke="transparent" points="8.5,-343.9544 8.5,-366.9544 175.5,-366.9544 175.5,-343.9544 8.5,-343.9544"/>
<polygon fill="none" stroke="#000000" points="8.5,-343.9544 8.5,-366.9544 175.5,-366.9544 175.5,-343.9544 8.5,-343.9544"/>
<text text-anchor="start" x="13.5" y="-352.5544" font-family="Helvetica,sans-Serif" font-weight="bold" font-size="11.00" fill="#000000">users</text>
<text text-anchor="start" x="140.5437" y="-352.0544" font-family="Helvetica,sans-Serif" font-size="11.00" fill="#000000">[table]</text>
<polygon fill="none" stroke="#000000" points="8.5,-321.9544 8.5,-343.9544 175.5,-343.9544 175.5,-321.9544 8.5,-321.9544"/>
<image xlink:href="../../images/primaryKeys.png" width="11px" height="12px" preserveAspectRatio="xMinYMin meet" x="13.5" y="-338.954"/>
<text text-anchor="start" x="28.5" y="-329.0544" font-family="Helvetica,sans-Serif" font-size="11.00" fill="#000000">id</text>
<polygon fill="#ffffff" stroke="transparent" points="8.5,-299.9544 8.5,-321.9544 175.5,-321.9544 175.5,-299.9544 8.5,-299.9544"/>
<polygon fill="none" stroke="#000000" points="8.5,-299.9544 8.5,-321.9544 175.5,-321.9544 175.5,-299.9544 8.5,-299.9544"/>
<text text-anchor="start" x="28.5" y="-307.0544" font-family="Helvetica,sans-Serif" font-size="11.00" fill="#000000">uuid</text>
<polygon fill="none" stroke="#000000" points="8.5,-277.9544 8.5,-299.9544 175.5,-299.9544 175.5,-277.9544 8.5,-277.9544"/>
<image xlink:href="../../images/primaryKeys.png" width="11px" height="12px" preserveAspectRatio="xMinYMin meet" x="13.5" y="-294.954"/>
<text text-anchor="start" x="28.5" y="-285.0544" font-family="Helvetica,sans-Serif" font-size="11.00" fill="#000000">username</text>
<polygon fill="none" stroke="#000000" points="8.5,-255.9544 8.5,-277.9544 175.5,-277.9544 175.5,-255.9544 8.5,-255.9544"/>
<image xlink:href="../../images/foreignKeys.png" width="11px" height="12px" preserveAspectRatio="xMinYMin meet" x="13.5" y="-272.954"/>
<text text-anchor="start" x="28.5" y="-263.0544" font-family="Helvetica,sans-Serif" font-size="11.00" fill="#000000">facility_id</text>
<polygon fill="#ffffff" stroke="transparent" points="8.5,-233.9544 8.5,-255.9544 175.5,-255.9544 175.5,-233.9544 8.5,-233.9544"/>
<polygon fill="none" stroke="#000000" points="8.5,-233.9544 8.5,-255.9544 175.5,-255.9544 175.5,-233.9544 8.5,-233.9544"/>
<text text-anchor="start" x="28.5" y="-241.0544" font-family="Helvetica,sans-Serif" font-size="11.00" fill="#000000">google_signin_email</text>
<polygon fill="#ffffff" stroke="transparent" points="8.5,-211.9544 8.5,-233.9544 175.5,-233.9544 175.5,-211.9544 8.5,-211.9544"/>
<polygon fill="none" stroke="#000000" points="8.5,-211.9544 8.5,-233.9544 175.5,-233.9544 175.5,-211.9544 8.5,-211.9544"/>
<text text-anchor="start" x="28.5" y="-219.0544" font-family="Helvetica,sans-Serif" font-size="11.00" fill="#000000">abook_type</text>
<polygon fill="none" stroke="#000000" points="8.5,-189.9544 8.5,-211.9544 175.5,-211.9544 175.5,-189.9544 8.5,-189.9544"/>
<image xlink:href="../../images/foreignKeys.png" width="11px" height="12px" preserveAspectRatio="xMinYMin meet" x="13.5" y="-206.954"/>
<text text-anchor="start" x="28.5" y="-197.0544" font-family="Helvetica,sans-Serif" font-size="11.00" fill="#000000">billing_facility_id</text>
<polygon fill="none" stroke="#000000" points="8.5,-170.9544 8.5,-189.9544 175.5,-189.9544 175.5,-170.9544 8.5,-170.9544"/>
<text text-anchor="start" x="11.5" y="-177.0544" font-family="Helvetica,sans-Serif" font-size="11.00" fill="#000000">...</text>
<polygon fill="#ffffff" stroke="transparent" points="8.5,-151.9544 8.5,-170.9544 82.5,-170.9544 82.5,-151.9544 8.5,-151.9544"/>
<polygon fill="none" stroke="#000000" points="8.5,-151.9544 8.5,-170.9544 82.5,-170.9544 82.5,-151.9544 8.5,-151.9544"/>
<text text-anchor="start" x="11.5" y="-158.0544" font-family="Helvetica,sans-Serif" font-size="11.00" fill="#000000">&lt; 2</text>
<polygon fill="#ffffff" stroke="transparent" points="82.5,-151.9544 82.5,-170.9544 121.5,-170.9544 121.5,-151.9544 82.5,-151.9544"/>
<polygon fill="none" stroke="#000000" points="82.5,-151.9544 82.5,-170.9544 121.5,-170.9544 121.5,-151.9544 82.5,-151.9544"/>
<text text-anchor="start" x="112.3862" y="-158.0544" font-family="Helvetica,sans-Serif" font-size="11.00" fill="#000000"> &#160;</text>
<polygon fill="#ffffff" stroke="transparent" points="121.5,-151.9544 121.5,-170.9544 175.5,-170.9544 175.5,-151.9544 121.5,-151.9544"/>
<polygon fill="none" stroke="#000000" points="121.5,-151.9544 121.5,-170.9544 175.5,-170.9544 175.5,-151.9544 121.5,-151.9544"/>
<text text-anchor="start" x="150.7904" y="-158.0544" font-family="Helvetica,sans-Serif" font-size="11.00" fill="#000000">90 &gt;</text>
</a>
</g>
</g>
<!-- groups&#45;&gt;users -->
<g id="edge1" class="edge">
<title>groups:w&#45;&gt;users:e</title>
<path fill="none" stroke="#000000" d="M305.0254,-119.8443C257.646,-126.0768 250.0927,-164.2177 216,-207.9544 191.2554,-239.6987 215.7492,-288.9544 175.5,-288.9544"/>
<polygon fill="#000000" stroke="#000000" points="311.5151,-119.4454 319.7209,-122.5476 315.5075,-119.1999 319.5,-118.9544 319.5,-118.9544 319.5,-118.9544 315.5075,-119.1999 319.2791,-115.3612 311.5151,-119.4454 311.5151,-119.4454"/>
<ellipse fill="none" stroke="#000000" cx="308.3211" cy="-119.6417" rx="3.2" ry="3.2"/>
</g>
<!-- form_CAMOS_category -->
<g id="node3" class="node">
<title>form_CAMOS_category</title>
<g id="a_node3"><a xlink:href="../../tables/form_CAMOS_category.html" xlink:title="form_CAMOS_category" target="_top">
<polygon fill="#ffffff" stroke="transparent" points="550,-64.9544 550,-176.9544 789,-176.9544 789,-64.9544 550,-64.9544"/>
<polygon fill="#f5f5f5" stroke="transparent" points="552.5,-151.9544 552.5,-174.9544 787.5,-174.9544 787.5,-151.9544 552.5,-151.9544"/>
<polygon fill="none" stroke="#000000" points="552.5,-151.9544 552.5,-174.9544 787.5,-174.9544 787.5,-151.9544 552.5,-151.9544"/>
<text text-anchor="start" x="557.5" y="-160.5544" font-family="Helvetica,sans-Serif" font-weight="bold" font-size="11.00" fill="#000000">form_CAMOS_category</text>
<text text-anchor="start" x="752.5437" y="-160.0544" font-family="Helvetica,sans-Serif" font-size="11.00" fill="#000000">[table]</text>
<polygon fill="none" stroke="#000000" points="552.5,-129.9544 552.5,-151.9544 725.5,-151.9544 725.5,-129.9544 552.5,-129.9544"/>
<image xlink:href="../../images/foreignKeys.png" width="11px" height="12px" preserveAspectRatio="xMinYMin meet" x="557.5" y="-146.954"/>
<text text-anchor="start" x="572.5" y="-137.0544" font-family="Helvetica,sans-Serif" font-size="11.00" fill="#000000">groupname</text>
<polygon fill="none" stroke="#000000" points="725.5,-129.9544 725.5,-151.9544 787.5,-151.9544 787.5,-129.9544 725.5,-129.9544"/>
<text text-anchor="start" x="728.378" y="-137.6544" font-family="Helvetica,sans-Serif" font-size="11.00" fill="#000000">unknown[0]</text>
<polygon fill="none" stroke="#000000" points="552.5,-107.9544 552.5,-129.9544 725.5,-129.9544 725.5,-107.9544 552.5,-107.9544"/>
<image xlink:href="../../images/foreignKeys.png" width="11px" height="12px" preserveAspectRatio="xMinYMin meet" x="557.5" y="-124.954"/>
<text text-anchor="start" x="572.5" y="-115.0544" font-family="Helvetica,sans-Serif" font-size="11.00" fill="#000000">pid</text>
<polygon fill="none" stroke="#000000" points="725.5,-107.9544 725.5,-129.9544 787.5,-129.9544 787.5,-107.9544 725.5,-107.9544"/>
<text text-anchor="start" x="728.378" y="-115.6544" font-family="Helvetica,sans-Serif" font-size="11.00" fill="#000000">unknown[0]</text>
<polygon fill="none" stroke="#000000" points="552.5,-85.9544 552.5,-107.9544 725.5,-107.9544 725.5,-85.9544 552.5,-85.9544"/>
<image xlink:href="../../images/foreignKeys.png" width="11px" height="12px" preserveAspectRatio="xMinYMin meet" x="557.5" y="-102.954"/>
<text text-anchor="start" x="572.5" y="-93.0544" font-family="Helvetica,sans-Serif" font-size="11.00" fill="#000000">user</text>
<polygon fill="none" stroke="#000000" points="725.5,-85.9544 725.5,-107.9544 787.5,-107.9544 787.5,-85.9544 725.5,-85.9544"/>
<text text-anchor="start" x="728.378" y="-93.6544" font-family="Helvetica,sans-Serif" font-size="11.00" fill="#000000">unknown[0]</text>
<polygon fill="#ffffff" stroke="transparent" points="552.5,-66.9544 552.5,-85.9544 643.5,-85.9544 643.5,-66.9544 552.5,-66.9544"/>
<polygon fill="none" stroke="#000000" points="552.5,-66.9544 552.5,-85.9544 643.5,-85.9544 643.5,-66.9544 552.5,-66.9544"/>
<text text-anchor="start" x="555.5" y="-73.0544" font-family="Helvetica,sans-Serif" font-size="11.00" fill="#000000">&lt; 3</text>
<polygon fill="#ffffff" stroke="transparent" points="643.5,-66.9544 643.5,-85.9544 725.5,-85.9544 725.5,-66.9544 643.5,-66.9544"/>
<polygon fill="none" stroke="#000000" points="643.5,-66.9544 643.5,-85.9544 725.5,-85.9544 725.5,-66.9544 643.5,-66.9544"/>
<text text-anchor="start" x="716.3862" y="-73.0544" font-family="Helvetica,sans-Serif" font-size="11.00" fill="#000000"> &#160;</text>
<polygon fill="#ffffff" stroke="transparent" points="725.5,-66.9544 725.5,-85.9544 787.5,-85.9544 787.5,-66.9544 725.5,-66.9544"/>
<polygon fill="none" stroke="#000000" points="725.5,-66.9544 725.5,-85.9544 787.5,-85.9544 787.5,-66.9544 725.5,-66.9544"/>
<text text-anchor="start" x="768.9053" y="-73.0544" font-family="Helvetica,sans-Serif" font-size="11.00" fill="#000000">0 &gt;</text>
<polygon fill="none" stroke="#000000" stroke-width="2" points="551,-65.9544 551,-175.9544 788,-175.9544 788,-65.9544 551,-65.9544"/>
</a>
</g>
</g>
<!-- form_CAMOS_category&#45;&gt;groups -->
<g id="edge2" class="edge">
<title>form_CAMOS_category:w&#45;&gt;groups:e</title>
<path fill="none" stroke="#000000" d="M538.038,-140.9544C484.3155,-140.9544 465.7292,-140.9544 405.5,-140.9544"/>
<polygon fill="#000000" stroke="#000000" points="544.5,-140.9545 552.5,-144.5544 548.5,-140.9544 552.5,-140.9544 552.5,-140.9544 552.5,-140.9544 548.5,-140.9544 552.5,-137.3544 544.5,-140.9545 544.5,-140.9545"/>
<ellipse fill="none" stroke="#000000" cx="541.3" cy="-140.9545" rx="3.2" ry="3.2"/>
</g>
<!-- form_CAMOS_category&#45;&gt;users -->
<g id="edge4" class="edge">
<title>form_CAMOS_category:w&#45;&gt;users:e</title>
<path fill="none" stroke="#000000" d="M538.1305,-93.8782C528.8111,-89.3305 523.6819,-81.0209 509,-77.9544 381.5285,-51.3302 316.3853,4.9951 216,-77.9544 142.3892,-138.7798 270.9896,-288.9544 175.5,-288.9544"/>
<polygon fill="#000000" stroke="#000000" points="544.6773,-95.2797 551.7464,-100.4747 548.5886,-96.117 552.5,-96.9544 552.5,-96.9544 552.5,-96.9544 548.5886,-96.117 553.2536,-93.4342 544.6773,-95.2797 544.6773,-95.2797"/>
<ellipse fill="none" stroke="#000000" cx="541.5482" cy="-94.6098" rx="3.2" ry="3.2"/>
</g>
<!-- patient_data -->
<g id="node4" class="node">
<title>patient_data</title>
<g id="a_node4"><a xlink:href="../../tables/patient_data.html" xlink:title="patient_data" target="_top">
<polygon fill="#ffffff" stroke="transparent" points="224,-218.4544 224,-609.4544 501,-609.4544 501,-218.4544 224,-218.4544"/>
<polygon fill="#f5f5f5" stroke="transparent" points="224.5,-585.9544 224.5,-608.9544 501.5,-608.9544 501.5,-585.9544 224.5,-585.9544"/>
<polygon fill="none" stroke="#000000" points="224.5,-585.9544 224.5,-608.9544 501.5,-608.9544 501.5,-585.9544 224.5,-585.9544"/>
<text text-anchor="start" x="229.5" y="-594.5544" font-family="Helvetica,sans-Serif" font-weight="bold" font-size="11.00" fill="#000000">patient_data</text>
<text text-anchor="start" x="466.5437" y="-594.0544" font-family="Helvetica,sans-Serif" font-size="11.00" fill="#000000">[table]</text>
<polygon fill="none" stroke="#000000" points="224.5,-563.9544 224.5,-585.9544 501.5,-585.9544 501.5,-563.9544 224.5,-563.9544"/>
<image xlink:href="../../images/primaryKeys.png" width="11px" height="12px" preserveAspectRatio="xMinYMin meet" x="229.5" y="-580.954"/>
<text text-anchor="start" x="244.5" y="-571.0544" font-family="Helvetica,sans-Serif" font-size="11.00" fill="#000000">id</text>
<polygon fill="#ffffff" stroke="transparent" points="224.5,-541.9544 224.5,-563.9544 501.5,-563.9544 501.5,-541.9544 224.5,-541.9544"/>
<polygon fill="none" stroke="#000000" points="224.5,-541.9544 224.5,-563.9544 501.5,-563.9544 501.5,-541.9544 224.5,-541.9544"/>
<text text-anchor="start" x="244.5" y="-549.0544" font-family="Helvetica,sans-Serif" font-size="11.00" fill="#000000">uuid</text>
<polygon fill="#ffffff" stroke="transparent" points="224.5,-519.9544 224.5,-541.9544 501.5,-541.9544 501.5,-519.9544 224.5,-519.9544"/>
<polygon fill="none" stroke="#000000" points="224.5,-519.9544 224.5,-541.9544 501.5,-541.9544 501.5,-519.9544 224.5,-519.9544"/>
<text text-anchor="start" x="244.5" y="-527.0544" font-family="Helvetica,sans-Serif" font-size="11.00" fill="#000000">fname</text>
<polygon fill="#ffffff" stroke="transparent" points="224.5,-497.9544 224.5,-519.9544 501.5,-519.9544 501.5,-497.9544 224.5,-497.9544"/>
<polygon fill="none" stroke="#000000" points="224.5,-497.9544 224.5,-519.9544 501.5,-519.9544 501.5,-497.9544 224.5,-497.9544"/>
<text text-anchor="start" x="244.5" y="-505.0544" font-family="Helvetica,sans-Serif" font-size="11.00" fill="#000000">lname</text>
<polygon fill="#ffffff" stroke="transparent" points="224.5,-475.9544 224.5,-497.9544 501.5,-497.9544 501.5,-475.9544 224.5,-475.9544"/>
<polygon fill="none" stroke="#000000" points="224.5,-475.9544 224.5,-497.9544 501.5,-497.9544 501.5,-475.9544 224.5,-475.9544"/>
<text text-anchor="start" x="244.5" y="-483.0544" font-family="Helvetica,sans-Serif" font-size="11.00" fill="#000000">DOB</text>
<polygon fill="none" stroke="#000000" points="224.5,-453.9544 224.5,-475.9544 501.5,-475.9544 501.5,-453.9544 224.5,-453.9544"/>
<image xlink:href="../../images/foreignKeys.png" width="11px" height="12px" preserveAspectRatio="xMinYMin meet" x="229.5" y="-470.954"/>
<text text-anchor="start" x="244.5" y="-461.0544" font-family="Helvetica,sans-Serif" font-size="11.00" fill="#000000">pharmacy_id</text>
<polygon fill="none" stroke="#000000" points="224.5,-431.9544 224.5,-453.9544 501.5,-453.9544 501.5,-431.9544 224.5,-431.9544"/>
<image xlink:href="../../images/foreignKeys.png" width="11px" height="12px" preserveAspectRatio="xMinYMin meet" x="229.5" y="-448.954"/>
<text text-anchor="start" x="244.5" y="-439.0544" font-family="Helvetica,sans-Serif" font-size="11.00" fill="#000000">providerID</text>
<polygon fill="none" stroke="#000000" points="224.5,-409.9544 224.5,-431.9544 501.5,-431.9544 501.5,-409.9544 224.5,-409.9544"/>
<image xlink:href="../../images/foreignKeys.png" width="11px" height="12px" preserveAspectRatio="xMinYMin meet" x="229.5" y="-426.954"/>
<text text-anchor="start" x="244.5" y="-417.0544" font-family="Helvetica,sans-Serif" font-size="11.00" fill="#000000">ref_providerID</text>
<polygon fill="none" stroke="#000000" points="224.5,-387.9544 224.5,-409.9544 501.5,-409.9544 501.5,-387.9544 224.5,-387.9544"/>
<image xlink:href="../../images/foreignKeys.png" width="11px" height="12px" preserveAspectRatio="xMinYMin meet" x="229.5" y="-404.954"/>
<text text-anchor="start" x="244.5" y="-395.0544" font-family="Helvetica,sans-Serif" font-size="11.00" fill="#000000">interpreter_needed</text>
<polygon fill="none" stroke="#000000" points="224.5,-365.9544 224.5,-387.9544 501.5,-387.9544 501.5,-365.9544 224.5,-365.9544"/>
<image xlink:href="../../images/primaryKeys.png" width="11px" height="12px" preserveAspectRatio="xMinYMin meet" x="229.5" y="-382.954"/>
<text text-anchor="start" x="244.5" y="-373.0544" font-family="Helvetica,sans-Serif" font-size="11.00" fill="#000000">pid</text>
<polygon fill="none" stroke="#000000" points="224.5,-343.9544 224.5,-365.9544 501.5,-365.9544 501.5,-343.9544 224.5,-343.9544"/>
<image xlink:href="../../images/foreignKeys.png" width="11px" height="12px" preserveAspectRatio="xMinYMin meet" x="229.5" y="-360.954"/>
<text text-anchor="start" x="244.5" y="-351.0544" font-family="Helvetica,sans-Serif" font-size="11.00" fill="#000000">advance_directive_user_authenticator</text>
<polygon fill="none" stroke="#000000" points="224.5,-321.9544 224.5,-343.9544 501.5,-343.9544 501.5,-321.9544 224.5,-321.9544"/>
<image xlink:href="../../images/foreignKeys.png" width="11px" height="12px" preserveAspectRatio="xMinYMin meet" x="229.5" y="-338.954"/>
<text text-anchor="start" x="244.5" y="-329.0544" font-family="Helvetica,sans-Serif" font-size="11.00" fill="#000000">created_by</text>
<polygon fill="none" stroke="#000000" points="224.5,-299.9544 224.5,-321.9544 501.5,-321.9544 501.5,-299.9544 224.5,-299.9544"/>
<image xlink:href="../../images/foreignKeys.png" width="11px" height="12px" preserveAspectRatio="xMinYMin meet" x="229.5" y="-316.954"/>
<text text-anchor="start" x="244.5" y="-307.0544" font-family="Helvetica,sans-Serif" font-size="11.00" fill="#000000">updated_by</text>
<polygon fill="none" stroke="#000000" points="224.5,-277.9544 224.5,-299.9544 501.5,-299.9544 501.5,-277.9544 224.5,-277.9544"/>
<image xlink:href="../../images/foreignKeys.png" width="11px" height="12px" preserveAspectRatio="xMinYMin meet" x="229.5" y="-294.954"/>
<text text-anchor="start" x="244.5" y="-285.0544" font-family="Helvetica,sans-Serif" font-size="11.00" fill="#000000">tribal_affiliations</text>
<polygon fill="none" stroke="#000000" points="224.5,-255.9544 224.5,-277.9544 501.5,-277.9544 501.5,-255.9544 224.5,-255.9544"/>
<image xlink:href="../../images/foreignKeys.png" width="11px" height="12px" preserveAspectRatio="xMinYMin meet" x="229.5" y="-272.954"/>
<text text-anchor="start" x="244.5" y="-263.0544" font-family="Helvetica,sans-Serif" font-size="11.00" fill="#000000">sex_identified</text>
<polygon fill="none" stroke="#000000" points="224.5,-236.9544 224.5,-255.9544 501.5,-255.9544 501.5,-236.9544 224.5,-236.9544"/>
<text text-anchor="start" x="227.5" y="-243.0544" font-family="Helvetica,sans-Serif" font-size="11.00" fill="#000000">...</text>
<polygon fill="#ffffff" stroke="transparent" points="224.5,-217.9544 224.5,-236.9544 353.5,-236.9544 353.5,-217.9544 224.5,-217.9544"/>
<polygon fill="none" stroke="#000000" points="224.5,-217.9544 224.5,-236.9544 353.5,-236.9544 353.5,-217.9544 224.5,-217.9544"/>
<text text-anchor="start" x="227.5" y="-224.0544" font-family="Helvetica,sans-Serif" font-size="11.00" fill="#000000">&lt; 9</text>
<polygon fill="#ffffff" stroke="transparent" points="353.5,-217.9544 353.5,-236.9544 419.5,-236.9544 419.5,-217.9544 353.5,-217.9544"/>
<polygon fill="none" stroke="#000000" points="353.5,-217.9544 353.5,-236.9544 419.5,-236.9544 419.5,-217.9544 353.5,-217.9544"/>
<text text-anchor="start" x="410.3862" y="-224.0544" font-family="Helvetica,sans-Serif" font-size="11.00" fill="#000000"> &#160;</text>
<polygon fill="#ffffff" stroke="transparent" points="419.5,-217.9544 419.5,-236.9544 501.5,-236.9544 501.5,-217.9544 419.5,-217.9544"/>
<polygon fill="none" stroke="#000000" points="419.5,-217.9544 419.5,-236.9544 501.5,-236.9544 501.5,-217.9544 419.5,-217.9544"/>
<text text-anchor="start" x="476.7904" y="-224.0544" font-family="Helvetica,sans-Serif" font-size="11.00" fill="#000000">95 &gt;</text>
</a>
</g>
</g>
<!-- form_CAMOS_category&#45;&gt;patient_data -->
<g id="edge3" class="edge">
<title>form_CAMOS_category:w&#45;&gt;patient_data:e</title>
<path fill="none" stroke="#000000" d="M537.9765,-120.602C452.0908,-142.575 612.9065,-376.9544 501.5,-376.9544"/>
<polygon fill="#000000" stroke="#000000" points="544.551,-119.8562 552.9058,-122.5315 548.5255,-119.4053 552.5,-118.9544 552.5,-118.9544 552.5,-118.9544 548.5255,-119.4053 552.0942,-115.3774 544.551,-119.8562 544.551,-119.8562"/>
<ellipse fill="none" stroke="#000000" cx="541.3714" cy="-120.2169" rx="3.2" ry="3.2"/>
</g>
<!-- patient_data&#45;&gt;users -->
<g id="edge5" class="edge">
<title>patient_data:w&#45;&gt;users:e</title>
<path fill="none" stroke="#000000" d="M210.1297,-351.5169C198.5865,-345.3294 193.4041,-332.9544 175.5,-332.9544"/>
<polygon fill="#000000" stroke="#000000" points="216.7195,-353.0932 223.6625,-358.4556 220.6098,-354.0238 224.5,-354.9544 224.5,-354.9544 224.5,-354.9544 220.6098,-354.0238 225.3375,-351.4532 216.7195,-353.0932 216.7195,-353.0932"/>
<ellipse fill="none" stroke="#000000" cx="213.6073" cy="-352.3487" rx="3.2" ry="3.2"/>
</g>
<!-- patient_data&#45;&gt;users -->
<g id="edge6" class="edge">
<title>patient_data:w&#45;&gt;users:e</title>
<path fill="none" stroke="#000000" d="M209.9909,-332.9544C198.6774,-332.9544 191.4931,-332.9544 175.5,-332.9544"/>
<polygon fill="#000000" stroke="#000000" points="216.5,-332.9545 224.5,-336.5544 220.5,-332.9544 224.5,-332.9544 224.5,-332.9544 224.5,-332.9544 220.5,-332.9544 224.5,-329.3544 216.5,-332.9545 216.5,-332.9545"/>
<ellipse fill="none" stroke="#000000" cx="213.3" cy="-332.9545" rx="3.2" ry="3.2"/>
</g>
<!-- patient_data&#45;&gt;users -->
<g id="edge7" class="edge">
<title>patient_data:w&#45;&gt;users:e</title>
<path fill="none" stroke="#000000" d="M210.282,-439.0395C182.6981,-419.4441 222.9572,-332.9544 175.5,-332.9544"/>
<polygon fill="#000000" stroke="#000000" points="216.7871,-440.8306 223.5443,-446.4252 220.6435,-441.8925 224.5,-442.9544 224.5,-442.9544 224.5,-442.9544 220.6435,-441.8925 225.4557,-439.4836 216.7871,-440.8306 216.7871,-440.8306"/>
<ellipse fill="none" stroke="#000000" cx="213.7019" cy="-439.9811" rx="3.2" ry="3.2"/>
</g>
<!-- patient_data&#45;&gt;users -->
<g id="edge8" class="edge">
<title>patient_data:w&#45;&gt;users:e</title>
<path fill="none" stroke="#000000" d="M210.4863,-416.4695C189.2228,-398.5368 214.1452,-332.9544 175.5,-332.9544"/>
<polygon fill="#000000" stroke="#000000" points="216.8807,-418.5159 223.4027,-424.3831 220.6903,-419.7352 224.5,-420.9544 224.5,-420.9544 224.5,-420.9544 220.6903,-419.7352 225.5973,-417.5257 216.8807,-418.5159 216.8807,-418.5159"/>
<ellipse fill="none" stroke="#000000" cx="213.833" cy="-417.5405" rx="3.2" ry="3.2"/>
</g>
<!-- patient_data&#45;&gt;users -->
<g id="edge9" class="edge">
<title>patient_data:w&#45;&gt;users:e</title>
<path fill="none" stroke="#000000" d="M210.1297,-314.3919C198.5865,-320.5794 193.4041,-332.9544 175.5,-332.9544"/>
<polygon fill="#000000" stroke="#000000" points="216.7195,-312.8156 225.3375,-314.4556 220.6098,-311.885 224.5,-310.9544 224.5,-310.9544 224.5,-310.9544 220.6098,-311.885 223.6625,-307.4532 216.7195,-312.8156 216.7195,-312.8156"/>
<ellipse fill="none" stroke="#000000" cx="213.6073" cy="-313.5601" rx="3.2" ry="3.2"/>
</g>
</g>
</svg>
