<?xml version="1.0" encoding="UTF-8" standalone="no"?>
<!DOCTYPE svg PUBLIC "-//W3C//DTD SVG 1.1//EN"
 "http://www.w3.org/Graphics/SVG/1.1/DTD/svg11.dtd">
<!-- Generated by graphviz version 2.40.1 (20161225.0304)
 -->
<!-- Title: oneDegreeRelationshipsDiagram Pages: 1 -->
<svg width="1190pt" height="1026pt"
 viewBox="0.00 0.00 1190.00 1025.70" xmlns="http://www.w3.org/2000/svg" xmlns:xlink="http://www.w3.org/1999/xlink">
<g id="graph0" class="graph" transform="scale(1 1) rotate(0) translate(4 1021.7)">
<title>oneDegreeRelationshipsDiagram</title>
<polygon fill="#ffffff" stroke="transparent" points="-4,4 -4,-1021.7 1186,-1021.7 1186,4 -4,4"/>
<text text-anchor="middle" x="72.4936" y="-7.3" font-family="Helvetica,sans-Serif" font-size="11.00" fill="#000000">Generated by SchemaSpy</text>
<!-- form_vitals -->
<g id="node1" class="node">
<title>form_vitals</title>
<g id="a_node1"><a xlink:href="../../tables/form_vitals.html" xlink:title="form_vitals" target="_top">
<polygon fill="#ffffff" stroke="transparent" points="550,-38.2 550,-722.2 851,-722.2 851,-38.2 550,-38.2"/>
<polygon fill="#f5f5f5" stroke="transparent" points="552.5,-697.2 552.5,-720.2 849.5,-720.2 849.5,-697.2 552.5,-697.2"/>
<polygon fill="none" stroke="#000000" points="552.5,-697.2 552.5,-720.2 849.5,-720.2 849.5,-697.2 552.5,-697.2"/>
<text text-anchor="start" x="557.5" y="-705.8" font-family="Helvetica,sans-Serif" font-weight="bold" font-size="11.00" fill="#000000">form_vitals</text>
<text text-anchor="start" x="814.5437" y="-705.3" font-family="Helvetica,sans-Serif" font-size="11.00" fill="#000000">[table]</text>
<polygon fill="none" stroke="#000000" points="552.5,-675.2 552.5,-697.2 778.5,-697.2 778.5,-675.2 552.5,-675.2"/>
<image xlink:href="../../images/primaryKeys.png" width="11px" height="12px" preserveAspectRatio="xMinYMin meet" x="557.5" y="-692.2"/>
<text text-anchor="start" x="572.5" y="-682.3" font-family="Helvetica,sans-Serif" font-size="11.00" fill="#000000">id</text>
<polygon fill="none" stroke="#000000" points="778.5,-675.2 778.5,-697.2 849.5,-697.2 849.5,-675.2 778.5,-675.2"/>
<text text-anchor="start" x="781.5" y="-682.9" font-family="Helvetica,sans-Serif" font-size="11.00" fill="#000000">bigint[19]</text>
<polygon fill="#ffffff" stroke="transparent" points="552.5,-653.2 552.5,-675.2 778.5,-675.2 778.5,-653.2 552.5,-653.2"/>
<polygon fill="none" stroke="#000000" points="552.5,-653.2 552.5,-675.2 778.5,-675.2 778.5,-653.2 552.5,-653.2"/>
<text text-anchor="start" x="572.5" y="-660.3" font-family="Helvetica,sans-Serif" font-size="11.00" fill="#000000">uuid</text>
<polygon fill="none" stroke="#000000" points="778.5,-653.2 778.5,-675.2 849.5,-675.2 849.5,-653.2 778.5,-653.2"/>
<text text-anchor="start" x="781.5" y="-660.9" font-family="Helvetica,sans-Serif" font-size="11.00" fill="#000000">binary[16]</text>
<polygon fill="none" stroke="#000000" points="552.5,-631.2 552.5,-653.2 778.5,-653.2 778.5,-631.2 552.5,-631.2"/>
<text text-anchor="start" x="572.5" y="-638.3" font-family="Helvetica,sans-Serif" font-size="11.00" fill="#000000">date</text>
<polygon fill="none" stroke="#000000" points="778.5,-631.2 778.5,-653.2 849.5,-653.2 849.5,-631.2 778.5,-631.2"/>
<text text-anchor="start" x="781.5" y="-638.9" font-family="Helvetica,sans-Serif" font-size="11.00" fill="#000000">datetime[19]</text>
<polygon fill="#ffffff" stroke="transparent" points="552.5,-609.2 552.5,-631.2 778.5,-631.2 778.5,-609.2 552.5,-609.2"/>
<polygon fill="none" stroke="#000000" points="552.5,-609.2 552.5,-631.2 778.5,-631.2 778.5,-609.2 552.5,-609.2"/>
<image xlink:href="../../images/foreignKeys.png" width="11px" height="12px" preserveAspectRatio="xMinYMin meet" x="557.5" y="-626.2"/>
<text text-anchor="start" x="572.5" y="-616.3" font-family="Helvetica,sans-Serif" font-size="11.00" fill="#000000">pid</text>
<polygon fill="none" stroke="#000000" points="778.5,-609.2 778.5,-631.2 849.5,-631.2 849.5,-609.2 778.5,-609.2"/>
<text text-anchor="start" x="781.5" y="-616.9" font-family="Helvetica,sans-Serif" font-size="11.00" fill="#000000">bigint[19]</text>
<polygon fill="none" stroke="#000000" points="552.5,-587.2 552.5,-609.2 778.5,-609.2 778.5,-587.2 552.5,-587.2"/>
<image xlink:href="../../images/foreignKeys.png" width="11px" height="12px" preserveAspectRatio="xMinYMin meet" x="557.5" y="-604.2"/>
<text text-anchor="start" x="572.5" y="-594.3" font-family="Helvetica,sans-Serif" font-size="11.00" fill="#000000">user</text>
<polygon fill="none" stroke="#000000" points="778.5,-587.2 778.5,-609.2 849.5,-609.2 849.5,-587.2 778.5,-587.2"/>
<text text-anchor="start" x="781.5" y="-594.9" font-family="Helvetica,sans-Serif" font-size="11.00" fill="#000000">varchar[255]</text>
<polygon fill="none" stroke="#000000" points="552.5,-565.2 552.5,-587.2 778.5,-587.2 778.5,-565.2 552.5,-565.2"/>
<image xlink:href="../../images/foreignKeys.png" width="11px" height="12px" preserveAspectRatio="xMinYMin meet" x="557.5" y="-582.2"/>
<text text-anchor="start" x="572.5" y="-572.3" font-family="Helvetica,sans-Serif" font-size="11.00" fill="#000000">groupname</text>
<polygon fill="none" stroke="#000000" points="778.5,-565.2 778.5,-587.2 849.5,-587.2 849.5,-565.2 778.5,-565.2"/>
<text text-anchor="start" x="781.5" y="-572.9" font-family="Helvetica,sans-Serif" font-size="11.00" fill="#000000">varchar[255]</text>
<polygon fill="none" stroke="#000000" points="552.5,-543.2 552.5,-565.2 778.5,-565.2 778.5,-543.2 552.5,-543.2"/>
<text text-anchor="start" x="572.5" y="-550.3" font-family="Helvetica,sans-Serif" font-size="11.00" fill="#000000">authorized</text>
<polygon fill="none" stroke="#000000" points="778.5,-543.2 778.5,-565.2 849.5,-565.2 849.5,-543.2 778.5,-543.2"/>
<text text-anchor="start" x="781.5" y="-550.9" font-family="Helvetica,sans-Serif" font-size="11.00" fill="#000000">tinyint[3]</text>
<polygon fill="none" stroke="#000000" points="552.5,-521.2 552.5,-543.2 778.5,-543.2 778.5,-521.2 552.5,-521.2"/>
<text text-anchor="start" x="572.5" y="-528.3" font-family="Helvetica,sans-Serif" font-size="11.00" fill="#000000">activity</text>
<polygon fill="none" stroke="#000000" points="778.5,-521.2 778.5,-543.2 849.5,-543.2 849.5,-521.2 778.5,-521.2"/>
<text text-anchor="start" x="781.5" y="-528.9" font-family="Helvetica,sans-Serif" font-size="11.00" fill="#000000">tinyint[3]</text>
<polygon fill="none" stroke="#000000" points="552.5,-499.2 552.5,-521.2 778.5,-521.2 778.5,-499.2 552.5,-499.2"/>
<text text-anchor="start" x="572.5" y="-506.3" font-family="Helvetica,sans-Serif" font-size="11.00" fill="#000000">bps</text>
<polygon fill="none" stroke="#000000" points="778.5,-499.2 778.5,-521.2 849.5,-521.2 849.5,-499.2 778.5,-499.2"/>
<text text-anchor="start" x="781.5" y="-506.9" font-family="Helvetica,sans-Serif" font-size="11.00" fill="#000000">varchar[40]</text>
<polygon fill="none" stroke="#000000" points="552.5,-477.2 552.5,-499.2 778.5,-499.2 778.5,-477.2 552.5,-477.2"/>
<text text-anchor="start" x="572.5" y="-484.3" font-family="Helvetica,sans-Serif" font-size="11.00" fill="#000000">bpd</text>
<polygon fill="none" stroke="#000000" points="778.5,-477.2 778.5,-499.2 849.5,-499.2 849.5,-477.2 778.5,-477.2"/>
<text text-anchor="start" x="781.5" y="-484.9" font-family="Helvetica,sans-Serif" font-size="11.00" fill="#000000">varchar[40]</text>
<polygon fill="none" stroke="#000000" points="552.5,-455.2 552.5,-477.2 778.5,-477.2 778.5,-455.2 552.5,-455.2"/>
<text text-anchor="start" x="572.5" y="-462.3" font-family="Helvetica,sans-Serif" font-size="11.00" fill="#000000">weight</text>
<polygon fill="none" stroke="#000000" points="778.5,-455.2 778.5,-477.2 849.5,-477.2 849.5,-455.2 778.5,-455.2"/>
<text text-anchor="start" x="781.2981" y="-462.9" font-family="Helvetica,sans-Serif" font-size="11.00" fill="#000000">decimal[12,6]</text>
<polygon fill="none" stroke="#000000" points="552.5,-433.2 552.5,-455.2 778.5,-455.2 778.5,-433.2 552.5,-433.2"/>
<text text-anchor="start" x="572.5" y="-440.3" font-family="Helvetica,sans-Serif" font-size="11.00" fill="#000000">height</text>
<polygon fill="none" stroke="#000000" points="778.5,-433.2 778.5,-455.2 849.5,-455.2 849.5,-433.2 778.5,-433.2"/>
<text text-anchor="start" x="781.2981" y="-440.9" font-family="Helvetica,sans-Serif" font-size="11.00" fill="#000000">decimal[12,6]</text>
<polygon fill="none" stroke="#000000" points="552.5,-411.2 552.5,-433.2 778.5,-433.2 778.5,-411.2 552.5,-411.2"/>
<text text-anchor="start" x="572.5" y="-418.3" font-family="Helvetica,sans-Serif" font-size="11.00" fill="#000000">temperature</text>
<polygon fill="none" stroke="#000000" points="778.5,-411.2 778.5,-433.2 849.5,-433.2 849.5,-411.2 778.5,-411.2"/>
<text text-anchor="start" x="781.2981" y="-418.9" font-family="Helvetica,sans-Serif" font-size="11.00" fill="#000000">decimal[12,6]</text>
<polygon fill="none" stroke="#000000" points="552.5,-389.2 552.5,-411.2 778.5,-411.2 778.5,-389.2 552.5,-389.2"/>
<text text-anchor="start" x="572.5" y="-396.3" font-family="Helvetica,sans-Serif" font-size="11.00" fill="#000000">temp_method</text>
<polygon fill="none" stroke="#000000" points="778.5,-389.2 778.5,-411.2 849.5,-411.2 849.5,-389.2 778.5,-389.2"/>
<text text-anchor="start" x="781.5" y="-396.9" font-family="Helvetica,sans-Serif" font-size="11.00" fill="#000000">varchar[255]</text>
<polygon fill="none" stroke="#000000" points="552.5,-367.2 552.5,-389.2 778.5,-389.2 778.5,-367.2 552.5,-367.2"/>
<text text-anchor="start" x="572.5" y="-374.3" font-family="Helvetica,sans-Serif" font-size="11.00" fill="#000000">pulse</text>
<polygon fill="none" stroke="#000000" points="778.5,-367.2 778.5,-389.2 849.5,-389.2 849.5,-367.2 778.5,-367.2"/>
<text text-anchor="start" x="781.2981" y="-374.9" font-family="Helvetica,sans-Serif" font-size="11.00" fill="#000000">decimal[12,6]</text>
<polygon fill="none" stroke="#000000" points="552.5,-345.2 552.5,-367.2 778.5,-367.2 778.5,-345.2 552.5,-345.2"/>
<text text-anchor="start" x="572.5" y="-352.3" font-family="Helvetica,sans-Serif" font-size="11.00" fill="#000000">respiration</text>
<polygon fill="none" stroke="#000000" points="778.5,-345.2 778.5,-367.2 849.5,-367.2 849.5,-345.2 778.5,-345.2"/>
<text text-anchor="start" x="781.2981" y="-352.9" font-family="Helvetica,sans-Serif" font-size="11.00" fill="#000000">decimal[12,6]</text>
<polygon fill="none" stroke="#000000" points="552.5,-323.2 552.5,-345.2 778.5,-345.2 778.5,-323.2 552.5,-323.2"/>
<text text-anchor="start" x="572.5" y="-330.3" font-family="Helvetica,sans-Serif" font-size="11.00" fill="#000000">note</text>
<polygon fill="none" stroke="#000000" points="778.5,-323.2 778.5,-345.2 849.5,-345.2 849.5,-323.2 778.5,-323.2"/>
<text text-anchor="start" x="781.5" y="-330.9" font-family="Helvetica,sans-Serif" font-size="11.00" fill="#000000">varchar[255]</text>
<polygon fill="none" stroke="#000000" points="552.5,-301.2 552.5,-323.2 778.5,-323.2 778.5,-301.2 552.5,-301.2"/>
<text text-anchor="start" x="572.5" y="-308.3" font-family="Helvetica,sans-Serif" font-size="11.00" fill="#000000">BMI</text>
<polygon fill="none" stroke="#000000" points="778.5,-301.2 778.5,-323.2 849.5,-323.2 849.5,-301.2 778.5,-301.2"/>
<text text-anchor="start" x="781.2981" y="-308.9" font-family="Helvetica,sans-Serif" font-size="11.00" fill="#000000">decimal[12,6]</text>
<polygon fill="none" stroke="#000000" points="552.5,-279.2 552.5,-301.2 778.5,-301.2 778.5,-279.2 552.5,-279.2"/>
<text text-anchor="start" x="572.5" y="-286.3" font-family="Helvetica,sans-Serif" font-size="11.00" fill="#000000">BMI_status</text>
<polygon fill="none" stroke="#000000" points="778.5,-279.2 778.5,-301.2 849.5,-301.2 849.5,-279.2 778.5,-279.2"/>
<text text-anchor="start" x="781.5" y="-286.9" font-family="Helvetica,sans-Serif" font-size="11.00" fill="#000000">varchar[255]</text>
<polygon fill="none" stroke="#000000" points="552.5,-257.2 552.5,-279.2 778.5,-279.2 778.5,-257.2 552.5,-257.2"/>
<text text-anchor="start" x="572.5" y="-264.3" font-family="Helvetica,sans-Serif" font-size="11.00" fill="#000000">waist_circ</text>
<polygon fill="none" stroke="#000000" points="778.5,-257.2 778.5,-279.2 849.5,-279.2 849.5,-257.2 778.5,-257.2"/>
<text text-anchor="start" x="781.2981" y="-264.9" font-family="Helvetica,sans-Serif" font-size="11.00" fill="#000000">decimal[12,6]</text>
<polygon fill="none" stroke="#000000" points="552.5,-235.2 552.5,-257.2 778.5,-257.2 778.5,-235.2 552.5,-235.2"/>
<text text-anchor="start" x="572.5" y="-242.3" font-family="Helvetica,sans-Serif" font-size="11.00" fill="#000000">head_circ</text>
<polygon fill="none" stroke="#000000" points="778.5,-235.2 778.5,-257.2 849.5,-257.2 849.5,-235.2 778.5,-235.2"/>
<text text-anchor="start" x="781.2981" y="-242.9" font-family="Helvetica,sans-Serif" font-size="11.00" fill="#000000">decimal[12,6]</text>
<polygon fill="none" stroke="#000000" points="552.5,-213.2 552.5,-235.2 778.5,-235.2 778.5,-213.2 552.5,-213.2"/>
<text text-anchor="start" x="572.5" y="-220.3" font-family="Helvetica,sans-Serif" font-size="11.00" fill="#000000">oxygen_saturation</text>
<polygon fill="none" stroke="#000000" points="778.5,-213.2 778.5,-235.2 849.5,-235.2 849.5,-213.2 778.5,-213.2"/>
<text text-anchor="start" x="781.5" y="-220.9" font-family="Helvetica,sans-Serif" font-size="11.00" fill="#000000">decimal[6,2]</text>
<polygon fill="none" stroke="#000000" points="552.5,-191.2 552.5,-213.2 778.5,-213.2 778.5,-191.2 552.5,-191.2"/>
<text text-anchor="start" x="572.5" y="-198.3" font-family="Helvetica,sans-Serif" font-size="11.00" fill="#000000">oxygen_flow_rate</text>
<polygon fill="none" stroke="#000000" points="778.5,-191.2 778.5,-213.2 849.5,-213.2 849.5,-191.2 778.5,-191.2"/>
<text text-anchor="start" x="781.2981" y="-198.9" font-family="Helvetica,sans-Serif" font-size="11.00" fill="#000000">decimal[12,6]</text>
<polygon fill="none" stroke="#000000" points="552.5,-169.2 552.5,-191.2 778.5,-191.2 778.5,-169.2 552.5,-169.2"/>
<text text-anchor="start" x="572.5" y="-176.3" font-family="Helvetica,sans-Serif" font-size="11.00" fill="#000000">external_id</text>
<polygon fill="none" stroke="#000000" points="778.5,-169.2 778.5,-191.2 849.5,-191.2 849.5,-169.2 778.5,-169.2"/>
<text text-anchor="start" x="781.5" y="-176.9" font-family="Helvetica,sans-Serif" font-size="11.00" fill="#000000">varchar[20]</text>
<polygon fill="none" stroke="#000000" points="552.5,-147.2 552.5,-169.2 778.5,-169.2 778.5,-147.2 552.5,-147.2"/>
<text text-anchor="start" x="572.5" y="-154.3" font-family="Helvetica,sans-Serif" font-size="11.00" fill="#000000">ped_weight_height</text>
<polygon fill="none" stroke="#000000" points="778.5,-147.2 778.5,-169.2 849.5,-169.2 849.5,-147.2 778.5,-147.2"/>
<text text-anchor="start" x="781.5" y="-154.9" font-family="Helvetica,sans-Serif" font-size="11.00" fill="#000000">decimal[6,2]</text>
<polygon fill="none" stroke="#000000" points="552.5,-125.2 552.5,-147.2 778.5,-147.2 778.5,-125.2 552.5,-125.2"/>
<text text-anchor="start" x="572.5" y="-132.3" font-family="Helvetica,sans-Serif" font-size="11.00" fill="#000000">ped_bmi</text>
<polygon fill="none" stroke="#000000" points="778.5,-125.2 778.5,-147.2 849.5,-147.2 849.5,-125.2 778.5,-125.2"/>
<text text-anchor="start" x="781.5" y="-132.9" font-family="Helvetica,sans-Serif" font-size="11.00" fill="#000000">decimal[6,2]</text>
<polygon fill="none" stroke="#000000" points="552.5,-103.2 552.5,-125.2 778.5,-125.2 778.5,-103.2 552.5,-103.2"/>
<text text-anchor="start" x="572.5" y="-110.3" font-family="Helvetica,sans-Serif" font-size="11.00" fill="#000000">ped_head_circ</text>
<polygon fill="none" stroke="#000000" points="778.5,-103.2 778.5,-125.2 849.5,-125.2 849.5,-103.2 778.5,-103.2"/>
<text text-anchor="start" x="781.5" y="-110.9" font-family="Helvetica,sans-Serif" font-size="11.00" fill="#000000">decimal[6,2]</text>
<polygon fill="none" stroke="#000000" points="552.5,-81.2 552.5,-103.2 778.5,-103.2 778.5,-81.2 552.5,-81.2"/>
<text text-anchor="start" x="572.5" y="-88.3" font-family="Helvetica,sans-Serif" font-size="11.00" fill="#000000">inhaled_oxygen_concentration</text>
<polygon fill="none" stroke="#000000" points="778.5,-81.2 778.5,-103.2 849.5,-103.2 849.5,-81.2 778.5,-81.2"/>
<text text-anchor="start" x="781.5" y="-88.9" font-family="Helvetica,sans-Serif" font-size="11.00" fill="#000000">decimal[6,2]</text>
<polygon fill="none" stroke="#000000" points="552.5,-59.2 552.5,-81.2 778.5,-81.2 778.5,-59.2 552.5,-59.2"/>
<text text-anchor="start" x="572.5" y="-66.3" font-family="Helvetica,sans-Serif" font-size="11.00" fill="#000000">last_updated</text>
<polygon fill="none" stroke="#000000" points="778.5,-59.2 778.5,-81.2 849.5,-81.2 849.5,-59.2 778.5,-59.2"/>
<text text-anchor="start" x="781.5" y="-66.9" font-family="Helvetica,sans-Serif" font-size="11.00" fill="#000000">datetime[19]</text>
<polygon fill="#ffffff" stroke="transparent" points="552.5,-40.2 552.5,-59.2 669.5,-59.2 669.5,-40.2 552.5,-40.2"/>
<polygon fill="none" stroke="#000000" points="552.5,-40.2 552.5,-59.2 669.5,-59.2 669.5,-40.2 552.5,-40.2"/>
<text text-anchor="start" x="555.5" y="-46.3" font-family="Helvetica,sans-Serif" font-size="11.00" fill="#000000">&lt; 3</text>
<polygon fill="#ffffff" stroke="transparent" points="669.5,-40.2 669.5,-59.2 778.5,-59.2 778.5,-40.2 669.5,-40.2"/>
<polygon fill="none" stroke="#000000" points="669.5,-40.2 669.5,-59.2 778.5,-59.2 778.5,-40.2 669.5,-40.2"/>
<text text-anchor="start" x="769.3862" y="-46.3" font-family="Helvetica,sans-Serif" font-size="11.00" fill="#000000"> &#160;</text>
<polygon fill="#ffffff" stroke="transparent" points="778.5,-40.2 778.5,-59.2 849.5,-59.2 849.5,-40.2 778.5,-40.2"/>
<polygon fill="none" stroke="#000000" points="778.5,-40.2 778.5,-59.2 849.5,-59.2 849.5,-40.2 778.5,-40.2"/>
<text text-anchor="start" x="830.9053" y="-46.3" font-family="Helvetica,sans-Serif" font-size="11.00" fill="#000000">2 &gt;</text>
<polygon fill="none" stroke="#000000" stroke-width="2" points="551,-39.2 551,-721.2 850,-721.2 850,-39.2 551,-39.2"/>
</a>
</g>
</g>
<!-- groups -->
<g id="node2" class="node">
<title>groups</title>
<g id="a_node2"><a xlink:href="../../tables/groups.html" xlink:title="groups" target="_top">
<polygon fill="#ffffff" stroke="transparent" points="319.5,-466.2 319.5,-574.2 405.5,-574.2 405.5,-466.2 319.5,-466.2"/>
<polygon fill="#f5f5f5" stroke="transparent" points="319.5,-551.2 319.5,-574.2 405.5,-574.2 405.5,-551.2 319.5,-551.2"/>
<polygon fill="none" stroke="#000000" points="319.5,-551.2 319.5,-574.2 405.5,-574.2 405.5,-551.2 319.5,-551.2"/>
<text text-anchor="start" x="324.5" y="-559.8" font-family="Helvetica,sans-Serif" font-weight="bold" font-size="11.00" fill="#000000">groups</text>
<text text-anchor="start" x="371.0219" y="-559.3" font-family="Helvetica,sans-Serif" font-size="11.00" fill="#000000">[table]</text>
<polygon fill="none" stroke="#000000" points="319.5,-529.2 319.5,-551.2 405.5,-551.2 405.5,-529.2 319.5,-529.2"/>
<image xlink:href="../../images/primaryKeys.png" width="11px" height="12px" preserveAspectRatio="xMinYMin meet" x="324.5" y="-546.2"/>
<text text-anchor="start" x="348.5" y="-536.3" font-family="Helvetica,sans-Serif" font-size="11.00" fill="#000000">id</text>
<polygon fill="none" stroke="#000000" points="319.5,-507.2 319.5,-529.2 405.5,-529.2 405.5,-507.2 319.5,-507.2"/>
<image xlink:href="../../images/primaryKeys.png" width="11px" height="12px" preserveAspectRatio="xMinYMin meet" x="324.5" y="-524.2"/>
<text text-anchor="start" x="348.5" y="-514.3" font-family="Helvetica,sans-Serif" font-size="11.00" fill="#000000">name</text>
<polygon fill="none" stroke="#000000" points="319.5,-485.2 319.5,-507.2 405.5,-507.2 405.5,-485.2 319.5,-485.2"/>
<image xlink:href="../../images/foreignKeys.png" width="11px" height="12px" preserveAspectRatio="xMinYMin meet" x="324.5" y="-502.2"/>
<text text-anchor="start" x="348.5" y="-492.3" font-family="Helvetica,sans-Serif" font-size="11.00" fill="#000000">user</text>
<polygon fill="#ffffff" stroke="transparent" points="319.5,-466.2 319.5,-485.2 353.5,-485.2 353.5,-466.2 319.5,-466.2"/>
<polygon fill="none" stroke="#000000" points="319.5,-466.2 319.5,-485.2 353.5,-485.2 353.5,-466.2 319.5,-466.2"/>
<text text-anchor="start" x="322.5" y="-472.3" font-family="Helvetica,sans-Serif" font-size="11.00" fill="#000000">&lt; 1</text>
<polygon fill="#ffffff" stroke="transparent" points="353.5,-466.2 353.5,-485.2 371.5,-485.2 371.5,-466.2 353.5,-466.2"/>
<polygon fill="none" stroke="#000000" points="353.5,-466.2 353.5,-485.2 371.5,-485.2 371.5,-466.2 353.5,-466.2"/>
<text text-anchor="start" x="362.3862" y="-472.3" font-family="Helvetica,sans-Serif" font-size="11.00" fill="#000000"> &#160;</text>
<polygon fill="#ffffff" stroke="transparent" points="371.5,-466.2 371.5,-485.2 405.5,-485.2 405.5,-466.2 371.5,-466.2"/>
<polygon fill="none" stroke="#000000" points="371.5,-466.2 371.5,-485.2 405.5,-485.2 405.5,-466.2 371.5,-466.2"/>
<text text-anchor="start" x="380.7904" y="-472.3" font-family="Helvetica,sans-Serif" font-size="11.00" fill="#000000">17 &gt;</text>
</a>
</g>
</g>
<!-- form_vitals&#45;&gt;groups -->
<g id="edge1" class="edge">
<title>form_vitals:w&#45;&gt;groups:e</title>
<path fill="none" stroke="#000000" d="M537.8624,-575.289C480.9449,-567.9101 470.5221,-518.2 405.5,-518.2"/>
<polygon fill="#000000" stroke="#000000" points="544.5155,-575.703 552.2763,-579.793 548.5077,-575.9515 552.5,-576.2 552.5,-576.2 552.5,-576.2 548.5077,-575.9515 552.7237,-572.607 544.5155,-575.703 544.5155,-575.703"/>
<ellipse fill="none" stroke="#000000" cx="541.3216" cy="-575.5042" rx="3.2" ry="3.2"/>
</g>
<!-- patient_data -->
<g id="node3" class="node">
<title>patient_data</title>
<g id="a_node3"><a xlink:href="../../tables/patient_data.html" xlink:title="patient_data" target="_top">
<polygon fill="#ffffff" stroke="transparent" points="224,-622.7 224,-1013.7 501,-1013.7 501,-622.7 224,-622.7"/>
<polygon fill="#f5f5f5" stroke="transparent" points="224.5,-990.2 224.5,-1013.2 501.5,-1013.2 501.5,-990.2 224.5,-990.2"/>
<polygon fill="none" stroke="#000000" points="224.5,-990.2 224.5,-1013.2 501.5,-1013.2 501.5,-990.2 224.5,-990.2"/>
<text text-anchor="start" x="229.5" y="-998.8" font-family="Helvetica,sans-Serif" font-weight="bold" font-size="11.00" fill="#000000">patient_data</text>
<text text-anchor="start" x="466.5437" y="-998.3" font-family="Helvetica,sans-Serif" font-size="11.00" fill="#000000">[table]</text>
<polygon fill="none" stroke="#000000" points="224.5,-968.2 224.5,-990.2 501.5,-990.2 501.5,-968.2 224.5,-968.2"/>
<image xlink:href="../../images/primaryKeys.png" width="11px" height="12px" preserveAspectRatio="xMinYMin meet" x="229.5" y="-985.2"/>
<text text-anchor="start" x="244.5" y="-975.3" font-family="Helvetica,sans-Serif" font-size="11.00" fill="#000000">id</text>
<polygon fill="#ffffff" stroke="transparent" points="224.5,-946.2 224.5,-968.2 501.5,-968.2 501.5,-946.2 224.5,-946.2"/>
<polygon fill="none" stroke="#000000" points="224.5,-946.2 224.5,-968.2 501.5,-968.2 501.5,-946.2 224.5,-946.2"/>
<text text-anchor="start" x="244.5" y="-953.3" font-family="Helvetica,sans-Serif" font-size="11.00" fill="#000000">uuid</text>
<polygon fill="#ffffff" stroke="transparent" points="224.5,-924.2 224.5,-946.2 501.5,-946.2 501.5,-924.2 224.5,-924.2"/>
<polygon fill="none" stroke="#000000" points="224.5,-924.2 224.5,-946.2 501.5,-946.2 501.5,-924.2 224.5,-924.2"/>
<text text-anchor="start" x="244.5" y="-931.3" font-family="Helvetica,sans-Serif" font-size="11.00" fill="#000000">fname</text>
<polygon fill="#ffffff" stroke="transparent" points="224.5,-902.2 224.5,-924.2 501.5,-924.2 501.5,-902.2 224.5,-902.2"/>
<polygon fill="none" stroke="#000000" points="224.5,-902.2 224.5,-924.2 501.5,-924.2 501.5,-902.2 224.5,-902.2"/>
<text text-anchor="start" x="244.5" y="-909.3" font-family="Helvetica,sans-Serif" font-size="11.00" fill="#000000">lname</text>
<polygon fill="#ffffff" stroke="transparent" points="224.5,-880.2 224.5,-902.2 501.5,-902.2 501.5,-880.2 224.5,-880.2"/>
<polygon fill="none" stroke="#000000" points="224.5,-880.2 224.5,-902.2 501.5,-902.2 501.5,-880.2 224.5,-880.2"/>
<text text-anchor="start" x="244.5" y="-887.3" font-family="Helvetica,sans-Serif" font-size="11.00" fill="#000000">DOB</text>
<polygon fill="none" stroke="#000000" points="224.5,-858.2 224.5,-880.2 501.5,-880.2 501.5,-858.2 224.5,-858.2"/>
<image xlink:href="../../images/foreignKeys.png" width="11px" height="12px" preserveAspectRatio="xMinYMin meet" x="229.5" y="-875.2"/>
<text text-anchor="start" x="244.5" y="-865.3" font-family="Helvetica,sans-Serif" font-size="11.00" fill="#000000">pharmacy_id</text>
<polygon fill="none" stroke="#000000" points="224.5,-836.2 224.5,-858.2 501.5,-858.2 501.5,-836.2 224.5,-836.2"/>
<image xlink:href="../../images/foreignKeys.png" width="11px" height="12px" preserveAspectRatio="xMinYMin meet" x="229.5" y="-853.2"/>
<text text-anchor="start" x="244.5" y="-843.3" font-family="Helvetica,sans-Serif" font-size="11.00" fill="#000000">providerID</text>
<polygon fill="none" stroke="#000000" points="224.5,-814.2 224.5,-836.2 501.5,-836.2 501.5,-814.2 224.5,-814.2"/>
<image xlink:href="../../images/foreignKeys.png" width="11px" height="12px" preserveAspectRatio="xMinYMin meet" x="229.5" y="-831.2"/>
<text text-anchor="start" x="244.5" y="-821.3" font-family="Helvetica,sans-Serif" font-size="11.00" fill="#000000">ref_providerID</text>
<polygon fill="none" stroke="#000000" points="224.5,-792.2 224.5,-814.2 501.5,-814.2 501.5,-792.2 224.5,-792.2"/>
<image xlink:href="../../images/foreignKeys.png" width="11px" height="12px" preserveAspectRatio="xMinYMin meet" x="229.5" y="-809.2"/>
<text text-anchor="start" x="244.5" y="-799.3" font-family="Helvetica,sans-Serif" font-size="11.00" fill="#000000">interpreter_needed</text>
<polygon fill="none" stroke="#000000" points="224.5,-770.2 224.5,-792.2 501.5,-792.2 501.5,-770.2 224.5,-770.2"/>
<image xlink:href="../../images/primaryKeys.png" width="11px" height="12px" preserveAspectRatio="xMinYMin meet" x="229.5" y="-787.2"/>
<text text-anchor="start" x="244.5" y="-777.3" font-family="Helvetica,sans-Serif" font-size="11.00" fill="#000000">pid</text>
<polygon fill="none" stroke="#000000" points="224.5,-748.2 224.5,-770.2 501.5,-770.2 501.5,-748.2 224.5,-748.2"/>
<image xlink:href="../../images/foreignKeys.png" width="11px" height="12px" preserveAspectRatio="xMinYMin meet" x="229.5" y="-765.2"/>
<text text-anchor="start" x="244.5" y="-755.3" font-family="Helvetica,sans-Serif" font-size="11.00" fill="#000000">advance_directive_user_authenticator</text>
<polygon fill="none" stroke="#000000" points="224.5,-726.2 224.5,-748.2 501.5,-748.2 501.5,-726.2 224.5,-726.2"/>
<image xlink:href="../../images/foreignKeys.png" width="11px" height="12px" preserveAspectRatio="xMinYMin meet" x="229.5" y="-743.2"/>
<text text-anchor="start" x="244.5" y="-733.3" font-family="Helvetica,sans-Serif" font-size="11.00" fill="#000000">created_by</text>
<polygon fill="none" stroke="#000000" points="224.5,-704.2 224.5,-726.2 501.5,-726.2 501.5,-704.2 224.5,-704.2"/>
<image xlink:href="../../images/foreignKeys.png" width="11px" height="12px" preserveAspectRatio="xMinYMin meet" x="229.5" y="-721.2"/>
<text text-anchor="start" x="244.5" y="-711.3" font-family="Helvetica,sans-Serif" font-size="11.00" fill="#000000">updated_by</text>
<polygon fill="none" stroke="#000000" points="224.5,-682.2 224.5,-704.2 501.5,-704.2 501.5,-682.2 224.5,-682.2"/>
<image xlink:href="../../images/foreignKeys.png" width="11px" height="12px" preserveAspectRatio="xMinYMin meet" x="229.5" y="-699.2"/>
<text text-anchor="start" x="244.5" y="-689.3" font-family="Helvetica,sans-Serif" font-size="11.00" fill="#000000">tribal_affiliations</text>
<polygon fill="none" stroke="#000000" points="224.5,-660.2 224.5,-682.2 501.5,-682.2 501.5,-660.2 224.5,-660.2"/>
<image xlink:href="../../images/foreignKeys.png" width="11px" height="12px" preserveAspectRatio="xMinYMin meet" x="229.5" y="-677.2"/>
<text text-anchor="start" x="244.5" y="-667.3" font-family="Helvetica,sans-Serif" font-size="11.00" fill="#000000">sex_identified</text>
<polygon fill="none" stroke="#000000" points="224.5,-641.2 224.5,-660.2 501.5,-660.2 501.5,-641.2 224.5,-641.2"/>
<text text-anchor="start" x="227.5" y="-647.3" font-family="Helvetica,sans-Serif" font-size="11.00" fill="#000000">...</text>
<polygon fill="#ffffff" stroke="transparent" points="224.5,-622.2 224.5,-641.2 353.5,-641.2 353.5,-622.2 224.5,-622.2"/>
<polygon fill="none" stroke="#000000" points="224.5,-622.2 224.5,-641.2 353.5,-641.2 353.5,-622.2 224.5,-622.2"/>
<text text-anchor="start" x="227.5" y="-628.3" font-family="Helvetica,sans-Serif" font-size="11.00" fill="#000000">&lt; 9</text>
<polygon fill="#ffffff" stroke="transparent" points="353.5,-622.2 353.5,-641.2 419.5,-641.2 419.5,-622.2 353.5,-622.2"/>
<polygon fill="none" stroke="#000000" points="353.5,-622.2 353.5,-641.2 419.5,-641.2 419.5,-622.2 353.5,-622.2"/>
<text text-anchor="start" x="410.3862" y="-628.3" font-family="Helvetica,sans-Serif" font-size="11.00" fill="#000000"> &#160;</text>
<polygon fill="#ffffff" stroke="transparent" points="419.5,-622.2 419.5,-641.2 501.5,-641.2 501.5,-622.2 419.5,-622.2"/>
<polygon fill="none" stroke="#000000" points="419.5,-622.2 419.5,-641.2 501.5,-641.2 501.5,-622.2 419.5,-622.2"/>
<text text-anchor="start" x="476.7904" y="-628.3" font-family="Helvetica,sans-Serif" font-size="11.00" fill="#000000">95 &gt;</text>
</a>
</g>
</g>
<!-- form_vitals&#45;&gt;patient_data -->
<g id="edge2" class="edge">
<title>form_vitals:w&#45;&gt;patient_data:e</title>
<path fill="none" stroke="#000000" d="M538.2255,-622.8601C491.5298,-643.7932 570.8424,-781.2 501.5,-781.2"/>
<polygon fill="#000000" stroke="#000000" points="544.6354,-621.6657 553.1595,-623.7391 548.5677,-620.9328 552.5,-620.2 552.5,-620.2 552.5,-620.2 548.5677,-620.9328 551.8405,-616.6609 544.6354,-621.6657 544.6354,-621.6657"/>
<ellipse fill="none" stroke="#000000" cx="541.4896" cy="-622.2519" rx="3.2" ry="3.2"/>
</g>
<!-- users -->
<g id="node4" class="node">
<title>users</title>
<g id="a_node4"><a xlink:href="../../tables/users.html" xlink:title="users" target="_top">
<polygon fill="#ffffff" stroke="transparent" points="8,-556.7 8,-771.7 175,-771.7 175,-556.7 8,-556.7"/>
<polygon fill="#f5f5f5" stroke="transparent" points="8.5,-748.2 8.5,-771.2 175.5,-771.2 175.5,-748.2 8.5,-748.2"/>
<polygon fill="none" stroke="#000000" points="8.5,-748.2 8.5,-771.2 175.5,-771.2 175.5,-748.2 8.5,-748.2"/>
<text text-anchor="start" x="13.5" y="-756.8" font-family="Helvetica,sans-Serif" font-weight="bold" font-size="11.00" fill="#000000">users</text>
<text text-anchor="start" x="140.5437" y="-756.3" font-family="Helvetica,sans-Serif" font-size="11.00" fill="#000000">[table]</text>
<polygon fill="none" stroke="#000000" points="8.5,-726.2 8.5,-748.2 175.5,-748.2 175.5,-726.2 8.5,-726.2"/>
<image xlink:href="../../images/primaryKeys.png" width="11px" height="12px" preserveAspectRatio="xMinYMin meet" x="13.5" y="-743.2"/>
<text text-anchor="start" x="28.5" y="-733.3" font-family="Helvetica,sans-Serif" font-size="11.00" fill="#000000">id</text>
<polygon fill="#ffffff" stroke="transparent" points="8.5,-704.2 8.5,-726.2 175.5,-726.2 175.5,-704.2 8.5,-704.2"/>
<polygon fill="none" stroke="#000000" points="8.5,-704.2 8.5,-726.2 175.5,-726.2 175.5,-704.2 8.5,-704.2"/>
<text text-anchor="start" x="28.5" y="-711.3" font-family="Helvetica,sans-Serif" font-size="11.00" fill="#000000">uuid</text>
<polygon fill="none" stroke="#000000" points="8.5,-682.2 8.5,-704.2 175.5,-704.2 175.5,-682.2 8.5,-682.2"/>
<image xlink:href="../../images/primaryKeys.png" width="11px" height="12px" preserveAspectRatio="xMinYMin meet" x="13.5" y="-699.2"/>
<text text-anchor="start" x="28.5" y="-689.3" font-family="Helvetica,sans-Serif" font-size="11.00" fill="#000000">username</text>
<polygon fill="none" stroke="#000000" points="8.5,-660.2 8.5,-682.2 175.5,-682.2 175.5,-660.2 8.5,-660.2"/>
<image xlink:href="../../images/foreignKeys.png" width="11px" height="12px" preserveAspectRatio="xMinYMin meet" x="13.5" y="-677.2"/>
<text text-anchor="start" x="28.5" y="-667.3" font-family="Helvetica,sans-Serif" font-size="11.00" fill="#000000">facility_id</text>
<polygon fill="#ffffff" stroke="transparent" points="8.5,-638.2 8.5,-660.2 175.5,-660.2 175.5,-638.2 8.5,-638.2"/>
<polygon fill="none" stroke="#000000" points="8.5,-638.2 8.5,-660.2 175.5,-660.2 175.5,-638.2 8.5,-638.2"/>
<text text-anchor="start" x="28.5" y="-645.3" font-family="Helvetica,sans-Serif" font-size="11.00" fill="#000000">google_signin_email</text>
<polygon fill="#ffffff" stroke="transparent" points="8.5,-616.2 8.5,-638.2 175.5,-638.2 175.5,-616.2 8.5,-616.2"/>
<polygon fill="none" stroke="#000000" points="8.5,-616.2 8.5,-638.2 175.5,-638.2 175.5,-616.2 8.5,-616.2"/>
<text text-anchor="start" x="28.5" y="-623.3" font-family="Helvetica,sans-Serif" font-size="11.00" fill="#000000">abook_type</text>
<polygon fill="none" stroke="#000000" points="8.5,-594.2 8.5,-616.2 175.5,-616.2 175.5,-594.2 8.5,-594.2"/>
<image xlink:href="../../images/foreignKeys.png" width="11px" height="12px" preserveAspectRatio="xMinYMin meet" x="13.5" y="-611.2"/>
<text text-anchor="start" x="28.5" y="-601.3" font-family="Helvetica,sans-Serif" font-size="11.00" fill="#000000">billing_facility_id</text>
<polygon fill="none" stroke="#000000" points="8.5,-575.2 8.5,-594.2 175.5,-594.2 175.5,-575.2 8.5,-575.2"/>
<text text-anchor="start" x="11.5" y="-581.3" font-family="Helvetica,sans-Serif" font-size="11.00" fill="#000000">...</text>
<polygon fill="#ffffff" stroke="transparent" points="8.5,-556.2 8.5,-575.2 82.5,-575.2 82.5,-556.2 8.5,-556.2"/>
<polygon fill="none" stroke="#000000" points="8.5,-556.2 8.5,-575.2 82.5,-575.2 82.5,-556.2 8.5,-556.2"/>
<text text-anchor="start" x="11.5" y="-562.3" font-family="Helvetica,sans-Serif" font-size="11.00" fill="#000000">&lt; 2</text>
<polygon fill="#ffffff" stroke="transparent" points="82.5,-556.2 82.5,-575.2 121.5,-575.2 121.5,-556.2 82.5,-556.2"/>
<polygon fill="none" stroke="#000000" points="82.5,-556.2 82.5,-575.2 121.5,-575.2 121.5,-556.2 82.5,-556.2"/>
<text text-anchor="start" x="112.3862" y="-562.3" font-family="Helvetica,sans-Serif" font-size="11.00" fill="#000000"> &#160;</text>
<polygon fill="#ffffff" stroke="transparent" points="121.5,-556.2 121.5,-575.2 175.5,-575.2 175.5,-556.2 121.5,-556.2"/>
<polygon fill="none" stroke="#000000" points="121.5,-556.2 121.5,-575.2 175.5,-575.2 175.5,-556.2 121.5,-556.2"/>
<text text-anchor="start" x="150.7904" y="-562.3" font-family="Helvetica,sans-Serif" font-size="11.00" fill="#000000">90 &gt;</text>
</a>
</g>
</g>
<!-- form_vitals&#45;&gt;users -->
<g id="edge3" class="edge">
<title>form_vitals:w&#45;&gt;users:e</title>
<path fill="none" stroke="#000000" d="M537.8599,-597.936C454.452,-595.2624 275.0901,-573.9602 216,-612.2 182.2093,-634.0675 215.7492,-693.2 175.5,-693.2"/>
<polygon fill="#000000" stroke="#000000" points="544.5013,-598.0557 552.4351,-601.7994 548.5007,-598.1279 552.5,-598.2 552.5,-598.2 552.5,-598.2 548.5007,-598.1279 552.5649,-594.6006 544.5013,-598.0557 544.5013,-598.0557"/>
<ellipse fill="none" stroke="#000000" cx="541.3018" cy="-597.998" rx="3.2" ry="3.2"/>
</g>
<!-- groups&#45;&gt;users -->
<g id="edge5" class="edge">
<title>groups:w&#45;&gt;users:e</title>
<path fill="none" stroke="#000000" d="M305.1007,-497.0573C256.5978,-503.2216 248.1181,-541.8664 216,-588.2 187.5048,-629.3072 225.5178,-693.2 175.5,-693.2"/>
<polygon fill="#000000" stroke="#000000" points="311.5141,-496.6755 319.714,-499.7936 315.5071,-496.4378 319.5,-496.2 319.5,-496.2 319.5,-496.2 315.5071,-496.4378 319.286,-492.6064 311.5141,-496.6755 311.5141,-496.6755"/>
<ellipse fill="none" stroke="#000000" cx="308.3198" cy="-496.8657" rx="3.2" ry="3.2"/>
</g>
<!-- patient_data&#45;&gt;users -->
<g id="edge7" class="edge">
<title>patient_data:w&#45;&gt;users:e</title>
<path fill="none" stroke="#000000" d="M210.1297,-755.7625C198.5865,-749.575 193.4041,-737.2 175.5,-737.2"/>
<polygon fill="#000000" stroke="#000000" points="216.7195,-757.3388 223.6625,-762.7012 220.6098,-758.2694 224.5,-759.2 224.5,-759.2 224.5,-759.2 220.6098,-758.2694 225.3375,-755.6988 216.7195,-757.3388 216.7195,-757.3388"/>
<ellipse fill="none" stroke="#000000" cx="213.6073" cy="-756.5943" rx="3.2" ry="3.2"/>
</g>
<!-- patient_data&#45;&gt;users -->
<g id="edge8" class="edge">
<title>patient_data:w&#45;&gt;users:e</title>
<path fill="none" stroke="#000000" d="M209.9909,-737.2C198.6774,-737.2 191.4931,-737.2 175.5,-737.2"/>
<polygon fill="#000000" stroke="#000000" points="216.5,-737.2001 224.5,-740.8 220.5,-737.2 224.5,-737.2 224.5,-737.2 224.5,-737.2 220.5,-737.2 224.5,-733.6 216.5,-737.2001 216.5,-737.2001"/>
<ellipse fill="none" stroke="#000000" cx="213.3" cy="-737.2001" rx="3.2" ry="3.2"/>
</g>
<!-- patient_data&#45;&gt;users -->
<g id="edge9" class="edge">
<title>patient_data:w&#45;&gt;users:e</title>
<path fill="none" stroke="#000000" d="M210.282,-843.285C182.6981,-823.6897 222.9572,-737.2 175.5,-737.2"/>
<polygon fill="#000000" stroke="#000000" points="216.7871,-845.0762 223.5443,-850.6708 220.6435,-846.1381 224.5,-847.2 224.5,-847.2 224.5,-847.2 220.6435,-846.1381 225.4557,-843.7292 216.7871,-845.0762 216.7871,-845.0762"/>
<ellipse fill="none" stroke="#000000" cx="213.7019" cy="-844.2266" rx="3.2" ry="3.2"/>
</g>
<!-- patient_data&#45;&gt;users -->
<g id="edge10" class="edge">
<title>patient_data:w&#45;&gt;users:e</title>
<path fill="none" stroke="#000000" d="M210.4863,-820.7151C189.2228,-802.7824 214.1452,-737.2 175.5,-737.2"/>
<polygon fill="#000000" stroke="#000000" points="216.8807,-822.7615 223.4027,-828.6287 220.6903,-823.9807 224.5,-825.2 224.5,-825.2 224.5,-825.2 220.6903,-823.9807 225.5973,-821.7713 216.8807,-822.7615 216.8807,-822.7615"/>
<ellipse fill="none" stroke="#000000" cx="213.833" cy="-821.7861" rx="3.2" ry="3.2"/>
</g>
<!-- patient_data&#45;&gt;users -->
<g id="edge11" class="edge">
<title>patient_data:w&#45;&gt;users:e</title>
<path fill="none" stroke="#000000" d="M210.1297,-718.6375C198.5865,-724.825 193.4041,-737.2 175.5,-737.2"/>
<polygon fill="#000000" stroke="#000000" points="216.7195,-717.0612 225.3375,-718.7012 220.6098,-716.1306 224.5,-715.2 224.5,-715.2 224.5,-715.2 220.6098,-716.1306 223.6625,-711.6988 216.7195,-717.0612 216.7195,-717.0612"/>
<ellipse fill="none" stroke="#000000" cx="213.6073" cy="-717.8057" rx="3.2" ry="3.2"/>
</g>
<!-- form_vitals_calculation_form_vitals -->
<g id="node5" class="node">
<title>form_vitals_calculation_form_vitals</title>
<g id="a_node5"><a xlink:href="../../tables/form_vitals_calculation_form_vitals.html" xlink:title="form_vitals_calculation_form_vitals" target="_top">
<polygon fill="#ffffff" stroke="transparent" points="900,-699.2 900,-785.2 1174,-785.2 1174,-699.2 900,-699.2"/>
<polygon fill="#f5f5f5" stroke="transparent" points="900,-762.2 900,-785.2 1174,-785.2 1174,-762.2 900,-762.2"/>
<polygon fill="none" stroke="#000000" points="900,-762.2 900,-785.2 1174,-785.2 1174,-762.2 900,-762.2"/>
<text text-anchor="start" x="905" y="-770.8" font-family="Helvetica,sans-Serif" font-weight="bold" font-size="11.00" fill="#000000">form_vitals_calculation_form_vitals</text>
<text text-anchor="start" x="1139.5219" y="-770.3" font-family="Helvetica,sans-Serif" font-size="11.00" fill="#000000">[table]</text>
<polygon fill="none" stroke="#000000" points="900,-740.2 900,-762.2 1174,-762.2 1174,-740.2 900,-740.2"/>
<image xlink:href="../../images/primaryKeys.png" width="11px" height="12px" preserveAspectRatio="xMinYMin meet" x="905" y="-757.2"/>
<text text-anchor="start" x="929" y="-747.3" font-family="Helvetica,sans-Serif" font-size="11.00" fill="#000000">fvc_uuid</text>
<polygon fill="none" stroke="#000000" points="900,-718.2 900,-740.2 1174,-740.2 1174,-718.2 900,-718.2"/>
<image xlink:href="../../images/primaryKeys.png" width="11px" height="12px" preserveAspectRatio="xMinYMin meet" x="905" y="-735.2"/>
<text text-anchor="start" x="929" y="-725.3" font-family="Helvetica,sans-Serif" font-size="11.00" fill="#000000">vitals_id</text>
<polygon fill="#ffffff" stroke="transparent" points="900,-699.2 900,-718.2 1035,-718.2 1035,-699.2 900,-699.2"/>
<polygon fill="none" stroke="#000000" points="900,-699.2 900,-718.2 1035,-718.2 1035,-699.2 900,-699.2"/>
<text text-anchor="start" x="903" y="-705.3" font-family="Helvetica,sans-Serif" font-size="11.00" fill="#000000">&lt; 2</text>
<polygon fill="#ffffff" stroke="transparent" points="1035,-699.2 1035,-718.2 1104,-718.2 1104,-699.2 1035,-699.2"/>
<polygon fill="none" stroke="#000000" points="1035,-699.2 1035,-718.2 1104,-718.2 1104,-699.2 1035,-699.2"/>
<text text-anchor="start" x="1094.8862" y="-705.3" font-family="Helvetica,sans-Serif" font-size="11.00" fill="#000000"> &#160;</text>
<polygon fill="#ffffff" stroke="transparent" points="1104,-699.2 1104,-718.2 1174,-718.2 1174,-699.2 1104,-699.2"/>
<polygon fill="none" stroke="#000000" points="1104,-699.2 1104,-718.2 1174,-718.2 1174,-699.2 1104,-699.2"/>
<text text-anchor="start" x="1164.8862" y="-705.3" font-family="Helvetica,sans-Serif" font-size="11.00" fill="#000000"> &#160;</text>
</a>
</g>
</g>
<!-- form_vitals_calculation_form_vitals&#45;&gt;form_vitals -->
<g id="edge4" class="edge">
<title>form_vitals_calculation_form_vitals:w&#45;&gt;form_vitals:e</title>
<path fill="none" stroke="#000000" d="M886.0963,-724.5982C872.3919,-713.5054 872.9908,-686.2 849.5,-686.2"/>
<polygon fill="#000000" stroke="#000000" points="892.4052,-726.6863 898.8688,-732.6177 896.2026,-727.9431 900,-729.2 900,-729.2 900,-729.2 896.2026,-727.9431 901.1312,-725.7823 892.4052,-726.6863 892.4052,-726.6863"/>
<ellipse fill="none" stroke="#000000" cx="889.3672" cy="-725.6808" rx="3.2" ry="3.2"/>
</g>
<!-- form_vital_details -->
<g id="node6" class="node">
<title>form_vital_details</title>
<g id="a_node6"><a xlink:href="../../tables/form_vital_details.html" xlink:title="form_vital_details" target="_top">
<polygon fill="#ffffff" stroke="transparent" points="943,-550.7 943,-677.7 1131,-677.7 1131,-550.7 943,-550.7"/>
<polygon fill="#f5f5f5" stroke="transparent" points="943,-654.2 943,-677.2 1131,-677.2 1131,-654.2 943,-654.2"/>
<polygon fill="none" stroke="#000000" points="943,-654.2 943,-677.2 1131,-677.2 1131,-654.2 943,-654.2"/>
<text text-anchor="start" x="948" y="-662.8" font-family="Helvetica,sans-Serif" font-weight="bold" font-size="11.00" fill="#000000">form_vital_details</text>
<text text-anchor="start" x="1096.0437" y="-662.3" font-family="Helvetica,sans-Serif" font-size="11.00" fill="#000000">[table]</text>
<polygon fill="none" stroke="#000000" points="943,-632.2 943,-654.2 1131,-654.2 1131,-632.2 943,-632.2"/>
<image xlink:href="../../images/foreignKeys.png" width="11px" height="12px" preserveAspectRatio="xMinYMin meet" x="948" y="-649.2"/>
<text text-anchor="start" x="963" y="-639.3" font-family="Helvetica,sans-Serif" font-size="11.00" fill="#000000">form_id</text>
<polygon fill="none" stroke="#000000" points="943,-610.2 943,-632.2 1131,-632.2 1131,-610.2 943,-610.2"/>
<image xlink:href="../../images/foreignKeys.png" width="11px" height="12px" preserveAspectRatio="xMinYMin meet" x="948" y="-627.2"/>
<text text-anchor="start" x="963" y="-617.3" font-family="Helvetica,sans-Serif" font-size="11.00" fill="#000000">interpretation_list_id </text>
<polygon fill="none" stroke="#000000" points="943,-588.2 943,-610.2 1131,-610.2 1131,-588.2 943,-588.2"/>
<image xlink:href="../../images/foreignKeys.png" width="11px" height="12px" preserveAspectRatio="xMinYMin meet" x="948" y="-605.2"/>
<text text-anchor="start" x="963" y="-595.3" font-family="Helvetica,sans-Serif" font-size="11.00" fill="#000000">interpretation_option_id </text>
<polygon fill="none" stroke="#000000" points="943,-569.2 943,-588.2 1131,-588.2 1131,-569.2 943,-569.2"/>
<text text-anchor="start" x="946" y="-575.3" font-family="Helvetica,sans-Serif" font-size="11.00" fill="#000000">...</text>
<polygon fill="#ffffff" stroke="transparent" points="943,-550.2 943,-569.2 1035,-569.2 1035,-550.2 943,-550.2"/>
<polygon fill="none" stroke="#000000" points="943,-550.2 943,-569.2 1035,-569.2 1035,-550.2 943,-550.2"/>
<text text-anchor="start" x="946" y="-556.3" font-family="Helvetica,sans-Serif" font-size="11.00" fill="#000000">&lt; 3</text>
<polygon fill="#ffffff" stroke="transparent" points="1035,-550.2 1035,-569.2 1083,-569.2 1083,-550.2 1035,-550.2"/>
<polygon fill="none" stroke="#000000" points="1035,-550.2 1035,-569.2 1083,-569.2 1083,-550.2 1035,-550.2"/>
<text text-anchor="start" x="1073.8862" y="-556.3" font-family="Helvetica,sans-Serif" font-size="11.00" fill="#000000"> &#160;</text>
<polygon fill="#ffffff" stroke="transparent" points="1083,-550.2 1083,-569.2 1131,-569.2 1131,-550.2 1083,-550.2"/>
<polygon fill="none" stroke="#000000" points="1083,-550.2 1083,-569.2 1131,-569.2 1131,-550.2 1083,-550.2"/>
<text text-anchor="start" x="1121.8862" y="-556.3" font-family="Helvetica,sans-Serif" font-size="11.00" fill="#000000"> &#160;</text>
</a>
</g>
</g>
<!-- form_vital_details&#45;&gt;form_vitals -->
<g id="edge6" class="edge">
<title>form_vital_details:w&#45;&gt;form_vitals:e</title>
<path fill="none" stroke="#000000" d="M928.5801,-644.8331C896.1865,-652.6876 889.8794,-686.2 849.5,-686.2"/>
<polygon fill="#000000" stroke="#000000" points="935.0508,-644.1003 943.4052,-646.7771 939.0254,-643.6502 943,-643.2 943,-643.2 943,-643.2 939.0254,-643.6502 942.5948,-639.6229 935.0508,-644.1003 935.0508,-644.1003"/>
<ellipse fill="none" stroke="#000000" cx="931.8711" cy="-644.4605" rx="3.2" ry="3.2"/>
</g>
</g>
</svg>
