<?xml version="1.0" encoding="UTF-8" standalone="no"?>
<!DOCTYPE svg PUBLIC "-//W3C//DTD SVG 1.1//EN"
 "http://www.w3.org/Graphics/SVG/1.1/DTD/svg11.dtd">
<!-- Generated by graphviz version 2.40.1 (20161225.0304)
 -->
<!-- Title: oneDegreeRelationshipsDiagram Pages: 1 -->
<svg width="605pt" height="491pt"
 viewBox="0.00 0.00 605.00 490.70" xmlns="http://www.w3.org/2000/svg" xmlns:xlink="http://www.w3.org/1999/xlink">
<g id="graph0" class="graph" transform="scale(1 1) rotate(0) translate(4 486.7)">
<title>oneDegreeRelationshipsDiagram</title>
<polygon fill="#ffffff" stroke="transparent" points="-4,4 -4,-486.7 601,-486.7 601,4 -4,4"/>
<text text-anchor="middle" x="72.4936" y="-7.3" font-family="Helvetica,sans-Serif" font-size="11.00" fill="#000000">Generated by SchemaSpy</text>
<!-- form_eye_mag_impplan -->
<g id="node1" class="node">
<title>form_eye_mag_impplan</title>
<g id="a_node1"><a xlink:href="../../tables/form_eye_mag_impplan.html" xlink:title="form_eye_mag_impplan" target="_top">
<polygon fill="#ffffff" stroke="transparent" points="334,-38.2 334,-326.2 589,-326.2 589,-38.2 334,-38.2"/>
<polygon fill="#f5f5f5" stroke="transparent" points="336.5,-301.2 336.5,-324.2 587.5,-324.2 587.5,-301.2 336.5,-301.2"/>
<polygon fill="none" stroke="#000000" points="336.5,-301.2 336.5,-324.2 587.5,-324.2 587.5,-301.2 336.5,-301.2"/>
<text text-anchor="start" x="341.5" y="-309.8" font-family="Helvetica,sans-Serif" font-weight="bold" font-size="11.00" fill="#000000">form_eye_mag_impplan</text>
<text text-anchor="start" x="552.5437" y="-309.3" font-family="Helvetica,sans-Serif" font-size="11.00" fill="#000000">[table]</text>
<polygon fill="none" stroke="#000000" points="336.5,-279.2 336.5,-301.2 514.5,-301.2 514.5,-279.2 336.5,-279.2"/>
<image xlink:href="../../images/primaryKeys.png" width="11px" height="12px" preserveAspectRatio="xMinYMin meet" x="341.5" y="-296.2"/>
<text text-anchor="start" x="356.5" y="-286.3" font-family="Helvetica,sans-Serif" font-size="11.00" fill="#000000">id</text>
<polygon fill="none" stroke="#000000" points="514.5,-279.2 514.5,-301.2 587.5,-301.2 587.5,-279.2 514.5,-279.2"/>
<text text-anchor="start" x="517.5" y="-286.9" font-family="Helvetica,sans-Serif" font-size="11.00" fill="#000000">int[10]</text>
<polygon fill="#ffffff" stroke="transparent" points="336.5,-257.2 336.5,-279.2 514.5,-279.2 514.5,-257.2 336.5,-257.2"/>
<polygon fill="none" stroke="#000000" points="336.5,-257.2 336.5,-279.2 514.5,-279.2 514.5,-257.2 336.5,-257.2"/>
<text text-anchor="start" x="356.5" y="-264.3" font-family="Helvetica,sans-Serif" font-size="11.00" fill="#000000">form_id</text>
<polygon fill="none" stroke="#000000" points="514.5,-257.2 514.5,-279.2 587.5,-279.2 587.5,-257.2 514.5,-257.2"/>
<text text-anchor="start" x="517.5" y="-264.9" font-family="Helvetica,sans-Serif" font-size="11.00" fill="#000000">bigint[19]</text>
<polygon fill="#ffffff" stroke="transparent" points="336.5,-235.2 336.5,-257.2 514.5,-257.2 514.5,-235.2 336.5,-235.2"/>
<polygon fill="none" stroke="#000000" points="336.5,-235.2 336.5,-257.2 514.5,-257.2 514.5,-235.2 336.5,-235.2"/>
<image xlink:href="../../images/foreignKeys.png" width="11px" height="12px" preserveAspectRatio="xMinYMin meet" x="341.5" y="-252.2"/>
<text text-anchor="start" x="356.5" y="-242.3" font-family="Helvetica,sans-Serif" font-size="11.00" fill="#000000">pid</text>
<polygon fill="none" stroke="#000000" points="514.5,-235.2 514.5,-257.2 587.5,-257.2 587.5,-235.2 514.5,-235.2"/>
<text text-anchor="start" x="517.5" y="-242.9" font-family="Helvetica,sans-Serif" font-size="11.00" fill="#000000">bigint[19]</text>
<polygon fill="#ffffff" stroke="transparent" points="336.5,-213.2 336.5,-235.2 514.5,-235.2 514.5,-213.2 336.5,-213.2"/>
<polygon fill="none" stroke="#000000" points="336.5,-213.2 336.5,-235.2 514.5,-235.2 514.5,-213.2 336.5,-213.2"/>
<text text-anchor="start" x="356.5" y="-220.3" font-family="Helvetica,sans-Serif" font-size="11.00" fill="#000000">title</text>
<polygon fill="none" stroke="#000000" points="514.5,-213.2 514.5,-235.2 587.5,-235.2 587.5,-213.2 514.5,-213.2"/>
<text text-anchor="start" x="517.5" y="-220.9" font-family="Helvetica,sans-Serif" font-size="11.00" fill="#000000">varchar[255]</text>
<polygon fill="none" stroke="#000000" points="336.5,-191.2 336.5,-213.2 514.5,-213.2 514.5,-191.2 336.5,-191.2"/>
<text text-anchor="start" x="356.5" y="-198.3" font-family="Helvetica,sans-Serif" font-size="11.00" fill="#000000">code</text>
<polygon fill="none" stroke="#000000" points="514.5,-191.2 514.5,-213.2 587.5,-213.2 587.5,-191.2 514.5,-191.2"/>
<text text-anchor="start" x="517.5" y="-198.9" font-family="Helvetica,sans-Serif" font-size="11.00" fill="#000000">varchar[50]</text>
<polygon fill="none" stroke="#000000" points="336.5,-169.2 336.5,-191.2 514.5,-191.2 514.5,-169.2 336.5,-169.2"/>
<text text-anchor="start" x="356.5" y="-176.3" font-family="Helvetica,sans-Serif" font-size="11.00" fill="#000000">codetype</text>
<polygon fill="none" stroke="#000000" points="514.5,-169.2 514.5,-191.2 587.5,-191.2 587.5,-169.2 514.5,-169.2"/>
<text text-anchor="start" x="517.5" y="-176.9" font-family="Helvetica,sans-Serif" font-size="11.00" fill="#000000">varchar[50]</text>
<polygon fill="none" stroke="#000000" points="336.5,-147.2 336.5,-169.2 514.5,-169.2 514.5,-147.2 336.5,-147.2"/>
<text text-anchor="start" x="356.5" y="-154.3" font-family="Helvetica,sans-Serif" font-size="11.00" fill="#000000">codedesc</text>
<polygon fill="none" stroke="#000000" points="514.5,-147.2 514.5,-169.2 587.5,-169.2 587.5,-147.2 514.5,-147.2"/>
<text text-anchor="start" x="517.5" y="-154.9" font-family="Helvetica,sans-Serif" font-size="11.00" fill="#000000">varchar[255]</text>
<polygon fill="none" stroke="#000000" points="336.5,-125.2 336.5,-147.2 514.5,-147.2 514.5,-125.2 336.5,-125.2"/>
<text text-anchor="start" x="356.5" y="-132.3" font-family="Helvetica,sans-Serif" font-size="11.00" fill="#000000">codetext</text>
<polygon fill="none" stroke="#000000" points="514.5,-125.2 514.5,-147.2 587.5,-147.2 587.5,-125.2 514.5,-125.2"/>
<text text-anchor="start" x="517.5" y="-132.9" font-family="Helvetica,sans-Serif" font-size="11.00" fill="#000000">varchar[255]</text>
<polygon fill="#ffffff" stroke="transparent" points="336.5,-103.2 336.5,-125.2 514.5,-125.2 514.5,-103.2 336.5,-103.2"/>
<polygon fill="none" stroke="#000000" points="336.5,-103.2 336.5,-125.2 514.5,-125.2 514.5,-103.2 336.5,-103.2"/>
<text text-anchor="start" x="356.5" y="-110.3" font-family="Helvetica,sans-Serif" font-size="11.00" fill="#000000">plan</text>
<polygon fill="none" stroke="#000000" points="514.5,-103.2 514.5,-125.2 587.5,-125.2 587.5,-103.2 514.5,-103.2"/>
<text text-anchor="start" x="517.3791" y="-110.9" font-family="Helvetica,sans-Serif" font-size="11.00" fill="#000000">varchar[3000]</text>
<polygon fill="none" stroke="#000000" points="336.5,-81.2 336.5,-103.2 514.5,-103.2 514.5,-81.2 336.5,-81.2"/>
<text text-anchor="start" x="356.5" y="-88.3" font-family="Helvetica,sans-Serif" font-size="11.00" fill="#000000">PMSFH_link</text>
<polygon fill="none" stroke="#000000" points="514.5,-81.2 514.5,-103.2 587.5,-103.2 587.5,-81.2 514.5,-81.2"/>
<text text-anchor="start" x="517.5" y="-88.9" font-family="Helvetica,sans-Serif" font-size="11.00" fill="#000000">varchar[50]</text>
<polygon fill="none" stroke="#000000" points="336.5,-59.2 336.5,-81.2 514.5,-81.2 514.5,-59.2 336.5,-59.2"/>
<text text-anchor="start" x="356.5" y="-66.3" font-family="Helvetica,sans-Serif" font-size="11.00" fill="#000000">IMPPLAN_order</text>
<polygon fill="none" stroke="#000000" points="514.5,-59.2 514.5,-81.2 587.5,-81.2 587.5,-59.2 514.5,-59.2"/>
<text text-anchor="start" x="517.5" y="-66.9" font-family="Helvetica,sans-Serif" font-size="11.00" fill="#000000">tinyint[3]</text>
<polygon fill="#ffffff" stroke="transparent" points="336.5,-40.2 336.5,-59.2 429.5,-59.2 429.5,-40.2 336.5,-40.2"/>
<polygon fill="none" stroke="#000000" points="336.5,-40.2 336.5,-59.2 429.5,-59.2 429.5,-40.2 336.5,-40.2"/>
<text text-anchor="start" x="339.5" y="-46.3" font-family="Helvetica,sans-Serif" font-size="11.00" fill="#000000">&lt; 1</text>
<polygon fill="#ffffff" stroke="transparent" points="429.5,-40.2 429.5,-59.2 514.5,-59.2 514.5,-40.2 429.5,-40.2"/>
<polygon fill="none" stroke="#000000" points="429.5,-40.2 429.5,-59.2 514.5,-59.2 514.5,-40.2 429.5,-40.2"/>
<text text-anchor="start" x="505.3862" y="-46.3" font-family="Helvetica,sans-Serif" font-size="11.00" fill="#000000"> &#160;</text>
<polygon fill="#ffffff" stroke="transparent" points="514.5,-40.2 514.5,-59.2 587.5,-59.2 587.5,-40.2 514.5,-40.2"/>
<polygon fill="none" stroke="#000000" points="514.5,-40.2 514.5,-59.2 587.5,-59.2 587.5,-40.2 514.5,-40.2"/>
<text text-anchor="start" x="568.9053" y="-46.3" font-family="Helvetica,sans-Serif" font-size="11.00" fill="#000000">0 &gt;</text>
<polygon fill="none" stroke="#000000" stroke-width="2" points="335,-39.2 335,-325.2 588,-325.2 588,-39.2 335,-39.2"/>
</a>
</g>
</g>
<!-- patient_data -->
<g id="node2" class="node">
<title>patient_data</title>
<g id="a_node2"><a xlink:href="../../tables/patient_data.html" xlink:title="patient_data" target="_top">
<polygon fill="#ffffff" stroke="transparent" points="8,-87.7 8,-478.7 285,-478.7 285,-87.7 8,-87.7"/>
<polygon fill="#f5f5f5" stroke="transparent" points="8.5,-455.2 8.5,-478.2 285.5,-478.2 285.5,-455.2 8.5,-455.2"/>
<polygon fill="none" stroke="#000000" points="8.5,-455.2 8.5,-478.2 285.5,-478.2 285.5,-455.2 8.5,-455.2"/>
<text text-anchor="start" x="13.5" y="-463.8" font-family="Helvetica,sans-Serif" font-weight="bold" font-size="11.00" fill="#000000">patient_data</text>
<text text-anchor="start" x="250.5437" y="-463.3" font-family="Helvetica,sans-Serif" font-size="11.00" fill="#000000">[table]</text>
<polygon fill="none" stroke="#000000" points="8.5,-433.2 8.5,-455.2 285.5,-455.2 285.5,-433.2 8.5,-433.2"/>
<image xlink:href="../../images/primaryKeys.png" width="11px" height="12px" preserveAspectRatio="xMinYMin meet" x="13.5" y="-450.2"/>
<text text-anchor="start" x="28.5" y="-440.3" font-family="Helvetica,sans-Serif" font-size="11.00" fill="#000000">id</text>
<polygon fill="#ffffff" stroke="transparent" points="8.5,-411.2 8.5,-433.2 285.5,-433.2 285.5,-411.2 8.5,-411.2"/>
<polygon fill="none" stroke="#000000" points="8.5,-411.2 8.5,-433.2 285.5,-433.2 285.5,-411.2 8.5,-411.2"/>
<text text-anchor="start" x="28.5" y="-418.3" font-family="Helvetica,sans-Serif" font-size="11.00" fill="#000000">uuid</text>
<polygon fill="#ffffff" stroke="transparent" points="8.5,-389.2 8.5,-411.2 285.5,-411.2 285.5,-389.2 8.5,-389.2"/>
<polygon fill="none" stroke="#000000" points="8.5,-389.2 8.5,-411.2 285.5,-411.2 285.5,-389.2 8.5,-389.2"/>
<text text-anchor="start" x="28.5" y="-396.3" font-family="Helvetica,sans-Serif" font-size="11.00" fill="#000000">fname</text>
<polygon fill="#ffffff" stroke="transparent" points="8.5,-367.2 8.5,-389.2 285.5,-389.2 285.5,-367.2 8.5,-367.2"/>
<polygon fill="none" stroke="#000000" points="8.5,-367.2 8.5,-389.2 285.5,-389.2 285.5,-367.2 8.5,-367.2"/>
<text text-anchor="start" x="28.5" y="-374.3" font-family="Helvetica,sans-Serif" font-size="11.00" fill="#000000">lname</text>
<polygon fill="#ffffff" stroke="transparent" points="8.5,-345.2 8.5,-367.2 285.5,-367.2 285.5,-345.2 8.5,-345.2"/>
<polygon fill="none" stroke="#000000" points="8.5,-345.2 8.5,-367.2 285.5,-367.2 285.5,-345.2 8.5,-345.2"/>
<text text-anchor="start" x="28.5" y="-352.3" font-family="Helvetica,sans-Serif" font-size="11.00" fill="#000000">DOB</text>
<polygon fill="none" stroke="#000000" points="8.5,-323.2 8.5,-345.2 285.5,-345.2 285.5,-323.2 8.5,-323.2"/>
<image xlink:href="../../images/foreignKeys.png" width="11px" height="12px" preserveAspectRatio="xMinYMin meet" x="13.5" y="-340.2"/>
<text text-anchor="start" x="28.5" y="-330.3" font-family="Helvetica,sans-Serif" font-size="11.00" fill="#000000">pharmacy_id</text>
<polygon fill="none" stroke="#000000" points="8.5,-301.2 8.5,-323.2 285.5,-323.2 285.5,-301.2 8.5,-301.2"/>
<image xlink:href="../../images/foreignKeys.png" width="11px" height="12px" preserveAspectRatio="xMinYMin meet" x="13.5" y="-318.2"/>
<text text-anchor="start" x="28.5" y="-308.3" font-family="Helvetica,sans-Serif" font-size="11.00" fill="#000000">providerID</text>
<polygon fill="none" stroke="#000000" points="8.5,-279.2 8.5,-301.2 285.5,-301.2 285.5,-279.2 8.5,-279.2"/>
<image xlink:href="../../images/foreignKeys.png" width="11px" height="12px" preserveAspectRatio="xMinYMin meet" x="13.5" y="-296.2"/>
<text text-anchor="start" x="28.5" y="-286.3" font-family="Helvetica,sans-Serif" font-size="11.00" fill="#000000">ref_providerID</text>
<polygon fill="none" stroke="#000000" points="8.5,-257.2 8.5,-279.2 285.5,-279.2 285.5,-257.2 8.5,-257.2"/>
<image xlink:href="../../images/foreignKeys.png" width="11px" height="12px" preserveAspectRatio="xMinYMin meet" x="13.5" y="-274.2"/>
<text text-anchor="start" x="28.5" y="-264.3" font-family="Helvetica,sans-Serif" font-size="11.00" fill="#000000">interpreter_needed</text>
<polygon fill="none" stroke="#000000" points="8.5,-235.2 8.5,-257.2 285.5,-257.2 285.5,-235.2 8.5,-235.2"/>
<image xlink:href="../../images/primaryKeys.png" width="11px" height="12px" preserveAspectRatio="xMinYMin meet" x="13.5" y="-252.2"/>
<text text-anchor="start" x="28.5" y="-242.3" font-family="Helvetica,sans-Serif" font-size="11.00" fill="#000000">pid</text>
<polygon fill="none" stroke="#000000" points="8.5,-213.2 8.5,-235.2 285.5,-235.2 285.5,-213.2 8.5,-213.2"/>
<image xlink:href="../../images/foreignKeys.png" width="11px" height="12px" preserveAspectRatio="xMinYMin meet" x="13.5" y="-230.2"/>
<text text-anchor="start" x="28.5" y="-220.3" font-family="Helvetica,sans-Serif" font-size="11.00" fill="#000000">advance_directive_user_authenticator</text>
<polygon fill="none" stroke="#000000" points="8.5,-191.2 8.5,-213.2 285.5,-213.2 285.5,-191.2 8.5,-191.2"/>
<image xlink:href="../../images/foreignKeys.png" width="11px" height="12px" preserveAspectRatio="xMinYMin meet" x="13.5" y="-208.2"/>
<text text-anchor="start" x="28.5" y="-198.3" font-family="Helvetica,sans-Serif" font-size="11.00" fill="#000000">created_by</text>
<polygon fill="none" stroke="#000000" points="8.5,-169.2 8.5,-191.2 285.5,-191.2 285.5,-169.2 8.5,-169.2"/>
<image xlink:href="../../images/foreignKeys.png" width="11px" height="12px" preserveAspectRatio="xMinYMin meet" x="13.5" y="-186.2"/>
<text text-anchor="start" x="28.5" y="-176.3" font-family="Helvetica,sans-Serif" font-size="11.00" fill="#000000">updated_by</text>
<polygon fill="none" stroke="#000000" points="8.5,-147.2 8.5,-169.2 285.5,-169.2 285.5,-147.2 8.5,-147.2"/>
<image xlink:href="../../images/foreignKeys.png" width="11px" height="12px" preserveAspectRatio="xMinYMin meet" x="13.5" y="-164.2"/>
<text text-anchor="start" x="28.5" y="-154.3" font-family="Helvetica,sans-Serif" font-size="11.00" fill="#000000">tribal_affiliations</text>
<polygon fill="none" stroke="#000000" points="8.5,-125.2 8.5,-147.2 285.5,-147.2 285.5,-125.2 8.5,-125.2"/>
<image xlink:href="../../images/foreignKeys.png" width="11px" height="12px" preserveAspectRatio="xMinYMin meet" x="13.5" y="-142.2"/>
<text text-anchor="start" x="28.5" y="-132.3" font-family="Helvetica,sans-Serif" font-size="11.00" fill="#000000">sex_identified</text>
<polygon fill="none" stroke="#000000" points="8.5,-106.2 8.5,-125.2 285.5,-125.2 285.5,-106.2 8.5,-106.2"/>
<text text-anchor="start" x="11.5" y="-112.3" font-family="Helvetica,sans-Serif" font-size="11.00" fill="#000000">...</text>
<polygon fill="#ffffff" stroke="transparent" points="8.5,-87.2 8.5,-106.2 137.5,-106.2 137.5,-87.2 8.5,-87.2"/>
<polygon fill="none" stroke="#000000" points="8.5,-87.2 8.5,-106.2 137.5,-106.2 137.5,-87.2 8.5,-87.2"/>
<text text-anchor="start" x="11.5" y="-93.3" font-family="Helvetica,sans-Serif" font-size="11.00" fill="#000000">&lt; 9</text>
<polygon fill="#ffffff" stroke="transparent" points="137.5,-87.2 137.5,-106.2 203.5,-106.2 203.5,-87.2 137.5,-87.2"/>
<polygon fill="none" stroke="#000000" points="137.5,-87.2 137.5,-106.2 203.5,-106.2 203.5,-87.2 137.5,-87.2"/>
<text text-anchor="start" x="194.3862" y="-93.3" font-family="Helvetica,sans-Serif" font-size="11.00" fill="#000000"> &#160;</text>
<polygon fill="#ffffff" stroke="transparent" points="203.5,-87.2 203.5,-106.2 285.5,-106.2 285.5,-87.2 203.5,-87.2"/>
<polygon fill="none" stroke="#000000" points="203.5,-87.2 203.5,-106.2 285.5,-106.2 285.5,-87.2 203.5,-87.2"/>
<text text-anchor="start" x="260.7904" y="-93.3" font-family="Helvetica,sans-Serif" font-size="11.00" fill="#000000">95 &gt;</text>
</a>
</g>
</g>
<!-- form_eye_mag_impplan&#45;&gt;patient_data -->
<g id="edge1" class="edge">
<title>form_eye_mag_impplan:w&#45;&gt;patient_data:e</title>
<path fill="none" stroke="#000000" d="M321.776,-246.2C309.7815,-246.2 302.3229,-246.2 285.5,-246.2"/>
<polygon fill="#000000" stroke="#000000" points="328.5,-246.2001 336.5,-249.8 332.5,-246.2 336.5,-246.2 336.5,-246.2 336.5,-246.2 332.5,-246.2 336.5,-242.6 328.5,-246.2001 328.5,-246.2001"/>
<ellipse fill="none" stroke="#000000" cx="325.3" cy="-246.2001" rx="3.2" ry="3.2"/>
</g>
</g>
</svg>
