<?xml version="1.0" encoding="UTF-8" standalone="no"?>
<!DOCTYPE svg PUBLIC "-//W3C//DTD SVG 1.1//EN"
 "http://www.w3.org/Graphics/SVG/1.1/DTD/svg11.dtd">
<!-- Generated by graphviz version 2.40.1 (20161225.0304)
 -->
<!-- Title: oneDegreeRelationshipsDiagram Pages: 1 -->
<svg width="598pt" height="1701pt"
 viewBox="0.00 0.00 598.00 1700.70" xmlns="http://www.w3.org/2000/svg" xmlns:xlink="http://www.w3.org/1999/xlink">
<g id="graph0" class="graph" transform="scale(1 1) rotate(0) translate(4 1696.7)">
<title>oneDegreeRelationshipsDiagram</title>
<polygon fill="#ffffff" stroke="transparent" points="-4,4 -4,-1696.7 594,-1696.7 594,4 -4,4"/>
<text text-anchor="middle" x="72.4936" y="-7.3" font-family="Helvetica,sans-Serif" font-size="11.00" fill="#000000">Generated by SchemaSpy</text>
<!-- form_eye_refraction -->
<g id="node1" class="node">
<title>form_eye_refraction</title>
<g id="a_node1"><a xlink:href="../../tables/form_eye_refraction.html" xlink:title="form_eye_refraction" target="_top">
<polygon fill="#ffffff" stroke="transparent" points="334,-38.2 334,-1514.2 582,-1514.2 582,-38.2 334,-38.2"/>
<polygon fill="#f5f5f5" stroke="transparent" points="336,-1489.2 336,-1512.2 580,-1512.2 580,-1489.2 336,-1489.2"/>
<polygon fill="none" stroke="#000000" points="336,-1489.2 336,-1512.2 580,-1512.2 580,-1489.2 336,-1489.2"/>
<text text-anchor="start" x="341" y="-1497.8" font-family="Helvetica,sans-Serif" font-weight="bold" font-size="11.00" fill="#000000">form_eye_refraction</text>
<text text-anchor="start" x="545.0437" y="-1497.3" font-family="Helvetica,sans-Serif" font-size="11.00" fill="#000000">[table]</text>
<polygon fill="none" stroke="#000000" points="336,-1467.2 336,-1489.2 513,-1489.2 513,-1467.2 336,-1467.2"/>
<image xlink:href="../../images/primaryKeys.png" width="11px" height="12px" preserveAspectRatio="xMinYMin meet" x="341" y="-1484.2"/>
<text text-anchor="start" x="356" y="-1474.3" font-family="Helvetica,sans-Serif" font-size="11.00" fill="#000000">id</text>
<polygon fill="none" stroke="#000000" points="513,-1467.2 513,-1489.2 580,-1489.2 580,-1467.2 513,-1467.2"/>
<text text-anchor="start" x="516" y="-1474.9" font-family="Helvetica,sans-Serif" font-size="11.00" fill="#000000">bigint[19]</text>
<polygon fill="#ffffff" stroke="transparent" points="336,-1445.2 336,-1467.2 513,-1467.2 513,-1445.2 336,-1445.2"/>
<polygon fill="none" stroke="#000000" points="336,-1445.2 336,-1467.2 513,-1467.2 513,-1445.2 336,-1445.2"/>
<image xlink:href="../../images/foreignKeys.png" width="11px" height="12px" preserveAspectRatio="xMinYMin meet" x="341" y="-1462.2"/>
<text text-anchor="start" x="356" y="-1452.3" font-family="Helvetica,sans-Serif" font-size="11.00" fill="#000000">pid</text>
<polygon fill="none" stroke="#000000" points="513,-1445.2 513,-1467.2 580,-1467.2 580,-1445.2 513,-1445.2"/>
<text text-anchor="start" x="516" y="-1452.9" font-family="Helvetica,sans-Serif" font-size="11.00" fill="#000000">bigint[19]</text>
<polygon fill="none" stroke="#000000" points="336,-1423.2 336,-1445.2 513,-1445.2 513,-1423.2 336,-1423.2"/>
<text text-anchor="start" x="356" y="-1430.3" font-family="Helvetica,sans-Serif" font-size="11.00" fill="#000000">MRODSPH</text>
<polygon fill="none" stroke="#000000" points="513,-1423.2 513,-1445.2 580,-1445.2 580,-1423.2 513,-1423.2"/>
<text text-anchor="start" x="516" y="-1430.9" font-family="Helvetica,sans-Serif" font-size="11.00" fill="#000000">varchar[25]</text>
<polygon fill="none" stroke="#000000" points="336,-1401.2 336,-1423.2 513,-1423.2 513,-1401.2 336,-1401.2"/>
<text text-anchor="start" x="356" y="-1408.3" font-family="Helvetica,sans-Serif" font-size="11.00" fill="#000000">MRODCYL</text>
<polygon fill="none" stroke="#000000" points="513,-1401.2 513,-1423.2 580,-1423.2 580,-1401.2 513,-1401.2"/>
<text text-anchor="start" x="516" y="-1408.9" font-family="Helvetica,sans-Serif" font-size="11.00" fill="#000000">varchar[25]</text>
<polygon fill="none" stroke="#000000" points="336,-1379.2 336,-1401.2 513,-1401.2 513,-1379.2 336,-1379.2"/>
<text text-anchor="start" x="356" y="-1386.3" font-family="Helvetica,sans-Serif" font-size="11.00" fill="#000000">MRODAXIS</text>
<polygon fill="none" stroke="#000000" points="513,-1379.2 513,-1401.2 580,-1401.2 580,-1379.2 513,-1379.2"/>
<text text-anchor="start" x="516" y="-1386.9" font-family="Helvetica,sans-Serif" font-size="11.00" fill="#000000">varchar[25]</text>
<polygon fill="none" stroke="#000000" points="336,-1357.2 336,-1379.2 513,-1379.2 513,-1357.2 336,-1357.2"/>
<text text-anchor="start" x="356" y="-1364.3" font-family="Helvetica,sans-Serif" font-size="11.00" fill="#000000">MRODPRISM</text>
<polygon fill="none" stroke="#000000" points="513,-1357.2 513,-1379.2 580,-1379.2 580,-1357.2 513,-1357.2"/>
<text text-anchor="start" x="516" y="-1364.9" font-family="Helvetica,sans-Serif" font-size="11.00" fill="#000000">varchar[25]</text>
<polygon fill="none" stroke="#000000" points="336,-1335.2 336,-1357.2 513,-1357.2 513,-1335.2 336,-1335.2"/>
<text text-anchor="start" x="356" y="-1342.3" font-family="Helvetica,sans-Serif" font-size="11.00" fill="#000000">MRODBASE</text>
<polygon fill="none" stroke="#000000" points="513,-1335.2 513,-1357.2 580,-1357.2 580,-1335.2 513,-1335.2"/>
<text text-anchor="start" x="516" y="-1342.9" font-family="Helvetica,sans-Serif" font-size="11.00" fill="#000000">varchar[25]</text>
<polygon fill="none" stroke="#000000" points="336,-1313.2 336,-1335.2 513,-1335.2 513,-1313.2 336,-1313.2"/>
<text text-anchor="start" x="356" y="-1320.3" font-family="Helvetica,sans-Serif" font-size="11.00" fill="#000000">MRODADD</text>
<polygon fill="none" stroke="#000000" points="513,-1313.2 513,-1335.2 580,-1335.2 580,-1313.2 513,-1313.2"/>
<text text-anchor="start" x="516" y="-1320.9" font-family="Helvetica,sans-Serif" font-size="11.00" fill="#000000">varchar[25]</text>
<polygon fill="none" stroke="#000000" points="336,-1291.2 336,-1313.2 513,-1313.2 513,-1291.2 336,-1291.2"/>
<text text-anchor="start" x="356" y="-1298.3" font-family="Helvetica,sans-Serif" font-size="11.00" fill="#000000">MROSSPH</text>
<polygon fill="none" stroke="#000000" points="513,-1291.2 513,-1313.2 580,-1313.2 580,-1291.2 513,-1291.2"/>
<text text-anchor="start" x="516" y="-1298.9" font-family="Helvetica,sans-Serif" font-size="11.00" fill="#000000">varchar[25]</text>
<polygon fill="none" stroke="#000000" points="336,-1269.2 336,-1291.2 513,-1291.2 513,-1269.2 336,-1269.2"/>
<text text-anchor="start" x="356" y="-1276.3" font-family="Helvetica,sans-Serif" font-size="11.00" fill="#000000">MROSCYL</text>
<polygon fill="none" stroke="#000000" points="513,-1269.2 513,-1291.2 580,-1291.2 580,-1269.2 513,-1269.2"/>
<text text-anchor="start" x="516" y="-1276.9" font-family="Helvetica,sans-Serif" font-size="11.00" fill="#000000">varchar[25]</text>
<polygon fill="none" stroke="#000000" points="336,-1247.2 336,-1269.2 513,-1269.2 513,-1247.2 336,-1247.2"/>
<text text-anchor="start" x="356" y="-1254.3" font-family="Helvetica,sans-Serif" font-size="11.00" fill="#000000">MROSAXIS</text>
<polygon fill="none" stroke="#000000" points="513,-1247.2 513,-1269.2 580,-1269.2 580,-1247.2 513,-1247.2"/>
<text text-anchor="start" x="516" y="-1254.9" font-family="Helvetica,sans-Serif" font-size="11.00" fill="#000000">varchar[25]</text>
<polygon fill="none" stroke="#000000" points="336,-1225.2 336,-1247.2 513,-1247.2 513,-1225.2 336,-1225.2"/>
<text text-anchor="start" x="356" y="-1232.3" font-family="Helvetica,sans-Serif" font-size="11.00" fill="#000000">MROSPRISM</text>
<polygon fill="none" stroke="#000000" points="513,-1225.2 513,-1247.2 580,-1247.2 580,-1225.2 513,-1225.2"/>
<text text-anchor="start" x="516" y="-1232.9" font-family="Helvetica,sans-Serif" font-size="11.00" fill="#000000">varchar[50]</text>
<polygon fill="none" stroke="#000000" points="336,-1203.2 336,-1225.2 513,-1225.2 513,-1203.2 336,-1203.2"/>
<text text-anchor="start" x="356" y="-1210.3" font-family="Helvetica,sans-Serif" font-size="11.00" fill="#000000">MROSBASE</text>
<polygon fill="none" stroke="#000000" points="513,-1203.2 513,-1225.2 580,-1225.2 580,-1203.2 513,-1203.2"/>
<text text-anchor="start" x="516" y="-1210.9" font-family="Helvetica,sans-Serif" font-size="11.00" fill="#000000">varchar[50]</text>
<polygon fill="none" stroke="#000000" points="336,-1181.2 336,-1203.2 513,-1203.2 513,-1181.2 336,-1181.2"/>
<text text-anchor="start" x="356" y="-1188.3" font-family="Helvetica,sans-Serif" font-size="11.00" fill="#000000">MROSADD</text>
<polygon fill="none" stroke="#000000" points="513,-1181.2 513,-1203.2 580,-1203.2 580,-1181.2 513,-1181.2"/>
<text text-anchor="start" x="516" y="-1188.9" font-family="Helvetica,sans-Serif" font-size="11.00" fill="#000000">varchar[25]</text>
<polygon fill="none" stroke="#000000" points="336,-1159.2 336,-1181.2 513,-1181.2 513,-1159.2 336,-1159.2"/>
<text text-anchor="start" x="356" y="-1166.3" font-family="Helvetica,sans-Serif" font-size="11.00" fill="#000000">MRODNEARSPHERE</text>
<polygon fill="none" stroke="#000000" points="513,-1159.2 513,-1181.2 580,-1181.2 580,-1159.2 513,-1159.2"/>
<text text-anchor="start" x="516" y="-1166.9" font-family="Helvetica,sans-Serif" font-size="11.00" fill="#000000">varchar[25]</text>
<polygon fill="none" stroke="#000000" points="336,-1137.2 336,-1159.2 513,-1159.2 513,-1137.2 336,-1137.2"/>
<text text-anchor="start" x="356" y="-1144.3" font-family="Helvetica,sans-Serif" font-size="11.00" fill="#000000">MRODNEARCYL</text>
<polygon fill="none" stroke="#000000" points="513,-1137.2 513,-1159.2 580,-1159.2 580,-1137.2 513,-1137.2"/>
<text text-anchor="start" x="516" y="-1144.9" font-family="Helvetica,sans-Serif" font-size="11.00" fill="#000000">varchar[25]</text>
<polygon fill="none" stroke="#000000" points="336,-1115.2 336,-1137.2 513,-1137.2 513,-1115.2 336,-1115.2"/>
<text text-anchor="start" x="356" y="-1122.3" font-family="Helvetica,sans-Serif" font-size="11.00" fill="#000000">MRODNEARAXIS</text>
<polygon fill="none" stroke="#000000" points="513,-1115.2 513,-1137.2 580,-1137.2 580,-1115.2 513,-1115.2"/>
<text text-anchor="start" x="516" y="-1122.9" font-family="Helvetica,sans-Serif" font-size="11.00" fill="#000000">varchar[25]</text>
<polygon fill="none" stroke="#000000" points="336,-1093.2 336,-1115.2 513,-1115.2 513,-1093.2 336,-1093.2"/>
<text text-anchor="start" x="356" y="-1100.3" font-family="Helvetica,sans-Serif" font-size="11.00" fill="#000000">MRODPRISMNEAR</text>
<polygon fill="none" stroke="#000000" points="513,-1093.2 513,-1115.2 580,-1115.2 580,-1093.2 513,-1093.2"/>
<text text-anchor="start" x="516" y="-1100.9" font-family="Helvetica,sans-Serif" font-size="11.00" fill="#000000">varchar[50]</text>
<polygon fill="none" stroke="#000000" points="336,-1071.2 336,-1093.2 513,-1093.2 513,-1071.2 336,-1071.2"/>
<text text-anchor="start" x="356" y="-1078.3" font-family="Helvetica,sans-Serif" font-size="11.00" fill="#000000">MRODBASENEAR</text>
<polygon fill="none" stroke="#000000" points="513,-1071.2 513,-1093.2 580,-1093.2 580,-1071.2 513,-1071.2"/>
<text text-anchor="start" x="516" y="-1078.9" font-family="Helvetica,sans-Serif" font-size="11.00" fill="#000000">varchar[25]</text>
<polygon fill="none" stroke="#000000" points="336,-1049.2 336,-1071.2 513,-1071.2 513,-1049.2 336,-1049.2"/>
<text text-anchor="start" x="356" y="-1056.3" font-family="Helvetica,sans-Serif" font-size="11.00" fill="#000000">MROSNEARSHPERE</text>
<polygon fill="none" stroke="#000000" points="513,-1049.2 513,-1071.2 580,-1071.2 580,-1049.2 513,-1049.2"/>
<text text-anchor="start" x="516" y="-1056.9" font-family="Helvetica,sans-Serif" font-size="11.00" fill="#000000">varchar[25]</text>
<polygon fill="none" stroke="#000000" points="336,-1027.2 336,-1049.2 513,-1049.2 513,-1027.2 336,-1027.2"/>
<text text-anchor="start" x="356" y="-1034.3" font-family="Helvetica,sans-Serif" font-size="11.00" fill="#000000">MROSNEARCYL</text>
<polygon fill="none" stroke="#000000" points="513,-1027.2 513,-1049.2 580,-1049.2 580,-1027.2 513,-1027.2"/>
<text text-anchor="start" x="516" y="-1034.9" font-family="Helvetica,sans-Serif" font-size="11.00" fill="#000000">varchar[25]</text>
<polygon fill="none" stroke="#000000" points="336,-1005.2 336,-1027.2 513,-1027.2 513,-1005.2 336,-1005.2"/>
<text text-anchor="start" x="356" y="-1012.3" font-family="Helvetica,sans-Serif" font-size="11.00" fill="#000000">MROSNEARAXIS</text>
<polygon fill="none" stroke="#000000" points="513,-1005.2 513,-1027.2 580,-1027.2 580,-1005.2 513,-1005.2"/>
<text text-anchor="start" x="515.9365" y="-1012.9" font-family="Helvetica,sans-Serif" font-size="11.00" fill="#000000">varchar[125]</text>
<polygon fill="none" stroke="#000000" points="336,-983.2 336,-1005.2 513,-1005.2 513,-983.2 336,-983.2"/>
<text text-anchor="start" x="356" y="-990.3" font-family="Helvetica,sans-Serif" font-size="11.00" fill="#000000">MROSPRISMNEAR</text>
<polygon fill="none" stroke="#000000" points="513,-983.2 513,-1005.2 580,-1005.2 580,-983.2 513,-983.2"/>
<text text-anchor="start" x="516" y="-990.9" font-family="Helvetica,sans-Serif" font-size="11.00" fill="#000000">varchar[50]</text>
<polygon fill="none" stroke="#000000" points="336,-961.2 336,-983.2 513,-983.2 513,-961.2 336,-961.2"/>
<text text-anchor="start" x="356" y="-968.3" font-family="Helvetica,sans-Serif" font-size="11.00" fill="#000000">MROSBASENEAR</text>
<polygon fill="none" stroke="#000000" points="513,-961.2 513,-983.2 580,-983.2 580,-961.2 513,-961.2"/>
<text text-anchor="start" x="516" y="-968.9" font-family="Helvetica,sans-Serif" font-size="11.00" fill="#000000">varchar[25]</text>
<polygon fill="none" stroke="#000000" points="336,-939.2 336,-961.2 513,-961.2 513,-939.2 336,-939.2"/>
<text text-anchor="start" x="356" y="-946.3" font-family="Helvetica,sans-Serif" font-size="11.00" fill="#000000">CRODSPH</text>
<polygon fill="none" stroke="#000000" points="513,-939.2 513,-961.2 580,-961.2 580,-939.2 513,-939.2"/>
<text text-anchor="start" x="516" y="-946.9" font-family="Helvetica,sans-Serif" font-size="11.00" fill="#000000">varchar[25]</text>
<polygon fill="none" stroke="#000000" points="336,-917.2 336,-939.2 513,-939.2 513,-917.2 336,-917.2"/>
<text text-anchor="start" x="356" y="-924.3" font-family="Helvetica,sans-Serif" font-size="11.00" fill="#000000">CRODCYL</text>
<polygon fill="none" stroke="#000000" points="513,-917.2 513,-939.2 580,-939.2 580,-917.2 513,-917.2"/>
<text text-anchor="start" x="516" y="-924.9" font-family="Helvetica,sans-Serif" font-size="11.00" fill="#000000">varchar[25]</text>
<polygon fill="none" stroke="#000000" points="336,-895.2 336,-917.2 513,-917.2 513,-895.2 336,-895.2"/>
<text text-anchor="start" x="356" y="-902.3" font-family="Helvetica,sans-Serif" font-size="11.00" fill="#000000">CRODAXIS</text>
<polygon fill="none" stroke="#000000" points="513,-895.2 513,-917.2 580,-917.2 580,-895.2 513,-895.2"/>
<text text-anchor="start" x="516" y="-902.9" font-family="Helvetica,sans-Serif" font-size="11.00" fill="#000000">varchar[25]</text>
<polygon fill="none" stroke="#000000" points="336,-873.2 336,-895.2 513,-895.2 513,-873.2 336,-873.2"/>
<text text-anchor="start" x="356" y="-880.3" font-family="Helvetica,sans-Serif" font-size="11.00" fill="#000000">CROSSPH</text>
<polygon fill="none" stroke="#000000" points="513,-873.2 513,-895.2 580,-895.2 580,-873.2 513,-873.2"/>
<text text-anchor="start" x="516" y="-880.9" font-family="Helvetica,sans-Serif" font-size="11.00" fill="#000000">varchar[25]</text>
<polygon fill="none" stroke="#000000" points="336,-851.2 336,-873.2 513,-873.2 513,-851.2 336,-851.2"/>
<text text-anchor="start" x="356" y="-858.3" font-family="Helvetica,sans-Serif" font-size="11.00" fill="#000000">CROSCYL</text>
<polygon fill="none" stroke="#000000" points="513,-851.2 513,-873.2 580,-873.2 580,-851.2 513,-851.2"/>
<text text-anchor="start" x="516" y="-858.9" font-family="Helvetica,sans-Serif" font-size="11.00" fill="#000000">varchar[25]</text>
<polygon fill="none" stroke="#000000" points="336,-829.2 336,-851.2 513,-851.2 513,-829.2 336,-829.2"/>
<text text-anchor="start" x="356" y="-836.3" font-family="Helvetica,sans-Serif" font-size="11.00" fill="#000000">CROSAXIS</text>
<polygon fill="none" stroke="#000000" points="513,-829.2 513,-851.2 580,-851.2 580,-829.2 513,-829.2"/>
<text text-anchor="start" x="516" y="-836.9" font-family="Helvetica,sans-Serif" font-size="11.00" fill="#000000">varchar[25]</text>
<polygon fill="none" stroke="#000000" points="336,-807.2 336,-829.2 513,-829.2 513,-807.2 336,-807.2"/>
<text text-anchor="start" x="356" y="-814.3" font-family="Helvetica,sans-Serif" font-size="11.00" fill="#000000">CRCOMMENTS</text>
<polygon fill="none" stroke="#000000" points="513,-807.2 513,-829.2 580,-829.2 580,-807.2 513,-807.2"/>
<text text-anchor="start" x="515.9365" y="-814.9" font-family="Helvetica,sans-Serif" font-size="11.00" fill="#000000">varchar[255]</text>
<polygon fill="none" stroke="#000000" points="336,-785.2 336,-807.2 513,-807.2 513,-785.2 336,-785.2"/>
<text text-anchor="start" x="356" y="-792.3" font-family="Helvetica,sans-Serif" font-size="11.00" fill="#000000">BALANCED</text>
<polygon fill="none" stroke="#000000" points="513,-785.2 513,-807.2 580,-807.2 580,-785.2 513,-785.2"/>
<text text-anchor="start" x="516" y="-792.9" font-family="Helvetica,sans-Serif" font-size="11.00" fill="#000000">char[2]</text>
<polygon fill="none" stroke="#000000" points="336,-763.2 336,-785.2 513,-785.2 513,-763.2 336,-763.2"/>
<text text-anchor="start" x="356" y="-770.3" font-family="Helvetica,sans-Serif" font-size="11.00" fill="#000000">ARODSPH</text>
<polygon fill="none" stroke="#000000" points="513,-763.2 513,-785.2 580,-785.2 580,-763.2 513,-763.2"/>
<text text-anchor="start" x="516" y="-770.9" font-family="Helvetica,sans-Serif" font-size="11.00" fill="#000000">varchar[25]</text>
<polygon fill="none" stroke="#000000" points="336,-741.2 336,-763.2 513,-763.2 513,-741.2 336,-741.2"/>
<text text-anchor="start" x="356" y="-748.3" font-family="Helvetica,sans-Serif" font-size="11.00" fill="#000000">ARODCYL</text>
<polygon fill="none" stroke="#000000" points="513,-741.2 513,-763.2 580,-763.2 580,-741.2 513,-741.2"/>
<text text-anchor="start" x="516" y="-748.9" font-family="Helvetica,sans-Serif" font-size="11.00" fill="#000000">varchar[25]</text>
<polygon fill="none" stroke="#000000" points="336,-719.2 336,-741.2 513,-741.2 513,-719.2 336,-719.2"/>
<text text-anchor="start" x="356" y="-726.3" font-family="Helvetica,sans-Serif" font-size="11.00" fill="#000000">ARODAXIS</text>
<polygon fill="none" stroke="#000000" points="513,-719.2 513,-741.2 580,-741.2 580,-719.2 513,-719.2"/>
<text text-anchor="start" x="516" y="-726.9" font-family="Helvetica,sans-Serif" font-size="11.00" fill="#000000">varchar[25]</text>
<polygon fill="none" stroke="#000000" points="336,-697.2 336,-719.2 513,-719.2 513,-697.2 336,-697.2"/>
<text text-anchor="start" x="356" y="-704.3" font-family="Helvetica,sans-Serif" font-size="11.00" fill="#000000">AROSSPH</text>
<polygon fill="none" stroke="#000000" points="513,-697.2 513,-719.2 580,-719.2 580,-697.2 513,-697.2"/>
<text text-anchor="start" x="516" y="-704.9" font-family="Helvetica,sans-Serif" font-size="11.00" fill="#000000">varchar[25]</text>
<polygon fill="none" stroke="#000000" points="336,-675.2 336,-697.2 513,-697.2 513,-675.2 336,-675.2"/>
<text text-anchor="start" x="356" y="-682.3" font-family="Helvetica,sans-Serif" font-size="11.00" fill="#000000">AROSCYL</text>
<polygon fill="none" stroke="#000000" points="513,-675.2 513,-697.2 580,-697.2 580,-675.2 513,-675.2"/>
<text text-anchor="start" x="516" y="-682.9" font-family="Helvetica,sans-Serif" font-size="11.00" fill="#000000">varchar[25]</text>
<polygon fill="none" stroke="#000000" points="336,-653.2 336,-675.2 513,-675.2 513,-653.2 336,-653.2"/>
<text text-anchor="start" x="356" y="-660.3" font-family="Helvetica,sans-Serif" font-size="11.00" fill="#000000">AROSAXIS</text>
<polygon fill="none" stroke="#000000" points="513,-653.2 513,-675.2 580,-675.2 580,-653.2 513,-653.2"/>
<text text-anchor="start" x="516" y="-660.9" font-family="Helvetica,sans-Serif" font-size="11.00" fill="#000000">varchar[25]</text>
<polygon fill="none" stroke="#000000" points="336,-631.2 336,-653.2 513,-653.2 513,-631.2 336,-631.2"/>
<text text-anchor="start" x="356" y="-638.3" font-family="Helvetica,sans-Serif" font-size="11.00" fill="#000000">ARODADD</text>
<polygon fill="none" stroke="#000000" points="513,-631.2 513,-653.2 580,-653.2 580,-631.2 513,-631.2"/>
<text text-anchor="start" x="516" y="-638.9" font-family="Helvetica,sans-Serif" font-size="11.00" fill="#000000">varchar[25]</text>
<polygon fill="none" stroke="#000000" points="336,-609.2 336,-631.2 513,-631.2 513,-609.2 336,-609.2"/>
<text text-anchor="start" x="356" y="-616.3" font-family="Helvetica,sans-Serif" font-size="11.00" fill="#000000">AROSADD</text>
<polygon fill="none" stroke="#000000" points="513,-609.2 513,-631.2 580,-631.2 580,-609.2 513,-609.2"/>
<text text-anchor="start" x="516" y="-616.9" font-family="Helvetica,sans-Serif" font-size="11.00" fill="#000000">varchar[25]</text>
<polygon fill="none" stroke="#000000" points="336,-587.2 336,-609.2 513,-609.2 513,-587.2 336,-587.2"/>
<text text-anchor="start" x="356" y="-594.3" font-family="Helvetica,sans-Serif" font-size="11.00" fill="#000000">ARNEARODVA</text>
<polygon fill="none" stroke="#000000" points="513,-587.2 513,-609.2 580,-609.2 580,-587.2 513,-587.2"/>
<text text-anchor="start" x="516" y="-594.9" font-family="Helvetica,sans-Serif" font-size="11.00" fill="#000000">varchar[25]</text>
<polygon fill="none" stroke="#000000" points="336,-565.2 336,-587.2 513,-587.2 513,-565.2 336,-565.2"/>
<text text-anchor="start" x="356" y="-572.3" font-family="Helvetica,sans-Serif" font-size="11.00" fill="#000000">ARNEAROSVA</text>
<polygon fill="none" stroke="#000000" points="513,-565.2 513,-587.2 580,-587.2 580,-565.2 513,-565.2"/>
<text text-anchor="start" x="516" y="-572.9" font-family="Helvetica,sans-Serif" font-size="11.00" fill="#000000">varchar[25]</text>
<polygon fill="none" stroke="#000000" points="336,-543.2 336,-565.2 513,-565.2 513,-543.2 336,-543.2"/>
<text text-anchor="start" x="356" y="-550.3" font-family="Helvetica,sans-Serif" font-size="11.00" fill="#000000">ARODPRISM</text>
<polygon fill="none" stroke="#000000" points="513,-543.2 513,-565.2 580,-565.2 580,-543.2 513,-543.2"/>
<text text-anchor="start" x="516" y="-550.9" font-family="Helvetica,sans-Serif" font-size="11.00" fill="#000000">varchar[50]</text>
<polygon fill="none" stroke="#000000" points="336,-521.2 336,-543.2 513,-543.2 513,-521.2 336,-521.2"/>
<text text-anchor="start" x="356" y="-528.3" font-family="Helvetica,sans-Serif" font-size="11.00" fill="#000000">AROSPRISM</text>
<polygon fill="none" stroke="#000000" points="513,-521.2 513,-543.2 580,-543.2 580,-521.2 513,-521.2"/>
<text text-anchor="start" x="516" y="-528.9" font-family="Helvetica,sans-Serif" font-size="11.00" fill="#000000">varchar[50]</text>
<polygon fill="none" stroke="#000000" points="336,-499.2 336,-521.2 513,-521.2 513,-499.2 336,-499.2"/>
<text text-anchor="start" x="356" y="-506.3" font-family="Helvetica,sans-Serif" font-size="11.00" fill="#000000">CTLODSPH</text>
<polygon fill="none" stroke="#000000" points="513,-499.2 513,-521.2 580,-521.2 580,-499.2 513,-499.2"/>
<text text-anchor="start" x="516" y="-506.9" font-family="Helvetica,sans-Serif" font-size="11.00" fill="#000000">varchar[25]</text>
<polygon fill="none" stroke="#000000" points="336,-477.2 336,-499.2 513,-499.2 513,-477.2 336,-477.2"/>
<text text-anchor="start" x="356" y="-484.3" font-family="Helvetica,sans-Serif" font-size="11.00" fill="#000000">CTLODCYL</text>
<polygon fill="none" stroke="#000000" points="513,-477.2 513,-499.2 580,-499.2 580,-477.2 513,-477.2"/>
<text text-anchor="start" x="516" y="-484.9" font-family="Helvetica,sans-Serif" font-size="11.00" fill="#000000">varchar[25]</text>
<polygon fill="none" stroke="#000000" points="336,-455.2 336,-477.2 513,-477.2 513,-455.2 336,-455.2"/>
<text text-anchor="start" x="356" y="-462.3" font-family="Helvetica,sans-Serif" font-size="11.00" fill="#000000">CTLODAXIS</text>
<polygon fill="none" stroke="#000000" points="513,-455.2 513,-477.2 580,-477.2 580,-455.2 513,-455.2"/>
<text text-anchor="start" x="516" y="-462.9" font-family="Helvetica,sans-Serif" font-size="11.00" fill="#000000">varchar[25]</text>
<polygon fill="none" stroke="#000000" points="336,-433.2 336,-455.2 513,-455.2 513,-433.2 336,-433.2"/>
<text text-anchor="start" x="356" y="-440.3" font-family="Helvetica,sans-Serif" font-size="11.00" fill="#000000">CTLODBC</text>
<polygon fill="none" stroke="#000000" points="513,-433.2 513,-455.2 580,-455.2 580,-433.2 513,-433.2"/>
<text text-anchor="start" x="516" y="-440.9" font-family="Helvetica,sans-Serif" font-size="11.00" fill="#000000">varchar[25]</text>
<polygon fill="none" stroke="#000000" points="336,-411.2 336,-433.2 513,-433.2 513,-411.2 336,-411.2"/>
<text text-anchor="start" x="356" y="-418.3" font-family="Helvetica,sans-Serif" font-size="11.00" fill="#000000">CTLODDIAM</text>
<polygon fill="none" stroke="#000000" points="513,-411.2 513,-433.2 580,-433.2 580,-411.2 513,-411.2"/>
<text text-anchor="start" x="516" y="-418.9" font-family="Helvetica,sans-Serif" font-size="11.00" fill="#000000">varchar[25]</text>
<polygon fill="none" stroke="#000000" points="336,-389.2 336,-411.2 513,-411.2 513,-389.2 336,-389.2"/>
<text text-anchor="start" x="356" y="-396.3" font-family="Helvetica,sans-Serif" font-size="11.00" fill="#000000">CTLOSSPH</text>
<polygon fill="none" stroke="#000000" points="513,-389.2 513,-411.2 580,-411.2 580,-389.2 513,-389.2"/>
<text text-anchor="start" x="516" y="-396.9" font-family="Helvetica,sans-Serif" font-size="11.00" fill="#000000">varchar[25]</text>
<polygon fill="none" stroke="#000000" points="336,-367.2 336,-389.2 513,-389.2 513,-367.2 336,-367.2"/>
<text text-anchor="start" x="356" y="-374.3" font-family="Helvetica,sans-Serif" font-size="11.00" fill="#000000">CTLOSCYL</text>
<polygon fill="none" stroke="#000000" points="513,-367.2 513,-389.2 580,-389.2 580,-367.2 513,-367.2"/>
<text text-anchor="start" x="516" y="-374.9" font-family="Helvetica,sans-Serif" font-size="11.00" fill="#000000">varchar[25]</text>
<polygon fill="none" stroke="#000000" points="336,-345.2 336,-367.2 513,-367.2 513,-345.2 336,-345.2"/>
<text text-anchor="start" x="356" y="-352.3" font-family="Helvetica,sans-Serif" font-size="11.00" fill="#000000">CTLOSAXIS</text>
<polygon fill="none" stroke="#000000" points="513,-345.2 513,-367.2 580,-367.2 580,-345.2 513,-345.2"/>
<text text-anchor="start" x="516" y="-352.9" font-family="Helvetica,sans-Serif" font-size="11.00" fill="#000000">varchar[25]</text>
<polygon fill="none" stroke="#000000" points="336,-323.2 336,-345.2 513,-345.2 513,-323.2 336,-323.2"/>
<text text-anchor="start" x="356" y="-330.3" font-family="Helvetica,sans-Serif" font-size="11.00" fill="#000000">CTLOSBC</text>
<polygon fill="none" stroke="#000000" points="513,-323.2 513,-345.2 580,-345.2 580,-323.2 513,-323.2"/>
<text text-anchor="start" x="516" y="-330.9" font-family="Helvetica,sans-Serif" font-size="11.00" fill="#000000">varchar[25]</text>
<polygon fill="none" stroke="#000000" points="336,-301.2 336,-323.2 513,-323.2 513,-301.2 336,-301.2"/>
<text text-anchor="start" x="356" y="-308.3" font-family="Helvetica,sans-Serif" font-size="11.00" fill="#000000">CTLOSDIAM</text>
<polygon fill="none" stroke="#000000" points="513,-301.2 513,-323.2 580,-323.2 580,-301.2 513,-301.2"/>
<text text-anchor="start" x="516" y="-308.9" font-family="Helvetica,sans-Serif" font-size="11.00" fill="#000000">varchar[25]</text>
<polygon fill="none" stroke="#000000" points="336,-279.2 336,-301.2 513,-301.2 513,-279.2 336,-279.2"/>
<text text-anchor="start" x="356" y="-286.3" font-family="Helvetica,sans-Serif" font-size="11.00" fill="#000000">CTL_COMMENTS</text>
<polygon fill="none" stroke="#000000" points="513,-279.2 513,-301.2 580,-301.2 580,-279.2 513,-279.2"/>
<text text-anchor="start" x="516" y="-286.9" font-family="Helvetica,sans-Serif" font-size="11.00" fill="#000000">text[65535]</text>
<polygon fill="none" stroke="#000000" points="336,-257.2 336,-279.2 513,-279.2 513,-257.2 336,-257.2"/>
<text text-anchor="start" x="356" y="-264.3" font-family="Helvetica,sans-Serif" font-size="11.00" fill="#000000">CTLMANUFACTUREROD</text>
<polygon fill="none" stroke="#000000" points="513,-257.2 513,-279.2 580,-279.2 580,-257.2 513,-257.2"/>
<text text-anchor="start" x="516" y="-264.9" font-family="Helvetica,sans-Serif" font-size="11.00" fill="#000000">varchar[50]</text>
<polygon fill="none" stroke="#000000" points="336,-235.2 336,-257.2 513,-257.2 513,-235.2 336,-235.2"/>
<text text-anchor="start" x="356" y="-242.3" font-family="Helvetica,sans-Serif" font-size="11.00" fill="#000000">CTLSUPPLIEROD</text>
<polygon fill="none" stroke="#000000" points="513,-235.2 513,-257.2 580,-257.2 580,-235.2 513,-235.2"/>
<text text-anchor="start" x="516" y="-242.9" font-family="Helvetica,sans-Serif" font-size="11.00" fill="#000000">varchar[50]</text>
<polygon fill="none" stroke="#000000" points="336,-213.2 336,-235.2 513,-235.2 513,-213.2 336,-213.2"/>
<text text-anchor="start" x="356" y="-220.3" font-family="Helvetica,sans-Serif" font-size="11.00" fill="#000000">CTLBRANDOD</text>
<polygon fill="none" stroke="#000000" points="513,-213.2 513,-235.2 580,-235.2 580,-213.2 513,-213.2"/>
<text text-anchor="start" x="516" y="-220.9" font-family="Helvetica,sans-Serif" font-size="11.00" fill="#000000">varchar[50]</text>
<polygon fill="none" stroke="#000000" points="336,-191.2 336,-213.2 513,-213.2 513,-191.2 336,-191.2"/>
<text text-anchor="start" x="356" y="-198.3" font-family="Helvetica,sans-Serif" font-size="11.00" fill="#000000">CTLMANUFACTUREROS</text>
<polygon fill="none" stroke="#000000" points="513,-191.2 513,-213.2 580,-213.2 580,-191.2 513,-191.2"/>
<text text-anchor="start" x="516" y="-198.9" font-family="Helvetica,sans-Serif" font-size="11.00" fill="#000000">varchar[50]</text>
<polygon fill="none" stroke="#000000" points="336,-169.2 336,-191.2 513,-191.2 513,-169.2 336,-169.2"/>
<text text-anchor="start" x="356" y="-176.3" font-family="Helvetica,sans-Serif" font-size="11.00" fill="#000000">CTLSUPPLIEROS</text>
<polygon fill="none" stroke="#000000" points="513,-169.2 513,-191.2 580,-191.2 580,-169.2 513,-169.2"/>
<text text-anchor="start" x="516" y="-176.9" font-family="Helvetica,sans-Serif" font-size="11.00" fill="#000000">varchar[50]</text>
<polygon fill="none" stroke="#000000" points="336,-147.2 336,-169.2 513,-169.2 513,-147.2 336,-147.2"/>
<text text-anchor="start" x="356" y="-154.3" font-family="Helvetica,sans-Serif" font-size="11.00" fill="#000000">CTLBRANDOS</text>
<polygon fill="none" stroke="#000000" points="513,-147.2 513,-169.2 580,-169.2 580,-147.2 513,-147.2"/>
<text text-anchor="start" x="516" y="-154.9" font-family="Helvetica,sans-Serif" font-size="11.00" fill="#000000">varchar[50]</text>
<polygon fill="none" stroke="#000000" points="336,-125.2 336,-147.2 513,-147.2 513,-125.2 336,-125.2"/>
<text text-anchor="start" x="356" y="-132.3" font-family="Helvetica,sans-Serif" font-size="11.00" fill="#000000">CTLODADD</text>
<polygon fill="none" stroke="#000000" points="513,-125.2 513,-147.2 580,-147.2 580,-125.2 513,-125.2"/>
<text text-anchor="start" x="516" y="-132.9" font-family="Helvetica,sans-Serif" font-size="11.00" fill="#000000">varchar[25]</text>
<polygon fill="none" stroke="#000000" points="336,-103.2 336,-125.2 513,-125.2 513,-103.2 336,-103.2"/>
<text text-anchor="start" x="356" y="-110.3" font-family="Helvetica,sans-Serif" font-size="11.00" fill="#000000">CTLOSADD</text>
<polygon fill="none" stroke="#000000" points="513,-103.2 513,-125.2 580,-125.2 580,-103.2 513,-103.2"/>
<text text-anchor="start" x="516" y="-110.9" font-family="Helvetica,sans-Serif" font-size="11.00" fill="#000000">varchar[25]</text>
<polygon fill="none" stroke="#000000" points="336,-81.2 336,-103.2 513,-103.2 513,-81.2 336,-81.2"/>
<text text-anchor="start" x="356" y="-88.3" font-family="Helvetica,sans-Serif" font-size="11.00" fill="#000000">NVOCHECKED</text>
<polygon fill="none" stroke="#000000" points="513,-81.2 513,-103.2 580,-103.2 580,-81.2 513,-81.2"/>
<text text-anchor="start" x="516" y="-88.9" font-family="Helvetica,sans-Serif" font-size="11.00" fill="#000000">varchar[25]</text>
<polygon fill="none" stroke="#000000" points="336,-59.2 336,-81.2 513,-81.2 513,-59.2 336,-59.2"/>
<text text-anchor="start" x="356" y="-66.3" font-family="Helvetica,sans-Serif" font-size="11.00" fill="#000000">ADDCHECKED</text>
<polygon fill="none" stroke="#000000" points="513,-59.2 513,-81.2 580,-81.2 580,-59.2 513,-59.2"/>
<text text-anchor="start" x="516" y="-66.9" font-family="Helvetica,sans-Serif" font-size="11.00" fill="#000000">varchar[25]</text>
<polygon fill="#ffffff" stroke="transparent" points="336,-40.2 336,-59.2 429,-59.2 429,-40.2 336,-40.2"/>
<polygon fill="none" stroke="#000000" points="336,-40.2 336,-59.2 429,-59.2 429,-40.2 336,-40.2"/>
<text text-anchor="start" x="339" y="-46.3" font-family="Helvetica,sans-Serif" font-size="11.00" fill="#000000">&lt; 1</text>
<polygon fill="#ffffff" stroke="transparent" points="429,-40.2 429,-59.2 513,-59.2 513,-40.2 429,-40.2"/>
<polygon fill="none" stroke="#000000" points="429,-40.2 429,-59.2 513,-59.2 513,-40.2 429,-40.2"/>
<text text-anchor="start" x="503.8862" y="-46.3" font-family="Helvetica,sans-Serif" font-size="11.00" fill="#000000"> &#160;</text>
<polygon fill="#ffffff" stroke="transparent" points="513,-40.2 513,-59.2 580,-59.2 580,-40.2 513,-40.2"/>
<polygon fill="none" stroke="#000000" points="513,-40.2 513,-59.2 580,-59.2 580,-40.2 513,-40.2"/>
<text text-anchor="start" x="561.4053" y="-46.3" font-family="Helvetica,sans-Serif" font-size="11.00" fill="#000000">0 &gt;</text>
<polygon fill="none" stroke="#000000" stroke-width="2" points="335,-39.2 335,-1513.2 581,-1513.2 581,-39.2 335,-39.2"/>
</a>
</g>
</g>
<!-- patient_data -->
<g id="node2" class="node">
<title>patient_data</title>
<g id="a_node2"><a xlink:href="../../tables/patient_data.html" xlink:title="patient_data" target="_top">
<polygon fill="#ffffff" stroke="transparent" points="8,-1297.7 8,-1688.7 285,-1688.7 285,-1297.7 8,-1297.7"/>
<polygon fill="#f5f5f5" stroke="transparent" points="8.5,-1665.2 8.5,-1688.2 285.5,-1688.2 285.5,-1665.2 8.5,-1665.2"/>
<polygon fill="none" stroke="#000000" points="8.5,-1665.2 8.5,-1688.2 285.5,-1688.2 285.5,-1665.2 8.5,-1665.2"/>
<text text-anchor="start" x="13.5" y="-1673.8" font-family="Helvetica,sans-Serif" font-weight="bold" font-size="11.00" fill="#000000">patient_data</text>
<text text-anchor="start" x="250.5437" y="-1673.3" font-family="Helvetica,sans-Serif" font-size="11.00" fill="#000000">[table]</text>
<polygon fill="none" stroke="#000000" points="8.5,-1643.2 8.5,-1665.2 285.5,-1665.2 285.5,-1643.2 8.5,-1643.2"/>
<image xlink:href="../../images/primaryKeys.png" width="11px" height="12px" preserveAspectRatio="xMinYMin meet" x="13.5" y="-1660.2"/>
<text text-anchor="start" x="28.5" y="-1650.3" font-family="Helvetica,sans-Serif" font-size="11.00" fill="#000000">id</text>
<polygon fill="#ffffff" stroke="transparent" points="8.5,-1621.2 8.5,-1643.2 285.5,-1643.2 285.5,-1621.2 8.5,-1621.2"/>
<polygon fill="none" stroke="#000000" points="8.5,-1621.2 8.5,-1643.2 285.5,-1643.2 285.5,-1621.2 8.5,-1621.2"/>
<text text-anchor="start" x="28.5" y="-1628.3" font-family="Helvetica,sans-Serif" font-size="11.00" fill="#000000">uuid</text>
<polygon fill="#ffffff" stroke="transparent" points="8.5,-1599.2 8.5,-1621.2 285.5,-1621.2 285.5,-1599.2 8.5,-1599.2"/>
<polygon fill="none" stroke="#000000" points="8.5,-1599.2 8.5,-1621.2 285.5,-1621.2 285.5,-1599.2 8.5,-1599.2"/>
<text text-anchor="start" x="28.5" y="-1606.3" font-family="Helvetica,sans-Serif" font-size="11.00" fill="#000000">fname</text>
<polygon fill="#ffffff" stroke="transparent" points="8.5,-1577.2 8.5,-1599.2 285.5,-1599.2 285.5,-1577.2 8.5,-1577.2"/>
<polygon fill="none" stroke="#000000" points="8.5,-1577.2 8.5,-1599.2 285.5,-1599.2 285.5,-1577.2 8.5,-1577.2"/>
<text text-anchor="start" x="28.5" y="-1584.3" font-family="Helvetica,sans-Serif" font-size="11.00" fill="#000000">lname</text>
<polygon fill="#ffffff" stroke="transparent" points="8.5,-1555.2 8.5,-1577.2 285.5,-1577.2 285.5,-1555.2 8.5,-1555.2"/>
<polygon fill="none" stroke="#000000" points="8.5,-1555.2 8.5,-1577.2 285.5,-1577.2 285.5,-1555.2 8.5,-1555.2"/>
<text text-anchor="start" x="28.5" y="-1562.3" font-family="Helvetica,sans-Serif" font-size="11.00" fill="#000000">DOB</text>
<polygon fill="none" stroke="#000000" points="8.5,-1533.2 8.5,-1555.2 285.5,-1555.2 285.5,-1533.2 8.5,-1533.2"/>
<image xlink:href="../../images/foreignKeys.png" width="11px" height="12px" preserveAspectRatio="xMinYMin meet" x="13.5" y="-1550.2"/>
<text text-anchor="start" x="28.5" y="-1540.3" font-family="Helvetica,sans-Serif" font-size="11.00" fill="#000000">pharmacy_id</text>
<polygon fill="none" stroke="#000000" points="8.5,-1511.2 8.5,-1533.2 285.5,-1533.2 285.5,-1511.2 8.5,-1511.2"/>
<image xlink:href="../../images/foreignKeys.png" width="11px" height="12px" preserveAspectRatio="xMinYMin meet" x="13.5" y="-1528.2"/>
<text text-anchor="start" x="28.5" y="-1518.3" font-family="Helvetica,sans-Serif" font-size="11.00" fill="#000000">providerID</text>
<polygon fill="none" stroke="#000000" points="8.5,-1489.2 8.5,-1511.2 285.5,-1511.2 285.5,-1489.2 8.5,-1489.2"/>
<image xlink:href="../../images/foreignKeys.png" width="11px" height="12px" preserveAspectRatio="xMinYMin meet" x="13.5" y="-1506.2"/>
<text text-anchor="start" x="28.5" y="-1496.3" font-family="Helvetica,sans-Serif" font-size="11.00" fill="#000000">ref_providerID</text>
<polygon fill="none" stroke="#000000" points="8.5,-1467.2 8.5,-1489.2 285.5,-1489.2 285.5,-1467.2 8.5,-1467.2"/>
<image xlink:href="../../images/foreignKeys.png" width="11px" height="12px" preserveAspectRatio="xMinYMin meet" x="13.5" y="-1484.2"/>
<text text-anchor="start" x="28.5" y="-1474.3" font-family="Helvetica,sans-Serif" font-size="11.00" fill="#000000">interpreter_needed</text>
<polygon fill="none" stroke="#000000" points="8.5,-1445.2 8.5,-1467.2 285.5,-1467.2 285.5,-1445.2 8.5,-1445.2"/>
<image xlink:href="../../images/primaryKeys.png" width="11px" height="12px" preserveAspectRatio="xMinYMin meet" x="13.5" y="-1462.2"/>
<text text-anchor="start" x="28.5" y="-1452.3" font-family="Helvetica,sans-Serif" font-size="11.00" fill="#000000">pid</text>
<polygon fill="none" stroke="#000000" points="8.5,-1423.2 8.5,-1445.2 285.5,-1445.2 285.5,-1423.2 8.5,-1423.2"/>
<image xlink:href="../../images/foreignKeys.png" width="11px" height="12px" preserveAspectRatio="xMinYMin meet" x="13.5" y="-1440.2"/>
<text text-anchor="start" x="28.5" y="-1430.3" font-family="Helvetica,sans-Serif" font-size="11.00" fill="#000000">advance_directive_user_authenticator</text>
<polygon fill="none" stroke="#000000" points="8.5,-1401.2 8.5,-1423.2 285.5,-1423.2 285.5,-1401.2 8.5,-1401.2"/>
<image xlink:href="../../images/foreignKeys.png" width="11px" height="12px" preserveAspectRatio="xMinYMin meet" x="13.5" y="-1418.2"/>
<text text-anchor="start" x="28.5" y="-1408.3" font-family="Helvetica,sans-Serif" font-size="11.00" fill="#000000">created_by</text>
<polygon fill="none" stroke="#000000" points="8.5,-1379.2 8.5,-1401.2 285.5,-1401.2 285.5,-1379.2 8.5,-1379.2"/>
<image xlink:href="../../images/foreignKeys.png" width="11px" height="12px" preserveAspectRatio="xMinYMin meet" x="13.5" y="-1396.2"/>
<text text-anchor="start" x="28.5" y="-1386.3" font-family="Helvetica,sans-Serif" font-size="11.00" fill="#000000">updated_by</text>
<polygon fill="none" stroke="#000000" points="8.5,-1357.2 8.5,-1379.2 285.5,-1379.2 285.5,-1357.2 8.5,-1357.2"/>
<image xlink:href="../../images/foreignKeys.png" width="11px" height="12px" preserveAspectRatio="xMinYMin meet" x="13.5" y="-1374.2"/>
<text text-anchor="start" x="28.5" y="-1364.3" font-family="Helvetica,sans-Serif" font-size="11.00" fill="#000000">tribal_affiliations</text>
<polygon fill="none" stroke="#000000" points="8.5,-1335.2 8.5,-1357.2 285.5,-1357.2 285.5,-1335.2 8.5,-1335.2"/>
<image xlink:href="../../images/foreignKeys.png" width="11px" height="12px" preserveAspectRatio="xMinYMin meet" x="13.5" y="-1352.2"/>
<text text-anchor="start" x="28.5" y="-1342.3" font-family="Helvetica,sans-Serif" font-size="11.00" fill="#000000">sex_identified</text>
<polygon fill="none" stroke="#000000" points="8.5,-1316.2 8.5,-1335.2 285.5,-1335.2 285.5,-1316.2 8.5,-1316.2"/>
<text text-anchor="start" x="11.5" y="-1322.3" font-family="Helvetica,sans-Serif" font-size="11.00" fill="#000000">...</text>
<polygon fill="#ffffff" stroke="transparent" points="8.5,-1297.2 8.5,-1316.2 137.5,-1316.2 137.5,-1297.2 8.5,-1297.2"/>
<polygon fill="none" stroke="#000000" points="8.5,-1297.2 8.5,-1316.2 137.5,-1316.2 137.5,-1297.2 8.5,-1297.2"/>
<text text-anchor="start" x="11.5" y="-1303.3" font-family="Helvetica,sans-Serif" font-size="11.00" fill="#000000">&lt; 9</text>
<polygon fill="#ffffff" stroke="transparent" points="137.5,-1297.2 137.5,-1316.2 203.5,-1316.2 203.5,-1297.2 137.5,-1297.2"/>
<polygon fill="none" stroke="#000000" points="137.5,-1297.2 137.5,-1316.2 203.5,-1316.2 203.5,-1297.2 137.5,-1297.2"/>
<text text-anchor="start" x="194.3862" y="-1303.3" font-family="Helvetica,sans-Serif" font-size="11.00" fill="#000000"> &#160;</text>
<polygon fill="#ffffff" stroke="transparent" points="203.5,-1297.2 203.5,-1316.2 285.5,-1316.2 285.5,-1297.2 203.5,-1297.2"/>
<polygon fill="none" stroke="#000000" points="203.5,-1297.2 203.5,-1316.2 285.5,-1316.2 285.5,-1297.2 203.5,-1297.2"/>
<text text-anchor="start" x="260.7904" y="-1303.3" font-family="Helvetica,sans-Serif" font-size="11.00" fill="#000000">95 &gt;</text>
</a>
</g>
</g>
<!-- form_eye_refraction&#45;&gt;patient_data -->
<g id="edge1" class="edge">
<title>form_eye_refraction:w&#45;&gt;patient_data:e</title>
<path fill="none" stroke="#000000" d="M321.4203,-1456.2C309.5435,-1456.2 302.158,-1456.2 285.5,-1456.2"/>
<polygon fill="#000000" stroke="#000000" points="328,-1456.2001 336,-1459.8 332,-1456.2 336,-1456.2 336,-1456.2 336,-1456.2 332,-1456.2 336,-1452.6 328,-1456.2001 328,-1456.2001"/>
<ellipse fill="none" stroke="#000000" cx="324.8" cy="-1456.2001" rx="3.2" ry="3.2"/>
</g>
</g>
</svg>
