<?xml version="1.0" encoding="UTF-8" standalone="no"?>
<!DOCTYPE svg PUBLIC "-//W3C//DTD SVG 1.1//EN"
 "http://www.w3.org/Graphics/SVG/1.1/DTD/svg11.dtd">
<!-- Generated by graphviz version 2.40.1 (20161225.0304)
 -->
<!-- Title: twoDegreesRelationshipsDiagram Pages: 1 -->
<svg width="1149pt" height="1221pt"
 viewBox="0.00 0.00 1149.00 1220.77" xmlns="http://www.w3.org/2000/svg" xmlns:xlink="http://www.w3.org/1999/xlink">
<g id="graph0" class="graph" transform="scale(1 1) rotate(0) translate(4 1216.7742)">
<title>twoDegreesRelationshipsDiagram</title>
<polygon fill="#ffffff" stroke="transparent" points="-4,4 -4,-1216.7742 1145,-1216.7742 1145,4 -4,4"/>
<text text-anchor="middle" x="72.4936" y="-7.3" font-family="Helvetica,sans-Serif" font-size="11.00" fill="#000000">Generated by SchemaSpy</text>
<!-- form_group_attendance -->
<g id="node1" class="node">
<title>form_group_attendance</title>
<g id="a_node1"><a xlink:href="../../tables/form_group_attendance.html" xlink:title="form_group_attendance" target="_top">
<polygon fill="#ffffff" stroke="transparent" points="934,-486.7742 934,-547.7742 1133,-547.7742 1133,-486.7742 934,-486.7742"/>
<polygon fill="#f5f5f5" stroke="transparent" points="934.5,-524.2742 934.5,-547.2742 1133.5,-547.2742 1133.5,-524.2742 934.5,-524.2742"/>
<polygon fill="none" stroke="#000000" points="934.5,-524.2742 934.5,-547.2742 1133.5,-547.2742 1133.5,-524.2742 934.5,-524.2742"/>
<text text-anchor="start" x="939.5" y="-532.8742" font-family="Helvetica,sans-Serif" font-weight="bold" font-size="11.00" fill="#000000">form_group_attendance</text>
<text text-anchor="start" x="1099.0219" y="-532.3742" font-family="Helvetica,sans-Serif" font-size="11.00" fill="#000000">[table]</text>
<polygon fill="none" stroke="#000000" points="934.5,-505.2742 934.5,-524.2742 1133.5,-524.2742 1133.5,-505.2742 934.5,-505.2742"/>
<text text-anchor="start" x="937.5" y="-511.3742" font-family="Helvetica,sans-Serif" font-size="11.00" fill="#000000">...</text>
<polygon fill="#ffffff" stroke="transparent" points="934.5,-486.2742 934.5,-505.2742 1027.5,-505.2742 1027.5,-486.2742 934.5,-486.2742"/>
<polygon fill="none" stroke="#000000" points="934.5,-486.2742 934.5,-505.2742 1027.5,-505.2742 1027.5,-486.2742 934.5,-486.2742"/>
<text text-anchor="start" x="937.5" y="-492.3742" font-family="Helvetica,sans-Serif" font-size="11.00" fill="#000000">&lt; 5</text>
<polygon fill="#ffffff" stroke="transparent" points="1027.5,-486.2742 1027.5,-505.2742 1075.5,-505.2742 1075.5,-486.2742 1027.5,-486.2742"/>
<polygon fill="none" stroke="#000000" points="1027.5,-486.2742 1027.5,-505.2742 1075.5,-505.2742 1075.5,-486.2742 1027.5,-486.2742"/>
<text text-anchor="start" x="1066.3862" y="-492.3742" font-family="Helvetica,sans-Serif" font-size="11.00" fill="#000000"> &#160;</text>
<polygon fill="#ffffff" stroke="transparent" points="1075.5,-486.2742 1075.5,-505.2742 1133.5,-505.2742 1133.5,-486.2742 1075.5,-486.2742"/>
<polygon fill="none" stroke="#000000" points="1075.5,-486.2742 1075.5,-505.2742 1133.5,-505.2742 1133.5,-486.2742 1075.5,-486.2742"/>
<text text-anchor="start" x="1114.9053" y="-492.3742" font-family="Helvetica,sans-Serif" font-size="11.00" fill="#000000">1 &gt;</text>
</a>
</g>
</g>
<!-- form_groups_encounter -->
<g id="node2" class="node">
<title>form_groups_encounter</title>
<g id="a_node2"><a xlink:href="../../tables/form_groups_encounter.html" xlink:title="form_groups_encounter" target="_top">
<polygon fill="#ffffff" stroke="transparent" points="686,-1147.7742 686,-1208.7742 884,-1208.7742 884,-1147.7742 686,-1147.7742"/>
<polygon fill="#f5f5f5" stroke="transparent" points="686,-1185.2742 686,-1208.2742 884,-1208.2742 884,-1185.2742 686,-1185.2742"/>
<polygon fill="none" stroke="#000000" points="686,-1185.2742 686,-1208.2742 884,-1208.2742 884,-1185.2742 686,-1185.2742"/>
<text text-anchor="start" x="691" y="-1193.8742" font-family="Helvetica,sans-Serif" font-weight="bold" font-size="11.00" fill="#000000">form_groups_encounter</text>
<text text-anchor="start" x="849.5219" y="-1193.3742" font-family="Helvetica,sans-Serif" font-size="11.00" fill="#000000">[table]</text>
<polygon fill="none" stroke="#000000" points="686,-1166.2742 686,-1185.2742 884,-1185.2742 884,-1166.2742 686,-1166.2742"/>
<text text-anchor="start" x="689" y="-1172.3742" font-family="Helvetica,sans-Serif" font-size="11.00" fill="#000000">...</text>
<polygon fill="#ffffff" stroke="transparent" points="686,-1147.2742 686,-1166.2742 779,-1166.2742 779,-1147.2742 686,-1147.2742"/>
<polygon fill="none" stroke="#000000" points="686,-1147.2742 686,-1166.2742 779,-1166.2742 779,-1147.2742 686,-1147.2742"/>
<text text-anchor="start" x="689" y="-1153.3742" font-family="Helvetica,sans-Serif" font-size="11.00" fill="#000000">&lt; 7</text>
<polygon fill="#ffffff" stroke="transparent" points="779,-1147.2742 779,-1166.2742 827,-1166.2742 827,-1147.2742 779,-1147.2742"/>
<polygon fill="none" stroke="#000000" points="779,-1147.2742 779,-1166.2742 827,-1166.2742 827,-1147.2742 779,-1147.2742"/>
<text text-anchor="start" x="817.8862" y="-1153.3742" font-family="Helvetica,sans-Serif" font-size="11.00" fill="#000000"> &#160;</text>
<polygon fill="#ffffff" stroke="transparent" points="827,-1147.2742 827,-1166.2742 884,-1166.2742 884,-1147.2742 827,-1147.2742"/>
<polygon fill="none" stroke="#000000" points="827,-1147.2742 827,-1166.2742 884,-1166.2742 884,-1147.2742 827,-1147.2742"/>
<text text-anchor="start" x="865.4053" y="-1153.3742" font-family="Helvetica,sans-Serif" font-size="11.00" fill="#000000">1 &gt;</text>
</a>
</g>
</g>
<!-- form_group_attendance&#45;&gt;form_groups_encounter -->
<g id="edge1" class="edge">
<title>form_group_attendance:w&#45;&gt;form_groups_encounter:e</title>
<path fill="none" stroke="#000000" d="M922.2907,-522.158C872.6136,-596.7353 952.911,-1175.2742 884,-1175.2742"/>
<polygon fill="#000000" stroke="#000000" points="927.7793,-518.6139 936.4529,-517.2985 931.1397,-516.444 934.5,-514.2742 934.5,-514.2742 934.5,-514.2742 931.1397,-516.444 932.5471,-511.2499 927.7793,-518.6139 927.7793,-518.6139"/>
<ellipse fill="none" stroke="#000000" cx="925.0911" cy="-520.3498" rx="3.2" ry="3.2"/>
</g>
<!-- therapy_groups -->
<g id="node3" class="node">
<title>therapy_groups</title>
<g id="a_node3"><a xlink:href="../../tables/therapy_groups.html" xlink:title="therapy_groups" target="_top">
<polygon fill="#ffffff" stroke="transparent" points="305,-1009.7742 305,-1070.7742 449,-1070.7742 449,-1009.7742 305,-1009.7742"/>
<polygon fill="#f5f5f5" stroke="transparent" points="305,-1047.2742 305,-1070.2742 449,-1070.2742 449,-1047.2742 305,-1047.2742"/>
<polygon fill="none" stroke="#000000" points="305,-1047.2742 305,-1070.2742 449,-1070.2742 449,-1047.2742 305,-1047.2742"/>
<text text-anchor="start" x="310" y="-1055.8742" font-family="Helvetica,sans-Serif" font-weight="bold" font-size="11.00" fill="#000000">therapy_groups</text>
<text text-anchor="start" x="414.5219" y="-1055.3742" font-family="Helvetica,sans-Serif" font-size="11.00" fill="#000000">[table]</text>
<polygon fill="none" stroke="#000000" points="305,-1028.2742 305,-1047.2742 449,-1047.2742 449,-1028.2742 305,-1028.2742"/>
<text text-anchor="start" x="308" y="-1034.3742" font-family="Helvetica,sans-Serif" font-size="11.00" fill="#000000">...</text>
<polygon fill="#ffffff" stroke="transparent" points="305,-1009.2742 305,-1028.2742 366,-1028.2742 366,-1009.2742 305,-1009.2742"/>
<polygon fill="none" stroke="#000000" points="305,-1009.2742 305,-1028.2742 366,-1028.2742 366,-1009.2742 305,-1009.2742"/>
<text text-anchor="start" x="308" y="-1015.3742" font-family="Helvetica,sans-Serif" font-size="11.00" fill="#000000"> &#160;</text>
<polygon fill="#ffffff" stroke="transparent" points="366,-1009.2742 366,-1028.2742 403,-1028.2742 403,-1009.2742 366,-1009.2742"/>
<polygon fill="none" stroke="#000000" points="366,-1009.2742 366,-1028.2742 403,-1028.2742 403,-1009.2742 366,-1009.2742"/>
<text text-anchor="start" x="393.8862" y="-1015.3742" font-family="Helvetica,sans-Serif" font-size="11.00" fill="#000000"> &#160;</text>
<polygon fill="#ffffff" stroke="transparent" points="403,-1009.2742 403,-1028.2742 449,-1028.2742 449,-1009.2742 403,-1009.2742"/>
<polygon fill="none" stroke="#000000" points="403,-1009.2742 403,-1028.2742 449,-1028.2742 449,-1009.2742 403,-1009.2742"/>
<text text-anchor="start" x="430.4053" y="-1015.3742" font-family="Helvetica,sans-Serif" font-size="11.00" fill="#000000">6 &gt;</text>
</a>
</g>
</g>
<!-- form_group_attendance&#45;&gt;therapy_groups -->
<g id="edge2" class="edge">
<title>form_group_attendance:w&#45;&gt;therapy_groups:e</title>
<path fill="none" stroke="#000000" d="M922.8544,-522.9217C885.8539,-587.363 931.2653,-991.1736 893,-1027.2742 857.1067,-1061.1369 498.3458,-1037.2742 449,-1037.2742"/>
<polygon fill="#000000" stroke="#000000" points="928.0771,-519.0435 936.6462,-517.1645 931.2886,-516.6589 934.5,-514.2742 934.5,-514.2742 934.5,-514.2742 931.2886,-516.6589 932.3538,-511.3839 928.0771,-519.0435 928.0771,-519.0435"/>
<ellipse fill="none" stroke="#000000" cx="925.508" cy="-520.9513" rx="3.2" ry="3.2"/>
</g>
<!-- groups -->
<g id="node4" class="node">
<title>groups</title>
<g id="a_node4"><a xlink:href="../../tables/groups.html" xlink:title="groups" target="_top">
<polygon fill="#ffffff" stroke="transparent" points="151,-264.7742 151,-325.7742 237,-325.7742 237,-264.7742 151,-264.7742"/>
<polygon fill="#f5f5f5" stroke="transparent" points="151,-302.2742 151,-325.2742 237,-325.2742 237,-302.2742 151,-302.2742"/>
<polygon fill="none" stroke="#000000" points="151,-302.2742 151,-325.2742 237,-325.2742 237,-302.2742 151,-302.2742"/>
<text text-anchor="start" x="156" y="-310.8742" font-family="Helvetica,sans-Serif" font-weight="bold" font-size="11.00" fill="#000000">groups</text>
<text text-anchor="start" x="202.5219" y="-310.3742" font-family="Helvetica,sans-Serif" font-size="11.00" fill="#000000">[table]</text>
<polygon fill="none" stroke="#000000" points="151,-283.2742 151,-302.2742 237,-302.2742 237,-283.2742 151,-283.2742"/>
<text text-anchor="start" x="154" y="-289.3742" font-family="Helvetica,sans-Serif" font-size="11.00" fill="#000000">...</text>
<polygon fill="#ffffff" stroke="transparent" points="151,-264.2742 151,-283.2742 185,-283.2742 185,-264.2742 151,-264.2742"/>
<polygon fill="none" stroke="#000000" points="151,-264.2742 151,-283.2742 185,-283.2742 185,-264.2742 151,-264.2742"/>
<text text-anchor="start" x="154" y="-270.3742" font-family="Helvetica,sans-Serif" font-size="11.00" fill="#000000">&lt; 1</text>
<polygon fill="#ffffff" stroke="transparent" points="185,-264.2742 185,-283.2742 203,-283.2742 203,-264.2742 185,-264.2742"/>
<polygon fill="none" stroke="#000000" points="185,-264.2742 185,-283.2742 203,-283.2742 203,-264.2742 185,-264.2742"/>
<text text-anchor="start" x="193.8862" y="-270.3742" font-family="Helvetica,sans-Serif" font-size="11.00" fill="#000000"> &#160;</text>
<polygon fill="#ffffff" stroke="transparent" points="203,-264.2742 203,-283.2742 237,-283.2742 237,-264.2742 203,-264.2742"/>
<polygon fill="none" stroke="#000000" points="203,-264.2742 203,-283.2742 237,-283.2742 237,-264.2742 203,-264.2742"/>
<text text-anchor="start" x="212.2904" y="-270.3742" font-family="Helvetica,sans-Serif" font-size="11.00" fill="#000000">17 &gt;</text>
</a>
</g>
</g>
<!-- form_group_attendance&#45;&gt;groups -->
<g id="edge3" class="edge">
<title>form_group_attendance:w&#45;&gt;groups:e</title>
<path fill="none" stroke="#000000" d="M920.1097,-510.9725C848.3791,-473.5784 962.8458,-129.9489 893,-66.2742 787.3035,30.0838 339.0686,-119.2611 297,-154.2742 245.5951,-197.0576 303.8797,-292.2742 237,-292.2742"/>
<polygon fill="#000000" stroke="#000000" points="926.7026,-512.4851 933.6949,-517.783 930.6013,-513.3796 934.5,-514.2742 934.5,-514.2742 934.5,-514.2742 930.6013,-513.3796 935.3051,-510.7653 926.7026,-512.4851 926.7026,-512.4851"/>
<ellipse fill="none" stroke="#000000" cx="923.5836" cy="-511.7695" rx="3.2" ry="3.2"/>
</g>
<!-- forms -->
<g id="node5" class="node">
<title>forms</title>
<g id="a_node5"><a xlink:href="../../tables/forms.html" xlink:title="forms" target="_top">
<polygon fill="#ffffff" stroke="transparent" points="498,-532.7742 498,-791.7742 636,-791.7742 636,-532.7742 498,-532.7742"/>
<polygon fill="#f5f5f5" stroke="transparent" points="498,-768.2742 498,-791.2742 636,-791.2742 636,-768.2742 498,-768.2742"/>
<polygon fill="none" stroke="#000000" points="498,-768.2742 498,-791.2742 636,-791.2742 636,-768.2742 498,-768.2742"/>
<text text-anchor="start" x="503" y="-776.8742" font-family="Helvetica,sans-Serif" font-weight="bold" font-size="11.00" fill="#000000">forms</text>
<text text-anchor="start" x="601.0437" y="-776.3742" font-family="Helvetica,sans-Serif" font-size="11.00" fill="#000000">[table]</text>
<polygon fill="none" stroke="#000000" points="498,-746.2742 498,-768.2742 636,-768.2742 636,-746.2742 498,-746.2742"/>
<image xlink:href="../../images/primaryKeys.png" width="11px" height="12px" preserveAspectRatio="xMinYMin meet" x="503" y="-763.274"/>
<text text-anchor="start" x="518" y="-753.3742" font-family="Helvetica,sans-Serif" font-size="11.00" fill="#000000">id</text>
<polygon fill="#ffffff" stroke="transparent" points="498,-724.2742 498,-746.2742 636,-746.2742 636,-724.2742 498,-724.2742"/>
<polygon fill="none" stroke="#000000" points="498,-724.2742 498,-746.2742 636,-746.2742 636,-724.2742 498,-724.2742"/>
<text text-anchor="start" x="518" y="-731.3742" font-family="Helvetica,sans-Serif" font-size="11.00" fill="#000000">encounter</text>
<polygon fill="none" stroke="#000000" points="498,-702.2742 498,-724.2742 636,-724.2742 636,-702.2742 498,-702.2742"/>
<image xlink:href="../../images/primaryKeys.png" width="11px" height="12px" preserveAspectRatio="xMinYMin meet" x="503" y="-719.274"/>
<text text-anchor="start" x="518" y="-709.3742" font-family="Helvetica,sans-Serif" font-size="11.00" fill="#000000">form_id</text>
<polygon fill="#ffffff" stroke="transparent" points="498,-680.2742 498,-702.2742 636,-702.2742 636,-680.2742 498,-680.2742"/>
<polygon fill="none" stroke="#000000" points="498,-680.2742 498,-702.2742 636,-702.2742 636,-680.2742 498,-680.2742"/>
<image xlink:href="../../images/foreignKeys.png" width="11px" height="12px" preserveAspectRatio="xMinYMin meet" x="503" y="-697.274"/>
<text text-anchor="start" x="518" y="-687.3742" font-family="Helvetica,sans-Serif" font-size="11.00" fill="#000000">pid</text>
<polygon fill="none" stroke="#000000" points="498,-658.2742 498,-680.2742 636,-680.2742 636,-658.2742 498,-658.2742"/>
<image xlink:href="../../images/foreignKeys.png" width="11px" height="12px" preserveAspectRatio="xMinYMin meet" x="503" y="-675.274"/>
<text text-anchor="start" x="518" y="-665.3742" font-family="Helvetica,sans-Serif" font-size="11.00" fill="#000000">user</text>
<polygon fill="none" stroke="#000000" points="498,-636.2742 498,-658.2742 636,-658.2742 636,-636.2742 498,-636.2742"/>
<image xlink:href="../../images/foreignKeys.png" width="11px" height="12px" preserveAspectRatio="xMinYMin meet" x="503" y="-653.274"/>
<text text-anchor="start" x="518" y="-643.3742" font-family="Helvetica,sans-Serif" font-size="11.00" fill="#000000">groupname</text>
<polygon fill="none" stroke="#000000" points="498,-614.2742 498,-636.2742 636,-636.2742 636,-614.2742 498,-614.2742"/>
<image xlink:href="../../images/foreignKeys.png" width="11px" height="12px" preserveAspectRatio="xMinYMin meet" x="503" y="-631.274"/>
<text text-anchor="start" x="518" y="-621.3742" font-family="Helvetica,sans-Serif" font-size="11.00" fill="#000000">therapy_group_id</text>
<polygon fill="none" stroke="#000000" points="498,-592.2742 498,-614.2742 636,-614.2742 636,-592.2742 498,-592.2742"/>
<image xlink:href="../../images/foreignKeys.png" width="11px" height="12px" preserveAspectRatio="xMinYMin meet" x="503" y="-609.274"/>
<text text-anchor="start" x="518" y="-599.3742" font-family="Helvetica,sans-Serif" font-size="11.00" fill="#000000">issue_id</text>
<polygon fill="none" stroke="#000000" points="498,-570.2742 498,-592.2742 636,-592.2742 636,-570.2742 498,-570.2742"/>
<image xlink:href="../../images/foreignKeys.png" width="11px" height="12px" preserveAspectRatio="xMinYMin meet" x="503" y="-587.274"/>
<text text-anchor="start" x="518" y="-577.3742" font-family="Helvetica,sans-Serif" font-size="11.00" fill="#000000">provider_id</text>
<polygon fill="none" stroke="#000000" points="498,-551.2742 498,-570.2742 636,-570.2742 636,-551.2742 498,-551.2742"/>
<text text-anchor="start" x="501" y="-557.3742" font-family="Helvetica,sans-Serif" font-size="11.00" fill="#000000">...</text>
<polygon fill="#ffffff" stroke="transparent" points="498,-532.2742 498,-551.2742 558,-551.2742 558,-532.2742 498,-532.2742"/>
<polygon fill="none" stroke="#000000" points="498,-532.2742 498,-551.2742 558,-551.2742 558,-532.2742 498,-532.2742"/>
<text text-anchor="start" x="501" y="-538.3742" font-family="Helvetica,sans-Serif" font-size="11.00" fill="#000000">&lt; 6</text>
<polygon fill="#ffffff" stroke="transparent" points="558,-532.2742 558,-551.2742 589,-551.2742 589,-532.2742 558,-532.2742"/>
<polygon fill="none" stroke="#000000" points="558,-532.2742 558,-551.2742 589,-551.2742 589,-532.2742 558,-532.2742"/>
<text text-anchor="start" x="579.8862" y="-538.3742" font-family="Helvetica,sans-Serif" font-size="11.00" fill="#000000"> &#160;</text>
<polygon fill="#ffffff" stroke="transparent" points="589,-532.2742 589,-551.2742 636,-551.2742 636,-532.2742 589,-532.2742"/>
<polygon fill="none" stroke="#000000" points="589,-532.2742 589,-551.2742 636,-551.2742 636,-532.2742 589,-532.2742"/>
<text text-anchor="start" x="611.2904" y="-538.3742" font-family="Helvetica,sans-Serif" font-size="11.00" fill="#000000">14 &gt;</text>
</a>
</g>
</g>
<!-- form_group_attendance&#45;&gt;forms -->
<g id="edge4" class="edge">
<title>form_group_attendance:w&#45;&gt;forms:e</title>
<path fill="none" stroke="#000000" d="M923.8484,-514.0586C859.8423,-511.7507 718.265,-492.3659 677,-527.2742 612.372,-581.9463 720.6512,-713.2742 636,-713.2742"/>
<polygon fill="#000000" stroke="#000000" points="933.7811,-510.2588 933.6192,-518.2571 932.0195,-518.2248 932.1815,-510.2264 933.7811,-510.2588"/>
<polyline fill="none" stroke="#000000" points="934.5,-514.2742 930.5008,-514.1932 "/>
<ellipse fill="none" stroke="#000000" cx="927.3015" cy="-514.1284" rx="3.2" ry="3.2"/>
</g>
<!-- users -->
<g id="node6" class="node">
<title>users</title>
<g id="a_node6"><a xlink:href="../../tables/users.html" xlink:title="users" target="_top">
<polygon fill="#ffffff" stroke="transparent" points="8,-451.7742 8,-512.7742 83,-512.7742 83,-451.7742 8,-451.7742"/>
<polygon fill="#f5f5f5" stroke="transparent" points="8.5,-489.2742 8.5,-512.2742 83.5,-512.2742 83.5,-489.2742 8.5,-489.2742"/>
<polygon fill="none" stroke="#000000" points="8.5,-489.2742 8.5,-512.2742 83.5,-512.2742 83.5,-489.2742 8.5,-489.2742"/>
<text text-anchor="start" x="13.5" y="-497.8742" font-family="Helvetica,sans-Serif" font-weight="bold" font-size="11.00" fill="#000000">users</text>
<text text-anchor="start" x="49.0219" y="-497.3742" font-family="Helvetica,sans-Serif" font-size="11.00" fill="#000000">[table]</text>
<polygon fill="none" stroke="#000000" points="8.5,-470.2742 8.5,-489.2742 83.5,-489.2742 83.5,-470.2742 8.5,-470.2742"/>
<text text-anchor="start" x="11.5" y="-476.3742" font-family="Helvetica,sans-Serif" font-size="11.00" fill="#000000">...</text>
<polygon fill="#ffffff" stroke="transparent" points="8.5,-451.2742 8.5,-470.2742 36.5,-470.2742 36.5,-451.2742 8.5,-451.2742"/>
<polygon fill="none" stroke="#000000" points="8.5,-451.2742 8.5,-470.2742 36.5,-470.2742 36.5,-451.2742 8.5,-451.2742"/>
<text text-anchor="start" x="11.5" y="-457.3742" font-family="Helvetica,sans-Serif" font-size="11.00" fill="#000000">&lt; 2</text>
<polygon fill="#ffffff" stroke="transparent" points="36.5,-451.2742 36.5,-470.2742 52.5,-470.2742 52.5,-451.2742 36.5,-451.2742"/>
<polygon fill="none" stroke="#000000" points="36.5,-451.2742 36.5,-470.2742 52.5,-470.2742 52.5,-451.2742 36.5,-451.2742"/>
<text text-anchor="start" x="43.3862" y="-457.3742" font-family="Helvetica,sans-Serif" font-size="11.00" fill="#000000"> &#160;</text>
<polygon fill="#ffffff" stroke="transparent" points="52.5,-451.2742 52.5,-470.2742 83.5,-470.2742 83.5,-451.2742 52.5,-451.2742"/>
<polygon fill="none" stroke="#000000" points="52.5,-451.2742 52.5,-470.2742 83.5,-470.2742 83.5,-451.2742 52.5,-451.2742"/>
<text text-anchor="start" x="58.7904" y="-457.3742" font-family="Helvetica,sans-Serif" font-size="11.00" fill="#000000">90 &gt;</text>
</a>
</g>
</g>
<!-- form_group_attendance&#45;&gt;users -->
<g id="edge5" class="edge">
<title>form_group_attendance:w&#45;&gt;users:e</title>
<path fill="none" stroke="#000000" d="M920.4362,-510.9249C853.1746,-474.3997 959.1562,-150.2713 893,-90.2742 857.4441,-58.0285 724.3858,-82.6199 677,-90.2742 486.0837,-121.1132 451.1175,-178.4159 264,-227.2742 202.6869,-243.2836 168.5293,-209.1881 124,-254.2742 52.6007,-326.5662 185.1071,-479.2742 83.5,-479.2742"/>
<polygon fill="#000000" stroke="#000000" points="926.7176,-512.4208 933.666,-517.7762 930.6088,-513.3475 934.5,-514.2742 934.5,-514.2742 934.5,-514.2742 930.6088,-513.3475 935.334,-510.7721 926.7176,-512.4208 926.7176,-512.4208"/>
<ellipse fill="none" stroke="#000000" cx="923.6047" cy="-511.6794" rx="3.2" ry="3.2"/>
</g>
<!-- form_groups_encounter&#45;&gt;therapy_groups -->
<g id="edge6" class="edge">
<title>form_groups_encounter:w&#45;&gt;therapy_groups:e</title>
<path fill="none" stroke="#000000" d="M671.8578,-1171.3506C661.0535,-1163.6919 659.974,-1146.5186 644,-1135.2742 624.1711,-1121.3161 473.249,-1037.2742 449,-1037.2742"/>
<polygon fill="#000000" stroke="#000000" points="678.2912,-1173.1354 685.0376,-1178.7431 682.1456,-1174.2048 686,-1175.2742 686,-1175.2742 686,-1175.2742 682.1456,-1174.2048 686.9624,-1171.8052 678.2912,-1173.1354 678.2912,-1173.1354"/>
<ellipse fill="none" stroke="#000000" cx="675.2076" cy="-1172.2799" rx="3.2" ry="3.2"/>
</g>
<!-- form_groups_encounter&#45;&gt;forms -->
<g id="edge7" class="edge">
<title>form_groups_encounter:w&#45;&gt;forms:e</title>
<path fill="none" stroke="#000000" d="M675.5503,-1173.4127C593.9937,-1141.6213 735.434,-713.2742 636,-713.2742"/>
<polygon fill="#000000" stroke="#000000" points="685.9139,-1171.1959 684.5109,-1179.0719 682.9357,-1178.7913 684.3387,-1170.9152 685.9139,-1171.1959"/>
<polyline fill="none" stroke="#000000" points="686,-1175.2742 682.062,-1174.5726 "/>
<ellipse fill="none" stroke="#000000" cx="678.9116" cy="-1174.0114" rx="3.2" ry="3.2"/>
</g>
<!-- form_groups_encounter&#45;&gt;users -->
<g id="edge8" class="edge">
<title>form_groups_encounter:w&#45;&gt;users:e</title>
<path fill="none" stroke="#000000" d="M671.3167,-1175.3683C506.0309,-1177.4718 430.0353,-1213.0967 297,-1106.2742 140.5452,-980.6467 181.7391,-881.437 124,-689.2742 110.3237,-643.7578 131.0266,-479.2742 83.5,-479.2742"/>
<polygon fill="#000000" stroke="#000000" points="678.0002,-1175.3255 686.0231,-1178.8741 682.0001,-1175.2998 686,-1175.2742 686,-1175.2742 686,-1175.2742 682.0001,-1175.2998 685.9769,-1171.6742 678.0002,-1175.3255 678.0002,-1175.3255"/>
<ellipse fill="none" stroke="#000000" cx="674.8002" cy="-1175.346" rx="3.2" ry="3.2"/>
</g>
<!-- form_groups_encounter&#45;&gt;users -->
<g id="edge9" class="edge">
<title>form_groups_encounter:w&#45;&gt;users:e</title>
<path fill="none" stroke="#000000" d="M671.2904,-1175.3609C505.713,-1177.2969 429.7431,-1209.9527 297,-1102.2742 141.1723,-975.8698 182.0857,-877.3325 124,-685.2742 110.4942,-640.6177 130.1541,-479.2742 83.5,-479.2742"/>
<polygon fill="#000000" stroke="#000000" points="678.0001,-1175.3214 686.0213,-1178.8741 682.0001,-1175.2978 686,-1175.2742 686,-1175.2742 686,-1175.2742 682.0001,-1175.2978 685.9787,-1171.6742 678.0001,-1175.3214 678.0001,-1175.3214"/>
<ellipse fill="none" stroke="#000000" cx="674.8002" cy="-1175.3403" rx="3.2" ry="3.2"/>
</g>
<!-- groups&#45;&gt;users -->
<g id="edge20" class="edge">
<title>groups:w&#45;&gt;users:e</title>
<path fill="none" stroke="#000000" d="M136.6514,-294.3743C75.5208,-314.9187 166.3373,-479.2742 83.5,-479.2742"/>
<polygon fill="#000000" stroke="#000000" points="143.0843,-293.4328 151.5214,-295.8362 147.0422,-292.8535 151,-292.2742 151,-292.2742 151,-292.2742 147.0422,-292.8535 150.4786,-288.7121 143.0843,-293.4328 143.0843,-293.4328"/>
<ellipse fill="none" stroke="#000000" cx="139.9181" cy="-293.8962" rx="3.2" ry="3.2"/>
</g>
<!-- forms&#45;&gt;therapy_groups -->
<g id="edge18" class="edge">
<title>forms:w&#45;&gt;therapy_groups:e</title>
<path fill="none" stroke="#000000" d="M484.0455,-629.3519C420.8852,-672.1409 535.7984,-1037.2742 449,-1037.2742"/>
<polygon fill="#000000" stroke="#000000" points="490.3211,-627.5181 499.0098,-628.7297 494.1606,-626.3961 498,-625.2742 498,-625.2742 498,-625.2742 494.1606,-626.3961 496.9902,-621.8187 490.3211,-627.5181 490.3211,-627.5181"/>
<ellipse fill="none" stroke="#000000" cx="487.2496" cy="-628.4156" rx="3.2" ry="3.2"/>
</g>
<!-- forms&#45;&gt;groups -->
<g id="edge14" class="edge">
<title>forms:w&#45;&gt;groups:e</title>
<path fill="none" stroke="#000000" d="M484.4867,-641.3979C453.9738,-609.2775 484.0663,-455.0128 457,-417.2742 409.701,-351.3252 367.1165,-370.1416 297,-329.2742 269.9326,-313.498 268.3294,-292.2742 237,-292.2742"/>
<polygon fill="#000000" stroke="#000000" points="490.6636,-644.0839 496.5644,-650.5755 494.3318,-645.679 498,-647.2742 498,-647.2742 498,-647.2742 494.3318,-645.679 499.4356,-643.9728 490.6636,-644.0839 490.6636,-644.0839"/>
<ellipse fill="none" stroke="#000000" cx="487.7291" cy="-642.8078" rx="3.2" ry="3.2"/>
</g>
<!-- forms&#45;&gt;users -->
<g id="edge17" class="edge">
<title>forms:w&#45;&gt;users:e</title>
<path fill="none" stroke="#000000" d="M483.7341,-578.9438C445.7412,-563.6054 504.2278,-476.6546 457,-441.2742 390.2298,-391.2537 166.9285,-479.2742 83.5,-479.2742"/>
<polygon fill="#000000" stroke="#000000" points="490.1046,-579.9844 497.4196,-584.8271 494.0523,-580.6293 498,-581.2742 498,-581.2742 498,-581.2742 494.0523,-580.6293 498.5804,-577.7213 490.1046,-579.9844 490.1046,-579.9844"/>
<ellipse fill="none" stroke="#000000" cx="486.9465" cy="-579.4685" rx="3.2" ry="3.2"/>
</g>
<!-- forms&#45;&gt;users -->
<g id="edge19" class="edge">
<title>forms:w&#45;&gt;users:e</title>
<path fill="none" stroke="#000000" d="M483.6022,-666.5883C404.5943,-643.4947 130.6012,-479.2742 83.5,-479.2742"/>
<polygon fill="#000000" stroke="#000000" points="490.1357,-667.807 497.3398,-672.8131 494.0678,-668.5406 498,-669.2742 498,-669.2742 498,-669.2742 494.0678,-668.5406 498.6602,-665.7352 490.1357,-667.807 490.1357,-667.807"/>
<ellipse fill="none" stroke="#000000" cx="486.9899" cy="-667.2202" rx="3.2" ry="3.2"/>
</g>
<!-- patient_data -->
<g id="node8" class="node">
<title>patient_data</title>
<g id="a_node8"><a xlink:href="../../tables/patient_data.html" xlink:title="patient_data" target="_top">
<polygon fill="#ffffff" stroke="transparent" points="132,-617.7742 132,-678.7742 256,-678.7742 256,-617.7742 132,-617.7742"/>
<polygon fill="#f5f5f5" stroke="transparent" points="132,-655.2742 132,-678.2742 256,-678.2742 256,-655.2742 132,-655.2742"/>
<polygon fill="none" stroke="#000000" points="132,-655.2742 132,-678.2742 256,-678.2742 256,-655.2742 132,-655.2742"/>
<text text-anchor="start" x="137" y="-663.8742" font-family="Helvetica,sans-Serif" font-weight="bold" font-size="11.00" fill="#000000">patient_data</text>
<text text-anchor="start" x="221.5219" y="-663.3742" font-family="Helvetica,sans-Serif" font-size="11.00" fill="#000000">[table]</text>
<polygon fill="none" stroke="#000000" points="132,-636.2742 132,-655.2742 256,-655.2742 256,-636.2742 132,-636.2742"/>
<text text-anchor="start" x="135" y="-642.3742" font-family="Helvetica,sans-Serif" font-size="11.00" fill="#000000">...</text>
<polygon fill="#ffffff" stroke="transparent" points="132,-617.2742 132,-636.2742 185,-636.2742 185,-617.2742 132,-617.2742"/>
<polygon fill="none" stroke="#000000" points="132,-617.2742 132,-636.2742 185,-636.2742 185,-617.2742 132,-617.2742"/>
<text text-anchor="start" x="135" y="-623.3742" font-family="Helvetica,sans-Serif" font-size="11.00" fill="#000000">&lt; 9</text>
<polygon fill="#ffffff" stroke="transparent" points="185,-617.2742 185,-636.2742 213,-636.2742 213,-617.2742 185,-617.2742"/>
<polygon fill="none" stroke="#000000" points="185,-617.2742 185,-636.2742 213,-636.2742 213,-617.2742 185,-617.2742"/>
<text text-anchor="start" x="203.8862" y="-623.3742" font-family="Helvetica,sans-Serif" font-size="11.00" fill="#000000"> &#160;</text>
<polygon fill="#ffffff" stroke="transparent" points="213,-617.2742 213,-636.2742 256,-636.2742 256,-617.2742 213,-617.2742"/>
<polygon fill="none" stroke="#000000" points="213,-617.2742 213,-636.2742 256,-636.2742 256,-617.2742 213,-617.2742"/>
<text text-anchor="start" x="231.2904" y="-623.3742" font-family="Helvetica,sans-Serif" font-size="11.00" fill="#000000">95 &gt;</text>
</a>
</g>
</g>
<!-- forms&#45;&gt;patient_data -->
<g id="edge16" class="edge">
<title>forms:w&#45;&gt;patient_data:e</title>
<path fill="none" stroke="#000000" d="M483.3673,-691.4991C405.1361,-693.9118 375.0409,-714.3034 297,-682.2742 274.2928,-672.9548 280.5452,-645.2742 256,-645.2742"/>
<polygon fill="#000000" stroke="#000000" points="490.0009,-691.3972 498.0554,-694.8737 494.0005,-691.3357 498,-691.2742 498,-691.2742 498,-691.2742 494.0005,-691.3357 497.9446,-687.6746 490.0009,-691.3972 490.0009,-691.3972"/>
<ellipse fill="none" stroke="#000000" cx="486.8013" cy="-691.4464" rx="3.2" ry="3.2"/>
</g>
<!-- lists -->
<g id="node9" class="node">
<title>lists</title>
<g id="a_node9"><a xlink:href="../../tables/lists.html" xlink:title="lists" target="_top">
<polygon fill="#ffffff" stroke="transparent" points="343.5,-451.7742 343.5,-512.7742 410.5,-512.7742 410.5,-451.7742 343.5,-451.7742"/>
<polygon fill="#f5f5f5" stroke="transparent" points="344,-489.2742 344,-512.2742 411,-512.2742 411,-489.2742 344,-489.2742"/>
<polygon fill="none" stroke="#000000" points="344,-489.2742 344,-512.2742 411,-512.2742 411,-489.2742 344,-489.2742"/>
<text text-anchor="start" x="349" y="-497.8742" font-family="Helvetica,sans-Serif" font-weight="bold" font-size="11.00" fill="#000000">lists</text>
<text text-anchor="start" x="376.5219" y="-497.3742" font-family="Helvetica,sans-Serif" font-size="11.00" fill="#000000">[table]</text>
<polygon fill="none" stroke="#000000" points="344,-470.2742 344,-489.2742 411,-489.2742 411,-470.2742 344,-470.2742"/>
<text text-anchor="start" x="347" y="-476.3742" font-family="Helvetica,sans-Serif" font-size="11.00" fill="#000000">...</text>
<polygon fill="#ffffff" stroke="transparent" points="344,-451.2742 344,-470.2742 374,-470.2742 374,-451.2742 344,-451.2742"/>
<polygon fill="none" stroke="#000000" points="344,-451.2742 344,-470.2742 374,-470.2742 374,-451.2742 344,-451.2742"/>
<text text-anchor="start" x="347" y="-457.3742" font-family="Helvetica,sans-Serif" font-size="11.00" fill="#000000">&lt; 11</text>
<polygon fill="#ffffff" stroke="transparent" points="374,-451.2742 374,-470.2742 388,-470.2742 388,-451.2742 374,-451.2742"/>
<polygon fill="none" stroke="#000000" points="374,-451.2742 374,-470.2742 388,-470.2742 388,-451.2742 374,-451.2742"/>
<text text-anchor="start" x="378.8862" y="-457.3742" font-family="Helvetica,sans-Serif" font-size="11.00" fill="#000000"> &#160;</text>
<polygon fill="#ffffff" stroke="transparent" points="388,-451.2742 388,-470.2742 411,-470.2742 411,-451.2742 388,-451.2742"/>
<polygon fill="none" stroke="#000000" points="388,-451.2742 388,-470.2742 411,-470.2742 411,-451.2742 388,-451.2742"/>
<text text-anchor="start" x="392.4053" y="-457.3742" font-family="Helvetica,sans-Serif" font-size="11.00" fill="#000000">5 &gt;</text>
</a>
</g>
</g>
<!-- forms&#45;&gt;lists -->
<g id="edge15" class="edge">
<title>forms:w&#45;&gt;lists:e</title>
<path fill="none" stroke="#000000" d="M483.6263,-600.9078C437.7205,-583.7648 472.8001,-479.2742 411,-479.2742"/>
<polygon fill="#000000" stroke="#000000" points="490.1063,-601.9746 497.4152,-606.8263 494.0531,-602.6244 498,-603.2742 498,-603.2742 498,-603.2742 494.0531,-602.6244 498.5848,-599.722 490.1063,-601.9746 490.1063,-601.9746"/>
<ellipse fill="none" stroke="#000000" cx="486.9488" cy="-601.4547" rx="3.2" ry="3.2"/>
</g>
<!-- form_observation -->
<g id="node7" class="node">
<title>form_observation</title>
<g id="a_node7"><a xlink:href="../../tables/form_observation.html" xlink:title="form_observation" target="_top">
<polygon fill="#ffffff" stroke="transparent" points="706.5,-873.7742 706.5,-934.7742 863.5,-934.7742 863.5,-873.7742 706.5,-873.7742"/>
<polygon fill="#f5f5f5" stroke="transparent" points="707,-911.2742 707,-934.2742 864,-934.2742 864,-911.2742 707,-911.2742"/>
<polygon fill="none" stroke="#000000" points="707,-911.2742 707,-934.2742 864,-934.2742 864,-911.2742 707,-911.2742"/>
<text text-anchor="start" x="712" y="-919.8742" font-family="Helvetica,sans-Serif" font-weight="bold" font-size="11.00" fill="#000000">form_observation</text>
<text text-anchor="start" x="829.5219" y="-919.3742" font-family="Helvetica,sans-Serif" font-size="11.00" fill="#000000">[table]</text>
<polygon fill="none" stroke="#000000" points="707,-892.2742 707,-911.2742 864,-911.2742 864,-892.2742 707,-892.2742"/>
<text text-anchor="start" x="710" y="-898.3742" font-family="Helvetica,sans-Serif" font-size="11.00" fill="#000000">...</text>
<polygon fill="#ffffff" stroke="transparent" points="707,-873.2742 707,-892.2742 784,-892.2742 784,-873.2742 707,-873.2742"/>
<polygon fill="none" stroke="#000000" points="707,-873.2742 707,-892.2742 784,-892.2742 784,-873.2742 707,-873.2742"/>
<text text-anchor="start" x="710" y="-879.3742" font-family="Helvetica,sans-Serif" font-size="11.00" fill="#000000">&lt; 8</text>
<polygon fill="#ffffff" stroke="transparent" points="784,-873.2742 784,-892.2742 824,-892.2742 824,-873.2742 784,-873.2742"/>
<polygon fill="none" stroke="#000000" points="784,-873.2742 784,-892.2742 824,-892.2742 824,-873.2742 784,-873.2742"/>
<text text-anchor="start" x="814.8862" y="-879.3742" font-family="Helvetica,sans-Serif" font-size="11.00" fill="#000000"> &#160;</text>
<polygon fill="#ffffff" stroke="transparent" points="824,-873.2742 824,-892.2742 864,-892.2742 864,-873.2742 824,-873.2742"/>
<polygon fill="none" stroke="#000000" points="824,-873.2742 824,-892.2742 864,-892.2742 864,-873.2742 824,-873.2742"/>
<text text-anchor="start" x="854.8862" y="-879.3742" font-family="Helvetica,sans-Serif" font-size="11.00" fill="#000000"> &#160;</text>
</a>
</g>
</g>
<!-- form_observation&#45;&gt;forms -->
<g id="edge10" class="edge">
<title>form_observation:w&#45;&gt;forms:e</title>
<path fill="none" stroke="#000000" d="M692.4651,-899.1628C630.3689,-878.5085 719.7334,-713.2742 636,-713.2742"/>
<polygon fill="#000000" stroke="#000000" points="699.0831,-900.1241 706.4825,-904.8368 703.0415,-900.6991 707,-901.2742 707,-901.2742 707,-901.2742 703.0415,-900.6991 707.5175,-897.7116 699.0831,-900.1241 699.0831,-900.1241"/>
<ellipse fill="none" stroke="#000000" cx="695.9163" cy="-899.6641" rx="3.2" ry="3.2"/>
</g>
<!-- form_observation&#45;&gt;patient_data -->
<g id="edge11" class="edge">
<title>form_observation:w&#45;&gt;patient_data:e</title>
<path fill="none" stroke="#000000" d="M692.595,-901.3253C514.315,-902.5675 427.4977,-924.9033 297,-796.2742 247.4738,-747.4571 325.541,-645.2742 256,-645.2742"/>
<polygon fill="#000000" stroke="#000000" points="699.0001,-901.3026 707.0128,-904.8741 703,-901.2884 707,-901.2742 707,-901.2742 707,-901.2742 703,-901.2884 706.9872,-897.6742 699.0001,-901.3026 699.0001,-901.3026"/>
<ellipse fill="none" stroke="#000000" cx="695.8001" cy="-901.314" rx="3.2" ry="3.2"/>
</g>
<!-- form_observation&#45;&gt;patient_data -->
<g id="edge12" class="edge">
<title>form_observation:w&#45;&gt;patient_data:e</title>
<path fill="none" stroke="#000000" d="M692.5623,-900.8644C513.8976,-896.3867 427.6629,-915.3583 297,-786.2742 248.7485,-738.6057 323.8269,-639.2742 256,-645.2742"/>
<polygon fill="#000000" stroke="#000000" points="699.0032,-901.0472 706.8978,-904.8727 703.0016,-901.1607 707,-901.2742 707,-901.2742 707,-901.2742 703.0016,-901.1607 707.1022,-897.6756 699.0032,-901.0472 699.0032,-901.0472"/>
<ellipse fill="none" stroke="#000000" cx="695.8045" cy="-900.9564" rx="3.2" ry="3.2"/>
</g>
<!-- form_observation&#45;&gt;patient_data -->
<g id="edge13" class="edge">
<title>form_observation:w&#45;&gt;patient_data:e</title>
<path fill="none" stroke="#000000" d="M692.5623,-901.8478C513.8976,-909.3867 427.6629,-928.3583 297,-799.2742 248.7485,-751.6057 323.8269,-652.2742 256,-645.2742"/>
<polygon fill="#000000" stroke="#000000" points="699.0063,-901.5918 707.1429,-904.8713 703.0032,-901.433 707,-901.2742 707,-901.2742 707,-901.2742 703.0032,-901.433 706.8571,-897.677 699.0063,-901.5918 699.0063,-901.5918"/>
<ellipse fill="none" stroke="#000000" cx="695.8088" cy="-901.7189" rx="3.2" ry="3.2"/>
</g>
<!-- patient_data&#45;&gt;users -->
<g id="edge54" class="edge">
<title>patient_data:w&#45;&gt;users:e</title>
<path fill="none" stroke="#000000" d="M118.9899,-638.3396C68.3099,-598.074 155.2581,-455.0007 83.5,-479.2742"/>
<polygon fill="#000000" stroke="#000000" points="124.9402,-641.5112 130.3067,-648.4511 128.4701,-643.3927 132,-645.2742 132,-645.2742 132,-645.2742 128.4701,-643.3927 133.6933,-642.0973 124.9402,-641.5112 124.9402,-641.5112"/>
<ellipse fill="none" stroke="#000000" cx="122.1163" cy="-640.006" rx="3.2" ry="3.2"/>
</g>
<!-- patient_data&#45;&gt;users -->
<g id="edge55" class="edge">
<title>patient_data:w&#45;&gt;users:e</title>
<path fill="none" stroke="#000000" d="M118.3609,-640.3782C69.0348,-609.8154 154.9579,-467.1882 83.5,-479.2742"/>
<polygon fill="#000000" stroke="#000000" points="124.4704,-642.5712 130.7837,-648.6625 128.2352,-643.9227 132,-645.2742 132,-645.2742 132,-645.2742 128.2352,-643.9227 133.2163,-641.8859 124.4704,-642.5712 124.4704,-642.5712"/>
<ellipse fill="none" stroke="#000000" cx="121.4586" cy="-641.4901" rx="3.2" ry="3.2"/>
</g>
<!-- patient_data&#45;&gt;users -->
<g id="edge56" class="edge">
<title>patient_data:w&#45;&gt;users:e</title>
<path fill="none" stroke="#000000" d="M117.7463,-642.6667C69.754,-621.5479 154.6576,-479.2742 83.5,-479.2742"/>
<polygon fill="#000000" stroke="#000000" points="124.1306,-643.8345 131.3522,-648.8154 128.0653,-644.5544 132,-645.2742 132,-645.2742 132,-645.2742 128.0653,-644.5544 132.6478,-641.7329 124.1306,-643.8345 124.1306,-643.8345"/>
<ellipse fill="none" stroke="#000000" cx="120.9828" cy="-643.2587" rx="3.2" ry="3.2"/>
</g>
<!-- patient_data&#45;&gt;users -->
<g id="edge57" class="edge">
<title>patient_data:w&#45;&gt;users:e</title>
<path fill="none" stroke="#000000" d="M117.4443,-645.2758C70.1116,-633.8728 154.5075,-491.2839 83.5,-479.2742"/>
<polygon fill="#000000" stroke="#000000" points="124,-645.2751 132.0004,-648.8742 128,-645.2747 132,-645.2742 132,-645.2742 132,-645.2742 128,-645.2747 131.9996,-641.6742 124,-645.2751 124,-645.2751"/>
<ellipse fill="none" stroke="#000000" cx="120.8" cy="-645.2755" rx="3.2" ry="3.2"/>
</g>
<!-- patient_data&#45;&gt;users -->
<g id="edge58" class="edge">
<title>patient_data:w&#45;&gt;users:e</title>
<path fill="none" stroke="#000000" d="M117.7463,-648.0261C69.754,-647.4047 154.6576,-503.3445 83.5,-479.2742"/>
<polygon fill="#000000" stroke="#000000" points="124.1451,-646.7907 132.6825,-648.8089 128.0725,-646.0325 132,-645.2742 132,-645.2742 132,-645.2742 128.0725,-646.0325 131.3175,-641.7394 124.1451,-646.7907 124.1451,-646.7907"/>
<ellipse fill="none" stroke="#000000" cx="121.0031" cy="-647.3974" rx="3.2" ry="3.2"/>
</g>
<!-- lists&#45;&gt;groups -->
<g id="edge21" class="edge">
<title>lists:w&#45;&gt;groups:e</title>
<path fill="none" stroke="#000000" d="M329.3986,-477.5423C257.2402,-458.6905 327.3312,-292.2742 237,-292.2742"/>
<polygon fill="#000000" stroke="#000000" points="336.0557,-478.3319 343.576,-482.8491 340.0278,-478.803 344,-479.2742 344,-479.2742 344,-479.2742 340.0278,-478.803 344.424,-475.6992 336.0557,-478.3319 336.0557,-478.3319"/>
<ellipse fill="none" stroke="#000000" cx="332.878" cy="-477.955" rx="3.2" ry="3.2"/>
</g>
<!-- lists&#45;&gt;users -->
<g id="edge23" class="edge">
<title>lists:w&#45;&gt;users:e</title>
<path fill="none" stroke="#000000" d="M329.5427,-479.2742C225.5745,-479.2742 194.303,-479.2742 83.5,-479.2742"/>
<polygon fill="#000000" stroke="#000000" points="336,-479.2742 344,-482.8742 340,-479.2742 344,-479.2742 344,-479.2742 344,-479.2742 340,-479.2742 344,-475.6742 336,-479.2742 336,-479.2742"/>
<ellipse fill="none" stroke="#000000" cx="332.8" cy="-479.2742" rx="3.2" ry="3.2"/>
</g>
<!-- lists&#45;&gt;patient_data -->
<g id="edge22" class="edge">
<title>lists:w&#45;&gt;patient_data:e</title>
<path fill="none" stroke="#000000" d="M329.4416,-481.7147C313.0428,-488.215 309.6529,-506.8501 297,-527.2742 267.7611,-574.4712 311.52,-645.2742 256,-645.2742"/>
<polygon fill="#000000" stroke="#000000" points="336.1101,-480.5969 344.5952,-482.8246 340.055,-479.9355 344,-479.2742 344,-479.2742 344,-479.2742 340.055,-479.9355 343.4048,-475.7237 336.1101,-480.5969 336.1101,-480.5969"/>
<ellipse fill="none" stroke="#000000" cx="332.9541" cy="-481.1259" rx="3.2" ry="3.2"/>
</g>
<!-- form_clinic_note -->
<g id="node10" class="node">
<title>form_clinic_note</title>
<g id="a_node10"><a xlink:href="../../tables/form_clinic_note.html" xlink:title="form_clinic_note" target="_top">
<polygon fill="#ffffff" stroke="transparent" points="687,-538.2742 687,-606.2742 883,-606.2742 883,-538.2742 687,-538.2742"/>
<polygon fill="#f5f5f5" stroke="transparent" points="689,-581.2742 689,-604.2742 881,-604.2742 881,-581.2742 689,-581.2742"/>
<polygon fill="none" stroke="#000000" points="689,-581.2742 689,-604.2742 881,-604.2742 881,-581.2742 689,-581.2742"/>
<text text-anchor="start" x="694" y="-589.8742" font-family="Helvetica,sans-Serif" font-weight="bold" font-size="11.00" fill="#000000">form_clinic_note</text>
<text text-anchor="start" x="846.0437" y="-589.3742" font-family="Helvetica,sans-Serif" font-size="11.00" fill="#000000">[table]</text>
<polygon fill="none" stroke="#000000" points="689,-559.2742 689,-581.2742 819,-581.2742 819,-559.2742 689,-559.2742"/>
<image xlink:href="../../images/foreignKeys.png" width="11px" height="12px" preserveAspectRatio="xMinYMin meet" x="694" y="-576.274"/>
<text text-anchor="start" x="709" y="-566.3742" font-family="Helvetica,sans-Serif" font-size="11.00" fill="#000000">id</text>
<polygon fill="none" stroke="#000000" points="819,-559.2742 819,-581.2742 881,-581.2742 881,-559.2742 819,-559.2742"/>
<text text-anchor="start" x="821.878" y="-566.9742" font-family="Helvetica,sans-Serif" font-size="11.00" fill="#000000">unknown[0]</text>
<polygon fill="#ffffff" stroke="transparent" points="689,-540.2742 689,-559.2742 758,-559.2742 758,-540.2742 689,-540.2742"/>
<polygon fill="none" stroke="#000000" points="689,-540.2742 689,-559.2742 758,-559.2742 758,-540.2742 689,-540.2742"/>
<text text-anchor="start" x="692" y="-546.3742" font-family="Helvetica,sans-Serif" font-size="11.00" fill="#000000">&lt; 1</text>
<polygon fill="#ffffff" stroke="transparent" points="758,-540.2742 758,-559.2742 819,-559.2742 819,-540.2742 758,-540.2742"/>
<polygon fill="none" stroke="#000000" points="758,-540.2742 758,-559.2742 819,-559.2742 819,-540.2742 758,-540.2742"/>
<text text-anchor="start" x="809.8862" y="-546.3742" font-family="Helvetica,sans-Serif" font-size="11.00" fill="#000000"> &#160;</text>
<polygon fill="#ffffff" stroke="transparent" points="819,-540.2742 819,-559.2742 881,-559.2742 881,-540.2742 819,-540.2742"/>
<polygon fill="none" stroke="#000000" points="819,-540.2742 819,-559.2742 881,-559.2742 881,-540.2742 819,-540.2742"/>
<text text-anchor="start" x="862.4053" y="-546.3742" font-family="Helvetica,sans-Serif" font-size="11.00" fill="#000000">0 &gt;</text>
<polygon fill="none" stroke="#000000" stroke-width="2" points="688,-539.2742 688,-605.2742 882,-605.2742 882,-539.2742 688,-539.2742"/>
</a>
</g>
</g>
<!-- form_clinic_note&#45;&gt;forms -->
<g id="edge24" class="edge">
<title>form_clinic_note:w&#45;&gt;forms:e</title>
<path fill="none" stroke="#000000" d="M674.6655,-573.2609C634.2995,-593.7962 697.9555,-713.2742 636,-713.2742"/>
<polygon fill="#000000" stroke="#000000" points="681.1682,-571.906 689.7343,-573.7985 685.0841,-571.0901 689,-570.2742 689,-570.2742 689,-570.2742 685.0841,-571.0901 688.2657,-566.7499 681.1682,-571.906 681.1682,-571.906"/>
<ellipse fill="none" stroke="#000000" cx="678.0355" cy="-572.5588" rx="3.2" ry="3.2"/>
</g>
<!-- form_gad7 -->
<g id="node11" class="node">
<title>form_gad7</title>
<g id="a_node11"><a xlink:href="../../tables/form_gad7.html" xlink:title="form_gad7" target="_top">
<polygon fill="#ffffff" stroke="transparent" points="730,-428.7742 730,-489.7742 840,-489.7742 840,-428.7742 730,-428.7742"/>
<polygon fill="#f5f5f5" stroke="transparent" points="730,-466.2742 730,-489.2742 840,-489.2742 840,-466.2742 730,-466.2742"/>
<polygon fill="none" stroke="#000000" points="730,-466.2742 730,-489.2742 840,-489.2742 840,-466.2742 730,-466.2742"/>
<text text-anchor="start" x="735" y="-474.8742" font-family="Helvetica,sans-Serif" font-weight="bold" font-size="11.00" fill="#000000">form_gad7</text>
<text text-anchor="start" x="805.5219" y="-474.3742" font-family="Helvetica,sans-Serif" font-size="11.00" fill="#000000">[table]</text>
<polygon fill="none" stroke="#000000" points="730,-447.2742 730,-466.2742 840,-466.2742 840,-447.2742 730,-447.2742"/>
<text text-anchor="start" x="733" y="-453.3742" font-family="Helvetica,sans-Serif" font-size="11.00" fill="#000000">...</text>
<polygon fill="#ffffff" stroke="transparent" points="730,-428.2742 730,-447.2742 783,-447.2742 783,-428.2742 730,-428.2742"/>
<polygon fill="none" stroke="#000000" points="730,-428.2742 730,-447.2742 783,-447.2742 783,-428.2742 730,-428.2742"/>
<text text-anchor="start" x="733" y="-434.3742" font-family="Helvetica,sans-Serif" font-size="11.00" fill="#000000">&lt; 4</text>
<polygon fill="#ffffff" stroke="transparent" points="783,-428.2742 783,-447.2742 811,-447.2742 811,-428.2742 783,-428.2742"/>
<polygon fill="none" stroke="#000000" points="783,-428.2742 783,-447.2742 811,-447.2742 811,-428.2742 783,-428.2742"/>
<text text-anchor="start" x="801.8862" y="-434.3742" font-family="Helvetica,sans-Serif" font-size="11.00" fill="#000000"> &#160;</text>
<polygon fill="#ffffff" stroke="transparent" points="811,-428.2742 811,-447.2742 840,-447.2742 840,-428.2742 811,-428.2742"/>
<polygon fill="none" stroke="#000000" points="811,-428.2742 811,-447.2742 840,-447.2742 840,-428.2742 811,-428.2742"/>
<text text-anchor="start" x="830.8862" y="-434.3742" font-family="Helvetica,sans-Serif" font-size="11.00" fill="#000000"> &#160;</text>
</a>
</g>
</g>
<!-- form_gad7&#45;&gt;groups -->
<g id="edge25" class="edge">
<title>form_gad7:w&#45;&gt;groups:e</title>
<path fill="none" stroke="#000000" d="M715.5247,-456.0092C611.7406,-452.0995 587.7184,-405.4621 490,-352.2742 474.5177,-343.8472 473.4827,-336.5221 457,-330.2742 389.8801,-304.8319 367.3689,-322.4378 297,-308.2742 269.9441,-302.8284 264.5985,-292.2742 237,-292.2742"/>
<polygon fill="#000000" stroke="#000000" points="722.0013,-456.1277 729.9341,-459.8736 726.0007,-456.2009 730,-456.2742 730,-456.2742 730,-456.2742 726.0007,-456.2009 730.0659,-452.6748 722.0013,-456.1277 722.0013,-456.1277"/>
<ellipse fill="none" stroke="#000000" cx="718.8019" cy="-456.0691" rx="3.2" ry="3.2"/>
</g>
<!-- form_gad7&#45;&gt;forms -->
<g id="edge26" class="edge">
<title>form_gad7:w&#45;&gt;forms:e</title>
<path fill="none" stroke="#000000" d="M715.4722,-458.0882C695.9454,-463.6485 689.8851,-481.4687 677,-504.2742 653.7178,-545.4814 683.3297,-713.2742 636,-713.2742"/>
<polygon fill="#000000" stroke="#000000" points="722.0616,-457.2654 730.4461,-459.8464 726.0308,-456.7698 730,-456.2742 730,-456.2742 730,-456.2742 726.0308,-456.7698 729.5539,-452.7019 722.0616,-457.2654 722.0616,-457.2654"/>
<ellipse fill="none" stroke="#000000" cx="718.8863" cy="-457.662" rx="3.2" ry="3.2"/>
</g>
<!-- form_gad7&#45;&gt;users -->
<g id="edge28" class="edge">
<title>form_gad7:w&#45;&gt;users:e</title>
<path fill="none" stroke="#000000" d="M715.4203,-456.1477C605.2651,-454.2006 573.9918,-430.3195 457,-423.2742 386.0175,-418.9996 368.0156,-419.5897 297,-423.2742 219.7999,-427.2795 194.3111,-409.1456 124,-441.2742 101.5501,-451.5326 108.1827,-479.2742 83.5,-479.2742"/>
<polygon fill="#000000" stroke="#000000" points="722.0003,-456.2047 729.9688,-459.874 726.0002,-456.2394 730,-456.2742 730,-456.2742 730,-456.2742 726.0002,-456.2394 730.0312,-452.6743 722.0003,-456.2047 722.0003,-456.2047"/>
<ellipse fill="none" stroke="#000000" cx="718.8004" cy="-456.177" rx="3.2" ry="3.2"/>
</g>
<!-- form_gad7&#45;&gt;patient_data -->
<g id="edge27" class="edge">
<title>form_gad7:w&#45;&gt;patient_data:e</title>
<path fill="none" stroke="#000000" d="M715.3006,-457.4161C686.7419,-462.2121 678.2649,-480.9529 644,-491.2742 577.1495,-511.4108 540.4561,-474.018 490,-522.2742 445.9859,-564.3692 504.9713,-617.7509 457,-655.2742 400.9886,-699.0864 367.603,-663.7599 297,-655.2742 278.3776,-653.0359 274.7564,-645.2742 256,-645.2742"/>
<polygon fill="#000000" stroke="#000000" points="722.024,-456.8938 730.2789,-459.8633 726.012,-456.584 730,-456.2742 730,-456.2742 730,-456.2742 726.012,-456.584 729.7211,-452.685 722.024,-456.8938 722.024,-456.8938"/>
<ellipse fill="none" stroke="#000000" cx="718.8336" cy="-457.1417" rx="3.2" ry="3.2"/>
</g>
<!-- form_note -->
<g id="node12" class="node">
<title>form_note</title>
<g id="a_node12"><a xlink:href="../../tables/form_note.html" xlink:title="form_note" target="_top">
<polygon fill="#ffffff" stroke="transparent" points="731.5,-709.7742 731.5,-770.7742 838.5,-770.7742 838.5,-709.7742 731.5,-709.7742"/>
<polygon fill="#f5f5f5" stroke="transparent" points="732,-747.2742 732,-770.2742 839,-770.2742 839,-747.2742 732,-747.2742"/>
<polygon fill="none" stroke="#000000" points="732,-747.2742 732,-770.2742 839,-770.2742 839,-747.2742 732,-747.2742"/>
<text text-anchor="start" x="737" y="-755.8742" font-family="Helvetica,sans-Serif" font-weight="bold" font-size="11.00" fill="#000000">form_note</text>
<text text-anchor="start" x="804.5219" y="-755.3742" font-family="Helvetica,sans-Serif" font-size="11.00" fill="#000000">[table]</text>
<polygon fill="none" stroke="#000000" points="732,-728.2742 732,-747.2742 839,-747.2742 839,-728.2742 732,-728.2742"/>
<text text-anchor="start" x="735" y="-734.3742" font-family="Helvetica,sans-Serif" font-size="11.00" fill="#000000">...</text>
<polygon fill="#ffffff" stroke="transparent" points="732,-709.2742 732,-728.2742 784,-728.2742 784,-709.2742 732,-709.2742"/>
<polygon fill="none" stroke="#000000" points="732,-709.2742 732,-728.2742 784,-728.2742 784,-709.2742 732,-709.2742"/>
<text text-anchor="start" x="735" y="-715.3742" font-family="Helvetica,sans-Serif" font-size="11.00" fill="#000000">&lt; 2</text>
<polygon fill="#ffffff" stroke="transparent" points="784,-709.2742 784,-728.2742 811,-728.2742 811,-709.2742 784,-709.2742"/>
<polygon fill="none" stroke="#000000" points="784,-709.2742 784,-728.2742 811,-728.2742 811,-709.2742 784,-709.2742"/>
<text text-anchor="start" x="801.8862" y="-715.3742" font-family="Helvetica,sans-Serif" font-size="11.00" fill="#000000"> &#160;</text>
<polygon fill="#ffffff" stroke="transparent" points="811,-709.2742 811,-728.2742 839,-728.2742 839,-709.2742 811,-709.2742"/>
<polygon fill="none" stroke="#000000" points="811,-709.2742 811,-728.2742 839,-728.2742 839,-709.2742 811,-709.2742"/>
<text text-anchor="start" x="829.8862" y="-715.3742" font-family="Helvetica,sans-Serif" font-size="11.00" fill="#000000"> &#160;</text>
</a>
</g>
</g>
<!-- form_note&#45;&gt;forms -->
<g id="edge29" class="edge">
<title>form_note:w&#45;&gt;forms:e</title>
<path fill="none" stroke="#000000" d="M717.4763,-736.3036C685.5459,-731.8136 674.6541,-713.2742 636,-713.2742"/>
<polygon fill="#000000" stroke="#000000" points="724.0178,-736.7407 731.7599,-740.8662 728.0089,-737.0074 732,-737.2742 732,-737.2742 732,-737.2742 728.0089,-737.0074 732.2401,-733.6822 724.0178,-736.7407 724.0178,-736.7407"/>
<ellipse fill="none" stroke="#000000" cx="720.8249" cy="-736.5273" rx="3.2" ry="3.2"/>
</g>
<!-- form_note&#45;&gt;patient_data -->
<g id="edge30" class="edge">
<title>form_note:w&#45;&gt;patient_data:e</title>
<path fill="none" stroke="#000000" d="M717.7065,-739.2591C699.4421,-745.1119 695.0781,-763.0368 677,-781.2742 660.2875,-798.1339 665.351,-812.8968 644,-823.2742 582.4414,-853.1938 557.4915,-834.6558 490,-823.2742 400.4648,-808.175 361.8339,-819.8438 297,-756.2742 259.4481,-719.4545 308.5911,-645.2742 256,-645.2742"/>
<polygon fill="#000000" stroke="#000000" points="724.076,-738.3746 732.4952,-740.8399 728.038,-737.8244 732,-737.2742 732,-737.2742 732,-737.2742 728.038,-737.8244 731.5048,-733.7084 724.076,-738.3746 724.076,-738.3746"/>
<ellipse fill="none" stroke="#000000" cx="720.9065" cy="-738.8148" rx="3.2" ry="3.2"/>
</g>
<!-- form_painmap -->
<g id="node13" class="node">
<title>form_painmap</title>
<g id="a_node13"><a xlink:href="../../tables/form_painmap.html" xlink:title="form_painmap" target="_top">
<polygon fill="#ffffff" stroke="transparent" points="717.5,-346.7742 717.5,-407.7742 852.5,-407.7742 852.5,-346.7742 717.5,-346.7742"/>
<polygon fill="#f5f5f5" stroke="transparent" points="718,-384.2742 718,-407.2742 853,-407.2742 853,-384.2742 718,-384.2742"/>
<polygon fill="none" stroke="#000000" points="718,-384.2742 718,-407.2742 853,-407.2742 853,-384.2742 718,-384.2742"/>
<text text-anchor="start" x="723" y="-392.8742" font-family="Helvetica,sans-Serif" font-weight="bold" font-size="11.00" fill="#000000">form_painmap</text>
<text text-anchor="start" x="818.5219" y="-392.3742" font-family="Helvetica,sans-Serif" font-size="11.00" fill="#000000">[table]</text>
<polygon fill="none" stroke="#000000" points="718,-365.2742 718,-384.2742 853,-384.2742 853,-365.2742 718,-365.2742"/>
<text text-anchor="start" x="721" y="-371.3742" font-family="Helvetica,sans-Serif" font-size="11.00" fill="#000000">...</text>
<polygon fill="#ffffff" stroke="transparent" points="718,-346.2742 718,-365.2742 784,-365.2742 784,-346.2742 718,-346.2742"/>
<polygon fill="none" stroke="#000000" points="718,-346.2742 718,-365.2742 784,-365.2742 784,-346.2742 718,-346.2742"/>
<text text-anchor="start" x="721" y="-352.3742" font-family="Helvetica,sans-Serif" font-size="11.00" fill="#000000">&lt; 4</text>
<polygon fill="#ffffff" stroke="transparent" points="784,-346.2742 784,-365.2742 818,-365.2742 818,-346.2742 784,-346.2742"/>
<polygon fill="none" stroke="#000000" points="784,-346.2742 784,-365.2742 818,-365.2742 818,-346.2742 784,-346.2742"/>
<text text-anchor="start" x="808.8862" y="-352.3742" font-family="Helvetica,sans-Serif" font-size="11.00" fill="#000000"> &#160;</text>
<polygon fill="#ffffff" stroke="transparent" points="818,-346.2742 818,-365.2742 853,-365.2742 853,-346.2742 818,-346.2742"/>
<polygon fill="none" stroke="#000000" points="818,-346.2742 818,-365.2742 853,-365.2742 853,-346.2742 818,-346.2742"/>
<text text-anchor="start" x="843.8862" y="-352.3742" font-family="Helvetica,sans-Serif" font-size="11.00" fill="#000000"> &#160;</text>
</a>
</g>
</g>
<!-- form_painmap&#45;&gt;groups -->
<g id="edge31" class="edge">
<title>form_painmap:w&#45;&gt;groups:e</title>
<path fill="none" stroke="#000000" d="M703.4346,-374.0368C596.3205,-370.4678 570.0496,-327.5874 457,-309.2742 360.1927,-293.592 335.0693,-292.2742 237,-292.2742"/>
<polygon fill="#000000" stroke="#000000" points="710.0011,-374.1438 717.9413,-377.8737 714.0005,-374.209 718,-374.2742 718,-374.2742 718,-374.2742 714.0005,-374.209 718.0587,-370.6746 710.0011,-374.1438 710.0011,-374.1438"/>
<ellipse fill="none" stroke="#000000" cx="706.8015" cy="-374.0916" rx="3.2" ry="3.2"/>
</g>
<!-- form_painmap&#45;&gt;forms -->
<g id="edge32" class="edge">
<title>form_painmap:w&#45;&gt;forms:e</title>
<path fill="none" stroke="#000000" d="M703.5543,-376.9625C689.6353,-383.1689 685.9722,-399.4174 677,-418.2742 648.5631,-478.0394 702.1857,-713.2742 636,-713.2742"/>
<polygon fill="#000000" stroke="#000000" points="710.135,-375.7378 718.6587,-377.8134 714.0675,-375.006 718,-374.2742 718,-374.2742 718,-374.2742 714.0675,-375.006 717.3413,-370.7349 710.135,-375.7378 710.135,-375.7378"/>
<ellipse fill="none" stroke="#000000" cx="706.989" cy="-376.3233" rx="3.2" ry="3.2"/>
</g>
<!-- form_painmap&#45;&gt;users -->
<g id="edge34" class="edge">
<title>form_painmap:w&#45;&gt;users:e</title>
<path fill="none" stroke="#000000" d="M703.4305,-374.1852C449.4764,-371.0845 348.6758,-288.7381 124,-419.2742 96.1813,-435.4368 115.6731,-479.2742 83.5,-479.2742"/>
<polygon fill="#000000" stroke="#000000" points="710.0001,-374.2253 717.978,-377.8741 714.0001,-374.2497 718,-374.2742 718,-374.2742 718,-374.2742 714.0001,-374.2497 718.022,-370.6742 710.0001,-374.2253 710.0001,-374.2253"/>
<ellipse fill="none" stroke="#000000" cx="706.8002" cy="-374.2057" rx="3.2" ry="3.2"/>
</g>
<!-- form_painmap&#45;&gt;patient_data -->
<g id="edge33" class="edge">
<title>form_painmap:w&#45;&gt;patient_data:e</title>
<path fill="none" stroke="#000000" d="M704.7431,-380.4754C656.2827,-404.4503 491.8923,-489.8641 490,-492.2742 451.5891,-541.195 504.2271,-587.799 457,-628.2742 422.9636,-657.4445 300.8261,-645.2742 256,-645.2742"/>
<polygon fill="#000000" stroke="#000000" points="710.7536,-377.6638 719.5254,-377.535 714.3768,-375.969 718,-374.2742 718,-374.2742 718,-374.2742 714.3768,-375.969 716.4746,-371.0133 710.7536,-377.6638 710.7536,-377.6638"/>
<ellipse fill="none" stroke="#000000" cx="707.855" cy="-379.0197" rx="3.2" ry="3.2"/>
</g>
<!-- form_phq9 -->
<g id="node14" class="node">
<title>form_phq9</title>
<g id="a_node14"><a xlink:href="../../tables/form_phq9.html" xlink:title="form_phq9" target="_top">
<polygon fill="#ffffff" stroke="transparent" points="730,-182.7742 730,-243.7742 840,-243.7742 840,-182.7742 730,-182.7742"/>
<polygon fill="#f5f5f5" stroke="transparent" points="730,-220.2742 730,-243.2742 840,-243.2742 840,-220.2742 730,-220.2742"/>
<polygon fill="none" stroke="#000000" points="730,-220.2742 730,-243.2742 840,-243.2742 840,-220.2742 730,-220.2742"/>
<text text-anchor="start" x="735" y="-228.8742" font-family="Helvetica,sans-Serif" font-weight="bold" font-size="11.00" fill="#000000">form_phq9</text>
<text text-anchor="start" x="805.5219" y="-228.3742" font-family="Helvetica,sans-Serif" font-size="11.00" fill="#000000">[table]</text>
<polygon fill="none" stroke="#000000" points="730,-201.2742 730,-220.2742 840,-220.2742 840,-201.2742 730,-201.2742"/>
<text text-anchor="start" x="733" y="-207.3742" font-family="Helvetica,sans-Serif" font-size="11.00" fill="#000000">...</text>
<polygon fill="#ffffff" stroke="transparent" points="730,-182.2742 730,-201.2742 783,-201.2742 783,-182.2742 730,-182.2742"/>
<polygon fill="none" stroke="#000000" points="730,-182.2742 730,-201.2742 783,-201.2742 783,-182.2742 730,-182.2742"/>
<text text-anchor="start" x="733" y="-188.3742" font-family="Helvetica,sans-Serif" font-size="11.00" fill="#000000">&lt; 4</text>
<polygon fill="#ffffff" stroke="transparent" points="783,-182.2742 783,-201.2742 811,-201.2742 811,-182.2742 783,-182.2742"/>
<polygon fill="none" stroke="#000000" points="783,-182.2742 783,-201.2742 811,-201.2742 811,-182.2742 783,-182.2742"/>
<text text-anchor="start" x="801.8862" y="-188.3742" font-family="Helvetica,sans-Serif" font-size="11.00" fill="#000000"> &#160;</text>
<polygon fill="#ffffff" stroke="transparent" points="811,-182.2742 811,-201.2742 840,-201.2742 840,-182.2742 811,-182.2742"/>
<polygon fill="none" stroke="#000000" points="811,-182.2742 811,-201.2742 840,-201.2742 840,-182.2742 811,-182.2742"/>
<text text-anchor="start" x="830.8862" y="-188.3742" font-family="Helvetica,sans-Serif" font-size="11.00" fill="#000000"> &#160;</text>
</a>
</g>
</g>
<!-- form_phq9&#45;&gt;groups -->
<g id="edge35" class="edge">
<title>form_phq9:w&#45;&gt;groups:e</title>
<path fill="none" stroke="#000000" d="M715.4713,-210.3037C533.0365,-211.0619 481.0569,-226.5608 297,-271.2742 269.5457,-277.9437 265.2528,-292.2742 237,-292.2742"/>
<polygon fill="#000000" stroke="#000000" points="722,-210.2905 730.0073,-213.8742 726,-210.2823 730,-210.2742 730,-210.2742 730,-210.2742 726,-210.2823 729.9927,-206.6742 722,-210.2905 722,-210.2905"/>
<ellipse fill="none" stroke="#000000" cx="718.8" cy="-210.297" rx="3.2" ry="3.2"/>
</g>
<!-- form_phq9&#45;&gt;forms -->
<g id="edge36" class="edge">
<title>form_phq9:w&#45;&gt;forms:e</title>
<path fill="none" stroke="#000000" d="M715.5067,-211.8718C696.2588,-216.6752 688.675,-232.039 677,-254.2742 653.1966,-299.6079 687.2031,-713.2742 636,-713.2742"/>
<polygon fill="#000000" stroke="#000000" points="722.0482,-211.1508 730.3945,-213.8525 726.0241,-210.7125 730,-210.2742 730,-210.2742 730,-210.2742 726.0241,-210.7125 729.6055,-206.6958 722.0482,-211.1508 722.0482,-211.1508"/>
<ellipse fill="none" stroke="#000000" cx="718.8674" cy="-211.5014" rx="3.2" ry="3.2"/>
</g>
<!-- form_phq9&#45;&gt;users -->
<g id="edge38" class="edge">
<title>form_phq9:w&#45;&gt;users:e</title>
<path fill="none" stroke="#000000" d="M715.5348,-210.1022C455.8463,-203.927 324.307,-34.5841 124,-207.2742 77.7154,-247.1774 144.6108,-479.2742 83.5,-479.2742"/>
<polygon fill="#000000" stroke="#000000" points="722.0006,-210.179 729.9572,-213.8739 726.0003,-210.2266 730,-210.2742 730,-210.2742 730,-210.2742 726.0003,-210.2266 730.0428,-206.6744 722.0006,-210.179 722.0006,-210.179"/>
<ellipse fill="none" stroke="#000000" cx="718.8008" cy="-210.1409" rx="3.2" ry="3.2"/>
</g>
<!-- form_phq9&#45;&gt;patient_data -->
<g id="edge37" class="edge">
<title>form_phq9:w&#45;&gt;patient_data:e</title>
<path fill="none" stroke="#000000" d="M715.4751,-212.0864C697.0672,-217.349 691.018,-233.5809 677,-254.2742 650.2774,-293.7219 677.2787,-322.175 644,-356.2742 593.3416,-408.1815 537.6099,-355.5573 490,-410.2742 441.1957,-466.3638 505.9767,-518.3351 457,-574.2742 407.4664,-630.8493 367.5955,-603.3782 297,-629.2742 278.6359,-636.0105 275.5606,-645.2742 256,-645.2742"/>
<polygon fill="#000000" stroke="#000000" points="722.0615,-211.2647 730.4457,-213.8465 726.0308,-210.7694 730,-210.2742 730,-210.2742 730,-210.2742 726.0308,-210.7694 729.5543,-206.7019 722.0615,-211.2647 722.0615,-211.2647"/>
<ellipse fill="none" stroke="#000000" cx="718.8862" cy="-211.6608" rx="3.2" ry="3.2"/>
</g>
<!-- form_physical_exam -->
<g id="node15" class="node">
<title>form_physical_exam</title>
<g id="a_node15"><a xlink:href="../../tables/form_physical_exam.html" xlink:title="form_physical_exam" target="_top">
<polygon fill="#ffffff" stroke="transparent" points="698,-791.7742 698,-852.7742 872,-852.7742 872,-791.7742 698,-791.7742"/>
<polygon fill="#f5f5f5" stroke="transparent" points="698,-829.2742 698,-852.2742 872,-852.2742 872,-829.2742 698,-829.2742"/>
<polygon fill="none" stroke="#000000" points="698,-829.2742 698,-852.2742 872,-852.2742 872,-829.2742 698,-829.2742"/>
<text text-anchor="start" x="703" y="-837.8742" font-family="Helvetica,sans-Serif" font-weight="bold" font-size="11.00" fill="#000000">form_physical_exam</text>
<text text-anchor="start" x="837.5219" y="-837.3742" font-family="Helvetica,sans-Serif" font-size="11.00" fill="#000000">[table]</text>
<polygon fill="none" stroke="#000000" points="698,-810.2742 698,-829.2742 872,-829.2742 872,-810.2742 698,-810.2742"/>
<text text-anchor="start" x="701" y="-816.3742" font-family="Helvetica,sans-Serif" font-size="11.00" fill="#000000">...</text>
<polygon fill="#ffffff" stroke="transparent" points="698,-791.2742 698,-810.2742 783,-810.2742 783,-791.2742 698,-791.2742"/>
<polygon fill="none" stroke="#000000" points="698,-791.2742 698,-810.2742 783,-810.2742 783,-791.2742 698,-791.2742"/>
<text text-anchor="start" x="701" y="-797.3742" font-family="Helvetica,sans-Serif" font-size="11.00" fill="#000000">&lt; 1</text>
<polygon fill="#ffffff" stroke="transparent" points="783,-791.2742 783,-810.2742 827,-810.2742 827,-791.2742 783,-791.2742"/>
<polygon fill="none" stroke="#000000" points="783,-791.2742 783,-810.2742 827,-810.2742 827,-791.2742 783,-791.2742"/>
<text text-anchor="start" x="817.8862" y="-797.3742" font-family="Helvetica,sans-Serif" font-size="11.00" fill="#000000"> &#160;</text>
<polygon fill="#ffffff" stroke="transparent" points="827,-791.2742 827,-810.2742 872,-810.2742 872,-791.2742 827,-791.2742"/>
<polygon fill="none" stroke="#000000" points="827,-791.2742 827,-810.2742 872,-810.2742 872,-791.2742 827,-791.2742"/>
<text text-anchor="start" x="862.8862" y="-797.3742" font-family="Helvetica,sans-Serif" font-size="11.00" fill="#000000"> &#160;</text>
</a>
</g>
</g>
<!-- form_physical_exam&#45;&gt;forms -->
<g id="edge39" class="edge">
<title>form_physical_exam:w&#45;&gt;forms:e</title>
<path fill="none" stroke="#000000" d="M683.9168,-815.5815C662.5526,-802.234 669.1849,-757.2742 636,-757.2742"/>
<polygon fill="#000000" stroke="#000000" points="690.2616,-817.2451 697.0869,-822.7564 694.1308,-818.2596 698,-819.2742 698,-819.2742 698,-819.2742 694.1308,-818.2596 698.9131,-815.7919 690.2616,-817.2451 690.2616,-817.2451"/>
<ellipse fill="none" stroke="#000000" cx="687.1662" cy="-816.4334" rx="3.2" ry="3.2"/>
</g>
<!-- form_prior_auth -->
<g id="node16" class="node">
<title>form_prior_auth</title>
<g id="a_node16"><a xlink:href="../../tables/form_prior_auth.html" xlink:title="form_prior_auth" target="_top">
<polygon fill="#ffffff" stroke="transparent" points="712,-627.7742 712,-688.7742 858,-688.7742 858,-627.7742 712,-627.7742"/>
<polygon fill="#f5f5f5" stroke="transparent" points="712,-665.2742 712,-688.2742 858,-688.2742 858,-665.2742 712,-665.2742"/>
<polygon fill="none" stroke="#000000" points="712,-665.2742 712,-688.2742 858,-688.2742 858,-665.2742 712,-665.2742"/>
<text text-anchor="start" x="717" y="-673.8742" font-family="Helvetica,sans-Serif" font-weight="bold" font-size="11.00" fill="#000000">form_prior_auth</text>
<text text-anchor="start" x="823.5219" y="-673.3742" font-family="Helvetica,sans-Serif" font-size="11.00" fill="#000000">[table]</text>
<polygon fill="none" stroke="#000000" points="712,-646.2742 712,-665.2742 858,-665.2742 858,-646.2742 712,-646.2742"/>
<text text-anchor="start" x="715" y="-652.3742" font-family="Helvetica,sans-Serif" font-size="11.00" fill="#000000">...</text>
<polygon fill="#ffffff" stroke="transparent" points="712,-627.2742 712,-646.2742 783,-646.2742 783,-627.2742 712,-627.2742"/>
<polygon fill="none" stroke="#000000" points="712,-627.2742 712,-646.2742 783,-646.2742 783,-627.2742 712,-627.2742"/>
<text text-anchor="start" x="715" y="-633.3742" font-family="Helvetica,sans-Serif" font-size="11.00" fill="#000000">&lt; 2</text>
<polygon fill="#ffffff" stroke="transparent" points="783,-627.2742 783,-646.2742 820,-646.2742 820,-627.2742 783,-627.2742"/>
<polygon fill="none" stroke="#000000" points="783,-627.2742 783,-646.2742 820,-646.2742 820,-627.2742 783,-627.2742"/>
<text text-anchor="start" x="810.8862" y="-633.3742" font-family="Helvetica,sans-Serif" font-size="11.00" fill="#000000"> &#160;</text>
<polygon fill="#ffffff" stroke="transparent" points="820,-627.2742 820,-646.2742 858,-646.2742 858,-627.2742 820,-627.2742"/>
<polygon fill="none" stroke="#000000" points="820,-627.2742 820,-646.2742 858,-646.2742 858,-627.2742 820,-627.2742"/>
<text text-anchor="start" x="848.8862" y="-633.3742" font-family="Helvetica,sans-Serif" font-size="11.00" fill="#000000"> &#160;</text>
</a>
</g>
</g>
<!-- form_prior_auth&#45;&gt;forms -->
<g id="edge40" class="edge">
<title>form_prior_auth:w&#45;&gt;forms:e</title>
<path fill="none" stroke="#000000" d="M697.5528,-658.0716C670.9872,-669.6573 672.8471,-713.2742 636,-713.2742"/>
<polygon fill="#000000" stroke="#000000" points="704.1459,-656.795 712.6844,-658.8085 708.0729,-656.0346 712,-655.2742 712,-655.2742 712,-655.2742 708.0729,-656.0346 711.3156,-651.7398 704.1459,-656.795 704.1459,-656.795"/>
<ellipse fill="none" stroke="#000000" cx="701.0042" cy="-657.4034" rx="3.2" ry="3.2"/>
</g>
<!-- form_prior_auth&#45;&gt;patient_data -->
<g id="edge41" class="edge">
<title>form_prior_auth:w&#45;&gt;patient_data:e</title>
<path fill="none" stroke="#000000" d="M697.9806,-658.8281C687.0746,-665.9173 685.9287,-682.5752 677,-699.2742 654.3343,-741.665 682.8313,-773.9396 644,-802.2742 588.71,-842.6183 556.4321,-818.7491 490,-802.2742 395.8323,-778.9209 370.6904,-763.3826 297,-700.2742 273.8425,-680.4421 286.489,-645.2742 256,-645.2742"/>
<polygon fill="#000000" stroke="#000000" points="704.2453,-657.24 712.8846,-658.7638 708.1226,-656.2571 712,-655.2742 712,-655.2742 712,-655.2742 708.1226,-656.2571 711.1154,-651.7845 704.2453,-657.24 704.2453,-657.24"/>
<ellipse fill="none" stroke="#000000" cx="701.1434" cy="-658.0264" rx="3.2" ry="3.2"/>
</g>
<!-- form_sdoh -->
<g id="node17" class="node">
<title>form_sdoh</title>
<g id="a_node17"><a xlink:href="../../tables/form_sdoh.html" xlink:title="form_sdoh" target="_top">
<polygon fill="#ffffff" stroke="transparent" points="730.5,-264.7742 730.5,-325.7742 839.5,-325.7742 839.5,-264.7742 730.5,-264.7742"/>
<polygon fill="#f5f5f5" stroke="transparent" points="731,-302.2742 731,-325.2742 840,-325.2742 840,-302.2742 731,-302.2742"/>
<polygon fill="none" stroke="#000000" points="731,-302.2742 731,-325.2742 840,-325.2742 840,-302.2742 731,-302.2742"/>
<text text-anchor="start" x="736" y="-310.8742" font-family="Helvetica,sans-Serif" font-weight="bold" font-size="11.00" fill="#000000">form_sdoh</text>
<text text-anchor="start" x="805.5219" y="-310.3742" font-family="Helvetica,sans-Serif" font-size="11.00" fill="#000000">[table]</text>
<polygon fill="none" stroke="#000000" points="731,-283.2742 731,-302.2742 840,-302.2742 840,-283.2742 731,-283.2742"/>
<text text-anchor="start" x="734" y="-289.3742" font-family="Helvetica,sans-Serif" font-size="11.00" fill="#000000">...</text>
<polygon fill="#ffffff" stroke="transparent" points="731,-264.2742 731,-283.2742 784,-283.2742 784,-264.2742 731,-264.2742"/>
<polygon fill="none" stroke="#000000" points="731,-264.2742 731,-283.2742 784,-283.2742 784,-264.2742 731,-264.2742"/>
<text text-anchor="start" x="734" y="-270.3742" font-family="Helvetica,sans-Serif" font-size="11.00" fill="#000000">&lt; 4</text>
<polygon fill="#ffffff" stroke="transparent" points="784,-264.2742 784,-283.2742 812,-283.2742 812,-264.2742 784,-264.2742"/>
<polygon fill="none" stroke="#000000" points="784,-264.2742 784,-283.2742 812,-283.2742 812,-264.2742 784,-264.2742"/>
<text text-anchor="start" x="802.8862" y="-270.3742" font-family="Helvetica,sans-Serif" font-size="11.00" fill="#000000"> &#160;</text>
<polygon fill="#ffffff" stroke="transparent" points="812,-264.2742 812,-283.2742 840,-283.2742 840,-264.2742 812,-264.2742"/>
<polygon fill="none" stroke="#000000" points="812,-264.2742 812,-283.2742 840,-283.2742 840,-264.2742 812,-264.2742"/>
<text text-anchor="start" x="830.8862" y="-270.3742" font-family="Helvetica,sans-Serif" font-size="11.00" fill="#000000"> &#160;</text>
</a>
</g>
</g>
<!-- form_sdoh&#45;&gt;groups -->
<g id="edge42" class="edge">
<title>form_sdoh:w&#45;&gt;groups:e</title>
<path fill="none" stroke="#000000" d="M716.55,-291.8723C689.0034,-290.2521 677.545,-284.1957 644,-282.2742 490.0302,-273.4544 450.6967,-269.5538 297,-282.2742 270.0576,-284.504 264.0345,-292.2742 237,-292.2742"/>
<polygon fill="#000000" stroke="#000000" points="723.0031,-292.0517 730.8999,-295.8728 727.0015,-292.1629 731,-292.2742 731,-292.2742 731,-292.2742 727.0015,-292.1629 731.1001,-288.6756 723.0031,-292.0517 723.0031,-292.0517"/>
<ellipse fill="none" stroke="#000000" cx="719.8043" cy="-291.9627" rx="3.2" ry="3.2"/>
</g>
<!-- form_sdoh&#45;&gt;forms -->
<g id="edge43" class="edge">
<title>form_sdoh:w&#45;&gt;forms:e</title>
<path fill="none" stroke="#000000" d="M716.6195,-293.7965C696.9357,-298.501 689.1819,-313.8534 677,-336.2742 636.7676,-410.322 720.2718,-713.2742 636,-713.2742"/>
<polygon fill="#000000" stroke="#000000" points="723.0445,-293.1164 731.379,-295.8542 727.0222,-292.6953 731,-292.2742 731,-292.2742 731,-292.2742 727.0222,-292.6953 730.621,-288.6942 723.0445,-293.1164 723.0445,-293.1164"/>
<ellipse fill="none" stroke="#000000" cx="719.8622" cy="-293.4533" rx="3.2" ry="3.2"/>
</g>
<!-- form_sdoh&#45;&gt;users -->
<g id="edge45" class="edge">
<title>form_sdoh:w&#45;&gt;users:e</title>
<path fill="none" stroke="#000000" d="M716.3313,-291.581C688.4985,-288.7694 677.7536,-278.0897 644,-272.2742 476.4514,-243.4067 433.735,-238.0682 264,-228.2742 201.8811,-224.6898 171.3726,-187.9326 124,-228.2742 80.9846,-264.9052 139.9992,-479.2742 83.5,-479.2742"/>
<polygon fill="#000000" stroke="#000000" points="723.0089,-291.8965 730.83,-295.8702 727.0045,-292.0853 731,-292.2742 731,-292.2742 731,-292.2742 727.0045,-292.0853 731.17,-288.6782 723.0089,-291.8965 723.0089,-291.8965"/>
<ellipse fill="none" stroke="#000000" cx="719.8125" cy="-291.7454" rx="3.2" ry="3.2"/>
</g>
<!-- form_sdoh&#45;&gt;patient_data -->
<g id="edge44" class="edge">
<title>form_sdoh:w&#45;&gt;patient_data:e</title>
<path fill="none" stroke="#000000" d="M716.3613,-292.4186C607.9096,-294.636 563.5871,-322.8745 490,-410.2742 456.3022,-450.2972 488.8589,-481.7724 457,-523.2742 449.0459,-533.6358 269.0626,-645.2742 256,-645.2742"/>
<polygon fill="#000000" stroke="#000000" points="723.0004,-292.3531 731.0355,-295.874 727.0002,-292.3136 731,-292.2742 731,-292.2742 731,-292.2742 727.0002,-292.3136 730.9645,-288.6743 723.0004,-292.3531 723.0004,-292.3531"/>
<ellipse fill="none" stroke="#000000" cx="719.8005" cy="-292.3847" rx="3.2" ry="3.2"/>
</g>
<!-- form_track_anything -->
<g id="node18" class="node">
<title>form_track_anything</title>
<g id="a_node18"><a xlink:href="../../tables/form_track_anything.html" xlink:title="form_track_anything" target="_top">
<polygon fill="#ffffff" stroke="transparent" points="696.5,-1065.7742 696.5,-1126.7742 873.5,-1126.7742 873.5,-1065.7742 696.5,-1065.7742"/>
<polygon fill="#f5f5f5" stroke="transparent" points="697,-1103.2742 697,-1126.2742 874,-1126.2742 874,-1103.2742 697,-1103.2742"/>
<polygon fill="none" stroke="#000000" points="697,-1103.2742 697,-1126.2742 874,-1126.2742 874,-1103.2742 697,-1103.2742"/>
<text text-anchor="start" x="702" y="-1111.8742" font-family="Helvetica,sans-Serif" font-weight="bold" font-size="11.00" fill="#000000">form_track_anything</text>
<text text-anchor="start" x="839.5219" y="-1111.3742" font-family="Helvetica,sans-Serif" font-size="11.00" fill="#000000">[table]</text>
<polygon fill="none" stroke="#000000" points="697,-1084.2742 697,-1103.2742 874,-1103.2742 874,-1084.2742 697,-1084.2742"/>
<text text-anchor="start" x="700" y="-1090.3742" font-family="Helvetica,sans-Serif" font-size="11.00" fill="#000000">...</text>
<polygon fill="#ffffff" stroke="transparent" points="697,-1065.2742 697,-1084.2742 779,-1084.2742 779,-1065.2742 697,-1065.2742"/>
<polygon fill="none" stroke="#000000" points="697,-1065.2742 697,-1084.2742 779,-1084.2742 779,-1065.2742 697,-1065.2742"/>
<text text-anchor="start" x="700" y="-1071.3742" font-family="Helvetica,sans-Serif" font-size="11.00" fill="#000000">&lt; 2</text>
<polygon fill="#ffffff" stroke="transparent" points="779,-1065.2742 779,-1084.2742 822,-1084.2742 822,-1065.2742 779,-1065.2742"/>
<polygon fill="none" stroke="#000000" points="779,-1065.2742 779,-1084.2742 822,-1084.2742 822,-1065.2742 779,-1065.2742"/>
<text text-anchor="start" x="812.8862" y="-1071.3742" font-family="Helvetica,sans-Serif" font-size="11.00" fill="#000000"> &#160;</text>
<polygon fill="#ffffff" stroke="transparent" points="822,-1065.2742 822,-1084.2742 874,-1084.2742 874,-1065.2742 822,-1065.2742"/>
<polygon fill="none" stroke="#000000" points="822,-1065.2742 822,-1084.2742 874,-1084.2742 874,-1065.2742 822,-1065.2742"/>
<text text-anchor="start" x="855.4053" y="-1071.3742" font-family="Helvetica,sans-Serif" font-size="11.00" fill="#000000">1 &gt;</text>
</a>
</g>
</g>
<!-- form_track_anything&#45;&gt;forms -->
<g id="edge46" class="edge">
<title>form_track_anything:w&#45;&gt;forms:e</title>
<path fill="none" stroke="#000000" d="M686.6226,-1091.0426C620.9672,-1059.9004 717.6836,-713.2742 636,-713.2742"/>
<polygon fill="#000000" stroke="#000000" points="697.0589,-1089.1954 695.3769,-1097.0166 693.8127,-1096.6802 695.4946,-1088.859 697.0589,-1089.1954"/>
<polyline fill="none" stroke="#000000" points="697,-1093.2742 693.0894,-1092.4332 "/>
<ellipse fill="none" stroke="#000000" cx="689.9609" cy="-1091.7604" rx="3.2" ry="3.2"/>
</g>
<!-- form_track_anything&#45;&gt;patient_data -->
<g id="edge47" class="edge">
<title>form_track_anything:w&#45;&gt;patient_data:e</title>
<path fill="none" stroke="#000000" d="M682.5842,-1093.6181C583.9955,-1097.8676 358.6248,-1139.0894 297,-1081.2742 226.0282,-1014.6898 353.3163,-645.2742 256,-645.2742"/>
<polygon fill="#000000" stroke="#000000" points="689.0023,-1093.465 697.0859,-1096.8731 693.0011,-1093.3696 697,-1093.2742 697,-1093.2742 697,-1093.2742 693.0011,-1093.3696 696.9141,-1089.6752 689.0023,-1093.465 689.0023,-1093.465"/>
<ellipse fill="none" stroke="#000000" cx="685.8032" cy="-1093.5413" rx="3.2" ry="3.2"/>
</g>
<!-- form_transfer_summary -->
<g id="node19" class="node">
<title>form_transfer_summary</title>
<g id="a_node19"><a xlink:href="../../tables/form_transfer_summary.html" xlink:title="form_transfer_summary" target="_top">
<polygon fill="#ffffff" stroke="transparent" points="685,-955.7742 685,-1016.7742 885,-1016.7742 885,-955.7742 685,-955.7742"/>
<polygon fill="#f5f5f5" stroke="transparent" points="685,-993.2742 685,-1016.2742 885,-1016.2742 885,-993.2742 685,-993.2742"/>
<polygon fill="none" stroke="#000000" points="685,-993.2742 685,-1016.2742 885,-1016.2742 885,-993.2742 685,-993.2742"/>
<text text-anchor="start" x="690" y="-1001.8742" font-family="Helvetica,sans-Serif" font-weight="bold" font-size="11.00" fill="#000000">form_transfer_summary</text>
<text text-anchor="start" x="850.5219" y="-1001.3742" font-family="Helvetica,sans-Serif" font-size="11.00" fill="#000000">[table]</text>
<polygon fill="none" stroke="#000000" points="685,-974.2742 685,-993.2742 885,-993.2742 885,-974.2742 685,-974.2742"/>
<text text-anchor="start" x="688" y="-980.3742" font-family="Helvetica,sans-Serif" font-size="11.00" fill="#000000">...</text>
<polygon fill="#ffffff" stroke="transparent" points="685,-955.2742 685,-974.2742 783,-974.2742 783,-955.2742 685,-955.2742"/>
<polygon fill="none" stroke="#000000" points="685,-955.2742 685,-974.2742 783,-974.2742 783,-955.2742 685,-955.2742"/>
<text text-anchor="start" x="688" y="-961.3742" font-family="Helvetica,sans-Serif" font-size="11.00" fill="#000000">&lt; 2</text>
<polygon fill="#ffffff" stroke="transparent" points="783,-955.2742 783,-974.2742 834,-974.2742 834,-955.2742 783,-955.2742"/>
<polygon fill="none" stroke="#000000" points="783,-955.2742 783,-974.2742 834,-974.2742 834,-955.2742 783,-955.2742"/>
<text text-anchor="start" x="824.8862" y="-961.3742" font-family="Helvetica,sans-Serif" font-size="11.00" fill="#000000"> &#160;</text>
<polygon fill="#ffffff" stroke="transparent" points="834,-955.2742 834,-974.2742 885,-974.2742 885,-955.2742 834,-955.2742"/>
<polygon fill="none" stroke="#000000" points="834,-955.2742 834,-974.2742 885,-974.2742 885,-955.2742 834,-955.2742"/>
<text text-anchor="start" x="875.8862" y="-961.3742" font-family="Helvetica,sans-Serif" font-size="11.00" fill="#000000"> &#160;</text>
</a>
</g>
</g>
<!-- form_transfer_summary&#45;&gt;forms -->
<g id="edge48" class="edge">
<title>form_transfer_summary:w&#45;&gt;forms:e</title>
<path fill="none" stroke="#000000" d="M671.8434,-977.3837C635.8103,-937.8989 691.6205,-713.2742 636,-713.2742"/>
<polygon fill="#000000" stroke="#000000" points="677.6984,-980.0051 683.5289,-986.5599 681.3492,-981.6396 685,-983.2742 685,-983.2742 685,-983.2742 681.3492,-981.6396 686.4711,-979.9884 677.6984,-980.0051 677.6984,-980.0051"/>
<ellipse fill="none" stroke="#000000" cx="674.7778" cy="-978.6975" rx="3.2" ry="3.2"/>
</g>
<!-- form_transfer_summary&#45;&gt;patient_data -->
<g id="edge49" class="edge">
<title>form_transfer_summary:w&#45;&gt;patient_data:e</title>
<path fill="none" stroke="#000000" d="M670.3995,-983.3038C499.6954,-983.9665 413.8682,-994.2929 297,-863.2742 231.3744,-789.7025 354.5876,-645.2742 256,-645.2742"/>
<polygon fill="#000000" stroke="#000000" points="677,-983.2904 685.0073,-986.8742 681,-983.2823 685,-983.2742 685,-983.2742 685,-983.2742 681,-983.2823 684.9927,-979.6742 677,-983.2904 677,-983.2904"/>
<ellipse fill="none" stroke="#000000" cx="673.8" cy="-983.297" rx="3.2" ry="3.2"/>
</g>
<!-- form_treatment_plan -->
<g id="node20" class="node">
<title>form_treatment_plan</title>
<g id="a_node20"><a xlink:href="../../tables/form_treatment_plan.html" xlink:title="form_treatment_plan" target="_top">
<polygon fill="#ffffff" stroke="transparent" points="695,-100.7742 695,-161.7742 875,-161.7742 875,-100.7742 695,-100.7742"/>
<polygon fill="#f5f5f5" stroke="transparent" points="695,-138.2742 695,-161.2742 875,-161.2742 875,-138.2742 695,-138.2742"/>
<polygon fill="none" stroke="#000000" points="695,-138.2742 695,-161.2742 875,-161.2742 875,-138.2742 695,-138.2742"/>
<text text-anchor="start" x="700" y="-146.8742" font-family="Helvetica,sans-Serif" font-weight="bold" font-size="11.00" fill="#000000">form_treatment_plan</text>
<text text-anchor="start" x="840.5219" y="-146.3742" font-family="Helvetica,sans-Serif" font-size="11.00" fill="#000000">[table]</text>
<polygon fill="none" stroke="#000000" points="695,-119.2742 695,-138.2742 875,-138.2742 875,-119.2742 695,-119.2742"/>
<text text-anchor="start" x="698" y="-125.3742" font-family="Helvetica,sans-Serif" font-size="11.00" fill="#000000">...</text>
<polygon fill="#ffffff" stroke="transparent" points="695,-100.2742 695,-119.2742 783,-119.2742 783,-100.2742 695,-100.2742"/>
<polygon fill="none" stroke="#000000" points="695,-100.2742 695,-119.2742 783,-119.2742 783,-100.2742 695,-100.2742"/>
<text text-anchor="start" x="698" y="-106.3742" font-family="Helvetica,sans-Serif" font-size="11.00" fill="#000000">&lt; 4</text>
<polygon fill="#ffffff" stroke="transparent" points="783,-100.2742 783,-119.2742 829,-119.2742 829,-100.2742 783,-100.2742"/>
<polygon fill="none" stroke="#000000" points="783,-100.2742 783,-119.2742 829,-119.2742 829,-100.2742 783,-100.2742"/>
<text text-anchor="start" x="819.8862" y="-106.3742" font-family="Helvetica,sans-Serif" font-size="11.00" fill="#000000"> &#160;</text>
<polygon fill="#ffffff" stroke="transparent" points="829,-100.2742 829,-119.2742 875,-119.2742 875,-100.2742 829,-100.2742"/>
<polygon fill="none" stroke="#000000" points="829,-100.2742 829,-119.2742 875,-119.2742 875,-100.2742 829,-100.2742"/>
<text text-anchor="start" x="865.8862" y="-106.3742" font-family="Helvetica,sans-Serif" font-size="11.00" fill="#000000"> &#160;</text>
</a>
</g>
</g>
<!-- form_treatment_plan&#45;&gt;groups -->
<g id="edge50" class="edge">
<title>form_treatment_plan:w&#45;&gt;groups:e</title>
<path fill="none" stroke="#000000" d="M680.539,-128.3037C509.0605,-129.0327 451.3572,-143.7937 297,-232.2742 264.2818,-251.0289 274.7124,-292.2742 237,-292.2742"/>
<polygon fill="#000000" stroke="#000000" points="687,-128.2906 695.0074,-131.8742 691,-128.2824 695,-128.2742 695,-128.2742 695,-128.2742 691,-128.2824 694.9926,-124.6742 687,-128.2906 687,-128.2906"/>
<ellipse fill="none" stroke="#000000" cx="683.8" cy="-128.2971" rx="3.2" ry="3.2"/>
</g>
<!-- form_treatment_plan&#45;&gt;forms -->
<g id="edge51" class="edge">
<title>form_treatment_plan:w&#45;&gt;forms:e</title>
<path fill="none" stroke="#000000" d="M683.156,-136.5439C639.0701,-207.6476 696.7362,-713.2742 636,-713.2742"/>
<polygon fill="#000000" stroke="#000000" points="688.4407,-132.8541 697.061,-131.2259 691.7203,-130.5641 695,-128.2742 695,-128.2742 695,-128.2742 691.7203,-130.5641 692.939,-125.3225 688.4407,-132.8541 688.4407,-132.8541"/>
<ellipse fill="none" stroke="#000000" cx="685.8169" cy="-134.686" rx="3.2" ry="3.2"/>
</g>
<!-- form_treatment_plan&#45;&gt;users -->
<g id="edge53" class="edge">
<title>form_treatment_plan:w&#45;&gt;users:e</title>
<path fill="none" stroke="#000000" d="M680.2707,-128.0857C436.1324,-121.8433 307.9122,36.3265 124,-131.2742 66.4553,-183.7151 161.3553,-479.2742 83.5,-479.2742"/>
<polygon fill="#000000" stroke="#000000" points="687.0007,-128.1718 694.9539,-131.8739 691.0003,-128.223 695,-128.2742 695,-128.2742 695,-128.2742 691.0003,-128.223 695.0461,-124.6745 687.0007,-128.1718 687.0007,-128.1718"/>
<ellipse fill="none" stroke="#000000" cx="683.8009" cy="-128.1308" rx="3.2" ry="3.2"/>
</g>
<!-- form_treatment_plan&#45;&gt;patient_data -->
<g id="edge52" class="edge">
<title>form_treatment_plan:w&#45;&gt;patient_data:e</title>
<path fill="none" stroke="#000000" d="M680.2874,-130.4817C645.0263,-143.1772 676.6716,-207.7367 644,-248.2742 591.3798,-313.5629 535.6413,-286.9295 490,-357.2742 449.0573,-420.377 506.9608,-467.0408 457,-523.2742 407.3374,-579.1718 355.2541,-528.3981 297,-575.2742 268.9102,-597.8775 292.0548,-645.2742 256,-645.2742"/>
<polygon fill="#000000" stroke="#000000" points="687.0886,-129.4613 695.5342,-131.8343 691.0443,-128.8677 695,-128.2742 695,-128.2742 695,-128.2742 691.0443,-128.8677 694.4658,-124.714 687.0886,-129.4613 687.0886,-129.4613"/>
<ellipse fill="none" stroke="#000000" cx="683.924" cy="-129.9361" rx="3.2" ry="3.2"/>
</g>
</g>
</svg>
