<?xml version="1.0" encoding="UTF-8" standalone="no"?>
<!DOCTYPE svg PUBLIC "-//W3C//DTD SVG 1.1//EN"
 "http://www.w3.org/Graphics/SVG/1.1/DTD/svg11.dtd">
<!-- Generated by graphviz version 2.40.1 (20161225.0304)
 -->
<!-- Title: twoDegreesRelationshipsDiagram Pages: 1 -->
<svg width="1152pt" height="381pt"
 viewBox="0.00 0.00 1152.00 381.20" xmlns="http://www.w3.org/2000/svg" xmlns:xlink="http://www.w3.org/1999/xlink">
<g id="graph0" class="graph" transform="scale(1 1) rotate(0) translate(4 377.2)">
<title>twoDegreesRelationshipsDiagram</title>
<polygon fill="#ffffff" stroke="transparent" points="-4,4 -4,-377.2 1148,-377.2 1148,4 -4,4"/>
<text text-anchor="middle" x="72.4936" y="-7.3" font-family="Helvetica,sans-Serif" font-size="11.00" fill="#000000">Generated by SchemaSpy</text>
<!-- form_encounter -->
<g id="node1" class="node">
<title>form_encounter</title>
<g id="a_node1"><a xlink:href="../../tables/form_encounter.html" xlink:title="form_encounter" target="_top">
<polygon fill="#ffffff" stroke="transparent" points="345.5,-262.2 345.5,-323.2 490.5,-323.2 490.5,-262.2 345.5,-262.2"/>
<polygon fill="#f5f5f5" stroke="transparent" points="346,-299.7 346,-322.7 491,-322.7 491,-299.7 346,-299.7"/>
<polygon fill="none" stroke="#000000" points="346,-299.7 346,-322.7 491,-322.7 491,-299.7 346,-299.7"/>
<text text-anchor="start" x="351" y="-308.3" font-family="Helvetica,sans-Serif" font-weight="bold" font-size="11.00" fill="#000000">form_encounter</text>
<text text-anchor="start" x="456.5219" y="-307.8" font-family="Helvetica,sans-Serif" font-size="11.00" fill="#000000">[table]</text>
<polygon fill="none" stroke="#000000" points="346,-280.7 346,-299.7 491,-299.7 491,-280.7 346,-280.7"/>
<text text-anchor="start" x="349" y="-286.8" font-family="Helvetica,sans-Serif" font-size="11.00" fill="#000000">...</text>
<polygon fill="#ffffff" stroke="transparent" points="346,-261.7 346,-280.7 409,-280.7 409,-261.7 346,-261.7"/>
<polygon fill="none" stroke="#000000" points="346,-261.7 346,-280.7 409,-280.7 409,-261.7 346,-261.7"/>
<text text-anchor="start" x="349" y="-267.8" font-family="Helvetica,sans-Serif" font-size="11.00" fill="#000000">&lt; 1</text>
<polygon fill="#ffffff" stroke="transparent" points="409,-261.7 409,-280.7 442,-280.7 442,-261.7 409,-261.7"/>
<polygon fill="none" stroke="#000000" points="409,-261.7 409,-280.7 442,-280.7 442,-261.7 409,-261.7"/>
<text text-anchor="start" x="432.8862" y="-267.8" font-family="Helvetica,sans-Serif" font-size="11.00" fill="#000000"> &#160;</text>
<polygon fill="#ffffff" stroke="transparent" points="442,-261.7 442,-280.7 491,-280.7 491,-261.7 442,-261.7"/>
<polygon fill="none" stroke="#000000" points="442,-261.7 442,-280.7 491,-280.7 491,-261.7 442,-261.7"/>
<text text-anchor="start" x="466.2904" y="-267.8" font-family="Helvetica,sans-Serif" font-size="11.00" fill="#000000">19 &gt;</text>
</a>
</g>
</g>
<!-- patient_data -->
<g id="node2" class="node">
<title>patient_data</title>
<g id="a_node2"><a xlink:href="../../tables/patient_data.html" xlink:title="patient_data" target="_top">
<polygon fill="#ffffff" stroke="transparent" points="132,-169.2 132,-230.2 256,-230.2 256,-169.2 132,-169.2"/>
<polygon fill="#f5f5f5" stroke="transparent" points="132,-206.7 132,-229.7 256,-229.7 256,-206.7 132,-206.7"/>
<polygon fill="none" stroke="#000000" points="132,-206.7 132,-229.7 256,-229.7 256,-206.7 132,-206.7"/>
<text text-anchor="start" x="137" y="-215.3" font-family="Helvetica,sans-Serif" font-weight="bold" font-size="11.00" fill="#000000">patient_data</text>
<text text-anchor="start" x="221.5219" y="-214.8" font-family="Helvetica,sans-Serif" font-size="11.00" fill="#000000">[table]</text>
<polygon fill="none" stroke="#000000" points="132,-187.7 132,-206.7 256,-206.7 256,-187.7 132,-187.7"/>
<text text-anchor="start" x="135" y="-193.8" font-family="Helvetica,sans-Serif" font-size="11.00" fill="#000000">...</text>
<polygon fill="#ffffff" stroke="transparent" points="132,-168.7 132,-187.7 185,-187.7 185,-168.7 132,-168.7"/>
<polygon fill="none" stroke="#000000" points="132,-168.7 132,-187.7 185,-187.7 185,-168.7 132,-168.7"/>
<text text-anchor="start" x="135" y="-174.8" font-family="Helvetica,sans-Serif" font-size="11.00" fill="#000000">&lt; 9</text>
<polygon fill="#ffffff" stroke="transparent" points="185,-168.7 185,-187.7 213,-187.7 213,-168.7 185,-168.7"/>
<polygon fill="none" stroke="#000000" points="185,-168.7 185,-187.7 213,-187.7 213,-168.7 185,-168.7"/>
<text text-anchor="start" x="203.8862" y="-174.8" font-family="Helvetica,sans-Serif" font-size="11.00" fill="#000000"> &#160;</text>
<polygon fill="#ffffff" stroke="transparent" points="213,-168.7 213,-187.7 256,-187.7 256,-168.7 213,-168.7"/>
<polygon fill="none" stroke="#000000" points="213,-168.7 213,-187.7 256,-187.7 256,-168.7 213,-168.7"/>
<text text-anchor="start" x="231.2904" y="-174.8" font-family="Helvetica,sans-Serif" font-size="11.00" fill="#000000">95 &gt;</text>
</a>
</g>
</g>
<!-- form_encounter&#45;&gt;patient_data -->
<g id="edge1" class="edge">
<title>form_encounter:w&#45;&gt;patient_data:e</title>
<path fill="none" stroke="#000000" d="M331.5311,-287.1526C316.2372,-280.748 313.0509,-263.2971 297,-246.7 277.0219,-226.0421 284.7381,-196.7 256,-196.7"/>
<polygon fill="#000000" stroke="#000000" points="338.1212,-288.3128 345.3758,-293.2455 342.0606,-289.0064 346,-289.7 346,-289.7 346,-289.7 342.0606,-289.0064 346.6242,-286.1545 338.1212,-288.3128 338.1212,-288.3128"/>
<ellipse fill="none" stroke="#000000" cx="334.9696" cy="-287.7579" rx="3.2" ry="3.2"/>
</g>
<!-- users -->
<g id="node5" class="node">
<title>users</title>
<g id="a_node5"><a xlink:href="../../tables/users.html" xlink:title="users" target="_top">
<polygon fill="#ffffff" stroke="transparent" points="8,-169.2 8,-230.2 83,-230.2 83,-169.2 8,-169.2"/>
<polygon fill="#f5f5f5" stroke="transparent" points="8.5,-206.7 8.5,-229.7 83.5,-229.7 83.5,-206.7 8.5,-206.7"/>
<polygon fill="none" stroke="#000000" points="8.5,-206.7 8.5,-229.7 83.5,-229.7 83.5,-206.7 8.5,-206.7"/>
<text text-anchor="start" x="13.5" y="-215.3" font-family="Helvetica,sans-Serif" font-weight="bold" font-size="11.00" fill="#000000">users</text>
<text text-anchor="start" x="49.0219" y="-214.8" font-family="Helvetica,sans-Serif" font-size="11.00" fill="#000000">[table]</text>
<polygon fill="none" stroke="#000000" points="8.5,-187.7 8.5,-206.7 83.5,-206.7 83.5,-187.7 8.5,-187.7"/>
<text text-anchor="start" x="11.5" y="-193.8" font-family="Helvetica,sans-Serif" font-size="11.00" fill="#000000">...</text>
<polygon fill="#ffffff" stroke="transparent" points="8.5,-168.7 8.5,-187.7 36.5,-187.7 36.5,-168.7 8.5,-168.7"/>
<polygon fill="none" stroke="#000000" points="8.5,-168.7 8.5,-187.7 36.5,-187.7 36.5,-168.7 8.5,-168.7"/>
<text text-anchor="start" x="11.5" y="-174.8" font-family="Helvetica,sans-Serif" font-size="11.00" fill="#000000">&lt; 2</text>
<polygon fill="#ffffff" stroke="transparent" points="36.5,-168.7 36.5,-187.7 52.5,-187.7 52.5,-168.7 36.5,-168.7"/>
<polygon fill="none" stroke="#000000" points="36.5,-168.7 36.5,-187.7 52.5,-187.7 52.5,-168.7 36.5,-168.7"/>
<text text-anchor="start" x="43.3862" y="-174.8" font-family="Helvetica,sans-Serif" font-size="11.00" fill="#000000"> &#160;</text>
<polygon fill="#ffffff" stroke="transparent" points="52.5,-168.7 52.5,-187.7 83.5,-187.7 83.5,-168.7 52.5,-168.7"/>
<polygon fill="none" stroke="#000000" points="52.5,-168.7 52.5,-187.7 83.5,-187.7 83.5,-168.7 52.5,-168.7"/>
<text text-anchor="start" x="58.7904" y="-174.8" font-family="Helvetica,sans-Serif" font-size="11.00" fill="#000000">90 &gt;</text>
</a>
</g>
</g>
<!-- patient_data&#45;&gt;users -->
<g id="edge12" class="edge">
<title>patient_data:w&#45;&gt;users:e</title>
<path fill="none" stroke="#000000" d="M122.154,-185.5979C108.1144,-171.4681 101.3507,-175.1688 83.5,-196.7"/>
<polygon fill="#000000" stroke="#000000" points="126.6918,-190.7147 129.3066,-199.0887 129.3459,-193.7073 132,-196.7 132,-196.7 132,-196.7 129.3459,-193.7073 134.6934,-194.3113 126.6918,-190.7147 126.6918,-190.7147"/>
<ellipse fill="none" stroke="#000000" cx="124.5686" cy="-188.3206" rx="3.2" ry="3.2"/>
</g>
<!-- patient_data&#45;&gt;users -->
<g id="edge13" class="edge">
<title>patient_data:w&#45;&gt;users:e</title>
<path fill="none" stroke="#000000" d="M119.0917,-189.7017C107.0303,-184.4141 100.0035,-186.7469 83.5,-196.7"/>
<polygon fill="#000000" stroke="#000000" points="124.9671,-192.8871 130.2842,-199.8648 128.4835,-194.7935 132,-196.7 132,-196.7 132,-196.7 128.4835,-194.7935 133.7158,-193.5352 124.9671,-192.8871 124.9671,-192.8871"/>
<ellipse fill="none" stroke="#000000" cx="122.1539" cy="-191.3619" rx="3.2" ry="3.2"/>
</g>
<!-- patient_data&#45;&gt;users -->
<g id="edge14" class="edge">
<title>patient_data:w&#45;&gt;users:e</title>
<path fill="none" stroke="#000000" d="M117.2829,-196.7C106.2886,-196.7 99.1615,-196.7 83.5,-196.7"/>
<polygon fill="#000000" stroke="#000000" points="124,-196.7001 132,-200.3 128,-196.7 132,-196.7 132,-196.7 132,-196.7 128,-196.7 132,-193.1 124,-196.7001 124,-196.7001"/>
<ellipse fill="none" stroke="#000000" cx="120.8" cy="-196.7001" rx="3.2" ry="3.2"/>
</g>
<!-- patient_data&#45;&gt;users -->
<g id="edge15" class="edge">
<title>patient_data:w&#45;&gt;users:e</title>
<path fill="none" stroke="#000000" d="M119.0917,-203.6983C107.0303,-208.9859 100.0035,-206.6531 83.5,-196.7"/>
<polygon fill="#000000" stroke="#000000" points="124.9671,-200.5129 133.7158,-199.8648 128.4835,-198.6065 132,-196.7 132,-196.7 132,-196.7 128.4835,-198.6065 130.2842,-193.5352 124.9671,-200.5129 124.9671,-200.5129"/>
<ellipse fill="none" stroke="#000000" cx="122.1539" cy="-202.0381" rx="3.2" ry="3.2"/>
</g>
<!-- patient_data&#45;&gt;users -->
<g id="edge16" class="edge">
<title>patient_data:w&#45;&gt;users:e</title>
<path fill="none" stroke="#000000" d="M122.154,-207.8021C108.1144,-221.9319 101.3507,-218.2313 83.5,-196.7"/>
<polygon fill="#000000" stroke="#000000" points="126.6918,-202.6853 134.6934,-199.0887 129.3459,-199.6927 132,-196.7 132,-196.7 132,-196.7 129.3459,-199.6927 129.3066,-194.3113 126.6918,-202.6853 126.6918,-202.6853"/>
<ellipse fill="none" stroke="#000000" cx="124.5686" cy="-205.0794" rx="3.2" ry="3.2"/>
</g>
<!-- form_vitals -->
<g id="node3" class="node">
<title>form_vitals</title>
<g id="a_node3"><a xlink:href="../../tables/form_vitals.html" xlink:title="form_vitals" target="_top">
<polygon fill="#ffffff" stroke="transparent" points="305,-38.2 305,-209.2 531,-209.2 531,-38.2 305,-38.2"/>
<polygon fill="#f5f5f5" stroke="transparent" points="305,-185.7 305,-208.7 531,-208.7 531,-185.7 305,-185.7"/>
<polygon fill="none" stroke="#000000" points="305,-185.7 305,-208.7 531,-208.7 531,-185.7 305,-185.7"/>
<text text-anchor="start" x="310" y="-194.3" font-family="Helvetica,sans-Serif" font-weight="bold" font-size="11.00" fill="#000000">form_vitals</text>
<text text-anchor="start" x="496.0437" y="-193.8" font-family="Helvetica,sans-Serif" font-size="11.00" fill="#000000">[table]</text>
<polygon fill="none" stroke="#000000" points="305,-163.7 305,-185.7 531,-185.7 531,-163.7 305,-163.7"/>
<image xlink:href="../../images/primaryKeys.png" width="11px" height="12px" preserveAspectRatio="xMinYMin meet" x="310" y="-180.7"/>
<text text-anchor="start" x="325" y="-170.8" font-family="Helvetica,sans-Serif" font-size="11.00" fill="#000000">id</text>
<polygon fill="#ffffff" stroke="transparent" points="305,-141.7 305,-163.7 531,-163.7 531,-141.7 305,-141.7"/>
<polygon fill="none" stroke="#000000" points="305,-141.7 305,-163.7 531,-163.7 531,-141.7 305,-141.7"/>
<text text-anchor="start" x="325" y="-148.8" font-family="Helvetica,sans-Serif" font-size="11.00" fill="#000000">uuid</text>
<polygon fill="#ffffff" stroke="transparent" points="305,-119.7 305,-141.7 531,-141.7 531,-119.7 305,-119.7"/>
<polygon fill="none" stroke="#000000" points="305,-119.7 305,-141.7 531,-141.7 531,-119.7 305,-119.7"/>
<image xlink:href="../../images/foreignKeys.png" width="11px" height="12px" preserveAspectRatio="xMinYMin meet" x="310" y="-136.7"/>
<text text-anchor="start" x="325" y="-126.8" font-family="Helvetica,sans-Serif" font-size="11.00" fill="#000000">pid</text>
<polygon fill="none" stroke="#000000" points="305,-97.7 305,-119.7 531,-119.7 531,-97.7 305,-97.7"/>
<image xlink:href="../../images/foreignKeys.png" width="11px" height="12px" preserveAspectRatio="xMinYMin meet" x="310" y="-114.7"/>
<text text-anchor="start" x="325" y="-104.8" font-family="Helvetica,sans-Serif" font-size="11.00" fill="#000000">user</text>
<polygon fill="none" stroke="#000000" points="305,-75.7 305,-97.7 531,-97.7 531,-75.7 305,-75.7"/>
<image xlink:href="../../images/foreignKeys.png" width="11px" height="12px" preserveAspectRatio="xMinYMin meet" x="310" y="-92.7"/>
<text text-anchor="start" x="325" y="-82.8" font-family="Helvetica,sans-Serif" font-size="11.00" fill="#000000">groupname</text>
<polygon fill="none" stroke="#000000" points="305,-56.7 305,-75.7 531,-75.7 531,-56.7 305,-56.7"/>
<text text-anchor="start" x="308" y="-62.8" font-family="Helvetica,sans-Serif" font-size="11.00" fill="#000000">...</text>
<polygon fill="#ffffff" stroke="transparent" points="305,-37.7 305,-56.7 412,-56.7 412,-37.7 305,-37.7"/>
<polygon fill="none" stroke="#000000" points="305,-37.7 305,-56.7 412,-56.7 412,-37.7 305,-37.7"/>
<text text-anchor="start" x="308" y="-43.8" font-family="Helvetica,sans-Serif" font-size="11.00" fill="#000000">&lt; 3</text>
<polygon fill="#ffffff" stroke="transparent" points="412,-37.7 412,-56.7 467,-56.7 467,-37.7 412,-37.7"/>
<polygon fill="none" stroke="#000000" points="412,-37.7 412,-56.7 467,-56.7 467,-37.7 412,-37.7"/>
<text text-anchor="start" x="457.8862" y="-43.8" font-family="Helvetica,sans-Serif" font-size="11.00" fill="#000000"> &#160;</text>
<polygon fill="#ffffff" stroke="transparent" points="467,-37.7 467,-56.7 531,-56.7 531,-37.7 467,-37.7"/>
<polygon fill="none" stroke="#000000" points="467,-37.7 467,-56.7 531,-56.7 531,-37.7 467,-37.7"/>
<text text-anchor="start" x="512.4053" y="-43.8" font-family="Helvetica,sans-Serif" font-size="11.00" fill="#000000">2 &gt;</text>
</a>
</g>
</g>
<!-- form_vitals&#45;&gt;patient_data -->
<g id="edge3" class="edge">
<title>form_vitals:w&#45;&gt;patient_data:e</title>
<path fill="none" stroke="#000000" d="M291.3768,-135.4466C274.7322,-150.5798 286.5399,-196.7 256,-196.7"/>
<polygon fill="#000000" stroke="#000000" points="297.4454,-133.3322 306.1845,-134.0996 301.2227,-132.0161 305,-130.7 305,-130.7 305,-130.7 301.2227,-132.0161 303.8155,-127.3004 297.4454,-133.3322 297.4454,-133.3322"/>
<ellipse fill="none" stroke="#000000" cx="294.4236" cy="-134.3851" rx="3.2" ry="3.2"/>
</g>
<!-- groups -->
<g id="node4" class="node">
<title>groups</title>
<g id="a_node4"><a xlink:href="../../tables/groups.html" xlink:title="groups" target="_top">
<polygon fill="#ffffff" stroke="transparent" points="151,-59.2 151,-120.2 237,-120.2 237,-59.2 151,-59.2"/>
<polygon fill="#f5f5f5" stroke="transparent" points="151,-96.7 151,-119.7 237,-119.7 237,-96.7 151,-96.7"/>
<polygon fill="none" stroke="#000000" points="151,-96.7 151,-119.7 237,-119.7 237,-96.7 151,-96.7"/>
<text text-anchor="start" x="156" y="-105.3" font-family="Helvetica,sans-Serif" font-weight="bold" font-size="11.00" fill="#000000">groups</text>
<text text-anchor="start" x="202.5219" y="-104.8" font-family="Helvetica,sans-Serif" font-size="11.00" fill="#000000">[table]</text>
<polygon fill="none" stroke="#000000" points="151,-77.7 151,-96.7 237,-96.7 237,-77.7 151,-77.7"/>
<text text-anchor="start" x="154" y="-83.8" font-family="Helvetica,sans-Serif" font-size="11.00" fill="#000000">...</text>
<polygon fill="#ffffff" stroke="transparent" points="151,-58.7 151,-77.7 185,-77.7 185,-58.7 151,-58.7"/>
<polygon fill="none" stroke="#000000" points="151,-58.7 151,-77.7 185,-77.7 185,-58.7 151,-58.7"/>
<text text-anchor="start" x="154" y="-64.8" font-family="Helvetica,sans-Serif" font-size="11.00" fill="#000000">&lt; 1</text>
<polygon fill="#ffffff" stroke="transparent" points="185,-58.7 185,-77.7 203,-77.7 203,-58.7 185,-58.7"/>
<polygon fill="none" stroke="#000000" points="185,-58.7 185,-77.7 203,-77.7 203,-58.7 185,-58.7"/>
<text text-anchor="start" x="193.8862" y="-64.8" font-family="Helvetica,sans-Serif" font-size="11.00" fill="#000000"> &#160;</text>
<polygon fill="#ffffff" stroke="transparent" points="203,-58.7 203,-77.7 237,-77.7 237,-58.7 203,-58.7"/>
<polygon fill="none" stroke="#000000" points="203,-58.7 203,-77.7 237,-77.7 237,-58.7 203,-58.7"/>
<text text-anchor="start" x="212.2904" y="-64.8" font-family="Helvetica,sans-Serif" font-size="11.00" fill="#000000">17 &gt;</text>
</a>
</g>
</g>
<!-- form_vitals&#45;&gt;groups -->
<g id="edge2" class="edge">
<title>form_vitals:w&#45;&gt;groups:e</title>
<path fill="none" stroke="#000000" d="M290.3657,-86.7C271.2395,-86.7 261.6736,-86.7 237,-86.7"/>
<polygon fill="#000000" stroke="#000000" points="297,-86.7001 305,-90.3 301,-86.7 305,-86.7 305,-86.7 305,-86.7 301,-86.7 305,-83.1 297,-86.7001 297,-86.7001"/>
<ellipse fill="none" stroke="#000000" cx="293.8" cy="-86.7001" rx="3.2" ry="3.2"/>
</g>
<!-- form_vitals&#45;&gt;users -->
<g id="edge4" class="edge">
<title>form_vitals:w&#45;&gt;users:e</title>
<path fill="none" stroke="#000000" d="M290.8175,-112.0656C282.1709,-116.9042 277.684,-125.7833 264,-130.7 204.2833,-152.1565 180.4157,-129.6528 124,-158.7 102.0553,-169.9988 108.1827,-196.7 83.5,-196.7"/>
<polygon fill="#000000" stroke="#000000" points="297.2162,-110.5472 305.8312,-112.2027 301.1081,-109.6236 305,-108.7 305,-108.7 305,-108.7 301.1081,-109.6236 304.1688,-105.1973 297.2162,-110.5472 297.2162,-110.5472"/>
<ellipse fill="none" stroke="#000000" cx="294.1026" cy="-111.2861" rx="3.2" ry="3.2"/>
</g>
<!-- groups&#45;&gt;users -->
<g id="edge10" class="edge">
<title>groups:w&#45;&gt;users:e</title>
<path fill="none" stroke="#000000" d="M136.5403,-89.8735C102.1531,-107.9091 135.034,-196.7 83.5,-196.7"/>
<polygon fill="#000000" stroke="#000000" points="143.186,-88.415 151.7717,-90.2163 147.093,-87.5575 151,-86.7 151,-86.7 151,-86.7 147.093,-87.5575 150.2283,-83.1837 143.186,-88.415 143.186,-88.415"/>
<ellipse fill="none" stroke="#000000" cx="140.0604" cy="-89.101" rx="3.2" ry="3.2"/>
</g>
<!-- form_vitals_calculation -->
<g id="node6" class="node">
<title>form_vitals_calculation</title>
<g id="a_node6"><a xlink:href="../../tables/form_vitals_calculation.html" xlink:title="form_vitals_calculation" target="_top">
<polygon fill="#ffffff" stroke="transparent" points="580,-198.2 580,-369.2 773,-369.2 773,-198.2 580,-198.2"/>
<polygon fill="#f5f5f5" stroke="transparent" points="580.5,-345.7 580.5,-368.7 773.5,-368.7 773.5,-345.7 580.5,-345.7"/>
<polygon fill="none" stroke="#000000" points="580.5,-345.7 580.5,-368.7 773.5,-368.7 773.5,-345.7 580.5,-345.7"/>
<text text-anchor="start" x="585.5" y="-354.3" font-family="Helvetica,sans-Serif" font-weight="bold" font-size="11.00" fill="#000000">form_vitals_calculation</text>
<text text-anchor="start" x="739.0219" y="-353.8" font-family="Helvetica,sans-Serif" font-size="11.00" fill="#000000">[table]</text>
<polygon fill="none" stroke="#000000" points="580.5,-323.7 580.5,-345.7 773.5,-345.7 773.5,-323.7 580.5,-323.7"/>
<image xlink:href="../../images/primaryKeys.png" width="11px" height="12px" preserveAspectRatio="xMinYMin meet" x="585.5" y="-340.7"/>
<text text-anchor="start" x="609.5" y="-330.8" font-family="Helvetica,sans-Serif" font-size="11.00" fill="#000000">id</text>
<polygon fill="none" stroke="#000000" points="580.5,-301.7 580.5,-323.7 773.5,-323.7 773.5,-301.7 580.5,-301.7"/>
<image xlink:href="../../images/primaryKeys.png" width="11px" height="12px" preserveAspectRatio="xMinYMin meet" x="585.5" y="-318.7"/>
<text text-anchor="start" x="609.5" y="-308.8" font-family="Helvetica,sans-Serif" font-size="11.00" fill="#000000">uuid</text>
<polygon fill="#ffffff" stroke="transparent" points="580.5,-279.7 580.5,-301.7 773.5,-301.7 773.5,-279.7 580.5,-279.7"/>
<polygon fill="none" stroke="#000000" points="580.5,-279.7 580.5,-301.7 773.5,-301.7 773.5,-279.7 580.5,-279.7"/>
<image xlink:href="../../images/foreignKeys.png" width="11px" height="12px" preserveAspectRatio="xMinYMin meet" x="585.5" y="-296.7"/>
<text text-anchor="start" x="609.5" y="-286.8" font-family="Helvetica,sans-Serif" font-size="11.00" fill="#000000">encounter</text>
<polygon fill="#ffffff" stroke="transparent" points="580.5,-257.7 580.5,-279.7 773.5,-279.7 773.5,-257.7 580.5,-257.7"/>
<polygon fill="none" stroke="#000000" points="580.5,-257.7 580.5,-279.7 773.5,-279.7 773.5,-257.7 580.5,-257.7"/>
<image xlink:href="../../images/foreignKeys.png" width="11px" height="12px" preserveAspectRatio="xMinYMin meet" x="585.5" y="-274.7"/>
<text text-anchor="start" x="609.5" y="-264.8" font-family="Helvetica,sans-Serif" font-size="11.00" fill="#000000">pid</text>
<polygon fill="#ffffff" stroke="transparent" points="580.5,-235.7 580.5,-257.7 773.5,-257.7 773.5,-235.7 580.5,-235.7"/>
<polygon fill="none" stroke="#000000" points="580.5,-235.7 580.5,-257.7 773.5,-257.7 773.5,-235.7 580.5,-235.7"/>
<text text-anchor="start" x="609.5" y="-242.8" font-family="Helvetica,sans-Serif" font-size="11.00" fill="#000000">calculation_id</text>
<polygon fill="none" stroke="#000000" points="580.5,-216.7 580.5,-235.7 773.5,-235.7 773.5,-216.7 580.5,-216.7"/>
<text text-anchor="start" x="583.5" y="-222.8" font-family="Helvetica,sans-Serif" font-size="11.00" fill="#000000">...</text>
<polygon fill="#ffffff" stroke="transparent" points="580.5,-197.7 580.5,-216.7 670.5,-216.7 670.5,-197.7 580.5,-197.7"/>
<polygon fill="none" stroke="#000000" points="580.5,-197.7 580.5,-216.7 670.5,-216.7 670.5,-197.7 580.5,-197.7"/>
<text text-anchor="start" x="583.5" y="-203.8" font-family="Helvetica,sans-Serif" font-size="11.00" fill="#000000">&lt; 2</text>
<polygon fill="#ffffff" stroke="transparent" points="670.5,-197.7 670.5,-216.7 717.5,-216.7 717.5,-197.7 670.5,-197.7"/>
<polygon fill="none" stroke="#000000" points="670.5,-197.7 670.5,-216.7 717.5,-216.7 717.5,-197.7 670.5,-197.7"/>
<text text-anchor="start" x="708.3862" y="-203.8" font-family="Helvetica,sans-Serif" font-size="11.00" fill="#000000"> &#160;</text>
<polygon fill="#ffffff" stroke="transparent" points="717.5,-197.7 717.5,-216.7 773.5,-216.7 773.5,-197.7 717.5,-197.7"/>
<polygon fill="none" stroke="#000000" points="717.5,-197.7 717.5,-216.7 773.5,-216.7 773.5,-197.7 717.5,-197.7"/>
<text text-anchor="start" x="754.9053" y="-203.8" font-family="Helvetica,sans-Serif" font-size="11.00" fill="#000000">2 &gt;</text>
</a>
</g>
</g>
<!-- form_vitals_calculation&#45;&gt;form_encounter -->
<g id="edge5" class="edge">
<title>form_vitals_calculation:w&#45;&gt;form_encounter:e</title>
<path fill="none" stroke="#000000" d="M566.0893,-290.6518C537.5532,-290.452 525.4969,-289.7 491,-289.7"/>
<polygon fill="#000000" stroke="#000000" points="572.5,-290.6732 580.4879,-294.3 576.5,-290.6866 580.5,-290.7 580.5,-290.7 580.5,-290.7 576.5,-290.6866 580.5121,-287.1 572.5,-290.6732 572.5,-290.6732"/>
<ellipse fill="none" stroke="#000000" cx="569.3001" cy="-290.6624" rx="3.2" ry="3.2"/>
</g>
<!-- form_vitals_calculation&#45;&gt;patient_data -->
<g id="edge6" class="edge">
<title>form_vitals_calculation:w&#45;&gt;patient_data:e</title>
<path fill="none" stroke="#000000" d="M566.2115,-265.9199C557.5884,-262.091 552.3927,-255.2646 539,-251.7 434.1582,-223.7954 399.9381,-253.9669 297,-219.7 277.1759,-213.1008 276.8936,-196.7 256,-196.7"/>
<polygon fill="#000000" stroke="#000000" points="572.6473,-267.1721 579.8124,-272.2337 576.5736,-267.936 580.5,-268.7 580.5,-268.7 580.5,-268.7 576.5736,-267.936 581.1876,-265.1663 572.6473,-267.1721 572.6473,-267.1721"/>
<ellipse fill="none" stroke="#000000" cx="569.5062" cy="-266.5609" rx="3.2" ry="3.2"/>
</g>
<!-- form_vitals_calculation_components -->
<g id="node7" class="node">
<title>form_vitals_calculation_components</title>
<g id="a_node7"><a xlink:href="../../tables/form_vitals_calculation_components.html" xlink:title="form_vitals_calculation_components" target="_top">
<polygon fill="#ffffff" stroke="transparent" points="838,-285.2 838,-346.2 1120,-346.2 1120,-285.2 838,-285.2"/>
<polygon fill="#f5f5f5" stroke="transparent" points="838,-322.7 838,-345.7 1120,-345.7 1120,-322.7 838,-322.7"/>
<polygon fill="none" stroke="#000000" points="838,-322.7 838,-345.7 1120,-345.7 1120,-322.7 838,-322.7"/>
<text text-anchor="start" x="843" y="-331.3" font-family="Helvetica,sans-Serif" font-weight="bold" font-size="11.00" fill="#000000">form_vitals_calculation_components</text>
<text text-anchor="start" x="1085.5219" y="-330.8" font-family="Helvetica,sans-Serif" font-size="11.00" fill="#000000">[table]</text>
<polygon fill="none" stroke="#000000" points="838,-303.7 838,-322.7 1120,-322.7 1120,-303.7 838,-303.7"/>
<text text-anchor="start" x="841" y="-309.8" font-family="Helvetica,sans-Serif" font-size="11.00" fill="#000000">...</text>
<polygon fill="#ffffff" stroke="transparent" points="838,-284.7 838,-303.7 977,-303.7 977,-284.7 838,-284.7"/>
<polygon fill="none" stroke="#000000" points="838,-284.7 838,-303.7 977,-303.7 977,-284.7 838,-284.7"/>
<text text-anchor="start" x="841" y="-290.8" font-family="Helvetica,sans-Serif" font-size="11.00" fill="#000000">&lt; 1</text>
<polygon fill="#ffffff" stroke="transparent" points="977,-284.7 977,-303.7 1048,-303.7 1048,-284.7 977,-284.7"/>
<polygon fill="none" stroke="#000000" points="977,-284.7 977,-303.7 1048,-303.7 1048,-284.7 977,-284.7"/>
<text text-anchor="start" x="1038.8862" y="-290.8" font-family="Helvetica,sans-Serif" font-size="11.00" fill="#000000"> &#160;</text>
<polygon fill="#ffffff" stroke="transparent" points="1048,-284.7 1048,-303.7 1120,-303.7 1120,-284.7 1048,-284.7"/>
<polygon fill="none" stroke="#000000" points="1048,-284.7 1048,-303.7 1120,-303.7 1120,-284.7 1048,-284.7"/>
<text text-anchor="start" x="1110.8862" y="-290.8" font-family="Helvetica,sans-Serif" font-size="11.00" fill="#000000"> &#160;</text>
</a>
</g>
</g>
<!-- form_vitals_calculation_components&#45;&gt;form_vitals_calculation -->
<g id="edge7" class="edge">
<title>form_vitals_calculation_components:w&#45;&gt;form_vitals_calculation:e</title>
<path fill="none" stroke="#000000" d="M823.3432,-312.7C805.7137,-312.7 796.5677,-312.7 773.5,-312.7"/>
<polygon fill="#000000" stroke="#000000" points="830,-312.7001 838,-316.3 834,-312.7 838,-312.7 838,-312.7 838,-312.7 834,-312.7 838,-309.1 830,-312.7001 830,-312.7001"/>
<ellipse fill="none" stroke="#000000" cx="826.8" cy="-312.7001" rx="3.2" ry="3.2"/>
</g>
<!-- form_vitals_calculation_form_vitals -->
<g id="node8" class="node">
<title>form_vitals_calculation_form_vitals</title>
<g id="a_node8"><a xlink:href="../../tables/form_vitals_calculation_form_vitals.html" xlink:title="form_vitals_calculation_form_vitals" target="_top">
<polygon fill="#ffffff" stroke="transparent" points="822,-157.7 822,-247.7 1136,-247.7 1136,-157.7 822,-157.7"/>
<polygon fill="#f5f5f5" stroke="transparent" points="824,-222.7 824,-245.7 1134,-245.7 1134,-222.7 824,-222.7"/>
<polygon fill="none" stroke="#000000" points="824,-222.7 824,-245.7 1134,-245.7 1134,-222.7 824,-222.7"/>
<text text-anchor="start" x="829" y="-231.3" font-family="Helvetica,sans-Serif" font-weight="bold" font-size="11.00" fill="#000000">form_vitals_calculation_form_vitals</text>
<text text-anchor="start" x="1099.0437" y="-230.8" font-family="Helvetica,sans-Serif" font-size="11.00" fill="#000000">[table]</text>
<polygon fill="none" stroke="#000000" points="824,-200.7 824,-222.7 1080,-222.7 1080,-200.7 824,-200.7"/>
<image xlink:href="../../images/primaryKeys.png" width="11px" height="12px" preserveAspectRatio="xMinYMin meet" x="829" y="-217.7"/>
<text text-anchor="start" x="844" y="-207.8" font-family="Helvetica,sans-Serif" font-size="11.00" fill="#000000">fvc_uuid</text>
<polygon fill="none" stroke="#000000" points="1080,-200.7 1080,-222.7 1134,-222.7 1134,-200.7 1080,-200.7"/>
<text text-anchor="start" x="1082.8545" y="-208.4" font-family="Helvetica,sans-Serif" font-size="11.00" fill="#000000">binary[16]</text>
<polygon fill="none" stroke="#000000" points="824,-178.7 824,-200.7 1080,-200.7 1080,-178.7 824,-178.7"/>
<image xlink:href="../../images/primaryKeys.png" width="11px" height="12px" preserveAspectRatio="xMinYMin meet" x="829" y="-195.7"/>
<text text-anchor="start" x="844" y="-185.8" font-family="Helvetica,sans-Serif" font-size="11.00" fill="#000000">vitals_id</text>
<polygon fill="none" stroke="#000000" points="1080,-178.7 1080,-200.7 1134,-200.7 1134,-178.7 1080,-178.7"/>
<text text-anchor="start" x="1083" y="-186.4" font-family="Helvetica,sans-Serif" font-size="11.00" fill="#000000">bigint[19]</text>
<polygon fill="#ffffff" stroke="transparent" points="824,-159.7 824,-178.7 956,-178.7 956,-159.7 824,-159.7"/>
<polygon fill="none" stroke="#000000" points="824,-159.7 824,-178.7 956,-178.7 956,-159.7 824,-159.7"/>
<text text-anchor="start" x="827" y="-165.8" font-family="Helvetica,sans-Serif" font-size="11.00" fill="#000000">&lt; 2</text>
<polygon fill="#ffffff" stroke="transparent" points="956,-159.7 956,-178.7 1080,-178.7 1080,-159.7 956,-159.7"/>
<polygon fill="none" stroke="#000000" points="956,-159.7 956,-178.7 1080,-178.7 1080,-159.7 956,-159.7"/>
<text text-anchor="start" x="1070.8862" y="-165.8" font-family="Helvetica,sans-Serif" font-size="11.00" fill="#000000"> &#160;</text>
<polygon fill="#ffffff" stroke="transparent" points="1080,-159.7 1080,-178.7 1134,-178.7 1134,-159.7 1080,-159.7"/>
<polygon fill="none" stroke="#000000" points="1080,-159.7 1080,-178.7 1134,-178.7 1134,-159.7 1080,-159.7"/>
<text text-anchor="start" x="1115.4053" y="-165.8" font-family="Helvetica,sans-Serif" font-size="11.00" fill="#000000">0 &gt;</text>
<polygon fill="none" stroke="#000000" stroke-width="2" points="823,-158.7 823,-246.7 1135,-246.7 1135,-158.7 823,-158.7"/>
</a>
</g>
</g>
<!-- form_vitals_calculation_form_vitals&#45;&gt;form_vitals -->
<g id="edge9" class="edge">
<title>form_vitals_calculation_form_vitals:w&#45;&gt;form_vitals:e</title>
<path fill="none" stroke="#000000" d="M809.4046,-189.0555C750.8713,-186.1844 538.1309,-174.7 531,-174.7"/>
<polygon fill="#000000" stroke="#000000" points="816.0078,-189.347 823.8412,-193.2965 820.0039,-189.5235 824,-189.7 824,-189.7 824,-189.7 820.0039,-189.5235 824.1588,-186.1035 816.0078,-189.347 816.0078,-189.347"/>
<ellipse fill="none" stroke="#000000" cx="812.8109" cy="-189.2058" rx="3.2" ry="3.2"/>
</g>
<!-- form_vitals_calculation_form_vitals&#45;&gt;form_vitals_calculation -->
<g id="edge8" class="edge">
<title>form_vitals_calculation_form_vitals:w&#45;&gt;form_vitals_calculation:e</title>
<path fill="none" stroke="#000000" d="M809.8144,-215.7844C784.4244,-234.6799 817.6099,-312.7 773.5,-312.7"/>
<polygon fill="#000000" stroke="#000000" points="816.3123,-213.9135 824.9961,-215.1595 820.1562,-212.8068 824,-211.7 824,-211.7 824,-211.7 820.1562,-212.8068 823.0039,-208.2405 816.3123,-213.9135 816.3123,-213.9135"/>
<ellipse fill="none" stroke="#000000" cx="813.2372" cy="-214.7989" rx="3.2" ry="3.2"/>
</g>
<!-- form_vital_details -->
<g id="node9" class="node">
<title>form_vital_details</title>
<g id="a_node9"><a xlink:href="../../tables/form_vital_details.html" xlink:title="form_vital_details" target="_top">
<polygon fill="#ffffff" stroke="transparent" points="597.5,-88.2 597.5,-149.2 755.5,-149.2 755.5,-88.2 597.5,-88.2"/>
<polygon fill="#f5f5f5" stroke="transparent" points="597.5,-125.7 597.5,-148.7 755.5,-148.7 755.5,-125.7 597.5,-125.7"/>
<polygon fill="none" stroke="#000000" points="597.5,-125.7 597.5,-148.7 755.5,-148.7 755.5,-125.7 597.5,-125.7"/>
<text text-anchor="start" x="602.5" y="-134.3" font-family="Helvetica,sans-Serif" font-weight="bold" font-size="11.00" fill="#000000">form_vital_details</text>
<text text-anchor="start" x="721.0219" y="-133.8" font-family="Helvetica,sans-Serif" font-size="11.00" fill="#000000">[table]</text>
<polygon fill="none" stroke="#000000" points="597.5,-106.7 597.5,-125.7 755.5,-125.7 755.5,-106.7 597.5,-106.7"/>
<text text-anchor="start" x="600.5" y="-112.8" font-family="Helvetica,sans-Serif" font-size="11.00" fill="#000000">...</text>
<polygon fill="#ffffff" stroke="transparent" points="597.5,-87.7 597.5,-106.7 674.5,-106.7 674.5,-87.7 597.5,-87.7"/>
<polygon fill="none" stroke="#000000" points="597.5,-87.7 597.5,-106.7 674.5,-106.7 674.5,-87.7 597.5,-87.7"/>
<text text-anchor="start" x="600.5" y="-93.8" font-family="Helvetica,sans-Serif" font-size="11.00" fill="#000000">&lt; 3</text>
<polygon fill="#ffffff" stroke="transparent" points="674.5,-87.7 674.5,-106.7 714.5,-106.7 714.5,-87.7 674.5,-87.7"/>
<polygon fill="none" stroke="#000000" points="674.5,-87.7 674.5,-106.7 714.5,-106.7 714.5,-87.7 674.5,-87.7"/>
<text text-anchor="start" x="705.3862" y="-93.8" font-family="Helvetica,sans-Serif" font-size="11.00" fill="#000000"> &#160;</text>
<polygon fill="#ffffff" stroke="transparent" points="714.5,-87.7 714.5,-106.7 755.5,-106.7 755.5,-87.7 714.5,-87.7"/>
<polygon fill="none" stroke="#000000" points="714.5,-87.7 714.5,-106.7 755.5,-106.7 755.5,-87.7 714.5,-87.7"/>
<text text-anchor="start" x="746.3862" y="-93.8" font-family="Helvetica,sans-Serif" font-size="11.00" fill="#000000"> &#160;</text>
</a>
</g>
</g>
<!-- form_vital_details&#45;&gt;form_vitals -->
<g id="edge11" class="edge">
<title>form_vital_details:w&#45;&gt;form_vitals:e</title>
<path fill="none" stroke="#000000" d="M583.3148,-119.0411C560.5216,-131.5222 564.8006,-174.7 531,-174.7"/>
<polygon fill="#000000" stroke="#000000" points="589.7131,-117.5342 598.3254,-119.2041 593.6065,-116.6171 597.5,-115.7 597.5,-115.7 597.5,-115.7 593.6065,-116.6171 596.6746,-112.1959 589.7131,-117.5342 589.7131,-117.5342"/>
<ellipse fill="none" stroke="#000000" cx="586.5983" cy="-118.2678" rx="3.2" ry="3.2"/>
</g>
</g>
</svg>
