<?xml version="1.0" encoding="UTF-8" standalone="no"?>
<!DOCTYPE svg PUBLIC "-//W3C//DTD SVG 1.1//EN"
 "http://www.w3.org/Graphics/SVG/1.1/DTD/svg11.dtd">
<!-- Generated by graphviz version 2.40.1 (20161225.0304)
 -->
<!-- Title: oneDegreeRelationshipsDiagram Pages: 1 -->
<svg width="934pt" height="627pt"
 viewBox="0.00 0.00 934.00 626.70" xmlns="http://www.w3.org/2000/svg" xmlns:xlink="http://www.w3.org/1999/xlink">
<g id="graph0" class="graph" transform="scale(1 1) rotate(0) translate(4 622.7)">
<title>oneDegreeRelationshipsDiagram</title>
<polygon fill="#ffffff" stroke="transparent" points="-4,4 -4,-622.7 930,-622.7 930,4 -4,4"/>
<text text-anchor="middle" x="72.4936" y="-7.3" font-family="Helvetica,sans-Serif" font-size="11.00" fill="#000000">Generated by SchemaSpy</text>
<!-- groups -->
<g id="node1" class="node">
<title>groups</title>
<g id="a_node1"><a xlink:href="../../tables/groups.html" xlink:title="groups" target="_top">
<polygon fill="#ffffff" stroke="transparent" points="319.5,-94.2 319.5,-202.2 405.5,-202.2 405.5,-94.2 319.5,-94.2"/>
<polygon fill="#f5f5f5" stroke="transparent" points="319.5,-179.2 319.5,-202.2 405.5,-202.2 405.5,-179.2 319.5,-179.2"/>
<polygon fill="none" stroke="#000000" points="319.5,-179.2 319.5,-202.2 405.5,-202.2 405.5,-179.2 319.5,-179.2"/>
<text text-anchor="start" x="324.5" y="-187.8" font-family="Helvetica,sans-Serif" font-weight="bold" font-size="11.00" fill="#000000">groups</text>
<text text-anchor="start" x="371.0219" y="-187.3" font-family="Helvetica,sans-Serif" font-size="11.00" fill="#000000">[table]</text>
<polygon fill="none" stroke="#000000" points="319.5,-157.2 319.5,-179.2 405.5,-179.2 405.5,-157.2 319.5,-157.2"/>
<image xlink:href="../../images/primaryKeys.png" width="11px" height="12px" preserveAspectRatio="xMinYMin meet" x="324.5" y="-174.2"/>
<text text-anchor="start" x="348.5" y="-164.3" font-family="Helvetica,sans-Serif" font-size="11.00" fill="#000000">id</text>
<polygon fill="none" stroke="#000000" points="319.5,-135.2 319.5,-157.2 405.5,-157.2 405.5,-135.2 319.5,-135.2"/>
<image xlink:href="../../images/primaryKeys.png" width="11px" height="12px" preserveAspectRatio="xMinYMin meet" x="324.5" y="-152.2"/>
<text text-anchor="start" x="348.5" y="-142.3" font-family="Helvetica,sans-Serif" font-size="11.00" fill="#000000">name</text>
<polygon fill="none" stroke="#000000" points="319.5,-113.2 319.5,-135.2 405.5,-135.2 405.5,-113.2 319.5,-113.2"/>
<image xlink:href="../../images/foreignKeys.png" width="11px" height="12px" preserveAspectRatio="xMinYMin meet" x="324.5" y="-130.2"/>
<text text-anchor="start" x="348.5" y="-120.3" font-family="Helvetica,sans-Serif" font-size="11.00" fill="#000000">user</text>
<polygon fill="#ffffff" stroke="transparent" points="319.5,-94.2 319.5,-113.2 353.5,-113.2 353.5,-94.2 319.5,-94.2"/>
<polygon fill="none" stroke="#000000" points="319.5,-94.2 319.5,-113.2 353.5,-113.2 353.5,-94.2 319.5,-94.2"/>
<text text-anchor="start" x="322.5" y="-100.3" font-family="Helvetica,sans-Serif" font-size="11.00" fill="#000000">&lt; 1</text>
<polygon fill="#ffffff" stroke="transparent" points="353.5,-94.2 353.5,-113.2 371.5,-113.2 371.5,-94.2 353.5,-94.2"/>
<polygon fill="none" stroke="#000000" points="353.5,-94.2 353.5,-113.2 371.5,-113.2 371.5,-94.2 353.5,-94.2"/>
<text text-anchor="start" x="362.3862" y="-100.3" font-family="Helvetica,sans-Serif" font-size="11.00" fill="#000000"> &#160;</text>
<polygon fill="#ffffff" stroke="transparent" points="371.5,-94.2 371.5,-113.2 405.5,-113.2 405.5,-94.2 371.5,-94.2"/>
<polygon fill="none" stroke="#000000" points="371.5,-94.2 371.5,-113.2 405.5,-113.2 405.5,-94.2 371.5,-94.2"/>
<text text-anchor="start" x="380.7904" y="-100.3" font-family="Helvetica,sans-Serif" font-size="11.00" fill="#000000">17 &gt;</text>
</a>
</g>
</g>
<!-- users -->
<g id="node2" class="node">
<title>users</title>
<g id="a_node2"><a xlink:href="../../tables/users.html" xlink:title="users" target="_top">
<polygon fill="#ffffff" stroke="transparent" points="8,-157.7 8,-372.7 175,-372.7 175,-157.7 8,-157.7"/>
<polygon fill="#f5f5f5" stroke="transparent" points="8.5,-349.2 8.5,-372.2 175.5,-372.2 175.5,-349.2 8.5,-349.2"/>
<polygon fill="none" stroke="#000000" points="8.5,-349.2 8.5,-372.2 175.5,-372.2 175.5,-349.2 8.5,-349.2"/>
<text text-anchor="start" x="13.5" y="-357.8" font-family="Helvetica,sans-Serif" font-weight="bold" font-size="11.00" fill="#000000">users</text>
<text text-anchor="start" x="140.5437" y="-357.3" font-family="Helvetica,sans-Serif" font-size="11.00" fill="#000000">[table]</text>
<polygon fill="none" stroke="#000000" points="8.5,-327.2 8.5,-349.2 175.5,-349.2 175.5,-327.2 8.5,-327.2"/>
<image xlink:href="../../images/primaryKeys.png" width="11px" height="12px" preserveAspectRatio="xMinYMin meet" x="13.5" y="-344.2"/>
<text text-anchor="start" x="28.5" y="-334.3" font-family="Helvetica,sans-Serif" font-size="11.00" fill="#000000">id</text>
<polygon fill="#ffffff" stroke="transparent" points="8.5,-305.2 8.5,-327.2 175.5,-327.2 175.5,-305.2 8.5,-305.2"/>
<polygon fill="none" stroke="#000000" points="8.5,-305.2 8.5,-327.2 175.5,-327.2 175.5,-305.2 8.5,-305.2"/>
<text text-anchor="start" x="28.5" y="-312.3" font-family="Helvetica,sans-Serif" font-size="11.00" fill="#000000">uuid</text>
<polygon fill="none" stroke="#000000" points="8.5,-283.2 8.5,-305.2 175.5,-305.2 175.5,-283.2 8.5,-283.2"/>
<image xlink:href="../../images/primaryKeys.png" width="11px" height="12px" preserveAspectRatio="xMinYMin meet" x="13.5" y="-300.2"/>
<text text-anchor="start" x="28.5" y="-290.3" font-family="Helvetica,sans-Serif" font-size="11.00" fill="#000000">username</text>
<polygon fill="none" stroke="#000000" points="8.5,-261.2 8.5,-283.2 175.5,-283.2 175.5,-261.2 8.5,-261.2"/>
<image xlink:href="../../images/foreignKeys.png" width="11px" height="12px" preserveAspectRatio="xMinYMin meet" x="13.5" y="-278.2"/>
<text text-anchor="start" x="28.5" y="-268.3" font-family="Helvetica,sans-Serif" font-size="11.00" fill="#000000">facility_id</text>
<polygon fill="#ffffff" stroke="transparent" points="8.5,-239.2 8.5,-261.2 175.5,-261.2 175.5,-239.2 8.5,-239.2"/>
<polygon fill="none" stroke="#000000" points="8.5,-239.2 8.5,-261.2 175.5,-261.2 175.5,-239.2 8.5,-239.2"/>
<text text-anchor="start" x="28.5" y="-246.3" font-family="Helvetica,sans-Serif" font-size="11.00" fill="#000000">google_signin_email</text>
<polygon fill="#ffffff" stroke="transparent" points="8.5,-217.2 8.5,-239.2 175.5,-239.2 175.5,-217.2 8.5,-217.2"/>
<polygon fill="none" stroke="#000000" points="8.5,-217.2 8.5,-239.2 175.5,-239.2 175.5,-217.2 8.5,-217.2"/>
<text text-anchor="start" x="28.5" y="-224.3" font-family="Helvetica,sans-Serif" font-size="11.00" fill="#000000">abook_type</text>
<polygon fill="none" stroke="#000000" points="8.5,-195.2 8.5,-217.2 175.5,-217.2 175.5,-195.2 8.5,-195.2"/>
<image xlink:href="../../images/foreignKeys.png" width="11px" height="12px" preserveAspectRatio="xMinYMin meet" x="13.5" y="-212.2"/>
<text text-anchor="start" x="28.5" y="-202.3" font-family="Helvetica,sans-Serif" font-size="11.00" fill="#000000">billing_facility_id</text>
<polygon fill="none" stroke="#000000" points="8.5,-176.2 8.5,-195.2 175.5,-195.2 175.5,-176.2 8.5,-176.2"/>
<text text-anchor="start" x="11.5" y="-182.3" font-family="Helvetica,sans-Serif" font-size="11.00" fill="#000000">...</text>
<polygon fill="#ffffff" stroke="transparent" points="8.5,-157.2 8.5,-176.2 82.5,-176.2 82.5,-157.2 8.5,-157.2"/>
<polygon fill="none" stroke="#000000" points="8.5,-157.2 8.5,-176.2 82.5,-176.2 82.5,-157.2 8.5,-157.2"/>
<text text-anchor="start" x="11.5" y="-163.3" font-family="Helvetica,sans-Serif" font-size="11.00" fill="#000000">&lt; 2</text>
<polygon fill="#ffffff" stroke="transparent" points="82.5,-157.2 82.5,-176.2 121.5,-176.2 121.5,-157.2 82.5,-157.2"/>
<polygon fill="none" stroke="#000000" points="82.5,-157.2 82.5,-176.2 121.5,-176.2 121.5,-157.2 82.5,-157.2"/>
<text text-anchor="start" x="112.3862" y="-163.3" font-family="Helvetica,sans-Serif" font-size="11.00" fill="#000000"> &#160;</text>
<polygon fill="#ffffff" stroke="transparent" points="121.5,-157.2 121.5,-176.2 175.5,-176.2 175.5,-157.2 121.5,-157.2"/>
<polygon fill="none" stroke="#000000" points="121.5,-157.2 121.5,-176.2 175.5,-176.2 175.5,-157.2 121.5,-157.2"/>
<text text-anchor="start" x="150.7904" y="-163.3" font-family="Helvetica,sans-Serif" font-size="11.00" fill="#000000">90 &gt;</text>
</a>
</g>
</g>
<!-- groups&#45;&gt;users -->
<g id="edge1" class="edge">
<title>groups:w&#45;&gt;users:e</title>
<path fill="none" stroke="#000000" d="M305.0254,-125.0899C257.646,-131.3223 250.0927,-169.4633 216,-213.2 191.2554,-244.9443 215.7492,-294.2 175.5,-294.2"/>
<polygon fill="#000000" stroke="#000000" points="311.5151,-124.6909 319.7209,-127.7932 315.5075,-124.4455 319.5,-124.2 319.5,-124.2 319.5,-124.2 315.5075,-124.4455 319.2791,-120.6068 311.5151,-124.6909 311.5151,-124.6909"/>
<ellipse fill="none" stroke="#000000" cx="308.3211" cy="-124.8873" rx="3.2" ry="3.2"/>
</g>
<!-- form_aftercare_plan -->
<g id="node3" class="node">
<title>form_aftercare_plan</title>
<g id="a_node3"><a xlink:href="../../tables/form_aftercare_plan.html" xlink:title="form_aftercare_plan" target="_top">
<polygon fill="#ffffff" stroke="transparent" points="550,-38.2 550,-480.2 918,-480.2 918,-38.2 550,-38.2"/>
<polygon fill="#f5f5f5" stroke="transparent" points="552,-455.2 552,-478.2 916,-478.2 916,-455.2 552,-455.2"/>
<polygon fill="none" stroke="#000000" points="552,-455.2 552,-478.2 916,-478.2 916,-455.2 552,-455.2"/>
<text text-anchor="start" x="557" y="-463.8" font-family="Helvetica,sans-Serif" font-weight="bold" font-size="11.00" fill="#000000">form_aftercare_plan</text>
<text text-anchor="start" x="881.0437" y="-463.3" font-family="Helvetica,sans-Serif" font-size="11.00" fill="#000000">[table]</text>
<polygon fill="none" stroke="#000000" points="552,-433.2 552,-455.2 854,-455.2 854,-433.2 552,-433.2"/>
<text text-anchor="start" x="572" y="-440.3" font-family="Helvetica,sans-Serif" font-size="11.00" fill="#000000">activity</text>
<polygon fill="none" stroke="#000000" points="854,-433.2 854,-455.2 916,-455.2 916,-433.2 854,-433.2"/>
<text text-anchor="start" x="856.878" y="-440.9" font-family="Helvetica,sans-Serif" font-size="11.00" fill="#000000">unknown[0]</text>
<polygon fill="none" stroke="#000000" points="552,-411.2 552,-433.2 854,-433.2 854,-411.2 552,-411.2"/>
<text text-anchor="start" x="572" y="-418.3" font-family="Helvetica,sans-Serif" font-size="11.00" fill="#000000">admit_date</text>
<polygon fill="none" stroke="#000000" points="854,-411.2 854,-433.2 916,-433.2 916,-411.2 854,-411.2"/>
<text text-anchor="start" x="856.878" y="-418.9" font-family="Helvetica,sans-Serif" font-size="11.00" fill="#000000">unknown[0]</text>
<polygon fill="none" stroke="#000000" points="552,-389.2 552,-411.2 854,-411.2 854,-389.2 552,-389.2"/>
<text text-anchor="start" x="572" y="-396.3" font-family="Helvetica,sans-Serif" font-size="11.00" fill="#000000">authorized</text>
<polygon fill="none" stroke="#000000" points="854,-389.2 854,-411.2 916,-411.2 916,-389.2 854,-389.2"/>
<text text-anchor="start" x="856.878" y="-396.9" font-family="Helvetica,sans-Serif" font-size="11.00" fill="#000000">unknown[0]</text>
<polygon fill="none" stroke="#000000" points="552,-367.2 552,-389.2 854,-389.2 854,-367.2 552,-367.2"/>
<text text-anchor="start" x="572" y="-374.3" font-family="Helvetica,sans-Serif" font-size="11.00" fill="#000000">client_name</text>
<polygon fill="none" stroke="#000000" points="854,-367.2 854,-389.2 916,-389.2 916,-367.2 854,-367.2"/>
<text text-anchor="start" x="856.878" y="-374.9" font-family="Helvetica,sans-Serif" font-size="11.00" fill="#000000">unknown[0]</text>
<polygon fill="none" stroke="#000000" points="552,-345.2 552,-367.2 854,-367.2 854,-345.2 552,-345.2"/>
<text text-anchor="start" x="572" y="-352.3" font-family="Helvetica,sans-Serif" font-size="11.00" fill="#000000">date</text>
<polygon fill="none" stroke="#000000" points="854,-345.2 854,-367.2 916,-367.2 916,-345.2 854,-345.2"/>
<text text-anchor="start" x="856.878" y="-352.9" font-family="Helvetica,sans-Serif" font-size="11.00" fill="#000000">unknown[0]</text>
<polygon fill="none" stroke="#000000" points="552,-323.2 552,-345.2 854,-345.2 854,-323.2 552,-323.2"/>
<text text-anchor="start" x="572" y="-330.3" font-family="Helvetica,sans-Serif" font-size="11.00" fill="#000000">discharged</text>
<polygon fill="none" stroke="#000000" points="854,-323.2 854,-345.2 916,-345.2 916,-323.2 854,-323.2"/>
<text text-anchor="start" x="856.878" y="-330.9" font-family="Helvetica,sans-Serif" font-size="11.00" fill="#000000">unknown[0]</text>
<polygon fill="none" stroke="#000000" points="552,-301.2 552,-323.2 854,-323.2 854,-301.2 552,-301.2"/>
<text text-anchor="start" x="572" y="-308.3" font-family="Helvetica,sans-Serif" font-size="11.00" fill="#000000">goal_a_acute_intoxication</text>
<polygon fill="none" stroke="#000000" points="854,-301.2 854,-323.2 916,-323.2 916,-301.2 854,-301.2"/>
<text text-anchor="start" x="856.878" y="-308.9" font-family="Helvetica,sans-Serif" font-size="11.00" fill="#000000">unknown[0]</text>
<polygon fill="none" stroke="#000000" points="552,-279.2 552,-301.2 854,-301.2 854,-279.2 552,-279.2"/>
<text text-anchor="start" x="572" y="-286.3" font-family="Helvetica,sans-Serif" font-size="11.00" fill="#000000">goal_a_acute_intoxication_I</text>
<polygon fill="none" stroke="#000000" points="854,-279.2 854,-301.2 916,-301.2 916,-279.2 854,-279.2"/>
<text text-anchor="start" x="856.878" y="-286.9" font-family="Helvetica,sans-Serif" font-size="11.00" fill="#000000">unknown[0]</text>
<polygon fill="none" stroke="#000000" points="552,-257.2 552,-279.2 854,-279.2 854,-257.2 552,-257.2"/>
<text text-anchor="start" x="572" y="-264.3" font-family="Helvetica,sans-Serif" font-size="11.00" fill="#000000">goal_a_acute_intoxication_II</text>
<polygon fill="none" stroke="#000000" points="854,-257.2 854,-279.2 916,-279.2 916,-257.2 854,-257.2"/>
<text text-anchor="start" x="856.878" y="-264.9" font-family="Helvetica,sans-Serif" font-size="11.00" fill="#000000">unknown[0]</text>
<polygon fill="none" stroke="#000000" points="552,-235.2 552,-257.2 854,-257.2 854,-235.2 552,-235.2"/>
<text text-anchor="start" x="572" y="-242.3" font-family="Helvetica,sans-Serif" font-size="11.00" fill="#000000">goal_b_emotional_behavioral_conditions</text>
<polygon fill="none" stroke="#000000" points="854,-235.2 854,-257.2 916,-257.2 916,-235.2 854,-235.2"/>
<text text-anchor="start" x="856.878" y="-242.9" font-family="Helvetica,sans-Serif" font-size="11.00" fill="#000000">unknown[0]</text>
<polygon fill="none" stroke="#000000" points="552,-213.2 552,-235.2 854,-235.2 854,-213.2 552,-213.2"/>
<text text-anchor="start" x="572" y="-220.3" font-family="Helvetica,sans-Serif" font-size="11.00" fill="#000000">goal_b_emotional_behavioral_conditions_I</text>
<polygon fill="none" stroke="#000000" points="854,-213.2 854,-235.2 916,-235.2 916,-213.2 854,-213.2"/>
<text text-anchor="start" x="856.878" y="-220.9" font-family="Helvetica,sans-Serif" font-size="11.00" fill="#000000">unknown[0]</text>
<polygon fill="none" stroke="#000000" points="552,-191.2 552,-213.2 854,-213.2 854,-191.2 552,-191.2"/>
<text text-anchor="start" x="572" y="-198.3" font-family="Helvetica,sans-Serif" font-size="11.00" fill="#000000">goal_c_relapse_potential</text>
<polygon fill="none" stroke="#000000" points="854,-191.2 854,-213.2 916,-213.2 916,-191.2 854,-191.2"/>
<text text-anchor="start" x="856.878" y="-198.9" font-family="Helvetica,sans-Serif" font-size="11.00" fill="#000000">unknown[0]</text>
<polygon fill="none" stroke="#000000" points="552,-169.2 552,-191.2 854,-191.2 854,-169.2 552,-169.2"/>
<text text-anchor="start" x="572" y="-176.3" font-family="Helvetica,sans-Serif" font-size="11.00" fill="#000000">goal_c_relapse_potential_I</text>
<polygon fill="none" stroke="#000000" points="854,-169.2 854,-191.2 916,-191.2 916,-169.2 854,-169.2"/>
<text text-anchor="start" x="856.878" y="-176.9" font-family="Helvetica,sans-Serif" font-size="11.00" fill="#000000">unknown[0]</text>
<polygon fill="none" stroke="#000000" points="552,-147.2 552,-169.2 854,-169.2 854,-147.2 552,-147.2"/>
<image xlink:href="../../images/foreignKeys.png" width="11px" height="12px" preserveAspectRatio="xMinYMin meet" x="557" y="-164.2"/>
<text text-anchor="start" x="572" y="-154.3" font-family="Helvetica,sans-Serif" font-size="11.00" fill="#000000">groupname</text>
<polygon fill="none" stroke="#000000" points="854,-147.2 854,-169.2 916,-169.2 916,-147.2 854,-147.2"/>
<text text-anchor="start" x="856.878" y="-154.9" font-family="Helvetica,sans-Serif" font-size="11.00" fill="#000000">unknown[0]</text>
<polygon fill="none" stroke="#000000" points="552,-125.2 552,-147.2 854,-147.2 854,-125.2 552,-125.2"/>
<text text-anchor="start" x="572" y="-132.3" font-family="Helvetica,sans-Serif" font-size="11.00" fill="#000000">id</text>
<polygon fill="none" stroke="#000000" points="854,-125.2 854,-147.2 916,-147.2 916,-125.2 854,-125.2"/>
<text text-anchor="start" x="856.878" y="-132.9" font-family="Helvetica,sans-Serif" font-size="11.00" fill="#000000">unknown[0]</text>
<polygon fill="none" stroke="#000000" points="552,-103.2 552,-125.2 854,-125.2 854,-103.2 552,-103.2"/>
<image xlink:href="../../images/foreignKeys.png" width="11px" height="12px" preserveAspectRatio="xMinYMin meet" x="557" y="-120.2"/>
<text text-anchor="start" x="572" y="-110.3" font-family="Helvetica,sans-Serif" font-size="11.00" fill="#000000">pid</text>
<polygon fill="none" stroke="#000000" points="854,-103.2 854,-125.2 916,-125.2 916,-103.2 854,-103.2"/>
<text text-anchor="start" x="856.878" y="-110.9" font-family="Helvetica,sans-Serif" font-size="11.00" fill="#000000">unknown[0]</text>
<polygon fill="none" stroke="#000000" points="552,-81.2 552,-103.2 854,-103.2 854,-81.2 552,-81.2"/>
<text text-anchor="start" x="572" y="-88.3" font-family="Helvetica,sans-Serif" font-size="11.00" fill="#000000">provider</text>
<polygon fill="none" stroke="#000000" points="854,-81.2 854,-103.2 916,-103.2 916,-81.2 854,-81.2"/>
<text text-anchor="start" x="856.878" y="-88.9" font-family="Helvetica,sans-Serif" font-size="11.00" fill="#000000">unknown[0]</text>
<polygon fill="none" stroke="#000000" points="552,-59.2 552,-81.2 854,-81.2 854,-59.2 552,-59.2"/>
<image xlink:href="../../images/foreignKeys.png" width="11px" height="12px" preserveAspectRatio="xMinYMin meet" x="557" y="-76.2"/>
<text text-anchor="start" x="572" y="-66.3" font-family="Helvetica,sans-Serif" font-size="11.00" fill="#000000">user</text>
<polygon fill="none" stroke="#000000" points="854,-59.2 854,-81.2 916,-81.2 916,-59.2 854,-59.2"/>
<text text-anchor="start" x="856.878" y="-66.9" font-family="Helvetica,sans-Serif" font-size="11.00" fill="#000000">unknown[0]</text>
<polygon fill="#ffffff" stroke="transparent" points="552,-40.2 552,-59.2 707,-59.2 707,-40.2 552,-40.2"/>
<polygon fill="none" stroke="#000000" points="552,-40.2 552,-59.2 707,-59.2 707,-40.2 552,-40.2"/>
<text text-anchor="start" x="555" y="-46.3" font-family="Helvetica,sans-Serif" font-size="11.00" fill="#000000">&lt; 3</text>
<polygon fill="#ffffff" stroke="transparent" points="707,-40.2 707,-59.2 854,-59.2 854,-40.2 707,-40.2"/>
<polygon fill="none" stroke="#000000" points="707,-40.2 707,-59.2 854,-59.2 854,-40.2 707,-40.2"/>
<text text-anchor="start" x="844.8862" y="-46.3" font-family="Helvetica,sans-Serif" font-size="11.00" fill="#000000"> &#160;</text>
<polygon fill="#ffffff" stroke="transparent" points="854,-40.2 854,-59.2 916,-59.2 916,-40.2 854,-40.2"/>
<polygon fill="none" stroke="#000000" points="854,-40.2 854,-59.2 916,-59.2 916,-40.2 854,-40.2"/>
<text text-anchor="start" x="897.4053" y="-46.3" font-family="Helvetica,sans-Serif" font-size="11.00" fill="#000000">0 &gt;</text>
<polygon fill="none" stroke="#000000" stroke-width="2" points="551,-39.2 551,-479.2 917,-479.2 917,-39.2 551,-39.2"/>
</a>
</g>
</g>
<!-- form_aftercare_plan&#45;&gt;groups -->
<g id="edge2" class="edge">
<title>form_aftercare_plan:w&#45;&gt;groups:e</title>
<path fill="none" stroke="#000000" d="M537.5474,-157.9917C483.8935,-156.3982 465.7253,-146.2 405.5,-146.2"/>
<polygon fill="#000000" stroke="#000000" points="544.0008,-158.0847 551.9481,-161.7996 548.0004,-158.1423 552,-158.2 552,-158.2 552,-158.2 548.0004,-158.1423 552.0519,-154.6004 544.0008,-158.0847 544.0008,-158.0847"/>
<ellipse fill="none" stroke="#000000" cx="540.8012" cy="-158.0385" rx="3.2" ry="3.2"/>
</g>
<!-- form_aftercare_plan&#45;&gt;users -->
<g id="edge4" class="edge">
<title>form_aftercare_plan:w&#45;&gt;users:e</title>
<path fill="none" stroke="#000000" d="M537.3617,-69.9306C397.6489,-64.7955 325.5784,10.9696 216,-83.2 143.579,-145.4372 270.9896,-294.2 175.5,-294.2"/>
<polygon fill="#000000" stroke="#000000" points="544.0014,-70.0527 551.9337,-73.7994 548.0007,-70.1264 552,-70.2 552,-70.2 552,-70.2 548.0007,-70.1264 552.0663,-66.6006 544.0014,-70.0527 544.0014,-70.0527"/>
<ellipse fill="none" stroke="#000000" cx="540.8019" cy="-69.9938" rx="3.2" ry="3.2"/>
</g>
<!-- patient_data -->
<g id="node4" class="node">
<title>patient_data</title>
<g id="a_node4"><a xlink:href="../../tables/patient_data.html" xlink:title="patient_data" target="_top">
<polygon fill="#ffffff" stroke="transparent" points="224,-223.7 224,-614.7 501,-614.7 501,-223.7 224,-223.7"/>
<polygon fill="#f5f5f5" stroke="transparent" points="224.5,-591.2 224.5,-614.2 501.5,-614.2 501.5,-591.2 224.5,-591.2"/>
<polygon fill="none" stroke="#000000" points="224.5,-591.2 224.5,-614.2 501.5,-614.2 501.5,-591.2 224.5,-591.2"/>
<text text-anchor="start" x="229.5" y="-599.8" font-family="Helvetica,sans-Serif" font-weight="bold" font-size="11.00" fill="#000000">patient_data</text>
<text text-anchor="start" x="466.5437" y="-599.3" font-family="Helvetica,sans-Serif" font-size="11.00" fill="#000000">[table]</text>
<polygon fill="none" stroke="#000000" points="224.5,-569.2 224.5,-591.2 501.5,-591.2 501.5,-569.2 224.5,-569.2"/>
<image xlink:href="../../images/primaryKeys.png" width="11px" height="12px" preserveAspectRatio="xMinYMin meet" x="229.5" y="-586.2"/>
<text text-anchor="start" x="244.5" y="-576.3" font-family="Helvetica,sans-Serif" font-size="11.00" fill="#000000">id</text>
<polygon fill="#ffffff" stroke="transparent" points="224.5,-547.2 224.5,-569.2 501.5,-569.2 501.5,-547.2 224.5,-547.2"/>
<polygon fill="none" stroke="#000000" points="224.5,-547.2 224.5,-569.2 501.5,-569.2 501.5,-547.2 224.5,-547.2"/>
<text text-anchor="start" x="244.5" y="-554.3" font-family="Helvetica,sans-Serif" font-size="11.00" fill="#000000">uuid</text>
<polygon fill="#ffffff" stroke="transparent" points="224.5,-525.2 224.5,-547.2 501.5,-547.2 501.5,-525.2 224.5,-525.2"/>
<polygon fill="none" stroke="#000000" points="224.5,-525.2 224.5,-547.2 501.5,-547.2 501.5,-525.2 224.5,-525.2"/>
<text text-anchor="start" x="244.5" y="-532.3" font-family="Helvetica,sans-Serif" font-size="11.00" fill="#000000">fname</text>
<polygon fill="#ffffff" stroke="transparent" points="224.5,-503.2 224.5,-525.2 501.5,-525.2 501.5,-503.2 224.5,-503.2"/>
<polygon fill="none" stroke="#000000" points="224.5,-503.2 224.5,-525.2 501.5,-525.2 501.5,-503.2 224.5,-503.2"/>
<text text-anchor="start" x="244.5" y="-510.3" font-family="Helvetica,sans-Serif" font-size="11.00" fill="#000000">lname</text>
<polygon fill="#ffffff" stroke="transparent" points="224.5,-481.2 224.5,-503.2 501.5,-503.2 501.5,-481.2 224.5,-481.2"/>
<polygon fill="none" stroke="#000000" points="224.5,-481.2 224.5,-503.2 501.5,-503.2 501.5,-481.2 224.5,-481.2"/>
<text text-anchor="start" x="244.5" y="-488.3" font-family="Helvetica,sans-Serif" font-size="11.00" fill="#000000">DOB</text>
<polygon fill="none" stroke="#000000" points="224.5,-459.2 224.5,-481.2 501.5,-481.2 501.5,-459.2 224.5,-459.2"/>
<image xlink:href="../../images/foreignKeys.png" width="11px" height="12px" preserveAspectRatio="xMinYMin meet" x="229.5" y="-476.2"/>
<text text-anchor="start" x="244.5" y="-466.3" font-family="Helvetica,sans-Serif" font-size="11.00" fill="#000000">pharmacy_id</text>
<polygon fill="none" stroke="#000000" points="224.5,-437.2 224.5,-459.2 501.5,-459.2 501.5,-437.2 224.5,-437.2"/>
<image xlink:href="../../images/foreignKeys.png" width="11px" height="12px" preserveAspectRatio="xMinYMin meet" x="229.5" y="-454.2"/>
<text text-anchor="start" x="244.5" y="-444.3" font-family="Helvetica,sans-Serif" font-size="11.00" fill="#000000">providerID</text>
<polygon fill="none" stroke="#000000" points="224.5,-415.2 224.5,-437.2 501.5,-437.2 501.5,-415.2 224.5,-415.2"/>
<image xlink:href="../../images/foreignKeys.png" width="11px" height="12px" preserveAspectRatio="xMinYMin meet" x="229.5" y="-432.2"/>
<text text-anchor="start" x="244.5" y="-422.3" font-family="Helvetica,sans-Serif" font-size="11.00" fill="#000000">ref_providerID</text>
<polygon fill="none" stroke="#000000" points="224.5,-393.2 224.5,-415.2 501.5,-415.2 501.5,-393.2 224.5,-393.2"/>
<image xlink:href="../../images/foreignKeys.png" width="11px" height="12px" preserveAspectRatio="xMinYMin meet" x="229.5" y="-410.2"/>
<text text-anchor="start" x="244.5" y="-400.3" font-family="Helvetica,sans-Serif" font-size="11.00" fill="#000000">interpreter_needed</text>
<polygon fill="none" stroke="#000000" points="224.5,-371.2 224.5,-393.2 501.5,-393.2 501.5,-371.2 224.5,-371.2"/>
<image xlink:href="../../images/primaryKeys.png" width="11px" height="12px" preserveAspectRatio="xMinYMin meet" x="229.5" y="-388.2"/>
<text text-anchor="start" x="244.5" y="-378.3" font-family="Helvetica,sans-Serif" font-size="11.00" fill="#000000">pid</text>
<polygon fill="none" stroke="#000000" points="224.5,-349.2 224.5,-371.2 501.5,-371.2 501.5,-349.2 224.5,-349.2"/>
<image xlink:href="../../images/foreignKeys.png" width="11px" height="12px" preserveAspectRatio="xMinYMin meet" x="229.5" y="-366.2"/>
<text text-anchor="start" x="244.5" y="-356.3" font-family="Helvetica,sans-Serif" font-size="11.00" fill="#000000">advance_directive_user_authenticator</text>
<polygon fill="none" stroke="#000000" points="224.5,-327.2 224.5,-349.2 501.5,-349.2 501.5,-327.2 224.5,-327.2"/>
<image xlink:href="../../images/foreignKeys.png" width="11px" height="12px" preserveAspectRatio="xMinYMin meet" x="229.5" y="-344.2"/>
<text text-anchor="start" x="244.5" y="-334.3" font-family="Helvetica,sans-Serif" font-size="11.00" fill="#000000">created_by</text>
<polygon fill="none" stroke="#000000" points="224.5,-305.2 224.5,-327.2 501.5,-327.2 501.5,-305.2 224.5,-305.2"/>
<image xlink:href="../../images/foreignKeys.png" width="11px" height="12px" preserveAspectRatio="xMinYMin meet" x="229.5" y="-322.2"/>
<text text-anchor="start" x="244.5" y="-312.3" font-family="Helvetica,sans-Serif" font-size="11.00" fill="#000000">updated_by</text>
<polygon fill="none" stroke="#000000" points="224.5,-283.2 224.5,-305.2 501.5,-305.2 501.5,-283.2 224.5,-283.2"/>
<image xlink:href="../../images/foreignKeys.png" width="11px" height="12px" preserveAspectRatio="xMinYMin meet" x="229.5" y="-300.2"/>
<text text-anchor="start" x="244.5" y="-290.3" font-family="Helvetica,sans-Serif" font-size="11.00" fill="#000000">tribal_affiliations</text>
<polygon fill="none" stroke="#000000" points="224.5,-261.2 224.5,-283.2 501.5,-283.2 501.5,-261.2 224.5,-261.2"/>
<image xlink:href="../../images/foreignKeys.png" width="11px" height="12px" preserveAspectRatio="xMinYMin meet" x="229.5" y="-278.2"/>
<text text-anchor="start" x="244.5" y="-268.3" font-family="Helvetica,sans-Serif" font-size="11.00" fill="#000000">sex_identified</text>
<polygon fill="none" stroke="#000000" points="224.5,-242.2 224.5,-261.2 501.5,-261.2 501.5,-242.2 224.5,-242.2"/>
<text text-anchor="start" x="227.5" y="-248.3" font-family="Helvetica,sans-Serif" font-size="11.00" fill="#000000">...</text>
<polygon fill="#ffffff" stroke="transparent" points="224.5,-223.2 224.5,-242.2 353.5,-242.2 353.5,-223.2 224.5,-223.2"/>
<polygon fill="none" stroke="#000000" points="224.5,-223.2 224.5,-242.2 353.5,-242.2 353.5,-223.2 224.5,-223.2"/>
<text text-anchor="start" x="227.5" y="-229.3" font-family="Helvetica,sans-Serif" font-size="11.00" fill="#000000">&lt; 9</text>
<polygon fill="#ffffff" stroke="transparent" points="353.5,-223.2 353.5,-242.2 419.5,-242.2 419.5,-223.2 353.5,-223.2"/>
<polygon fill="none" stroke="#000000" points="353.5,-223.2 353.5,-242.2 419.5,-242.2 419.5,-223.2 353.5,-223.2"/>
<text text-anchor="start" x="410.3862" y="-229.3" font-family="Helvetica,sans-Serif" font-size="11.00" fill="#000000"> &#160;</text>
<polygon fill="#ffffff" stroke="transparent" points="419.5,-223.2 419.5,-242.2 501.5,-242.2 501.5,-223.2 419.5,-223.2"/>
<polygon fill="none" stroke="#000000" points="419.5,-223.2 419.5,-242.2 501.5,-242.2 501.5,-223.2 419.5,-223.2"/>
<text text-anchor="start" x="476.7904" y="-229.3" font-family="Helvetica,sans-Serif" font-size="11.00" fill="#000000">95 &gt;</text>
</a>
</g>
</g>
<!-- form_aftercare_plan&#45;&gt;patient_data -->
<g id="edge3" class="edge">
<title>form_aftercare_plan:w&#45;&gt;patient_data:e</title>
<path fill="none" stroke="#000000" d="M537.5043,-115.7739C447.4032,-137.7373 617.2624,-382.2 501.5,-382.2"/>
<polygon fill="#000000" stroke="#000000" points="544.0467,-115.0636 552.3886,-117.779 548.0234,-114.6318 552,-114.2 552,-114.2 552,-114.2 548.0234,-114.6318 551.6114,-110.621 544.0467,-115.0636 544.0467,-115.0636"/>
<ellipse fill="none" stroke="#000000" cx="540.8654" cy="-115.409" rx="3.2" ry="3.2"/>
</g>
<!-- patient_data&#45;&gt;users -->
<g id="edge5" class="edge">
<title>patient_data:w&#45;&gt;users:e</title>
<path fill="none" stroke="#000000" d="M210.1297,-356.7625C198.5865,-350.575 193.4041,-338.2 175.5,-338.2"/>
<polygon fill="#000000" stroke="#000000" points="216.7195,-358.3388 223.6625,-363.7012 220.6098,-359.2694 224.5,-360.2 224.5,-360.2 224.5,-360.2 220.6098,-359.2694 225.3375,-356.6988 216.7195,-358.3388 216.7195,-358.3388"/>
<ellipse fill="none" stroke="#000000" cx="213.6073" cy="-357.5943" rx="3.2" ry="3.2"/>
</g>
<!-- patient_data&#45;&gt;users -->
<g id="edge6" class="edge">
<title>patient_data:w&#45;&gt;users:e</title>
<path fill="none" stroke="#000000" d="M209.9909,-338.2C198.6774,-338.2 191.4931,-338.2 175.5,-338.2"/>
<polygon fill="#000000" stroke="#000000" points="216.5,-338.2001 224.5,-341.8 220.5,-338.2 224.5,-338.2 224.5,-338.2 224.5,-338.2 220.5,-338.2 224.5,-334.6 216.5,-338.2001 216.5,-338.2001"/>
<ellipse fill="none" stroke="#000000" cx="213.3" cy="-338.2001" rx="3.2" ry="3.2"/>
</g>
<!-- patient_data&#45;&gt;users -->
<g id="edge7" class="edge">
<title>patient_data:w&#45;&gt;users:e</title>
<path fill="none" stroke="#000000" d="M210.282,-444.285C182.6981,-424.6897 222.9572,-338.2 175.5,-338.2"/>
<polygon fill="#000000" stroke="#000000" points="216.7871,-446.0762 223.5443,-451.6708 220.6435,-447.1381 224.5,-448.2 224.5,-448.2 224.5,-448.2 220.6435,-447.1381 225.4557,-444.7292 216.7871,-446.0762 216.7871,-446.0762"/>
<ellipse fill="none" stroke="#000000" cx="213.7019" cy="-445.2266" rx="3.2" ry="3.2"/>
</g>
<!-- patient_data&#45;&gt;users -->
<g id="edge8" class="edge">
<title>patient_data:w&#45;&gt;users:e</title>
<path fill="none" stroke="#000000" d="M210.4863,-421.7151C189.2228,-403.7824 214.1452,-338.2 175.5,-338.2"/>
<polygon fill="#000000" stroke="#000000" points="216.8807,-423.7615 223.4027,-429.6287 220.6903,-424.9807 224.5,-426.2 224.5,-426.2 224.5,-426.2 220.6903,-424.9807 225.5973,-422.7713 216.8807,-423.7615 216.8807,-423.7615"/>
<ellipse fill="none" stroke="#000000" cx="213.833" cy="-422.7861" rx="3.2" ry="3.2"/>
</g>
<!-- patient_data&#45;&gt;users -->
<g id="edge9" class="edge">
<title>patient_data:w&#45;&gt;users:e</title>
<path fill="none" stroke="#000000" d="M210.1297,-319.6375C198.5865,-325.825 193.4041,-338.2 175.5,-338.2"/>
<polygon fill="#000000" stroke="#000000" points="216.7195,-318.0612 225.3375,-319.7012 220.6098,-317.1306 224.5,-316.2 224.5,-316.2 224.5,-316.2 220.6098,-317.1306 223.6625,-312.6988 216.7195,-318.0612 216.7195,-318.0612"/>
<ellipse fill="none" stroke="#000000" cx="213.6073" cy="-318.8057" rx="3.2" ry="3.2"/>
</g>
</g>
</svg>
