<?xml version="1.0" encoding="UTF-8" standalone="no"?>
<!DOCTYPE svg PUBLIC "-//W3C//DTD SVG 1.1//EN"
 "http://www.w3.org/Graphics/SVG/1.1/DTD/svg11.dtd">
<!-- Generated by graphviz version 2.40.1 (20161225.0304)
 -->
<!-- Title: oneDegreeRelationshipsDiagram Pages: 1 -->
<svg width="917pt" height="666pt"
 viewBox="0.00 0.00 917.00 665.59" xmlns="http://www.w3.org/2000/svg" xmlns:xlink="http://www.w3.org/1999/xlink">
<g id="graph0" class="graph" transform="scale(1 1) rotate(0) translate(4 661.5858)">
<title>oneDegreeRelationshipsDiagram</title>
<polygon fill="#ffffff" stroke="transparent" points="-4,4 -4,-661.5858 913,-661.5858 913,4 -4,4"/>
<text text-anchor="middle" x="72.4936" y="-7.3" font-family="Helvetica,sans-Serif" font-size="11.00" fill="#000000">Generated by SchemaSpy</text>
<!-- forms -->
<g id="node1" class="node">
<title>forms</title>
<g id="a_node1"><a xlink:href="../../tables/forms.html" xlink:title="forms" target="_top">
<polygon fill="#ffffff" stroke="transparent" points="550,-106.5858 550,-365.5858 688,-365.5858 688,-106.5858 550,-106.5858"/>
<polygon fill="#f5f5f5" stroke="transparent" points="550,-342.0858 550,-365.0858 688,-365.0858 688,-342.0858 550,-342.0858"/>
<polygon fill="none" stroke="#000000" points="550,-342.0858 550,-365.0858 688,-365.0858 688,-342.0858 550,-342.0858"/>
<text text-anchor="start" x="555" y="-350.6858" font-family="Helvetica,sans-Serif" font-weight="bold" font-size="11.00" fill="#000000">forms</text>
<text text-anchor="start" x="653.0437" y="-350.1858" font-family="Helvetica,sans-Serif" font-size="11.00" fill="#000000">[table]</text>
<polygon fill="none" stroke="#000000" points="550,-320.0858 550,-342.0858 688,-342.0858 688,-320.0858 550,-320.0858"/>
<image xlink:href="../../images/primaryKeys.png" width="11px" height="12px" preserveAspectRatio="xMinYMin meet" x="555" y="-337.086"/>
<text text-anchor="start" x="570" y="-327.1858" font-family="Helvetica,sans-Serif" font-size="11.00" fill="#000000">id</text>
<polygon fill="#ffffff" stroke="transparent" points="550,-298.0858 550,-320.0858 688,-320.0858 688,-298.0858 550,-298.0858"/>
<polygon fill="none" stroke="#000000" points="550,-298.0858 550,-320.0858 688,-320.0858 688,-298.0858 550,-298.0858"/>
<text text-anchor="start" x="570" y="-305.1858" font-family="Helvetica,sans-Serif" font-size="11.00" fill="#000000">encounter</text>
<polygon fill="none" stroke="#000000" points="550,-276.0858 550,-298.0858 688,-298.0858 688,-276.0858 550,-276.0858"/>
<image xlink:href="../../images/primaryKeys.png" width="11px" height="12px" preserveAspectRatio="xMinYMin meet" x="555" y="-293.086"/>
<text text-anchor="start" x="570" y="-283.1858" font-family="Helvetica,sans-Serif" font-size="11.00" fill="#000000">form_id</text>
<polygon fill="#ffffff" stroke="transparent" points="550,-254.0858 550,-276.0858 688,-276.0858 688,-254.0858 550,-254.0858"/>
<polygon fill="none" stroke="#000000" points="550,-254.0858 550,-276.0858 688,-276.0858 688,-254.0858 550,-254.0858"/>
<image xlink:href="../../images/foreignKeys.png" width="11px" height="12px" preserveAspectRatio="xMinYMin meet" x="555" y="-271.086"/>
<text text-anchor="start" x="570" y="-261.1858" font-family="Helvetica,sans-Serif" font-size="11.00" fill="#000000">pid</text>
<polygon fill="none" stroke="#000000" points="550,-232.0858 550,-254.0858 688,-254.0858 688,-232.0858 550,-232.0858"/>
<image xlink:href="../../images/foreignKeys.png" width="11px" height="12px" preserveAspectRatio="xMinYMin meet" x="555" y="-249.086"/>
<text text-anchor="start" x="570" y="-239.1858" font-family="Helvetica,sans-Serif" font-size="11.00" fill="#000000">user</text>
<polygon fill="none" stroke="#000000" points="550,-210.0858 550,-232.0858 688,-232.0858 688,-210.0858 550,-210.0858"/>
<image xlink:href="../../images/foreignKeys.png" width="11px" height="12px" preserveAspectRatio="xMinYMin meet" x="555" y="-227.086"/>
<text text-anchor="start" x="570" y="-217.1858" font-family="Helvetica,sans-Serif" font-size="11.00" fill="#000000">groupname</text>
<polygon fill="none" stroke="#000000" points="550,-188.0858 550,-210.0858 688,-210.0858 688,-188.0858 550,-188.0858"/>
<image xlink:href="../../images/foreignKeys.png" width="11px" height="12px" preserveAspectRatio="xMinYMin meet" x="555" y="-205.086"/>
<text text-anchor="start" x="570" y="-195.1858" font-family="Helvetica,sans-Serif" font-size="11.00" fill="#000000">therapy_group_id</text>
<polygon fill="none" stroke="#000000" points="550,-166.0858 550,-188.0858 688,-188.0858 688,-166.0858 550,-166.0858"/>
<image xlink:href="../../images/foreignKeys.png" width="11px" height="12px" preserveAspectRatio="xMinYMin meet" x="555" y="-183.086"/>
<text text-anchor="start" x="570" y="-173.1858" font-family="Helvetica,sans-Serif" font-size="11.00" fill="#000000">issue_id</text>
<polygon fill="none" stroke="#000000" points="550,-144.0858 550,-166.0858 688,-166.0858 688,-144.0858 550,-144.0858"/>
<image xlink:href="../../images/foreignKeys.png" width="11px" height="12px" preserveAspectRatio="xMinYMin meet" x="555" y="-161.086"/>
<text text-anchor="start" x="570" y="-151.1858" font-family="Helvetica,sans-Serif" font-size="11.00" fill="#000000">provider_id</text>
<polygon fill="none" stroke="#000000" points="550,-125.0858 550,-144.0858 688,-144.0858 688,-125.0858 550,-125.0858"/>
<text text-anchor="start" x="553" y="-131.1858" font-family="Helvetica,sans-Serif" font-size="11.00" fill="#000000">...</text>
<polygon fill="#ffffff" stroke="transparent" points="550,-106.0858 550,-125.0858 610,-125.0858 610,-106.0858 550,-106.0858"/>
<polygon fill="none" stroke="#000000" points="550,-106.0858 550,-125.0858 610,-125.0858 610,-106.0858 550,-106.0858"/>
<text text-anchor="start" x="553" y="-112.1858" font-family="Helvetica,sans-Serif" font-size="11.00" fill="#000000">&lt; 6</text>
<polygon fill="#ffffff" stroke="transparent" points="610,-106.0858 610,-125.0858 641,-125.0858 641,-106.0858 610,-106.0858"/>
<polygon fill="none" stroke="#000000" points="610,-106.0858 610,-125.0858 641,-125.0858 641,-106.0858 610,-106.0858"/>
<text text-anchor="start" x="631.8862" y="-112.1858" font-family="Helvetica,sans-Serif" font-size="11.00" fill="#000000"> &#160;</text>
<polygon fill="#ffffff" stroke="transparent" points="641,-106.0858 641,-125.0858 688,-125.0858 688,-106.0858 641,-106.0858"/>
<polygon fill="none" stroke="#000000" points="641,-106.0858 641,-125.0858 688,-125.0858 688,-106.0858 641,-106.0858"/>
<text text-anchor="start" x="663.2904" y="-112.1858" font-family="Helvetica,sans-Serif" font-size="11.00" fill="#000000">14 &gt;</text>
</a>
</g>
</g>
<!-- groups -->
<g id="node2" class="node">
<title>groups</title>
<g id="a_node2"><a xlink:href="../../tables/groups.html" xlink:title="groups" target="_top">
<polygon fill="#ffffff" stroke="transparent" points="319.5,-133.0858 319.5,-241.0858 405.5,-241.0858 405.5,-133.0858 319.5,-133.0858"/>
<polygon fill="#f5f5f5" stroke="transparent" points="319.5,-218.0858 319.5,-241.0858 405.5,-241.0858 405.5,-218.0858 319.5,-218.0858"/>
<polygon fill="none" stroke="#000000" points="319.5,-218.0858 319.5,-241.0858 405.5,-241.0858 405.5,-218.0858 319.5,-218.0858"/>
<text text-anchor="start" x="324.5" y="-226.6858" font-family="Helvetica,sans-Serif" font-weight="bold" font-size="11.00" fill="#000000">groups</text>
<text text-anchor="start" x="371.0219" y="-226.1858" font-family="Helvetica,sans-Serif" font-size="11.00" fill="#000000">[table]</text>
<polygon fill="none" stroke="#000000" points="319.5,-196.0858 319.5,-218.0858 405.5,-218.0858 405.5,-196.0858 319.5,-196.0858"/>
<image xlink:href="../../images/primaryKeys.png" width="11px" height="12px" preserveAspectRatio="xMinYMin meet" x="324.5" y="-213.086"/>
<text text-anchor="start" x="348.5" y="-203.1858" font-family="Helvetica,sans-Serif" font-size="11.00" fill="#000000">id</text>
<polygon fill="none" stroke="#000000" points="319.5,-174.0858 319.5,-196.0858 405.5,-196.0858 405.5,-174.0858 319.5,-174.0858"/>
<image xlink:href="../../images/primaryKeys.png" width="11px" height="12px" preserveAspectRatio="xMinYMin meet" x="324.5" y="-191.086"/>
<text text-anchor="start" x="348.5" y="-181.1858" font-family="Helvetica,sans-Serif" font-size="11.00" fill="#000000">name</text>
<polygon fill="none" stroke="#000000" points="319.5,-152.0858 319.5,-174.0858 405.5,-174.0858 405.5,-152.0858 319.5,-152.0858"/>
<image xlink:href="../../images/foreignKeys.png" width="11px" height="12px" preserveAspectRatio="xMinYMin meet" x="324.5" y="-169.086"/>
<text text-anchor="start" x="348.5" y="-159.1858" font-family="Helvetica,sans-Serif" font-size="11.00" fill="#000000">user</text>
<polygon fill="#ffffff" stroke="transparent" points="319.5,-133.0858 319.5,-152.0858 353.5,-152.0858 353.5,-133.0858 319.5,-133.0858"/>
<polygon fill="none" stroke="#000000" points="319.5,-133.0858 319.5,-152.0858 353.5,-152.0858 353.5,-133.0858 319.5,-133.0858"/>
<text text-anchor="start" x="322.5" y="-139.1858" font-family="Helvetica,sans-Serif" font-size="11.00" fill="#000000">&lt; 1</text>
<polygon fill="#ffffff" stroke="transparent" points="353.5,-133.0858 353.5,-152.0858 371.5,-152.0858 371.5,-133.0858 353.5,-133.0858"/>
<polygon fill="none" stroke="#000000" points="353.5,-133.0858 353.5,-152.0858 371.5,-152.0858 371.5,-133.0858 353.5,-133.0858"/>
<text text-anchor="start" x="362.3862" y="-139.1858" font-family="Helvetica,sans-Serif" font-size="11.00" fill="#000000"> &#160;</text>
<polygon fill="#ffffff" stroke="transparent" points="371.5,-133.0858 371.5,-152.0858 405.5,-152.0858 405.5,-133.0858 371.5,-133.0858"/>
<polygon fill="none" stroke="#000000" points="371.5,-133.0858 371.5,-152.0858 405.5,-152.0858 405.5,-133.0858 371.5,-133.0858"/>
<text text-anchor="start" x="380.7904" y="-139.1858" font-family="Helvetica,sans-Serif" font-size="11.00" fill="#000000">17 &gt;</text>
</a>
</g>
</g>
<!-- forms&#45;&gt;groups -->
<g id="edge1" class="edge">
<title>forms:w&#45;&gt;groups:e</title>
<path fill="none" stroke="#000000" d="M535.4261,-220.461C481.5896,-215.6806 466.5146,-185.0858 405.5,-185.0858"/>
<polygon fill="#000000" stroke="#000000" points="542.0073,-220.7431 549.8458,-224.6825 546.0037,-220.9145 550,-221.0858 550,-221.0858 550,-221.0858 546.0037,-220.9145 550.1542,-217.4891 542.0073,-220.7431 542.0073,-220.7431"/>
<ellipse fill="none" stroke="#000000" cx="538.8103" cy="-220.606" rx="3.2" ry="3.2"/>
</g>
<!-- patient_data -->
<g id="node3" class="node">
<title>patient_data</title>
<g id="a_node3"><a xlink:href="../../tables/patient_data.html" xlink:title="patient_data" target="_top">
<polygon fill="#ffffff" stroke="transparent" points="224,-262.5858 224,-653.5858 501,-653.5858 501,-262.5858 224,-262.5858"/>
<polygon fill="#f5f5f5" stroke="transparent" points="224.5,-630.0858 224.5,-653.0858 501.5,-653.0858 501.5,-630.0858 224.5,-630.0858"/>
<polygon fill="none" stroke="#000000" points="224.5,-630.0858 224.5,-653.0858 501.5,-653.0858 501.5,-630.0858 224.5,-630.0858"/>
<text text-anchor="start" x="229.5" y="-638.6858" font-family="Helvetica,sans-Serif" font-weight="bold" font-size="11.00" fill="#000000">patient_data</text>
<text text-anchor="start" x="466.5437" y="-638.1858" font-family="Helvetica,sans-Serif" font-size="11.00" fill="#000000">[table]</text>
<polygon fill="none" stroke="#000000" points="224.5,-608.0858 224.5,-630.0858 501.5,-630.0858 501.5,-608.0858 224.5,-608.0858"/>
<image xlink:href="../../images/primaryKeys.png" width="11px" height="12px" preserveAspectRatio="xMinYMin meet" x="229.5" y="-625.086"/>
<text text-anchor="start" x="244.5" y="-615.1858" font-family="Helvetica,sans-Serif" font-size="11.00" fill="#000000">id</text>
<polygon fill="#ffffff" stroke="transparent" points="224.5,-586.0858 224.5,-608.0858 501.5,-608.0858 501.5,-586.0858 224.5,-586.0858"/>
<polygon fill="none" stroke="#000000" points="224.5,-586.0858 224.5,-608.0858 501.5,-608.0858 501.5,-586.0858 224.5,-586.0858"/>
<text text-anchor="start" x="244.5" y="-593.1858" font-family="Helvetica,sans-Serif" font-size="11.00" fill="#000000">uuid</text>
<polygon fill="#ffffff" stroke="transparent" points="224.5,-564.0858 224.5,-586.0858 501.5,-586.0858 501.5,-564.0858 224.5,-564.0858"/>
<polygon fill="none" stroke="#000000" points="224.5,-564.0858 224.5,-586.0858 501.5,-586.0858 501.5,-564.0858 224.5,-564.0858"/>
<text text-anchor="start" x="244.5" y="-571.1858" font-family="Helvetica,sans-Serif" font-size="11.00" fill="#000000">fname</text>
<polygon fill="#ffffff" stroke="transparent" points="224.5,-542.0858 224.5,-564.0858 501.5,-564.0858 501.5,-542.0858 224.5,-542.0858"/>
<polygon fill="none" stroke="#000000" points="224.5,-542.0858 224.5,-564.0858 501.5,-564.0858 501.5,-542.0858 224.5,-542.0858"/>
<text text-anchor="start" x="244.5" y="-549.1858" font-family="Helvetica,sans-Serif" font-size="11.00" fill="#000000">lname</text>
<polygon fill="#ffffff" stroke="transparent" points="224.5,-520.0858 224.5,-542.0858 501.5,-542.0858 501.5,-520.0858 224.5,-520.0858"/>
<polygon fill="none" stroke="#000000" points="224.5,-520.0858 224.5,-542.0858 501.5,-542.0858 501.5,-520.0858 224.5,-520.0858"/>
<text text-anchor="start" x="244.5" y="-527.1858" font-family="Helvetica,sans-Serif" font-size="11.00" fill="#000000">DOB</text>
<polygon fill="none" stroke="#000000" points="224.5,-498.0858 224.5,-520.0858 501.5,-520.0858 501.5,-498.0858 224.5,-498.0858"/>
<image xlink:href="../../images/foreignKeys.png" width="11px" height="12px" preserveAspectRatio="xMinYMin meet" x="229.5" y="-515.086"/>
<text text-anchor="start" x="244.5" y="-505.1858" font-family="Helvetica,sans-Serif" font-size="11.00" fill="#000000">pharmacy_id</text>
<polygon fill="none" stroke="#000000" points="224.5,-476.0858 224.5,-498.0858 501.5,-498.0858 501.5,-476.0858 224.5,-476.0858"/>
<image xlink:href="../../images/foreignKeys.png" width="11px" height="12px" preserveAspectRatio="xMinYMin meet" x="229.5" y="-493.086"/>
<text text-anchor="start" x="244.5" y="-483.1858" font-family="Helvetica,sans-Serif" font-size="11.00" fill="#000000">providerID</text>
<polygon fill="none" stroke="#000000" points="224.5,-454.0858 224.5,-476.0858 501.5,-476.0858 501.5,-454.0858 224.5,-454.0858"/>
<image xlink:href="../../images/foreignKeys.png" width="11px" height="12px" preserveAspectRatio="xMinYMin meet" x="229.5" y="-471.086"/>
<text text-anchor="start" x="244.5" y="-461.1858" font-family="Helvetica,sans-Serif" font-size="11.00" fill="#000000">ref_providerID</text>
<polygon fill="none" stroke="#000000" points="224.5,-432.0858 224.5,-454.0858 501.5,-454.0858 501.5,-432.0858 224.5,-432.0858"/>
<image xlink:href="../../images/foreignKeys.png" width="11px" height="12px" preserveAspectRatio="xMinYMin meet" x="229.5" y="-449.086"/>
<text text-anchor="start" x="244.5" y="-439.1858" font-family="Helvetica,sans-Serif" font-size="11.00" fill="#000000">interpreter_needed</text>
<polygon fill="none" stroke="#000000" points="224.5,-410.0858 224.5,-432.0858 501.5,-432.0858 501.5,-410.0858 224.5,-410.0858"/>
<image xlink:href="../../images/primaryKeys.png" width="11px" height="12px" preserveAspectRatio="xMinYMin meet" x="229.5" y="-427.086"/>
<text text-anchor="start" x="244.5" y="-417.1858" font-family="Helvetica,sans-Serif" font-size="11.00" fill="#000000">pid</text>
<polygon fill="none" stroke="#000000" points="224.5,-388.0858 224.5,-410.0858 501.5,-410.0858 501.5,-388.0858 224.5,-388.0858"/>
<image xlink:href="../../images/foreignKeys.png" width="11px" height="12px" preserveAspectRatio="xMinYMin meet" x="229.5" y="-405.086"/>
<text text-anchor="start" x="244.5" y="-395.1858" font-family="Helvetica,sans-Serif" font-size="11.00" fill="#000000">advance_directive_user_authenticator</text>
<polygon fill="none" stroke="#000000" points="224.5,-366.0858 224.5,-388.0858 501.5,-388.0858 501.5,-366.0858 224.5,-366.0858"/>
<image xlink:href="../../images/foreignKeys.png" width="11px" height="12px" preserveAspectRatio="xMinYMin meet" x="229.5" y="-383.086"/>
<text text-anchor="start" x="244.5" y="-373.1858" font-family="Helvetica,sans-Serif" font-size="11.00" fill="#000000">created_by</text>
<polygon fill="none" stroke="#000000" points="224.5,-344.0858 224.5,-366.0858 501.5,-366.0858 501.5,-344.0858 224.5,-344.0858"/>
<image xlink:href="../../images/foreignKeys.png" width="11px" height="12px" preserveAspectRatio="xMinYMin meet" x="229.5" y="-361.086"/>
<text text-anchor="start" x="244.5" y="-351.1858" font-family="Helvetica,sans-Serif" font-size="11.00" fill="#000000">updated_by</text>
<polygon fill="none" stroke="#000000" points="224.5,-322.0858 224.5,-344.0858 501.5,-344.0858 501.5,-322.0858 224.5,-322.0858"/>
<image xlink:href="../../images/foreignKeys.png" width="11px" height="12px" preserveAspectRatio="xMinYMin meet" x="229.5" y="-339.086"/>
<text text-anchor="start" x="244.5" y="-329.1858" font-family="Helvetica,sans-Serif" font-size="11.00" fill="#000000">tribal_affiliations</text>
<polygon fill="none" stroke="#000000" points="224.5,-300.0858 224.5,-322.0858 501.5,-322.0858 501.5,-300.0858 224.5,-300.0858"/>
<image xlink:href="../../images/foreignKeys.png" width="11px" height="12px" preserveAspectRatio="xMinYMin meet" x="229.5" y="-317.086"/>
<text text-anchor="start" x="244.5" y="-307.1858" font-family="Helvetica,sans-Serif" font-size="11.00" fill="#000000">sex_identified</text>
<polygon fill="none" stroke="#000000" points="224.5,-281.0858 224.5,-300.0858 501.5,-300.0858 501.5,-281.0858 224.5,-281.0858"/>
<text text-anchor="start" x="227.5" y="-287.1858" font-family="Helvetica,sans-Serif" font-size="11.00" fill="#000000">...</text>
<polygon fill="#ffffff" stroke="transparent" points="224.5,-262.0858 224.5,-281.0858 353.5,-281.0858 353.5,-262.0858 224.5,-262.0858"/>
<polygon fill="none" stroke="#000000" points="224.5,-262.0858 224.5,-281.0858 353.5,-281.0858 353.5,-262.0858 224.5,-262.0858"/>
<text text-anchor="start" x="227.5" y="-268.1858" font-family="Helvetica,sans-Serif" font-size="11.00" fill="#000000">&lt; 9</text>
<polygon fill="#ffffff" stroke="transparent" points="353.5,-262.0858 353.5,-281.0858 419.5,-281.0858 419.5,-262.0858 353.5,-262.0858"/>
<polygon fill="none" stroke="#000000" points="353.5,-262.0858 353.5,-281.0858 419.5,-281.0858 419.5,-262.0858 353.5,-262.0858"/>
<text text-anchor="start" x="410.3862" y="-268.1858" font-family="Helvetica,sans-Serif" font-size="11.00" fill="#000000"> &#160;</text>
<polygon fill="#ffffff" stroke="transparent" points="419.5,-262.0858 419.5,-281.0858 501.5,-281.0858 501.5,-262.0858 419.5,-262.0858"/>
<polygon fill="none" stroke="#000000" points="419.5,-262.0858 419.5,-281.0858 501.5,-281.0858 501.5,-262.0858 419.5,-262.0858"/>
<text text-anchor="start" x="476.7904" y="-268.1858" font-family="Helvetica,sans-Serif" font-size="11.00" fill="#000000">95 &gt;</text>
</a>
</g>
</g>
<!-- forms&#45;&gt;patient_data -->
<g id="edge2" class="edge">
<title>forms:w&#45;&gt;patient_data:e</title>
<path fill="none" stroke="#000000" d="M535.6408,-267.9267C491.7967,-289.0699 568.2926,-421.0858 501.5,-421.0858"/>
<polygon fill="#000000" stroke="#000000" points="542.1521,-266.6385 550.6987,-268.6174 546.0761,-265.8622 550,-265.0858 550,-265.0858 550,-265.0858 546.0761,-265.8622 549.3013,-261.5543 542.1521,-266.6385 542.1521,-266.6385"/>
<ellipse fill="none" stroke="#000000" cx="539.013" cy="-267.2596" rx="3.2" ry="3.2"/>
</g>
<!-- users -->
<g id="node4" class="node">
<title>users</title>
<g id="a_node4"><a xlink:href="../../tables/users.html" xlink:title="users" target="_top">
<polygon fill="#ffffff" stroke="transparent" points="8,-174.5858 8,-389.5858 175,-389.5858 175,-174.5858 8,-174.5858"/>
<polygon fill="#f5f5f5" stroke="transparent" points="8.5,-366.0858 8.5,-389.0858 175.5,-389.0858 175.5,-366.0858 8.5,-366.0858"/>
<polygon fill="none" stroke="#000000" points="8.5,-366.0858 8.5,-389.0858 175.5,-389.0858 175.5,-366.0858 8.5,-366.0858"/>
<text text-anchor="start" x="13.5" y="-374.6858" font-family="Helvetica,sans-Serif" font-weight="bold" font-size="11.00" fill="#000000">users</text>
<text text-anchor="start" x="140.5437" y="-374.1858" font-family="Helvetica,sans-Serif" font-size="11.00" fill="#000000">[table]</text>
<polygon fill="none" stroke="#000000" points="8.5,-344.0858 8.5,-366.0858 175.5,-366.0858 175.5,-344.0858 8.5,-344.0858"/>
<image xlink:href="../../images/primaryKeys.png" width="11px" height="12px" preserveAspectRatio="xMinYMin meet" x="13.5" y="-361.086"/>
<text text-anchor="start" x="28.5" y="-351.1858" font-family="Helvetica,sans-Serif" font-size="11.00" fill="#000000">id</text>
<polygon fill="#ffffff" stroke="transparent" points="8.5,-322.0858 8.5,-344.0858 175.5,-344.0858 175.5,-322.0858 8.5,-322.0858"/>
<polygon fill="none" stroke="#000000" points="8.5,-322.0858 8.5,-344.0858 175.5,-344.0858 175.5,-322.0858 8.5,-322.0858"/>
<text text-anchor="start" x="28.5" y="-329.1858" font-family="Helvetica,sans-Serif" font-size="11.00" fill="#000000">uuid</text>
<polygon fill="none" stroke="#000000" points="8.5,-300.0858 8.5,-322.0858 175.5,-322.0858 175.5,-300.0858 8.5,-300.0858"/>
<image xlink:href="../../images/primaryKeys.png" width="11px" height="12px" preserveAspectRatio="xMinYMin meet" x="13.5" y="-317.086"/>
<text text-anchor="start" x="28.5" y="-307.1858" font-family="Helvetica,sans-Serif" font-size="11.00" fill="#000000">username</text>
<polygon fill="none" stroke="#000000" points="8.5,-278.0858 8.5,-300.0858 175.5,-300.0858 175.5,-278.0858 8.5,-278.0858"/>
<image xlink:href="../../images/foreignKeys.png" width="11px" height="12px" preserveAspectRatio="xMinYMin meet" x="13.5" y="-295.086"/>
<text text-anchor="start" x="28.5" y="-285.1858" font-family="Helvetica,sans-Serif" font-size="11.00" fill="#000000">facility_id</text>
<polygon fill="#ffffff" stroke="transparent" points="8.5,-256.0858 8.5,-278.0858 175.5,-278.0858 175.5,-256.0858 8.5,-256.0858"/>
<polygon fill="none" stroke="#000000" points="8.5,-256.0858 8.5,-278.0858 175.5,-278.0858 175.5,-256.0858 8.5,-256.0858"/>
<text text-anchor="start" x="28.5" y="-263.1858" font-family="Helvetica,sans-Serif" font-size="11.00" fill="#000000">google_signin_email</text>
<polygon fill="#ffffff" stroke="transparent" points="8.5,-234.0858 8.5,-256.0858 175.5,-256.0858 175.5,-234.0858 8.5,-234.0858"/>
<polygon fill="none" stroke="#000000" points="8.5,-234.0858 8.5,-256.0858 175.5,-256.0858 175.5,-234.0858 8.5,-234.0858"/>
<text text-anchor="start" x="28.5" y="-241.1858" font-family="Helvetica,sans-Serif" font-size="11.00" fill="#000000">abook_type</text>
<polygon fill="none" stroke="#000000" points="8.5,-212.0858 8.5,-234.0858 175.5,-234.0858 175.5,-212.0858 8.5,-212.0858"/>
<image xlink:href="../../images/foreignKeys.png" width="11px" height="12px" preserveAspectRatio="xMinYMin meet" x="13.5" y="-229.086"/>
<text text-anchor="start" x="28.5" y="-219.1858" font-family="Helvetica,sans-Serif" font-size="11.00" fill="#000000">billing_facility_id</text>
<polygon fill="none" stroke="#000000" points="8.5,-193.0858 8.5,-212.0858 175.5,-212.0858 175.5,-193.0858 8.5,-193.0858"/>
<text text-anchor="start" x="11.5" y="-199.1858" font-family="Helvetica,sans-Serif" font-size="11.00" fill="#000000">...</text>
<polygon fill="#ffffff" stroke="transparent" points="8.5,-174.0858 8.5,-193.0858 82.5,-193.0858 82.5,-174.0858 8.5,-174.0858"/>
<polygon fill="none" stroke="#000000" points="8.5,-174.0858 8.5,-193.0858 82.5,-193.0858 82.5,-174.0858 8.5,-174.0858"/>
<text text-anchor="start" x="11.5" y="-180.1858" font-family="Helvetica,sans-Serif" font-size="11.00" fill="#000000">&lt; 2</text>
<polygon fill="#ffffff" stroke="transparent" points="82.5,-174.0858 82.5,-193.0858 121.5,-193.0858 121.5,-174.0858 82.5,-174.0858"/>
<polygon fill="none" stroke="#000000" points="82.5,-174.0858 82.5,-193.0858 121.5,-193.0858 121.5,-174.0858 82.5,-174.0858"/>
<text text-anchor="start" x="112.3862" y="-180.1858" font-family="Helvetica,sans-Serif" font-size="11.00" fill="#000000"> &#160;</text>
<polygon fill="#ffffff" stroke="transparent" points="121.5,-174.0858 121.5,-193.0858 175.5,-193.0858 175.5,-174.0858 121.5,-174.0858"/>
<polygon fill="none" stroke="#000000" points="121.5,-174.0858 121.5,-193.0858 175.5,-193.0858 175.5,-174.0858 121.5,-174.0858"/>
<text text-anchor="start" x="150.7904" y="-180.1858" font-family="Helvetica,sans-Serif" font-size="11.00" fill="#000000">90 &gt;</text>
</a>
</g>
</g>
<!-- forms&#45;&gt;users -->
<g id="edge3" class="edge">
<title>forms:w&#45;&gt;users:e</title>
<path fill="none" stroke="#000000" d="M536.0323,-150.4421C527.1262,-142.9665 524.8811,-128.5498 509,-123.0858 447.431,-101.903 265.8423,-81.1907 216,-123.0858 135.8752,-190.4351 280.1704,-355.0858 175.5,-355.0858"/>
<polygon fill="#000000" stroke="#000000" points="542.4085,-152.5619 548.8642,-158.502 546.2043,-153.8239 550,-155.0858 550,-155.0858 550,-155.0858 546.2043,-153.8239 551.1358,-151.6697 542.4085,-152.5619 542.4085,-152.5619"/>
<ellipse fill="none" stroke="#000000" cx="539.372" cy="-151.5524" rx="3.2" ry="3.2"/>
</g>
<!-- forms&#45;&gt;users -->
<g id="edge4" class="edge">
<title>forms:w&#45;&gt;users:e</title>
<path fill="none" stroke="#000000" d="M535.5413,-240.8315C494.7628,-225.2332 558.6569,-132.8567 509,-95.0858 405.3537,-16.2488 316.2072,-11.9213 216,-95.0858 140.8398,-157.4633 273.1729,-311.0858 175.5,-311.0858"/>
<polygon fill="#000000" stroke="#000000" points="542.0955,-241.8534 549.4454,-246.6429 546.0478,-242.4696 550,-243.0858 550,-243.0858 550,-243.0858 546.0478,-242.4696 550.5546,-239.5288 542.0955,-241.8534 542.0955,-241.8534"/>
<ellipse fill="none" stroke="#000000" cx="538.9337" cy="-241.3604" rx="3.2" ry="3.2"/>
</g>
<!-- groups&#45;&gt;users -->
<g id="edge5" class="edge">
<title>groups:w&#45;&gt;users:e</title>
<path fill="none" stroke="#000000" d="M305.0903,-164.0301C258.1501,-170.6298 253.0254,-210.8022 216,-252.0858 194.7643,-275.7639 207.3057,-311.0858 175.5,-311.0858"/>
<polygon fill="#000000" stroke="#000000" points="311.5171,-163.609 319.7354,-166.6781 315.5086,-163.3474 319.5,-163.0858 319.5,-163.0858 319.5,-163.0858 315.5086,-163.3474 319.2646,-159.4935 311.5171,-163.609 311.5171,-163.609"/>
<ellipse fill="none" stroke="#000000" cx="308.324" cy="-163.8182" rx="3.2" ry="3.2"/>
</g>
<!-- patient_data&#45;&gt;users -->
<g id="edge10" class="edge">
<title>patient_data:w&#45;&gt;users:e</title>
<path fill="none" stroke="#000000" d="M210.8171,-394.3771C197.5046,-383.0263 198.824,-355.0858 175.5,-355.0858"/>
<polygon fill="#000000" stroke="#000000" points="216.9354,-396.4826 223.3285,-402.4899 220.7177,-397.7842 224.5,-399.0858 224.5,-399.0858 224.5,-399.0858 220.7177,-397.7842 225.6715,-395.6818 216.9354,-396.4826 216.9354,-396.4826"/>
<ellipse fill="none" stroke="#000000" cx="213.9096" cy="-395.4412" rx="3.2" ry="3.2"/>
</g>
<!-- patient_data&#45;&gt;users -->
<g id="edge11" class="edge">
<title>patient_data:w&#45;&gt;users:e</title>
<path fill="none" stroke="#000000" d="M210.1297,-373.6483C198.5865,-367.4608 193.4041,-355.0858 175.5,-355.0858"/>
<polygon fill="#000000" stroke="#000000" points="216.7195,-375.2246 223.6625,-380.5871 220.6098,-376.1552 224.5,-377.0858 224.5,-377.0858 224.5,-377.0858 220.6098,-376.1552 225.3375,-373.5846 216.7195,-375.2246 216.7195,-375.2246"/>
<ellipse fill="none" stroke="#000000" cx="213.6073" cy="-374.4802" rx="3.2" ry="3.2"/>
</g>
<!-- patient_data&#45;&gt;users -->
<g id="edge12" class="edge">
<title>patient_data:w&#45;&gt;users:e</title>
<path fill="none" stroke="#000000" d="M210.3293,-483.8229C174.9817,-463.496 232.2116,-355.0858 175.5,-355.0858"/>
<polygon fill="#000000" stroke="#000000" points="216.704,-485.2907 223.6922,-490.594 220.602,-486.1883 224.5,-487.0858 224.5,-487.0858 224.5,-487.0858 220.602,-486.1883 225.3078,-483.5776 216.704,-485.2907 216.704,-485.2907"/>
<ellipse fill="none" stroke="#000000" cx="213.5856" cy="-484.5726" rx="3.2" ry="3.2"/>
</g>
<!-- patient_data&#45;&gt;users -->
<g id="edge13" class="edge">
<title>patient_data:w&#45;&gt;users:e</title>
<path fill="none" stroke="#000000" d="M210.282,-461.1709C182.6981,-441.5756 222.9572,-355.0858 175.5,-355.0858"/>
<polygon fill="#000000" stroke="#000000" points="216.7871,-462.962 223.5443,-468.5567 220.6435,-464.0239 224.5,-465.0858 224.5,-465.0858 224.5,-465.0858 220.6435,-464.0239 225.4557,-461.615 216.7871,-462.962 216.7871,-462.962"/>
<ellipse fill="none" stroke="#000000" cx="213.7019" cy="-462.1125" rx="3.2" ry="3.2"/>
</g>
<!-- patient_data&#45;&gt;users -->
<g id="edge14" class="edge">
<title>patient_data:w&#45;&gt;users:e</title>
<path fill="none" stroke="#000000" d="M209.9909,-355.0858C198.6774,-355.0858 191.4931,-355.0858 175.5,-355.0858"/>
<polygon fill="#000000" stroke="#000000" points="216.5,-355.0859 224.5,-358.6858 220.5,-355.0859 224.5,-355.0858 224.5,-355.0858 224.5,-355.0858 220.5,-355.0859 224.5,-351.4858 216.5,-355.0859 216.5,-355.0859"/>
<ellipse fill="none" stroke="#000000" cx="213.3" cy="-355.0859" rx="3.2" ry="3.2"/>
</g>
<!-- form_sdoh -->
<g id="node5" class="node">
<title>form_sdoh</title>
<g id="a_node5"><a xlink:href="../../tables/form_sdoh.html" xlink:title="form_sdoh" target="_top">
<polygon fill="#ffffff" stroke="transparent" points="737,-265.0858 737,-399.0858 901,-399.0858 901,-265.0858 737,-265.0858"/>
<polygon fill="#f5f5f5" stroke="transparent" points="739,-374.0858 739,-397.0858 899,-397.0858 899,-374.0858 739,-374.0858"/>
<polygon fill="none" stroke="#000000" points="739,-374.0858 739,-397.0858 899,-397.0858 899,-374.0858 739,-374.0858"/>
<text text-anchor="start" x="744" y="-382.6858" font-family="Helvetica,sans-Serif" font-weight="bold" font-size="11.00" fill="#000000">form_sdoh</text>
<text text-anchor="start" x="864.0437" y="-382.1858" font-family="Helvetica,sans-Serif" font-size="11.00" fill="#000000">[table]</text>
<polygon fill="none" stroke="#000000" points="739,-352.0858 739,-374.0858 837,-374.0858 837,-352.0858 739,-352.0858"/>
<image xlink:href="../../images/foreignKeys.png" width="11px" height="12px" preserveAspectRatio="xMinYMin meet" x="744" y="-369.086"/>
<text text-anchor="start" x="759" y="-359.1858" font-family="Helvetica,sans-Serif" font-size="11.00" fill="#000000">groupname</text>
<polygon fill="none" stroke="#000000" points="837,-352.0858 837,-374.0858 899,-374.0858 899,-352.0858 837,-352.0858"/>
<text text-anchor="start" x="839.878" y="-359.7858" font-family="Helvetica,sans-Serif" font-size="11.00" fill="#000000">unknown[0]</text>
<polygon fill="none" stroke="#000000" points="739,-330.0858 739,-352.0858 837,-352.0858 837,-330.0858 739,-330.0858"/>
<image xlink:href="../../images/foreignKeys.png" width="11px" height="12px" preserveAspectRatio="xMinYMin meet" x="744" y="-347.086"/>
<text text-anchor="start" x="759" y="-337.1858" font-family="Helvetica,sans-Serif" font-size="11.00" fill="#000000">id</text>
<polygon fill="none" stroke="#000000" points="837,-330.0858 837,-352.0858 899,-352.0858 899,-330.0858 837,-330.0858"/>
<text text-anchor="start" x="839.878" y="-337.7858" font-family="Helvetica,sans-Serif" font-size="11.00" fill="#000000">unknown[0]</text>
<polygon fill="none" stroke="#000000" points="739,-308.0858 739,-330.0858 837,-330.0858 837,-308.0858 739,-308.0858"/>
<image xlink:href="../../images/foreignKeys.png" width="11px" height="12px" preserveAspectRatio="xMinYMin meet" x="744" y="-325.086"/>
<text text-anchor="start" x="759" y="-315.1858" font-family="Helvetica,sans-Serif" font-size="11.00" fill="#000000">pid</text>
<polygon fill="none" stroke="#000000" points="837,-308.0858 837,-330.0858 899,-330.0858 899,-308.0858 837,-308.0858"/>
<text text-anchor="start" x="839.878" y="-315.7858" font-family="Helvetica,sans-Serif" font-size="11.00" fill="#000000">unknown[0]</text>
<polygon fill="none" stroke="#000000" points="739,-286.0858 739,-308.0858 837,-308.0858 837,-286.0858 739,-286.0858"/>
<image xlink:href="../../images/foreignKeys.png" width="11px" height="12px" preserveAspectRatio="xMinYMin meet" x="744" y="-303.086"/>
<text text-anchor="start" x="759" y="-293.1858" font-family="Helvetica,sans-Serif" font-size="11.00" fill="#000000">user</text>
<polygon fill="none" stroke="#000000" points="837,-286.0858 837,-308.0858 899,-308.0858 899,-286.0858 837,-286.0858"/>
<text text-anchor="start" x="839.878" y="-293.7858" font-family="Helvetica,sans-Serif" font-size="11.00" fill="#000000">unknown[0]</text>
<polygon fill="#ffffff" stroke="transparent" points="739,-267.0858 739,-286.0858 792,-286.0858 792,-267.0858 739,-267.0858"/>
<polygon fill="none" stroke="#000000" points="739,-267.0858 739,-286.0858 792,-286.0858 792,-267.0858 739,-267.0858"/>
<text text-anchor="start" x="742" y="-273.1858" font-family="Helvetica,sans-Serif" font-size="11.00" fill="#000000">&lt; 4</text>
<polygon fill="#ffffff" stroke="transparent" points="792,-267.0858 792,-286.0858 837,-286.0858 837,-267.0858 792,-267.0858"/>
<polygon fill="none" stroke="#000000" points="792,-267.0858 792,-286.0858 837,-286.0858 837,-267.0858 792,-267.0858"/>
<text text-anchor="start" x="827.8862" y="-273.1858" font-family="Helvetica,sans-Serif" font-size="11.00" fill="#000000"> &#160;</text>
<polygon fill="#ffffff" stroke="transparent" points="837,-267.0858 837,-286.0858 899,-286.0858 899,-267.0858 837,-267.0858"/>
<polygon fill="none" stroke="#000000" points="837,-267.0858 837,-286.0858 899,-286.0858 899,-267.0858 837,-267.0858"/>
<text text-anchor="start" x="880.4053" y="-273.1858" font-family="Helvetica,sans-Serif" font-size="11.00" fill="#000000">0 &gt;</text>
<polygon fill="none" stroke="#000000" stroke-width="2" points="738,-266.0858 738,-398.0858 900,-398.0858 900,-266.0858 738,-266.0858"/>
</a>
</g>
</g>
<!-- form_sdoh&#45;&gt;forms -->
<g id="edge7" class="edge">
<title>form_sdoh:w&#45;&gt;forms:e</title>
<path fill="none" stroke="#000000" d="M725.3001,-336.4818C709.8364,-323.4231 715.08,-287.0858 688,-287.0858"/>
<polygon fill="#000000" stroke="#000000" points="731.4168,-338.5374 737.8532,-344.4983 735.2084,-339.8116 739,-341.0858 739,-341.0858 739,-341.0858 735.2084,-339.8116 740.1468,-337.6734 731.4168,-338.5374 731.4168,-338.5374"/>
<ellipse fill="none" stroke="#000000" cx="728.3835" cy="-337.518" rx="3.2" ry="3.2"/>
</g>
<!-- form_sdoh&#45;&gt;groups -->
<g id="edge6" class="edge">
<title>form_sdoh:w&#45;&gt;groups:e</title>
<path fill="none" stroke="#000000" d="M724.7616,-365.2999C715.6335,-368.4397 709.8872,-374.0325 696,-376.0858 628.2917,-386.0971 596.2652,-417.7983 542,-376.0858 496.7851,-341.3302 542.5153,-298.2277 509,-252.0858 476.7965,-207.7502 460.297,-185.0858 405.5,-185.0858"/>
<polygon fill="#000000" stroke="#000000" points="731.095,-364.3151 739.5532,-366.6431 735.0475,-363.7005 739,-363.0858 739,-363.0858 739,-363.0858 735.0475,-363.7005 738.4468,-359.5286 731.095,-364.3151 731.095,-364.3151"/>
<ellipse fill="none" stroke="#000000" cx="727.933" cy="-364.8068" rx="3.2" ry="3.2"/>
</g>
<!-- form_sdoh&#45;&gt;patient_data -->
<g id="edge8" class="edge">
<title>form_sdoh:w&#45;&gt;patient_data:e</title>
<path fill="none" stroke="#000000" d="M725.1308,-323.1681C711.6611,-333.7447 717.4163,-362.1789 696,-376.0858 621.585,-424.4083 590.2279,-421.0858 501.5,-421.0858"/>
<polygon fill="#000000" stroke="#000000" points="731.3255,-321.3448 740.0165,-322.5394 735.1628,-320.2153 739,-319.0858 739,-319.0858 739,-319.0858 735.1628,-320.2153 737.9835,-315.6323 731.3255,-321.3448 731.3255,-321.3448"/>
<ellipse fill="none" stroke="#000000" cx="728.2557" cy="-322.2483" rx="3.2" ry="3.2"/>
</g>
<!-- form_sdoh&#45;&gt;users -->
<g id="edge9" class="edge">
<title>form_sdoh:w&#45;&gt;users:e</title>
<path fill="none" stroke="#000000" d="M724.6333,-295.56C661.3869,-280.0395 762.5883,-150.2307 696,-96.0858 655.2008,-62.9108 272.9891,-46.2866 216,-95.0858 171.5841,-133.1187 233.9745,-355.0858 175.5,-355.0858"/>
<polygon fill="#000000" stroke="#000000" points="731.0447,-296.2409 738.6198,-300.6657 735.0224,-296.6634 739,-297.0858 739,-297.0858 739,-297.0858 735.0224,-296.6634 739.3802,-293.506 731.0447,-296.2409 731.0447,-296.2409"/>
<ellipse fill="none" stroke="#000000" cx="727.8626" cy="-295.9029" rx="3.2" ry="3.2"/>
</g>
</g>
</svg>
