<?xml version="1.0" encoding="UTF-8" standalone="no"?>
<!DOCTYPE svg PUBLIC "-//W3C//DTD SVG 1.1//EN"
 "http://www.w3.org/Graphics/SVG/1.1/DTD/svg11.dtd">
<!-- Generated by graphviz version 2.40.1 (20161225.0304)
 -->
<!-- Title: oneDegreeRelationshipsDiagram Pages: 1 -->
<svg width="625pt" height="821pt"
 viewBox="0.00 0.00 625.00 820.70" xmlns="http://www.w3.org/2000/svg" xmlns:xlink="http://www.w3.org/1999/xlink">
<g id="graph0" class="graph" transform="scale(1 1) rotate(0) translate(4 816.7)">
<title>oneDegreeRelationshipsDiagram</title>
<polygon fill="#ffffff" stroke="transparent" points="-4,4 -4,-816.7 621,-816.7 621,4 -4,4"/>
<text text-anchor="middle" x="72.4936" y="-7.3" font-family="Helvetica,sans-Serif" font-size="11.00" fill="#000000">Generated by SchemaSpy</text>
<!-- form_eye_postseg -->
<g id="node1" class="node">
<title>form_eye_postseg</title>
<g id="a_node1"><a xlink:href="../../tables/form_eye_postseg.html" xlink:title="form_eye_postseg" target="_top">
<polygon fill="#ffffff" stroke="transparent" points="334,-38.2 334,-634.2 609,-634.2 609,-38.2 334,-38.2"/>
<polygon fill="#f5f5f5" stroke="transparent" points="336.5,-609.2 336.5,-632.2 607.5,-632.2 607.5,-609.2 336.5,-609.2"/>
<polygon fill="none" stroke="#000000" points="336.5,-609.2 336.5,-632.2 607.5,-632.2 607.5,-609.2 336.5,-609.2"/>
<text text-anchor="start" x="341.5" y="-617.8" font-family="Helvetica,sans-Serif" font-weight="bold" font-size="11.00" fill="#000000">form_eye_postseg</text>
<text text-anchor="start" x="572.5437" y="-617.3" font-family="Helvetica,sans-Serif" font-size="11.00" fill="#000000">[table]</text>
<polygon fill="none" stroke="#000000" points="336.5,-587.2 336.5,-609.2 490.5,-609.2 490.5,-587.2 336.5,-587.2"/>
<image xlink:href="../../images/primaryKeys.png" width="11px" height="12px" preserveAspectRatio="xMinYMin meet" x="341.5" y="-604.2"/>
<text text-anchor="start" x="356.5" y="-594.3" font-family="Helvetica,sans-Serif" font-size="11.00" fill="#000000">id</text>
<polygon fill="none" stroke="#000000" points="490.5,-587.2 490.5,-609.2 607.5,-609.2 607.5,-587.2 490.5,-587.2"/>
<text text-anchor="start" x="493.5" y="-594.9" font-family="Helvetica,sans-Serif" font-size="11.00" fill="#000000">bigint[19]</text>
<polygon fill="#ffffff" stroke="transparent" points="336.5,-565.2 336.5,-587.2 490.5,-587.2 490.5,-565.2 336.5,-565.2"/>
<polygon fill="none" stroke="#000000" points="336.5,-565.2 336.5,-587.2 490.5,-587.2 490.5,-565.2 336.5,-565.2"/>
<image xlink:href="../../images/foreignKeys.png" width="11px" height="12px" preserveAspectRatio="xMinYMin meet" x="341.5" y="-582.2"/>
<text text-anchor="start" x="356.5" y="-572.3" font-family="Helvetica,sans-Serif" font-size="11.00" fill="#000000">pid</text>
<polygon fill="none" stroke="#000000" points="490.5,-565.2 490.5,-587.2 607.5,-587.2 607.5,-565.2 490.5,-565.2"/>
<text text-anchor="start" x="493.5" y="-572.9" font-family="Helvetica,sans-Serif" font-size="11.00" fill="#000000">bigint[19]</text>
<polygon fill="none" stroke="#000000" points="336.5,-543.2 336.5,-565.2 490.5,-565.2 490.5,-543.2 336.5,-543.2"/>
<text text-anchor="start" x="356.5" y="-550.3" font-family="Helvetica,sans-Serif" font-size="11.00" fill="#000000">ODDISC</text>
<polygon fill="none" stroke="#000000" points="490.5,-543.2 490.5,-565.2 607.5,-565.2 607.5,-543.2 490.5,-543.2"/>
<text text-anchor="start" x="493.5" y="-550.9" font-family="Helvetica,sans-Serif" font-size="11.00" fill="#000000">text[65535]</text>
<polygon fill="none" stroke="#000000" points="336.5,-521.2 336.5,-543.2 490.5,-543.2 490.5,-521.2 336.5,-521.2"/>
<text text-anchor="start" x="356.5" y="-528.3" font-family="Helvetica,sans-Serif" font-size="11.00" fill="#000000">OSDISC</text>
<polygon fill="none" stroke="#000000" points="490.5,-521.2 490.5,-543.2 607.5,-543.2 607.5,-521.2 490.5,-521.2"/>
<text text-anchor="start" x="493.5" y="-528.9" font-family="Helvetica,sans-Serif" font-size="11.00" fill="#000000">text[65535]</text>
<polygon fill="none" stroke="#000000" points="336.5,-499.2 336.5,-521.2 490.5,-521.2 490.5,-499.2 336.5,-499.2"/>
<text text-anchor="start" x="356.5" y="-506.3" font-family="Helvetica,sans-Serif" font-size="11.00" fill="#000000">ODCUP</text>
<polygon fill="none" stroke="#000000" points="490.5,-499.2 490.5,-521.2 607.5,-521.2 607.5,-499.2 490.5,-499.2"/>
<text text-anchor="start" x="493.5" y="-506.9" font-family="Helvetica,sans-Serif" font-size="11.00" fill="#000000">text[65535]</text>
<polygon fill="none" stroke="#000000" points="336.5,-477.2 336.5,-499.2 490.5,-499.2 490.5,-477.2 336.5,-477.2"/>
<text text-anchor="start" x="356.5" y="-484.3" font-family="Helvetica,sans-Serif" font-size="11.00" fill="#000000">OSCUP</text>
<polygon fill="none" stroke="#000000" points="490.5,-477.2 490.5,-499.2 607.5,-499.2 607.5,-477.2 490.5,-477.2"/>
<text text-anchor="start" x="493.5" y="-484.9" font-family="Helvetica,sans-Serif" font-size="11.00" fill="#000000">text[65535]</text>
<polygon fill="none" stroke="#000000" points="336.5,-455.2 336.5,-477.2 490.5,-477.2 490.5,-455.2 336.5,-455.2"/>
<text text-anchor="start" x="356.5" y="-462.3" font-family="Helvetica,sans-Serif" font-size="11.00" fill="#000000">ODMACULA</text>
<polygon fill="none" stroke="#000000" points="490.5,-455.2 490.5,-477.2 607.5,-477.2 607.5,-455.2 490.5,-455.2"/>
<text text-anchor="start" x="493.5" y="-462.9" font-family="Helvetica,sans-Serif" font-size="11.00" fill="#000000">text[65535]</text>
<polygon fill="none" stroke="#000000" points="336.5,-433.2 336.5,-455.2 490.5,-455.2 490.5,-433.2 336.5,-433.2"/>
<text text-anchor="start" x="356.5" y="-440.3" font-family="Helvetica,sans-Serif" font-size="11.00" fill="#000000">OSMACULA</text>
<polygon fill="none" stroke="#000000" points="490.5,-433.2 490.5,-455.2 607.5,-455.2 607.5,-433.2 490.5,-433.2"/>
<text text-anchor="start" x="493.5" y="-440.9" font-family="Helvetica,sans-Serif" font-size="11.00" fill="#000000">text[65535]</text>
<polygon fill="none" stroke="#000000" points="336.5,-411.2 336.5,-433.2 490.5,-433.2 490.5,-411.2 336.5,-411.2"/>
<text text-anchor="start" x="356.5" y="-418.3" font-family="Helvetica,sans-Serif" font-size="11.00" fill="#000000">ODVESSELS</text>
<polygon fill="none" stroke="#000000" points="490.5,-411.2 490.5,-433.2 607.5,-433.2 607.5,-411.2 490.5,-411.2"/>
<text text-anchor="start" x="493.5" y="-418.9" font-family="Helvetica,sans-Serif" font-size="11.00" fill="#000000">text[65535]</text>
<polygon fill="none" stroke="#000000" points="336.5,-389.2 336.5,-411.2 490.5,-411.2 490.5,-389.2 336.5,-389.2"/>
<text text-anchor="start" x="356.5" y="-396.3" font-family="Helvetica,sans-Serif" font-size="11.00" fill="#000000">OSVESSELS</text>
<polygon fill="none" stroke="#000000" points="490.5,-389.2 490.5,-411.2 607.5,-411.2 607.5,-389.2 490.5,-389.2"/>
<text text-anchor="start" x="493.5" y="-396.9" font-family="Helvetica,sans-Serif" font-size="11.00" fill="#000000">text[65535]</text>
<polygon fill="none" stroke="#000000" points="336.5,-367.2 336.5,-389.2 490.5,-389.2 490.5,-367.2 336.5,-367.2"/>
<text text-anchor="start" x="356.5" y="-374.3" font-family="Helvetica,sans-Serif" font-size="11.00" fill="#000000">ODVITREOUS</text>
<polygon fill="none" stroke="#000000" points="490.5,-367.2 490.5,-389.2 607.5,-389.2 607.5,-367.2 490.5,-367.2"/>
<text text-anchor="start" x="493.5" y="-374.9" font-family="Helvetica,sans-Serif" font-size="11.00" fill="#000000">text[65535]</text>
<polygon fill="none" stroke="#000000" points="336.5,-345.2 336.5,-367.2 490.5,-367.2 490.5,-345.2 336.5,-345.2"/>
<text text-anchor="start" x="356.5" y="-352.3" font-family="Helvetica,sans-Serif" font-size="11.00" fill="#000000">OSVITREOUS</text>
<polygon fill="none" stroke="#000000" points="490.5,-345.2 490.5,-367.2 607.5,-367.2 607.5,-345.2 490.5,-345.2"/>
<text text-anchor="start" x="493.5" y="-352.9" font-family="Helvetica,sans-Serif" font-size="11.00" fill="#000000">text[65535]</text>
<polygon fill="none" stroke="#000000" points="336.5,-323.2 336.5,-345.2 490.5,-345.2 490.5,-323.2 336.5,-323.2"/>
<text text-anchor="start" x="356.5" y="-330.3" font-family="Helvetica,sans-Serif" font-size="11.00" fill="#000000">ODPERIPH</text>
<polygon fill="none" stroke="#000000" points="490.5,-323.2 490.5,-345.2 607.5,-345.2 607.5,-323.2 490.5,-323.2"/>
<text text-anchor="start" x="493.5" y="-330.9" font-family="Helvetica,sans-Serif" font-size="11.00" fill="#000000">text[65535]</text>
<polygon fill="none" stroke="#000000" points="336.5,-301.2 336.5,-323.2 490.5,-323.2 490.5,-301.2 336.5,-301.2"/>
<text text-anchor="start" x="356.5" y="-308.3" font-family="Helvetica,sans-Serif" font-size="11.00" fill="#000000">OSPERIPH</text>
<polygon fill="none" stroke="#000000" points="490.5,-301.2 490.5,-323.2 607.5,-323.2 607.5,-301.2 490.5,-301.2"/>
<text text-anchor="start" x="493.5" y="-308.9" font-family="Helvetica,sans-Serif" font-size="11.00" fill="#000000">text[65535]</text>
<polygon fill="none" stroke="#000000" points="336.5,-279.2 336.5,-301.2 490.5,-301.2 490.5,-279.2 336.5,-279.2"/>
<text text-anchor="start" x="356.5" y="-286.3" font-family="Helvetica,sans-Serif" font-size="11.00" fill="#000000">ODCMT</text>
<polygon fill="none" stroke="#000000" points="490.5,-279.2 490.5,-301.2 607.5,-301.2 607.5,-279.2 490.5,-279.2"/>
<text text-anchor="start" x="493.5" y="-286.9" font-family="Helvetica,sans-Serif" font-size="11.00" fill="#000000">text[65535]</text>
<polygon fill="none" stroke="#000000" points="336.5,-257.2 336.5,-279.2 490.5,-279.2 490.5,-257.2 336.5,-257.2"/>
<text text-anchor="start" x="356.5" y="-264.3" font-family="Helvetica,sans-Serif" font-size="11.00" fill="#000000">OSCMT</text>
<polygon fill="none" stroke="#000000" points="490.5,-257.2 490.5,-279.2 607.5,-279.2 607.5,-257.2 490.5,-257.2"/>
<text text-anchor="start" x="493.5" y="-264.9" font-family="Helvetica,sans-Serif" font-size="11.00" fill="#000000">text[65535]</text>
<polygon fill="none" stroke="#000000" points="336.5,-235.2 336.5,-257.2 490.5,-257.2 490.5,-235.2 336.5,-235.2"/>
<text text-anchor="start" x="356.5" y="-242.3" font-family="Helvetica,sans-Serif" font-size="11.00" fill="#000000">RETINA_COMMENTS</text>
<polygon fill="none" stroke="#000000" points="490.5,-235.2 490.5,-257.2 607.5,-257.2 607.5,-235.2 490.5,-235.2"/>
<text text-anchor="start" x="493.5" y="-242.9" font-family="Helvetica,sans-Serif" font-size="11.00" fill="#000000">text[65535]</text>
<polygon fill="none" stroke="#000000" points="336.5,-213.2 336.5,-235.2 490.5,-235.2 490.5,-213.2 336.5,-213.2"/>
<text text-anchor="start" x="356.5" y="-220.3" font-family="Helvetica,sans-Serif" font-size="11.00" fill="#000000">DIL_RISKS</text>
<polygon fill="none" stroke="#000000" points="490.5,-213.2 490.5,-235.2 607.5,-235.2 607.5,-213.2 490.5,-213.2"/>
<text text-anchor="start" x="493.5" y="-220.9" font-family="Helvetica,sans-Serif" font-size="11.00" fill="#000000">char[2]</text>
<polygon fill="none" stroke="#000000" points="336.5,-191.2 336.5,-213.2 490.5,-213.2 490.5,-191.2 336.5,-191.2"/>
<text text-anchor="start" x="356.5" y="-198.3" font-family="Helvetica,sans-Serif" font-size="11.00" fill="#000000">DIL_MEDS</text>
<polygon fill="none" stroke="#000000" points="490.5,-191.2 490.5,-213.2 607.5,-213.2 607.5,-191.2 490.5,-191.2"/>
<text text-anchor="start" x="493.0645" y="-198.9" font-family="Helvetica,sans-Serif" font-size="11.00" fill="#000000">mediumtext[16777215]</text>
<polygon fill="none" stroke="#000000" points="336.5,-169.2 336.5,-191.2 490.5,-191.2 490.5,-169.2 336.5,-169.2"/>
<text text-anchor="start" x="356.5" y="-176.3" font-family="Helvetica,sans-Serif" font-size="11.00" fill="#000000">WETTYPE</text>
<polygon fill="none" stroke="#000000" points="490.5,-169.2 490.5,-191.2 607.5,-191.2 607.5,-169.2 490.5,-169.2"/>
<text text-anchor="start" x="493.5" y="-176.9" font-family="Helvetica,sans-Serif" font-size="11.00" fill="#000000">varchar[10]</text>
<polygon fill="none" stroke="#000000" points="336.5,-147.2 336.5,-169.2 490.5,-169.2 490.5,-147.2 336.5,-147.2"/>
<text text-anchor="start" x="356.5" y="-154.3" font-family="Helvetica,sans-Serif" font-size="11.00" fill="#000000">ATROPINE</text>
<polygon fill="none" stroke="#000000" points="490.5,-147.2 490.5,-169.2 607.5,-169.2 607.5,-147.2 490.5,-147.2"/>
<text text-anchor="start" x="493.5" y="-154.9" font-family="Helvetica,sans-Serif" font-size="11.00" fill="#000000">varchar[25]</text>
<polygon fill="none" stroke="#000000" points="336.5,-125.2 336.5,-147.2 490.5,-147.2 490.5,-125.2 336.5,-125.2"/>
<text text-anchor="start" x="356.5" y="-132.3" font-family="Helvetica,sans-Serif" font-size="11.00" fill="#000000">CYCLOMYDRIL</text>
<polygon fill="none" stroke="#000000" points="490.5,-125.2 490.5,-147.2 607.5,-147.2 607.5,-125.2 490.5,-125.2"/>
<text text-anchor="start" x="493.5" y="-132.9" font-family="Helvetica,sans-Serif" font-size="11.00" fill="#000000">varchar[25]</text>
<polygon fill="none" stroke="#000000" points="336.5,-103.2 336.5,-125.2 490.5,-125.2 490.5,-103.2 336.5,-103.2"/>
<text text-anchor="start" x="356.5" y="-110.3" font-family="Helvetica,sans-Serif" font-size="11.00" fill="#000000">TROPICAMIDE</text>
<polygon fill="none" stroke="#000000" points="490.5,-103.2 490.5,-125.2 607.5,-125.2 607.5,-103.2 490.5,-103.2"/>
<text text-anchor="start" x="493.5" y="-110.9" font-family="Helvetica,sans-Serif" font-size="11.00" fill="#000000">varchar[25]</text>
<polygon fill="none" stroke="#000000" points="336.5,-81.2 336.5,-103.2 490.5,-103.2 490.5,-81.2 336.5,-81.2"/>
<text text-anchor="start" x="356.5" y="-88.3" font-family="Helvetica,sans-Serif" font-size="11.00" fill="#000000">CYCLOGYL</text>
<polygon fill="none" stroke="#000000" points="490.5,-81.2 490.5,-103.2 607.5,-103.2 607.5,-81.2 490.5,-81.2"/>
<text text-anchor="start" x="493.5" y="-88.9" font-family="Helvetica,sans-Serif" font-size="11.00" fill="#000000">varchar[25]</text>
<polygon fill="none" stroke="#000000" points="336.5,-59.2 336.5,-81.2 490.5,-81.2 490.5,-59.2 336.5,-59.2"/>
<text text-anchor="start" x="356.5" y="-66.3" font-family="Helvetica,sans-Serif" font-size="11.00" fill="#000000">NEO25</text>
<polygon fill="none" stroke="#000000" points="490.5,-59.2 490.5,-81.2 607.5,-81.2 607.5,-59.2 490.5,-59.2"/>
<text text-anchor="start" x="493.5" y="-66.9" font-family="Helvetica,sans-Serif" font-size="11.00" fill="#000000">varchar[25]</text>
<polygon fill="#ffffff" stroke="transparent" points="336.5,-40.2 336.5,-59.2 417.5,-59.2 417.5,-40.2 336.5,-40.2"/>
<polygon fill="none" stroke="#000000" points="336.5,-40.2 336.5,-59.2 417.5,-59.2 417.5,-40.2 336.5,-40.2"/>
<text text-anchor="start" x="339.5" y="-46.3" font-family="Helvetica,sans-Serif" font-size="11.00" fill="#000000">&lt; 1</text>
<polygon fill="#ffffff" stroke="transparent" points="417.5,-40.2 417.5,-59.2 490.5,-59.2 490.5,-40.2 417.5,-40.2"/>
<polygon fill="none" stroke="#000000" points="417.5,-40.2 417.5,-59.2 490.5,-59.2 490.5,-40.2 417.5,-40.2"/>
<text text-anchor="start" x="481.3862" y="-46.3" font-family="Helvetica,sans-Serif" font-size="11.00" fill="#000000"> &#160;</text>
<polygon fill="#ffffff" stroke="transparent" points="490.5,-40.2 490.5,-59.2 607.5,-59.2 607.5,-40.2 490.5,-40.2"/>
<polygon fill="none" stroke="#000000" points="490.5,-40.2 490.5,-59.2 607.5,-59.2 607.5,-40.2 490.5,-40.2"/>
<text text-anchor="start" x="588.9053" y="-46.3" font-family="Helvetica,sans-Serif" font-size="11.00" fill="#000000">0 &gt;</text>
<polygon fill="none" stroke="#000000" stroke-width="2" points="335,-39.2 335,-633.2 608,-633.2 608,-39.2 335,-39.2"/>
</a>
</g>
</g>
<!-- patient_data -->
<g id="node2" class="node">
<title>patient_data</title>
<g id="a_node2"><a xlink:href="../../tables/patient_data.html" xlink:title="patient_data" target="_top">
<polygon fill="#ffffff" stroke="transparent" points="8,-417.7 8,-808.7 285,-808.7 285,-417.7 8,-417.7"/>
<polygon fill="#f5f5f5" stroke="transparent" points="8.5,-785.2 8.5,-808.2 285.5,-808.2 285.5,-785.2 8.5,-785.2"/>
<polygon fill="none" stroke="#000000" points="8.5,-785.2 8.5,-808.2 285.5,-808.2 285.5,-785.2 8.5,-785.2"/>
<text text-anchor="start" x="13.5" y="-793.8" font-family="Helvetica,sans-Serif" font-weight="bold" font-size="11.00" fill="#000000">patient_data</text>
<text text-anchor="start" x="250.5437" y="-793.3" font-family="Helvetica,sans-Serif" font-size="11.00" fill="#000000">[table]</text>
<polygon fill="none" stroke="#000000" points="8.5,-763.2 8.5,-785.2 285.5,-785.2 285.5,-763.2 8.5,-763.2"/>
<image xlink:href="../../images/primaryKeys.png" width="11px" height="12px" preserveAspectRatio="xMinYMin meet" x="13.5" y="-780.2"/>
<text text-anchor="start" x="28.5" y="-770.3" font-family="Helvetica,sans-Serif" font-size="11.00" fill="#000000">id</text>
<polygon fill="#ffffff" stroke="transparent" points="8.5,-741.2 8.5,-763.2 285.5,-763.2 285.5,-741.2 8.5,-741.2"/>
<polygon fill="none" stroke="#000000" points="8.5,-741.2 8.5,-763.2 285.5,-763.2 285.5,-741.2 8.5,-741.2"/>
<text text-anchor="start" x="28.5" y="-748.3" font-family="Helvetica,sans-Serif" font-size="11.00" fill="#000000">uuid</text>
<polygon fill="#ffffff" stroke="transparent" points="8.5,-719.2 8.5,-741.2 285.5,-741.2 285.5,-719.2 8.5,-719.2"/>
<polygon fill="none" stroke="#000000" points="8.5,-719.2 8.5,-741.2 285.5,-741.2 285.5,-719.2 8.5,-719.2"/>
<text text-anchor="start" x="28.5" y="-726.3" font-family="Helvetica,sans-Serif" font-size="11.00" fill="#000000">fname</text>
<polygon fill="#ffffff" stroke="transparent" points="8.5,-697.2 8.5,-719.2 285.5,-719.2 285.5,-697.2 8.5,-697.2"/>
<polygon fill="none" stroke="#000000" points="8.5,-697.2 8.5,-719.2 285.5,-719.2 285.5,-697.2 8.5,-697.2"/>
<text text-anchor="start" x="28.5" y="-704.3" font-family="Helvetica,sans-Serif" font-size="11.00" fill="#000000">lname</text>
<polygon fill="#ffffff" stroke="transparent" points="8.5,-675.2 8.5,-697.2 285.5,-697.2 285.5,-675.2 8.5,-675.2"/>
<polygon fill="none" stroke="#000000" points="8.5,-675.2 8.5,-697.2 285.5,-697.2 285.5,-675.2 8.5,-675.2"/>
<text text-anchor="start" x="28.5" y="-682.3" font-family="Helvetica,sans-Serif" font-size="11.00" fill="#000000">DOB</text>
<polygon fill="none" stroke="#000000" points="8.5,-653.2 8.5,-675.2 285.5,-675.2 285.5,-653.2 8.5,-653.2"/>
<image xlink:href="../../images/foreignKeys.png" width="11px" height="12px" preserveAspectRatio="xMinYMin meet" x="13.5" y="-670.2"/>
<text text-anchor="start" x="28.5" y="-660.3" font-family="Helvetica,sans-Serif" font-size="11.00" fill="#000000">pharmacy_id</text>
<polygon fill="none" stroke="#000000" points="8.5,-631.2 8.5,-653.2 285.5,-653.2 285.5,-631.2 8.5,-631.2"/>
<image xlink:href="../../images/foreignKeys.png" width="11px" height="12px" preserveAspectRatio="xMinYMin meet" x="13.5" y="-648.2"/>
<text text-anchor="start" x="28.5" y="-638.3" font-family="Helvetica,sans-Serif" font-size="11.00" fill="#000000">providerID</text>
<polygon fill="none" stroke="#000000" points="8.5,-609.2 8.5,-631.2 285.5,-631.2 285.5,-609.2 8.5,-609.2"/>
<image xlink:href="../../images/foreignKeys.png" width="11px" height="12px" preserveAspectRatio="xMinYMin meet" x="13.5" y="-626.2"/>
<text text-anchor="start" x="28.5" y="-616.3" font-family="Helvetica,sans-Serif" font-size="11.00" fill="#000000">ref_providerID</text>
<polygon fill="none" stroke="#000000" points="8.5,-587.2 8.5,-609.2 285.5,-609.2 285.5,-587.2 8.5,-587.2"/>
<image xlink:href="../../images/foreignKeys.png" width="11px" height="12px" preserveAspectRatio="xMinYMin meet" x="13.5" y="-604.2"/>
<text text-anchor="start" x="28.5" y="-594.3" font-family="Helvetica,sans-Serif" font-size="11.00" fill="#000000">interpreter_needed</text>
<polygon fill="none" stroke="#000000" points="8.5,-565.2 8.5,-587.2 285.5,-587.2 285.5,-565.2 8.5,-565.2"/>
<image xlink:href="../../images/primaryKeys.png" width="11px" height="12px" preserveAspectRatio="xMinYMin meet" x="13.5" y="-582.2"/>
<text text-anchor="start" x="28.5" y="-572.3" font-family="Helvetica,sans-Serif" font-size="11.00" fill="#000000">pid</text>
<polygon fill="none" stroke="#000000" points="8.5,-543.2 8.5,-565.2 285.5,-565.2 285.5,-543.2 8.5,-543.2"/>
<image xlink:href="../../images/foreignKeys.png" width="11px" height="12px" preserveAspectRatio="xMinYMin meet" x="13.5" y="-560.2"/>
<text text-anchor="start" x="28.5" y="-550.3" font-family="Helvetica,sans-Serif" font-size="11.00" fill="#000000">advance_directive_user_authenticator</text>
<polygon fill="none" stroke="#000000" points="8.5,-521.2 8.5,-543.2 285.5,-543.2 285.5,-521.2 8.5,-521.2"/>
<image xlink:href="../../images/foreignKeys.png" width="11px" height="12px" preserveAspectRatio="xMinYMin meet" x="13.5" y="-538.2"/>
<text text-anchor="start" x="28.5" y="-528.3" font-family="Helvetica,sans-Serif" font-size="11.00" fill="#000000">created_by</text>
<polygon fill="none" stroke="#000000" points="8.5,-499.2 8.5,-521.2 285.5,-521.2 285.5,-499.2 8.5,-499.2"/>
<image xlink:href="../../images/foreignKeys.png" width="11px" height="12px" preserveAspectRatio="xMinYMin meet" x="13.5" y="-516.2"/>
<text text-anchor="start" x="28.5" y="-506.3" font-family="Helvetica,sans-Serif" font-size="11.00" fill="#000000">updated_by</text>
<polygon fill="none" stroke="#000000" points="8.5,-477.2 8.5,-499.2 285.5,-499.2 285.5,-477.2 8.5,-477.2"/>
<image xlink:href="../../images/foreignKeys.png" width="11px" height="12px" preserveAspectRatio="xMinYMin meet" x="13.5" y="-494.2"/>
<text text-anchor="start" x="28.5" y="-484.3" font-family="Helvetica,sans-Serif" font-size="11.00" fill="#000000">tribal_affiliations</text>
<polygon fill="none" stroke="#000000" points="8.5,-455.2 8.5,-477.2 285.5,-477.2 285.5,-455.2 8.5,-455.2"/>
<image xlink:href="../../images/foreignKeys.png" width="11px" height="12px" preserveAspectRatio="xMinYMin meet" x="13.5" y="-472.2"/>
<text text-anchor="start" x="28.5" y="-462.3" font-family="Helvetica,sans-Serif" font-size="11.00" fill="#000000">sex_identified</text>
<polygon fill="none" stroke="#000000" points="8.5,-436.2 8.5,-455.2 285.5,-455.2 285.5,-436.2 8.5,-436.2"/>
<text text-anchor="start" x="11.5" y="-442.3" font-family="Helvetica,sans-Serif" font-size="11.00" fill="#000000">...</text>
<polygon fill="#ffffff" stroke="transparent" points="8.5,-417.2 8.5,-436.2 137.5,-436.2 137.5,-417.2 8.5,-417.2"/>
<polygon fill="none" stroke="#000000" points="8.5,-417.2 8.5,-436.2 137.5,-436.2 137.5,-417.2 8.5,-417.2"/>
<text text-anchor="start" x="11.5" y="-423.3" font-family="Helvetica,sans-Serif" font-size="11.00" fill="#000000">&lt; 9</text>
<polygon fill="#ffffff" stroke="transparent" points="137.5,-417.2 137.5,-436.2 203.5,-436.2 203.5,-417.2 137.5,-417.2"/>
<polygon fill="none" stroke="#000000" points="137.5,-417.2 137.5,-436.2 203.5,-436.2 203.5,-417.2 137.5,-417.2"/>
<text text-anchor="start" x="194.3862" y="-423.3" font-family="Helvetica,sans-Serif" font-size="11.00" fill="#000000"> &#160;</text>
<polygon fill="#ffffff" stroke="transparent" points="203.5,-417.2 203.5,-436.2 285.5,-436.2 285.5,-417.2 203.5,-417.2"/>
<polygon fill="none" stroke="#000000" points="203.5,-417.2 203.5,-436.2 285.5,-436.2 285.5,-417.2 203.5,-417.2"/>
<text text-anchor="start" x="260.7904" y="-423.3" font-family="Helvetica,sans-Serif" font-size="11.00" fill="#000000">95 &gt;</text>
</a>
</g>
</g>
<!-- form_eye_postseg&#45;&gt;patient_data -->
<g id="edge1" class="edge">
<title>form_eye_postseg:w&#45;&gt;patient_data:e</title>
<path fill="none" stroke="#000000" d="M321.776,-576.2C309.7815,-576.2 302.3229,-576.2 285.5,-576.2"/>
<polygon fill="#000000" stroke="#000000" points="328.5,-576.2001 336.5,-579.8 332.5,-576.2 336.5,-576.2 336.5,-576.2 336.5,-576.2 332.5,-576.2 336.5,-572.6 328.5,-576.2001 328.5,-576.2001"/>
<ellipse fill="none" stroke="#000000" cx="325.3" cy="-576.2001" rx="3.2" ry="3.2"/>
</g>
</g>
</svg>
