<?xml version="1.0" encoding="UTF-8" standalone="no"?>
<!DOCTYPE svg PUBLIC "-//W3C//DTD SVG 1.1//EN"
 "http://www.w3.org/Graphics/SVG/1.1/DTD/svg11.dtd">
<!-- Generated by graphviz version 2.40.1 (20161225.0304)
 -->
<!-- Title: twoDegreesRelationshipsDiagram Pages: 1 -->
<svg width="972pt" height="333pt"
 viewBox="0.00 0.00 972.00 332.70" xmlns="http://www.w3.org/2000/svg" xmlns:xlink="http://www.w3.org/1999/xlink">
<g id="graph0" class="graph" transform="scale(1 1) rotate(0) translate(4 328.7)">
<title>twoDegreesRelationshipsDiagram</title>
<polygon fill="#ffffff" stroke="transparent" points="-4,4 -4,-328.7 968,-328.7 968,4 -4,4"/>
<text text-anchor="middle" x="72.4936" y="-7.3" font-family="Helvetica,sans-Serif" font-size="11.00" fill="#000000">Generated by SchemaSpy</text>
<!-- form_encounter -->
<g id="node1" class="node">
<title>form_encounter</title>
<g id="a_node1"><a xlink:href="../../tables/form_encounter.html" xlink:title="form_encounter" target="_top">
<polygon fill="#ffffff" stroke="transparent" points="181,-129.2 181,-190.2 326,-190.2 326,-129.2 181,-129.2"/>
<polygon fill="#f5f5f5" stroke="transparent" points="181.5,-166.7 181.5,-189.7 326.5,-189.7 326.5,-166.7 181.5,-166.7"/>
<polygon fill="none" stroke="#000000" points="181.5,-166.7 181.5,-189.7 326.5,-189.7 326.5,-166.7 181.5,-166.7"/>
<text text-anchor="start" x="186.5" y="-175.3" font-family="Helvetica,sans-Serif" font-weight="bold" font-size="11.00" fill="#000000">form_encounter</text>
<text text-anchor="start" x="292.0219" y="-174.8" font-family="Helvetica,sans-Serif" font-size="11.00" fill="#000000">[table]</text>
<polygon fill="none" stroke="#000000" points="181.5,-147.7 181.5,-166.7 326.5,-166.7 326.5,-147.7 181.5,-147.7"/>
<text text-anchor="start" x="184.5" y="-153.8" font-family="Helvetica,sans-Serif" font-size="11.00" fill="#000000">...</text>
<polygon fill="#ffffff" stroke="transparent" points="181.5,-128.7 181.5,-147.7 244.5,-147.7 244.5,-128.7 181.5,-128.7"/>
<polygon fill="none" stroke="#000000" points="181.5,-128.7 181.5,-147.7 244.5,-147.7 244.5,-128.7 181.5,-128.7"/>
<text text-anchor="start" x="184.5" y="-134.8" font-family="Helvetica,sans-Serif" font-size="11.00" fill="#000000">&lt; 1</text>
<polygon fill="#ffffff" stroke="transparent" points="244.5,-128.7 244.5,-147.7 277.5,-147.7 277.5,-128.7 244.5,-128.7"/>
<polygon fill="none" stroke="#000000" points="244.5,-128.7 244.5,-147.7 277.5,-147.7 277.5,-128.7 244.5,-128.7"/>
<text text-anchor="start" x="268.3862" y="-134.8" font-family="Helvetica,sans-Serif" font-size="11.00" fill="#000000"> &#160;</text>
<polygon fill="#ffffff" stroke="transparent" points="277.5,-128.7 277.5,-147.7 326.5,-147.7 326.5,-128.7 277.5,-128.7"/>
<polygon fill="none" stroke="#000000" points="277.5,-128.7 277.5,-147.7 326.5,-147.7 326.5,-128.7 277.5,-128.7"/>
<text text-anchor="start" x="301.7904" y="-134.8" font-family="Helvetica,sans-Serif" font-size="11.00" fill="#000000">19 &gt;</text>
</a>
</g>
</g>
<!-- patient_data -->
<g id="node2" class="node">
<title>patient_data</title>
<g id="a_node2"><a xlink:href="../../tables/patient_data.html" xlink:title="patient_data" target="_top">
<polygon fill="#ffffff" stroke="transparent" points="8,-103.2 8,-164.2 132,-164.2 132,-103.2 8,-103.2"/>
<polygon fill="#f5f5f5" stroke="transparent" points="8,-140.7 8,-163.7 132,-163.7 132,-140.7 8,-140.7"/>
<polygon fill="none" stroke="#000000" points="8,-140.7 8,-163.7 132,-163.7 132,-140.7 8,-140.7"/>
<text text-anchor="start" x="13" y="-149.3" font-family="Helvetica,sans-Serif" font-weight="bold" font-size="11.00" fill="#000000">patient_data</text>
<text text-anchor="start" x="97.5219" y="-148.8" font-family="Helvetica,sans-Serif" font-size="11.00" fill="#000000">[table]</text>
<polygon fill="none" stroke="#000000" points="8,-121.7 8,-140.7 132,-140.7 132,-121.7 8,-121.7"/>
<text text-anchor="start" x="11" y="-127.8" font-family="Helvetica,sans-Serif" font-size="11.00" fill="#000000">...</text>
<polygon fill="#ffffff" stroke="transparent" points="8,-102.7 8,-121.7 61,-121.7 61,-102.7 8,-102.7"/>
<polygon fill="none" stroke="#000000" points="8,-102.7 8,-121.7 61,-121.7 61,-102.7 8,-102.7"/>
<text text-anchor="start" x="11" y="-108.8" font-family="Helvetica,sans-Serif" font-size="11.00" fill="#000000">&lt; 9</text>
<polygon fill="#ffffff" stroke="transparent" points="61,-102.7 61,-121.7 89,-121.7 89,-102.7 61,-102.7"/>
<polygon fill="none" stroke="#000000" points="61,-102.7 61,-121.7 89,-121.7 89,-102.7 61,-102.7"/>
<text text-anchor="start" x="79.8862" y="-108.8" font-family="Helvetica,sans-Serif" font-size="11.00" fill="#000000"> &#160;</text>
<polygon fill="#ffffff" stroke="transparent" points="89,-102.7 89,-121.7 132,-121.7 132,-102.7 89,-102.7"/>
<polygon fill="none" stroke="#000000" points="89,-102.7 89,-121.7 132,-121.7 132,-102.7 89,-102.7"/>
<text text-anchor="start" x="107.2904" y="-108.8" font-family="Helvetica,sans-Serif" font-size="11.00" fill="#000000">95 &gt;</text>
</a>
</g>
</g>
<!-- form_encounter&#45;&gt;patient_data -->
<g id="edge1" class="edge">
<title>form_encounter:w&#45;&gt;patient_data:e</title>
<path fill="none" stroke="#000000" d="M167.5104,-153.0848C155.3677,-145.9407 151.0259,-130.7 132,-130.7"/>
<polygon fill="#000000" stroke="#000000" points="173.7544,-154.6984 180.5993,-160.1855 177.6272,-155.6992 181.5,-156.7 181.5,-156.7 181.5,-156.7 177.6272,-155.6992 182.4007,-153.2145 173.7544,-154.6984 173.7544,-154.6984"/>
<ellipse fill="none" stroke="#000000" cx="170.6562" cy="-153.8977" rx="3.2" ry="3.2"/>
</g>
<!-- form_vitals_calculation -->
<g id="node3" class="node">
<title>form_vitals_calculation</title>
<g id="a_node3"><a xlink:href="../../tables/form_vitals_calculation.html" xlink:title="form_vitals_calculation" target="_top">
<polygon fill="#ffffff" stroke="transparent" points="375,-49.2 375,-220.2 568,-220.2 568,-49.2 375,-49.2"/>
<polygon fill="#f5f5f5" stroke="transparent" points="375.5,-196.7 375.5,-219.7 568.5,-219.7 568.5,-196.7 375.5,-196.7"/>
<polygon fill="none" stroke="#000000" points="375.5,-196.7 375.5,-219.7 568.5,-219.7 568.5,-196.7 375.5,-196.7"/>
<text text-anchor="start" x="380.5" y="-205.3" font-family="Helvetica,sans-Serif" font-weight="bold" font-size="11.00" fill="#000000">form_vitals_calculation</text>
<text text-anchor="start" x="534.0219" y="-204.8" font-family="Helvetica,sans-Serif" font-size="11.00" fill="#000000">[table]</text>
<polygon fill="none" stroke="#000000" points="375.5,-174.7 375.5,-196.7 568.5,-196.7 568.5,-174.7 375.5,-174.7"/>
<image xlink:href="../../images/primaryKeys.png" width="11px" height="12px" preserveAspectRatio="xMinYMin meet" x="380.5" y="-191.7"/>
<text text-anchor="start" x="404.5" y="-181.8" font-family="Helvetica,sans-Serif" font-size="11.00" fill="#000000">id</text>
<polygon fill="none" stroke="#000000" points="375.5,-152.7 375.5,-174.7 568.5,-174.7 568.5,-152.7 375.5,-152.7"/>
<image xlink:href="../../images/primaryKeys.png" width="11px" height="12px" preserveAspectRatio="xMinYMin meet" x="380.5" y="-169.7"/>
<text text-anchor="start" x="404.5" y="-159.8" font-family="Helvetica,sans-Serif" font-size="11.00" fill="#000000">uuid</text>
<polygon fill="#ffffff" stroke="transparent" points="375.5,-130.7 375.5,-152.7 568.5,-152.7 568.5,-130.7 375.5,-130.7"/>
<polygon fill="none" stroke="#000000" points="375.5,-130.7 375.5,-152.7 568.5,-152.7 568.5,-130.7 375.5,-130.7"/>
<image xlink:href="../../images/foreignKeys.png" width="11px" height="12px" preserveAspectRatio="xMinYMin meet" x="380.5" y="-147.7"/>
<text text-anchor="start" x="404.5" y="-137.8" font-family="Helvetica,sans-Serif" font-size="11.00" fill="#000000">encounter</text>
<polygon fill="#ffffff" stroke="transparent" points="375.5,-108.7 375.5,-130.7 568.5,-130.7 568.5,-108.7 375.5,-108.7"/>
<polygon fill="none" stroke="#000000" points="375.5,-108.7 375.5,-130.7 568.5,-130.7 568.5,-108.7 375.5,-108.7"/>
<image xlink:href="../../images/foreignKeys.png" width="11px" height="12px" preserveAspectRatio="xMinYMin meet" x="380.5" y="-125.7"/>
<text text-anchor="start" x="404.5" y="-115.8" font-family="Helvetica,sans-Serif" font-size="11.00" fill="#000000">pid</text>
<polygon fill="#ffffff" stroke="transparent" points="375.5,-86.7 375.5,-108.7 568.5,-108.7 568.5,-86.7 375.5,-86.7"/>
<polygon fill="none" stroke="#000000" points="375.5,-86.7 375.5,-108.7 568.5,-108.7 568.5,-86.7 375.5,-86.7"/>
<text text-anchor="start" x="404.5" y="-93.8" font-family="Helvetica,sans-Serif" font-size="11.00" fill="#000000">calculation_id</text>
<polygon fill="none" stroke="#000000" points="375.5,-67.7 375.5,-86.7 568.5,-86.7 568.5,-67.7 375.5,-67.7"/>
<text text-anchor="start" x="378.5" y="-73.8" font-family="Helvetica,sans-Serif" font-size="11.00" fill="#000000">...</text>
<polygon fill="#ffffff" stroke="transparent" points="375.5,-48.7 375.5,-67.7 465.5,-67.7 465.5,-48.7 375.5,-48.7"/>
<polygon fill="none" stroke="#000000" points="375.5,-48.7 375.5,-67.7 465.5,-67.7 465.5,-48.7 375.5,-48.7"/>
<text text-anchor="start" x="378.5" y="-54.8" font-family="Helvetica,sans-Serif" font-size="11.00" fill="#000000">&lt; 2</text>
<polygon fill="#ffffff" stroke="transparent" points="465.5,-48.7 465.5,-67.7 512.5,-67.7 512.5,-48.7 465.5,-48.7"/>
<polygon fill="none" stroke="#000000" points="465.5,-48.7 465.5,-67.7 512.5,-67.7 512.5,-48.7 465.5,-48.7"/>
<text text-anchor="start" x="503.3862" y="-54.8" font-family="Helvetica,sans-Serif" font-size="11.00" fill="#000000"> &#160;</text>
<polygon fill="#ffffff" stroke="transparent" points="512.5,-48.7 512.5,-67.7 568.5,-67.7 568.5,-48.7 512.5,-48.7"/>
<polygon fill="none" stroke="#000000" points="512.5,-48.7 512.5,-67.7 568.5,-67.7 568.5,-48.7 512.5,-48.7"/>
<text text-anchor="start" x="549.9053" y="-54.8" font-family="Helvetica,sans-Serif" font-size="11.00" fill="#000000">2 &gt;</text>
</a>
</g>
</g>
<!-- form_vitals_calculation&#45;&gt;form_encounter -->
<g id="edge2" class="edge">
<title>form_vitals_calculation:w&#45;&gt;form_encounter:e</title>
<path fill="none" stroke="#000000" d="M361.076,-144.1769C349.6616,-148.4374 343.4036,-156.7 326.5,-156.7"/>
<polygon fill="#000000" stroke="#000000" points="367.6154,-143.054 376.1093,-145.2481 371.5577,-142.377 375.5,-141.7 375.5,-141.7 375.5,-141.7 371.5577,-142.377 374.8907,-138.1519 367.6154,-143.054 367.6154,-143.054"/>
<ellipse fill="none" stroke="#000000" cx="364.4616" cy="-143.5956" rx="3.2" ry="3.2"/>
</g>
<!-- form_vitals_calculation&#45;&gt;patient_data -->
<g id="edge3" class="edge">
<title>form_vitals_calculation:w&#45;&gt;patient_data:e</title>
<path fill="none" stroke="#000000" d="M360.8237,-119.5748C282.6365,-118.2253 257.0444,-106.6535 173,-118.7 154.2054,-121.3939 150.9867,-130.7 132,-130.7"/>
<polygon fill="#000000" stroke="#000000" points="367.5003,-119.6317 375.4693,-123.2999 371.5001,-119.6659 375.5,-119.7 375.5,-119.7 375.5,-119.7 371.5001,-119.6659 375.5307,-116.1001 367.5003,-119.6317 367.5003,-119.6317"/>
<ellipse fill="none" stroke="#000000" cx="364.3004" cy="-119.6044" rx="3.2" ry="3.2"/>
</g>
<!-- form_vitals_calculation_components -->
<g id="node4" class="node">
<title>form_vitals_calculation_components</title>
<g id="a_node4"><a xlink:href="../../tables/form_vitals_calculation_components.html" xlink:title="form_vitals_calculation_components" target="_top">
<polygon fill="#ffffff" stroke="transparent" points="617,-120.7 617,-320.7 956,-320.7 956,-120.7 617,-120.7"/>
<polygon fill="#f5f5f5" stroke="transparent" points="619.5,-295.7 619.5,-318.7 954.5,-318.7 954.5,-295.7 619.5,-295.7"/>
<polygon fill="none" stroke="#000000" points="619.5,-295.7 619.5,-318.7 954.5,-318.7 954.5,-295.7 619.5,-295.7"/>
<text text-anchor="start" x="624.5" y="-304.3" font-family="Helvetica,sans-Serif" font-weight="bold" font-size="11.00" fill="#000000">form_vitals_calculation_components</text>
<text text-anchor="start" x="919.5437" y="-303.8" font-family="Helvetica,sans-Serif" font-size="11.00" fill="#000000">[table]</text>
<polygon fill="none" stroke="#000000" points="619.5,-273.7 619.5,-295.7 883.5,-295.7 883.5,-273.7 619.5,-273.7"/>
<image xlink:href="../../images/primaryKeys.png" width="11px" height="12px" preserveAspectRatio="xMinYMin meet" x="624.5" y="-290.7"/>
<text text-anchor="start" x="639.5" y="-280.8" font-family="Helvetica,sans-Serif" font-size="11.00" fill="#000000">id</text>
<polygon fill="none" stroke="#000000" points="883.5,-273.7 883.5,-295.7 954.5,-295.7 954.5,-273.7 883.5,-273.7"/>
<text text-anchor="start" x="886.5" y="-281.4" font-family="Helvetica,sans-Serif" font-size="11.00" fill="#000000">int[10]</text>
<polygon fill="#ffffff" stroke="transparent" points="619.5,-251.7 619.5,-273.7 883.5,-273.7 883.5,-251.7 619.5,-251.7"/>
<polygon fill="none" stroke="#000000" points="619.5,-251.7 619.5,-273.7 883.5,-273.7 883.5,-251.7 619.5,-251.7"/>
<image xlink:href="../../images/foreignKeys.png" width="11px" height="12px" preserveAspectRatio="xMinYMin meet" x="624.5" y="-268.7"/>
<text text-anchor="start" x="639.5" y="-258.8" font-family="Helvetica,sans-Serif" font-size="11.00" fill="#000000">fvc_uuid</text>
<polygon fill="none" stroke="#000000" points="883.5,-251.7 883.5,-273.7 954.5,-273.7 954.5,-251.7 883.5,-251.7"/>
<text text-anchor="start" x="886.5" y="-259.4" font-family="Helvetica,sans-Serif" font-size="11.00" fill="#000000">binary[16]</text>
<polygon fill="#ffffff" stroke="transparent" points="619.5,-229.7 619.5,-251.7 883.5,-251.7 883.5,-229.7 619.5,-229.7"/>
<polygon fill="none" stroke="#000000" points="619.5,-229.7 619.5,-251.7 883.5,-251.7 883.5,-229.7 619.5,-229.7"/>
<text text-anchor="start" x="639.5" y="-236.8" font-family="Helvetica,sans-Serif" font-size="11.00" fill="#000000">vitals_column</text>
<polygon fill="none" stroke="#000000" points="883.5,-229.7 883.5,-251.7 954.5,-251.7 954.5,-229.7 883.5,-229.7"/>
<text text-anchor="start" x="886.5" y="-237.4" font-family="Helvetica,sans-Serif" font-size="11.00" fill="#000000">varchar[64]</text>
<polygon fill="none" stroke="#000000" points="619.5,-207.7 619.5,-229.7 883.5,-229.7 883.5,-207.7 619.5,-207.7"/>
<text text-anchor="start" x="639.5" y="-214.8" font-family="Helvetica,sans-Serif" font-size="11.00" fill="#000000">value</text>
<polygon fill="none" stroke="#000000" points="883.5,-207.7 883.5,-229.7 954.5,-229.7 954.5,-207.7 883.5,-207.7"/>
<text text-anchor="start" x="886.2981" y="-215.4" font-family="Helvetica,sans-Serif" font-size="11.00" fill="#000000">decimal[12,6]</text>
<polygon fill="none" stroke="#000000" points="619.5,-185.7 619.5,-207.7 883.5,-207.7 883.5,-185.7 619.5,-185.7"/>
<text text-anchor="start" x="639.5" y="-192.8" font-family="Helvetica,sans-Serif" font-size="11.00" fill="#000000">value_string</text>
<polygon fill="none" stroke="#000000" points="883.5,-185.7 883.5,-207.7 954.5,-207.7 954.5,-185.7 883.5,-185.7"/>
<text text-anchor="start" x="886.5" y="-193.4" font-family="Helvetica,sans-Serif" font-size="11.00" fill="#000000">varchar[255]</text>
<polygon fill="none" stroke="#000000" points="619.5,-163.7 619.5,-185.7 883.5,-185.7 883.5,-163.7 619.5,-163.7"/>
<text text-anchor="start" x="639.5" y="-170.8" font-family="Helvetica,sans-Serif" font-size="11.00" fill="#000000">value_unit</text>
<polygon fill="none" stroke="#000000" points="883.5,-163.7 883.5,-185.7 954.5,-185.7 954.5,-163.7 883.5,-163.7"/>
<text text-anchor="start" x="886.5" y="-171.4" font-family="Helvetica,sans-Serif" font-size="11.00" fill="#000000">varchar[16]</text>
<polygon fill="#ffffff" stroke="transparent" points="619.5,-141.7 619.5,-163.7 883.5,-163.7 883.5,-141.7 619.5,-141.7"/>
<polygon fill="none" stroke="#000000" points="619.5,-141.7 619.5,-163.7 883.5,-163.7 883.5,-141.7 619.5,-141.7"/>
<text text-anchor="start" x="639.5" y="-148.8" font-family="Helvetica,sans-Serif" font-size="11.00" fill="#000000">component_order</text>
<polygon fill="none" stroke="#000000" points="883.5,-141.7 883.5,-163.7 954.5,-163.7 954.5,-141.7 883.5,-141.7"/>
<text text-anchor="start" x="886.5" y="-149.4" font-family="Helvetica,sans-Serif" font-size="11.00" fill="#000000">int[10]</text>
<polygon fill="#ffffff" stroke="transparent" points="619.5,-122.7 619.5,-141.7 755.5,-141.7 755.5,-122.7 619.5,-122.7"/>
<polygon fill="none" stroke="#000000" points="619.5,-122.7 619.5,-141.7 755.5,-141.7 755.5,-122.7 619.5,-122.7"/>
<text text-anchor="start" x="622.5" y="-128.8" font-family="Helvetica,sans-Serif" font-size="11.00" fill="#000000">&lt; 1</text>
<polygon fill="#ffffff" stroke="transparent" points="755.5,-122.7 755.5,-141.7 883.5,-141.7 883.5,-122.7 755.5,-122.7"/>
<polygon fill="none" stroke="#000000" points="755.5,-122.7 755.5,-141.7 883.5,-141.7 883.5,-122.7 755.5,-122.7"/>
<text text-anchor="start" x="874.3862" y="-128.8" font-family="Helvetica,sans-Serif" font-size="11.00" fill="#000000"> &#160;</text>
<polygon fill="#ffffff" stroke="transparent" points="883.5,-122.7 883.5,-141.7 954.5,-141.7 954.5,-122.7 883.5,-122.7"/>
<polygon fill="none" stroke="#000000" points="883.5,-122.7 883.5,-141.7 954.5,-141.7 954.5,-122.7 883.5,-122.7"/>
<text text-anchor="start" x="935.9053" y="-128.8" font-family="Helvetica,sans-Serif" font-size="11.00" fill="#000000">0 &gt;</text>
<polygon fill="none" stroke="#000000" stroke-width="2" points="618,-121.7 618,-319.7 955,-319.7 955,-121.7 618,-121.7"/>
</a>
</g>
</g>
<!-- form_vitals_calculation_components&#45;&gt;form_vitals_calculation -->
<g id="edge4" class="edge">
<title>form_vitals_calculation_components:w&#45;&gt;form_vitals_calculation:e</title>
<path fill="none" stroke="#000000" d="M605.4616,-258.6965C580.198,-240.1751 612.0017,-163.7 568.5,-163.7"/>
<polygon fill="#000000" stroke="#000000" points="611.8067,-260.506 618.5127,-266.162 615.6534,-261.603 619.5,-262.7 619.5,-262.7 619.5,-262.7 615.6534,-261.603 620.4873,-259.238 611.8067,-260.506 611.8067,-260.506"/>
<ellipse fill="none" stroke="#000000" cx="608.7294" cy="-259.6283" rx="3.2" ry="3.2"/>
</g>
<!-- form_vitals_calculation_form_vitals -->
<g id="node5" class="node">
<title>form_vitals_calculation_form_vitals</title>
<g id="a_node5"><a xlink:href="../../tables/form_vitals_calculation_form_vitals.html" xlink:title="form_vitals_calculation_form_vitals" target="_top">
<polygon fill="#ffffff" stroke="transparent" points="649.5,-38.2 649.5,-99.2 923.5,-99.2 923.5,-38.2 649.5,-38.2"/>
<polygon fill="#f5f5f5" stroke="transparent" points="649.5,-75.7 649.5,-98.7 923.5,-98.7 923.5,-75.7 649.5,-75.7"/>
<polygon fill="none" stroke="#000000" points="649.5,-75.7 649.5,-98.7 923.5,-98.7 923.5,-75.7 649.5,-75.7"/>
<text text-anchor="start" x="654.5" y="-84.3" font-family="Helvetica,sans-Serif" font-weight="bold" font-size="11.00" fill="#000000">form_vitals_calculation_form_vitals</text>
<text text-anchor="start" x="889.0219" y="-83.8" font-family="Helvetica,sans-Serif" font-size="11.00" fill="#000000">[table]</text>
<polygon fill="none" stroke="#000000" points="649.5,-56.7 649.5,-75.7 923.5,-75.7 923.5,-56.7 649.5,-56.7"/>
<text text-anchor="start" x="652.5" y="-62.8" font-family="Helvetica,sans-Serif" font-size="11.00" fill="#000000">...</text>
<polygon fill="#ffffff" stroke="transparent" points="649.5,-37.7 649.5,-56.7 784.5,-56.7 784.5,-37.7 649.5,-37.7"/>
<polygon fill="none" stroke="#000000" points="649.5,-37.7 649.5,-56.7 784.5,-56.7 784.5,-37.7 649.5,-37.7"/>
<text text-anchor="start" x="652.5" y="-43.8" font-family="Helvetica,sans-Serif" font-size="11.00" fill="#000000">&lt; 2</text>
<polygon fill="#ffffff" stroke="transparent" points="784.5,-37.7 784.5,-56.7 853.5,-56.7 853.5,-37.7 784.5,-37.7"/>
<polygon fill="none" stroke="#000000" points="784.5,-37.7 784.5,-56.7 853.5,-56.7 853.5,-37.7 784.5,-37.7"/>
<text text-anchor="start" x="844.3862" y="-43.8" font-family="Helvetica,sans-Serif" font-size="11.00" fill="#000000"> &#160;</text>
<polygon fill="#ffffff" stroke="transparent" points="853.5,-37.7 853.5,-56.7 923.5,-56.7 923.5,-37.7 853.5,-37.7"/>
<polygon fill="none" stroke="#000000" points="853.5,-37.7 853.5,-56.7 923.5,-56.7 923.5,-37.7 853.5,-37.7"/>
<text text-anchor="start" x="914.3862" y="-43.8" font-family="Helvetica,sans-Serif" font-size="11.00" fill="#000000"> &#160;</text>
</a>
</g>
</g>
<!-- form_vitals_calculation_form_vitals&#45;&gt;form_vitals_calculation -->
<g id="edge5" class="edge">
<title>form_vitals_calculation_form_vitals:w&#45;&gt;form_vitals_calculation:e</title>
<path fill="none" stroke="#000000" d="M635.3115,-69.1168C623.1531,-76.5239 622.2896,-94.6848 609,-110.7 590.0688,-133.5139 598.1456,-163.7 568.5,-163.7"/>
<polygon fill="#000000" stroke="#000000" points="641.7223,-67.573 650.3428,-69.1999 645.6112,-66.6365 649.5,-65.7 649.5,-65.7 649.5,-65.7 645.6112,-66.6365 648.6572,-62.2001 641.7223,-67.573 641.7223,-67.573"/>
<ellipse fill="none" stroke="#000000" cx="638.6113" cy="-68.3222" rx="3.2" ry="3.2"/>
</g>
</g>
</svg>
