<?xml version="1.0" encoding="UTF-8" standalone="no"?>
<!DOCTYPE svg PUBLIC "-//W3C//DTD SVG 1.1//EN"
 "http://www.w3.org/Graphics/SVG/1.1/DTD/svg11.dtd">
<!-- Generated by graphviz version 2.40.1 (20161225.0304)
 -->
<!-- Title: oneDegreeRelationshipsDiagram Pages: 1 -->
<svg width="894pt" height="844pt"
 viewBox="0.00 0.00 894.00 844.20" xmlns="http://www.w3.org/2000/svg" xmlns:xlink="http://www.w3.org/1999/xlink">
<g id="graph0" class="graph" transform="scale(1 1) rotate(0) translate(4 840.2)">
<title>oneDegreeRelationshipsDiagram</title>
<polygon fill="#ffffff" stroke="transparent" points="-4,4 -4,-840.2 890,-840.2 890,4 -4,4"/>
<text text-anchor="middle" x="72.4936" y="-7.3" font-family="Helvetica,sans-Serif" font-size="11.00" fill="#000000">Generated by SchemaSpy</text>
<!-- form_encounter -->
<g id="node1" class="node">
<title>form_encounter</title>
<g id="a_node1"><a xlink:href="../../tables/form_encounter.html" xlink:title="form_encounter" target="_top">
<polygon fill="#ffffff" stroke="transparent" points="334,-288.7 334,-459.7 542,-459.7 542,-288.7 334,-288.7"/>
<polygon fill="#f5f5f5" stroke="transparent" points="334,-436.2 334,-459.2 542,-459.2 542,-436.2 334,-436.2"/>
<polygon fill="none" stroke="#000000" points="334,-436.2 334,-459.2 542,-459.2 542,-436.2 334,-436.2"/>
<text text-anchor="start" x="339" y="-444.8" font-family="Helvetica,sans-Serif" font-weight="bold" font-size="11.00" fill="#000000">form_encounter</text>
<text text-anchor="start" x="507.0437" y="-444.3" font-family="Helvetica,sans-Serif" font-size="11.00" fill="#000000">[table]</text>
<polygon fill="none" stroke="#000000" points="334,-414.2 334,-436.2 542,-436.2 542,-414.2 334,-414.2"/>
<image xlink:href="../../images/primaryKeys.png" width="11px" height="12px" preserveAspectRatio="xMinYMin meet" x="339" y="-431.2"/>
<text text-anchor="start" x="354" y="-421.3" font-family="Helvetica,sans-Serif" font-size="11.00" fill="#000000">id</text>
<polygon fill="#ffffff" stroke="transparent" points="334,-392.2 334,-414.2 542,-414.2 542,-392.2 334,-392.2"/>
<polygon fill="none" stroke="#000000" points="334,-392.2 334,-414.2 542,-414.2 542,-392.2 334,-392.2"/>
<text text-anchor="start" x="354" y="-399.3" font-family="Helvetica,sans-Serif" font-size="11.00" fill="#000000">uuid</text>
<polygon fill="#ffffff" stroke="transparent" points="334,-370.2 334,-392.2 542,-392.2 542,-370.2 334,-370.2"/>
<polygon fill="none" stroke="#000000" points="334,-370.2 334,-392.2 542,-392.2 542,-370.2 334,-370.2"/>
<text text-anchor="start" x="354" y="-377.3" font-family="Helvetica,sans-Serif" font-size="11.00" fill="#000000">date</text>
<polygon fill="#ffffff" stroke="transparent" points="334,-348.2 334,-370.2 542,-370.2 542,-348.2 334,-348.2"/>
<polygon fill="none" stroke="#000000" points="334,-348.2 334,-370.2 542,-370.2 542,-348.2 334,-348.2"/>
<image xlink:href="../../images/foreignKeys.png" width="11px" height="12px" preserveAspectRatio="xMinYMin meet" x="339" y="-365.2"/>
<text text-anchor="start" x="354" y="-355.3" font-family="Helvetica,sans-Serif" font-size="11.00" fill="#000000">pid</text>
<polygon fill="none" stroke="#000000" points="334,-326.2 334,-348.2 542,-348.2 542,-326.2 334,-326.2"/>
<image xlink:href="../../images/primaryKeys.png" width="11px" height="12px" preserveAspectRatio="xMinYMin meet" x="339" y="-343.2"/>
<text text-anchor="start" x="354" y="-333.3" font-family="Helvetica,sans-Serif" font-size="11.00" fill="#000000">encounter</text>
<polygon fill="none" stroke="#000000" points="334,-307.2 334,-326.2 542,-326.2 542,-307.2 334,-307.2"/>
<text text-anchor="start" x="337" y="-313.3" font-family="Helvetica,sans-Serif" font-size="11.00" fill="#000000">...</text>
<polygon fill="#ffffff" stroke="transparent" points="334,-288.2 334,-307.2 429,-307.2 429,-288.2 334,-288.2"/>
<polygon fill="none" stroke="#000000" points="334,-288.2 334,-307.2 429,-307.2 429,-288.2 334,-288.2"/>
<text text-anchor="start" x="337" y="-294.3" font-family="Helvetica,sans-Serif" font-size="11.00" fill="#000000">&lt; 1</text>
<polygon fill="#ffffff" stroke="transparent" points="429,-288.2 429,-307.2 478,-307.2 478,-288.2 429,-288.2"/>
<polygon fill="none" stroke="#000000" points="429,-288.2 429,-307.2 478,-307.2 478,-288.2 429,-288.2"/>
<text text-anchor="start" x="468.8862" y="-294.3" font-family="Helvetica,sans-Serif" font-size="11.00" fill="#000000"> &#160;</text>
<polygon fill="#ffffff" stroke="transparent" points="478,-288.2 478,-307.2 542,-307.2 542,-288.2 478,-288.2"/>
<polygon fill="none" stroke="#000000" points="478,-288.2 478,-307.2 542,-307.2 542,-288.2 478,-288.2"/>
<text text-anchor="start" x="517.2904" y="-294.3" font-family="Helvetica,sans-Serif" font-size="11.00" fill="#000000">19 &gt;</text>
</a>
</g>
</g>
<!-- patient_data -->
<g id="node2" class="node">
<title>patient_data</title>
<g id="a_node2"><a xlink:href="../../tables/patient_data.html" xlink:title="patient_data" target="_top">
<polygon fill="#ffffff" stroke="transparent" points="8,-329.7 8,-720.7 285,-720.7 285,-329.7 8,-329.7"/>
<polygon fill="#f5f5f5" stroke="transparent" points="8.5,-697.2 8.5,-720.2 285.5,-720.2 285.5,-697.2 8.5,-697.2"/>
<polygon fill="none" stroke="#000000" points="8.5,-697.2 8.5,-720.2 285.5,-720.2 285.5,-697.2 8.5,-697.2"/>
<text text-anchor="start" x="13.5" y="-705.8" font-family="Helvetica,sans-Serif" font-weight="bold" font-size="11.00" fill="#000000">patient_data</text>
<text text-anchor="start" x="250.5437" y="-705.3" font-family="Helvetica,sans-Serif" font-size="11.00" fill="#000000">[table]</text>
<polygon fill="none" stroke="#000000" points="8.5,-675.2 8.5,-697.2 285.5,-697.2 285.5,-675.2 8.5,-675.2"/>
<image xlink:href="../../images/primaryKeys.png" width="11px" height="12px" preserveAspectRatio="xMinYMin meet" x="13.5" y="-692.2"/>
<text text-anchor="start" x="28.5" y="-682.3" font-family="Helvetica,sans-Serif" font-size="11.00" fill="#000000">id</text>
<polygon fill="#ffffff" stroke="transparent" points="8.5,-653.2 8.5,-675.2 285.5,-675.2 285.5,-653.2 8.5,-653.2"/>
<polygon fill="none" stroke="#000000" points="8.5,-653.2 8.5,-675.2 285.5,-675.2 285.5,-653.2 8.5,-653.2"/>
<text text-anchor="start" x="28.5" y="-660.3" font-family="Helvetica,sans-Serif" font-size="11.00" fill="#000000">uuid</text>
<polygon fill="#ffffff" stroke="transparent" points="8.5,-631.2 8.5,-653.2 285.5,-653.2 285.5,-631.2 8.5,-631.2"/>
<polygon fill="none" stroke="#000000" points="8.5,-631.2 8.5,-653.2 285.5,-653.2 285.5,-631.2 8.5,-631.2"/>
<text text-anchor="start" x="28.5" y="-638.3" font-family="Helvetica,sans-Serif" font-size="11.00" fill="#000000">fname</text>
<polygon fill="#ffffff" stroke="transparent" points="8.5,-609.2 8.5,-631.2 285.5,-631.2 285.5,-609.2 8.5,-609.2"/>
<polygon fill="none" stroke="#000000" points="8.5,-609.2 8.5,-631.2 285.5,-631.2 285.5,-609.2 8.5,-609.2"/>
<text text-anchor="start" x="28.5" y="-616.3" font-family="Helvetica,sans-Serif" font-size="11.00" fill="#000000">lname</text>
<polygon fill="#ffffff" stroke="transparent" points="8.5,-587.2 8.5,-609.2 285.5,-609.2 285.5,-587.2 8.5,-587.2"/>
<polygon fill="none" stroke="#000000" points="8.5,-587.2 8.5,-609.2 285.5,-609.2 285.5,-587.2 8.5,-587.2"/>
<text text-anchor="start" x="28.5" y="-594.3" font-family="Helvetica,sans-Serif" font-size="11.00" fill="#000000">DOB</text>
<polygon fill="none" stroke="#000000" points="8.5,-565.2 8.5,-587.2 285.5,-587.2 285.5,-565.2 8.5,-565.2"/>
<image xlink:href="../../images/foreignKeys.png" width="11px" height="12px" preserveAspectRatio="xMinYMin meet" x="13.5" y="-582.2"/>
<text text-anchor="start" x="28.5" y="-572.3" font-family="Helvetica,sans-Serif" font-size="11.00" fill="#000000">pharmacy_id</text>
<polygon fill="none" stroke="#000000" points="8.5,-543.2 8.5,-565.2 285.5,-565.2 285.5,-543.2 8.5,-543.2"/>
<image xlink:href="../../images/foreignKeys.png" width="11px" height="12px" preserveAspectRatio="xMinYMin meet" x="13.5" y="-560.2"/>
<text text-anchor="start" x="28.5" y="-550.3" font-family="Helvetica,sans-Serif" font-size="11.00" fill="#000000">providerID</text>
<polygon fill="none" stroke="#000000" points="8.5,-521.2 8.5,-543.2 285.5,-543.2 285.5,-521.2 8.5,-521.2"/>
<image xlink:href="../../images/foreignKeys.png" width="11px" height="12px" preserveAspectRatio="xMinYMin meet" x="13.5" y="-538.2"/>
<text text-anchor="start" x="28.5" y="-528.3" font-family="Helvetica,sans-Serif" font-size="11.00" fill="#000000">ref_providerID</text>
<polygon fill="none" stroke="#000000" points="8.5,-499.2 8.5,-521.2 285.5,-521.2 285.5,-499.2 8.5,-499.2"/>
<image xlink:href="../../images/foreignKeys.png" width="11px" height="12px" preserveAspectRatio="xMinYMin meet" x="13.5" y="-516.2"/>
<text text-anchor="start" x="28.5" y="-506.3" font-family="Helvetica,sans-Serif" font-size="11.00" fill="#000000">interpreter_needed</text>
<polygon fill="none" stroke="#000000" points="8.5,-477.2 8.5,-499.2 285.5,-499.2 285.5,-477.2 8.5,-477.2"/>
<image xlink:href="../../images/primaryKeys.png" width="11px" height="12px" preserveAspectRatio="xMinYMin meet" x="13.5" y="-494.2"/>
<text text-anchor="start" x="28.5" y="-484.3" font-family="Helvetica,sans-Serif" font-size="11.00" fill="#000000">pid</text>
<polygon fill="none" stroke="#000000" points="8.5,-455.2 8.5,-477.2 285.5,-477.2 285.5,-455.2 8.5,-455.2"/>
<image xlink:href="../../images/foreignKeys.png" width="11px" height="12px" preserveAspectRatio="xMinYMin meet" x="13.5" y="-472.2"/>
<text text-anchor="start" x="28.5" y="-462.3" font-family="Helvetica,sans-Serif" font-size="11.00" fill="#000000">advance_directive_user_authenticator</text>
<polygon fill="none" stroke="#000000" points="8.5,-433.2 8.5,-455.2 285.5,-455.2 285.5,-433.2 8.5,-433.2"/>
<image xlink:href="../../images/foreignKeys.png" width="11px" height="12px" preserveAspectRatio="xMinYMin meet" x="13.5" y="-450.2"/>
<text text-anchor="start" x="28.5" y="-440.3" font-family="Helvetica,sans-Serif" font-size="11.00" fill="#000000">created_by</text>
<polygon fill="none" stroke="#000000" points="8.5,-411.2 8.5,-433.2 285.5,-433.2 285.5,-411.2 8.5,-411.2"/>
<image xlink:href="../../images/foreignKeys.png" width="11px" height="12px" preserveAspectRatio="xMinYMin meet" x="13.5" y="-428.2"/>
<text text-anchor="start" x="28.5" y="-418.3" font-family="Helvetica,sans-Serif" font-size="11.00" fill="#000000">updated_by</text>
<polygon fill="none" stroke="#000000" points="8.5,-389.2 8.5,-411.2 285.5,-411.2 285.5,-389.2 8.5,-389.2"/>
<image xlink:href="../../images/foreignKeys.png" width="11px" height="12px" preserveAspectRatio="xMinYMin meet" x="13.5" y="-406.2"/>
<text text-anchor="start" x="28.5" y="-396.3" font-family="Helvetica,sans-Serif" font-size="11.00" fill="#000000">tribal_affiliations</text>
<polygon fill="none" stroke="#000000" points="8.5,-367.2 8.5,-389.2 285.5,-389.2 285.5,-367.2 8.5,-367.2"/>
<image xlink:href="../../images/foreignKeys.png" width="11px" height="12px" preserveAspectRatio="xMinYMin meet" x="13.5" y="-384.2"/>
<text text-anchor="start" x="28.5" y="-374.3" font-family="Helvetica,sans-Serif" font-size="11.00" fill="#000000">sex_identified</text>
<polygon fill="none" stroke="#000000" points="8.5,-348.2 8.5,-367.2 285.5,-367.2 285.5,-348.2 8.5,-348.2"/>
<text text-anchor="start" x="11.5" y="-354.3" font-family="Helvetica,sans-Serif" font-size="11.00" fill="#000000">...</text>
<polygon fill="#ffffff" stroke="transparent" points="8.5,-329.2 8.5,-348.2 137.5,-348.2 137.5,-329.2 8.5,-329.2"/>
<polygon fill="none" stroke="#000000" points="8.5,-329.2 8.5,-348.2 137.5,-348.2 137.5,-329.2 8.5,-329.2"/>
<text text-anchor="start" x="11.5" y="-335.3" font-family="Helvetica,sans-Serif" font-size="11.00" fill="#000000">&lt; 9</text>
<polygon fill="#ffffff" stroke="transparent" points="137.5,-329.2 137.5,-348.2 203.5,-348.2 203.5,-329.2 137.5,-329.2"/>
<polygon fill="none" stroke="#000000" points="137.5,-329.2 137.5,-348.2 203.5,-348.2 203.5,-329.2 137.5,-329.2"/>
<text text-anchor="start" x="194.3862" y="-335.3" font-family="Helvetica,sans-Serif" font-size="11.00" fill="#000000"> &#160;</text>
<polygon fill="#ffffff" stroke="transparent" points="203.5,-329.2 203.5,-348.2 285.5,-348.2 285.5,-329.2 203.5,-329.2"/>
<polygon fill="none" stroke="#000000" points="203.5,-329.2 203.5,-348.2 285.5,-348.2 285.5,-329.2 203.5,-329.2"/>
<text text-anchor="start" x="260.7904" y="-335.3" font-family="Helvetica,sans-Serif" font-size="11.00" fill="#000000">95 &gt;</text>
</a>
</g>
</g>
<!-- form_encounter&#45;&gt;patient_data -->
<g id="edge1" class="edge">
<title>form_encounter:w&#45;&gt;patient_data:e</title>
<path fill="none" stroke="#000000" d="M319.6729,-362.6504C285.9123,-383.1651 340.77,-488.2 285.5,-488.2"/>
<polygon fill="#000000" stroke="#000000" points="326.2224,-361.0732 334.8429,-362.6999 330.1112,-360.1366 334,-359.2 334,-359.2 334,-359.2 330.1112,-360.1366 333.1571,-355.7001 326.2224,-361.0732 326.2224,-361.0732"/>
<ellipse fill="none" stroke="#000000" cx="323.1113" cy="-361.8224" rx="3.2" ry="3.2"/>
</g>
<!-- form_misc_billing_options -->
<g id="node3" class="node">
<title>form_misc_billing_options</title>
<g id="a_node3"><a xlink:href="../../tables/form_misc_billing_options.html" xlink:title="form_misc_billing_options" target="_top">
<polygon fill="#ffffff" stroke="transparent" points="591,-38.2 591,-832.2 878,-832.2 878,-38.2 591,-38.2"/>
<polygon fill="#f5f5f5" stroke="transparent" points="593.5,-807.2 593.5,-830.2 876.5,-830.2 876.5,-807.2 593.5,-807.2"/>
<polygon fill="none" stroke="#000000" points="593.5,-807.2 593.5,-830.2 876.5,-830.2 876.5,-807.2 593.5,-807.2"/>
<text text-anchor="start" x="598.5" y="-815.8" font-family="Helvetica,sans-Serif" font-weight="bold" font-size="11.00" fill="#000000">form_misc_billing_options</text>
<text text-anchor="start" x="841.5437" y="-815.3" font-family="Helvetica,sans-Serif" font-size="11.00" fill="#000000">[table]</text>
<polygon fill="none" stroke="#000000" points="593.5,-785.2 593.5,-807.2 809.5,-807.2 809.5,-785.2 593.5,-785.2"/>
<image xlink:href="../../images/primaryKeys.png" width="11px" height="12px" preserveAspectRatio="xMinYMin meet" x="598.5" y="-802.2"/>
<text text-anchor="start" x="613.5" y="-792.3" font-family="Helvetica,sans-Serif" font-size="11.00" fill="#000000">id</text>
<polygon fill="none" stroke="#000000" points="809.5,-785.2 809.5,-807.2 876.5,-807.2 876.5,-785.2 809.5,-785.2"/>
<text text-anchor="start" x="812.5" y="-792.9" font-family="Helvetica,sans-Serif" font-size="11.00" fill="#000000">bigint[19]</text>
<polygon fill="none" stroke="#000000" points="593.5,-763.2 593.5,-785.2 809.5,-785.2 809.5,-763.2 593.5,-763.2"/>
<text text-anchor="start" x="613.5" y="-770.3" font-family="Helvetica,sans-Serif" font-size="11.00" fill="#000000">date</text>
<polygon fill="none" stroke="#000000" points="809.5,-763.2 809.5,-785.2 876.5,-785.2 876.5,-763.2 809.5,-763.2"/>
<text text-anchor="start" x="812.5" y="-770.9" font-family="Helvetica,sans-Serif" font-size="11.00" fill="#000000">datetime[19]</text>
<polygon fill="none" stroke="#000000" points="593.5,-741.2 593.5,-763.2 809.5,-763.2 809.5,-741.2 593.5,-741.2"/>
<image xlink:href="../../images/foreignKeys.png" width="11px" height="12px" preserveAspectRatio="xMinYMin meet" x="598.5" y="-758.2"/>
<text text-anchor="start" x="613.5" y="-748.3" font-family="Helvetica,sans-Serif" font-size="11.00" fill="#000000">pid</text>
<polygon fill="none" stroke="#000000" points="809.5,-741.2 809.5,-763.2 876.5,-763.2 876.5,-741.2 809.5,-741.2"/>
<text text-anchor="start" x="812.5" y="-748.9" font-family="Helvetica,sans-Serif" font-size="11.00" fill="#000000">bigint[19]</text>
<polygon fill="none" stroke="#000000" points="593.5,-719.2 593.5,-741.2 809.5,-741.2 809.5,-719.2 593.5,-719.2"/>
<text text-anchor="start" x="613.5" y="-726.3" font-family="Helvetica,sans-Serif" font-size="11.00" fill="#000000">user</text>
<polygon fill="none" stroke="#000000" points="809.5,-719.2 809.5,-741.2 876.5,-741.2 876.5,-719.2 809.5,-719.2"/>
<text text-anchor="start" x="812.4365" y="-726.9" font-family="Helvetica,sans-Serif" font-size="11.00" fill="#000000">varchar[255]</text>
<polygon fill="none" stroke="#000000" points="593.5,-697.2 593.5,-719.2 809.5,-719.2 809.5,-697.2 593.5,-697.2"/>
<text text-anchor="start" x="613.5" y="-704.3" font-family="Helvetica,sans-Serif" font-size="11.00" fill="#000000">groupname</text>
<polygon fill="none" stroke="#000000" points="809.5,-697.2 809.5,-719.2 876.5,-719.2 876.5,-697.2 809.5,-697.2"/>
<text text-anchor="start" x="812.4365" y="-704.9" font-family="Helvetica,sans-Serif" font-size="11.00" fill="#000000">varchar[255]</text>
<polygon fill="none" stroke="#000000" points="593.5,-675.2 593.5,-697.2 809.5,-697.2 809.5,-675.2 593.5,-675.2"/>
<text text-anchor="start" x="613.5" y="-682.3" font-family="Helvetica,sans-Serif" font-size="11.00" fill="#000000">authorized</text>
<polygon fill="none" stroke="#000000" points="809.5,-675.2 809.5,-697.2 876.5,-697.2 876.5,-675.2 809.5,-675.2"/>
<text text-anchor="start" x="812.5" y="-682.9" font-family="Helvetica,sans-Serif" font-size="11.00" fill="#000000">tinyint[3]</text>
<polygon fill="none" stroke="#000000" points="593.5,-653.2 593.5,-675.2 809.5,-675.2 809.5,-653.2 593.5,-653.2"/>
<text text-anchor="start" x="613.5" y="-660.3" font-family="Helvetica,sans-Serif" font-size="11.00" fill="#000000">activity</text>
<polygon fill="none" stroke="#000000" points="809.5,-653.2 809.5,-675.2 876.5,-675.2 876.5,-653.2 809.5,-653.2"/>
<text text-anchor="start" x="812.5" y="-660.9" font-family="Helvetica,sans-Serif" font-size="11.00" fill="#000000">tinyint[3]</text>
<polygon fill="none" stroke="#000000" points="593.5,-631.2 593.5,-653.2 809.5,-653.2 809.5,-631.2 593.5,-631.2"/>
<text text-anchor="start" x="613.5" y="-638.3" font-family="Helvetica,sans-Serif" font-size="11.00" fill="#000000">employment_related</text>
<polygon fill="none" stroke="#000000" points="809.5,-631.2 809.5,-653.2 876.5,-653.2 876.5,-631.2 809.5,-631.2"/>
<text text-anchor="start" x="812.5" y="-638.9" font-family="Helvetica,sans-Serif" font-size="11.00" fill="#000000">boolean[3]</text>
<polygon fill="none" stroke="#000000" points="593.5,-609.2 593.5,-631.2 809.5,-631.2 809.5,-609.2 593.5,-609.2"/>
<text text-anchor="start" x="613.5" y="-616.3" font-family="Helvetica,sans-Serif" font-size="11.00" fill="#000000">auto_accident</text>
<polygon fill="none" stroke="#000000" points="809.5,-609.2 809.5,-631.2 876.5,-631.2 876.5,-609.2 809.5,-609.2"/>
<text text-anchor="start" x="812.5" y="-616.9" font-family="Helvetica,sans-Serif" font-size="11.00" fill="#000000">boolean[3]</text>
<polygon fill="none" stroke="#000000" points="593.5,-587.2 593.5,-609.2 809.5,-609.2 809.5,-587.2 593.5,-587.2"/>
<text text-anchor="start" x="613.5" y="-594.3" font-family="Helvetica,sans-Serif" font-size="11.00" fill="#000000">accident_state</text>
<polygon fill="none" stroke="#000000" points="809.5,-587.2 809.5,-609.2 876.5,-609.2 876.5,-587.2 809.5,-587.2"/>
<text text-anchor="start" x="812.5" y="-594.9" font-family="Helvetica,sans-Serif" font-size="11.00" fill="#000000">varchar[2]</text>
<polygon fill="none" stroke="#000000" points="593.5,-565.2 593.5,-587.2 809.5,-587.2 809.5,-565.2 593.5,-565.2"/>
<text text-anchor="start" x="613.5" y="-572.3" font-family="Helvetica,sans-Serif" font-size="11.00" fill="#000000">other_accident</text>
<polygon fill="none" stroke="#000000" points="809.5,-565.2 809.5,-587.2 876.5,-587.2 876.5,-565.2 809.5,-565.2"/>
<text text-anchor="start" x="812.5" y="-572.9" font-family="Helvetica,sans-Serif" font-size="11.00" fill="#000000">boolean[3]</text>
<polygon fill="none" stroke="#000000" points="593.5,-543.2 593.5,-565.2 809.5,-565.2 809.5,-543.2 593.5,-543.2"/>
<text text-anchor="start" x="613.5" y="-550.3" font-family="Helvetica,sans-Serif" font-size="11.00" fill="#000000">medicaid_referral_code</text>
<polygon fill="none" stroke="#000000" points="809.5,-543.2 809.5,-565.2 876.5,-565.2 876.5,-543.2 809.5,-543.2"/>
<text text-anchor="start" x="812.5" y="-550.9" font-family="Helvetica,sans-Serif" font-size="11.00" fill="#000000">varchar[2]</text>
<polygon fill="none" stroke="#000000" points="593.5,-521.2 593.5,-543.2 809.5,-543.2 809.5,-521.2 593.5,-521.2"/>
<text text-anchor="start" x="613.5" y="-528.3" font-family="Helvetica,sans-Serif" font-size="11.00" fill="#000000">epsdt_flag</text>
<polygon fill="none" stroke="#000000" points="809.5,-521.2 809.5,-543.2 876.5,-543.2 876.5,-521.2 809.5,-521.2"/>
<text text-anchor="start" x="812.5" y="-528.9" font-family="Helvetica,sans-Serif" font-size="11.00" fill="#000000">boolean[3]</text>
<polygon fill="none" stroke="#000000" points="593.5,-499.2 593.5,-521.2 809.5,-521.2 809.5,-499.2 593.5,-499.2"/>
<text text-anchor="start" x="613.5" y="-506.3" font-family="Helvetica,sans-Serif" font-size="11.00" fill="#000000">provider_qualifier_code</text>
<polygon fill="none" stroke="#000000" points="809.5,-499.2 809.5,-521.2 876.5,-521.2 876.5,-499.2 809.5,-499.2"/>
<text text-anchor="start" x="812.5" y="-506.9" font-family="Helvetica,sans-Serif" font-size="11.00" fill="#000000">varchar[2]</text>
<polygon fill="none" stroke="#000000" points="593.5,-477.2 593.5,-499.2 809.5,-499.2 809.5,-477.2 593.5,-477.2"/>
<text text-anchor="start" x="613.5" y="-484.3" font-family="Helvetica,sans-Serif" font-size="11.00" fill="#000000">provider_id</text>
<polygon fill="none" stroke="#000000" points="809.5,-477.2 809.5,-499.2 876.5,-499.2 876.5,-477.2 809.5,-477.2"/>
<text text-anchor="start" x="812.5" y="-484.9" font-family="Helvetica,sans-Serif" font-size="11.00" fill="#000000">int[10]</text>
<polygon fill="none" stroke="#000000" points="593.5,-455.2 593.5,-477.2 809.5,-477.2 809.5,-455.2 593.5,-455.2"/>
<text text-anchor="start" x="613.5" y="-462.3" font-family="Helvetica,sans-Serif" font-size="11.00" fill="#000000">outside_lab</text>
<polygon fill="none" stroke="#000000" points="809.5,-455.2 809.5,-477.2 876.5,-477.2 876.5,-455.2 809.5,-455.2"/>
<text text-anchor="start" x="812.5" y="-462.9" font-family="Helvetica,sans-Serif" font-size="11.00" fill="#000000">boolean[3]</text>
<polygon fill="none" stroke="#000000" points="593.5,-433.2 593.5,-455.2 809.5,-455.2 809.5,-433.2 593.5,-433.2"/>
<text text-anchor="start" x="613.5" y="-440.3" font-family="Helvetica,sans-Serif" font-size="11.00" fill="#000000">lab_amount</text>
<polygon fill="none" stroke="#000000" points="809.5,-433.2 809.5,-455.2 876.5,-455.2 876.5,-433.2 809.5,-433.2"/>
<text text-anchor="start" x="812.5" y="-440.9" font-family="Helvetica,sans-Serif" font-size="11.00" fill="#000000">decimal[5,2]</text>
<polygon fill="none" stroke="#000000" points="593.5,-411.2 593.5,-433.2 809.5,-433.2 809.5,-411.2 593.5,-411.2"/>
<text text-anchor="start" x="613.5" y="-418.3" font-family="Helvetica,sans-Serif" font-size="11.00" fill="#000000">is_unable_to_work</text>
<polygon fill="none" stroke="#000000" points="809.5,-411.2 809.5,-433.2 876.5,-433.2 876.5,-411.2 809.5,-411.2"/>
<text text-anchor="start" x="812.5" y="-418.9" font-family="Helvetica,sans-Serif" font-size="11.00" fill="#000000">boolean[3]</text>
<polygon fill="none" stroke="#000000" points="593.5,-389.2 593.5,-411.2 809.5,-411.2 809.5,-389.2 593.5,-389.2"/>
<text text-anchor="start" x="613.5" y="-396.3" font-family="Helvetica,sans-Serif" font-size="11.00" fill="#000000">onset_date</text>
<polygon fill="none" stroke="#000000" points="809.5,-389.2 809.5,-411.2 876.5,-411.2 876.5,-389.2 809.5,-389.2"/>
<text text-anchor="start" x="812.5" y="-396.9" font-family="Helvetica,sans-Serif" font-size="11.00" fill="#000000">date[10]</text>
<polygon fill="none" stroke="#000000" points="593.5,-367.2 593.5,-389.2 809.5,-389.2 809.5,-367.2 593.5,-367.2"/>
<text text-anchor="start" x="613.5" y="-374.3" font-family="Helvetica,sans-Serif" font-size="11.00" fill="#000000">date_initial_treatment</text>
<polygon fill="none" stroke="#000000" points="809.5,-367.2 809.5,-389.2 876.5,-389.2 876.5,-367.2 809.5,-367.2"/>
<text text-anchor="start" x="812.5" y="-374.9" font-family="Helvetica,sans-Serif" font-size="11.00" fill="#000000">date[10]</text>
<polygon fill="none" stroke="#000000" points="593.5,-345.2 593.5,-367.2 809.5,-367.2 809.5,-345.2 593.5,-345.2"/>
<text text-anchor="start" x="613.5" y="-352.3" font-family="Helvetica,sans-Serif" font-size="11.00" fill="#000000">off_work_from</text>
<polygon fill="none" stroke="#000000" points="809.5,-345.2 809.5,-367.2 876.5,-367.2 876.5,-345.2 809.5,-345.2"/>
<text text-anchor="start" x="812.5" y="-352.9" font-family="Helvetica,sans-Serif" font-size="11.00" fill="#000000">date[10]</text>
<polygon fill="none" stroke="#000000" points="593.5,-323.2 593.5,-345.2 809.5,-345.2 809.5,-323.2 593.5,-323.2"/>
<text text-anchor="start" x="613.5" y="-330.3" font-family="Helvetica,sans-Serif" font-size="11.00" fill="#000000">off_work_to</text>
<polygon fill="none" stroke="#000000" points="809.5,-323.2 809.5,-345.2 876.5,-345.2 876.5,-323.2 809.5,-323.2"/>
<text text-anchor="start" x="812.5" y="-330.9" font-family="Helvetica,sans-Serif" font-size="11.00" fill="#000000">date[10]</text>
<polygon fill="none" stroke="#000000" points="593.5,-301.2 593.5,-323.2 809.5,-323.2 809.5,-301.2 593.5,-301.2"/>
<text text-anchor="start" x="613.5" y="-308.3" font-family="Helvetica,sans-Serif" font-size="11.00" fill="#000000">is_hospitalized</text>
<polygon fill="none" stroke="#000000" points="809.5,-301.2 809.5,-323.2 876.5,-323.2 876.5,-301.2 809.5,-301.2"/>
<text text-anchor="start" x="812.5" y="-308.9" font-family="Helvetica,sans-Serif" font-size="11.00" fill="#000000">boolean[3]</text>
<polygon fill="none" stroke="#000000" points="593.5,-279.2 593.5,-301.2 809.5,-301.2 809.5,-279.2 593.5,-279.2"/>
<text text-anchor="start" x="613.5" y="-286.3" font-family="Helvetica,sans-Serif" font-size="11.00" fill="#000000">hospitalization_date_from</text>
<polygon fill="none" stroke="#000000" points="809.5,-279.2 809.5,-301.2 876.5,-301.2 876.5,-279.2 809.5,-279.2"/>
<text text-anchor="start" x="812.5" y="-286.9" font-family="Helvetica,sans-Serif" font-size="11.00" fill="#000000">date[10]</text>
<polygon fill="none" stroke="#000000" points="593.5,-257.2 593.5,-279.2 809.5,-279.2 809.5,-257.2 593.5,-257.2"/>
<text text-anchor="start" x="613.5" y="-264.3" font-family="Helvetica,sans-Serif" font-size="11.00" fill="#000000">hospitalization_date_to</text>
<polygon fill="none" stroke="#000000" points="809.5,-257.2 809.5,-279.2 876.5,-279.2 876.5,-257.2 809.5,-257.2"/>
<text text-anchor="start" x="812.5" y="-264.9" font-family="Helvetica,sans-Serif" font-size="11.00" fill="#000000">date[10]</text>
<polygon fill="none" stroke="#000000" points="593.5,-235.2 593.5,-257.2 809.5,-257.2 809.5,-235.2 593.5,-235.2"/>
<text text-anchor="start" x="613.5" y="-242.3" font-family="Helvetica,sans-Serif" font-size="11.00" fill="#000000">medicaid_resubmission_code</text>
<polygon fill="none" stroke="#000000" points="809.5,-235.2 809.5,-257.2 876.5,-257.2 876.5,-235.2 809.5,-235.2"/>
<text text-anchor="start" x="812.5" y="-242.9" font-family="Helvetica,sans-Serif" font-size="11.00" fill="#000000">varchar[10]</text>
<polygon fill="none" stroke="#000000" points="593.5,-213.2 593.5,-235.2 809.5,-235.2 809.5,-213.2 593.5,-213.2"/>
<text text-anchor="start" x="613.5" y="-220.3" font-family="Helvetica,sans-Serif" font-size="11.00" fill="#000000">medicaid_original_reference</text>
<polygon fill="none" stroke="#000000" points="809.5,-213.2 809.5,-235.2 876.5,-235.2 876.5,-213.2 809.5,-213.2"/>
<text text-anchor="start" x="812.5" y="-220.9" font-family="Helvetica,sans-Serif" font-size="11.00" fill="#000000">varchar[15]</text>
<polygon fill="none" stroke="#000000" points="593.5,-191.2 593.5,-213.2 809.5,-213.2 809.5,-191.2 593.5,-191.2"/>
<text text-anchor="start" x="613.5" y="-198.3" font-family="Helvetica,sans-Serif" font-size="11.00" fill="#000000">prior_auth_number</text>
<polygon fill="none" stroke="#000000" points="809.5,-191.2 809.5,-213.2 876.5,-213.2 876.5,-191.2 809.5,-191.2"/>
<text text-anchor="start" x="812.5" y="-198.9" font-family="Helvetica,sans-Serif" font-size="11.00" fill="#000000">varchar[20]</text>
<polygon fill="none" stroke="#000000" points="593.5,-169.2 593.5,-191.2 809.5,-191.2 809.5,-169.2 593.5,-169.2"/>
<text text-anchor="start" x="613.5" y="-176.3" font-family="Helvetica,sans-Serif" font-size="11.00" fill="#000000">comments</text>
<polygon fill="none" stroke="#000000" points="809.5,-169.2 809.5,-191.2 876.5,-191.2 876.5,-169.2 809.5,-169.2"/>
<text text-anchor="start" x="812.4365" y="-176.9" font-family="Helvetica,sans-Serif" font-size="11.00" fill="#000000">varchar[255]</text>
<polygon fill="none" stroke="#000000" points="593.5,-147.2 593.5,-169.2 809.5,-169.2 809.5,-147.2 593.5,-147.2"/>
<text text-anchor="start" x="613.5" y="-154.3" font-family="Helvetica,sans-Serif" font-size="11.00" fill="#000000">replacement_claim</text>
<polygon fill="none" stroke="#000000" points="809.5,-147.2 809.5,-169.2 876.5,-169.2 876.5,-147.2 809.5,-147.2"/>
<text text-anchor="start" x="812.5" y="-154.9" font-family="Helvetica,sans-Serif" font-size="11.00" fill="#000000">boolean[3]</text>
<polygon fill="none" stroke="#000000" points="593.5,-125.2 593.5,-147.2 809.5,-147.2 809.5,-125.2 593.5,-125.2"/>
<text text-anchor="start" x="613.5" y="-132.3" font-family="Helvetica,sans-Serif" font-size="11.00" fill="#000000">icn_resubmission_number</text>
<polygon fill="none" stroke="#000000" points="809.5,-125.2 809.5,-147.2 876.5,-147.2 876.5,-125.2 809.5,-125.2"/>
<text text-anchor="start" x="812.5" y="-132.9" font-family="Helvetica,sans-Serif" font-size="11.00" fill="#000000">varchar[35]</text>
<polygon fill="none" stroke="#000000" points="593.5,-103.2 593.5,-125.2 809.5,-125.2 809.5,-103.2 593.5,-103.2"/>
<text text-anchor="start" x="613.5" y="-110.3" font-family="Helvetica,sans-Serif" font-size="11.00" fill="#000000">box_14_date_qual</text>
<polygon fill="none" stroke="#000000" points="809.5,-103.2 809.5,-125.2 876.5,-125.2 876.5,-103.2 809.5,-103.2"/>
<text text-anchor="start" x="812.5" y="-110.9" font-family="Helvetica,sans-Serif" font-size="11.00" fill="#000000">char[3]</text>
<polygon fill="none" stroke="#000000" points="593.5,-81.2 593.5,-103.2 809.5,-103.2 809.5,-81.2 593.5,-81.2"/>
<text text-anchor="start" x="613.5" y="-88.3" font-family="Helvetica,sans-Serif" font-size="11.00" fill="#000000">box_15_date_qual</text>
<polygon fill="none" stroke="#000000" points="809.5,-81.2 809.5,-103.2 876.5,-103.2 876.5,-81.2 809.5,-81.2"/>
<text text-anchor="start" x="812.5" y="-88.9" font-family="Helvetica,sans-Serif" font-size="11.00" fill="#000000">char[3]</text>
<polygon fill="#ffffff" stroke="transparent" points="593.5,-59.2 593.5,-81.2 809.5,-81.2 809.5,-59.2 593.5,-59.2"/>
<polygon fill="none" stroke="#000000" points="593.5,-59.2 593.5,-81.2 809.5,-81.2 809.5,-59.2 593.5,-59.2"/>
<image xlink:href="../../images/foreignKeys.png" width="11px" height="12px" preserveAspectRatio="xMinYMin meet" x="598.5" y="-76.2"/>
<text text-anchor="start" x="613.5" y="-66.3" font-family="Helvetica,sans-Serif" font-size="11.00" fill="#000000">encounter</text>
<polygon fill="none" stroke="#000000" points="809.5,-59.2 809.5,-81.2 876.5,-81.2 876.5,-59.2 809.5,-59.2"/>
<text text-anchor="start" x="812.5" y="-66.9" font-family="Helvetica,sans-Serif" font-size="11.00" fill="#000000">bigint[19]</text>
<polygon fill="#ffffff" stroke="transparent" points="593.5,-40.2 593.5,-59.2 705.5,-59.2 705.5,-40.2 593.5,-40.2"/>
<polygon fill="none" stroke="#000000" points="593.5,-40.2 593.5,-59.2 705.5,-59.2 705.5,-40.2 593.5,-40.2"/>
<text text-anchor="start" x="596.5" y="-46.3" font-family="Helvetica,sans-Serif" font-size="11.00" fill="#000000">&lt; 2</text>
<polygon fill="#ffffff" stroke="transparent" points="705.5,-40.2 705.5,-59.2 809.5,-59.2 809.5,-40.2 705.5,-40.2"/>
<polygon fill="none" stroke="#000000" points="705.5,-40.2 705.5,-59.2 809.5,-59.2 809.5,-40.2 705.5,-40.2"/>
<text text-anchor="start" x="800.3862" y="-46.3" font-family="Helvetica,sans-Serif" font-size="11.00" fill="#000000"> &#160;</text>
<polygon fill="#ffffff" stroke="transparent" points="809.5,-40.2 809.5,-59.2 876.5,-59.2 876.5,-40.2 809.5,-40.2"/>
<polygon fill="none" stroke="#000000" points="809.5,-40.2 809.5,-59.2 876.5,-59.2 876.5,-40.2 809.5,-40.2"/>
<text text-anchor="start" x="857.9053" y="-46.3" font-family="Helvetica,sans-Serif" font-size="11.00" fill="#000000">0 &gt;</text>
<polygon fill="none" stroke="#000000" stroke-width="2" points="592,-39.2 592,-831.2 877,-831.2 877,-39.2 592,-39.2"/>
</a>
</g>
</g>
<!-- form_misc_billing_options&#45;&gt;form_encounter -->
<g id="edge2" class="edge">
<title>form_misc_billing_options:w&#45;&gt;form_encounter:e</title>
<path fill="none" stroke="#000000" d="M583.0623,-70.9659C484.2303,-86.6268 659.0773,-337.2 542,-337.2"/>
<polygon fill="#000000" stroke="#000000" points="592.4094,-66.2693 592.9949,-74.2478 591.3992,-74.3649 590.8137,-66.3864 592.4094,-66.2693"/>
<polyline fill="none" stroke="#000000" points="593.5,-70.2 589.5107,-70.4928 "/>
<ellipse fill="none" stroke="#000000" cx="586.3193" cy="-70.727" rx="3.2" ry="3.2"/>
</g>
<!-- form_misc_billing_options&#45;&gt;patient_data -->
<g id="edge3" class="edge">
<title>form_misc_billing_options:w&#45;&gt;patient_data:e</title>
<path fill="none" stroke="#000000" d="M578.7319,-751.5768C415.9984,-737.4586 460.6874,-488.2 285.5,-488.2"/>
<polygon fill="#000000" stroke="#000000" points="585.5071,-751.8626 593.3482,-755.7968 589.5036,-752.0313 593.5,-752.2 593.5,-752.2 593.5,-752.2 589.5036,-752.0313 593.6518,-748.6032 585.5071,-751.8626 585.5071,-751.8626"/>
<ellipse fill="none" stroke="#000000" cx="582.31" cy="-751.7277" rx="3.2" ry="3.2"/>
</g>
</g>
</svg>
