<?xml version="1.0" encoding="UTF-8" standalone="no"?>
<!DOCTYPE svg PUBLIC "-//W3C//DTD SVG 1.1//EN"
 "http://www.w3.org/Graphics/SVG/1.1/DTD/svg11.dtd">
<!-- Generated by graphviz version 2.40.1 (20161225.0304)
 -->
<!-- Title: oneDegreeRelationshipsDiagram Pages: 1 -->
<svg width="751pt" height="696pt"
 viewBox="0.00 0.00 751.00 695.70" xmlns="http://www.w3.org/2000/svg" xmlns:xlink="http://www.w3.org/1999/xlink">
<g id="graph0" class="graph" transform="scale(1 1) rotate(0) translate(4 691.7)">
<title>oneDegreeRelationshipsDiagram</title>
<polygon fill="#ffffff" stroke="transparent" points="-4,4 -4,-691.7 747,-691.7 747,4 -4,4"/>
<text text-anchor="middle" x="72.4936" y="-7.3" font-family="Helvetica,sans-Serif" font-size="11.00" fill="#000000">Generated by SchemaSpy</text>
<!-- form_care_plan -->
<g id="node1" class="node">
<title>form_care_plan</title>
<g id="a_node1"><a xlink:href="../../tables/form_care_plan.html" xlink:title="form_care_plan" target="_top">
<polygon fill="#ffffff" stroke="transparent" points="515,-38.2 515,-568.2 735,-568.2 735,-38.2 515,-38.2"/>
<polygon fill="#f5f5f5" stroke="transparent" points="517,-543.2 517,-566.2 733,-566.2 733,-543.2 517,-543.2"/>
<polygon fill="none" stroke="#000000" points="517,-543.2 517,-566.2 733,-566.2 733,-543.2 517,-543.2"/>
<text text-anchor="start" x="522" y="-551.8" font-family="Helvetica,sans-Serif" font-weight="bold" font-size="11.00" fill="#000000">form_care_plan</text>
<text text-anchor="start" x="698.0437" y="-551.3" font-family="Helvetica,sans-Serif" font-size="11.00" fill="#000000">[table]</text>
<polygon fill="none" stroke="#000000" points="517,-521.2 517,-543.2 666,-543.2 666,-521.2 517,-521.2"/>
<text text-anchor="start" x="537" y="-528.3" font-family="Helvetica,sans-Serif" font-size="11.00" fill="#000000">id</text>
<polygon fill="none" stroke="#000000" points="666,-521.2 666,-543.2 733,-543.2 733,-521.2 666,-521.2"/>
<text text-anchor="start" x="669" y="-528.9" font-family="Helvetica,sans-Serif" font-size="11.00" fill="#000000">bigint[19]</text>
<polygon fill="#ffffff" stroke="transparent" points="517,-499.2 517,-521.2 666,-521.2 666,-499.2 517,-499.2"/>
<polygon fill="none" stroke="#000000" points="517,-499.2 517,-521.2 666,-521.2 666,-499.2 517,-499.2"/>
<text text-anchor="start" x="537" y="-506.3" font-family="Helvetica,sans-Serif" font-size="11.00" fill="#000000">date</text>
<polygon fill="none" stroke="#000000" points="666,-499.2 666,-521.2 733,-521.2 733,-499.2 666,-499.2"/>
<text text-anchor="start" x="669" y="-506.9" font-family="Helvetica,sans-Serif" font-size="11.00" fill="#000000">datetime[19]</text>
<polygon fill="none" stroke="#000000" points="517,-477.2 517,-499.2 666,-499.2 666,-477.2 517,-477.2"/>
<image xlink:href="../../images/foreignKeys.png" width="11px" height="12px" preserveAspectRatio="xMinYMin meet" x="522" y="-494.2"/>
<text text-anchor="start" x="537" y="-484.3" font-family="Helvetica,sans-Serif" font-size="11.00" fill="#000000">pid</text>
<polygon fill="none" stroke="#000000" points="666,-477.2 666,-499.2 733,-499.2 733,-477.2 666,-477.2"/>
<text text-anchor="start" x="669" y="-484.9" font-family="Helvetica,sans-Serif" font-size="11.00" fill="#000000">bigint[19]</text>
<polygon fill="none" stroke="#000000" points="517,-455.2 517,-477.2 666,-477.2 666,-455.2 517,-455.2"/>
<text text-anchor="start" x="537" y="-462.3" font-family="Helvetica,sans-Serif" font-size="11.00" fill="#000000">encounter</text>
<polygon fill="none" stroke="#000000" points="666,-455.2 666,-477.2 733,-477.2 733,-455.2 666,-455.2"/>
<text text-anchor="start" x="668.9365" y="-462.9" font-family="Helvetica,sans-Serif" font-size="11.00" fill="#000000">varchar[255]</text>
<polygon fill="none" stroke="#000000" points="517,-433.2 517,-455.2 666,-455.2 666,-433.2 517,-433.2"/>
<text text-anchor="start" x="537" y="-440.3" font-family="Helvetica,sans-Serif" font-size="11.00" fill="#000000">user</text>
<polygon fill="none" stroke="#000000" points="666,-433.2 666,-455.2 733,-455.2 733,-433.2 666,-433.2"/>
<text text-anchor="start" x="668.9365" y="-440.9" font-family="Helvetica,sans-Serif" font-size="11.00" fill="#000000">varchar[255]</text>
<polygon fill="none" stroke="#000000" points="517,-411.2 517,-433.2 666,-433.2 666,-411.2 517,-411.2"/>
<text text-anchor="start" x="537" y="-418.3" font-family="Helvetica,sans-Serif" font-size="11.00" fill="#000000">groupname</text>
<polygon fill="none" stroke="#000000" points="666,-411.2 666,-433.2 733,-433.2 733,-411.2 666,-411.2"/>
<text text-anchor="start" x="668.9365" y="-418.9" font-family="Helvetica,sans-Serif" font-size="11.00" fill="#000000">varchar[255]</text>
<polygon fill="none" stroke="#000000" points="517,-389.2 517,-411.2 666,-411.2 666,-389.2 517,-389.2"/>
<text text-anchor="start" x="537" y="-396.3" font-family="Helvetica,sans-Serif" font-size="11.00" fill="#000000">authorized</text>
<polygon fill="none" stroke="#000000" points="666,-389.2 666,-411.2 733,-411.2 733,-389.2 666,-389.2"/>
<text text-anchor="start" x="669" y="-396.9" font-family="Helvetica,sans-Serif" font-size="11.00" fill="#000000">tinyint[3]</text>
<polygon fill="none" stroke="#000000" points="517,-367.2 517,-389.2 666,-389.2 666,-367.2 517,-367.2"/>
<text text-anchor="start" x="537" y="-374.3" font-family="Helvetica,sans-Serif" font-size="11.00" fill="#000000">activity</text>
<polygon fill="none" stroke="#000000" points="666,-367.2 666,-389.2 733,-389.2 733,-367.2 666,-367.2"/>
<text text-anchor="start" x="669" y="-374.9" font-family="Helvetica,sans-Serif" font-size="11.00" fill="#000000">tinyint[3]</text>
<polygon fill="none" stroke="#000000" points="517,-345.2 517,-367.2 666,-367.2 666,-345.2 517,-345.2"/>
<text text-anchor="start" x="537" y="-352.3" font-family="Helvetica,sans-Serif" font-size="11.00" fill="#000000">code</text>
<polygon fill="none" stroke="#000000" points="666,-345.2 666,-367.2 733,-367.2 733,-345.2 666,-345.2"/>
<text text-anchor="start" x="668.9365" y="-352.9" font-family="Helvetica,sans-Serif" font-size="11.00" fill="#000000">varchar[255]</text>
<polygon fill="none" stroke="#000000" points="517,-323.2 517,-345.2 666,-345.2 666,-323.2 517,-323.2"/>
<text text-anchor="start" x="537" y="-330.3" font-family="Helvetica,sans-Serif" font-size="11.00" fill="#000000">codetext</text>
<polygon fill="none" stroke="#000000" points="666,-323.2 666,-345.2 733,-345.2 733,-323.2 666,-323.2"/>
<text text-anchor="start" x="669" y="-330.9" font-family="Helvetica,sans-Serif" font-size="11.00" fill="#000000">text[65535]</text>
<polygon fill="none" stroke="#000000" points="517,-301.2 517,-323.2 666,-323.2 666,-301.2 517,-301.2"/>
<text text-anchor="start" x="537" y="-308.3" font-family="Helvetica,sans-Serif" font-size="11.00" fill="#000000">description</text>
<polygon fill="none" stroke="#000000" points="666,-301.2 666,-323.2 733,-323.2 733,-301.2 666,-301.2"/>
<text text-anchor="start" x="669" y="-308.9" font-family="Helvetica,sans-Serif" font-size="11.00" fill="#000000">text[65535]</text>
<polygon fill="none" stroke="#000000" points="517,-279.2 517,-301.2 666,-301.2 666,-279.2 517,-279.2"/>
<text text-anchor="start" x="537" y="-286.3" font-family="Helvetica,sans-Serif" font-size="11.00" fill="#000000">external_id</text>
<polygon fill="none" stroke="#000000" points="666,-279.2 666,-301.2 733,-301.2 733,-279.2 666,-279.2"/>
<text text-anchor="start" x="669" y="-286.9" font-family="Helvetica,sans-Serif" font-size="11.00" fill="#000000">varchar[30]</text>
<polygon fill="none" stroke="#000000" points="517,-257.2 517,-279.2 666,-279.2 666,-257.2 517,-257.2"/>
<image xlink:href="../../images/foreignKeys.png" width="11px" height="12px" preserveAspectRatio="xMinYMin meet" x="522" y="-274.2"/>
<text text-anchor="start" x="537" y="-264.3" font-family="Helvetica,sans-Serif" font-size="11.00" fill="#000000">care_plan_type</text>
<polygon fill="none" stroke="#000000" points="666,-257.2 666,-279.2 733,-279.2 733,-257.2 666,-257.2"/>
<text text-anchor="start" x="669" y="-264.9" font-family="Helvetica,sans-Serif" font-size="11.00" fill="#000000">varchar[30]</text>
<polygon fill="none" stroke="#000000" points="517,-235.2 517,-257.2 666,-257.2 666,-235.2 517,-235.2"/>
<text text-anchor="start" x="537" y="-242.3" font-family="Helvetica,sans-Serif" font-size="11.00" fill="#000000">note_related_to</text>
<polygon fill="none" stroke="#000000" points="666,-235.2 666,-257.2 733,-257.2 733,-235.2 666,-235.2"/>
<text text-anchor="start" x="669" y="-242.9" font-family="Helvetica,sans-Serif" font-size="11.00" fill="#000000">text[65535]</text>
<polygon fill="#ffffff" stroke="transparent" points="517,-213.2 517,-235.2 666,-235.2 666,-213.2 517,-213.2"/>
<polygon fill="none" stroke="#000000" points="517,-213.2 517,-235.2 666,-235.2 666,-213.2 517,-213.2"/>
<text text-anchor="start" x="537" y="-220.3" font-family="Helvetica,sans-Serif" font-size="11.00" fill="#000000">date_end</text>
<polygon fill="none" stroke="#000000" points="666,-213.2 666,-235.2 733,-235.2 733,-213.2 666,-213.2"/>
<text text-anchor="start" x="669" y="-220.9" font-family="Helvetica,sans-Serif" font-size="11.00" fill="#000000">datetime[19]</text>
<polygon fill="none" stroke="#000000" points="517,-191.2 517,-213.2 666,-213.2 666,-191.2 517,-191.2"/>
<text text-anchor="start" x="537" y="-198.3" font-family="Helvetica,sans-Serif" font-size="11.00" fill="#000000">reason_code</text>
<polygon fill="none" stroke="#000000" points="666,-191.2 666,-213.2 733,-213.2 733,-191.2 666,-191.2"/>
<text text-anchor="start" x="669" y="-198.9" font-family="Helvetica,sans-Serif" font-size="11.00" fill="#000000">varchar[31]</text>
<polygon fill="none" stroke="#000000" points="517,-169.2 517,-191.2 666,-191.2 666,-169.2 517,-169.2"/>
<text text-anchor="start" x="537" y="-176.3" font-family="Helvetica,sans-Serif" font-size="11.00" fill="#000000">reason_description</text>
<polygon fill="none" stroke="#000000" points="666,-169.2 666,-191.2 733,-191.2 733,-169.2 666,-169.2"/>
<text text-anchor="start" x="669" y="-176.9" font-family="Helvetica,sans-Serif" font-size="11.00" fill="#000000">text[65535]</text>
<polygon fill="none" stroke="#000000" points="517,-147.2 517,-169.2 666,-169.2 666,-147.2 517,-147.2"/>
<text text-anchor="start" x="537" y="-154.3" font-family="Helvetica,sans-Serif" font-size="11.00" fill="#000000">reason_date_low</text>
<polygon fill="none" stroke="#000000" points="666,-147.2 666,-169.2 733,-169.2 733,-147.2 666,-147.2"/>
<text text-anchor="start" x="669" y="-154.9" font-family="Helvetica,sans-Serif" font-size="11.00" fill="#000000">datetime[19]</text>
<polygon fill="none" stroke="#000000" points="517,-125.2 517,-147.2 666,-147.2 666,-125.2 517,-125.2"/>
<text text-anchor="start" x="537" y="-132.3" font-family="Helvetica,sans-Serif" font-size="11.00" fill="#000000">reason_date_high</text>
<polygon fill="none" stroke="#000000" points="666,-125.2 666,-147.2 733,-147.2 733,-125.2 666,-125.2"/>
<text text-anchor="start" x="669" y="-132.9" font-family="Helvetica,sans-Serif" font-size="11.00" fill="#000000">datetime[19]</text>
<polygon fill="none" stroke="#000000" points="517,-103.2 517,-125.2 666,-125.2 666,-103.2 517,-103.2"/>
<text text-anchor="start" x="537" y="-110.3" font-family="Helvetica,sans-Serif" font-size="11.00" fill="#000000">reason_status</text>
<polygon fill="none" stroke="#000000" points="666,-103.2 666,-125.2 733,-125.2 733,-103.2 666,-103.2"/>
<text text-anchor="start" x="669" y="-110.9" font-family="Helvetica,sans-Serif" font-size="11.00" fill="#000000">varchar[31]</text>
<polygon fill="#ffffff" stroke="transparent" points="517,-81.2 517,-103.2 666,-103.2 666,-81.2 517,-81.2"/>
<polygon fill="none" stroke="#000000" points="517,-81.2 517,-103.2 666,-103.2 666,-81.2 517,-81.2"/>
<image xlink:href="../../images/foreignKeys.png" width="11px" height="12px" preserveAspectRatio="xMinYMin meet" x="522" y="-98.2"/>
<text text-anchor="start" x="537" y="-88.3" font-family="Helvetica,sans-Serif" font-size="11.00" fill="#000000">plan_status</text>
<polygon fill="none" stroke="#000000" points="666,-81.2 666,-103.2 733,-103.2 733,-81.2 666,-81.2"/>
<text text-anchor="start" x="669" y="-88.9" font-family="Helvetica,sans-Serif" font-size="11.00" fill="#000000">varchar[32]</text>
<polygon fill="none" stroke="#000000" points="517,-59.2 517,-81.2 666,-81.2 666,-59.2 517,-59.2"/>
<text text-anchor="start" x="537" y="-66.3" font-family="Helvetica,sans-Serif" font-size="11.00" fill="#000000">proposed_date</text>
<polygon fill="none" stroke="#000000" points="666,-59.2 666,-81.2 733,-81.2 733,-59.2 666,-59.2"/>
<text text-anchor="start" x="669" y="-66.9" font-family="Helvetica,sans-Serif" font-size="11.00" fill="#000000">datetime[19]</text>
<polygon fill="#ffffff" stroke="transparent" points="517,-40.2 517,-59.2 596,-59.2 596,-40.2 517,-40.2"/>
<polygon fill="none" stroke="#000000" points="517,-40.2 517,-59.2 596,-59.2 596,-40.2 517,-40.2"/>
<text text-anchor="start" x="520" y="-46.3" font-family="Helvetica,sans-Serif" font-size="11.00" fill="#000000">&lt; 3</text>
<polygon fill="#ffffff" stroke="transparent" points="596,-40.2 596,-59.2 666,-59.2 666,-40.2 596,-40.2"/>
<polygon fill="none" stroke="#000000" points="596,-40.2 596,-59.2 666,-59.2 666,-40.2 596,-40.2"/>
<text text-anchor="start" x="656.8862" y="-46.3" font-family="Helvetica,sans-Serif" font-size="11.00" fill="#000000"> &#160;</text>
<polygon fill="#ffffff" stroke="transparent" points="666,-40.2 666,-59.2 733,-59.2 733,-40.2 666,-40.2"/>
<polygon fill="none" stroke="#000000" points="666,-40.2 666,-59.2 733,-59.2 733,-40.2 666,-40.2"/>
<text text-anchor="start" x="714.4053" y="-46.3" font-family="Helvetica,sans-Serif" font-size="11.00" fill="#000000">0 &gt;</text>
<polygon fill="none" stroke="#000000" stroke-width="2" points="516,-39.2 516,-567.2 734,-567.2 734,-39.2 516,-39.2"/>
</a>
</g>
</g>
<!-- list_options -->
<g id="node2" class="node">
<title>list_options</title>
<g id="a_node2"><a xlink:href="../../tables/list_options.html" xlink:title="list_options" target="_top">
<polygon fill="#ffffff" stroke="transparent" points="8,-292.7 8,-397.7 140,-397.7 140,-292.7 8,-292.7"/>
<polygon fill="#f5f5f5" stroke="transparent" points="8,-374.2 8,-397.2 140,-397.2 140,-374.2 8,-374.2"/>
<polygon fill="none" stroke="#000000" points="8,-374.2 8,-397.2 140,-397.2 140,-374.2 8,-374.2"/>
<text text-anchor="start" x="13" y="-382.8" font-family="Helvetica,sans-Serif" font-weight="bold" font-size="11.00" fill="#000000">list_options</text>
<text text-anchor="start" x="105.0437" y="-382.3" font-family="Helvetica,sans-Serif" font-size="11.00" fill="#000000">[table]</text>
<polygon fill="none" stroke="#000000" points="8,-352.2 8,-374.2 140,-374.2 140,-352.2 8,-352.2"/>
<image xlink:href="../../images/primaryKeys.png" width="11px" height="12px" preserveAspectRatio="xMinYMin meet" x="13" y="-369.2"/>
<text text-anchor="start" x="28" y="-359.3" font-family="Helvetica,sans-Serif" font-size="11.00" fill="#000000">list_id</text>
<polygon fill="none" stroke="#000000" points="8,-330.2 8,-352.2 140,-352.2 140,-330.2 8,-330.2"/>
<image xlink:href="../../images/primaryKeys.png" width="11px" height="12px" preserveAspectRatio="xMinYMin meet" x="13" y="-347.2"/>
<text text-anchor="start" x="28" y="-337.3" font-family="Helvetica,sans-Serif" font-size="11.00" fill="#000000">option_id</text>
<polygon fill="none" stroke="#000000" points="8,-311.2 8,-330.2 140,-330.2 140,-311.2 8,-311.2"/>
<text text-anchor="start" x="11" y="-317.3" font-family="Helvetica,sans-Serif" font-size="11.00" fill="#000000">...</text>
<polygon fill="#ffffff" stroke="transparent" points="8,-292.2 8,-311.2 60,-311.2 60,-292.2 8,-292.2"/>
<polygon fill="none" stroke="#000000" points="8,-292.2 8,-311.2 60,-311.2 60,-292.2 8,-292.2"/>
<text text-anchor="start" x="11" y="-298.3" font-family="Helvetica,sans-Serif" font-size="11.00" fill="#000000"> &#160;</text>
<polygon fill="#ffffff" stroke="transparent" points="60,-292.2 60,-311.2 92,-311.2 92,-292.2 60,-292.2"/>
<polygon fill="none" stroke="#000000" points="60,-292.2 60,-311.2 92,-311.2 92,-292.2 60,-292.2"/>
<text text-anchor="start" x="82.8862" y="-298.3" font-family="Helvetica,sans-Serif" font-size="11.00" fill="#000000"> &#160;</text>
<polygon fill="#ffffff" stroke="transparent" points="92,-292.2 92,-311.2 140,-311.2 140,-292.2 92,-292.2"/>
<polygon fill="none" stroke="#000000" points="92,-292.2 92,-311.2 140,-311.2 140,-292.2 92,-292.2"/>
<text text-anchor="start" x="115.2904" y="-298.3" font-family="Helvetica,sans-Serif" font-size="11.00" fill="#000000">98 &gt;</text>
</a>
</g>
</g>
<!-- form_care_plan&#45;&gt;list_options -->
<g id="edge1" class="edge">
<title>form_care_plan:w&#45;&gt;list_options:e</title>
<path fill="none" stroke="#000000" d="M502.4165,-268.0151C363.7647,-264.4922 307.6327,-212.5976 181,-282.2 153.0164,-297.5809 171.932,-341.2 140,-341.2"/>
<polygon fill="#000000" stroke="#000000" points="509.0006,-268.0985 516.9543,-271.7997 513.0003,-268.1493 517,-268.2 517,-268.2 517,-268.2 513.0003,-268.1493 517.0457,-264.6003 509.0006,-268.0985 509.0006,-268.0985"/>
<ellipse fill="none" stroke="#000000" cx="505.8009" cy="-268.0579" rx="3.2" ry="3.2"/>
</g>
<!-- form_care_plan&#45;&gt;list_options -->
<g id="edge3" class="edge">
<title>form_care_plan:w&#45;&gt;list_options:e</title>
<path fill="none" stroke="#000000" d="M502.417,-92.2941C349.7144,-94.3188 291.7874,-129.4804 181,-243.2 148.0537,-277.0183 187.2137,-341.2 140,-341.2"/>
<polygon fill="#000000" stroke="#000000" points="509.0002,-92.2517 517.0233,-95.7999 513.0001,-92.2258 517,-92.2 517,-92.2 517,-92.2 513.0001,-92.2258 516.9767,-88.6001 509.0002,-92.2517 509.0002,-92.2517"/>
<ellipse fill="none" stroke="#000000" cx="505.8002" cy="-92.2724" rx="3.2" ry="3.2"/>
</g>
<!-- patient_data -->
<g id="node3" class="node">
<title>patient_data</title>
<g id="a_node3"><a xlink:href="../../tables/patient_data.html" xlink:title="patient_data" target="_top">
<polygon fill="#ffffff" stroke="transparent" points="189,-292.7 189,-683.7 466,-683.7 466,-292.7 189,-292.7"/>
<polygon fill="#f5f5f5" stroke="transparent" points="189.5,-660.2 189.5,-683.2 466.5,-683.2 466.5,-660.2 189.5,-660.2"/>
<polygon fill="none" stroke="#000000" points="189.5,-660.2 189.5,-683.2 466.5,-683.2 466.5,-660.2 189.5,-660.2"/>
<text text-anchor="start" x="194.5" y="-668.8" font-family="Helvetica,sans-Serif" font-weight="bold" font-size="11.00" fill="#000000">patient_data</text>
<text text-anchor="start" x="431.5437" y="-668.3" font-family="Helvetica,sans-Serif" font-size="11.00" fill="#000000">[table]</text>
<polygon fill="none" stroke="#000000" points="189.5,-638.2 189.5,-660.2 466.5,-660.2 466.5,-638.2 189.5,-638.2"/>
<image xlink:href="../../images/primaryKeys.png" width="11px" height="12px" preserveAspectRatio="xMinYMin meet" x="194.5" y="-655.2"/>
<text text-anchor="start" x="209.5" y="-645.3" font-family="Helvetica,sans-Serif" font-size="11.00" fill="#000000">id</text>
<polygon fill="#ffffff" stroke="transparent" points="189.5,-616.2 189.5,-638.2 466.5,-638.2 466.5,-616.2 189.5,-616.2"/>
<polygon fill="none" stroke="#000000" points="189.5,-616.2 189.5,-638.2 466.5,-638.2 466.5,-616.2 189.5,-616.2"/>
<text text-anchor="start" x="209.5" y="-623.3" font-family="Helvetica,sans-Serif" font-size="11.00" fill="#000000">uuid</text>
<polygon fill="#ffffff" stroke="transparent" points="189.5,-594.2 189.5,-616.2 466.5,-616.2 466.5,-594.2 189.5,-594.2"/>
<polygon fill="none" stroke="#000000" points="189.5,-594.2 189.5,-616.2 466.5,-616.2 466.5,-594.2 189.5,-594.2"/>
<text text-anchor="start" x="209.5" y="-601.3" font-family="Helvetica,sans-Serif" font-size="11.00" fill="#000000">fname</text>
<polygon fill="#ffffff" stroke="transparent" points="189.5,-572.2 189.5,-594.2 466.5,-594.2 466.5,-572.2 189.5,-572.2"/>
<polygon fill="none" stroke="#000000" points="189.5,-572.2 189.5,-594.2 466.5,-594.2 466.5,-572.2 189.5,-572.2"/>
<text text-anchor="start" x="209.5" y="-579.3" font-family="Helvetica,sans-Serif" font-size="11.00" fill="#000000">lname</text>
<polygon fill="#ffffff" stroke="transparent" points="189.5,-550.2 189.5,-572.2 466.5,-572.2 466.5,-550.2 189.5,-550.2"/>
<polygon fill="none" stroke="#000000" points="189.5,-550.2 189.5,-572.2 466.5,-572.2 466.5,-550.2 189.5,-550.2"/>
<text text-anchor="start" x="209.5" y="-557.3" font-family="Helvetica,sans-Serif" font-size="11.00" fill="#000000">DOB</text>
<polygon fill="none" stroke="#000000" points="189.5,-528.2 189.5,-550.2 466.5,-550.2 466.5,-528.2 189.5,-528.2"/>
<image xlink:href="../../images/foreignKeys.png" width="11px" height="12px" preserveAspectRatio="xMinYMin meet" x="194.5" y="-545.2"/>
<text text-anchor="start" x="209.5" y="-535.3" font-family="Helvetica,sans-Serif" font-size="11.00" fill="#000000">pharmacy_id</text>
<polygon fill="none" stroke="#000000" points="189.5,-506.2 189.5,-528.2 466.5,-528.2 466.5,-506.2 189.5,-506.2"/>
<image xlink:href="../../images/foreignKeys.png" width="11px" height="12px" preserveAspectRatio="xMinYMin meet" x="194.5" y="-523.2"/>
<text text-anchor="start" x="209.5" y="-513.3" font-family="Helvetica,sans-Serif" font-size="11.00" fill="#000000">providerID</text>
<polygon fill="none" stroke="#000000" points="189.5,-484.2 189.5,-506.2 466.5,-506.2 466.5,-484.2 189.5,-484.2"/>
<image xlink:href="../../images/foreignKeys.png" width="11px" height="12px" preserveAspectRatio="xMinYMin meet" x="194.5" y="-501.2"/>
<text text-anchor="start" x="209.5" y="-491.3" font-family="Helvetica,sans-Serif" font-size="11.00" fill="#000000">ref_providerID</text>
<polygon fill="none" stroke="#000000" points="189.5,-462.2 189.5,-484.2 466.5,-484.2 466.5,-462.2 189.5,-462.2"/>
<image xlink:href="../../images/foreignKeys.png" width="11px" height="12px" preserveAspectRatio="xMinYMin meet" x="194.5" y="-479.2"/>
<text text-anchor="start" x="209.5" y="-469.3" font-family="Helvetica,sans-Serif" font-size="11.00" fill="#000000">interpreter_needed</text>
<polygon fill="none" stroke="#000000" points="189.5,-440.2 189.5,-462.2 466.5,-462.2 466.5,-440.2 189.5,-440.2"/>
<image xlink:href="../../images/primaryKeys.png" width="11px" height="12px" preserveAspectRatio="xMinYMin meet" x="194.5" y="-457.2"/>
<text text-anchor="start" x="209.5" y="-447.3" font-family="Helvetica,sans-Serif" font-size="11.00" fill="#000000">pid</text>
<polygon fill="none" stroke="#000000" points="189.5,-418.2 189.5,-440.2 466.5,-440.2 466.5,-418.2 189.5,-418.2"/>
<image xlink:href="../../images/foreignKeys.png" width="11px" height="12px" preserveAspectRatio="xMinYMin meet" x="194.5" y="-435.2"/>
<text text-anchor="start" x="209.5" y="-425.3" font-family="Helvetica,sans-Serif" font-size="11.00" fill="#000000">advance_directive_user_authenticator</text>
<polygon fill="none" stroke="#000000" points="189.5,-396.2 189.5,-418.2 466.5,-418.2 466.5,-396.2 189.5,-396.2"/>
<image xlink:href="../../images/foreignKeys.png" width="11px" height="12px" preserveAspectRatio="xMinYMin meet" x="194.5" y="-413.2"/>
<text text-anchor="start" x="209.5" y="-403.3" font-family="Helvetica,sans-Serif" font-size="11.00" fill="#000000">created_by</text>
<polygon fill="none" stroke="#000000" points="189.5,-374.2 189.5,-396.2 466.5,-396.2 466.5,-374.2 189.5,-374.2"/>
<image xlink:href="../../images/foreignKeys.png" width="11px" height="12px" preserveAspectRatio="xMinYMin meet" x="194.5" y="-391.2"/>
<text text-anchor="start" x="209.5" y="-381.3" font-family="Helvetica,sans-Serif" font-size="11.00" fill="#000000">updated_by</text>
<polygon fill="none" stroke="#000000" points="189.5,-352.2 189.5,-374.2 466.5,-374.2 466.5,-352.2 189.5,-352.2"/>
<image xlink:href="../../images/foreignKeys.png" width="11px" height="12px" preserveAspectRatio="xMinYMin meet" x="194.5" y="-369.2"/>
<text text-anchor="start" x="209.5" y="-359.3" font-family="Helvetica,sans-Serif" font-size="11.00" fill="#000000">tribal_affiliations</text>
<polygon fill="none" stroke="#000000" points="189.5,-330.2 189.5,-352.2 466.5,-352.2 466.5,-330.2 189.5,-330.2"/>
<image xlink:href="../../images/foreignKeys.png" width="11px" height="12px" preserveAspectRatio="xMinYMin meet" x="194.5" y="-347.2"/>
<text text-anchor="start" x="209.5" y="-337.3" font-family="Helvetica,sans-Serif" font-size="11.00" fill="#000000">sex_identified</text>
<polygon fill="none" stroke="#000000" points="189.5,-311.2 189.5,-330.2 466.5,-330.2 466.5,-311.2 189.5,-311.2"/>
<text text-anchor="start" x="192.5" y="-317.3" font-family="Helvetica,sans-Serif" font-size="11.00" fill="#000000">...</text>
<polygon fill="#ffffff" stroke="transparent" points="189.5,-292.2 189.5,-311.2 318.5,-311.2 318.5,-292.2 189.5,-292.2"/>
<polygon fill="none" stroke="#000000" points="189.5,-292.2 189.5,-311.2 318.5,-311.2 318.5,-292.2 189.5,-292.2"/>
<text text-anchor="start" x="192.5" y="-298.3" font-family="Helvetica,sans-Serif" font-size="11.00" fill="#000000">&lt; 9</text>
<polygon fill="#ffffff" stroke="transparent" points="318.5,-292.2 318.5,-311.2 384.5,-311.2 384.5,-292.2 318.5,-292.2"/>
<polygon fill="none" stroke="#000000" points="318.5,-292.2 318.5,-311.2 384.5,-311.2 384.5,-292.2 318.5,-292.2"/>
<text text-anchor="start" x="375.3862" y="-298.3" font-family="Helvetica,sans-Serif" font-size="11.00" fill="#000000"> &#160;</text>
<polygon fill="#ffffff" stroke="transparent" points="384.5,-292.2 384.5,-311.2 466.5,-311.2 466.5,-292.2 384.5,-292.2"/>
<polygon fill="none" stroke="#000000" points="384.5,-292.2 384.5,-311.2 466.5,-311.2 466.5,-292.2 384.5,-292.2"/>
<text text-anchor="start" x="441.7904" y="-298.3" font-family="Helvetica,sans-Serif" font-size="11.00" fill="#000000">95 &gt;</text>
</a>
</g>
</g>
<!-- form_care_plan&#45;&gt;patient_data -->
<g id="edge2" class="edge">
<title>form_care_plan:w&#45;&gt;patient_data:e</title>
<path fill="none" stroke="#000000" d="M503.1749,-483.9556C489.8807,-474.2369 488.4548,-451.2 466.5,-451.2"/>
<polygon fill="#000000" stroke="#000000" points="509.3523,-485.8521 515.9434,-491.6415 513.1761,-487.026 517,-488.2 517,-488.2 517,-488.2 513.1761,-487.026 518.0566,-484.7585 509.3523,-485.8521 509.3523,-485.8521"/>
<ellipse fill="none" stroke="#000000" cx="506.2932" cy="-484.9129" rx="3.2" ry="3.2"/>
</g>
<!-- patient_data&#45;&gt;list_options -->
<g id="edge4" class="edge">
<title>patient_data:w&#45;&gt;list_options:e</title>
<path fill="none" stroke="#000000" d="M175.3008,-469.9371C139.8417,-449.6102 196.782,-341.2 140,-341.2"/>
<polygon fill="#000000" stroke="#000000" points="181.7032,-471.4083 188.6937,-476.7086 185.6016,-472.3041 189.5,-473.2 189.5,-473.2 189.5,-473.2 185.6016,-472.3041 190.3063,-469.6914 181.7032,-471.4083 181.7032,-471.4083"/>
<ellipse fill="none" stroke="#000000" cx="178.5845" cy="-470.6916" rx="3.2" ry="3.2"/>
</g>
<!-- patient_data&#45;&gt;list_options -->
<g id="edge5" class="edge">
<title>patient_data:w&#45;&gt;list_options:e</title>
<path fill="none" stroke="#000000" d="M174.8428,-341.2C163.4139,-341.2 156.1563,-341.2 140,-341.2"/>
<polygon fill="#000000" stroke="#000000" points="181.5,-341.2001 189.5,-344.8 185.5,-341.2 189.5,-341.2 189.5,-341.2 189.5,-341.2 185.5,-341.2 189.5,-337.6 181.5,-341.2001 181.5,-341.2001"/>
<ellipse fill="none" stroke="#000000" cx="178.3" cy="-341.2001" rx="3.2" ry="3.2"/>
</g>
<!-- patient_data&#45;&gt;list_options -->
<g id="edge6" class="edge">
<title>patient_data:w&#45;&gt;list_options:e</title>
<path fill="none" stroke="#000000" d="M175.3612,-359.9538C163.4382,-353.8342 158.2443,-341.2 140,-341.2"/>
<polygon fill="#000000" stroke="#000000" points="181.7029,-361.4098 188.6944,-366.7087 185.6014,-362.3049 189.5,-363.2 189.5,-363.2 189.5,-363.2 185.6014,-362.3049 190.3056,-359.6913 181.7029,-361.4098 181.7029,-361.4098"/>
<ellipse fill="none" stroke="#000000" cx="178.584" cy="-360.6937" rx="3.2" ry="3.2"/>
</g>
</g>
</svg>
