<?xml version="1.0" encoding="UTF-8" standalone="no"?>
<!DOCTYPE svg PUBLIC "-//W3C//DTD SVG 1.1//EN"
 "http://www.w3.org/Graphics/SVG/1.1/DTD/svg11.dtd">
<!-- Generated by graphviz version 2.40.1 (20161225.0304)
 -->
<!-- Title: oneDegreeRelationshipsDiagram Pages: 1 -->
<svg width="600pt" height="1129pt"
 viewBox="0.00 0.00 600.00 1128.70" xmlns="http://www.w3.org/2000/svg" xmlns:xlink="http://www.w3.org/1999/xlink">
<g id="graph0" class="graph" transform="scale(1 1) rotate(0) translate(4 1124.7)">
<title>oneDegreeRelationshipsDiagram</title>
<polygon fill="#ffffff" stroke="transparent" points="-4,4 -4,-1124.7 596,-1124.7 596,4 -4,4"/>
<text text-anchor="middle" x="72.4936" y="-7.3" font-family="Helvetica,sans-Serif" font-size="11.00" fill="#000000">Generated by SchemaSpy</text>
<!-- form_eye_antseg -->
<g id="node1" class="node">
<title>form_eye_antseg</title>
<g id="a_node1"><a xlink:href="../../tables/form_eye_antseg.html" xlink:title="form_eye_antseg" target="_top">
<polygon fill="#ffffff" stroke="transparent" points="334,-38.2 334,-942.2 584,-942.2 584,-38.2 334,-38.2"/>
<polygon fill="#f5f5f5" stroke="transparent" points="336,-917.2 336,-940.2 582,-940.2 582,-917.2 336,-917.2"/>
<polygon fill="none" stroke="#000000" points="336,-917.2 336,-940.2 582,-940.2 582,-917.2 336,-917.2"/>
<text text-anchor="start" x="341" y="-925.8" font-family="Helvetica,sans-Serif" font-weight="bold" font-size="11.00" fill="#000000">form_eye_antseg</text>
<text text-anchor="start" x="547.0437" y="-925.3" font-family="Helvetica,sans-Serif" font-size="11.00" fill="#000000">[table]</text>
<polygon fill="none" stroke="#000000" points="336,-895.2 336,-917.2 521,-917.2 521,-895.2 336,-895.2"/>
<image xlink:href="../../images/primaryKeys.png" width="11px" height="12px" preserveAspectRatio="xMinYMin meet" x="341" y="-912.2"/>
<text text-anchor="start" x="356" y="-902.3" font-family="Helvetica,sans-Serif" font-size="11.00" fill="#000000">id</text>
<polygon fill="none" stroke="#000000" points="521,-895.2 521,-917.2 582,-917.2 582,-895.2 521,-895.2"/>
<text text-anchor="start" x="524" y="-902.9" font-family="Helvetica,sans-Serif" font-size="11.00" fill="#000000">bigint[19]</text>
<polygon fill="#ffffff" stroke="transparent" points="336,-873.2 336,-895.2 521,-895.2 521,-873.2 336,-873.2"/>
<polygon fill="none" stroke="#000000" points="336,-873.2 336,-895.2 521,-895.2 521,-873.2 336,-873.2"/>
<image xlink:href="../../images/foreignKeys.png" width="11px" height="12px" preserveAspectRatio="xMinYMin meet" x="341" y="-890.2"/>
<text text-anchor="start" x="356" y="-880.3" font-family="Helvetica,sans-Serif" font-size="11.00" fill="#000000">pid</text>
<polygon fill="none" stroke="#000000" points="521,-873.2 521,-895.2 582,-895.2 582,-873.2 521,-873.2"/>
<text text-anchor="start" x="524" y="-880.9" font-family="Helvetica,sans-Serif" font-size="11.00" fill="#000000">bigint[19]</text>
<polygon fill="none" stroke="#000000" points="336,-851.2 336,-873.2 521,-873.2 521,-851.2 336,-851.2"/>
<text text-anchor="start" x="356" y="-858.3" font-family="Helvetica,sans-Serif" font-size="11.00" fill="#000000">ODSCHIRMER1</text>
<polygon fill="none" stroke="#000000" points="521,-851.2 521,-873.2 582,-873.2 582,-851.2 521,-851.2"/>
<text text-anchor="start" x="523.994" y="-858.9" font-family="Helvetica,sans-Serif" font-size="11.00" fill="#000000">varchar[25]</text>
<polygon fill="none" stroke="#000000" points="336,-829.2 336,-851.2 521,-851.2 521,-829.2 336,-829.2"/>
<text text-anchor="start" x="356" y="-836.3" font-family="Helvetica,sans-Serif" font-size="11.00" fill="#000000">OSSCHIRMER1</text>
<polygon fill="none" stroke="#000000" points="521,-829.2 521,-851.2 582,-851.2 582,-829.2 521,-829.2"/>
<text text-anchor="start" x="523.994" y="-836.9" font-family="Helvetica,sans-Serif" font-size="11.00" fill="#000000">varchar[25]</text>
<polygon fill="none" stroke="#000000" points="336,-807.2 336,-829.2 521,-829.2 521,-807.2 336,-807.2"/>
<text text-anchor="start" x="356" y="-814.3" font-family="Helvetica,sans-Serif" font-size="11.00" fill="#000000">ODSCHIRMER2</text>
<polygon fill="none" stroke="#000000" points="521,-807.2 521,-829.2 582,-829.2 582,-807.2 521,-807.2"/>
<text text-anchor="start" x="523.994" y="-814.9" font-family="Helvetica,sans-Serif" font-size="11.00" fill="#000000">varchar[25]</text>
<polygon fill="none" stroke="#000000" points="336,-785.2 336,-807.2 521,-807.2 521,-785.2 336,-785.2"/>
<text text-anchor="start" x="356" y="-792.3" font-family="Helvetica,sans-Serif" font-size="11.00" fill="#000000">OSSCHIRMER2</text>
<polygon fill="none" stroke="#000000" points="521,-785.2 521,-807.2 582,-807.2 582,-785.2 521,-785.2"/>
<text text-anchor="start" x="523.994" y="-792.9" font-family="Helvetica,sans-Serif" font-size="11.00" fill="#000000">varchar[25]</text>
<polygon fill="none" stroke="#000000" points="336,-763.2 336,-785.2 521,-785.2 521,-763.2 336,-763.2"/>
<text text-anchor="start" x="356" y="-770.3" font-family="Helvetica,sans-Serif" font-size="11.00" fill="#000000">ODTBUT</text>
<polygon fill="none" stroke="#000000" points="521,-763.2 521,-785.2 582,-785.2 582,-763.2 521,-763.2"/>
<text text-anchor="start" x="523.994" y="-770.9" font-family="Helvetica,sans-Serif" font-size="11.00" fill="#000000">varchar[25]</text>
<polygon fill="none" stroke="#000000" points="336,-741.2 336,-763.2 521,-763.2 521,-741.2 336,-741.2"/>
<text text-anchor="start" x="356" y="-748.3" font-family="Helvetica,sans-Serif" font-size="11.00" fill="#000000">OSTBUT</text>
<polygon fill="none" stroke="#000000" points="521,-741.2 521,-763.2 582,-763.2 582,-741.2 521,-741.2"/>
<text text-anchor="start" x="523.994" y="-748.9" font-family="Helvetica,sans-Serif" font-size="11.00" fill="#000000">varchar[25]</text>
<polygon fill="none" stroke="#000000" points="336,-719.2 336,-741.2 521,-741.2 521,-719.2 336,-719.2"/>
<text text-anchor="start" x="356" y="-726.3" font-family="Helvetica,sans-Serif" font-size="11.00" fill="#000000">OSCONJ</text>
<polygon fill="none" stroke="#000000" points="521,-719.2 521,-741.2 582,-741.2 582,-719.2 521,-719.2"/>
<text text-anchor="start" x="524" y="-726.9" font-family="Helvetica,sans-Serif" font-size="11.00" fill="#000000">text[65535]</text>
<polygon fill="none" stroke="#000000" points="336,-697.2 336,-719.2 521,-719.2 521,-697.2 336,-697.2"/>
<text text-anchor="start" x="356" y="-704.3" font-family="Helvetica,sans-Serif" font-size="11.00" fill="#000000">ODCONJ</text>
<polygon fill="none" stroke="#000000" points="521,-697.2 521,-719.2 582,-719.2 582,-697.2 521,-697.2"/>
<text text-anchor="start" x="524" y="-704.9" font-family="Helvetica,sans-Serif" font-size="11.00" fill="#000000">text[65535]</text>
<polygon fill="none" stroke="#000000" points="336,-675.2 336,-697.2 521,-697.2 521,-675.2 336,-675.2"/>
<text text-anchor="start" x="356" y="-682.3" font-family="Helvetica,sans-Serif" font-size="11.00" fill="#000000">ODCORNEA</text>
<polygon fill="none" stroke="#000000" points="521,-675.2 521,-697.2 582,-697.2 582,-675.2 521,-675.2"/>
<text text-anchor="start" x="524" y="-682.9" font-family="Helvetica,sans-Serif" font-size="11.00" fill="#000000">text[65535]</text>
<polygon fill="none" stroke="#000000" points="336,-653.2 336,-675.2 521,-675.2 521,-653.2 336,-653.2"/>
<text text-anchor="start" x="356" y="-660.3" font-family="Helvetica,sans-Serif" font-size="11.00" fill="#000000">OSCORNEA</text>
<polygon fill="none" stroke="#000000" points="521,-653.2 521,-675.2 582,-675.2 582,-653.2 521,-653.2"/>
<text text-anchor="start" x="524" y="-660.9" font-family="Helvetica,sans-Serif" font-size="11.00" fill="#000000">text[65535]</text>
<polygon fill="none" stroke="#000000" points="336,-631.2 336,-653.2 521,-653.2 521,-631.2 336,-631.2"/>
<text text-anchor="start" x="356" y="-638.3" font-family="Helvetica,sans-Serif" font-size="11.00" fill="#000000">ODAC</text>
<polygon fill="none" stroke="#000000" points="521,-631.2 521,-653.2 582,-653.2 582,-631.2 521,-631.2"/>
<text text-anchor="start" x="524" y="-638.9" font-family="Helvetica,sans-Serif" font-size="11.00" fill="#000000">text[65535]</text>
<polygon fill="none" stroke="#000000" points="336,-609.2 336,-631.2 521,-631.2 521,-609.2 336,-609.2"/>
<text text-anchor="start" x="356" y="-616.3" font-family="Helvetica,sans-Serif" font-size="11.00" fill="#000000">OSAC</text>
<polygon fill="none" stroke="#000000" points="521,-609.2 521,-631.2 582,-631.2 582,-609.2 521,-609.2"/>
<text text-anchor="start" x="524" y="-616.9" font-family="Helvetica,sans-Serif" font-size="11.00" fill="#000000">text[65535]</text>
<polygon fill="none" stroke="#000000" points="336,-587.2 336,-609.2 521,-609.2 521,-587.2 336,-587.2"/>
<text text-anchor="start" x="356" y="-594.3" font-family="Helvetica,sans-Serif" font-size="11.00" fill="#000000">ODLENS</text>
<polygon fill="none" stroke="#000000" points="521,-587.2 521,-609.2 582,-609.2 582,-587.2 521,-587.2"/>
<text text-anchor="start" x="524" y="-594.9" font-family="Helvetica,sans-Serif" font-size="11.00" fill="#000000">text[65535]</text>
<polygon fill="none" stroke="#000000" points="336,-565.2 336,-587.2 521,-587.2 521,-565.2 336,-565.2"/>
<text text-anchor="start" x="356" y="-572.3" font-family="Helvetica,sans-Serif" font-size="11.00" fill="#000000">OSLENS</text>
<polygon fill="none" stroke="#000000" points="521,-565.2 521,-587.2 582,-587.2 582,-565.2 521,-565.2"/>
<text text-anchor="start" x="524" y="-572.9" font-family="Helvetica,sans-Serif" font-size="11.00" fill="#000000">text[65535]</text>
<polygon fill="none" stroke="#000000" points="336,-543.2 336,-565.2 521,-565.2 521,-543.2 336,-543.2"/>
<text text-anchor="start" x="356" y="-550.3" font-family="Helvetica,sans-Serif" font-size="11.00" fill="#000000">ODIRIS</text>
<polygon fill="none" stroke="#000000" points="521,-543.2 521,-565.2 582,-565.2 582,-543.2 521,-543.2"/>
<text text-anchor="start" x="524" y="-550.9" font-family="Helvetica,sans-Serif" font-size="11.00" fill="#000000">text[65535]</text>
<polygon fill="none" stroke="#000000" points="336,-521.2 336,-543.2 521,-543.2 521,-521.2 336,-521.2"/>
<text text-anchor="start" x="356" y="-528.3" font-family="Helvetica,sans-Serif" font-size="11.00" fill="#000000">OSIRIS</text>
<polygon fill="none" stroke="#000000" points="521,-521.2 521,-543.2 582,-543.2 582,-521.2 521,-521.2"/>
<text text-anchor="start" x="524" y="-528.9" font-family="Helvetica,sans-Serif" font-size="11.00" fill="#000000">text[65535]</text>
<polygon fill="none" stroke="#000000" points="336,-499.2 336,-521.2 521,-521.2 521,-499.2 336,-499.2"/>
<text text-anchor="start" x="356" y="-506.3" font-family="Helvetica,sans-Serif" font-size="11.00" fill="#000000">PUPIL_NORMAL</text>
<polygon fill="none" stroke="#000000" points="521,-499.2 521,-521.2 582,-521.2 582,-499.2 521,-499.2"/>
<text text-anchor="start" x="524" y="-506.9" font-family="Helvetica,sans-Serif" font-size="11.00" fill="#000000">varchar[2]</text>
<polygon fill="none" stroke="#000000" points="336,-477.2 336,-499.2 521,-499.2 521,-477.2 336,-477.2"/>
<text text-anchor="start" x="356" y="-484.3" font-family="Helvetica,sans-Serif" font-size="11.00" fill="#000000">ODPUPILSIZE1</text>
<polygon fill="none" stroke="#000000" points="521,-477.2 521,-499.2 582,-499.2 582,-477.2 521,-477.2"/>
<text text-anchor="start" x="523.994" y="-484.9" font-family="Helvetica,sans-Serif" font-size="11.00" fill="#000000">varchar[25]</text>
<polygon fill="none" stroke="#000000" points="336,-455.2 336,-477.2 521,-477.2 521,-455.2 336,-455.2"/>
<text text-anchor="start" x="356" y="-462.3" font-family="Helvetica,sans-Serif" font-size="11.00" fill="#000000">ODPUPILSIZE2</text>
<polygon fill="none" stroke="#000000" points="521,-455.2 521,-477.2 582,-477.2 582,-455.2 521,-455.2"/>
<text text-anchor="start" x="523.994" y="-462.9" font-family="Helvetica,sans-Serif" font-size="11.00" fill="#000000">varchar[25]</text>
<polygon fill="none" stroke="#000000" points="336,-433.2 336,-455.2 521,-455.2 521,-433.2 336,-433.2"/>
<text text-anchor="start" x="356" y="-440.3" font-family="Helvetica,sans-Serif" font-size="11.00" fill="#000000">ODPUPILREACTIVITY</text>
<polygon fill="none" stroke="#000000" points="521,-433.2 521,-455.2 582,-455.2 582,-433.2 521,-433.2"/>
<text text-anchor="start" x="524" y="-440.9" font-family="Helvetica,sans-Serif" font-size="11.00" fill="#000000">char[25]</text>
<polygon fill="none" stroke="#000000" points="336,-411.2 336,-433.2 521,-433.2 521,-411.2 336,-411.2"/>
<text text-anchor="start" x="356" y="-418.3" font-family="Helvetica,sans-Serif" font-size="11.00" fill="#000000">ODAPD</text>
<polygon fill="none" stroke="#000000" points="521,-411.2 521,-433.2 582,-433.2 582,-411.2 521,-411.2"/>
<text text-anchor="start" x="523.994" y="-418.9" font-family="Helvetica,sans-Serif" font-size="11.00" fill="#000000">varchar[25]</text>
<polygon fill="none" stroke="#000000" points="336,-389.2 336,-411.2 521,-411.2 521,-389.2 336,-389.2"/>
<text text-anchor="start" x="356" y="-396.3" font-family="Helvetica,sans-Serif" font-size="11.00" fill="#000000">OSPUPILSIZE1</text>
<polygon fill="none" stroke="#000000" points="521,-389.2 521,-411.2 582,-411.2 582,-389.2 521,-389.2"/>
<text text-anchor="start" x="523.994" y="-396.9" font-family="Helvetica,sans-Serif" font-size="11.00" fill="#000000">varchar[25]</text>
<polygon fill="none" stroke="#000000" points="336,-367.2 336,-389.2 521,-389.2 521,-367.2 336,-367.2"/>
<text text-anchor="start" x="356" y="-374.3" font-family="Helvetica,sans-Serif" font-size="11.00" fill="#000000">OSPUPILSIZE2</text>
<polygon fill="none" stroke="#000000" points="521,-367.2 521,-389.2 582,-389.2 582,-367.2 521,-367.2"/>
<text text-anchor="start" x="523.994" y="-374.9" font-family="Helvetica,sans-Serif" font-size="11.00" fill="#000000">varchar[25]</text>
<polygon fill="none" stroke="#000000" points="336,-345.2 336,-367.2 521,-367.2 521,-345.2 336,-345.2"/>
<text text-anchor="start" x="356" y="-352.3" font-family="Helvetica,sans-Serif" font-size="11.00" fill="#000000">OSPUPILREACTIVITY</text>
<polygon fill="none" stroke="#000000" points="521,-345.2 521,-367.2 582,-367.2 582,-345.2 521,-345.2"/>
<text text-anchor="start" x="524" y="-352.9" font-family="Helvetica,sans-Serif" font-size="11.00" fill="#000000">char[25]</text>
<polygon fill="none" stroke="#000000" points="336,-323.2 336,-345.2 521,-345.2 521,-323.2 336,-323.2"/>
<text text-anchor="start" x="356" y="-330.3" font-family="Helvetica,sans-Serif" font-size="11.00" fill="#000000">OSAPD</text>
<polygon fill="none" stroke="#000000" points="521,-323.2 521,-345.2 582,-345.2 582,-323.2 521,-323.2"/>
<text text-anchor="start" x="523.994" y="-330.9" font-family="Helvetica,sans-Serif" font-size="11.00" fill="#000000">varchar[25]</text>
<polygon fill="none" stroke="#000000" points="336,-301.2 336,-323.2 521,-323.2 521,-301.2 336,-301.2"/>
<text text-anchor="start" x="356" y="-308.3" font-family="Helvetica,sans-Serif" font-size="11.00" fill="#000000">DIMODPUPILSIZE1</text>
<polygon fill="none" stroke="#000000" points="521,-301.2 521,-323.2 582,-323.2 582,-301.2 521,-301.2"/>
<text text-anchor="start" x="523.994" y="-308.9" font-family="Helvetica,sans-Serif" font-size="11.00" fill="#000000">varchar[25]</text>
<polygon fill="none" stroke="#000000" points="336,-279.2 336,-301.2 521,-301.2 521,-279.2 336,-279.2"/>
<text text-anchor="start" x="356" y="-286.3" font-family="Helvetica,sans-Serif" font-size="11.00" fill="#000000">DIMODPUPILSIZE2</text>
<polygon fill="none" stroke="#000000" points="521,-279.2 521,-301.2 582,-301.2 582,-279.2 521,-279.2"/>
<text text-anchor="start" x="523.994" y="-286.9" font-family="Helvetica,sans-Serif" font-size="11.00" fill="#000000">varchar[25]</text>
<polygon fill="none" stroke="#000000" points="336,-257.2 336,-279.2 521,-279.2 521,-257.2 336,-257.2"/>
<text text-anchor="start" x="356" y="-264.3" font-family="Helvetica,sans-Serif" font-size="11.00" fill="#000000">DIMODPUPILREACTIVITY</text>
<polygon fill="none" stroke="#000000" points="521,-257.2 521,-279.2 582,-279.2 582,-257.2 521,-257.2"/>
<text text-anchor="start" x="523.994" y="-264.9" font-family="Helvetica,sans-Serif" font-size="11.00" fill="#000000">varchar[25]</text>
<polygon fill="none" stroke="#000000" points="336,-235.2 336,-257.2 521,-257.2 521,-235.2 336,-235.2"/>
<text text-anchor="start" x="356" y="-242.3" font-family="Helvetica,sans-Serif" font-size="11.00" fill="#000000">DIMOSPUPILSIZE1</text>
<polygon fill="none" stroke="#000000" points="521,-235.2 521,-257.2 582,-257.2 582,-235.2 521,-235.2"/>
<text text-anchor="start" x="523.994" y="-242.9" font-family="Helvetica,sans-Serif" font-size="11.00" fill="#000000">varchar[25]</text>
<polygon fill="none" stroke="#000000" points="336,-213.2 336,-235.2 521,-235.2 521,-213.2 336,-213.2"/>
<text text-anchor="start" x="356" y="-220.3" font-family="Helvetica,sans-Serif" font-size="11.00" fill="#000000">DIMOSPUPILSIZE2</text>
<polygon fill="none" stroke="#000000" points="521,-213.2 521,-235.2 582,-235.2 582,-213.2 521,-213.2"/>
<text text-anchor="start" x="523.994" y="-220.9" font-family="Helvetica,sans-Serif" font-size="11.00" fill="#000000">varchar[25]</text>
<polygon fill="none" stroke="#000000" points="336,-191.2 336,-213.2 521,-213.2 521,-191.2 336,-191.2"/>
<text text-anchor="start" x="356" y="-198.3" font-family="Helvetica,sans-Serif" font-size="11.00" fill="#000000">DIMOSPUPILREACTIVITY</text>
<polygon fill="none" stroke="#000000" points="521,-191.2 521,-213.2 582,-213.2 582,-191.2 521,-191.2"/>
<text text-anchor="start" x="523.994" y="-198.9" font-family="Helvetica,sans-Serif" font-size="11.00" fill="#000000">varchar[25]</text>
<polygon fill="none" stroke="#000000" points="336,-169.2 336,-191.2 521,-191.2 521,-169.2 336,-169.2"/>
<text text-anchor="start" x="356" y="-176.3" font-family="Helvetica,sans-Serif" font-size="11.00" fill="#000000">PUPIL_COMMENTS</text>
<polygon fill="none" stroke="#000000" points="521,-169.2 521,-191.2 582,-191.2 582,-169.2 521,-169.2"/>
<text text-anchor="start" x="524" y="-176.9" font-family="Helvetica,sans-Serif" font-size="11.00" fill="#000000">text[65535]</text>
<polygon fill="none" stroke="#000000" points="336,-147.2 336,-169.2 521,-169.2 521,-147.2 336,-147.2"/>
<text text-anchor="start" x="356" y="-154.3" font-family="Helvetica,sans-Serif" font-size="11.00" fill="#000000">ODKTHICKNESS</text>
<polygon fill="none" stroke="#000000" points="521,-147.2 521,-169.2 582,-169.2 582,-147.2 521,-147.2"/>
<text text-anchor="start" x="523.994" y="-154.9" font-family="Helvetica,sans-Serif" font-size="11.00" fill="#000000">varchar[25]</text>
<polygon fill="none" stroke="#000000" points="336,-125.2 336,-147.2 521,-147.2 521,-125.2 336,-125.2"/>
<text text-anchor="start" x="356" y="-132.3" font-family="Helvetica,sans-Serif" font-size="11.00" fill="#000000">OSKTHICKNESS</text>
<polygon fill="none" stroke="#000000" points="521,-125.2 521,-147.2 582,-147.2 582,-125.2 521,-125.2"/>
<text text-anchor="start" x="523.994" y="-132.9" font-family="Helvetica,sans-Serif" font-size="11.00" fill="#000000">varchar[25]</text>
<polygon fill="none" stroke="#000000" points="336,-103.2 336,-125.2 521,-125.2 521,-103.2 336,-103.2"/>
<text text-anchor="start" x="356" y="-110.3" font-family="Helvetica,sans-Serif" font-size="11.00" fill="#000000">ODGONIO</text>
<polygon fill="none" stroke="#000000" points="521,-103.2 521,-125.2 582,-125.2 582,-103.2 521,-103.2"/>
<text text-anchor="start" x="523.994" y="-110.9" font-family="Helvetica,sans-Serif" font-size="11.00" fill="#000000">varchar[25]</text>
<polygon fill="none" stroke="#000000" points="336,-81.2 336,-103.2 521,-103.2 521,-81.2 336,-81.2"/>
<text text-anchor="start" x="356" y="-88.3" font-family="Helvetica,sans-Serif" font-size="11.00" fill="#000000">OSGONIO</text>
<polygon fill="none" stroke="#000000" points="521,-81.2 521,-103.2 582,-103.2 582,-81.2 521,-81.2"/>
<text text-anchor="start" x="523.994" y="-88.9" font-family="Helvetica,sans-Serif" font-size="11.00" fill="#000000">varchar[25]</text>
<polygon fill="none" stroke="#000000" points="336,-59.2 336,-81.2 521,-81.2 521,-59.2 336,-59.2"/>
<text text-anchor="start" x="356" y="-66.3" font-family="Helvetica,sans-Serif" font-size="11.00" fill="#000000">ANTSEG_COMMENTS</text>
<polygon fill="none" stroke="#000000" points="521,-59.2 521,-81.2 582,-81.2 582,-59.2 521,-59.2"/>
<text text-anchor="start" x="524" y="-66.9" font-family="Helvetica,sans-Serif" font-size="11.00" fill="#000000">text[65535]</text>
<polygon fill="#ffffff" stroke="transparent" points="336,-40.2 336,-59.2 433,-59.2 433,-40.2 336,-40.2"/>
<polygon fill="none" stroke="#000000" points="336,-40.2 336,-59.2 433,-59.2 433,-40.2 336,-40.2"/>
<text text-anchor="start" x="339" y="-46.3" font-family="Helvetica,sans-Serif" font-size="11.00" fill="#000000">&lt; 1</text>
<polygon fill="#ffffff" stroke="transparent" points="433,-40.2 433,-59.2 521,-59.2 521,-40.2 433,-40.2"/>
<polygon fill="none" stroke="#000000" points="433,-40.2 433,-59.2 521,-59.2 521,-40.2 433,-40.2"/>
<text text-anchor="start" x="511.8862" y="-46.3" font-family="Helvetica,sans-Serif" font-size="11.00" fill="#000000"> &#160;</text>
<polygon fill="#ffffff" stroke="transparent" points="521,-40.2 521,-59.2 582,-59.2 582,-40.2 521,-40.2"/>
<polygon fill="none" stroke="#000000" points="521,-40.2 521,-59.2 582,-59.2 582,-40.2 521,-40.2"/>
<text text-anchor="start" x="563.4053" y="-46.3" font-family="Helvetica,sans-Serif" font-size="11.00" fill="#000000">0 &gt;</text>
<polygon fill="none" stroke="#000000" stroke-width="2" points="335,-39.2 335,-941.2 583,-941.2 583,-39.2 335,-39.2"/>
</a>
</g>
</g>
<!-- patient_data -->
<g id="node2" class="node">
<title>patient_data</title>
<g id="a_node2"><a xlink:href="../../tables/patient_data.html" xlink:title="patient_data" target="_top">
<polygon fill="#ffffff" stroke="transparent" points="8,-725.7 8,-1116.7 285,-1116.7 285,-725.7 8,-725.7"/>
<polygon fill="#f5f5f5" stroke="transparent" points="8.5,-1093.2 8.5,-1116.2 285.5,-1116.2 285.5,-1093.2 8.5,-1093.2"/>
<polygon fill="none" stroke="#000000" points="8.5,-1093.2 8.5,-1116.2 285.5,-1116.2 285.5,-1093.2 8.5,-1093.2"/>
<text text-anchor="start" x="13.5" y="-1101.8" font-family="Helvetica,sans-Serif" font-weight="bold" font-size="11.00" fill="#000000">patient_data</text>
<text text-anchor="start" x="250.5437" y="-1101.3" font-family="Helvetica,sans-Serif" font-size="11.00" fill="#000000">[table]</text>
<polygon fill="none" stroke="#000000" points="8.5,-1071.2 8.5,-1093.2 285.5,-1093.2 285.5,-1071.2 8.5,-1071.2"/>
<image xlink:href="../../images/primaryKeys.png" width="11px" height="12px" preserveAspectRatio="xMinYMin meet" x="13.5" y="-1088.2"/>
<text text-anchor="start" x="28.5" y="-1078.3" font-family="Helvetica,sans-Serif" font-size="11.00" fill="#000000">id</text>
<polygon fill="#ffffff" stroke="transparent" points="8.5,-1049.2 8.5,-1071.2 285.5,-1071.2 285.5,-1049.2 8.5,-1049.2"/>
<polygon fill="none" stroke="#000000" points="8.5,-1049.2 8.5,-1071.2 285.5,-1071.2 285.5,-1049.2 8.5,-1049.2"/>
<text text-anchor="start" x="28.5" y="-1056.3" font-family="Helvetica,sans-Serif" font-size="11.00" fill="#000000">uuid</text>
<polygon fill="#ffffff" stroke="transparent" points="8.5,-1027.2 8.5,-1049.2 285.5,-1049.2 285.5,-1027.2 8.5,-1027.2"/>
<polygon fill="none" stroke="#000000" points="8.5,-1027.2 8.5,-1049.2 285.5,-1049.2 285.5,-1027.2 8.5,-1027.2"/>
<text text-anchor="start" x="28.5" y="-1034.3" font-family="Helvetica,sans-Serif" font-size="11.00" fill="#000000">fname</text>
<polygon fill="#ffffff" stroke="transparent" points="8.5,-1005.2 8.5,-1027.2 285.5,-1027.2 285.5,-1005.2 8.5,-1005.2"/>
<polygon fill="none" stroke="#000000" points="8.5,-1005.2 8.5,-1027.2 285.5,-1027.2 285.5,-1005.2 8.5,-1005.2"/>
<text text-anchor="start" x="28.5" y="-1012.3" font-family="Helvetica,sans-Serif" font-size="11.00" fill="#000000">lname</text>
<polygon fill="#ffffff" stroke="transparent" points="8.5,-983.2 8.5,-1005.2 285.5,-1005.2 285.5,-983.2 8.5,-983.2"/>
<polygon fill="none" stroke="#000000" points="8.5,-983.2 8.5,-1005.2 285.5,-1005.2 285.5,-983.2 8.5,-983.2"/>
<text text-anchor="start" x="28.5" y="-990.3" font-family="Helvetica,sans-Serif" font-size="11.00" fill="#000000">DOB</text>
<polygon fill="none" stroke="#000000" points="8.5,-961.2 8.5,-983.2 285.5,-983.2 285.5,-961.2 8.5,-961.2"/>
<image xlink:href="../../images/foreignKeys.png" width="11px" height="12px" preserveAspectRatio="xMinYMin meet" x="13.5" y="-978.2"/>
<text text-anchor="start" x="28.5" y="-968.3" font-family="Helvetica,sans-Serif" font-size="11.00" fill="#000000">pharmacy_id</text>
<polygon fill="none" stroke="#000000" points="8.5,-939.2 8.5,-961.2 285.5,-961.2 285.5,-939.2 8.5,-939.2"/>
<image xlink:href="../../images/foreignKeys.png" width="11px" height="12px" preserveAspectRatio="xMinYMin meet" x="13.5" y="-956.2"/>
<text text-anchor="start" x="28.5" y="-946.3" font-family="Helvetica,sans-Serif" font-size="11.00" fill="#000000">providerID</text>
<polygon fill="none" stroke="#000000" points="8.5,-917.2 8.5,-939.2 285.5,-939.2 285.5,-917.2 8.5,-917.2"/>
<image xlink:href="../../images/foreignKeys.png" width="11px" height="12px" preserveAspectRatio="xMinYMin meet" x="13.5" y="-934.2"/>
<text text-anchor="start" x="28.5" y="-924.3" font-family="Helvetica,sans-Serif" font-size="11.00" fill="#000000">ref_providerID</text>
<polygon fill="none" stroke="#000000" points="8.5,-895.2 8.5,-917.2 285.5,-917.2 285.5,-895.2 8.5,-895.2"/>
<image xlink:href="../../images/foreignKeys.png" width="11px" height="12px" preserveAspectRatio="xMinYMin meet" x="13.5" y="-912.2"/>
<text text-anchor="start" x="28.5" y="-902.3" font-family="Helvetica,sans-Serif" font-size="11.00" fill="#000000">interpreter_needed</text>
<polygon fill="none" stroke="#000000" points="8.5,-873.2 8.5,-895.2 285.5,-895.2 285.5,-873.2 8.5,-873.2"/>
<image xlink:href="../../images/primaryKeys.png" width="11px" height="12px" preserveAspectRatio="xMinYMin meet" x="13.5" y="-890.2"/>
<text text-anchor="start" x="28.5" y="-880.3" font-family="Helvetica,sans-Serif" font-size="11.00" fill="#000000">pid</text>
<polygon fill="none" stroke="#000000" points="8.5,-851.2 8.5,-873.2 285.5,-873.2 285.5,-851.2 8.5,-851.2"/>
<image xlink:href="../../images/foreignKeys.png" width="11px" height="12px" preserveAspectRatio="xMinYMin meet" x="13.5" y="-868.2"/>
<text text-anchor="start" x="28.5" y="-858.3" font-family="Helvetica,sans-Serif" font-size="11.00" fill="#000000">advance_directive_user_authenticator</text>
<polygon fill="none" stroke="#000000" points="8.5,-829.2 8.5,-851.2 285.5,-851.2 285.5,-829.2 8.5,-829.2"/>
<image xlink:href="../../images/foreignKeys.png" width="11px" height="12px" preserveAspectRatio="xMinYMin meet" x="13.5" y="-846.2"/>
<text text-anchor="start" x="28.5" y="-836.3" font-family="Helvetica,sans-Serif" font-size="11.00" fill="#000000">created_by</text>
<polygon fill="none" stroke="#000000" points="8.5,-807.2 8.5,-829.2 285.5,-829.2 285.5,-807.2 8.5,-807.2"/>
<image xlink:href="../../images/foreignKeys.png" width="11px" height="12px" preserveAspectRatio="xMinYMin meet" x="13.5" y="-824.2"/>
<text text-anchor="start" x="28.5" y="-814.3" font-family="Helvetica,sans-Serif" font-size="11.00" fill="#000000">updated_by</text>
<polygon fill="none" stroke="#000000" points="8.5,-785.2 8.5,-807.2 285.5,-807.2 285.5,-785.2 8.5,-785.2"/>
<image xlink:href="../../images/foreignKeys.png" width="11px" height="12px" preserveAspectRatio="xMinYMin meet" x="13.5" y="-802.2"/>
<text text-anchor="start" x="28.5" y="-792.3" font-family="Helvetica,sans-Serif" font-size="11.00" fill="#000000">tribal_affiliations</text>
<polygon fill="none" stroke="#000000" points="8.5,-763.2 8.5,-785.2 285.5,-785.2 285.5,-763.2 8.5,-763.2"/>
<image xlink:href="../../images/foreignKeys.png" width="11px" height="12px" preserveAspectRatio="xMinYMin meet" x="13.5" y="-780.2"/>
<text text-anchor="start" x="28.5" y="-770.3" font-family="Helvetica,sans-Serif" font-size="11.00" fill="#000000">sex_identified</text>
<polygon fill="none" stroke="#000000" points="8.5,-744.2 8.5,-763.2 285.5,-763.2 285.5,-744.2 8.5,-744.2"/>
<text text-anchor="start" x="11.5" y="-750.3" font-family="Helvetica,sans-Serif" font-size="11.00" fill="#000000">...</text>
<polygon fill="#ffffff" stroke="transparent" points="8.5,-725.2 8.5,-744.2 137.5,-744.2 137.5,-725.2 8.5,-725.2"/>
<polygon fill="none" stroke="#000000" points="8.5,-725.2 8.5,-744.2 137.5,-744.2 137.5,-725.2 8.5,-725.2"/>
<text text-anchor="start" x="11.5" y="-731.3" font-family="Helvetica,sans-Serif" font-size="11.00" fill="#000000">&lt; 9</text>
<polygon fill="#ffffff" stroke="transparent" points="137.5,-725.2 137.5,-744.2 203.5,-744.2 203.5,-725.2 137.5,-725.2"/>
<polygon fill="none" stroke="#000000" points="137.5,-725.2 137.5,-744.2 203.5,-744.2 203.5,-725.2 137.5,-725.2"/>
<text text-anchor="start" x="194.3862" y="-731.3" font-family="Helvetica,sans-Serif" font-size="11.00" fill="#000000"> &#160;</text>
<polygon fill="#ffffff" stroke="transparent" points="203.5,-725.2 203.5,-744.2 285.5,-744.2 285.5,-725.2 203.5,-725.2"/>
<polygon fill="none" stroke="#000000" points="203.5,-725.2 203.5,-744.2 285.5,-744.2 285.5,-725.2 203.5,-725.2"/>
<text text-anchor="start" x="260.7904" y="-731.3" font-family="Helvetica,sans-Serif" font-size="11.00" fill="#000000">95 &gt;</text>
</a>
</g>
</g>
<!-- form_eye_antseg&#45;&gt;patient_data -->
<g id="edge1" class="edge">
<title>form_eye_antseg:w&#45;&gt;patient_data:e</title>
<path fill="none" stroke="#000000" d="M321.4203,-884.2C309.5435,-884.2 302.158,-884.2 285.5,-884.2"/>
<polygon fill="#000000" stroke="#000000" points="328,-884.2001 336,-887.8 332,-884.2 336,-884.2 336,-884.2 336,-884.2 332,-884.2 336,-880.6 328,-884.2001 328,-884.2001"/>
<ellipse fill="none" stroke="#000000" cx="324.8" cy="-884.2001" rx="3.2" ry="3.2"/>
</g>
</g>
</svg>
