<?xml version="1.0" encoding="UTF-8" standalone="no"?>
<!DOCTYPE svg PUBLIC "-//W3C//DTD SVG 1.1//EN"
 "http://www.w3.org/Graphics/SVG/1.1/DTD/svg11.dtd">
<!-- Generated by graphviz version 2.40.1 (20161225.0304)
 -->
<!-- Title: oneDegreeRelationshipsDiagram Pages: 1 -->
<svg width="1086pt" height="599pt"
 viewBox="0.00 0.00 1086.00 599.20" xmlns="http://www.w3.org/2000/svg" xmlns:xlink="http://www.w3.org/1999/xlink">
<g id="graph0" class="graph" transform="scale(1 1) rotate(0) translate(4 595.2)">
<title>oneDegreeRelationshipsDiagram</title>
<polygon fill="#ffffff" stroke="transparent" points="-4,4 -4,-595.2 1082,-595.2 1082,4 -4,4"/>
<text text-anchor="middle" x="72.4936" y="-7.3" font-family="Helvetica,sans-Serif" font-size="11.00" fill="#000000">Generated by SchemaSpy</text>
<!-- clinical_notes_documents -->
<g id="node1" class="node">
<title>clinical_notes_documents</title>
<g id="a_node1"><a xlink:href="../../tables/clinical_notes_documents.html" xlink:title="clinical_notes_documents" target="_top">
<polygon fill="#ffffff" stroke="transparent" points="836,-435.2 836,-587.2 1046,-587.2 1046,-435.2 836,-435.2"/>
<polygon fill="#f5f5f5" stroke="transparent" points="836,-564.2 836,-587.2 1046,-587.2 1046,-564.2 836,-564.2"/>
<polygon fill="none" stroke="#000000" points="836,-564.2 836,-587.2 1046,-587.2 1046,-564.2 836,-564.2"/>
<text text-anchor="start" x="841" y="-572.8" font-family="Helvetica,sans-Serif" font-weight="bold" font-size="11.00" fill="#000000">clinical_notes_documents</text>
<text text-anchor="start" x="1011.5219" y="-572.3" font-family="Helvetica,sans-Serif" font-size="11.00" fill="#000000">[table]</text>
<polygon fill="none" stroke="#000000" points="836,-542.2 836,-564.2 1046,-564.2 1046,-542.2 836,-542.2"/>
<image xlink:href="../../images/primaryKeys.png" width="11px" height="12px" preserveAspectRatio="xMinYMin meet" x="841" y="-559.2"/>
<text text-anchor="start" x="865" y="-549.3" font-family="Helvetica,sans-Serif" font-size="11.00" fill="#000000">id</text>
<polygon fill="#ffffff" stroke="transparent" points="836,-520.2 836,-542.2 1046,-542.2 1046,-520.2 836,-520.2"/>
<polygon fill="none" stroke="#000000" points="836,-520.2 836,-542.2 1046,-542.2 1046,-520.2 836,-520.2"/>
<image xlink:href="../../images/foreignKeys.png" width="11px" height="12px" preserveAspectRatio="xMinYMin meet" x="841" y="-537.2"/>
<text text-anchor="start" x="865" y="-527.3" font-family="Helvetica,sans-Serif" font-size="11.00" fill="#000000">clinical_note_id</text>
<polygon fill="#ffffff" stroke="transparent" points="836,-498.2 836,-520.2 1046,-520.2 1046,-498.2 836,-498.2"/>
<polygon fill="none" stroke="#000000" points="836,-498.2 836,-520.2 1046,-520.2 1046,-498.2 836,-498.2"/>
<image xlink:href="../../images/foreignKeys.png" width="11px" height="12px" preserveAspectRatio="xMinYMin meet" x="841" y="-515.2"/>
<text text-anchor="start" x="865" y="-505.3" font-family="Helvetica,sans-Serif" font-size="11.00" fill="#000000">document_id</text>
<polygon fill="#ffffff" stroke="transparent" points="836,-476.2 836,-498.2 1046,-498.2 1046,-476.2 836,-476.2"/>
<polygon fill="none" stroke="#000000" points="836,-476.2 836,-498.2 1046,-498.2 1046,-476.2 836,-476.2"/>
<text text-anchor="start" x="865" y="-483.3" font-family="Helvetica,sans-Serif" font-size="11.00" fill="#000000">created_at</text>
<polygon fill="none" stroke="#000000" points="836,-454.2 836,-476.2 1046,-476.2 1046,-454.2 836,-454.2"/>
<image xlink:href="../../images/foreignKeys.png" width="11px" height="12px" preserveAspectRatio="xMinYMin meet" x="841" y="-471.2"/>
<text text-anchor="start" x="865" y="-461.3" font-family="Helvetica,sans-Serif" font-size="11.00" fill="#000000">created_by</text>
<polygon fill="#ffffff" stroke="transparent" points="836,-435.2 836,-454.2 939,-454.2 939,-435.2 836,-435.2"/>
<polygon fill="none" stroke="#000000" points="836,-435.2 836,-454.2 939,-454.2 939,-435.2 836,-435.2"/>
<text text-anchor="start" x="839" y="-441.3" font-family="Helvetica,sans-Serif" font-size="11.00" fill="#000000">&lt; 3</text>
<polygon fill="#ffffff" stroke="transparent" points="939,-435.2 939,-454.2 992,-454.2 992,-435.2 939,-435.2"/>
<polygon fill="none" stroke="#000000" points="939,-435.2 939,-454.2 992,-454.2 992,-435.2 939,-435.2"/>
<text text-anchor="start" x="982.8862" y="-441.3" font-family="Helvetica,sans-Serif" font-size="11.00" fill="#000000"> &#160;</text>
<polygon fill="#ffffff" stroke="transparent" points="992,-435.2 992,-454.2 1046,-454.2 1046,-435.2 992,-435.2"/>
<polygon fill="none" stroke="#000000" points="992,-435.2 992,-454.2 1046,-454.2 1046,-435.2 992,-435.2"/>
<text text-anchor="start" x="1036.8862" y="-441.3" font-family="Helvetica,sans-Serif" font-size="11.00" fill="#000000"> &#160;</text>
</a>
</g>
</g>
<!-- form_clinical_notes -->
<g id="node2" class="node">
<title>form_clinical_notes</title>
<g id="a_node2"><a xlink:href="../../tables/form_clinical_notes.html" xlink:title="form_clinical_notes" target="_top">
<polygon fill="#ffffff" stroke="transparent" points="515,-38.2 515,-480.2 763,-480.2 763,-38.2 515,-38.2"/>
<polygon fill="#f5f5f5" stroke="transparent" points="517,-455.2 517,-478.2 761,-478.2 761,-455.2 517,-455.2"/>
<polygon fill="none" stroke="#000000" points="517,-455.2 517,-478.2 761,-478.2 761,-455.2 517,-455.2"/>
<text text-anchor="start" x="522" y="-463.8" font-family="Helvetica,sans-Serif" font-weight="bold" font-size="11.00" fill="#000000">form_clinical_notes</text>
<text text-anchor="start" x="726.0437" y="-463.3" font-family="Helvetica,sans-Serif" font-size="11.00" fill="#000000">[table]</text>
<polygon fill="none" stroke="#000000" points="517,-433.2 517,-455.2 694,-455.2 694,-433.2 517,-433.2"/>
<image xlink:href="../../images/primaryKeys.png" width="11px" height="12px" preserveAspectRatio="xMinYMin meet" x="522" y="-450.2"/>
<text text-anchor="start" x="537" y="-440.3" font-family="Helvetica,sans-Serif" font-size="11.00" fill="#000000">id</text>
<polygon fill="none" stroke="#000000" points="694,-433.2 694,-455.2 761,-455.2 761,-433.2 694,-433.2"/>
<text text-anchor="start" x="697" y="-440.9" font-family="Helvetica,sans-Serif" font-size="11.00" fill="#000000">bigint[19]</text>
<polygon fill="none" stroke="#000000" points="517,-411.2 517,-433.2 694,-433.2 694,-411.2 517,-411.2"/>
<text text-anchor="start" x="537" y="-418.3" font-family="Helvetica,sans-Serif" font-size="11.00" fill="#000000">form_id</text>
<polygon fill="none" stroke="#000000" points="694,-411.2 694,-433.2 761,-433.2 761,-411.2 694,-411.2"/>
<text text-anchor="start" x="697" y="-418.9" font-family="Helvetica,sans-Serif" font-size="11.00" fill="#000000">bigint[19]</text>
<polygon fill="#ffffff" stroke="transparent" points="517,-389.2 517,-411.2 694,-411.2 694,-389.2 517,-389.2"/>
<polygon fill="none" stroke="#000000" points="517,-389.2 517,-411.2 694,-411.2 694,-389.2 517,-389.2"/>
<text text-anchor="start" x="537" y="-396.3" font-family="Helvetica,sans-Serif" font-size="11.00" fill="#000000">uuid</text>
<polygon fill="none" stroke="#000000" points="694,-389.2 694,-411.2 761,-411.2 761,-389.2 694,-389.2"/>
<text text-anchor="start" x="697" y="-396.9" font-family="Helvetica,sans-Serif" font-size="11.00" fill="#000000">binary[16]</text>
<polygon fill="none" stroke="#000000" points="517,-367.2 517,-389.2 694,-389.2 694,-367.2 517,-367.2"/>
<text text-anchor="start" x="537" y="-374.3" font-family="Helvetica,sans-Serif" font-size="11.00" fill="#000000">date</text>
<polygon fill="none" stroke="#000000" points="694,-367.2 694,-389.2 761,-389.2 761,-367.2 694,-367.2"/>
<text text-anchor="start" x="697" y="-374.9" font-family="Helvetica,sans-Serif" font-size="11.00" fill="#000000">date[10]</text>
<polygon fill="none" stroke="#000000" points="517,-345.2 517,-367.2 694,-367.2 694,-345.2 517,-345.2"/>
<image xlink:href="../../images/foreignKeys.png" width="11px" height="12px" preserveAspectRatio="xMinYMin meet" x="522" y="-362.2"/>
<text text-anchor="start" x="537" y="-352.3" font-family="Helvetica,sans-Serif" font-size="11.00" fill="#000000">pid</text>
<polygon fill="none" stroke="#000000" points="694,-345.2 694,-367.2 761,-367.2 761,-345.2 694,-345.2"/>
<text text-anchor="start" x="697" y="-352.9" font-family="Helvetica,sans-Serif" font-size="11.00" fill="#000000">bigint[19]</text>
<polygon fill="none" stroke="#000000" points="517,-323.2 517,-345.2 694,-345.2 694,-323.2 517,-323.2"/>
<text text-anchor="start" x="537" y="-330.3" font-family="Helvetica,sans-Serif" font-size="11.00" fill="#000000">encounter</text>
<polygon fill="none" stroke="#000000" points="694,-323.2 694,-345.2 761,-345.2 761,-323.2 694,-323.2"/>
<text text-anchor="start" x="696.9365" y="-330.9" font-family="Helvetica,sans-Serif" font-size="11.00" fill="#000000">varchar[255]</text>
<polygon fill="none" stroke="#000000" points="517,-301.2 517,-323.2 694,-323.2 694,-301.2 517,-301.2"/>
<text text-anchor="start" x="537" y="-308.3" font-family="Helvetica,sans-Serif" font-size="11.00" fill="#000000">user</text>
<polygon fill="none" stroke="#000000" points="694,-301.2 694,-323.2 761,-323.2 761,-301.2 694,-301.2"/>
<text text-anchor="start" x="696.9365" y="-308.9" font-family="Helvetica,sans-Serif" font-size="11.00" fill="#000000">varchar[255]</text>
<polygon fill="none" stroke="#000000" points="517,-279.2 517,-301.2 694,-301.2 694,-279.2 517,-279.2"/>
<text text-anchor="start" x="537" y="-286.3" font-family="Helvetica,sans-Serif" font-size="11.00" fill="#000000">groupname</text>
<polygon fill="none" stroke="#000000" points="694,-279.2 694,-301.2 761,-301.2 761,-279.2 694,-279.2"/>
<text text-anchor="start" x="696.9365" y="-286.9" font-family="Helvetica,sans-Serif" font-size="11.00" fill="#000000">varchar[255]</text>
<polygon fill="none" stroke="#000000" points="517,-257.2 517,-279.2 694,-279.2 694,-257.2 517,-257.2"/>
<text text-anchor="start" x="537" y="-264.3" font-family="Helvetica,sans-Serif" font-size="11.00" fill="#000000">authorized</text>
<polygon fill="none" stroke="#000000" points="694,-257.2 694,-279.2 761,-279.2 761,-257.2 694,-257.2"/>
<text text-anchor="start" x="697" y="-264.9" font-family="Helvetica,sans-Serif" font-size="11.00" fill="#000000">tinyint[3]</text>
<polygon fill="none" stroke="#000000" points="517,-235.2 517,-257.2 694,-257.2 694,-235.2 517,-235.2"/>
<text text-anchor="start" x="537" y="-242.3" font-family="Helvetica,sans-Serif" font-size="11.00" fill="#000000">activity</text>
<polygon fill="none" stroke="#000000" points="694,-235.2 694,-257.2 761,-257.2 761,-235.2 694,-235.2"/>
<text text-anchor="start" x="697" y="-242.9" font-family="Helvetica,sans-Serif" font-size="11.00" fill="#000000">tinyint[3]</text>
<polygon fill="none" stroke="#000000" points="517,-213.2 517,-235.2 694,-235.2 694,-213.2 517,-213.2"/>
<text text-anchor="start" x="537" y="-220.3" font-family="Helvetica,sans-Serif" font-size="11.00" fill="#000000">code</text>
<polygon fill="none" stroke="#000000" points="694,-213.2 694,-235.2 761,-235.2 761,-213.2 694,-213.2"/>
<text text-anchor="start" x="696.9365" y="-220.9" font-family="Helvetica,sans-Serif" font-size="11.00" fill="#000000">varchar[255]</text>
<polygon fill="none" stroke="#000000" points="517,-191.2 517,-213.2 694,-213.2 694,-191.2 517,-191.2"/>
<text text-anchor="start" x="537" y="-198.3" font-family="Helvetica,sans-Serif" font-size="11.00" fill="#000000">codetext</text>
<polygon fill="none" stroke="#000000" points="694,-191.2 694,-213.2 761,-213.2 761,-191.2 694,-191.2"/>
<text text-anchor="start" x="697" y="-198.9" font-family="Helvetica,sans-Serif" font-size="11.00" fill="#000000">text[65535]</text>
<polygon fill="none" stroke="#000000" points="517,-169.2 517,-191.2 694,-191.2 694,-169.2 517,-169.2"/>
<text text-anchor="start" x="537" y="-176.3" font-family="Helvetica,sans-Serif" font-size="11.00" fill="#000000">description</text>
<polygon fill="none" stroke="#000000" points="694,-169.2 694,-191.2 761,-191.2 761,-169.2 694,-169.2"/>
<text text-anchor="start" x="697" y="-176.9" font-family="Helvetica,sans-Serif" font-size="11.00" fill="#000000">text[65535]</text>
<polygon fill="none" stroke="#000000" points="517,-147.2 517,-169.2 694,-169.2 694,-147.2 517,-147.2"/>
<text text-anchor="start" x="537" y="-154.3" font-family="Helvetica,sans-Serif" font-size="11.00" fill="#000000">external_id</text>
<polygon fill="none" stroke="#000000" points="694,-147.2 694,-169.2 761,-169.2 761,-147.2 694,-147.2"/>
<text text-anchor="start" x="697" y="-154.9" font-family="Helvetica,sans-Serif" font-size="11.00" fill="#000000">varchar[30]</text>
<polygon fill="none" stroke="#000000" points="517,-125.2 517,-147.2 694,-147.2 694,-125.2 517,-125.2"/>
<image xlink:href="../../images/foreignKeys.png" width="11px" height="12px" preserveAspectRatio="xMinYMin meet" x="522" y="-142.2"/>
<text text-anchor="start" x="537" y="-132.3" font-family="Helvetica,sans-Serif" font-size="11.00" fill="#000000">clinical_notes_type</text>
<polygon fill="none" stroke="#000000" points="694,-125.2 694,-147.2 761,-147.2 761,-125.2 694,-125.2"/>
<text text-anchor="start" x="696.9365" y="-132.9" font-family="Helvetica,sans-Serif" font-size="11.00" fill="#000000">varchar[100]</text>
<polygon fill="none" stroke="#000000" points="517,-103.2 517,-125.2 694,-125.2 694,-103.2 517,-103.2"/>
<image xlink:href="../../images/foreignKeys.png" width="11px" height="12px" preserveAspectRatio="xMinYMin meet" x="522" y="-120.2"/>
<text text-anchor="start" x="537" y="-110.3" font-family="Helvetica,sans-Serif" font-size="11.00" fill="#000000">clinical_notes_category</text>
<polygon fill="none" stroke="#000000" points="694,-103.2 694,-125.2 761,-125.2 761,-103.2 694,-103.2"/>
<text text-anchor="start" x="696.9365" y="-110.9" font-family="Helvetica,sans-Serif" font-size="11.00" fill="#000000">varchar[100]</text>
<polygon fill="none" stroke="#000000" points="517,-81.2 517,-103.2 694,-103.2 694,-81.2 517,-81.2"/>
<text text-anchor="start" x="537" y="-88.3" font-family="Helvetica,sans-Serif" font-size="11.00" fill="#000000">note_related_to</text>
<polygon fill="none" stroke="#000000" points="694,-81.2 694,-103.2 761,-103.2 761,-81.2 694,-81.2"/>
<text text-anchor="start" x="697" y="-88.9" font-family="Helvetica,sans-Serif" font-size="11.00" fill="#000000">text[65535]</text>
<polygon fill="none" stroke="#000000" points="517,-59.2 517,-81.2 694,-81.2 694,-59.2 517,-59.2"/>
<text text-anchor="start" x="537" y="-66.3" font-family="Helvetica,sans-Serif" font-size="11.00" fill="#000000">last_updated</text>
<polygon fill="none" stroke="#000000" points="694,-59.2 694,-81.2 761,-81.2 761,-59.2 694,-59.2"/>
<text text-anchor="start" x="697" y="-66.9" font-family="Helvetica,sans-Serif" font-size="11.00" fill="#000000">datetime[19]</text>
<polygon fill="#ffffff" stroke="transparent" points="517,-40.2 517,-59.2 610,-59.2 610,-40.2 517,-40.2"/>
<polygon fill="none" stroke="#000000" points="517,-40.2 517,-59.2 610,-59.2 610,-40.2 517,-40.2"/>
<text text-anchor="start" x="520" y="-46.3" font-family="Helvetica,sans-Serif" font-size="11.00" fill="#000000">&lt; 3</text>
<polygon fill="#ffffff" stroke="transparent" points="610,-40.2 610,-59.2 694,-59.2 694,-40.2 610,-40.2"/>
<polygon fill="none" stroke="#000000" points="610,-40.2 610,-59.2 694,-59.2 694,-40.2 610,-40.2"/>
<text text-anchor="start" x="684.8862" y="-46.3" font-family="Helvetica,sans-Serif" font-size="11.00" fill="#000000"> &#160;</text>
<polygon fill="#ffffff" stroke="transparent" points="694,-40.2 694,-59.2 761,-59.2 761,-40.2 694,-40.2"/>
<polygon fill="none" stroke="#000000" points="694,-40.2 694,-59.2 761,-59.2 761,-40.2 694,-40.2"/>
<text text-anchor="start" x="742.4053" y="-46.3" font-family="Helvetica,sans-Serif" font-size="11.00" fill="#000000">2 &gt;</text>
<polygon fill="none" stroke="#000000" stroke-width="2" points="516,-39.2 516,-479.2 762,-479.2 762,-39.2 516,-39.2"/>
</a>
</g>
</g>
<!-- clinical_notes_documents&#45;&gt;form_clinical_notes -->
<g id="edge1" class="edge">
<title>clinical_notes_documents:w&#45;&gt;form_clinical_notes:e</title>
<path fill="none" stroke="#000000" d="M821.8491,-528.3054C789.9425,-513.2095 806.4675,-444.2 761,-444.2"/>
<polygon fill="#000000" stroke="#000000" points="828.1623,-529.5967 835.2785,-534.727 832.0811,-530.3984 836,-531.2 836,-531.2 836,-531.2 832.0811,-530.3984 836.7215,-527.673 828.1623,-529.5967 828.1623,-529.5967"/>
<ellipse fill="none" stroke="#000000" cx="825.0272" cy="-528.9554" rx="3.2" ry="3.2"/>
</g>
<!-- list_options -->
<g id="node4" class="node">
<title>list_options</title>
<g id="a_node4"><a xlink:href="../../tables/list_options.html" xlink:title="list_options" target="_top">
<polygon fill="#ffffff" stroke="transparent" points="8,-165.7 8,-270.7 140,-270.7 140,-165.7 8,-165.7"/>
<polygon fill="#f5f5f5" stroke="transparent" points="8,-247.2 8,-270.2 140,-270.2 140,-247.2 8,-247.2"/>
<polygon fill="none" stroke="#000000" points="8,-247.2 8,-270.2 140,-270.2 140,-247.2 8,-247.2"/>
<text text-anchor="start" x="13" y="-255.8" font-family="Helvetica,sans-Serif" font-weight="bold" font-size="11.00" fill="#000000">list_options</text>
<text text-anchor="start" x="105.0437" y="-255.3" font-family="Helvetica,sans-Serif" font-size="11.00" fill="#000000">[table]</text>
<polygon fill="none" stroke="#000000" points="8,-225.2 8,-247.2 140,-247.2 140,-225.2 8,-225.2"/>
<image xlink:href="../../images/primaryKeys.png" width="11px" height="12px" preserveAspectRatio="xMinYMin meet" x="13" y="-242.2"/>
<text text-anchor="start" x="28" y="-232.3" font-family="Helvetica,sans-Serif" font-size="11.00" fill="#000000">list_id</text>
<polygon fill="none" stroke="#000000" points="8,-203.2 8,-225.2 140,-225.2 140,-203.2 8,-203.2"/>
<image xlink:href="../../images/primaryKeys.png" width="11px" height="12px" preserveAspectRatio="xMinYMin meet" x="13" y="-220.2"/>
<text text-anchor="start" x="28" y="-210.3" font-family="Helvetica,sans-Serif" font-size="11.00" fill="#000000">option_id</text>
<polygon fill="none" stroke="#000000" points="8,-184.2 8,-203.2 140,-203.2 140,-184.2 8,-184.2"/>
<text text-anchor="start" x="11" y="-190.3" font-family="Helvetica,sans-Serif" font-size="11.00" fill="#000000">...</text>
<polygon fill="#ffffff" stroke="transparent" points="8,-165.2 8,-184.2 60,-184.2 60,-165.2 8,-165.2"/>
<polygon fill="none" stroke="#000000" points="8,-165.2 8,-184.2 60,-184.2 60,-165.2 8,-165.2"/>
<text text-anchor="start" x="11" y="-171.3" font-family="Helvetica,sans-Serif" font-size="11.00" fill="#000000"> &#160;</text>
<polygon fill="#ffffff" stroke="transparent" points="60,-165.2 60,-184.2 92,-184.2 92,-165.2 60,-165.2"/>
<polygon fill="none" stroke="#000000" points="60,-165.2 60,-184.2 92,-184.2 92,-165.2 60,-165.2"/>
<text text-anchor="start" x="82.8862" y="-171.3" font-family="Helvetica,sans-Serif" font-size="11.00" fill="#000000"> &#160;</text>
<polygon fill="#ffffff" stroke="transparent" points="92,-165.2 92,-184.2 140,-184.2 140,-165.2 92,-165.2"/>
<polygon fill="none" stroke="#000000" points="92,-165.2 92,-184.2 140,-184.2 140,-165.2 92,-165.2"/>
<text text-anchor="start" x="115.2904" y="-171.3" font-family="Helvetica,sans-Serif" font-size="11.00" fill="#000000">98 &gt;</text>
</a>
</g>
</g>
<!-- form_clinical_notes&#45;&gt;list_options -->
<g id="edge3" class="edge">
<title>form_clinical_notes:w&#45;&gt;list_options:e</title>
<path fill="none" stroke="#000000" d="M502.3915,-113.9925C363.3212,-110.0392 301.8184,-51.8248 181,-131.2 146.613,-153.7915 181.1441,-214.2 140,-214.2"/>
<polygon fill="#000000" stroke="#000000" points="509.0008,-114.0863 516.9488,-117.7996 513.0004,-114.1432 517,-114.2 517,-114.2 517,-114.2 513.0004,-114.1432 517.0512,-110.6004 509.0008,-114.0863 509.0008,-114.0863"/>
<ellipse fill="none" stroke="#000000" cx="505.8011" cy="-114.0408" rx="3.2" ry="3.2"/>
</g>
<!-- form_clinical_notes&#45;&gt;list_options -->
<g id="edge4" class="edge">
<title>form_clinical_notes:w&#45;&gt;list_options:e</title>
<path fill="none" stroke="#000000" d="M502.3983,-136.0287C419.3328,-134.3058 242.3813,-120.8667 181,-155.2 153.1313,-170.7882 171.932,-214.2 140,-214.2"/>
<polygon fill="#000000" stroke="#000000" points="509.0006,-136.1061 516.9578,-139.7998 513.0003,-136.1531 517,-136.2 517,-136.2 517,-136.2 513.0003,-136.1531 517.0422,-132.6002 509.0006,-136.1061 509.0006,-136.1061"/>
<ellipse fill="none" stroke="#000000" cx="505.8008" cy="-136.0686" rx="3.2" ry="3.2"/>
</g>
<!-- patient_data -->
<g id="node5" class="node">
<title>patient_data</title>
<g id="a_node5"><a xlink:href="../../tables/patient_data.html" xlink:title="patient_data" target="_top">
<polygon fill="#ffffff" stroke="transparent" points="189,-165.7 189,-556.7 466,-556.7 466,-165.7 189,-165.7"/>
<polygon fill="#f5f5f5" stroke="transparent" points="189.5,-533.2 189.5,-556.2 466.5,-556.2 466.5,-533.2 189.5,-533.2"/>
<polygon fill="none" stroke="#000000" points="189.5,-533.2 189.5,-556.2 466.5,-556.2 466.5,-533.2 189.5,-533.2"/>
<text text-anchor="start" x="194.5" y="-541.8" font-family="Helvetica,sans-Serif" font-weight="bold" font-size="11.00" fill="#000000">patient_data</text>
<text text-anchor="start" x="431.5437" y="-541.3" font-family="Helvetica,sans-Serif" font-size="11.00" fill="#000000">[table]</text>
<polygon fill="none" stroke="#000000" points="189.5,-511.2 189.5,-533.2 466.5,-533.2 466.5,-511.2 189.5,-511.2"/>
<image xlink:href="../../images/primaryKeys.png" width="11px" height="12px" preserveAspectRatio="xMinYMin meet" x="194.5" y="-528.2"/>
<text text-anchor="start" x="209.5" y="-518.3" font-family="Helvetica,sans-Serif" font-size="11.00" fill="#000000">id</text>
<polygon fill="#ffffff" stroke="transparent" points="189.5,-489.2 189.5,-511.2 466.5,-511.2 466.5,-489.2 189.5,-489.2"/>
<polygon fill="none" stroke="#000000" points="189.5,-489.2 189.5,-511.2 466.5,-511.2 466.5,-489.2 189.5,-489.2"/>
<text text-anchor="start" x="209.5" y="-496.3" font-family="Helvetica,sans-Serif" font-size="11.00" fill="#000000">uuid</text>
<polygon fill="#ffffff" stroke="transparent" points="189.5,-467.2 189.5,-489.2 466.5,-489.2 466.5,-467.2 189.5,-467.2"/>
<polygon fill="none" stroke="#000000" points="189.5,-467.2 189.5,-489.2 466.5,-489.2 466.5,-467.2 189.5,-467.2"/>
<text text-anchor="start" x="209.5" y="-474.3" font-family="Helvetica,sans-Serif" font-size="11.00" fill="#000000">fname</text>
<polygon fill="#ffffff" stroke="transparent" points="189.5,-445.2 189.5,-467.2 466.5,-467.2 466.5,-445.2 189.5,-445.2"/>
<polygon fill="none" stroke="#000000" points="189.5,-445.2 189.5,-467.2 466.5,-467.2 466.5,-445.2 189.5,-445.2"/>
<text text-anchor="start" x="209.5" y="-452.3" font-family="Helvetica,sans-Serif" font-size="11.00" fill="#000000">lname</text>
<polygon fill="#ffffff" stroke="transparent" points="189.5,-423.2 189.5,-445.2 466.5,-445.2 466.5,-423.2 189.5,-423.2"/>
<polygon fill="none" stroke="#000000" points="189.5,-423.2 189.5,-445.2 466.5,-445.2 466.5,-423.2 189.5,-423.2"/>
<text text-anchor="start" x="209.5" y="-430.3" font-family="Helvetica,sans-Serif" font-size="11.00" fill="#000000">DOB</text>
<polygon fill="none" stroke="#000000" points="189.5,-401.2 189.5,-423.2 466.5,-423.2 466.5,-401.2 189.5,-401.2"/>
<image xlink:href="../../images/foreignKeys.png" width="11px" height="12px" preserveAspectRatio="xMinYMin meet" x="194.5" y="-418.2"/>
<text text-anchor="start" x="209.5" y="-408.3" font-family="Helvetica,sans-Serif" font-size="11.00" fill="#000000">pharmacy_id</text>
<polygon fill="none" stroke="#000000" points="189.5,-379.2 189.5,-401.2 466.5,-401.2 466.5,-379.2 189.5,-379.2"/>
<image xlink:href="../../images/foreignKeys.png" width="11px" height="12px" preserveAspectRatio="xMinYMin meet" x="194.5" y="-396.2"/>
<text text-anchor="start" x="209.5" y="-386.3" font-family="Helvetica,sans-Serif" font-size="11.00" fill="#000000">providerID</text>
<polygon fill="none" stroke="#000000" points="189.5,-357.2 189.5,-379.2 466.5,-379.2 466.5,-357.2 189.5,-357.2"/>
<image xlink:href="../../images/foreignKeys.png" width="11px" height="12px" preserveAspectRatio="xMinYMin meet" x="194.5" y="-374.2"/>
<text text-anchor="start" x="209.5" y="-364.3" font-family="Helvetica,sans-Serif" font-size="11.00" fill="#000000">ref_providerID</text>
<polygon fill="none" stroke="#000000" points="189.5,-335.2 189.5,-357.2 466.5,-357.2 466.5,-335.2 189.5,-335.2"/>
<image xlink:href="../../images/foreignKeys.png" width="11px" height="12px" preserveAspectRatio="xMinYMin meet" x="194.5" y="-352.2"/>
<text text-anchor="start" x="209.5" y="-342.3" font-family="Helvetica,sans-Serif" font-size="11.00" fill="#000000">interpreter_needed</text>
<polygon fill="none" stroke="#000000" points="189.5,-313.2 189.5,-335.2 466.5,-335.2 466.5,-313.2 189.5,-313.2"/>
<image xlink:href="../../images/primaryKeys.png" width="11px" height="12px" preserveAspectRatio="xMinYMin meet" x="194.5" y="-330.2"/>
<text text-anchor="start" x="209.5" y="-320.3" font-family="Helvetica,sans-Serif" font-size="11.00" fill="#000000">pid</text>
<polygon fill="none" stroke="#000000" points="189.5,-291.2 189.5,-313.2 466.5,-313.2 466.5,-291.2 189.5,-291.2"/>
<image xlink:href="../../images/foreignKeys.png" width="11px" height="12px" preserveAspectRatio="xMinYMin meet" x="194.5" y="-308.2"/>
<text text-anchor="start" x="209.5" y="-298.3" font-family="Helvetica,sans-Serif" font-size="11.00" fill="#000000">advance_directive_user_authenticator</text>
<polygon fill="none" stroke="#000000" points="189.5,-269.2 189.5,-291.2 466.5,-291.2 466.5,-269.2 189.5,-269.2"/>
<image xlink:href="../../images/foreignKeys.png" width="11px" height="12px" preserveAspectRatio="xMinYMin meet" x="194.5" y="-286.2"/>
<text text-anchor="start" x="209.5" y="-276.3" font-family="Helvetica,sans-Serif" font-size="11.00" fill="#000000">created_by</text>
<polygon fill="none" stroke="#000000" points="189.5,-247.2 189.5,-269.2 466.5,-269.2 466.5,-247.2 189.5,-247.2"/>
<image xlink:href="../../images/foreignKeys.png" width="11px" height="12px" preserveAspectRatio="xMinYMin meet" x="194.5" y="-264.2"/>
<text text-anchor="start" x="209.5" y="-254.3" font-family="Helvetica,sans-Serif" font-size="11.00" fill="#000000">updated_by</text>
<polygon fill="none" stroke="#000000" points="189.5,-225.2 189.5,-247.2 466.5,-247.2 466.5,-225.2 189.5,-225.2"/>
<image xlink:href="../../images/foreignKeys.png" width="11px" height="12px" preserveAspectRatio="xMinYMin meet" x="194.5" y="-242.2"/>
<text text-anchor="start" x="209.5" y="-232.3" font-family="Helvetica,sans-Serif" font-size="11.00" fill="#000000">tribal_affiliations</text>
<polygon fill="none" stroke="#000000" points="189.5,-203.2 189.5,-225.2 466.5,-225.2 466.5,-203.2 189.5,-203.2"/>
<image xlink:href="../../images/foreignKeys.png" width="11px" height="12px" preserveAspectRatio="xMinYMin meet" x="194.5" y="-220.2"/>
<text text-anchor="start" x="209.5" y="-210.3" font-family="Helvetica,sans-Serif" font-size="11.00" fill="#000000">sex_identified</text>
<polygon fill="none" stroke="#000000" points="189.5,-184.2 189.5,-203.2 466.5,-203.2 466.5,-184.2 189.5,-184.2"/>
<text text-anchor="start" x="192.5" y="-190.3" font-family="Helvetica,sans-Serif" font-size="11.00" fill="#000000">...</text>
<polygon fill="#ffffff" stroke="transparent" points="189.5,-165.2 189.5,-184.2 318.5,-184.2 318.5,-165.2 189.5,-165.2"/>
<polygon fill="none" stroke="#000000" points="189.5,-165.2 189.5,-184.2 318.5,-184.2 318.5,-165.2 189.5,-165.2"/>
<text text-anchor="start" x="192.5" y="-171.3" font-family="Helvetica,sans-Serif" font-size="11.00" fill="#000000">&lt; 9</text>
<polygon fill="#ffffff" stroke="transparent" points="318.5,-165.2 318.5,-184.2 384.5,-184.2 384.5,-165.2 318.5,-165.2"/>
<polygon fill="none" stroke="#000000" points="318.5,-165.2 318.5,-184.2 384.5,-184.2 384.5,-165.2 318.5,-165.2"/>
<text text-anchor="start" x="375.3862" y="-171.3" font-family="Helvetica,sans-Serif" font-size="11.00" fill="#000000"> &#160;</text>
<polygon fill="#ffffff" stroke="transparent" points="384.5,-165.2 384.5,-184.2 466.5,-184.2 466.5,-165.2 384.5,-165.2"/>
<polygon fill="none" stroke="#000000" points="384.5,-165.2 384.5,-184.2 466.5,-184.2 466.5,-165.2 384.5,-165.2"/>
<text text-anchor="start" x="441.7904" y="-171.3" font-family="Helvetica,sans-Serif" font-size="11.00" fill="#000000">95 &gt;</text>
</a>
</g>
</g>
<!-- form_clinical_notes&#45;&gt;patient_data -->
<g id="edge5" class="edge">
<title>form_clinical_notes:w&#45;&gt;patient_data:e</title>
<path fill="none" stroke="#000000" d="M503.1448,-352.2762C490.187,-343.7313 487.2587,-324.2 466.5,-324.2"/>
<polygon fill="#000000" stroke="#000000" points="509.3027,-354.0201 516.019,-359.6638 513.1514,-355.11 517,-356.2 517,-356.2 517,-356.2 513.1514,-355.11 517.981,-352.7362 509.3027,-354.0201 509.3027,-354.0201"/>
<ellipse fill="none" stroke="#000000" cx="506.2238" cy="-353.1481" rx="3.2" ry="3.2"/>
</g>
<!-- clinical_notes_procedure_results -->
<g id="node3" class="node">
<title>clinical_notes_procedure_results</title>
<g id="a_node3"><a xlink:href="../../tables/clinical_notes_procedure_results.html" xlink:title="clinical_notes_procedure_results" target="_top">
<polygon fill="#ffffff" stroke="transparent" points="812,-262.2 812,-414.2 1070,-414.2 1070,-262.2 812,-262.2"/>
<polygon fill="#f5f5f5" stroke="transparent" points="812,-391.2 812,-414.2 1070,-414.2 1070,-391.2 812,-391.2"/>
<polygon fill="none" stroke="#000000" points="812,-391.2 812,-414.2 1070,-414.2 1070,-391.2 812,-391.2"/>
<text text-anchor="start" x="817" y="-399.8" font-family="Helvetica,sans-Serif" font-weight="bold" font-size="11.00" fill="#000000">clinical_notes_procedure_results</text>
<text text-anchor="start" x="1035.5219" y="-399.3" font-family="Helvetica,sans-Serif" font-size="11.00" fill="#000000">[table]</text>
<polygon fill="none" stroke="#000000" points="812,-369.2 812,-391.2 1070,-391.2 1070,-369.2 812,-369.2"/>
<image xlink:href="../../images/primaryKeys.png" width="11px" height="12px" preserveAspectRatio="xMinYMin meet" x="817" y="-386.2"/>
<text text-anchor="start" x="841" y="-376.3" font-family="Helvetica,sans-Serif" font-size="11.00" fill="#000000">id</text>
<polygon fill="#ffffff" stroke="transparent" points="812,-347.2 812,-369.2 1070,-369.2 1070,-347.2 812,-347.2"/>
<polygon fill="none" stroke="#000000" points="812,-347.2 812,-369.2 1070,-369.2 1070,-347.2 812,-347.2"/>
<image xlink:href="../../images/foreignKeys.png" width="11px" height="12px" preserveAspectRatio="xMinYMin meet" x="817" y="-364.2"/>
<text text-anchor="start" x="841" y="-354.3" font-family="Helvetica,sans-Serif" font-size="11.00" fill="#000000">clinical_note_id</text>
<polygon fill="#ffffff" stroke="transparent" points="812,-325.2 812,-347.2 1070,-347.2 1070,-325.2 812,-325.2"/>
<polygon fill="none" stroke="#000000" points="812,-325.2 812,-347.2 1070,-347.2 1070,-325.2 812,-325.2"/>
<image xlink:href="../../images/foreignKeys.png" width="11px" height="12px" preserveAspectRatio="xMinYMin meet" x="817" y="-342.2"/>
<text text-anchor="start" x="841" y="-332.3" font-family="Helvetica,sans-Serif" font-size="11.00" fill="#000000">procedure_result_id</text>
<polygon fill="#ffffff" stroke="transparent" points="812,-303.2 812,-325.2 1070,-325.2 1070,-303.2 812,-303.2"/>
<polygon fill="none" stroke="#000000" points="812,-303.2 812,-325.2 1070,-325.2 1070,-303.2 812,-303.2"/>
<text text-anchor="start" x="841" y="-310.3" font-family="Helvetica,sans-Serif" font-size="11.00" fill="#000000">created_at</text>
<polygon fill="none" stroke="#000000" points="812,-281.2 812,-303.2 1070,-303.2 1070,-281.2 812,-281.2"/>
<image xlink:href="../../images/foreignKeys.png" width="11px" height="12px" preserveAspectRatio="xMinYMin meet" x="817" y="-298.2"/>
<text text-anchor="start" x="841" y="-288.3" font-family="Helvetica,sans-Serif" font-size="11.00" fill="#000000">created_by</text>
<polygon fill="#ffffff" stroke="transparent" points="812,-262.2 812,-281.2 939,-281.2 939,-262.2 812,-262.2"/>
<polygon fill="none" stroke="#000000" points="812,-262.2 812,-281.2 939,-281.2 939,-262.2 812,-262.2"/>
<text text-anchor="start" x="815" y="-268.3" font-family="Helvetica,sans-Serif" font-size="11.00" fill="#000000">&lt; 3</text>
<polygon fill="#ffffff" stroke="transparent" points="939,-262.2 939,-281.2 1004,-281.2 1004,-262.2 939,-262.2"/>
<polygon fill="none" stroke="#000000" points="939,-262.2 939,-281.2 1004,-281.2 1004,-262.2 939,-262.2"/>
<text text-anchor="start" x="994.8862" y="-268.3" font-family="Helvetica,sans-Serif" font-size="11.00" fill="#000000"> &#160;</text>
<polygon fill="#ffffff" stroke="transparent" points="1004,-262.2 1004,-281.2 1070,-281.2 1070,-262.2 1004,-262.2"/>
<polygon fill="none" stroke="#000000" points="1004,-262.2 1004,-281.2 1070,-281.2 1070,-262.2 1004,-262.2"/>
<text text-anchor="start" x="1060.8862" y="-268.3" font-family="Helvetica,sans-Serif" font-size="11.00" fill="#000000"> &#160;</text>
</a>
</g>
</g>
<!-- clinical_notes_procedure_results&#45;&gt;form_clinical_notes -->
<g id="edge2" class="edge">
<title>clinical_notes_procedure_results:w&#45;&gt;form_clinical_notes:e</title>
<path fill="none" stroke="#000000" d="M797.9687,-362.583C776.3802,-380.1081 799.3623,-444.2 761,-444.2"/>
<polygon fill="#000000" stroke="#000000" points="804.3639,-360.5853 813.0734,-361.6363 808.1819,-359.3927 812,-358.2 812,-358.2 812,-358.2 808.1819,-359.3927 810.9266,-354.7637 804.3639,-360.5853 804.3639,-360.5853"/>
<ellipse fill="none" stroke="#000000" cx="801.3094" cy="-361.5395" rx="3.2" ry="3.2"/>
</g>
<!-- patient_data&#45;&gt;list_options -->
<g id="edge6" class="edge">
<title>patient_data:w&#45;&gt;list_options:e</title>
<path fill="none" stroke="#000000" d="M175.3008,-342.9371C139.8417,-322.6102 196.782,-214.2 140,-214.2"/>
<polygon fill="#000000" stroke="#000000" points="181.7032,-344.4083 188.6937,-349.7086 185.6016,-345.3041 189.5,-346.2 189.5,-346.2 189.5,-346.2 185.6016,-345.3041 190.3063,-342.6914 181.7032,-344.4083 181.7032,-344.4083"/>
<ellipse fill="none" stroke="#000000" cx="178.5845" cy="-343.6916" rx="3.2" ry="3.2"/>
</g>
<!-- patient_data&#45;&gt;list_options -->
<g id="edge7" class="edge">
<title>patient_data:w&#45;&gt;list_options:e</title>
<path fill="none" stroke="#000000" d="M174.8428,-214.2C163.4139,-214.2 156.1563,-214.2 140,-214.2"/>
<polygon fill="#000000" stroke="#000000" points="181.5,-214.2001 189.5,-217.8 185.5,-214.2 189.5,-214.2 189.5,-214.2 189.5,-214.2 185.5,-214.2 189.5,-210.6 181.5,-214.2001 181.5,-214.2001"/>
<ellipse fill="none" stroke="#000000" cx="178.3" cy="-214.2001" rx="3.2" ry="3.2"/>
</g>
<!-- patient_data&#45;&gt;list_options -->
<g id="edge8" class="edge">
<title>patient_data:w&#45;&gt;list_options:e</title>
<path fill="none" stroke="#000000" d="M175.3612,-232.9538C163.4382,-226.8342 158.2443,-214.2 140,-214.2"/>
<polygon fill="#000000" stroke="#000000" points="181.7029,-234.4098 188.6944,-239.7087 185.6014,-235.3049 189.5,-236.2 189.5,-236.2 189.5,-236.2 185.6014,-235.3049 190.3056,-232.6913 181.7029,-234.4098 181.7029,-234.4098"/>
<ellipse fill="none" stroke="#000000" cx="178.584" cy="-233.6937" rx="3.2" ry="3.2"/>
</g>
</g>
</svg>
