<?xml version="1.0" encoding="UTF-8" standalone="no"?>
<!DOCTYPE svg PUBLIC "-//W3C//DTD SVG 1.1//EN"
 "http://www.w3.org/Graphics/SVG/1.1/DTD/svg11.dtd">
<!-- Generated by graphviz version 2.40.1 (20161225.0304)
 -->
<!-- Title: oneDegreeRelationshipsDiagram Pages: 1 -->
<svg width="776pt" height="621pt"
 viewBox="0.00 0.00 776.00 621.34" xmlns="http://www.w3.org/2000/svg" xmlns:xlink="http://www.w3.org/1999/xlink">
<g id="graph0" class="graph" transform="scale(1 1) rotate(0) translate(4 617.344)">
<title>oneDegreeRelationshipsDiagram</title>
<polygon fill="#ffffff" stroke="transparent" points="-4,4 -4,-617.344 772,-617.344 772,4 -4,4"/>
<text text-anchor="middle" x="72.4936" y="-7.3" font-family="Helvetica,sans-Serif" font-size="11.00" fill="#000000">Generated by SchemaSpy</text>
<!-- groups -->
<g id="node1" class="node">
<title>groups</title>
<g id="a_node1"><a xlink:href="../../tables/groups.html" xlink:title="groups" target="_top">
<polygon fill="#ffffff" stroke="transparent" points="319.5,-88.844 319.5,-196.844 405.5,-196.844 405.5,-88.844 319.5,-88.844"/>
<polygon fill="#f5f5f5" stroke="transparent" points="319.5,-173.844 319.5,-196.844 405.5,-196.844 405.5,-173.844 319.5,-173.844"/>
<polygon fill="none" stroke="#000000" points="319.5,-173.844 319.5,-196.844 405.5,-196.844 405.5,-173.844 319.5,-173.844"/>
<text text-anchor="start" x="324.5" y="-182.444" font-family="Helvetica,sans-Serif" font-weight="bold" font-size="11.00" fill="#000000">groups</text>
<text text-anchor="start" x="371.0219" y="-181.944" font-family="Helvetica,sans-Serif" font-size="11.00" fill="#000000">[table]</text>
<polygon fill="none" stroke="#000000" points="319.5,-151.844 319.5,-173.844 405.5,-173.844 405.5,-151.844 319.5,-151.844"/>
<image xlink:href="../../images/primaryKeys.png" width="11px" height="12px" preserveAspectRatio="xMinYMin meet" x="324.5" y="-168.844"/>
<text text-anchor="start" x="348.5" y="-158.944" font-family="Helvetica,sans-Serif" font-size="11.00" fill="#000000">id</text>
<polygon fill="none" stroke="#000000" points="319.5,-129.844 319.5,-151.844 405.5,-151.844 405.5,-129.844 319.5,-129.844"/>
<image xlink:href="../../images/primaryKeys.png" width="11px" height="12px" preserveAspectRatio="xMinYMin meet" x="324.5" y="-146.844"/>
<text text-anchor="start" x="348.5" y="-136.944" font-family="Helvetica,sans-Serif" font-size="11.00" fill="#000000">name</text>
<polygon fill="none" stroke="#000000" points="319.5,-107.844 319.5,-129.844 405.5,-129.844 405.5,-107.844 319.5,-107.844"/>
<image xlink:href="../../images/foreignKeys.png" width="11px" height="12px" preserveAspectRatio="xMinYMin meet" x="324.5" y="-124.844"/>
<text text-anchor="start" x="348.5" y="-114.944" font-family="Helvetica,sans-Serif" font-size="11.00" fill="#000000">user</text>
<polygon fill="#ffffff" stroke="transparent" points="319.5,-88.844 319.5,-107.844 353.5,-107.844 353.5,-88.844 319.5,-88.844"/>
<polygon fill="none" stroke="#000000" points="319.5,-88.844 319.5,-107.844 353.5,-107.844 353.5,-88.844 319.5,-88.844"/>
<text text-anchor="start" x="322.5" y="-94.944" font-family="Helvetica,sans-Serif" font-size="11.00" fill="#000000">&lt; 1</text>
<polygon fill="#ffffff" stroke="transparent" points="353.5,-88.844 353.5,-107.844 371.5,-107.844 371.5,-88.844 353.5,-88.844"/>
<polygon fill="none" stroke="#000000" points="353.5,-88.844 353.5,-107.844 371.5,-107.844 371.5,-88.844 353.5,-88.844"/>
<text text-anchor="start" x="362.3862" y="-94.944" font-family="Helvetica,sans-Serif" font-size="11.00" fill="#000000"> &#160;</text>
<polygon fill="#ffffff" stroke="transparent" points="371.5,-88.844 371.5,-107.844 405.5,-107.844 405.5,-88.844 371.5,-88.844"/>
<polygon fill="none" stroke="#000000" points="371.5,-88.844 371.5,-107.844 405.5,-107.844 405.5,-88.844 371.5,-88.844"/>
<text text-anchor="start" x="380.7904" y="-94.944" font-family="Helvetica,sans-Serif" font-size="11.00" fill="#000000">17 &gt;</text>
</a>
</g>
</g>
<!-- users -->
<g id="node2" class="node">
<title>users</title>
<g id="a_node2"><a xlink:href="../../tables/users.html" xlink:title="users" target="_top">
<polygon fill="#ffffff" stroke="transparent" points="8,-152.344 8,-367.344 175,-367.344 175,-152.344 8,-152.344"/>
<polygon fill="#f5f5f5" stroke="transparent" points="8.5,-343.844 8.5,-366.844 175.5,-366.844 175.5,-343.844 8.5,-343.844"/>
<polygon fill="none" stroke="#000000" points="8.5,-343.844 8.5,-366.844 175.5,-366.844 175.5,-343.844 8.5,-343.844"/>
<text text-anchor="start" x="13.5" y="-352.444" font-family="Helvetica,sans-Serif" font-weight="bold" font-size="11.00" fill="#000000">users</text>
<text text-anchor="start" x="140.5437" y="-351.944" font-family="Helvetica,sans-Serif" font-size="11.00" fill="#000000">[table]</text>
<polygon fill="none" stroke="#000000" points="8.5,-321.844 8.5,-343.844 175.5,-343.844 175.5,-321.844 8.5,-321.844"/>
<image xlink:href="../../images/primaryKeys.png" width="11px" height="12px" preserveAspectRatio="xMinYMin meet" x="13.5" y="-338.844"/>
<text text-anchor="start" x="28.5" y="-328.944" font-family="Helvetica,sans-Serif" font-size="11.00" fill="#000000">id</text>
<polygon fill="#ffffff" stroke="transparent" points="8.5,-299.844 8.5,-321.844 175.5,-321.844 175.5,-299.844 8.5,-299.844"/>
<polygon fill="none" stroke="#000000" points="8.5,-299.844 8.5,-321.844 175.5,-321.844 175.5,-299.844 8.5,-299.844"/>
<text text-anchor="start" x="28.5" y="-306.944" font-family="Helvetica,sans-Serif" font-size="11.00" fill="#000000">uuid</text>
<polygon fill="none" stroke="#000000" points="8.5,-277.844 8.5,-299.844 175.5,-299.844 175.5,-277.844 8.5,-277.844"/>
<image xlink:href="../../images/primaryKeys.png" width="11px" height="12px" preserveAspectRatio="xMinYMin meet" x="13.5" y="-294.844"/>
<text text-anchor="start" x="28.5" y="-284.944" font-family="Helvetica,sans-Serif" font-size="11.00" fill="#000000">username</text>
<polygon fill="none" stroke="#000000" points="8.5,-255.844 8.5,-277.844 175.5,-277.844 175.5,-255.844 8.5,-255.844"/>
<image xlink:href="../../images/foreignKeys.png" width="11px" height="12px" preserveAspectRatio="xMinYMin meet" x="13.5" y="-272.844"/>
<text text-anchor="start" x="28.5" y="-262.944" font-family="Helvetica,sans-Serif" font-size="11.00" fill="#000000">facility_id</text>
<polygon fill="#ffffff" stroke="transparent" points="8.5,-233.844 8.5,-255.844 175.5,-255.844 175.5,-233.844 8.5,-233.844"/>
<polygon fill="none" stroke="#000000" points="8.5,-233.844 8.5,-255.844 175.5,-255.844 175.5,-233.844 8.5,-233.844"/>
<text text-anchor="start" x="28.5" y="-240.944" font-family="Helvetica,sans-Serif" font-size="11.00" fill="#000000">google_signin_email</text>
<polygon fill="#ffffff" stroke="transparent" points="8.5,-211.844 8.5,-233.844 175.5,-233.844 175.5,-211.844 8.5,-211.844"/>
<polygon fill="none" stroke="#000000" points="8.5,-211.844 8.5,-233.844 175.5,-233.844 175.5,-211.844 8.5,-211.844"/>
<text text-anchor="start" x="28.5" y="-218.944" font-family="Helvetica,sans-Serif" font-size="11.00" fill="#000000">abook_type</text>
<polygon fill="none" stroke="#000000" points="8.5,-189.844 8.5,-211.844 175.5,-211.844 175.5,-189.844 8.5,-189.844"/>
<image xlink:href="../../images/foreignKeys.png" width="11px" height="12px" preserveAspectRatio="xMinYMin meet" x="13.5" y="-206.844"/>
<text text-anchor="start" x="28.5" y="-196.944" font-family="Helvetica,sans-Serif" font-size="11.00" fill="#000000">billing_facility_id</text>
<polygon fill="none" stroke="#000000" points="8.5,-170.844 8.5,-189.844 175.5,-189.844 175.5,-170.844 8.5,-170.844"/>
<text text-anchor="start" x="11.5" y="-176.944" font-family="Helvetica,sans-Serif" font-size="11.00" fill="#000000">...</text>
<polygon fill="#ffffff" stroke="transparent" points="8.5,-151.844 8.5,-170.844 82.5,-170.844 82.5,-151.844 8.5,-151.844"/>
<polygon fill="none" stroke="#000000" points="8.5,-151.844 8.5,-170.844 82.5,-170.844 82.5,-151.844 8.5,-151.844"/>
<text text-anchor="start" x="11.5" y="-157.944" font-family="Helvetica,sans-Serif" font-size="11.00" fill="#000000">&lt; 2</text>
<polygon fill="#ffffff" stroke="transparent" points="82.5,-151.844 82.5,-170.844 121.5,-170.844 121.5,-151.844 82.5,-151.844"/>
<polygon fill="none" stroke="#000000" points="82.5,-151.844 82.5,-170.844 121.5,-170.844 121.5,-151.844 82.5,-151.844"/>
<text text-anchor="start" x="112.3862" y="-157.944" font-family="Helvetica,sans-Serif" font-size="11.00" fill="#000000"> &#160;</text>
<polygon fill="#ffffff" stroke="transparent" points="121.5,-151.844 121.5,-170.844 175.5,-170.844 175.5,-151.844 121.5,-151.844"/>
<polygon fill="none" stroke="#000000" points="121.5,-151.844 121.5,-170.844 175.5,-170.844 175.5,-151.844 121.5,-151.844"/>
<text text-anchor="start" x="150.7904" y="-157.944" font-family="Helvetica,sans-Serif" font-size="11.00" fill="#000000">90 &gt;</text>
</a>
</g>
</g>
<!-- groups&#45;&gt;users -->
<g id="edge1" class="edge">
<title>groups:w&#45;&gt;users:e</title>
<path fill="none" stroke="#000000" d="M305.0254,-119.7339C257.646,-125.9664 250.0927,-164.1073 216,-207.844 191.2554,-239.5884 215.7492,-288.844 175.5,-288.844"/>
<polygon fill="#000000" stroke="#000000" points="311.5151,-119.335 319.7209,-122.4373 315.5075,-119.0895 319.5,-118.844 319.5,-118.844 319.5,-118.844 315.5075,-119.0895 319.2791,-115.2508 311.5151,-119.335 311.5151,-119.335"/>
<ellipse fill="none" stroke="#000000" cx="308.3211" cy="-119.5314" rx="3.2" ry="3.2"/>
</g>
<!-- form_CAMOS_item -->
<g id="node3" class="node">
<title>form_CAMOS_item</title>
<g id="a_node3"><a xlink:href="../../tables/form_CAMOS_item.html" xlink:title="form_CAMOS_item" target="_top">
<polygon fill="#ffffff" stroke="transparent" points="550,-42.844 550,-176.844 760,-176.844 760,-42.844 550,-42.844"/>
<polygon fill="#f5f5f5" stroke="transparent" points="552,-151.844 552,-174.844 758,-174.844 758,-151.844 552,-151.844"/>
<polygon fill="none" stroke="#000000" points="552,-151.844 552,-174.844 758,-174.844 758,-151.844 552,-151.844"/>
<text text-anchor="start" x="557" y="-160.444" font-family="Helvetica,sans-Serif" font-weight="bold" font-size="11.00" fill="#000000">form_CAMOS_item</text>
<text text-anchor="start" x="723.0437" y="-159.944" font-family="Helvetica,sans-Serif" font-size="11.00" fill="#000000">[table]</text>
<polygon fill="none" stroke="#000000" points="552,-129.844 552,-151.844 696,-151.844 696,-129.844 552,-129.844"/>
<image xlink:href="../../images/foreignKeys.png" width="11px" height="12px" preserveAspectRatio="xMinYMin meet" x="557" y="-146.844"/>
<text text-anchor="start" x="572" y="-136.944" font-family="Helvetica,sans-Serif" font-size="11.00" fill="#000000">groupname</text>
<polygon fill="none" stroke="#000000" points="696,-129.844 696,-151.844 758,-151.844 758,-129.844 696,-129.844"/>
<text text-anchor="start" x="698.878" y="-137.544" font-family="Helvetica,sans-Serif" font-size="11.00" fill="#000000">unknown[0]</text>
<polygon fill="none" stroke="#000000" points="552,-107.844 552,-129.844 696,-129.844 696,-107.844 552,-107.844"/>
<image xlink:href="../../images/foreignKeys.png" width="11px" height="12px" preserveAspectRatio="xMinYMin meet" x="557" y="-124.844"/>
<text text-anchor="start" x="572" y="-114.944" font-family="Helvetica,sans-Serif" font-size="11.00" fill="#000000">pid</text>
<polygon fill="none" stroke="#000000" points="696,-107.844 696,-129.844 758,-129.844 758,-107.844 696,-107.844"/>
<text text-anchor="start" x="698.878" y="-115.544" font-family="Helvetica,sans-Serif" font-size="11.00" fill="#000000">unknown[0]</text>
<polygon fill="none" stroke="#000000" points="552,-85.844 552,-107.844 696,-107.844 696,-85.844 552,-85.844"/>
<text text-anchor="start" x="572" y="-92.944" font-family="Helvetica,sans-Serif" font-size="11.00" fill="#000000">subcategory_id</text>
<polygon fill="none" stroke="#000000" points="696,-85.844 696,-107.844 758,-107.844 758,-85.844 696,-85.844"/>
<text text-anchor="start" x="698.878" y="-93.544" font-family="Helvetica,sans-Serif" font-size="11.00" fill="#000000">unknown[0]</text>
<polygon fill="none" stroke="#000000" points="552,-63.844 552,-85.844 696,-85.844 696,-63.844 552,-63.844"/>
<image xlink:href="../../images/foreignKeys.png" width="11px" height="12px" preserveAspectRatio="xMinYMin meet" x="557" y="-80.844"/>
<text text-anchor="start" x="572" y="-70.944" font-family="Helvetica,sans-Serif" font-size="11.00" fill="#000000">user</text>
<polygon fill="none" stroke="#000000" points="696,-63.844 696,-85.844 758,-85.844 758,-63.844 696,-63.844"/>
<text text-anchor="start" x="698.878" y="-71.544" font-family="Helvetica,sans-Serif" font-size="11.00" fill="#000000">unknown[0]</text>
<polygon fill="#ffffff" stroke="transparent" points="552,-44.844 552,-63.844 628,-63.844 628,-44.844 552,-44.844"/>
<polygon fill="none" stroke="#000000" points="552,-44.844 552,-63.844 628,-63.844 628,-44.844 552,-44.844"/>
<text text-anchor="start" x="555" y="-50.944" font-family="Helvetica,sans-Serif" font-size="11.00" fill="#000000">&lt; 3</text>
<polygon fill="#ffffff" stroke="transparent" points="628,-44.844 628,-63.844 696,-63.844 696,-44.844 628,-44.844"/>
<polygon fill="none" stroke="#000000" points="628,-44.844 628,-63.844 696,-63.844 696,-44.844 628,-44.844"/>
<text text-anchor="start" x="686.8862" y="-50.944" font-family="Helvetica,sans-Serif" font-size="11.00" fill="#000000"> &#160;</text>
<polygon fill="#ffffff" stroke="transparent" points="696,-44.844 696,-63.844 758,-63.844 758,-44.844 696,-44.844"/>
<polygon fill="none" stroke="#000000" points="696,-44.844 696,-63.844 758,-63.844 758,-44.844 696,-44.844"/>
<text text-anchor="start" x="739.4053" y="-50.944" font-family="Helvetica,sans-Serif" font-size="11.00" fill="#000000">0 &gt;</text>
<polygon fill="none" stroke="#000000" stroke-width="2" points="551,-43.844 551,-175.844 759,-175.844 759,-43.844 551,-43.844"/>
</a>
</g>
</g>
<!-- form_CAMOS_item&#45;&gt;groups -->
<g id="edge2" class="edge">
<title>form_CAMOS_item:w&#45;&gt;groups:e</title>
<path fill="none" stroke="#000000" d="M537.5872,-140.844C484.0474,-140.844 465.5243,-140.844 405.5,-140.844"/>
<polygon fill="#000000" stroke="#000000" points="544,-140.8441 552,-144.444 548,-140.8441 552,-140.844 552,-140.844 552,-140.844 548,-140.8441 552,-137.244 544,-140.8441 544,-140.8441"/>
<ellipse fill="none" stroke="#000000" cx="540.8" cy="-140.8441" rx="3.2" ry="3.2"/>
</g>
<!-- form_CAMOS_item&#45;&gt;users -->
<g id="edge4" class="edge">
<title>form_CAMOS_item:w&#45;&gt;users:e</title>
<path fill="none" stroke="#000000" d="M537.3759,-74.5479C397.8347,-68.8997 326.8881,14.6202 216,-77.844 142.6615,-138.9974 270.9896,-288.844 175.5,-288.844"/>
<polygon fill="#000000" stroke="#000000" points="544.0016,-74.682 551.9271,-78.4433 548.0008,-74.763 552,-74.844 552,-74.844 552,-74.844 548.0008,-74.763 552.0729,-71.2448 544.0016,-74.682 544.0016,-74.682"/>
<ellipse fill="none" stroke="#000000" cx="540.8023" cy="-74.6172" rx="3.2" ry="3.2"/>
</g>
<!-- patient_data -->
<g id="node4" class="node">
<title>patient_data</title>
<g id="a_node4"><a xlink:href="../../tables/patient_data.html" xlink:title="patient_data" target="_top">
<polygon fill="#ffffff" stroke="transparent" points="224,-218.344 224,-609.344 501,-609.344 501,-218.344 224,-218.344"/>
<polygon fill="#f5f5f5" stroke="transparent" points="224.5,-585.844 224.5,-608.844 501.5,-608.844 501.5,-585.844 224.5,-585.844"/>
<polygon fill="none" stroke="#000000" points="224.5,-585.844 224.5,-608.844 501.5,-608.844 501.5,-585.844 224.5,-585.844"/>
<text text-anchor="start" x="229.5" y="-594.444" font-family="Helvetica,sans-Serif" font-weight="bold" font-size="11.00" fill="#000000">patient_data</text>
<text text-anchor="start" x="466.5437" y="-593.944" font-family="Helvetica,sans-Serif" font-size="11.00" fill="#000000">[table]</text>
<polygon fill="none" stroke="#000000" points="224.5,-563.844 224.5,-585.844 501.5,-585.844 501.5,-563.844 224.5,-563.844"/>
<image xlink:href="../../images/primaryKeys.png" width="11px" height="12px" preserveAspectRatio="xMinYMin meet" x="229.5" y="-580.844"/>
<text text-anchor="start" x="244.5" y="-570.944" font-family="Helvetica,sans-Serif" font-size="11.00" fill="#000000">id</text>
<polygon fill="#ffffff" stroke="transparent" points="224.5,-541.844 224.5,-563.844 501.5,-563.844 501.5,-541.844 224.5,-541.844"/>
<polygon fill="none" stroke="#000000" points="224.5,-541.844 224.5,-563.844 501.5,-563.844 501.5,-541.844 224.5,-541.844"/>
<text text-anchor="start" x="244.5" y="-548.944" font-family="Helvetica,sans-Serif" font-size="11.00" fill="#000000">uuid</text>
<polygon fill="#ffffff" stroke="transparent" points="224.5,-519.844 224.5,-541.844 501.5,-541.844 501.5,-519.844 224.5,-519.844"/>
<polygon fill="none" stroke="#000000" points="224.5,-519.844 224.5,-541.844 501.5,-541.844 501.5,-519.844 224.5,-519.844"/>
<text text-anchor="start" x="244.5" y="-526.944" font-family="Helvetica,sans-Serif" font-size="11.00" fill="#000000">fname</text>
<polygon fill="#ffffff" stroke="transparent" points="224.5,-497.844 224.5,-519.844 501.5,-519.844 501.5,-497.844 224.5,-497.844"/>
<polygon fill="none" stroke="#000000" points="224.5,-497.844 224.5,-519.844 501.5,-519.844 501.5,-497.844 224.5,-497.844"/>
<text text-anchor="start" x="244.5" y="-504.944" font-family="Helvetica,sans-Serif" font-size="11.00" fill="#000000">lname</text>
<polygon fill="#ffffff" stroke="transparent" points="224.5,-475.844 224.5,-497.844 501.5,-497.844 501.5,-475.844 224.5,-475.844"/>
<polygon fill="none" stroke="#000000" points="224.5,-475.844 224.5,-497.844 501.5,-497.844 501.5,-475.844 224.5,-475.844"/>
<text text-anchor="start" x="244.5" y="-482.944" font-family="Helvetica,sans-Serif" font-size="11.00" fill="#000000">DOB</text>
<polygon fill="none" stroke="#000000" points="224.5,-453.844 224.5,-475.844 501.5,-475.844 501.5,-453.844 224.5,-453.844"/>
<image xlink:href="../../images/foreignKeys.png" width="11px" height="12px" preserveAspectRatio="xMinYMin meet" x="229.5" y="-470.844"/>
<text text-anchor="start" x="244.5" y="-460.944" font-family="Helvetica,sans-Serif" font-size="11.00" fill="#000000">pharmacy_id</text>
<polygon fill="none" stroke="#000000" points="224.5,-431.844 224.5,-453.844 501.5,-453.844 501.5,-431.844 224.5,-431.844"/>
<image xlink:href="../../images/foreignKeys.png" width="11px" height="12px" preserveAspectRatio="xMinYMin meet" x="229.5" y="-448.844"/>
<text text-anchor="start" x="244.5" y="-438.944" font-family="Helvetica,sans-Serif" font-size="11.00" fill="#000000">providerID</text>
<polygon fill="none" stroke="#000000" points="224.5,-409.844 224.5,-431.844 501.5,-431.844 501.5,-409.844 224.5,-409.844"/>
<image xlink:href="../../images/foreignKeys.png" width="11px" height="12px" preserveAspectRatio="xMinYMin meet" x="229.5" y="-426.844"/>
<text text-anchor="start" x="244.5" y="-416.944" font-family="Helvetica,sans-Serif" font-size="11.00" fill="#000000">ref_providerID</text>
<polygon fill="none" stroke="#000000" points="224.5,-387.844 224.5,-409.844 501.5,-409.844 501.5,-387.844 224.5,-387.844"/>
<image xlink:href="../../images/foreignKeys.png" width="11px" height="12px" preserveAspectRatio="xMinYMin meet" x="229.5" y="-404.844"/>
<text text-anchor="start" x="244.5" y="-394.944" font-family="Helvetica,sans-Serif" font-size="11.00" fill="#000000">interpreter_needed</text>
<polygon fill="none" stroke="#000000" points="224.5,-365.844 224.5,-387.844 501.5,-387.844 501.5,-365.844 224.5,-365.844"/>
<image xlink:href="../../images/primaryKeys.png" width="11px" height="12px" preserveAspectRatio="xMinYMin meet" x="229.5" y="-382.844"/>
<text text-anchor="start" x="244.5" y="-372.944" font-family="Helvetica,sans-Serif" font-size="11.00" fill="#000000">pid</text>
<polygon fill="none" stroke="#000000" points="224.5,-343.844 224.5,-365.844 501.5,-365.844 501.5,-343.844 224.5,-343.844"/>
<image xlink:href="../../images/foreignKeys.png" width="11px" height="12px" preserveAspectRatio="xMinYMin meet" x="229.5" y="-360.844"/>
<text text-anchor="start" x="244.5" y="-350.944" font-family="Helvetica,sans-Serif" font-size="11.00" fill="#000000">advance_directive_user_authenticator</text>
<polygon fill="none" stroke="#000000" points="224.5,-321.844 224.5,-343.844 501.5,-343.844 501.5,-321.844 224.5,-321.844"/>
<image xlink:href="../../images/foreignKeys.png" width="11px" height="12px" preserveAspectRatio="xMinYMin meet" x="229.5" y="-338.844"/>
<text text-anchor="start" x="244.5" y="-328.944" font-family="Helvetica,sans-Serif" font-size="11.00" fill="#000000">created_by</text>
<polygon fill="none" stroke="#000000" points="224.5,-299.844 224.5,-321.844 501.5,-321.844 501.5,-299.844 224.5,-299.844"/>
<image xlink:href="../../images/foreignKeys.png" width="11px" height="12px" preserveAspectRatio="xMinYMin meet" x="229.5" y="-316.844"/>
<text text-anchor="start" x="244.5" y="-306.944" font-family="Helvetica,sans-Serif" font-size="11.00" fill="#000000">updated_by</text>
<polygon fill="none" stroke="#000000" points="224.5,-277.844 224.5,-299.844 501.5,-299.844 501.5,-277.844 224.5,-277.844"/>
<image xlink:href="../../images/foreignKeys.png" width="11px" height="12px" preserveAspectRatio="xMinYMin meet" x="229.5" y="-294.844"/>
<text text-anchor="start" x="244.5" y="-284.944" font-family="Helvetica,sans-Serif" font-size="11.00" fill="#000000">tribal_affiliations</text>
<polygon fill="none" stroke="#000000" points="224.5,-255.844 224.5,-277.844 501.5,-277.844 501.5,-255.844 224.5,-255.844"/>
<image xlink:href="../../images/foreignKeys.png" width="11px" height="12px" preserveAspectRatio="xMinYMin meet" x="229.5" y="-272.844"/>
<text text-anchor="start" x="244.5" y="-262.944" font-family="Helvetica,sans-Serif" font-size="11.00" fill="#000000">sex_identified</text>
<polygon fill="none" stroke="#000000" points="224.5,-236.844 224.5,-255.844 501.5,-255.844 501.5,-236.844 224.5,-236.844"/>
<text text-anchor="start" x="227.5" y="-242.944" font-family="Helvetica,sans-Serif" font-size="11.00" fill="#000000">...</text>
<polygon fill="#ffffff" stroke="transparent" points="224.5,-217.844 224.5,-236.844 353.5,-236.844 353.5,-217.844 224.5,-217.844"/>
<polygon fill="none" stroke="#000000" points="224.5,-217.844 224.5,-236.844 353.5,-236.844 353.5,-217.844 224.5,-217.844"/>
<text text-anchor="start" x="227.5" y="-223.944" font-family="Helvetica,sans-Serif" font-size="11.00" fill="#000000">&lt; 9</text>
<polygon fill="#ffffff" stroke="transparent" points="353.5,-217.844 353.5,-236.844 419.5,-236.844 419.5,-217.844 353.5,-217.844"/>
<polygon fill="none" stroke="#000000" points="353.5,-217.844 353.5,-236.844 419.5,-236.844 419.5,-217.844 353.5,-217.844"/>
<text text-anchor="start" x="410.3862" y="-223.944" font-family="Helvetica,sans-Serif" font-size="11.00" fill="#000000"> &#160;</text>
<polygon fill="#ffffff" stroke="transparent" points="419.5,-217.844 419.5,-236.844 501.5,-236.844 501.5,-217.844 419.5,-217.844"/>
<polygon fill="none" stroke="#000000" points="419.5,-217.844 419.5,-236.844 501.5,-236.844 501.5,-217.844 419.5,-217.844"/>
<text text-anchor="start" x="476.7904" y="-223.944" font-family="Helvetica,sans-Serif" font-size="11.00" fill="#000000">95 &gt;</text>
</a>
</g>
</g>
<!-- form_CAMOS_item&#45;&gt;patient_data -->
<g id="edge3" class="edge">
<title>form_CAMOS_item:w&#45;&gt;patient_data:e</title>
<path fill="none" stroke="#000000" d="M537.4849,-120.4916C451.6718,-142.4646 612.8656,-376.844 501.5,-376.844"/>
<polygon fill="#000000" stroke="#000000" points="544.051,-119.7463 552.406,-122.4211 548.0255,-119.2952 552,-118.844 552,-118.844 552,-118.844 548.0255,-119.2952 551.594,-115.267 544.051,-119.7463 544.051,-119.7463"/>
<ellipse fill="none" stroke="#000000" cx="540.8715" cy="-120.1073" rx="3.2" ry="3.2"/>
</g>
<!-- patient_data&#45;&gt;users -->
<g id="edge5" class="edge">
<title>patient_data:w&#45;&gt;users:e</title>
<path fill="none" stroke="#000000" d="M210.1297,-351.4065C198.5865,-345.219 193.4041,-332.844 175.5,-332.844"/>
<polygon fill="#000000" stroke="#000000" points="216.7195,-352.9828 223.6625,-358.3453 220.6098,-353.9134 224.5,-354.844 224.5,-354.844 224.5,-354.844 220.6098,-353.9134 225.3375,-351.3428 216.7195,-352.9828 216.7195,-352.9828"/>
<ellipse fill="none" stroke="#000000" cx="213.6073" cy="-352.2383" rx="3.2" ry="3.2"/>
</g>
<!-- patient_data&#45;&gt;users -->
<g id="edge6" class="edge">
<title>patient_data:w&#45;&gt;users:e</title>
<path fill="none" stroke="#000000" d="M209.9909,-332.844C198.6774,-332.844 191.4931,-332.844 175.5,-332.844"/>
<polygon fill="#000000" stroke="#000000" points="216.5,-332.8441 224.5,-336.444 220.5,-332.8441 224.5,-332.844 224.5,-332.844 224.5,-332.844 220.5,-332.8441 224.5,-329.244 216.5,-332.8441 216.5,-332.8441"/>
<ellipse fill="none" stroke="#000000" cx="213.3" cy="-332.8441" rx="3.2" ry="3.2"/>
</g>
<!-- patient_data&#45;&gt;users -->
<g id="edge7" class="edge">
<title>patient_data:w&#45;&gt;users:e</title>
<path fill="none" stroke="#000000" d="M210.282,-438.9291C182.6981,-419.3338 222.9572,-332.844 175.5,-332.844"/>
<polygon fill="#000000" stroke="#000000" points="216.7871,-440.7202 223.5443,-446.3149 220.6435,-441.7821 224.5,-442.844 224.5,-442.844 224.5,-442.844 220.6435,-441.7821 225.4557,-439.3732 216.7871,-440.7202 216.7871,-440.7202"/>
<ellipse fill="none" stroke="#000000" cx="213.7019" cy="-439.8707" rx="3.2" ry="3.2"/>
</g>
<!-- patient_data&#45;&gt;users -->
<g id="edge8" class="edge">
<title>patient_data:w&#45;&gt;users:e</title>
<path fill="none" stroke="#000000" d="M210.4863,-416.3591C189.2228,-398.4264 214.1452,-332.844 175.5,-332.844"/>
<polygon fill="#000000" stroke="#000000" points="216.8807,-418.4055 223.4027,-424.2727 220.6903,-419.6248 224.5,-420.844 224.5,-420.844 224.5,-420.844 220.6903,-419.6248 225.5973,-417.4153 216.8807,-418.4055 216.8807,-418.4055"/>
<ellipse fill="none" stroke="#000000" cx="213.833" cy="-417.4301" rx="3.2" ry="3.2"/>
</g>
<!-- patient_data&#45;&gt;users -->
<g id="edge9" class="edge">
<title>patient_data:w&#45;&gt;users:e</title>
<path fill="none" stroke="#000000" d="M210.1297,-314.2815C198.5865,-320.469 193.4041,-332.844 175.5,-332.844"/>
<polygon fill="#000000" stroke="#000000" points="216.7195,-312.7052 225.3375,-314.3453 220.6098,-311.7746 224.5,-310.844 224.5,-310.844 224.5,-310.844 220.6098,-311.7746 223.6625,-307.3428 216.7195,-312.7052 216.7195,-312.7052"/>
<ellipse fill="none" stroke="#000000" cx="213.6073" cy="-313.4497" rx="3.2" ry="3.2"/>
</g>
</g>
</svg>
