<?xml version="1.0" encoding="UTF-8" standalone="no"?>
<!DOCTYPE svg PUBLIC "-//W3C//DTD SVG 1.1//EN"
 "http://www.w3.org/Graphics/SVG/1.1/DTD/svg11.dtd">
<!-- Generated by graphviz version 2.40.1 (20161225.0304)
 -->
<!-- Title: twoDegreesRelationshipsDiagram Pages: 1 -->
<svg width="1171pt" height="1264pt"
 viewBox="0.00 0.00 1171.00 1263.89" xmlns="http://www.w3.org/2000/svg" xmlns:xlink="http://www.w3.org/1999/xlink">
<g id="graph0" class="graph" transform="scale(1 1) rotate(0) translate(4 1259.8948)">
<title>twoDegreesRelationshipsDiagram</title>
<polygon fill="#ffffff" stroke="transparent" points="-4,4 -4,-1259.8948 1167,-1259.8948 1167,4 -4,4"/>
<text text-anchor="middle" x="72.4936" y="-7.3" font-family="Helvetica,sans-Serif" font-size="11.00" fill="#000000">Generated by SchemaSpy</text>
<!-- form_group_attendance -->
<g id="node1" class="node">
<title>form_group_attendance</title>
<g id="a_node1"><a xlink:href="../../tables/form_group_attendance.html" xlink:title="form_group_attendance" target="_top">
<polygon fill="#ffffff" stroke="transparent" points="956,-484.8948 956,-545.8948 1155,-545.8948 1155,-484.8948 956,-484.8948"/>
<polygon fill="#f5f5f5" stroke="transparent" points="956.5,-522.3948 956.5,-545.3948 1155.5,-545.3948 1155.5,-522.3948 956.5,-522.3948"/>
<polygon fill="none" stroke="#000000" points="956.5,-522.3948 956.5,-545.3948 1155.5,-545.3948 1155.5,-522.3948 956.5,-522.3948"/>
<text text-anchor="start" x="961.5" y="-530.9948" font-family="Helvetica,sans-Serif" font-weight="bold" font-size="11.00" fill="#000000">form_group_attendance</text>
<text text-anchor="start" x="1121.0219" y="-530.4948" font-family="Helvetica,sans-Serif" font-size="11.00" fill="#000000">[table]</text>
<polygon fill="none" stroke="#000000" points="956.5,-503.3948 956.5,-522.3948 1155.5,-522.3948 1155.5,-503.3948 956.5,-503.3948"/>
<text text-anchor="start" x="959.5" y="-509.4948" font-family="Helvetica,sans-Serif" font-size="11.00" fill="#000000">...</text>
<polygon fill="#ffffff" stroke="transparent" points="956.5,-484.3948 956.5,-503.3948 1049.5,-503.3948 1049.5,-484.3948 956.5,-484.3948"/>
<polygon fill="none" stroke="#000000" points="956.5,-484.3948 956.5,-503.3948 1049.5,-503.3948 1049.5,-484.3948 956.5,-484.3948"/>
<text text-anchor="start" x="959.5" y="-490.4948" font-family="Helvetica,sans-Serif" font-size="11.00" fill="#000000">&lt; 5</text>
<polygon fill="#ffffff" stroke="transparent" points="1049.5,-484.3948 1049.5,-503.3948 1097.5,-503.3948 1097.5,-484.3948 1049.5,-484.3948"/>
<polygon fill="none" stroke="#000000" points="1049.5,-484.3948 1049.5,-503.3948 1097.5,-503.3948 1097.5,-484.3948 1049.5,-484.3948"/>
<text text-anchor="start" x="1088.3862" y="-490.4948" font-family="Helvetica,sans-Serif" font-size="11.00" fill="#000000"> &#160;</text>
<polygon fill="#ffffff" stroke="transparent" points="1097.5,-484.3948 1097.5,-503.3948 1155.5,-503.3948 1155.5,-484.3948 1097.5,-484.3948"/>
<polygon fill="none" stroke="#000000" points="1097.5,-484.3948 1097.5,-503.3948 1155.5,-503.3948 1155.5,-484.3948 1097.5,-484.3948"/>
<text text-anchor="start" x="1136.9053" y="-490.4948" font-family="Helvetica,sans-Serif" font-size="11.00" fill="#000000">1 &gt;</text>
</a>
</g>
</g>
<!-- form_groups_encounter -->
<g id="node2" class="node">
<title>form_groups_encounter</title>
<g id="a_node2"><a xlink:href="../../tables/form_groups_encounter.html" xlink:title="form_groups_encounter" target="_top">
<polygon fill="#ffffff" stroke="transparent" points="697,-1190.8948 697,-1251.8948 895,-1251.8948 895,-1190.8948 697,-1190.8948"/>
<polygon fill="#f5f5f5" stroke="transparent" points="697,-1228.3948 697,-1251.3948 895,-1251.3948 895,-1228.3948 697,-1228.3948"/>
<polygon fill="none" stroke="#000000" points="697,-1228.3948 697,-1251.3948 895,-1251.3948 895,-1228.3948 697,-1228.3948"/>
<text text-anchor="start" x="702" y="-1236.9948" font-family="Helvetica,sans-Serif" font-weight="bold" font-size="11.00" fill="#000000">form_groups_encounter</text>
<text text-anchor="start" x="860.5219" y="-1236.4948" font-family="Helvetica,sans-Serif" font-size="11.00" fill="#000000">[table]</text>
<polygon fill="none" stroke="#000000" points="697,-1209.3948 697,-1228.3948 895,-1228.3948 895,-1209.3948 697,-1209.3948"/>
<text text-anchor="start" x="700" y="-1215.4948" font-family="Helvetica,sans-Serif" font-size="11.00" fill="#000000">...</text>
<polygon fill="#ffffff" stroke="transparent" points="697,-1190.3948 697,-1209.3948 790,-1209.3948 790,-1190.3948 697,-1190.3948"/>
<polygon fill="none" stroke="#000000" points="697,-1190.3948 697,-1209.3948 790,-1209.3948 790,-1190.3948 697,-1190.3948"/>
<text text-anchor="start" x="700" y="-1196.4948" font-family="Helvetica,sans-Serif" font-size="11.00" fill="#000000">&lt; 7</text>
<polygon fill="#ffffff" stroke="transparent" points="790,-1190.3948 790,-1209.3948 838,-1209.3948 838,-1190.3948 790,-1190.3948"/>
<polygon fill="none" stroke="#000000" points="790,-1190.3948 790,-1209.3948 838,-1209.3948 838,-1190.3948 790,-1190.3948"/>
<text text-anchor="start" x="828.8862" y="-1196.4948" font-family="Helvetica,sans-Serif" font-size="11.00" fill="#000000"> &#160;</text>
<polygon fill="#ffffff" stroke="transparent" points="838,-1190.3948 838,-1209.3948 895,-1209.3948 895,-1190.3948 838,-1190.3948"/>
<polygon fill="none" stroke="#000000" points="838,-1190.3948 838,-1209.3948 895,-1209.3948 895,-1190.3948 838,-1190.3948"/>
<text text-anchor="start" x="876.4053" y="-1196.4948" font-family="Helvetica,sans-Serif" font-size="11.00" fill="#000000">1 &gt;</text>
</a>
</g>
</g>
<!-- form_group_attendance&#45;&gt;form_groups_encounter -->
<g id="edge1" class="edge">
<title>form_group_attendance:w&#45;&gt;form_groups_encounter:e</title>
<path fill="none" stroke="#000000" d="M944.0414,-519.8458C888.7409,-595.2989 968.974,-1218.3948 895,-1218.3948"/>
<polygon fill="#000000" stroke="#000000" points="949.6342,-516.501 958.3478,-515.4844 953.0671,-514.4479 956.5,-512.3948 956.5,-512.3948 956.5,-512.3948 953.0671,-514.4479 954.6522,-509.3052 949.6342,-516.501 949.6342,-516.501"/>
<ellipse fill="none" stroke="#000000" cx="946.8879" cy="-518.1435" rx="3.2" ry="3.2"/>
</g>
<!-- therapy_groups -->
<g id="node3" class="node">
<title>therapy_groups</title>
<g id="a_node3"><a xlink:href="../../tables/therapy_groups.html" xlink:title="therapy_groups" target="_top">
<polygon fill="#ffffff" stroke="transparent" points="305,-1052.8948 305,-1113.8948 449,-1113.8948 449,-1052.8948 305,-1052.8948"/>
<polygon fill="#f5f5f5" stroke="transparent" points="305,-1090.3948 305,-1113.3948 449,-1113.3948 449,-1090.3948 305,-1090.3948"/>
<polygon fill="none" stroke="#000000" points="305,-1090.3948 305,-1113.3948 449,-1113.3948 449,-1090.3948 305,-1090.3948"/>
<text text-anchor="start" x="310" y="-1098.9948" font-family="Helvetica,sans-Serif" font-weight="bold" font-size="11.00" fill="#000000">therapy_groups</text>
<text text-anchor="start" x="414.5219" y="-1098.4948" font-family="Helvetica,sans-Serif" font-size="11.00" fill="#000000">[table]</text>
<polygon fill="none" stroke="#000000" points="305,-1071.3948 305,-1090.3948 449,-1090.3948 449,-1071.3948 305,-1071.3948"/>
<text text-anchor="start" x="308" y="-1077.4948" font-family="Helvetica,sans-Serif" font-size="11.00" fill="#000000">...</text>
<polygon fill="#ffffff" stroke="transparent" points="305,-1052.3948 305,-1071.3948 366,-1071.3948 366,-1052.3948 305,-1052.3948"/>
<polygon fill="none" stroke="#000000" points="305,-1052.3948 305,-1071.3948 366,-1071.3948 366,-1052.3948 305,-1052.3948"/>
<text text-anchor="start" x="308" y="-1058.4948" font-family="Helvetica,sans-Serif" font-size="11.00" fill="#000000"> &#160;</text>
<polygon fill="#ffffff" stroke="transparent" points="366,-1052.3948 366,-1071.3948 403,-1071.3948 403,-1052.3948 366,-1052.3948"/>
<polygon fill="none" stroke="#000000" points="366,-1052.3948 366,-1071.3948 403,-1071.3948 403,-1052.3948 366,-1052.3948"/>
<text text-anchor="start" x="393.8862" y="-1058.4948" font-family="Helvetica,sans-Serif" font-size="11.00" fill="#000000"> &#160;</text>
<polygon fill="#ffffff" stroke="transparent" points="403,-1052.3948 403,-1071.3948 449,-1071.3948 449,-1052.3948 403,-1052.3948"/>
<polygon fill="none" stroke="#000000" points="403,-1052.3948 403,-1071.3948 449,-1071.3948 449,-1052.3948 403,-1052.3948"/>
<text text-anchor="start" x="430.4053" y="-1058.4948" font-family="Helvetica,sans-Serif" font-size="11.00" fill="#000000">6 &gt;</text>
</a>
</g>
</g>
<!-- form_group_attendance&#45;&gt;therapy_groups -->
<g id="edge2" class="edge">
<title>form_group_attendance:w&#45;&gt;therapy_groups:e</title>
<path fill="none" stroke="#000000" d="M944.4145,-520.9264C903.7062,-588.1433 956.6706,-1030.8676 915,-1070.3948 877.4256,-1106.0366 500.7897,-1080.3948 449,-1080.3948"/>
<polygon fill="#000000" stroke="#000000" points="949.9644,-517.0085 958.5762,-515.3358 953.2322,-514.7017 956.5,-512.3948 956.5,-512.3948 956.5,-512.3948 953.2322,-514.7017 954.4238,-509.4538 949.9644,-517.0085 949.9644,-517.0085"/>
<ellipse fill="none" stroke="#000000" cx="947.3502" cy="-518.854" rx="3.2" ry="3.2"/>
</g>
<!-- groups -->
<g id="node4" class="node">
<title>groups</title>
<g id="a_node4"><a xlink:href="../../tables/groups.html" xlink:title="groups" target="_top">
<polygon fill="#ffffff" stroke="transparent" points="151,-262.8948 151,-323.8948 237,-323.8948 237,-262.8948 151,-262.8948"/>
<polygon fill="#f5f5f5" stroke="transparent" points="151,-300.3948 151,-323.3948 237,-323.3948 237,-300.3948 151,-300.3948"/>
<polygon fill="none" stroke="#000000" points="151,-300.3948 151,-323.3948 237,-323.3948 237,-300.3948 151,-300.3948"/>
<text text-anchor="start" x="156" y="-308.9948" font-family="Helvetica,sans-Serif" font-weight="bold" font-size="11.00" fill="#000000">groups</text>
<text text-anchor="start" x="202.5219" y="-308.4948" font-family="Helvetica,sans-Serif" font-size="11.00" fill="#000000">[table]</text>
<polygon fill="none" stroke="#000000" points="151,-281.3948 151,-300.3948 237,-300.3948 237,-281.3948 151,-281.3948"/>
<text text-anchor="start" x="154" y="-287.4948" font-family="Helvetica,sans-Serif" font-size="11.00" fill="#000000">...</text>
<polygon fill="#ffffff" stroke="transparent" points="151,-262.3948 151,-281.3948 185,-281.3948 185,-262.3948 151,-262.3948"/>
<polygon fill="none" stroke="#000000" points="151,-262.3948 151,-281.3948 185,-281.3948 185,-262.3948 151,-262.3948"/>
<text text-anchor="start" x="154" y="-268.4948" font-family="Helvetica,sans-Serif" font-size="11.00" fill="#000000">&lt; 1</text>
<polygon fill="#ffffff" stroke="transparent" points="185,-262.3948 185,-281.3948 203,-281.3948 203,-262.3948 185,-262.3948"/>
<polygon fill="none" stroke="#000000" points="185,-262.3948 185,-281.3948 203,-281.3948 203,-262.3948 185,-262.3948"/>
<text text-anchor="start" x="193.8862" y="-268.4948" font-family="Helvetica,sans-Serif" font-size="11.00" fill="#000000"> &#160;</text>
<polygon fill="#ffffff" stroke="transparent" points="203,-262.3948 203,-281.3948 237,-281.3948 237,-262.3948 203,-262.3948"/>
<polygon fill="none" stroke="#000000" points="203,-262.3948 203,-281.3948 237,-281.3948 237,-262.3948 203,-262.3948"/>
<text text-anchor="start" x="212.2904" y="-268.4948" font-family="Helvetica,sans-Serif" font-size="11.00" fill="#000000">17 &gt;</text>
</a>
</g>
</g>
<!-- form_group_attendance&#45;&gt;groups -->
<g id="edge3" class="edge">
<title>form_group_attendance:w&#45;&gt;groups:e</title>
<path fill="none" stroke="#000000" d="M942.1097,-509.0931C870.3791,-471.6991 984.8458,-128.0695 915,-64.3948 807.5761,33.5379 316.6049,-138.0842 297,-154.3948 246.213,-196.6479 303.0654,-290.3948 237,-290.3948"/>
<polygon fill="#000000" stroke="#000000" points="948.7026,-510.6058 955.6949,-515.9036 952.6013,-511.5003 956.5,-512.3948 956.5,-512.3948 956.5,-512.3948 952.6013,-511.5003 957.3051,-508.886 948.7026,-510.6058 948.7026,-510.6058"/>
<ellipse fill="none" stroke="#000000" cx="945.5836" cy="-509.8901" rx="3.2" ry="3.2"/>
</g>
<!-- forms -->
<g id="node5" class="node">
<title>forms</title>
<g id="a_node5"><a xlink:href="../../tables/forms.html" xlink:title="forms" target="_top">
<polygon fill="#ffffff" stroke="transparent" points="498,-530.8948 498,-789.8948 636,-789.8948 636,-530.8948 498,-530.8948"/>
<polygon fill="#f5f5f5" stroke="transparent" points="498,-766.3948 498,-789.3948 636,-789.3948 636,-766.3948 498,-766.3948"/>
<polygon fill="none" stroke="#000000" points="498,-766.3948 498,-789.3948 636,-789.3948 636,-766.3948 498,-766.3948"/>
<text text-anchor="start" x="503" y="-774.9948" font-family="Helvetica,sans-Serif" font-weight="bold" font-size="11.00" fill="#000000">forms</text>
<text text-anchor="start" x="601.0437" y="-774.4948" font-family="Helvetica,sans-Serif" font-size="11.00" fill="#000000">[table]</text>
<polygon fill="none" stroke="#000000" points="498,-744.3948 498,-766.3948 636,-766.3948 636,-744.3948 498,-744.3948"/>
<image xlink:href="../../images/primaryKeys.png" width="11px" height="12px" preserveAspectRatio="xMinYMin meet" x="503" y="-761.395"/>
<text text-anchor="start" x="518" y="-751.4948" font-family="Helvetica,sans-Serif" font-size="11.00" fill="#000000">id</text>
<polygon fill="#ffffff" stroke="transparent" points="498,-722.3948 498,-744.3948 636,-744.3948 636,-722.3948 498,-722.3948"/>
<polygon fill="none" stroke="#000000" points="498,-722.3948 498,-744.3948 636,-744.3948 636,-722.3948 498,-722.3948"/>
<text text-anchor="start" x="518" y="-729.4948" font-family="Helvetica,sans-Serif" font-size="11.00" fill="#000000">encounter</text>
<polygon fill="none" stroke="#000000" points="498,-700.3948 498,-722.3948 636,-722.3948 636,-700.3948 498,-700.3948"/>
<image xlink:href="../../images/primaryKeys.png" width="11px" height="12px" preserveAspectRatio="xMinYMin meet" x="503" y="-717.395"/>
<text text-anchor="start" x="518" y="-707.4948" font-family="Helvetica,sans-Serif" font-size="11.00" fill="#000000">form_id</text>
<polygon fill="#ffffff" stroke="transparent" points="498,-678.3948 498,-700.3948 636,-700.3948 636,-678.3948 498,-678.3948"/>
<polygon fill="none" stroke="#000000" points="498,-678.3948 498,-700.3948 636,-700.3948 636,-678.3948 498,-678.3948"/>
<image xlink:href="../../images/foreignKeys.png" width="11px" height="12px" preserveAspectRatio="xMinYMin meet" x="503" y="-695.395"/>
<text text-anchor="start" x="518" y="-685.4948" font-family="Helvetica,sans-Serif" font-size="11.00" fill="#000000">pid</text>
<polygon fill="none" stroke="#000000" points="498,-656.3948 498,-678.3948 636,-678.3948 636,-656.3948 498,-656.3948"/>
<image xlink:href="../../images/foreignKeys.png" width="11px" height="12px" preserveAspectRatio="xMinYMin meet" x="503" y="-673.395"/>
<text text-anchor="start" x="518" y="-663.4948" font-family="Helvetica,sans-Serif" font-size="11.00" fill="#000000">user</text>
<polygon fill="none" stroke="#000000" points="498,-634.3948 498,-656.3948 636,-656.3948 636,-634.3948 498,-634.3948"/>
<image xlink:href="../../images/foreignKeys.png" width="11px" height="12px" preserveAspectRatio="xMinYMin meet" x="503" y="-651.395"/>
<text text-anchor="start" x="518" y="-641.4948" font-family="Helvetica,sans-Serif" font-size="11.00" fill="#000000">groupname</text>
<polygon fill="none" stroke="#000000" points="498,-612.3948 498,-634.3948 636,-634.3948 636,-612.3948 498,-612.3948"/>
<image xlink:href="../../images/foreignKeys.png" width="11px" height="12px" preserveAspectRatio="xMinYMin meet" x="503" y="-629.395"/>
<text text-anchor="start" x="518" y="-619.4948" font-family="Helvetica,sans-Serif" font-size="11.00" fill="#000000">therapy_group_id</text>
<polygon fill="none" stroke="#000000" points="498,-590.3948 498,-612.3948 636,-612.3948 636,-590.3948 498,-590.3948"/>
<image xlink:href="../../images/foreignKeys.png" width="11px" height="12px" preserveAspectRatio="xMinYMin meet" x="503" y="-607.395"/>
<text text-anchor="start" x="518" y="-597.4948" font-family="Helvetica,sans-Serif" font-size="11.00" fill="#000000">issue_id</text>
<polygon fill="none" stroke="#000000" points="498,-568.3948 498,-590.3948 636,-590.3948 636,-568.3948 498,-568.3948"/>
<image xlink:href="../../images/foreignKeys.png" width="11px" height="12px" preserveAspectRatio="xMinYMin meet" x="503" y="-585.395"/>
<text text-anchor="start" x="518" y="-575.4948" font-family="Helvetica,sans-Serif" font-size="11.00" fill="#000000">provider_id</text>
<polygon fill="none" stroke="#000000" points="498,-549.3948 498,-568.3948 636,-568.3948 636,-549.3948 498,-549.3948"/>
<text text-anchor="start" x="501" y="-555.4948" font-family="Helvetica,sans-Serif" font-size="11.00" fill="#000000">...</text>
<polygon fill="#ffffff" stroke="transparent" points="498,-530.3948 498,-549.3948 558,-549.3948 558,-530.3948 498,-530.3948"/>
<polygon fill="none" stroke="#000000" points="498,-530.3948 498,-549.3948 558,-549.3948 558,-530.3948 498,-530.3948"/>
<text text-anchor="start" x="501" y="-536.4948" font-family="Helvetica,sans-Serif" font-size="11.00" fill="#000000">&lt; 6</text>
<polygon fill="#ffffff" stroke="transparent" points="558,-530.3948 558,-549.3948 589,-549.3948 589,-530.3948 558,-530.3948"/>
<polygon fill="none" stroke="#000000" points="558,-530.3948 558,-549.3948 589,-549.3948 589,-530.3948 558,-530.3948"/>
<text text-anchor="start" x="579.8862" y="-536.4948" font-family="Helvetica,sans-Serif" font-size="11.00" fill="#000000"> &#160;</text>
<polygon fill="#ffffff" stroke="transparent" points="589,-530.3948 589,-549.3948 636,-549.3948 636,-530.3948 589,-530.3948"/>
<polygon fill="none" stroke="#000000" points="589,-530.3948 589,-549.3948 636,-549.3948 636,-530.3948 589,-530.3948"/>
<text text-anchor="start" x="611.2904" y="-536.4948" font-family="Helvetica,sans-Serif" font-size="11.00" fill="#000000">14 &gt;</text>
</a>
</g>
</g>
<!-- form_group_attendance&#45;&gt;forms -->
<g id="edge4" class="edge">
<title>form_group_attendance:w&#45;&gt;forms:e</title>
<path fill="none" stroke="#000000" d="M945.7974,-512.1904C876.7424,-509.8233 722.0043,-488.3824 677,-526.3948 612.6617,-580.7375 720.2172,-711.3948 636,-711.3948"/>
<polygon fill="#000000" stroke="#000000" points="955.7766,-508.3803 955.6237,-516.3788 954.024,-516.3482 954.1769,-508.3497 955.7766,-508.3803"/>
<polyline fill="none" stroke="#000000" points="956.5,-512.3948 952.5007,-512.3184 "/>
<ellipse fill="none" stroke="#000000" cx="949.3013" cy="-512.2572" rx="3.2" ry="3.2"/>
</g>
<!-- users -->
<g id="node6" class="node">
<title>users</title>
<g id="a_node6"><a xlink:href="../../tables/users.html" xlink:title="users" target="_top">
<polygon fill="#ffffff" stroke="transparent" points="8,-449.8948 8,-510.8948 83,-510.8948 83,-449.8948 8,-449.8948"/>
<polygon fill="#f5f5f5" stroke="transparent" points="8.5,-487.3948 8.5,-510.3948 83.5,-510.3948 83.5,-487.3948 8.5,-487.3948"/>
<polygon fill="none" stroke="#000000" points="8.5,-487.3948 8.5,-510.3948 83.5,-510.3948 83.5,-487.3948 8.5,-487.3948"/>
<text text-anchor="start" x="13.5" y="-495.9948" font-family="Helvetica,sans-Serif" font-weight="bold" font-size="11.00" fill="#000000">users</text>
<text text-anchor="start" x="49.0219" y="-495.4948" font-family="Helvetica,sans-Serif" font-size="11.00" fill="#000000">[table]</text>
<polygon fill="none" stroke="#000000" points="8.5,-468.3948 8.5,-487.3948 83.5,-487.3948 83.5,-468.3948 8.5,-468.3948"/>
<text text-anchor="start" x="11.5" y="-474.4948" font-family="Helvetica,sans-Serif" font-size="11.00" fill="#000000">...</text>
<polygon fill="#ffffff" stroke="transparent" points="8.5,-449.3948 8.5,-468.3948 36.5,-468.3948 36.5,-449.3948 8.5,-449.3948"/>
<polygon fill="none" stroke="#000000" points="8.5,-449.3948 8.5,-468.3948 36.5,-468.3948 36.5,-449.3948 8.5,-449.3948"/>
<text text-anchor="start" x="11.5" y="-455.4948" font-family="Helvetica,sans-Serif" font-size="11.00" fill="#000000">&lt; 2</text>
<polygon fill="#ffffff" stroke="transparent" points="36.5,-449.3948 36.5,-468.3948 52.5,-468.3948 52.5,-449.3948 36.5,-449.3948"/>
<polygon fill="none" stroke="#000000" points="36.5,-449.3948 36.5,-468.3948 52.5,-468.3948 52.5,-449.3948 36.5,-449.3948"/>
<text text-anchor="start" x="43.3862" y="-455.4948" font-family="Helvetica,sans-Serif" font-size="11.00" fill="#000000"> &#160;</text>
<polygon fill="#ffffff" stroke="transparent" points="52.5,-449.3948 52.5,-468.3948 83.5,-468.3948 83.5,-449.3948 52.5,-449.3948"/>
<polygon fill="none" stroke="#000000" points="52.5,-449.3948 52.5,-468.3948 83.5,-468.3948 83.5,-449.3948 52.5,-449.3948"/>
<text text-anchor="start" x="58.7904" y="-455.4948" font-family="Helvetica,sans-Serif" font-size="11.00" fill="#000000">90 &gt;</text>
</a>
</g>
</g>
<!-- form_group_attendance&#45;&gt;users -->
<g id="edge5" class="edge">
<title>form_group_attendance:w&#45;&gt;users:e</title>
<path fill="none" stroke="#000000" d="M942.4362,-509.0456C875.1746,-472.5204 981.1562,-148.392 915,-88.3948 875.8227,-52.8649 729.2121,-79.9609 677,-88.3948 486.0837,-119.2339 451.1175,-176.5365 264,-225.3948 202.6869,-241.4043 168.5293,-207.3088 124,-252.3948 52.6007,-324.6868 185.1071,-477.3948 83.5,-477.3948"/>
<polygon fill="#000000" stroke="#000000" points="948.7176,-510.5414 955.666,-515.8969 952.6088,-511.4681 956.5,-512.3948 956.5,-512.3948 956.5,-512.3948 952.6088,-511.4681 957.334,-508.8928 948.7176,-510.5414 948.7176,-510.5414"/>
<ellipse fill="none" stroke="#000000" cx="945.6047" cy="-509.8001" rx="3.2" ry="3.2"/>
</g>
<!-- form_groups_encounter&#45;&gt;therapy_groups -->
<g id="edge6" class="edge">
<title>form_groups_encounter:w&#45;&gt;therapy_groups:e</title>
<path fill="none" stroke="#000000" d="M682.3807,-1215.6507C667.0297,-1208.8384 663.9732,-1190.8089 644,-1178.3948 623.4049,-1165.5942 473.249,-1080.3948 449,-1080.3948"/>
<polygon fill="#000000" stroke="#000000" points="689.1373,-1216.9189 696.3358,-1221.933 693.0687,-1217.6569 697,-1218.3948 697,-1218.3948 697,-1218.3948 693.0687,-1217.6569 697.6642,-1214.8566 689.1373,-1216.9189 689.1373,-1216.9189"/>
<ellipse fill="none" stroke="#000000" cx="685.9922" cy="-1216.3286" rx="3.2" ry="3.2"/>
</g>
<!-- form_groups_encounter&#45;&gt;forms -->
<g id="edge7" class="edge">
<title>form_groups_encounter:w&#45;&gt;forms:e</title>
<path fill="none" stroke="#000000" d="M687.8465,-1213.044C646.2149,-1158.8589 689.3042,-711.3948 636,-711.3948"/>
<polygon fill="#000000" stroke="#000000" points="698.328,-1214.5378 694.2907,-1221.4444 692.9094,-1220.6369 696.9467,-1213.7303 698.328,-1214.5378"/>
<polyline fill="none" stroke="#000000" points="697,-1218.3948 693.5467,-1216.3762 "/>
<ellipse fill="none" stroke="#000000" cx="690.7841" cy="-1214.7612" rx="3.2" ry="3.2"/>
</g>
<!-- form_groups_encounter&#45;&gt;users -->
<g id="edge8" class="edge">
<title>form_groups_encounter:w&#45;&gt;users:e</title>
<path fill="none" stroke="#000000" d="M682.4218,-1218.4939C512.1424,-1220.7935 432.1454,-1261.3127 297,-1149.3948 128.1307,-1009.5491 183.4135,-898.4486 124,-687.3948 111.1214,-641.6464 131.0266,-477.3948 83.5,-477.3948"/>
<polygon fill="#000000" stroke="#000000" points="689.0002,-1218.4492 697.0245,-1221.9947 693.0001,-1218.422 697,-1218.3948 697,-1218.3948 697,-1218.3948 693.0001,-1218.422 696.9755,-1214.7949 689.0002,-1218.4492 689.0002,-1218.4492"/>
<ellipse fill="none" stroke="#000000" cx="685.8003" cy="-1218.471" rx="3.2" ry="3.2"/>
</g>
<!-- form_groups_encounter&#45;&gt;users -->
<g id="edge9" class="edge">
<title>form_groups_encounter:w&#45;&gt;users:e</title>
<path fill="none" stroke="#000000" d="M682.397,-1218.487C511.8314,-1220.6241 431.8331,-1258.1604 297,-1145.3948 128.8105,-1004.7322 183.7941,-894.3411 124,-683.3948 111.2769,-638.5091 130.1541,-477.3948 83.5,-477.3948"/>
<polygon fill="#000000" stroke="#000000" points="689.0002,-1218.4454 697.0227,-1221.9947 693.0001,-1218.4201 697,-1218.3948 697,-1218.3948 697,-1218.3948 693.0001,-1218.4201 696.9773,-1214.7949 689.0002,-1218.4454 689.0002,-1218.4454"/>
<ellipse fill="none" stroke="#000000" cx="685.8002" cy="-1218.4656" rx="3.2" ry="3.2"/>
</g>
<!-- groups&#45;&gt;users -->
<g id="edge20" class="edge">
<title>groups:w&#45;&gt;users:e</title>
<path fill="none" stroke="#000000" d="M136.6514,-292.4949C75.5208,-313.0393 166.3373,-477.3948 83.5,-477.3948"/>
<polygon fill="#000000" stroke="#000000" points="143.0843,-291.5534 151.5214,-293.9569 147.0422,-290.9741 151,-290.3948 151,-290.3948 151,-290.3948 147.0422,-290.9741 150.4786,-286.8328 143.0843,-291.5534 143.0843,-291.5534"/>
<ellipse fill="none" stroke="#000000" cx="139.9181" cy="-292.0169" rx="3.2" ry="3.2"/>
</g>
<!-- forms&#45;&gt;therapy_groups -->
<g id="edge18" class="edge">
<title>forms:w&#45;&gt;therapy_groups:e</title>
<path fill="none" stroke="#000000" d="M483.9135,-627.0734C411.5232,-670.3232 545.7515,-1080.3948 449,-1080.3948"/>
<polygon fill="#000000" stroke="#000000" points="490.2596,-625.4162 498.9096,-626.878 494.1298,-624.4055 498,-623.3948 498,-623.3948 498,-623.3948 494.1298,-624.4055 497.0904,-619.9116 490.2596,-625.4162 490.2596,-625.4162"/>
<ellipse fill="none" stroke="#000000" cx="487.1634" cy="-626.2248" rx="3.2" ry="3.2"/>
</g>
<!-- forms&#45;&gt;groups -->
<g id="edge14" class="edge">
<title>forms:w&#45;&gt;groups:e</title>
<path fill="none" stroke="#000000" d="M484.4867,-639.5185C453.9738,-607.3981 484.0663,-453.1334 457,-415.3948 409.701,-349.4458 367.1165,-368.2622 297,-327.3948 269.9326,-311.6186 268.3294,-290.3948 237,-290.3948"/>
<polygon fill="#000000" stroke="#000000" points="490.6636,-642.2045 496.5644,-648.6962 494.3318,-643.7997 498,-645.3948 498,-645.3948 498,-645.3948 494.3318,-643.7997 499.4356,-642.0934 490.6636,-642.2045 490.6636,-642.2045"/>
<ellipse fill="none" stroke="#000000" cx="487.7291" cy="-640.9284" rx="3.2" ry="3.2"/>
</g>
<!-- forms&#45;&gt;users -->
<g id="edge17" class="edge">
<title>forms:w&#45;&gt;users:e</title>
<path fill="none" stroke="#000000" d="M483.7341,-577.0644C445.7412,-561.7261 504.2278,-474.7752 457,-439.3948 390.2298,-389.3743 166.9285,-477.3948 83.5,-477.3948"/>
<polygon fill="#000000" stroke="#000000" points="490.1046,-578.105 497.4196,-582.9477 494.0523,-578.7499 498,-579.3948 498,-579.3948 498,-579.3948 494.0523,-578.7499 498.5804,-575.8419 490.1046,-578.105 490.1046,-578.105"/>
<ellipse fill="none" stroke="#000000" cx="486.9465" cy="-577.5891" rx="3.2" ry="3.2"/>
</g>
<!-- forms&#45;&gt;users -->
<g id="edge19" class="edge">
<title>forms:w&#45;&gt;users:e</title>
<path fill="none" stroke="#000000" d="M483.6022,-664.7089C404.5943,-641.6154 130.6012,-477.3948 83.5,-477.3948"/>
<polygon fill="#000000" stroke="#000000" points="490.1357,-665.9277 497.3398,-670.9338 494.0678,-666.6613 498,-667.3948 498,-667.3948 498,-667.3948 494.0678,-666.6613 498.6602,-663.8559 490.1357,-665.9277 490.1357,-665.9277"/>
<ellipse fill="none" stroke="#000000" cx="486.9899" cy="-665.3408" rx="3.2" ry="3.2"/>
</g>
<!-- patient_data -->
<g id="node8" class="node">
<title>patient_data</title>
<g id="a_node8"><a xlink:href="../../tables/patient_data.html" xlink:title="patient_data" target="_top">
<polygon fill="#ffffff" stroke="transparent" points="132,-615.8948 132,-676.8948 256,-676.8948 256,-615.8948 132,-615.8948"/>
<polygon fill="#f5f5f5" stroke="transparent" points="132,-653.3948 132,-676.3948 256,-676.3948 256,-653.3948 132,-653.3948"/>
<polygon fill="none" stroke="#000000" points="132,-653.3948 132,-676.3948 256,-676.3948 256,-653.3948 132,-653.3948"/>
<text text-anchor="start" x="137" y="-661.9948" font-family="Helvetica,sans-Serif" font-weight="bold" font-size="11.00" fill="#000000">patient_data</text>
<text text-anchor="start" x="221.5219" y="-661.4948" font-family="Helvetica,sans-Serif" font-size="11.00" fill="#000000">[table]</text>
<polygon fill="none" stroke="#000000" points="132,-634.3948 132,-653.3948 256,-653.3948 256,-634.3948 132,-634.3948"/>
<text text-anchor="start" x="135" y="-640.4948" font-family="Helvetica,sans-Serif" font-size="11.00" fill="#000000">...</text>
<polygon fill="#ffffff" stroke="transparent" points="132,-615.3948 132,-634.3948 185,-634.3948 185,-615.3948 132,-615.3948"/>
<polygon fill="none" stroke="#000000" points="132,-615.3948 132,-634.3948 185,-634.3948 185,-615.3948 132,-615.3948"/>
<text text-anchor="start" x="135" y="-621.4948" font-family="Helvetica,sans-Serif" font-size="11.00" fill="#000000">&lt; 9</text>
<polygon fill="#ffffff" stroke="transparent" points="185,-615.3948 185,-634.3948 213,-634.3948 213,-615.3948 185,-615.3948"/>
<polygon fill="none" stroke="#000000" points="185,-615.3948 185,-634.3948 213,-634.3948 213,-615.3948 185,-615.3948"/>
<text text-anchor="start" x="203.8862" y="-621.4948" font-family="Helvetica,sans-Serif" font-size="11.00" fill="#000000"> &#160;</text>
<polygon fill="#ffffff" stroke="transparent" points="213,-615.3948 213,-634.3948 256,-634.3948 256,-615.3948 213,-615.3948"/>
<polygon fill="none" stroke="#000000" points="213,-615.3948 213,-634.3948 256,-634.3948 256,-615.3948 213,-615.3948"/>
<text text-anchor="start" x="231.2904" y="-621.4948" font-family="Helvetica,sans-Serif" font-size="11.00" fill="#000000">95 &gt;</text>
</a>
</g>
</g>
<!-- forms&#45;&gt;patient_data -->
<g id="edge16" class="edge">
<title>forms:w&#45;&gt;patient_data:e</title>
<path fill="none" stroke="#000000" d="M483.3673,-689.6197C405.1361,-692.0325 375.0409,-712.4241 297,-680.3948 274.2928,-671.0754 280.5452,-643.3948 256,-643.3948"/>
<polygon fill="#000000" stroke="#000000" points="490.0009,-689.5178 498.0554,-692.9944 494.0005,-689.4563 498,-689.3948 498,-689.3948 498,-689.3948 494.0005,-689.4563 497.9446,-685.7952 490.0009,-689.5178 490.0009,-689.5178"/>
<ellipse fill="none" stroke="#000000" cx="486.8013" cy="-689.567" rx="3.2" ry="3.2"/>
</g>
<!-- lists -->
<g id="node9" class="node">
<title>lists</title>
<g id="a_node9"><a xlink:href="../../tables/lists.html" xlink:title="lists" target="_top">
<polygon fill="#ffffff" stroke="transparent" points="343.5,-449.8948 343.5,-510.8948 410.5,-510.8948 410.5,-449.8948 343.5,-449.8948"/>
<polygon fill="#f5f5f5" stroke="transparent" points="344,-487.3948 344,-510.3948 411,-510.3948 411,-487.3948 344,-487.3948"/>
<polygon fill="none" stroke="#000000" points="344,-487.3948 344,-510.3948 411,-510.3948 411,-487.3948 344,-487.3948"/>
<text text-anchor="start" x="349" y="-495.9948" font-family="Helvetica,sans-Serif" font-weight="bold" font-size="11.00" fill="#000000">lists</text>
<text text-anchor="start" x="376.5219" y="-495.4948" font-family="Helvetica,sans-Serif" font-size="11.00" fill="#000000">[table]</text>
<polygon fill="none" stroke="#000000" points="344,-468.3948 344,-487.3948 411,-487.3948 411,-468.3948 344,-468.3948"/>
<text text-anchor="start" x="347" y="-474.4948" font-family="Helvetica,sans-Serif" font-size="11.00" fill="#000000">...</text>
<polygon fill="#ffffff" stroke="transparent" points="344,-449.3948 344,-468.3948 374,-468.3948 374,-449.3948 344,-449.3948"/>
<polygon fill="none" stroke="#000000" points="344,-449.3948 344,-468.3948 374,-468.3948 374,-449.3948 344,-449.3948"/>
<text text-anchor="start" x="347" y="-455.4948" font-family="Helvetica,sans-Serif" font-size="11.00" fill="#000000">&lt; 11</text>
<polygon fill="#ffffff" stroke="transparent" points="374,-449.3948 374,-468.3948 388,-468.3948 388,-449.3948 374,-449.3948"/>
<polygon fill="none" stroke="#000000" points="374,-449.3948 374,-468.3948 388,-468.3948 388,-449.3948 374,-449.3948"/>
<text text-anchor="start" x="378.8862" y="-455.4948" font-family="Helvetica,sans-Serif" font-size="11.00" fill="#000000"> &#160;</text>
<polygon fill="#ffffff" stroke="transparent" points="388,-449.3948 388,-468.3948 411,-468.3948 411,-449.3948 388,-449.3948"/>
<polygon fill="none" stroke="#000000" points="388,-449.3948 388,-468.3948 411,-468.3948 411,-449.3948 388,-449.3948"/>
<text text-anchor="start" x="392.4053" y="-455.4948" font-family="Helvetica,sans-Serif" font-size="11.00" fill="#000000">5 &gt;</text>
</a>
</g>
</g>
<!-- forms&#45;&gt;lists -->
<g id="edge15" class="edge">
<title>forms:w&#45;&gt;lists:e</title>
<path fill="none" stroke="#000000" d="M483.6263,-599.0285C437.7205,-581.8855 472.8001,-477.3948 411,-477.3948"/>
<polygon fill="#000000" stroke="#000000" points="490.1063,-600.0952 497.4152,-604.947 494.0531,-600.745 498,-601.3948 498,-601.3948 498,-601.3948 494.0531,-600.745 498.5848,-597.8426 490.1063,-600.0952 490.1063,-600.0952"/>
<ellipse fill="none" stroke="#000000" cx="486.9488" cy="-599.5754" rx="3.2" ry="3.2"/>
</g>
<!-- form_observation -->
<g id="node7" class="node">
<title>form_observation</title>
<g id="a_node7"><a xlink:href="../../tables/form_observation.html" xlink:title="form_observation" target="_top">
<polygon fill="#ffffff" stroke="transparent" points="717.5,-916.8948 717.5,-977.8948 874.5,-977.8948 874.5,-916.8948 717.5,-916.8948"/>
<polygon fill="#f5f5f5" stroke="transparent" points="718,-954.3948 718,-977.3948 875,-977.3948 875,-954.3948 718,-954.3948"/>
<polygon fill="none" stroke="#000000" points="718,-954.3948 718,-977.3948 875,-977.3948 875,-954.3948 718,-954.3948"/>
<text text-anchor="start" x="723" y="-962.9948" font-family="Helvetica,sans-Serif" font-weight="bold" font-size="11.00" fill="#000000">form_observation</text>
<text text-anchor="start" x="840.5219" y="-962.4948" font-family="Helvetica,sans-Serif" font-size="11.00" fill="#000000">[table]</text>
<polygon fill="none" stroke="#000000" points="718,-935.3948 718,-954.3948 875,-954.3948 875,-935.3948 718,-935.3948"/>
<text text-anchor="start" x="721" y="-941.4948" font-family="Helvetica,sans-Serif" font-size="11.00" fill="#000000">...</text>
<polygon fill="#ffffff" stroke="transparent" points="718,-916.3948 718,-935.3948 795,-935.3948 795,-916.3948 718,-916.3948"/>
<polygon fill="none" stroke="#000000" points="718,-916.3948 718,-935.3948 795,-935.3948 795,-916.3948 718,-916.3948"/>
<text text-anchor="start" x="721" y="-922.4948" font-family="Helvetica,sans-Serif" font-size="11.00" fill="#000000">&lt; 8</text>
<polygon fill="#ffffff" stroke="transparent" points="795,-916.3948 795,-935.3948 835,-935.3948 835,-916.3948 795,-916.3948"/>
<polygon fill="none" stroke="#000000" points="795,-916.3948 795,-935.3948 835,-935.3948 835,-916.3948 795,-916.3948"/>
<text text-anchor="start" x="825.8862" y="-922.4948" font-family="Helvetica,sans-Serif" font-size="11.00" fill="#000000"> &#160;</text>
<polygon fill="#ffffff" stroke="transparent" points="835,-916.3948 835,-935.3948 875,-935.3948 875,-916.3948 835,-916.3948"/>
<polygon fill="none" stroke="#000000" points="835,-916.3948 835,-935.3948 875,-935.3948 875,-916.3948 835,-916.3948"/>
<text text-anchor="start" x="865.8862" y="-922.4948" font-family="Helvetica,sans-Serif" font-size="11.00" fill="#000000"> &#160;</text>
</a>
</g>
</g>
<!-- form_observation&#45;&gt;forms -->
<g id="edge10" class="edge">
<title>form_observation:w&#45;&gt;forms:e</title>
<path fill="none" stroke="#000000" d="M703.6037,-941.8388C690.8637,-936.4285 686.374,-922.9468 677,-906.3948 633.3575,-829.3332 724.5616,-711.3948 636,-711.3948"/>
<polygon fill="#000000" stroke="#000000" points="710.1232,-942.9963 717.3706,-947.9394 714.0616,-943.6955 718,-944.3948 718,-944.3948 718,-944.3948 714.0616,-943.6955 718.6294,-940.8503 710.1232,-942.9963 710.1232,-942.9963"/>
<ellipse fill="none" stroke="#000000" cx="706.9725" cy="-942.4368" rx="3.2" ry="3.2"/>
</g>
<!-- form_observation&#45;&gt;patient_data -->
<g id="edge11" class="edge">
<title>form_observation:w&#45;&gt;patient_data:e</title>
<path fill="none" stroke="#000000" d="M703.3652,-944.3848C514.9831,-944.0962 428.574,-936.5311 297,-794.3948 249.7598,-743.3623 325.541,-643.3948 256,-643.3948"/>
<polygon fill="#000000" stroke="#000000" points="710,-944.3893 717.9975,-947.9948 714,-944.3921 718,-944.3948 718,-944.3948 718,-944.3948 714,-944.3921 718.0025,-940.7948 710,-944.3893 710,-944.3893"/>
<ellipse fill="none" stroke="#000000" cx="706.8" cy="-944.3871" rx="3.2" ry="3.2"/>
</g>
<!-- form_observation&#45;&gt;patient_data -->
<g id="edge12" class="edge">
<title>form_observation:w&#45;&gt;patient_data:e</title>
<path fill="none" stroke="#000000" d="M703.6067,-943.9504C514.5092,-937.9369 428.9303,-927.1359 297,-784.3948 250.9625,-734.5848 323.8269,-637.3948 256,-643.3948"/>
<polygon fill="#000000" stroke="#000000" points="710.0038,-944.1478 717.8889,-947.9931 714.0019,-944.2713 718,-944.3948 718,-944.3948 718,-944.3948 714.0019,-944.2713 718.1111,-940.7965 710.0038,-944.1478 710.0038,-944.1478"/>
<ellipse fill="none" stroke="#000000" cx="706.8053" cy="-944.0491" rx="3.2" ry="3.2"/>
</g>
<!-- form_observation&#45;&gt;patient_data -->
<g id="edge13" class="edge">
<title>form_observation:w&#45;&gt;patient_data:e</title>
<path fill="none" stroke="#000000" d="M703.6067,-944.8794C514.5092,-950.9369 428.9303,-940.1359 297,-797.3948 250.9625,-747.5848 323.8269,-650.3948 256,-643.3948"/>
<polygon fill="#000000" stroke="#000000" points="710.0045,-944.6641 718.1212,-947.9928 714.0023,-944.5295 718,-944.3948 718,-944.3948 718,-944.3948 714.0023,-944.5295 717.8788,-940.7969 710.0045,-944.6641 710.0045,-944.6641"/>
<ellipse fill="none" stroke="#000000" cx="706.8063" cy="-944.7718" rx="3.2" ry="3.2"/>
</g>
<!-- patient_data&#45;&gt;users -->
<g id="edge54" class="edge">
<title>patient_data:w&#45;&gt;users:e</title>
<path fill="none" stroke="#000000" d="M118.9899,-636.4602C68.3099,-596.1946 155.2581,-453.1214 83.5,-477.3948"/>
<polygon fill="#000000" stroke="#000000" points="124.9402,-639.6318 130.3067,-646.5717 128.4701,-641.5133 132,-643.3948 132,-643.3948 132,-643.3948 128.4701,-641.5133 133.6933,-640.2179 124.9402,-639.6318 124.9402,-639.6318"/>
<ellipse fill="none" stroke="#000000" cx="122.1163" cy="-638.1267" rx="3.2" ry="3.2"/>
</g>
<!-- patient_data&#45;&gt;users -->
<g id="edge55" class="edge">
<title>patient_data:w&#45;&gt;users:e</title>
<path fill="none" stroke="#000000" d="M118.3609,-638.4988C69.0348,-607.936 154.9579,-465.3089 83.5,-477.3948"/>
<polygon fill="#000000" stroke="#000000" points="124.4704,-640.6919 130.7837,-646.7831 128.2352,-642.0434 132,-643.3948 132,-643.3948 132,-643.3948 128.2352,-642.0434 133.2163,-640.0065 124.4704,-640.6919 124.4704,-640.6919"/>
<ellipse fill="none" stroke="#000000" cx="121.4586" cy="-639.6107" rx="3.2" ry="3.2"/>
</g>
<!-- patient_data&#45;&gt;users -->
<g id="edge56" class="edge">
<title>patient_data:w&#45;&gt;users:e</title>
<path fill="none" stroke="#000000" d="M117.7463,-640.7874C69.754,-619.6686 154.6576,-477.3948 83.5,-477.3948"/>
<polygon fill="#000000" stroke="#000000" points="124.1306,-641.9552 131.3522,-646.9361 128.0653,-642.675 132,-643.3948 132,-643.3948 132,-643.3948 128.0653,-642.675 132.6478,-639.8536 124.1306,-641.9552 124.1306,-641.9552"/>
<ellipse fill="none" stroke="#000000" cx="120.9828" cy="-641.3794" rx="3.2" ry="3.2"/>
</g>
<!-- patient_data&#45;&gt;users -->
<g id="edge57" class="edge">
<title>patient_data:w&#45;&gt;users:e</title>
<path fill="none" stroke="#000000" d="M117.4443,-643.3965C70.1116,-631.9935 154.5075,-489.4046 83.5,-477.3948"/>
<polygon fill="#000000" stroke="#000000" points="124,-643.3958 132.0004,-646.9948 128,-643.3953 132,-643.3948 132,-643.3948 132,-643.3948 128,-643.3953 131.9996,-639.7948 124,-643.3958 124,-643.3958"/>
<ellipse fill="none" stroke="#000000" cx="120.8" cy="-643.3962" rx="3.2" ry="3.2"/>
</g>
<!-- patient_data&#45;&gt;users -->
<g id="edge58" class="edge">
<title>patient_data:w&#45;&gt;users:e</title>
<path fill="none" stroke="#000000" d="M117.7463,-646.1468C69.754,-645.5254 154.6576,-501.4651 83.5,-477.3948"/>
<polygon fill="#000000" stroke="#000000" points="124.1451,-644.9114 132.6825,-646.9295 128.0725,-644.1531 132,-643.3948 132,-643.3948 132,-643.3948 128.0725,-644.1531 131.3175,-639.8601 124.1451,-644.9114 124.1451,-644.9114"/>
<ellipse fill="none" stroke="#000000" cx="121.0031" cy="-645.518" rx="3.2" ry="3.2"/>
</g>
<!-- lists&#45;&gt;groups -->
<g id="edge21" class="edge">
<title>lists:w&#45;&gt;groups:e</title>
<path fill="none" stroke="#000000" d="M329.3986,-475.663C257.2402,-456.8112 327.3312,-290.3948 237,-290.3948"/>
<polygon fill="#000000" stroke="#000000" points="336.0557,-476.4525 343.576,-480.9698 340.0278,-476.9237 344,-477.3948 344,-477.3948 344,-477.3948 340.0278,-476.9237 344.424,-473.8199 336.0557,-476.4525 336.0557,-476.4525"/>
<ellipse fill="none" stroke="#000000" cx="332.878" cy="-476.0756" rx="3.2" ry="3.2"/>
</g>
<!-- lists&#45;&gt;users -->
<g id="edge23" class="edge">
<title>lists:w&#45;&gt;users:e</title>
<path fill="none" stroke="#000000" d="M329.5427,-477.3948C225.5745,-477.3948 194.303,-477.3948 83.5,-477.3948"/>
<polygon fill="#000000" stroke="#000000" points="336,-477.3949 344,-480.9948 340,-477.3948 344,-477.3948 344,-477.3948 344,-477.3948 340,-477.3948 344,-473.7948 336,-477.3949 336,-477.3949"/>
<ellipse fill="none" stroke="#000000" cx="332.8" cy="-477.3949" rx="3.2" ry="3.2"/>
</g>
<!-- lists&#45;&gt;patient_data -->
<g id="edge22" class="edge">
<title>lists:w&#45;&gt;patient_data:e</title>
<path fill="none" stroke="#000000" d="M329.4416,-479.8354C313.0428,-486.3356 309.6529,-504.9707 297,-525.3948 267.7611,-572.5918 311.52,-643.3948 256,-643.3948"/>
<polygon fill="#000000" stroke="#000000" points="336.1101,-478.7175 344.5952,-480.9453 340.055,-478.0562 344,-477.3948 344,-477.3948 344,-477.3948 340.055,-478.0562 343.4048,-473.8444 336.1101,-478.7175 336.1101,-478.7175"/>
<ellipse fill="none" stroke="#000000" cx="332.9541" cy="-479.2466" rx="3.2" ry="3.2"/>
</g>
<!-- form_clinic_note -->
<g id="node10" class="node">
<title>form_clinic_note</title>
<g id="a_node10"><a xlink:href="../../tables/form_clinic_note.html" xlink:title="form_clinic_note" target="_top">
<polygon fill="#ffffff" stroke="transparent" points="722,-536.8948 722,-597.8948 870,-597.8948 870,-536.8948 722,-536.8948"/>
<polygon fill="#f5f5f5" stroke="transparent" points="722,-574.3948 722,-597.3948 870,-597.3948 870,-574.3948 722,-574.3948"/>
<polygon fill="none" stroke="#000000" points="722,-574.3948 722,-597.3948 870,-597.3948 870,-574.3948 722,-574.3948"/>
<text text-anchor="start" x="727" y="-582.9948" font-family="Helvetica,sans-Serif" font-weight="bold" font-size="11.00" fill="#000000">form_clinic_note</text>
<text text-anchor="start" x="835.5219" y="-582.4948" font-family="Helvetica,sans-Serif" font-size="11.00" fill="#000000">[table]</text>
<polygon fill="none" stroke="#000000" points="722,-555.3948 722,-574.3948 870,-574.3948 870,-555.3948 722,-555.3948"/>
<text text-anchor="start" x="725" y="-561.4948" font-family="Helvetica,sans-Serif" font-size="11.00" fill="#000000">...</text>
<polygon fill="#ffffff" stroke="transparent" points="722,-536.3948 722,-555.3948 794,-555.3948 794,-536.3948 722,-536.3948"/>
<polygon fill="none" stroke="#000000" points="722,-536.3948 722,-555.3948 794,-555.3948 794,-536.3948 722,-536.3948"/>
<text text-anchor="start" x="725" y="-542.4948" font-family="Helvetica,sans-Serif" font-size="11.00" fill="#000000">&lt; 1</text>
<polygon fill="#ffffff" stroke="transparent" points="794,-536.3948 794,-555.3948 832,-555.3948 832,-536.3948 794,-536.3948"/>
<polygon fill="none" stroke="#000000" points="794,-536.3948 794,-555.3948 832,-555.3948 832,-536.3948 794,-536.3948"/>
<text text-anchor="start" x="822.8862" y="-542.4948" font-family="Helvetica,sans-Serif" font-size="11.00" fill="#000000"> &#160;</text>
<polygon fill="#ffffff" stroke="transparent" points="832,-536.3948 832,-555.3948 870,-555.3948 870,-536.3948 832,-536.3948"/>
<polygon fill="none" stroke="#000000" points="832,-536.3948 832,-555.3948 870,-555.3948 870,-536.3948 832,-536.3948"/>
<text text-anchor="start" x="860.8862" y="-542.4948" font-family="Helvetica,sans-Serif" font-size="11.00" fill="#000000"> &#160;</text>
</a>
</g>
</g>
<!-- form_clinic_note&#45;&gt;forms -->
<g id="edge24" class="edge">
<title>form_clinic_note:w&#45;&gt;forms:e</title>
<path fill="none" stroke="#000000" d="M707.4506,-566.9904C692.7651,-573.2506 689.2381,-590.0269 677,-608.3948 649.6803,-649.3983 685.2712,-711.3948 636,-711.3948"/>
<polygon fill="#000000" stroke="#000000" points="714.1243,-565.7998 722.6323,-567.9389 718.0622,-565.0973 722,-564.3948 722,-564.3948 722,-564.3948 718.0622,-565.0973 721.3677,-560.8508 714.1243,-565.7998 714.1243,-565.7998"/>
<ellipse fill="none" stroke="#000000" cx="710.9741" cy="-566.3619" rx="3.2" ry="3.2"/>
</g>
<!-- form_gad7 -->
<g id="node11" class="node">
<title>form_gad7</title>
<g id="a_node11"><a xlink:href="../../tables/form_gad7.html" xlink:title="form_gad7" target="_top">
<polygon fill="#ffffff" stroke="transparent" points="741,-426.8948 741,-487.8948 851,-487.8948 851,-426.8948 741,-426.8948"/>
<polygon fill="#f5f5f5" stroke="transparent" points="741,-464.3948 741,-487.3948 851,-487.3948 851,-464.3948 741,-464.3948"/>
<polygon fill="none" stroke="#000000" points="741,-464.3948 741,-487.3948 851,-487.3948 851,-464.3948 741,-464.3948"/>
<text text-anchor="start" x="746" y="-472.9948" font-family="Helvetica,sans-Serif" font-weight="bold" font-size="11.00" fill="#000000">form_gad7</text>
<text text-anchor="start" x="816.5219" y="-472.4948" font-family="Helvetica,sans-Serif" font-size="11.00" fill="#000000">[table]</text>
<polygon fill="none" stroke="#000000" points="741,-445.3948 741,-464.3948 851,-464.3948 851,-445.3948 741,-445.3948"/>
<text text-anchor="start" x="744" y="-451.4948" font-family="Helvetica,sans-Serif" font-size="11.00" fill="#000000">...</text>
<polygon fill="#ffffff" stroke="transparent" points="741,-426.3948 741,-445.3948 794,-445.3948 794,-426.3948 741,-426.3948"/>
<polygon fill="none" stroke="#000000" points="741,-426.3948 741,-445.3948 794,-445.3948 794,-426.3948 741,-426.3948"/>
<text text-anchor="start" x="744" y="-432.4948" font-family="Helvetica,sans-Serif" font-size="11.00" fill="#000000">&lt; 4</text>
<polygon fill="#ffffff" stroke="transparent" points="794,-426.3948 794,-445.3948 822,-445.3948 822,-426.3948 794,-426.3948"/>
<polygon fill="none" stroke="#000000" points="794,-426.3948 794,-445.3948 822,-445.3948 822,-426.3948 794,-426.3948"/>
<text text-anchor="start" x="812.8862" y="-432.4948" font-family="Helvetica,sans-Serif" font-size="11.00" fill="#000000"> &#160;</text>
<polygon fill="#ffffff" stroke="transparent" points="822,-426.3948 822,-445.3948 851,-445.3948 851,-426.3948 822,-426.3948"/>
<polygon fill="none" stroke="#000000" points="822,-426.3948 822,-445.3948 851,-445.3948 851,-426.3948 822,-426.3948"/>
<text text-anchor="start" x="841.8862" y="-432.4948" font-family="Helvetica,sans-Serif" font-size="11.00" fill="#000000"> &#160;</text>
</a>
</g>
</g>
<!-- form_gad7&#45;&gt;groups -->
<g id="edge25" class="edge">
<title>form_gad7:w&#45;&gt;groups:e</title>
<path fill="none" stroke="#000000" d="M726.5866,-454.1411C617.9505,-450.211 593.4192,-401.2183 490,-348.3948 474.7269,-340.5938 473.164,-334.1263 457,-328.3948 389.347,-304.4061 367.3689,-320.5584 297,-306.3948 269.9441,-300.9491 264.5985,-290.3948 237,-290.3948"/>
<polygon fill="#000000" stroke="#000000" points="733.0012,-454.2539 740.9366,-457.9943 737.0006,-454.3244 741,-454.3948 741,-454.3948 741,-454.3948 737.0006,-454.3244 741.0634,-450.7954 733.0012,-454.2539 733.0012,-454.2539"/>
<ellipse fill="none" stroke="#000000" cx="729.8017" cy="-454.1976" rx="3.2" ry="3.2"/>
</g>
<!-- form_gad7&#45;&gt;forms -->
<g id="edge26" class="edge">
<title>form_gad7:w&#45;&gt;forms:e</title>
<path fill="none" stroke="#000000" d="M726.4361,-455.6201C702.3197,-460.128 693.0222,-476.8676 677,-502.3948 651.8389,-542.4825 683.3297,-711.3948 636,-711.3948"/>
<polygon fill="#000000" stroke="#000000" points="733.0282,-455.0655 741.3018,-457.9821 737.0141,-454.7302 741,-454.3948 741,-454.3948 741,-454.3948 737.0141,-454.7302 740.6982,-450.8075 733.0282,-455.0655 733.0282,-455.0655"/>
<ellipse fill="none" stroke="#000000" cx="729.8394" cy="-455.3338" rx="3.2" ry="3.2"/>
</g>
<!-- form_gad7&#45;&gt;users -->
<g id="edge28" class="edge">
<title>form_gad7:w&#45;&gt;users:e</title>
<path fill="none" stroke="#000000" d="M726.5413,-454.28C611.4317,-452.4185 578.9036,-428.4535 457,-421.3948 386.0078,-417.2841 368.0156,-417.7103 297,-421.3948 219.7999,-425.4002 194.3111,-407.2662 124,-439.3948 101.5501,-449.6533 108.1827,-477.3948 83.5,-477.3948"/>
<polygon fill="#000000" stroke="#000000" points="733.0003,-454.3312 740.9714,-457.9947 737.0001,-454.363 741,-454.3948 741,-454.3948 741,-454.3948 737.0001,-454.363 741.0286,-450.7949 733.0003,-454.3312 733.0003,-454.3312"/>
<ellipse fill="none" stroke="#000000" cx="729.8004" cy="-454.3058" rx="3.2" ry="3.2"/>
</g>
<!-- form_gad7&#45;&gt;patient_data -->
<g id="edge27" class="edge">
<title>form_gad7:w&#45;&gt;patient_data:e</title>
<path fill="none" stroke="#000000" d="M726.3638,-455.2755C693.0116,-459.5654 682.9682,-478.5066 644,-489.3948 576.7581,-508.1831 540.4561,-472.1387 490,-520.3948 445.9859,-562.4899 504.9713,-615.8716 457,-653.3948 400.9886,-697.207 367.603,-661.8806 297,-653.3948 278.3776,-651.1566 274.7564,-643.3948 256,-643.3948"/>
<polygon fill="#000000" stroke="#000000" points="733.0144,-454.8754 741.2163,-457.9883 737.0072,-454.6351 741,-454.3948 741,-454.3948 741,-454.3948 737.0072,-454.6351 740.7837,-450.8013 733.0144,-454.8754 733.0144,-454.8754"/>
<ellipse fill="none" stroke="#000000" cx="729.8202" cy="-455.0676" rx="3.2" ry="3.2"/>
</g>
<!-- form_note -->
<g id="node12" class="node">
<title>form_note</title>
<g id="a_node12"><a xlink:href="../../tables/form_note.html" xlink:title="form_note" target="_top">
<polygon fill="#ffffff" stroke="transparent" points="742.5,-700.8948 742.5,-761.8948 849.5,-761.8948 849.5,-700.8948 742.5,-700.8948"/>
<polygon fill="#f5f5f5" stroke="transparent" points="743,-738.3948 743,-761.3948 850,-761.3948 850,-738.3948 743,-738.3948"/>
<polygon fill="none" stroke="#000000" points="743,-738.3948 743,-761.3948 850,-761.3948 850,-738.3948 743,-738.3948"/>
<text text-anchor="start" x="748" y="-746.9948" font-family="Helvetica,sans-Serif" font-weight="bold" font-size="11.00" fill="#000000">form_note</text>
<text text-anchor="start" x="815.5219" y="-746.4948" font-family="Helvetica,sans-Serif" font-size="11.00" fill="#000000">[table]</text>
<polygon fill="none" stroke="#000000" points="743,-719.3948 743,-738.3948 850,-738.3948 850,-719.3948 743,-719.3948"/>
<text text-anchor="start" x="746" y="-725.4948" font-family="Helvetica,sans-Serif" font-size="11.00" fill="#000000">...</text>
<polygon fill="#ffffff" stroke="transparent" points="743,-700.3948 743,-719.3948 795,-719.3948 795,-700.3948 743,-700.3948"/>
<polygon fill="none" stroke="#000000" points="743,-700.3948 743,-719.3948 795,-719.3948 795,-700.3948 743,-700.3948"/>
<text text-anchor="start" x="746" y="-706.4948" font-family="Helvetica,sans-Serif" font-size="11.00" fill="#000000">&lt; 2</text>
<polygon fill="#ffffff" stroke="transparent" points="795,-700.3948 795,-719.3948 822,-719.3948 822,-700.3948 795,-700.3948"/>
<polygon fill="none" stroke="#000000" points="795,-700.3948 795,-719.3948 822,-719.3948 822,-700.3948 795,-700.3948"/>
<text text-anchor="start" x="812.8862" y="-706.4948" font-family="Helvetica,sans-Serif" font-size="11.00" fill="#000000"> &#160;</text>
<polygon fill="#ffffff" stroke="transparent" points="822,-700.3948 822,-719.3948 850,-719.3948 850,-700.3948 822,-700.3948"/>
<polygon fill="none" stroke="#000000" points="822,-700.3948 822,-719.3948 850,-719.3948 850,-700.3948 822,-700.3948"/>
<text text-anchor="start" x="840.8862" y="-706.4948" font-family="Helvetica,sans-Serif" font-size="11.00" fill="#000000"> &#160;</text>
</a>
</g>
</g>
<!-- form_note&#45;&gt;forms -->
<g id="edge29" class="edge">
<title>form_note:w&#45;&gt;forms:e</title>
<path fill="none" stroke="#000000" d="M728.4463,-727.8292C692.0602,-724.8794 678.8854,-711.3948 636,-711.3948"/>
<polygon fill="#000000" stroke="#000000" points="735.006,-728.0841 742.8602,-731.9921 739.003,-728.2395 743,-728.3948 743,-728.3948 743,-728.3948 739.003,-728.2395 743.1398,-724.7975 735.006,-728.0841 735.006,-728.0841"/>
<ellipse fill="none" stroke="#000000" cx="731.8084" cy="-727.9598" rx="3.2" ry="3.2"/>
</g>
<!-- form_note&#45;&gt;patient_data -->
<g id="edge30" class="edge">
<title>form_note:w&#45;&gt;patient_data:e</title>
<path fill="none" stroke="#000000" d="M728.3763,-729.799C705.3435,-734.7522 698.2226,-752.2541 677,-773.3948 658.6586,-791.6654 666.912,-809.3424 644,-821.3948 583.4251,-853.259 557.4915,-832.7765 490,-821.3948 400.4648,-806.2957 361.8339,-817.9645 297,-754.3948 259.4481,-717.5752 308.5911,-643.3948 256,-643.3948"/>
<polygon fill="#000000" stroke="#000000" points="735.0366,-729.1595 743.3441,-731.9783 739.0183,-728.7772 743,-728.3948 743,-728.3948 743,-728.3948 739.0183,-728.7772 742.6559,-724.8113 735.0366,-729.1595 735.0366,-729.1595"/>
<ellipse fill="none" stroke="#000000" cx="731.8513" cy="-729.4654" rx="3.2" ry="3.2"/>
</g>
<!-- form_painmap -->
<g id="node13" class="node">
<title>form_painmap</title>
<g id="a_node13"><a xlink:href="../../tables/form_painmap.html" xlink:title="form_painmap" target="_top">
<polygon fill="#ffffff" stroke="transparent" points="728.5,-344.8948 728.5,-405.8948 863.5,-405.8948 863.5,-344.8948 728.5,-344.8948"/>
<polygon fill="#f5f5f5" stroke="transparent" points="729,-382.3948 729,-405.3948 864,-405.3948 864,-382.3948 729,-382.3948"/>
<polygon fill="none" stroke="#000000" points="729,-382.3948 729,-405.3948 864,-405.3948 864,-382.3948 729,-382.3948"/>
<text text-anchor="start" x="734" y="-390.9948" font-family="Helvetica,sans-Serif" font-weight="bold" font-size="11.00" fill="#000000">form_painmap</text>
<text text-anchor="start" x="829.5219" y="-390.4948" font-family="Helvetica,sans-Serif" font-size="11.00" fill="#000000">[table]</text>
<polygon fill="none" stroke="#000000" points="729,-363.3948 729,-382.3948 864,-382.3948 864,-363.3948 729,-363.3948"/>
<text text-anchor="start" x="732" y="-369.4948" font-family="Helvetica,sans-Serif" font-size="11.00" fill="#000000">...</text>
<polygon fill="#ffffff" stroke="transparent" points="729,-344.3948 729,-363.3948 795,-363.3948 795,-344.3948 729,-344.3948"/>
<polygon fill="none" stroke="#000000" points="729,-344.3948 729,-363.3948 795,-363.3948 795,-344.3948 729,-344.3948"/>
<text text-anchor="start" x="732" y="-350.4948" font-family="Helvetica,sans-Serif" font-size="11.00" fill="#000000">&lt; 4</text>
<polygon fill="#ffffff" stroke="transparent" points="795,-344.3948 795,-363.3948 829,-363.3948 829,-344.3948 795,-344.3948"/>
<polygon fill="none" stroke="#000000" points="795,-344.3948 795,-363.3948 829,-363.3948 829,-344.3948 795,-344.3948"/>
<text text-anchor="start" x="819.8862" y="-350.4948" font-family="Helvetica,sans-Serif" font-size="11.00" fill="#000000"> &#160;</text>
<polygon fill="#ffffff" stroke="transparent" points="829,-344.3948 829,-363.3948 864,-363.3948 864,-344.3948 829,-344.3948"/>
<polygon fill="none" stroke="#000000" points="829,-344.3948 829,-363.3948 864,-363.3948 864,-344.3948 829,-344.3948"/>
<text text-anchor="start" x="854.8862" y="-350.4948" font-family="Helvetica,sans-Serif" font-size="11.00" fill="#000000"> &#160;</text>
</a>
</g>
</g>
<!-- form_painmap&#45;&gt;groups -->
<g id="edge31" class="edge">
<title>form_painmap:w&#45;&gt;groups:e</title>
<path fill="none" stroke="#000000" d="M714.5356,-372.1796C602.5547,-368.777 574.8702,-325.9145 457,-307.3948 360.1193,-292.173 335.0693,-290.3948 237,-290.3948"/>
<polygon fill="#000000" stroke="#000000" points="721.0009,-372.2758 728.9464,-375.9944 725.0004,-372.3353 729,-372.3948 729,-372.3948 729,-372.3948 725.0004,-372.3353 729.0536,-368.7952 721.0009,-372.2758 721.0009,-372.2758"/>
<ellipse fill="none" stroke="#000000" cx="717.8012" cy="-372.2281" rx="3.2" ry="3.2"/>
</g>
<!-- form_painmap&#45;&gt;forms -->
<g id="edge32" class="edge">
<title>form_painmap:w&#45;&gt;forms:e</title>
<path fill="none" stroke="#000000" d="M714.4769,-374.1102C695.8579,-379.118 688.9215,-394.7437 677,-416.3948 645.0763,-474.3726 702.1857,-711.3948 636,-711.3948"/>
<polygon fill="#000000" stroke="#000000" points="721.0552,-373.3332 729.4223,-375.97 725.0276,-372.864 729,-372.3948 729,-372.3948 729,-372.3948 725.0276,-372.864 728.5777,-368.8197 721.0552,-373.3332 721.0552,-373.3332"/>
<ellipse fill="none" stroke="#000000" cx="717.8773" cy="-373.7086" rx="3.2" ry="3.2"/>
</g>
<!-- form_painmap&#45;&gt;users -->
<g id="edge34" class="edge">
<title>form_painmap:w&#45;&gt;users:e</title>
<path fill="none" stroke="#000000" d="M714.5484,-372.3083C455.6351,-369.2059 353.0179,-284.5457 124,-417.3948 96.1702,-433.5384 115.6731,-477.3948 83.5,-477.3948"/>
<polygon fill="#000000" stroke="#000000" points="721.0001,-372.3469 728.9784,-375.9948 725.0001,-372.3708 729,-372.3948 729,-372.3948 729,-372.3948 725.0001,-372.3708 729.0216,-368.7949 721.0001,-372.3469 721.0001,-372.3469"/>
<ellipse fill="none" stroke="#000000" cx="717.8002" cy="-372.3277" rx="3.2" ry="3.2"/>
</g>
<!-- form_painmap&#45;&gt;patient_data -->
<g id="edge33" class="edge">
<title>form_painmap:w&#45;&gt;patient_data:e</title>
<path fill="none" stroke="#000000" d="M715.1996,-376.8545C664.4115,-397.1526 498.116,-480.2576 490,-490.3948 451.1268,-538.9491 504.2271,-585.9196 457,-626.3948 422.9636,-655.5651 300.8261,-643.3948 256,-643.3948"/>
<polygon fill="#000000" stroke="#000000" points="721.3876,-374.8548 730.107,-375.8204 725.1938,-373.6248 729,-372.3948 729,-372.3948 729,-372.3948 725.1938,-373.6248 727.893,-368.9692 721.3876,-374.8548 721.3876,-374.8548"/>
<ellipse fill="none" stroke="#000000" cx="718.3426" cy="-375.8388" rx="3.2" ry="3.2"/>
</g>
<!-- form_phq9 -->
<g id="node14" class="node">
<title>form_phq9</title>
<g id="a_node14"><a xlink:href="../../tables/form_phq9.html" xlink:title="form_phq9" target="_top">
<polygon fill="#ffffff" stroke="transparent" points="741,-180.8948 741,-241.8948 851,-241.8948 851,-180.8948 741,-180.8948"/>
<polygon fill="#f5f5f5" stroke="transparent" points="741,-218.3948 741,-241.3948 851,-241.3948 851,-218.3948 741,-218.3948"/>
<polygon fill="none" stroke="#000000" points="741,-218.3948 741,-241.3948 851,-241.3948 851,-218.3948 741,-218.3948"/>
<text text-anchor="start" x="746" y="-226.9948" font-family="Helvetica,sans-Serif" font-weight="bold" font-size="11.00" fill="#000000">form_phq9</text>
<text text-anchor="start" x="816.5219" y="-226.4948" font-family="Helvetica,sans-Serif" font-size="11.00" fill="#000000">[table]</text>
<polygon fill="none" stroke="#000000" points="741,-199.3948 741,-218.3948 851,-218.3948 851,-199.3948 741,-199.3948"/>
<text text-anchor="start" x="744" y="-205.4948" font-family="Helvetica,sans-Serif" font-size="11.00" fill="#000000">...</text>
<polygon fill="#ffffff" stroke="transparent" points="741,-180.3948 741,-199.3948 794,-199.3948 794,-180.3948 741,-180.3948"/>
<polygon fill="none" stroke="#000000" points="741,-180.3948 741,-199.3948 794,-199.3948 794,-180.3948 741,-180.3948"/>
<text text-anchor="start" x="744" y="-186.4948" font-family="Helvetica,sans-Serif" font-size="11.00" fill="#000000">&lt; 4</text>
<polygon fill="#ffffff" stroke="transparent" points="794,-180.3948 794,-199.3948 822,-199.3948 822,-180.3948 794,-180.3948"/>
<polygon fill="none" stroke="#000000" points="794,-180.3948 794,-199.3948 822,-199.3948 822,-180.3948 794,-180.3948"/>
<text text-anchor="start" x="812.8862" y="-186.4948" font-family="Helvetica,sans-Serif" font-size="11.00" fill="#000000"> &#160;</text>
<polygon fill="#ffffff" stroke="transparent" points="822,-180.3948 822,-199.3948 851,-199.3948 851,-180.3948 822,-180.3948"/>
<polygon fill="none" stroke="#000000" points="822,-180.3948 822,-199.3948 851,-199.3948 851,-180.3948 822,-180.3948"/>
<text text-anchor="start" x="841.8862" y="-186.4948" font-family="Helvetica,sans-Serif" font-size="11.00" fill="#000000"> &#160;</text>
</a>
</g>
</g>
<!-- form_phq9&#45;&gt;groups -->
<g id="edge35" class="edge">
<title>form_phq9:w&#45;&gt;groups:e</title>
<path fill="none" stroke="#000000" d="M726.3865,-208.4258C539.135,-209.2359 486.159,-226.0553 297,-270.3948 269.6327,-276.8098 265.1091,-290.3948 237,-290.3948"/>
<polygon fill="#000000" stroke="#000000" points="733,-208.4118 741.0076,-211.9948 737,-208.4033 741,-208.3948 741,-208.3948 741,-208.3948 737,-208.4033 740.9924,-204.7948 733,-208.4118 733,-208.4118"/>
<ellipse fill="none" stroke="#000000" cx="729.8" cy="-208.4186" rx="3.2" ry="3.2"/>
</g>
<!-- form_phq9&#45;&gt;forms -->
<g id="edge36" class="edge">
<title>form_phq9:w&#45;&gt;forms:e</title>
<path fill="none" stroke="#000000" d="M726.3579,-209.44C702.5802,-213.2123 691.6933,-227.2481 677,-252.3948 651.1682,-296.6042 687.2031,-711.3948 636,-711.3948"/>
<polygon fill="#000000" stroke="#000000" points="733.0203,-208.9645 741.2563,-211.9857 737.0102,-208.6796 741,-208.3948 741,-208.3948 741,-208.3948 737.0102,-208.6796 740.7437,-204.804 733.0203,-208.9645 733.0203,-208.9645"/>
<ellipse fill="none" stroke="#000000" cx="729.8284" cy="-209.1923" rx="3.2" ry="3.2"/>
</g>
<!-- form_phq9&#45;&gt;users -->
<g id="edge38" class="edge">
<title>form_phq9:w&#45;&gt;users:e</title>
<path fill="none" stroke="#000000" d="M726.2722,-208.2198C461.87,-201.9344 327.9428,-29.5702 124,-205.3948 77.7154,-245.298 144.6108,-477.3948 83.5,-477.3948"/>
<polygon fill="#000000" stroke="#000000" points="733.0006,-208.2997 740.9572,-211.9946 737.0003,-208.3472 741,-208.3948 741,-208.3948 741,-208.3948 737.0003,-208.3472 741.0428,-204.7951 733.0006,-208.2997 733.0006,-208.2997"/>
<ellipse fill="none" stroke="#000000" cx="729.8008" cy="-208.2616" rx="3.2" ry="3.2"/>
</g>
<!-- form_phq9&#45;&gt;patient_data -->
<g id="edge37" class="edge">
<title>form_phq9:w&#45;&gt;patient_data:e</title>
<path fill="none" stroke="#000000" d="M726.5568,-209.5717C703.429,-213.7742 694.4096,-229.0463 677,-252.3948 648.5186,-290.5921 677.2787,-320.2957 644,-354.3948 593.3416,-406.3021 537.6099,-353.6779 490,-408.3948 441.1957,-464.4844 505.9767,-516.4557 457,-572.3948 407.4664,-628.9699 367.5955,-601.4988 297,-627.3948 278.6359,-634.1312 275.5606,-643.3948 256,-643.3948"/>
<polygon fill="#000000" stroke="#000000" points="733.0264,-209.0446 741.2924,-211.9829 737.0132,-208.7197 741,-208.3948 741,-208.3948 741,-208.3948 737.0132,-208.7197 740.7076,-204.8067 733.0264,-209.0446 733.0264,-209.0446"/>
<ellipse fill="none" stroke="#000000" cx="729.837" cy="-209.3045" rx="3.2" ry="3.2"/>
</g>
<!-- form_physical_exam -->
<g id="node15" class="node">
<title>form_physical_exam</title>
<g id="a_node15"><a xlink:href="../../tables/form_physical_exam.html" xlink:title="form_physical_exam" target="_top">
<polygon fill="#ffffff" stroke="transparent" points="685,-783.3948 685,-895.3948 907,-895.3948 907,-783.3948 685,-783.3948"/>
<polygon fill="#f5f5f5" stroke="transparent" points="687,-870.3948 687,-893.3948 905,-893.3948 905,-870.3948 687,-870.3948"/>
<polygon fill="none" stroke="#000000" points="687,-870.3948 687,-893.3948 905,-893.3948 905,-870.3948 687,-870.3948"/>
<text text-anchor="start" x="692" y="-878.9948" font-family="Helvetica,sans-Serif" font-weight="bold" font-size="11.00" fill="#000000">form_physical_exam</text>
<text text-anchor="start" x="870.0437" y="-878.4948" font-family="Helvetica,sans-Serif" font-size="11.00" fill="#000000">[table]</text>
<polygon fill="none" stroke="#000000" points="687,-848.3948 687,-870.3948 843,-870.3948 843,-848.3948 687,-848.3948"/>
<text text-anchor="start" x="707" y="-855.4948" font-family="Helvetica,sans-Serif" font-size="11.00" fill="#000000">diagnosis</text>
<polygon fill="none" stroke="#000000" points="843,-848.3948 843,-870.3948 905,-870.3948 905,-848.3948 843,-848.3948"/>
<text text-anchor="start" x="845.878" y="-856.0948" font-family="Helvetica,sans-Serif" font-size="11.00" fill="#000000">unknown[0]</text>
<polygon fill="none" stroke="#000000" points="687,-826.3948 687,-848.3948 843,-848.3948 843,-826.3948 687,-826.3948"/>
<image xlink:href="../../images/foreignKeys.png" width="11px" height="12px" preserveAspectRatio="xMinYMin meet" x="692" y="-843.395"/>
<text text-anchor="start" x="707" y="-833.4948" font-family="Helvetica,sans-Serif" font-size="11.00" fill="#000000">forms_id</text>
<polygon fill="none" stroke="#000000" points="843,-826.3948 843,-848.3948 905,-848.3948 905,-826.3948 843,-826.3948"/>
<text text-anchor="start" x="845.878" y="-834.0948" font-family="Helvetica,sans-Serif" font-size="11.00" fill="#000000">unknown[0]</text>
<polygon fill="none" stroke="#000000" points="687,-804.3948 687,-826.3948 843,-826.3948 843,-804.3948 687,-804.3948"/>
<text text-anchor="start" x="707" y="-811.4948" font-family="Helvetica,sans-Serif" font-size="11.00" fill="#000000">line_id</text>
<polygon fill="none" stroke="#000000" points="843,-804.3948 843,-826.3948 905,-826.3948 905,-804.3948 843,-804.3948"/>
<text text-anchor="start" x="845.878" y="-812.0948" font-family="Helvetica,sans-Serif" font-size="11.00" fill="#000000">unknown[0]</text>
<polygon fill="#ffffff" stroke="transparent" points="687,-785.3948 687,-804.3948 769,-804.3948 769,-785.3948 687,-785.3948"/>
<polygon fill="none" stroke="#000000" points="687,-785.3948 687,-804.3948 769,-804.3948 769,-785.3948 687,-785.3948"/>
<text text-anchor="start" x="690" y="-791.4948" font-family="Helvetica,sans-Serif" font-size="11.00" fill="#000000">&lt; 1</text>
<polygon fill="#ffffff" stroke="transparent" points="769,-785.3948 769,-804.3948 843,-804.3948 843,-785.3948 769,-785.3948"/>
<polygon fill="none" stroke="#000000" points="769,-785.3948 769,-804.3948 843,-804.3948 843,-785.3948 769,-785.3948"/>
<text text-anchor="start" x="833.8862" y="-791.4948" font-family="Helvetica,sans-Serif" font-size="11.00" fill="#000000"> &#160;</text>
<polygon fill="#ffffff" stroke="transparent" points="843,-785.3948 843,-804.3948 905,-804.3948 905,-785.3948 843,-785.3948"/>
<polygon fill="none" stroke="#000000" points="843,-785.3948 843,-804.3948 905,-804.3948 905,-785.3948 843,-785.3948"/>
<text text-anchor="start" x="886.4053" y="-791.4948" font-family="Helvetica,sans-Serif" font-size="11.00" fill="#000000">0 &gt;</text>
<polygon fill="none" stroke="#000000" stroke-width="2" points="686,-784.3948 686,-894.3948 906,-894.3948 906,-784.3948 686,-784.3948"/>
</a>
</g>
</g>
<!-- form_physical_exam&#45;&gt;forms -->
<g id="edge39" class="edge">
<title>form_physical_exam:w&#45;&gt;forms:e</title>
<path fill="none" stroke="#000000" d="M673.0743,-832.9861C652.3419,-815.9539 672.8829,-755.3948 636,-755.3948"/>
<polygon fill="#000000" stroke="#000000" points="679.3731,-834.9802 685.9134,-840.8269 683.1865,-836.1875 687,-837.3948 687,-837.3948 687,-837.3948 683.1865,-836.1875 688.0866,-833.9627 679.3731,-834.9802 679.3731,-834.9802"/>
<ellipse fill="none" stroke="#000000" cx="676.3223" cy="-834.0144" rx="3.2" ry="3.2"/>
</g>
<!-- form_prior_auth -->
<g id="node16" class="node">
<title>form_prior_auth</title>
<g id="a_node16"><a xlink:href="../../tables/form_prior_auth.html" xlink:title="form_prior_auth" target="_top">
<polygon fill="#ffffff" stroke="transparent" points="723,-618.8948 723,-679.8948 869,-679.8948 869,-618.8948 723,-618.8948"/>
<polygon fill="#f5f5f5" stroke="transparent" points="723,-656.3948 723,-679.3948 869,-679.3948 869,-656.3948 723,-656.3948"/>
<polygon fill="none" stroke="#000000" points="723,-656.3948 723,-679.3948 869,-679.3948 869,-656.3948 723,-656.3948"/>
<text text-anchor="start" x="728" y="-664.9948" font-family="Helvetica,sans-Serif" font-weight="bold" font-size="11.00" fill="#000000">form_prior_auth</text>
<text text-anchor="start" x="834.5219" y="-664.4948" font-family="Helvetica,sans-Serif" font-size="11.00" fill="#000000">[table]</text>
<polygon fill="none" stroke="#000000" points="723,-637.3948 723,-656.3948 869,-656.3948 869,-637.3948 723,-637.3948"/>
<text text-anchor="start" x="726" y="-643.4948" font-family="Helvetica,sans-Serif" font-size="11.00" fill="#000000">...</text>
<polygon fill="#ffffff" stroke="transparent" points="723,-618.3948 723,-637.3948 794,-637.3948 794,-618.3948 723,-618.3948"/>
<polygon fill="none" stroke="#000000" points="723,-618.3948 723,-637.3948 794,-637.3948 794,-618.3948 723,-618.3948"/>
<text text-anchor="start" x="726" y="-624.4948" font-family="Helvetica,sans-Serif" font-size="11.00" fill="#000000">&lt; 2</text>
<polygon fill="#ffffff" stroke="transparent" points="794,-618.3948 794,-637.3948 831,-637.3948 831,-618.3948 794,-618.3948"/>
<polygon fill="none" stroke="#000000" points="794,-618.3948 794,-637.3948 831,-637.3948 831,-618.3948 794,-618.3948"/>
<text text-anchor="start" x="821.8862" y="-624.4948" font-family="Helvetica,sans-Serif" font-size="11.00" fill="#000000"> &#160;</text>
<polygon fill="#ffffff" stroke="transparent" points="831,-618.3948 831,-637.3948 869,-637.3948 869,-618.3948 831,-618.3948"/>
<polygon fill="none" stroke="#000000" points="831,-618.3948 831,-637.3948 869,-637.3948 869,-618.3948 831,-618.3948"/>
<text text-anchor="start" x="859.8862" y="-624.4948" font-family="Helvetica,sans-Serif" font-size="11.00" fill="#000000"> &#160;</text>
</a>
</g>
</g>
<!-- form_prior_auth&#45;&gt;forms -->
<g id="edge40" class="edge">
<title>form_prior_auth:w&#45;&gt;forms:e</title>
<path fill="none" stroke="#000000" d="M708.654,-648.7082C676.1515,-660.2873 678.799,-711.3948 636,-711.3948"/>
<polygon fill="#000000" stroke="#000000" points="715.102,-647.6685 723.5731,-649.9489 719.051,-647.0316 723,-646.3948 723,-646.3948 723,-646.3948 719.051,-647.0316 722.4269,-642.8407 715.102,-647.6685 715.102,-647.6685"/>
<ellipse fill="none" stroke="#000000" cx="711.9428" cy="-648.1779" rx="3.2" ry="3.2"/>
</g>
<!-- form_prior_auth&#45;&gt;patient_data -->
<g id="edge41" class="edge">
<title>form_prior_auth:w&#45;&gt;patient_data:e</title>
<path fill="none" stroke="#000000" d="M708.5871,-648.7239C693.0288,-654.6441 688.7749,-671.1695 677,-690.3948 650.3414,-733.9213 684.9502,-769.9266 644,-800.3948 589.0875,-841.2514 556.4321,-816.8698 490,-800.3948 395.8323,-777.0415 370.6904,-761.5032 297,-698.3948 273.8425,-678.5628 286.489,-643.3948 256,-643.3948"/>
<polygon fill="#000000" stroke="#000000" points="715.1025,-647.6711 723.5743,-649.9487 719.0512,-647.033 723,-646.3948 723,-646.3948 723,-646.3948 719.0512,-647.033 722.4257,-642.8409 715.1025,-647.6711 715.1025,-647.6711"/>
<ellipse fill="none" stroke="#000000" cx="711.9434" cy="-648.1816" rx="3.2" ry="3.2"/>
</g>
<!-- form_sdoh -->
<g id="node17" class="node">
<title>form_sdoh</title>
<g id="a_node17"><a xlink:href="../../tables/form_sdoh.html" xlink:title="form_sdoh" target="_top">
<polygon fill="#ffffff" stroke="transparent" points="741.5,-262.8948 741.5,-323.8948 850.5,-323.8948 850.5,-262.8948 741.5,-262.8948"/>
<polygon fill="#f5f5f5" stroke="transparent" points="742,-300.3948 742,-323.3948 851,-323.3948 851,-300.3948 742,-300.3948"/>
<polygon fill="none" stroke="#000000" points="742,-300.3948 742,-323.3948 851,-323.3948 851,-300.3948 742,-300.3948"/>
<text text-anchor="start" x="747" y="-308.9948" font-family="Helvetica,sans-Serif" font-weight="bold" font-size="11.00" fill="#000000">form_sdoh</text>
<text text-anchor="start" x="816.5219" y="-308.4948" font-family="Helvetica,sans-Serif" font-size="11.00" fill="#000000">[table]</text>
<polygon fill="none" stroke="#000000" points="742,-281.3948 742,-300.3948 851,-300.3948 851,-281.3948 742,-281.3948"/>
<text text-anchor="start" x="745" y="-287.4948" font-family="Helvetica,sans-Serif" font-size="11.00" fill="#000000">...</text>
<polygon fill="#ffffff" stroke="transparent" points="742,-262.3948 742,-281.3948 795,-281.3948 795,-262.3948 742,-262.3948"/>
<polygon fill="none" stroke="#000000" points="742,-262.3948 742,-281.3948 795,-281.3948 795,-262.3948 742,-262.3948"/>
<text text-anchor="start" x="745" y="-268.4948" font-family="Helvetica,sans-Serif" font-size="11.00" fill="#000000">&lt; 4</text>
<polygon fill="#ffffff" stroke="transparent" points="795,-262.3948 795,-281.3948 823,-281.3948 823,-262.3948 795,-262.3948"/>
<polygon fill="none" stroke="#000000" points="795,-262.3948 795,-281.3948 823,-281.3948 823,-262.3948 795,-262.3948"/>
<text text-anchor="start" x="813.8862" y="-268.4948" font-family="Helvetica,sans-Serif" font-size="11.00" fill="#000000"> &#160;</text>
<polygon fill="#ffffff" stroke="transparent" points="823,-262.3948 823,-281.3948 851,-281.3948 851,-262.3948 823,-262.3948"/>
<polygon fill="none" stroke="#000000" points="823,-262.3948 823,-281.3948 851,-281.3948 851,-262.3948 823,-262.3948"/>
<text text-anchor="start" x="841.8862" y="-268.4948" font-family="Helvetica,sans-Serif" font-size="11.00" fill="#000000"> &#160;</text>
</a>
</g>
</g>
<!-- form_sdoh&#45;&gt;groups -->
<g id="edge42" class="edge">
<title>form_sdoh:w&#45;&gt;groups:e</title>
<path fill="none" stroke="#000000" d="M727.4412,-290.0765C695.1897,-288.5932 682.4303,-282.3505 644,-280.3948 489.9771,-272.5569 450.6967,-267.6745 297,-280.3948 270.0576,-282.6246 264.0345,-290.3948 237,-290.3948"/>
<polygon fill="#000000" stroke="#000000" points="734.0019,-290.2199 741.9213,-293.994 738.001,-290.3073 742,-290.3948 742,-290.3948 742,-290.3948 738.001,-290.3073 742.0787,-286.7957 734.0019,-290.2199 734.0019,-290.2199"/>
<ellipse fill="none" stroke="#000000" cx="730.8027" cy="-290.1499" rx="3.2" ry="3.2"/>
</g>
<!-- form_sdoh&#45;&gt;forms -->
<g id="edge43" class="edge">
<title>form_sdoh:w&#45;&gt;forms:e</title>
<path fill="none" stroke="#000000" d="M727.5402,-291.3834C703.286,-295.0615 692.2548,-309.0626 677,-334.3948 633.5264,-406.5875 720.2718,-711.3948 636,-711.3948"/>
<polygon fill="#000000" stroke="#000000" points="734.0186,-290.9406 742.2456,-293.9864 738.0093,-290.6677 742,-290.3948 742,-290.3948 742,-290.3948 738.0093,-290.6677 741.7544,-286.8032 734.0186,-290.9406 734.0186,-290.9406"/>
<ellipse fill="none" stroke="#000000" cx="730.8261" cy="-291.1589" rx="3.2" ry="3.2"/>
</g>
<!-- form_sdoh&#45;&gt;users -->
<g id="edge45" class="edge">
<title>form_sdoh:w&#45;&gt;users:e</title>
<path fill="none" stroke="#000000" d="M727.2594,-289.857C694.7076,-287.336 682.5818,-276.5537 644,-270.3948 476.1084,-243.5939 433.735,-236.1889 264,-226.3948 201.8811,-222.8104 171.3726,-186.0533 124,-226.3948 80.9846,-263.0259 139.9992,-477.3948 83.5,-477.3948"/>
<polygon fill="#000000" stroke="#000000" points="734.0053,-290.1031 741.8687,-293.9924 738.0027,-290.2489 742,-290.3948 742,-290.3948 742,-290.3948 738.0027,-290.2489 742.1313,-286.7972 734.0053,-290.1031 734.0053,-290.1031"/>
<ellipse fill="none" stroke="#000000" cx="730.8074" cy="-289.9863" rx="3.2" ry="3.2"/>
</g>
<!-- form_sdoh&#45;&gt;patient_data -->
<g id="edge44" class="edge">
<title>form_sdoh:w&#45;&gt;patient_data:e</title>
<path fill="none" stroke="#000000" d="M727.5027,-290.5136C614.4448,-292.436 567.2499,-318.2469 490,-408.3948 455.9556,-448.1234 488.8589,-479.8931 457,-521.3948 449.0459,-531.7565 269.0626,-643.3948 256,-643.3948"/>
<polygon fill="#000000" stroke="#000000" points="734.0003,-290.4604 742.0295,-293.9947 738.0001,-290.4276 742,-290.3948 742,-290.3948 742,-290.3948 738.0001,-290.4276 741.9705,-286.7949 734.0003,-290.4604 734.0003,-290.4604"/>
<ellipse fill="none" stroke="#000000" cx="730.8004" cy="-290.4867" rx="3.2" ry="3.2"/>
</g>
<!-- form_track_anything -->
<g id="node18" class="node">
<title>form_track_anything</title>
<g id="a_node18"><a xlink:href="../../tables/form_track_anything.html" xlink:title="form_track_anything" target="_top">
<polygon fill="#ffffff" stroke="transparent" points="707.5,-1108.8948 707.5,-1169.8948 884.5,-1169.8948 884.5,-1108.8948 707.5,-1108.8948"/>
<polygon fill="#f5f5f5" stroke="transparent" points="708,-1146.3948 708,-1169.3948 885,-1169.3948 885,-1146.3948 708,-1146.3948"/>
<polygon fill="none" stroke="#000000" points="708,-1146.3948 708,-1169.3948 885,-1169.3948 885,-1146.3948 708,-1146.3948"/>
<text text-anchor="start" x="713" y="-1154.9948" font-family="Helvetica,sans-Serif" font-weight="bold" font-size="11.00" fill="#000000">form_track_anything</text>
<text text-anchor="start" x="850.5219" y="-1154.4948" font-family="Helvetica,sans-Serif" font-size="11.00" fill="#000000">[table]</text>
<polygon fill="none" stroke="#000000" points="708,-1127.3948 708,-1146.3948 885,-1146.3948 885,-1127.3948 708,-1127.3948"/>
<text text-anchor="start" x="711" y="-1133.4948" font-family="Helvetica,sans-Serif" font-size="11.00" fill="#000000">...</text>
<polygon fill="#ffffff" stroke="transparent" points="708,-1108.3948 708,-1127.3948 790,-1127.3948 790,-1108.3948 708,-1108.3948"/>
<polygon fill="none" stroke="#000000" points="708,-1108.3948 708,-1127.3948 790,-1127.3948 790,-1108.3948 708,-1108.3948"/>
<text text-anchor="start" x="711" y="-1114.4948" font-family="Helvetica,sans-Serif" font-size="11.00" fill="#000000">&lt; 2</text>
<polygon fill="#ffffff" stroke="transparent" points="790,-1108.3948 790,-1127.3948 833,-1127.3948 833,-1108.3948 790,-1108.3948"/>
<polygon fill="none" stroke="#000000" points="790,-1108.3948 790,-1127.3948 833,-1127.3948 833,-1108.3948 790,-1108.3948"/>
<text text-anchor="start" x="823.8862" y="-1114.4948" font-family="Helvetica,sans-Serif" font-size="11.00" fill="#000000"> &#160;</text>
<polygon fill="#ffffff" stroke="transparent" points="833,-1108.3948 833,-1127.3948 885,-1127.3948 885,-1108.3948 833,-1108.3948"/>
<polygon fill="none" stroke="#000000" points="833,-1108.3948 833,-1127.3948 885,-1127.3948 885,-1108.3948 833,-1108.3948"/>
<text text-anchor="start" x="866.4053" y="-1114.4948" font-family="Helvetica,sans-Serif" font-size="11.00" fill="#000000">1 &gt;</text>
</a>
</g>
</g>
<!-- form_track_anything&#45;&gt;forms -->
<g id="edge46" class="edge">
<title>form_track_anything:w&#45;&gt;forms:e</title>
<path fill="none" stroke="#000000" d="M697.7348,-1134.5C621.2234,-1103.8402 728.0483,-711.3948 636,-711.3948"/>
<polygon fill="#000000" stroke="#000000" points="707.9394,-1132.316 706.4872,-1140.1831 704.9138,-1139.8927 706.366,-1132.0256 707.9394,-1132.316"/>
<polyline fill="none" stroke="#000000" points="708,-1136.3948 704.0665,-1135.6687 "/>
<ellipse fill="none" stroke="#000000" cx="700.9196" cy="-1135.0878" rx="3.2" ry="3.2"/>
</g>
<!-- form_track_anything&#45;&gt;patient_data -->
<g id="edge47" class="edge">
<title>form_track_anything:w&#45;&gt;patient_data:e</title>
<path fill="none" stroke="#000000" d="M693.4982,-1136.7389C592.3428,-1141.0831 360.147,-1184.1103 297,-1124.3948 258.0279,-1087.5405 309.6382,-643.3948 256,-643.3948"/>
<polygon fill="#000000" stroke="#000000" points="700.0023,-1136.5846 708.0854,-1139.9938 704.0011,-1136.4897 708,-1136.3948 708,-1136.3948 708,-1136.3948 704.0011,-1136.4897 707.9146,-1132.7958 700.0023,-1136.5846 700.0023,-1136.5846"/>
<ellipse fill="none" stroke="#000000" cx="696.8032" cy="-1136.6606" rx="3.2" ry="3.2"/>
</g>
<!-- form_transfer_summary -->
<g id="node19" class="node">
<title>form_transfer_summary</title>
<g id="a_node19"><a xlink:href="../../tables/form_transfer_summary.html" xlink:title="form_transfer_summary" target="_top">
<polygon fill="#ffffff" stroke="transparent" points="696,-998.8948 696,-1059.8948 896,-1059.8948 896,-998.8948 696,-998.8948"/>
<polygon fill="#f5f5f5" stroke="transparent" points="696,-1036.3948 696,-1059.3948 896,-1059.3948 896,-1036.3948 696,-1036.3948"/>
<polygon fill="none" stroke="#000000" points="696,-1036.3948 696,-1059.3948 896,-1059.3948 896,-1036.3948 696,-1036.3948"/>
<text text-anchor="start" x="701" y="-1044.9948" font-family="Helvetica,sans-Serif" font-weight="bold" font-size="11.00" fill="#000000">form_transfer_summary</text>
<text text-anchor="start" x="861.5219" y="-1044.4948" font-family="Helvetica,sans-Serif" font-size="11.00" fill="#000000">[table]</text>
<polygon fill="none" stroke="#000000" points="696,-1017.3948 696,-1036.3948 896,-1036.3948 896,-1017.3948 696,-1017.3948"/>
<text text-anchor="start" x="699" y="-1023.4948" font-family="Helvetica,sans-Serif" font-size="11.00" fill="#000000">...</text>
<polygon fill="#ffffff" stroke="transparent" points="696,-998.3948 696,-1017.3948 794,-1017.3948 794,-998.3948 696,-998.3948"/>
<polygon fill="none" stroke="#000000" points="696,-998.3948 696,-1017.3948 794,-1017.3948 794,-998.3948 696,-998.3948"/>
<text text-anchor="start" x="699" y="-1004.4948" font-family="Helvetica,sans-Serif" font-size="11.00" fill="#000000">&lt; 2</text>
<polygon fill="#ffffff" stroke="transparent" points="794,-998.3948 794,-1017.3948 845,-1017.3948 845,-998.3948 794,-998.3948"/>
<polygon fill="none" stroke="#000000" points="794,-998.3948 794,-1017.3948 845,-1017.3948 845,-998.3948 794,-998.3948"/>
<text text-anchor="start" x="835.8862" y="-1004.4948" font-family="Helvetica,sans-Serif" font-size="11.00" fill="#000000"> &#160;</text>
<polygon fill="#ffffff" stroke="transparent" points="845,-998.3948 845,-1017.3948 896,-1017.3948 896,-998.3948 845,-998.3948"/>
<polygon fill="none" stroke="#000000" points="845,-998.3948 845,-1017.3948 896,-1017.3948 896,-998.3948 845,-998.3948"/>
<text text-anchor="start" x="886.8862" y="-1004.4948" font-family="Helvetica,sans-Serif" font-size="11.00" fill="#000000"> &#160;</text>
</a>
</g>
</g>
<!-- form_transfer_summary&#45;&gt;forms -->
<g id="edge48" class="edge">
<title>form_transfer_summary:w&#45;&gt;forms:e</title>
<path fill="none" stroke="#000000" d="M682.2571,-1021.1902C636.4202,-980.2342 701.8306,-711.3948 636,-711.3948"/>
<polygon fill="#000000" stroke="#000000" points="688.5185,-1023.5615 694.725,-1029.7615 692.2593,-1024.9781 696,-1026.3948 696,-1026.3948 696,-1026.3948 692.2593,-1024.9781 697.275,-1023.0282 688.5185,-1023.5615 688.5185,-1023.5615"/>
<ellipse fill="none" stroke="#000000" cx="685.5259" cy="-1022.4281" rx="3.2" ry="3.2"/>
</g>
<!-- form_transfer_summary&#45;&gt;patient_data -->
<g id="edge49" class="edge">
<title>form_transfer_summary:w&#45;&gt;patient_data:e</title>
<path fill="none" stroke="#000000" d="M681.4514,-1026.384C501.3451,-1026.0808 411.965,-1018.3478 297,-873.3948 264.7388,-832.7184 307.9168,-643.3948 256,-643.3948"/>
<polygon fill="#000000" stroke="#000000" points="688,-1026.3888 695.9973,-1029.9948 692,-1026.3918 696,-1026.3948 696,-1026.3948 696,-1026.3948 692,-1026.3918 696.0027,-1022.7948 688,-1026.3888 688,-1026.3888"/>
<ellipse fill="none" stroke="#000000" cx="684.8" cy="-1026.3864" rx="3.2" ry="3.2"/>
</g>
<!-- form_treatment_plan -->
<g id="node20" class="node">
<title>form_treatment_plan</title>
<g id="a_node20"><a xlink:href="../../tables/form_treatment_plan.html" xlink:title="form_treatment_plan" target="_top">
<polygon fill="#ffffff" stroke="transparent" points="706,-98.8948 706,-159.8948 886,-159.8948 886,-98.8948 706,-98.8948"/>
<polygon fill="#f5f5f5" stroke="transparent" points="706,-136.3948 706,-159.3948 886,-159.3948 886,-136.3948 706,-136.3948"/>
<polygon fill="none" stroke="#000000" points="706,-136.3948 706,-159.3948 886,-159.3948 886,-136.3948 706,-136.3948"/>
<text text-anchor="start" x="711" y="-144.9948" font-family="Helvetica,sans-Serif" font-weight="bold" font-size="11.00" fill="#000000">form_treatment_plan</text>
<text text-anchor="start" x="851.5219" y="-144.4948" font-family="Helvetica,sans-Serif" font-size="11.00" fill="#000000">[table]</text>
<polygon fill="none" stroke="#000000" points="706,-117.3948 706,-136.3948 886,-136.3948 886,-117.3948 706,-117.3948"/>
<text text-anchor="start" x="709" y="-123.4948" font-family="Helvetica,sans-Serif" font-size="11.00" fill="#000000">...</text>
<polygon fill="#ffffff" stroke="transparent" points="706,-98.3948 706,-117.3948 794,-117.3948 794,-98.3948 706,-98.3948"/>
<polygon fill="none" stroke="#000000" points="706,-98.3948 706,-117.3948 794,-117.3948 794,-98.3948 706,-98.3948"/>
<text text-anchor="start" x="709" y="-104.4948" font-family="Helvetica,sans-Serif" font-size="11.00" fill="#000000">&lt; 4</text>
<polygon fill="#ffffff" stroke="transparent" points="794,-98.3948 794,-117.3948 840,-117.3948 840,-98.3948 794,-98.3948"/>
<polygon fill="none" stroke="#000000" points="794,-98.3948 794,-117.3948 840,-117.3948 840,-98.3948 794,-98.3948"/>
<text text-anchor="start" x="830.8862" y="-104.4948" font-family="Helvetica,sans-Serif" font-size="11.00" fill="#000000"> &#160;</text>
<polygon fill="#ffffff" stroke="transparent" points="840,-98.3948 840,-117.3948 886,-117.3948 886,-98.3948 840,-98.3948"/>
<polygon fill="none" stroke="#000000" points="840,-98.3948 840,-117.3948 886,-117.3948 886,-98.3948 840,-98.3948"/>
<text text-anchor="start" x="876.8862" y="-104.4948" font-family="Helvetica,sans-Serif" font-size="11.00" fill="#000000"> &#160;</text>
</a>
</g>
</g>
<!-- form_treatment_plan&#45;&gt;groups -->
<g id="edge50" class="edge">
<title>form_treatment_plan:w&#45;&gt;groups:e</title>
<path fill="none" stroke="#000000" d="M691.4136,-126.4255C515.1144,-127.1956 456.4746,-142.9776 297,-232.3948 264.6491,-250.5339 274.0891,-290.3948 237,-290.3948"/>
<polygon fill="#000000" stroke="#000000" points="698,-126.4117 706.0076,-129.9948 702,-126.4033 706,-126.3948 706,-126.3948 706,-126.3948 702,-126.4033 705.9924,-122.7948 698,-126.4117 698,-126.4117"/>
<ellipse fill="none" stroke="#000000" cx="694.8" cy="-126.4185" rx="3.2" ry="3.2"/>
</g>
<!-- form_treatment_plan&#45;&gt;forms -->
<g id="edge51" class="edge">
<title>form_treatment_plan:w&#45;&gt;forms:e</title>
<path fill="none" stroke="#000000" d="M692.0601,-130.6138C682.9627,-138.0186 682.5603,-154.1186 677,-170.3948 657.5117,-227.4413 696.2835,-711.3948 636,-711.3948"/>
<polygon fill="#000000" stroke="#000000" points="698.343,-128.7123 707.0429,-129.8405 702.1715,-127.5536 706,-126.3948 706,-126.3948 706,-126.3948 702.1715,-127.5536 704.9571,-122.9492 698.343,-128.7123 698.343,-128.7123"/>
<ellipse fill="none" stroke="#000000" cx="695.2802" cy="-129.6393" rx="3.2" ry="3.2"/>
</g>
<!-- form_treatment_plan&#45;&gt;users -->
<g id="edge53" class="edge">
<title>form_treatment_plan:w&#45;&gt;users:e</title>
<path fill="none" stroke="#000000" d="M691.3583,-126.2115C442.257,-119.9779 311.054,42.0606 124,-129.3948 66.607,-182.0018 161.3553,-477.3948 83.5,-477.3948"/>
<polygon fill="#000000" stroke="#000000" points="698.0006,-126.2946 705.9549,-129.9945 702.0003,-126.3447 706,-126.3948 706,-126.3948 706,-126.3948 702.0003,-126.3447 706.0451,-122.7951 698.0006,-126.2946 698.0006,-126.2946"/>
<ellipse fill="none" stroke="#000000" cx="694.8009" cy="-126.2545" rx="3.2" ry="3.2"/>
</g>
<!-- form_treatment_plan&#45;&gt;patient_data -->
<g id="edge52" class="edge">
<title>form_treatment_plan:w&#45;&gt;patient_data:e</title>
<path fill="none" stroke="#000000" d="M692.356,-131.1085C684.3756,-138.9837 685.1014,-155.4302 677,-170.3948 659.4685,-202.7784 667.2195,-217.8133 644,-246.3948 591.1264,-311.4785 535.6413,-285.0501 490,-355.3948 449.0573,-418.4977 506.9608,-465.1615 457,-521.3948 407.3374,-577.2924 355.2541,-526.5187 297,-573.3948 268.9102,-595.9982 292.0548,-643.3948 256,-643.3948"/>
<polygon fill="#000000" stroke="#000000" points="698.4385,-129.0071 707.1755,-129.7975 702.2193,-127.701 706,-126.3948 706,-126.3948 706,-126.3948 702.2193,-127.701 704.8245,-122.9922 698.4385,-129.0071 698.4385,-129.0071"/>
<ellipse fill="none" stroke="#000000" cx="695.4139" cy="-130.0521" rx="3.2" ry="3.2"/>
</g>
</g>
</svg>
