<?xml version="1.0" encoding="UTF-8" standalone="no"?>
<!DOCTYPE svg PUBLIC "-//W3C//DTD SVG 1.1//EN"
 "http://www.w3.org/Graphics/SVG/1.1/DTD/svg11.dtd">
<!-- Generated by graphviz version 2.40.1 (20161225.0304)
 -->
<!-- Title: oneDegreeRelationshipsDiagram Pages: 1 -->
<svg width="536pt" height="1041pt"
 viewBox="0.00 0.00 536.00 1040.70" xmlns="http://www.w3.org/2000/svg" xmlns:xlink="http://www.w3.org/1999/xlink">
<g id="graph0" class="graph" transform="scale(1 1) rotate(0) translate(4 1036.7)">
<title>oneDegreeRelationshipsDiagram</title>
<polygon fill="#ffffff" stroke="transparent" points="-4,4 -4,-1036.7 532,-1036.7 532,4 -4,4"/>
<text text-anchor="middle" x="72.4936" y="-7.3" font-family="Helvetica,sans-Serif" font-size="11.00" fill="#000000">Generated by SchemaSpy</text>
<!-- form_eye_hpi -->
<g id="node1" class="node">
<title>form_eye_hpi</title>
<g id="a_node1"><a xlink:href="../../tables/form_eye_hpi.html" xlink:title="form_eye_hpi" target="_top">
<polygon fill="#ffffff" stroke="transparent" points="334,-38.2 334,-854.2 520,-854.2 520,-38.2 334,-38.2"/>
<polygon fill="#f5f5f5" stroke="transparent" points="336,-829.2 336,-852.2 518,-852.2 518,-829.2 336,-829.2"/>
<polygon fill="none" stroke="#000000" points="336,-829.2 336,-852.2 518,-852.2 518,-829.2 336,-829.2"/>
<text text-anchor="start" x="341" y="-837.8" font-family="Helvetica,sans-Serif" font-weight="bold" font-size="11.00" fill="#000000">form_eye_hpi</text>
<text text-anchor="start" x="483.0437" y="-837.3" font-family="Helvetica,sans-Serif" font-size="11.00" fill="#000000">[table]</text>
<polygon fill="none" stroke="#000000" points="336,-807.2 336,-829.2 451,-829.2 451,-807.2 336,-807.2"/>
<image xlink:href="../../images/primaryKeys.png" width="11px" height="12px" preserveAspectRatio="xMinYMin meet" x="341" y="-824.2"/>
<text text-anchor="start" x="356" y="-814.3" font-family="Helvetica,sans-Serif" font-size="11.00" fill="#000000">id</text>
<polygon fill="none" stroke="#000000" points="451,-807.2 451,-829.2 518,-829.2 518,-807.2 451,-807.2"/>
<text text-anchor="start" x="454" y="-814.9" font-family="Helvetica,sans-Serif" font-size="11.00" fill="#000000">bigint[19]</text>
<polygon fill="#ffffff" stroke="transparent" points="336,-785.2 336,-807.2 451,-807.2 451,-785.2 336,-785.2"/>
<polygon fill="none" stroke="#000000" points="336,-785.2 336,-807.2 451,-807.2 451,-785.2 336,-785.2"/>
<image xlink:href="../../images/foreignKeys.png" width="11px" height="12px" preserveAspectRatio="xMinYMin meet" x="341" y="-802.2"/>
<text text-anchor="start" x="356" y="-792.3" font-family="Helvetica,sans-Serif" font-size="11.00" fill="#000000">pid</text>
<polygon fill="none" stroke="#000000" points="451,-785.2 451,-807.2 518,-807.2 518,-785.2 451,-785.2"/>
<text text-anchor="start" x="454" y="-792.9" font-family="Helvetica,sans-Serif" font-size="11.00" fill="#000000">bigint[19]</text>
<polygon fill="none" stroke="#000000" points="336,-763.2 336,-785.2 451,-785.2 451,-763.2 336,-763.2"/>
<text text-anchor="start" x="356" y="-770.3" font-family="Helvetica,sans-Serif" font-size="11.00" fill="#000000">CC1</text>
<polygon fill="none" stroke="#000000" points="451,-763.2 451,-785.2 518,-785.2 518,-763.2 451,-763.2"/>
<text text-anchor="start" x="453.9365" y="-770.9" font-family="Helvetica,sans-Serif" font-size="11.00" fill="#000000">varchar[255]</text>
<polygon fill="none" stroke="#000000" points="336,-741.2 336,-763.2 451,-763.2 451,-741.2 336,-741.2"/>
<text text-anchor="start" x="356" y="-748.3" font-family="Helvetica,sans-Serif" font-size="11.00" fill="#000000">HPI1</text>
<polygon fill="none" stroke="#000000" points="451,-741.2 451,-763.2 518,-763.2 518,-741.2 451,-741.2"/>
<text text-anchor="start" x="454" y="-748.9" font-family="Helvetica,sans-Serif" font-size="11.00" fill="#000000">text[65535]</text>
<polygon fill="none" stroke="#000000" points="336,-719.2 336,-741.2 451,-741.2 451,-719.2 336,-719.2"/>
<text text-anchor="start" x="356" y="-726.3" font-family="Helvetica,sans-Serif" font-size="11.00" fill="#000000">QUALITY1</text>
<polygon fill="none" stroke="#000000" points="451,-719.2 451,-741.2 518,-741.2 518,-719.2 451,-719.2"/>
<text text-anchor="start" x="453.9365" y="-726.9" font-family="Helvetica,sans-Serif" font-size="11.00" fill="#000000">varchar[255]</text>
<polygon fill="none" stroke="#000000" points="336,-697.2 336,-719.2 451,-719.2 451,-697.2 336,-697.2"/>
<text text-anchor="start" x="356" y="-704.3" font-family="Helvetica,sans-Serif" font-size="11.00" fill="#000000">TIMING1</text>
<polygon fill="none" stroke="#000000" points="451,-697.2 451,-719.2 518,-719.2 518,-697.2 451,-697.2"/>
<text text-anchor="start" x="453.9365" y="-704.9" font-family="Helvetica,sans-Serif" font-size="11.00" fill="#000000">varchar[255]</text>
<polygon fill="none" stroke="#000000" points="336,-675.2 336,-697.2 451,-697.2 451,-675.2 336,-675.2"/>
<text text-anchor="start" x="356" y="-682.3" font-family="Helvetica,sans-Serif" font-size="11.00" fill="#000000">DURATION1</text>
<polygon fill="none" stroke="#000000" points="451,-675.2 451,-697.2 518,-697.2 518,-675.2 451,-675.2"/>
<text text-anchor="start" x="453.9365" y="-682.9" font-family="Helvetica,sans-Serif" font-size="11.00" fill="#000000">varchar[255]</text>
<polygon fill="none" stroke="#000000" points="336,-653.2 336,-675.2 451,-675.2 451,-653.2 336,-653.2"/>
<text text-anchor="start" x="356" y="-660.3" font-family="Helvetica,sans-Serif" font-size="11.00" fill="#000000">CONTEXT1</text>
<polygon fill="none" stroke="#000000" points="451,-653.2 451,-675.2 518,-675.2 518,-653.2 451,-653.2"/>
<text text-anchor="start" x="453.9365" y="-660.9" font-family="Helvetica,sans-Serif" font-size="11.00" fill="#000000">varchar[255]</text>
<polygon fill="none" stroke="#000000" points="336,-631.2 336,-653.2 451,-653.2 451,-631.2 336,-631.2"/>
<text text-anchor="start" x="356" y="-638.3" font-family="Helvetica,sans-Serif" font-size="11.00" fill="#000000">SEVERITY1</text>
<polygon fill="none" stroke="#000000" points="451,-631.2 451,-653.2 518,-653.2 518,-631.2 451,-631.2"/>
<text text-anchor="start" x="453.9365" y="-638.9" font-family="Helvetica,sans-Serif" font-size="11.00" fill="#000000">varchar[255]</text>
<polygon fill="none" stroke="#000000" points="336,-609.2 336,-631.2 451,-631.2 451,-609.2 336,-609.2"/>
<text text-anchor="start" x="356" y="-616.3" font-family="Helvetica,sans-Serif" font-size="11.00" fill="#000000">MODIFY1</text>
<polygon fill="none" stroke="#000000" points="451,-609.2 451,-631.2 518,-631.2 518,-609.2 451,-609.2"/>
<text text-anchor="start" x="453.9365" y="-616.9" font-family="Helvetica,sans-Serif" font-size="11.00" fill="#000000">varchar[255]</text>
<polygon fill="none" stroke="#000000" points="336,-587.2 336,-609.2 451,-609.2 451,-587.2 336,-587.2"/>
<text text-anchor="start" x="356" y="-594.3" font-family="Helvetica,sans-Serif" font-size="11.00" fill="#000000">ASSOCIATED1</text>
<polygon fill="none" stroke="#000000" points="451,-587.2 451,-609.2 518,-609.2 518,-587.2 451,-587.2"/>
<text text-anchor="start" x="453.9365" y="-594.9" font-family="Helvetica,sans-Serif" font-size="11.00" fill="#000000">varchar[255]</text>
<polygon fill="none" stroke="#000000" points="336,-565.2 336,-587.2 451,-587.2 451,-565.2 336,-565.2"/>
<text text-anchor="start" x="356" y="-572.3" font-family="Helvetica,sans-Serif" font-size="11.00" fill="#000000">LOCATION1</text>
<polygon fill="none" stroke="#000000" points="451,-565.2 451,-587.2 518,-587.2 518,-565.2 451,-565.2"/>
<text text-anchor="start" x="453.9365" y="-572.9" font-family="Helvetica,sans-Serif" font-size="11.00" fill="#000000">varchar[255]</text>
<polygon fill="none" stroke="#000000" points="336,-543.2 336,-565.2 451,-565.2 451,-543.2 336,-543.2"/>
<text text-anchor="start" x="356" y="-550.3" font-family="Helvetica,sans-Serif" font-size="11.00" fill="#000000">CHRONIC1</text>
<polygon fill="none" stroke="#000000" points="451,-543.2 451,-565.2 518,-565.2 518,-543.2 451,-543.2"/>
<text text-anchor="start" x="453.9365" y="-550.9" font-family="Helvetica,sans-Serif" font-size="11.00" fill="#000000">varchar[255]</text>
<polygon fill="none" stroke="#000000" points="336,-521.2 336,-543.2 451,-543.2 451,-521.2 336,-521.2"/>
<text text-anchor="start" x="356" y="-528.3" font-family="Helvetica,sans-Serif" font-size="11.00" fill="#000000">CHRONIC2</text>
<polygon fill="none" stroke="#000000" points="451,-521.2 451,-543.2 518,-543.2 518,-521.2 451,-521.2"/>
<text text-anchor="start" x="453.9365" y="-528.9" font-family="Helvetica,sans-Serif" font-size="11.00" fill="#000000">varchar[255]</text>
<polygon fill="none" stroke="#000000" points="336,-499.2 336,-521.2 451,-521.2 451,-499.2 336,-499.2"/>
<text text-anchor="start" x="356" y="-506.3" font-family="Helvetica,sans-Serif" font-size="11.00" fill="#000000">CHRONIC3</text>
<polygon fill="none" stroke="#000000" points="451,-499.2 451,-521.2 518,-521.2 518,-499.2 451,-499.2"/>
<text text-anchor="start" x="453.9365" y="-506.9" font-family="Helvetica,sans-Serif" font-size="11.00" fill="#000000">varchar[255]</text>
<polygon fill="none" stroke="#000000" points="336,-477.2 336,-499.2 451,-499.2 451,-477.2 336,-477.2"/>
<text text-anchor="start" x="356" y="-484.3" font-family="Helvetica,sans-Serif" font-size="11.00" fill="#000000">CC2</text>
<polygon fill="none" stroke="#000000" points="451,-477.2 451,-499.2 518,-499.2 518,-477.2 451,-477.2"/>
<text text-anchor="start" x="454" y="-484.9" font-family="Helvetica,sans-Serif" font-size="11.00" fill="#000000">text[65535]</text>
<polygon fill="none" stroke="#000000" points="336,-455.2 336,-477.2 451,-477.2 451,-455.2 336,-455.2"/>
<text text-anchor="start" x="356" y="-462.3" font-family="Helvetica,sans-Serif" font-size="11.00" fill="#000000">HPI2</text>
<polygon fill="none" stroke="#000000" points="451,-455.2 451,-477.2 518,-477.2 518,-455.2 451,-455.2"/>
<text text-anchor="start" x="454" y="-462.9" font-family="Helvetica,sans-Serif" font-size="11.00" fill="#000000">text[65535]</text>
<polygon fill="none" stroke="#000000" points="336,-433.2 336,-455.2 451,-455.2 451,-433.2 336,-433.2"/>
<text text-anchor="start" x="356" y="-440.3" font-family="Helvetica,sans-Serif" font-size="11.00" fill="#000000">QUALITY2</text>
<polygon fill="none" stroke="#000000" points="451,-433.2 451,-455.2 518,-455.2 518,-433.2 451,-433.2"/>
<text text-anchor="start" x="454" y="-440.9" font-family="Helvetica,sans-Serif" font-size="11.00" fill="#000000">text[65535]</text>
<polygon fill="none" stroke="#000000" points="336,-411.2 336,-433.2 451,-433.2 451,-411.2 336,-411.2"/>
<text text-anchor="start" x="356" y="-418.3" font-family="Helvetica,sans-Serif" font-size="11.00" fill="#000000">TIMING2</text>
<polygon fill="none" stroke="#000000" points="451,-411.2 451,-433.2 518,-433.2 518,-411.2 451,-411.2"/>
<text text-anchor="start" x="454" y="-418.9" font-family="Helvetica,sans-Serif" font-size="11.00" fill="#000000">text[65535]</text>
<polygon fill="none" stroke="#000000" points="336,-389.2 336,-411.2 451,-411.2 451,-389.2 336,-389.2"/>
<text text-anchor="start" x="356" y="-396.3" font-family="Helvetica,sans-Serif" font-size="11.00" fill="#000000">DURATION2</text>
<polygon fill="none" stroke="#000000" points="451,-389.2 451,-411.2 518,-411.2 518,-389.2 451,-389.2"/>
<text text-anchor="start" x="454" y="-396.9" font-family="Helvetica,sans-Serif" font-size="11.00" fill="#000000">text[65535]</text>
<polygon fill="none" stroke="#000000" points="336,-367.2 336,-389.2 451,-389.2 451,-367.2 336,-367.2"/>
<text text-anchor="start" x="356" y="-374.3" font-family="Helvetica,sans-Serif" font-size="11.00" fill="#000000">CONTEXT2</text>
<polygon fill="none" stroke="#000000" points="451,-367.2 451,-389.2 518,-389.2 518,-367.2 451,-367.2"/>
<text text-anchor="start" x="454" y="-374.9" font-family="Helvetica,sans-Serif" font-size="11.00" fill="#000000">text[65535]</text>
<polygon fill="none" stroke="#000000" points="336,-345.2 336,-367.2 451,-367.2 451,-345.2 336,-345.2"/>
<text text-anchor="start" x="356" y="-352.3" font-family="Helvetica,sans-Serif" font-size="11.00" fill="#000000">SEVERITY2</text>
<polygon fill="none" stroke="#000000" points="451,-345.2 451,-367.2 518,-367.2 518,-345.2 451,-345.2"/>
<text text-anchor="start" x="454" y="-352.9" font-family="Helvetica,sans-Serif" font-size="11.00" fill="#000000">text[65535]</text>
<polygon fill="none" stroke="#000000" points="336,-323.2 336,-345.2 451,-345.2 451,-323.2 336,-323.2"/>
<text text-anchor="start" x="356" y="-330.3" font-family="Helvetica,sans-Serif" font-size="11.00" fill="#000000">MODIFY2</text>
<polygon fill="none" stroke="#000000" points="451,-323.2 451,-345.2 518,-345.2 518,-323.2 451,-323.2"/>
<text text-anchor="start" x="454" y="-330.9" font-family="Helvetica,sans-Serif" font-size="11.00" fill="#000000">text[65535]</text>
<polygon fill="none" stroke="#000000" points="336,-301.2 336,-323.2 451,-323.2 451,-301.2 336,-301.2"/>
<text text-anchor="start" x="356" y="-308.3" font-family="Helvetica,sans-Serif" font-size="11.00" fill="#000000">ASSOCIATED2</text>
<polygon fill="none" stroke="#000000" points="451,-301.2 451,-323.2 518,-323.2 518,-301.2 451,-301.2"/>
<text text-anchor="start" x="454" y="-308.9" font-family="Helvetica,sans-Serif" font-size="11.00" fill="#000000">text[65535]</text>
<polygon fill="none" stroke="#000000" points="336,-279.2 336,-301.2 451,-301.2 451,-279.2 336,-279.2"/>
<text text-anchor="start" x="356" y="-286.3" font-family="Helvetica,sans-Serif" font-size="11.00" fill="#000000">LOCATION2</text>
<polygon fill="none" stroke="#000000" points="451,-279.2 451,-301.2 518,-301.2 518,-279.2 451,-279.2"/>
<text text-anchor="start" x="454" y="-286.9" font-family="Helvetica,sans-Serif" font-size="11.00" fill="#000000">text[65535]</text>
<polygon fill="none" stroke="#000000" points="336,-257.2 336,-279.2 451,-279.2 451,-257.2 336,-257.2"/>
<text text-anchor="start" x="356" y="-264.3" font-family="Helvetica,sans-Serif" font-size="11.00" fill="#000000">CC3</text>
<polygon fill="none" stroke="#000000" points="451,-257.2 451,-279.2 518,-279.2 518,-257.2 451,-257.2"/>
<text text-anchor="start" x="454" y="-264.9" font-family="Helvetica,sans-Serif" font-size="11.00" fill="#000000">text[65535]</text>
<polygon fill="none" stroke="#000000" points="336,-235.2 336,-257.2 451,-257.2 451,-235.2 336,-235.2"/>
<text text-anchor="start" x="356" y="-242.3" font-family="Helvetica,sans-Serif" font-size="11.00" fill="#000000">HPI3</text>
<polygon fill="none" stroke="#000000" points="451,-235.2 451,-257.2 518,-257.2 518,-235.2 451,-235.2"/>
<text text-anchor="start" x="454" y="-242.9" font-family="Helvetica,sans-Serif" font-size="11.00" fill="#000000">text[65535]</text>
<polygon fill="none" stroke="#000000" points="336,-213.2 336,-235.2 451,-235.2 451,-213.2 336,-213.2"/>
<text text-anchor="start" x="356" y="-220.3" font-family="Helvetica,sans-Serif" font-size="11.00" fill="#000000">QUALITY3</text>
<polygon fill="none" stroke="#000000" points="451,-213.2 451,-235.2 518,-235.2 518,-213.2 451,-213.2"/>
<text text-anchor="start" x="454" y="-220.9" font-family="Helvetica,sans-Serif" font-size="11.00" fill="#000000">text[65535]</text>
<polygon fill="none" stroke="#000000" points="336,-191.2 336,-213.2 451,-213.2 451,-191.2 336,-191.2"/>
<text text-anchor="start" x="356" y="-198.3" font-family="Helvetica,sans-Serif" font-size="11.00" fill="#000000">TIMING3</text>
<polygon fill="none" stroke="#000000" points="451,-191.2 451,-213.2 518,-213.2 518,-191.2 451,-191.2"/>
<text text-anchor="start" x="454" y="-198.9" font-family="Helvetica,sans-Serif" font-size="11.00" fill="#000000">text[65535]</text>
<polygon fill="none" stroke="#000000" points="336,-169.2 336,-191.2 451,-191.2 451,-169.2 336,-169.2"/>
<text text-anchor="start" x="356" y="-176.3" font-family="Helvetica,sans-Serif" font-size="11.00" fill="#000000">DURATION3</text>
<polygon fill="none" stroke="#000000" points="451,-169.2 451,-191.2 518,-191.2 518,-169.2 451,-169.2"/>
<text text-anchor="start" x="454" y="-176.9" font-family="Helvetica,sans-Serif" font-size="11.00" fill="#000000">text[65535]</text>
<polygon fill="none" stroke="#000000" points="336,-147.2 336,-169.2 451,-169.2 451,-147.2 336,-147.2"/>
<text text-anchor="start" x="356" y="-154.3" font-family="Helvetica,sans-Serif" font-size="11.00" fill="#000000">CONTEXT3</text>
<polygon fill="none" stroke="#000000" points="451,-147.2 451,-169.2 518,-169.2 518,-147.2 451,-147.2"/>
<text text-anchor="start" x="454" y="-154.9" font-family="Helvetica,sans-Serif" font-size="11.00" fill="#000000">text[65535]</text>
<polygon fill="none" stroke="#000000" points="336,-125.2 336,-147.2 451,-147.2 451,-125.2 336,-125.2"/>
<text text-anchor="start" x="356" y="-132.3" font-family="Helvetica,sans-Serif" font-size="11.00" fill="#000000">SEVERITY3</text>
<polygon fill="none" stroke="#000000" points="451,-125.2 451,-147.2 518,-147.2 518,-125.2 451,-125.2"/>
<text text-anchor="start" x="454" y="-132.9" font-family="Helvetica,sans-Serif" font-size="11.00" fill="#000000">text[65535]</text>
<polygon fill="none" stroke="#000000" points="336,-103.2 336,-125.2 451,-125.2 451,-103.2 336,-103.2"/>
<text text-anchor="start" x="356" y="-110.3" font-family="Helvetica,sans-Serif" font-size="11.00" fill="#000000">MODIFY3</text>
<polygon fill="none" stroke="#000000" points="451,-103.2 451,-125.2 518,-125.2 518,-103.2 451,-103.2"/>
<text text-anchor="start" x="454" y="-110.9" font-family="Helvetica,sans-Serif" font-size="11.00" fill="#000000">text[65535]</text>
<polygon fill="none" stroke="#000000" points="336,-81.2 336,-103.2 451,-103.2 451,-81.2 336,-81.2"/>
<text text-anchor="start" x="356" y="-88.3" font-family="Helvetica,sans-Serif" font-size="11.00" fill="#000000">ASSOCIATED3</text>
<polygon fill="none" stroke="#000000" points="451,-81.2 451,-103.2 518,-103.2 518,-81.2 451,-81.2"/>
<text text-anchor="start" x="454" y="-88.9" font-family="Helvetica,sans-Serif" font-size="11.00" fill="#000000">text[65535]</text>
<polygon fill="none" stroke="#000000" points="336,-59.2 336,-81.2 451,-81.2 451,-59.2 336,-59.2"/>
<text text-anchor="start" x="356" y="-66.3" font-family="Helvetica,sans-Serif" font-size="11.00" fill="#000000">LOCATION3</text>
<polygon fill="none" stroke="#000000" points="451,-59.2 451,-81.2 518,-81.2 518,-59.2 451,-59.2"/>
<text text-anchor="start" x="454" y="-66.9" font-family="Helvetica,sans-Serif" font-size="11.00" fill="#000000">text[65535]</text>
<polygon fill="#ffffff" stroke="transparent" points="336,-40.2 336,-59.2 398,-59.2 398,-40.2 336,-40.2"/>
<polygon fill="none" stroke="#000000" points="336,-40.2 336,-59.2 398,-59.2 398,-40.2 336,-40.2"/>
<text text-anchor="start" x="339" y="-46.3" font-family="Helvetica,sans-Serif" font-size="11.00" fill="#000000">&lt; 1</text>
<polygon fill="#ffffff" stroke="transparent" points="398,-40.2 398,-59.2 451,-59.2 451,-40.2 398,-40.2"/>
<polygon fill="none" stroke="#000000" points="398,-40.2 398,-59.2 451,-59.2 451,-40.2 398,-40.2"/>
<text text-anchor="start" x="441.8862" y="-46.3" font-family="Helvetica,sans-Serif" font-size="11.00" fill="#000000"> &#160;</text>
<polygon fill="#ffffff" stroke="transparent" points="451,-40.2 451,-59.2 518,-59.2 518,-40.2 451,-40.2"/>
<polygon fill="none" stroke="#000000" points="451,-40.2 451,-59.2 518,-59.2 518,-40.2 451,-40.2"/>
<text text-anchor="start" x="499.4053" y="-46.3" font-family="Helvetica,sans-Serif" font-size="11.00" fill="#000000">0 &gt;</text>
<polygon fill="none" stroke="#000000" stroke-width="2" points="335,-39.2 335,-853.2 519,-853.2 519,-39.2 335,-39.2"/>
</a>
</g>
</g>
<!-- patient_data -->
<g id="node2" class="node">
<title>patient_data</title>
<g id="a_node2"><a xlink:href="../../tables/patient_data.html" xlink:title="patient_data" target="_top">
<polygon fill="#ffffff" stroke="transparent" points="8,-637.7 8,-1028.7 285,-1028.7 285,-637.7 8,-637.7"/>
<polygon fill="#f5f5f5" stroke="transparent" points="8.5,-1005.2 8.5,-1028.2 285.5,-1028.2 285.5,-1005.2 8.5,-1005.2"/>
<polygon fill="none" stroke="#000000" points="8.5,-1005.2 8.5,-1028.2 285.5,-1028.2 285.5,-1005.2 8.5,-1005.2"/>
<text text-anchor="start" x="13.5" y="-1013.8" font-family="Helvetica,sans-Serif" font-weight="bold" font-size="11.00" fill="#000000">patient_data</text>
<text text-anchor="start" x="250.5437" y="-1013.3" font-family="Helvetica,sans-Serif" font-size="11.00" fill="#000000">[table]</text>
<polygon fill="none" stroke="#000000" points="8.5,-983.2 8.5,-1005.2 285.5,-1005.2 285.5,-983.2 8.5,-983.2"/>
<image xlink:href="../../images/primaryKeys.png" width="11px" height="12px" preserveAspectRatio="xMinYMin meet" x="13.5" y="-1000.2"/>
<text text-anchor="start" x="28.5" y="-990.3" font-family="Helvetica,sans-Serif" font-size="11.00" fill="#000000">id</text>
<polygon fill="#ffffff" stroke="transparent" points="8.5,-961.2 8.5,-983.2 285.5,-983.2 285.5,-961.2 8.5,-961.2"/>
<polygon fill="none" stroke="#000000" points="8.5,-961.2 8.5,-983.2 285.5,-983.2 285.5,-961.2 8.5,-961.2"/>
<text text-anchor="start" x="28.5" y="-968.3" font-family="Helvetica,sans-Serif" font-size="11.00" fill="#000000">uuid</text>
<polygon fill="#ffffff" stroke="transparent" points="8.5,-939.2 8.5,-961.2 285.5,-961.2 285.5,-939.2 8.5,-939.2"/>
<polygon fill="none" stroke="#000000" points="8.5,-939.2 8.5,-961.2 285.5,-961.2 285.5,-939.2 8.5,-939.2"/>
<text text-anchor="start" x="28.5" y="-946.3" font-family="Helvetica,sans-Serif" font-size="11.00" fill="#000000">fname</text>
<polygon fill="#ffffff" stroke="transparent" points="8.5,-917.2 8.5,-939.2 285.5,-939.2 285.5,-917.2 8.5,-917.2"/>
<polygon fill="none" stroke="#000000" points="8.5,-917.2 8.5,-939.2 285.5,-939.2 285.5,-917.2 8.5,-917.2"/>
<text text-anchor="start" x="28.5" y="-924.3" font-family="Helvetica,sans-Serif" font-size="11.00" fill="#000000">lname</text>
<polygon fill="#ffffff" stroke="transparent" points="8.5,-895.2 8.5,-917.2 285.5,-917.2 285.5,-895.2 8.5,-895.2"/>
<polygon fill="none" stroke="#000000" points="8.5,-895.2 8.5,-917.2 285.5,-917.2 285.5,-895.2 8.5,-895.2"/>
<text text-anchor="start" x="28.5" y="-902.3" font-family="Helvetica,sans-Serif" font-size="11.00" fill="#000000">DOB</text>
<polygon fill="none" stroke="#000000" points="8.5,-873.2 8.5,-895.2 285.5,-895.2 285.5,-873.2 8.5,-873.2"/>
<image xlink:href="../../images/foreignKeys.png" width="11px" height="12px" preserveAspectRatio="xMinYMin meet" x="13.5" y="-890.2"/>
<text text-anchor="start" x="28.5" y="-880.3" font-family="Helvetica,sans-Serif" font-size="11.00" fill="#000000">pharmacy_id</text>
<polygon fill="none" stroke="#000000" points="8.5,-851.2 8.5,-873.2 285.5,-873.2 285.5,-851.2 8.5,-851.2"/>
<image xlink:href="../../images/foreignKeys.png" width="11px" height="12px" preserveAspectRatio="xMinYMin meet" x="13.5" y="-868.2"/>
<text text-anchor="start" x="28.5" y="-858.3" font-family="Helvetica,sans-Serif" font-size="11.00" fill="#000000">providerID</text>
<polygon fill="none" stroke="#000000" points="8.5,-829.2 8.5,-851.2 285.5,-851.2 285.5,-829.2 8.5,-829.2"/>
<image xlink:href="../../images/foreignKeys.png" width="11px" height="12px" preserveAspectRatio="xMinYMin meet" x="13.5" y="-846.2"/>
<text text-anchor="start" x="28.5" y="-836.3" font-family="Helvetica,sans-Serif" font-size="11.00" fill="#000000">ref_providerID</text>
<polygon fill="none" stroke="#000000" points="8.5,-807.2 8.5,-829.2 285.5,-829.2 285.5,-807.2 8.5,-807.2"/>
<image xlink:href="../../images/foreignKeys.png" width="11px" height="12px" preserveAspectRatio="xMinYMin meet" x="13.5" y="-824.2"/>
<text text-anchor="start" x="28.5" y="-814.3" font-family="Helvetica,sans-Serif" font-size="11.00" fill="#000000">interpreter_needed</text>
<polygon fill="none" stroke="#000000" points="8.5,-785.2 8.5,-807.2 285.5,-807.2 285.5,-785.2 8.5,-785.2"/>
<image xlink:href="../../images/primaryKeys.png" width="11px" height="12px" preserveAspectRatio="xMinYMin meet" x="13.5" y="-802.2"/>
<text text-anchor="start" x="28.5" y="-792.3" font-family="Helvetica,sans-Serif" font-size="11.00" fill="#000000">pid</text>
<polygon fill="none" stroke="#000000" points="8.5,-763.2 8.5,-785.2 285.5,-785.2 285.5,-763.2 8.5,-763.2"/>
<image xlink:href="../../images/foreignKeys.png" width="11px" height="12px" preserveAspectRatio="xMinYMin meet" x="13.5" y="-780.2"/>
<text text-anchor="start" x="28.5" y="-770.3" font-family="Helvetica,sans-Serif" font-size="11.00" fill="#000000">advance_directive_user_authenticator</text>
<polygon fill="none" stroke="#000000" points="8.5,-741.2 8.5,-763.2 285.5,-763.2 285.5,-741.2 8.5,-741.2"/>
<image xlink:href="../../images/foreignKeys.png" width="11px" height="12px" preserveAspectRatio="xMinYMin meet" x="13.5" y="-758.2"/>
<text text-anchor="start" x="28.5" y="-748.3" font-family="Helvetica,sans-Serif" font-size="11.00" fill="#000000">created_by</text>
<polygon fill="none" stroke="#000000" points="8.5,-719.2 8.5,-741.2 285.5,-741.2 285.5,-719.2 8.5,-719.2"/>
<image xlink:href="../../images/foreignKeys.png" width="11px" height="12px" preserveAspectRatio="xMinYMin meet" x="13.5" y="-736.2"/>
<text text-anchor="start" x="28.5" y="-726.3" font-family="Helvetica,sans-Serif" font-size="11.00" fill="#000000">updated_by</text>
<polygon fill="none" stroke="#000000" points="8.5,-697.2 8.5,-719.2 285.5,-719.2 285.5,-697.2 8.5,-697.2"/>
<image xlink:href="../../images/foreignKeys.png" width="11px" height="12px" preserveAspectRatio="xMinYMin meet" x="13.5" y="-714.2"/>
<text text-anchor="start" x="28.5" y="-704.3" font-family="Helvetica,sans-Serif" font-size="11.00" fill="#000000">tribal_affiliations</text>
<polygon fill="none" stroke="#000000" points="8.5,-675.2 8.5,-697.2 285.5,-697.2 285.5,-675.2 8.5,-675.2"/>
<image xlink:href="../../images/foreignKeys.png" width="11px" height="12px" preserveAspectRatio="xMinYMin meet" x="13.5" y="-692.2"/>
<text text-anchor="start" x="28.5" y="-682.3" font-family="Helvetica,sans-Serif" font-size="11.00" fill="#000000">sex_identified</text>
<polygon fill="none" stroke="#000000" points="8.5,-656.2 8.5,-675.2 285.5,-675.2 285.5,-656.2 8.5,-656.2"/>
<text text-anchor="start" x="11.5" y="-662.3" font-family="Helvetica,sans-Serif" font-size="11.00" fill="#000000">...</text>
<polygon fill="#ffffff" stroke="transparent" points="8.5,-637.2 8.5,-656.2 137.5,-656.2 137.5,-637.2 8.5,-637.2"/>
<polygon fill="none" stroke="#000000" points="8.5,-637.2 8.5,-656.2 137.5,-656.2 137.5,-637.2 8.5,-637.2"/>
<text text-anchor="start" x="11.5" y="-643.3" font-family="Helvetica,sans-Serif" font-size="11.00" fill="#000000">&lt; 9</text>
<polygon fill="#ffffff" stroke="transparent" points="137.5,-637.2 137.5,-656.2 203.5,-656.2 203.5,-637.2 137.5,-637.2"/>
<polygon fill="none" stroke="#000000" points="137.5,-637.2 137.5,-656.2 203.5,-656.2 203.5,-637.2 137.5,-637.2"/>
<text text-anchor="start" x="194.3862" y="-643.3" font-family="Helvetica,sans-Serif" font-size="11.00" fill="#000000"> &#160;</text>
<polygon fill="#ffffff" stroke="transparent" points="203.5,-637.2 203.5,-656.2 285.5,-656.2 285.5,-637.2 203.5,-637.2"/>
<polygon fill="none" stroke="#000000" points="203.5,-637.2 203.5,-656.2 285.5,-656.2 285.5,-637.2 203.5,-637.2"/>
<text text-anchor="start" x="260.7904" y="-643.3" font-family="Helvetica,sans-Serif" font-size="11.00" fill="#000000">95 &gt;</text>
</a>
</g>
</g>
<!-- form_eye_hpi&#45;&gt;patient_data -->
<g id="edge1" class="edge">
<title>form_eye_hpi:w&#45;&gt;patient_data:e</title>
<path fill="none" stroke="#000000" d="M321.4203,-796.2C309.5435,-796.2 302.158,-796.2 285.5,-796.2"/>
<polygon fill="#000000" stroke="#000000" points="328,-796.2001 336,-799.8 332,-796.2 336,-796.2 336,-796.2 336,-796.2 332,-796.2 336,-792.6 328,-796.2001 328,-796.2001"/>
<ellipse fill="none" stroke="#000000" cx="324.8" cy="-796.2001" rx="3.2" ry="3.2"/>
</g>
</g>
</svg>
