<?xml version="1.0" encoding="UTF-8" standalone="no"?>
<!DOCTYPE svg PUBLIC "-//W3C//DTD SVG 1.1//EN"
 "http://www.w3.org/Graphics/SVG/1.1/DTD/svg11.dtd">
<!-- Generated by graphviz version 2.40.1 (20161225.0304)
 -->
<!-- Title: oneDegreeRelationshipsDiagram Pages: 1 -->
<svg width="560pt" height="931pt"
 viewBox="0.00 0.00 560.00 930.70" xmlns="http://www.w3.org/2000/svg" xmlns:xlink="http://www.w3.org/1999/xlink">
<g id="graph0" class="graph" transform="scale(1 1) rotate(0) translate(4 926.7)">
<title>oneDegreeRelationshipsDiagram</title>
<polygon fill="#ffffff" stroke="transparent" points="-4,4 -4,-926.7 556,-926.7 556,4 -4,4"/>
<text text-anchor="middle" x="72.4936" y="-7.3" font-family="Helvetica,sans-Serif" font-size="11.00" fill="#000000">Generated by SchemaSpy</text>
<!-- form_eye_external -->
<g id="node1" class="node">
<title>form_eye_external</title>
<g id="a_node1"><a xlink:href="../../tables/form_eye_external.html" xlink:title="form_eye_external" target="_top">
<polygon fill="#ffffff" stroke="transparent" points="334,-38.2 334,-744.2 544,-744.2 544,-38.2 334,-38.2"/>
<polygon fill="#f5f5f5" stroke="transparent" points="336,-719.2 336,-742.2 542,-742.2 542,-719.2 336,-719.2"/>
<polygon fill="none" stroke="#000000" points="336,-719.2 336,-742.2 542,-742.2 542,-719.2 336,-719.2"/>
<text text-anchor="start" x="341" y="-727.8" font-family="Helvetica,sans-Serif" font-weight="bold" font-size="11.00" fill="#000000">form_eye_external</text>
<text text-anchor="start" x="507.0437" y="-727.3" font-family="Helvetica,sans-Serif" font-size="11.00" fill="#000000">[table]</text>
<polygon fill="none" stroke="#000000" points="336,-697.2 336,-719.2 481,-719.2 481,-697.2 336,-697.2"/>
<image xlink:href="../../images/primaryKeys.png" width="11px" height="12px" preserveAspectRatio="xMinYMin meet" x="341" y="-714.2"/>
<text text-anchor="start" x="356" y="-704.3" font-family="Helvetica,sans-Serif" font-size="11.00" fill="#000000">id</text>
<polygon fill="none" stroke="#000000" points="481,-697.2 481,-719.2 542,-719.2 542,-697.2 481,-697.2"/>
<text text-anchor="start" x="484" y="-704.9" font-family="Helvetica,sans-Serif" font-size="11.00" fill="#000000">bigint[19]</text>
<polygon fill="#ffffff" stroke="transparent" points="336,-675.2 336,-697.2 481,-697.2 481,-675.2 336,-675.2"/>
<polygon fill="none" stroke="#000000" points="336,-675.2 336,-697.2 481,-697.2 481,-675.2 336,-675.2"/>
<image xlink:href="../../images/foreignKeys.png" width="11px" height="12px" preserveAspectRatio="xMinYMin meet" x="341" y="-692.2"/>
<text text-anchor="start" x="356" y="-682.3" font-family="Helvetica,sans-Serif" font-size="11.00" fill="#000000">pid</text>
<polygon fill="none" stroke="#000000" points="481,-675.2 481,-697.2 542,-697.2 542,-675.2 481,-675.2"/>
<text text-anchor="start" x="484" y="-682.9" font-family="Helvetica,sans-Serif" font-size="11.00" fill="#000000">bigint[19]</text>
<polygon fill="none" stroke="#000000" points="336,-653.2 336,-675.2 481,-675.2 481,-653.2 336,-653.2"/>
<text text-anchor="start" x="356" y="-660.3" font-family="Helvetica,sans-Serif" font-size="11.00" fill="#000000">RUL</text>
<polygon fill="none" stroke="#000000" points="481,-653.2 481,-675.2 542,-675.2 542,-653.2 481,-653.2"/>
<text text-anchor="start" x="484" y="-660.9" font-family="Helvetica,sans-Serif" font-size="11.00" fill="#000000">text[65535]</text>
<polygon fill="none" stroke="#000000" points="336,-631.2 336,-653.2 481,-653.2 481,-631.2 336,-631.2"/>
<text text-anchor="start" x="356" y="-638.3" font-family="Helvetica,sans-Serif" font-size="11.00" fill="#000000">LUL</text>
<polygon fill="none" stroke="#000000" points="481,-631.2 481,-653.2 542,-653.2 542,-631.2 481,-631.2"/>
<text text-anchor="start" x="484" y="-638.9" font-family="Helvetica,sans-Serif" font-size="11.00" fill="#000000">text[65535]</text>
<polygon fill="none" stroke="#000000" points="336,-609.2 336,-631.2 481,-631.2 481,-609.2 336,-609.2"/>
<text text-anchor="start" x="356" y="-616.3" font-family="Helvetica,sans-Serif" font-size="11.00" fill="#000000">RLL</text>
<polygon fill="none" stroke="#000000" points="481,-609.2 481,-631.2 542,-631.2 542,-609.2 481,-609.2"/>
<text text-anchor="start" x="484" y="-616.9" font-family="Helvetica,sans-Serif" font-size="11.00" fill="#000000">text[65535]</text>
<polygon fill="none" stroke="#000000" points="336,-587.2 336,-609.2 481,-609.2 481,-587.2 336,-587.2"/>
<text text-anchor="start" x="356" y="-594.3" font-family="Helvetica,sans-Serif" font-size="11.00" fill="#000000">LLL</text>
<polygon fill="none" stroke="#000000" points="481,-587.2 481,-609.2 542,-609.2 542,-587.2 481,-587.2"/>
<text text-anchor="start" x="484" y="-594.9" font-family="Helvetica,sans-Serif" font-size="11.00" fill="#000000">text[65535]</text>
<polygon fill="none" stroke="#000000" points="336,-565.2 336,-587.2 481,-587.2 481,-565.2 336,-565.2"/>
<text text-anchor="start" x="356" y="-572.3" font-family="Helvetica,sans-Serif" font-size="11.00" fill="#000000">RBROW</text>
<polygon fill="none" stroke="#000000" points="481,-565.2 481,-587.2 542,-587.2 542,-565.2 481,-565.2"/>
<text text-anchor="start" x="484" y="-572.9" font-family="Helvetica,sans-Serif" font-size="11.00" fill="#000000">text[65535]</text>
<polygon fill="none" stroke="#000000" points="336,-543.2 336,-565.2 481,-565.2 481,-543.2 336,-543.2"/>
<text text-anchor="start" x="356" y="-550.3" font-family="Helvetica,sans-Serif" font-size="11.00" fill="#000000">LBROW</text>
<polygon fill="none" stroke="#000000" points="481,-543.2 481,-565.2 542,-565.2 542,-543.2 481,-543.2"/>
<text text-anchor="start" x="484" y="-550.9" font-family="Helvetica,sans-Serif" font-size="11.00" fill="#000000">text[65535]</text>
<polygon fill="none" stroke="#000000" points="336,-521.2 336,-543.2 481,-543.2 481,-521.2 336,-521.2"/>
<text text-anchor="start" x="356" y="-528.3" font-family="Helvetica,sans-Serif" font-size="11.00" fill="#000000">RMCT</text>
<polygon fill="none" stroke="#000000" points="481,-521.2 481,-543.2 542,-543.2 542,-521.2 481,-521.2"/>
<text text-anchor="start" x="484" y="-528.9" font-family="Helvetica,sans-Serif" font-size="11.00" fill="#000000">text[65535]</text>
<polygon fill="none" stroke="#000000" points="336,-499.2 336,-521.2 481,-521.2 481,-499.2 336,-499.2"/>
<text text-anchor="start" x="356" y="-506.3" font-family="Helvetica,sans-Serif" font-size="11.00" fill="#000000">LMCT</text>
<polygon fill="none" stroke="#000000" points="481,-499.2 481,-521.2 542,-521.2 542,-499.2 481,-499.2"/>
<text text-anchor="start" x="484" y="-506.9" font-family="Helvetica,sans-Serif" font-size="11.00" fill="#000000">text[65535]</text>
<polygon fill="none" stroke="#000000" points="336,-477.2 336,-499.2 481,-499.2 481,-477.2 336,-477.2"/>
<text text-anchor="start" x="356" y="-484.3" font-family="Helvetica,sans-Serif" font-size="11.00" fill="#000000">RADNEXA</text>
<polygon fill="none" stroke="#000000" points="481,-477.2 481,-499.2 542,-499.2 542,-477.2 481,-477.2"/>
<text text-anchor="start" x="484" y="-484.9" font-family="Helvetica,sans-Serif" font-size="11.00" fill="#000000">text[65535]</text>
<polygon fill="none" stroke="#000000" points="336,-455.2 336,-477.2 481,-477.2 481,-455.2 336,-455.2"/>
<text text-anchor="start" x="356" y="-462.3" font-family="Helvetica,sans-Serif" font-size="11.00" fill="#000000">LADNEXA</text>
<polygon fill="none" stroke="#000000" points="481,-455.2 481,-477.2 542,-477.2 542,-455.2 481,-455.2"/>
<text text-anchor="start" x="484" y="-462.9" font-family="Helvetica,sans-Serif" font-size="11.00" fill="#000000">text[65535]</text>
<polygon fill="none" stroke="#000000" points="336,-433.2 336,-455.2 481,-455.2 481,-433.2 336,-433.2"/>
<text text-anchor="start" x="356" y="-440.3" font-family="Helvetica,sans-Serif" font-size="11.00" fill="#000000">RMRD</text>
<polygon fill="none" stroke="#000000" points="481,-433.2 481,-455.2 542,-455.2 542,-433.2 481,-433.2"/>
<text text-anchor="start" x="483.994" y="-440.9" font-family="Helvetica,sans-Serif" font-size="11.00" fill="#000000">varchar[25]</text>
<polygon fill="none" stroke="#000000" points="336,-411.2 336,-433.2 481,-433.2 481,-411.2 336,-411.2"/>
<text text-anchor="start" x="356" y="-418.3" font-family="Helvetica,sans-Serif" font-size="11.00" fill="#000000">LMRD</text>
<polygon fill="none" stroke="#000000" points="481,-411.2 481,-433.2 542,-433.2 542,-411.2 481,-411.2"/>
<text text-anchor="start" x="483.994" y="-418.9" font-family="Helvetica,sans-Serif" font-size="11.00" fill="#000000">varchar[25]</text>
<polygon fill="none" stroke="#000000" points="336,-389.2 336,-411.2 481,-411.2 481,-389.2 336,-389.2"/>
<text text-anchor="start" x="356" y="-396.3" font-family="Helvetica,sans-Serif" font-size="11.00" fill="#000000">RLF</text>
<polygon fill="none" stroke="#000000" points="481,-389.2 481,-411.2 542,-411.2 542,-389.2 481,-389.2"/>
<text text-anchor="start" x="483.994" y="-396.9" font-family="Helvetica,sans-Serif" font-size="11.00" fill="#000000">varchar[25]</text>
<polygon fill="none" stroke="#000000" points="336,-367.2 336,-389.2 481,-389.2 481,-367.2 336,-367.2"/>
<text text-anchor="start" x="356" y="-374.3" font-family="Helvetica,sans-Serif" font-size="11.00" fill="#000000">LLF</text>
<polygon fill="none" stroke="#000000" points="481,-367.2 481,-389.2 542,-389.2 542,-367.2 481,-367.2"/>
<text text-anchor="start" x="483.994" y="-374.9" font-family="Helvetica,sans-Serif" font-size="11.00" fill="#000000">varchar[25]</text>
<polygon fill="none" stroke="#000000" points="336,-345.2 336,-367.2 481,-367.2 481,-345.2 336,-345.2"/>
<text text-anchor="start" x="356" y="-352.3" font-family="Helvetica,sans-Serif" font-size="11.00" fill="#000000">RVFISSURE</text>
<polygon fill="none" stroke="#000000" points="481,-345.2 481,-367.2 542,-367.2 542,-345.2 481,-345.2"/>
<text text-anchor="start" x="483.994" y="-352.9" font-family="Helvetica,sans-Serif" font-size="11.00" fill="#000000">varchar[25]</text>
<polygon fill="none" stroke="#000000" points="336,-323.2 336,-345.2 481,-345.2 481,-323.2 336,-323.2"/>
<text text-anchor="start" x="356" y="-330.3" font-family="Helvetica,sans-Serif" font-size="11.00" fill="#000000">LVFISSURE</text>
<polygon fill="none" stroke="#000000" points="481,-323.2 481,-345.2 542,-345.2 542,-323.2 481,-323.2"/>
<text text-anchor="start" x="483.994" y="-330.9" font-family="Helvetica,sans-Serif" font-size="11.00" fill="#000000">varchar[25]</text>
<polygon fill="none" stroke="#000000" points="336,-301.2 336,-323.2 481,-323.2 481,-301.2 336,-301.2"/>
<text text-anchor="start" x="356" y="-308.3" font-family="Helvetica,sans-Serif" font-size="11.00" fill="#000000">ODHERTEL</text>
<polygon fill="none" stroke="#000000" points="481,-301.2 481,-323.2 542,-323.2 542,-301.2 481,-301.2"/>
<text text-anchor="start" x="483.994" y="-308.9" font-family="Helvetica,sans-Serif" font-size="11.00" fill="#000000">varchar[25]</text>
<polygon fill="none" stroke="#000000" points="336,-279.2 336,-301.2 481,-301.2 481,-279.2 336,-279.2"/>
<text text-anchor="start" x="356" y="-286.3" font-family="Helvetica,sans-Serif" font-size="11.00" fill="#000000">OSHERTEL</text>
<polygon fill="none" stroke="#000000" points="481,-279.2 481,-301.2 542,-301.2 542,-279.2 481,-279.2"/>
<text text-anchor="start" x="483.994" y="-286.9" font-family="Helvetica,sans-Serif" font-size="11.00" fill="#000000">varchar[25]</text>
<polygon fill="none" stroke="#000000" points="336,-257.2 336,-279.2 481,-279.2 481,-257.2 336,-257.2"/>
<text text-anchor="start" x="356" y="-264.3" font-family="Helvetica,sans-Serif" font-size="11.00" fill="#000000">HERTELBASE</text>
<polygon fill="none" stroke="#000000" points="481,-257.2 481,-279.2 542,-279.2 542,-257.2 481,-257.2"/>
<text text-anchor="start" x="483.994" y="-264.9" font-family="Helvetica,sans-Serif" font-size="11.00" fill="#000000">varchar[25]</text>
<polygon fill="none" stroke="#000000" points="336,-235.2 336,-257.2 481,-257.2 481,-235.2 336,-235.2"/>
<text text-anchor="start" x="356" y="-242.3" font-family="Helvetica,sans-Serif" font-size="11.00" fill="#000000">RCAROTID</text>
<polygon fill="none" stroke="#000000" points="481,-235.2 481,-257.2 542,-257.2 542,-235.2 481,-235.2"/>
<text text-anchor="start" x="484" y="-242.9" font-family="Helvetica,sans-Serif" font-size="11.00" fill="#000000">text[65535]</text>
<polygon fill="none" stroke="#000000" points="336,-213.2 336,-235.2 481,-235.2 481,-213.2 336,-213.2"/>
<text text-anchor="start" x="356" y="-220.3" font-family="Helvetica,sans-Serif" font-size="11.00" fill="#000000">LCAROTID</text>
<polygon fill="none" stroke="#000000" points="481,-213.2 481,-235.2 542,-235.2 542,-213.2 481,-213.2"/>
<text text-anchor="start" x="484" y="-220.9" font-family="Helvetica,sans-Serif" font-size="11.00" fill="#000000">text[65535]</text>
<polygon fill="none" stroke="#000000" points="336,-191.2 336,-213.2 481,-213.2 481,-191.2 336,-191.2"/>
<text text-anchor="start" x="356" y="-198.3" font-family="Helvetica,sans-Serif" font-size="11.00" fill="#000000">RTEMPART</text>
<polygon fill="none" stroke="#000000" points="481,-191.2 481,-213.2 542,-213.2 542,-191.2 481,-191.2"/>
<text text-anchor="start" x="484" y="-198.9" font-family="Helvetica,sans-Serif" font-size="11.00" fill="#000000">text[65535]</text>
<polygon fill="none" stroke="#000000" points="336,-169.2 336,-191.2 481,-191.2 481,-169.2 336,-169.2"/>
<text text-anchor="start" x="356" y="-176.3" font-family="Helvetica,sans-Serif" font-size="11.00" fill="#000000">LTEMPART</text>
<polygon fill="none" stroke="#000000" points="481,-169.2 481,-191.2 542,-191.2 542,-169.2 481,-169.2"/>
<text text-anchor="start" x="484" y="-176.9" font-family="Helvetica,sans-Serif" font-size="11.00" fill="#000000">text[65535]</text>
<polygon fill="none" stroke="#000000" points="336,-147.2 336,-169.2 481,-169.2 481,-147.2 336,-147.2"/>
<text text-anchor="start" x="356" y="-154.3" font-family="Helvetica,sans-Serif" font-size="11.00" fill="#000000">RCNV</text>
<polygon fill="none" stroke="#000000" points="481,-147.2 481,-169.2 542,-169.2 542,-147.2 481,-147.2"/>
<text text-anchor="start" x="484" y="-154.9" font-family="Helvetica,sans-Serif" font-size="11.00" fill="#000000">text[65535]</text>
<polygon fill="none" stroke="#000000" points="336,-125.2 336,-147.2 481,-147.2 481,-125.2 336,-125.2"/>
<text text-anchor="start" x="356" y="-132.3" font-family="Helvetica,sans-Serif" font-size="11.00" fill="#000000">LCNV</text>
<polygon fill="none" stroke="#000000" points="481,-125.2 481,-147.2 542,-147.2 542,-125.2 481,-125.2"/>
<text text-anchor="start" x="484" y="-132.9" font-family="Helvetica,sans-Serif" font-size="11.00" fill="#000000">text[65535]</text>
<polygon fill="none" stroke="#000000" points="336,-103.2 336,-125.2 481,-125.2 481,-103.2 336,-103.2"/>
<text text-anchor="start" x="356" y="-110.3" font-family="Helvetica,sans-Serif" font-size="11.00" fill="#000000">RCNVII</text>
<polygon fill="none" stroke="#000000" points="481,-103.2 481,-125.2 542,-125.2 542,-103.2 481,-103.2"/>
<text text-anchor="start" x="484" y="-110.9" font-family="Helvetica,sans-Serif" font-size="11.00" fill="#000000">text[65535]</text>
<polygon fill="none" stroke="#000000" points="336,-81.2 336,-103.2 481,-103.2 481,-81.2 336,-81.2"/>
<text text-anchor="start" x="356" y="-88.3" font-family="Helvetica,sans-Serif" font-size="11.00" fill="#000000">LCNVII</text>
<polygon fill="none" stroke="#000000" points="481,-81.2 481,-103.2 542,-103.2 542,-81.2 481,-81.2"/>
<text text-anchor="start" x="484" y="-88.9" font-family="Helvetica,sans-Serif" font-size="11.00" fill="#000000">text[65535]</text>
<polygon fill="none" stroke="#000000" points="336,-59.2 336,-81.2 481,-81.2 481,-59.2 336,-59.2"/>
<text text-anchor="start" x="356" y="-66.3" font-family="Helvetica,sans-Serif" font-size="11.00" fill="#000000">EXT_COMMENTS</text>
<polygon fill="none" stroke="#000000" points="481,-59.2 481,-81.2 542,-81.2 542,-59.2 481,-59.2"/>
<text text-anchor="start" x="484" y="-66.9" font-family="Helvetica,sans-Serif" font-size="11.00" fill="#000000">text[65535]</text>
<polygon fill="#ffffff" stroke="transparent" points="336,-40.2 336,-59.2 413,-59.2 413,-40.2 336,-40.2"/>
<polygon fill="none" stroke="#000000" points="336,-40.2 336,-59.2 413,-59.2 413,-40.2 336,-40.2"/>
<text text-anchor="start" x="339" y="-46.3" font-family="Helvetica,sans-Serif" font-size="11.00" fill="#000000">&lt; 1</text>
<polygon fill="#ffffff" stroke="transparent" points="413,-40.2 413,-59.2 481,-59.2 481,-40.2 413,-40.2"/>
<polygon fill="none" stroke="#000000" points="413,-40.2 413,-59.2 481,-59.2 481,-40.2 413,-40.2"/>
<text text-anchor="start" x="471.8862" y="-46.3" font-family="Helvetica,sans-Serif" font-size="11.00" fill="#000000"> &#160;</text>
<polygon fill="#ffffff" stroke="transparent" points="481,-40.2 481,-59.2 542,-59.2 542,-40.2 481,-40.2"/>
<polygon fill="none" stroke="#000000" points="481,-40.2 481,-59.2 542,-59.2 542,-40.2 481,-40.2"/>
<text text-anchor="start" x="523.4053" y="-46.3" font-family="Helvetica,sans-Serif" font-size="11.00" fill="#000000">0 &gt;</text>
<polygon fill="none" stroke="#000000" stroke-width="2" points="335,-39.2 335,-743.2 543,-743.2 543,-39.2 335,-39.2"/>
</a>
</g>
</g>
<!-- patient_data -->
<g id="node2" class="node">
<title>patient_data</title>
<g id="a_node2"><a xlink:href="../../tables/patient_data.html" xlink:title="patient_data" target="_top">
<polygon fill="#ffffff" stroke="transparent" points="8,-527.7 8,-918.7 285,-918.7 285,-527.7 8,-527.7"/>
<polygon fill="#f5f5f5" stroke="transparent" points="8.5,-895.2 8.5,-918.2 285.5,-918.2 285.5,-895.2 8.5,-895.2"/>
<polygon fill="none" stroke="#000000" points="8.5,-895.2 8.5,-918.2 285.5,-918.2 285.5,-895.2 8.5,-895.2"/>
<text text-anchor="start" x="13.5" y="-903.8" font-family="Helvetica,sans-Serif" font-weight="bold" font-size="11.00" fill="#000000">patient_data</text>
<text text-anchor="start" x="250.5437" y="-903.3" font-family="Helvetica,sans-Serif" font-size="11.00" fill="#000000">[table]</text>
<polygon fill="none" stroke="#000000" points="8.5,-873.2 8.5,-895.2 285.5,-895.2 285.5,-873.2 8.5,-873.2"/>
<image xlink:href="../../images/primaryKeys.png" width="11px" height="12px" preserveAspectRatio="xMinYMin meet" x="13.5" y="-890.2"/>
<text text-anchor="start" x="28.5" y="-880.3" font-family="Helvetica,sans-Serif" font-size="11.00" fill="#000000">id</text>
<polygon fill="#ffffff" stroke="transparent" points="8.5,-851.2 8.5,-873.2 285.5,-873.2 285.5,-851.2 8.5,-851.2"/>
<polygon fill="none" stroke="#000000" points="8.5,-851.2 8.5,-873.2 285.5,-873.2 285.5,-851.2 8.5,-851.2"/>
<text text-anchor="start" x="28.5" y="-858.3" font-family="Helvetica,sans-Serif" font-size="11.00" fill="#000000">uuid</text>
<polygon fill="#ffffff" stroke="transparent" points="8.5,-829.2 8.5,-851.2 285.5,-851.2 285.5,-829.2 8.5,-829.2"/>
<polygon fill="none" stroke="#000000" points="8.5,-829.2 8.5,-851.2 285.5,-851.2 285.5,-829.2 8.5,-829.2"/>
<text text-anchor="start" x="28.5" y="-836.3" font-family="Helvetica,sans-Serif" font-size="11.00" fill="#000000">fname</text>
<polygon fill="#ffffff" stroke="transparent" points="8.5,-807.2 8.5,-829.2 285.5,-829.2 285.5,-807.2 8.5,-807.2"/>
<polygon fill="none" stroke="#000000" points="8.5,-807.2 8.5,-829.2 285.5,-829.2 285.5,-807.2 8.5,-807.2"/>
<text text-anchor="start" x="28.5" y="-814.3" font-family="Helvetica,sans-Serif" font-size="11.00" fill="#000000">lname</text>
<polygon fill="#ffffff" stroke="transparent" points="8.5,-785.2 8.5,-807.2 285.5,-807.2 285.5,-785.2 8.5,-785.2"/>
<polygon fill="none" stroke="#000000" points="8.5,-785.2 8.5,-807.2 285.5,-807.2 285.5,-785.2 8.5,-785.2"/>
<text text-anchor="start" x="28.5" y="-792.3" font-family="Helvetica,sans-Serif" font-size="11.00" fill="#000000">DOB</text>
<polygon fill="none" stroke="#000000" points="8.5,-763.2 8.5,-785.2 285.5,-785.2 285.5,-763.2 8.5,-763.2"/>
<image xlink:href="../../images/foreignKeys.png" width="11px" height="12px" preserveAspectRatio="xMinYMin meet" x="13.5" y="-780.2"/>
<text text-anchor="start" x="28.5" y="-770.3" font-family="Helvetica,sans-Serif" font-size="11.00" fill="#000000">pharmacy_id</text>
<polygon fill="none" stroke="#000000" points="8.5,-741.2 8.5,-763.2 285.5,-763.2 285.5,-741.2 8.5,-741.2"/>
<image xlink:href="../../images/foreignKeys.png" width="11px" height="12px" preserveAspectRatio="xMinYMin meet" x="13.5" y="-758.2"/>
<text text-anchor="start" x="28.5" y="-748.3" font-family="Helvetica,sans-Serif" font-size="11.00" fill="#000000">providerID</text>
<polygon fill="none" stroke="#000000" points="8.5,-719.2 8.5,-741.2 285.5,-741.2 285.5,-719.2 8.5,-719.2"/>
<image xlink:href="../../images/foreignKeys.png" width="11px" height="12px" preserveAspectRatio="xMinYMin meet" x="13.5" y="-736.2"/>
<text text-anchor="start" x="28.5" y="-726.3" font-family="Helvetica,sans-Serif" font-size="11.00" fill="#000000">ref_providerID</text>
<polygon fill="none" stroke="#000000" points="8.5,-697.2 8.5,-719.2 285.5,-719.2 285.5,-697.2 8.5,-697.2"/>
<image xlink:href="../../images/foreignKeys.png" width="11px" height="12px" preserveAspectRatio="xMinYMin meet" x="13.5" y="-714.2"/>
<text text-anchor="start" x="28.5" y="-704.3" font-family="Helvetica,sans-Serif" font-size="11.00" fill="#000000">interpreter_needed</text>
<polygon fill="none" stroke="#000000" points="8.5,-675.2 8.5,-697.2 285.5,-697.2 285.5,-675.2 8.5,-675.2"/>
<image xlink:href="../../images/primaryKeys.png" width="11px" height="12px" preserveAspectRatio="xMinYMin meet" x="13.5" y="-692.2"/>
<text text-anchor="start" x="28.5" y="-682.3" font-family="Helvetica,sans-Serif" font-size="11.00" fill="#000000">pid</text>
<polygon fill="none" stroke="#000000" points="8.5,-653.2 8.5,-675.2 285.5,-675.2 285.5,-653.2 8.5,-653.2"/>
<image xlink:href="../../images/foreignKeys.png" width="11px" height="12px" preserveAspectRatio="xMinYMin meet" x="13.5" y="-670.2"/>
<text text-anchor="start" x="28.5" y="-660.3" font-family="Helvetica,sans-Serif" font-size="11.00" fill="#000000">advance_directive_user_authenticator</text>
<polygon fill="none" stroke="#000000" points="8.5,-631.2 8.5,-653.2 285.5,-653.2 285.5,-631.2 8.5,-631.2"/>
<image xlink:href="../../images/foreignKeys.png" width="11px" height="12px" preserveAspectRatio="xMinYMin meet" x="13.5" y="-648.2"/>
<text text-anchor="start" x="28.5" y="-638.3" font-family="Helvetica,sans-Serif" font-size="11.00" fill="#000000">created_by</text>
<polygon fill="none" stroke="#000000" points="8.5,-609.2 8.5,-631.2 285.5,-631.2 285.5,-609.2 8.5,-609.2"/>
<image xlink:href="../../images/foreignKeys.png" width="11px" height="12px" preserveAspectRatio="xMinYMin meet" x="13.5" y="-626.2"/>
<text text-anchor="start" x="28.5" y="-616.3" font-family="Helvetica,sans-Serif" font-size="11.00" fill="#000000">updated_by</text>
<polygon fill="none" stroke="#000000" points="8.5,-587.2 8.5,-609.2 285.5,-609.2 285.5,-587.2 8.5,-587.2"/>
<image xlink:href="../../images/foreignKeys.png" width="11px" height="12px" preserveAspectRatio="xMinYMin meet" x="13.5" y="-604.2"/>
<text text-anchor="start" x="28.5" y="-594.3" font-family="Helvetica,sans-Serif" font-size="11.00" fill="#000000">tribal_affiliations</text>
<polygon fill="none" stroke="#000000" points="8.5,-565.2 8.5,-587.2 285.5,-587.2 285.5,-565.2 8.5,-565.2"/>
<image xlink:href="../../images/foreignKeys.png" width="11px" height="12px" preserveAspectRatio="xMinYMin meet" x="13.5" y="-582.2"/>
<text text-anchor="start" x="28.5" y="-572.3" font-family="Helvetica,sans-Serif" font-size="11.00" fill="#000000">sex_identified</text>
<polygon fill="none" stroke="#000000" points="8.5,-546.2 8.5,-565.2 285.5,-565.2 285.5,-546.2 8.5,-546.2"/>
<text text-anchor="start" x="11.5" y="-552.3" font-family="Helvetica,sans-Serif" font-size="11.00" fill="#000000">...</text>
<polygon fill="#ffffff" stroke="transparent" points="8.5,-527.2 8.5,-546.2 137.5,-546.2 137.5,-527.2 8.5,-527.2"/>
<polygon fill="none" stroke="#000000" points="8.5,-527.2 8.5,-546.2 137.5,-546.2 137.5,-527.2 8.5,-527.2"/>
<text text-anchor="start" x="11.5" y="-533.3" font-family="Helvetica,sans-Serif" font-size="11.00" fill="#000000">&lt; 9</text>
<polygon fill="#ffffff" stroke="transparent" points="137.5,-527.2 137.5,-546.2 203.5,-546.2 203.5,-527.2 137.5,-527.2"/>
<polygon fill="none" stroke="#000000" points="137.5,-527.2 137.5,-546.2 203.5,-546.2 203.5,-527.2 137.5,-527.2"/>
<text text-anchor="start" x="194.3862" y="-533.3" font-family="Helvetica,sans-Serif" font-size="11.00" fill="#000000"> &#160;</text>
<polygon fill="#ffffff" stroke="transparent" points="203.5,-527.2 203.5,-546.2 285.5,-546.2 285.5,-527.2 203.5,-527.2"/>
<polygon fill="none" stroke="#000000" points="203.5,-527.2 203.5,-546.2 285.5,-546.2 285.5,-527.2 203.5,-527.2"/>
<text text-anchor="start" x="260.7904" y="-533.3" font-family="Helvetica,sans-Serif" font-size="11.00" fill="#000000">95 &gt;</text>
</a>
</g>
</g>
<!-- form_eye_external&#45;&gt;patient_data -->
<g id="edge1" class="edge">
<title>form_eye_external:w&#45;&gt;patient_data:e</title>
<path fill="none" stroke="#000000" d="M321.4203,-686.2C309.5435,-686.2 302.158,-686.2 285.5,-686.2"/>
<polygon fill="#000000" stroke="#000000" points="328,-686.2001 336,-689.8 332,-686.2 336,-686.2 336,-686.2 336,-686.2 332,-686.2 336,-682.6 328,-686.2001 328,-686.2001"/>
<ellipse fill="none" stroke="#000000" cx="324.8" cy="-686.2001" rx="3.2" ry="3.2"/>
</g>
</g>
</svg>
