<?xml version="1.0" encoding="UTF-8" standalone="no"?>
<!DOCTYPE svg PUBLIC "-//W3C//DTD SVG 1.1//EN"
 "http://www.w3.org/Graphics/SVG/1.1/DTD/svg11.dtd">
<!-- Generated by graphviz version 2.40.1 (20161225.0304)
 -->
<!-- Title: oneDegreeRelationshipsDiagram Pages: 1 -->
<svg width="575pt" height="667pt"
 viewBox="0.00 0.00 575.00 666.70" xmlns="http://www.w3.org/2000/svg" xmlns:xlink="http://www.w3.org/1999/xlink">
<g id="graph0" class="graph" transform="scale(1 1) rotate(0) translate(4 662.7)">
<title>oneDegreeRelationshipsDiagram</title>
<polygon fill="#ffffff" stroke="transparent" points="-4,4 -4,-662.7 571,-662.7 571,4 -4,4"/>
<text text-anchor="middle" x="72.4936" y="-7.3" font-family="Helvetica,sans-Serif" font-size="11.00" fill="#000000">Generated by SchemaSpy</text>
<!-- form_eye_biometrics -->
<g id="node1" class="node">
<title>form_eye_biometrics</title>
<g id="a_node1"><a xlink:href="../../tables/form_eye_biometrics.html" xlink:title="form_eye_biometrics" target="_top">
<polygon fill="#ffffff" stroke="transparent" points="334,-38.2 334,-480.2 559,-480.2 559,-38.2 334,-38.2"/>
<polygon fill="#f5f5f5" stroke="transparent" points="336.5,-455.2 336.5,-478.2 557.5,-478.2 557.5,-455.2 336.5,-455.2"/>
<polygon fill="none" stroke="#000000" points="336.5,-455.2 336.5,-478.2 557.5,-478.2 557.5,-455.2 336.5,-455.2"/>
<text text-anchor="start" x="341.5" y="-463.8" font-family="Helvetica,sans-Serif" font-weight="bold" font-size="11.00" fill="#000000">form_eye_biometrics</text>
<text text-anchor="start" x="522.5437" y="-463.3" font-family="Helvetica,sans-Serif" font-size="11.00" fill="#000000">[table]</text>
<polygon fill="none" stroke="#000000" points="336.5,-433.2 336.5,-455.2 496.5,-455.2 496.5,-433.2 336.5,-433.2"/>
<image xlink:href="../../images/primaryKeys.png" width="11px" height="12px" preserveAspectRatio="xMinYMin meet" x="341.5" y="-450.2"/>
<text text-anchor="start" x="356.5" y="-440.3" font-family="Helvetica,sans-Serif" font-size="11.00" fill="#000000">id</text>
<polygon fill="none" stroke="#000000" points="496.5,-433.2 496.5,-455.2 557.5,-455.2 557.5,-433.2 496.5,-433.2"/>
<text text-anchor="start" x="499.5" y="-440.9" font-family="Helvetica,sans-Serif" font-size="11.00" fill="#000000">bigint[19]</text>
<polygon fill="#ffffff" stroke="transparent" points="336.5,-411.2 336.5,-433.2 496.5,-433.2 496.5,-411.2 336.5,-411.2"/>
<polygon fill="none" stroke="#000000" points="336.5,-411.2 336.5,-433.2 496.5,-433.2 496.5,-411.2 336.5,-411.2"/>
<image xlink:href="../../images/foreignKeys.png" width="11px" height="12px" preserveAspectRatio="xMinYMin meet" x="341.5" y="-428.2"/>
<text text-anchor="start" x="356.5" y="-418.3" font-family="Helvetica,sans-Serif" font-size="11.00" fill="#000000">pid</text>
<polygon fill="none" stroke="#000000" points="496.5,-411.2 496.5,-433.2 557.5,-433.2 557.5,-411.2 496.5,-411.2"/>
<text text-anchor="start" x="499.5" y="-418.9" font-family="Helvetica,sans-Serif" font-size="11.00" fill="#000000">bigint[19]</text>
<polygon fill="none" stroke="#000000" points="336.5,-389.2 336.5,-411.2 496.5,-411.2 496.5,-389.2 336.5,-389.2"/>
<text text-anchor="start" x="356.5" y="-396.3" font-family="Helvetica,sans-Serif" font-size="11.00" fill="#000000">ODK1</text>
<polygon fill="none" stroke="#000000" points="496.5,-389.2 496.5,-411.2 557.5,-411.2 557.5,-389.2 496.5,-389.2"/>
<text text-anchor="start" x="499.494" y="-396.9" font-family="Helvetica,sans-Serif" font-size="11.00" fill="#000000">varchar[10]</text>
<polygon fill="none" stroke="#000000" points="336.5,-367.2 336.5,-389.2 496.5,-389.2 496.5,-367.2 336.5,-367.2"/>
<text text-anchor="start" x="356.5" y="-374.3" font-family="Helvetica,sans-Serif" font-size="11.00" fill="#000000">ODK2</text>
<polygon fill="none" stroke="#000000" points="496.5,-367.2 496.5,-389.2 557.5,-389.2 557.5,-367.2 496.5,-367.2"/>
<text text-anchor="start" x="499.494" y="-374.9" font-family="Helvetica,sans-Serif" font-size="11.00" fill="#000000">varchar[10]</text>
<polygon fill="none" stroke="#000000" points="336.5,-345.2 336.5,-367.2 496.5,-367.2 496.5,-345.2 336.5,-345.2"/>
<text text-anchor="start" x="356.5" y="-352.3" font-family="Helvetica,sans-Serif" font-size="11.00" fill="#000000">ODK2AXIS</text>
<polygon fill="none" stroke="#000000" points="496.5,-345.2 496.5,-367.2 557.5,-367.2 557.5,-345.2 496.5,-345.2"/>
<text text-anchor="start" x="499.494" y="-352.9" font-family="Helvetica,sans-Serif" font-size="11.00" fill="#000000">varchar[10]</text>
<polygon fill="none" stroke="#000000" points="336.5,-323.2 336.5,-345.2 496.5,-345.2 496.5,-323.2 336.5,-323.2"/>
<text text-anchor="start" x="356.5" y="-330.3" font-family="Helvetica,sans-Serif" font-size="11.00" fill="#000000">OSK1</text>
<polygon fill="none" stroke="#000000" points="496.5,-323.2 496.5,-345.2 557.5,-345.2 557.5,-323.2 496.5,-323.2"/>
<text text-anchor="start" x="499.494" y="-330.9" font-family="Helvetica,sans-Serif" font-size="11.00" fill="#000000">varchar[10]</text>
<polygon fill="none" stroke="#000000" points="336.5,-301.2 336.5,-323.2 496.5,-323.2 496.5,-301.2 336.5,-301.2"/>
<text text-anchor="start" x="356.5" y="-308.3" font-family="Helvetica,sans-Serif" font-size="11.00" fill="#000000">OSK2</text>
<polygon fill="none" stroke="#000000" points="496.5,-301.2 496.5,-323.2 557.5,-323.2 557.5,-301.2 496.5,-301.2"/>
<text text-anchor="start" x="499.494" y="-308.9" font-family="Helvetica,sans-Serif" font-size="11.00" fill="#000000">varchar[10]</text>
<polygon fill="none" stroke="#000000" points="336.5,-279.2 336.5,-301.2 496.5,-301.2 496.5,-279.2 336.5,-279.2"/>
<text text-anchor="start" x="356.5" y="-286.3" font-family="Helvetica,sans-Serif" font-size="11.00" fill="#000000">OSK2AXIS</text>
<polygon fill="none" stroke="#000000" points="496.5,-279.2 496.5,-301.2 557.5,-301.2 557.5,-279.2 496.5,-279.2"/>
<text text-anchor="start" x="499.494" y="-286.9" font-family="Helvetica,sans-Serif" font-size="11.00" fill="#000000">varchar[10]</text>
<polygon fill="none" stroke="#000000" points="336.5,-257.2 336.5,-279.2 496.5,-279.2 496.5,-257.2 336.5,-257.2"/>
<text text-anchor="start" x="356.5" y="-264.3" font-family="Helvetica,sans-Serif" font-size="11.00" fill="#000000">ODAXIALLENGTH</text>
<polygon fill="none" stroke="#000000" points="496.5,-257.2 496.5,-279.2 557.5,-279.2 557.5,-257.2 496.5,-257.2"/>
<text text-anchor="start" x="499.494" y="-264.9" font-family="Helvetica,sans-Serif" font-size="11.00" fill="#000000">varchar[20]</text>
<polygon fill="none" stroke="#000000" points="336.5,-235.2 336.5,-257.2 496.5,-257.2 496.5,-235.2 336.5,-235.2"/>
<text text-anchor="start" x="356.5" y="-242.3" font-family="Helvetica,sans-Serif" font-size="11.00" fill="#000000">OSAXIALLENGTH</text>
<polygon fill="none" stroke="#000000" points="496.5,-235.2 496.5,-257.2 557.5,-257.2 557.5,-235.2 496.5,-235.2"/>
<text text-anchor="start" x="499.494" y="-242.9" font-family="Helvetica,sans-Serif" font-size="11.00" fill="#000000">varchar[20]</text>
<polygon fill="none" stroke="#000000" points="336.5,-213.2 336.5,-235.2 496.5,-235.2 496.5,-213.2 336.5,-213.2"/>
<text text-anchor="start" x="356.5" y="-220.3" font-family="Helvetica,sans-Serif" font-size="11.00" fill="#000000">ODPDMeasured</text>
<polygon fill="none" stroke="#000000" points="496.5,-213.2 496.5,-235.2 557.5,-235.2 557.5,-213.2 496.5,-213.2"/>
<text text-anchor="start" x="499.494" y="-220.9" font-family="Helvetica,sans-Serif" font-size="11.00" fill="#000000">varchar[20]</text>
<polygon fill="none" stroke="#000000" points="336.5,-191.2 336.5,-213.2 496.5,-213.2 496.5,-191.2 336.5,-191.2"/>
<text text-anchor="start" x="356.5" y="-198.3" font-family="Helvetica,sans-Serif" font-size="11.00" fill="#000000">OSPDMeasured</text>
<polygon fill="none" stroke="#000000" points="496.5,-191.2 496.5,-213.2 557.5,-213.2 557.5,-191.2 496.5,-191.2"/>
<text text-anchor="start" x="499.494" y="-198.9" font-family="Helvetica,sans-Serif" font-size="11.00" fill="#000000">varchar[20]</text>
<polygon fill="none" stroke="#000000" points="336.5,-169.2 336.5,-191.2 496.5,-191.2 496.5,-169.2 336.5,-169.2"/>
<text text-anchor="start" x="356.5" y="-176.3" font-family="Helvetica,sans-Serif" font-size="11.00" fill="#000000">ODACD</text>
<polygon fill="none" stroke="#000000" points="496.5,-169.2 496.5,-191.2 557.5,-191.2 557.5,-169.2 496.5,-169.2"/>
<text text-anchor="start" x="499.494" y="-176.9" font-family="Helvetica,sans-Serif" font-size="11.00" fill="#000000">varchar[20]</text>
<polygon fill="none" stroke="#000000" points="336.5,-147.2 336.5,-169.2 496.5,-169.2 496.5,-147.2 336.5,-147.2"/>
<text text-anchor="start" x="356.5" y="-154.3" font-family="Helvetica,sans-Serif" font-size="11.00" fill="#000000">OSACD</text>
<polygon fill="none" stroke="#000000" points="496.5,-147.2 496.5,-169.2 557.5,-169.2 557.5,-147.2 496.5,-147.2"/>
<text text-anchor="start" x="499.494" y="-154.9" font-family="Helvetica,sans-Serif" font-size="11.00" fill="#000000">varchar[20]</text>
<polygon fill="none" stroke="#000000" points="336.5,-125.2 336.5,-147.2 496.5,-147.2 496.5,-125.2 336.5,-125.2"/>
<text text-anchor="start" x="356.5" y="-132.3" font-family="Helvetica,sans-Serif" font-size="11.00" fill="#000000">ODW2W</text>
<polygon fill="none" stroke="#000000" points="496.5,-125.2 496.5,-147.2 557.5,-147.2 557.5,-125.2 496.5,-125.2"/>
<text text-anchor="start" x="499.494" y="-132.9" font-family="Helvetica,sans-Serif" font-size="11.00" fill="#000000">varchar[20]</text>
<polygon fill="none" stroke="#000000" points="336.5,-103.2 336.5,-125.2 496.5,-125.2 496.5,-103.2 336.5,-103.2"/>
<text text-anchor="start" x="356.5" y="-110.3" font-family="Helvetica,sans-Serif" font-size="11.00" fill="#000000">OSW2W</text>
<polygon fill="none" stroke="#000000" points="496.5,-103.2 496.5,-125.2 557.5,-125.2 557.5,-103.2 496.5,-103.2"/>
<text text-anchor="start" x="499.494" y="-110.9" font-family="Helvetica,sans-Serif" font-size="11.00" fill="#000000">varchar[20]</text>
<polygon fill="none" stroke="#000000" points="336.5,-81.2 336.5,-103.2 496.5,-103.2 496.5,-81.2 336.5,-81.2"/>
<text text-anchor="start" x="356.5" y="-88.3" font-family="Helvetica,sans-Serif" font-size="11.00" fill="#000000">ODLT</text>
<polygon fill="none" stroke="#000000" points="496.5,-81.2 496.5,-103.2 557.5,-103.2 557.5,-81.2 496.5,-81.2"/>
<text text-anchor="start" x="499.494" y="-88.9" font-family="Helvetica,sans-Serif" font-size="11.00" fill="#000000">varchar[20]</text>
<polygon fill="none" stroke="#000000" points="336.5,-59.2 336.5,-81.2 496.5,-81.2 496.5,-59.2 336.5,-59.2"/>
<text text-anchor="start" x="356.5" y="-66.3" font-family="Helvetica,sans-Serif" font-size="11.00" fill="#000000">OSLT</text>
<polygon fill="none" stroke="#000000" points="496.5,-59.2 496.5,-81.2 557.5,-81.2 557.5,-59.2 496.5,-59.2"/>
<text text-anchor="start" x="499.494" y="-66.9" font-family="Helvetica,sans-Serif" font-size="11.00" fill="#000000">varchar[20]</text>
<polygon fill="#ffffff" stroke="transparent" points="336.5,-40.2 336.5,-59.2 420.5,-59.2 420.5,-40.2 336.5,-40.2"/>
<polygon fill="none" stroke="#000000" points="336.5,-40.2 336.5,-59.2 420.5,-59.2 420.5,-40.2 336.5,-40.2"/>
<text text-anchor="start" x="339.5" y="-46.3" font-family="Helvetica,sans-Serif" font-size="11.00" fill="#000000">&lt; 1</text>
<polygon fill="#ffffff" stroke="transparent" points="420.5,-40.2 420.5,-59.2 496.5,-59.2 496.5,-40.2 420.5,-40.2"/>
<polygon fill="none" stroke="#000000" points="420.5,-40.2 420.5,-59.2 496.5,-59.2 496.5,-40.2 420.5,-40.2"/>
<text text-anchor="start" x="487.3862" y="-46.3" font-family="Helvetica,sans-Serif" font-size="11.00" fill="#000000"> &#160;</text>
<polygon fill="#ffffff" stroke="transparent" points="496.5,-40.2 496.5,-59.2 557.5,-59.2 557.5,-40.2 496.5,-40.2"/>
<polygon fill="none" stroke="#000000" points="496.5,-40.2 496.5,-59.2 557.5,-59.2 557.5,-40.2 496.5,-40.2"/>
<text text-anchor="start" x="538.9053" y="-46.3" font-family="Helvetica,sans-Serif" font-size="11.00" fill="#000000">0 &gt;</text>
<polygon fill="none" stroke="#000000" stroke-width="2" points="335,-39.2 335,-479.2 558,-479.2 558,-39.2 335,-39.2"/>
</a>
</g>
</g>
<!-- patient_data -->
<g id="node2" class="node">
<title>patient_data</title>
<g id="a_node2"><a xlink:href="../../tables/patient_data.html" xlink:title="patient_data" target="_top">
<polygon fill="#ffffff" stroke="transparent" points="8,-263.7 8,-654.7 285,-654.7 285,-263.7 8,-263.7"/>
<polygon fill="#f5f5f5" stroke="transparent" points="8.5,-631.2 8.5,-654.2 285.5,-654.2 285.5,-631.2 8.5,-631.2"/>
<polygon fill="none" stroke="#000000" points="8.5,-631.2 8.5,-654.2 285.5,-654.2 285.5,-631.2 8.5,-631.2"/>
<text text-anchor="start" x="13.5" y="-639.8" font-family="Helvetica,sans-Serif" font-weight="bold" font-size="11.00" fill="#000000">patient_data</text>
<text text-anchor="start" x="250.5437" y="-639.3" font-family="Helvetica,sans-Serif" font-size="11.00" fill="#000000">[table]</text>
<polygon fill="none" stroke="#000000" points="8.5,-609.2 8.5,-631.2 285.5,-631.2 285.5,-609.2 8.5,-609.2"/>
<image xlink:href="../../images/primaryKeys.png" width="11px" height="12px" preserveAspectRatio="xMinYMin meet" x="13.5" y="-626.2"/>
<text text-anchor="start" x="28.5" y="-616.3" font-family="Helvetica,sans-Serif" font-size="11.00" fill="#000000">id</text>
<polygon fill="#ffffff" stroke="transparent" points="8.5,-587.2 8.5,-609.2 285.5,-609.2 285.5,-587.2 8.5,-587.2"/>
<polygon fill="none" stroke="#000000" points="8.5,-587.2 8.5,-609.2 285.5,-609.2 285.5,-587.2 8.5,-587.2"/>
<text text-anchor="start" x="28.5" y="-594.3" font-family="Helvetica,sans-Serif" font-size="11.00" fill="#000000">uuid</text>
<polygon fill="#ffffff" stroke="transparent" points="8.5,-565.2 8.5,-587.2 285.5,-587.2 285.5,-565.2 8.5,-565.2"/>
<polygon fill="none" stroke="#000000" points="8.5,-565.2 8.5,-587.2 285.5,-587.2 285.5,-565.2 8.5,-565.2"/>
<text text-anchor="start" x="28.5" y="-572.3" font-family="Helvetica,sans-Serif" font-size="11.00" fill="#000000">fname</text>
<polygon fill="#ffffff" stroke="transparent" points="8.5,-543.2 8.5,-565.2 285.5,-565.2 285.5,-543.2 8.5,-543.2"/>
<polygon fill="none" stroke="#000000" points="8.5,-543.2 8.5,-565.2 285.5,-565.2 285.5,-543.2 8.5,-543.2"/>
<text text-anchor="start" x="28.5" y="-550.3" font-family="Helvetica,sans-Serif" font-size="11.00" fill="#000000">lname</text>
<polygon fill="#ffffff" stroke="transparent" points="8.5,-521.2 8.5,-543.2 285.5,-543.2 285.5,-521.2 8.5,-521.2"/>
<polygon fill="none" stroke="#000000" points="8.5,-521.2 8.5,-543.2 285.5,-543.2 285.5,-521.2 8.5,-521.2"/>
<text text-anchor="start" x="28.5" y="-528.3" font-family="Helvetica,sans-Serif" font-size="11.00" fill="#000000">DOB</text>
<polygon fill="none" stroke="#000000" points="8.5,-499.2 8.5,-521.2 285.5,-521.2 285.5,-499.2 8.5,-499.2"/>
<image xlink:href="../../images/foreignKeys.png" width="11px" height="12px" preserveAspectRatio="xMinYMin meet" x="13.5" y="-516.2"/>
<text text-anchor="start" x="28.5" y="-506.3" font-family="Helvetica,sans-Serif" font-size="11.00" fill="#000000">pharmacy_id</text>
<polygon fill="none" stroke="#000000" points="8.5,-477.2 8.5,-499.2 285.5,-499.2 285.5,-477.2 8.5,-477.2"/>
<image xlink:href="../../images/foreignKeys.png" width="11px" height="12px" preserveAspectRatio="xMinYMin meet" x="13.5" y="-494.2"/>
<text text-anchor="start" x="28.5" y="-484.3" font-family="Helvetica,sans-Serif" font-size="11.00" fill="#000000">providerID</text>
<polygon fill="none" stroke="#000000" points="8.5,-455.2 8.5,-477.2 285.5,-477.2 285.5,-455.2 8.5,-455.2"/>
<image xlink:href="../../images/foreignKeys.png" width="11px" height="12px" preserveAspectRatio="xMinYMin meet" x="13.5" y="-472.2"/>
<text text-anchor="start" x="28.5" y="-462.3" font-family="Helvetica,sans-Serif" font-size="11.00" fill="#000000">ref_providerID</text>
<polygon fill="none" stroke="#000000" points="8.5,-433.2 8.5,-455.2 285.5,-455.2 285.5,-433.2 8.5,-433.2"/>
<image xlink:href="../../images/foreignKeys.png" width="11px" height="12px" preserveAspectRatio="xMinYMin meet" x="13.5" y="-450.2"/>
<text text-anchor="start" x="28.5" y="-440.3" font-family="Helvetica,sans-Serif" font-size="11.00" fill="#000000">interpreter_needed</text>
<polygon fill="none" stroke="#000000" points="8.5,-411.2 8.5,-433.2 285.5,-433.2 285.5,-411.2 8.5,-411.2"/>
<image xlink:href="../../images/primaryKeys.png" width="11px" height="12px" preserveAspectRatio="xMinYMin meet" x="13.5" y="-428.2"/>
<text text-anchor="start" x="28.5" y="-418.3" font-family="Helvetica,sans-Serif" font-size="11.00" fill="#000000">pid</text>
<polygon fill="none" stroke="#000000" points="8.5,-389.2 8.5,-411.2 285.5,-411.2 285.5,-389.2 8.5,-389.2"/>
<image xlink:href="../../images/foreignKeys.png" width="11px" height="12px" preserveAspectRatio="xMinYMin meet" x="13.5" y="-406.2"/>
<text text-anchor="start" x="28.5" y="-396.3" font-family="Helvetica,sans-Serif" font-size="11.00" fill="#000000">advance_directive_user_authenticator</text>
<polygon fill="none" stroke="#000000" points="8.5,-367.2 8.5,-389.2 285.5,-389.2 285.5,-367.2 8.5,-367.2"/>
<image xlink:href="../../images/foreignKeys.png" width="11px" height="12px" preserveAspectRatio="xMinYMin meet" x="13.5" y="-384.2"/>
<text text-anchor="start" x="28.5" y="-374.3" font-family="Helvetica,sans-Serif" font-size="11.00" fill="#000000">created_by</text>
<polygon fill="none" stroke="#000000" points="8.5,-345.2 8.5,-367.2 285.5,-367.2 285.5,-345.2 8.5,-345.2"/>
<image xlink:href="../../images/foreignKeys.png" width="11px" height="12px" preserveAspectRatio="xMinYMin meet" x="13.5" y="-362.2"/>
<text text-anchor="start" x="28.5" y="-352.3" font-family="Helvetica,sans-Serif" font-size="11.00" fill="#000000">updated_by</text>
<polygon fill="none" stroke="#000000" points="8.5,-323.2 8.5,-345.2 285.5,-345.2 285.5,-323.2 8.5,-323.2"/>
<image xlink:href="../../images/foreignKeys.png" width="11px" height="12px" preserveAspectRatio="xMinYMin meet" x="13.5" y="-340.2"/>
<text text-anchor="start" x="28.5" y="-330.3" font-family="Helvetica,sans-Serif" font-size="11.00" fill="#000000">tribal_affiliations</text>
<polygon fill="none" stroke="#000000" points="8.5,-301.2 8.5,-323.2 285.5,-323.2 285.5,-301.2 8.5,-301.2"/>
<image xlink:href="../../images/foreignKeys.png" width="11px" height="12px" preserveAspectRatio="xMinYMin meet" x="13.5" y="-318.2"/>
<text text-anchor="start" x="28.5" y="-308.3" font-family="Helvetica,sans-Serif" font-size="11.00" fill="#000000">sex_identified</text>
<polygon fill="none" stroke="#000000" points="8.5,-282.2 8.5,-301.2 285.5,-301.2 285.5,-282.2 8.5,-282.2"/>
<text text-anchor="start" x="11.5" y="-288.3" font-family="Helvetica,sans-Serif" font-size="11.00" fill="#000000">...</text>
<polygon fill="#ffffff" stroke="transparent" points="8.5,-263.2 8.5,-282.2 137.5,-282.2 137.5,-263.2 8.5,-263.2"/>
<polygon fill="none" stroke="#000000" points="8.5,-263.2 8.5,-282.2 137.5,-282.2 137.5,-263.2 8.5,-263.2"/>
<text text-anchor="start" x="11.5" y="-269.3" font-family="Helvetica,sans-Serif" font-size="11.00" fill="#000000">&lt; 9</text>
<polygon fill="#ffffff" stroke="transparent" points="137.5,-263.2 137.5,-282.2 203.5,-282.2 203.5,-263.2 137.5,-263.2"/>
<polygon fill="none" stroke="#000000" points="137.5,-263.2 137.5,-282.2 203.5,-282.2 203.5,-263.2 137.5,-263.2"/>
<text text-anchor="start" x="194.3862" y="-269.3" font-family="Helvetica,sans-Serif" font-size="11.00" fill="#000000"> &#160;</text>
<polygon fill="#ffffff" stroke="transparent" points="203.5,-263.2 203.5,-282.2 285.5,-282.2 285.5,-263.2 203.5,-263.2"/>
<polygon fill="none" stroke="#000000" points="203.5,-263.2 203.5,-282.2 285.5,-282.2 285.5,-263.2 203.5,-263.2"/>
<text text-anchor="start" x="260.7904" y="-269.3" font-family="Helvetica,sans-Serif" font-size="11.00" fill="#000000">95 &gt;</text>
</a>
</g>
</g>
<!-- form_eye_biometrics&#45;&gt;patient_data -->
<g id="edge1" class="edge">
<title>form_eye_biometrics:w&#45;&gt;patient_data:e</title>
<path fill="none" stroke="#000000" d="M321.776,-422.2C309.7815,-422.2 302.3229,-422.2 285.5,-422.2"/>
<polygon fill="#000000" stroke="#000000" points="328.5,-422.2001 336.5,-425.8 332.5,-422.2 336.5,-422.2 336.5,-422.2 336.5,-422.2 332.5,-422.2 336.5,-418.6 328.5,-422.2001 328.5,-422.2001"/>
<ellipse fill="none" stroke="#000000" cx="325.3" cy="-422.2001" rx="3.2" ry="3.2"/>
</g>
</g>
</svg>
