<?xml version="1.0" encoding="UTF-8" standalone="no"?>
<!DOCTYPE svg PUBLIC "-//W3C//DTD SVG 1.1//EN"
 "http://www.w3.org/Graphics/SVG/1.1/DTD/svg11.dtd">
<!-- Generated by graphviz version 2.40.1 (20161225.0304)
 -->
<!-- Title: oneDegreeRelationshipsDiagram Pages: 1 -->
<svg width="605pt" height="250pt"
 viewBox="0.00 0.00 605.00 250.20" xmlns="http://www.w3.org/2000/svg" xmlns:xlink="http://www.w3.org/1999/xlink">
<g id="graph0" class="graph" transform="scale(1 1) rotate(0) translate(4 246.2)">
<title>oneDegreeRelationshipsDiagram</title>
<polygon fill="#ffffff" stroke="transparent" points="-4,4 -4,-246.2 601,-246.2 601,4 -4,4"/>
<text text-anchor="middle" x="72.4936" y="-7.3" font-family="Helvetica,sans-Serif" font-size="11.00" fill="#000000">Generated by SchemaSpy</text>
<!-- form_vitals_calculation_components -->
<g id="node1" class="node">
<title>form_vitals_calculation_components</title>
<g id="a_node1"><a xlink:href="../../tables/form_vitals_calculation_components.html" xlink:title="form_vitals_calculation_components" target="_top">
<polygon fill="#ffffff" stroke="transparent" points="250,-38.2 250,-238.2 589,-238.2 589,-38.2 250,-38.2"/>
<polygon fill="#f5f5f5" stroke="transparent" points="252.5,-213.2 252.5,-236.2 587.5,-236.2 587.5,-213.2 252.5,-213.2"/>
<polygon fill="none" stroke="#000000" points="252.5,-213.2 252.5,-236.2 587.5,-236.2 587.5,-213.2 252.5,-213.2"/>
<text text-anchor="start" x="257.5" y="-221.8" font-family="Helvetica,sans-Serif" font-weight="bold" font-size="11.00" fill="#000000">form_vitals_calculation_components</text>
<text text-anchor="start" x="552.5437" y="-221.3" font-family="Helvetica,sans-Serif" font-size="11.00" fill="#000000">[table]</text>
<polygon fill="none" stroke="#000000" points="252.5,-191.2 252.5,-213.2 516.5,-213.2 516.5,-191.2 252.5,-191.2"/>
<image xlink:href="../../images/primaryKeys.png" width="11px" height="12px" preserveAspectRatio="xMinYMin meet" x="257.5" y="-208.2"/>
<text text-anchor="start" x="272.5" y="-198.3" font-family="Helvetica,sans-Serif" font-size="11.00" fill="#000000">id</text>
<polygon fill="none" stroke="#000000" points="516.5,-191.2 516.5,-213.2 587.5,-213.2 587.5,-191.2 516.5,-191.2"/>
<text text-anchor="start" x="519.5" y="-198.9" font-family="Helvetica,sans-Serif" font-size="11.00" fill="#000000">int[10]</text>
<polygon fill="#ffffff" stroke="transparent" points="252.5,-169.2 252.5,-191.2 516.5,-191.2 516.5,-169.2 252.5,-169.2"/>
<polygon fill="none" stroke="#000000" points="252.5,-169.2 252.5,-191.2 516.5,-191.2 516.5,-169.2 252.5,-169.2"/>
<image xlink:href="../../images/foreignKeys.png" width="11px" height="12px" preserveAspectRatio="xMinYMin meet" x="257.5" y="-186.2"/>
<text text-anchor="start" x="272.5" y="-176.3" font-family="Helvetica,sans-Serif" font-size="11.00" fill="#000000">fvc_uuid</text>
<polygon fill="none" stroke="#000000" points="516.5,-169.2 516.5,-191.2 587.5,-191.2 587.5,-169.2 516.5,-169.2"/>
<text text-anchor="start" x="519.5" y="-176.9" font-family="Helvetica,sans-Serif" font-size="11.00" fill="#000000">binary[16]</text>
<polygon fill="#ffffff" stroke="transparent" points="252.5,-147.2 252.5,-169.2 516.5,-169.2 516.5,-147.2 252.5,-147.2"/>
<polygon fill="none" stroke="#000000" points="252.5,-147.2 252.5,-169.2 516.5,-169.2 516.5,-147.2 252.5,-147.2"/>
<text text-anchor="start" x="272.5" y="-154.3" font-family="Helvetica,sans-Serif" font-size="11.00" fill="#000000">vitals_column</text>
<polygon fill="none" stroke="#000000" points="516.5,-147.2 516.5,-169.2 587.5,-169.2 587.5,-147.2 516.5,-147.2"/>
<text text-anchor="start" x="519.5" y="-154.9" font-family="Helvetica,sans-Serif" font-size="11.00" fill="#000000">varchar[64]</text>
<polygon fill="none" stroke="#000000" points="252.5,-125.2 252.5,-147.2 516.5,-147.2 516.5,-125.2 252.5,-125.2"/>
<text text-anchor="start" x="272.5" y="-132.3" font-family="Helvetica,sans-Serif" font-size="11.00" fill="#000000">value</text>
<polygon fill="none" stroke="#000000" points="516.5,-125.2 516.5,-147.2 587.5,-147.2 587.5,-125.2 516.5,-125.2"/>
<text text-anchor="start" x="519.2981" y="-132.9" font-family="Helvetica,sans-Serif" font-size="11.00" fill="#000000">decimal[12,6]</text>
<polygon fill="none" stroke="#000000" points="252.5,-103.2 252.5,-125.2 516.5,-125.2 516.5,-103.2 252.5,-103.2"/>
<text text-anchor="start" x="272.5" y="-110.3" font-family="Helvetica,sans-Serif" font-size="11.00" fill="#000000">value_string</text>
<polygon fill="none" stroke="#000000" points="516.5,-103.2 516.5,-125.2 587.5,-125.2 587.5,-103.2 516.5,-103.2"/>
<text text-anchor="start" x="519.5" y="-110.9" font-family="Helvetica,sans-Serif" font-size="11.00" fill="#000000">varchar[255]</text>
<polygon fill="none" stroke="#000000" points="252.5,-81.2 252.5,-103.2 516.5,-103.2 516.5,-81.2 252.5,-81.2"/>
<text text-anchor="start" x="272.5" y="-88.3" font-family="Helvetica,sans-Serif" font-size="11.00" fill="#000000">value_unit</text>
<polygon fill="none" stroke="#000000" points="516.5,-81.2 516.5,-103.2 587.5,-103.2 587.5,-81.2 516.5,-81.2"/>
<text text-anchor="start" x="519.5" y="-88.9" font-family="Helvetica,sans-Serif" font-size="11.00" fill="#000000">varchar[16]</text>
<polygon fill="#ffffff" stroke="transparent" points="252.5,-59.2 252.5,-81.2 516.5,-81.2 516.5,-59.2 252.5,-59.2"/>
<polygon fill="none" stroke="#000000" points="252.5,-59.2 252.5,-81.2 516.5,-81.2 516.5,-59.2 252.5,-59.2"/>
<text text-anchor="start" x="272.5" y="-66.3" font-family="Helvetica,sans-Serif" font-size="11.00" fill="#000000">component_order</text>
<polygon fill="none" stroke="#000000" points="516.5,-59.2 516.5,-81.2 587.5,-81.2 587.5,-59.2 516.5,-59.2"/>
<text text-anchor="start" x="519.5" y="-66.9" font-family="Helvetica,sans-Serif" font-size="11.00" fill="#000000">int[10]</text>
<polygon fill="#ffffff" stroke="transparent" points="252.5,-40.2 252.5,-59.2 388.5,-59.2 388.5,-40.2 252.5,-40.2"/>
<polygon fill="none" stroke="#000000" points="252.5,-40.2 252.5,-59.2 388.5,-59.2 388.5,-40.2 252.5,-40.2"/>
<text text-anchor="start" x="255.5" y="-46.3" font-family="Helvetica,sans-Serif" font-size="11.00" fill="#000000">&lt; 1</text>
<polygon fill="#ffffff" stroke="transparent" points="388.5,-40.2 388.5,-59.2 516.5,-59.2 516.5,-40.2 388.5,-40.2"/>
<polygon fill="none" stroke="#000000" points="388.5,-40.2 388.5,-59.2 516.5,-59.2 516.5,-40.2 388.5,-40.2"/>
<text text-anchor="start" x="507.3862" y="-46.3" font-family="Helvetica,sans-Serif" font-size="11.00" fill="#000000"> &#160;</text>
<polygon fill="#ffffff" stroke="transparent" points="516.5,-40.2 516.5,-59.2 587.5,-59.2 587.5,-40.2 516.5,-40.2"/>
<polygon fill="none" stroke="#000000" points="516.5,-40.2 516.5,-59.2 587.5,-59.2 587.5,-40.2 516.5,-40.2"/>
<text text-anchor="start" x="568.9053" y="-46.3" font-family="Helvetica,sans-Serif" font-size="11.00" fill="#000000">0 &gt;</text>
<polygon fill="none" stroke="#000000" stroke-width="2" points="251,-39.2 251,-237.2 588,-237.2 588,-39.2 251,-39.2"/>
</a>
</g>
</g>
<!-- form_vitals_calculation -->
<g id="node2" class="node">
<title>form_vitals_calculation</title>
<g id="a_node2"><a xlink:href="../../tables/form_vitals_calculation.html" xlink:title="form_vitals_calculation" target="_top">
<polygon fill="#ffffff" stroke="transparent" points="8,-65.7 8,-236.7 201,-236.7 201,-65.7 8,-65.7"/>
<polygon fill="#f5f5f5" stroke="transparent" points="8.5,-213.2 8.5,-236.2 201.5,-236.2 201.5,-213.2 8.5,-213.2"/>
<polygon fill="none" stroke="#000000" points="8.5,-213.2 8.5,-236.2 201.5,-236.2 201.5,-213.2 8.5,-213.2"/>
<text text-anchor="start" x="13.5" y="-221.8" font-family="Helvetica,sans-Serif" font-weight="bold" font-size="11.00" fill="#000000">form_vitals_calculation</text>
<text text-anchor="start" x="167.0219" y="-221.3" font-family="Helvetica,sans-Serif" font-size="11.00" fill="#000000">[table]</text>
<polygon fill="none" stroke="#000000" points="8.5,-191.2 8.5,-213.2 201.5,-213.2 201.5,-191.2 8.5,-191.2"/>
<image xlink:href="../../images/primaryKeys.png" width="11px" height="12px" preserveAspectRatio="xMinYMin meet" x="13.5" y="-208.2"/>
<text text-anchor="start" x="37.5" y="-198.3" font-family="Helvetica,sans-Serif" font-size="11.00" fill="#000000">id</text>
<polygon fill="none" stroke="#000000" points="8.5,-169.2 8.5,-191.2 201.5,-191.2 201.5,-169.2 8.5,-169.2"/>
<image xlink:href="../../images/primaryKeys.png" width="11px" height="12px" preserveAspectRatio="xMinYMin meet" x="13.5" y="-186.2"/>
<text text-anchor="start" x="37.5" y="-176.3" font-family="Helvetica,sans-Serif" font-size="11.00" fill="#000000">uuid</text>
<polygon fill="#ffffff" stroke="transparent" points="8.5,-147.2 8.5,-169.2 201.5,-169.2 201.5,-147.2 8.5,-147.2"/>
<polygon fill="none" stroke="#000000" points="8.5,-147.2 8.5,-169.2 201.5,-169.2 201.5,-147.2 8.5,-147.2"/>
<image xlink:href="../../images/foreignKeys.png" width="11px" height="12px" preserveAspectRatio="xMinYMin meet" x="13.5" y="-164.2"/>
<text text-anchor="start" x="37.5" y="-154.3" font-family="Helvetica,sans-Serif" font-size="11.00" fill="#000000">encounter</text>
<polygon fill="#ffffff" stroke="transparent" points="8.5,-125.2 8.5,-147.2 201.5,-147.2 201.5,-125.2 8.5,-125.2"/>
<polygon fill="none" stroke="#000000" points="8.5,-125.2 8.5,-147.2 201.5,-147.2 201.5,-125.2 8.5,-125.2"/>
<image xlink:href="../../images/foreignKeys.png" width="11px" height="12px" preserveAspectRatio="xMinYMin meet" x="13.5" y="-142.2"/>
<text text-anchor="start" x="37.5" y="-132.3" font-family="Helvetica,sans-Serif" font-size="11.00" fill="#000000">pid</text>
<polygon fill="#ffffff" stroke="transparent" points="8.5,-103.2 8.5,-125.2 201.5,-125.2 201.5,-103.2 8.5,-103.2"/>
<polygon fill="none" stroke="#000000" points="8.5,-103.2 8.5,-125.2 201.5,-125.2 201.5,-103.2 8.5,-103.2"/>
<text text-anchor="start" x="37.5" y="-110.3" font-family="Helvetica,sans-Serif" font-size="11.00" fill="#000000">calculation_id</text>
<polygon fill="none" stroke="#000000" points="8.5,-84.2 8.5,-103.2 201.5,-103.2 201.5,-84.2 8.5,-84.2"/>
<text text-anchor="start" x="11.5" y="-90.3" font-family="Helvetica,sans-Serif" font-size="11.00" fill="#000000">...</text>
<polygon fill="#ffffff" stroke="transparent" points="8.5,-65.2 8.5,-84.2 98.5,-84.2 98.5,-65.2 8.5,-65.2"/>
<polygon fill="none" stroke="#000000" points="8.5,-65.2 8.5,-84.2 98.5,-84.2 98.5,-65.2 8.5,-65.2"/>
<text text-anchor="start" x="11.5" y="-71.3" font-family="Helvetica,sans-Serif" font-size="11.00" fill="#000000">&lt; 2</text>
<polygon fill="#ffffff" stroke="transparent" points="98.5,-65.2 98.5,-84.2 145.5,-84.2 145.5,-65.2 98.5,-65.2"/>
<polygon fill="none" stroke="#000000" points="98.5,-65.2 98.5,-84.2 145.5,-84.2 145.5,-65.2 98.5,-65.2"/>
<text text-anchor="start" x="136.3862" y="-71.3" font-family="Helvetica,sans-Serif" font-size="11.00" fill="#000000"> &#160;</text>
<polygon fill="#ffffff" stroke="transparent" points="145.5,-65.2 145.5,-84.2 201.5,-84.2 201.5,-65.2 145.5,-65.2"/>
<polygon fill="none" stroke="#000000" points="145.5,-65.2 145.5,-84.2 201.5,-84.2 201.5,-65.2 145.5,-65.2"/>
<text text-anchor="start" x="182.9053" y="-71.3" font-family="Helvetica,sans-Serif" font-size="11.00" fill="#000000">2 &gt;</text>
</a>
</g>
</g>
<!-- form_vitals_calculation_components&#45;&gt;form_vitals_calculation -->
<g id="edge1" class="edge">
<title>form_vitals_calculation_components:w&#45;&gt;form_vitals_calculation:e</title>
<path fill="none" stroke="#000000" d="M237.776,-180.2C225.7815,-180.2 218.3229,-180.2 201.5,-180.2"/>
<polygon fill="#000000" stroke="#000000" points="244.5,-180.2001 252.5,-183.8 248.5,-180.2 252.5,-180.2 252.5,-180.2 252.5,-180.2 248.5,-180.2 252.5,-176.6 244.5,-180.2001 244.5,-180.2001"/>
<ellipse fill="none" stroke="#000000" cx="241.3" cy="-180.2001" rx="3.2" ry="3.2"/>
</g>
</g>
</svg>
