<?xml version="1.0" encoding="UTF-8" standalone="no"?>
<!DOCTYPE svg PUBLIC "-//W3C//DTD SVG 1.1//EN"
 "http://www.w3.org/Graphics/SVG/1.1/DTD/svg11.dtd">
<!-- Generated by graphviz version 2.40.1 (20161225.0304)
 -->
<!-- Title: oneDegreeRelationshipsDiagram Pages: 1 -->
<svg width="887pt" height="1063pt"
 viewBox="0.00 0.00 887.00 1063.27" xmlns="http://www.w3.org/2000/svg" xmlns:xlink="http://www.w3.org/1999/xlink">
<g id="graph0" class="graph" transform="scale(1 1) rotate(0) translate(4 1059.2688)">
<title>oneDegreeRelationshipsDiagram</title>
<polygon fill="#ffffff" stroke="transparent" points="-4,4 -4,-1059.2688 883,-1059.2688 883,4 -4,4"/>
<text text-anchor="middle" x="72.4936" y="-7.3" font-family="Helvetica,sans-Serif" font-size="11.00" fill="#000000">Generated by SchemaSpy</text>
<!-- form_history_sdoh -->
<g id="node1" class="node">
<title>form_history_sdoh</title>
<g id="a_node1"><a xlink:href="../../tables/form_history_sdoh.html" xlink:title="form_history_sdoh" target="_top">
<polygon fill="#ffffff" stroke="transparent" points="224,-406.2 224,-995.2 460,-995.2 460,-406.2 224,-406.2"/>
<polygon fill="#f5f5f5" stroke="transparent" points="224,-971.7 224,-994.7 460,-994.7 460,-971.7 224,-971.7"/>
<polygon fill="none" stroke="#000000" points="224,-971.7 224,-994.7 460,-994.7 460,-971.7 224,-971.7"/>
<text text-anchor="start" x="229" y="-980.3" font-family="Helvetica,sans-Serif" font-weight="bold" font-size="11.00" fill="#000000">form_history_sdoh</text>
<text text-anchor="start" x="425.0437" y="-979.8" font-family="Helvetica,sans-Serif" font-size="11.00" fill="#000000">[table]</text>
<polygon fill="none" stroke="#000000" points="224,-949.7 224,-971.7 460,-971.7 460,-949.7 224,-949.7"/>
<image xlink:href="../../images/primaryKeys.png" width="11px" height="12px" preserveAspectRatio="xMinYMin meet" x="229" y="-966.7"/>
<text text-anchor="start" x="244" y="-956.8" font-family="Helvetica,sans-Serif" font-size="11.00" fill="#000000">id</text>
<polygon fill="#ffffff" stroke="transparent" points="224,-927.7 224,-949.7 460,-949.7 460,-927.7 224,-927.7"/>
<polygon fill="none" stroke="#000000" points="224,-927.7 224,-949.7 460,-949.7 460,-927.7 224,-927.7"/>
<text text-anchor="start" x="244" y="-934.8" font-family="Helvetica,sans-Serif" font-size="11.00" fill="#000000">uuid</text>
<polygon fill="#ffffff" stroke="transparent" points="224,-905.7 224,-927.7 460,-927.7 460,-905.7 224,-905.7"/>
<polygon fill="none" stroke="#000000" points="224,-905.7 224,-927.7 460,-927.7 460,-905.7 224,-905.7"/>
<image xlink:href="../../images/foreignKeys.png" width="11px" height="12px" preserveAspectRatio="xMinYMin meet" x="229" y="-922.7"/>
<text text-anchor="start" x="244" y="-912.8" font-family="Helvetica,sans-Serif" font-size="11.00" fill="#000000">pid</text>
<polygon fill="#ffffff" stroke="transparent" points="224,-883.7 224,-905.7 460,-905.7 460,-883.7 224,-883.7"/>
<polygon fill="none" stroke="#000000" points="224,-883.7 224,-905.7 460,-905.7 460,-883.7 224,-883.7"/>
<image xlink:href="../../images/foreignKeys.png" width="11px" height="12px" preserveAspectRatio="xMinYMin meet" x="229" y="-900.7"/>
<text text-anchor="start" x="244" y="-890.8" font-family="Helvetica,sans-Serif" font-size="11.00" fill="#000000">encounter</text>
<polygon fill="none" stroke="#000000" points="224,-861.7 224,-883.7 460,-883.7 460,-861.7 224,-861.7"/>
<image xlink:href="../../images/foreignKeys.png" width="11px" height="12px" preserveAspectRatio="xMinYMin meet" x="229" y="-878.7"/>
<text text-anchor="start" x="244" y="-868.8" font-family="Helvetica,sans-Serif" font-size="11.00" fill="#000000">created_by</text>
<polygon fill="none" stroke="#000000" points="224,-839.7 224,-861.7 460,-861.7 460,-839.7 224,-839.7"/>
<image xlink:href="../../images/foreignKeys.png" width="11px" height="12px" preserveAspectRatio="xMinYMin meet" x="229" y="-856.7"/>
<text text-anchor="start" x="244" y="-846.8" font-family="Helvetica,sans-Serif" font-size="11.00" fill="#000000">updated_by</text>
<polygon fill="#ffffff" stroke="transparent" points="224,-817.7 224,-839.7 460,-839.7 460,-817.7 224,-817.7"/>
<polygon fill="none" stroke="#000000" points="224,-817.7 224,-839.7 460,-839.7 460,-817.7 224,-817.7"/>
<text text-anchor="start" x="244" y="-824.8" font-family="Helvetica,sans-Serif" font-size="11.00" fill="#000000">assessment_date</text>
<polygon fill="none" stroke="#000000" points="224,-795.7 224,-817.7 460,-817.7 460,-795.7 224,-795.7"/>
<image xlink:href="../../images/foreignKeys.png" width="11px" height="12px" preserveAspectRatio="xMinYMin meet" x="229" y="-812.7"/>
<text text-anchor="start" x="244" y="-802.8" font-family="Helvetica,sans-Serif" font-size="11.00" fill="#000000">screening_tool</text>
<polygon fill="none" stroke="#000000" points="224,-773.7 224,-795.7 460,-795.7 460,-773.7 224,-773.7"/>
<image xlink:href="../../images/foreignKeys.png" width="11px" height="12px" preserveAspectRatio="xMinYMin meet" x="229" y="-790.7"/>
<text text-anchor="start" x="244" y="-780.8" font-family="Helvetica,sans-Serif" font-size="11.00" fill="#000000">assessor</text>
<polygon fill="none" stroke="#000000" points="224,-751.7 224,-773.7 460,-773.7 460,-751.7 224,-751.7"/>
<image xlink:href="../../images/foreignKeys.png" width="11px" height="12px" preserveAspectRatio="xMinYMin meet" x="229" y="-768.7"/>
<text text-anchor="start" x="244" y="-758.8" font-family="Helvetica,sans-Serif" font-size="11.00" fill="#000000">food_insecurity</text>
<polygon fill="none" stroke="#000000" points="224,-729.7 224,-751.7 460,-751.7 460,-729.7 224,-729.7"/>
<image xlink:href="../../images/foreignKeys.png" width="11px" height="12px" preserveAspectRatio="xMinYMin meet" x="229" y="-746.7"/>
<text text-anchor="start" x="244" y="-736.8" font-family="Helvetica,sans-Serif" font-size="11.00" fill="#000000">housing_instability</text>
<polygon fill="none" stroke="#000000" points="224,-707.7 224,-729.7 460,-729.7 460,-707.7 224,-707.7"/>
<image xlink:href="../../images/foreignKeys.png" width="11px" height="12px" preserveAspectRatio="xMinYMin meet" x="229" y="-724.7"/>
<text text-anchor="start" x="244" y="-714.8" font-family="Helvetica,sans-Serif" font-size="11.00" fill="#000000">transportation_insecurity</text>
<polygon fill="none" stroke="#000000" points="224,-685.7 224,-707.7 460,-707.7 460,-685.7 224,-685.7"/>
<image xlink:href="../../images/foreignKeys.png" width="11px" height="12px" preserveAspectRatio="xMinYMin meet" x="229" y="-702.7"/>
<text text-anchor="start" x="244" y="-692.8" font-family="Helvetica,sans-Serif" font-size="11.00" fill="#000000">utilities_insecurity</text>
<polygon fill="none" stroke="#000000" points="224,-663.7 224,-685.7 460,-685.7 460,-663.7 224,-663.7"/>
<image xlink:href="../../images/foreignKeys.png" width="11px" height="12px" preserveAspectRatio="xMinYMin meet" x="229" y="-680.7"/>
<text text-anchor="start" x="244" y="-670.8" font-family="Helvetica,sans-Serif" font-size="11.00" fill="#000000">interpersonal_safety</text>
<polygon fill="none" stroke="#000000" points="224,-641.7 224,-663.7 460,-663.7 460,-641.7 224,-641.7"/>
<image xlink:href="../../images/foreignKeys.png" width="11px" height="12px" preserveAspectRatio="xMinYMin meet" x="229" y="-658.7"/>
<text text-anchor="start" x="244" y="-648.8" font-family="Helvetica,sans-Serif" font-size="11.00" fill="#000000">financial_strain</text>
<polygon fill="none" stroke="#000000" points="224,-619.7 224,-641.7 460,-641.7 460,-619.7 224,-619.7"/>
<image xlink:href="../../images/foreignKeys.png" width="11px" height="12px" preserveAspectRatio="xMinYMin meet" x="229" y="-636.7"/>
<text text-anchor="start" x="244" y="-626.8" font-family="Helvetica,sans-Serif" font-size="11.00" fill="#000000">social_isolation</text>
<polygon fill="none" stroke="#000000" points="224,-597.7 224,-619.7 460,-619.7 460,-597.7 224,-597.7"/>
<image xlink:href="../../images/foreignKeys.png" width="11px" height="12px" preserveAspectRatio="xMinYMin meet" x="229" y="-614.7"/>
<text text-anchor="start" x="244" y="-604.8" font-family="Helvetica,sans-Serif" font-size="11.00" fill="#000000">childcare_needs</text>
<polygon fill="none" stroke="#000000" points="224,-575.7 224,-597.7 460,-597.7 460,-575.7 224,-575.7"/>
<image xlink:href="../../images/foreignKeys.png" width="11px" height="12px" preserveAspectRatio="xMinYMin meet" x="229" y="-592.7"/>
<text text-anchor="start" x="244" y="-582.8" font-family="Helvetica,sans-Serif" font-size="11.00" fill="#000000">digital_access</text>
<polygon fill="none" stroke="#000000" points="224,-553.7 224,-575.7 460,-575.7 460,-553.7 224,-553.7"/>
<image xlink:href="../../images/foreignKeys.png" width="11px" height="12px" preserveAspectRatio="xMinYMin meet" x="229" y="-570.7"/>
<text text-anchor="start" x="244" y="-560.8" font-family="Helvetica,sans-Serif" font-size="11.00" fill="#000000">pregnancy_status</text>
<polygon fill="none" stroke="#000000" points="224,-531.7 224,-553.7 460,-553.7 460,-531.7 224,-531.7"/>
<image xlink:href="../../images/foreignKeys.png" width="11px" height="12px" preserveAspectRatio="xMinYMin meet" x="229" y="-548.7"/>
<text text-anchor="start" x="244" y="-538.8" font-family="Helvetica,sans-Serif" font-size="11.00" fill="#000000">pregnancy_intent</text>
<polygon fill="none" stroke="#000000" points="224,-509.7 224,-531.7 460,-531.7 460,-509.7 224,-509.7"/>
<image xlink:href="../../images/foreignKeys.png" width="11px" height="12px" preserveAspectRatio="xMinYMin meet" x="229" y="-526.7"/>
<text text-anchor="start" x="244" y="-516.8" font-family="Helvetica,sans-Serif" font-size="11.00" fill="#000000">postpartum_status</text>
<polygon fill="none" stroke="#000000" points="224,-487.7 224,-509.7 460,-509.7 460,-487.7 224,-487.7"/>
<image xlink:href="../../images/foreignKeys.png" width="11px" height="12px" preserveAspectRatio="xMinYMin meet" x="229" y="-504.7"/>
<text text-anchor="start" x="244" y="-494.8" font-family="Helvetica,sans-Serif" font-size="11.00" fill="#000000">disability_status</text>
<polygon fill="none" stroke="#000000" points="224,-465.7 224,-487.7 460,-487.7 460,-465.7 224,-465.7"/>
<image xlink:href="../../images/foreignKeys.png" width="11px" height="12px" preserveAspectRatio="xMinYMin meet" x="229" y="-482.7"/>
<text text-anchor="start" x="244" y="-472.8" font-family="Helvetica,sans-Serif" font-size="11.00" fill="#000000">hunger_q1</text>
<polygon fill="none" stroke="#000000" points="224,-443.7 224,-465.7 460,-465.7 460,-443.7 224,-443.7"/>
<image xlink:href="../../images/foreignKeys.png" width="11px" height="12px" preserveAspectRatio="xMinYMin meet" x="229" y="-460.7"/>
<text text-anchor="start" x="244" y="-450.8" font-family="Helvetica,sans-Serif" font-size="11.00" fill="#000000">hunger_q2</text>
<polygon fill="none" stroke="#000000" points="224,-424.7 224,-443.7 460,-443.7 460,-424.7 224,-424.7"/>
<text text-anchor="start" x="227" y="-430.8" font-family="Helvetica,sans-Serif" font-size="11.00" fill="#000000">...</text>
<polygon fill="#ffffff" stroke="transparent" points="224,-405.7 224,-424.7 339,-424.7 339,-405.7 224,-405.7"/>
<polygon fill="none" stroke="#000000" points="224,-405.7 224,-424.7 339,-424.7 339,-405.7 224,-405.7"/>
<text text-anchor="start" x="227" y="-411.8" font-family="Helvetica,sans-Serif" font-size="11.00" fill="#000000">&lt; 21</text>
<polygon fill="#ffffff" stroke="transparent" points="339,-405.7 339,-424.7 395,-424.7 395,-405.7 339,-405.7"/>
<polygon fill="none" stroke="#000000" points="339,-405.7 339,-424.7 395,-424.7 395,-405.7 339,-405.7"/>
<text text-anchor="start" x="385.8862" y="-411.8" font-family="Helvetica,sans-Serif" font-size="11.00" fill="#000000"> &#160;</text>
<polygon fill="#ffffff" stroke="transparent" points="395,-405.7 395,-424.7 460,-424.7 460,-405.7 395,-405.7"/>
<polygon fill="none" stroke="#000000" points="395,-405.7 395,-424.7 460,-424.7 460,-405.7 395,-405.7"/>
<text text-anchor="start" x="441.4053" y="-411.8" font-family="Helvetica,sans-Serif" font-size="11.00" fill="#000000">1 &gt;</text>
</a>
</g>
</g>
<!-- users -->
<g id="node2" class="node">
<title>users</title>
<g id="a_node2"><a xlink:href="../../tables/users.html" xlink:title="users" target="_top">
<polygon fill="#ffffff" stroke="transparent" points="8,-670.2 8,-885.2 175,-885.2 175,-670.2 8,-670.2"/>
<polygon fill="#f5f5f5" stroke="transparent" points="8.5,-861.7 8.5,-884.7 175.5,-884.7 175.5,-861.7 8.5,-861.7"/>
<polygon fill="none" stroke="#000000" points="8.5,-861.7 8.5,-884.7 175.5,-884.7 175.5,-861.7 8.5,-861.7"/>
<text text-anchor="start" x="13.5" y="-870.3" font-family="Helvetica,sans-Serif" font-weight="bold" font-size="11.00" fill="#000000">users</text>
<text text-anchor="start" x="140.5437" y="-869.8" font-family="Helvetica,sans-Serif" font-size="11.00" fill="#000000">[table]</text>
<polygon fill="none" stroke="#000000" points="8.5,-839.7 8.5,-861.7 175.5,-861.7 175.5,-839.7 8.5,-839.7"/>
<image xlink:href="../../images/primaryKeys.png" width="11px" height="12px" preserveAspectRatio="xMinYMin meet" x="13.5" y="-856.7"/>
<text text-anchor="start" x="28.5" y="-846.8" font-family="Helvetica,sans-Serif" font-size="11.00" fill="#000000">id</text>
<polygon fill="#ffffff" stroke="transparent" points="8.5,-817.7 8.5,-839.7 175.5,-839.7 175.5,-817.7 8.5,-817.7"/>
<polygon fill="none" stroke="#000000" points="8.5,-817.7 8.5,-839.7 175.5,-839.7 175.5,-817.7 8.5,-817.7"/>
<text text-anchor="start" x="28.5" y="-824.8" font-family="Helvetica,sans-Serif" font-size="11.00" fill="#000000">uuid</text>
<polygon fill="none" stroke="#000000" points="8.5,-795.7 8.5,-817.7 175.5,-817.7 175.5,-795.7 8.5,-795.7"/>
<image xlink:href="../../images/primaryKeys.png" width="11px" height="12px" preserveAspectRatio="xMinYMin meet" x="13.5" y="-812.7"/>
<text text-anchor="start" x="28.5" y="-802.8" font-family="Helvetica,sans-Serif" font-size="11.00" fill="#000000">username</text>
<polygon fill="none" stroke="#000000" points="8.5,-773.7 8.5,-795.7 175.5,-795.7 175.5,-773.7 8.5,-773.7"/>
<image xlink:href="../../images/foreignKeys.png" width="11px" height="12px" preserveAspectRatio="xMinYMin meet" x="13.5" y="-790.7"/>
<text text-anchor="start" x="28.5" y="-780.8" font-family="Helvetica,sans-Serif" font-size="11.00" fill="#000000">facility_id</text>
<polygon fill="#ffffff" stroke="transparent" points="8.5,-751.7 8.5,-773.7 175.5,-773.7 175.5,-751.7 8.5,-751.7"/>
<polygon fill="none" stroke="#000000" points="8.5,-751.7 8.5,-773.7 175.5,-773.7 175.5,-751.7 8.5,-751.7"/>
<text text-anchor="start" x="28.5" y="-758.8" font-family="Helvetica,sans-Serif" font-size="11.00" fill="#000000">google_signin_email</text>
<polygon fill="#ffffff" stroke="transparent" points="8.5,-729.7 8.5,-751.7 175.5,-751.7 175.5,-729.7 8.5,-729.7"/>
<polygon fill="none" stroke="#000000" points="8.5,-729.7 8.5,-751.7 175.5,-751.7 175.5,-729.7 8.5,-729.7"/>
<text text-anchor="start" x="28.5" y="-736.8" font-family="Helvetica,sans-Serif" font-size="11.00" fill="#000000">abook_type</text>
<polygon fill="none" stroke="#000000" points="8.5,-707.7 8.5,-729.7 175.5,-729.7 175.5,-707.7 8.5,-707.7"/>
<image xlink:href="../../images/foreignKeys.png" width="11px" height="12px" preserveAspectRatio="xMinYMin meet" x="13.5" y="-724.7"/>
<text text-anchor="start" x="28.5" y="-714.8" font-family="Helvetica,sans-Serif" font-size="11.00" fill="#000000">billing_facility_id</text>
<polygon fill="none" stroke="#000000" points="8.5,-688.7 8.5,-707.7 175.5,-707.7 175.5,-688.7 8.5,-688.7"/>
<text text-anchor="start" x="11.5" y="-694.8" font-family="Helvetica,sans-Serif" font-size="11.00" fill="#000000">...</text>
<polygon fill="#ffffff" stroke="transparent" points="8.5,-669.7 8.5,-688.7 82.5,-688.7 82.5,-669.7 8.5,-669.7"/>
<polygon fill="none" stroke="#000000" points="8.5,-669.7 8.5,-688.7 82.5,-688.7 82.5,-669.7 8.5,-669.7"/>
<text text-anchor="start" x="11.5" y="-675.8" font-family="Helvetica,sans-Serif" font-size="11.00" fill="#000000">&lt; 2</text>
<polygon fill="#ffffff" stroke="transparent" points="82.5,-669.7 82.5,-688.7 121.5,-688.7 121.5,-669.7 82.5,-669.7"/>
<polygon fill="none" stroke="#000000" points="82.5,-669.7 82.5,-688.7 121.5,-688.7 121.5,-669.7 82.5,-669.7"/>
<text text-anchor="start" x="112.3862" y="-675.8" font-family="Helvetica,sans-Serif" font-size="11.00" fill="#000000"> &#160;</text>
<polygon fill="#ffffff" stroke="transparent" points="121.5,-669.7 121.5,-688.7 175.5,-688.7 175.5,-669.7 121.5,-669.7"/>
<polygon fill="none" stroke="#000000" points="121.5,-669.7 121.5,-688.7 175.5,-688.7 175.5,-669.7 121.5,-669.7"/>
<text text-anchor="start" x="150.7904" y="-675.8" font-family="Helvetica,sans-Serif" font-size="11.00" fill="#000000">90 &gt;</text>
</a>
</g>
</g>
<!-- form_history_sdoh&#45;&gt;users -->
<g id="edge1" class="edge">
<title>form_history_sdoh:w&#45;&gt;users:e</title>
<path fill="none" stroke="#000000" d="M209.7648,-788.1375C198.3432,-794.325 193.2522,-806.7 175.5,-806.7"/>
<polygon fill="#000000" stroke="#000000" points="216.2235,-786.5779 224.8451,-788.1994 220.1118,-785.6389 224,-784.7 224,-784.7 224,-784.7 220.1118,-785.6389 223.1549,-781.2006 216.2235,-786.5779 216.2235,-786.5779"/>
<ellipse fill="none" stroke="#000000" cx="213.1129" cy="-787.3291" rx="3.2" ry="3.2"/>
</g>
<!-- form_history_sdoh&#45;&gt;users -->
<g id="edge2" class="edge">
<title>form_history_sdoh:w&#45;&gt;users:e</title>
<path fill="none" stroke="#000000" d="M209.7648,-869.2625C198.3432,-863.075 193.2522,-850.7 175.5,-850.7"/>
<polygon fill="#000000" stroke="#000000" points="216.2235,-870.8221 223.1549,-876.1994 220.1118,-871.7611 224,-872.7 224,-872.7 224,-872.7 220.1118,-871.7611 224.8451,-869.2006 216.2235,-870.8221 216.2235,-870.8221"/>
<ellipse fill="none" stroke="#000000" cx="213.1129" cy="-870.0709" rx="3.2" ry="3.2"/>
</g>
<!-- form_history_sdoh&#45;&gt;users -->
<g id="edge3" class="edge">
<title>form_history_sdoh:w&#45;&gt;users:e</title>
<path fill="none" stroke="#000000" d="M209.2829,-850.7C198.2886,-850.7 191.1615,-850.7 175.5,-850.7"/>
<polygon fill="#000000" stroke="#000000" points="216,-850.7001 224,-854.3 220,-850.7 224,-850.7 224,-850.7 224,-850.7 220,-850.7 224,-847.1 216,-850.7001 216,-850.7001"/>
<ellipse fill="none" stroke="#000000" cx="212.8" cy="-850.7001" rx="3.2" ry="3.2"/>
</g>
<!-- form_history_sdoh_health_concerns -->
<g id="node3" class="node">
<title>form_history_sdoh_health_concerns</title>
<g id="a_node3"><a xlink:href="../../tables/form_history_sdoh_health_concerns.html" xlink:title="form_history_sdoh_health_concerns" target="_top">
<polygon fill="#ffffff" stroke="transparent" points="509,-862.7 509,-1018.7 871,-1018.7 871,-862.7 509,-862.7"/>
<polygon fill="#f5f5f5" stroke="transparent" points="511,-993.7 511,-1016.7 869,-1016.7 869,-993.7 511,-993.7"/>
<polygon fill="none" stroke="#000000" points="511,-993.7 511,-1016.7 869,-1016.7 869,-993.7 511,-993.7"/>
<text text-anchor="start" x="516" y="-1002.3" font-family="Helvetica,sans-Serif" font-weight="bold" font-size="11.00" fill="#000000">form_history_sdoh_health_concerns</text>
<text text-anchor="start" x="834.0437" y="-1001.8" font-family="Helvetica,sans-Serif" font-size="11.00" fill="#000000">[table]</text>
<polygon fill="none" stroke="#000000" points="511,-971.7 511,-993.7 771,-993.7 771,-971.7 511,-971.7"/>
<image xlink:href="../../images/primaryKeys.png" width="11px" height="12px" preserveAspectRatio="xMinYMin meet" x="516" y="-988.7"/>
<text text-anchor="start" x="531" y="-978.8" font-family="Helvetica,sans-Serif" font-size="11.00" fill="#000000">id</text>
<polygon fill="none" stroke="#000000" points="771,-971.7 771,-993.7 869,-993.7 869,-971.7 771,-971.7"/>
<text text-anchor="start" x="774" y="-979.4" font-family="Helvetica,sans-Serif" font-size="11.00" fill="#000000">bigint[19]</text>
<polygon fill="#ffffff" stroke="transparent" points="511,-949.7 511,-971.7 771,-971.7 771,-949.7 511,-949.7"/>
<polygon fill="none" stroke="#000000" points="511,-949.7 511,-971.7 771,-971.7 771,-949.7 511,-949.7"/>
<image xlink:href="../../images/foreignKeys.png" width="11px" height="12px" preserveAspectRatio="xMinYMin meet" x="516" y="-966.7"/>
<text text-anchor="start" x="531" y="-956.8" font-family="Helvetica,sans-Serif" font-size="11.00" fill="#000000">sdoh_history_id</text>
<polygon fill="none" stroke="#000000" points="771,-949.7 771,-971.7 869,-971.7 869,-949.7 771,-949.7"/>
<text text-anchor="start" x="773.8429" y="-957.4" font-family="Helvetica,sans-Serif" font-size="11.00" fill="#000000">bigint unsigned[20]</text>
<polygon fill="#ffffff" stroke="transparent" points="511,-927.7 511,-949.7 771,-949.7 771,-927.7 511,-927.7"/>
<polygon fill="none" stroke="#000000" points="511,-927.7 511,-949.7 771,-949.7 771,-927.7 511,-927.7"/>
<image xlink:href="../../images/foreignKeys.png" width="11px" height="12px" preserveAspectRatio="xMinYMin meet" x="516" y="-944.7"/>
<text text-anchor="start" x="531" y="-934.8" font-family="Helvetica,sans-Serif" font-size="11.00" fill="#000000">health_concern_id</text>
<polygon fill="none" stroke="#000000" points="771,-927.7 771,-949.7 869,-949.7 869,-927.7 771,-927.7"/>
<text text-anchor="start" x="774" y="-935.4" font-family="Helvetica,sans-Serif" font-size="11.00" fill="#000000">bigint[19]</text>
<polygon fill="none" stroke="#000000" points="511,-905.7 511,-927.7 771,-927.7 771,-905.7 511,-905.7"/>
<text text-anchor="start" x="531" y="-912.8" font-family="Helvetica,sans-Serif" font-size="11.00" fill="#000000">created_at</text>
<polygon fill="none" stroke="#000000" points="771,-905.7 771,-927.7 869,-927.7 869,-905.7 771,-905.7"/>
<text text-anchor="start" x="774" y="-913.4" font-family="Helvetica,sans-Serif" font-size="11.00" fill="#000000">datetime[19]</text>
<polygon fill="none" stroke="#000000" points="511,-883.7 511,-905.7 771,-905.7 771,-883.7 511,-883.7"/>
<image xlink:href="../../images/foreignKeys.png" width="11px" height="12px" preserveAspectRatio="xMinYMin meet" x="516" y="-900.7"/>
<text text-anchor="start" x="531" y="-890.8" font-family="Helvetica,sans-Serif" font-size="11.00" fill="#000000">created_by</text>
<polygon fill="none" stroke="#000000" points="771,-883.7 771,-905.7 869,-905.7 869,-883.7 771,-883.7"/>
<text text-anchor="start" x="774" y="-891.4" font-family="Helvetica,sans-Serif" font-size="11.00" fill="#000000">bigint[19]</text>
<polygon fill="#ffffff" stroke="transparent" points="511,-864.7 511,-883.7 645,-883.7 645,-864.7 511,-864.7"/>
<polygon fill="none" stroke="#000000" points="511,-864.7 511,-883.7 645,-883.7 645,-864.7 511,-864.7"/>
<text text-anchor="start" x="514" y="-870.8" font-family="Helvetica,sans-Serif" font-size="11.00" fill="#000000">&lt; 3</text>
<polygon fill="#ffffff" stroke="transparent" points="645,-864.7 645,-883.7 771,-883.7 771,-864.7 645,-864.7"/>
<polygon fill="none" stroke="#000000" points="645,-864.7 645,-883.7 771,-883.7 771,-864.7 645,-864.7"/>
<text text-anchor="start" x="761.8862" y="-870.8" font-family="Helvetica,sans-Serif" font-size="11.00" fill="#000000"> &#160;</text>
<polygon fill="#ffffff" stroke="transparent" points="771,-864.7 771,-883.7 869,-883.7 869,-864.7 771,-864.7"/>
<polygon fill="none" stroke="#000000" points="771,-864.7 771,-883.7 869,-883.7 869,-864.7 771,-864.7"/>
<text text-anchor="start" x="850.4053" y="-870.8" font-family="Helvetica,sans-Serif" font-size="11.00" fill="#000000">0 &gt;</text>
<polygon fill="none" stroke="#000000" stroke-width="2" points="510,-863.7 510,-1017.7 870,-1017.7 870,-863.7 510,-863.7"/>
</a>
</g>
</g>
<!-- form_history_sdoh_health_concerns&#45;&gt;form_history_sdoh -->
<g id="edge6" class="edge">
<title>form_history_sdoh_health_concerns:w&#45;&gt;form_history_sdoh:e</title>
<path fill="none" stroke="#000000" d="M496.276,-960.7C484.2815,-960.7 476.8229,-960.7 460,-960.7"/>
<polygon fill="#000000" stroke="#000000" points="503,-960.7001 511,-964.3 507,-960.7 511,-960.7 511,-960.7 511,-960.7 507,-960.7 511,-957.1 503,-960.7001 503,-960.7001"/>
<ellipse fill="none" stroke="#000000" cx="499.8" cy="-960.7001" rx="3.2" ry="3.2"/>
</g>
<!-- form_history_sdoh_health_concerns&#45;&gt;users -->
<g id="edge4" class="edge">
<title>form_history_sdoh_health_concerns:w&#45;&gt;users:e</title>
<path fill="none" stroke="#000000" d="M496.8227,-897.6299C468.98,-912.4173 506.7025,-979.1878 468,-1005.7 375.6007,-1068.9959 304.643,-1074.1574 216,-1005.7 159.6471,-962.1796 246.7017,-850.7 175.5,-850.7"/>
<polygon fill="#000000" stroke="#000000" points="503.1655,-896.3191 511.7286,-898.2255 507.0828,-895.5096 511,-894.7 511,-894.7 511,-894.7 507.0828,-895.5096 510.2714,-891.1745 503.1655,-896.3191 503.1655,-896.3191"/>
<ellipse fill="none" stroke="#000000" cx="500.0318" cy="-896.9668" rx="3.2" ry="3.2"/>
</g>
<!-- lists -->
<g id="node4" class="node">
<title>lists</title>
<g id="a_node4"><a xlink:href="../../tables/lists.html" xlink:title="lists" target="_top">
<polygon fill="#ffffff" stroke="transparent" points="271,-38.2 271,-385.2 413,-385.2 413,-38.2 271,-38.2"/>
<polygon fill="#f5f5f5" stroke="transparent" points="271,-361.7 271,-384.7 413,-384.7 413,-361.7 271,-361.7"/>
<polygon fill="none" stroke="#000000" points="271,-361.7 271,-384.7 413,-384.7 413,-361.7 271,-361.7"/>
<text text-anchor="start" x="276" y="-370.3" font-family="Helvetica,sans-Serif" font-weight="bold" font-size="11.00" fill="#000000">lists</text>
<text text-anchor="start" x="378.0437" y="-369.8" font-family="Helvetica,sans-Serif" font-size="11.00" fill="#000000">[table]</text>
<polygon fill="none" stroke="#000000" points="271,-339.7 271,-361.7 413,-361.7 413,-339.7 271,-339.7"/>
<image xlink:href="../../images/primaryKeys.png" width="11px" height="12px" preserveAspectRatio="xMinYMin meet" x="276" y="-356.7"/>
<text text-anchor="start" x="291" y="-346.8" font-family="Helvetica,sans-Serif" font-size="11.00" fill="#000000">id</text>
<polygon fill="#ffffff" stroke="transparent" points="271,-317.7 271,-339.7 413,-339.7 413,-317.7 271,-317.7"/>
<polygon fill="none" stroke="#000000" points="271,-317.7 271,-339.7 413,-339.7 413,-317.7 271,-317.7"/>
<text text-anchor="start" x="291" y="-324.8" font-family="Helvetica,sans-Serif" font-size="11.00" fill="#000000">uuid</text>
<polygon fill="#ffffff" stroke="transparent" points="271,-295.7 271,-317.7 413,-317.7 413,-295.7 271,-295.7"/>
<polygon fill="none" stroke="#000000" points="271,-295.7 271,-317.7 413,-317.7 413,-295.7 271,-295.7"/>
<image xlink:href="../../images/foreignKeys.png" width="11px" height="12px" preserveAspectRatio="xMinYMin meet" x="276" y="-312.7"/>
<text text-anchor="start" x="291" y="-302.8" font-family="Helvetica,sans-Serif" font-size="11.00" fill="#000000">type</text>
<polygon fill="none" stroke="#000000" points="271,-273.7 271,-295.7 413,-295.7 413,-273.7 271,-273.7"/>
<image xlink:href="../../images/foreignKeys.png" width="11px" height="12px" preserveAspectRatio="xMinYMin meet" x="276" y="-290.7"/>
<text text-anchor="start" x="291" y="-280.8" font-family="Helvetica,sans-Serif" font-size="11.00" fill="#000000">subtype</text>
<polygon fill="none" stroke="#000000" points="271,-251.7 271,-273.7 413,-273.7 413,-251.7 271,-251.7"/>
<image xlink:href="../../images/foreignKeys.png" width="11px" height="12px" preserveAspectRatio="xMinYMin meet" x="276" y="-268.7"/>
<text text-anchor="start" x="291" y="-258.8" font-family="Helvetica,sans-Serif" font-size="11.00" fill="#000000">occurrence</text>
<polygon fill="#ffffff" stroke="transparent" points="271,-229.7 271,-251.7 413,-251.7 413,-229.7 271,-229.7"/>
<polygon fill="none" stroke="#000000" points="271,-229.7 271,-251.7 413,-251.7 413,-229.7 271,-229.7"/>
<image xlink:href="../../images/foreignKeys.png" width="11px" height="12px" preserveAspectRatio="xMinYMin meet" x="276" y="-246.7"/>
<text text-anchor="start" x="291" y="-236.8" font-family="Helvetica,sans-Serif" font-size="11.00" fill="#000000">pid</text>
<polygon fill="none" stroke="#000000" points="271,-207.7 271,-229.7 413,-229.7 413,-207.7 271,-207.7"/>
<image xlink:href="../../images/foreignKeys.png" width="11px" height="12px" preserveAspectRatio="xMinYMin meet" x="276" y="-224.7"/>
<text text-anchor="start" x="291" y="-214.8" font-family="Helvetica,sans-Serif" font-size="11.00" fill="#000000">user</text>
<polygon fill="none" stroke="#000000" points="271,-185.7 271,-207.7 413,-207.7 413,-185.7 271,-185.7"/>
<image xlink:href="../../images/foreignKeys.png" width="11px" height="12px" preserveAspectRatio="xMinYMin meet" x="276" y="-202.7"/>
<text text-anchor="start" x="291" y="-192.8" font-family="Helvetica,sans-Serif" font-size="11.00" fill="#000000">groupname</text>
<polygon fill="none" stroke="#000000" points="271,-163.7 271,-185.7 413,-185.7 413,-163.7 271,-163.7"/>
<image xlink:href="../../images/foreignKeys.png" width="11px" height="12px" preserveAspectRatio="xMinYMin meet" x="276" y="-180.7"/>
<text text-anchor="start" x="291" y="-170.8" font-family="Helvetica,sans-Serif" font-size="11.00" fill="#000000">outcome</text>
<polygon fill="none" stroke="#000000" points="271,-141.7 271,-163.7 413,-163.7 413,-141.7 271,-141.7"/>
<image xlink:href="../../images/foreignKeys.png" width="11px" height="12px" preserveAspectRatio="xMinYMin meet" x="276" y="-158.7"/>
<text text-anchor="start" x="291" y="-148.8" font-family="Helvetica,sans-Serif" font-size="11.00" fill="#000000">reaction</text>
<polygon fill="none" stroke="#000000" points="271,-119.7 271,-141.7 413,-141.7 413,-119.7 271,-119.7"/>
<image xlink:href="../../images/foreignKeys.png" width="11px" height="12px" preserveAspectRatio="xMinYMin meet" x="276" y="-136.7"/>
<text text-anchor="start" x="291" y="-126.8" font-family="Helvetica,sans-Serif" font-size="11.00" fill="#000000">verification</text>
<polygon fill="none" stroke="#000000" points="271,-97.7 271,-119.7 413,-119.7 413,-97.7 271,-97.7"/>
<image xlink:href="../../images/foreignKeys.png" width="11px" height="12px" preserveAspectRatio="xMinYMin meet" x="276" y="-114.7"/>
<text text-anchor="start" x="291" y="-104.8" font-family="Helvetica,sans-Serif" font-size="11.00" fill="#000000">severity_al</text>
<polygon fill="none" stroke="#000000" points="271,-75.7 271,-97.7 413,-97.7 413,-75.7 271,-75.7"/>
<image xlink:href="../../images/foreignKeys.png" width="11px" height="12px" preserveAspectRatio="xMinYMin meet" x="276" y="-92.7"/>
<text text-anchor="start" x="291" y="-82.8" font-family="Helvetica,sans-Serif" font-size="11.00" fill="#000000">list_option_id</text>
<polygon fill="none" stroke="#000000" points="271,-56.7 271,-75.7 413,-75.7 413,-56.7 271,-56.7"/>
<text text-anchor="start" x="274" y="-62.8" font-family="Helvetica,sans-Serif" font-size="11.00" fill="#000000">...</text>
<polygon fill="#ffffff" stroke="transparent" points="271,-37.7 271,-56.7 339,-56.7 339,-37.7 271,-37.7"/>
<polygon fill="none" stroke="#000000" points="271,-37.7 271,-56.7 339,-56.7 339,-37.7 271,-37.7"/>
<text text-anchor="start" x="274" y="-43.8" font-family="Helvetica,sans-Serif" font-size="11.00" fill="#000000">&lt; 11</text>
<polygon fill="#ffffff" stroke="transparent" points="339,-37.7 339,-56.7 371,-56.7 371,-37.7 339,-37.7"/>
<polygon fill="none" stroke="#000000" points="339,-37.7 339,-56.7 371,-56.7 371,-37.7 339,-37.7"/>
<text text-anchor="start" x="361.8862" y="-43.8" font-family="Helvetica,sans-Serif" font-size="11.00" fill="#000000"> &#160;</text>
<polygon fill="#ffffff" stroke="transparent" points="371,-37.7 371,-56.7 413,-56.7 413,-37.7 371,-37.7"/>
<polygon fill="none" stroke="#000000" points="371,-37.7 371,-56.7 413,-56.7 413,-37.7 371,-37.7"/>
<text text-anchor="start" x="394.4053" y="-43.8" font-family="Helvetica,sans-Serif" font-size="11.00" fill="#000000">5 &gt;</text>
</a>
</g>
</g>
<!-- form_history_sdoh_health_concerns&#45;&gt;lists -->
<g id="edge5" class="edge">
<title>form_history_sdoh_health_concerns:w&#45;&gt;lists:e</title>
<path fill="none" stroke="#000000" d="M498.9372,-930.5906C456.9943,-866.6752 493.9205,-445.2408 468,-395.7 453.358,-367.7153 444.5837,-350.7 413,-350.7"/>
<polygon fill="#000000" stroke="#000000" points="504.3608,-934.2367 508.9915,-941.6876 507.6804,-936.4683 511,-938.7 511,-938.7 511,-938.7 507.6804,-936.4683 513.0085,-935.7124 504.3608,-934.2367 504.3608,-934.2367"/>
<ellipse fill="none" stroke="#000000" cx="501.7051" cy="-932.4514" rx="3.2" ry="3.2"/>
</g>
<!-- lists&#45;&gt;users -->
<g id="edge7" class="edge">
<title>lists:w&#45;&gt;users:e</title>
<path fill="none" stroke="#000000" d="M256.5933,-219.8697C194.0095,-231.0442 231.292,-320.1648 216,-395.7 206.8948,-440.6754 221.3878,-806.7 175.5,-806.7"/>
<polygon fill="#000000" stroke="#000000" points="263.0262,-219.3475 271.2914,-222.2882 267.0131,-219.0237 271,-218.7 271,-218.7 271,-218.7 267.0131,-219.0237 270.7086,-215.1118 263.0262,-219.3475 263.0262,-219.3475"/>
<ellipse fill="none" stroke="#000000" cx="259.8367" cy="-219.6065" rx="3.2" ry="3.2"/>
</g>
</g>
</svg>
