<?xml version="1.0" encoding="UTF-8" standalone="no"?>
<!DOCTYPE svg PUBLIC "-//W3C//DTD SVG 1.1//EN"
 "http://www.w3.org/Graphics/SVG/1.1/DTD/svg11.dtd">
<!-- Generated by graphviz version 2.40.1 (20161225.0304)
 -->
<!-- Title: oneDegreeRelationshipsDiagram Pages: 1 -->
<svg width="622pt" height="441pt"
 viewBox="0.00 0.00 622.00 441.20" xmlns="http://www.w3.org/2000/svg" xmlns:xlink="http://www.w3.org/1999/xlink">
<g id="graph0" class="graph" transform="scale(1 1) rotate(0) translate(4 437.2)">
<title>oneDegreeRelationshipsDiagram</title>
<polygon fill="#ffffff" stroke="transparent" points="-4,4 -4,-437.2 618,-437.2 618,4 -4,4"/>
<text text-anchor="middle" x="72.4936" y="-7.3" font-family="Helvetica,sans-Serif" font-size="11.00" fill="#000000">Generated by SchemaSpy</text>
<!-- form_clinical_instructions -->
<g id="node1" class="node">
<title>form_clinical_instructions</title>
<g id="a_node1"><a xlink:href="../../tables/form_clinical_instructions.html" xlink:title="form_clinical_instructions" target="_top">
<polygon fill="#ffffff" stroke="transparent" points="334,-54.7 334,-254.7 606,-254.7 606,-54.7 334,-54.7"/>
<polygon fill="#f5f5f5" stroke="transparent" points="336,-229.7 336,-252.7 604,-252.7 604,-229.7 336,-229.7"/>
<polygon fill="none" stroke="#000000" points="336,-229.7 336,-252.7 604,-252.7 604,-229.7 336,-229.7"/>
<text text-anchor="start" x="341" y="-238.3" font-family="Helvetica,sans-Serif" font-weight="bold" font-size="11.00" fill="#000000">form_clinical_instructions</text>
<text text-anchor="start" x="569.0437" y="-237.8" font-family="Helvetica,sans-Serif" font-size="11.00" fill="#000000">[table]</text>
<polygon fill="none" stroke="#000000" points="336,-207.7 336,-229.7 529,-229.7 529,-207.7 336,-207.7"/>
<image xlink:href="../../images/primaryKeys.png" width="11px" height="12px" preserveAspectRatio="xMinYMin meet" x="341" y="-224.7"/>
<text text-anchor="start" x="356" y="-214.8" font-family="Helvetica,sans-Serif" font-size="11.00" fill="#000000">id</text>
<polygon fill="none" stroke="#000000" points="529,-207.7 529,-229.7 604,-229.7 604,-207.7 529,-207.7"/>
<text text-anchor="start" x="532" y="-215.4" font-family="Helvetica,sans-Serif" font-size="11.00" fill="#000000">int[10]</text>
<polygon fill="none" stroke="#000000" points="336,-185.7 336,-207.7 529,-207.7 529,-185.7 336,-185.7"/>
<image xlink:href="../../images/foreignKeys.png" width="11px" height="12px" preserveAspectRatio="xMinYMin meet" x="341" y="-202.7"/>
<text text-anchor="start" x="356" y="-192.8" font-family="Helvetica,sans-Serif" font-size="11.00" fill="#000000">pid</text>
<polygon fill="none" stroke="#000000" points="529,-185.7 529,-207.7 604,-207.7 604,-185.7 529,-185.7"/>
<text text-anchor="start" x="532" y="-193.4" font-family="Helvetica,sans-Serif" font-size="11.00" fill="#000000">bigint[19]</text>
<polygon fill="none" stroke="#000000" points="336,-163.7 336,-185.7 529,-185.7 529,-163.7 336,-163.7"/>
<text text-anchor="start" x="356" y="-170.8" font-family="Helvetica,sans-Serif" font-size="11.00" fill="#000000">encounter</text>
<polygon fill="none" stroke="#000000" points="529,-163.7 529,-185.7 604,-185.7 604,-163.7 529,-163.7"/>
<text text-anchor="start" x="532" y="-171.4" font-family="Helvetica,sans-Serif" font-size="11.00" fill="#000000">varchar[255]</text>
<polygon fill="none" stroke="#000000" points="336,-141.7 336,-163.7 529,-163.7 529,-141.7 336,-141.7"/>
<text text-anchor="start" x="356" y="-148.8" font-family="Helvetica,sans-Serif" font-size="11.00" fill="#000000">user</text>
<polygon fill="none" stroke="#000000" points="529,-141.7 529,-163.7 604,-163.7 604,-141.7 529,-141.7"/>
<text text-anchor="start" x="532" y="-149.4" font-family="Helvetica,sans-Serif" font-size="11.00" fill="#000000">varchar[255]</text>
<polygon fill="none" stroke="#000000" points="336,-119.7 336,-141.7 529,-141.7 529,-119.7 336,-119.7"/>
<text text-anchor="start" x="356" y="-126.8" font-family="Helvetica,sans-Serif" font-size="11.00" fill="#000000">instruction</text>
<polygon fill="none" stroke="#000000" points="529,-119.7 529,-141.7 604,-141.7 604,-119.7 529,-119.7"/>
<text text-anchor="start" x="532" y="-127.4" font-family="Helvetica,sans-Serif" font-size="11.00" fill="#000000">text[65535]</text>
<polygon fill="none" stroke="#000000" points="336,-97.7 336,-119.7 529,-119.7 529,-97.7 336,-97.7"/>
<text text-anchor="start" x="356" y="-104.8" font-family="Helvetica,sans-Serif" font-size="11.00" fill="#000000">date</text>
<polygon fill="none" stroke="#000000" points="529,-97.7 529,-119.7 604,-119.7 604,-97.7 529,-97.7"/>
<text text-anchor="start" x="531.9666" y="-105.4" font-family="Helvetica,sans-Serif" font-size="11.00" fill="#000000">timestamp[19]</text>
<polygon fill="none" stroke="#000000" points="336,-75.7 336,-97.7 529,-97.7 529,-75.7 336,-75.7"/>
<text text-anchor="start" x="356" y="-82.8" font-family="Helvetica,sans-Serif" font-size="11.00" fill="#000000">activity</text>
<polygon fill="none" stroke="#000000" points="529,-75.7 529,-97.7 604,-97.7 604,-75.7 529,-75.7"/>
<text text-anchor="start" x="532" y="-83.4" font-family="Helvetica,sans-Serif" font-size="11.00" fill="#000000">tinyint[3]</text>
<polygon fill="#ffffff" stroke="transparent" points="336,-56.7 336,-75.7 437,-75.7 437,-56.7 336,-56.7"/>
<polygon fill="none" stroke="#000000" points="336,-56.7 336,-75.7 437,-75.7 437,-56.7 336,-56.7"/>
<text text-anchor="start" x="339" y="-62.8" font-family="Helvetica,sans-Serif" font-size="11.00" fill="#000000">&lt; 1</text>
<polygon fill="#ffffff" stroke="transparent" points="437,-56.7 437,-75.7 529,-75.7 529,-56.7 437,-56.7"/>
<polygon fill="none" stroke="#000000" points="437,-56.7 437,-75.7 529,-75.7 529,-56.7 437,-56.7"/>
<text text-anchor="start" x="519.8862" y="-62.8" font-family="Helvetica,sans-Serif" font-size="11.00" fill="#000000"> &#160;</text>
<polygon fill="#ffffff" stroke="transparent" points="529,-56.7 529,-75.7 604,-75.7 604,-56.7 529,-56.7"/>
<polygon fill="none" stroke="#000000" points="529,-56.7 529,-75.7 604,-75.7 604,-56.7 529,-56.7"/>
<text text-anchor="start" x="585.4053" y="-62.8" font-family="Helvetica,sans-Serif" font-size="11.00" fill="#000000">0 &gt;</text>
<polygon fill="none" stroke="#000000" stroke-width="2" points="335,-55.7 335,-253.7 605,-253.7 605,-55.7 335,-55.7"/>
</a>
</g>
</g>
<!-- patient_data -->
<g id="node2" class="node">
<title>patient_data</title>
<g id="a_node2"><a xlink:href="../../tables/patient_data.html" xlink:title="patient_data" target="_top">
<polygon fill="#ffffff" stroke="transparent" points="8,-38.2 8,-429.2 285,-429.2 285,-38.2 8,-38.2"/>
<polygon fill="#f5f5f5" stroke="transparent" points="8.5,-405.7 8.5,-428.7 285.5,-428.7 285.5,-405.7 8.5,-405.7"/>
<polygon fill="none" stroke="#000000" points="8.5,-405.7 8.5,-428.7 285.5,-428.7 285.5,-405.7 8.5,-405.7"/>
<text text-anchor="start" x="13.5" y="-414.3" font-family="Helvetica,sans-Serif" font-weight="bold" font-size="11.00" fill="#000000">patient_data</text>
<text text-anchor="start" x="250.5437" y="-413.8" font-family="Helvetica,sans-Serif" font-size="11.00" fill="#000000">[table]</text>
<polygon fill="none" stroke="#000000" points="8.5,-383.7 8.5,-405.7 285.5,-405.7 285.5,-383.7 8.5,-383.7"/>
<image xlink:href="../../images/primaryKeys.png" width="11px" height="12px" preserveAspectRatio="xMinYMin meet" x="13.5" y="-400.7"/>
<text text-anchor="start" x="28.5" y="-390.8" font-family="Helvetica,sans-Serif" font-size="11.00" fill="#000000">id</text>
<polygon fill="#ffffff" stroke="transparent" points="8.5,-361.7 8.5,-383.7 285.5,-383.7 285.5,-361.7 8.5,-361.7"/>
<polygon fill="none" stroke="#000000" points="8.5,-361.7 8.5,-383.7 285.5,-383.7 285.5,-361.7 8.5,-361.7"/>
<text text-anchor="start" x="28.5" y="-368.8" font-family="Helvetica,sans-Serif" font-size="11.00" fill="#000000">uuid</text>
<polygon fill="#ffffff" stroke="transparent" points="8.5,-339.7 8.5,-361.7 285.5,-361.7 285.5,-339.7 8.5,-339.7"/>
<polygon fill="none" stroke="#000000" points="8.5,-339.7 8.5,-361.7 285.5,-361.7 285.5,-339.7 8.5,-339.7"/>
<text text-anchor="start" x="28.5" y="-346.8" font-family="Helvetica,sans-Serif" font-size="11.00" fill="#000000">fname</text>
<polygon fill="#ffffff" stroke="transparent" points="8.5,-317.7 8.5,-339.7 285.5,-339.7 285.5,-317.7 8.5,-317.7"/>
<polygon fill="none" stroke="#000000" points="8.5,-317.7 8.5,-339.7 285.5,-339.7 285.5,-317.7 8.5,-317.7"/>
<text text-anchor="start" x="28.5" y="-324.8" font-family="Helvetica,sans-Serif" font-size="11.00" fill="#000000">lname</text>
<polygon fill="#ffffff" stroke="transparent" points="8.5,-295.7 8.5,-317.7 285.5,-317.7 285.5,-295.7 8.5,-295.7"/>
<polygon fill="none" stroke="#000000" points="8.5,-295.7 8.5,-317.7 285.5,-317.7 285.5,-295.7 8.5,-295.7"/>
<text text-anchor="start" x="28.5" y="-302.8" font-family="Helvetica,sans-Serif" font-size="11.00" fill="#000000">DOB</text>
<polygon fill="none" stroke="#000000" points="8.5,-273.7 8.5,-295.7 285.5,-295.7 285.5,-273.7 8.5,-273.7"/>
<image xlink:href="../../images/foreignKeys.png" width="11px" height="12px" preserveAspectRatio="xMinYMin meet" x="13.5" y="-290.7"/>
<text text-anchor="start" x="28.5" y="-280.8" font-family="Helvetica,sans-Serif" font-size="11.00" fill="#000000">pharmacy_id</text>
<polygon fill="none" stroke="#000000" points="8.5,-251.7 8.5,-273.7 285.5,-273.7 285.5,-251.7 8.5,-251.7"/>
<image xlink:href="../../images/foreignKeys.png" width="11px" height="12px" preserveAspectRatio="xMinYMin meet" x="13.5" y="-268.7"/>
<text text-anchor="start" x="28.5" y="-258.8" font-family="Helvetica,sans-Serif" font-size="11.00" fill="#000000">providerID</text>
<polygon fill="none" stroke="#000000" points="8.5,-229.7 8.5,-251.7 285.5,-251.7 285.5,-229.7 8.5,-229.7"/>
<image xlink:href="../../images/foreignKeys.png" width="11px" height="12px" preserveAspectRatio="xMinYMin meet" x="13.5" y="-246.7"/>
<text text-anchor="start" x="28.5" y="-236.8" font-family="Helvetica,sans-Serif" font-size="11.00" fill="#000000">ref_providerID</text>
<polygon fill="none" stroke="#000000" points="8.5,-207.7 8.5,-229.7 285.5,-229.7 285.5,-207.7 8.5,-207.7"/>
<image xlink:href="../../images/foreignKeys.png" width="11px" height="12px" preserveAspectRatio="xMinYMin meet" x="13.5" y="-224.7"/>
<text text-anchor="start" x="28.5" y="-214.8" font-family="Helvetica,sans-Serif" font-size="11.00" fill="#000000">interpreter_needed</text>
<polygon fill="none" stroke="#000000" points="8.5,-185.7 8.5,-207.7 285.5,-207.7 285.5,-185.7 8.5,-185.7"/>
<image xlink:href="../../images/primaryKeys.png" width="11px" height="12px" preserveAspectRatio="xMinYMin meet" x="13.5" y="-202.7"/>
<text text-anchor="start" x="28.5" y="-192.8" font-family="Helvetica,sans-Serif" font-size="11.00" fill="#000000">pid</text>
<polygon fill="none" stroke="#000000" points="8.5,-163.7 8.5,-185.7 285.5,-185.7 285.5,-163.7 8.5,-163.7"/>
<image xlink:href="../../images/foreignKeys.png" width="11px" height="12px" preserveAspectRatio="xMinYMin meet" x="13.5" y="-180.7"/>
<text text-anchor="start" x="28.5" y="-170.8" font-family="Helvetica,sans-Serif" font-size="11.00" fill="#000000">advance_directive_user_authenticator</text>
<polygon fill="none" stroke="#000000" points="8.5,-141.7 8.5,-163.7 285.5,-163.7 285.5,-141.7 8.5,-141.7"/>
<image xlink:href="../../images/foreignKeys.png" width="11px" height="12px" preserveAspectRatio="xMinYMin meet" x="13.5" y="-158.7"/>
<text text-anchor="start" x="28.5" y="-148.8" font-family="Helvetica,sans-Serif" font-size="11.00" fill="#000000">created_by</text>
<polygon fill="none" stroke="#000000" points="8.5,-119.7 8.5,-141.7 285.5,-141.7 285.5,-119.7 8.5,-119.7"/>
<image xlink:href="../../images/foreignKeys.png" width="11px" height="12px" preserveAspectRatio="xMinYMin meet" x="13.5" y="-136.7"/>
<text text-anchor="start" x="28.5" y="-126.8" font-family="Helvetica,sans-Serif" font-size="11.00" fill="#000000">updated_by</text>
<polygon fill="none" stroke="#000000" points="8.5,-97.7 8.5,-119.7 285.5,-119.7 285.5,-97.7 8.5,-97.7"/>
<image xlink:href="../../images/foreignKeys.png" width="11px" height="12px" preserveAspectRatio="xMinYMin meet" x="13.5" y="-114.7"/>
<text text-anchor="start" x="28.5" y="-104.8" font-family="Helvetica,sans-Serif" font-size="11.00" fill="#000000">tribal_affiliations</text>
<polygon fill="none" stroke="#000000" points="8.5,-75.7 8.5,-97.7 285.5,-97.7 285.5,-75.7 8.5,-75.7"/>
<image xlink:href="../../images/foreignKeys.png" width="11px" height="12px" preserveAspectRatio="xMinYMin meet" x="13.5" y="-92.7"/>
<text text-anchor="start" x="28.5" y="-82.8" font-family="Helvetica,sans-Serif" font-size="11.00" fill="#000000">sex_identified</text>
<polygon fill="none" stroke="#000000" points="8.5,-56.7 8.5,-75.7 285.5,-75.7 285.5,-56.7 8.5,-56.7"/>
<text text-anchor="start" x="11.5" y="-62.8" font-family="Helvetica,sans-Serif" font-size="11.00" fill="#000000">...</text>
<polygon fill="#ffffff" stroke="transparent" points="8.5,-37.7 8.5,-56.7 137.5,-56.7 137.5,-37.7 8.5,-37.7"/>
<polygon fill="none" stroke="#000000" points="8.5,-37.7 8.5,-56.7 137.5,-56.7 137.5,-37.7 8.5,-37.7"/>
<text text-anchor="start" x="11.5" y="-43.8" font-family="Helvetica,sans-Serif" font-size="11.00" fill="#000000">&lt; 9</text>
<polygon fill="#ffffff" stroke="transparent" points="137.5,-37.7 137.5,-56.7 203.5,-56.7 203.5,-37.7 137.5,-37.7"/>
<polygon fill="none" stroke="#000000" points="137.5,-37.7 137.5,-56.7 203.5,-56.7 203.5,-37.7 137.5,-37.7"/>
<text text-anchor="start" x="194.3862" y="-43.8" font-family="Helvetica,sans-Serif" font-size="11.00" fill="#000000"> &#160;</text>
<polygon fill="#ffffff" stroke="transparent" points="203.5,-37.7 203.5,-56.7 285.5,-56.7 285.5,-37.7 203.5,-37.7"/>
<polygon fill="none" stroke="#000000" points="203.5,-37.7 203.5,-56.7 285.5,-56.7 285.5,-37.7 203.5,-37.7"/>
<text text-anchor="start" x="260.7904" y="-43.8" font-family="Helvetica,sans-Serif" font-size="11.00" fill="#000000">95 &gt;</text>
</a>
</g>
</g>
<!-- form_clinical_instructions&#45;&gt;patient_data -->
<g id="edge1" class="edge">
<title>form_clinical_instructions:w&#45;&gt;patient_data:e</title>
<path fill="none" stroke="#000000" d="M321.4203,-196.7C309.5435,-196.7 302.158,-196.7 285.5,-196.7"/>
<polygon fill="#000000" stroke="#000000" points="328,-196.7001 336,-200.3 332,-196.7 336,-196.7 336,-196.7 336,-196.7 332,-196.7 336,-193.1 328,-196.7001 328,-196.7001"/>
<ellipse fill="none" stroke="#000000" cx="324.8" cy="-196.7001" rx="3.2" ry="3.2"/>
</g>
</g>
</svg>
