<?xml version="1.0" encoding="UTF-8" standalone="no"?>
<!DOCTYPE svg PUBLIC "-//W3C//DTD SVG 1.1//EN"
 "http://www.w3.org/Graphics/SVG/1.1/DTD/svg11.dtd">
<!-- Generated by graphviz version 2.40.1 (20161225.0304)
 -->
<!-- Title: oneDegreeRelationshipsDiagram Pages: 1 -->
<svg width="599pt" height="1129pt"
 viewBox="0.00 0.00 599.00 1128.70" xmlns="http://www.w3.org/2000/svg" xmlns:xlink="http://www.w3.org/1999/xlink">
<g id="graph0" class="graph" transform="scale(1 1) rotate(0) translate(4 1124.7)">
<title>oneDegreeRelationshipsDiagram</title>
<polygon fill="#ffffff" stroke="transparent" points="-4,4 -4,-1124.7 595,-1124.7 595,4 -4,4"/>
<text text-anchor="middle" x="72.4936" y="-7.3" font-family="Helvetica,sans-Serif" font-size="11.00" fill="#000000">Generated by SchemaSpy</text>
<!-- form_eye_mag_wearing -->
<g id="node1" class="node">
<title>form_eye_mag_wearing</title>
<g id="a_node1"><a xlink:href="../../tables/form_eye_mag_wearing.html" xlink:title="form_eye_mag_wearing" target="_top">
<polygon fill="#ffffff" stroke="transparent" points="334,-38.2 334,-986.2 583,-986.2 583,-38.2 334,-38.2"/>
<polygon fill="#f5f5f5" stroke="transparent" points="336.5,-961.2 336.5,-984.2 581.5,-984.2 581.5,-961.2 336.5,-961.2"/>
<polygon fill="none" stroke="#000000" points="336.5,-961.2 336.5,-984.2 581.5,-984.2 581.5,-961.2 336.5,-961.2"/>
<text text-anchor="start" x="341.5" y="-969.8" font-family="Helvetica,sans-Serif" font-weight="bold" font-size="11.00" fill="#000000">form_eye_mag_wearing</text>
<text text-anchor="start" x="546.5437" y="-969.3" font-family="Helvetica,sans-Serif" font-size="11.00" fill="#000000">[table]</text>
<polygon fill="#ffffff" stroke="transparent" points="336.5,-939.2 336.5,-961.2 514.5,-961.2 514.5,-939.2 336.5,-939.2"/>
<polygon fill="none" stroke="#000000" points="336.5,-939.2 336.5,-961.2 514.5,-961.2 514.5,-939.2 336.5,-939.2"/>
<text text-anchor="start" x="356.5" y="-946.3" font-family="Helvetica,sans-Serif" font-size="11.00" fill="#000000">id</text>
<polygon fill="none" stroke="#000000" points="514.5,-939.2 514.5,-961.2 581.5,-961.2 581.5,-939.2 514.5,-939.2"/>
<text text-anchor="start" x="517.5" y="-946.9" font-family="Helvetica,sans-Serif" font-size="11.00" fill="#000000">int[10]</text>
<polygon fill="#ffffff" stroke="transparent" points="336.5,-917.2 336.5,-939.2 514.5,-939.2 514.5,-917.2 336.5,-917.2"/>
<polygon fill="none" stroke="#000000" points="336.5,-917.2 336.5,-939.2 514.5,-939.2 514.5,-917.2 336.5,-917.2"/>
<text text-anchor="start" x="356.5" y="-924.3" font-family="Helvetica,sans-Serif" font-size="11.00" fill="#000000">ENCOUNTER</text>
<polygon fill="none" stroke="#000000" points="514.5,-917.2 514.5,-939.2 581.5,-939.2 581.5,-917.2 514.5,-917.2"/>
<text text-anchor="start" x="517.5" y="-924.9" font-family="Helvetica,sans-Serif" font-size="11.00" fill="#000000">int[10]</text>
<polygon fill="#ffffff" stroke="transparent" points="336.5,-895.2 336.5,-917.2 514.5,-917.2 514.5,-895.2 336.5,-895.2"/>
<polygon fill="none" stroke="#000000" points="336.5,-895.2 336.5,-917.2 514.5,-917.2 514.5,-895.2 336.5,-895.2"/>
<text text-anchor="start" x="356.5" y="-902.3" font-family="Helvetica,sans-Serif" font-size="11.00" fill="#000000">FORM_ID</text>
<polygon fill="none" stroke="#000000" points="514.5,-895.2 514.5,-917.2 581.5,-917.2 581.5,-895.2 514.5,-895.2"/>
<text text-anchor="start" x="517.5" y="-902.9" font-family="Helvetica,sans-Serif" font-size="11.00" fill="#000000">smallint[5]</text>
<polygon fill="#ffffff" stroke="transparent" points="336.5,-873.2 336.5,-895.2 514.5,-895.2 514.5,-873.2 336.5,-873.2"/>
<polygon fill="none" stroke="#000000" points="336.5,-873.2 336.5,-895.2 514.5,-895.2 514.5,-873.2 336.5,-873.2"/>
<image xlink:href="../../images/foreignKeys.png" width="11px" height="12px" preserveAspectRatio="xMinYMin meet" x="341.5" y="-890.2"/>
<text text-anchor="start" x="356.5" y="-880.3" font-family="Helvetica,sans-Serif" font-size="11.00" fill="#000000">PID</text>
<polygon fill="none" stroke="#000000" points="514.5,-873.2 514.5,-895.2 581.5,-895.2 581.5,-873.2 514.5,-873.2"/>
<text text-anchor="start" x="517.5" y="-880.9" font-family="Helvetica,sans-Serif" font-size="11.00" fill="#000000">bigint[19]</text>
<polygon fill="#ffffff" stroke="transparent" points="336.5,-851.2 336.5,-873.2 514.5,-873.2 514.5,-851.2 336.5,-851.2"/>
<polygon fill="none" stroke="#000000" points="336.5,-851.2 336.5,-873.2 514.5,-873.2 514.5,-851.2 336.5,-851.2"/>
<text text-anchor="start" x="356.5" y="-858.3" font-family="Helvetica,sans-Serif" font-size="11.00" fill="#000000">RX_NUMBER</text>
<polygon fill="none" stroke="#000000" points="514.5,-851.2 514.5,-873.2 581.5,-873.2 581.5,-851.2 514.5,-851.2"/>
<text text-anchor="start" x="517.5" y="-858.9" font-family="Helvetica,sans-Serif" font-size="11.00" fill="#000000">int[10]</text>
<polygon fill="none" stroke="#000000" points="336.5,-829.2 336.5,-851.2 514.5,-851.2 514.5,-829.2 336.5,-829.2"/>
<text text-anchor="start" x="356.5" y="-836.3" font-family="Helvetica,sans-Serif" font-size="11.00" fill="#000000">ODSPH</text>
<polygon fill="none" stroke="#000000" points="514.5,-829.2 514.5,-851.2 581.5,-851.2 581.5,-829.2 514.5,-829.2"/>
<text text-anchor="start" x="517.5" y="-836.9" font-family="Helvetica,sans-Serif" font-size="11.00" fill="#000000">varchar[10]</text>
<polygon fill="none" stroke="#000000" points="336.5,-807.2 336.5,-829.2 514.5,-829.2 514.5,-807.2 336.5,-807.2"/>
<text text-anchor="start" x="356.5" y="-814.3" font-family="Helvetica,sans-Serif" font-size="11.00" fill="#000000">ODCYL</text>
<polygon fill="none" stroke="#000000" points="514.5,-807.2 514.5,-829.2 581.5,-829.2 581.5,-807.2 514.5,-807.2"/>
<text text-anchor="start" x="517.5" y="-814.9" font-family="Helvetica,sans-Serif" font-size="11.00" fill="#000000">varchar[10]</text>
<polygon fill="none" stroke="#000000" points="336.5,-785.2 336.5,-807.2 514.5,-807.2 514.5,-785.2 336.5,-785.2"/>
<text text-anchor="start" x="356.5" y="-792.3" font-family="Helvetica,sans-Serif" font-size="11.00" fill="#000000">ODAXIS</text>
<polygon fill="none" stroke="#000000" points="514.5,-785.2 514.5,-807.2 581.5,-807.2 581.5,-785.2 514.5,-785.2"/>
<text text-anchor="start" x="517.5" y="-792.9" font-family="Helvetica,sans-Serif" font-size="11.00" fill="#000000">varchar[10]</text>
<polygon fill="none" stroke="#000000" points="336.5,-763.2 336.5,-785.2 514.5,-785.2 514.5,-763.2 336.5,-763.2"/>
<text text-anchor="start" x="356.5" y="-770.3" font-family="Helvetica,sans-Serif" font-size="11.00" fill="#000000">OSSPH</text>
<polygon fill="none" stroke="#000000" points="514.5,-763.2 514.5,-785.2 581.5,-785.2 581.5,-763.2 514.5,-763.2"/>
<text text-anchor="start" x="517.5" y="-770.9" font-family="Helvetica,sans-Serif" font-size="11.00" fill="#000000">varchar[10]</text>
<polygon fill="none" stroke="#000000" points="336.5,-741.2 336.5,-763.2 514.5,-763.2 514.5,-741.2 336.5,-741.2"/>
<text text-anchor="start" x="356.5" y="-748.3" font-family="Helvetica,sans-Serif" font-size="11.00" fill="#000000">OSCYL</text>
<polygon fill="none" stroke="#000000" points="514.5,-741.2 514.5,-763.2 581.5,-763.2 581.5,-741.2 514.5,-741.2"/>
<text text-anchor="start" x="517.5" y="-748.9" font-family="Helvetica,sans-Serif" font-size="11.00" fill="#000000">varchar[10]</text>
<polygon fill="none" stroke="#000000" points="336.5,-719.2 336.5,-741.2 514.5,-741.2 514.5,-719.2 336.5,-719.2"/>
<text text-anchor="start" x="356.5" y="-726.3" font-family="Helvetica,sans-Serif" font-size="11.00" fill="#000000">OSAXIS</text>
<polygon fill="none" stroke="#000000" points="514.5,-719.2 514.5,-741.2 581.5,-741.2 581.5,-719.2 514.5,-719.2"/>
<text text-anchor="start" x="517.5" y="-726.9" font-family="Helvetica,sans-Serif" font-size="11.00" fill="#000000">varchar[10]</text>
<polygon fill="none" stroke="#000000" points="336.5,-697.2 336.5,-719.2 514.5,-719.2 514.5,-697.2 336.5,-697.2"/>
<text text-anchor="start" x="356.5" y="-704.3" font-family="Helvetica,sans-Serif" font-size="11.00" fill="#000000">ODMIDADD</text>
<polygon fill="none" stroke="#000000" points="514.5,-697.2 514.5,-719.2 581.5,-719.2 581.5,-697.2 514.5,-697.2"/>
<text text-anchor="start" x="517.5" y="-704.9" font-family="Helvetica,sans-Serif" font-size="11.00" fill="#000000">varchar[10]</text>
<polygon fill="none" stroke="#000000" points="336.5,-675.2 336.5,-697.2 514.5,-697.2 514.5,-675.2 336.5,-675.2"/>
<text text-anchor="start" x="356.5" y="-682.3" font-family="Helvetica,sans-Serif" font-size="11.00" fill="#000000">OSMIDADD</text>
<polygon fill="none" stroke="#000000" points="514.5,-675.2 514.5,-697.2 581.5,-697.2 581.5,-675.2 514.5,-675.2"/>
<text text-anchor="start" x="517.5" y="-682.9" font-family="Helvetica,sans-Serif" font-size="11.00" fill="#000000">varchar[10]</text>
<polygon fill="none" stroke="#000000" points="336.5,-653.2 336.5,-675.2 514.5,-675.2 514.5,-653.2 336.5,-653.2"/>
<text text-anchor="start" x="356.5" y="-660.3" font-family="Helvetica,sans-Serif" font-size="11.00" fill="#000000">ODADD</text>
<polygon fill="none" stroke="#000000" points="514.5,-653.2 514.5,-675.2 581.5,-675.2 581.5,-653.2 514.5,-653.2"/>
<text text-anchor="start" x="517.5" y="-660.9" font-family="Helvetica,sans-Serif" font-size="11.00" fill="#000000">varchar[10]</text>
<polygon fill="none" stroke="#000000" points="336.5,-631.2 336.5,-653.2 514.5,-653.2 514.5,-631.2 336.5,-631.2"/>
<text text-anchor="start" x="356.5" y="-638.3" font-family="Helvetica,sans-Serif" font-size="11.00" fill="#000000">OSADD</text>
<polygon fill="none" stroke="#000000" points="514.5,-631.2 514.5,-653.2 581.5,-653.2 581.5,-631.2 514.5,-631.2"/>
<text text-anchor="start" x="517.5" y="-638.9" font-family="Helvetica,sans-Serif" font-size="11.00" fill="#000000">varchar[10]</text>
<polygon fill="none" stroke="#000000" points="336.5,-609.2 336.5,-631.2 514.5,-631.2 514.5,-609.2 336.5,-609.2"/>
<text text-anchor="start" x="356.5" y="-616.3" font-family="Helvetica,sans-Serif" font-size="11.00" fill="#000000">ODVA</text>
<polygon fill="none" stroke="#000000" points="514.5,-609.2 514.5,-631.2 581.5,-631.2 581.5,-609.2 514.5,-609.2"/>
<text text-anchor="start" x="517.5" y="-616.9" font-family="Helvetica,sans-Serif" font-size="11.00" fill="#000000">varchar[10]</text>
<polygon fill="none" stroke="#000000" points="336.5,-587.2 336.5,-609.2 514.5,-609.2 514.5,-587.2 336.5,-587.2"/>
<text text-anchor="start" x="356.5" y="-594.3" font-family="Helvetica,sans-Serif" font-size="11.00" fill="#000000">OSVA</text>
<polygon fill="none" stroke="#000000" points="514.5,-587.2 514.5,-609.2 581.5,-609.2 581.5,-587.2 514.5,-587.2"/>
<text text-anchor="start" x="517.5" y="-594.9" font-family="Helvetica,sans-Serif" font-size="11.00" fill="#000000">varchar[10]</text>
<polygon fill="none" stroke="#000000" points="336.5,-565.2 336.5,-587.2 514.5,-587.2 514.5,-565.2 336.5,-565.2"/>
<text text-anchor="start" x="356.5" y="-572.3" font-family="Helvetica,sans-Serif" font-size="11.00" fill="#000000">ODNEARVA</text>
<polygon fill="none" stroke="#000000" points="514.5,-565.2 514.5,-587.2 581.5,-587.2 581.5,-565.2 514.5,-565.2"/>
<text text-anchor="start" x="517.5" y="-572.9" font-family="Helvetica,sans-Serif" font-size="11.00" fill="#000000">varchar[10]</text>
<polygon fill="none" stroke="#000000" points="336.5,-543.2 336.5,-565.2 514.5,-565.2 514.5,-543.2 336.5,-543.2"/>
<text text-anchor="start" x="356.5" y="-550.3" font-family="Helvetica,sans-Serif" font-size="11.00" fill="#000000">OSNEARVA</text>
<polygon fill="none" stroke="#000000" points="514.5,-543.2 514.5,-565.2 581.5,-565.2 581.5,-543.2 514.5,-543.2"/>
<text text-anchor="start" x="517.5" y="-550.9" font-family="Helvetica,sans-Serif" font-size="11.00" fill="#000000">varchar[10]</text>
<polygon fill="none" stroke="#000000" points="336.5,-521.2 336.5,-543.2 514.5,-543.2 514.5,-521.2 336.5,-521.2"/>
<text text-anchor="start" x="356.5" y="-528.3" font-family="Helvetica,sans-Serif" font-size="11.00" fill="#000000">ODHPD</text>
<polygon fill="none" stroke="#000000" points="514.5,-521.2 514.5,-543.2 581.5,-543.2 581.5,-521.2 514.5,-521.2"/>
<text text-anchor="start" x="517.5" y="-528.9" font-family="Helvetica,sans-Serif" font-size="11.00" fill="#000000">varchar[20]</text>
<polygon fill="none" stroke="#000000" points="336.5,-499.2 336.5,-521.2 514.5,-521.2 514.5,-499.2 336.5,-499.2"/>
<text text-anchor="start" x="356.5" y="-506.3" font-family="Helvetica,sans-Serif" font-size="11.00" fill="#000000">ODHBASE</text>
<polygon fill="none" stroke="#000000" points="514.5,-499.2 514.5,-521.2 581.5,-521.2 581.5,-499.2 514.5,-499.2"/>
<text text-anchor="start" x="517.5" y="-506.9" font-family="Helvetica,sans-Serif" font-size="11.00" fill="#000000">varchar[20]</text>
<polygon fill="none" stroke="#000000" points="336.5,-477.2 336.5,-499.2 514.5,-499.2 514.5,-477.2 336.5,-477.2"/>
<text text-anchor="start" x="356.5" y="-484.3" font-family="Helvetica,sans-Serif" font-size="11.00" fill="#000000">ODVPD</text>
<polygon fill="none" stroke="#000000" points="514.5,-477.2 514.5,-499.2 581.5,-499.2 581.5,-477.2 514.5,-477.2"/>
<text text-anchor="start" x="517.5" y="-484.9" font-family="Helvetica,sans-Serif" font-size="11.00" fill="#000000">varchar[20]</text>
<polygon fill="none" stroke="#000000" points="336.5,-455.2 336.5,-477.2 514.5,-477.2 514.5,-455.2 336.5,-455.2"/>
<text text-anchor="start" x="356.5" y="-462.3" font-family="Helvetica,sans-Serif" font-size="11.00" fill="#000000">ODVBASE</text>
<polygon fill="none" stroke="#000000" points="514.5,-455.2 514.5,-477.2 581.5,-477.2 581.5,-455.2 514.5,-455.2"/>
<text text-anchor="start" x="517.5" y="-462.9" font-family="Helvetica,sans-Serif" font-size="11.00" fill="#000000">varchar[20]</text>
<polygon fill="none" stroke="#000000" points="336.5,-433.2 336.5,-455.2 514.5,-455.2 514.5,-433.2 336.5,-433.2"/>
<text text-anchor="start" x="356.5" y="-440.3" font-family="Helvetica,sans-Serif" font-size="11.00" fill="#000000">ODSLABOFF</text>
<polygon fill="none" stroke="#000000" points="514.5,-433.2 514.5,-455.2 581.5,-455.2 581.5,-433.2 514.5,-433.2"/>
<text text-anchor="start" x="517.5" y="-440.9" font-family="Helvetica,sans-Serif" font-size="11.00" fill="#000000">varchar[20]</text>
<polygon fill="none" stroke="#000000" points="336.5,-411.2 336.5,-433.2 514.5,-433.2 514.5,-411.2 336.5,-411.2"/>
<text text-anchor="start" x="356.5" y="-418.3" font-family="Helvetica,sans-Serif" font-size="11.00" fill="#000000">ODVERTEXDIST</text>
<polygon fill="none" stroke="#000000" points="514.5,-411.2 514.5,-433.2 581.5,-433.2 581.5,-411.2 514.5,-411.2"/>
<text text-anchor="start" x="517.5" y="-418.9" font-family="Helvetica,sans-Serif" font-size="11.00" fill="#000000">varchar[20]</text>
<polygon fill="none" stroke="#000000" points="336.5,-389.2 336.5,-411.2 514.5,-411.2 514.5,-389.2 336.5,-389.2"/>
<text text-anchor="start" x="356.5" y="-396.3" font-family="Helvetica,sans-Serif" font-size="11.00" fill="#000000">OSHPD</text>
<polygon fill="none" stroke="#000000" points="514.5,-389.2 514.5,-411.2 581.5,-411.2 581.5,-389.2 514.5,-389.2"/>
<text text-anchor="start" x="517.5" y="-396.9" font-family="Helvetica,sans-Serif" font-size="11.00" fill="#000000">varchar[20]</text>
<polygon fill="none" stroke="#000000" points="336.5,-367.2 336.5,-389.2 514.5,-389.2 514.5,-367.2 336.5,-367.2"/>
<text text-anchor="start" x="356.5" y="-374.3" font-family="Helvetica,sans-Serif" font-size="11.00" fill="#000000">OSHBASE</text>
<polygon fill="none" stroke="#000000" points="514.5,-367.2 514.5,-389.2 581.5,-389.2 581.5,-367.2 514.5,-367.2"/>
<text text-anchor="start" x="517.5" y="-374.9" font-family="Helvetica,sans-Serif" font-size="11.00" fill="#000000">varchar[20]</text>
<polygon fill="none" stroke="#000000" points="336.5,-345.2 336.5,-367.2 514.5,-367.2 514.5,-345.2 336.5,-345.2"/>
<text text-anchor="start" x="356.5" y="-352.3" font-family="Helvetica,sans-Serif" font-size="11.00" fill="#000000">OSVPD</text>
<polygon fill="none" stroke="#000000" points="514.5,-345.2 514.5,-367.2 581.5,-367.2 581.5,-345.2 514.5,-345.2"/>
<text text-anchor="start" x="517.5" y="-352.9" font-family="Helvetica,sans-Serif" font-size="11.00" fill="#000000">varchar[20]</text>
<polygon fill="none" stroke="#000000" points="336.5,-323.2 336.5,-345.2 514.5,-345.2 514.5,-323.2 336.5,-323.2"/>
<text text-anchor="start" x="356.5" y="-330.3" font-family="Helvetica,sans-Serif" font-size="11.00" fill="#000000">OSVBASE</text>
<polygon fill="none" stroke="#000000" points="514.5,-323.2 514.5,-345.2 581.5,-345.2 581.5,-323.2 514.5,-323.2"/>
<text text-anchor="start" x="517.5" y="-330.9" font-family="Helvetica,sans-Serif" font-size="11.00" fill="#000000">varchar[20]</text>
<polygon fill="none" stroke="#000000" points="336.5,-301.2 336.5,-323.2 514.5,-323.2 514.5,-301.2 336.5,-301.2"/>
<text text-anchor="start" x="356.5" y="-308.3" font-family="Helvetica,sans-Serif" font-size="11.00" fill="#000000">OSSLABOFF</text>
<polygon fill="none" stroke="#000000" points="514.5,-301.2 514.5,-323.2 581.5,-323.2 581.5,-301.2 514.5,-301.2"/>
<text text-anchor="start" x="517.5" y="-308.9" font-family="Helvetica,sans-Serif" font-size="11.00" fill="#000000">varchar[20]</text>
<polygon fill="none" stroke="#000000" points="336.5,-279.2 336.5,-301.2 514.5,-301.2 514.5,-279.2 336.5,-279.2"/>
<text text-anchor="start" x="356.5" y="-286.3" font-family="Helvetica,sans-Serif" font-size="11.00" fill="#000000">OSVERTEXDIST</text>
<polygon fill="none" stroke="#000000" points="514.5,-279.2 514.5,-301.2 581.5,-301.2 581.5,-279.2 514.5,-279.2"/>
<text text-anchor="start" x="517.5" y="-286.9" font-family="Helvetica,sans-Serif" font-size="11.00" fill="#000000">varchar[20]</text>
<polygon fill="none" stroke="#000000" points="336.5,-257.2 336.5,-279.2 514.5,-279.2 514.5,-257.2 336.5,-257.2"/>
<text text-anchor="start" x="356.5" y="-264.3" font-family="Helvetica,sans-Serif" font-size="11.00" fill="#000000">ODMPDD</text>
<polygon fill="none" stroke="#000000" points="514.5,-257.2 514.5,-279.2 581.5,-279.2 581.5,-257.2 514.5,-257.2"/>
<text text-anchor="start" x="517.5" y="-264.9" font-family="Helvetica,sans-Serif" font-size="11.00" fill="#000000">varchar[20]</text>
<polygon fill="none" stroke="#000000" points="336.5,-235.2 336.5,-257.2 514.5,-257.2 514.5,-235.2 336.5,-235.2"/>
<text text-anchor="start" x="356.5" y="-242.3" font-family="Helvetica,sans-Serif" font-size="11.00" fill="#000000">ODMPDN</text>
<polygon fill="none" stroke="#000000" points="514.5,-235.2 514.5,-257.2 581.5,-257.2 581.5,-235.2 514.5,-235.2"/>
<text text-anchor="start" x="517.5" y="-242.9" font-family="Helvetica,sans-Serif" font-size="11.00" fill="#000000">varchar[20]</text>
<polygon fill="none" stroke="#000000" points="336.5,-213.2 336.5,-235.2 514.5,-235.2 514.5,-213.2 336.5,-213.2"/>
<text text-anchor="start" x="356.5" y="-220.3" font-family="Helvetica,sans-Serif" font-size="11.00" fill="#000000">OSMPDD</text>
<polygon fill="none" stroke="#000000" points="514.5,-213.2 514.5,-235.2 581.5,-235.2 581.5,-213.2 514.5,-213.2"/>
<text text-anchor="start" x="517.5" y="-220.9" font-family="Helvetica,sans-Serif" font-size="11.00" fill="#000000">varchar[20]</text>
<polygon fill="none" stroke="#000000" points="336.5,-191.2 336.5,-213.2 514.5,-213.2 514.5,-191.2 336.5,-191.2"/>
<text text-anchor="start" x="356.5" y="-198.3" font-family="Helvetica,sans-Serif" font-size="11.00" fill="#000000">OSMPDN</text>
<polygon fill="none" stroke="#000000" points="514.5,-191.2 514.5,-213.2 581.5,-213.2 581.5,-191.2 514.5,-191.2"/>
<text text-anchor="start" x="517.5" y="-198.9" font-family="Helvetica,sans-Serif" font-size="11.00" fill="#000000">varchar[20]</text>
<polygon fill="none" stroke="#000000" points="336.5,-169.2 336.5,-191.2 514.5,-191.2 514.5,-169.2 336.5,-169.2"/>
<text text-anchor="start" x="356.5" y="-176.3" font-family="Helvetica,sans-Serif" font-size="11.00" fill="#000000">BPDD</text>
<polygon fill="none" stroke="#000000" points="514.5,-169.2 514.5,-191.2 581.5,-191.2 581.5,-169.2 514.5,-169.2"/>
<text text-anchor="start" x="517.5" y="-176.9" font-family="Helvetica,sans-Serif" font-size="11.00" fill="#000000">varchar[20]</text>
<polygon fill="none" stroke="#000000" points="336.5,-147.2 336.5,-169.2 514.5,-169.2 514.5,-147.2 336.5,-147.2"/>
<text text-anchor="start" x="356.5" y="-154.3" font-family="Helvetica,sans-Serif" font-size="11.00" fill="#000000">BPDN</text>
<polygon fill="none" stroke="#000000" points="514.5,-147.2 514.5,-169.2 581.5,-169.2 581.5,-147.2 514.5,-147.2"/>
<text text-anchor="start" x="517.5" y="-154.9" font-family="Helvetica,sans-Serif" font-size="11.00" fill="#000000">varchar[20]</text>
<polygon fill="none" stroke="#000000" points="336.5,-125.2 336.5,-147.2 514.5,-147.2 514.5,-125.2 336.5,-125.2"/>
<text text-anchor="start" x="356.5" y="-132.3" font-family="Helvetica,sans-Serif" font-size="11.00" fill="#000000">LENS_MATERIAL</text>
<polygon fill="none" stroke="#000000" points="514.5,-125.2 514.5,-147.2 581.5,-147.2 581.5,-125.2 514.5,-125.2"/>
<text text-anchor="start" x="517.5" y="-132.9" font-family="Helvetica,sans-Serif" font-size="11.00" fill="#000000">varchar[20]</text>
<polygon fill="none" stroke="#000000" points="336.5,-103.2 336.5,-125.2 514.5,-125.2 514.5,-103.2 336.5,-103.2"/>
<text text-anchor="start" x="356.5" y="-110.3" font-family="Helvetica,sans-Serif" font-size="11.00" fill="#000000">LENS_TREATMENTS</text>
<polygon fill="none" stroke="#000000" points="514.5,-103.2 514.5,-125.2 581.5,-125.2 581.5,-103.2 514.5,-103.2"/>
<text text-anchor="start" x="517.4365" y="-110.9" font-family="Helvetica,sans-Serif" font-size="11.00" fill="#000000">varchar[100]</text>
<polygon fill="none" stroke="#000000" points="336.5,-81.2 336.5,-103.2 514.5,-103.2 514.5,-81.2 336.5,-81.2"/>
<text text-anchor="start" x="356.5" y="-88.3" font-family="Helvetica,sans-Serif" font-size="11.00" fill="#000000">RX_TYPE</text>
<polygon fill="none" stroke="#000000" points="514.5,-81.2 514.5,-103.2 581.5,-103.2 581.5,-81.2 514.5,-81.2"/>
<text text-anchor="start" x="517.5" y="-88.9" font-family="Helvetica,sans-Serif" font-size="11.00" fill="#000000">varchar[25]</text>
<polygon fill="none" stroke="#000000" points="336.5,-59.2 336.5,-81.2 514.5,-81.2 514.5,-59.2 336.5,-59.2"/>
<text text-anchor="start" x="356.5" y="-66.3" font-family="Helvetica,sans-Serif" font-size="11.00" fill="#000000">COMMENTS</text>
<polygon fill="none" stroke="#000000" points="514.5,-59.2 514.5,-81.2 581.5,-81.2 581.5,-59.2 514.5,-59.2"/>
<text text-anchor="start" x="517.5" y="-66.9" font-family="Helvetica,sans-Serif" font-size="11.00" fill="#000000">text[65535]</text>
<polygon fill="#ffffff" stroke="transparent" points="336.5,-40.2 336.5,-59.2 429.5,-59.2 429.5,-40.2 336.5,-40.2"/>
<polygon fill="none" stroke="#000000" points="336.5,-40.2 336.5,-59.2 429.5,-59.2 429.5,-40.2 336.5,-40.2"/>
<text text-anchor="start" x="339.5" y="-46.3" font-family="Helvetica,sans-Serif" font-size="11.00" fill="#000000">&lt; 1</text>
<polygon fill="#ffffff" stroke="transparent" points="429.5,-40.2 429.5,-59.2 514.5,-59.2 514.5,-40.2 429.5,-40.2"/>
<polygon fill="none" stroke="#000000" points="429.5,-40.2 429.5,-59.2 514.5,-59.2 514.5,-40.2 429.5,-40.2"/>
<text text-anchor="start" x="505.3862" y="-46.3" font-family="Helvetica,sans-Serif" font-size="11.00" fill="#000000"> &#160;</text>
<polygon fill="#ffffff" stroke="transparent" points="514.5,-40.2 514.5,-59.2 581.5,-59.2 581.5,-40.2 514.5,-40.2"/>
<polygon fill="none" stroke="#000000" points="514.5,-40.2 514.5,-59.2 581.5,-59.2 581.5,-40.2 514.5,-40.2"/>
<text text-anchor="start" x="562.9053" y="-46.3" font-family="Helvetica,sans-Serif" font-size="11.00" fill="#000000">0 &gt;</text>
<polygon fill="none" stroke="#000000" stroke-width="2" points="335,-39.2 335,-985.2 582,-985.2 582,-39.2 335,-39.2"/>
</a>
</g>
</g>
<!-- patient_data -->
<g id="node2" class="node">
<title>patient_data</title>
<g id="a_node2"><a xlink:href="../../tables/patient_data.html" xlink:title="patient_data" target="_top">
<polygon fill="#ffffff" stroke="transparent" points="8,-725.7 8,-1116.7 285,-1116.7 285,-725.7 8,-725.7"/>
<polygon fill="#f5f5f5" stroke="transparent" points="8.5,-1093.2 8.5,-1116.2 285.5,-1116.2 285.5,-1093.2 8.5,-1093.2"/>
<polygon fill="none" stroke="#000000" points="8.5,-1093.2 8.5,-1116.2 285.5,-1116.2 285.5,-1093.2 8.5,-1093.2"/>
<text text-anchor="start" x="13.5" y="-1101.8" font-family="Helvetica,sans-Serif" font-weight="bold" font-size="11.00" fill="#000000">patient_data</text>
<text text-anchor="start" x="250.5437" y="-1101.3" font-family="Helvetica,sans-Serif" font-size="11.00" fill="#000000">[table]</text>
<polygon fill="none" stroke="#000000" points="8.5,-1071.2 8.5,-1093.2 285.5,-1093.2 285.5,-1071.2 8.5,-1071.2"/>
<image xlink:href="../../images/primaryKeys.png" width="11px" height="12px" preserveAspectRatio="xMinYMin meet" x="13.5" y="-1088.2"/>
<text text-anchor="start" x="28.5" y="-1078.3" font-family="Helvetica,sans-Serif" font-size="11.00" fill="#000000">id</text>
<polygon fill="#ffffff" stroke="transparent" points="8.5,-1049.2 8.5,-1071.2 285.5,-1071.2 285.5,-1049.2 8.5,-1049.2"/>
<polygon fill="none" stroke="#000000" points="8.5,-1049.2 8.5,-1071.2 285.5,-1071.2 285.5,-1049.2 8.5,-1049.2"/>
<text text-anchor="start" x="28.5" y="-1056.3" font-family="Helvetica,sans-Serif" font-size="11.00" fill="#000000">uuid</text>
<polygon fill="#ffffff" stroke="transparent" points="8.5,-1027.2 8.5,-1049.2 285.5,-1049.2 285.5,-1027.2 8.5,-1027.2"/>
<polygon fill="none" stroke="#000000" points="8.5,-1027.2 8.5,-1049.2 285.5,-1049.2 285.5,-1027.2 8.5,-1027.2"/>
<text text-anchor="start" x="28.5" y="-1034.3" font-family="Helvetica,sans-Serif" font-size="11.00" fill="#000000">fname</text>
<polygon fill="#ffffff" stroke="transparent" points="8.5,-1005.2 8.5,-1027.2 285.5,-1027.2 285.5,-1005.2 8.5,-1005.2"/>
<polygon fill="none" stroke="#000000" points="8.5,-1005.2 8.5,-1027.2 285.5,-1027.2 285.5,-1005.2 8.5,-1005.2"/>
<text text-anchor="start" x="28.5" y="-1012.3" font-family="Helvetica,sans-Serif" font-size="11.00" fill="#000000">lname</text>
<polygon fill="#ffffff" stroke="transparent" points="8.5,-983.2 8.5,-1005.2 285.5,-1005.2 285.5,-983.2 8.5,-983.2"/>
<polygon fill="none" stroke="#000000" points="8.5,-983.2 8.5,-1005.2 285.5,-1005.2 285.5,-983.2 8.5,-983.2"/>
<text text-anchor="start" x="28.5" y="-990.3" font-family="Helvetica,sans-Serif" font-size="11.00" fill="#000000">DOB</text>
<polygon fill="none" stroke="#000000" points="8.5,-961.2 8.5,-983.2 285.5,-983.2 285.5,-961.2 8.5,-961.2"/>
<image xlink:href="../../images/foreignKeys.png" width="11px" height="12px" preserveAspectRatio="xMinYMin meet" x="13.5" y="-978.2"/>
<text text-anchor="start" x="28.5" y="-968.3" font-family="Helvetica,sans-Serif" font-size="11.00" fill="#000000">pharmacy_id</text>
<polygon fill="none" stroke="#000000" points="8.5,-939.2 8.5,-961.2 285.5,-961.2 285.5,-939.2 8.5,-939.2"/>
<image xlink:href="../../images/foreignKeys.png" width="11px" height="12px" preserveAspectRatio="xMinYMin meet" x="13.5" y="-956.2"/>
<text text-anchor="start" x="28.5" y="-946.3" font-family="Helvetica,sans-Serif" font-size="11.00" fill="#000000">providerID</text>
<polygon fill="none" stroke="#000000" points="8.5,-917.2 8.5,-939.2 285.5,-939.2 285.5,-917.2 8.5,-917.2"/>
<image xlink:href="../../images/foreignKeys.png" width="11px" height="12px" preserveAspectRatio="xMinYMin meet" x="13.5" y="-934.2"/>
<text text-anchor="start" x="28.5" y="-924.3" font-family="Helvetica,sans-Serif" font-size="11.00" fill="#000000">ref_providerID</text>
<polygon fill="none" stroke="#000000" points="8.5,-895.2 8.5,-917.2 285.5,-917.2 285.5,-895.2 8.5,-895.2"/>
<image xlink:href="../../images/foreignKeys.png" width="11px" height="12px" preserveAspectRatio="xMinYMin meet" x="13.5" y="-912.2"/>
<text text-anchor="start" x="28.5" y="-902.3" font-family="Helvetica,sans-Serif" font-size="11.00" fill="#000000">interpreter_needed</text>
<polygon fill="none" stroke="#000000" points="8.5,-873.2 8.5,-895.2 285.5,-895.2 285.5,-873.2 8.5,-873.2"/>
<image xlink:href="../../images/primaryKeys.png" width="11px" height="12px" preserveAspectRatio="xMinYMin meet" x="13.5" y="-890.2"/>
<text text-anchor="start" x="28.5" y="-880.3" font-family="Helvetica,sans-Serif" font-size="11.00" fill="#000000">pid</text>
<polygon fill="none" stroke="#000000" points="8.5,-851.2 8.5,-873.2 285.5,-873.2 285.5,-851.2 8.5,-851.2"/>
<image xlink:href="../../images/foreignKeys.png" width="11px" height="12px" preserveAspectRatio="xMinYMin meet" x="13.5" y="-868.2"/>
<text text-anchor="start" x="28.5" y="-858.3" font-family="Helvetica,sans-Serif" font-size="11.00" fill="#000000">advance_directive_user_authenticator</text>
<polygon fill="none" stroke="#000000" points="8.5,-829.2 8.5,-851.2 285.5,-851.2 285.5,-829.2 8.5,-829.2"/>
<image xlink:href="../../images/foreignKeys.png" width="11px" height="12px" preserveAspectRatio="xMinYMin meet" x="13.5" y="-846.2"/>
<text text-anchor="start" x="28.5" y="-836.3" font-family="Helvetica,sans-Serif" font-size="11.00" fill="#000000">created_by</text>
<polygon fill="none" stroke="#000000" points="8.5,-807.2 8.5,-829.2 285.5,-829.2 285.5,-807.2 8.5,-807.2"/>
<image xlink:href="../../images/foreignKeys.png" width="11px" height="12px" preserveAspectRatio="xMinYMin meet" x="13.5" y="-824.2"/>
<text text-anchor="start" x="28.5" y="-814.3" font-family="Helvetica,sans-Serif" font-size="11.00" fill="#000000">updated_by</text>
<polygon fill="none" stroke="#000000" points="8.5,-785.2 8.5,-807.2 285.5,-807.2 285.5,-785.2 8.5,-785.2"/>
<image xlink:href="../../images/foreignKeys.png" width="11px" height="12px" preserveAspectRatio="xMinYMin meet" x="13.5" y="-802.2"/>
<text text-anchor="start" x="28.5" y="-792.3" font-family="Helvetica,sans-Serif" font-size="11.00" fill="#000000">tribal_affiliations</text>
<polygon fill="none" stroke="#000000" points="8.5,-763.2 8.5,-785.2 285.5,-785.2 285.5,-763.2 8.5,-763.2"/>
<image xlink:href="../../images/foreignKeys.png" width="11px" height="12px" preserveAspectRatio="xMinYMin meet" x="13.5" y="-780.2"/>
<text text-anchor="start" x="28.5" y="-770.3" font-family="Helvetica,sans-Serif" font-size="11.00" fill="#000000">sex_identified</text>
<polygon fill="none" stroke="#000000" points="8.5,-744.2 8.5,-763.2 285.5,-763.2 285.5,-744.2 8.5,-744.2"/>
<text text-anchor="start" x="11.5" y="-750.3" font-family="Helvetica,sans-Serif" font-size="11.00" fill="#000000">...</text>
<polygon fill="#ffffff" stroke="transparent" points="8.5,-725.2 8.5,-744.2 137.5,-744.2 137.5,-725.2 8.5,-725.2"/>
<polygon fill="none" stroke="#000000" points="8.5,-725.2 8.5,-744.2 137.5,-744.2 137.5,-725.2 8.5,-725.2"/>
<text text-anchor="start" x="11.5" y="-731.3" font-family="Helvetica,sans-Serif" font-size="11.00" fill="#000000">&lt; 9</text>
<polygon fill="#ffffff" stroke="transparent" points="137.5,-725.2 137.5,-744.2 203.5,-744.2 203.5,-725.2 137.5,-725.2"/>
<polygon fill="none" stroke="#000000" points="137.5,-725.2 137.5,-744.2 203.5,-744.2 203.5,-725.2 137.5,-725.2"/>
<text text-anchor="start" x="194.3862" y="-731.3" font-family="Helvetica,sans-Serif" font-size="11.00" fill="#000000"> &#160;</text>
<polygon fill="#ffffff" stroke="transparent" points="203.5,-725.2 203.5,-744.2 285.5,-744.2 285.5,-725.2 203.5,-725.2"/>
<polygon fill="none" stroke="#000000" points="203.5,-725.2 203.5,-744.2 285.5,-744.2 285.5,-725.2 203.5,-725.2"/>
<text text-anchor="start" x="260.7904" y="-731.3" font-family="Helvetica,sans-Serif" font-size="11.00" fill="#000000">95 &gt;</text>
</a>
</g>
</g>
<!-- form_eye_mag_wearing&#45;&gt;patient_data -->
<g id="edge1" class="edge">
<title>form_eye_mag_wearing:w&#45;&gt;patient_data:e</title>
<path fill="none" stroke="#000000" d="M321.776,-884.2C309.7815,-884.2 302.3229,-884.2 285.5,-884.2"/>
<polygon fill="#000000" stroke="#000000" points="328.5,-884.2001 336.5,-887.8 332.5,-884.2 336.5,-884.2 336.5,-884.2 336.5,-884.2 332.5,-884.2 336.5,-880.6 328.5,-884.2001 328.5,-884.2001"/>
<ellipse fill="none" stroke="#000000" cx="325.3" cy="-884.2001" rx="3.2" ry="3.2"/>
</g>
</g>
</svg>
