<?xml version="1.0" encoding="UTF-8" standalone="no"?>
<!DOCTYPE svg PUBLIC "-//W3C//DTD SVG 1.1//EN"
 "http://www.w3.org/Graphics/SVG/1.1/DTD/svg11.dtd">
<!-- Generated by graphviz version 2.40.1 (20161225.0304)
 -->
<!-- Title: oneDegreeRelationshipsDiagram Pages: 1 -->
<svg width="731pt" height="441pt"
 viewBox="0.00 0.00 731.00 441.20" xmlns="http://www.w3.org/2000/svg" xmlns:xlink="http://www.w3.org/1999/xlink">
<g id="graph0" class="graph" transform="scale(1 1) rotate(0) translate(4 437.2)">
<title>oneDegreeRelationshipsDiagram</title>
<polygon fill="#ffffff" stroke="transparent" points="-4,4 -4,-437.2 727,-437.2 727,4 -4,4"/>
<text text-anchor="middle" x="72.4936" y="-7.3" font-family="Helvetica,sans-Serif" font-size="11.00" fill="#000000">Generated by SchemaSpy</text>
<!-- forms -->
<g id="node1" class="node">
<title>forms</title>
<g id="a_node1"><a xlink:href="../../tables/forms.html" xlink:title="forms" target="_top">
<polygon fill="#ffffff" stroke="transparent" points="334,-130.2 334,-389.2 472,-389.2 472,-130.2 334,-130.2"/>
<polygon fill="#f5f5f5" stroke="transparent" points="334,-365.7 334,-388.7 472,-388.7 472,-365.7 334,-365.7"/>
<polygon fill="none" stroke="#000000" points="334,-365.7 334,-388.7 472,-388.7 472,-365.7 334,-365.7"/>
<text text-anchor="start" x="339" y="-374.3" font-family="Helvetica,sans-Serif" font-weight="bold" font-size="11.00" fill="#000000">forms</text>
<text text-anchor="start" x="437.0437" y="-373.8" font-family="Helvetica,sans-Serif" font-size="11.00" fill="#000000">[table]</text>
<polygon fill="none" stroke="#000000" points="334,-343.7 334,-365.7 472,-365.7 472,-343.7 334,-343.7"/>
<image xlink:href="../../images/primaryKeys.png" width="11px" height="12px" preserveAspectRatio="xMinYMin meet" x="339" y="-360.7"/>
<text text-anchor="start" x="354" y="-350.8" font-family="Helvetica,sans-Serif" font-size="11.00" fill="#000000">id</text>
<polygon fill="#ffffff" stroke="transparent" points="334,-321.7 334,-343.7 472,-343.7 472,-321.7 334,-321.7"/>
<polygon fill="none" stroke="#000000" points="334,-321.7 334,-343.7 472,-343.7 472,-321.7 334,-321.7"/>
<text text-anchor="start" x="354" y="-328.8" font-family="Helvetica,sans-Serif" font-size="11.00" fill="#000000">encounter</text>
<polygon fill="none" stroke="#000000" points="334,-299.7 334,-321.7 472,-321.7 472,-299.7 334,-299.7"/>
<image xlink:href="../../images/primaryKeys.png" width="11px" height="12px" preserveAspectRatio="xMinYMin meet" x="339" y="-316.7"/>
<text text-anchor="start" x="354" y="-306.8" font-family="Helvetica,sans-Serif" font-size="11.00" fill="#000000">form_id</text>
<polygon fill="#ffffff" stroke="transparent" points="334,-277.7 334,-299.7 472,-299.7 472,-277.7 334,-277.7"/>
<polygon fill="none" stroke="#000000" points="334,-277.7 334,-299.7 472,-299.7 472,-277.7 334,-277.7"/>
<image xlink:href="../../images/foreignKeys.png" width="11px" height="12px" preserveAspectRatio="xMinYMin meet" x="339" y="-294.7"/>
<text text-anchor="start" x="354" y="-284.8" font-family="Helvetica,sans-Serif" font-size="11.00" fill="#000000">pid</text>
<polygon fill="none" stroke="#000000" points="334,-255.7 334,-277.7 472,-277.7 472,-255.7 334,-255.7"/>
<image xlink:href="../../images/foreignKeys.png" width="11px" height="12px" preserveAspectRatio="xMinYMin meet" x="339" y="-272.7"/>
<text text-anchor="start" x="354" y="-262.8" font-family="Helvetica,sans-Serif" font-size="11.00" fill="#000000">user</text>
<polygon fill="none" stroke="#000000" points="334,-233.7 334,-255.7 472,-255.7 472,-233.7 334,-233.7"/>
<image xlink:href="../../images/foreignKeys.png" width="11px" height="12px" preserveAspectRatio="xMinYMin meet" x="339" y="-250.7"/>
<text text-anchor="start" x="354" y="-240.8" font-family="Helvetica,sans-Serif" font-size="11.00" fill="#000000">groupname</text>
<polygon fill="none" stroke="#000000" points="334,-211.7 334,-233.7 472,-233.7 472,-211.7 334,-211.7"/>
<image xlink:href="../../images/foreignKeys.png" width="11px" height="12px" preserveAspectRatio="xMinYMin meet" x="339" y="-228.7"/>
<text text-anchor="start" x="354" y="-218.8" font-family="Helvetica,sans-Serif" font-size="11.00" fill="#000000">therapy_group_id</text>
<polygon fill="none" stroke="#000000" points="334,-189.7 334,-211.7 472,-211.7 472,-189.7 334,-189.7"/>
<image xlink:href="../../images/foreignKeys.png" width="11px" height="12px" preserveAspectRatio="xMinYMin meet" x="339" y="-206.7"/>
<text text-anchor="start" x="354" y="-196.8" font-family="Helvetica,sans-Serif" font-size="11.00" fill="#000000">issue_id</text>
<polygon fill="none" stroke="#000000" points="334,-167.7 334,-189.7 472,-189.7 472,-167.7 334,-167.7"/>
<image xlink:href="../../images/foreignKeys.png" width="11px" height="12px" preserveAspectRatio="xMinYMin meet" x="339" y="-184.7"/>
<text text-anchor="start" x="354" y="-174.8" font-family="Helvetica,sans-Serif" font-size="11.00" fill="#000000">provider_id</text>
<polygon fill="none" stroke="#000000" points="334,-148.7 334,-167.7 472,-167.7 472,-148.7 334,-148.7"/>
<text text-anchor="start" x="337" y="-154.8" font-family="Helvetica,sans-Serif" font-size="11.00" fill="#000000">...</text>
<polygon fill="#ffffff" stroke="transparent" points="334,-129.7 334,-148.7 394,-148.7 394,-129.7 334,-129.7"/>
<polygon fill="none" stroke="#000000" points="334,-129.7 334,-148.7 394,-148.7 394,-129.7 334,-129.7"/>
<text text-anchor="start" x="337" y="-135.8" font-family="Helvetica,sans-Serif" font-size="11.00" fill="#000000">&lt; 6</text>
<polygon fill="#ffffff" stroke="transparent" points="394,-129.7 394,-148.7 425,-148.7 425,-129.7 394,-129.7"/>
<polygon fill="none" stroke="#000000" points="394,-129.7 394,-148.7 425,-148.7 425,-129.7 394,-129.7"/>
<text text-anchor="start" x="415.8862" y="-135.8" font-family="Helvetica,sans-Serif" font-size="11.00" fill="#000000"> &#160;</text>
<polygon fill="#ffffff" stroke="transparent" points="425,-129.7 425,-148.7 472,-148.7 472,-129.7 425,-129.7"/>
<polygon fill="none" stroke="#000000" points="425,-129.7 425,-148.7 472,-148.7 472,-129.7 425,-129.7"/>
<text text-anchor="start" x="447.2904" y="-135.8" font-family="Helvetica,sans-Serif" font-size="11.00" fill="#000000">14 &gt;</text>
</a>
</g>
</g>
<!-- patient_data -->
<g id="node2" class="node">
<title>patient_data</title>
<g id="a_node2"><a xlink:href="../../tables/patient_data.html" xlink:title="patient_data" target="_top">
<polygon fill="#ffffff" stroke="transparent" points="8,-38.2 8,-429.2 285,-429.2 285,-38.2 8,-38.2"/>
<polygon fill="#f5f5f5" stroke="transparent" points="8.5,-405.7 8.5,-428.7 285.5,-428.7 285.5,-405.7 8.5,-405.7"/>
<polygon fill="none" stroke="#000000" points="8.5,-405.7 8.5,-428.7 285.5,-428.7 285.5,-405.7 8.5,-405.7"/>
<text text-anchor="start" x="13.5" y="-414.3" font-family="Helvetica,sans-Serif" font-weight="bold" font-size="11.00" fill="#000000">patient_data</text>
<text text-anchor="start" x="250.5437" y="-413.8" font-family="Helvetica,sans-Serif" font-size="11.00" fill="#000000">[table]</text>
<polygon fill="none" stroke="#000000" points="8.5,-383.7 8.5,-405.7 285.5,-405.7 285.5,-383.7 8.5,-383.7"/>
<image xlink:href="../../images/primaryKeys.png" width="11px" height="12px" preserveAspectRatio="xMinYMin meet" x="13.5" y="-400.7"/>
<text text-anchor="start" x="28.5" y="-390.8" font-family="Helvetica,sans-Serif" font-size="11.00" fill="#000000">id</text>
<polygon fill="#ffffff" stroke="transparent" points="8.5,-361.7 8.5,-383.7 285.5,-383.7 285.5,-361.7 8.5,-361.7"/>
<polygon fill="none" stroke="#000000" points="8.5,-361.7 8.5,-383.7 285.5,-383.7 285.5,-361.7 8.5,-361.7"/>
<text text-anchor="start" x="28.5" y="-368.8" font-family="Helvetica,sans-Serif" font-size="11.00" fill="#000000">uuid</text>
<polygon fill="#ffffff" stroke="transparent" points="8.5,-339.7 8.5,-361.7 285.5,-361.7 285.5,-339.7 8.5,-339.7"/>
<polygon fill="none" stroke="#000000" points="8.5,-339.7 8.5,-361.7 285.5,-361.7 285.5,-339.7 8.5,-339.7"/>
<text text-anchor="start" x="28.5" y="-346.8" font-family="Helvetica,sans-Serif" font-size="11.00" fill="#000000">fname</text>
<polygon fill="#ffffff" stroke="transparent" points="8.5,-317.7 8.5,-339.7 285.5,-339.7 285.5,-317.7 8.5,-317.7"/>
<polygon fill="none" stroke="#000000" points="8.5,-317.7 8.5,-339.7 285.5,-339.7 285.5,-317.7 8.5,-317.7"/>
<text text-anchor="start" x="28.5" y="-324.8" font-family="Helvetica,sans-Serif" font-size="11.00" fill="#000000">lname</text>
<polygon fill="#ffffff" stroke="transparent" points="8.5,-295.7 8.5,-317.7 285.5,-317.7 285.5,-295.7 8.5,-295.7"/>
<polygon fill="none" stroke="#000000" points="8.5,-295.7 8.5,-317.7 285.5,-317.7 285.5,-295.7 8.5,-295.7"/>
<text text-anchor="start" x="28.5" y="-302.8" font-family="Helvetica,sans-Serif" font-size="11.00" fill="#000000">DOB</text>
<polygon fill="none" stroke="#000000" points="8.5,-273.7 8.5,-295.7 285.5,-295.7 285.5,-273.7 8.5,-273.7"/>
<image xlink:href="../../images/foreignKeys.png" width="11px" height="12px" preserveAspectRatio="xMinYMin meet" x="13.5" y="-290.7"/>
<text text-anchor="start" x="28.5" y="-280.8" font-family="Helvetica,sans-Serif" font-size="11.00" fill="#000000">pharmacy_id</text>
<polygon fill="none" stroke="#000000" points="8.5,-251.7 8.5,-273.7 285.5,-273.7 285.5,-251.7 8.5,-251.7"/>
<image xlink:href="../../images/foreignKeys.png" width="11px" height="12px" preserveAspectRatio="xMinYMin meet" x="13.5" y="-268.7"/>
<text text-anchor="start" x="28.5" y="-258.8" font-family="Helvetica,sans-Serif" font-size="11.00" fill="#000000">providerID</text>
<polygon fill="none" stroke="#000000" points="8.5,-229.7 8.5,-251.7 285.5,-251.7 285.5,-229.7 8.5,-229.7"/>
<image xlink:href="../../images/foreignKeys.png" width="11px" height="12px" preserveAspectRatio="xMinYMin meet" x="13.5" y="-246.7"/>
<text text-anchor="start" x="28.5" y="-236.8" font-family="Helvetica,sans-Serif" font-size="11.00" fill="#000000">ref_providerID</text>
<polygon fill="none" stroke="#000000" points="8.5,-207.7 8.5,-229.7 285.5,-229.7 285.5,-207.7 8.5,-207.7"/>
<image xlink:href="../../images/foreignKeys.png" width="11px" height="12px" preserveAspectRatio="xMinYMin meet" x="13.5" y="-224.7"/>
<text text-anchor="start" x="28.5" y="-214.8" font-family="Helvetica,sans-Serif" font-size="11.00" fill="#000000">interpreter_needed</text>
<polygon fill="none" stroke="#000000" points="8.5,-185.7 8.5,-207.7 285.5,-207.7 285.5,-185.7 8.5,-185.7"/>
<image xlink:href="../../images/primaryKeys.png" width="11px" height="12px" preserveAspectRatio="xMinYMin meet" x="13.5" y="-202.7"/>
<text text-anchor="start" x="28.5" y="-192.8" font-family="Helvetica,sans-Serif" font-size="11.00" fill="#000000">pid</text>
<polygon fill="none" stroke="#000000" points="8.5,-163.7 8.5,-185.7 285.5,-185.7 285.5,-163.7 8.5,-163.7"/>
<image xlink:href="../../images/foreignKeys.png" width="11px" height="12px" preserveAspectRatio="xMinYMin meet" x="13.5" y="-180.7"/>
<text text-anchor="start" x="28.5" y="-170.8" font-family="Helvetica,sans-Serif" font-size="11.00" fill="#000000">advance_directive_user_authenticator</text>
<polygon fill="none" stroke="#000000" points="8.5,-141.7 8.5,-163.7 285.5,-163.7 285.5,-141.7 8.5,-141.7"/>
<image xlink:href="../../images/foreignKeys.png" width="11px" height="12px" preserveAspectRatio="xMinYMin meet" x="13.5" y="-158.7"/>
<text text-anchor="start" x="28.5" y="-148.8" font-family="Helvetica,sans-Serif" font-size="11.00" fill="#000000">created_by</text>
<polygon fill="none" stroke="#000000" points="8.5,-119.7 8.5,-141.7 285.5,-141.7 285.5,-119.7 8.5,-119.7"/>
<image xlink:href="../../images/foreignKeys.png" width="11px" height="12px" preserveAspectRatio="xMinYMin meet" x="13.5" y="-136.7"/>
<text text-anchor="start" x="28.5" y="-126.8" font-family="Helvetica,sans-Serif" font-size="11.00" fill="#000000">updated_by</text>
<polygon fill="none" stroke="#000000" points="8.5,-97.7 8.5,-119.7 285.5,-119.7 285.5,-97.7 8.5,-97.7"/>
<image xlink:href="../../images/foreignKeys.png" width="11px" height="12px" preserveAspectRatio="xMinYMin meet" x="13.5" y="-114.7"/>
<text text-anchor="start" x="28.5" y="-104.8" font-family="Helvetica,sans-Serif" font-size="11.00" fill="#000000">tribal_affiliations</text>
<polygon fill="none" stroke="#000000" points="8.5,-75.7 8.5,-97.7 285.5,-97.7 285.5,-75.7 8.5,-75.7"/>
<image xlink:href="../../images/foreignKeys.png" width="11px" height="12px" preserveAspectRatio="xMinYMin meet" x="13.5" y="-92.7"/>
<text text-anchor="start" x="28.5" y="-82.8" font-family="Helvetica,sans-Serif" font-size="11.00" fill="#000000">sex_identified</text>
<polygon fill="none" stroke="#000000" points="8.5,-56.7 8.5,-75.7 285.5,-75.7 285.5,-56.7 8.5,-56.7"/>
<text text-anchor="start" x="11.5" y="-62.8" font-family="Helvetica,sans-Serif" font-size="11.00" fill="#000000">...</text>
<polygon fill="#ffffff" stroke="transparent" points="8.5,-37.7 8.5,-56.7 137.5,-56.7 137.5,-37.7 8.5,-37.7"/>
<polygon fill="none" stroke="#000000" points="8.5,-37.7 8.5,-56.7 137.5,-56.7 137.5,-37.7 8.5,-37.7"/>
<text text-anchor="start" x="11.5" y="-43.8" font-family="Helvetica,sans-Serif" font-size="11.00" fill="#000000">&lt; 9</text>
<polygon fill="#ffffff" stroke="transparent" points="137.5,-37.7 137.5,-56.7 203.5,-56.7 203.5,-37.7 137.5,-37.7"/>
<polygon fill="none" stroke="#000000" points="137.5,-37.7 137.5,-56.7 203.5,-56.7 203.5,-37.7 137.5,-37.7"/>
<text text-anchor="start" x="194.3862" y="-43.8" font-family="Helvetica,sans-Serif" font-size="11.00" fill="#000000"> &#160;</text>
<polygon fill="#ffffff" stroke="transparent" points="203.5,-37.7 203.5,-56.7 285.5,-56.7 285.5,-37.7 203.5,-37.7"/>
<polygon fill="none" stroke="#000000" points="203.5,-37.7 203.5,-56.7 285.5,-56.7 285.5,-37.7 203.5,-37.7"/>
<text text-anchor="start" x="260.7904" y="-43.8" font-family="Helvetica,sans-Serif" font-size="11.00" fill="#000000">95 &gt;</text>
</a>
</g>
</g>
<!-- forms&#45;&gt;patient_data -->
<g id="edge1" class="edge">
<title>forms:w&#45;&gt;patient_data:e</title>
<path fill="none" stroke="#000000" d="M319.9321,-284.2626C297.8598,-265.8853 325.5838,-196.7 285.5,-196.7"/>
<polygon fill="#000000" stroke="#000000" points="326.3705,-286.2934 332.917,-292.1333 330.1853,-287.4967 334,-288.7 334,-288.7 334,-288.7 330.1853,-287.4967 335.083,-285.2667 326.3705,-286.2934 326.3705,-286.2934"/>
<ellipse fill="none" stroke="#000000" cx="323.3188" cy="-285.3308" rx="3.2" ry="3.2"/>
</g>
<!-- form_prior_auth -->
<g id="node3" class="node">
<title>form_prior_auth</title>
<g id="a_node3"><a xlink:href="../../tables/form_prior_auth.html" xlink:title="form_prior_auth" target="_top">
<polygon fill="#ffffff" stroke="transparent" points="521,-164.7 521,-254.7 715,-254.7 715,-164.7 521,-164.7"/>
<polygon fill="#f5f5f5" stroke="transparent" points="523,-229.7 523,-252.7 713,-252.7 713,-229.7 523,-229.7"/>
<polygon fill="none" stroke="#000000" points="523,-229.7 523,-252.7 713,-252.7 713,-229.7 523,-229.7"/>
<text text-anchor="start" x="528" y="-238.3" font-family="Helvetica,sans-Serif" font-weight="bold" font-size="11.00" fill="#000000">form_prior_auth</text>
<text text-anchor="start" x="678.0437" y="-237.8" font-family="Helvetica,sans-Serif" font-size="11.00" fill="#000000">[table]</text>
<polygon fill="none" stroke="#000000" points="523,-207.7 523,-229.7 651,-229.7 651,-207.7 523,-207.7"/>
<image xlink:href="../../images/foreignKeys.png" width="11px" height="12px" preserveAspectRatio="xMinYMin meet" x="528" y="-224.7"/>
<text text-anchor="start" x="543" y="-214.8" font-family="Helvetica,sans-Serif" font-size="11.00" fill="#000000">id</text>
<polygon fill="none" stroke="#000000" points="651,-207.7 651,-229.7 713,-229.7 713,-207.7 651,-207.7"/>
<text text-anchor="start" x="653.878" y="-215.4" font-family="Helvetica,sans-Serif" font-size="11.00" fill="#000000">unknown[0]</text>
<polygon fill="none" stroke="#000000" points="523,-185.7 523,-207.7 651,-207.7 651,-185.7 523,-185.7"/>
<image xlink:href="../../images/foreignKeys.png" width="11px" height="12px" preserveAspectRatio="xMinYMin meet" x="528" y="-202.7"/>
<text text-anchor="start" x="543" y="-192.8" font-family="Helvetica,sans-Serif" font-size="11.00" fill="#000000">pid</text>
<polygon fill="none" stroke="#000000" points="651,-185.7 651,-207.7 713,-207.7 713,-185.7 651,-185.7"/>
<text text-anchor="start" x="653.878" y="-193.4" font-family="Helvetica,sans-Serif" font-size="11.00" fill="#000000">unknown[0]</text>
<polygon fill="#ffffff" stroke="transparent" points="523,-166.7 523,-185.7 591,-185.7 591,-166.7 523,-166.7"/>
<polygon fill="none" stroke="#000000" points="523,-166.7 523,-185.7 591,-185.7 591,-166.7 523,-166.7"/>
<text text-anchor="start" x="526" y="-172.8" font-family="Helvetica,sans-Serif" font-size="11.00" fill="#000000">&lt; 2</text>
<polygon fill="#ffffff" stroke="transparent" points="591,-166.7 591,-185.7 651,-185.7 651,-166.7 591,-166.7"/>
<polygon fill="none" stroke="#000000" points="591,-166.7 591,-185.7 651,-185.7 651,-166.7 591,-166.7"/>
<text text-anchor="start" x="641.8862" y="-172.8" font-family="Helvetica,sans-Serif" font-size="11.00" fill="#000000"> &#160;</text>
<polygon fill="#ffffff" stroke="transparent" points="651,-166.7 651,-185.7 713,-185.7 713,-166.7 651,-166.7"/>
<polygon fill="none" stroke="#000000" points="651,-166.7 651,-185.7 713,-185.7 713,-166.7 651,-166.7"/>
<text text-anchor="start" x="694.4053" y="-172.8" font-family="Helvetica,sans-Serif" font-size="11.00" fill="#000000">0 &gt;</text>
<polygon fill="none" stroke="#000000" stroke-width="2" points="522,-165.7 522,-253.7 714,-253.7 714,-165.7 522,-165.7"/>
</a>
</g>
</g>
<!-- form_prior_auth&#45;&gt;forms -->
<g id="edge2" class="edge">
<title>form_prior_auth:w&#45;&gt;forms:e</title>
<path fill="none" stroke="#000000" d="M508.9874,-222.8921C485.7233,-240.89 512.7247,-310.7 472,-310.7"/>
<polygon fill="#000000" stroke="#000000" points="515.3356,-220.993 524.0318,-222.149 519.1678,-219.8465 523,-218.7 523,-218.7 523,-218.7 519.1678,-219.8465 521.9682,-215.251 515.3356,-220.993 515.3356,-220.993"/>
<ellipse fill="none" stroke="#000000" cx="512.2699" cy="-221.9102" rx="3.2" ry="3.2"/>
</g>
<!-- form_prior_auth&#45;&gt;patient_data -->
<g id="edge3" class="edge">
<title>form_prior_auth:w&#45;&gt;patient_data:e</title>
<path fill="none" stroke="#000000" d="M508.7082,-192.5016C491.9299,-178.9491 508.2585,-136.2855 480,-119.7 420.9715,-85.0549 384.5892,-84.3171 326,-119.7 292.9004,-139.6894 324.1673,-196.7 285.5,-196.7"/>
<polygon fill="#000000" stroke="#000000" points="515.3243,-194.4452 521.9853,-200.1541 519.1622,-195.5726 523,-196.7 523,-196.7 523,-196.7 519.1622,-195.5726 524.0147,-193.2459 515.3243,-194.4452 515.3243,-194.4452"/>
<ellipse fill="none" stroke="#000000" cx="512.2541" cy="-193.5432" rx="3.2" ry="3.2"/>
</g>
</g>
</svg>
