<?xml version="1.0" encoding="UTF-8" standalone="no"?>
<!DOCTYPE svg PUBLIC "-//W3C//DTD SVG 1.1//EN"
 "http://www.w3.org/Graphics/SVG/1.1/DTD/svg11.dtd">
<!-- Generated by graphviz version 2.40.1 (20161225.0304)
 -->
<!-- Title: oneDegreeRelationshipsDiagram Pages: 1 -->
<svg width="542pt" height="601pt"
 viewBox="0.00 0.00 542.00 600.70" xmlns="http://www.w3.org/2000/svg" xmlns:xlink="http://www.w3.org/1999/xlink">
<g id="graph0" class="graph" transform="scale(1 1) rotate(0) translate(4 596.7)">
<title>oneDegreeRelationshipsDiagram</title>
<polygon fill="#ffffff" stroke="transparent" points="-4,4 -4,-596.7 538,-596.7 538,4 -4,4"/>
<text text-anchor="middle" x="72.4936" y="-7.3" font-family="Helvetica,sans-Serif" font-size="11.00" fill="#000000">Generated by SchemaSpy</text>
<!-- form_eye_ros -->
<g id="node1" class="node">
<title>form_eye_ros</title>
<g id="a_node1"><a xlink:href="../../tables/form_eye_ros.html" xlink:title="form_eye_ros" target="_top">
<polygon fill="#ffffff" stroke="transparent" points="334,-38.2 334,-414.2 526,-414.2 526,-38.2 334,-38.2"/>
<polygon fill="#f5f5f5" stroke="transparent" points="336,-389.2 336,-412.2 524,-412.2 524,-389.2 336,-389.2"/>
<polygon fill="none" stroke="#000000" points="336,-389.2 336,-412.2 524,-412.2 524,-389.2 336,-389.2"/>
<text text-anchor="start" x="341" y="-397.8" font-family="Helvetica,sans-Serif" font-weight="bold" font-size="11.00" fill="#000000">form_eye_ros</text>
<text text-anchor="start" x="489.0437" y="-397.3" font-family="Helvetica,sans-Serif" font-size="11.00" fill="#000000">[table]</text>
<polygon fill="none" stroke="#000000" points="336,-367.2 336,-389.2 464,-389.2 464,-367.2 336,-367.2"/>
<image xlink:href="../../images/primaryKeys.png" width="11px" height="12px" preserveAspectRatio="xMinYMin meet" x="341" y="-384.2"/>
<text text-anchor="start" x="356" y="-374.3" font-family="Helvetica,sans-Serif" font-size="11.00" fill="#000000">id</text>
<polygon fill="none" stroke="#000000" points="464,-367.2 464,-389.2 524,-389.2 524,-367.2 464,-367.2"/>
<text text-anchor="start" x="467" y="-374.9" font-family="Helvetica,sans-Serif" font-size="11.00" fill="#000000">bigint[19]</text>
<polygon fill="#ffffff" stroke="transparent" points="336,-345.2 336,-367.2 464,-367.2 464,-345.2 336,-345.2"/>
<polygon fill="none" stroke="#000000" points="336,-345.2 336,-367.2 464,-367.2 464,-345.2 336,-345.2"/>
<image xlink:href="../../images/foreignKeys.png" width="11px" height="12px" preserveAspectRatio="xMinYMin meet" x="341" y="-362.2"/>
<text text-anchor="start" x="356" y="-352.3" font-family="Helvetica,sans-Serif" font-size="11.00" fill="#000000">pid</text>
<polygon fill="none" stroke="#000000" points="464,-345.2 464,-367.2 524,-367.2 524,-345.2 464,-345.2"/>
<text text-anchor="start" x="467" y="-352.9" font-family="Helvetica,sans-Serif" font-size="11.00" fill="#000000">bigint[19]</text>
<polygon fill="none" stroke="#000000" points="336,-323.2 336,-345.2 464,-345.2 464,-323.2 336,-323.2"/>
<text text-anchor="start" x="356" y="-330.3" font-family="Helvetica,sans-Serif" font-size="11.00" fill="#000000">ROSGENERAL</text>
<polygon fill="none" stroke="#000000" points="464,-323.2 464,-345.2 524,-345.2 524,-323.2 464,-323.2"/>
<text text-anchor="start" x="466.7915" y="-330.9" font-family="Helvetica,sans-Serif" font-size="11.00" fill="#000000">text[65535]</text>
<polygon fill="none" stroke="#000000" points="336,-301.2 336,-323.2 464,-323.2 464,-301.2 336,-301.2"/>
<text text-anchor="start" x="356" y="-308.3" font-family="Helvetica,sans-Serif" font-size="11.00" fill="#000000">ROSHEENT</text>
<polygon fill="none" stroke="#000000" points="464,-301.2 464,-323.2 524,-323.2 524,-301.2 464,-301.2"/>
<text text-anchor="start" x="466.7915" y="-308.9" font-family="Helvetica,sans-Serif" font-size="11.00" fill="#000000">text[65535]</text>
<polygon fill="none" stroke="#000000" points="336,-279.2 336,-301.2 464,-301.2 464,-279.2 336,-279.2"/>
<text text-anchor="start" x="356" y="-286.3" font-family="Helvetica,sans-Serif" font-size="11.00" fill="#000000">ROSCV</text>
<polygon fill="none" stroke="#000000" points="464,-279.2 464,-301.2 524,-301.2 524,-279.2 464,-279.2"/>
<text text-anchor="start" x="466.7915" y="-286.9" font-family="Helvetica,sans-Serif" font-size="11.00" fill="#000000">text[65535]</text>
<polygon fill="none" stroke="#000000" points="336,-257.2 336,-279.2 464,-279.2 464,-257.2 336,-257.2"/>
<text text-anchor="start" x="356" y="-264.3" font-family="Helvetica,sans-Serif" font-size="11.00" fill="#000000">ROSPULM</text>
<polygon fill="none" stroke="#000000" points="464,-257.2 464,-279.2 524,-279.2 524,-257.2 464,-257.2"/>
<text text-anchor="start" x="466.7915" y="-264.9" font-family="Helvetica,sans-Serif" font-size="11.00" fill="#000000">text[65535]</text>
<polygon fill="none" stroke="#000000" points="336,-235.2 336,-257.2 464,-257.2 464,-235.2 336,-235.2"/>
<text text-anchor="start" x="356" y="-242.3" font-family="Helvetica,sans-Serif" font-size="11.00" fill="#000000">ROSGI</text>
<polygon fill="none" stroke="#000000" points="464,-235.2 464,-257.2 524,-257.2 524,-235.2 464,-235.2"/>
<text text-anchor="start" x="466.7915" y="-242.9" font-family="Helvetica,sans-Serif" font-size="11.00" fill="#000000">text[65535]</text>
<polygon fill="none" stroke="#000000" points="336,-213.2 336,-235.2 464,-235.2 464,-213.2 336,-213.2"/>
<text text-anchor="start" x="356" y="-220.3" font-family="Helvetica,sans-Serif" font-size="11.00" fill="#000000">ROSGU</text>
<polygon fill="none" stroke="#000000" points="464,-213.2 464,-235.2 524,-235.2 524,-213.2 464,-213.2"/>
<text text-anchor="start" x="466.7915" y="-220.9" font-family="Helvetica,sans-Serif" font-size="11.00" fill="#000000">text[65535]</text>
<polygon fill="none" stroke="#000000" points="336,-191.2 336,-213.2 464,-213.2 464,-191.2 336,-191.2"/>
<text text-anchor="start" x="356" y="-198.3" font-family="Helvetica,sans-Serif" font-size="11.00" fill="#000000">ROSDERM</text>
<polygon fill="none" stroke="#000000" points="464,-191.2 464,-213.2 524,-213.2 524,-191.2 464,-191.2"/>
<text text-anchor="start" x="466.7915" y="-198.9" font-family="Helvetica,sans-Serif" font-size="11.00" fill="#000000">text[65535]</text>
<polygon fill="none" stroke="#000000" points="336,-169.2 336,-191.2 464,-191.2 464,-169.2 336,-169.2"/>
<text text-anchor="start" x="356" y="-176.3" font-family="Helvetica,sans-Serif" font-size="11.00" fill="#000000">ROSNEURO</text>
<polygon fill="none" stroke="#000000" points="464,-169.2 464,-191.2 524,-191.2 524,-169.2 464,-169.2"/>
<text text-anchor="start" x="466.7915" y="-176.9" font-family="Helvetica,sans-Serif" font-size="11.00" fill="#000000">text[65535]</text>
<polygon fill="none" stroke="#000000" points="336,-147.2 336,-169.2 464,-169.2 464,-147.2 336,-147.2"/>
<text text-anchor="start" x="356" y="-154.3" font-family="Helvetica,sans-Serif" font-size="11.00" fill="#000000">ROSPSYCH</text>
<polygon fill="none" stroke="#000000" points="464,-147.2 464,-169.2 524,-169.2 524,-147.2 464,-147.2"/>
<text text-anchor="start" x="466.7915" y="-154.9" font-family="Helvetica,sans-Serif" font-size="11.00" fill="#000000">text[65535]</text>
<polygon fill="none" stroke="#000000" points="336,-125.2 336,-147.2 464,-147.2 464,-125.2 336,-125.2"/>
<text text-anchor="start" x="356" y="-132.3" font-family="Helvetica,sans-Serif" font-size="11.00" fill="#000000">ROSMUSCULO</text>
<polygon fill="none" stroke="#000000" points="464,-125.2 464,-147.2 524,-147.2 524,-125.2 464,-125.2"/>
<text text-anchor="start" x="466.7915" y="-132.9" font-family="Helvetica,sans-Serif" font-size="11.00" fill="#000000">text[65535]</text>
<polygon fill="none" stroke="#000000" points="336,-103.2 336,-125.2 464,-125.2 464,-103.2 336,-103.2"/>
<text text-anchor="start" x="356" y="-110.3" font-family="Helvetica,sans-Serif" font-size="11.00" fill="#000000">ROSIMMUNO</text>
<polygon fill="none" stroke="#000000" points="464,-103.2 464,-125.2 524,-125.2 524,-103.2 464,-103.2"/>
<text text-anchor="start" x="466.7915" y="-110.9" font-family="Helvetica,sans-Serif" font-size="11.00" fill="#000000">text[65535]</text>
<polygon fill="none" stroke="#000000" points="336,-81.2 336,-103.2 464,-103.2 464,-81.2 336,-81.2"/>
<text text-anchor="start" x="356" y="-88.3" font-family="Helvetica,sans-Serif" font-size="11.00" fill="#000000">ROSENDOCRINE</text>
<polygon fill="none" stroke="#000000" points="464,-81.2 464,-103.2 524,-103.2 524,-81.2 464,-81.2"/>
<text text-anchor="start" x="466.7915" y="-88.9" font-family="Helvetica,sans-Serif" font-size="11.00" fill="#000000">text[65535]</text>
<polygon fill="none" stroke="#000000" points="336,-59.2 336,-81.2 464,-81.2 464,-59.2 336,-59.2"/>
<text text-anchor="start" x="356" y="-66.3" font-family="Helvetica,sans-Serif" font-size="11.00" fill="#000000">ROSCOMMENTS</text>
<polygon fill="none" stroke="#000000" points="464,-59.2 464,-81.2 524,-81.2 524,-59.2 464,-59.2"/>
<text text-anchor="start" x="466.7915" y="-66.9" font-family="Helvetica,sans-Serif" font-size="11.00" fill="#000000">text[65535]</text>
<polygon fill="#ffffff" stroke="transparent" points="336,-40.2 336,-59.2 404,-59.2 404,-40.2 336,-40.2"/>
<polygon fill="none" stroke="#000000" points="336,-40.2 336,-59.2 404,-59.2 404,-40.2 336,-40.2"/>
<text text-anchor="start" x="339" y="-46.3" font-family="Helvetica,sans-Serif" font-size="11.00" fill="#000000">&lt; 1</text>
<polygon fill="#ffffff" stroke="transparent" points="404,-40.2 404,-59.2 464,-59.2 464,-40.2 404,-40.2"/>
<polygon fill="none" stroke="#000000" points="404,-40.2 404,-59.2 464,-59.2 464,-40.2 404,-40.2"/>
<text text-anchor="start" x="454.8862" y="-46.3" font-family="Helvetica,sans-Serif" font-size="11.00" fill="#000000"> &#160;</text>
<polygon fill="#ffffff" stroke="transparent" points="464,-40.2 464,-59.2 524,-59.2 524,-40.2 464,-40.2"/>
<polygon fill="none" stroke="#000000" points="464,-40.2 464,-59.2 524,-59.2 524,-40.2 464,-40.2"/>
<text text-anchor="start" x="505.4053" y="-46.3" font-family="Helvetica,sans-Serif" font-size="11.00" fill="#000000">0 &gt;</text>
<polygon fill="none" stroke="#000000" stroke-width="2" points="335,-39.2 335,-413.2 525,-413.2 525,-39.2 335,-39.2"/>
</a>
</g>
</g>
<!-- patient_data -->
<g id="node2" class="node">
<title>patient_data</title>
<g id="a_node2"><a xlink:href="../../tables/patient_data.html" xlink:title="patient_data" target="_top">
<polygon fill="#ffffff" stroke="transparent" points="8,-197.7 8,-588.7 285,-588.7 285,-197.7 8,-197.7"/>
<polygon fill="#f5f5f5" stroke="transparent" points="8.5,-565.2 8.5,-588.2 285.5,-588.2 285.5,-565.2 8.5,-565.2"/>
<polygon fill="none" stroke="#000000" points="8.5,-565.2 8.5,-588.2 285.5,-588.2 285.5,-565.2 8.5,-565.2"/>
<text text-anchor="start" x="13.5" y="-573.8" font-family="Helvetica,sans-Serif" font-weight="bold" font-size="11.00" fill="#000000">patient_data</text>
<text text-anchor="start" x="250.5437" y="-573.3" font-family="Helvetica,sans-Serif" font-size="11.00" fill="#000000">[table]</text>
<polygon fill="none" stroke="#000000" points="8.5,-543.2 8.5,-565.2 285.5,-565.2 285.5,-543.2 8.5,-543.2"/>
<image xlink:href="../../images/primaryKeys.png" width="11px" height="12px" preserveAspectRatio="xMinYMin meet" x="13.5" y="-560.2"/>
<text text-anchor="start" x="28.5" y="-550.3" font-family="Helvetica,sans-Serif" font-size="11.00" fill="#000000">id</text>
<polygon fill="#ffffff" stroke="transparent" points="8.5,-521.2 8.5,-543.2 285.5,-543.2 285.5,-521.2 8.5,-521.2"/>
<polygon fill="none" stroke="#000000" points="8.5,-521.2 8.5,-543.2 285.5,-543.2 285.5,-521.2 8.5,-521.2"/>
<text text-anchor="start" x="28.5" y="-528.3" font-family="Helvetica,sans-Serif" font-size="11.00" fill="#000000">uuid</text>
<polygon fill="#ffffff" stroke="transparent" points="8.5,-499.2 8.5,-521.2 285.5,-521.2 285.5,-499.2 8.5,-499.2"/>
<polygon fill="none" stroke="#000000" points="8.5,-499.2 8.5,-521.2 285.5,-521.2 285.5,-499.2 8.5,-499.2"/>
<text text-anchor="start" x="28.5" y="-506.3" font-family="Helvetica,sans-Serif" font-size="11.00" fill="#000000">fname</text>
<polygon fill="#ffffff" stroke="transparent" points="8.5,-477.2 8.5,-499.2 285.5,-499.2 285.5,-477.2 8.5,-477.2"/>
<polygon fill="none" stroke="#000000" points="8.5,-477.2 8.5,-499.2 285.5,-499.2 285.5,-477.2 8.5,-477.2"/>
<text text-anchor="start" x="28.5" y="-484.3" font-family="Helvetica,sans-Serif" font-size="11.00" fill="#000000">lname</text>
<polygon fill="#ffffff" stroke="transparent" points="8.5,-455.2 8.5,-477.2 285.5,-477.2 285.5,-455.2 8.5,-455.2"/>
<polygon fill="none" stroke="#000000" points="8.5,-455.2 8.5,-477.2 285.5,-477.2 285.5,-455.2 8.5,-455.2"/>
<text text-anchor="start" x="28.5" y="-462.3" font-family="Helvetica,sans-Serif" font-size="11.00" fill="#000000">DOB</text>
<polygon fill="none" stroke="#000000" points="8.5,-433.2 8.5,-455.2 285.5,-455.2 285.5,-433.2 8.5,-433.2"/>
<image xlink:href="../../images/foreignKeys.png" width="11px" height="12px" preserveAspectRatio="xMinYMin meet" x="13.5" y="-450.2"/>
<text text-anchor="start" x="28.5" y="-440.3" font-family="Helvetica,sans-Serif" font-size="11.00" fill="#000000">pharmacy_id</text>
<polygon fill="none" stroke="#000000" points="8.5,-411.2 8.5,-433.2 285.5,-433.2 285.5,-411.2 8.5,-411.2"/>
<image xlink:href="../../images/foreignKeys.png" width="11px" height="12px" preserveAspectRatio="xMinYMin meet" x="13.5" y="-428.2"/>
<text text-anchor="start" x="28.5" y="-418.3" font-family="Helvetica,sans-Serif" font-size="11.00" fill="#000000">providerID</text>
<polygon fill="none" stroke="#000000" points="8.5,-389.2 8.5,-411.2 285.5,-411.2 285.5,-389.2 8.5,-389.2"/>
<image xlink:href="../../images/foreignKeys.png" width="11px" height="12px" preserveAspectRatio="xMinYMin meet" x="13.5" y="-406.2"/>
<text text-anchor="start" x="28.5" y="-396.3" font-family="Helvetica,sans-Serif" font-size="11.00" fill="#000000">ref_providerID</text>
<polygon fill="none" stroke="#000000" points="8.5,-367.2 8.5,-389.2 285.5,-389.2 285.5,-367.2 8.5,-367.2"/>
<image xlink:href="../../images/foreignKeys.png" width="11px" height="12px" preserveAspectRatio="xMinYMin meet" x="13.5" y="-384.2"/>
<text text-anchor="start" x="28.5" y="-374.3" font-family="Helvetica,sans-Serif" font-size="11.00" fill="#000000">interpreter_needed</text>
<polygon fill="none" stroke="#000000" points="8.5,-345.2 8.5,-367.2 285.5,-367.2 285.5,-345.2 8.5,-345.2"/>
<image xlink:href="../../images/primaryKeys.png" width="11px" height="12px" preserveAspectRatio="xMinYMin meet" x="13.5" y="-362.2"/>
<text text-anchor="start" x="28.5" y="-352.3" font-family="Helvetica,sans-Serif" font-size="11.00" fill="#000000">pid</text>
<polygon fill="none" stroke="#000000" points="8.5,-323.2 8.5,-345.2 285.5,-345.2 285.5,-323.2 8.5,-323.2"/>
<image xlink:href="../../images/foreignKeys.png" width="11px" height="12px" preserveAspectRatio="xMinYMin meet" x="13.5" y="-340.2"/>
<text text-anchor="start" x="28.5" y="-330.3" font-family="Helvetica,sans-Serif" font-size="11.00" fill="#000000">advance_directive_user_authenticator</text>
<polygon fill="none" stroke="#000000" points="8.5,-301.2 8.5,-323.2 285.5,-323.2 285.5,-301.2 8.5,-301.2"/>
<image xlink:href="../../images/foreignKeys.png" width="11px" height="12px" preserveAspectRatio="xMinYMin meet" x="13.5" y="-318.2"/>
<text text-anchor="start" x="28.5" y="-308.3" font-family="Helvetica,sans-Serif" font-size="11.00" fill="#000000">created_by</text>
<polygon fill="none" stroke="#000000" points="8.5,-279.2 8.5,-301.2 285.5,-301.2 285.5,-279.2 8.5,-279.2"/>
<image xlink:href="../../images/foreignKeys.png" width="11px" height="12px" preserveAspectRatio="xMinYMin meet" x="13.5" y="-296.2"/>
<text text-anchor="start" x="28.5" y="-286.3" font-family="Helvetica,sans-Serif" font-size="11.00" fill="#000000">updated_by</text>
<polygon fill="none" stroke="#000000" points="8.5,-257.2 8.5,-279.2 285.5,-279.2 285.5,-257.2 8.5,-257.2"/>
<image xlink:href="../../images/foreignKeys.png" width="11px" height="12px" preserveAspectRatio="xMinYMin meet" x="13.5" y="-274.2"/>
<text text-anchor="start" x="28.5" y="-264.3" font-family="Helvetica,sans-Serif" font-size="11.00" fill="#000000">tribal_affiliations</text>
<polygon fill="none" stroke="#000000" points="8.5,-235.2 8.5,-257.2 285.5,-257.2 285.5,-235.2 8.5,-235.2"/>
<image xlink:href="../../images/foreignKeys.png" width="11px" height="12px" preserveAspectRatio="xMinYMin meet" x="13.5" y="-252.2"/>
<text text-anchor="start" x="28.5" y="-242.3" font-family="Helvetica,sans-Serif" font-size="11.00" fill="#000000">sex_identified</text>
<polygon fill="none" stroke="#000000" points="8.5,-216.2 8.5,-235.2 285.5,-235.2 285.5,-216.2 8.5,-216.2"/>
<text text-anchor="start" x="11.5" y="-222.3" font-family="Helvetica,sans-Serif" font-size="11.00" fill="#000000">...</text>
<polygon fill="#ffffff" stroke="transparent" points="8.5,-197.2 8.5,-216.2 137.5,-216.2 137.5,-197.2 8.5,-197.2"/>
<polygon fill="none" stroke="#000000" points="8.5,-197.2 8.5,-216.2 137.5,-216.2 137.5,-197.2 8.5,-197.2"/>
<text text-anchor="start" x="11.5" y="-203.3" font-family="Helvetica,sans-Serif" font-size="11.00" fill="#000000">&lt; 9</text>
<polygon fill="#ffffff" stroke="transparent" points="137.5,-197.2 137.5,-216.2 203.5,-216.2 203.5,-197.2 137.5,-197.2"/>
<polygon fill="none" stroke="#000000" points="137.5,-197.2 137.5,-216.2 203.5,-216.2 203.5,-197.2 137.5,-197.2"/>
<text text-anchor="start" x="194.3862" y="-203.3" font-family="Helvetica,sans-Serif" font-size="11.00" fill="#000000"> &#160;</text>
<polygon fill="#ffffff" stroke="transparent" points="203.5,-197.2 203.5,-216.2 285.5,-216.2 285.5,-197.2 203.5,-197.2"/>
<polygon fill="none" stroke="#000000" points="203.5,-197.2 203.5,-216.2 285.5,-216.2 285.5,-197.2 203.5,-197.2"/>
<text text-anchor="start" x="260.7904" y="-203.3" font-family="Helvetica,sans-Serif" font-size="11.00" fill="#000000">95 &gt;</text>
</a>
</g>
</g>
<!-- form_eye_ros&#45;&gt;patient_data -->
<g id="edge1" class="edge">
<title>form_eye_ros:w&#45;&gt;patient_data:e</title>
<path fill="none" stroke="#000000" d="M321.4203,-356.2C309.5435,-356.2 302.158,-356.2 285.5,-356.2"/>
<polygon fill="#000000" stroke="#000000" points="328,-356.2001 336,-359.8 332,-356.2 336,-356.2 336,-356.2 336,-356.2 332,-356.2 336,-352.6 328,-356.2001 328,-356.2001"/>
<ellipse fill="none" stroke="#000000" cx="324.8" cy="-356.2001" rx="3.2" ry="3.2"/>
</g>
</g>
</svg>
