<?xml version="1.0" encoding="UTF-8" standalone="no"?>
<!DOCTYPE svg PUBLIC "-//W3C//DTD SVG 1.1//EN"
 "http://www.w3.org/Graphics/SVG/1.1/DTD/svg11.dtd">
<!-- Generated by graphviz version 2.40.1 (20161225.0304)
 -->
<!-- Title: oneDegreeRelationshipsDiagram Pages: 1 -->
<svg width="1094pt" height="751pt"
 viewBox="0.00 0.00 1094.00 750.79" xmlns="http://www.w3.org/2000/svg" xmlns:xlink="http://www.w3.org/1999/xlink">
<g id="graph0" class="graph" transform="scale(1 1) rotate(0) translate(4 746.7903)">
<title>oneDegreeRelationshipsDiagram</title>
<polygon fill="#ffffff" stroke="transparent" points="-4,4 -4,-746.7903 1090,-746.7903 1090,4 -4,4"/>
<text text-anchor="middle" x="72.4936" y="-7.3" font-family="Helvetica,sans-Serif" font-size="11.00" fill="#000000">Generated by SchemaSpy</text>
<!-- immunization_observation -->
<g id="node1" class="node">
<title>immunization_observation</title>
<g id="a_node1"><a xlink:href="../../tables/immunization_observation.html" xlink:title="immunization_observation" target="_top">
<polygon fill="#ffffff" stroke="transparent" points="800,-195.2903 800,-505.2903 1078,-505.2903 1078,-195.2903 800,-195.2903"/>
<polygon fill="#f5f5f5" stroke="transparent" points="802,-480.2903 802,-503.2903 1076,-503.2903 1076,-480.2903 802,-480.2903"/>
<polygon fill="none" stroke="#000000" points="802,-480.2903 802,-503.2903 1076,-503.2903 1076,-480.2903 802,-480.2903"/>
<text text-anchor="start" x="807" y="-488.8903" font-family="Helvetica,sans-Serif" font-weight="bold" font-size="11.00" fill="#000000">immunization_observation</text>
<text text-anchor="start" x="1041.0437" y="-488.3903" font-family="Helvetica,sans-Serif" font-size="11.00" fill="#000000">[table]</text>
<polygon fill="none" stroke="#000000" points="802,-458.2903 802,-480.2903 1001,-480.2903 1001,-458.2903 802,-458.2903"/>
<image xlink:href="../../images/primaryKeys.png" width="11px" height="12px" preserveAspectRatio="xMinYMin meet" x="807" y="-475.29"/>
<text text-anchor="start" x="822" y="-465.3903" font-family="Helvetica,sans-Serif" font-size="11.00" fill="#000000">imo_id</text>
<polygon fill="none" stroke="#000000" points="1001,-458.2903 1001,-480.2903 1076,-480.2903 1076,-458.2903 1001,-458.2903"/>
<text text-anchor="start" x="1004" y="-465.9903" font-family="Helvetica,sans-Serif" font-size="11.00" fill="#000000">int[10]</text>
<polygon fill="none" stroke="#000000" points="802,-436.2903 802,-458.2903 1001,-458.2903 1001,-436.2903 802,-436.2903"/>
<image xlink:href="../../images/foreignKeys.png" width="11px" height="12px" preserveAspectRatio="xMinYMin meet" x="807" y="-453.29"/>
<text text-anchor="start" x="822" y="-443.3903" font-family="Helvetica,sans-Serif" font-size="11.00" fill="#000000">imo_im_id</text>
<polygon fill="none" stroke="#000000" points="1001,-436.2903 1001,-458.2903 1076,-458.2903 1076,-436.2903 1001,-436.2903"/>
<text text-anchor="start" x="1004" y="-443.9903" font-family="Helvetica,sans-Serif" font-size="11.00" fill="#000000">int[10]</text>
<polygon fill="none" stroke="#000000" points="802,-414.2903 802,-436.2903 1001,-436.2903 1001,-414.2903 802,-414.2903"/>
<image xlink:href="../../images/foreignKeys.png" width="11px" height="12px" preserveAspectRatio="xMinYMin meet" x="807" y="-431.29"/>
<text text-anchor="start" x="822" y="-421.3903" font-family="Helvetica,sans-Serif" font-size="11.00" fill="#000000">imo_pid</text>
<polygon fill="none" stroke="#000000" points="1001,-414.2903 1001,-436.2903 1076,-436.2903 1076,-414.2903 1001,-414.2903"/>
<text text-anchor="start" x="1004" y="-421.9903" font-family="Helvetica,sans-Serif" font-size="11.00" fill="#000000">int[10]</text>
<polygon fill="none" stroke="#000000" points="802,-392.2903 802,-414.2903 1001,-414.2903 1001,-392.2903 802,-392.2903"/>
<text text-anchor="start" x="822" y="-399.3903" font-family="Helvetica,sans-Serif" font-size="11.00" fill="#000000">imo_criteria</text>
<polygon fill="none" stroke="#000000" points="1001,-392.2903 1001,-414.2903 1076,-414.2903 1076,-392.2903 1001,-392.2903"/>
<text text-anchor="start" x="1004" y="-399.9903" font-family="Helvetica,sans-Serif" font-size="11.00" fill="#000000">varchar[255]</text>
<polygon fill="none" stroke="#000000" points="802,-370.2903 802,-392.2903 1001,-392.2903 1001,-370.2903 802,-370.2903"/>
<text text-anchor="start" x="822" y="-377.3903" font-family="Helvetica,sans-Serif" font-size="11.00" fill="#000000">imo_criteria_value</text>
<polygon fill="none" stroke="#000000" points="1001,-370.2903 1001,-392.2903 1076,-392.2903 1076,-370.2903 1001,-370.2903"/>
<text text-anchor="start" x="1004" y="-377.9903" font-family="Helvetica,sans-Serif" font-size="11.00" fill="#000000">varchar[255]</text>
<polygon fill="none" stroke="#000000" points="802,-348.2903 802,-370.2903 1001,-370.2903 1001,-348.2903 802,-348.2903"/>
<image xlink:href="../../images/foreignKeys.png" width="11px" height="12px" preserveAspectRatio="xMinYMin meet" x="807" y="-365.29"/>
<text text-anchor="start" x="822" y="-355.3903" font-family="Helvetica,sans-Serif" font-size="11.00" fill="#000000">imo_user</text>
<polygon fill="none" stroke="#000000" points="1001,-348.2903 1001,-370.2903 1076,-370.2903 1076,-348.2903 1001,-348.2903"/>
<text text-anchor="start" x="1004" y="-355.9903" font-family="Helvetica,sans-Serif" font-size="11.00" fill="#000000">int[10]</text>
<polygon fill="none" stroke="#000000" points="802,-326.2903 802,-348.2903 1001,-348.2903 1001,-326.2903 802,-326.2903"/>
<text text-anchor="start" x="822" y="-333.3903" font-family="Helvetica,sans-Serif" font-size="11.00" fill="#000000">imo_code</text>
<polygon fill="none" stroke="#000000" points="1001,-326.2903 1001,-348.2903 1076,-348.2903 1076,-326.2903 1001,-326.2903"/>
<text text-anchor="start" x="1004" y="-333.9903" font-family="Helvetica,sans-Serif" font-size="11.00" fill="#000000">varchar[255]</text>
<polygon fill="none" stroke="#000000" points="802,-304.2903 802,-326.2903 1001,-326.2903 1001,-304.2903 802,-304.2903"/>
<text text-anchor="start" x="822" y="-311.3903" font-family="Helvetica,sans-Serif" font-size="11.00" fill="#000000">imo_codetext</text>
<polygon fill="none" stroke="#000000" points="1001,-304.2903 1001,-326.2903 1076,-326.2903 1076,-304.2903 1001,-304.2903"/>
<text text-anchor="start" x="1004" y="-311.9903" font-family="Helvetica,sans-Serif" font-size="11.00" fill="#000000">varchar[255]</text>
<polygon fill="none" stroke="#000000" points="802,-282.2903 802,-304.2903 1001,-304.2903 1001,-282.2903 802,-282.2903"/>
<text text-anchor="start" x="822" y="-289.3903" font-family="Helvetica,sans-Serif" font-size="11.00" fill="#000000">imo_codetype</text>
<polygon fill="none" stroke="#000000" points="1001,-282.2903 1001,-304.2903 1076,-304.2903 1076,-282.2903 1001,-282.2903"/>
<text text-anchor="start" x="1004" y="-289.9903" font-family="Helvetica,sans-Serif" font-size="11.00" fill="#000000">varchar[255]</text>
<polygon fill="none" stroke="#000000" points="802,-260.2903 802,-282.2903 1001,-282.2903 1001,-260.2903 802,-260.2903"/>
<text text-anchor="start" x="822" y="-267.3903" font-family="Helvetica,sans-Serif" font-size="11.00" fill="#000000">imo_vis_date_published</text>
<polygon fill="none" stroke="#000000" points="1001,-260.2903 1001,-282.2903 1076,-282.2903 1076,-260.2903 1001,-260.2903"/>
<text text-anchor="start" x="1004" y="-267.9903" font-family="Helvetica,sans-Serif" font-size="11.00" fill="#000000">date[10]</text>
<polygon fill="none" stroke="#000000" points="802,-238.2903 802,-260.2903 1001,-260.2903 1001,-238.2903 802,-238.2903"/>
<text text-anchor="start" x="822" y="-245.3903" font-family="Helvetica,sans-Serif" font-size="11.00" fill="#000000">imo_vis_date_presented</text>
<polygon fill="none" stroke="#000000" points="1001,-238.2903 1001,-260.2903 1076,-260.2903 1076,-238.2903 1001,-238.2903"/>
<text text-anchor="start" x="1004" y="-245.9903" font-family="Helvetica,sans-Serif" font-size="11.00" fill="#000000">date[10]</text>
<polygon fill="none" stroke="#000000" points="802,-216.2903 802,-238.2903 1001,-238.2903 1001,-216.2903 802,-216.2903"/>
<text text-anchor="start" x="822" y="-223.3903" font-family="Helvetica,sans-Serif" font-size="11.00" fill="#000000">imo_date_observation</text>
<polygon fill="none" stroke="#000000" points="1001,-216.2903 1001,-238.2903 1076,-238.2903 1076,-216.2903 1001,-216.2903"/>
<text text-anchor="start" x="1003.9666" y="-223.9903" font-family="Helvetica,sans-Serif" font-size="11.00" fill="#000000">timestamp[19]</text>
<polygon fill="#ffffff" stroke="transparent" points="802,-197.2903 802,-216.2903 906,-216.2903 906,-197.2903 802,-197.2903"/>
<polygon fill="none" stroke="#000000" points="802,-197.2903 802,-216.2903 906,-216.2903 906,-197.2903 802,-197.2903"/>
<text text-anchor="start" x="805" y="-203.3903" font-family="Helvetica,sans-Serif" font-size="11.00" fill="#000000">&lt; 3</text>
<polygon fill="#ffffff" stroke="transparent" points="906,-197.2903 906,-216.2903 1001,-216.2903 1001,-197.2903 906,-197.2903"/>
<polygon fill="none" stroke="#000000" points="906,-197.2903 906,-216.2903 1001,-216.2903 1001,-197.2903 906,-197.2903"/>
<text text-anchor="start" x="991.8862" y="-203.3903" font-family="Helvetica,sans-Serif" font-size="11.00" fill="#000000"> &#160;</text>
<polygon fill="#ffffff" stroke="transparent" points="1001,-197.2903 1001,-216.2903 1076,-216.2903 1076,-197.2903 1001,-197.2903"/>
<polygon fill="none" stroke="#000000" points="1001,-197.2903 1001,-216.2903 1076,-216.2903 1076,-197.2903 1001,-197.2903"/>
<text text-anchor="start" x="1057.4053" y="-203.3903" font-family="Helvetica,sans-Serif" font-size="11.00" fill="#000000">0 &gt;</text>
<polygon fill="none" stroke="#000000" stroke-width="2" points="801,-196.2903 801,-504.2903 1077,-504.2903 1077,-196.2903 801,-196.2903"/>
</a>
</g>
</g>
<!-- immunizations -->
<g id="node2" class="node">
<title>immunizations</title>
<g id="a_node2"><a xlink:href="../../tables/immunizations.html" xlink:title="immunizations" target="_top">
<polygon fill="#ffffff" stroke="transparent" points="550,-68.7903 550,-481.7903 751,-481.7903 751,-68.7903 550,-68.7903"/>
<polygon fill="#f5f5f5" stroke="transparent" points="550.5,-458.2903 550.5,-481.2903 751.5,-481.2903 751.5,-458.2903 550.5,-458.2903"/>
<polygon fill="none" stroke="#000000" points="550.5,-458.2903 550.5,-481.2903 751.5,-481.2903 751.5,-458.2903 550.5,-458.2903"/>
<text text-anchor="start" x="555.5" y="-466.8903" font-family="Helvetica,sans-Serif" font-weight="bold" font-size="11.00" fill="#000000">immunizations</text>
<text text-anchor="start" x="716.5437" y="-466.3903" font-family="Helvetica,sans-Serif" font-size="11.00" fill="#000000">[table]</text>
<polygon fill="none" stroke="#000000" points="550.5,-436.2903 550.5,-458.2903 751.5,-458.2903 751.5,-436.2903 550.5,-436.2903"/>
<image xlink:href="../../images/primaryKeys.png" width="11px" height="12px" preserveAspectRatio="xMinYMin meet" x="555.5" y="-453.29"/>
<text text-anchor="start" x="570.5" y="-443.3903" font-family="Helvetica,sans-Serif" font-size="11.00" fill="#000000">id</text>
<polygon fill="#ffffff" stroke="transparent" points="550.5,-414.2903 550.5,-436.2903 751.5,-436.2903 751.5,-414.2903 550.5,-414.2903"/>
<polygon fill="none" stroke="#000000" points="550.5,-414.2903 550.5,-436.2903 751.5,-436.2903 751.5,-414.2903 550.5,-414.2903"/>
<text text-anchor="start" x="570.5" y="-421.3903" font-family="Helvetica,sans-Serif" font-size="11.00" fill="#000000">uuid</text>
<polygon fill="#ffffff" stroke="transparent" points="550.5,-392.2903 550.5,-414.2903 751.5,-414.2903 751.5,-392.2903 550.5,-392.2903"/>
<polygon fill="none" stroke="#000000" points="550.5,-392.2903 550.5,-414.2903 751.5,-414.2903 751.5,-392.2903 550.5,-392.2903"/>
<image xlink:href="../../images/foreignKeys.png" width="11px" height="12px" preserveAspectRatio="xMinYMin meet" x="555.5" y="-409.29"/>
<text text-anchor="start" x="570.5" y="-399.3903" font-family="Helvetica,sans-Serif" font-size="11.00" fill="#000000">patient_id</text>
<polygon fill="none" stroke="#000000" points="550.5,-370.2903 550.5,-392.2903 751.5,-392.2903 751.5,-370.2903 550.5,-370.2903"/>
<image xlink:href="../../images/foreignKeys.png" width="11px" height="12px" preserveAspectRatio="xMinYMin meet" x="555.5" y="-387.29"/>
<text text-anchor="start" x="570.5" y="-377.3903" font-family="Helvetica,sans-Serif" font-size="11.00" fill="#000000">immunization_id</text>
<polygon fill="none" stroke="#000000" points="550.5,-348.2903 550.5,-370.2903 751.5,-370.2903 751.5,-348.2903 550.5,-348.2903"/>
<image xlink:href="../../images/foreignKeys.png" width="11px" height="12px" preserveAspectRatio="xMinYMin meet" x="555.5" y="-365.29"/>
<text text-anchor="start" x="570.5" y="-355.3903" font-family="Helvetica,sans-Serif" font-size="11.00" fill="#000000">manufacturer</text>
<polygon fill="none" stroke="#000000" points="550.5,-326.2903 550.5,-348.2903 751.5,-348.2903 751.5,-326.2903 550.5,-326.2903"/>
<image xlink:href="../../images/foreignKeys.png" width="11px" height="12px" preserveAspectRatio="xMinYMin meet" x="555.5" y="-343.29"/>
<text text-anchor="start" x="570.5" y="-333.3903" font-family="Helvetica,sans-Serif" font-size="11.00" fill="#000000">administered_by_id</text>
<polygon fill="none" stroke="#000000" points="550.5,-304.2903 550.5,-326.2903 751.5,-326.2903 751.5,-304.2903 550.5,-304.2903"/>
<image xlink:href="../../images/foreignKeys.png" width="11px" height="12px" preserveAspectRatio="xMinYMin meet" x="555.5" y="-321.29"/>
<text text-anchor="start" x="570.5" y="-311.3903" font-family="Helvetica,sans-Serif" font-size="11.00" fill="#000000">created_by</text>
<polygon fill="none" stroke="#000000" points="550.5,-282.2903 550.5,-304.2903 751.5,-304.2903 751.5,-282.2903 550.5,-282.2903"/>
<image xlink:href="../../images/foreignKeys.png" width="11px" height="12px" preserveAspectRatio="xMinYMin meet" x="555.5" y="-299.29"/>
<text text-anchor="start" x="570.5" y="-289.3903" font-family="Helvetica,sans-Serif" font-size="11.00" fill="#000000">updated_by</text>
<polygon fill="none" stroke="#000000" points="550.5,-260.2903 550.5,-282.2903 751.5,-282.2903 751.5,-260.2903 550.5,-260.2903"/>
<image xlink:href="../../images/foreignKeys.png" width="11px" height="12px" preserveAspectRatio="xMinYMin meet" x="555.5" y="-277.29"/>
<text text-anchor="start" x="570.5" y="-267.3903" font-family="Helvetica,sans-Serif" font-size="11.00" fill="#000000">amount_administered_unit</text>
<polygon fill="none" stroke="#000000" points="550.5,-238.2903 550.5,-260.2903 751.5,-260.2903 751.5,-238.2903 550.5,-238.2903"/>
<image xlink:href="../../images/foreignKeys.png" width="11px" height="12px" preserveAspectRatio="xMinYMin meet" x="555.5" y="-255.29"/>
<text text-anchor="start" x="570.5" y="-245.3903" font-family="Helvetica,sans-Serif" font-size="11.00" fill="#000000">route</text>
<polygon fill="none" stroke="#000000" points="550.5,-216.2903 550.5,-238.2903 751.5,-238.2903 751.5,-216.2903 550.5,-216.2903"/>
<image xlink:href="../../images/foreignKeys.png" width="11px" height="12px" preserveAspectRatio="xMinYMin meet" x="555.5" y="-233.29"/>
<text text-anchor="start" x="570.5" y="-223.3903" font-family="Helvetica,sans-Serif" font-size="11.00" fill="#000000">administration_site</text>
<polygon fill="none" stroke="#000000" points="550.5,-194.2903 550.5,-216.2903 751.5,-216.2903 751.5,-194.2903 550.5,-194.2903"/>
<image xlink:href="../../images/foreignKeys.png" width="11px" height="12px" preserveAspectRatio="xMinYMin meet" x="555.5" y="-211.29"/>
<text text-anchor="start" x="570.5" y="-201.3903" font-family="Helvetica,sans-Serif" font-size="11.00" fill="#000000">completion_status</text>
<polygon fill="none" stroke="#000000" points="550.5,-172.2903 550.5,-194.2903 751.5,-194.2903 751.5,-172.2903 550.5,-172.2903"/>
<image xlink:href="../../images/foreignKeys.png" width="11px" height="12px" preserveAspectRatio="xMinYMin meet" x="555.5" y="-189.29"/>
<text text-anchor="start" x="570.5" y="-179.3903" font-family="Helvetica,sans-Serif" font-size="11.00" fill="#000000">information_source</text>
<polygon fill="none" stroke="#000000" points="550.5,-150.2903 550.5,-172.2903 751.5,-172.2903 751.5,-150.2903 550.5,-150.2903"/>
<image xlink:href="../../images/foreignKeys.png" width="11px" height="12px" preserveAspectRatio="xMinYMin meet" x="555.5" y="-167.29"/>
<text text-anchor="start" x="570.5" y="-157.3903" font-family="Helvetica,sans-Serif" font-size="11.00" fill="#000000">refusal_reason</text>
<polygon fill="none" stroke="#000000" points="550.5,-128.2903 550.5,-150.2903 751.5,-150.2903 751.5,-128.2903 550.5,-128.2903"/>
<image xlink:href="../../images/foreignKeys.png" width="11px" height="12px" preserveAspectRatio="xMinYMin meet" x="555.5" y="-145.29"/>
<text text-anchor="start" x="570.5" y="-135.3903" font-family="Helvetica,sans-Serif" font-size="11.00" fill="#000000">ordering_provider</text>
<polygon fill="none" stroke="#000000" points="550.5,-106.2903 550.5,-128.2903 751.5,-128.2903 751.5,-106.2903 550.5,-106.2903"/>
<image xlink:href="../../images/foreignKeys.png" width="11px" height="12px" preserveAspectRatio="xMinYMin meet" x="555.5" y="-123.29"/>
<text text-anchor="start" x="570.5" y="-113.3903" font-family="Helvetica,sans-Serif" font-size="11.00" fill="#000000">encounter_id</text>
<polygon fill="none" stroke="#000000" points="550.5,-87.2903 550.5,-106.2903 751.5,-106.2903 751.5,-87.2903 550.5,-87.2903"/>
<text text-anchor="start" x="553.5" y="-93.3903" font-family="Helvetica,sans-Serif" font-size="11.00" fill="#000000">...</text>
<polygon fill="#ffffff" stroke="transparent" points="550.5,-68.2903 550.5,-87.2903 647.5,-87.2903 647.5,-68.2903 550.5,-68.2903"/>
<polygon fill="none" stroke="#000000" points="550.5,-68.2903 550.5,-87.2903 647.5,-87.2903 647.5,-68.2903 550.5,-68.2903"/>
<text text-anchor="start" x="553.5" y="-74.3903" font-family="Helvetica,sans-Serif" font-size="11.00" fill="#000000">&lt; 14</text>
<polygon fill="#ffffff" stroke="transparent" points="647.5,-68.2903 647.5,-87.2903 694.5,-87.2903 694.5,-68.2903 647.5,-68.2903"/>
<polygon fill="none" stroke="#000000" points="647.5,-68.2903 647.5,-87.2903 694.5,-87.2903 694.5,-68.2903 647.5,-68.2903"/>
<text text-anchor="start" x="685.3862" y="-74.3903" font-family="Helvetica,sans-Serif" font-size="11.00" fill="#000000"> &#160;</text>
<polygon fill="#ffffff" stroke="transparent" points="694.5,-68.2903 694.5,-87.2903 751.5,-87.2903 751.5,-68.2903 694.5,-68.2903"/>
<polygon fill="none" stroke="#000000" points="694.5,-68.2903 694.5,-87.2903 751.5,-87.2903 751.5,-68.2903 694.5,-68.2903"/>
<text text-anchor="start" x="732.9053" y="-74.3903" font-family="Helvetica,sans-Serif" font-size="11.00" fill="#000000">1 &gt;</text>
</a>
</g>
</g>
<!-- immunization_observation&#45;&gt;immunizations -->
<g id="edge1" class="edge">
<title>immunization_observation:w&#45;&gt;immunizations:e</title>
<path fill="none" stroke="#000000" d="M787.4203,-447.2903C775.5435,-447.2903 768.158,-447.2903 751.5,-447.2903"/>
<polygon fill="#000000" stroke="#000000" points="794,-447.2903 802,-450.8903 798,-447.2903 802,-447.2903 802,-447.2903 802,-447.2903 798,-447.2903 802,-443.6903 794,-447.2903 794,-447.2903"/>
<ellipse fill="none" stroke="#000000" cx="790.8" cy="-447.2903" rx="3.2" ry="3.2"/>
</g>
<!-- patient_data -->
<g id="node3" class="node">
<title>patient_data</title>
<g id="a_node3"><a xlink:href="../../tables/patient_data.html" xlink:title="patient_data" target="_top">
<polygon fill="#ffffff" stroke="transparent" points="224,-347.7903 224,-738.7903 501,-738.7903 501,-347.7903 224,-347.7903"/>
<polygon fill="#f5f5f5" stroke="transparent" points="224.5,-715.2903 224.5,-738.2903 501.5,-738.2903 501.5,-715.2903 224.5,-715.2903"/>
<polygon fill="none" stroke="#000000" points="224.5,-715.2903 224.5,-738.2903 501.5,-738.2903 501.5,-715.2903 224.5,-715.2903"/>
<text text-anchor="start" x="229.5" y="-723.8903" font-family="Helvetica,sans-Serif" font-weight="bold" font-size="11.00" fill="#000000">patient_data</text>
<text text-anchor="start" x="466.5437" y="-723.3903" font-family="Helvetica,sans-Serif" font-size="11.00" fill="#000000">[table]</text>
<polygon fill="none" stroke="#000000" points="224.5,-693.2903 224.5,-715.2903 501.5,-715.2903 501.5,-693.2903 224.5,-693.2903"/>
<image xlink:href="../../images/primaryKeys.png" width="11px" height="12px" preserveAspectRatio="xMinYMin meet" x="229.5" y="-710.29"/>
<text text-anchor="start" x="244.5" y="-700.3903" font-family="Helvetica,sans-Serif" font-size="11.00" fill="#000000">id</text>
<polygon fill="#ffffff" stroke="transparent" points="224.5,-671.2903 224.5,-693.2903 501.5,-693.2903 501.5,-671.2903 224.5,-671.2903"/>
<polygon fill="none" stroke="#000000" points="224.5,-671.2903 224.5,-693.2903 501.5,-693.2903 501.5,-671.2903 224.5,-671.2903"/>
<text text-anchor="start" x="244.5" y="-678.3903" font-family="Helvetica,sans-Serif" font-size="11.00" fill="#000000">uuid</text>
<polygon fill="#ffffff" stroke="transparent" points="224.5,-649.2903 224.5,-671.2903 501.5,-671.2903 501.5,-649.2903 224.5,-649.2903"/>
<polygon fill="none" stroke="#000000" points="224.5,-649.2903 224.5,-671.2903 501.5,-671.2903 501.5,-649.2903 224.5,-649.2903"/>
<text text-anchor="start" x="244.5" y="-656.3903" font-family="Helvetica,sans-Serif" font-size="11.00" fill="#000000">fname</text>
<polygon fill="#ffffff" stroke="transparent" points="224.5,-627.2903 224.5,-649.2903 501.5,-649.2903 501.5,-627.2903 224.5,-627.2903"/>
<polygon fill="none" stroke="#000000" points="224.5,-627.2903 224.5,-649.2903 501.5,-649.2903 501.5,-627.2903 224.5,-627.2903"/>
<text text-anchor="start" x="244.5" y="-634.3903" font-family="Helvetica,sans-Serif" font-size="11.00" fill="#000000">lname</text>
<polygon fill="#ffffff" stroke="transparent" points="224.5,-605.2903 224.5,-627.2903 501.5,-627.2903 501.5,-605.2903 224.5,-605.2903"/>
<polygon fill="none" stroke="#000000" points="224.5,-605.2903 224.5,-627.2903 501.5,-627.2903 501.5,-605.2903 224.5,-605.2903"/>
<text text-anchor="start" x="244.5" y="-612.3903" font-family="Helvetica,sans-Serif" font-size="11.00" fill="#000000">DOB</text>
<polygon fill="none" stroke="#000000" points="224.5,-583.2903 224.5,-605.2903 501.5,-605.2903 501.5,-583.2903 224.5,-583.2903"/>
<image xlink:href="../../images/foreignKeys.png" width="11px" height="12px" preserveAspectRatio="xMinYMin meet" x="229.5" y="-600.29"/>
<text text-anchor="start" x="244.5" y="-590.3903" font-family="Helvetica,sans-Serif" font-size="11.00" fill="#000000">pharmacy_id</text>
<polygon fill="none" stroke="#000000" points="224.5,-561.2903 224.5,-583.2903 501.5,-583.2903 501.5,-561.2903 224.5,-561.2903"/>
<image xlink:href="../../images/foreignKeys.png" width="11px" height="12px" preserveAspectRatio="xMinYMin meet" x="229.5" y="-578.29"/>
<text text-anchor="start" x="244.5" y="-568.3903" font-family="Helvetica,sans-Serif" font-size="11.00" fill="#000000">providerID</text>
<polygon fill="none" stroke="#000000" points="224.5,-539.2903 224.5,-561.2903 501.5,-561.2903 501.5,-539.2903 224.5,-539.2903"/>
<image xlink:href="../../images/foreignKeys.png" width="11px" height="12px" preserveAspectRatio="xMinYMin meet" x="229.5" y="-556.29"/>
<text text-anchor="start" x="244.5" y="-546.3903" font-family="Helvetica,sans-Serif" font-size="11.00" fill="#000000">ref_providerID</text>
<polygon fill="none" stroke="#000000" points="224.5,-517.2903 224.5,-539.2903 501.5,-539.2903 501.5,-517.2903 224.5,-517.2903"/>
<image xlink:href="../../images/foreignKeys.png" width="11px" height="12px" preserveAspectRatio="xMinYMin meet" x="229.5" y="-534.29"/>
<text text-anchor="start" x="244.5" y="-524.3903" font-family="Helvetica,sans-Serif" font-size="11.00" fill="#000000">interpreter_needed</text>
<polygon fill="none" stroke="#000000" points="224.5,-495.2903 224.5,-517.2903 501.5,-517.2903 501.5,-495.2903 224.5,-495.2903"/>
<image xlink:href="../../images/primaryKeys.png" width="11px" height="12px" preserveAspectRatio="xMinYMin meet" x="229.5" y="-512.29"/>
<text text-anchor="start" x="244.5" y="-502.3903" font-family="Helvetica,sans-Serif" font-size="11.00" fill="#000000">pid</text>
<polygon fill="none" stroke="#000000" points="224.5,-473.2903 224.5,-495.2903 501.5,-495.2903 501.5,-473.2903 224.5,-473.2903"/>
<image xlink:href="../../images/foreignKeys.png" width="11px" height="12px" preserveAspectRatio="xMinYMin meet" x="229.5" y="-490.29"/>
<text text-anchor="start" x="244.5" y="-480.3903" font-family="Helvetica,sans-Serif" font-size="11.00" fill="#000000">advance_directive_user_authenticator</text>
<polygon fill="none" stroke="#000000" points="224.5,-451.2903 224.5,-473.2903 501.5,-473.2903 501.5,-451.2903 224.5,-451.2903"/>
<image xlink:href="../../images/foreignKeys.png" width="11px" height="12px" preserveAspectRatio="xMinYMin meet" x="229.5" y="-468.29"/>
<text text-anchor="start" x="244.5" y="-458.3903" font-family="Helvetica,sans-Serif" font-size="11.00" fill="#000000">created_by</text>
<polygon fill="none" stroke="#000000" points="224.5,-429.2903 224.5,-451.2903 501.5,-451.2903 501.5,-429.2903 224.5,-429.2903"/>
<image xlink:href="../../images/foreignKeys.png" width="11px" height="12px" preserveAspectRatio="xMinYMin meet" x="229.5" y="-446.29"/>
<text text-anchor="start" x="244.5" y="-436.3903" font-family="Helvetica,sans-Serif" font-size="11.00" fill="#000000">updated_by</text>
<polygon fill="none" stroke="#000000" points="224.5,-407.2903 224.5,-429.2903 501.5,-429.2903 501.5,-407.2903 224.5,-407.2903"/>
<image xlink:href="../../images/foreignKeys.png" width="11px" height="12px" preserveAspectRatio="xMinYMin meet" x="229.5" y="-424.29"/>
<text text-anchor="start" x="244.5" y="-414.3903" font-family="Helvetica,sans-Serif" font-size="11.00" fill="#000000">tribal_affiliations</text>
<polygon fill="none" stroke="#000000" points="224.5,-385.2903 224.5,-407.2903 501.5,-407.2903 501.5,-385.2903 224.5,-385.2903"/>
<image xlink:href="../../images/foreignKeys.png" width="11px" height="12px" preserveAspectRatio="xMinYMin meet" x="229.5" y="-402.29"/>
<text text-anchor="start" x="244.5" y="-392.3903" font-family="Helvetica,sans-Serif" font-size="11.00" fill="#000000">sex_identified</text>
<polygon fill="none" stroke="#000000" points="224.5,-366.2903 224.5,-385.2903 501.5,-385.2903 501.5,-366.2903 224.5,-366.2903"/>
<text text-anchor="start" x="227.5" y="-372.3903" font-family="Helvetica,sans-Serif" font-size="11.00" fill="#000000">...</text>
<polygon fill="#ffffff" stroke="transparent" points="224.5,-347.2903 224.5,-366.2903 353.5,-366.2903 353.5,-347.2903 224.5,-347.2903"/>
<polygon fill="none" stroke="#000000" points="224.5,-347.2903 224.5,-366.2903 353.5,-366.2903 353.5,-347.2903 224.5,-347.2903"/>
<text text-anchor="start" x="227.5" y="-353.3903" font-family="Helvetica,sans-Serif" font-size="11.00" fill="#000000">&lt; 9</text>
<polygon fill="#ffffff" stroke="transparent" points="353.5,-347.2903 353.5,-366.2903 419.5,-366.2903 419.5,-347.2903 353.5,-347.2903"/>
<polygon fill="none" stroke="#000000" points="353.5,-347.2903 353.5,-366.2903 419.5,-366.2903 419.5,-347.2903 353.5,-347.2903"/>
<text text-anchor="start" x="410.3862" y="-353.3903" font-family="Helvetica,sans-Serif" font-size="11.00" fill="#000000"> &#160;</text>
<polygon fill="#ffffff" stroke="transparent" points="419.5,-347.2903 419.5,-366.2903 501.5,-366.2903 501.5,-347.2903 419.5,-347.2903"/>
<polygon fill="none" stroke="#000000" points="419.5,-347.2903 419.5,-366.2903 501.5,-366.2903 501.5,-347.2903 419.5,-347.2903"/>
<text text-anchor="start" x="476.7904" y="-353.3903" font-family="Helvetica,sans-Serif" font-size="11.00" fill="#000000">95 &gt;</text>
</a>
</g>
</g>
<!-- immunization_observation&#45;&gt;patient_data -->
<g id="edge2" class="edge">
<title>immunization_observation:w&#45;&gt;patient_data:e</title>
<path fill="none" stroke="#000000" d="M787.9286,-429.588C773.1399,-441.9566 784.0831,-477.6857 759,-492.2903 659.9526,-549.9605 616.1135,-506.2903 501.5,-506.2903"/>
<polygon fill="#000000" stroke="#000000" points="794.3489,-427.6271 803.0516,-428.7333 798.1745,-426.4587 802,-425.2903 802,-425.2903 802,-425.2903 798.1745,-426.4587 800.9484,-421.8473 794.3489,-427.6271 794.3489,-427.6271"/>
<ellipse fill="none" stroke="#000000" cx="791.2885" cy="-428.5619" rx="3.2" ry="3.2"/>
</g>
<!-- users -->
<g id="node4" class="node">
<title>users</title>
<g id="a_node4"><a xlink:href="../../tables/users.html" xlink:title="users" target="_top">
<polygon fill="#ffffff" stroke="transparent" points="8,-200.7903 8,-415.7903 175,-415.7903 175,-200.7903 8,-200.7903"/>
<polygon fill="#f5f5f5" stroke="transparent" points="8.5,-392.2903 8.5,-415.2903 175.5,-415.2903 175.5,-392.2903 8.5,-392.2903"/>
<polygon fill="none" stroke="#000000" points="8.5,-392.2903 8.5,-415.2903 175.5,-415.2903 175.5,-392.2903 8.5,-392.2903"/>
<text text-anchor="start" x="13.5" y="-400.8903" font-family="Helvetica,sans-Serif" font-weight="bold" font-size="11.00" fill="#000000">users</text>
<text text-anchor="start" x="140.5437" y="-400.3903" font-family="Helvetica,sans-Serif" font-size="11.00" fill="#000000">[table]</text>
<polygon fill="none" stroke="#000000" points="8.5,-370.2903 8.5,-392.2903 175.5,-392.2903 175.5,-370.2903 8.5,-370.2903"/>
<image xlink:href="../../images/primaryKeys.png" width="11px" height="12px" preserveAspectRatio="xMinYMin meet" x="13.5" y="-387.29"/>
<text text-anchor="start" x="28.5" y="-377.3903" font-family="Helvetica,sans-Serif" font-size="11.00" fill="#000000">id</text>
<polygon fill="#ffffff" stroke="transparent" points="8.5,-348.2903 8.5,-370.2903 175.5,-370.2903 175.5,-348.2903 8.5,-348.2903"/>
<polygon fill="none" stroke="#000000" points="8.5,-348.2903 8.5,-370.2903 175.5,-370.2903 175.5,-348.2903 8.5,-348.2903"/>
<text text-anchor="start" x="28.5" y="-355.3903" font-family="Helvetica,sans-Serif" font-size="11.00" fill="#000000">uuid</text>
<polygon fill="none" stroke="#000000" points="8.5,-326.2903 8.5,-348.2903 175.5,-348.2903 175.5,-326.2903 8.5,-326.2903"/>
<image xlink:href="../../images/primaryKeys.png" width="11px" height="12px" preserveAspectRatio="xMinYMin meet" x="13.5" y="-343.29"/>
<text text-anchor="start" x="28.5" y="-333.3903" font-family="Helvetica,sans-Serif" font-size="11.00" fill="#000000">username</text>
<polygon fill="none" stroke="#000000" points="8.5,-304.2903 8.5,-326.2903 175.5,-326.2903 175.5,-304.2903 8.5,-304.2903"/>
<image xlink:href="../../images/foreignKeys.png" width="11px" height="12px" preserveAspectRatio="xMinYMin meet" x="13.5" y="-321.29"/>
<text text-anchor="start" x="28.5" y="-311.3903" font-family="Helvetica,sans-Serif" font-size="11.00" fill="#000000">facility_id</text>
<polygon fill="#ffffff" stroke="transparent" points="8.5,-282.2903 8.5,-304.2903 175.5,-304.2903 175.5,-282.2903 8.5,-282.2903"/>
<polygon fill="none" stroke="#000000" points="8.5,-282.2903 8.5,-304.2903 175.5,-304.2903 175.5,-282.2903 8.5,-282.2903"/>
<text text-anchor="start" x="28.5" y="-289.3903" font-family="Helvetica,sans-Serif" font-size="11.00" fill="#000000">google_signin_email</text>
<polygon fill="#ffffff" stroke="transparent" points="8.5,-260.2903 8.5,-282.2903 175.5,-282.2903 175.5,-260.2903 8.5,-260.2903"/>
<polygon fill="none" stroke="#000000" points="8.5,-260.2903 8.5,-282.2903 175.5,-282.2903 175.5,-260.2903 8.5,-260.2903"/>
<text text-anchor="start" x="28.5" y="-267.3903" font-family="Helvetica,sans-Serif" font-size="11.00" fill="#000000">abook_type</text>
<polygon fill="none" stroke="#000000" points="8.5,-238.2903 8.5,-260.2903 175.5,-260.2903 175.5,-238.2903 8.5,-238.2903"/>
<image xlink:href="../../images/foreignKeys.png" width="11px" height="12px" preserveAspectRatio="xMinYMin meet" x="13.5" y="-255.29"/>
<text text-anchor="start" x="28.5" y="-245.3903" font-family="Helvetica,sans-Serif" font-size="11.00" fill="#000000">billing_facility_id</text>
<polygon fill="none" stroke="#000000" points="8.5,-219.2903 8.5,-238.2903 175.5,-238.2903 175.5,-219.2903 8.5,-219.2903"/>
<text text-anchor="start" x="11.5" y="-225.3903" font-family="Helvetica,sans-Serif" font-size="11.00" fill="#000000">...</text>
<polygon fill="#ffffff" stroke="transparent" points="8.5,-200.2903 8.5,-219.2903 82.5,-219.2903 82.5,-200.2903 8.5,-200.2903"/>
<polygon fill="none" stroke="#000000" points="8.5,-200.2903 8.5,-219.2903 82.5,-219.2903 82.5,-200.2903 8.5,-200.2903"/>
<text text-anchor="start" x="11.5" y="-206.3903" font-family="Helvetica,sans-Serif" font-size="11.00" fill="#000000">&lt; 2</text>
<polygon fill="#ffffff" stroke="transparent" points="82.5,-200.2903 82.5,-219.2903 121.5,-219.2903 121.5,-200.2903 82.5,-200.2903"/>
<polygon fill="none" stroke="#000000" points="82.5,-200.2903 82.5,-219.2903 121.5,-219.2903 121.5,-200.2903 82.5,-200.2903"/>
<text text-anchor="start" x="112.3862" y="-206.3903" font-family="Helvetica,sans-Serif" font-size="11.00" fill="#000000"> &#160;</text>
<polygon fill="#ffffff" stroke="transparent" points="121.5,-200.2903 121.5,-219.2903 175.5,-219.2903 175.5,-200.2903 121.5,-200.2903"/>
<polygon fill="none" stroke="#000000" points="121.5,-200.2903 121.5,-219.2903 175.5,-219.2903 175.5,-200.2903 121.5,-200.2903"/>
<text text-anchor="start" x="150.7904" y="-206.3903" font-family="Helvetica,sans-Serif" font-size="11.00" fill="#000000">90 &gt;</text>
</a>
</g>
</g>
<!-- immunization_observation&#45;&gt;users -->
<g id="edge3" class="edge">
<title>immunization_observation:w&#45;&gt;users:e</title>
<path fill="none" stroke="#000000" d="M788.3837,-354.5924C745.7296,-319.5358 805.957,-99.0158 759,-58.2903 662.8946,25.0615 216.7403,-136.4936 216,-137.2903 178.584,-177.5531 230.4641,-381.2903 175.5,-381.2903"/>
<polygon fill="#000000" stroke="#000000" points="794.4375,-356.681 800.8258,-362.6934 798.2187,-357.9856 802,-359.2903 802,-359.2903 802,-359.2903 798.2187,-357.9856 803.1742,-355.8871 794.4375,-356.681 794.4375,-356.681"/>
<ellipse fill="none" stroke="#000000" cx="791.4125" cy="-355.6373" rx="3.2" ry="3.2"/>
</g>
<!-- immunizations&#45;&gt;patient_data -->
<g id="edge7" class="edge">
<title>immunizations:w&#45;&gt;patient_data:e</title>
<path fill="none" stroke="#000000" d="M536.593,-407.2022C510.6689,-426.0164 546.2533,-506.2903 501.5,-506.2903"/>
<polygon fill="#000000" stroke="#000000" points="542.7989,-405.4566 551.4748,-406.7558 546.6494,-404.3734 550.5,-403.2903 550.5,-403.2903 550.5,-403.2903 546.6494,-404.3734 549.5252,-399.8248 542.7989,-405.4566 542.7989,-405.4566"/>
<ellipse fill="none" stroke="#000000" cx="539.7184" cy="-406.3231" rx="3.2" ry="3.2"/>
</g>
<!-- immunizations&#45;&gt;users -->
<g id="edge4" class="edge">
<title>immunizations:w&#45;&gt;users:e</title>
<path fill="none" stroke="#000000" d="M536.012,-337.0993C398.4383,-333.456 347.6228,-279.5505 216,-337.2903 191.6604,-347.9675 202.0786,-381.2903 175.5,-381.2903"/>
<polygon fill="#000000" stroke="#000000" points="542.5007,-337.1848 550.4525,-340.8899 546.5003,-337.2375 550.5,-337.2903 550.5,-337.2903 550.5,-337.2903 546.5003,-337.2375 550.5475,-333.6906 542.5007,-337.1848 542.5007,-337.1848"/>
<ellipse fill="none" stroke="#000000" cx="539.301" cy="-337.1426" rx="3.2" ry="3.2"/>
</g>
<!-- immunizations&#45;&gt;users -->
<g id="edge5" class="edge">
<title>immunizations:w&#45;&gt;users:e</title>
<path fill="none" stroke="#000000" d="M536.0272,-313.7273C527.6362,-311.7637 521.7094,-308.5041 509,-307.2903 444.1838,-301.0999 272.0125,-274.0931 216,-307.2903 183.7468,-326.4059 212.9924,-381.2903 175.5,-381.2903"/>
<polygon fill="#000000" stroke="#000000" points="542.5462,-314.4313 550.1135,-318.8694 546.5231,-314.8608 550.5,-315.2903 550.5,-315.2903 550.5,-315.2903 546.5231,-314.8608 550.8865,-311.7111 542.5462,-314.4313 542.5462,-314.4313"/>
<ellipse fill="none" stroke="#000000" cx="539.3647" cy="-314.0877" rx="3.2" ry="3.2"/>
</g>
<!-- immunizations&#45;&gt;users -->
<g id="edge6" class="edge">
<title>immunizations:w&#45;&gt;users:e</title>
<path fill="none" stroke="#000000" d="M535.9574,-139.3138C388.3746,-139.8306 322.8911,-149.8109 216,-259.2903 176.0878,-300.1689 232.6319,-381.2903 175.5,-381.2903"/>
<polygon fill="#000000" stroke="#000000" points="542.5,-139.3032 550.5058,-142.8903 546.5,-139.2967 550.5,-139.2903 550.5,-139.2903 550.5,-139.2903 546.5,-139.2967 550.4942,-135.6903 542.5,-139.3032 542.5,-139.3032"/>
<ellipse fill="none" stroke="#000000" cx="539.3" cy="-139.3084" rx="3.2" ry="3.2"/>
</g>
<!-- immunizations&#45;&gt;users -->
<g id="edge8" class="edge">
<title>immunizations:w&#45;&gt;users:e</title>
<path fill="none" stroke="#000000" d="M536.0696,-292.1175C527.6563,-290.6442 521.6342,-288.1988 509,-287.2903 379.1132,-277.9494 324.7838,-215.7087 216,-287.2903 177.9986,-312.2958 220.9905,-381.2903 175.5,-381.2903"/>
<polygon fill="#000000" stroke="#000000" points="542.5263,-292.6422 550.2084,-296.8784 546.5131,-292.9662 550.5,-293.2903 550.5,-293.2903 550.5,-293.2903 546.5131,-292.9662 550.7916,-289.7021 542.5263,-292.6422 542.5263,-292.6422"/>
<ellipse fill="none" stroke="#000000" cx="539.3368" cy="-292.3829" rx="3.2" ry="3.2"/>
</g>
<!-- patient_data&#45;&gt;users -->
<g id="edge9" class="edge">
<title>patient_data:w&#45;&gt;users:e</title>
<path fill="none" stroke="#000000" d="M210.593,-480.3783C184.6689,-461.5641 220.2533,-381.2903 175.5,-381.2903"/>
<polygon fill="#000000" stroke="#000000" points="216.7989,-482.1239 223.5252,-487.7558 220.6494,-483.2071 224.5,-484.2903 224.5,-484.2903 224.5,-484.2903 220.6494,-483.2071 225.4748,-480.8248 216.7989,-482.1239 216.7989,-482.1239"/>
<ellipse fill="none" stroke="#000000" cx="213.7184" cy="-481.2574" rx="3.2" ry="3.2"/>
</g>
<!-- patient_data&#45;&gt;users -->
<g id="edge10" class="edge">
<title>patient_data:w&#45;&gt;users:e</title>
<path fill="none" stroke="#000000" d="M210.6299,-457.7033C190.9726,-440.5682 211.4935,-381.2903 175.5,-381.2903"/>
<polygon fill="#000000" stroke="#000000" points="216.9046,-459.7783 223.3696,-465.7082 220.7023,-461.0343 224.5,-462.2903 224.5,-462.2903 224.5,-462.2903 220.7023,-461.0343 225.6304,-458.8723 216.9046,-459.7783 216.9046,-459.7783"/>
<ellipse fill="none" stroke="#000000" cx="213.8664" cy="-458.7736" rx="3.2" ry="3.2"/>
</g>
<!-- patient_data&#45;&gt;users -->
<g id="edge11" class="edge">
<title>patient_data:w&#45;&gt;users:e</title>
<path fill="none" stroke="#000000" d="M210.1058,-570.0122C152.2512,-548.4626 257.4893,-381.2903 175.5,-381.2903"/>
<polygon fill="#000000" stroke="#000000" points="216.5983,-571.0397 223.9372,-575.846 220.5492,-571.665 224.5,-572.2903 224.5,-572.2903 224.5,-572.2903 220.5492,-571.665 225.0628,-568.7345 216.5983,-571.0397 216.5983,-571.0397"/>
<ellipse fill="none" stroke="#000000" cx="213.4377" cy="-570.5394" rx="3.2" ry="3.2"/>
</g>
<!-- patient_data&#45;&gt;users -->
<g id="edge12" class="edge">
<title>patient_data:w&#45;&gt;users:e</title>
<path fill="none" stroke="#000000" d="M210.3134,-547.7701C160.8501,-526.7471 248.053,-381.2903 175.5,-381.2903"/>
<polygon fill="#000000" stroke="#000000" points="216.6233,-548.891 223.8703,-553.8348 220.5617,-549.5906 224.5,-550.2903 224.5,-550.2903 224.5,-550.2903 220.5617,-549.5906 225.1297,-546.7458 216.6233,-548.891 216.6233,-548.891"/>
<ellipse fill="none" stroke="#000000" cx="213.4726" cy="-548.3313" rx="3.2" ry="3.2"/>
</g>
<!-- patient_data&#45;&gt;users -->
<g id="edge13" class="edge">
<title>patient_data:w&#45;&gt;users:e</title>
<path fill="none" stroke="#000000" d="M210.6662,-435.26C195.5842,-420.9921 203.4614,-381.2903 175.5,-381.2903"/>
<polygon fill="#000000" stroke="#000000" points="216.9816,-437.5564 223.2697,-443.6735 220.7408,-438.9233 224.5,-440.2903 224.5,-440.2903 224.5,-440.2903 220.7408,-438.9233 225.7303,-436.907 216.9816,-437.5564 216.9816,-437.5564"/>
<ellipse fill="none" stroke="#000000" cx="213.9743" cy="-436.4628" rx="3.2" ry="3.2"/>
</g>
</g>
</svg>
