<?xml version="1.0" encoding="UTF-8" standalone="no"?>
<!DOCTYPE svg PUBLIC "-//W3C//DTD SVG 1.1//EN"
 "http://www.w3.org/Graphics/SVG/1.1/DTD/svg11.dtd">
<!-- Generated by graphviz version 2.40.1 (20161225.0304)
 -->
<!-- Title: oneDegreeRelationshipsDiagram Pages: 1 -->
<svg width="908pt" height="865pt"
 viewBox="0.00 0.00 908.00 864.70" xmlns="http://www.w3.org/2000/svg" xmlns:xlink="http://www.w3.org/1999/xlink">
<g id="graph0" class="graph" transform="scale(1 1) rotate(0) translate(4 860.7)">
<title>oneDegreeRelationshipsDiagram</title>
<polygon fill="#ffffff" stroke="transparent" points="-4,4 -4,-860.7 904,-860.7 904,4 -4,4"/>
<text text-anchor="middle" x="72.4936" y="-7.3" font-family="Helvetica,sans-Serif" font-size="11.00" fill="#000000">Generated by SchemaSpy</text>
<!-- eligibility_verification -->
<g id="node1" class="node">
<title>eligibility_verification</title>
<g id="a_node1"><a xlink:href="../../tables/eligibility_verification.html" xlink:title="eligibility_verification" target="_top">
<polygon fill="#ffffff" stroke="transparent" points="707,-747.7 707,-852.7 892,-852.7 892,-747.7 707,-747.7"/>
<polygon fill="#f5f5f5" stroke="transparent" points="707.5,-829.2 707.5,-852.2 892.5,-852.2 892.5,-829.2 707.5,-829.2"/>
<polygon fill="none" stroke="#000000" points="707.5,-829.2 707.5,-852.2 892.5,-852.2 892.5,-829.2 707.5,-829.2"/>
<text text-anchor="start" x="712.5" y="-837.8" font-family="Helvetica,sans-Serif" font-weight="bold" font-size="11.00" fill="#000000">eligibility_verification</text>
<text text-anchor="start" x="858.0219" y="-837.3" font-family="Helvetica,sans-Serif" font-size="11.00" fill="#000000">[table]</text>
<polygon fill="none" stroke="#000000" points="707.5,-807.2 707.5,-829.2 892.5,-829.2 892.5,-807.2 707.5,-807.2"/>
<image xlink:href="../../images/primaryKeys.png" width="11px" height="12px" preserveAspectRatio="xMinYMin meet" x="712.5" y="-824.2"/>
<text text-anchor="start" x="736.5" y="-814.3" font-family="Helvetica,sans-Serif" font-size="11.00" fill="#000000">verification_id</text>
<polygon fill="#ffffff" stroke="transparent" points="707.5,-785.2 707.5,-807.2 892.5,-807.2 892.5,-785.2 707.5,-785.2"/>
<polygon fill="none" stroke="#000000" points="707.5,-785.2 707.5,-807.2 892.5,-807.2 892.5,-785.2 707.5,-785.2"/>
<image xlink:href="../../images/foreignKeys.png" width="11px" height="12px" preserveAspectRatio="xMinYMin meet" x="712.5" y="-802.2"/>
<text text-anchor="start" x="736.5" y="-792.3" font-family="Helvetica,sans-Serif" font-size="11.00" fill="#000000">insurance_id</text>
<polygon fill="none" stroke="#000000" points="707.5,-766.2 707.5,-785.2 892.5,-785.2 892.5,-766.2 707.5,-766.2"/>
<text text-anchor="start" x="710.5" y="-772.3" font-family="Helvetica,sans-Serif" font-size="11.00" fill="#000000">...</text>
<polygon fill="#ffffff" stroke="transparent" points="707.5,-747.2 707.5,-766.2 793.5,-766.2 793.5,-747.2 707.5,-747.2"/>
<polygon fill="none" stroke="#000000" points="707.5,-747.2 707.5,-766.2 793.5,-766.2 793.5,-747.2 707.5,-747.2"/>
<text text-anchor="start" x="710.5" y="-753.3" font-family="Helvetica,sans-Serif" font-size="11.00" fill="#000000">&lt; 1</text>
<polygon fill="#ffffff" stroke="transparent" points="793.5,-747.2 793.5,-766.2 838.5,-766.2 838.5,-747.2 793.5,-747.2"/>
<polygon fill="none" stroke="#000000" points="793.5,-747.2 793.5,-766.2 838.5,-766.2 838.5,-747.2 793.5,-747.2"/>
<text text-anchor="start" x="829.3862" y="-753.3" font-family="Helvetica,sans-Serif" font-size="11.00" fill="#000000"> &#160;</text>
<polygon fill="#ffffff" stroke="transparent" points="838.5,-747.2 838.5,-766.2 892.5,-766.2 892.5,-747.2 838.5,-747.2"/>
<polygon fill="none" stroke="#000000" points="838.5,-747.2 838.5,-766.2 892.5,-766.2 892.5,-747.2 838.5,-747.2"/>
<text text-anchor="start" x="873.9053" y="-753.3" font-family="Helvetica,sans-Serif" font-size="11.00" fill="#000000">1 &gt;</text>
</a>
</g>
</g>
<!-- insurance_data -->
<g id="node2" class="node">
<title>insurance_data</title>
<g id="a_node2"><a xlink:href="../../tables/insurance_data.html" xlink:title="insurance_data" target="_top">
<polygon fill="#ffffff" stroke="transparent" points="334,-38.2 334,-832.2 658,-832.2 658,-38.2 334,-38.2"/>
<polygon fill="#f5f5f5" stroke="transparent" points="336,-807.2 336,-830.2 656,-830.2 656,-807.2 336,-807.2"/>
<polygon fill="none" stroke="#000000" points="336,-807.2 336,-830.2 656,-830.2 656,-807.2 336,-807.2"/>
<text text-anchor="start" x="341" y="-815.8" font-family="Helvetica,sans-Serif" font-weight="bold" font-size="11.00" fill="#000000">insurance_data</text>
<text text-anchor="start" x="621.0437" y="-815.3" font-family="Helvetica,sans-Serif" font-size="11.00" fill="#000000">[table]</text>
<polygon fill="none" stroke="#000000" points="336,-785.2 336,-807.2 589,-807.2 589,-785.2 336,-785.2"/>
<image xlink:href="../../images/primaryKeys.png" width="11px" height="12px" preserveAspectRatio="xMinYMin meet" x="341" y="-802.2"/>
<text text-anchor="start" x="356" y="-792.3" font-family="Helvetica,sans-Serif" font-size="11.00" fill="#000000">id</text>
<polygon fill="none" stroke="#000000" points="589,-785.2 589,-807.2 656,-807.2 656,-785.2 589,-785.2"/>
<text text-anchor="start" x="592" y="-792.9" font-family="Helvetica,sans-Serif" font-size="11.00" fill="#000000">bigint[19]</text>
<polygon fill="#ffffff" stroke="transparent" points="336,-763.2 336,-785.2 589,-785.2 589,-763.2 336,-763.2"/>
<polygon fill="none" stroke="#000000" points="336,-763.2 336,-785.2 589,-785.2 589,-763.2 336,-763.2"/>
<text text-anchor="start" x="356" y="-770.3" font-family="Helvetica,sans-Serif" font-size="11.00" fill="#000000">uuid</text>
<polygon fill="none" stroke="#000000" points="589,-763.2 589,-785.2 656,-785.2 656,-763.2 589,-763.2"/>
<text text-anchor="start" x="592" y="-770.9" font-family="Helvetica,sans-Serif" font-size="11.00" fill="#000000">binary[16]</text>
<polygon fill="#ffffff" stroke="transparent" points="336,-741.2 336,-763.2 589,-763.2 589,-741.2 336,-741.2"/>
<polygon fill="none" stroke="#000000" points="336,-741.2 336,-763.2 589,-763.2 589,-741.2 336,-741.2"/>
<text text-anchor="start" x="356" y="-748.3" font-family="Helvetica,sans-Serif" font-size="11.00" fill="#000000">type</text>
<polygon fill="none" stroke="#000000" points="589,-741.2 589,-763.2 656,-763.2 656,-741.2 589,-741.2"/>
<text text-anchor="start" x="592" y="-748.9" font-family="Helvetica,sans-Serif" font-size="11.00" fill="#000000">enum[9]</text>
<polygon fill="none" stroke="#000000" points="336,-719.2 336,-741.2 589,-741.2 589,-719.2 336,-719.2"/>
<image xlink:href="../../images/foreignKeys.png" width="11px" height="12px" preserveAspectRatio="xMinYMin meet" x="341" y="-736.2"/>
<text text-anchor="start" x="356" y="-726.3" font-family="Helvetica,sans-Serif" font-size="11.00" fill="#000000">provider</text>
<polygon fill="none" stroke="#000000" points="589,-719.2 589,-741.2 656,-741.2 656,-719.2 589,-719.2"/>
<text text-anchor="start" x="591.9365" y="-726.9" font-family="Helvetica,sans-Serif" font-size="11.00" fill="#000000">varchar[255]</text>
<polygon fill="none" stroke="#000000" points="336,-697.2 336,-719.2 589,-719.2 589,-697.2 336,-697.2"/>
<text text-anchor="start" x="356" y="-704.3" font-family="Helvetica,sans-Serif" font-size="11.00" fill="#000000">plan_name</text>
<polygon fill="none" stroke="#000000" points="589,-697.2 589,-719.2 656,-719.2 656,-697.2 589,-697.2"/>
<text text-anchor="start" x="591.9365" y="-704.9" font-family="Helvetica,sans-Serif" font-size="11.00" fill="#000000">varchar[255]</text>
<polygon fill="none" stroke="#000000" points="336,-675.2 336,-697.2 589,-697.2 589,-675.2 336,-675.2"/>
<text text-anchor="start" x="356" y="-682.3" font-family="Helvetica,sans-Serif" font-size="11.00" fill="#000000">policy_number</text>
<polygon fill="none" stroke="#000000" points="589,-675.2 589,-697.2 656,-697.2 656,-675.2 589,-675.2"/>
<text text-anchor="start" x="591.9365" y="-682.9" font-family="Helvetica,sans-Serif" font-size="11.00" fill="#000000">varchar[255]</text>
<polygon fill="none" stroke="#000000" points="336,-653.2 336,-675.2 589,-675.2 589,-653.2 336,-653.2"/>
<text text-anchor="start" x="356" y="-660.3" font-family="Helvetica,sans-Serif" font-size="11.00" fill="#000000">group_number</text>
<polygon fill="none" stroke="#000000" points="589,-653.2 589,-675.2 656,-675.2 656,-653.2 589,-653.2"/>
<text text-anchor="start" x="591.9365" y="-660.9" font-family="Helvetica,sans-Serif" font-size="11.00" fill="#000000">varchar[255]</text>
<polygon fill="none" stroke="#000000" points="336,-631.2 336,-653.2 589,-653.2 589,-631.2 336,-631.2"/>
<text text-anchor="start" x="356" y="-638.3" font-family="Helvetica,sans-Serif" font-size="11.00" fill="#000000">subscriber_lname</text>
<polygon fill="none" stroke="#000000" points="589,-631.2 589,-653.2 656,-653.2 656,-631.2 589,-631.2"/>
<text text-anchor="start" x="591.9365" y="-638.9" font-family="Helvetica,sans-Serif" font-size="11.00" fill="#000000">varchar[255]</text>
<polygon fill="none" stroke="#000000" points="336,-609.2 336,-631.2 589,-631.2 589,-609.2 336,-609.2"/>
<text text-anchor="start" x="356" y="-616.3" font-family="Helvetica,sans-Serif" font-size="11.00" fill="#000000">subscriber_mname</text>
<polygon fill="none" stroke="#000000" points="589,-609.2 589,-631.2 656,-631.2 656,-609.2 589,-609.2"/>
<text text-anchor="start" x="591.9365" y="-616.9" font-family="Helvetica,sans-Serif" font-size="11.00" fill="#000000">varchar[255]</text>
<polygon fill="none" stroke="#000000" points="336,-587.2 336,-609.2 589,-609.2 589,-587.2 336,-587.2"/>
<text text-anchor="start" x="356" y="-594.3" font-family="Helvetica,sans-Serif" font-size="11.00" fill="#000000">subscriber_fname</text>
<polygon fill="none" stroke="#000000" points="589,-587.2 589,-609.2 656,-609.2 656,-587.2 589,-587.2"/>
<text text-anchor="start" x="591.9365" y="-594.9" font-family="Helvetica,sans-Serif" font-size="11.00" fill="#000000">varchar[255]</text>
<polygon fill="none" stroke="#000000" points="336,-565.2 336,-587.2 589,-587.2 589,-565.2 336,-565.2"/>
<text text-anchor="start" x="356" y="-572.3" font-family="Helvetica,sans-Serif" font-size="11.00" fill="#000000">subscriber_relationship</text>
<polygon fill="none" stroke="#000000" points="589,-565.2 589,-587.2 656,-587.2 656,-565.2 589,-565.2"/>
<text text-anchor="start" x="591.9365" y="-572.9" font-family="Helvetica,sans-Serif" font-size="11.00" fill="#000000">varchar[255]</text>
<polygon fill="none" stroke="#000000" points="336,-543.2 336,-565.2 589,-565.2 589,-543.2 336,-543.2"/>
<text text-anchor="start" x="356" y="-550.3" font-family="Helvetica,sans-Serif" font-size="11.00" fill="#000000">subscriber_ss</text>
<polygon fill="none" stroke="#000000" points="589,-543.2 589,-565.2 656,-565.2 656,-543.2 589,-543.2"/>
<text text-anchor="start" x="591.9365" y="-550.9" font-family="Helvetica,sans-Serif" font-size="11.00" fill="#000000">varchar[255]</text>
<polygon fill="none" stroke="#000000" points="336,-521.2 336,-543.2 589,-543.2 589,-521.2 336,-521.2"/>
<text text-anchor="start" x="356" y="-528.3" font-family="Helvetica,sans-Serif" font-size="11.00" fill="#000000">subscriber_DOB</text>
<polygon fill="none" stroke="#000000" points="589,-521.2 589,-543.2 656,-543.2 656,-521.2 589,-521.2"/>
<text text-anchor="start" x="592" y="-528.9" font-family="Helvetica,sans-Serif" font-size="11.00" fill="#000000">date[10]</text>
<polygon fill="none" stroke="#000000" points="336,-499.2 336,-521.2 589,-521.2 589,-499.2 336,-499.2"/>
<text text-anchor="start" x="356" y="-506.3" font-family="Helvetica,sans-Serif" font-size="11.00" fill="#000000">subscriber_street</text>
<polygon fill="none" stroke="#000000" points="589,-499.2 589,-521.2 656,-521.2 656,-499.2 589,-499.2"/>
<text text-anchor="start" x="591.9365" y="-506.9" font-family="Helvetica,sans-Serif" font-size="11.00" fill="#000000">varchar[255]</text>
<polygon fill="none" stroke="#000000" points="336,-477.2 336,-499.2 589,-499.2 589,-477.2 336,-477.2"/>
<text text-anchor="start" x="356" y="-484.3" font-family="Helvetica,sans-Serif" font-size="11.00" fill="#000000">subscriber_postal_code</text>
<polygon fill="none" stroke="#000000" points="589,-477.2 589,-499.2 656,-499.2 656,-477.2 589,-477.2"/>
<text text-anchor="start" x="591.9365" y="-484.9" font-family="Helvetica,sans-Serif" font-size="11.00" fill="#000000">varchar[255]</text>
<polygon fill="none" stroke="#000000" points="336,-455.2 336,-477.2 589,-477.2 589,-455.2 336,-455.2"/>
<text text-anchor="start" x="356" y="-462.3" font-family="Helvetica,sans-Serif" font-size="11.00" fill="#000000">subscriber_city</text>
<polygon fill="none" stroke="#000000" points="589,-455.2 589,-477.2 656,-477.2 656,-455.2 589,-455.2"/>
<text text-anchor="start" x="591.9365" y="-462.9" font-family="Helvetica,sans-Serif" font-size="11.00" fill="#000000">varchar[255]</text>
<polygon fill="none" stroke="#000000" points="336,-433.2 336,-455.2 589,-455.2 589,-433.2 336,-433.2"/>
<text text-anchor="start" x="356" y="-440.3" font-family="Helvetica,sans-Serif" font-size="11.00" fill="#000000">subscriber_state</text>
<polygon fill="none" stroke="#000000" points="589,-433.2 589,-455.2 656,-455.2 656,-433.2 589,-433.2"/>
<text text-anchor="start" x="591.9365" y="-440.9" font-family="Helvetica,sans-Serif" font-size="11.00" fill="#000000">varchar[255]</text>
<polygon fill="none" stroke="#000000" points="336,-411.2 336,-433.2 589,-433.2 589,-411.2 336,-411.2"/>
<text text-anchor="start" x="356" y="-418.3" font-family="Helvetica,sans-Serif" font-size="11.00" fill="#000000">subscriber_country</text>
<polygon fill="none" stroke="#000000" points="589,-411.2 589,-433.2 656,-433.2 656,-411.2 589,-411.2"/>
<text text-anchor="start" x="591.9365" y="-418.9" font-family="Helvetica,sans-Serif" font-size="11.00" fill="#000000">varchar[255]</text>
<polygon fill="none" stroke="#000000" points="336,-389.2 336,-411.2 589,-411.2 589,-389.2 336,-389.2"/>
<text text-anchor="start" x="356" y="-396.3" font-family="Helvetica,sans-Serif" font-size="11.00" fill="#000000">subscriber_phone</text>
<polygon fill="none" stroke="#000000" points="589,-389.2 589,-411.2 656,-411.2 656,-389.2 589,-389.2"/>
<text text-anchor="start" x="591.9365" y="-396.9" font-family="Helvetica,sans-Serif" font-size="11.00" fill="#000000">varchar[255]</text>
<polygon fill="none" stroke="#000000" points="336,-367.2 336,-389.2 589,-389.2 589,-367.2 336,-367.2"/>
<text text-anchor="start" x="356" y="-374.3" font-family="Helvetica,sans-Serif" font-size="11.00" fill="#000000">subscriber_employer</text>
<polygon fill="none" stroke="#000000" points="589,-367.2 589,-389.2 656,-389.2 656,-367.2 589,-367.2"/>
<text text-anchor="start" x="591.9365" y="-374.9" font-family="Helvetica,sans-Serif" font-size="11.00" fill="#000000">varchar[255]</text>
<polygon fill="none" stroke="#000000" points="336,-345.2 336,-367.2 589,-367.2 589,-345.2 336,-345.2"/>
<text text-anchor="start" x="356" y="-352.3" font-family="Helvetica,sans-Serif" font-size="11.00" fill="#000000">subscriber_employer_street</text>
<polygon fill="none" stroke="#000000" points="589,-345.2 589,-367.2 656,-367.2 656,-345.2 589,-345.2"/>
<text text-anchor="start" x="591.9365" y="-352.9" font-family="Helvetica,sans-Serif" font-size="11.00" fill="#000000">varchar[255]</text>
<polygon fill="none" stroke="#000000" points="336,-323.2 336,-345.2 589,-345.2 589,-323.2 336,-323.2"/>
<text text-anchor="start" x="356" y="-330.3" font-family="Helvetica,sans-Serif" font-size="11.00" fill="#000000">subscriber_employer_postal_code</text>
<polygon fill="none" stroke="#000000" points="589,-323.2 589,-345.2 656,-345.2 656,-323.2 589,-323.2"/>
<text text-anchor="start" x="591.9365" y="-330.9" font-family="Helvetica,sans-Serif" font-size="11.00" fill="#000000">varchar[255]</text>
<polygon fill="none" stroke="#000000" points="336,-301.2 336,-323.2 589,-323.2 589,-301.2 336,-301.2"/>
<text text-anchor="start" x="356" y="-308.3" font-family="Helvetica,sans-Serif" font-size="11.00" fill="#000000">subscriber_employer_state</text>
<polygon fill="none" stroke="#000000" points="589,-301.2 589,-323.2 656,-323.2 656,-301.2 589,-301.2"/>
<text text-anchor="start" x="591.9365" y="-308.9" font-family="Helvetica,sans-Serif" font-size="11.00" fill="#000000">varchar[255]</text>
<polygon fill="none" stroke="#000000" points="336,-279.2 336,-301.2 589,-301.2 589,-279.2 336,-279.2"/>
<text text-anchor="start" x="356" y="-286.3" font-family="Helvetica,sans-Serif" font-size="11.00" fill="#000000">subscriber_employer_country</text>
<polygon fill="none" stroke="#000000" points="589,-279.2 589,-301.2 656,-301.2 656,-279.2 589,-279.2"/>
<text text-anchor="start" x="591.9365" y="-286.9" font-family="Helvetica,sans-Serif" font-size="11.00" fill="#000000">varchar[255]</text>
<polygon fill="none" stroke="#000000" points="336,-257.2 336,-279.2 589,-279.2 589,-257.2 336,-257.2"/>
<text text-anchor="start" x="356" y="-264.3" font-family="Helvetica,sans-Serif" font-size="11.00" fill="#000000">subscriber_employer_city</text>
<polygon fill="none" stroke="#000000" points="589,-257.2 589,-279.2 656,-279.2 656,-257.2 589,-257.2"/>
<text text-anchor="start" x="591.9365" y="-264.9" font-family="Helvetica,sans-Serif" font-size="11.00" fill="#000000">varchar[255]</text>
<polygon fill="none" stroke="#000000" points="336,-235.2 336,-257.2 589,-257.2 589,-235.2 336,-235.2"/>
<text text-anchor="start" x="356" y="-242.3" font-family="Helvetica,sans-Serif" font-size="11.00" fill="#000000">copay</text>
<polygon fill="none" stroke="#000000" points="589,-235.2 589,-257.2 656,-257.2 656,-235.2 589,-235.2"/>
<text text-anchor="start" x="591.9365" y="-242.9" font-family="Helvetica,sans-Serif" font-size="11.00" fill="#000000">varchar[255]</text>
<polygon fill="#ffffff" stroke="transparent" points="336,-213.2 336,-235.2 589,-235.2 589,-213.2 336,-213.2"/>
<polygon fill="none" stroke="#000000" points="336,-213.2 336,-235.2 589,-235.2 589,-213.2 336,-213.2"/>
<text text-anchor="start" x="356" y="-220.3" font-family="Helvetica,sans-Serif" font-size="11.00" fill="#000000">date</text>
<polygon fill="none" stroke="#000000" points="589,-213.2 589,-235.2 656,-235.2 656,-213.2 589,-213.2"/>
<text text-anchor="start" x="592" y="-220.9" font-family="Helvetica,sans-Serif" font-size="11.00" fill="#000000">date[10]</text>
<polygon fill="#ffffff" stroke="transparent" points="336,-191.2 336,-213.2 589,-213.2 589,-191.2 336,-191.2"/>
<polygon fill="none" stroke="#000000" points="336,-191.2 336,-213.2 589,-213.2 589,-191.2 336,-191.2"/>
<image xlink:href="../../images/foreignKeys.png" width="11px" height="12px" preserveAspectRatio="xMinYMin meet" x="341" y="-208.2"/>
<text text-anchor="start" x="356" y="-198.3" font-family="Helvetica,sans-Serif" font-size="11.00" fill="#000000">pid</text>
<polygon fill="none" stroke="#000000" points="589,-191.2 589,-213.2 656,-213.2 656,-191.2 589,-191.2"/>
<text text-anchor="start" x="592" y="-198.9" font-family="Helvetica,sans-Serif" font-size="11.00" fill="#000000">bigint[19]</text>
<polygon fill="none" stroke="#000000" points="336,-169.2 336,-191.2 589,-191.2 589,-169.2 336,-169.2"/>
<text text-anchor="start" x="356" y="-176.3" font-family="Helvetica,sans-Serif" font-size="11.00" fill="#000000">subscriber_sex</text>
<polygon fill="none" stroke="#000000" points="589,-169.2 589,-191.2 656,-191.2 656,-169.2 589,-169.2"/>
<text text-anchor="start" x="592" y="-176.9" font-family="Helvetica,sans-Serif" font-size="11.00" fill="#000000">varchar[25]</text>
<polygon fill="none" stroke="#000000" points="336,-147.2 336,-169.2 589,-169.2 589,-147.2 336,-147.2"/>
<text text-anchor="start" x="356" y="-154.3" font-family="Helvetica,sans-Serif" font-size="11.00" fill="#000000">accept_assignment</text>
<polygon fill="none" stroke="#000000" points="589,-147.2 589,-169.2 656,-169.2 656,-147.2 589,-147.2"/>
<text text-anchor="start" x="592" y="-154.9" font-family="Helvetica,sans-Serif" font-size="11.00" fill="#000000">varchar[5]</text>
<polygon fill="none" stroke="#000000" points="336,-125.2 336,-147.2 589,-147.2 589,-125.2 336,-125.2"/>
<text text-anchor="start" x="356" y="-132.3" font-family="Helvetica,sans-Serif" font-size="11.00" fill="#000000">policy_type</text>
<polygon fill="none" stroke="#000000" points="589,-125.2 589,-147.2 656,-147.2 656,-125.2 589,-125.2"/>
<text text-anchor="start" x="592" y="-132.9" font-family="Helvetica,sans-Serif" font-size="11.00" fill="#000000">varchar[25]</text>
<polygon fill="none" stroke="#000000" points="336,-103.2 336,-125.2 589,-125.2 589,-103.2 336,-103.2"/>
<text text-anchor="start" x="356" y="-110.3" font-family="Helvetica,sans-Serif" font-size="11.00" fill="#000000">subscriber_street_line_2</text>
<polygon fill="none" stroke="#000000" points="589,-103.2 589,-125.2 656,-125.2 656,-103.2 589,-103.2"/>
<text text-anchor="start" x="592" y="-110.9" font-family="Helvetica,sans-Serif" font-size="11.00" fill="#000000">tinytext[255]</text>
<polygon fill="none" stroke="#000000" points="336,-81.2 336,-103.2 589,-103.2 589,-81.2 336,-81.2"/>
<text text-anchor="start" x="356" y="-88.3" font-family="Helvetica,sans-Serif" font-size="11.00" fill="#000000">subscriber_employer_street_line_2</text>
<polygon fill="none" stroke="#000000" points="589,-81.2 589,-103.2 656,-103.2 656,-81.2 589,-81.2"/>
<text text-anchor="start" x="592" y="-88.9" font-family="Helvetica,sans-Serif" font-size="11.00" fill="#000000">tinytext[255]</text>
<polygon fill="none" stroke="#000000" points="336,-59.2 336,-81.2 589,-81.2 589,-59.2 336,-59.2"/>
<text text-anchor="start" x="356" y="-66.3" font-family="Helvetica,sans-Serif" font-size="11.00" fill="#000000">date_end</text>
<polygon fill="none" stroke="#000000" points="589,-59.2 589,-81.2 656,-81.2 656,-59.2 589,-59.2"/>
<text text-anchor="start" x="592" y="-66.9" font-family="Helvetica,sans-Serif" font-size="11.00" fill="#000000">date[10]</text>
<polygon fill="#ffffff" stroke="transparent" points="336,-40.2 336,-59.2 467,-59.2 467,-40.2 336,-40.2"/>
<polygon fill="none" stroke="#000000" points="336,-40.2 336,-59.2 467,-59.2 467,-40.2 336,-40.2"/>
<text text-anchor="start" x="339" y="-46.3" font-family="Helvetica,sans-Serif" font-size="11.00" fill="#000000">&lt; 2</text>
<polygon fill="#ffffff" stroke="transparent" points="467,-40.2 467,-59.2 589,-59.2 589,-40.2 467,-40.2"/>
<polygon fill="none" stroke="#000000" points="467,-40.2 467,-59.2 589,-59.2 589,-40.2 467,-40.2"/>
<text text-anchor="start" x="579.8862" y="-46.3" font-family="Helvetica,sans-Serif" font-size="11.00" fill="#000000"> &#160;</text>
<polygon fill="#ffffff" stroke="transparent" points="589,-40.2 589,-59.2 656,-59.2 656,-40.2 589,-40.2"/>
<polygon fill="none" stroke="#000000" points="589,-40.2 589,-59.2 656,-59.2 656,-40.2 589,-40.2"/>
<text text-anchor="start" x="637.4053" y="-46.3" font-family="Helvetica,sans-Serif" font-size="11.00" fill="#000000">1 &gt;</text>
<polygon fill="none" stroke="#000000" stroke-width="2" points="335,-39.2 335,-831.2 657,-831.2 657,-39.2 335,-39.2"/>
</a>
</g>
</g>
<!-- eligibility_verification&#45;&gt;insurance_data -->
<g id="edge1" class="edge">
<title>eligibility_verification:w&#45;&gt;insurance_data:e</title>
<path fill="none" stroke="#000000" d="M693.0156,-796.2C680.6771,-796.2 673.1667,-796.2 656,-796.2"/>
<polygon fill="#000000" stroke="#000000" points="699.5,-796.2001 707.5,-799.8 703.5,-796.2 707.5,-796.2 707.5,-796.2 707.5,-796.2 703.5,-796.2 707.5,-792.6 699.5,-796.2001 699.5,-796.2001"/>
<ellipse fill="none" stroke="#000000" cx="696.3" cy="-796.2001" rx="3.2" ry="3.2"/>
</g>
<!-- patient_data -->
<g id="node3" class="node">
<title>patient_data</title>
<g id="a_node3"><a xlink:href="../../tables/patient_data.html" xlink:title="patient_data" target="_top">
<polygon fill="#ffffff" stroke="transparent" points="8,-43.7 8,-434.7 285,-434.7 285,-43.7 8,-43.7"/>
<polygon fill="#f5f5f5" stroke="transparent" points="8.5,-411.2 8.5,-434.2 285.5,-434.2 285.5,-411.2 8.5,-411.2"/>
<polygon fill="none" stroke="#000000" points="8.5,-411.2 8.5,-434.2 285.5,-434.2 285.5,-411.2 8.5,-411.2"/>
<text text-anchor="start" x="13.5" y="-419.8" font-family="Helvetica,sans-Serif" font-weight="bold" font-size="11.00" fill="#000000">patient_data</text>
<text text-anchor="start" x="250.5437" y="-419.3" font-family="Helvetica,sans-Serif" font-size="11.00" fill="#000000">[table]</text>
<polygon fill="none" stroke="#000000" points="8.5,-389.2 8.5,-411.2 285.5,-411.2 285.5,-389.2 8.5,-389.2"/>
<image xlink:href="../../images/primaryKeys.png" width="11px" height="12px" preserveAspectRatio="xMinYMin meet" x="13.5" y="-406.2"/>
<text text-anchor="start" x="28.5" y="-396.3" font-family="Helvetica,sans-Serif" font-size="11.00" fill="#000000">id</text>
<polygon fill="#ffffff" stroke="transparent" points="8.5,-367.2 8.5,-389.2 285.5,-389.2 285.5,-367.2 8.5,-367.2"/>
<polygon fill="none" stroke="#000000" points="8.5,-367.2 8.5,-389.2 285.5,-389.2 285.5,-367.2 8.5,-367.2"/>
<text text-anchor="start" x="28.5" y="-374.3" font-family="Helvetica,sans-Serif" font-size="11.00" fill="#000000">uuid</text>
<polygon fill="#ffffff" stroke="transparent" points="8.5,-345.2 8.5,-367.2 285.5,-367.2 285.5,-345.2 8.5,-345.2"/>
<polygon fill="none" stroke="#000000" points="8.5,-345.2 8.5,-367.2 285.5,-367.2 285.5,-345.2 8.5,-345.2"/>
<text text-anchor="start" x="28.5" y="-352.3" font-family="Helvetica,sans-Serif" font-size="11.00" fill="#000000">fname</text>
<polygon fill="#ffffff" stroke="transparent" points="8.5,-323.2 8.5,-345.2 285.5,-345.2 285.5,-323.2 8.5,-323.2"/>
<polygon fill="none" stroke="#000000" points="8.5,-323.2 8.5,-345.2 285.5,-345.2 285.5,-323.2 8.5,-323.2"/>
<text text-anchor="start" x="28.5" y="-330.3" font-family="Helvetica,sans-Serif" font-size="11.00" fill="#000000">lname</text>
<polygon fill="#ffffff" stroke="transparent" points="8.5,-301.2 8.5,-323.2 285.5,-323.2 285.5,-301.2 8.5,-301.2"/>
<polygon fill="none" stroke="#000000" points="8.5,-301.2 8.5,-323.2 285.5,-323.2 285.5,-301.2 8.5,-301.2"/>
<text text-anchor="start" x="28.5" y="-308.3" font-family="Helvetica,sans-Serif" font-size="11.00" fill="#000000">DOB</text>
<polygon fill="none" stroke="#000000" points="8.5,-279.2 8.5,-301.2 285.5,-301.2 285.5,-279.2 8.5,-279.2"/>
<image xlink:href="../../images/foreignKeys.png" width="11px" height="12px" preserveAspectRatio="xMinYMin meet" x="13.5" y="-296.2"/>
<text text-anchor="start" x="28.5" y="-286.3" font-family="Helvetica,sans-Serif" font-size="11.00" fill="#000000">pharmacy_id</text>
<polygon fill="none" stroke="#000000" points="8.5,-257.2 8.5,-279.2 285.5,-279.2 285.5,-257.2 8.5,-257.2"/>
<image xlink:href="../../images/foreignKeys.png" width="11px" height="12px" preserveAspectRatio="xMinYMin meet" x="13.5" y="-274.2"/>
<text text-anchor="start" x="28.5" y="-264.3" font-family="Helvetica,sans-Serif" font-size="11.00" fill="#000000">providerID</text>
<polygon fill="none" stroke="#000000" points="8.5,-235.2 8.5,-257.2 285.5,-257.2 285.5,-235.2 8.5,-235.2"/>
<image xlink:href="../../images/foreignKeys.png" width="11px" height="12px" preserveAspectRatio="xMinYMin meet" x="13.5" y="-252.2"/>
<text text-anchor="start" x="28.5" y="-242.3" font-family="Helvetica,sans-Serif" font-size="11.00" fill="#000000">ref_providerID</text>
<polygon fill="none" stroke="#000000" points="8.5,-213.2 8.5,-235.2 285.5,-235.2 285.5,-213.2 8.5,-213.2"/>
<image xlink:href="../../images/foreignKeys.png" width="11px" height="12px" preserveAspectRatio="xMinYMin meet" x="13.5" y="-230.2"/>
<text text-anchor="start" x="28.5" y="-220.3" font-family="Helvetica,sans-Serif" font-size="11.00" fill="#000000">interpreter_needed</text>
<polygon fill="none" stroke="#000000" points="8.5,-191.2 8.5,-213.2 285.5,-213.2 285.5,-191.2 8.5,-191.2"/>
<image xlink:href="../../images/primaryKeys.png" width="11px" height="12px" preserveAspectRatio="xMinYMin meet" x="13.5" y="-208.2"/>
<text text-anchor="start" x="28.5" y="-198.3" font-family="Helvetica,sans-Serif" font-size="11.00" fill="#000000">pid</text>
<polygon fill="none" stroke="#000000" points="8.5,-169.2 8.5,-191.2 285.5,-191.2 285.5,-169.2 8.5,-169.2"/>
<image xlink:href="../../images/foreignKeys.png" width="11px" height="12px" preserveAspectRatio="xMinYMin meet" x="13.5" y="-186.2"/>
<text text-anchor="start" x="28.5" y="-176.3" font-family="Helvetica,sans-Serif" font-size="11.00" fill="#000000">advance_directive_user_authenticator</text>
<polygon fill="none" stroke="#000000" points="8.5,-147.2 8.5,-169.2 285.5,-169.2 285.5,-147.2 8.5,-147.2"/>
<image xlink:href="../../images/foreignKeys.png" width="11px" height="12px" preserveAspectRatio="xMinYMin meet" x="13.5" y="-164.2"/>
<text text-anchor="start" x="28.5" y="-154.3" font-family="Helvetica,sans-Serif" font-size="11.00" fill="#000000">created_by</text>
<polygon fill="none" stroke="#000000" points="8.5,-125.2 8.5,-147.2 285.5,-147.2 285.5,-125.2 8.5,-125.2"/>
<image xlink:href="../../images/foreignKeys.png" width="11px" height="12px" preserveAspectRatio="xMinYMin meet" x="13.5" y="-142.2"/>
<text text-anchor="start" x="28.5" y="-132.3" font-family="Helvetica,sans-Serif" font-size="11.00" fill="#000000">updated_by</text>
<polygon fill="none" stroke="#000000" points="8.5,-103.2 8.5,-125.2 285.5,-125.2 285.5,-103.2 8.5,-103.2"/>
<image xlink:href="../../images/foreignKeys.png" width="11px" height="12px" preserveAspectRatio="xMinYMin meet" x="13.5" y="-120.2"/>
<text text-anchor="start" x="28.5" y="-110.3" font-family="Helvetica,sans-Serif" font-size="11.00" fill="#000000">tribal_affiliations</text>
<polygon fill="none" stroke="#000000" points="8.5,-81.2 8.5,-103.2 285.5,-103.2 285.5,-81.2 8.5,-81.2"/>
<image xlink:href="../../images/foreignKeys.png" width="11px" height="12px" preserveAspectRatio="xMinYMin meet" x="13.5" y="-98.2"/>
<text text-anchor="start" x="28.5" y="-88.3" font-family="Helvetica,sans-Serif" font-size="11.00" fill="#000000">sex_identified</text>
<polygon fill="none" stroke="#000000" points="8.5,-62.2 8.5,-81.2 285.5,-81.2 285.5,-62.2 8.5,-62.2"/>
<text text-anchor="start" x="11.5" y="-68.3" font-family="Helvetica,sans-Serif" font-size="11.00" fill="#000000">...</text>
<polygon fill="#ffffff" stroke="transparent" points="8.5,-43.2 8.5,-62.2 137.5,-62.2 137.5,-43.2 8.5,-43.2"/>
<polygon fill="none" stroke="#000000" points="8.5,-43.2 8.5,-62.2 137.5,-62.2 137.5,-43.2 8.5,-43.2"/>
<text text-anchor="start" x="11.5" y="-49.3" font-family="Helvetica,sans-Serif" font-size="11.00" fill="#000000">&lt; 9</text>
<polygon fill="#ffffff" stroke="transparent" points="137.5,-43.2 137.5,-62.2 203.5,-62.2 203.5,-43.2 137.5,-43.2"/>
<polygon fill="none" stroke="#000000" points="137.5,-43.2 137.5,-62.2 203.5,-62.2 203.5,-43.2 137.5,-43.2"/>
<text text-anchor="start" x="194.3862" y="-49.3" font-family="Helvetica,sans-Serif" font-size="11.00" fill="#000000"> &#160;</text>
<polygon fill="#ffffff" stroke="transparent" points="203.5,-43.2 203.5,-62.2 285.5,-62.2 285.5,-43.2 203.5,-43.2"/>
<polygon fill="none" stroke="#000000" points="203.5,-43.2 203.5,-62.2 285.5,-62.2 285.5,-43.2 203.5,-43.2"/>
<text text-anchor="start" x="260.7904" y="-49.3" font-family="Helvetica,sans-Serif" font-size="11.00" fill="#000000">95 &gt;</text>
</a>
</g>
</g>
<!-- insurance_data&#45;&gt;patient_data -->
<g id="edge2" class="edge">
<title>insurance_data:w&#45;&gt;patient_data:e</title>
<path fill="none" stroke="#000000" d="M321.4203,-202.2C309.5435,-202.2 302.158,-202.2 285.5,-202.2"/>
<polygon fill="#000000" stroke="#000000" points="328,-202.2001 336,-205.8 332,-202.2 336,-202.2 336,-202.2 336,-202.2 332,-202.2 336,-198.6 328,-202.2001 328,-202.2001"/>
<ellipse fill="none" stroke="#000000" cx="324.8" cy="-202.2001" rx="3.2" ry="3.2"/>
</g>
<!-- insurance_companies -->
<g id="node4" class="node">
<title>insurance_companies</title>
<g id="a_node4"><a xlink:href="../../tables/insurance_companies.html" xlink:title="insurance_companies" target="_top">
<polygon fill="#ffffff" stroke="transparent" points="52.5,-637.7 52.5,-764.7 240.5,-764.7 240.5,-637.7 52.5,-637.7"/>
<polygon fill="#f5f5f5" stroke="transparent" points="52.5,-741.2 52.5,-764.2 240.5,-764.2 240.5,-741.2 52.5,-741.2"/>
<polygon fill="none" stroke="#000000" points="52.5,-741.2 52.5,-764.2 240.5,-764.2 240.5,-741.2 52.5,-741.2"/>
<text text-anchor="start" x="57.5" y="-749.8" font-family="Helvetica,sans-Serif" font-weight="bold" font-size="11.00" fill="#000000">insurance_companies</text>
<text text-anchor="start" x="205.5437" y="-749.3" font-family="Helvetica,sans-Serif" font-size="11.00" fill="#000000">[table]</text>
<polygon fill="none" stroke="#000000" points="52.5,-719.2 52.5,-741.2 240.5,-741.2 240.5,-719.2 52.5,-719.2"/>
<image xlink:href="../../images/primaryKeys.png" width="11px" height="12px" preserveAspectRatio="xMinYMin meet" x="57.5" y="-736.2"/>
<text text-anchor="start" x="72.5" y="-726.3" font-family="Helvetica,sans-Serif" font-size="11.00" fill="#000000">id</text>
<polygon fill="#ffffff" stroke="transparent" points="52.5,-697.2 52.5,-719.2 240.5,-719.2 240.5,-697.2 52.5,-697.2"/>
<polygon fill="none" stroke="#000000" points="52.5,-697.2 52.5,-719.2 240.5,-719.2 240.5,-697.2 52.5,-697.2"/>
<text text-anchor="start" x="72.5" y="-704.3" font-family="Helvetica,sans-Serif" font-size="11.00" fill="#000000">uuid</text>
<polygon fill="none" stroke="#000000" points="52.5,-675.2 52.5,-697.2 240.5,-697.2 240.5,-675.2 52.5,-675.2"/>
<image xlink:href="../../images/foreignKeys.png" width="11px" height="12px" preserveAspectRatio="xMinYMin meet" x="57.5" y="-692.2"/>
<text text-anchor="start" x="72.5" y="-682.3" font-family="Helvetica,sans-Serif" font-size="11.00" fill="#000000">ins_type_code</text>
<polygon fill="none" stroke="#000000" points="52.5,-656.2 52.5,-675.2 240.5,-675.2 240.5,-656.2 52.5,-656.2"/>
<text text-anchor="start" x="55.5" y="-662.3" font-family="Helvetica,sans-Serif" font-size="11.00" fill="#000000">...</text>
<polygon fill="#ffffff" stroke="transparent" points="52.5,-637.2 52.5,-656.2 140.5,-656.2 140.5,-637.2 52.5,-637.2"/>
<polygon fill="none" stroke="#000000" points="52.5,-637.2 52.5,-656.2 140.5,-656.2 140.5,-637.2 52.5,-637.2"/>
<text text-anchor="start" x="55.5" y="-643.3" font-family="Helvetica,sans-Serif" font-size="11.00" fill="#000000">&lt; 1</text>
<polygon fill="#ffffff" stroke="transparent" points="140.5,-637.2 140.5,-656.2 185.5,-656.2 185.5,-637.2 140.5,-637.2"/>
<polygon fill="none" stroke="#000000" points="140.5,-637.2 140.5,-656.2 185.5,-656.2 185.5,-637.2 140.5,-637.2"/>
<text text-anchor="start" x="176.3862" y="-643.3" font-family="Helvetica,sans-Serif" font-size="11.00" fill="#000000"> &#160;</text>
<polygon fill="#ffffff" stroke="transparent" points="185.5,-637.2 185.5,-656.2 240.5,-656.2 240.5,-637.2 185.5,-637.2"/>
<polygon fill="none" stroke="#000000" points="185.5,-637.2 185.5,-656.2 240.5,-656.2 240.5,-637.2 185.5,-637.2"/>
<text text-anchor="start" x="221.9053" y="-643.3" font-family="Helvetica,sans-Serif" font-size="11.00" fill="#000000">5 &gt;</text>
</a>
</g>
</g>
<!-- insurance_data&#45;&gt;insurance_companies -->
<g id="edge3" class="edge">
<title>insurance_data:w&#45;&gt;insurance_companies:e</title>
<path fill="none" stroke="#000000" d="M321.4512,-730.2C290.4054,-730.2 277.6389,-730.2 240.5,-730.2"/>
<polygon fill="#000000" stroke="#000000" points="328,-730.2001 336,-733.8 332,-730.2 336,-730.2 336,-730.2 336,-730.2 332,-730.2 336,-726.6 328,-730.2001 328,-730.2001"/>
<ellipse fill="none" stroke="#000000" cx="324.8" cy="-730.2001" rx="3.2" ry="3.2"/>
</g>
</g>
</svg>
