<?xml version="1.0" encoding="UTF-8" standalone="no"?>
<!DOCTYPE svg PUBLIC "-//W3C//DTD SVG 1.1//EN"
 "http://www.w3.org/Graphics/SVG/1.1/DTD/svg11.dtd">
<!-- Generated by graphviz version 2.40.1 (20161225.0304)
 -->
<!-- Title: oneDegreeRelationshipsDiagram Pages: 1 -->
<svg width="1019pt" height="751pt"
 viewBox="0.00 0.00 1019.00 751.21" xmlns="http://www.w3.org/2000/svg" xmlns:xlink="http://www.w3.org/1999/xlink">
<g id="graph0" class="graph" transform="scale(1 1) rotate(0) translate(4 747.2061)">
<title>oneDegreeRelationshipsDiagram</title>
<polygon fill="#ffffff" stroke="transparent" points="-4,4 -4,-747.2061 1015,-747.2061 1015,4 -4,4"/>
<text text-anchor="middle" x="72.4936" y="-7.3" font-family="Helvetica,sans-Serif" font-size="11.00" fill="#000000">Generated by SchemaSpy</text>
<!-- form_encounter -->
<g id="node1" class="node">
<title>form_encounter</title>
<g id="a_node1"><a xlink:href="../../tables/form_encounter.html" xlink:title="form_encounter" target="_top">
<polygon fill="#ffffff" stroke="transparent" points="550,-525.9601 550,-696.9601 758,-696.9601 758,-525.9601 550,-525.9601"/>
<polygon fill="#f5f5f5" stroke="transparent" points="550,-673.4601 550,-696.4601 758,-696.4601 758,-673.4601 550,-673.4601"/>
<polygon fill="none" stroke="#000000" points="550,-673.4601 550,-696.4601 758,-696.4601 758,-673.4601 550,-673.4601"/>
<text text-anchor="start" x="555" y="-682.0601" font-family="Helvetica,sans-Serif" font-weight="bold" font-size="11.00" fill="#000000">form_encounter</text>
<text text-anchor="start" x="723.0437" y="-681.5601" font-family="Helvetica,sans-Serif" font-size="11.00" fill="#000000">[table]</text>
<polygon fill="none" stroke="#000000" points="550,-651.4601 550,-673.4601 758,-673.4601 758,-651.4601 550,-651.4601"/>
<image xlink:href="../../images/primaryKeys.png" width="11px" height="12px" preserveAspectRatio="xMinYMin meet" x="555" y="-668.46"/>
<text text-anchor="start" x="570" y="-658.5601" font-family="Helvetica,sans-Serif" font-size="11.00" fill="#000000">id</text>
<polygon fill="#ffffff" stroke="transparent" points="550,-629.4601 550,-651.4601 758,-651.4601 758,-629.4601 550,-629.4601"/>
<polygon fill="none" stroke="#000000" points="550,-629.4601 550,-651.4601 758,-651.4601 758,-629.4601 550,-629.4601"/>
<text text-anchor="start" x="570" y="-636.5601" font-family="Helvetica,sans-Serif" font-size="11.00" fill="#000000">uuid</text>
<polygon fill="#ffffff" stroke="transparent" points="550,-607.4601 550,-629.4601 758,-629.4601 758,-607.4601 550,-607.4601"/>
<polygon fill="none" stroke="#000000" points="550,-607.4601 550,-629.4601 758,-629.4601 758,-607.4601 550,-607.4601"/>
<text text-anchor="start" x="570" y="-614.5601" font-family="Helvetica,sans-Serif" font-size="11.00" fill="#000000">date</text>
<polygon fill="#ffffff" stroke="transparent" points="550,-585.4601 550,-607.4601 758,-607.4601 758,-585.4601 550,-585.4601"/>
<polygon fill="none" stroke="#000000" points="550,-585.4601 550,-607.4601 758,-607.4601 758,-585.4601 550,-585.4601"/>
<image xlink:href="../../images/foreignKeys.png" width="11px" height="12px" preserveAspectRatio="xMinYMin meet" x="555" y="-602.46"/>
<text text-anchor="start" x="570" y="-592.5601" font-family="Helvetica,sans-Serif" font-size="11.00" fill="#000000">pid</text>
<polygon fill="none" stroke="#000000" points="550,-563.4601 550,-585.4601 758,-585.4601 758,-563.4601 550,-563.4601"/>
<image xlink:href="../../images/primaryKeys.png" width="11px" height="12px" preserveAspectRatio="xMinYMin meet" x="555" y="-580.46"/>
<text text-anchor="start" x="570" y="-570.5601" font-family="Helvetica,sans-Serif" font-size="11.00" fill="#000000">encounter</text>
<polygon fill="none" stroke="#000000" points="550,-544.4601 550,-563.4601 758,-563.4601 758,-544.4601 550,-544.4601"/>
<text text-anchor="start" x="553" y="-550.5601" font-family="Helvetica,sans-Serif" font-size="11.00" fill="#000000">...</text>
<polygon fill="#ffffff" stroke="transparent" points="550,-525.4601 550,-544.4601 645,-544.4601 645,-525.4601 550,-525.4601"/>
<polygon fill="none" stroke="#000000" points="550,-525.4601 550,-544.4601 645,-544.4601 645,-525.4601 550,-525.4601"/>
<text text-anchor="start" x="553" y="-531.5601" font-family="Helvetica,sans-Serif" font-size="11.00" fill="#000000">&lt; 1</text>
<polygon fill="#ffffff" stroke="transparent" points="645,-525.4601 645,-544.4601 694,-544.4601 694,-525.4601 645,-525.4601"/>
<polygon fill="none" stroke="#000000" points="645,-525.4601 645,-544.4601 694,-544.4601 694,-525.4601 645,-525.4601"/>
<text text-anchor="start" x="684.8862" y="-531.5601" font-family="Helvetica,sans-Serif" font-size="11.00" fill="#000000"> &#160;</text>
<polygon fill="#ffffff" stroke="transparent" points="694,-525.4601 694,-544.4601 758,-544.4601 758,-525.4601 694,-525.4601"/>
<polygon fill="none" stroke="#000000" points="694,-525.4601 694,-544.4601 758,-544.4601 758,-525.4601 694,-525.4601"/>
<text text-anchor="start" x="733.2904" y="-531.5601" font-family="Helvetica,sans-Serif" font-size="11.00" fill="#000000">19 &gt;</text>
</a>
</g>
</g>
<!-- patient_data -->
<g id="node2" class="node">
<title>patient_data</title>
<g id="a_node2"><a xlink:href="../../tables/patient_data.html" xlink:title="patient_data" target="_top">
<polygon fill="#ffffff" stroke="transparent" points="224,-239.9601 224,-630.9601 501,-630.9601 501,-239.9601 224,-239.9601"/>
<polygon fill="#f5f5f5" stroke="transparent" points="224.5,-607.4601 224.5,-630.4601 501.5,-630.4601 501.5,-607.4601 224.5,-607.4601"/>
<polygon fill="none" stroke="#000000" points="224.5,-607.4601 224.5,-630.4601 501.5,-630.4601 501.5,-607.4601 224.5,-607.4601"/>
<text text-anchor="start" x="229.5" y="-616.0601" font-family="Helvetica,sans-Serif" font-weight="bold" font-size="11.00" fill="#000000">patient_data</text>
<text text-anchor="start" x="466.5437" y="-615.5601" font-family="Helvetica,sans-Serif" font-size="11.00" fill="#000000">[table]</text>
<polygon fill="none" stroke="#000000" points="224.5,-585.4601 224.5,-607.4601 501.5,-607.4601 501.5,-585.4601 224.5,-585.4601"/>
<image xlink:href="../../images/primaryKeys.png" width="11px" height="12px" preserveAspectRatio="xMinYMin meet" x="229.5" y="-602.46"/>
<text text-anchor="start" x="244.5" y="-592.5601" font-family="Helvetica,sans-Serif" font-size="11.00" fill="#000000">id</text>
<polygon fill="#ffffff" stroke="transparent" points="224.5,-563.4601 224.5,-585.4601 501.5,-585.4601 501.5,-563.4601 224.5,-563.4601"/>
<polygon fill="none" stroke="#000000" points="224.5,-563.4601 224.5,-585.4601 501.5,-585.4601 501.5,-563.4601 224.5,-563.4601"/>
<text text-anchor="start" x="244.5" y="-570.5601" font-family="Helvetica,sans-Serif" font-size="11.00" fill="#000000">uuid</text>
<polygon fill="#ffffff" stroke="transparent" points="224.5,-541.4601 224.5,-563.4601 501.5,-563.4601 501.5,-541.4601 224.5,-541.4601"/>
<polygon fill="none" stroke="#000000" points="224.5,-541.4601 224.5,-563.4601 501.5,-563.4601 501.5,-541.4601 224.5,-541.4601"/>
<text text-anchor="start" x="244.5" y="-548.5601" font-family="Helvetica,sans-Serif" font-size="11.00" fill="#000000">fname</text>
<polygon fill="#ffffff" stroke="transparent" points="224.5,-519.4601 224.5,-541.4601 501.5,-541.4601 501.5,-519.4601 224.5,-519.4601"/>
<polygon fill="none" stroke="#000000" points="224.5,-519.4601 224.5,-541.4601 501.5,-541.4601 501.5,-519.4601 224.5,-519.4601"/>
<text text-anchor="start" x="244.5" y="-526.5601" font-family="Helvetica,sans-Serif" font-size="11.00" fill="#000000">lname</text>
<polygon fill="#ffffff" stroke="transparent" points="224.5,-497.4601 224.5,-519.4601 501.5,-519.4601 501.5,-497.4601 224.5,-497.4601"/>
<polygon fill="none" stroke="#000000" points="224.5,-497.4601 224.5,-519.4601 501.5,-519.4601 501.5,-497.4601 224.5,-497.4601"/>
<text text-anchor="start" x="244.5" y="-504.5601" font-family="Helvetica,sans-Serif" font-size="11.00" fill="#000000">DOB</text>
<polygon fill="none" stroke="#000000" points="224.5,-475.4601 224.5,-497.4601 501.5,-497.4601 501.5,-475.4601 224.5,-475.4601"/>
<image xlink:href="../../images/foreignKeys.png" width="11px" height="12px" preserveAspectRatio="xMinYMin meet" x="229.5" y="-492.46"/>
<text text-anchor="start" x="244.5" y="-482.5601" font-family="Helvetica,sans-Serif" font-size="11.00" fill="#000000">pharmacy_id</text>
<polygon fill="none" stroke="#000000" points="224.5,-453.4601 224.5,-475.4601 501.5,-475.4601 501.5,-453.4601 224.5,-453.4601"/>
<image xlink:href="../../images/foreignKeys.png" width="11px" height="12px" preserveAspectRatio="xMinYMin meet" x="229.5" y="-470.46"/>
<text text-anchor="start" x="244.5" y="-460.5601" font-family="Helvetica,sans-Serif" font-size="11.00" fill="#000000">providerID</text>
<polygon fill="none" stroke="#000000" points="224.5,-431.4601 224.5,-453.4601 501.5,-453.4601 501.5,-431.4601 224.5,-431.4601"/>
<image xlink:href="../../images/foreignKeys.png" width="11px" height="12px" preserveAspectRatio="xMinYMin meet" x="229.5" y="-448.46"/>
<text text-anchor="start" x="244.5" y="-438.5601" font-family="Helvetica,sans-Serif" font-size="11.00" fill="#000000">ref_providerID</text>
<polygon fill="none" stroke="#000000" points="224.5,-409.4601 224.5,-431.4601 501.5,-431.4601 501.5,-409.4601 224.5,-409.4601"/>
<image xlink:href="../../images/foreignKeys.png" width="11px" height="12px" preserveAspectRatio="xMinYMin meet" x="229.5" y="-426.46"/>
<text text-anchor="start" x="244.5" y="-416.5601" font-family="Helvetica,sans-Serif" font-size="11.00" fill="#000000">interpreter_needed</text>
<polygon fill="none" stroke="#000000" points="224.5,-387.4601 224.5,-409.4601 501.5,-409.4601 501.5,-387.4601 224.5,-387.4601"/>
<image xlink:href="../../images/primaryKeys.png" width="11px" height="12px" preserveAspectRatio="xMinYMin meet" x="229.5" y="-404.46"/>
<text text-anchor="start" x="244.5" y="-394.5601" font-family="Helvetica,sans-Serif" font-size="11.00" fill="#000000">pid</text>
<polygon fill="none" stroke="#000000" points="224.5,-365.4601 224.5,-387.4601 501.5,-387.4601 501.5,-365.4601 224.5,-365.4601"/>
<image xlink:href="../../images/foreignKeys.png" width="11px" height="12px" preserveAspectRatio="xMinYMin meet" x="229.5" y="-382.46"/>
<text text-anchor="start" x="244.5" y="-372.5601" font-family="Helvetica,sans-Serif" font-size="11.00" fill="#000000">advance_directive_user_authenticator</text>
<polygon fill="none" stroke="#000000" points="224.5,-343.4601 224.5,-365.4601 501.5,-365.4601 501.5,-343.4601 224.5,-343.4601"/>
<image xlink:href="../../images/foreignKeys.png" width="11px" height="12px" preserveAspectRatio="xMinYMin meet" x="229.5" y="-360.46"/>
<text text-anchor="start" x="244.5" y="-350.5601" font-family="Helvetica,sans-Serif" font-size="11.00" fill="#000000">created_by</text>
<polygon fill="none" stroke="#000000" points="224.5,-321.4601 224.5,-343.4601 501.5,-343.4601 501.5,-321.4601 224.5,-321.4601"/>
<image xlink:href="../../images/foreignKeys.png" width="11px" height="12px" preserveAspectRatio="xMinYMin meet" x="229.5" y="-338.46"/>
<text text-anchor="start" x="244.5" y="-328.5601" font-family="Helvetica,sans-Serif" font-size="11.00" fill="#000000">updated_by</text>
<polygon fill="none" stroke="#000000" points="224.5,-299.4601 224.5,-321.4601 501.5,-321.4601 501.5,-299.4601 224.5,-299.4601"/>
<image xlink:href="../../images/foreignKeys.png" width="11px" height="12px" preserveAspectRatio="xMinYMin meet" x="229.5" y="-316.46"/>
<text text-anchor="start" x="244.5" y="-306.5601" font-family="Helvetica,sans-Serif" font-size="11.00" fill="#000000">tribal_affiliations</text>
<polygon fill="none" stroke="#000000" points="224.5,-277.4601 224.5,-299.4601 501.5,-299.4601 501.5,-277.4601 224.5,-277.4601"/>
<image xlink:href="../../images/foreignKeys.png" width="11px" height="12px" preserveAspectRatio="xMinYMin meet" x="229.5" y="-294.46"/>
<text text-anchor="start" x="244.5" y="-284.5601" font-family="Helvetica,sans-Serif" font-size="11.00" fill="#000000">sex_identified</text>
<polygon fill="none" stroke="#000000" points="224.5,-258.4601 224.5,-277.4601 501.5,-277.4601 501.5,-258.4601 224.5,-258.4601"/>
<text text-anchor="start" x="227.5" y="-264.5601" font-family="Helvetica,sans-Serif" font-size="11.00" fill="#000000">...</text>
<polygon fill="#ffffff" stroke="transparent" points="224.5,-239.4601 224.5,-258.4601 353.5,-258.4601 353.5,-239.4601 224.5,-239.4601"/>
<polygon fill="none" stroke="#000000" points="224.5,-239.4601 224.5,-258.4601 353.5,-258.4601 353.5,-239.4601 224.5,-239.4601"/>
<text text-anchor="start" x="227.5" y="-245.5601" font-family="Helvetica,sans-Serif" font-size="11.00" fill="#000000">&lt; 9</text>
<polygon fill="#ffffff" stroke="transparent" points="353.5,-239.4601 353.5,-258.4601 419.5,-258.4601 419.5,-239.4601 353.5,-239.4601"/>
<polygon fill="none" stroke="#000000" points="353.5,-239.4601 353.5,-258.4601 419.5,-258.4601 419.5,-239.4601 353.5,-239.4601"/>
<text text-anchor="start" x="410.3862" y="-245.5601" font-family="Helvetica,sans-Serif" font-size="11.00" fill="#000000"> &#160;</text>
<polygon fill="#ffffff" stroke="transparent" points="419.5,-239.4601 419.5,-258.4601 501.5,-258.4601 501.5,-239.4601 419.5,-239.4601"/>
<polygon fill="none" stroke="#000000" points="419.5,-239.4601 419.5,-258.4601 501.5,-258.4601 501.5,-239.4601 419.5,-239.4601"/>
<text text-anchor="start" x="476.7904" y="-245.5601" font-family="Helvetica,sans-Serif" font-size="11.00" fill="#000000">95 &gt;</text>
</a>
</g>
</g>
<!-- form_encounter&#45;&gt;patient_data -->
<g id="edge1" class="edge">
<title>form_encounter:w&#45;&gt;patient_data:e</title>
<path fill="none" stroke="#000000" d="M535.52,-594.2364C475.114,-572.4835 586.439,-398.4601 501.5,-398.4601"/>
<polygon fill="#000000" stroke="#000000" points="542.0927,-595.2457 549.4535,-600.0184 546.0463,-595.8529 550,-596.4601 550,-596.4601 550,-596.4601 546.0463,-595.8529 550.5465,-592.9018 542.0927,-595.2457 542.0927,-595.2457"/>
<ellipse fill="none" stroke="#000000" cx="538.9298" cy="-594.76" rx="3.2" ry="3.2"/>
</g>
<!-- users -->
<g id="node4" class="node">
<title>users</title>
<g id="a_node4"><a xlink:href="../../tables/users.html" xlink:title="users" target="_top">
<polygon fill="#ffffff" stroke="transparent" points="8,-184.9601 8,-399.9601 175,-399.9601 175,-184.9601 8,-184.9601"/>
<polygon fill="#f5f5f5" stroke="transparent" points="8.5,-376.4601 8.5,-399.4601 175.5,-399.4601 175.5,-376.4601 8.5,-376.4601"/>
<polygon fill="none" stroke="#000000" points="8.5,-376.4601 8.5,-399.4601 175.5,-399.4601 175.5,-376.4601 8.5,-376.4601"/>
<text text-anchor="start" x="13.5" y="-385.0601" font-family="Helvetica,sans-Serif" font-weight="bold" font-size="11.00" fill="#000000">users</text>
<text text-anchor="start" x="140.5437" y="-384.5601" font-family="Helvetica,sans-Serif" font-size="11.00" fill="#000000">[table]</text>
<polygon fill="none" stroke="#000000" points="8.5,-354.4601 8.5,-376.4601 175.5,-376.4601 175.5,-354.4601 8.5,-354.4601"/>
<image xlink:href="../../images/primaryKeys.png" width="11px" height="12px" preserveAspectRatio="xMinYMin meet" x="13.5" y="-371.46"/>
<text text-anchor="start" x="28.5" y="-361.5601" font-family="Helvetica,sans-Serif" font-size="11.00" fill="#000000">id</text>
<polygon fill="#ffffff" stroke="transparent" points="8.5,-332.4601 8.5,-354.4601 175.5,-354.4601 175.5,-332.4601 8.5,-332.4601"/>
<polygon fill="none" stroke="#000000" points="8.5,-332.4601 8.5,-354.4601 175.5,-354.4601 175.5,-332.4601 8.5,-332.4601"/>
<text text-anchor="start" x="28.5" y="-339.5601" font-family="Helvetica,sans-Serif" font-size="11.00" fill="#000000">uuid</text>
<polygon fill="none" stroke="#000000" points="8.5,-310.4601 8.5,-332.4601 175.5,-332.4601 175.5,-310.4601 8.5,-310.4601"/>
<image xlink:href="../../images/primaryKeys.png" width="11px" height="12px" preserveAspectRatio="xMinYMin meet" x="13.5" y="-327.46"/>
<text text-anchor="start" x="28.5" y="-317.5601" font-family="Helvetica,sans-Serif" font-size="11.00" fill="#000000">username</text>
<polygon fill="none" stroke="#000000" points="8.5,-288.4601 8.5,-310.4601 175.5,-310.4601 175.5,-288.4601 8.5,-288.4601"/>
<image xlink:href="../../images/foreignKeys.png" width="11px" height="12px" preserveAspectRatio="xMinYMin meet" x="13.5" y="-305.46"/>
<text text-anchor="start" x="28.5" y="-295.5601" font-family="Helvetica,sans-Serif" font-size="11.00" fill="#000000">facility_id</text>
<polygon fill="#ffffff" stroke="transparent" points="8.5,-266.4601 8.5,-288.4601 175.5,-288.4601 175.5,-266.4601 8.5,-266.4601"/>
<polygon fill="none" stroke="#000000" points="8.5,-266.4601 8.5,-288.4601 175.5,-288.4601 175.5,-266.4601 8.5,-266.4601"/>
<text text-anchor="start" x="28.5" y="-273.5601" font-family="Helvetica,sans-Serif" font-size="11.00" fill="#000000">google_signin_email</text>
<polygon fill="#ffffff" stroke="transparent" points="8.5,-244.4601 8.5,-266.4601 175.5,-266.4601 175.5,-244.4601 8.5,-244.4601"/>
<polygon fill="none" stroke="#000000" points="8.5,-244.4601 8.5,-266.4601 175.5,-266.4601 175.5,-244.4601 8.5,-244.4601"/>
<text text-anchor="start" x="28.5" y="-251.5601" font-family="Helvetica,sans-Serif" font-size="11.00" fill="#000000">abook_type</text>
<polygon fill="none" stroke="#000000" points="8.5,-222.4601 8.5,-244.4601 175.5,-244.4601 175.5,-222.4601 8.5,-222.4601"/>
<image xlink:href="../../images/foreignKeys.png" width="11px" height="12px" preserveAspectRatio="xMinYMin meet" x="13.5" y="-239.46"/>
<text text-anchor="start" x="28.5" y="-229.5601" font-family="Helvetica,sans-Serif" font-size="11.00" fill="#000000">billing_facility_id</text>
<polygon fill="none" stroke="#000000" points="8.5,-203.4601 8.5,-222.4601 175.5,-222.4601 175.5,-203.4601 8.5,-203.4601"/>
<text text-anchor="start" x="11.5" y="-209.5601" font-family="Helvetica,sans-Serif" font-size="11.00" fill="#000000">...</text>
<polygon fill="#ffffff" stroke="transparent" points="8.5,-184.4601 8.5,-203.4601 82.5,-203.4601 82.5,-184.4601 8.5,-184.4601"/>
<polygon fill="none" stroke="#000000" points="8.5,-184.4601 8.5,-203.4601 82.5,-203.4601 82.5,-184.4601 8.5,-184.4601"/>
<text text-anchor="start" x="11.5" y="-190.5601" font-family="Helvetica,sans-Serif" font-size="11.00" fill="#000000">&lt; 2</text>
<polygon fill="#ffffff" stroke="transparent" points="82.5,-184.4601 82.5,-203.4601 121.5,-203.4601 121.5,-184.4601 82.5,-184.4601"/>
<polygon fill="none" stroke="#000000" points="82.5,-184.4601 82.5,-203.4601 121.5,-203.4601 121.5,-184.4601 82.5,-184.4601"/>
<text text-anchor="start" x="112.3862" y="-190.5601" font-family="Helvetica,sans-Serif" font-size="11.00" fill="#000000"> &#160;</text>
<polygon fill="#ffffff" stroke="transparent" points="121.5,-184.4601 121.5,-203.4601 175.5,-203.4601 175.5,-184.4601 121.5,-184.4601"/>
<polygon fill="none" stroke="#000000" points="121.5,-184.4601 121.5,-203.4601 175.5,-203.4601 175.5,-184.4601 121.5,-184.4601"/>
<text text-anchor="start" x="150.7904" y="-190.5601" font-family="Helvetica,sans-Serif" font-size="11.00" fill="#000000">90 &gt;</text>
</a>
</g>
</g>
<!-- patient_data&#45;&gt;users -->
<g id="edge9" class="edge">
<title>patient_data:w&#45;&gt;users:e</title>
<path fill="none" stroke="#000000" d="M210.2027,-374.6437C198.7382,-371.5193 192.0655,-365.4601 175.5,-365.4601"/>
<polygon fill="#000000" stroke="#000000" points="216.5638,-375.4518 224.0463,-380.0314 220.5319,-375.9559 224.5,-376.4601 224.5,-376.4601 224.5,-376.4601 220.5319,-375.9559 224.9537,-372.8888 216.5638,-375.4518 216.5638,-375.4518"/>
<ellipse fill="none" stroke="#000000" cx="213.3893" cy="-375.0484" rx="3.2" ry="3.2"/>
</g>
<!-- patient_data&#45;&gt;users -->
<g id="edge10" class="edge">
<title>patient_data:w&#45;&gt;users:e</title>
<path fill="none" stroke="#000000" d="M210.2027,-356.2765C198.7382,-359.4008 192.0655,-365.4601 175.5,-365.4601"/>
<polygon fill="#000000" stroke="#000000" points="216.5638,-355.4684 224.9537,-358.0314 220.5319,-354.9642 224.5,-354.4601 224.5,-354.4601 224.5,-354.4601 220.5319,-354.9642 224.0463,-350.8888 216.5638,-355.4684 216.5638,-355.4684"/>
<ellipse fill="none" stroke="#000000" cx="213.3893" cy="-355.8717" rx="3.2" ry="3.2"/>
</g>
<!-- patient_data&#45;&gt;users -->
<g id="edge11" class="edge">
<title>patient_data:w&#45;&gt;users:e</title>
<path fill="none" stroke="#000000" d="M210.6394,-460.4565C185.8773,-441.9352 218.6495,-365.4601 175.5,-365.4601"/>
<polygon fill="#000000" stroke="#000000" points="216.8142,-462.24 223.501,-467.9187 220.6571,-463.3501 224.5,-464.4601 224.5,-464.4601 224.5,-464.4601 220.6571,-463.3501 225.499,-461.0015 216.8142,-462.24 216.8142,-462.24"/>
<ellipse fill="none" stroke="#000000" cx="213.7399" cy="-461.352" rx="3.2" ry="3.2"/>
</g>
<!-- patient_data&#45;&gt;users -->
<g id="edge12" class="edge">
<title>patient_data:w&#45;&gt;users:e</title>
<path fill="none" stroke="#000000" d="M210.7659,-437.874C191.8724,-421.2973 210.0427,-365.4601 175.5,-365.4601"/>
<polygon fill="#000000" stroke="#000000" points="216.9119,-439.9262 223.3598,-445.8747 220.7059,-441.1931 224.5,-442.4601 224.5,-442.4601 224.5,-442.4601 220.7059,-441.1931 225.6402,-439.0454 216.9119,-439.9262 216.9119,-439.9262"/>
<ellipse fill="none" stroke="#000000" cx="213.8766" cy="-438.9127" rx="3.2" ry="3.2"/>
</g>
<!-- patient_data&#45;&gt;users -->
<g id="edge13" class="edge">
<title>patient_data:w&#45;&gt;users:e</title>
<path fill="none" stroke="#000000" d="M210.5457,-336.7743C198.3073,-345.7193 195.8075,-365.4601 175.5,-365.4601"/>
<polygon fill="#000000" stroke="#000000" points="216.8569,-334.8231 225.5634,-335.8995 220.6785,-333.6416 224.5,-332.4601 224.5,-332.4601 224.5,-332.4601 220.6785,-333.6416 223.4366,-329.0207 216.8569,-334.8231 216.8569,-334.8231"/>
<ellipse fill="none" stroke="#000000" cx="213.7997" cy="-335.7683" rx="3.2" ry="3.2"/>
</g>
<!-- lists -->
<g id="node3" class="node">
<title>lists</title>
<g id="a_node3"><a xlink:href="../../tables/lists.html" xlink:title="lists" target="_top">
<polygon fill="#ffffff" stroke="transparent" points="583,-129.9601 583,-476.9601 725,-476.9601 725,-129.9601 583,-129.9601"/>
<polygon fill="#f5f5f5" stroke="transparent" points="583,-453.4601 583,-476.4601 725,-476.4601 725,-453.4601 583,-453.4601"/>
<polygon fill="none" stroke="#000000" points="583,-453.4601 583,-476.4601 725,-476.4601 725,-453.4601 583,-453.4601"/>
<text text-anchor="start" x="588" y="-462.0601" font-family="Helvetica,sans-Serif" font-weight="bold" font-size="11.00" fill="#000000">lists</text>
<text text-anchor="start" x="690.0437" y="-461.5601" font-family="Helvetica,sans-Serif" font-size="11.00" fill="#000000">[table]</text>
<polygon fill="none" stroke="#000000" points="583,-431.4601 583,-453.4601 725,-453.4601 725,-431.4601 583,-431.4601"/>
<image xlink:href="../../images/primaryKeys.png" width="11px" height="12px" preserveAspectRatio="xMinYMin meet" x="588" y="-448.46"/>
<text text-anchor="start" x="603" y="-438.5601" font-family="Helvetica,sans-Serif" font-size="11.00" fill="#000000">id</text>
<polygon fill="#ffffff" stroke="transparent" points="583,-409.4601 583,-431.4601 725,-431.4601 725,-409.4601 583,-409.4601"/>
<polygon fill="none" stroke="#000000" points="583,-409.4601 583,-431.4601 725,-431.4601 725,-409.4601 583,-409.4601"/>
<text text-anchor="start" x="603" y="-416.5601" font-family="Helvetica,sans-Serif" font-size="11.00" fill="#000000">uuid</text>
<polygon fill="#ffffff" stroke="transparent" points="583,-387.4601 583,-409.4601 725,-409.4601 725,-387.4601 583,-387.4601"/>
<polygon fill="none" stroke="#000000" points="583,-387.4601 583,-409.4601 725,-409.4601 725,-387.4601 583,-387.4601"/>
<image xlink:href="../../images/foreignKeys.png" width="11px" height="12px" preserveAspectRatio="xMinYMin meet" x="588" y="-404.46"/>
<text text-anchor="start" x="603" y="-394.5601" font-family="Helvetica,sans-Serif" font-size="11.00" fill="#000000">type</text>
<polygon fill="none" stroke="#000000" points="583,-365.4601 583,-387.4601 725,-387.4601 725,-365.4601 583,-365.4601"/>
<image xlink:href="../../images/foreignKeys.png" width="11px" height="12px" preserveAspectRatio="xMinYMin meet" x="588" y="-382.46"/>
<text text-anchor="start" x="603" y="-372.5601" font-family="Helvetica,sans-Serif" font-size="11.00" fill="#000000">subtype</text>
<polygon fill="none" stroke="#000000" points="583,-343.4601 583,-365.4601 725,-365.4601 725,-343.4601 583,-343.4601"/>
<image xlink:href="../../images/foreignKeys.png" width="11px" height="12px" preserveAspectRatio="xMinYMin meet" x="588" y="-360.46"/>
<text text-anchor="start" x="603" y="-350.5601" font-family="Helvetica,sans-Serif" font-size="11.00" fill="#000000">occurrence</text>
<polygon fill="#ffffff" stroke="transparent" points="583,-321.4601 583,-343.4601 725,-343.4601 725,-321.4601 583,-321.4601"/>
<polygon fill="none" stroke="#000000" points="583,-321.4601 583,-343.4601 725,-343.4601 725,-321.4601 583,-321.4601"/>
<image xlink:href="../../images/foreignKeys.png" width="11px" height="12px" preserveAspectRatio="xMinYMin meet" x="588" y="-338.46"/>
<text text-anchor="start" x="603" y="-328.5601" font-family="Helvetica,sans-Serif" font-size="11.00" fill="#000000">pid</text>
<polygon fill="none" stroke="#000000" points="583,-299.4601 583,-321.4601 725,-321.4601 725,-299.4601 583,-299.4601"/>
<image xlink:href="../../images/foreignKeys.png" width="11px" height="12px" preserveAspectRatio="xMinYMin meet" x="588" y="-316.46"/>
<text text-anchor="start" x="603" y="-306.5601" font-family="Helvetica,sans-Serif" font-size="11.00" fill="#000000">user</text>
<polygon fill="none" stroke="#000000" points="583,-277.4601 583,-299.4601 725,-299.4601 725,-277.4601 583,-277.4601"/>
<image xlink:href="../../images/foreignKeys.png" width="11px" height="12px" preserveAspectRatio="xMinYMin meet" x="588" y="-294.46"/>
<text text-anchor="start" x="603" y="-284.5601" font-family="Helvetica,sans-Serif" font-size="11.00" fill="#000000">groupname</text>
<polygon fill="none" stroke="#000000" points="583,-255.4601 583,-277.4601 725,-277.4601 725,-255.4601 583,-255.4601"/>
<image xlink:href="../../images/foreignKeys.png" width="11px" height="12px" preserveAspectRatio="xMinYMin meet" x="588" y="-272.46"/>
<text text-anchor="start" x="603" y="-262.5601" font-family="Helvetica,sans-Serif" font-size="11.00" fill="#000000">outcome</text>
<polygon fill="none" stroke="#000000" points="583,-233.4601 583,-255.4601 725,-255.4601 725,-233.4601 583,-233.4601"/>
<image xlink:href="../../images/foreignKeys.png" width="11px" height="12px" preserveAspectRatio="xMinYMin meet" x="588" y="-250.46"/>
<text text-anchor="start" x="603" y="-240.5601" font-family="Helvetica,sans-Serif" font-size="11.00" fill="#000000">reaction</text>
<polygon fill="none" stroke="#000000" points="583,-211.4601 583,-233.4601 725,-233.4601 725,-211.4601 583,-211.4601"/>
<image xlink:href="../../images/foreignKeys.png" width="11px" height="12px" preserveAspectRatio="xMinYMin meet" x="588" y="-228.46"/>
<text text-anchor="start" x="603" y="-218.5601" font-family="Helvetica,sans-Serif" font-size="11.00" fill="#000000">verification</text>
<polygon fill="none" stroke="#000000" points="583,-189.4601 583,-211.4601 725,-211.4601 725,-189.4601 583,-189.4601"/>
<image xlink:href="../../images/foreignKeys.png" width="11px" height="12px" preserveAspectRatio="xMinYMin meet" x="588" y="-206.46"/>
<text text-anchor="start" x="603" y="-196.5601" font-family="Helvetica,sans-Serif" font-size="11.00" fill="#000000">severity_al</text>
<polygon fill="none" stroke="#000000" points="583,-167.4601 583,-189.4601 725,-189.4601 725,-167.4601 583,-167.4601"/>
<image xlink:href="../../images/foreignKeys.png" width="11px" height="12px" preserveAspectRatio="xMinYMin meet" x="588" y="-184.46"/>
<text text-anchor="start" x="603" y="-174.5601" font-family="Helvetica,sans-Serif" font-size="11.00" fill="#000000">list_option_id</text>
<polygon fill="none" stroke="#000000" points="583,-148.4601 583,-167.4601 725,-167.4601 725,-148.4601 583,-148.4601"/>
<text text-anchor="start" x="586" y="-154.5601" font-family="Helvetica,sans-Serif" font-size="11.00" fill="#000000">...</text>
<polygon fill="#ffffff" stroke="transparent" points="583,-129.4601 583,-148.4601 651,-148.4601 651,-129.4601 583,-129.4601"/>
<polygon fill="none" stroke="#000000" points="583,-129.4601 583,-148.4601 651,-148.4601 651,-129.4601 583,-129.4601"/>
<text text-anchor="start" x="586" y="-135.5601" font-family="Helvetica,sans-Serif" font-size="11.00" fill="#000000">&lt; 11</text>
<polygon fill="#ffffff" stroke="transparent" points="651,-129.4601 651,-148.4601 683,-148.4601 683,-129.4601 651,-129.4601"/>
<polygon fill="none" stroke="#000000" points="651,-129.4601 651,-148.4601 683,-148.4601 683,-129.4601 651,-129.4601"/>
<text text-anchor="start" x="673.8862" y="-135.5601" font-family="Helvetica,sans-Serif" font-size="11.00" fill="#000000"> &#160;</text>
<polygon fill="#ffffff" stroke="transparent" points="683,-129.4601 683,-148.4601 725,-148.4601 725,-129.4601 683,-129.4601"/>
<polygon fill="none" stroke="#000000" points="683,-129.4601 683,-148.4601 725,-148.4601 725,-129.4601 683,-129.4601"/>
<text text-anchor="start" x="706.4053" y="-135.5601" font-family="Helvetica,sans-Serif" font-size="11.00" fill="#000000">5 &gt;</text>
</a>
</g>
</g>
<!-- lists&#45;&gt;patient_data -->
<g id="edge2" class="edge">
<title>lists:w&#45;&gt;patient_data:e</title>
<path fill="none" stroke="#000000" d="M568.4263,-335.1291C538.3731,-347.4767 542.4658,-398.4601 501.5,-398.4601"/>
<polygon fill="#000000" stroke="#000000" points="575.1309,-333.9013 583.6485,-336.0012 579.0654,-333.1807 583,-332.4601 583,-332.4601 583,-332.4601 579.0654,-333.1807 582.3515,-328.919 575.1309,-333.9013 575.1309,-333.9013"/>
<ellipse fill="none" stroke="#000000" cx="571.9832" cy="-334.4777" rx="3.2" ry="3.2"/>
</g>
<!-- lists&#45;&gt;users -->
<g id="edge3" class="edge">
<title>lists:w&#45;&gt;users:e</title>
<path fill="none" stroke="#000000" d="M568.4519,-308.0992C537.9016,-296.6584 548.3886,-246.8267 509,-229.4601 389.8454,-176.9243 325.0647,-158.3073 216,-229.4601 178.583,-253.8705 220.1755,-321.4601 175.5,-321.4601"/>
<polygon fill="#000000" stroke="#000000" points="575.1033,-309.1785 582.4233,-314.0136 579.0517,-309.8193 583,-310.4601 583,-310.4601 583,-310.4601 579.0517,-309.8193 583.5767,-306.9066 575.1033,-309.1785 575.1033,-309.1785"/>
<ellipse fill="none" stroke="#000000" cx="571.9446" cy="-308.6659" rx="3.2" ry="3.2"/>
</g>
<!-- issue_encounter -->
<g id="node5" class="node">
<title>issue_encounter</title>
<g id="a_node5"><a xlink:href="../../tables/issue_encounter.html" xlink:title="issue_encounter" target="_top">
<polygon fill="#ffffff" stroke="transparent" points="807,-425.4601 807,-603.4601 1003,-603.4601 1003,-425.4601 807,-425.4601"/>
<polygon fill="#f5f5f5" stroke="transparent" points="809,-578.4601 809,-601.4601 1001,-601.4601 1001,-578.4601 809,-578.4601"/>
<polygon fill="none" stroke="#000000" points="809,-578.4601 809,-601.4601 1001,-601.4601 1001,-578.4601 809,-578.4601"/>
<text text-anchor="start" x="814" y="-587.0601" font-family="Helvetica,sans-Serif" font-weight="bold" font-size="11.00" fill="#000000">issue_encounter</text>
<text text-anchor="start" x="966.0437" y="-586.5601" font-family="Helvetica,sans-Serif" font-size="11.00" fill="#000000">[table]</text>
<polygon fill="none" stroke="#000000" points="809,-556.4601 809,-578.4601 939,-578.4601 939,-556.4601 809,-556.4601"/>
<image xlink:href="../../images/foreignKeys.png" width="11px" height="12px" preserveAspectRatio="xMinYMin meet" x="814" y="-573.46"/>
<text text-anchor="start" x="829" y="-563.5601" font-family="Helvetica,sans-Serif" font-size="11.00" fill="#000000">created_by</text>
<polygon fill="none" stroke="#000000" points="939,-556.4601 939,-578.4601 1001,-578.4601 1001,-556.4601 939,-556.4601"/>
<text text-anchor="start" x="941.878" y="-564.1601" font-family="Helvetica,sans-Serif" font-size="11.00" fill="#000000">unknown[0]</text>
<polygon fill="none" stroke="#000000" points="809,-534.4601 809,-556.4601 939,-556.4601 939,-534.4601 809,-534.4601"/>
<image xlink:href="../../images/foreignKeys.png" width="11px" height="12px" preserveAspectRatio="xMinYMin meet" x="814" y="-551.46"/>
<text text-anchor="start" x="829" y="-541.5601" font-family="Helvetica,sans-Serif" font-size="11.00" fill="#000000">encounter</text>
<polygon fill="none" stroke="#000000" points="939,-534.4601 939,-556.4601 1001,-556.4601 1001,-534.4601 939,-534.4601"/>
<text text-anchor="start" x="941.878" y="-542.1601" font-family="Helvetica,sans-Serif" font-size="11.00" fill="#000000">unknown[0]</text>
<polygon fill="none" stroke="#000000" points="809,-512.4601 809,-534.4601 939,-534.4601 939,-512.4601 809,-512.4601"/>
<image xlink:href="../../images/foreignKeys.png" width="11px" height="12px" preserveAspectRatio="xMinYMin meet" x="814" y="-529.46"/>
<text text-anchor="start" x="829" y="-519.5601" font-family="Helvetica,sans-Serif" font-size="11.00" fill="#000000">list_id</text>
<polygon fill="none" stroke="#000000" points="939,-512.4601 939,-534.4601 1001,-534.4601 1001,-512.4601 939,-512.4601"/>
<text text-anchor="start" x="941.878" y="-520.1601" font-family="Helvetica,sans-Serif" font-size="11.00" fill="#000000">unknown[0]</text>
<polygon fill="none" stroke="#000000" points="809,-490.4601 809,-512.4601 939,-512.4601 939,-490.4601 809,-490.4601"/>
<image xlink:href="../../images/foreignKeys.png" width="11px" height="12px" preserveAspectRatio="xMinYMin meet" x="814" y="-507.46"/>
<text text-anchor="start" x="829" y="-497.5601" font-family="Helvetica,sans-Serif" font-size="11.00" fill="#000000">pid</text>
<polygon fill="none" stroke="#000000" points="939,-490.4601 939,-512.4601 1001,-512.4601 1001,-490.4601 939,-490.4601"/>
<text text-anchor="start" x="941.878" y="-498.1601" font-family="Helvetica,sans-Serif" font-size="11.00" fill="#000000">unknown[0]</text>
<polygon fill="none" stroke="#000000" points="809,-468.4601 809,-490.4601 939,-490.4601 939,-468.4601 809,-468.4601"/>
<text text-anchor="start" x="829" y="-475.5601" font-family="Helvetica,sans-Serif" font-size="11.00" fill="#000000">resolved</text>
<polygon fill="none" stroke="#000000" points="939,-468.4601 939,-490.4601 1001,-490.4601 1001,-468.4601 939,-468.4601"/>
<text text-anchor="start" x="941.878" y="-476.1601" font-family="Helvetica,sans-Serif" font-size="11.00" fill="#000000">unknown[0]</text>
<polygon fill="none" stroke="#000000" points="809,-446.4601 809,-468.4601 939,-468.4601 939,-446.4601 809,-446.4601"/>
<image xlink:href="../../images/foreignKeys.png" width="11px" height="12px" preserveAspectRatio="xMinYMin meet" x="814" y="-463.46"/>
<text text-anchor="start" x="829" y="-453.5601" font-family="Helvetica,sans-Serif" font-size="11.00" fill="#000000">updated_by</text>
<polygon fill="none" stroke="#000000" points="939,-446.4601 939,-468.4601 1001,-468.4601 1001,-446.4601 939,-446.4601"/>
<text text-anchor="start" x="941.878" y="-454.1601" font-family="Helvetica,sans-Serif" font-size="11.00" fill="#000000">unknown[0]</text>
<polygon fill="#ffffff" stroke="transparent" points="809,-427.4601 809,-446.4601 878,-446.4601 878,-427.4601 809,-427.4601"/>
<polygon fill="none" stroke="#000000" points="809,-427.4601 809,-446.4601 878,-446.4601 878,-427.4601 809,-427.4601"/>
<text text-anchor="start" x="812" y="-433.5601" font-family="Helvetica,sans-Serif" font-size="11.00" fill="#000000">&lt; 5</text>
<polygon fill="#ffffff" stroke="transparent" points="878,-427.4601 878,-446.4601 939,-446.4601 939,-427.4601 878,-427.4601"/>
<polygon fill="none" stroke="#000000" points="878,-427.4601 878,-446.4601 939,-446.4601 939,-427.4601 878,-427.4601"/>
<text text-anchor="start" x="929.8862" y="-433.5601" font-family="Helvetica,sans-Serif" font-size="11.00" fill="#000000"> &#160;</text>
<polygon fill="#ffffff" stroke="transparent" points="939,-427.4601 939,-446.4601 1001,-446.4601 1001,-427.4601 939,-427.4601"/>
<polygon fill="none" stroke="#000000" points="939,-427.4601 939,-446.4601 1001,-446.4601 1001,-427.4601 939,-427.4601"/>
<text text-anchor="start" x="982.4053" y="-433.5601" font-family="Helvetica,sans-Serif" font-size="11.00" fill="#000000">0 &gt;</text>
<polygon fill="none" stroke="#000000" stroke-width="2" points="808,-426.4601 808,-602.4601 1002,-602.4601 1002,-426.4601 808,-426.4601"/>
</a>
</g>
</g>
<!-- issue_encounter&#45;&gt;form_encounter -->
<g id="edge5" class="edge">
<title>issue_encounter:w&#45;&gt;form_encounter:e</title>
<path fill="none" stroke="#000000" d="M794.8364,-549.2513C782.0486,-557.1121 778.1673,-574.4601 758,-574.4601"/>
<polygon fill="#000000" stroke="#000000" points="801.2721,-547.5287 809.9309,-548.9377 805.136,-546.4944 809,-545.4601 809,-545.4601 809,-545.4601 805.136,-546.4944 808.0691,-541.9825 801.2721,-547.5287 801.2721,-547.5287"/>
<ellipse fill="none" stroke="#000000" cx="798.1809" cy="-548.3561" rx="3.2" ry="3.2"/>
</g>
<!-- issue_encounter&#45;&gt;patient_data -->
<g id="edge7" class="edge">
<title>issue_encounter:w&#45;&gt;patient_data:e</title>
<path fill="none" stroke="#000000" d="M794.219,-501.752C726.6628,-504.0562 587.4577,-518.4305 542,-487.4601 506.0848,-462.991 544.9585,-398.4601 501.5,-398.4601"/>
<polygon fill="#000000" stroke="#000000" points="801.0016,-501.6181 809.0711,-505.0594 805.0008,-501.5391 809,-501.4601 809,-501.4601 809,-501.4601 805.0008,-501.5391 808.9289,-497.8608 801.0016,-501.6181 801.0016,-501.6181"/>
<ellipse fill="none" stroke="#000000" cx="797.8022" cy="-501.6813" rx="3.2" ry="3.2"/>
</g>
<!-- issue_encounter&#45;&gt;lists -->
<g id="edge6" class="edge">
<title>issue_encounter:w&#45;&gt;lists:e</title>
<path fill="none" stroke="#000000" d="M794.8112,-520.9471C760.5016,-507.2752 771.3931,-442.4601 725,-442.4601"/>
<polygon fill="#000000" stroke="#000000" points="801.1226,-522.0649 808.3722,-527.0049 805.0613,-522.7625 809,-523.4601 809,-523.4601 809,-523.4601 805.0613,-522.7625 809.6278,-519.9152 801.1226,-522.0649 801.1226,-522.0649"/>
<ellipse fill="none" stroke="#000000" cx="797.9716" cy="-521.5068" rx="3.2" ry="3.2"/>
</g>
<!-- issue_encounter&#45;&gt;users -->
<g id="edge4" class="edge">
<title>issue_encounter:w&#45;&gt;users:e</title>
<path fill="none" stroke="#000000" d="M794.6416,-569.7946C756.2615,-585.1598 813.6456,-672.2517 766,-707.4601 666.9987,-780.6183 300.6601,-730.8248 216,-641.4601 173.3669,-596.4579 237.4901,-365.4601 175.5,-365.4601"/>
<polygon fill="#000000" stroke="#000000" points="801.1037,-568.744 809.5778,-571.0134 805.0518,-568.102 809,-567.4601 809,-567.4601 809,-567.4601 805.0518,-568.102 808.4222,-563.9067 801.1037,-568.744 801.1037,-568.744"/>
<ellipse fill="none" stroke="#000000" cx="797.9452" cy="-569.2576" rx="3.2" ry="3.2"/>
</g>
<!-- issue_encounter&#45;&gt;users -->
<g id="edge8" class="edge">
<title>issue_encounter:w&#45;&gt;users:e</title>
<path fill="none" stroke="#000000" d="M795.0563,-453.1472C745.4597,-417.0843 818.7117,-165.8907 766,-119.4601 578.9361,45.3134 389.0706,-50.0449 216,-229.4601 172.2142,-274.851 238.5677,-365.4601 175.5,-365.4601"/>
<polygon fill="#000000" stroke="#000000" points="801.3572,-455.0961 807.9362,-460.8993 805.1786,-456.2781 809,-457.4601 809,-457.4601 809,-457.4601 805.1786,-456.2781 810.0638,-454.0208 801.3572,-455.0961 801.3572,-455.0961"/>
<ellipse fill="none" stroke="#000000" cx="798.3001" cy="-454.1505" rx="3.2" ry="3.2"/>
</g>
</g>
</svg>
