<?xml version="1.0" encoding="UTF-8" standalone="no"?>
<!DOCTYPE svg PUBLIC "-//W3C//DTD SVG 1.1//EN"
 "http://www.w3.org/Graphics/SVG/1.1/DTD/svg11.dtd">
<!-- Generated by graphviz version 2.40.1 (20161225.0304)
 -->
<!-- Title: twoDegreesRelationshipsDiagram Pages: 1 -->
<svg width="879pt" height="954pt"
 viewBox="0.00 0.00 879.00 953.66" xmlns="http://www.w3.org/2000/svg" xmlns:xlink="http://www.w3.org/1999/xlink">
<g id="graph0" class="graph" transform="scale(1 1) rotate(0) translate(4 949.6639)">
<title>twoDegreesRelationshipsDiagram</title>
<polygon fill="#ffffff" stroke="transparent" points="-4,4 -4,-949.6639 875,-949.6639 875,4 -4,4"/>
<text text-anchor="middle" x="72.4936" y="-7.3" font-family="Helvetica,sans-Serif" font-size="11.00" fill="#000000">Generated by SchemaSpy</text>
<!-- documents -->
<g id="node1" class="node">
<title>documents</title>
<g id="a_node1"><a xlink:href="../../tables/documents.html" xlink:title="documents" target="_top">
<polygon fill="#ffffff" stroke="transparent" points="667.5,-616.9523 667.5,-677.9523 780.5,-677.9523 780.5,-616.9523 667.5,-616.9523"/>
<polygon fill="#f5f5f5" stroke="transparent" points="668,-654.4523 668,-677.4523 781,-677.4523 781,-654.4523 668,-654.4523"/>
<polygon fill="none" stroke="#000000" points="668,-654.4523 668,-677.4523 781,-677.4523 781,-654.4523 668,-654.4523"/>
<text text-anchor="start" x="673" y="-663.0523" font-family="Helvetica,sans-Serif" font-weight="bold" font-size="11.00" fill="#000000">documents</text>
<text text-anchor="start" x="746.5219" y="-662.5523" font-family="Helvetica,sans-Serif" font-size="11.00" fill="#000000">[table]</text>
<polygon fill="none" stroke="#000000" points="668,-635.4523 668,-654.4523 781,-654.4523 781,-635.4523 668,-635.4523"/>
<text text-anchor="start" x="671" y="-641.5523" font-family="Helvetica,sans-Serif" font-size="11.00" fill="#000000">...</text>
<polygon fill="#ffffff" stroke="transparent" points="668,-616.4523 668,-635.4523 718,-635.4523 718,-616.4523 668,-616.4523"/>
<polygon fill="none" stroke="#000000" points="668,-616.4523 668,-635.4523 718,-635.4523 718,-616.4523 668,-616.4523"/>
<text text-anchor="start" x="671" y="-622.5523" font-family="Helvetica,sans-Serif" font-size="11.00" fill="#000000">&lt; 4</text>
<polygon fill="#ffffff" stroke="transparent" points="718,-616.4523 718,-635.4523 745,-635.4523 745,-616.4523 718,-616.4523"/>
<polygon fill="none" stroke="#000000" points="718,-616.4523 718,-635.4523 745,-635.4523 745,-616.4523 718,-616.4523"/>
<text text-anchor="start" x="735.8862" y="-622.5523" font-family="Helvetica,sans-Serif" font-size="11.00" fill="#000000"> &#160;</text>
<polygon fill="#ffffff" stroke="transparent" points="745,-616.4523 745,-635.4523 781,-635.4523 781,-616.4523 745,-616.4523"/>
<polygon fill="none" stroke="#000000" points="745,-616.4523 745,-635.4523 781,-635.4523 781,-616.4523 745,-616.4523"/>
<text text-anchor="start" x="762.4053" y="-622.5523" font-family="Helvetica,sans-Serif" font-size="11.00" fill="#000000">4 &gt;</text>
</a>
</g>
</g>
<!-- patient_data -->
<g id="node2" class="node">
<title>patient_data</title>
<g id="a_node2"><a xlink:href="../../tables/patient_data.html" xlink:title="patient_data" target="_top">
<polygon fill="#ffffff" stroke="transparent" points="197,-616.9523 197,-677.9523 321,-677.9523 321,-616.9523 197,-616.9523"/>
<polygon fill="#f5f5f5" stroke="transparent" points="197,-654.4523 197,-677.4523 321,-677.4523 321,-654.4523 197,-654.4523"/>
<polygon fill="none" stroke="#000000" points="197,-654.4523 197,-677.4523 321,-677.4523 321,-654.4523 197,-654.4523"/>
<text text-anchor="start" x="202" y="-663.0523" font-family="Helvetica,sans-Serif" font-weight="bold" font-size="11.00" fill="#000000">patient_data</text>
<text text-anchor="start" x="286.5219" y="-662.5523" font-family="Helvetica,sans-Serif" font-size="11.00" fill="#000000">[table]</text>
<polygon fill="none" stroke="#000000" points="197,-635.4523 197,-654.4523 321,-654.4523 321,-635.4523 197,-635.4523"/>
<text text-anchor="start" x="200" y="-641.5523" font-family="Helvetica,sans-Serif" font-size="11.00" fill="#000000">...</text>
<polygon fill="#ffffff" stroke="transparent" points="197,-616.4523 197,-635.4523 250,-635.4523 250,-616.4523 197,-616.4523"/>
<polygon fill="none" stroke="#000000" points="197,-616.4523 197,-635.4523 250,-635.4523 250,-616.4523 197,-616.4523"/>
<text text-anchor="start" x="200" y="-622.5523" font-family="Helvetica,sans-Serif" font-size="11.00" fill="#000000">&lt; 9</text>
<polygon fill="#ffffff" stroke="transparent" points="250,-616.4523 250,-635.4523 278,-635.4523 278,-616.4523 250,-616.4523"/>
<polygon fill="none" stroke="#000000" points="250,-616.4523 250,-635.4523 278,-635.4523 278,-616.4523 250,-616.4523"/>
<text text-anchor="start" x="268.8862" y="-622.5523" font-family="Helvetica,sans-Serif" font-size="11.00" fill="#000000"> &#160;</text>
<polygon fill="#ffffff" stroke="transparent" points="278,-616.4523 278,-635.4523 321,-635.4523 321,-616.4523 278,-616.4523"/>
<polygon fill="none" stroke="#000000" points="278,-616.4523 278,-635.4523 321,-635.4523 321,-616.4523 278,-616.4523"/>
<text text-anchor="start" x="296.2904" y="-622.5523" font-family="Helvetica,sans-Serif" font-size="11.00" fill="#000000">95 &gt;</text>
</a>
</g>
</g>
<!-- documents&#45;&gt;patient_data -->
<g id="edge1" class="edge">
<title>documents:w&#45;&gt;patient_data:e</title>
<path fill="none" stroke="#000000" d="M653.4425,-644.4523C511.1726,-644.4523 470.2522,-644.4523 321,-644.4523"/>
<polygon fill="#000000" stroke="#000000" points="660,-644.4523 668,-648.0523 664,-644.4523 668,-644.4523 668,-644.4523 668,-644.4523 664,-644.4523 668,-640.8523 660,-644.4523 660,-644.4523"/>
<ellipse fill="none" stroke="#000000" cx="656.8" cy="-644.4524" rx="3.2" ry="3.2"/>
</g>
<!-- lists -->
<g id="node3" class="node">
<title>lists</title>
<g id="a_node3"><a xlink:href="../../tables/lists.html" xlink:title="lists" target="_top">
<polygon fill="#ffffff" stroke="transparent" points="394,-113.9523 394,-460.9523 536,-460.9523 536,-113.9523 394,-113.9523"/>
<polygon fill="#f5f5f5" stroke="transparent" points="394,-437.4523 394,-460.4523 536,-460.4523 536,-437.4523 394,-437.4523"/>
<polygon fill="none" stroke="#000000" points="394,-437.4523 394,-460.4523 536,-460.4523 536,-437.4523 394,-437.4523"/>
<text text-anchor="start" x="399" y="-446.0523" font-family="Helvetica,sans-Serif" font-weight="bold" font-size="11.00" fill="#000000">lists</text>
<text text-anchor="start" x="501.0437" y="-445.5523" font-family="Helvetica,sans-Serif" font-size="11.00" fill="#000000">[table]</text>
<polygon fill="none" stroke="#000000" points="394,-415.4523 394,-437.4523 536,-437.4523 536,-415.4523 394,-415.4523"/>
<image xlink:href="../../images/primaryKeys.png" width="11px" height="12px" preserveAspectRatio="xMinYMin meet" x="399" y="-432.452"/>
<text text-anchor="start" x="414" y="-422.5523" font-family="Helvetica,sans-Serif" font-size="11.00" fill="#000000">id</text>
<polygon fill="#ffffff" stroke="transparent" points="394,-393.4523 394,-415.4523 536,-415.4523 536,-393.4523 394,-393.4523"/>
<polygon fill="none" stroke="#000000" points="394,-393.4523 394,-415.4523 536,-415.4523 536,-393.4523 394,-393.4523"/>
<text text-anchor="start" x="414" y="-400.5523" font-family="Helvetica,sans-Serif" font-size="11.00" fill="#000000">uuid</text>
<polygon fill="#ffffff" stroke="transparent" points="394,-371.4523 394,-393.4523 536,-393.4523 536,-371.4523 394,-371.4523"/>
<polygon fill="none" stroke="#000000" points="394,-371.4523 394,-393.4523 536,-393.4523 536,-371.4523 394,-371.4523"/>
<image xlink:href="../../images/foreignKeys.png" width="11px" height="12px" preserveAspectRatio="xMinYMin meet" x="399" y="-388.452"/>
<text text-anchor="start" x="414" y="-378.5523" font-family="Helvetica,sans-Serif" font-size="11.00" fill="#000000">type</text>
<polygon fill="none" stroke="#000000" points="394,-349.4523 394,-371.4523 536,-371.4523 536,-349.4523 394,-349.4523"/>
<image xlink:href="../../images/foreignKeys.png" width="11px" height="12px" preserveAspectRatio="xMinYMin meet" x="399" y="-366.452"/>
<text text-anchor="start" x="414" y="-356.5523" font-family="Helvetica,sans-Serif" font-size="11.00" fill="#000000">subtype</text>
<polygon fill="none" stroke="#000000" points="394,-327.4523 394,-349.4523 536,-349.4523 536,-327.4523 394,-327.4523"/>
<image xlink:href="../../images/foreignKeys.png" width="11px" height="12px" preserveAspectRatio="xMinYMin meet" x="399" y="-344.452"/>
<text text-anchor="start" x="414" y="-334.5523" font-family="Helvetica,sans-Serif" font-size="11.00" fill="#000000">occurrence</text>
<polygon fill="#ffffff" stroke="transparent" points="394,-305.4523 394,-327.4523 536,-327.4523 536,-305.4523 394,-305.4523"/>
<polygon fill="none" stroke="#000000" points="394,-305.4523 394,-327.4523 536,-327.4523 536,-305.4523 394,-305.4523"/>
<image xlink:href="../../images/foreignKeys.png" width="11px" height="12px" preserveAspectRatio="xMinYMin meet" x="399" y="-322.452"/>
<text text-anchor="start" x="414" y="-312.5523" font-family="Helvetica,sans-Serif" font-size="11.00" fill="#000000">pid</text>
<polygon fill="none" stroke="#000000" points="394,-283.4523 394,-305.4523 536,-305.4523 536,-283.4523 394,-283.4523"/>
<image xlink:href="../../images/foreignKeys.png" width="11px" height="12px" preserveAspectRatio="xMinYMin meet" x="399" y="-300.452"/>
<text text-anchor="start" x="414" y="-290.5523" font-family="Helvetica,sans-Serif" font-size="11.00" fill="#000000">user</text>
<polygon fill="none" stroke="#000000" points="394,-261.4523 394,-283.4523 536,-283.4523 536,-261.4523 394,-261.4523"/>
<image xlink:href="../../images/foreignKeys.png" width="11px" height="12px" preserveAspectRatio="xMinYMin meet" x="399" y="-278.452"/>
<text text-anchor="start" x="414" y="-268.5523" font-family="Helvetica,sans-Serif" font-size="11.00" fill="#000000">groupname</text>
<polygon fill="none" stroke="#000000" points="394,-239.4523 394,-261.4523 536,-261.4523 536,-239.4523 394,-239.4523"/>
<image xlink:href="../../images/foreignKeys.png" width="11px" height="12px" preserveAspectRatio="xMinYMin meet" x="399" y="-256.452"/>
<text text-anchor="start" x="414" y="-246.5523" font-family="Helvetica,sans-Serif" font-size="11.00" fill="#000000">outcome</text>
<polygon fill="none" stroke="#000000" points="394,-217.4523 394,-239.4523 536,-239.4523 536,-217.4523 394,-217.4523"/>
<image xlink:href="../../images/foreignKeys.png" width="11px" height="12px" preserveAspectRatio="xMinYMin meet" x="399" y="-234.452"/>
<text text-anchor="start" x="414" y="-224.5523" font-family="Helvetica,sans-Serif" font-size="11.00" fill="#000000">reaction</text>
<polygon fill="none" stroke="#000000" points="394,-195.4523 394,-217.4523 536,-217.4523 536,-195.4523 394,-195.4523"/>
<image xlink:href="../../images/foreignKeys.png" width="11px" height="12px" preserveAspectRatio="xMinYMin meet" x="399" y="-212.452"/>
<text text-anchor="start" x="414" y="-202.5523" font-family="Helvetica,sans-Serif" font-size="11.00" fill="#000000">verification</text>
<polygon fill="none" stroke="#000000" points="394,-173.4523 394,-195.4523 536,-195.4523 536,-173.4523 394,-173.4523"/>
<image xlink:href="../../images/foreignKeys.png" width="11px" height="12px" preserveAspectRatio="xMinYMin meet" x="399" y="-190.452"/>
<text text-anchor="start" x="414" y="-180.5523" font-family="Helvetica,sans-Serif" font-size="11.00" fill="#000000">severity_al</text>
<polygon fill="none" stroke="#000000" points="394,-151.4523 394,-173.4523 536,-173.4523 536,-151.4523 394,-151.4523"/>
<image xlink:href="../../images/foreignKeys.png" width="11px" height="12px" preserveAspectRatio="xMinYMin meet" x="399" y="-168.452"/>
<text text-anchor="start" x="414" y="-158.5523" font-family="Helvetica,sans-Serif" font-size="11.00" fill="#000000">list_option_id</text>
<polygon fill="none" stroke="#000000" points="394,-132.4523 394,-151.4523 536,-151.4523 536,-132.4523 394,-132.4523"/>
<text text-anchor="start" x="397" y="-138.5523" font-family="Helvetica,sans-Serif" font-size="11.00" fill="#000000">...</text>
<polygon fill="#ffffff" stroke="transparent" points="394,-113.4523 394,-132.4523 462,-132.4523 462,-113.4523 394,-113.4523"/>
<polygon fill="none" stroke="#000000" points="394,-113.4523 394,-132.4523 462,-132.4523 462,-113.4523 394,-113.4523"/>
<text text-anchor="start" x="397" y="-119.5523" font-family="Helvetica,sans-Serif" font-size="11.00" fill="#000000">&lt; 11</text>
<polygon fill="#ffffff" stroke="transparent" points="462,-113.4523 462,-132.4523 494,-132.4523 494,-113.4523 462,-113.4523"/>
<polygon fill="none" stroke="#000000" points="462,-113.4523 462,-132.4523 494,-132.4523 494,-113.4523 462,-113.4523"/>
<text text-anchor="start" x="484.8862" y="-119.5523" font-family="Helvetica,sans-Serif" font-size="11.00" fill="#000000"> &#160;</text>
<polygon fill="#ffffff" stroke="transparent" points="494,-113.4523 494,-132.4523 536,-132.4523 536,-113.4523 494,-113.4523"/>
<polygon fill="none" stroke="#000000" points="494,-113.4523 494,-132.4523 536,-132.4523 536,-113.4523 494,-113.4523"/>
<text text-anchor="start" x="517.4053" y="-119.5523" font-family="Helvetica,sans-Serif" font-size="11.00" fill="#000000">5 &gt;</text>
</a>
</g>
</g>
<!-- documents&#45;&gt;lists -->
<g id="edge2" class="edge">
<title>documents:w&#45;&gt;lists:e</title>
<path fill="none" stroke="#000000" d="M653.3606,-643.3231C606.087,-635.432 605.6992,-587.4158 577,-538.4523 550.1952,-492.7207 589.0083,-426.4523 536,-426.4523"/>
<polygon fill="#000000" stroke="#000000" points="660.0237,-643.837 667.7231,-648.0416 664.0118,-644.1447 668,-644.4523 668,-644.4523 668,-644.4523 664.0118,-644.1447 668.2769,-640.8629 660.0237,-643.837 660.0237,-643.837"/>
<ellipse fill="none" stroke="#000000" cx="656.8332" cy="-643.5909" rx="3.2" ry="3.2"/>
</g>
<!-- users -->
<g id="node4" class="node">
<title>users</title>
<g id="a_node4"><a xlink:href="../../tables/users.html" xlink:title="users" target="_top">
<polygon fill="#ffffff" stroke="transparent" points="28.5,-680.9523 28.5,-741.9523 103.5,-741.9523 103.5,-680.9523 28.5,-680.9523"/>
<polygon fill="#f5f5f5" stroke="transparent" points="29,-718.4523 29,-741.4523 104,-741.4523 104,-718.4523 29,-718.4523"/>
<polygon fill="none" stroke="#000000" points="29,-718.4523 29,-741.4523 104,-741.4523 104,-718.4523 29,-718.4523"/>
<text text-anchor="start" x="34" y="-727.0523" font-family="Helvetica,sans-Serif" font-weight="bold" font-size="11.00" fill="#000000">users</text>
<text text-anchor="start" x="69.5219" y="-726.5523" font-family="Helvetica,sans-Serif" font-size="11.00" fill="#000000">[table]</text>
<polygon fill="none" stroke="#000000" points="29,-699.4523 29,-718.4523 104,-718.4523 104,-699.4523 29,-699.4523"/>
<text text-anchor="start" x="32" y="-705.5523" font-family="Helvetica,sans-Serif" font-size="11.00" fill="#000000">...</text>
<polygon fill="#ffffff" stroke="transparent" points="29,-680.4523 29,-699.4523 57,-699.4523 57,-680.4523 29,-680.4523"/>
<polygon fill="none" stroke="#000000" points="29,-680.4523 29,-699.4523 57,-699.4523 57,-680.4523 29,-680.4523"/>
<text text-anchor="start" x="32" y="-686.5523" font-family="Helvetica,sans-Serif" font-size="11.00" fill="#000000">&lt; 2</text>
<polygon fill="#ffffff" stroke="transparent" points="57,-680.4523 57,-699.4523 73,-699.4523 73,-680.4523 57,-680.4523"/>
<polygon fill="none" stroke="#000000" points="57,-680.4523 57,-699.4523 73,-699.4523 73,-680.4523 57,-680.4523"/>
<text text-anchor="start" x="63.8862" y="-686.5523" font-family="Helvetica,sans-Serif" font-size="11.00" fill="#000000"> &#160;</text>
<polygon fill="#ffffff" stroke="transparent" points="73,-680.4523 73,-699.4523 104,-699.4523 104,-680.4523 73,-680.4523"/>
<polygon fill="none" stroke="#000000" points="73,-680.4523 73,-699.4523 104,-699.4523 104,-680.4523 73,-680.4523"/>
<text text-anchor="start" x="79.2904" y="-686.5523" font-family="Helvetica,sans-Serif" font-size="11.00" fill="#000000">90 &gt;</text>
</a>
</g>
</g>
<!-- documents&#45;&gt;users -->
<g id="edge3" class="edge">
<title>documents:w&#45;&gt;users:e</title>
<path fill="none" stroke="#000000" d="M653.4639,-645.3877C614.1233,-650.8432 604.1835,-679.6223 577,-717.4523 552.1388,-752.0504 577.1307,-780.6667 544,-807.4523 510.6653,-834.4028 395.7608,-831.4449 353,-834.4523 269.6503,-840.3144 235.7945,-878.8333 165,-834.4523 112.2847,-801.4051 166.2175,-708.4523 104,-708.4523"/>
<polygon fill="#000000" stroke="#000000" points="660.0165,-644.9661 668.2312,-648.0449 664.0083,-644.7092 668,-644.4523 668,-644.4523 668,-644.4523 664.0083,-644.7092 667.7688,-640.8597 660.0165,-644.9661 660.0165,-644.9661"/>
<ellipse fill="none" stroke="#000000" cx="656.8231" cy="-645.1716" rx="3.2" ry="3.2"/>
</g>
<!-- patient_data&#45;&gt;users -->
<g id="edge34" class="edge">
<title>patient_data:w&#45;&gt;users:e</title>
<path fill="none" stroke="#000000" d="M183.3719,-639.1813C147.7246,-631.0603 149.0791,-685.0929 104,-708.4523"/>
<polygon fill="#000000" stroke="#000000" points="189.5386,-641.5664 195.7014,-647.8099 193.2693,-643.0094 197,-644.4523 197,-644.4523 197,-644.4523 193.2693,-643.0094 198.2986,-641.0947 189.5386,-641.5664 189.5386,-641.5664"/>
<ellipse fill="none" stroke="#000000" cx="186.5541" cy="-640.4121" rx="3.2" ry="3.2"/>
</g>
<!-- patient_data&#45;&gt;users -->
<g id="edge35" class="edge">
<title>patient_data:w&#45;&gt;users:e</title>
<path fill="none" stroke="#000000" d="M182.4503,-642.7826C147.7446,-644.8422 148.6871,-696.8742 104,-708.4523"/>
<polygon fill="#000000" stroke="#000000" points="189.0522,-643.5402 196.5895,-648.0288 193.0261,-643.9962 197,-644.4523 197,-644.4523 197,-644.4523 193.0261,-643.9962 197.4105,-640.8758 189.0522,-643.5402 189.0522,-643.5402"/>
<ellipse fill="none" stroke="#000000" cx="185.873" cy="-643.1753" rx="3.2" ry="3.2"/>
</g>
<!-- patient_data&#45;&gt;users -->
<g id="edge37" class="edge">
<title>patient_data:w&#45;&gt;users:e</title>
<path fill="none" stroke="#000000" d="M182.4503,-646.5817C147.7446,-657.6867 148.6871,-708.4523 104,-708.4523"/>
<polygon fill="#000000" stroke="#000000" points="189.0843,-645.6108 197.5213,-648.0143 193.0422,-645.0315 197,-644.4523 197,-644.4523 197,-644.4523 193.0422,-645.0315 196.4787,-640.8902 189.0843,-645.6108 189.0843,-645.6108"/>
<ellipse fill="none" stroke="#000000" cx="185.9181" cy="-646.0742" rx="3.2" ry="3.2"/>
</g>
<!-- patient_data&#45;&gt;users -->
<g id="edge38" class="edge">
<title>patient_data:w&#45;&gt;users:e</title>
<path fill="none" stroke="#000000" d="M183.3719,-649.8573C147.7246,-669.658 149.0791,-720.132 104,-708.4523"/>
<polygon fill="#000000" stroke="#000000" points="189.5635,-647.4017 198.3272,-647.7987 193.2818,-645.927 197,-644.4523 197,-644.4523 197,-644.4523 193.2818,-645.927 195.6728,-641.1059 189.5635,-647.4017 189.5635,-647.4017"/>
<ellipse fill="none" stroke="#000000" cx="186.5889" cy="-648.5815" rx="3.2" ry="3.2"/>
</g>
<!-- patient_data&#45;&gt;users -->
<g id="edge41" class="edge">
<title>patient_data:w&#45;&gt;users:e</title>
<path fill="none" stroke="#000000" d="M184.7858,-652.2875C147.6814,-681.2258 149.6671,-732.1163 104,-708.4523"/>
<polygon fill="#000000" stroke="#000000" points="190.2664,-648.7718 198.9438,-647.4824 193.6332,-646.6121 197,-644.4523 197,-644.4523 197,-644.4523 193.6332,-646.6121 195.0562,-641.4221 190.2664,-648.7718 190.2664,-648.7718"/>
<ellipse fill="none" stroke="#000000" cx="187.5729" cy="-650.4996" rx="3.2" ry="3.2"/>
</g>
<!-- list_options -->
<g id="node8" class="node">
<title>list_options</title>
<g id="a_node8"><a xlink:href="../../tables/list_options.html" xlink:title="list_options" target="_top">
<polygon fill="#ffffff" stroke="transparent" points="8,-156.9523 8,-217.9523 124,-217.9523 124,-156.9523 8,-156.9523"/>
<polygon fill="#f5f5f5" stroke="transparent" points="8,-194.4523 8,-217.4523 124,-217.4523 124,-194.4523 8,-194.4523"/>
<polygon fill="none" stroke="#000000" points="8,-194.4523 8,-217.4523 124,-217.4523 124,-194.4523 8,-194.4523"/>
<text text-anchor="start" x="13" y="-203.0523" font-family="Helvetica,sans-Serif" font-weight="bold" font-size="11.00" fill="#000000">list_options</text>
<text text-anchor="start" x="89.5219" y="-202.5523" font-family="Helvetica,sans-Serif" font-size="11.00" fill="#000000">[table]</text>
<polygon fill="none" stroke="#000000" points="8,-175.4523 8,-194.4523 124,-194.4523 124,-175.4523 8,-175.4523"/>
<text text-anchor="start" x="11" y="-181.5523" font-family="Helvetica,sans-Serif" font-size="11.00" fill="#000000">...</text>
<polygon fill="#ffffff" stroke="transparent" points="8,-156.4523 8,-175.4523 52,-175.4523 52,-156.4523 8,-156.4523"/>
<polygon fill="none" stroke="#000000" points="8,-156.4523 8,-175.4523 52,-175.4523 52,-156.4523 8,-156.4523"/>
<text text-anchor="start" x="11" y="-162.5523" font-family="Helvetica,sans-Serif" font-size="11.00" fill="#000000"> &#160;</text>
<polygon fill="#ffffff" stroke="transparent" points="52,-156.4523 52,-175.4523 80,-175.4523 80,-156.4523 52,-156.4523"/>
<polygon fill="none" stroke="#000000" points="52,-156.4523 52,-175.4523 80,-175.4523 80,-156.4523 52,-156.4523"/>
<text text-anchor="start" x="70.8862" y="-162.5523" font-family="Helvetica,sans-Serif" font-size="11.00" fill="#000000"> &#160;</text>
<polygon fill="#ffffff" stroke="transparent" points="80,-156.4523 80,-175.4523 124,-175.4523 124,-156.4523 80,-156.4523"/>
<polygon fill="none" stroke="#000000" points="80,-156.4523 80,-175.4523 124,-175.4523 124,-156.4523 80,-156.4523"/>
<text text-anchor="start" x="99.2904" y="-162.5523" font-family="Helvetica,sans-Serif" font-size="11.00" fill="#000000">98 &gt;</text>
</a>
</g>
</g>
<!-- patient_data&#45;&gt;list_options -->
<g id="edge36" class="edge">
<title>patient_data:w&#45;&gt;list_options:e</title>
<path fill="none" stroke="#000000" d="M185.3976,-635.5476C173.816,-623.6317 171.7606,-608.8014 165,-592.4523 147.0401,-549.0201 170.9991,-171.4523 124,-184.4523"/>
<polygon fill="#000000" stroke="#000000" points="190.6537,-639.5815 194.8082,-647.3081 193.8268,-642.0169 197,-644.4523 197,-644.4523 197,-644.4523 193.8268,-642.0169 199.1918,-641.5964 190.6537,-639.5815 190.6537,-639.5815"/>
<ellipse fill="none" stroke="#000000" cx="188.1151" cy="-637.6332" rx="3.2" ry="3.2"/>
</g>
<!-- patient_data&#45;&gt;list_options -->
<g id="edge39" class="edge">
<title>patient_data:w&#45;&gt;list_options:e</title>
<path fill="none" stroke="#000000" d="M182.8178,-640.6758C173.4609,-634.2729 171.2251,-620.5065 165,-605.4523 147.0401,-562.0201 170.9991,-184.4523 124,-184.4523"/>
<polygon fill="#000000" stroke="#000000" points="189.2694,-642.3937 196.0736,-647.9311 193.1347,-643.423 197,-644.4523 197,-644.4523 197,-644.4523 193.1347,-643.423 197.9264,-640.9735 189.2694,-642.3937 189.2694,-642.3937"/>
<ellipse fill="none" stroke="#000000" cx="186.1771" cy="-641.5703" rx="3.2" ry="3.2"/>
</g>
<!-- patient_data&#45;&gt;list_options -->
<g id="edge40" class="edge">
<title>patient_data:w&#45;&gt;list_options:e</title>
<path fill="none" stroke="#000000" d="M183.1221,-648.7311C173.5085,-647.5688 171.2921,-633.6683 165,-618.4523 147.0401,-575.0201 170.9991,-197.4523 124,-184.4523"/>
<polygon fill="#000000" stroke="#000000" points="189.3551,-646.8094 198.0607,-647.8925 193.1776,-645.6308 197,-644.4523 197,-644.4523 197,-644.4523 193.1776,-645.6308 195.9393,-641.0121 189.3551,-646.8094 189.3551,-646.8094"/>
<ellipse fill="none" stroke="#000000" cx="186.2972" cy="-647.7522" rx="3.2" ry="3.2"/>
</g>
<!-- lists&#45;&gt;patient_data -->
<g id="edge16" class="edge">
<title>lists:w&#45;&gt;patient_data:e</title>
<path fill="none" stroke="#000000" d="M380.2497,-320.8669C336.8196,-352.978 376.9546,-550.939 353,-605.4523 343.9799,-625.9792 343.4213,-644.4523 321,-644.4523"/>
<polygon fill="#000000" stroke="#000000" points="386.3829,-318.8978 395.1005,-319.88 390.1915,-317.6751 394,-316.4523 394,-316.4523 394,-316.4523 390.1915,-317.6751 392.8995,-313.0246 386.3829,-318.8978 386.3829,-318.8978"/>
<ellipse fill="none" stroke="#000000" cx="383.3361" cy="-319.876" rx="3.2" ry="3.2"/>
</g>
<!-- lists&#45;&gt;users -->
<g id="edge21" class="edge">
<title>lists:w&#45;&gt;users:e</title>
<path fill="none" stroke="#000000" d="M379.3577,-294.1387C286.487,-290.1899 235.5522,-251.3915 165,-318.4523 101.4191,-378.8868 191.7204,-708.4523 104,-708.4523"/>
<polygon fill="#000000" stroke="#000000" points="386.0018,-294.2809 393.9229,-298.0515 390.0009,-294.3666 394,-294.4523 394,-294.4523 394,-294.4523 390.0009,-294.3666 394.0771,-290.8531 386.0018,-294.2809 386.0018,-294.2809"/>
<ellipse fill="none" stroke="#000000" cx="382.8026" cy="-294.2124" rx="3.2" ry="3.2"/>
</g>
<!-- groups -->
<g id="node7" class="node">
<title>groups</title>
<g id="a_node7"><a xlink:href="../../tables/groups.html" xlink:title="groups" target="_top">
<polygon fill="#ffffff" stroke="transparent" points="216,-738.9523 216,-799.9523 302,-799.9523 302,-738.9523 216,-738.9523"/>
<polygon fill="#f5f5f5" stroke="transparent" points="216,-776.4523 216,-799.4523 302,-799.4523 302,-776.4523 216,-776.4523"/>
<polygon fill="none" stroke="#000000" points="216,-776.4523 216,-799.4523 302,-799.4523 302,-776.4523 216,-776.4523"/>
<text text-anchor="start" x="221" y="-785.0523" font-family="Helvetica,sans-Serif" font-weight="bold" font-size="11.00" fill="#000000">groups</text>
<text text-anchor="start" x="267.5219" y="-784.5523" font-family="Helvetica,sans-Serif" font-size="11.00" fill="#000000">[table]</text>
<polygon fill="none" stroke="#000000" points="216,-757.4523 216,-776.4523 302,-776.4523 302,-757.4523 216,-757.4523"/>
<text text-anchor="start" x="219" y="-763.5523" font-family="Helvetica,sans-Serif" font-size="11.00" fill="#000000">...</text>
<polygon fill="#ffffff" stroke="transparent" points="216,-738.4523 216,-757.4523 250,-757.4523 250,-738.4523 216,-738.4523"/>
<polygon fill="none" stroke="#000000" points="216,-738.4523 216,-757.4523 250,-757.4523 250,-738.4523 216,-738.4523"/>
<text text-anchor="start" x="219" y="-744.5523" font-family="Helvetica,sans-Serif" font-size="11.00" fill="#000000">&lt; 1</text>
<polygon fill="#ffffff" stroke="transparent" points="250,-738.4523 250,-757.4523 268,-757.4523 268,-738.4523 250,-738.4523"/>
<polygon fill="none" stroke="#000000" points="250,-738.4523 250,-757.4523 268,-757.4523 268,-738.4523 250,-738.4523"/>
<text text-anchor="start" x="258.8862" y="-744.5523" font-family="Helvetica,sans-Serif" font-size="11.00" fill="#000000"> &#160;</text>
<polygon fill="#ffffff" stroke="transparent" points="268,-738.4523 268,-757.4523 302,-757.4523 302,-738.4523 268,-738.4523"/>
<polygon fill="none" stroke="#000000" points="268,-738.4523 268,-757.4523 302,-757.4523 302,-738.4523 268,-738.4523"/>
<text text-anchor="start" x="277.2904" y="-744.5523" font-family="Helvetica,sans-Serif" font-size="11.00" fill="#000000">17 &gt;</text>
</a>
</g>
</g>
<!-- lists&#45;&gt;groups -->
<g id="edge12" class="edge">
<title>lists:w&#45;&gt;groups:e</title>
<path fill="none" stroke="#000000" d="M382.6267,-281.6887C351.1491,-339.3521 366.9838,-648.7512 353,-688.4523 339.2397,-727.519 343.4193,-766.4523 302,-766.4523"/>
<polygon fill="#000000" stroke="#000000" points="387.7899,-277.4956 396.2695,-275.2468 390.895,-274.9739 394,-272.4523 394,-272.4523 394,-272.4523 390.895,-274.9739 391.7305,-269.6577 387.7899,-277.4956 387.7899,-277.4956"/>
<ellipse fill="none" stroke="#000000" cx="385.3059" cy="-279.5129" rx="3.2" ry="3.2"/>
</g>
<!-- lists&#45;&gt;list_options -->
<g id="edge13" class="edge">
<title>lists:w&#45;&gt;list_options:e</title>
<path fill="none" stroke="#000000" d="M379.994,-158.0142C371.2499,-151.1677 368.2883,-138.3127 353,-133.4523 273.3716,-108.1373 240.352,-97.3469 165,-133.4523 138.7723,-146.0195 153.0831,-184.4523 124,-184.4523"/>
<polygon fill="#000000" stroke="#000000" points="386.3737,-160.0357 392.9125,-165.8841 390.1869,-161.244 394,-162.4523 394,-162.4523 394,-162.4523 390.1869,-161.244 395.0875,-159.0205 386.3737,-160.0357 386.3737,-160.0357"/>
<ellipse fill="none" stroke="#000000" cx="383.3232" cy="-159.0691" rx="3.2" ry="3.2"/>
</g>
<!-- lists&#45;&gt;list_options -->
<g id="edge14" class="edge">
<title>lists:w&#45;&gt;list_options:e</title>
<path fill="none" stroke="#000000" d="M379.774,-334.1251C365.0401,-321.6446 377.2432,-285.3939 353,-268.4523 283.3996,-219.8143 238.1996,-277.4837 165,-234.4523 140.2257,-219.8883 152.7381,-184.4523 124,-184.4523"/>
<polygon fill="#000000" stroke="#000000" points="386.3462,-336.1242 392.9524,-341.8965 390.1731,-337.2882 394,-338.4523 394,-338.4523 394,-338.4523 390.1731,-337.2882 395.0476,-335.0081 386.3462,-336.1242 386.3462,-336.1242"/>
<ellipse fill="none" stroke="#000000" cx="383.2847" cy="-335.1929" rx="3.2" ry="3.2"/>
</g>
<!-- lists&#45;&gt;list_options -->
<g id="edge15" class="edge">
<title>lists:w&#45;&gt;list_options:e</title>
<path fill="none" stroke="#000000" d="M379.6801,-247.9375C371.2874,-244.5991 365.9275,-238.7434 353,-235.4523 271.1342,-214.6105 244.9316,-234.7898 165,-207.4523 145.2306,-200.6909 144.8936,-184.4523 124,-184.4523"/>
<polygon fill="#000000" stroke="#000000" points="386.1206,-249.0685 393.3773,-253.998 390.0603,-249.7604 394,-250.4523 394,-250.4523 394,-250.4523 390.0603,-249.7604 394.6227,-246.9065 386.1206,-249.0685 386.1206,-249.0685"/>
<ellipse fill="none" stroke="#000000" cx="382.9688" cy="-248.515" rx="3.2" ry="3.2"/>
</g>
<!-- lists&#45;&gt;list_options -->
<g id="edge17" class="edge">
<title>lists:w&#45;&gt;list_options:e</title>
<path fill="none" stroke="#000000" d="M379.7153,-225.0954C371.2779,-220.4883 366.5516,-212.3364 353,-208.4523 254.6257,-180.2566 226.3352,-184.4523 124,-184.4523"/>
<polygon fill="#000000" stroke="#000000" points="386.2122,-226.6221 393.1764,-231.9568 390.1061,-227.5372 394,-228.4523 394,-228.4523 394,-228.4523 390.1061,-227.5372 394.8236,-224.9478 386.2122,-226.6221 386.2122,-226.6221"/>
<ellipse fill="none" stroke="#000000" cx="383.097" cy="-225.89" rx="3.2" ry="3.2"/>
</g>
<!-- lists&#45;&gt;list_options -->
<g id="edge18" class="edge">
<title>lists:w&#45;&gt;list_options:e</title>
<path fill="none" stroke="#000000" d="M380.0801,-180.5803C371.4266,-174.8539 367.488,-164.3809 353,-160.4523 272.3567,-138.5849 245.6433,-138.5849 165,-160.4523 144.6213,-165.9782 145.1146,-184.4523 124,-184.4523"/>
<polygon fill="#000000" stroke="#000000" points="386.2926,-182.3083 393.0352,-187.9206 390.1463,-183.3803 394,-184.4523 394,-184.4523 394,-184.4523 390.1463,-183.3803 394.9648,-180.984 386.2926,-182.3083 386.2926,-182.3083"/>
<ellipse fill="none" stroke="#000000" cx="383.2097" cy="-181.4508" rx="3.2" ry="3.2"/>
</g>
<!-- lists&#45;&gt;list_options -->
<g id="edge19" class="edge">
<title>lists:w&#45;&gt;list_options:e</title>
<path fill="none" stroke="#000000" d="M380.0388,-356.0611C369.7483,-347.5436 369.8952,-328.7161 353,-318.4523 278.3789,-273.1202 232.4526,-316.891 165,-261.4523 135.0472,-236.8344 162.7713,-184.4523 124,-184.4523"/>
<polygon fill="#000000" stroke="#000000" points="386.3686,-358.052 392.9199,-363.8864 390.1843,-359.2521 394,-360.4523 394,-360.4523 394,-360.4523 390.1843,-359.2521 395.0801,-357.0181 386.3686,-358.052 386.3686,-358.052"/>
<ellipse fill="none" stroke="#000000" cx="383.316" cy="-357.0918" rx="3.2" ry="3.2"/>
</g>
<!-- lists&#45;&gt;list_options -->
<g id="edge22" class="edge">
<title>lists:w&#45;&gt;list_options:e</title>
<path fill="none" stroke="#000000" d="M380.0103,-202.4215C371.3808,-196.4598 367.6081,-185.5547 353,-181.4523 272.5564,-158.8611 248.4998,-178.4015 165,-181.4523 146.7412,-182.1194 142.2709,-184.4523 124,-184.4523"/>
<polygon fill="#000000" stroke="#000000" points="386.3127,-204.2374 393.0033,-209.9116 390.1564,-205.3448 394,-206.4523 394,-206.4523 394,-206.4523 390.1564,-205.3448 394.9967,-202.993 386.3127,-204.2374 386.3127,-204.2374"/>
<ellipse fill="none" stroke="#000000" cx="383.2378" cy="-203.3514" rx="3.2" ry="3.2"/>
</g>
<!-- issue_types -->
<g id="node9" class="node">
<title>issue_types</title>
<g id="a_node9"><a xlink:href="../../tables/issue_types.html" xlink:title="issue_types" target="_top">
<polygon fill="#ffffff" stroke="transparent" points="173,-329.4523 173,-595.4523 345,-595.4523 345,-329.4523 173,-329.4523"/>
<polygon fill="#f5f5f5" stroke="transparent" points="175,-570.4523 175,-593.4523 343,-593.4523 343,-570.4523 175,-570.4523"/>
<polygon fill="none" stroke="#000000" points="175,-570.4523 175,-593.4523 343,-593.4523 343,-570.4523 175,-570.4523"/>
<text text-anchor="start" x="180" y="-579.0523" font-family="Helvetica,sans-Serif" font-weight="bold" font-size="11.00" fill="#000000">issue_types</text>
<text text-anchor="start" x="308.0437" y="-578.5523" font-family="Helvetica,sans-Serif" font-size="11.00" fill="#000000">[table]</text>
<polygon fill="none" stroke="#000000" points="175,-548.4523 175,-570.4523 282,-570.4523 282,-548.4523 175,-548.4523"/>
<text text-anchor="start" x="195" y="-555.5523" font-family="Helvetica,sans-Serif" font-size="11.00" fill="#000000">active</text>
<polygon fill="none" stroke="#000000" points="282,-548.4523 282,-570.4523 343,-570.4523 343,-548.4523 282,-548.4523"/>
<text text-anchor="start" x="285" y="-556.1523" font-family="Helvetica,sans-Serif" font-size="11.00" fill="#000000">boolean[3]</text>
<polygon fill="none" stroke="#000000" points="175,-526.4523 175,-548.4523 282,-548.4523 282,-526.4523 175,-526.4523"/>
<image xlink:href="../../images/primaryKeys.png" width="11px" height="12px" preserveAspectRatio="xMinYMin meet" x="180" y="-543.452"/>
<text text-anchor="start" x="195" y="-533.5523" font-family="Helvetica,sans-Serif" font-size="11.00" fill="#000000">category</text>
<polygon fill="none" stroke="#000000" points="282,-526.4523 282,-548.4523 343,-548.4523 343,-526.4523 282,-526.4523"/>
<text text-anchor="start" x="284.994" y="-534.1523" font-family="Helvetica,sans-Serif" font-size="11.00" fill="#000000">varchar[75]</text>
<polygon fill="none" stroke="#000000" points="175,-504.4523 175,-526.4523 282,-526.4523 282,-504.4523 175,-504.4523"/>
<image xlink:href="../../images/primaryKeys.png" width="11px" height="12px" preserveAspectRatio="xMinYMin meet" x="180" y="-521.452"/>
<text text-anchor="start" x="195" y="-511.5523" font-family="Helvetica,sans-Serif" font-size="11.00" fill="#000000">type</text>
<polygon fill="none" stroke="#000000" points="282,-504.4523 282,-526.4523 343,-526.4523 343,-504.4523 282,-504.4523"/>
<text text-anchor="start" x="284.994" y="-512.1523" font-family="Helvetica,sans-Serif" font-size="11.00" fill="#000000">varchar[75]</text>
<polygon fill="none" stroke="#000000" points="175,-482.4523 175,-504.4523 282,-504.4523 282,-482.4523 175,-482.4523"/>
<text text-anchor="start" x="195" y="-489.5523" font-family="Helvetica,sans-Serif" font-size="11.00" fill="#000000">plural</text>
<polygon fill="none" stroke="#000000" points="282,-482.4523 282,-504.4523 343,-504.4523 343,-482.4523 282,-482.4523"/>
<text text-anchor="start" x="284.994" y="-490.1523" font-family="Helvetica,sans-Serif" font-size="11.00" fill="#000000">varchar[75]</text>
<polygon fill="none" stroke="#000000" points="175,-460.4523 175,-482.4523 282,-482.4523 282,-460.4523 175,-460.4523"/>
<text text-anchor="start" x="195" y="-467.5523" font-family="Helvetica,sans-Serif" font-size="11.00" fill="#000000">singular</text>
<polygon fill="none" stroke="#000000" points="282,-460.4523 282,-482.4523 343,-482.4523 343,-460.4523 282,-460.4523"/>
<text text-anchor="start" x="284.994" y="-468.1523" font-family="Helvetica,sans-Serif" font-size="11.00" fill="#000000">varchar[75]</text>
<polygon fill="none" stroke="#000000" points="175,-438.4523 175,-460.4523 282,-460.4523 282,-438.4523 175,-438.4523"/>
<text text-anchor="start" x="195" y="-445.5523" font-family="Helvetica,sans-Serif" font-size="11.00" fill="#000000">abbreviation</text>
<polygon fill="none" stroke="#000000" points="282,-438.4523 282,-460.4523 343,-460.4523 343,-438.4523 282,-438.4523"/>
<text text-anchor="start" x="284.994" y="-446.1523" font-family="Helvetica,sans-Serif" font-size="11.00" fill="#000000">varchar[75]</text>
<polygon fill="none" stroke="#000000" points="175,-416.4523 175,-438.4523 282,-438.4523 282,-416.4523 175,-416.4523"/>
<text text-anchor="start" x="195" y="-423.5523" font-family="Helvetica,sans-Serif" font-size="11.00" fill="#000000">style</text>
<polygon fill="none" stroke="#000000" points="282,-416.4523 282,-438.4523 343,-438.4523 343,-416.4523 282,-416.4523"/>
<text text-anchor="start" x="285" y="-424.1523" font-family="Helvetica,sans-Serif" font-size="11.00" fill="#000000">smallint[5]</text>
<polygon fill="none" stroke="#000000" points="175,-394.4523 175,-416.4523 282,-416.4523 282,-394.4523 175,-394.4523"/>
<text text-anchor="start" x="195" y="-401.5523" font-family="Helvetica,sans-Serif" font-size="11.00" fill="#000000">force_show</text>
<polygon fill="none" stroke="#000000" points="282,-394.4523 282,-416.4523 343,-416.4523 343,-394.4523 282,-394.4523"/>
<text text-anchor="start" x="285" y="-402.1523" font-family="Helvetica,sans-Serif" font-size="11.00" fill="#000000">smallint[5]</text>
<polygon fill="none" stroke="#000000" points="175,-372.4523 175,-394.4523 282,-394.4523 282,-372.4523 175,-372.4523"/>
<text text-anchor="start" x="195" y="-379.5523" font-family="Helvetica,sans-Serif" font-size="11.00" fill="#000000">ordering</text>
<polygon fill="none" stroke="#000000" points="282,-372.4523 282,-394.4523 343,-394.4523 343,-372.4523 282,-372.4523"/>
<text text-anchor="start" x="285" y="-380.1523" font-family="Helvetica,sans-Serif" font-size="11.00" fill="#000000">int[10]</text>
<polygon fill="none" stroke="#000000" points="175,-350.4523 175,-372.4523 282,-372.4523 282,-350.4523 175,-350.4523"/>
<text text-anchor="start" x="195" y="-357.5523" font-family="Helvetica,sans-Serif" font-size="11.00" fill="#000000">aco_spec</text>
<polygon fill="none" stroke="#000000" points="282,-350.4523 282,-372.4523 343,-372.4523 343,-350.4523 282,-350.4523"/>
<text text-anchor="start" x="284.994" y="-358.1523" font-family="Helvetica,sans-Serif" font-size="11.00" fill="#000000">varchar[63]</text>
<polygon fill="#ffffff" stroke="transparent" points="175,-331.4523 175,-350.4523 233,-350.4523 233,-331.4523 175,-331.4523"/>
<polygon fill="none" stroke="#000000" points="175,-331.4523 175,-350.4523 233,-350.4523 233,-331.4523 175,-331.4523"/>
<text text-anchor="start" x="178" y="-337.5523" font-family="Helvetica,sans-Serif" font-size="11.00" fill="#000000">&lt; 0</text>
<polygon fill="#ffffff" stroke="transparent" points="233,-331.4523 233,-350.4523 282,-350.4523 282,-331.4523 233,-331.4523"/>
<polygon fill="none" stroke="#000000" points="233,-331.4523 233,-350.4523 282,-350.4523 282,-331.4523 233,-331.4523"/>
<text text-anchor="start" x="272.8862" y="-337.5523" font-family="Helvetica,sans-Serif" font-size="11.00" fill="#000000"> &#160;</text>
<polygon fill="#ffffff" stroke="transparent" points="282,-331.4523 282,-350.4523 343,-350.4523 343,-331.4523 282,-331.4523"/>
<polygon fill="none" stroke="#000000" points="282,-331.4523 282,-350.4523 343,-350.4523 343,-331.4523 282,-331.4523"/>
<text text-anchor="start" x="324.4053" y="-337.5523" font-family="Helvetica,sans-Serif" font-size="11.00" fill="#000000">1 &gt;</text>
<polygon fill="none" stroke="#000000" stroke-width="2" points="174,-330.4523 174,-594.4523 344,-594.4523 344,-330.4523 174,-330.4523"/>
</a>
</g>
</g>
<!-- lists&#45;&gt;issue_types -->
<g id="edge20" class="edge">
<title>lists:w&#45;&gt;issue_types:e</title>
<path fill="none" stroke="#000000" d="M379.6287,-385.7399C343.649,-406.2208 400.3729,-515.4523 343,-515.4523"/>
<polygon fill="#000000" stroke="#000000" points="386.2015,-384.2364 394.8028,-385.9616 390.1007,-383.3443 394,-382.4523 394,-382.4523 394,-382.4523 390.1007,-383.3443 393.1972,-378.9429 386.2015,-384.2364 386.2015,-384.2364"/>
<ellipse fill="none" stroke="#000000" cx="383.082" cy="-384.95" rx="3.2" ry="3.2"/>
</g>
<!-- form_history_sdoh_health_concerns -->
<g id="node5" class="node">
<title>form_history_sdoh_health_concerns</title>
<g id="a_node5"><a xlink:href="../../tables/form_history_sdoh_health_concerns.html" xlink:title="form_history_sdoh_health_concerns" target="_top">
<polygon fill="#ffffff" stroke="transparent" points="585,-466.9523 585,-527.9523 863,-527.9523 863,-466.9523 585,-466.9523"/>
<polygon fill="#f5f5f5" stroke="transparent" points="585,-504.4523 585,-527.4523 863,-527.4523 863,-504.4523 585,-504.4523"/>
<polygon fill="none" stroke="#000000" points="585,-504.4523 585,-527.4523 863,-527.4523 863,-504.4523 585,-504.4523"/>
<text text-anchor="start" x="590" y="-513.0523" font-family="Helvetica,sans-Serif" font-weight="bold" font-size="11.00" fill="#000000">form_history_sdoh_health_concerns</text>
<text text-anchor="start" x="828.5219" y="-512.5523" font-family="Helvetica,sans-Serif" font-size="11.00" fill="#000000">[table]</text>
<polygon fill="none" stroke="#000000" points="585,-485.4523 585,-504.4523 863,-504.4523 863,-485.4523 585,-485.4523"/>
<text text-anchor="start" x="588" y="-491.5523" font-family="Helvetica,sans-Serif" font-size="11.00" fill="#000000">...</text>
<polygon fill="#ffffff" stroke="transparent" points="585,-466.4523 585,-485.4523 722,-485.4523 722,-466.4523 585,-466.4523"/>
<polygon fill="none" stroke="#000000" points="585,-466.4523 585,-485.4523 722,-485.4523 722,-466.4523 585,-466.4523"/>
<text text-anchor="start" x="588" y="-472.5523" font-family="Helvetica,sans-Serif" font-size="11.00" fill="#000000">&lt; 3</text>
<polygon fill="#ffffff" stroke="transparent" points="722,-466.4523 722,-485.4523 792,-485.4523 792,-466.4523 722,-466.4523"/>
<polygon fill="none" stroke="#000000" points="722,-466.4523 722,-485.4523 792,-485.4523 792,-466.4523 722,-466.4523"/>
<text text-anchor="start" x="782.8862" y="-472.5523" font-family="Helvetica,sans-Serif" font-size="11.00" fill="#000000"> &#160;</text>
<polygon fill="#ffffff" stroke="transparent" points="792,-466.4523 792,-485.4523 863,-485.4523 863,-466.4523 792,-466.4523"/>
<polygon fill="none" stroke="#000000" points="792,-466.4523 792,-485.4523 863,-485.4523 863,-466.4523 792,-466.4523"/>
<text text-anchor="start" x="853.8862" y="-472.5523" font-family="Helvetica,sans-Serif" font-size="11.00" fill="#000000"> &#160;</text>
</a>
</g>
</g>
<!-- form_history_sdoh_health_concerns&#45;&gt;lists -->
<g id="edge5" class="edge">
<title>form_history_sdoh_health_concerns:w&#45;&gt;lists:e</title>
<path fill="none" stroke="#000000" d="M571.1785,-489.5619C554.4277,-473.9701 567.1397,-426.4523 536,-426.4523"/>
<polygon fill="#000000" stroke="#000000" points="577.4582,-491.7838 583.7992,-497.8461 581.2291,-493.118 585,-494.4523 585,-494.4523 585,-494.4523 581.2291,-493.118 586.2008,-491.0585 577.4582,-491.7838 577.4582,-491.7838"/>
<ellipse fill="none" stroke="#000000" cx="574.4414" cy="-490.7164" rx="3.2" ry="3.2"/>
</g>
<!-- form_history_sdoh_health_concerns&#45;&gt;users -->
<g id="edge4" class="edge">
<title>form_history_sdoh_health_concerns:w&#45;&gt;users:e</title>
<path fill="none" stroke="#000000" d="M571.5362,-500.3656C541.2867,-532.683 572.5497,-687.823 544,-724.4523 490.9084,-792.5691 240.1226,-853.0576 165,-810.4523 119.0534,-784.394 156.8216,-708.4523 104,-708.4523"/>
<polygon fill="#000000" stroke="#000000" points="577.6753,-497.6693 586.4477,-497.7484 581.3377,-496.0608 585,-494.4523 585,-494.4523 585,-494.4523 581.3377,-496.0608 583.5523,-491.1562 577.6753,-497.6693 577.6753,-497.6693"/>
<ellipse fill="none" stroke="#000000" cx="574.7454" cy="-498.9561" rx="3.2" ry="3.2"/>
</g>
<!-- forms -->
<g id="node6" class="node">
<title>forms</title>
<g id="a_node6"><a xlink:href="../../tables/forms.html" xlink:title="forms" target="_top">
<polygon fill="#ffffff" stroke="transparent" points="685,-823.9523 685,-884.9523 763,-884.9523 763,-823.9523 685,-823.9523"/>
<polygon fill="#f5f5f5" stroke="transparent" points="685,-861.4523 685,-884.4523 763,-884.4523 763,-861.4523 685,-861.4523"/>
<polygon fill="none" stroke="#000000" points="685,-861.4523 685,-884.4523 763,-884.4523 763,-861.4523 685,-861.4523"/>
<text text-anchor="start" x="690" y="-870.0523" font-family="Helvetica,sans-Serif" font-weight="bold" font-size="11.00" fill="#000000">forms</text>
<text text-anchor="start" x="728.5219" y="-869.5523" font-family="Helvetica,sans-Serif" font-size="11.00" fill="#000000">[table]</text>
<polygon fill="none" stroke="#000000" points="685,-842.4523 685,-861.4523 763,-861.4523 763,-842.4523 685,-842.4523"/>
<text text-anchor="start" x="688" y="-848.5523" font-family="Helvetica,sans-Serif" font-size="11.00" fill="#000000">...</text>
<polygon fill="#ffffff" stroke="transparent" points="685,-823.4523 685,-842.4523 715,-842.4523 715,-823.4523 685,-823.4523"/>
<polygon fill="none" stroke="#000000" points="685,-823.4523 685,-842.4523 715,-842.4523 715,-823.4523 685,-823.4523"/>
<text text-anchor="start" x="688" y="-829.5523" font-family="Helvetica,sans-Serif" font-size="11.00" fill="#000000">&lt; 6</text>
<polygon fill="#ffffff" stroke="transparent" points="715,-823.4523 715,-842.4523 731,-842.4523 731,-823.4523 715,-823.4523"/>
<polygon fill="none" stroke="#000000" points="715,-823.4523 715,-842.4523 731,-842.4523 731,-823.4523 715,-823.4523"/>
<text text-anchor="start" x="721.8862" y="-829.5523" font-family="Helvetica,sans-Serif" font-size="11.00" fill="#000000"> &#160;</text>
<polygon fill="#ffffff" stroke="transparent" points="731,-823.4523 731,-842.4523 763,-842.4523 763,-823.4523 731,-823.4523"/>
<polygon fill="none" stroke="#000000" points="731,-823.4523 731,-842.4523 763,-842.4523 763,-823.4523 731,-823.4523"/>
<text text-anchor="start" x="738.2904" y="-829.5523" font-family="Helvetica,sans-Serif" font-size="11.00" fill="#000000">14 &gt;</text>
</a>
</g>
</g>
<!-- forms&#45;&gt;patient_data -->
<g id="edge8" class="edge">
<title>forms:w&#45;&gt;patient_data:e</title>
<path fill="none" stroke="#000000" d="M670.3629,-850.659C629.8688,-845.971 619.6783,-821.3485 577,-799.4523 562.1356,-791.826 558.8071,-789.1892 544,-781.4523 474.4156,-745.0934 450.9703,-746.5297 386,-702.4523 353.9598,-680.7155 359.7177,-644.4523 321,-644.4523"/>
<polygon fill="#000000" stroke="#000000" points="677.0117,-851.0193 684.8052,-855.047 681.0059,-851.2358 685,-851.4523 685,-851.4523 685,-851.4523 681.0059,-851.2358 685.1948,-847.8576 677.0117,-851.0193 677.0117,-851.0193"/>
<ellipse fill="none" stroke="#000000" cx="673.8164" cy="-850.8461" rx="3.2" ry="3.2"/>
</g>
<!-- forms&#45;&gt;lists -->
<g id="edge7" class="edge">
<title>forms:w&#45;&gt;lists:e</title>
<path fill="none" stroke="#000000" d="M670.4784,-851.1952C627.0783,-849.5028 604.8258,-838.7792 577,-799.4523 528.8356,-731.3805 619.3881,-426.4523 536,-426.4523"/>
<polygon fill="#000000" stroke="#000000" points="677.0013,-851.3106 684.9363,-855.0517 681.0006,-851.3815 685,-851.4523 685,-851.4523 685,-851.4523 681.0006,-851.3815 685.0637,-847.8528 677.0013,-851.3106 677.0013,-851.3106"/>
<ellipse fill="none" stroke="#000000" cx="673.8018" cy="-851.254" rx="3.2" ry="3.2"/>
</g>
<!-- forms&#45;&gt;users -->
<g id="edge9" class="edge">
<title>forms:w&#45;&gt;users:e</title>
<path fill="none" stroke="#000000" d="M670.5931,-851.7618C618.6846,-854.0844 601.9973,-868.9282 544,-877.4523 377.0903,-901.9835 301.3096,-997.8521 165,-898.4523 93.3398,-846.1962 192.6898,-708.4523 104,-708.4523"/>
<polygon fill="#000000" stroke="#000000" points="677.0018,-851.6242 685.0773,-855.0515 681.0009,-851.5382 685,-851.4523 685,-851.4523 685,-851.4523 681.0009,-851.5382 684.9227,-847.8531 677.0018,-851.6242 677.0018,-851.6242"/>
<ellipse fill="none" stroke="#000000" cx="673.8026" cy="-851.6929" rx="3.2" ry="3.2"/>
</g>
<!-- forms&#45;&gt;users -->
<g id="edge10" class="edge">
<title>forms:w&#45;&gt;users:e</title>
<path fill="none" stroke="#000000" d="M670.565,-851.6845C448.8496,-858.8321 348.8549,-1027.6455 165,-894.4523 94.5464,-843.4123 190.9988,-708.4523 104,-708.4523"/>
<polygon fill="#000000" stroke="#000000" points="677.001,-851.581 685.0579,-855.0518 681.0005,-851.5167 685,-851.4523 685,-851.4523 685,-851.4523 681.0005,-851.5167 684.9421,-847.8527 677.001,-851.581 677.001,-851.581"/>
<ellipse fill="none" stroke="#000000" cx="673.8014" cy="-851.6325" rx="3.2" ry="3.2"/>
</g>
<!-- forms&#45;&gt;groups -->
<g id="edge6" class="edge">
<title>forms:w&#45;&gt;groups:e</title>
<path fill="none" stroke="#000000" d="M670.4055,-849.9769C596.7269,-838.6898 342.1854,-766.4523 302,-766.4523"/>
<polygon fill="#000000" stroke="#000000" points="677.0406,-850.6476 684.6379,-855.034 681.0203,-851.05 685,-851.4523 685,-851.4523 685,-851.4523 681.0203,-851.05 685.3621,-847.8705 677.0406,-850.6476 677.0406,-850.6476"/>
<ellipse fill="none" stroke="#000000" cx="673.8568" cy="-850.3258" rx="3.2" ry="3.2"/>
</g>
<!-- groups&#45;&gt;users -->
<g id="edge11" class="edge">
<title>groups:w&#45;&gt;users:e</title>
<path fill="none" stroke="#000000" d="M201.6226,-765.0186C159.4711,-756.087 154.8011,-708.4523 104,-708.4523"/>
<polygon fill="#000000" stroke="#000000" points="208.0395,-765.6584 215.6428,-770.0345 212.0197,-766.0553 216,-766.4523 216,-766.4523 216,-766.4523 212.0197,-766.0553 216.3572,-762.8701 208.0395,-765.6584 208.0395,-765.6584"/>
<ellipse fill="none" stroke="#000000" cx="204.8553" cy="-765.3409" rx="3.2" ry="3.2"/>
</g>
<!-- lists_medication -->
<g id="node10" class="node">
<title>lists_medication</title>
<g id="a_node10"><a xlink:href="../../tables/lists_medication.html" xlink:title="lists_medication" target="_top">
<polygon fill="#ffffff" stroke="transparent" points="650,-43.9523 650,-104.9523 798,-104.9523 798,-43.9523 650,-43.9523"/>
<polygon fill="#f5f5f5" stroke="transparent" points="650,-81.4523 650,-104.4523 798,-104.4523 798,-81.4523 650,-81.4523"/>
<polygon fill="none" stroke="#000000" points="650,-81.4523 650,-104.4523 798,-104.4523 798,-81.4523 650,-81.4523"/>
<text text-anchor="start" x="655" y="-90.0523" font-family="Helvetica,sans-Serif" font-weight="bold" font-size="11.00" fill="#000000">lists_medication</text>
<text text-anchor="start" x="763.5219" y="-89.5523" font-family="Helvetica,sans-Serif" font-size="11.00" fill="#000000">[table]</text>
<polygon fill="none" stroke="#000000" points="650,-62.4523 650,-81.4523 798,-81.4523 798,-62.4523 650,-62.4523"/>
<text text-anchor="start" x="653" y="-68.5523" font-family="Helvetica,sans-Serif" font-size="11.00" fill="#000000">...</text>
<polygon fill="#ffffff" stroke="transparent" points="650,-43.4523 650,-62.4523 722,-62.4523 722,-43.4523 650,-43.4523"/>
<polygon fill="none" stroke="#000000" points="650,-43.4523 650,-62.4523 722,-62.4523 722,-43.4523 650,-43.4523"/>
<text text-anchor="start" x="653" y="-49.5523" font-family="Helvetica,sans-Serif" font-size="11.00" fill="#000000">&lt; 8</text>
<polygon fill="#ffffff" stroke="transparent" points="722,-43.4523 722,-62.4523 760,-62.4523 760,-43.4523 722,-43.4523"/>
<polygon fill="none" stroke="#000000" points="722,-43.4523 722,-62.4523 760,-62.4523 760,-43.4523 722,-43.4523"/>
<text text-anchor="start" x="750.8862" y="-49.5523" font-family="Helvetica,sans-Serif" font-size="11.00" fill="#000000"> &#160;</text>
<polygon fill="#ffffff" stroke="transparent" points="760,-43.4523 760,-62.4523 798,-62.4523 798,-43.4523 760,-43.4523"/>
<polygon fill="none" stroke="#000000" points="760,-43.4523 760,-62.4523 798,-62.4523 798,-43.4523 760,-43.4523"/>
<text text-anchor="start" x="788.8862" y="-49.5523" font-family="Helvetica,sans-Serif" font-size="11.00" fill="#000000"> &#160;</text>
</a>
</g>
</g>
<!-- lists_medication&#45;&gt;lists -->
<g id="edge24" class="edge">
<title>lists_medication:w&#45;&gt;lists:e</title>
<path fill="none" stroke="#000000" d="M635.5635,-72.4707C497.5016,-93.2931 696.5349,-426.4523 536,-426.4523"/>
<polygon fill="#000000" stroke="#000000" points="642.0198,-72.0153 650.2533,-75.0434 646.0099,-71.7338 650,-71.4523 650,-71.4523 650,-71.4523 646.0099,-71.7338 649.7467,-67.8612 642.0198,-72.0153 642.0198,-72.0153"/>
<ellipse fill="none" stroke="#000000" cx="638.8278" cy="-72.2405" rx="3.2" ry="3.2"/>
</g>
<!-- lists_medication&#45;&gt;users -->
<g id="edge23" class="edge">
<title>lists_medication:w&#45;&gt;users:e</title>
<path fill="none" stroke="#000000" d="M635.1993,-72.0173C475.2038,-84.8587 628.1669,-313.8083 544,-471.4523 483.4874,-584.7919 467.8635,-630.8847 353,-688.4523 253.7449,-738.1972 215.0231,-708.4523 104,-708.4523"/>
<polygon fill="#000000" stroke="#000000" points="642.0058,-71.7575 650.1373,-75.0497 646.0029,-71.6049 650,-71.4523 650,-71.4523 650,-71.4523 646.0029,-71.6049 649.8627,-67.8549 642.0058,-71.7575 642.0058,-71.7575"/>
<ellipse fill="none" stroke="#000000" cx="638.8082" cy="-71.8796" rx="3.2" ry="3.2"/>
</g>
<!-- lists_medication&#45;&gt;users -->
<g id="edge27" class="edge">
<title>lists_medication:w&#45;&gt;users:e</title>
<path fill="none" stroke="#000000" d="M635.3357,-72.0116C476.7923,-84.7246 627.5758,-311.3851 544,-467.4523 483.3458,-580.7162 467.4011,-625.9711 353,-684.4523 254.0052,-735.0579 215.1795,-708.4523 104,-708.4523"/>
<polygon fill="#000000" stroke="#000000" points="642.0058,-71.7572 650.1372,-75.0497 646.0029,-71.6048 650,-71.4523 650,-71.4523 650,-71.4523 646.0029,-71.6048 649.8628,-67.8549 642.0058,-71.7572 642.0058,-71.7572"/>
<ellipse fill="none" stroke="#000000" cx="638.8081" cy="-71.8792" rx="3.2" ry="3.2"/>
</g>
<!-- lists_medication&#45;&gt;list_options -->
<g id="edge25" class="edge">
<title>lists_medication:w&#45;&gt;list_options:e</title>
<path fill="none" stroke="#000000" d="M635.3188,-71.326C429.7728,-67.7914 341.9049,7.8953 165,-107.4523 132.5227,-128.6285 162.7713,-184.4523 124,-184.4523"/>
<polygon fill="#000000" stroke="#000000" points="642.0003,-71.3834 649.969,-75.0522 646.0001,-71.4179 650,-71.4523 650,-71.4523 650,-71.4523 646.0001,-71.4179 650.031,-67.8524 642.0003,-71.3834 642.0003,-71.3834"/>
<ellipse fill="none" stroke="#000000" cx="638.8004" cy="-71.3559" rx="3.2" ry="3.2"/>
</g>
<!-- lists_medication&#45;&gt;list_options -->
<g id="edge26" class="edge">
<title>lists_medication:w&#45;&gt;list_options:e</title>
<path fill="none" stroke="#000000" d="M635.6195,-70.4826C429.7698,-55.0983 342.9258,15.7615 165,-98.4523 133.6852,-118.5538 161.2114,-171.4523 124,-184.4523"/>
<polygon fill="#000000" stroke="#000000" points="642.0181,-70.914 649.7578,-75.0441 646.0091,-71.1831 650,-71.4523 650,-71.4523 650,-71.4523 646.0091,-71.1831 650.2422,-67.8604 642.0181,-70.914 642.0181,-70.914"/>
<ellipse fill="none" stroke="#000000" cx="638.8254" cy="-70.6987" rx="3.2" ry="3.2"/>
</g>
<!-- lists_medication&#45;&gt;list_options -->
<g id="edge28" class="edge">
<title>lists_medication:w&#45;&gt;list_options:e</title>
<path fill="none" stroke="#000000" d="M635.3112,-71.3341C429.6831,-68.0275 342.8369,2.7045 165,-111.4523 133.6852,-131.5538 161.2114,-184.4523 124,-184.4523"/>
<polygon fill="#000000" stroke="#000000" points="642.0003,-71.3879 649.971,-75.0522 646.0001,-71.4201 650,-71.4523 650,-71.4523 650,-71.4523 646.0001,-71.4201 650.029,-67.8524 642.0003,-71.3879 642.0003,-71.3879"/>
<ellipse fill="none" stroke="#000000" cx="638.8004" cy="-71.3621" rx="3.2" ry="3.2"/>
</g>
<!-- lists_medication&#45;&gt;list_options -->
<g id="edge29" class="edge">
<title>lists_medication:w&#45;&gt;list_options:e</title>
<path fill="none" stroke="#000000" d="M635.3112,-72.2088C429.6831,-81.0275 342.8369,-10.2955 165,-124.4523 133.6852,-144.5538 161.2114,-197.4523 124,-184.4523"/>
<polygon fill="#000000" stroke="#000000" points="642.0106,-71.8638 650.1852,-75.0475 646.0053,-71.658 650,-71.4523 650,-71.4523 650,-71.4523 646.0053,-71.658 649.8148,-67.857 642.0106,-71.8638 642.0106,-71.8638"/>
<ellipse fill="none" stroke="#000000" cx="638.8148" cy="-72.0284" rx="3.2" ry="3.2"/>
</g>
<!-- issue_encounter -->
<g id="node11" class="node">
<title>issue_encounter</title>
<g id="a_node11"><a xlink:href="../../tables/issue_encounter.html" xlink:title="issue_encounter" target="_top">
<polygon fill="#ffffff" stroke="transparent" points="650,-727.9523 650,-788.9523 798,-788.9523 798,-727.9523 650,-727.9523"/>
<polygon fill="#f5f5f5" stroke="transparent" points="650,-765.4523 650,-788.4523 798,-788.4523 798,-765.4523 650,-765.4523"/>
<polygon fill="none" stroke="#000000" points="650,-765.4523 650,-788.4523 798,-788.4523 798,-765.4523 650,-765.4523"/>
<text text-anchor="start" x="655" y="-774.0523" font-family="Helvetica,sans-Serif" font-weight="bold" font-size="11.00" fill="#000000">issue_encounter</text>
<text text-anchor="start" x="763.5219" y="-773.5523" font-family="Helvetica,sans-Serif" font-size="11.00" fill="#000000">[table]</text>
<polygon fill="none" stroke="#000000" points="650,-746.4523 650,-765.4523 798,-765.4523 798,-746.4523 650,-746.4523"/>
<text text-anchor="start" x="653" y="-752.5523" font-family="Helvetica,sans-Serif" font-size="11.00" fill="#000000">...</text>
<polygon fill="#ffffff" stroke="transparent" points="650,-727.4523 650,-746.4523 722,-746.4523 722,-727.4523 650,-727.4523"/>
<polygon fill="none" stroke="#000000" points="650,-727.4523 650,-746.4523 722,-746.4523 722,-727.4523 650,-727.4523"/>
<text text-anchor="start" x="653" y="-733.5523" font-family="Helvetica,sans-Serif" font-size="11.00" fill="#000000">&lt; 5</text>
<polygon fill="#ffffff" stroke="transparent" points="722,-727.4523 722,-746.4523 760,-746.4523 760,-727.4523 722,-727.4523"/>
<polygon fill="none" stroke="#000000" points="722,-727.4523 722,-746.4523 760,-746.4523 760,-727.4523 722,-727.4523"/>
<text text-anchor="start" x="750.8862" y="-733.5523" font-family="Helvetica,sans-Serif" font-size="11.00" fill="#000000"> &#160;</text>
<polygon fill="#ffffff" stroke="transparent" points="760,-727.4523 760,-746.4523 798,-746.4523 798,-727.4523 760,-727.4523"/>
<polygon fill="none" stroke="#000000" points="760,-727.4523 760,-746.4523 798,-746.4523 798,-727.4523 760,-727.4523"/>
<text text-anchor="start" x="788.8862" y="-733.5523" font-family="Helvetica,sans-Serif" font-size="11.00" fill="#000000"> &#160;</text>
</a>
</g>
</g>
<!-- issue_encounter&#45;&gt;patient_data -->
<g id="edge32" class="edge">
<title>issue_encounter:w&#45;&gt;patient_data:e</title>
<path fill="none" stroke="#000000" d="M635.4715,-754.3537C552.7044,-742.8256 393.639,-644.4523 321,-644.4523"/>
<polygon fill="#000000" stroke="#000000" points="642.0228,-754.849 649.7285,-759.042 646.0114,-755.1507 650,-755.4523 650,-755.4523 650,-755.4523 646.0114,-755.1507 650.2715,-751.8625 642.0228,-754.849 642.0228,-754.849"/>
<ellipse fill="none" stroke="#000000" cx="638.8319" cy="-754.6077" rx="3.2" ry="3.2"/>
</g>
<!-- issue_encounter&#45;&gt;lists -->
<g id="edge31" class="edge">
<title>issue_encounter:w&#45;&gt;lists:e</title>
<path fill="none" stroke="#000000" d="M635.4936,-754.2438C603.7983,-748.4715 595.2748,-722.5718 577,-688.4523 549.1758,-636.5037 594.9308,-426.4523 536,-426.4523"/>
<polygon fill="#000000" stroke="#000000" points="642.0276,-754.7881 649.7011,-759.0399 646.0138,-755.1202 650,-755.4523 650,-755.4523 650,-755.4523 646.0138,-755.1202 650.2989,-751.8647 642.0276,-754.7881 642.0276,-754.7881"/>
<ellipse fill="none" stroke="#000000" cx="638.8387" cy="-754.5224" rx="3.2" ry="3.2"/>
</g>
<!-- issue_encounter&#45;&gt;users -->
<g id="edge30" class="edge">
<title>issue_encounter:w&#45;&gt;users:e</title>
<path fill="none" stroke="#000000" d="M635.3853,-756.8137C592.0282,-765.5617 593.346,-814.1422 544,-834.4523 465.9192,-866.5891 234.8917,-908.8288 165,-861.4523 104.4043,-820.3771 177.2053,-708.4523 104,-708.4523"/>
<polygon fill="#000000" stroke="#000000" points="642.0345,-756.1944 650.3339,-759.0368 646.0172,-755.8233 650,-755.4523 650,-755.4523 650,-755.4523 646.0172,-755.8233 649.6661,-751.8678 642.0345,-756.1944 642.0345,-756.1944"/>
<ellipse fill="none" stroke="#000000" cx="638.8483" cy="-756.4912" rx="3.2" ry="3.2"/>
</g>
<!-- issue_encounter&#45;&gt;users -->
<g id="edge33" class="edge">
<title>issue_encounter:w&#45;&gt;users:e</title>
<path fill="none" stroke="#000000" d="M635.6066,-756.7431C592.7734,-765.0375 592.7113,-811.1035 544,-830.4523 387.0566,-892.7924 305.2179,-951.5612 165,-857.4523 105.5846,-817.5749 175.5569,-708.4523 104,-708.4523"/>
<polygon fill="#000000" stroke="#000000" points="642.032,-756.1669 650.3216,-759.0379 646.016,-755.8096 650,-755.4523 650,-755.4523 650,-755.4523 646.016,-755.8096 649.6784,-751.8667 642.032,-756.1669 642.032,-756.1669"/>
<ellipse fill="none" stroke="#000000" cx="638.8448" cy="-756.4528" rx="3.2" ry="3.2"/>
</g>
</g>
</svg>
