<?xml version="1.0" encoding="UTF-8" standalone="no"?>
<!DOCTYPE svg PUBLIC "-//W3C//DTD SVG 1.1//EN"
 "http://www.w3.org/Graphics/SVG/1.1/DTD/svg11.dtd">
<!-- Generated by graphviz version 2.40.1 (20161225.0304)
 -->
<!-- Title: oneDegreeRelationshipsDiagram Pages: 1 -->
<svg width="907pt" height="970pt"
 viewBox="0.00 0.00 907.00 970.03" xmlns="http://www.w3.org/2000/svg" xmlns:xlink="http://www.w3.org/1999/xlink">
<g id="graph0" class="graph" transform="scale(1 1) rotate(0) translate(4 966.0268)">
<title>oneDegreeRelationshipsDiagram</title>
<polygon fill="#ffffff" stroke="transparent" points="-4,4 -4,-966.0268 903,-966.0268 903,4 -4,4"/>
<text text-anchor="middle" x="72.4936" y="-7.3" font-family="Helvetica,sans-Serif" font-size="11.00" fill="#000000">Generated by SchemaSpy</text>
<!-- lists -->
<g id="node1" class="node">
<title>lists</title>
<g id="a_node1"><a xlink:href="../../tables/lists.html" xlink:title="lists" target="_top">
<polygon fill="#ffffff" stroke="transparent" points="250,-538.2 250,-885.2 392,-885.2 392,-538.2 250,-538.2"/>
<polygon fill="#f5f5f5" stroke="transparent" points="250,-861.7 250,-884.7 392,-884.7 392,-861.7 250,-861.7"/>
<polygon fill="none" stroke="#000000" points="250,-861.7 250,-884.7 392,-884.7 392,-861.7 250,-861.7"/>
<text text-anchor="start" x="255" y="-870.3" font-family="Helvetica,sans-Serif" font-weight="bold" font-size="11.00" fill="#000000">lists</text>
<text text-anchor="start" x="357.0437" y="-869.8" font-family="Helvetica,sans-Serif" font-size="11.00" fill="#000000">[table]</text>
<polygon fill="none" stroke="#000000" points="250,-839.7 250,-861.7 392,-861.7 392,-839.7 250,-839.7"/>
<image xlink:href="../../images/primaryKeys.png" width="11px" height="12px" preserveAspectRatio="xMinYMin meet" x="255" y="-856.7"/>
<text text-anchor="start" x="270" y="-846.8" font-family="Helvetica,sans-Serif" font-size="11.00" fill="#000000">id</text>
<polygon fill="#ffffff" stroke="transparent" points="250,-817.7 250,-839.7 392,-839.7 392,-817.7 250,-817.7"/>
<polygon fill="none" stroke="#000000" points="250,-817.7 250,-839.7 392,-839.7 392,-817.7 250,-817.7"/>
<text text-anchor="start" x="270" y="-824.8" font-family="Helvetica,sans-Serif" font-size="11.00" fill="#000000">uuid</text>
<polygon fill="#ffffff" stroke="transparent" points="250,-795.7 250,-817.7 392,-817.7 392,-795.7 250,-795.7"/>
<polygon fill="none" stroke="#000000" points="250,-795.7 250,-817.7 392,-817.7 392,-795.7 250,-795.7"/>
<image xlink:href="../../images/foreignKeys.png" width="11px" height="12px" preserveAspectRatio="xMinYMin meet" x="255" y="-812.7"/>
<text text-anchor="start" x="270" y="-802.8" font-family="Helvetica,sans-Serif" font-size="11.00" fill="#000000">type</text>
<polygon fill="none" stroke="#000000" points="250,-773.7 250,-795.7 392,-795.7 392,-773.7 250,-773.7"/>
<image xlink:href="../../images/foreignKeys.png" width="11px" height="12px" preserveAspectRatio="xMinYMin meet" x="255" y="-790.7"/>
<text text-anchor="start" x="270" y="-780.8" font-family="Helvetica,sans-Serif" font-size="11.00" fill="#000000">subtype</text>
<polygon fill="none" stroke="#000000" points="250,-751.7 250,-773.7 392,-773.7 392,-751.7 250,-751.7"/>
<image xlink:href="../../images/foreignKeys.png" width="11px" height="12px" preserveAspectRatio="xMinYMin meet" x="255" y="-768.7"/>
<text text-anchor="start" x="270" y="-758.8" font-family="Helvetica,sans-Serif" font-size="11.00" fill="#000000">occurrence</text>
<polygon fill="#ffffff" stroke="transparent" points="250,-729.7 250,-751.7 392,-751.7 392,-729.7 250,-729.7"/>
<polygon fill="none" stroke="#000000" points="250,-729.7 250,-751.7 392,-751.7 392,-729.7 250,-729.7"/>
<image xlink:href="../../images/foreignKeys.png" width="11px" height="12px" preserveAspectRatio="xMinYMin meet" x="255" y="-746.7"/>
<text text-anchor="start" x="270" y="-736.8" font-family="Helvetica,sans-Serif" font-size="11.00" fill="#000000">pid</text>
<polygon fill="none" stroke="#000000" points="250,-707.7 250,-729.7 392,-729.7 392,-707.7 250,-707.7"/>
<image xlink:href="../../images/foreignKeys.png" width="11px" height="12px" preserveAspectRatio="xMinYMin meet" x="255" y="-724.7"/>
<text text-anchor="start" x="270" y="-714.8" font-family="Helvetica,sans-Serif" font-size="11.00" fill="#000000">user</text>
<polygon fill="none" stroke="#000000" points="250,-685.7 250,-707.7 392,-707.7 392,-685.7 250,-685.7"/>
<image xlink:href="../../images/foreignKeys.png" width="11px" height="12px" preserveAspectRatio="xMinYMin meet" x="255" y="-702.7"/>
<text text-anchor="start" x="270" y="-692.8" font-family="Helvetica,sans-Serif" font-size="11.00" fill="#000000">groupname</text>
<polygon fill="none" stroke="#000000" points="250,-663.7 250,-685.7 392,-685.7 392,-663.7 250,-663.7"/>
<image xlink:href="../../images/foreignKeys.png" width="11px" height="12px" preserveAspectRatio="xMinYMin meet" x="255" y="-680.7"/>
<text text-anchor="start" x="270" y="-670.8" font-family="Helvetica,sans-Serif" font-size="11.00" fill="#000000">outcome</text>
<polygon fill="none" stroke="#000000" points="250,-641.7 250,-663.7 392,-663.7 392,-641.7 250,-641.7"/>
<image xlink:href="../../images/foreignKeys.png" width="11px" height="12px" preserveAspectRatio="xMinYMin meet" x="255" y="-658.7"/>
<text text-anchor="start" x="270" y="-648.8" font-family="Helvetica,sans-Serif" font-size="11.00" fill="#000000">reaction</text>
<polygon fill="none" stroke="#000000" points="250,-619.7 250,-641.7 392,-641.7 392,-619.7 250,-619.7"/>
<image xlink:href="../../images/foreignKeys.png" width="11px" height="12px" preserveAspectRatio="xMinYMin meet" x="255" y="-636.7"/>
<text text-anchor="start" x="270" y="-626.8" font-family="Helvetica,sans-Serif" font-size="11.00" fill="#000000">verification</text>
<polygon fill="none" stroke="#000000" points="250,-597.7 250,-619.7 392,-619.7 392,-597.7 250,-597.7"/>
<image xlink:href="../../images/foreignKeys.png" width="11px" height="12px" preserveAspectRatio="xMinYMin meet" x="255" y="-614.7"/>
<text text-anchor="start" x="270" y="-604.8" font-family="Helvetica,sans-Serif" font-size="11.00" fill="#000000">severity_al</text>
<polygon fill="none" stroke="#000000" points="250,-575.7 250,-597.7 392,-597.7 392,-575.7 250,-575.7"/>
<image xlink:href="../../images/foreignKeys.png" width="11px" height="12px" preserveAspectRatio="xMinYMin meet" x="255" y="-592.7"/>
<text text-anchor="start" x="270" y="-582.8" font-family="Helvetica,sans-Serif" font-size="11.00" fill="#000000">list_option_id</text>
<polygon fill="none" stroke="#000000" points="250,-556.7 250,-575.7 392,-575.7 392,-556.7 250,-556.7"/>
<text text-anchor="start" x="253" y="-562.8" font-family="Helvetica,sans-Serif" font-size="11.00" fill="#000000">...</text>
<polygon fill="#ffffff" stroke="transparent" points="250,-537.7 250,-556.7 318,-556.7 318,-537.7 250,-537.7"/>
<polygon fill="none" stroke="#000000" points="250,-537.7 250,-556.7 318,-556.7 318,-537.7 250,-537.7"/>
<text text-anchor="start" x="253" y="-543.8" font-family="Helvetica,sans-Serif" font-size="11.00" fill="#000000">&lt; 11</text>
<polygon fill="#ffffff" stroke="transparent" points="318,-537.7 318,-556.7 350,-556.7 350,-537.7 318,-537.7"/>
<polygon fill="none" stroke="#000000" points="318,-537.7 318,-556.7 350,-556.7 350,-537.7 318,-537.7"/>
<text text-anchor="start" x="340.8862" y="-543.8" font-family="Helvetica,sans-Serif" font-size="11.00" fill="#000000"> &#160;</text>
<polygon fill="#ffffff" stroke="transparent" points="350,-537.7 350,-556.7 392,-556.7 392,-537.7 350,-537.7"/>
<polygon fill="none" stroke="#000000" points="350,-537.7 350,-556.7 392,-556.7 392,-537.7 350,-537.7"/>
<text text-anchor="start" x="373.4053" y="-543.8" font-family="Helvetica,sans-Serif" font-size="11.00" fill="#000000">5 &gt;</text>
</a>
</g>
</g>
<!-- list_options -->
<g id="node2" class="node">
<title>list_options</title>
<g id="a_node2"><a xlink:href="../../tables/list_options.html" xlink:title="list_options" target="_top">
<polygon fill="#ffffff" stroke="transparent" points="25.5,-571.2 25.5,-676.2 157.5,-676.2 157.5,-571.2 25.5,-571.2"/>
<polygon fill="#f5f5f5" stroke="transparent" points="25.5,-652.7 25.5,-675.7 157.5,-675.7 157.5,-652.7 25.5,-652.7"/>
<polygon fill="none" stroke="#000000" points="25.5,-652.7 25.5,-675.7 157.5,-675.7 157.5,-652.7 25.5,-652.7"/>
<text text-anchor="start" x="30.5" y="-661.3" font-family="Helvetica,sans-Serif" font-weight="bold" font-size="11.00" fill="#000000">list_options</text>
<text text-anchor="start" x="122.5437" y="-660.8" font-family="Helvetica,sans-Serif" font-size="11.00" fill="#000000">[table]</text>
<polygon fill="none" stroke="#000000" points="25.5,-630.7 25.5,-652.7 157.5,-652.7 157.5,-630.7 25.5,-630.7"/>
<image xlink:href="../../images/primaryKeys.png" width="11px" height="12px" preserveAspectRatio="xMinYMin meet" x="30.5" y="-647.7"/>
<text text-anchor="start" x="45.5" y="-637.8" font-family="Helvetica,sans-Serif" font-size="11.00" fill="#000000">list_id</text>
<polygon fill="none" stroke="#000000" points="25.5,-608.7 25.5,-630.7 157.5,-630.7 157.5,-608.7 25.5,-608.7"/>
<image xlink:href="../../images/primaryKeys.png" width="11px" height="12px" preserveAspectRatio="xMinYMin meet" x="30.5" y="-625.7"/>
<text text-anchor="start" x="45.5" y="-615.8" font-family="Helvetica,sans-Serif" font-size="11.00" fill="#000000">option_id</text>
<polygon fill="none" stroke="#000000" points="25.5,-589.7 25.5,-608.7 157.5,-608.7 157.5,-589.7 25.5,-589.7"/>
<text text-anchor="start" x="28.5" y="-595.8" font-family="Helvetica,sans-Serif" font-size="11.00" fill="#000000">...</text>
<polygon fill="#ffffff" stroke="transparent" points="25.5,-570.7 25.5,-589.7 77.5,-589.7 77.5,-570.7 25.5,-570.7"/>
<polygon fill="none" stroke="#000000" points="25.5,-570.7 25.5,-589.7 77.5,-589.7 77.5,-570.7 25.5,-570.7"/>
<text text-anchor="start" x="28.5" y="-576.8" font-family="Helvetica,sans-Serif" font-size="11.00" fill="#000000"> &#160;</text>
<polygon fill="#ffffff" stroke="transparent" points="77.5,-570.7 77.5,-589.7 109.5,-589.7 109.5,-570.7 77.5,-570.7"/>
<polygon fill="none" stroke="#000000" points="77.5,-570.7 77.5,-589.7 109.5,-589.7 109.5,-570.7 77.5,-570.7"/>
<text text-anchor="start" x="100.3862" y="-576.8" font-family="Helvetica,sans-Serif" font-size="11.00" fill="#000000"> &#160;</text>
<polygon fill="#ffffff" stroke="transparent" points="109.5,-570.7 109.5,-589.7 157.5,-589.7 157.5,-570.7 109.5,-570.7"/>
<polygon fill="none" stroke="#000000" points="109.5,-570.7 109.5,-589.7 157.5,-589.7 157.5,-570.7 109.5,-570.7"/>
<text text-anchor="start" x="132.7904" y="-576.8" font-family="Helvetica,sans-Serif" font-size="11.00" fill="#000000">98 &gt;</text>
</a>
</g>
</g>
<!-- lists&#45;&gt;list_options -->
<g id="edge1" class="edge">
<title>lists:w&#45;&gt;list_options:e</title>
<path fill="none" stroke="#000000" d="M235.2836,-588.118C204.4498,-594.4344 195.6929,-619.7 157.5,-619.7"/>
<polygon fill="#000000" stroke="#000000" points="242.0369,-587.4673 250.3453,-590.2834 246.0184,-587.0837 250,-586.7 250,-586.7 250,-586.7 246.0184,-587.0837 249.6547,-583.1166 242.0369,-587.4673 242.0369,-587.4673"/>
<ellipse fill="none" stroke="#000000" cx="238.8516" cy="-587.7743" rx="3.2" ry="3.2"/>
</g>
<!-- lists&#45;&gt;list_options -->
<g id="edge2" class="edge">
<title>lists:w&#45;&gt;list_options:e</title>
<path fill="none" stroke="#000000" d="M235.5969,-760.5676C182.115,-742.7788 227.723,-619.7 157.5,-619.7"/>
<polygon fill="#000000" stroke="#000000" points="242.0863,-761.5283 249.4727,-766.2612 246.0431,-762.1141 250,-762.7 250,-762.7 250,-762.7 246.0431,-762.1141 250.5273,-759.1388 242.0863,-761.5283 242.0863,-761.5283"/>
<ellipse fill="none" stroke="#000000" cx="238.9208" cy="-761.0596" rx="3.2" ry="3.2"/>
</g>
<!-- lists&#45;&gt;list_options -->
<g id="edge3" class="edge">
<title>lists:w&#45;&gt;list_options:e</title>
<path fill="none" stroke="#000000" d="M235.5602,-672.7425C202.2319,-662.9449 199.9113,-619.7 157.5,-619.7"/>
<polygon fill="#000000" stroke="#000000" points="242.0725,-673.6253 249.5164,-678.2674 246.0363,-674.1626 250,-674.7 250,-674.7 250,-674.7 246.0363,-674.1626 250.4836,-671.1326 242.0725,-673.6253 242.0725,-673.6253"/>
<ellipse fill="none" stroke="#000000" cx="238.9015" cy="-673.1954" rx="3.2" ry="3.2"/>
</g>
<!-- lists&#45;&gt;list_options -->
<g id="edge4" class="edge">
<title>lists:w&#45;&gt;list_options:e</title>
<path fill="none" stroke="#000000" d="M235.2836,-651.282C204.4498,-644.9656 195.6929,-619.7 157.5,-619.7"/>
<polygon fill="#000000" stroke="#000000" points="242.0369,-651.9327 249.6547,-656.2834 246.0184,-652.3163 250,-652.7 250,-652.7 250,-652.7 246.0184,-652.3163 250.3453,-649.1166 242.0369,-651.9327 242.0369,-651.9327"/>
<ellipse fill="none" stroke="#000000" cx="238.8516" cy="-651.6257" rx="3.2" ry="3.2"/>
</g>
<!-- lists&#45;&gt;list_options -->
<g id="edge5" class="edge">
<title>lists:w&#45;&gt;list_options:e</title>
<path fill="none" stroke="#000000" d="M235.4341,-609.2012C205.572,-611.3532 193.564,-619.7 157.5,-619.7"/>
<polygon fill="#000000" stroke="#000000" points="242.0047,-608.9752 250.1238,-612.2979 246.0024,-608.8376 250,-608.7 250,-608.7 250,-608.7 246.0024,-608.8376 249.8762,-605.1021 242.0047,-608.9752 242.0047,-608.9752"/>
<ellipse fill="none" stroke="#000000" cx="238.8066" cy="-609.0853" rx="3.2" ry="3.2"/>
</g>
<!-- lists&#45;&gt;list_options -->
<g id="edge6" class="edge">
<title>lists:w&#45;&gt;list_options:e</title>
<path fill="none" stroke="#000000" d="M235.649,-782.732C175.0164,-764.1159 236.1522,-619.7 157.5,-619.7"/>
<polygon fill="#000000" stroke="#000000" points="242.0742,-783.6131 249.5109,-788.2666 246.0371,-784.1565 250,-784.7 250,-784.7 250,-784.7 246.0371,-784.1565 250.4891,-781.1334 242.0742,-783.6131 242.0742,-783.6131"/>
<ellipse fill="none" stroke="#000000" cx="238.9038" cy="-783.1783" rx="3.2" ry="3.2"/>
</g>
<!-- lists&#45;&gt;list_options -->
<g id="edge8" class="edge">
<title>lists:w&#45;&gt;list_options:e</title>
<path fill="none" stroke="#000000" d="M235.4341,-630.1988C205.572,-628.0468 193.564,-619.7 157.5,-619.7"/>
<polygon fill="#000000" stroke="#000000" points="242.0047,-630.4248 249.8762,-634.2979 246.0024,-630.5624 250,-630.7 250,-630.7 250,-630.7 246.0024,-630.5624 250.1238,-627.1021 242.0047,-630.4248 242.0047,-630.4248"/>
<ellipse fill="none" stroke="#000000" cx="238.8066" cy="-630.3147" rx="3.2" ry="3.2"/>
</g>
<!-- users -->
<g id="node3" class="node">
<title>users</title>
<g id="a_node3"><a xlink:href="../../tables/users.html" xlink:title="users" target="_top">
<polygon fill="#ffffff" stroke="transparent" points="8,-38.2 8,-253.2 175,-253.2 175,-38.2 8,-38.2"/>
<polygon fill="#f5f5f5" stroke="transparent" points="8.5,-229.7 8.5,-252.7 175.5,-252.7 175.5,-229.7 8.5,-229.7"/>
<polygon fill="none" stroke="#000000" points="8.5,-229.7 8.5,-252.7 175.5,-252.7 175.5,-229.7 8.5,-229.7"/>
<text text-anchor="start" x="13.5" y="-238.3" font-family="Helvetica,sans-Serif" font-weight="bold" font-size="11.00" fill="#000000">users</text>
<text text-anchor="start" x="140.5437" y="-237.8" font-family="Helvetica,sans-Serif" font-size="11.00" fill="#000000">[table]</text>
<polygon fill="none" stroke="#000000" points="8.5,-207.7 8.5,-229.7 175.5,-229.7 175.5,-207.7 8.5,-207.7"/>
<image xlink:href="../../images/primaryKeys.png" width="11px" height="12px" preserveAspectRatio="xMinYMin meet" x="13.5" y="-224.7"/>
<text text-anchor="start" x="28.5" y="-214.8" font-family="Helvetica,sans-Serif" font-size="11.00" fill="#000000">id</text>
<polygon fill="#ffffff" stroke="transparent" points="8.5,-185.7 8.5,-207.7 175.5,-207.7 175.5,-185.7 8.5,-185.7"/>
<polygon fill="none" stroke="#000000" points="8.5,-185.7 8.5,-207.7 175.5,-207.7 175.5,-185.7 8.5,-185.7"/>
<text text-anchor="start" x="28.5" y="-192.8" font-family="Helvetica,sans-Serif" font-size="11.00" fill="#000000">uuid</text>
<polygon fill="none" stroke="#000000" points="8.5,-163.7 8.5,-185.7 175.5,-185.7 175.5,-163.7 8.5,-163.7"/>
<image xlink:href="../../images/primaryKeys.png" width="11px" height="12px" preserveAspectRatio="xMinYMin meet" x="13.5" y="-180.7"/>
<text text-anchor="start" x="28.5" y="-170.8" font-family="Helvetica,sans-Serif" font-size="11.00" fill="#000000">username</text>
<polygon fill="none" stroke="#000000" points="8.5,-141.7 8.5,-163.7 175.5,-163.7 175.5,-141.7 8.5,-141.7"/>
<image xlink:href="../../images/foreignKeys.png" width="11px" height="12px" preserveAspectRatio="xMinYMin meet" x="13.5" y="-158.7"/>
<text text-anchor="start" x="28.5" y="-148.8" font-family="Helvetica,sans-Serif" font-size="11.00" fill="#000000">facility_id</text>
<polygon fill="#ffffff" stroke="transparent" points="8.5,-119.7 8.5,-141.7 175.5,-141.7 175.5,-119.7 8.5,-119.7"/>
<polygon fill="none" stroke="#000000" points="8.5,-119.7 8.5,-141.7 175.5,-141.7 175.5,-119.7 8.5,-119.7"/>
<text text-anchor="start" x="28.5" y="-126.8" font-family="Helvetica,sans-Serif" font-size="11.00" fill="#000000">google_signin_email</text>
<polygon fill="#ffffff" stroke="transparent" points="8.5,-97.7 8.5,-119.7 175.5,-119.7 175.5,-97.7 8.5,-97.7"/>
<polygon fill="none" stroke="#000000" points="8.5,-97.7 8.5,-119.7 175.5,-119.7 175.5,-97.7 8.5,-97.7"/>
<text text-anchor="start" x="28.5" y="-104.8" font-family="Helvetica,sans-Serif" font-size="11.00" fill="#000000">abook_type</text>
<polygon fill="none" stroke="#000000" points="8.5,-75.7 8.5,-97.7 175.5,-97.7 175.5,-75.7 8.5,-75.7"/>
<image xlink:href="../../images/foreignKeys.png" width="11px" height="12px" preserveAspectRatio="xMinYMin meet" x="13.5" y="-92.7"/>
<text text-anchor="start" x="28.5" y="-82.8" font-family="Helvetica,sans-Serif" font-size="11.00" fill="#000000">billing_facility_id</text>
<polygon fill="none" stroke="#000000" points="8.5,-56.7 8.5,-75.7 175.5,-75.7 175.5,-56.7 8.5,-56.7"/>
<text text-anchor="start" x="11.5" y="-62.8" font-family="Helvetica,sans-Serif" font-size="11.00" fill="#000000">...</text>
<polygon fill="#ffffff" stroke="transparent" points="8.5,-37.7 8.5,-56.7 82.5,-56.7 82.5,-37.7 8.5,-37.7"/>
<polygon fill="none" stroke="#000000" points="8.5,-37.7 8.5,-56.7 82.5,-56.7 82.5,-37.7 8.5,-37.7"/>
<text text-anchor="start" x="11.5" y="-43.8" font-family="Helvetica,sans-Serif" font-size="11.00" fill="#000000">&lt; 2</text>
<polygon fill="#ffffff" stroke="transparent" points="82.5,-37.7 82.5,-56.7 121.5,-56.7 121.5,-37.7 82.5,-37.7"/>
<polygon fill="none" stroke="#000000" points="82.5,-37.7 82.5,-56.7 121.5,-56.7 121.5,-37.7 82.5,-37.7"/>
<text text-anchor="start" x="112.3862" y="-43.8" font-family="Helvetica,sans-Serif" font-size="11.00" fill="#000000"> &#160;</text>
<polygon fill="#ffffff" stroke="transparent" points="121.5,-37.7 121.5,-56.7 175.5,-56.7 175.5,-37.7 121.5,-37.7"/>
<polygon fill="none" stroke="#000000" points="121.5,-37.7 121.5,-56.7 175.5,-56.7 175.5,-37.7 121.5,-37.7"/>
<text text-anchor="start" x="150.7904" y="-43.8" font-family="Helvetica,sans-Serif" font-size="11.00" fill="#000000">90 &gt;</text>
</a>
</g>
</g>
<!-- lists&#45;&gt;users -->
<g id="edge7" class="edge">
<title>lists:w&#45;&gt;users:e</title>
<path fill="none" stroke="#000000" d="M238.1207,-710.1551C195.4469,-640.9466 231.9806,-174.7 175.5,-174.7"/>
<polygon fill="#000000" stroke="#000000" points="243.5056,-714.0285 247.8978,-721.6225 246.7528,-716.3642 250,-718.7 250,-718.7 250,-718.7 246.7528,-716.3642 252.1022,-715.7775 243.5056,-714.0285 243.5056,-714.0285"/>
<ellipse fill="none" stroke="#000000" cx="240.9079" cy="-712.1599" rx="3.2" ry="3.2"/>
</g>
<!-- lists_medication -->
<g id="node4" class="node">
<title>lists_medication</title>
<g id="a_node4"><a xlink:href="../../tables/lists_medication.html" xlink:title="lists_medication" target="_top">
<polygon fill="#ffffff" stroke="transparent" points="467,-368.7 467,-722.7 891,-722.7 891,-368.7 467,-368.7"/>
<polygon fill="#f5f5f5" stroke="transparent" points="469,-697.7 469,-720.7 889,-720.7 889,-697.7 469,-697.7"/>
<polygon fill="none" stroke="#000000" points="469,-697.7 469,-720.7 889,-720.7 889,-697.7 469,-697.7"/>
<text text-anchor="start" x="474" y="-706.3" font-family="Helvetica,sans-Serif" font-weight="bold" font-size="11.00" fill="#000000">lists_medication</text>
<text text-anchor="start" x="854.0437" y="-705.8" font-family="Helvetica,sans-Serif" font-size="11.00" fill="#000000">[table]</text>
<polygon fill="none" stroke="#000000" points="469,-675.7 469,-697.7 778,-697.7 778,-675.7 469,-675.7"/>
<image xlink:href="../../images/foreignKeys.png" width="11px" height="12px" preserveAspectRatio="xMinYMin meet" x="474" y="-692.7"/>
<text text-anchor="start" x="489" y="-682.8" font-family="Helvetica,sans-Serif" font-size="11.00" fill="#000000">created_by</text>
<polygon fill="none" stroke="#000000" points="778,-675.7 778,-697.7 889,-697.7 889,-675.7 778,-675.7"/>
<text text-anchor="start" x="781" y="-683.4" font-family="Helvetica,sans-Serif" font-size="11.00" fill="#000000">unknown[0]</text>
<polygon fill="none" stroke="#000000" points="469,-653.7 469,-675.7 778,-675.7 778,-653.7 469,-653.7"/>
<image xlink:href="../../images/primaryKeys.png" width="11px" height="12px" preserveAspectRatio="xMinYMin meet" x="474" y="-670.7"/>
<text text-anchor="start" x="489" y="-660.8" font-family="Helvetica,sans-Serif" font-size="11.00" fill="#000000">id</text>
<polygon fill="none" stroke="#000000" points="778,-653.7 778,-675.7 889,-675.7 889,-653.7 778,-653.7"/>
<text text-anchor="start" x="781" y="-661.4" font-family="Helvetica,sans-Serif" font-size="11.00" fill="#000000">bigint[19]</text>
<polygon fill="#ffffff" stroke="transparent" points="469,-631.7 469,-653.7 778,-653.7 778,-631.7 469,-631.7"/>
<polygon fill="none" stroke="#000000" points="469,-631.7 469,-653.7 778,-653.7 778,-631.7 469,-631.7"/>
<image xlink:href="../../images/foreignKeys.png" width="11px" height="12px" preserveAspectRatio="xMinYMin meet" x="474" y="-648.7"/>
<text text-anchor="start" x="489" y="-638.8" font-family="Helvetica,sans-Serif" font-size="11.00" fill="#000000">list_id</text>
<polygon fill="none" stroke="#000000" points="778,-631.7 778,-653.7 889,-653.7 889,-631.7 778,-631.7"/>
<text text-anchor="start" x="781" y="-639.4" font-family="Helvetica,sans-Serif" font-size="11.00" fill="#000000">bigint[19]</text>
<polygon fill="none" stroke="#000000" points="469,-609.7 469,-631.7 778,-631.7 778,-609.7 469,-609.7"/>
<text text-anchor="start" x="489" y="-616.8" font-family="Helvetica,sans-Serif" font-size="11.00" fill="#000000">drug_dosage_instructions</text>
<polygon fill="none" stroke="#000000" points="778,-609.7 778,-631.7 889,-631.7 889,-609.7 778,-609.7"/>
<text text-anchor="start" x="780.6115" y="-617.4" font-family="Helvetica,sans-Serif" font-size="11.00" fill="#000000">longtext[2147483647]</text>
<polygon fill="#ffffff" stroke="transparent" points="469,-587.7 469,-609.7 778,-609.7 778,-587.7 469,-587.7"/>
<polygon fill="none" stroke="#000000" points="469,-587.7 469,-609.7 778,-609.7 778,-587.7 469,-587.7"/>
<image xlink:href="../../images/foreignKeys.png" width="11px" height="12px" preserveAspectRatio="xMinYMin meet" x="474" y="-604.7"/>
<text text-anchor="start" x="489" y="-594.8" font-family="Helvetica,sans-Serif" font-size="11.00" fill="#000000">usage_category</text>
<polygon fill="none" stroke="#000000" points="778,-587.7 778,-609.7 889,-609.7 889,-587.7 778,-587.7"/>
<text text-anchor="start" x="781" y="-595.4" font-family="Helvetica,sans-Serif" font-size="11.00" fill="#000000">varchar[100]</text>
<polygon fill="none" stroke="#000000" points="469,-565.7 469,-587.7 778,-587.7 778,-565.7 469,-565.7"/>
<text text-anchor="start" x="489" y="-572.8" font-family="Helvetica,sans-Serif" font-size="11.00" fill="#000000">usage_category_title</text>
<polygon fill="none" stroke="#000000" points="778,-565.7 778,-587.7 889,-587.7 889,-565.7 778,-565.7"/>
<text text-anchor="start" x="781" y="-573.4" font-family="Helvetica,sans-Serif" font-size="11.00" fill="#000000">varchar[255]</text>
<polygon fill="#ffffff" stroke="transparent" points="469,-543.7 469,-565.7 778,-565.7 778,-543.7 469,-543.7"/>
<polygon fill="none" stroke="#000000" points="469,-543.7 469,-565.7 778,-565.7 778,-543.7 469,-543.7"/>
<image xlink:href="../../images/foreignKeys.png" width="11px" height="12px" preserveAspectRatio="xMinYMin meet" x="474" y="-560.7"/>
<text text-anchor="start" x="489" y="-550.8" font-family="Helvetica,sans-Serif" font-size="11.00" fill="#000000">request_intent</text>
<polygon fill="none" stroke="#000000" points="778,-543.7 778,-565.7 889,-565.7 889,-543.7 778,-543.7"/>
<text text-anchor="start" x="781" y="-551.4" font-family="Helvetica,sans-Serif" font-size="11.00" fill="#000000">varchar[100]</text>
<polygon fill="none" stroke="#000000" points="469,-521.7 469,-543.7 778,-543.7 778,-521.7 469,-521.7"/>
<text text-anchor="start" x="489" y="-528.8" font-family="Helvetica,sans-Serif" font-size="11.00" fill="#000000">request_intent_title</text>
<polygon fill="none" stroke="#000000" points="778,-521.7 778,-543.7 889,-543.7 889,-521.7 778,-521.7"/>
<text text-anchor="start" x="781" y="-529.4" font-family="Helvetica,sans-Serif" font-size="11.00" fill="#000000">varchar[255]</text>
<polygon fill="none" stroke="#000000" points="469,-499.7 469,-521.7 778,-521.7 778,-499.7 469,-499.7"/>
<image xlink:href="../../images/foreignKeys.png" width="11px" height="12px" preserveAspectRatio="xMinYMin meet" x="474" y="-516.7"/>
<text text-anchor="start" x="489" y="-506.8" font-family="Helvetica,sans-Serif" font-size="11.00" fill="#000000">medication_adherence_information_source</text>
<polygon fill="none" stroke="#000000" points="778,-499.7 778,-521.7 889,-521.7 889,-499.7 778,-499.7"/>
<text text-anchor="start" x="781" y="-507.4" font-family="Helvetica,sans-Serif" font-size="11.00" fill="#000000">varchar[50]</text>
<polygon fill="none" stroke="#000000" points="469,-477.7 469,-499.7 778,-499.7 778,-477.7 469,-477.7"/>
<image xlink:href="../../images/foreignKeys.png" width="11px" height="12px" preserveAspectRatio="xMinYMin meet" x="474" y="-494.7"/>
<text text-anchor="start" x="489" y="-484.8" font-family="Helvetica,sans-Serif" font-size="11.00" fill="#000000">medication_adherence</text>
<polygon fill="none" stroke="#000000" points="778,-477.7 778,-499.7 889,-499.7 889,-477.7 778,-477.7"/>
<text text-anchor="start" x="781" y="-485.4" font-family="Helvetica,sans-Serif" font-size="11.00" fill="#000000">varchar[50]</text>
<polygon fill="none" stroke="#000000" points="469,-455.7 469,-477.7 778,-477.7 778,-455.7 469,-455.7"/>
<text text-anchor="start" x="489" y="-462.8" font-family="Helvetica,sans-Serif" font-size="11.00" fill="#000000">medication_adherence_date_asserted</text>
<polygon fill="none" stroke="#000000" points="778,-455.7 778,-477.7 889,-477.7 889,-455.7 778,-455.7"/>
<text text-anchor="start" x="781" y="-463.4" font-family="Helvetica,sans-Serif" font-size="11.00" fill="#000000">datetime[19]</text>
<polygon fill="none" stroke="#000000" points="469,-433.7 469,-455.7 778,-455.7 778,-433.7 469,-433.7"/>
<image xlink:href="../../images/foreignKeys.png" width="11px" height="12px" preserveAspectRatio="xMinYMin meet" x="474" y="-450.7"/>
<text text-anchor="start" x="489" y="-440.8" font-family="Helvetica,sans-Serif" font-size="11.00" fill="#000000">prescription_id</text>
<polygon fill="none" stroke="#000000" points="778,-433.7 778,-455.7 889,-455.7 889,-433.7 778,-433.7"/>
<text text-anchor="start" x="781" y="-441.4" font-family="Helvetica,sans-Serif" font-size="11.00" fill="#000000">bigint[19]</text>
<polygon fill="none" stroke="#000000" points="469,-411.7 469,-433.7 778,-433.7 778,-411.7 469,-411.7"/>
<text text-anchor="start" x="489" y="-418.8" font-family="Helvetica,sans-Serif" font-size="11.00" fill="#000000">is_primary_record</text>
<polygon fill="none" stroke="#000000" points="778,-411.7 778,-433.7 889,-433.7 889,-411.7 778,-411.7"/>
<text text-anchor="start" x="781" y="-419.4" font-family="Helvetica,sans-Serif" font-size="11.00" fill="#000000">boolean[3]</text>
<polygon fill="none" stroke="#000000" points="469,-389.7 469,-411.7 778,-411.7 778,-389.7 469,-389.7"/>
<image xlink:href="../../images/foreignKeys.png" width="11px" height="12px" preserveAspectRatio="xMinYMin meet" x="474" y="-406.7"/>
<text text-anchor="start" x="489" y="-396.8" font-family="Helvetica,sans-Serif" font-size="11.00" fill="#000000">reporting_source_record_id</text>
<polygon fill="none" stroke="#000000" points="778,-389.7 778,-411.7 889,-411.7 889,-389.7 778,-389.7"/>
<text text-anchor="start" x="781" y="-397.4" font-family="Helvetica,sans-Serif" font-size="11.00" fill="#000000">bigint[19]</text>
<polygon fill="#ffffff" stroke="transparent" points="469,-370.7 469,-389.7 628,-389.7 628,-370.7 469,-370.7"/>
<polygon fill="none" stroke="#000000" points="469,-370.7 469,-389.7 628,-389.7 628,-370.7 469,-370.7"/>
<text text-anchor="start" x="472" y="-376.8" font-family="Helvetica,sans-Serif" font-size="11.00" fill="#000000">&lt; 8</text>
<polygon fill="#ffffff" stroke="transparent" points="628,-370.7 628,-389.7 778,-389.7 778,-370.7 628,-370.7"/>
<polygon fill="none" stroke="#000000" points="628,-370.7 628,-389.7 778,-389.7 778,-370.7 628,-370.7"/>
<text text-anchor="start" x="768.8862" y="-376.8" font-family="Helvetica,sans-Serif" font-size="11.00" fill="#000000"> &#160;</text>
<polygon fill="#ffffff" stroke="transparent" points="778,-370.7 778,-389.7 889,-389.7 889,-370.7 778,-370.7"/>
<polygon fill="none" stroke="#000000" points="778,-370.7 778,-389.7 889,-389.7 889,-370.7 778,-370.7"/>
<text text-anchor="start" x="870.4053" y="-376.8" font-family="Helvetica,sans-Serif" font-size="11.00" fill="#000000">0 &gt;</text>
<polygon fill="none" stroke="#000000" stroke-width="2" points="468,-369.7 468,-721.7 890,-721.7 890,-369.7 468,-369.7"/>
</a>
</g>
</g>
<!-- lists_medication&#45;&gt;lists -->
<g id="edge10" class="edge">
<title>lists_medication:w&#45;&gt;lists:e</title>
<path fill="none" stroke="#000000" d="M454.2755,-644.6263C383.3336,-665.5952 484.9922,-850.7 392,-850.7"/>
<polygon fill="#000000" stroke="#000000" points="461.0676,-643.7378 469.467,-646.2696 465.0338,-643.2189 469,-642.7 469,-642.7 469,-642.7 465.0338,-643.2189 468.533,-639.1304 461.0676,-643.7378 461.0676,-643.7378"/>
<ellipse fill="none" stroke="#000000" cx="457.8946" cy="-644.1529" rx="3.2" ry="3.2"/>
</g>
<!-- lists_medication&#45;&gt;list_options -->
<g id="edge11" class="edge">
<title>lists_medication:w&#45;&gt;list_options:e</title>
<path fill="none" stroke="#000000" d="M454.5924,-488.4504C390.4813,-486.5445 259.4801,-475.1222 216,-503.7 167.7485,-535.4138 215.2406,-619.7 157.5,-619.7"/>
<polygon fill="#000000" stroke="#000000" points="461.0012,-488.5614 468.9376,-492.2995 465.0006,-488.6307 469,-488.7 469,-488.7 469,-488.7 465.0006,-488.6307 469.0624,-485.1005 461.0012,-488.5614 461.0012,-488.5614"/>
<ellipse fill="none" stroke="#000000" cx="457.8017" cy="-488.5059" rx="3.2" ry="3.2"/>
</g>
<!-- lists_medication&#45;&gt;list_options -->
<g id="edge12" class="edge">
<title>lists_medication:w&#45;&gt;list_options:e</title>
<path fill="none" stroke="#000000" d="M454.2028,-510.5095C390.1039,-509.109 260.6681,-501.1817 216,-527.7 174.3342,-552.4359 205.9551,-619.7 157.5,-619.7"/>
<polygon fill="#000000" stroke="#000000" points="461.0007,-510.597 468.9536,-514.2997 465.0003,-510.6485 469,-510.7 469,-510.7 469,-510.7 465.0003,-510.6485 469.0464,-507.1003 461.0007,-510.597 461.0007,-510.597"/>
<ellipse fill="none" stroke="#000000" cx="457.8009" cy="-510.5557" rx="3.2" ry="3.2"/>
</g>
<!-- lists_medication&#45;&gt;list_options -->
<g id="edge15" class="edge">
<title>lists_medication:w&#45;&gt;list_options:e</title>
<path fill="none" stroke="#000000" d="M454.9397,-559.0508C404.9533,-595.4308 479.1464,-848.8345 426,-895.7 390.9983,-926.5652 252.2584,-925.0787 216,-895.7 118.5749,-816.7604 282.8918,-619.7 157.5,-619.7"/>
<polygon fill="#000000" stroke="#000000" points="461.3575,-557.0649 470.0642,-558.1391 465.1788,-555.8825 469,-554.7 469,-554.7 469,-554.7 465.1788,-555.8825 467.9358,-551.2609 461.3575,-557.0649 461.3575,-557.0649"/>
<ellipse fill="none" stroke="#000000" cx="458.3005" cy="-558.0109" rx="3.2" ry="3.2"/>
</g>
<!-- lists_medication&#45;&gt;list_options -->
<g id="edge16" class="edge">
<title>lists_medication:w&#45;&gt;list_options:e</title>
<path fill="none" stroke="#000000" d="M455.2455,-603.1996C409.3959,-638.6962 475.6057,-873.3505 426,-916.7 355.7205,-978.1159 288.0923,-975.9775 216,-916.7 112.0819,-831.2539 292.0362,-619.7 157.5,-619.7"/>
<polygon fill="#000000" stroke="#000000" points="461.3965,-601.1874 470.1193,-602.1216 465.1983,-599.9437 469,-598.7 469,-598.7 469,-598.7 465.1983,-599.9437 467.8807,-595.2784 461.3965,-601.1874 461.3965,-601.1874"/>
<ellipse fill="none" stroke="#000000" cx="458.3551" cy="-602.1824" rx="3.2" ry="3.2"/>
</g>
<!-- lists_medication&#45;&gt;users -->
<g id="edge9" class="edge">
<title>lists_medication:w&#45;&gt;users:e</title>
<path fill="none" stroke="#000000" d="M457.0526,-678.0487C417.926,-611.7808 466.6186,-186.2017 426,-148.7 391.7124,-117.0435 256.4252,-125.3852 216,-148.7 184.8642,-166.6573 211.443,-218.7 175.5,-218.7"/>
<polygon fill="#000000" stroke="#000000" points="462.5204,-682.008 466.8886,-689.6158 465.7602,-684.354 469,-686.7 469,-686.7 469,-686.7 465.7602,-684.354 471.1114,-683.7842 462.5204,-682.008 462.5204,-682.008"/>
<ellipse fill="none" stroke="#000000" cx="459.9286" cy="-680.1312" rx="3.2" ry="3.2"/>
</g>
<!-- lists_medication&#45;&gt;users -->
<g id="edge14" class="edge">
<title>lists_medication:w&#45;&gt;users:e</title>
<path fill="none" stroke="#000000" d="M455.2464,-395.3259C418.0675,-360.083 468.7721,-162.3038 426,-125.7 355.0886,-65.0149 294.0678,-74.548 216,-125.7 178.291,-150.4079 220.5826,-218.7 175.5,-218.7"/>
<polygon fill="#000000" stroke="#000000" points="461.5486,-397.7884 467.6898,-404.0531 465.2743,-399.2442 469,-400.7 469,-400.7 469,-400.7 465.2743,-399.2442 470.3102,-397.3469 461.5486,-397.7884 461.5486,-397.7884"/>
<ellipse fill="none" stroke="#000000" cx="458.5681" cy="-396.6238" rx="3.2" ry="3.2"/>
</g>
<!-- prescriptions -->
<g id="node5" class="node">
<title>prescriptions</title>
<g id="a_node5"><a xlink:href="../../tables/prescriptions.html" xlink:title="prescriptions" target="_top">
<polygon fill="#ffffff" stroke="transparent" points="224,-159.2 224,-462.2 418,-462.2 418,-159.2 224,-159.2"/>
<polygon fill="#f5f5f5" stroke="transparent" points="224,-438.7 224,-461.7 418,-461.7 418,-438.7 224,-438.7"/>
<polygon fill="none" stroke="#000000" points="224,-438.7 224,-461.7 418,-461.7 418,-438.7 224,-438.7"/>
<text text-anchor="start" x="229" y="-447.3" font-family="Helvetica,sans-Serif" font-weight="bold" font-size="11.00" fill="#000000">prescriptions</text>
<text text-anchor="start" x="383.0437" y="-446.8" font-family="Helvetica,sans-Serif" font-size="11.00" fill="#000000">[table]</text>
<polygon fill="none" stroke="#000000" points="224,-416.7 224,-438.7 418,-438.7 418,-416.7 224,-416.7"/>
<image xlink:href="../../images/primaryKeys.png" width="11px" height="12px" preserveAspectRatio="xMinYMin meet" x="229" y="-433.7"/>
<text text-anchor="start" x="244" y="-423.8" font-family="Helvetica,sans-Serif" font-size="11.00" fill="#000000">id</text>
<polygon fill="#ffffff" stroke="transparent" points="224,-394.7 224,-416.7 418,-416.7 418,-394.7 224,-394.7"/>
<polygon fill="none" stroke="#000000" points="224,-394.7 224,-416.7 418,-416.7 418,-394.7 224,-394.7"/>
<text text-anchor="start" x="244" y="-401.8" font-family="Helvetica,sans-Serif" font-size="11.00" fill="#000000">uuid</text>
<polygon fill="#ffffff" stroke="transparent" points="224,-372.7 224,-394.7 418,-394.7 418,-372.7 224,-372.7"/>
<polygon fill="none" stroke="#000000" points="224,-372.7 224,-394.7 418,-394.7 418,-372.7 224,-372.7"/>
<image xlink:href="../../images/foreignKeys.png" width="11px" height="12px" preserveAspectRatio="xMinYMin meet" x="229" y="-389.7"/>
<text text-anchor="start" x="244" y="-379.8" font-family="Helvetica,sans-Serif" font-size="11.00" fill="#000000">patient_id</text>
<polygon fill="none" stroke="#000000" points="224,-350.7 224,-372.7 418,-372.7 418,-350.7 224,-350.7"/>
<image xlink:href="../../images/foreignKeys.png" width="11px" height="12px" preserveAspectRatio="xMinYMin meet" x="229" y="-367.7"/>
<text text-anchor="start" x="244" y="-357.8" font-family="Helvetica,sans-Serif" font-size="11.00" fill="#000000">pharmacy_id</text>
<polygon fill="none" stroke="#000000" points="224,-328.7 224,-350.7 418,-350.7 418,-328.7 224,-328.7"/>
<image xlink:href="../../images/foreignKeys.png" width="11px" height="12px" preserveAspectRatio="xMinYMin meet" x="229" y="-345.7"/>
<text text-anchor="start" x="244" y="-335.8" font-family="Helvetica,sans-Serif" font-size="11.00" fill="#000000">provider_id</text>
<polygon fill="none" stroke="#000000" points="224,-306.7 224,-328.7 418,-328.7 418,-306.7 224,-306.7"/>
<image xlink:href="../../images/foreignKeys.png" width="11px" height="12px" preserveAspectRatio="xMinYMin meet" x="229" y="-323.7"/>
<text text-anchor="start" x="244" y="-313.8" font-family="Helvetica,sans-Serif" font-size="11.00" fill="#000000">drug_id</text>
<polygon fill="none" stroke="#000000" points="224,-284.7 224,-306.7 418,-306.7 418,-284.7 224,-284.7"/>
<image xlink:href="../../images/foreignKeys.png" width="11px" height="12px" preserveAspectRatio="xMinYMin meet" x="229" y="-301.7"/>
<text text-anchor="start" x="244" y="-291.8" font-family="Helvetica,sans-Serif" font-size="11.00" fill="#000000">route</text>
<polygon fill="none" stroke="#000000" points="224,-262.7 224,-284.7 418,-284.7 418,-262.7 224,-262.7"/>
<image xlink:href="../../images/foreignKeys.png" width="11px" height="12px" preserveAspectRatio="xMinYMin meet" x="229" y="-279.7"/>
<text text-anchor="start" x="244" y="-269.8" font-family="Helvetica,sans-Serif" font-size="11.00" fill="#000000">usage_category</text>
<polygon fill="none" stroke="#000000" points="224,-240.7 224,-262.7 418,-262.7 418,-240.7 224,-240.7"/>
<image xlink:href="../../images/foreignKeys.png" width="11px" height="12px" preserveAspectRatio="xMinYMin meet" x="229" y="-257.7"/>
<text text-anchor="start" x="244" y="-247.8" font-family="Helvetica,sans-Serif" font-size="11.00" fill="#000000">request_intent</text>
<polygon fill="none" stroke="#000000" points="224,-218.7 224,-240.7 418,-240.7 418,-218.7 224,-218.7"/>
<image xlink:href="../../images/foreignKeys.png" width="11px" height="12px" preserveAspectRatio="xMinYMin meet" x="229" y="-235.7"/>
<text text-anchor="start" x="244" y="-225.8" font-family="Helvetica,sans-Serif" font-size="11.00" fill="#000000">created_by</text>
<polygon fill="none" stroke="#000000" points="224,-196.7 224,-218.7 418,-218.7 418,-196.7 224,-196.7"/>
<image xlink:href="../../images/foreignKeys.png" width="11px" height="12px" preserveAspectRatio="xMinYMin meet" x="229" y="-213.7"/>
<text text-anchor="start" x="244" y="-203.8" font-family="Helvetica,sans-Serif" font-size="11.00" fill="#000000">updated_by</text>
<polygon fill="none" stroke="#000000" points="224,-177.7 224,-196.7 418,-196.7 418,-177.7 224,-177.7"/>
<text text-anchor="start" x="227" y="-183.8" font-family="Helvetica,sans-Serif" font-size="11.00" fill="#000000">...</text>
<polygon fill="#ffffff" stroke="transparent" points="224,-158.7 224,-177.7 315,-177.7 315,-158.7 224,-158.7"/>
<polygon fill="none" stroke="#000000" points="224,-158.7 224,-177.7 315,-177.7 315,-158.7 224,-158.7"/>
<text text-anchor="start" x="227" y="-164.8" font-family="Helvetica,sans-Serif" font-size="11.00" fill="#000000">&lt; 9</text>
<polygon fill="#ffffff" stroke="transparent" points="315,-158.7 315,-177.7 362,-177.7 362,-158.7 315,-158.7"/>
<polygon fill="none" stroke="#000000" points="315,-158.7 315,-177.7 362,-177.7 362,-158.7 315,-158.7"/>
<text text-anchor="start" x="352.8862" y="-164.8" font-family="Helvetica,sans-Serif" font-size="11.00" fill="#000000"> &#160;</text>
<polygon fill="#ffffff" stroke="transparent" points="362,-158.7 362,-177.7 418,-177.7 418,-158.7 362,-158.7"/>
<polygon fill="none" stroke="#000000" points="362,-158.7 362,-177.7 418,-177.7 418,-158.7 362,-158.7"/>
<text text-anchor="start" x="399.4053" y="-164.8" font-family="Helvetica,sans-Serif" font-size="11.00" fill="#000000">1 &gt;</text>
</a>
</g>
</g>
<!-- lists_medication&#45;&gt;prescriptions -->
<g id="edge13" class="edge">
<title>lists_medication:w&#45;&gt;prescriptions:e</title>
<path fill="none" stroke="#000000" d="M454.6916,-442.1916C442.3373,-437.4628 436.1062,-427.7 418,-427.7"/>
<polygon fill="#000000" stroke="#000000" points="461.1202,-443.3185 468.3783,-448.2459 465.0601,-444.0093 469,-444.7 469,-444.7 469,-444.7 465.0601,-444.0093 469.6217,-441.1541 461.1202,-443.3185 461.1202,-443.3185"/>
<ellipse fill="none" stroke="#000000" cx="457.9682" cy="-442.766" rx="3.2" ry="3.2"/>
</g>
<!-- prescriptions&#45;&gt;list_options -->
<g id="edge19" class="edge">
<title>prescriptions:w&#45;&gt;list_options:e</title>
<path fill="none" stroke="#000000" d="M209.2488,-252.8219C74.4854,-275.0366 318.3483,-619.7 157.5,-619.7"/>
<polygon fill="#000000" stroke="#000000" points="216.023,-252.3068 224.273,-255.2896 220.0115,-252.0034 224,-251.7 224,-251.7 224,-251.7 220.0115,-252.0034 223.727,-248.1104 216.023,-252.3068 216.023,-252.3068"/>
<ellipse fill="none" stroke="#000000" cx="212.8323" cy="-252.5495" rx="3.2" ry="3.2"/>
</g>
<!-- prescriptions&#45;&gt;list_options -->
<g id="edge20" class="edge">
<title>prescriptions:w&#45;&gt;list_options:e</title>
<path fill="none" stroke="#000000" d="M209.4967,-296.9385C92.9499,-318.6911 299.1902,-619.7 157.5,-619.7"/>
<polygon fill="#000000" stroke="#000000" points="216.029,-296.3807 224.3063,-299.2869 220.0145,-296.0404 224,-295.7 224,-295.7 224,-295.7 220.0145,-296.0404 223.6937,-292.1131 216.029,-296.3807 216.029,-296.3807"/>
<ellipse fill="none" stroke="#000000" cx="212.8406" cy="-296.653" rx="3.2" ry="3.2"/>
</g>
<!-- prescriptions&#45;&gt;list_options -->
<g id="edge22" class="edge">
<title>prescriptions:w&#45;&gt;list_options:e</title>
<path fill="none" stroke="#000000" d="M209.3244,-274.885C83.7998,-296.9481 308.74,-619.7 157.5,-619.7"/>
<polygon fill="#000000" stroke="#000000" points="216.026,-274.3439 224.2898,-277.2883 220.013,-274.022 224,-273.7 224,-273.7 224,-273.7 220.013,-274.022 223.7102,-270.1117 216.026,-274.3439 216.026,-274.3439"/>
<ellipse fill="none" stroke="#000000" cx="212.8363" cy="-274.6015" rx="3.2" ry="3.2"/>
</g>
<!-- prescriptions&#45;&gt;users -->
<g id="edge17" class="edge">
<title>prescriptions:w&#45;&gt;users:e</title>
<path fill="none" stroke="#000000" d="M209.4888,-227.7839C198.3593,-224.6324 191.7319,-218.7 175.5,-218.7"/>
<polygon fill="#000000" stroke="#000000" points="216.0688,-228.6527 223.5287,-233.269 220.0344,-229.1764 224,-229.7 224,-229.7 224,-229.7 220.0344,-229.1764 224.4713,-226.131 216.0688,-228.6527 216.0688,-228.6527"/>
<ellipse fill="none" stroke="#000000" cx="212.8964" cy="-228.2338" rx="3.2" ry="3.2"/>
</g>
<!-- prescriptions&#45;&gt;users -->
<g id="edge18" class="edge">
<title>prescriptions:w&#45;&gt;users:e</title>
<path fill="none" stroke="#000000" d="M209.9625,-336.2092C178.4558,-316.37 227.5527,-218.7 175.5,-218.7"/>
<polygon fill="#000000" stroke="#000000" points="216.2364,-337.7693 223.1312,-343.1936 220.1182,-338.7347 224,-339.7 224,-339.7 224,-339.7 220.1182,-338.7347 224.8688,-336.2064 216.2364,-337.7693 216.2364,-337.7693"/>
<ellipse fill="none" stroke="#000000" cx="213.131" cy="-336.9971" rx="3.2" ry="3.2"/>
</g>
<!-- prescriptions&#45;&gt;users -->
<g id="edge21" class="edge">
<title>prescriptions:w&#45;&gt;users:e</title>
<path fill="none" stroke="#000000" d="M209.4888,-209.6161C198.3593,-212.7676 191.7319,-218.7 175.5,-218.7"/>
<polygon fill="#000000" stroke="#000000" points="216.0688,-208.7473 224.4713,-211.269 220.0344,-208.2236 224,-207.7 224,-207.7 224,-207.7 220.0344,-208.2236 223.5287,-204.131 216.0688,-208.7473 216.0688,-208.7473"/>
<ellipse fill="none" stroke="#000000" cx="212.8964" cy="-209.1662" rx="3.2" ry="3.2"/>
</g>
</g>
</svg>
