<?xml version="1.0" encoding="UTF-8" standalone="no"?>
<!DOCTYPE svg PUBLIC "-//W3C//DTD SVG 1.1//EN"
 "http://www.w3.org/Graphics/SVG/1.1/DTD/svg11.dtd">
<!-- Generated by graphviz version 2.40.1 (20161225.0304)
 -->
<!-- Title: oneDegreeRelationshipsDiagram Pages: 1 -->
<svg width="995pt" height="586pt"
 viewBox="0.00 0.00 995.00 585.70" xmlns="http://www.w3.org/2000/svg" xmlns:xlink="http://www.w3.org/1999/xlink">
<g id="graph0" class="graph" transform="scale(1 1) rotate(0) translate(4 581.7)">
<title>oneDegreeRelationshipsDiagram</title>
<polygon fill="#ffffff" stroke="transparent" points="-4,4 -4,-581.7 991,-581.7 991,4 -4,4"/>
<text text-anchor="middle" x="72.4936" y="-7.3" font-family="Helvetica,sans-Serif" font-size="11.00" fill="#000000">Generated by SchemaSpy</text>
<!-- medex_recalls -->
<g id="node1" class="node">
<title>medex_recalls</title>
<g id="a_node1"><a xlink:href="../../tables/medex_recalls.html" xlink:title="medex_recalls" target="_top">
<polygon fill="#ffffff" stroke="transparent" points="784,-38.2 784,-260.2 979,-260.2 979,-38.2 784,-38.2"/>
<polygon fill="#f5f5f5" stroke="transparent" points="786.5,-235.2 786.5,-258.2 977.5,-258.2 977.5,-235.2 786.5,-235.2"/>
<polygon fill="none" stroke="#000000" points="786.5,-235.2 786.5,-258.2 977.5,-258.2 977.5,-235.2 786.5,-235.2"/>
<text text-anchor="start" x="791.5" y="-243.8" font-family="Helvetica,sans-Serif" font-weight="bold" font-size="11.00" fill="#000000">medex_recalls</text>
<text text-anchor="start" x="942.5437" y="-243.3" font-family="Helvetica,sans-Serif" font-size="11.00" fill="#000000">[table]</text>
<polygon fill="none" stroke="#000000" points="786.5,-213.2 786.5,-235.2 902.5,-235.2 902.5,-213.2 786.5,-213.2"/>
<image xlink:href="../../images/primaryKeys.png" width="11px" height="12px" preserveAspectRatio="xMinYMin meet" x="791.5" y="-230.2"/>
<text text-anchor="start" x="806.5" y="-220.3" font-family="Helvetica,sans-Serif" font-size="11.00" fill="#000000">r_ID</text>
<polygon fill="none" stroke="#000000" points="902.5,-213.2 902.5,-235.2 977.5,-235.2 977.5,-213.2 902.5,-213.2"/>
<text text-anchor="start" x="905.5" y="-220.9" font-family="Helvetica,sans-Serif" font-size="11.00" fill="#000000">int[10]</text>
<polygon fill="#ffffff" stroke="transparent" points="786.5,-191.2 786.5,-213.2 902.5,-213.2 902.5,-191.2 786.5,-191.2"/>
<polygon fill="none" stroke="#000000" points="786.5,-191.2 786.5,-213.2 902.5,-213.2 902.5,-191.2 786.5,-191.2"/>
<text text-anchor="start" x="806.5" y="-198.3" font-family="Helvetica,sans-Serif" font-size="11.00" fill="#000000">r_PRACTID</text>
<polygon fill="none" stroke="#000000" points="902.5,-191.2 902.5,-213.2 977.5,-213.2 977.5,-191.2 902.5,-191.2"/>
<text text-anchor="start" x="905.5" y="-198.9" font-family="Helvetica,sans-Serif" font-size="11.00" fill="#000000">int[10]</text>
<polygon fill="#ffffff" stroke="transparent" points="786.5,-169.2 786.5,-191.2 902.5,-191.2 902.5,-169.2 786.5,-169.2"/>
<polygon fill="none" stroke="#000000" points="786.5,-169.2 786.5,-191.2 902.5,-191.2 902.5,-169.2 786.5,-169.2"/>
<image xlink:href="../../images/foreignKeys.png" width="11px" height="12px" preserveAspectRatio="xMinYMin meet" x="791.5" y="-186.2"/>
<text text-anchor="start" x="806.5" y="-176.3" font-family="Helvetica,sans-Serif" font-size="11.00" fill="#000000">r_pid</text>
<polygon fill="none" stroke="#000000" points="902.5,-169.2 902.5,-191.2 977.5,-191.2 977.5,-169.2 902.5,-169.2"/>
<text text-anchor="start" x="905.5" y="-176.9" font-family="Helvetica,sans-Serif" font-size="11.00" fill="#000000">int[10]</text>
<polygon fill="none" stroke="#000000" points="786.5,-147.2 786.5,-169.2 902.5,-169.2 902.5,-147.2 786.5,-147.2"/>
<text text-anchor="start" x="806.5" y="-154.3" font-family="Helvetica,sans-Serif" font-size="11.00" fill="#000000">r_eventDate</text>
<polygon fill="none" stroke="#000000" points="902.5,-147.2 902.5,-169.2 977.5,-169.2 977.5,-147.2 902.5,-147.2"/>
<text text-anchor="start" x="905.5" y="-154.9" font-family="Helvetica,sans-Serif" font-size="11.00" fill="#000000">date[10]</text>
<polygon fill="none" stroke="#000000" points="786.5,-125.2 786.5,-147.2 902.5,-147.2 902.5,-125.2 786.5,-125.2"/>
<image xlink:href="../../images/foreignKeys.png" width="11px" height="12px" preserveAspectRatio="xMinYMin meet" x="791.5" y="-142.2"/>
<text text-anchor="start" x="806.5" y="-132.3" font-family="Helvetica,sans-Serif" font-size="11.00" fill="#000000">r_facility</text>
<polygon fill="none" stroke="#000000" points="902.5,-125.2 902.5,-147.2 977.5,-147.2 977.5,-125.2 902.5,-125.2"/>
<text text-anchor="start" x="905.5" y="-132.9" font-family="Helvetica,sans-Serif" font-size="11.00" fill="#000000">int[10]</text>
<polygon fill="none" stroke="#000000" points="786.5,-103.2 786.5,-125.2 902.5,-125.2 902.5,-103.2 786.5,-103.2"/>
<image xlink:href="../../images/foreignKeys.png" width="11px" height="12px" preserveAspectRatio="xMinYMin meet" x="791.5" y="-120.2"/>
<text text-anchor="start" x="806.5" y="-110.3" font-family="Helvetica,sans-Serif" font-size="11.00" fill="#000000">r_provider</text>
<polygon fill="none" stroke="#000000" points="902.5,-103.2 902.5,-125.2 977.5,-125.2 977.5,-103.2 902.5,-103.2"/>
<text text-anchor="start" x="905.5" y="-110.9" font-family="Helvetica,sans-Serif" font-size="11.00" fill="#000000">int[10]</text>
<polygon fill="none" stroke="#000000" points="786.5,-81.2 786.5,-103.2 902.5,-103.2 902.5,-81.2 786.5,-81.2"/>
<text text-anchor="start" x="806.5" y="-88.3" font-family="Helvetica,sans-Serif" font-size="11.00" fill="#000000">r_reason</text>
<polygon fill="none" stroke="#000000" points="902.5,-81.2 902.5,-103.2 977.5,-103.2 977.5,-81.2 902.5,-81.2"/>
<text text-anchor="start" x="905.5" y="-88.9" font-family="Helvetica,sans-Serif" font-size="11.00" fill="#000000">varchar[255]</text>
<polygon fill="none" stroke="#000000" points="786.5,-59.2 786.5,-81.2 902.5,-81.2 902.5,-59.2 786.5,-59.2"/>
<text text-anchor="start" x="806.5" y="-66.3" font-family="Helvetica,sans-Serif" font-size="11.00" fill="#000000">r_created</text>
<polygon fill="none" stroke="#000000" points="902.5,-59.2 902.5,-81.2 977.5,-81.2 977.5,-59.2 902.5,-59.2"/>
<text text-anchor="start" x="905.4666" y="-66.9" font-family="Helvetica,sans-Serif" font-size="11.00" fill="#000000">timestamp[19]</text>
<polygon fill="#ffffff" stroke="transparent" points="786.5,-40.2 786.5,-59.2 848.5,-59.2 848.5,-40.2 786.5,-40.2"/>
<polygon fill="none" stroke="#000000" points="786.5,-40.2 786.5,-59.2 848.5,-59.2 848.5,-40.2 786.5,-40.2"/>
<text text-anchor="start" x="789.5" y="-46.3" font-family="Helvetica,sans-Serif" font-size="11.00" fill="#000000">&lt; 3</text>
<polygon fill="#ffffff" stroke="transparent" points="848.5,-40.2 848.5,-59.2 902.5,-59.2 902.5,-40.2 848.5,-40.2"/>
<polygon fill="none" stroke="#000000" points="848.5,-40.2 848.5,-59.2 902.5,-59.2 902.5,-40.2 848.5,-40.2"/>
<text text-anchor="start" x="893.3862" y="-46.3" font-family="Helvetica,sans-Serif" font-size="11.00" fill="#000000"> &#160;</text>
<polygon fill="#ffffff" stroke="transparent" points="902.5,-40.2 902.5,-59.2 977.5,-59.2 977.5,-40.2 902.5,-40.2"/>
<polygon fill="none" stroke="#000000" points="902.5,-40.2 902.5,-59.2 977.5,-59.2 977.5,-40.2 902.5,-40.2"/>
<text text-anchor="start" x="958.9053" y="-46.3" font-family="Helvetica,sans-Serif" font-size="11.00" fill="#000000">0 &gt;</text>
<polygon fill="none" stroke="#000000" stroke-width="2" points="785,-39.2 785,-259.2 978,-259.2 978,-39.2 785,-39.2"/>
</a>
</g>
</g>
<!-- facility -->
<g id="node2" class="node">
<title>facility</title>
<g id="a_node2"><a xlink:href="../../tables/facility.html" xlink:title="facility" target="_top">
<polygon fill="#ffffff" stroke="transparent" points="8,-138.7 8,-243.7 193,-243.7 193,-138.7 8,-138.7"/>
<polygon fill="#f5f5f5" stroke="transparent" points="8.5,-220.2 8.5,-243.2 193.5,-243.2 193.5,-220.2 8.5,-220.2"/>
<polygon fill="none" stroke="#000000" points="8.5,-220.2 8.5,-243.2 193.5,-243.2 193.5,-220.2 8.5,-220.2"/>
<text text-anchor="start" x="13.5" y="-228.8" font-family="Helvetica,sans-Serif" font-weight="bold" font-size="11.00" fill="#000000">facility</text>
<text text-anchor="start" x="158.5437" y="-228.3" font-family="Helvetica,sans-Serif" font-size="11.00" fill="#000000">[table]</text>
<polygon fill="none" stroke="#000000" points="8.5,-198.2 8.5,-220.2 193.5,-220.2 193.5,-198.2 8.5,-198.2"/>
<image xlink:href="../../images/primaryKeys.png" width="11px" height="12px" preserveAspectRatio="xMinYMin meet" x="13.5" y="-215.2"/>
<text text-anchor="start" x="28.5" y="-205.3" font-family="Helvetica,sans-Serif" font-size="11.00" fill="#000000">id</text>
<polygon fill="#ffffff" stroke="transparent" points="8.5,-176.2 8.5,-198.2 193.5,-198.2 193.5,-176.2 8.5,-176.2"/>
<polygon fill="none" stroke="#000000" points="8.5,-176.2 8.5,-198.2 193.5,-198.2 193.5,-176.2 8.5,-176.2"/>
<text text-anchor="start" x="28.5" y="-183.3" font-family="Helvetica,sans-Serif" font-size="11.00" fill="#000000">uuid</text>
<polygon fill="none" stroke="#000000" points="8.5,-157.2 8.5,-176.2 193.5,-176.2 193.5,-157.2 8.5,-157.2"/>
<text text-anchor="start" x="11.5" y="-163.3" font-family="Helvetica,sans-Serif" font-size="11.00" fill="#000000">...</text>
<polygon fill="#ffffff" stroke="transparent" points="8.5,-138.2 8.5,-157.2 87.5,-157.2 87.5,-138.2 8.5,-138.2"/>
<polygon fill="none" stroke="#000000" points="8.5,-138.2 8.5,-157.2 87.5,-157.2 87.5,-138.2 8.5,-138.2"/>
<text text-anchor="start" x="11.5" y="-144.3" font-family="Helvetica,sans-Serif" font-size="11.00" fill="#000000"> &#160;</text>
<polygon fill="#ffffff" stroke="transparent" points="87.5,-138.2 87.5,-157.2 132.5,-157.2 132.5,-138.2 87.5,-138.2"/>
<polygon fill="none" stroke="#000000" points="87.5,-138.2 87.5,-157.2 132.5,-157.2 132.5,-138.2 87.5,-138.2"/>
<text text-anchor="start" x="123.3862" y="-144.3" font-family="Helvetica,sans-Serif" font-size="11.00" fill="#000000"> &#160;</text>
<polygon fill="#ffffff" stroke="transparent" points="132.5,-138.2 132.5,-157.2 193.5,-157.2 193.5,-138.2 132.5,-138.2"/>
<polygon fill="none" stroke="#000000" points="132.5,-138.2 132.5,-157.2 193.5,-157.2 193.5,-138.2 132.5,-138.2"/>
<text text-anchor="start" x="168.7904" y="-144.3" font-family="Helvetica,sans-Serif" font-size="11.00" fill="#000000">10 &gt;</text>
</a>
</g>
</g>
<!-- medex_recalls&#45;&gt;facility -->
<g id="edge1" class="edge">
<title>medex_recalls:w&#45;&gt;facility:e</title>
<path fill="none" stroke="#000000" d="M771.9312,-136.0785C537.1727,-132.1572 445.5619,-35.3689 234,-150.2 206.0465,-165.3725 225.3057,-209.2 193.5,-209.2"/>
<polygon fill="#000000" stroke="#000000" points="778.5003,-136.1333 786.47,-139.7999 782.5001,-136.1666 786.5,-136.2 786.5,-136.2 786.5,-136.2 782.5001,-136.1666 786.53,-132.6001 778.5003,-136.1333 778.5003,-136.1333"/>
<ellipse fill="none" stroke="#000000" cx="775.3004" cy="-136.1066" rx="3.2" ry="3.2"/>
</g>
<!-- patient_data -->
<g id="node3" class="node">
<title>patient_data</title>
<g id="a_node3"><a xlink:href="../../tables/patient_data.html" xlink:title="patient_data" target="_top">
<polygon fill="#ffffff" stroke="transparent" points="458,-182.7 458,-573.7 735,-573.7 735,-182.7 458,-182.7"/>
<polygon fill="#f5f5f5" stroke="transparent" points="458.5,-550.2 458.5,-573.2 735.5,-573.2 735.5,-550.2 458.5,-550.2"/>
<polygon fill="none" stroke="#000000" points="458.5,-550.2 458.5,-573.2 735.5,-573.2 735.5,-550.2 458.5,-550.2"/>
<text text-anchor="start" x="463.5" y="-558.8" font-family="Helvetica,sans-Serif" font-weight="bold" font-size="11.00" fill="#000000">patient_data</text>
<text text-anchor="start" x="700.5437" y="-558.3" font-family="Helvetica,sans-Serif" font-size="11.00" fill="#000000">[table]</text>
<polygon fill="none" stroke="#000000" points="458.5,-528.2 458.5,-550.2 735.5,-550.2 735.5,-528.2 458.5,-528.2"/>
<image xlink:href="../../images/primaryKeys.png" width="11px" height="12px" preserveAspectRatio="xMinYMin meet" x="463.5" y="-545.2"/>
<text text-anchor="start" x="478.5" y="-535.3" font-family="Helvetica,sans-Serif" font-size="11.00" fill="#000000">id</text>
<polygon fill="#ffffff" stroke="transparent" points="458.5,-506.2 458.5,-528.2 735.5,-528.2 735.5,-506.2 458.5,-506.2"/>
<polygon fill="none" stroke="#000000" points="458.5,-506.2 458.5,-528.2 735.5,-528.2 735.5,-506.2 458.5,-506.2"/>
<text text-anchor="start" x="478.5" y="-513.3" font-family="Helvetica,sans-Serif" font-size="11.00" fill="#000000">uuid</text>
<polygon fill="#ffffff" stroke="transparent" points="458.5,-484.2 458.5,-506.2 735.5,-506.2 735.5,-484.2 458.5,-484.2"/>
<polygon fill="none" stroke="#000000" points="458.5,-484.2 458.5,-506.2 735.5,-506.2 735.5,-484.2 458.5,-484.2"/>
<text text-anchor="start" x="478.5" y="-491.3" font-family="Helvetica,sans-Serif" font-size="11.00" fill="#000000">fname</text>
<polygon fill="#ffffff" stroke="transparent" points="458.5,-462.2 458.5,-484.2 735.5,-484.2 735.5,-462.2 458.5,-462.2"/>
<polygon fill="none" stroke="#000000" points="458.5,-462.2 458.5,-484.2 735.5,-484.2 735.5,-462.2 458.5,-462.2"/>
<text text-anchor="start" x="478.5" y="-469.3" font-family="Helvetica,sans-Serif" font-size="11.00" fill="#000000">lname</text>
<polygon fill="#ffffff" stroke="transparent" points="458.5,-440.2 458.5,-462.2 735.5,-462.2 735.5,-440.2 458.5,-440.2"/>
<polygon fill="none" stroke="#000000" points="458.5,-440.2 458.5,-462.2 735.5,-462.2 735.5,-440.2 458.5,-440.2"/>
<text text-anchor="start" x="478.5" y="-447.3" font-family="Helvetica,sans-Serif" font-size="11.00" fill="#000000">DOB</text>
<polygon fill="none" stroke="#000000" points="458.5,-418.2 458.5,-440.2 735.5,-440.2 735.5,-418.2 458.5,-418.2"/>
<image xlink:href="../../images/foreignKeys.png" width="11px" height="12px" preserveAspectRatio="xMinYMin meet" x="463.5" y="-435.2"/>
<text text-anchor="start" x="478.5" y="-425.3" font-family="Helvetica,sans-Serif" font-size="11.00" fill="#000000">pharmacy_id</text>
<polygon fill="none" stroke="#000000" points="458.5,-396.2 458.5,-418.2 735.5,-418.2 735.5,-396.2 458.5,-396.2"/>
<image xlink:href="../../images/foreignKeys.png" width="11px" height="12px" preserveAspectRatio="xMinYMin meet" x="463.5" y="-413.2"/>
<text text-anchor="start" x="478.5" y="-403.3" font-family="Helvetica,sans-Serif" font-size="11.00" fill="#000000">providerID</text>
<polygon fill="none" stroke="#000000" points="458.5,-374.2 458.5,-396.2 735.5,-396.2 735.5,-374.2 458.5,-374.2"/>
<image xlink:href="../../images/foreignKeys.png" width="11px" height="12px" preserveAspectRatio="xMinYMin meet" x="463.5" y="-391.2"/>
<text text-anchor="start" x="478.5" y="-381.3" font-family="Helvetica,sans-Serif" font-size="11.00" fill="#000000">ref_providerID</text>
<polygon fill="none" stroke="#000000" points="458.5,-352.2 458.5,-374.2 735.5,-374.2 735.5,-352.2 458.5,-352.2"/>
<image xlink:href="../../images/foreignKeys.png" width="11px" height="12px" preserveAspectRatio="xMinYMin meet" x="463.5" y="-369.2"/>
<text text-anchor="start" x="478.5" y="-359.3" font-family="Helvetica,sans-Serif" font-size="11.00" fill="#000000">interpreter_needed</text>
<polygon fill="none" stroke="#000000" points="458.5,-330.2 458.5,-352.2 735.5,-352.2 735.5,-330.2 458.5,-330.2"/>
<image xlink:href="../../images/primaryKeys.png" width="11px" height="12px" preserveAspectRatio="xMinYMin meet" x="463.5" y="-347.2"/>
<text text-anchor="start" x="478.5" y="-337.3" font-family="Helvetica,sans-Serif" font-size="11.00" fill="#000000">pid</text>
<polygon fill="none" stroke="#000000" points="458.5,-308.2 458.5,-330.2 735.5,-330.2 735.5,-308.2 458.5,-308.2"/>
<image xlink:href="../../images/foreignKeys.png" width="11px" height="12px" preserveAspectRatio="xMinYMin meet" x="463.5" y="-325.2"/>
<text text-anchor="start" x="478.5" y="-315.3" font-family="Helvetica,sans-Serif" font-size="11.00" fill="#000000">advance_directive_user_authenticator</text>
<polygon fill="none" stroke="#000000" points="458.5,-286.2 458.5,-308.2 735.5,-308.2 735.5,-286.2 458.5,-286.2"/>
<image xlink:href="../../images/foreignKeys.png" width="11px" height="12px" preserveAspectRatio="xMinYMin meet" x="463.5" y="-303.2"/>
<text text-anchor="start" x="478.5" y="-293.3" font-family="Helvetica,sans-Serif" font-size="11.00" fill="#000000">created_by</text>
<polygon fill="none" stroke="#000000" points="458.5,-264.2 458.5,-286.2 735.5,-286.2 735.5,-264.2 458.5,-264.2"/>
<image xlink:href="../../images/foreignKeys.png" width="11px" height="12px" preserveAspectRatio="xMinYMin meet" x="463.5" y="-281.2"/>
<text text-anchor="start" x="478.5" y="-271.3" font-family="Helvetica,sans-Serif" font-size="11.00" fill="#000000">updated_by</text>
<polygon fill="none" stroke="#000000" points="458.5,-242.2 458.5,-264.2 735.5,-264.2 735.5,-242.2 458.5,-242.2"/>
<image xlink:href="../../images/foreignKeys.png" width="11px" height="12px" preserveAspectRatio="xMinYMin meet" x="463.5" y="-259.2"/>
<text text-anchor="start" x="478.5" y="-249.3" font-family="Helvetica,sans-Serif" font-size="11.00" fill="#000000">tribal_affiliations</text>
<polygon fill="none" stroke="#000000" points="458.5,-220.2 458.5,-242.2 735.5,-242.2 735.5,-220.2 458.5,-220.2"/>
<image xlink:href="../../images/foreignKeys.png" width="11px" height="12px" preserveAspectRatio="xMinYMin meet" x="463.5" y="-237.2"/>
<text text-anchor="start" x="478.5" y="-227.3" font-family="Helvetica,sans-Serif" font-size="11.00" fill="#000000">sex_identified</text>
<polygon fill="none" stroke="#000000" points="458.5,-201.2 458.5,-220.2 735.5,-220.2 735.5,-201.2 458.5,-201.2"/>
<text text-anchor="start" x="461.5" y="-207.3" font-family="Helvetica,sans-Serif" font-size="11.00" fill="#000000">...</text>
<polygon fill="#ffffff" stroke="transparent" points="458.5,-182.2 458.5,-201.2 587.5,-201.2 587.5,-182.2 458.5,-182.2"/>
<polygon fill="none" stroke="#000000" points="458.5,-182.2 458.5,-201.2 587.5,-201.2 587.5,-182.2 458.5,-182.2"/>
<text text-anchor="start" x="461.5" y="-188.3" font-family="Helvetica,sans-Serif" font-size="11.00" fill="#000000">&lt; 9</text>
<polygon fill="#ffffff" stroke="transparent" points="587.5,-182.2 587.5,-201.2 653.5,-201.2 653.5,-182.2 587.5,-182.2"/>
<polygon fill="none" stroke="#000000" points="587.5,-182.2 587.5,-201.2 653.5,-201.2 653.5,-182.2 587.5,-182.2"/>
<text text-anchor="start" x="644.3862" y="-188.3" font-family="Helvetica,sans-Serif" font-size="11.00" fill="#000000"> &#160;</text>
<polygon fill="#ffffff" stroke="transparent" points="653.5,-182.2 653.5,-201.2 735.5,-201.2 735.5,-182.2 653.5,-182.2"/>
<polygon fill="none" stroke="#000000" points="653.5,-182.2 653.5,-201.2 735.5,-201.2 735.5,-182.2 653.5,-182.2"/>
<text text-anchor="start" x="710.7904" y="-188.3" font-family="Helvetica,sans-Serif" font-size="11.00" fill="#000000">95 &gt;</text>
</a>
</g>
</g>
<!-- medex_recalls&#45;&gt;patient_data -->
<g id="edge2" class="edge">
<title>medex_recalls:w&#45;&gt;patient_data:e</title>
<path fill="none" stroke="#000000" d="M772.2255,-182.8601C725.5298,-203.7932 804.8424,-341.2 735.5,-341.2"/>
<polygon fill="#000000" stroke="#000000" points="778.6354,-181.6657 787.1595,-183.7391 782.5677,-180.9328 786.5,-180.2 786.5,-180.2 786.5,-180.2 782.5677,-180.9328 785.8405,-176.6609 778.6354,-181.6657 778.6354,-181.6657"/>
<ellipse fill="none" stroke="#000000" cx="775.4896" cy="-182.2519" rx="3.2" ry="3.2"/>
</g>
<!-- users -->
<g id="node4" class="node">
<title>users</title>
<g id="a_node4"><a xlink:href="../../tables/users.html" xlink:title="users" target="_top">
<polygon fill="#ffffff" stroke="transparent" points="242,-160.7 242,-375.7 409,-375.7 409,-160.7 242,-160.7"/>
<polygon fill="#f5f5f5" stroke="transparent" points="242.5,-352.2 242.5,-375.2 409.5,-375.2 409.5,-352.2 242.5,-352.2"/>
<polygon fill="none" stroke="#000000" points="242.5,-352.2 242.5,-375.2 409.5,-375.2 409.5,-352.2 242.5,-352.2"/>
<text text-anchor="start" x="247.5" y="-360.8" font-family="Helvetica,sans-Serif" font-weight="bold" font-size="11.00" fill="#000000">users</text>
<text text-anchor="start" x="374.5437" y="-360.3" font-family="Helvetica,sans-Serif" font-size="11.00" fill="#000000">[table]</text>
<polygon fill="none" stroke="#000000" points="242.5,-330.2 242.5,-352.2 409.5,-352.2 409.5,-330.2 242.5,-330.2"/>
<image xlink:href="../../images/primaryKeys.png" width="11px" height="12px" preserveAspectRatio="xMinYMin meet" x="247.5" y="-347.2"/>
<text text-anchor="start" x="262.5" y="-337.3" font-family="Helvetica,sans-Serif" font-size="11.00" fill="#000000">id</text>
<polygon fill="#ffffff" stroke="transparent" points="242.5,-308.2 242.5,-330.2 409.5,-330.2 409.5,-308.2 242.5,-308.2"/>
<polygon fill="none" stroke="#000000" points="242.5,-308.2 242.5,-330.2 409.5,-330.2 409.5,-308.2 242.5,-308.2"/>
<text text-anchor="start" x="262.5" y="-315.3" font-family="Helvetica,sans-Serif" font-size="11.00" fill="#000000">uuid</text>
<polygon fill="none" stroke="#000000" points="242.5,-286.2 242.5,-308.2 409.5,-308.2 409.5,-286.2 242.5,-286.2"/>
<image xlink:href="../../images/primaryKeys.png" width="11px" height="12px" preserveAspectRatio="xMinYMin meet" x="247.5" y="-303.2"/>
<text text-anchor="start" x="262.5" y="-293.3" font-family="Helvetica,sans-Serif" font-size="11.00" fill="#000000">username</text>
<polygon fill="none" stroke="#000000" points="242.5,-264.2 242.5,-286.2 409.5,-286.2 409.5,-264.2 242.5,-264.2"/>
<image xlink:href="../../images/foreignKeys.png" width="11px" height="12px" preserveAspectRatio="xMinYMin meet" x="247.5" y="-281.2"/>
<text text-anchor="start" x="262.5" y="-271.3" font-family="Helvetica,sans-Serif" font-size="11.00" fill="#000000">facility_id</text>
<polygon fill="#ffffff" stroke="transparent" points="242.5,-242.2 242.5,-264.2 409.5,-264.2 409.5,-242.2 242.5,-242.2"/>
<polygon fill="none" stroke="#000000" points="242.5,-242.2 242.5,-264.2 409.5,-264.2 409.5,-242.2 242.5,-242.2"/>
<text text-anchor="start" x="262.5" y="-249.3" font-family="Helvetica,sans-Serif" font-size="11.00" fill="#000000">google_signin_email</text>
<polygon fill="#ffffff" stroke="transparent" points="242.5,-220.2 242.5,-242.2 409.5,-242.2 409.5,-220.2 242.5,-220.2"/>
<polygon fill="none" stroke="#000000" points="242.5,-220.2 242.5,-242.2 409.5,-242.2 409.5,-220.2 242.5,-220.2"/>
<text text-anchor="start" x="262.5" y="-227.3" font-family="Helvetica,sans-Serif" font-size="11.00" fill="#000000">abook_type</text>
<polygon fill="none" stroke="#000000" points="242.5,-198.2 242.5,-220.2 409.5,-220.2 409.5,-198.2 242.5,-198.2"/>
<image xlink:href="../../images/foreignKeys.png" width="11px" height="12px" preserveAspectRatio="xMinYMin meet" x="247.5" y="-215.2"/>
<text text-anchor="start" x="262.5" y="-205.3" font-family="Helvetica,sans-Serif" font-size="11.00" fill="#000000">billing_facility_id</text>
<polygon fill="none" stroke="#000000" points="242.5,-179.2 242.5,-198.2 409.5,-198.2 409.5,-179.2 242.5,-179.2"/>
<text text-anchor="start" x="245.5" y="-185.3" font-family="Helvetica,sans-Serif" font-size="11.00" fill="#000000">...</text>
<polygon fill="#ffffff" stroke="transparent" points="242.5,-160.2 242.5,-179.2 316.5,-179.2 316.5,-160.2 242.5,-160.2"/>
<polygon fill="none" stroke="#000000" points="242.5,-160.2 242.5,-179.2 316.5,-179.2 316.5,-160.2 242.5,-160.2"/>
<text text-anchor="start" x="245.5" y="-166.3" font-family="Helvetica,sans-Serif" font-size="11.00" fill="#000000">&lt; 2</text>
<polygon fill="#ffffff" stroke="transparent" points="316.5,-160.2 316.5,-179.2 355.5,-179.2 355.5,-160.2 316.5,-160.2"/>
<polygon fill="none" stroke="#000000" points="316.5,-160.2 316.5,-179.2 355.5,-179.2 355.5,-160.2 316.5,-160.2"/>
<text text-anchor="start" x="346.3862" y="-166.3" font-family="Helvetica,sans-Serif" font-size="11.00" fill="#000000"> &#160;</text>
<polygon fill="#ffffff" stroke="transparent" points="355.5,-160.2 355.5,-179.2 409.5,-179.2 409.5,-160.2 355.5,-160.2"/>
<polygon fill="none" stroke="#000000" points="355.5,-160.2 355.5,-179.2 409.5,-179.2 409.5,-160.2 355.5,-160.2"/>
<text text-anchor="start" x="384.7904" y="-166.3" font-family="Helvetica,sans-Serif" font-size="11.00" fill="#000000">90 &gt;</text>
</a>
</g>
</g>
<!-- medex_recalls&#45;&gt;users -->
<g id="edge3" class="edge">
<title>medex_recalls:w&#45;&gt;users:e</title>
<path fill="none" stroke="#000000" d="M772.0662,-114.0639C629.9301,-111.4038 557.1487,-71.7511 450,-172.2 393.6514,-225.0253 486.7378,-341.2 409.5,-341.2"/>
<polygon fill="#000000" stroke="#000000" points="778.5004,-114.1245 786.466,-117.7998 782.5002,-114.1622 786.5,-114.2 786.5,-114.2 786.5,-114.2 782.5002,-114.1622 786.534,-110.6002 778.5004,-114.1245 778.5004,-114.1245"/>
<ellipse fill="none" stroke="#000000" cx="775.3005" cy="-114.0943" rx="3.2" ry="3.2"/>
</g>
<!-- patient_data&#45;&gt;users -->
<g id="edge4" class="edge">
<title>patient_data:w&#45;&gt;users:e</title>
<path fill="none" stroke="#000000" d="M444.1297,-322.6375C432.5865,-328.825 427.4041,-341.2 409.5,-341.2"/>
<polygon fill="#000000" stroke="#000000" points="450.7195,-321.0612 459.3375,-322.7012 454.6098,-320.1306 458.5,-319.2 458.5,-319.2 458.5,-319.2 454.6098,-320.1306 457.6625,-315.6988 450.7195,-321.0612 450.7195,-321.0612"/>
<ellipse fill="none" stroke="#000000" cx="447.6073" cy="-321.8057" rx="3.2" ry="3.2"/>
</g>
<!-- patient_data&#45;&gt;users -->
<g id="edge5" class="edge">
<title>patient_data:w&#45;&gt;users:e</title>
<path fill="none" stroke="#000000" d="M444.8171,-301.9088C431.5046,-313.2596 432.824,-341.2 409.5,-341.2"/>
<polygon fill="#000000" stroke="#000000" points="450.9354,-299.8033 459.6715,-300.6041 454.7177,-298.5016 458.5,-297.2 458.5,-297.2 458.5,-297.2 454.7177,-298.5016 457.3285,-293.7959 450.9354,-299.8033 450.9354,-299.8033"/>
<ellipse fill="none" stroke="#000000" cx="447.9096" cy="-300.8446" rx="3.2" ry="3.2"/>
</g>
<!-- patient_data&#45;&gt;users -->
<g id="edge6" class="edge">
<title>patient_data:w&#45;&gt;users:e</title>
<path fill="none" stroke="#000000" d="M444.8768,-402.4534C428.2322,-387.3202 440.0399,-341.2 409.5,-341.2"/>
<polygon fill="#000000" stroke="#000000" points="450.9454,-404.5678 457.3155,-410.5996 454.7227,-405.8839 458.5,-407.2 458.5,-407.2 458.5,-407.2 454.7227,-405.8839 459.6845,-403.8004 450.9454,-404.5678 450.9454,-404.5678"/>
<ellipse fill="none" stroke="#000000" cx="447.9236" cy="-403.5149" rx="3.2" ry="3.2"/>
</g>
<!-- patient_data&#45;&gt;users -->
<g id="edge7" class="edge">
<title>patient_data:w&#45;&gt;users:e</title>
<path fill="none" stroke="#000000" d="M444.8171,-380.4912C431.5046,-369.1404 432.824,-341.2 409.5,-341.2"/>
<polygon fill="#000000" stroke="#000000" points="450.9354,-382.5967 457.3285,-388.6041 454.7177,-383.8984 458.5,-385.2 458.5,-385.2 458.5,-385.2 454.7177,-383.8984 459.6715,-381.7959 450.9354,-382.5967 450.9354,-382.5967"/>
<ellipse fill="none" stroke="#000000" cx="447.9096" cy="-381.5554" rx="3.2" ry="3.2"/>
</g>
<!-- patient_data&#45;&gt;users -->
<g id="edge8" class="edge">
<title>patient_data:w&#45;&gt;users:e</title>
<path fill="none" stroke="#000000" d="M444.8768,-279.9466C428.2322,-295.0798 440.0399,-341.2 409.5,-341.2"/>
<polygon fill="#000000" stroke="#000000" points="450.9454,-277.8322 459.6845,-278.5996 454.7227,-276.5161 458.5,-275.2 458.5,-275.2 458.5,-275.2 454.7227,-276.5161 457.3155,-271.8004 450.9454,-277.8322 450.9454,-277.8322"/>
<ellipse fill="none" stroke="#000000" cx="447.9236" cy="-278.8851" rx="3.2" ry="3.2"/>
</g>
<!-- users&#45;&gt;facility -->
<g id="edge9" class="edge">
<title>users:w&#45;&gt;facility:e</title>
<path fill="none" stroke="#000000" d="M227.9909,-209.2C216.6774,-209.2 209.4931,-209.2 193.5,-209.2"/>
<polygon fill="#000000" stroke="#000000" points="234.5,-209.2001 242.5,-212.8 238.5,-209.2 242.5,-209.2 242.5,-209.2 242.5,-209.2 238.5,-209.2 242.5,-205.6 234.5,-209.2001 234.5,-209.2001"/>
<ellipse fill="none" stroke="#000000" cx="231.3" cy="-209.2001" rx="3.2" ry="3.2"/>
</g>
<!-- users&#45;&gt;facility -->
<g id="edge10" class="edge">
<title>users:w&#45;&gt;facility:e</title>
<path fill="none" stroke="#000000" d="M228.8768,-270.4534C212.2322,-255.3202 224.0399,-209.2 193.5,-209.2"/>
<polygon fill="#000000" stroke="#000000" points="234.9454,-272.5678 241.3155,-278.5996 238.7227,-273.8839 242.5,-275.2 242.5,-275.2 242.5,-275.2 238.7227,-273.8839 243.6845,-271.8004 234.9454,-272.5678 234.9454,-272.5678"/>
<ellipse fill="none" stroke="#000000" cx="231.9236" cy="-271.5149" rx="3.2" ry="3.2"/>
</g>
</g>
</svg>
