<?xml version="1.0" encoding="UTF-8" standalone="no"?>
<!DOCTYPE svg PUBLIC "-//W3C//DTD SVG 1.1//EN"
 "http://www.w3.org/Graphics/SVG/1.1/DTD/svg11.dtd">
<!-- Generated by graphviz version 2.40.1 (20161225.0304)
 -->
<!-- Title: oneDegreeRelationshipsDiagram Pages: 1 -->
<svg width="818pt" height="535pt"
 viewBox="0.00 0.00 818.00 534.70" xmlns="http://www.w3.org/2000/svg" xmlns:xlink="http://www.w3.org/1999/xlink">
<g id="graph0" class="graph" transform="scale(1 1) rotate(0) translate(4 530.7)">
<title>oneDegreeRelationshipsDiagram</title>
<polygon fill="#ffffff" stroke="transparent" points="-4,4 -4,-530.7 814,-530.7 814,4 -4,4"/>
<text text-anchor="middle" x="72.4936" y="-7.3" font-family="Helvetica,sans-Serif" font-size="11.00" fill="#000000">Generated by SchemaSpy</text>
<!-- form_encounter -->
<g id="node1" class="node">
<title>form_encounter</title>
<g id="a_node1"><a xlink:href="../../tables/form_encounter.html" xlink:title="form_encounter" target="_top">
<polygon fill="#ffffff" stroke="transparent" points="334,-157.7 334,-328.7 542,-328.7 542,-157.7 334,-157.7"/>
<polygon fill="#f5f5f5" stroke="transparent" points="334,-305.2 334,-328.2 542,-328.2 542,-305.2 334,-305.2"/>
<polygon fill="none" stroke="#000000" points="334,-305.2 334,-328.2 542,-328.2 542,-305.2 334,-305.2"/>
<text text-anchor="start" x="339" y="-313.8" font-family="Helvetica,sans-Serif" font-weight="bold" font-size="11.00" fill="#000000">form_encounter</text>
<text text-anchor="start" x="507.0437" y="-313.3" font-family="Helvetica,sans-Serif" font-size="11.00" fill="#000000">[table]</text>
<polygon fill="none" stroke="#000000" points="334,-283.2 334,-305.2 542,-305.2 542,-283.2 334,-283.2"/>
<image xlink:href="../../images/primaryKeys.png" width="11px" height="12px" preserveAspectRatio="xMinYMin meet" x="339" y="-300.2"/>
<text text-anchor="start" x="354" y="-290.3" font-family="Helvetica,sans-Serif" font-size="11.00" fill="#000000">id</text>
<polygon fill="#ffffff" stroke="transparent" points="334,-261.2 334,-283.2 542,-283.2 542,-261.2 334,-261.2"/>
<polygon fill="none" stroke="#000000" points="334,-261.2 334,-283.2 542,-283.2 542,-261.2 334,-261.2"/>
<text text-anchor="start" x="354" y="-268.3" font-family="Helvetica,sans-Serif" font-size="11.00" fill="#000000">uuid</text>
<polygon fill="#ffffff" stroke="transparent" points="334,-239.2 334,-261.2 542,-261.2 542,-239.2 334,-239.2"/>
<polygon fill="none" stroke="#000000" points="334,-239.2 334,-261.2 542,-261.2 542,-239.2 334,-239.2"/>
<text text-anchor="start" x="354" y="-246.3" font-family="Helvetica,sans-Serif" font-size="11.00" fill="#000000">date</text>
<polygon fill="#ffffff" stroke="transparent" points="334,-217.2 334,-239.2 542,-239.2 542,-217.2 334,-217.2"/>
<polygon fill="none" stroke="#000000" points="334,-217.2 334,-239.2 542,-239.2 542,-217.2 334,-217.2"/>
<image xlink:href="../../images/foreignKeys.png" width="11px" height="12px" preserveAspectRatio="xMinYMin meet" x="339" y="-234.2"/>
<text text-anchor="start" x="354" y="-224.3" font-family="Helvetica,sans-Serif" font-size="11.00" fill="#000000">pid</text>
<polygon fill="none" stroke="#000000" points="334,-195.2 334,-217.2 542,-217.2 542,-195.2 334,-195.2"/>
<image xlink:href="../../images/primaryKeys.png" width="11px" height="12px" preserveAspectRatio="xMinYMin meet" x="339" y="-212.2"/>
<text text-anchor="start" x="354" y="-202.3" font-family="Helvetica,sans-Serif" font-size="11.00" fill="#000000">encounter</text>
<polygon fill="none" stroke="#000000" points="334,-176.2 334,-195.2 542,-195.2 542,-176.2 334,-176.2"/>
<text text-anchor="start" x="337" y="-182.3" font-family="Helvetica,sans-Serif" font-size="11.00" fill="#000000">...</text>
<polygon fill="#ffffff" stroke="transparent" points="334,-157.2 334,-176.2 429,-176.2 429,-157.2 334,-157.2"/>
<polygon fill="none" stroke="#000000" points="334,-157.2 334,-176.2 429,-176.2 429,-157.2 334,-157.2"/>
<text text-anchor="start" x="337" y="-163.3" font-family="Helvetica,sans-Serif" font-size="11.00" fill="#000000">&lt; 1</text>
<polygon fill="#ffffff" stroke="transparent" points="429,-157.2 429,-176.2 478,-176.2 478,-157.2 429,-157.2"/>
<polygon fill="none" stroke="#000000" points="429,-157.2 429,-176.2 478,-176.2 478,-157.2 429,-157.2"/>
<text text-anchor="start" x="468.8862" y="-163.3" font-family="Helvetica,sans-Serif" font-size="11.00" fill="#000000"> &#160;</text>
<polygon fill="#ffffff" stroke="transparent" points="478,-157.2 478,-176.2 542,-176.2 542,-157.2 478,-157.2"/>
<polygon fill="none" stroke="#000000" points="478,-157.2 478,-176.2 542,-176.2 542,-157.2 478,-157.2"/>
<text text-anchor="start" x="517.2904" y="-163.3" font-family="Helvetica,sans-Serif" font-size="11.00" fill="#000000">19 &gt;</text>
</a>
</g>
</g>
<!-- patient_data -->
<g id="node2" class="node">
<title>patient_data</title>
<g id="a_node2"><a xlink:href="../../tables/patient_data.html" xlink:title="patient_data" target="_top">
<polygon fill="#ffffff" stroke="transparent" points="8,-131.7 8,-522.7 285,-522.7 285,-131.7 8,-131.7"/>
<polygon fill="#f5f5f5" stroke="transparent" points="8.5,-499.2 8.5,-522.2 285.5,-522.2 285.5,-499.2 8.5,-499.2"/>
<polygon fill="none" stroke="#000000" points="8.5,-499.2 8.5,-522.2 285.5,-522.2 285.5,-499.2 8.5,-499.2"/>
<text text-anchor="start" x="13.5" y="-507.8" font-family="Helvetica,sans-Serif" font-weight="bold" font-size="11.00" fill="#000000">patient_data</text>
<text text-anchor="start" x="250.5437" y="-507.3" font-family="Helvetica,sans-Serif" font-size="11.00" fill="#000000">[table]</text>
<polygon fill="none" stroke="#000000" points="8.5,-477.2 8.5,-499.2 285.5,-499.2 285.5,-477.2 8.5,-477.2"/>
<image xlink:href="../../images/primaryKeys.png" width="11px" height="12px" preserveAspectRatio="xMinYMin meet" x="13.5" y="-494.2"/>
<text text-anchor="start" x="28.5" y="-484.3" font-family="Helvetica,sans-Serif" font-size="11.00" fill="#000000">id</text>
<polygon fill="#ffffff" stroke="transparent" points="8.5,-455.2 8.5,-477.2 285.5,-477.2 285.5,-455.2 8.5,-455.2"/>
<polygon fill="none" stroke="#000000" points="8.5,-455.2 8.5,-477.2 285.5,-477.2 285.5,-455.2 8.5,-455.2"/>
<text text-anchor="start" x="28.5" y="-462.3" font-family="Helvetica,sans-Serif" font-size="11.00" fill="#000000">uuid</text>
<polygon fill="#ffffff" stroke="transparent" points="8.5,-433.2 8.5,-455.2 285.5,-455.2 285.5,-433.2 8.5,-433.2"/>
<polygon fill="none" stroke="#000000" points="8.5,-433.2 8.5,-455.2 285.5,-455.2 285.5,-433.2 8.5,-433.2"/>
<text text-anchor="start" x="28.5" y="-440.3" font-family="Helvetica,sans-Serif" font-size="11.00" fill="#000000">fname</text>
<polygon fill="#ffffff" stroke="transparent" points="8.5,-411.2 8.5,-433.2 285.5,-433.2 285.5,-411.2 8.5,-411.2"/>
<polygon fill="none" stroke="#000000" points="8.5,-411.2 8.5,-433.2 285.5,-433.2 285.5,-411.2 8.5,-411.2"/>
<text text-anchor="start" x="28.5" y="-418.3" font-family="Helvetica,sans-Serif" font-size="11.00" fill="#000000">lname</text>
<polygon fill="#ffffff" stroke="transparent" points="8.5,-389.2 8.5,-411.2 285.5,-411.2 285.5,-389.2 8.5,-389.2"/>
<polygon fill="none" stroke="#000000" points="8.5,-389.2 8.5,-411.2 285.5,-411.2 285.5,-389.2 8.5,-389.2"/>
<text text-anchor="start" x="28.5" y="-396.3" font-family="Helvetica,sans-Serif" font-size="11.00" fill="#000000">DOB</text>
<polygon fill="none" stroke="#000000" points="8.5,-367.2 8.5,-389.2 285.5,-389.2 285.5,-367.2 8.5,-367.2"/>
<image xlink:href="../../images/foreignKeys.png" width="11px" height="12px" preserveAspectRatio="xMinYMin meet" x="13.5" y="-384.2"/>
<text text-anchor="start" x="28.5" y="-374.3" font-family="Helvetica,sans-Serif" font-size="11.00" fill="#000000">pharmacy_id</text>
<polygon fill="none" stroke="#000000" points="8.5,-345.2 8.5,-367.2 285.5,-367.2 285.5,-345.2 8.5,-345.2"/>
<image xlink:href="../../images/foreignKeys.png" width="11px" height="12px" preserveAspectRatio="xMinYMin meet" x="13.5" y="-362.2"/>
<text text-anchor="start" x="28.5" y="-352.3" font-family="Helvetica,sans-Serif" font-size="11.00" fill="#000000">providerID</text>
<polygon fill="none" stroke="#000000" points="8.5,-323.2 8.5,-345.2 285.5,-345.2 285.5,-323.2 8.5,-323.2"/>
<image xlink:href="../../images/foreignKeys.png" width="11px" height="12px" preserveAspectRatio="xMinYMin meet" x="13.5" y="-340.2"/>
<text text-anchor="start" x="28.5" y="-330.3" font-family="Helvetica,sans-Serif" font-size="11.00" fill="#000000">ref_providerID</text>
<polygon fill="none" stroke="#000000" points="8.5,-301.2 8.5,-323.2 285.5,-323.2 285.5,-301.2 8.5,-301.2"/>
<image xlink:href="../../images/foreignKeys.png" width="11px" height="12px" preserveAspectRatio="xMinYMin meet" x="13.5" y="-318.2"/>
<text text-anchor="start" x="28.5" y="-308.3" font-family="Helvetica,sans-Serif" font-size="11.00" fill="#000000">interpreter_needed</text>
<polygon fill="none" stroke="#000000" points="8.5,-279.2 8.5,-301.2 285.5,-301.2 285.5,-279.2 8.5,-279.2"/>
<image xlink:href="../../images/primaryKeys.png" width="11px" height="12px" preserveAspectRatio="xMinYMin meet" x="13.5" y="-296.2"/>
<text text-anchor="start" x="28.5" y="-286.3" font-family="Helvetica,sans-Serif" font-size="11.00" fill="#000000">pid</text>
<polygon fill="none" stroke="#000000" points="8.5,-257.2 8.5,-279.2 285.5,-279.2 285.5,-257.2 8.5,-257.2"/>
<image xlink:href="../../images/foreignKeys.png" width="11px" height="12px" preserveAspectRatio="xMinYMin meet" x="13.5" y="-274.2"/>
<text text-anchor="start" x="28.5" y="-264.3" font-family="Helvetica,sans-Serif" font-size="11.00" fill="#000000">advance_directive_user_authenticator</text>
<polygon fill="none" stroke="#000000" points="8.5,-235.2 8.5,-257.2 285.5,-257.2 285.5,-235.2 8.5,-235.2"/>
<image xlink:href="../../images/foreignKeys.png" width="11px" height="12px" preserveAspectRatio="xMinYMin meet" x="13.5" y="-252.2"/>
<text text-anchor="start" x="28.5" y="-242.3" font-family="Helvetica,sans-Serif" font-size="11.00" fill="#000000">created_by</text>
<polygon fill="none" stroke="#000000" points="8.5,-213.2 8.5,-235.2 285.5,-235.2 285.5,-213.2 8.5,-213.2"/>
<image xlink:href="../../images/foreignKeys.png" width="11px" height="12px" preserveAspectRatio="xMinYMin meet" x="13.5" y="-230.2"/>
<text text-anchor="start" x="28.5" y="-220.3" font-family="Helvetica,sans-Serif" font-size="11.00" fill="#000000">updated_by</text>
<polygon fill="none" stroke="#000000" points="8.5,-191.2 8.5,-213.2 285.5,-213.2 285.5,-191.2 8.5,-191.2"/>
<image xlink:href="../../images/foreignKeys.png" width="11px" height="12px" preserveAspectRatio="xMinYMin meet" x="13.5" y="-208.2"/>
<text text-anchor="start" x="28.5" y="-198.3" font-family="Helvetica,sans-Serif" font-size="11.00" fill="#000000">tribal_affiliations</text>
<polygon fill="none" stroke="#000000" points="8.5,-169.2 8.5,-191.2 285.5,-191.2 285.5,-169.2 8.5,-169.2"/>
<image xlink:href="../../images/foreignKeys.png" width="11px" height="12px" preserveAspectRatio="xMinYMin meet" x="13.5" y="-186.2"/>
<text text-anchor="start" x="28.5" y="-176.3" font-family="Helvetica,sans-Serif" font-size="11.00" fill="#000000">sex_identified</text>
<polygon fill="none" stroke="#000000" points="8.5,-150.2 8.5,-169.2 285.5,-169.2 285.5,-150.2 8.5,-150.2"/>
<text text-anchor="start" x="11.5" y="-156.3" font-family="Helvetica,sans-Serif" font-size="11.00" fill="#000000">...</text>
<polygon fill="#ffffff" stroke="transparent" points="8.5,-131.2 8.5,-150.2 137.5,-150.2 137.5,-131.2 8.5,-131.2"/>
<polygon fill="none" stroke="#000000" points="8.5,-131.2 8.5,-150.2 137.5,-150.2 137.5,-131.2 8.5,-131.2"/>
<text text-anchor="start" x="11.5" y="-137.3" font-family="Helvetica,sans-Serif" font-size="11.00" fill="#000000">&lt; 9</text>
<polygon fill="#ffffff" stroke="transparent" points="137.5,-131.2 137.5,-150.2 203.5,-150.2 203.5,-131.2 137.5,-131.2"/>
<polygon fill="none" stroke="#000000" points="137.5,-131.2 137.5,-150.2 203.5,-150.2 203.5,-131.2 137.5,-131.2"/>
<text text-anchor="start" x="194.3862" y="-137.3" font-family="Helvetica,sans-Serif" font-size="11.00" fill="#000000"> &#160;</text>
<polygon fill="#ffffff" stroke="transparent" points="203.5,-131.2 203.5,-150.2 285.5,-150.2 285.5,-131.2 203.5,-131.2"/>
<polygon fill="none" stroke="#000000" points="203.5,-131.2 203.5,-150.2 285.5,-150.2 285.5,-131.2 203.5,-131.2"/>
<text text-anchor="start" x="260.7904" y="-137.3" font-family="Helvetica,sans-Serif" font-size="11.00" fill="#000000">95 &gt;</text>
</a>
</g>
</g>
<!-- form_encounter&#45;&gt;patient_data -->
<g id="edge1" class="edge">
<title>form_encounter:w&#45;&gt;patient_data:e</title>
<path fill="none" stroke="#000000" d="M320.3908,-233.065C304.7276,-247.681 314.472,-290.2 285.5,-290.2"/>
<polygon fill="#000000" stroke="#000000" points="326.4669,-230.893 335.2118,-231.5899 330.2334,-229.5465 334,-228.2 334,-228.2 334,-228.2 330.2334,-229.5465 332.7882,-224.8101 326.4669,-230.893 326.4669,-230.893"/>
<ellipse fill="none" stroke="#000000" cx="323.4536" cy="-231.9702" rx="3.2" ry="3.2"/>
</g>
<!-- onsite_signatures -->
<g id="node3" class="node">
<title>onsite_signatures</title>
<g id="a_node3"><a xlink:href="../../tables/onsite_signatures.html" xlink:title="onsite_signatures" target="_top">
<polygon fill="#ffffff" stroke="transparent" points="591,-38.2 591,-436.2 802,-436.2 802,-38.2 591,-38.2"/>
<polygon fill="#f5f5f5" stroke="transparent" points="593.5,-411.2 593.5,-434.2 800.5,-434.2 800.5,-411.2 593.5,-411.2"/>
<polygon fill="none" stroke="#000000" points="593.5,-411.2 593.5,-434.2 800.5,-434.2 800.5,-411.2 593.5,-411.2"/>
<text text-anchor="start" x="598.5" y="-419.8" font-family="Helvetica,sans-Serif" font-weight="bold" font-size="11.00" fill="#000000">onsite_signatures</text>
<text text-anchor="start" x="765.5437" y="-419.3" font-family="Helvetica,sans-Serif" font-size="11.00" fill="#000000">[table]</text>
<polygon fill="none" stroke="#000000" points="593.5,-389.2 593.5,-411.2 733.5,-411.2 733.5,-389.2 593.5,-389.2"/>
<image xlink:href="../../images/primaryKeys.png" width="11px" height="12px" preserveAspectRatio="xMinYMin meet" x="598.5" y="-406.2"/>
<text text-anchor="start" x="613.5" y="-396.3" font-family="Helvetica,sans-Serif" font-size="11.00" fill="#000000">id</text>
<polygon fill="none" stroke="#000000" points="733.5,-389.2 733.5,-411.2 800.5,-411.2 800.5,-389.2 733.5,-389.2"/>
<text text-anchor="start" x="736.5" y="-396.9" font-family="Helvetica,sans-Serif" font-size="11.00" fill="#000000">bigint[19]</text>
<polygon fill="none" stroke="#000000" points="593.5,-367.2 593.5,-389.2 733.5,-389.2 733.5,-367.2 593.5,-367.2"/>
<text text-anchor="start" x="613.5" y="-374.3" font-family="Helvetica,sans-Serif" font-size="11.00" fill="#000000">status</text>
<polygon fill="none" stroke="#000000" points="733.5,-367.2 733.5,-389.2 800.5,-389.2 800.5,-367.2 733.5,-367.2"/>
<text text-anchor="start" x="736.4365" y="-374.9" font-family="Helvetica,sans-Serif" font-size="11.00" fill="#000000">varchar[128]</text>
<polygon fill="none" stroke="#000000" points="593.5,-345.2 593.5,-367.2 733.5,-367.2 733.5,-345.2 593.5,-345.2"/>
<text text-anchor="start" x="613.5" y="-352.3" font-family="Helvetica,sans-Serif" font-size="11.00" fill="#000000">type</text>
<polygon fill="none" stroke="#000000" points="733.5,-345.2 733.5,-367.2 800.5,-367.2 800.5,-345.2 733.5,-345.2"/>
<text text-anchor="start" x="736.4365" y="-352.9" font-family="Helvetica,sans-Serif" font-size="11.00" fill="#000000">varchar[128]</text>
<polygon fill="none" stroke="#000000" points="593.5,-323.2 593.5,-345.2 733.5,-345.2 733.5,-323.2 593.5,-323.2"/>
<text text-anchor="start" x="613.5" y="-330.3" font-family="Helvetica,sans-Serif" font-size="11.00" fill="#000000">created</text>
<polygon fill="none" stroke="#000000" points="733.5,-323.2 733.5,-345.2 800.5,-345.2 800.5,-323.2 733.5,-323.2"/>
<text text-anchor="start" x="736.5" y="-330.9" font-family="Helvetica,sans-Serif" font-size="11.00" fill="#000000">int[10]</text>
<polygon fill="none" stroke="#000000" points="593.5,-301.2 593.5,-323.2 733.5,-323.2 733.5,-301.2 593.5,-301.2"/>
<text text-anchor="start" x="613.5" y="-308.3" font-family="Helvetica,sans-Serif" font-size="11.00" fill="#000000">lastmod</text>
<polygon fill="none" stroke="#000000" points="733.5,-301.2 733.5,-323.2 800.5,-323.2 800.5,-301.2 733.5,-301.2"/>
<text text-anchor="start" x="736.5" y="-308.9" font-family="Helvetica,sans-Serif" font-size="11.00" fill="#000000">datetime[19]</text>
<polygon fill="#ffffff" stroke="transparent" points="593.5,-279.2 593.5,-301.2 733.5,-301.2 733.5,-279.2 593.5,-279.2"/>
<polygon fill="none" stroke="#000000" points="593.5,-279.2 593.5,-301.2 733.5,-301.2 733.5,-279.2 593.5,-279.2"/>
<image xlink:href="../../images/foreignKeys.png" width="11px" height="12px" preserveAspectRatio="xMinYMin meet" x="598.5" y="-296.2"/>
<text text-anchor="start" x="613.5" y="-286.3" font-family="Helvetica,sans-Serif" font-size="11.00" fill="#000000">pid</text>
<polygon fill="none" stroke="#000000" points="733.5,-279.2 733.5,-301.2 800.5,-301.2 800.5,-279.2 733.5,-279.2"/>
<text text-anchor="start" x="736.5" y="-286.9" font-family="Helvetica,sans-Serif" font-size="11.00" fill="#000000">bigint[19]</text>
<polygon fill="#ffffff" stroke="transparent" points="593.5,-257.2 593.5,-279.2 733.5,-279.2 733.5,-257.2 593.5,-257.2"/>
<polygon fill="none" stroke="#000000" points="593.5,-257.2 593.5,-279.2 733.5,-279.2 733.5,-257.2 593.5,-257.2"/>
<image xlink:href="../../images/foreignKeys.png" width="11px" height="12px" preserveAspectRatio="xMinYMin meet" x="598.5" y="-274.2"/>
<text text-anchor="start" x="613.5" y="-264.3" font-family="Helvetica,sans-Serif" font-size="11.00" fill="#000000">encounter</text>
<polygon fill="none" stroke="#000000" points="733.5,-257.2 733.5,-279.2 800.5,-279.2 800.5,-257.2 733.5,-257.2"/>
<text text-anchor="start" x="736.5" y="-264.9" font-family="Helvetica,sans-Serif" font-size="11.00" fill="#000000">int[10]</text>
<polygon fill="#ffffff" stroke="transparent" points="593.5,-235.2 593.5,-257.2 733.5,-257.2 733.5,-235.2 593.5,-235.2"/>
<polygon fill="none" stroke="#000000" points="593.5,-235.2 593.5,-257.2 733.5,-257.2 733.5,-235.2 593.5,-235.2"/>
<text text-anchor="start" x="613.5" y="-242.3" font-family="Helvetica,sans-Serif" font-size="11.00" fill="#000000">user</text>
<polygon fill="none" stroke="#000000" points="733.5,-235.2 733.5,-257.2 800.5,-257.2 800.5,-235.2 733.5,-235.2"/>
<text text-anchor="start" x="736.4365" y="-242.9" font-family="Helvetica,sans-Serif" font-size="11.00" fill="#000000">varchar[255]</text>
<polygon fill="none" stroke="#000000" points="593.5,-213.2 593.5,-235.2 733.5,-235.2 733.5,-213.2 593.5,-213.2"/>
<text text-anchor="start" x="613.5" y="-220.3" font-family="Helvetica,sans-Serif" font-size="11.00" fill="#000000">activity</text>
<polygon fill="none" stroke="#000000" points="733.5,-213.2 733.5,-235.2 800.5,-235.2 800.5,-213.2 733.5,-213.2"/>
<text text-anchor="start" x="736.5" y="-220.9" font-family="Helvetica,sans-Serif" font-size="11.00" fill="#000000">tinyint[3]</text>
<polygon fill="none" stroke="#000000" points="593.5,-191.2 593.5,-213.2 733.5,-213.2 733.5,-191.2 593.5,-191.2"/>
<text text-anchor="start" x="613.5" y="-198.3" font-family="Helvetica,sans-Serif" font-size="11.00" fill="#000000">authorized</text>
<polygon fill="none" stroke="#000000" points="733.5,-191.2 733.5,-213.2 800.5,-213.2 800.5,-191.2 733.5,-191.2"/>
<text text-anchor="start" x="736.5" y="-198.9" font-family="Helvetica,sans-Serif" font-size="11.00" fill="#000000">tinyint[3]</text>
<polygon fill="none" stroke="#000000" points="593.5,-169.2 593.5,-191.2 733.5,-191.2 733.5,-169.2 593.5,-169.2"/>
<text text-anchor="start" x="613.5" y="-176.3" font-family="Helvetica,sans-Serif" font-size="11.00" fill="#000000">signator</text>
<polygon fill="none" stroke="#000000" points="733.5,-169.2 733.5,-191.2 800.5,-191.2 800.5,-169.2 733.5,-169.2"/>
<text text-anchor="start" x="736.4365" y="-176.9" font-family="Helvetica,sans-Serif" font-size="11.00" fill="#000000">varchar[255]</text>
<polygon fill="none" stroke="#000000" points="593.5,-147.2 593.5,-169.2 733.5,-169.2 733.5,-147.2 593.5,-147.2"/>
<text text-anchor="start" x="613.5" y="-154.3" font-family="Helvetica,sans-Serif" font-size="11.00" fill="#000000">sig_image</text>
<polygon fill="none" stroke="#000000" points="733.5,-147.2 733.5,-169.2 800.5,-169.2 800.5,-147.2 733.5,-147.2"/>
<text text-anchor="start" x="736.5" y="-154.9" font-family="Helvetica,sans-Serif" font-size="11.00" fill="#000000">text[65535]</text>
<polygon fill="none" stroke="#000000" points="593.5,-125.2 593.5,-147.2 733.5,-147.2 733.5,-125.2 593.5,-125.2"/>
<text text-anchor="start" x="613.5" y="-132.3" font-family="Helvetica,sans-Serif" font-size="11.00" fill="#000000">signature</text>
<polygon fill="none" stroke="#000000" points="733.5,-125.2 733.5,-147.2 800.5,-147.2 800.5,-125.2 733.5,-125.2"/>
<text text-anchor="start" x="736.5" y="-132.9" font-family="Helvetica,sans-Serif" font-size="11.00" fill="#000000">text[65535]</text>
<polygon fill="none" stroke="#000000" points="593.5,-103.2 593.5,-125.2 733.5,-125.2 733.5,-103.2 593.5,-103.2"/>
<text text-anchor="start" x="613.5" y="-110.3" font-family="Helvetica,sans-Serif" font-size="11.00" fill="#000000">sig_hash</text>
<polygon fill="none" stroke="#000000" points="733.5,-103.2 733.5,-125.2 800.5,-125.2 800.5,-103.2 733.5,-103.2"/>
<text text-anchor="start" x="736.4365" y="-110.9" font-family="Helvetica,sans-Serif" font-size="11.00" fill="#000000">varchar[255]</text>
<polygon fill="none" stroke="#000000" points="593.5,-81.2 593.5,-103.2 733.5,-103.2 733.5,-81.2 593.5,-81.2"/>
<text text-anchor="start" x="613.5" y="-88.3" font-family="Helvetica,sans-Serif" font-size="11.00" fill="#000000">ip</text>
<polygon fill="none" stroke="#000000" points="733.5,-81.2 733.5,-103.2 800.5,-103.2 800.5,-81.2 733.5,-81.2"/>
<text text-anchor="start" x="736.5" y="-88.9" font-family="Helvetica,sans-Serif" font-size="11.00" fill="#000000">varchar[46]</text>
<polygon fill="none" stroke="#000000" points="593.5,-59.2 593.5,-81.2 733.5,-81.2 733.5,-59.2 593.5,-59.2"/>
<text text-anchor="start" x="613.5" y="-66.3" font-family="Helvetica,sans-Serif" font-size="11.00" fill="#000000">signer</text>
<polygon fill="none" stroke="#000000" points="733.5,-59.2 733.5,-81.2 800.5,-81.2 800.5,-59.2 733.5,-59.2"/>
<text text-anchor="start" x="736.5" y="-66.9" font-family="Helvetica,sans-Serif" font-size="11.00" fill="#000000">unknown[0]</text>
<polygon fill="#ffffff" stroke="transparent" points="593.5,-40.2 593.5,-59.2 667.5,-59.2 667.5,-40.2 593.5,-40.2"/>
<polygon fill="none" stroke="#000000" points="593.5,-40.2 593.5,-59.2 667.5,-59.2 667.5,-40.2 593.5,-40.2"/>
<text text-anchor="start" x="596.5" y="-46.3" font-family="Helvetica,sans-Serif" font-size="11.00" fill="#000000">&lt; 2</text>
<polygon fill="#ffffff" stroke="transparent" points="667.5,-40.2 667.5,-59.2 733.5,-59.2 733.5,-40.2 667.5,-40.2"/>
<polygon fill="none" stroke="#000000" points="667.5,-40.2 667.5,-59.2 733.5,-59.2 733.5,-40.2 667.5,-40.2"/>
<text text-anchor="start" x="724.3862" y="-46.3" font-family="Helvetica,sans-Serif" font-size="11.00" fill="#000000"> &#160;</text>
<polygon fill="#ffffff" stroke="transparent" points="733.5,-40.2 733.5,-59.2 800.5,-59.2 800.5,-40.2 733.5,-40.2"/>
<polygon fill="none" stroke="#000000" points="733.5,-40.2 733.5,-59.2 800.5,-59.2 800.5,-40.2 733.5,-40.2"/>
<text text-anchor="start" x="781.9053" y="-46.3" font-family="Helvetica,sans-Serif" font-size="11.00" fill="#000000">0 &gt;</text>
<polygon fill="none" stroke="#000000" stroke-width="2" points="592,-39.2 592,-435.2 801,-435.2 801,-39.2 592,-39.2"/>
</a>
</g>
</g>
<!-- onsite_signatures&#45;&gt;form_encounter -->
<g id="edge2" class="edge">
<title>onsite_signatures:w&#45;&gt;form_encounter:e</title>
<path fill="none" stroke="#000000" d="M579.4209,-263.335C562.9492,-248.719 571.665,-206.2 542,-206.2"/>
<polygon fill="#000000" stroke="#000000" points="585.9387,-265.5872 592.3242,-271.6026 589.7193,-266.8936 593.5,-268.2 593.5,-268.2 593.5,-268.2 589.7193,-266.8936 594.6758,-264.7974 585.9387,-265.5872 585.9387,-265.5872"/>
<ellipse fill="none" stroke="#000000" cx="582.9142" cy="-264.542" rx="3.2" ry="3.2"/>
</g>
<!-- onsite_signatures&#45;&gt;patient_data -->
<g id="edge3" class="edge">
<title>onsite_signatures:w&#45;&gt;patient_data:e</title>
<path fill="none" stroke="#000000" d="M579.4807,-294.8695C567.8548,-305.2124 570.7514,-329.8733 550,-339.2 459.1944,-380.0123 416.0712,-381.6085 326,-339.2 300.4379,-327.1645 313.7537,-290.2 285.5,-290.2"/>
<polygon fill="#000000" stroke="#000000" points="585.9099,-292.7281 594.6376,-293.6155 589.705,-291.464 593.5,-290.2 593.5,-290.2 593.5,-290.2 589.705,-291.464 592.3624,-286.7845 585.9099,-292.7281 585.9099,-292.7281"/>
<ellipse fill="none" stroke="#000000" cx="582.8739" cy="-293.7393" rx="3.2" ry="3.2"/>
</g>
</g>
</svg>
