<?xml version="1.0" encoding="UTF-8" standalone="no"?>
<!DOCTYPE svg PUBLIC "-//W3C//DTD SVG 1.1//EN"
 "http://www.w3.org/Graphics/SVG/1.1/DTD/svg11.dtd">
<!-- Generated by graphviz version 2.40.1 (20161225.0304)
 -->
<!-- Title: oneDegreeRelationshipsDiagram Pages: 1 -->
<svg width="1353pt" height="582pt"
 viewBox="0.00 0.00 1353.00 582.36" xmlns="http://www.w3.org/2000/svg" xmlns:xlink="http://www.w3.org/1999/xlink">
<g id="graph0" class="graph" transform="scale(1 1) rotate(0) translate(4 578.3551)">
<title>oneDegreeRelationshipsDiagram</title>
<polygon fill="#ffffff" stroke="transparent" points="-4,4 -4,-578.3551 1349,-578.3551 1349,4 -4,4"/>
<text text-anchor="middle" x="72.4936" y="-7.3" font-family="Helvetica,sans-Serif" font-size="11.00" fill="#000000">Generated by SchemaSpy</text>
<!-- form_encounter -->
<g id="node1" class="node">
<title>form_encounter</title>
<g id="a_node1"><a xlink:href="../../tables/form_encounter.html" xlink:title="form_encounter" target="_top">
<polygon fill="#ffffff" stroke="transparent" points="784,-235.8551 784,-406.8551 992,-406.8551 992,-235.8551 784,-235.8551"/>
<polygon fill="#f5f5f5" stroke="transparent" points="784,-383.3551 784,-406.3551 992,-406.3551 992,-383.3551 784,-383.3551"/>
<polygon fill="none" stroke="#000000" points="784,-383.3551 784,-406.3551 992,-406.3551 992,-383.3551 784,-383.3551"/>
<text text-anchor="start" x="789" y="-391.9551" font-family="Helvetica,sans-Serif" font-weight="bold" font-size="11.00" fill="#000000">form_encounter</text>
<text text-anchor="start" x="957.0437" y="-391.4551" font-family="Helvetica,sans-Serif" font-size="11.00" fill="#000000">[table]</text>
<polygon fill="none" stroke="#000000" points="784,-361.3551 784,-383.3551 992,-383.3551 992,-361.3551 784,-361.3551"/>
<image xlink:href="../../images/primaryKeys.png" width="11px" height="12px" preserveAspectRatio="xMinYMin meet" x="789" y="-378.355"/>
<text text-anchor="start" x="804" y="-368.4551" font-family="Helvetica,sans-Serif" font-size="11.00" fill="#000000">id</text>
<polygon fill="#ffffff" stroke="transparent" points="784,-339.3551 784,-361.3551 992,-361.3551 992,-339.3551 784,-339.3551"/>
<polygon fill="none" stroke="#000000" points="784,-339.3551 784,-361.3551 992,-361.3551 992,-339.3551 784,-339.3551"/>
<text text-anchor="start" x="804" y="-346.4551" font-family="Helvetica,sans-Serif" font-size="11.00" fill="#000000">uuid</text>
<polygon fill="#ffffff" stroke="transparent" points="784,-317.3551 784,-339.3551 992,-339.3551 992,-317.3551 784,-317.3551"/>
<polygon fill="none" stroke="#000000" points="784,-317.3551 784,-339.3551 992,-339.3551 992,-317.3551 784,-317.3551"/>
<text text-anchor="start" x="804" y="-324.4551" font-family="Helvetica,sans-Serif" font-size="11.00" fill="#000000">date</text>
<polygon fill="#ffffff" stroke="transparent" points="784,-295.3551 784,-317.3551 992,-317.3551 992,-295.3551 784,-295.3551"/>
<polygon fill="none" stroke="#000000" points="784,-295.3551 784,-317.3551 992,-317.3551 992,-295.3551 784,-295.3551"/>
<image xlink:href="../../images/foreignKeys.png" width="11px" height="12px" preserveAspectRatio="xMinYMin meet" x="789" y="-312.355"/>
<text text-anchor="start" x="804" y="-302.4551" font-family="Helvetica,sans-Serif" font-size="11.00" fill="#000000">pid</text>
<polygon fill="none" stroke="#000000" points="784,-273.3551 784,-295.3551 992,-295.3551 992,-273.3551 784,-273.3551"/>
<image xlink:href="../../images/primaryKeys.png" width="11px" height="12px" preserveAspectRatio="xMinYMin meet" x="789" y="-290.355"/>
<text text-anchor="start" x="804" y="-280.4551" font-family="Helvetica,sans-Serif" font-size="11.00" fill="#000000">encounter</text>
<polygon fill="none" stroke="#000000" points="784,-254.3551 784,-273.3551 992,-273.3551 992,-254.3551 784,-254.3551"/>
<text text-anchor="start" x="787" y="-260.4551" font-family="Helvetica,sans-Serif" font-size="11.00" fill="#000000">...</text>
<polygon fill="#ffffff" stroke="transparent" points="784,-235.3551 784,-254.3551 879,-254.3551 879,-235.3551 784,-235.3551"/>
<polygon fill="none" stroke="#000000" points="784,-235.3551 784,-254.3551 879,-254.3551 879,-235.3551 784,-235.3551"/>
<text text-anchor="start" x="787" y="-241.4551" font-family="Helvetica,sans-Serif" font-size="11.00" fill="#000000">&lt; 1</text>
<polygon fill="#ffffff" stroke="transparent" points="879,-235.3551 879,-254.3551 928,-254.3551 928,-235.3551 879,-235.3551"/>
<polygon fill="none" stroke="#000000" points="879,-235.3551 879,-254.3551 928,-254.3551 928,-235.3551 879,-235.3551"/>
<text text-anchor="start" x="918.8862" y="-241.4551" font-family="Helvetica,sans-Serif" font-size="11.00" fill="#000000"> &#160;</text>
<polygon fill="#ffffff" stroke="transparent" points="928,-235.3551 928,-254.3551 992,-254.3551 992,-235.3551 928,-235.3551"/>
<polygon fill="none" stroke="#000000" points="928,-235.3551 928,-254.3551 992,-254.3551 992,-235.3551 928,-235.3551"/>
<text text-anchor="start" x="967.2904" y="-241.4551" font-family="Helvetica,sans-Serif" font-size="11.00" fill="#000000">19 &gt;</text>
</a>
</g>
</g>
<!-- patient_data -->
<g id="node2" class="node">
<title>patient_data</title>
<g id="a_node2"><a xlink:href="../../tables/patient_data.html" xlink:title="patient_data" target="_top">
<polygon fill="#ffffff" stroke="transparent" points="458,-121.8551 458,-512.8551 735,-512.8551 735,-121.8551 458,-121.8551"/>
<polygon fill="#f5f5f5" stroke="transparent" points="458.5,-489.3551 458.5,-512.3551 735.5,-512.3551 735.5,-489.3551 458.5,-489.3551"/>
<polygon fill="none" stroke="#000000" points="458.5,-489.3551 458.5,-512.3551 735.5,-512.3551 735.5,-489.3551 458.5,-489.3551"/>
<text text-anchor="start" x="463.5" y="-497.9551" font-family="Helvetica,sans-Serif" font-weight="bold" font-size="11.00" fill="#000000">patient_data</text>
<text text-anchor="start" x="700.5437" y="-497.4551" font-family="Helvetica,sans-Serif" font-size="11.00" fill="#000000">[table]</text>
<polygon fill="none" stroke="#000000" points="458.5,-467.3551 458.5,-489.3551 735.5,-489.3551 735.5,-467.3551 458.5,-467.3551"/>
<image xlink:href="../../images/primaryKeys.png" width="11px" height="12px" preserveAspectRatio="xMinYMin meet" x="463.5" y="-484.355"/>
<text text-anchor="start" x="478.5" y="-474.4551" font-family="Helvetica,sans-Serif" font-size="11.00" fill="#000000">id</text>
<polygon fill="#ffffff" stroke="transparent" points="458.5,-445.3551 458.5,-467.3551 735.5,-467.3551 735.5,-445.3551 458.5,-445.3551"/>
<polygon fill="none" stroke="#000000" points="458.5,-445.3551 458.5,-467.3551 735.5,-467.3551 735.5,-445.3551 458.5,-445.3551"/>
<text text-anchor="start" x="478.5" y="-452.4551" font-family="Helvetica,sans-Serif" font-size="11.00" fill="#000000">uuid</text>
<polygon fill="#ffffff" stroke="transparent" points="458.5,-423.3551 458.5,-445.3551 735.5,-445.3551 735.5,-423.3551 458.5,-423.3551"/>
<polygon fill="none" stroke="#000000" points="458.5,-423.3551 458.5,-445.3551 735.5,-445.3551 735.5,-423.3551 458.5,-423.3551"/>
<text text-anchor="start" x="478.5" y="-430.4551" font-family="Helvetica,sans-Serif" font-size="11.00" fill="#000000">fname</text>
<polygon fill="#ffffff" stroke="transparent" points="458.5,-401.3551 458.5,-423.3551 735.5,-423.3551 735.5,-401.3551 458.5,-401.3551"/>
<polygon fill="none" stroke="#000000" points="458.5,-401.3551 458.5,-423.3551 735.5,-423.3551 735.5,-401.3551 458.5,-401.3551"/>
<text text-anchor="start" x="478.5" y="-408.4551" font-family="Helvetica,sans-Serif" font-size="11.00" fill="#000000">lname</text>
<polygon fill="#ffffff" stroke="transparent" points="458.5,-379.3551 458.5,-401.3551 735.5,-401.3551 735.5,-379.3551 458.5,-379.3551"/>
<polygon fill="none" stroke="#000000" points="458.5,-379.3551 458.5,-401.3551 735.5,-401.3551 735.5,-379.3551 458.5,-379.3551"/>
<text text-anchor="start" x="478.5" y="-386.4551" font-family="Helvetica,sans-Serif" font-size="11.00" fill="#000000">DOB</text>
<polygon fill="none" stroke="#000000" points="458.5,-357.3551 458.5,-379.3551 735.5,-379.3551 735.5,-357.3551 458.5,-357.3551"/>
<image xlink:href="../../images/foreignKeys.png" width="11px" height="12px" preserveAspectRatio="xMinYMin meet" x="463.5" y="-374.355"/>
<text text-anchor="start" x="478.5" y="-364.4551" font-family="Helvetica,sans-Serif" font-size="11.00" fill="#000000">pharmacy_id</text>
<polygon fill="none" stroke="#000000" points="458.5,-335.3551 458.5,-357.3551 735.5,-357.3551 735.5,-335.3551 458.5,-335.3551"/>
<image xlink:href="../../images/foreignKeys.png" width="11px" height="12px" preserveAspectRatio="xMinYMin meet" x="463.5" y="-352.355"/>
<text text-anchor="start" x="478.5" y="-342.4551" font-family="Helvetica,sans-Serif" font-size="11.00" fill="#000000">providerID</text>
<polygon fill="none" stroke="#000000" points="458.5,-313.3551 458.5,-335.3551 735.5,-335.3551 735.5,-313.3551 458.5,-313.3551"/>
<image xlink:href="../../images/foreignKeys.png" width="11px" height="12px" preserveAspectRatio="xMinYMin meet" x="463.5" y="-330.355"/>
<text text-anchor="start" x="478.5" y="-320.4551" font-family="Helvetica,sans-Serif" font-size="11.00" fill="#000000">ref_providerID</text>
<polygon fill="none" stroke="#000000" points="458.5,-291.3551 458.5,-313.3551 735.5,-313.3551 735.5,-291.3551 458.5,-291.3551"/>
<image xlink:href="../../images/foreignKeys.png" width="11px" height="12px" preserveAspectRatio="xMinYMin meet" x="463.5" y="-308.355"/>
<text text-anchor="start" x="478.5" y="-298.4551" font-family="Helvetica,sans-Serif" font-size="11.00" fill="#000000">interpreter_needed</text>
<polygon fill="none" stroke="#000000" points="458.5,-269.3551 458.5,-291.3551 735.5,-291.3551 735.5,-269.3551 458.5,-269.3551"/>
<image xlink:href="../../images/primaryKeys.png" width="11px" height="12px" preserveAspectRatio="xMinYMin meet" x="463.5" y="-286.355"/>
<text text-anchor="start" x="478.5" y="-276.4551" font-family="Helvetica,sans-Serif" font-size="11.00" fill="#000000">pid</text>
<polygon fill="none" stroke="#000000" points="458.5,-247.3551 458.5,-269.3551 735.5,-269.3551 735.5,-247.3551 458.5,-247.3551"/>
<image xlink:href="../../images/foreignKeys.png" width="11px" height="12px" preserveAspectRatio="xMinYMin meet" x="463.5" y="-264.355"/>
<text text-anchor="start" x="478.5" y="-254.4551" font-family="Helvetica,sans-Serif" font-size="11.00" fill="#000000">advance_directive_user_authenticator</text>
<polygon fill="none" stroke="#000000" points="458.5,-225.3551 458.5,-247.3551 735.5,-247.3551 735.5,-225.3551 458.5,-225.3551"/>
<image xlink:href="../../images/foreignKeys.png" width="11px" height="12px" preserveAspectRatio="xMinYMin meet" x="463.5" y="-242.355"/>
<text text-anchor="start" x="478.5" y="-232.4551" font-family="Helvetica,sans-Serif" font-size="11.00" fill="#000000">created_by</text>
<polygon fill="none" stroke="#000000" points="458.5,-203.3551 458.5,-225.3551 735.5,-225.3551 735.5,-203.3551 458.5,-203.3551"/>
<image xlink:href="../../images/foreignKeys.png" width="11px" height="12px" preserveAspectRatio="xMinYMin meet" x="463.5" y="-220.355"/>
<text text-anchor="start" x="478.5" y="-210.4551" font-family="Helvetica,sans-Serif" font-size="11.00" fill="#000000">updated_by</text>
<polygon fill="none" stroke="#000000" points="458.5,-181.3551 458.5,-203.3551 735.5,-203.3551 735.5,-181.3551 458.5,-181.3551"/>
<image xlink:href="../../images/foreignKeys.png" width="11px" height="12px" preserveAspectRatio="xMinYMin meet" x="463.5" y="-198.355"/>
<text text-anchor="start" x="478.5" y="-188.4551" font-family="Helvetica,sans-Serif" font-size="11.00" fill="#000000">tribal_affiliations</text>
<polygon fill="none" stroke="#000000" points="458.5,-159.3551 458.5,-181.3551 735.5,-181.3551 735.5,-159.3551 458.5,-159.3551"/>
<image xlink:href="../../images/foreignKeys.png" width="11px" height="12px" preserveAspectRatio="xMinYMin meet" x="463.5" y="-176.355"/>
<text text-anchor="start" x="478.5" y="-166.4551" font-family="Helvetica,sans-Serif" font-size="11.00" fill="#000000">sex_identified</text>
<polygon fill="none" stroke="#000000" points="458.5,-140.3551 458.5,-159.3551 735.5,-159.3551 735.5,-140.3551 458.5,-140.3551"/>
<text text-anchor="start" x="461.5" y="-146.4551" font-family="Helvetica,sans-Serif" font-size="11.00" fill="#000000">...</text>
<polygon fill="#ffffff" stroke="transparent" points="458.5,-121.3551 458.5,-140.3551 587.5,-140.3551 587.5,-121.3551 458.5,-121.3551"/>
<polygon fill="none" stroke="#000000" points="458.5,-121.3551 458.5,-140.3551 587.5,-140.3551 587.5,-121.3551 458.5,-121.3551"/>
<text text-anchor="start" x="461.5" y="-127.4551" font-family="Helvetica,sans-Serif" font-size="11.00" fill="#000000">&lt; 9</text>
<polygon fill="#ffffff" stroke="transparent" points="587.5,-121.3551 587.5,-140.3551 653.5,-140.3551 653.5,-121.3551 587.5,-121.3551"/>
<polygon fill="none" stroke="#000000" points="587.5,-121.3551 587.5,-140.3551 653.5,-140.3551 653.5,-121.3551 587.5,-121.3551"/>
<text text-anchor="start" x="644.3862" y="-127.4551" font-family="Helvetica,sans-Serif" font-size="11.00" fill="#000000"> &#160;</text>
<polygon fill="#ffffff" stroke="transparent" points="653.5,-121.3551 653.5,-140.3551 735.5,-140.3551 735.5,-121.3551 653.5,-121.3551"/>
<polygon fill="none" stroke="#000000" points="653.5,-121.3551 653.5,-140.3551 735.5,-140.3551 735.5,-121.3551 653.5,-121.3551"/>
<text text-anchor="start" x="710.7904" y="-127.4551" font-family="Helvetica,sans-Serif" font-size="11.00" fill="#000000">95 &gt;</text>
</a>
</g>
</g>
<!-- form_encounter&#45;&gt;patient_data -->
<g id="edge1" class="edge">
<title>form_encounter:w&#45;&gt;patient_data:e</title>
<path fill="none" stroke="#000000" d="M769.9001,-302.5187C758.2846,-295.2863 754.0343,-280.3551 735.5,-280.3551"/>
<polygon fill="#000000" stroke="#000000" points="776.2806,-304.2547 783.0548,-309.8288 780.1403,-305.3049 784,-306.3551 784,-306.3551 784,-306.3551 780.1403,-305.3049 784.9452,-302.8814 776.2806,-304.2547 776.2806,-304.2547"/>
<ellipse fill="none" stroke="#000000" cx="773.1929" cy="-303.4145" rx="3.2" ry="3.2"/>
</g>
<!-- users -->
<g id="node5" class="node">
<title>users</title>
<g id="a_node5"><a xlink:href="../../tables/users.html" xlink:title="users" target="_top">
<polygon fill="#ffffff" stroke="transparent" points="242,-77.8551 242,-292.8551 409,-292.8551 409,-77.8551 242,-77.8551"/>
<polygon fill="#f5f5f5" stroke="transparent" points="242.5,-269.3551 242.5,-292.3551 409.5,-292.3551 409.5,-269.3551 242.5,-269.3551"/>
<polygon fill="none" stroke="#000000" points="242.5,-269.3551 242.5,-292.3551 409.5,-292.3551 409.5,-269.3551 242.5,-269.3551"/>
<text text-anchor="start" x="247.5" y="-277.9551" font-family="Helvetica,sans-Serif" font-weight="bold" font-size="11.00" fill="#000000">users</text>
<text text-anchor="start" x="374.5437" y="-277.4551" font-family="Helvetica,sans-Serif" font-size="11.00" fill="#000000">[table]</text>
<polygon fill="none" stroke="#000000" points="242.5,-247.3551 242.5,-269.3551 409.5,-269.3551 409.5,-247.3551 242.5,-247.3551"/>
<image xlink:href="../../images/primaryKeys.png" width="11px" height="12px" preserveAspectRatio="xMinYMin meet" x="247.5" y="-264.355"/>
<text text-anchor="start" x="262.5" y="-254.4551" font-family="Helvetica,sans-Serif" font-size="11.00" fill="#000000">id</text>
<polygon fill="#ffffff" stroke="transparent" points="242.5,-225.3551 242.5,-247.3551 409.5,-247.3551 409.5,-225.3551 242.5,-225.3551"/>
<polygon fill="none" stroke="#000000" points="242.5,-225.3551 242.5,-247.3551 409.5,-247.3551 409.5,-225.3551 242.5,-225.3551"/>
<text text-anchor="start" x="262.5" y="-232.4551" font-family="Helvetica,sans-Serif" font-size="11.00" fill="#000000">uuid</text>
<polygon fill="none" stroke="#000000" points="242.5,-203.3551 242.5,-225.3551 409.5,-225.3551 409.5,-203.3551 242.5,-203.3551"/>
<image xlink:href="../../images/primaryKeys.png" width="11px" height="12px" preserveAspectRatio="xMinYMin meet" x="247.5" y="-220.355"/>
<text text-anchor="start" x="262.5" y="-210.4551" font-family="Helvetica,sans-Serif" font-size="11.00" fill="#000000">username</text>
<polygon fill="none" stroke="#000000" points="242.5,-181.3551 242.5,-203.3551 409.5,-203.3551 409.5,-181.3551 242.5,-181.3551"/>
<image xlink:href="../../images/foreignKeys.png" width="11px" height="12px" preserveAspectRatio="xMinYMin meet" x="247.5" y="-198.355"/>
<text text-anchor="start" x="262.5" y="-188.4551" font-family="Helvetica,sans-Serif" font-size="11.00" fill="#000000">facility_id</text>
<polygon fill="#ffffff" stroke="transparent" points="242.5,-159.3551 242.5,-181.3551 409.5,-181.3551 409.5,-159.3551 242.5,-159.3551"/>
<polygon fill="none" stroke="#000000" points="242.5,-159.3551 242.5,-181.3551 409.5,-181.3551 409.5,-159.3551 242.5,-159.3551"/>
<text text-anchor="start" x="262.5" y="-166.4551" font-family="Helvetica,sans-Serif" font-size="11.00" fill="#000000">google_signin_email</text>
<polygon fill="#ffffff" stroke="transparent" points="242.5,-137.3551 242.5,-159.3551 409.5,-159.3551 409.5,-137.3551 242.5,-137.3551"/>
<polygon fill="none" stroke="#000000" points="242.5,-137.3551 242.5,-159.3551 409.5,-159.3551 409.5,-137.3551 242.5,-137.3551"/>
<text text-anchor="start" x="262.5" y="-144.4551" font-family="Helvetica,sans-Serif" font-size="11.00" fill="#000000">abook_type</text>
<polygon fill="none" stroke="#000000" points="242.5,-115.3551 242.5,-137.3551 409.5,-137.3551 409.5,-115.3551 242.5,-115.3551"/>
<image xlink:href="../../images/foreignKeys.png" width="11px" height="12px" preserveAspectRatio="xMinYMin meet" x="247.5" y="-132.355"/>
<text text-anchor="start" x="262.5" y="-122.4551" font-family="Helvetica,sans-Serif" font-size="11.00" fill="#000000">billing_facility_id</text>
<polygon fill="none" stroke="#000000" points="242.5,-96.3551 242.5,-115.3551 409.5,-115.3551 409.5,-96.3551 242.5,-96.3551"/>
<text text-anchor="start" x="245.5" y="-102.4551" font-family="Helvetica,sans-Serif" font-size="11.00" fill="#000000">...</text>
<polygon fill="#ffffff" stroke="transparent" points="242.5,-77.3551 242.5,-96.3551 316.5,-96.3551 316.5,-77.3551 242.5,-77.3551"/>
<polygon fill="none" stroke="#000000" points="242.5,-77.3551 242.5,-96.3551 316.5,-96.3551 316.5,-77.3551 242.5,-77.3551"/>
<text text-anchor="start" x="245.5" y="-83.4551" font-family="Helvetica,sans-Serif" font-size="11.00" fill="#000000">&lt; 2</text>
<polygon fill="#ffffff" stroke="transparent" points="316.5,-77.3551 316.5,-96.3551 355.5,-96.3551 355.5,-77.3551 316.5,-77.3551"/>
<polygon fill="none" stroke="#000000" points="316.5,-77.3551 316.5,-96.3551 355.5,-96.3551 355.5,-77.3551 316.5,-77.3551"/>
<text text-anchor="start" x="346.3862" y="-83.4551" font-family="Helvetica,sans-Serif" font-size="11.00" fill="#000000"> &#160;</text>
<polygon fill="#ffffff" stroke="transparent" points="355.5,-77.3551 355.5,-96.3551 409.5,-96.3551 409.5,-77.3551 355.5,-77.3551"/>
<polygon fill="none" stroke="#000000" points="355.5,-77.3551 355.5,-96.3551 409.5,-96.3551 409.5,-77.3551 355.5,-77.3551"/>
<text text-anchor="start" x="384.7904" y="-83.4551" font-family="Helvetica,sans-Serif" font-size="11.00" fill="#000000">90 &gt;</text>
</a>
</g>
</g>
<!-- patient_data&#45;&gt;users -->
<g id="edge6" class="edge">
<title>patient_data:w&#45;&gt;users:e</title>
<path fill="none" stroke="#000000" d="M443.9909,-258.3551C432.6774,-258.3551 425.4931,-258.3551 409.5,-258.3551"/>
<polygon fill="#000000" stroke="#000000" points="450.5,-258.3551 458.5,-261.9551 454.5,-258.3551 458.5,-258.3551 458.5,-258.3551 458.5,-258.3551 454.5,-258.3551 458.5,-254.7551 450.5,-258.3551 450.5,-258.3551"/>
<ellipse fill="none" stroke="#000000" cx="447.3" cy="-258.3551" rx="3.2" ry="3.2"/>
</g>
<!-- patient_data&#45;&gt;users -->
<g id="edge7" class="edge">
<title>patient_data:w&#45;&gt;users:e</title>
<path fill="none" stroke="#000000" d="M444.1297,-239.7926C432.5865,-245.9801 427.4041,-258.3551 409.5,-258.3551"/>
<polygon fill="#000000" stroke="#000000" points="450.7195,-238.2163 459.3375,-239.8563 454.6098,-237.2857 458.5,-236.3551 458.5,-236.3551 458.5,-236.3551 454.6098,-237.2857 457.6625,-232.8538 450.7195,-238.2163 450.7195,-238.2163"/>
<ellipse fill="none" stroke="#000000" cx="447.6073" cy="-238.9608" rx="3.2" ry="3.2"/>
</g>
<!-- patient_data&#45;&gt;users -->
<g id="edge8" class="edge">
<title>patient_data:w&#45;&gt;users:e</title>
<path fill="none" stroke="#000000" d="M444.4863,-341.8702C423.2228,-323.9375 448.1452,-258.3551 409.5,-258.3551"/>
<polygon fill="#000000" stroke="#000000" points="450.8807,-343.9166 457.4027,-349.7838 454.6903,-345.1358 458.5,-346.3551 458.5,-346.3551 458.5,-346.3551 454.6903,-345.1358 459.5973,-342.9264 450.8807,-343.9166 450.8807,-343.9166"/>
<ellipse fill="none" stroke="#000000" cx="447.833" cy="-342.9412" rx="3.2" ry="3.2"/>
</g>
<!-- patient_data&#45;&gt;users -->
<g id="edge9" class="edge">
<title>patient_data:w&#45;&gt;users:e</title>
<path fill="none" stroke="#000000" d="M444.8768,-319.6085C428.2322,-304.4753 440.0399,-258.3551 409.5,-258.3551"/>
<polygon fill="#000000" stroke="#000000" points="450.9454,-321.7229 457.3155,-327.7546 454.7227,-323.039 458.5,-324.3551 458.5,-324.3551 458.5,-324.3551 454.7227,-323.039 459.6845,-320.9555 450.9454,-321.7229 450.9454,-321.7229"/>
<ellipse fill="none" stroke="#000000" cx="447.9236" cy="-320.67" rx="3.2" ry="3.2"/>
</g>
<!-- patient_data&#45;&gt;users -->
<g id="edge10" class="edge">
<title>patient_data:w&#45;&gt;users:e</title>
<path fill="none" stroke="#000000" d="M444.8171,-219.0638C431.5046,-230.4146 432.824,-258.3551 409.5,-258.3551"/>
<polygon fill="#000000" stroke="#000000" points="450.9354,-216.9584 459.6715,-217.7591 454.7177,-215.6567 458.5,-214.3551 458.5,-214.3551 458.5,-214.3551 454.7177,-215.6567 457.3285,-210.951 450.9354,-216.9584 450.9354,-216.9584"/>
<ellipse fill="none" stroke="#000000" cx="447.9096" cy="-217.9997" rx="3.2" ry="3.2"/>
</g>
<!-- onsite_documents -->
<g id="node3" class="node">
<title>onsite_documents</title>
<g id="a_node3"><a xlink:href="../../tables/onsite_documents.html" xlink:title="onsite_documents" target="_top">
<polygon fill="#ffffff" stroke="transparent" points="1041,-62.3551 1041,-570.3551 1337,-570.3551 1337,-62.3551 1041,-62.3551"/>
<polygon fill="#f5f5f5" stroke="transparent" points="1043,-545.3551 1043,-568.3551 1335,-568.3551 1335,-545.3551 1043,-545.3551"/>
<polygon fill="none" stroke="#000000" points="1043,-545.3551 1043,-568.3551 1335,-568.3551 1335,-545.3551 1043,-545.3551"/>
<text text-anchor="start" x="1048" y="-553.9551" font-family="Helvetica,sans-Serif" font-weight="bold" font-size="11.00" fill="#000000">onsite_documents</text>
<text text-anchor="start" x="1300.0437" y="-553.4551" font-family="Helvetica,sans-Serif" font-size="11.00" fill="#000000">[table]</text>
<polygon fill="none" stroke="#000000" points="1043,-523.3551 1043,-545.3551 1215,-545.3551 1215,-523.3551 1043,-523.3551"/>
<image xlink:href="../../images/primaryKeys.png" width="11px" height="12px" preserveAspectRatio="xMinYMin meet" x="1048" y="-540.355"/>
<text text-anchor="start" x="1063" y="-530.4551" font-family="Helvetica,sans-Serif" font-size="11.00" fill="#000000">id</text>
<polygon fill="none" stroke="#000000" points="1215,-523.3551 1215,-545.3551 1335,-545.3551 1335,-523.3551 1215,-523.3551"/>
<text text-anchor="start" x="1218" y="-531.0551" font-family="Helvetica,sans-Serif" font-size="11.00" fill="#000000">int unsigned[10]</text>
<polygon fill="none" stroke="#000000" points="1043,-501.3551 1043,-523.3551 1215,-523.3551 1215,-501.3551 1043,-501.3551"/>
<image xlink:href="../../images/foreignKeys.png" width="11px" height="12px" preserveAspectRatio="xMinYMin meet" x="1048" y="-518.355"/>
<text text-anchor="start" x="1063" y="-508.4551" font-family="Helvetica,sans-Serif" font-size="11.00" fill="#000000">pid</text>
<polygon fill="none" stroke="#000000" points="1215,-501.3551 1215,-523.3551 1335,-523.3551 1335,-501.3551 1215,-501.3551"/>
<text text-anchor="start" x="1218" y="-509.0551" font-family="Helvetica,sans-Serif" font-size="11.00" fill="#000000">bigint unsigned[20]</text>
<polygon fill="none" stroke="#000000" points="1043,-479.3551 1043,-501.3551 1215,-501.3551 1215,-479.3551 1043,-479.3551"/>
<image xlink:href="../../images/foreignKeys.png" width="11px" height="12px" preserveAspectRatio="xMinYMin meet" x="1048" y="-496.355"/>
<text text-anchor="start" x="1063" y="-486.4551" font-family="Helvetica,sans-Serif" font-size="11.00" fill="#000000">facility</text>
<polygon fill="none" stroke="#000000" points="1215,-479.3551 1215,-501.3551 1335,-501.3551 1335,-479.3551 1215,-479.3551"/>
<text text-anchor="start" x="1218" y="-487.0551" font-family="Helvetica,sans-Serif" font-size="11.00" fill="#000000">int unsigned[10]</text>
<polygon fill="none" stroke="#000000" points="1043,-457.3551 1043,-479.3551 1215,-479.3551 1215,-457.3551 1043,-457.3551"/>
<text text-anchor="start" x="1063" y="-464.4551" font-family="Helvetica,sans-Serif" font-size="11.00" fill="#000000">provider</text>
<polygon fill="none" stroke="#000000" points="1215,-457.3551 1215,-479.3551 1335,-479.3551 1335,-457.3551 1215,-457.3551"/>
<text text-anchor="start" x="1218" y="-465.0551" font-family="Helvetica,sans-Serif" font-size="11.00" fill="#000000">int unsigned[10]</text>
<polygon fill="none" stroke="#000000" points="1043,-435.3551 1043,-457.3551 1215,-457.3551 1215,-435.3551 1043,-435.3551"/>
<image xlink:href="../../images/foreignKeys.png" width="11px" height="12px" preserveAspectRatio="xMinYMin meet" x="1048" y="-452.355"/>
<text text-anchor="start" x="1063" y="-442.4551" font-family="Helvetica,sans-Serif" font-size="11.00" fill="#000000">encounter</text>
<polygon fill="none" stroke="#000000" points="1215,-435.3551 1215,-457.3551 1335,-457.3551 1335,-435.3551 1215,-435.3551"/>
<text text-anchor="start" x="1218" y="-443.0551" font-family="Helvetica,sans-Serif" font-size="11.00" fill="#000000">int unsigned[10]</text>
<polygon fill="none" stroke="#000000" points="1043,-413.3551 1043,-435.3551 1215,-435.3551 1215,-413.3551 1043,-413.3551"/>
<text text-anchor="start" x="1063" y="-420.4551" font-family="Helvetica,sans-Serif" font-size="11.00" fill="#000000">create_date</text>
<polygon fill="none" stroke="#000000" points="1215,-413.3551 1215,-435.3551 1335,-435.3551 1335,-413.3551 1215,-413.3551"/>
<text text-anchor="start" x="1218" y="-421.0551" font-family="Helvetica,sans-Serif" font-size="11.00" fill="#000000">timestamp[19]</text>
<polygon fill="none" stroke="#000000" points="1043,-391.3551 1043,-413.3551 1215,-413.3551 1215,-391.3551 1043,-391.3551"/>
<text text-anchor="start" x="1063" y="-398.4551" font-family="Helvetica,sans-Serif" font-size="11.00" fill="#000000">doc_type</text>
<polygon fill="none" stroke="#000000" points="1215,-391.3551 1215,-413.3551 1335,-413.3551 1335,-391.3551 1215,-391.3551"/>
<text text-anchor="start" x="1218" y="-399.0551" font-family="Helvetica,sans-Serif" font-size="11.00" fill="#000000">varchar[255]</text>
<polygon fill="none" stroke="#000000" points="1043,-369.3551 1043,-391.3551 1215,-391.3551 1215,-369.3551 1043,-369.3551"/>
<text text-anchor="start" x="1063" y="-376.4551" font-family="Helvetica,sans-Serif" font-size="11.00" fill="#000000">patient_signed_status</text>
<polygon fill="none" stroke="#000000" points="1215,-369.3551 1215,-391.3551 1335,-391.3551 1335,-369.3551 1215,-369.3551"/>
<text text-anchor="start" x="1218" y="-377.0551" font-family="Helvetica,sans-Serif" font-size="11.00" fill="#000000">smallint unsigned[5]</text>
<polygon fill="none" stroke="#000000" points="1043,-347.3551 1043,-369.3551 1215,-369.3551 1215,-347.3551 1043,-347.3551"/>
<text text-anchor="start" x="1063" y="-354.4551" font-family="Helvetica,sans-Serif" font-size="11.00" fill="#000000">patient_signed_time</text>
<polygon fill="none" stroke="#000000" points="1215,-347.3551 1215,-369.3551 1335,-369.3551 1335,-347.3551 1215,-347.3551"/>
<text text-anchor="start" x="1218" y="-355.0551" font-family="Helvetica,sans-Serif" font-size="11.00" fill="#000000">datetime[19]</text>
<polygon fill="none" stroke="#000000" points="1043,-325.3551 1043,-347.3551 1215,-347.3551 1215,-325.3551 1043,-325.3551"/>
<text text-anchor="start" x="1063" y="-332.4551" font-family="Helvetica,sans-Serif" font-size="11.00" fill="#000000">authorize_signed_time</text>
<polygon fill="none" stroke="#000000" points="1215,-325.3551 1215,-347.3551 1335,-347.3551 1335,-325.3551 1215,-325.3551"/>
<text text-anchor="start" x="1218" y="-333.0551" font-family="Helvetica,sans-Serif" font-size="11.00" fill="#000000">datetime[19]</text>
<polygon fill="none" stroke="#000000" points="1043,-303.3551 1043,-325.3551 1215,-325.3551 1215,-303.3551 1043,-303.3551"/>
<text text-anchor="start" x="1063" y="-310.4551" font-family="Helvetica,sans-Serif" font-size="11.00" fill="#000000">accept_signed_status</text>
<polygon fill="none" stroke="#000000" points="1215,-303.3551 1215,-325.3551 1335,-325.3551 1335,-303.3551 1215,-303.3551"/>
<text text-anchor="start" x="1218" y="-311.0551" font-family="Helvetica,sans-Serif" font-size="11.00" fill="#000000">smallint[5]</text>
<polygon fill="none" stroke="#000000" points="1043,-281.3551 1043,-303.3551 1215,-303.3551 1215,-281.3551 1043,-281.3551"/>
<text text-anchor="start" x="1063" y="-288.4551" font-family="Helvetica,sans-Serif" font-size="11.00" fill="#000000">authorizing_signator</text>
<polygon fill="none" stroke="#000000" points="1215,-281.3551 1215,-303.3551 1335,-303.3551 1335,-281.3551 1215,-281.3551"/>
<text text-anchor="start" x="1218" y="-289.0551" font-family="Helvetica,sans-Serif" font-size="11.00" fill="#000000">varchar[50]</text>
<polygon fill="none" stroke="#000000" points="1043,-259.3551 1043,-281.3551 1215,-281.3551 1215,-259.3551 1043,-259.3551"/>
<text text-anchor="start" x="1063" y="-266.4551" font-family="Helvetica,sans-Serif" font-size="11.00" fill="#000000">review_date</text>
<polygon fill="none" stroke="#000000" points="1215,-259.3551 1215,-281.3551 1335,-281.3551 1335,-259.3551 1215,-259.3551"/>
<text text-anchor="start" x="1218" y="-267.0551" font-family="Helvetica,sans-Serif" font-size="11.00" fill="#000000">datetime[19]</text>
<polygon fill="none" stroke="#000000" points="1043,-237.3551 1043,-259.3551 1215,-259.3551 1215,-237.3551 1043,-237.3551"/>
<text text-anchor="start" x="1063" y="-244.4551" font-family="Helvetica,sans-Serif" font-size="11.00" fill="#000000">denial_reason</text>
<polygon fill="none" stroke="#000000" points="1215,-237.3551 1215,-259.3551 1335,-259.3551 1335,-237.3551 1215,-237.3551"/>
<text text-anchor="start" x="1218" y="-245.0551" font-family="Helvetica,sans-Serif" font-size="11.00" fill="#000000">varchar[255]</text>
<polygon fill="none" stroke="#000000" points="1043,-215.3551 1043,-237.3551 1215,-237.3551 1215,-215.3551 1043,-215.3551"/>
<text text-anchor="start" x="1063" y="-222.4551" font-family="Helvetica,sans-Serif" font-size="11.00" fill="#000000">authorized_signature</text>
<polygon fill="none" stroke="#000000" points="1215,-215.3551 1215,-237.3551 1335,-237.3551 1335,-215.3551 1215,-215.3551"/>
<text text-anchor="start" x="1218" y="-223.0551" font-family="Helvetica,sans-Serif" font-size="11.00" fill="#000000">text[65535]</text>
<polygon fill="none" stroke="#000000" points="1043,-193.3551 1043,-215.3551 1215,-215.3551 1215,-193.3551 1043,-193.3551"/>
<text text-anchor="start" x="1063" y="-200.4551" font-family="Helvetica,sans-Serif" font-size="11.00" fill="#000000">patient_signature</text>
<polygon fill="none" stroke="#000000" points="1215,-193.3551 1215,-215.3551 1335,-215.3551 1335,-193.3551 1215,-193.3551"/>
<text text-anchor="start" x="1218" y="-201.0551" font-family="Helvetica,sans-Serif" font-size="11.00" fill="#000000">text[65535]</text>
<polygon fill="none" stroke="#000000" points="1043,-171.3551 1043,-193.3551 1215,-193.3551 1215,-171.3551 1043,-171.3551"/>
<text text-anchor="start" x="1063" y="-178.4551" font-family="Helvetica,sans-Serif" font-size="11.00" fill="#000000">full_document</text>
<polygon fill="none" stroke="#000000" points="1215,-171.3551 1215,-193.3551 1335,-193.3551 1335,-171.3551 1215,-171.3551"/>
<text text-anchor="start" x="1217.536" y="-179.0551" font-family="Helvetica,sans-Serif" font-size="11.00" fill="#000000">mediumblob[16777215]</text>
<polygon fill="none" stroke="#000000" points="1043,-149.3551 1043,-171.3551 1215,-171.3551 1215,-149.3551 1043,-149.3551"/>
<text text-anchor="start" x="1063" y="-156.4551" font-family="Helvetica,sans-Serif" font-size="11.00" fill="#000000">file_name</text>
<polygon fill="none" stroke="#000000" points="1215,-149.3551 1215,-171.3551 1335,-171.3551 1335,-149.3551 1215,-149.3551"/>
<text text-anchor="start" x="1218" y="-157.0551" font-family="Helvetica,sans-Serif" font-size="11.00" fill="#000000">varchar[255]</text>
<polygon fill="none" stroke="#000000" points="1043,-127.3551 1043,-149.3551 1215,-149.3551 1215,-127.3551 1043,-127.3551"/>
<text text-anchor="start" x="1063" y="-134.4551" font-family="Helvetica,sans-Serif" font-size="11.00" fill="#000000">file_path</text>
<polygon fill="none" stroke="#000000" points="1215,-127.3551 1215,-149.3551 1335,-149.3551 1335,-127.3551 1215,-127.3551"/>
<text text-anchor="start" x="1218" y="-135.0551" font-family="Helvetica,sans-Serif" font-size="11.00" fill="#000000">varchar[255]</text>
<polygon fill="none" stroke="#000000" points="1043,-105.3551 1043,-127.3551 1215,-127.3551 1215,-105.3551 1043,-105.3551"/>
<text text-anchor="start" x="1063" y="-112.4551" font-family="Helvetica,sans-Serif" font-size="11.00" fill="#000000">template_data</text>
<polygon fill="none" stroke="#000000" points="1215,-105.3551 1215,-127.3551 1335,-127.3551 1335,-105.3551 1215,-105.3551"/>
<text text-anchor="start" x="1218" y="-113.0551" font-family="Helvetica,sans-Serif" font-size="11.00" fill="#000000">longtext[2147483647]</text>
<polygon fill="none" stroke="#000000" points="1043,-83.3551 1043,-105.3551 1215,-105.3551 1215,-83.3551 1043,-83.3551"/>
<image xlink:href="../../images/foreignKeys.png" width="11px" height="12px" preserveAspectRatio="xMinYMin meet" x="1048" y="-100.355"/>
<text text-anchor="start" x="1063" y="-90.4551" font-family="Helvetica,sans-Serif" font-size="11.00" fill="#000000">user</text>
<polygon fill="none" stroke="#000000" points="1215,-83.3551 1215,-105.3551 1335,-105.3551 1335,-83.3551 1215,-83.3551"/>
<text text-anchor="start" x="1218" y="-91.0551" font-family="Helvetica,sans-Serif" font-size="11.00" fill="#000000">unknown[0]</text>
<polygon fill="#ffffff" stroke="transparent" points="1043,-64.3551 1043,-83.3551 1133,-83.3551 1133,-64.3551 1043,-64.3551"/>
<polygon fill="none" stroke="#000000" points="1043,-64.3551 1043,-83.3551 1133,-83.3551 1133,-64.3551 1043,-64.3551"/>
<text text-anchor="start" x="1046" y="-70.4551" font-family="Helvetica,sans-Serif" font-size="11.00" fill="#000000">&lt; 4</text>
<polygon fill="#ffffff" stroke="transparent" points="1133,-64.3551 1133,-83.3551 1215,-83.3551 1215,-64.3551 1133,-64.3551"/>
<polygon fill="none" stroke="#000000" points="1133,-64.3551 1133,-83.3551 1215,-83.3551 1215,-64.3551 1133,-64.3551"/>
<text text-anchor="start" x="1205.8862" y="-70.4551" font-family="Helvetica,sans-Serif" font-size="11.00" fill="#000000"> &#160;</text>
<polygon fill="#ffffff" stroke="transparent" points="1215,-64.3551 1215,-83.3551 1335,-83.3551 1335,-64.3551 1215,-64.3551"/>
<polygon fill="none" stroke="#000000" points="1215,-64.3551 1215,-83.3551 1335,-83.3551 1335,-64.3551 1215,-64.3551"/>
<text text-anchor="start" x="1316.4053" y="-70.4551" font-family="Helvetica,sans-Serif" font-size="11.00" fill="#000000">0 &gt;</text>
<polygon fill="none" stroke="#000000" stroke-width="2" points="1042,-63.3551 1042,-569.3551 1336,-569.3551 1336,-63.3551 1042,-63.3551"/>
</a>
</g>
</g>
<!-- onsite_documents&#45;&gt;form_encounter -->
<g id="edge2" class="edge">
<title>onsite_documents:w&#45;&gt;form_encounter:e</title>
<path fill="none" stroke="#000000" d="M1028.6497,-443.6784C981.7278,-422.6153 1061.7339,-284.3551 992,-284.3551"/>
<polygon fill="#000000" stroke="#000000" points="1035.1356,-444.8881 1042.3399,-449.894 1039.0678,-445.6216 1043,-446.3551 1043,-446.3551 1043,-446.3551 1039.0678,-445.6216 1043.6601,-442.8161 1035.1356,-444.8881 1035.1356,-444.8881"/>
<ellipse fill="none" stroke="#000000" cx="1031.9899" cy="-444.3014" rx="3.2" ry="3.2"/>
</g>
<!-- onsite_documents&#45;&gt;patient_data -->
<g id="edge4" class="edge">
<title>onsite_documents:w&#45;&gt;patient_data:e</title>
<path fill="none" stroke="#000000" d="M1028.5609,-512.3338C912.7436,-511.9438 859.2247,-505.2353 776,-417.3551 732.3409,-371.2537 798.9938,-280.3551 735.5,-280.3551"/>
<polygon fill="#000000" stroke="#000000" points="1035,-512.3432 1042.9947,-515.9551 1039,-512.3492 1043,-512.3551 1043,-512.3551 1043,-512.3551 1039,-512.3492 1043.0053,-508.7551 1035,-512.3432 1035,-512.3432"/>
<ellipse fill="none" stroke="#000000" cx="1031.8" cy="-512.3385" rx="3.2" ry="3.2"/>
</g>
<!-- facility -->
<g id="node4" class="node">
<title>facility</title>
<g id="a_node4"><a xlink:href="../../tables/facility.html" xlink:title="facility" target="_top">
<polygon fill="#ffffff" stroke="transparent" points="8,-121.8551 8,-226.8551 193,-226.8551 193,-121.8551 8,-121.8551"/>
<polygon fill="#f5f5f5" stroke="transparent" points="8.5,-203.3551 8.5,-226.3551 193.5,-226.3551 193.5,-203.3551 8.5,-203.3551"/>
<polygon fill="none" stroke="#000000" points="8.5,-203.3551 8.5,-226.3551 193.5,-226.3551 193.5,-203.3551 8.5,-203.3551"/>
<text text-anchor="start" x="13.5" y="-211.9551" font-family="Helvetica,sans-Serif" font-weight="bold" font-size="11.00" fill="#000000">facility</text>
<text text-anchor="start" x="158.5437" y="-211.4551" font-family="Helvetica,sans-Serif" font-size="11.00" fill="#000000">[table]</text>
<polygon fill="none" stroke="#000000" points="8.5,-181.3551 8.5,-203.3551 193.5,-203.3551 193.5,-181.3551 8.5,-181.3551"/>
<image xlink:href="../../images/primaryKeys.png" width="11px" height="12px" preserveAspectRatio="xMinYMin meet" x="13.5" y="-198.355"/>
<text text-anchor="start" x="28.5" y="-188.4551" font-family="Helvetica,sans-Serif" font-size="11.00" fill="#000000">id</text>
<polygon fill="#ffffff" stroke="transparent" points="8.5,-159.3551 8.5,-181.3551 193.5,-181.3551 193.5,-159.3551 8.5,-159.3551"/>
<polygon fill="none" stroke="#000000" points="8.5,-159.3551 8.5,-181.3551 193.5,-181.3551 193.5,-159.3551 8.5,-159.3551"/>
<text text-anchor="start" x="28.5" y="-166.4551" font-family="Helvetica,sans-Serif" font-size="11.00" fill="#000000">uuid</text>
<polygon fill="none" stroke="#000000" points="8.5,-140.3551 8.5,-159.3551 193.5,-159.3551 193.5,-140.3551 8.5,-140.3551"/>
<text text-anchor="start" x="11.5" y="-146.4551" font-family="Helvetica,sans-Serif" font-size="11.00" fill="#000000">...</text>
<polygon fill="#ffffff" stroke="transparent" points="8.5,-121.3551 8.5,-140.3551 87.5,-140.3551 87.5,-121.3551 8.5,-121.3551"/>
<polygon fill="none" stroke="#000000" points="8.5,-121.3551 8.5,-140.3551 87.5,-140.3551 87.5,-121.3551 8.5,-121.3551"/>
<text text-anchor="start" x="11.5" y="-127.4551" font-family="Helvetica,sans-Serif" font-size="11.00" fill="#000000"> &#160;</text>
<polygon fill="#ffffff" stroke="transparent" points="87.5,-121.3551 87.5,-140.3551 132.5,-140.3551 132.5,-121.3551 87.5,-121.3551"/>
<polygon fill="none" stroke="#000000" points="87.5,-121.3551 87.5,-140.3551 132.5,-140.3551 132.5,-121.3551 87.5,-121.3551"/>
<text text-anchor="start" x="123.3862" y="-127.4551" font-family="Helvetica,sans-Serif" font-size="11.00" fill="#000000"> &#160;</text>
<polygon fill="#ffffff" stroke="transparent" points="132.5,-121.3551 132.5,-140.3551 193.5,-140.3551 193.5,-121.3551 132.5,-121.3551"/>
<polygon fill="none" stroke="#000000" points="132.5,-121.3551 132.5,-140.3551 193.5,-140.3551 193.5,-121.3551 132.5,-121.3551"/>
<text text-anchor="start" x="168.7904" y="-127.4551" font-family="Helvetica,sans-Serif" font-size="11.00" fill="#000000">10 &gt;</text>
</a>
</g>
</g>
<!-- onsite_documents&#45;&gt;facility -->
<g id="edge3" class="edge">
<title>onsite_documents:w&#45;&gt;facility:e</title>
<path fill="none" stroke="#000000" d="M1028.4888,-490.4923C775.8046,-495.2881 688.8881,-623.592 450,-523.3551 323.6451,-470.3368 307.1396,-419.2304 234,-303.3551 205.9699,-258.9469 246.0145,-192.3551 193.5,-192.3551"/>
<polygon fill="#000000" stroke="#000000" points="1035.0004,-490.4308 1043.0341,-493.9549 1039.0002,-490.3929 1043,-490.3551 1043,-490.3551 1043,-490.3551 1039.0002,-490.3929 1042.9659,-486.7552 1035.0004,-490.4308 1035.0004,-490.4308"/>
<ellipse fill="none" stroke="#000000" cx="1031.8005" cy="-490.461" rx="3.2" ry="3.2"/>
</g>
<!-- onsite_documents&#45;&gt;users -->
<g id="edge5" class="edge">
<title>onsite_documents:w&#45;&gt;users:e</title>
<path fill="none" stroke="#000000" d="M1028.4684,-94.2074C774.7829,-89.0522 653.5826,48.385 450,-111.3551 396.6854,-153.1881 477.2676,-258.3551 409.5,-258.3551"/>
<polygon fill="#000000" stroke="#000000" points="1035.0004,-94.2737 1042.9634,-97.9549 1039.0002,-94.3144 1043,-94.3551 1043,-94.3551 1043,-94.3551 1039.0002,-94.3144 1043.0366,-90.7553 1035.0004,-94.2737 1035.0004,-94.2737"/>
<ellipse fill="none" stroke="#000000" cx="1031.8006" cy="-94.2412" rx="3.2" ry="3.2"/>
</g>
<!-- users&#45;&gt;facility -->
<g id="edge11" class="edge">
<title>users:w&#45;&gt;facility:e</title>
<path fill="none" stroke="#000000" d="M228.8768,-131.1016C212.2322,-146.2348 224.0399,-192.3551 193.5,-192.3551"/>
<polygon fill="#000000" stroke="#000000" points="234.9454,-128.9873 243.6845,-129.7546 238.7227,-127.6712 242.5,-126.3551 242.5,-126.3551 242.5,-126.3551 238.7227,-127.6712 241.3155,-122.9555 234.9454,-128.9873 234.9454,-128.9873"/>
<ellipse fill="none" stroke="#000000" cx="231.9236" cy="-130.0401" rx="3.2" ry="3.2"/>
</g>
<!-- users&#45;&gt;facility -->
<g id="edge12" class="edge">
<title>users:w&#45;&gt;facility:e</title>
<path fill="none" stroke="#000000" d="M227.9909,-192.3551C216.6774,-192.3551 209.4931,-192.3551 193.5,-192.3551"/>
<polygon fill="#000000" stroke="#000000" points="234.5,-192.3551 242.5,-195.9551 238.5,-192.3551 242.5,-192.3551 242.5,-192.3551 242.5,-192.3551 238.5,-192.3551 242.5,-188.7551 234.5,-192.3551 234.5,-192.3551"/>
<ellipse fill="none" stroke="#000000" cx="231.3" cy="-192.3551" rx="3.2" ry="3.2"/>
</g>
</g>
</svg>
