<?xml version="1.0" encoding="UTF-8" standalone="no"?>
<!DOCTYPE svg PUBLIC "-//W3C//DTD SVG 1.1//EN"
 "http://www.w3.org/Graphics/SVG/1.1/DTD/svg11.dtd">
<!-- Generated by graphviz version 2.40.1 (20161225.0304)
 -->
<!-- Title: oneDegreeRelationshipsDiagram Pages: 1 -->
<svg width="631pt" height="557pt"
 viewBox="0.00 0.00 631.00 556.70" xmlns="http://www.w3.org/2000/svg" xmlns:xlink="http://www.w3.org/1999/xlink">
<g id="graph0" class="graph" transform="scale(1 1) rotate(0) translate(4 552.7)">
<title>oneDegreeRelationshipsDiagram</title>
<polygon fill="#ffffff" stroke="transparent" points="-4,4 -4,-552.7 627,-552.7 627,4 -4,4"/>
<text text-anchor="middle" x="72.4936" y="-7.3" font-family="Helvetica,sans-Serif" font-size="11.00" fill="#000000">Generated by SchemaSpy</text>
<!-- onsite_portal_activity -->
<g id="node1" class="node">
<title>onsite_portal_activity</title>
<g id="a_node1"><a xlink:href="../../tables/onsite_portal_activity.html" xlink:title="onsite_portal_activity" target="_top">
<polygon fill="#ffffff" stroke="transparent" points="334,-38.2 334,-392.2 615,-392.2 615,-38.2 334,-38.2"/>
<polygon fill="#f5f5f5" stroke="transparent" points="336.5,-367.2 336.5,-390.2 613.5,-390.2 613.5,-367.2 336.5,-367.2"/>
<polygon fill="none" stroke="#000000" points="336.5,-367.2 336.5,-390.2 613.5,-390.2 613.5,-367.2 336.5,-367.2"/>
<text text-anchor="start" x="341.5" y="-375.8" font-family="Helvetica,sans-Serif" font-weight="bold" font-size="11.00" fill="#000000">onsite_portal_activity</text>
<text text-anchor="start" x="578.5437" y="-375.3" font-family="Helvetica,sans-Serif" font-size="11.00" fill="#000000">[table]</text>
<polygon fill="none" stroke="#000000" points="336.5,-345.2 336.5,-367.2 502.5,-367.2 502.5,-345.2 336.5,-345.2"/>
<image xlink:href="../../images/primaryKeys.png" width="11px" height="12px" preserveAspectRatio="xMinYMin meet" x="341.5" y="-362.2"/>
<text text-anchor="start" x="356.5" y="-352.3" font-family="Helvetica,sans-Serif" font-size="11.00" fill="#000000">id</text>
<polygon fill="none" stroke="#000000" points="502.5,-345.2 502.5,-367.2 613.5,-367.2 613.5,-345.2 502.5,-345.2"/>
<text text-anchor="start" x="505.5" y="-352.9" font-family="Helvetica,sans-Serif" font-size="11.00" fill="#000000">bigint[19]</text>
<polygon fill="#ffffff" stroke="transparent" points="336.5,-323.2 336.5,-345.2 502.5,-345.2 502.5,-323.2 336.5,-323.2"/>
<polygon fill="none" stroke="#000000" points="336.5,-323.2 336.5,-345.2 502.5,-345.2 502.5,-323.2 336.5,-323.2"/>
<text text-anchor="start" x="356.5" y="-330.3" font-family="Helvetica,sans-Serif" font-size="11.00" fill="#000000">date</text>
<polygon fill="none" stroke="#000000" points="502.5,-323.2 502.5,-345.2 613.5,-345.2 613.5,-323.2 502.5,-323.2"/>
<text text-anchor="start" x="505.5" y="-330.9" font-family="Helvetica,sans-Serif" font-size="11.00" fill="#000000">datetime[19]</text>
<polygon fill="none" stroke="#000000" points="336.5,-301.2 336.5,-323.2 502.5,-323.2 502.5,-301.2 336.5,-301.2"/>
<image xlink:href="../../images/foreignKeys.png" width="11px" height="12px" preserveAspectRatio="xMinYMin meet" x="341.5" y="-318.2"/>
<text text-anchor="start" x="356.5" y="-308.3" font-family="Helvetica,sans-Serif" font-size="11.00" fill="#000000">patient_id</text>
<polygon fill="none" stroke="#000000" points="502.5,-301.2 502.5,-323.2 613.5,-323.2 613.5,-301.2 502.5,-301.2"/>
<text text-anchor="start" x="505.5" y="-308.9" font-family="Helvetica,sans-Serif" font-size="11.00" fill="#000000">bigint[19]</text>
<polygon fill="none" stroke="#000000" points="336.5,-279.2 336.5,-301.2 502.5,-301.2 502.5,-279.2 336.5,-279.2"/>
<text text-anchor="start" x="356.5" y="-286.3" font-family="Helvetica,sans-Serif" font-size="11.00" fill="#000000">activity</text>
<polygon fill="none" stroke="#000000" points="502.5,-279.2 502.5,-301.2 613.5,-301.2 613.5,-279.2 502.5,-279.2"/>
<text text-anchor="start" x="505.5" y="-286.9" font-family="Helvetica,sans-Serif" font-size="11.00" fill="#000000">varchar[255]</text>
<polygon fill="none" stroke="#000000" points="336.5,-257.2 336.5,-279.2 502.5,-279.2 502.5,-257.2 336.5,-257.2"/>
<text text-anchor="start" x="356.5" y="-264.3" font-family="Helvetica,sans-Serif" font-size="11.00" fill="#000000">require_audit</text>
<polygon fill="none" stroke="#000000" points="502.5,-257.2 502.5,-279.2 613.5,-279.2 613.5,-257.2 502.5,-257.2"/>
<text text-anchor="start" x="505.5" y="-264.9" font-family="Helvetica,sans-Serif" font-size="11.00" fill="#000000">boolean[3]</text>
<polygon fill="none" stroke="#000000" points="336.5,-235.2 336.5,-257.2 502.5,-257.2 502.5,-235.2 336.5,-235.2"/>
<text text-anchor="start" x="356.5" y="-242.3" font-family="Helvetica,sans-Serif" font-size="11.00" fill="#000000">pending_action</text>
<polygon fill="none" stroke="#000000" points="502.5,-235.2 502.5,-257.2 613.5,-257.2 613.5,-235.2 502.5,-235.2"/>
<text text-anchor="start" x="505.5" y="-242.9" font-family="Helvetica,sans-Serif" font-size="11.00" fill="#000000">varchar[255]</text>
<polygon fill="none" stroke="#000000" points="336.5,-213.2 336.5,-235.2 502.5,-235.2 502.5,-213.2 336.5,-213.2"/>
<text text-anchor="start" x="356.5" y="-220.3" font-family="Helvetica,sans-Serif" font-size="11.00" fill="#000000">action_taken</text>
<polygon fill="none" stroke="#000000" points="502.5,-213.2 502.5,-235.2 613.5,-235.2 613.5,-213.2 502.5,-213.2"/>
<text text-anchor="start" x="505.5" y="-220.9" font-family="Helvetica,sans-Serif" font-size="11.00" fill="#000000">varchar[255]</text>
<polygon fill="none" stroke="#000000" points="336.5,-191.2 336.5,-213.2 502.5,-213.2 502.5,-191.2 336.5,-191.2"/>
<text text-anchor="start" x="356.5" y="-198.3" font-family="Helvetica,sans-Serif" font-size="11.00" fill="#000000">status</text>
<polygon fill="none" stroke="#000000" points="502.5,-191.2 502.5,-213.2 613.5,-213.2 613.5,-191.2 502.5,-191.2"/>
<text text-anchor="start" x="505.5" y="-198.9" font-family="Helvetica,sans-Serif" font-size="11.00" fill="#000000">varchar[255]</text>
<polygon fill="none" stroke="#000000" points="336.5,-169.2 336.5,-191.2 502.5,-191.2 502.5,-169.2 336.5,-169.2"/>
<text text-anchor="start" x="356.5" y="-176.3" font-family="Helvetica,sans-Serif" font-size="11.00" fill="#000000">narrative</text>
<polygon fill="none" stroke="#000000" points="502.5,-169.2 502.5,-191.2 613.5,-191.2 613.5,-169.2 502.5,-169.2"/>
<text text-anchor="start" x="505.1115" y="-176.9" font-family="Helvetica,sans-Serif" font-size="11.00" fill="#000000">longtext[2147483647]</text>
<polygon fill="none" stroke="#000000" points="336.5,-147.2 336.5,-169.2 502.5,-169.2 502.5,-147.2 336.5,-147.2"/>
<text text-anchor="start" x="356.5" y="-154.3" font-family="Helvetica,sans-Serif" font-size="11.00" fill="#000000">table_action</text>
<polygon fill="none" stroke="#000000" points="502.5,-147.2 502.5,-169.2 613.5,-169.2 613.5,-147.2 502.5,-147.2"/>
<text text-anchor="start" x="505.1115" y="-154.9" font-family="Helvetica,sans-Serif" font-size="11.00" fill="#000000">longtext[2147483647]</text>
<polygon fill="none" stroke="#000000" points="336.5,-125.2 336.5,-147.2 502.5,-147.2 502.5,-125.2 336.5,-125.2"/>
<text text-anchor="start" x="356.5" y="-132.3" font-family="Helvetica,sans-Serif" font-size="11.00" fill="#000000">table_args</text>
<polygon fill="none" stroke="#000000" points="502.5,-125.2 502.5,-147.2 613.5,-147.2 613.5,-125.2 502.5,-125.2"/>
<text text-anchor="start" x="505.1115" y="-132.9" font-family="Helvetica,sans-Serif" font-size="11.00" fill="#000000">longtext[2147483647]</text>
<polygon fill="none" stroke="#000000" points="336.5,-103.2 336.5,-125.2 502.5,-125.2 502.5,-103.2 336.5,-103.2"/>
<text text-anchor="start" x="356.5" y="-110.3" font-family="Helvetica,sans-Serif" font-size="11.00" fill="#000000">action_user</text>
<polygon fill="none" stroke="#000000" points="502.5,-103.2 502.5,-125.2 613.5,-125.2 613.5,-103.2 502.5,-103.2"/>
<text text-anchor="start" x="505.5" y="-110.9" font-family="Helvetica,sans-Serif" font-size="11.00" fill="#000000">int[10]</text>
<polygon fill="none" stroke="#000000" points="336.5,-81.2 336.5,-103.2 502.5,-103.2 502.5,-81.2 336.5,-81.2"/>
<text text-anchor="start" x="356.5" y="-88.3" font-family="Helvetica,sans-Serif" font-size="11.00" fill="#000000">action_taken_time</text>
<polygon fill="none" stroke="#000000" points="502.5,-81.2 502.5,-103.2 613.5,-103.2 613.5,-81.2 502.5,-81.2"/>
<text text-anchor="start" x="505.5" y="-88.9" font-family="Helvetica,sans-Serif" font-size="11.00" fill="#000000">datetime[19]</text>
<polygon fill="none" stroke="#000000" points="336.5,-59.2 336.5,-81.2 502.5,-81.2 502.5,-59.2 336.5,-59.2"/>
<text text-anchor="start" x="356.5" y="-66.3" font-family="Helvetica,sans-Serif" font-size="11.00" fill="#000000">checksum</text>
<polygon fill="none" stroke="#000000" points="502.5,-59.2 502.5,-81.2 613.5,-81.2 613.5,-59.2 502.5,-59.2"/>
<text text-anchor="start" x="505.1115" y="-66.9" font-family="Helvetica,sans-Serif" font-size="11.00" fill="#000000">longtext[2147483647]</text>
<polygon fill="#ffffff" stroke="transparent" points="336.5,-40.2 336.5,-59.2 423.5,-59.2 423.5,-40.2 336.5,-40.2"/>
<polygon fill="none" stroke="#000000" points="336.5,-40.2 336.5,-59.2 423.5,-59.2 423.5,-40.2 336.5,-40.2"/>
<text text-anchor="start" x="339.5" y="-46.3" font-family="Helvetica,sans-Serif" font-size="11.00" fill="#000000">&lt; 1</text>
<polygon fill="#ffffff" stroke="transparent" points="423.5,-40.2 423.5,-59.2 502.5,-59.2 502.5,-40.2 423.5,-40.2"/>
<polygon fill="none" stroke="#000000" points="423.5,-40.2 423.5,-59.2 502.5,-59.2 502.5,-40.2 423.5,-40.2"/>
<text text-anchor="start" x="493.3862" y="-46.3" font-family="Helvetica,sans-Serif" font-size="11.00" fill="#000000"> &#160;</text>
<polygon fill="#ffffff" stroke="transparent" points="502.5,-40.2 502.5,-59.2 613.5,-59.2 613.5,-40.2 502.5,-40.2"/>
<polygon fill="none" stroke="#000000" points="502.5,-40.2 502.5,-59.2 613.5,-59.2 613.5,-40.2 502.5,-40.2"/>
<text text-anchor="start" x="594.9053" y="-46.3" font-family="Helvetica,sans-Serif" font-size="11.00" fill="#000000">0 &gt;</text>
<polygon fill="none" stroke="#000000" stroke-width="2" points="335,-39.2 335,-391.2 614,-391.2 614,-39.2 335,-39.2"/>
</a>
</g>
</g>
<!-- patient_data -->
<g id="node2" class="node">
<title>patient_data</title>
<g id="a_node2"><a xlink:href="../../tables/patient_data.html" xlink:title="patient_data" target="_top">
<polygon fill="#ffffff" stroke="transparent" points="8,-153.7 8,-544.7 285,-544.7 285,-153.7 8,-153.7"/>
<polygon fill="#f5f5f5" stroke="transparent" points="8.5,-521.2 8.5,-544.2 285.5,-544.2 285.5,-521.2 8.5,-521.2"/>
<polygon fill="none" stroke="#000000" points="8.5,-521.2 8.5,-544.2 285.5,-544.2 285.5,-521.2 8.5,-521.2"/>
<text text-anchor="start" x="13.5" y="-529.8" font-family="Helvetica,sans-Serif" font-weight="bold" font-size="11.00" fill="#000000">patient_data</text>
<text text-anchor="start" x="250.5437" y="-529.3" font-family="Helvetica,sans-Serif" font-size="11.00" fill="#000000">[table]</text>
<polygon fill="none" stroke="#000000" points="8.5,-499.2 8.5,-521.2 285.5,-521.2 285.5,-499.2 8.5,-499.2"/>
<image xlink:href="../../images/primaryKeys.png" width="11px" height="12px" preserveAspectRatio="xMinYMin meet" x="13.5" y="-516.2"/>
<text text-anchor="start" x="28.5" y="-506.3" font-family="Helvetica,sans-Serif" font-size="11.00" fill="#000000">id</text>
<polygon fill="#ffffff" stroke="transparent" points="8.5,-477.2 8.5,-499.2 285.5,-499.2 285.5,-477.2 8.5,-477.2"/>
<polygon fill="none" stroke="#000000" points="8.5,-477.2 8.5,-499.2 285.5,-499.2 285.5,-477.2 8.5,-477.2"/>
<text text-anchor="start" x="28.5" y="-484.3" font-family="Helvetica,sans-Serif" font-size="11.00" fill="#000000">uuid</text>
<polygon fill="#ffffff" stroke="transparent" points="8.5,-455.2 8.5,-477.2 285.5,-477.2 285.5,-455.2 8.5,-455.2"/>
<polygon fill="none" stroke="#000000" points="8.5,-455.2 8.5,-477.2 285.5,-477.2 285.5,-455.2 8.5,-455.2"/>
<text text-anchor="start" x="28.5" y="-462.3" font-family="Helvetica,sans-Serif" font-size="11.00" fill="#000000">fname</text>
<polygon fill="#ffffff" stroke="transparent" points="8.5,-433.2 8.5,-455.2 285.5,-455.2 285.5,-433.2 8.5,-433.2"/>
<polygon fill="none" stroke="#000000" points="8.5,-433.2 8.5,-455.2 285.5,-455.2 285.5,-433.2 8.5,-433.2"/>
<text text-anchor="start" x="28.5" y="-440.3" font-family="Helvetica,sans-Serif" font-size="11.00" fill="#000000">lname</text>
<polygon fill="#ffffff" stroke="transparent" points="8.5,-411.2 8.5,-433.2 285.5,-433.2 285.5,-411.2 8.5,-411.2"/>
<polygon fill="none" stroke="#000000" points="8.5,-411.2 8.5,-433.2 285.5,-433.2 285.5,-411.2 8.5,-411.2"/>
<text text-anchor="start" x="28.5" y="-418.3" font-family="Helvetica,sans-Serif" font-size="11.00" fill="#000000">DOB</text>
<polygon fill="none" stroke="#000000" points="8.5,-389.2 8.5,-411.2 285.5,-411.2 285.5,-389.2 8.5,-389.2"/>
<image xlink:href="../../images/foreignKeys.png" width="11px" height="12px" preserveAspectRatio="xMinYMin meet" x="13.5" y="-406.2"/>
<text text-anchor="start" x="28.5" y="-396.3" font-family="Helvetica,sans-Serif" font-size="11.00" fill="#000000">pharmacy_id</text>
<polygon fill="none" stroke="#000000" points="8.5,-367.2 8.5,-389.2 285.5,-389.2 285.5,-367.2 8.5,-367.2"/>
<image xlink:href="../../images/foreignKeys.png" width="11px" height="12px" preserveAspectRatio="xMinYMin meet" x="13.5" y="-384.2"/>
<text text-anchor="start" x="28.5" y="-374.3" font-family="Helvetica,sans-Serif" font-size="11.00" fill="#000000">providerID</text>
<polygon fill="none" stroke="#000000" points="8.5,-345.2 8.5,-367.2 285.5,-367.2 285.5,-345.2 8.5,-345.2"/>
<image xlink:href="../../images/foreignKeys.png" width="11px" height="12px" preserveAspectRatio="xMinYMin meet" x="13.5" y="-362.2"/>
<text text-anchor="start" x="28.5" y="-352.3" font-family="Helvetica,sans-Serif" font-size="11.00" fill="#000000">ref_providerID</text>
<polygon fill="none" stroke="#000000" points="8.5,-323.2 8.5,-345.2 285.5,-345.2 285.5,-323.2 8.5,-323.2"/>
<image xlink:href="../../images/foreignKeys.png" width="11px" height="12px" preserveAspectRatio="xMinYMin meet" x="13.5" y="-340.2"/>
<text text-anchor="start" x="28.5" y="-330.3" font-family="Helvetica,sans-Serif" font-size="11.00" fill="#000000">interpreter_needed</text>
<polygon fill="none" stroke="#000000" points="8.5,-301.2 8.5,-323.2 285.5,-323.2 285.5,-301.2 8.5,-301.2"/>
<image xlink:href="../../images/primaryKeys.png" width="11px" height="12px" preserveAspectRatio="xMinYMin meet" x="13.5" y="-318.2"/>
<text text-anchor="start" x="28.5" y="-308.3" font-family="Helvetica,sans-Serif" font-size="11.00" fill="#000000">pid</text>
<polygon fill="none" stroke="#000000" points="8.5,-279.2 8.5,-301.2 285.5,-301.2 285.5,-279.2 8.5,-279.2"/>
<image xlink:href="../../images/foreignKeys.png" width="11px" height="12px" preserveAspectRatio="xMinYMin meet" x="13.5" y="-296.2"/>
<text text-anchor="start" x="28.5" y="-286.3" font-family="Helvetica,sans-Serif" font-size="11.00" fill="#000000">advance_directive_user_authenticator</text>
<polygon fill="none" stroke="#000000" points="8.5,-257.2 8.5,-279.2 285.5,-279.2 285.5,-257.2 8.5,-257.2"/>
<image xlink:href="../../images/foreignKeys.png" width="11px" height="12px" preserveAspectRatio="xMinYMin meet" x="13.5" y="-274.2"/>
<text text-anchor="start" x="28.5" y="-264.3" font-family="Helvetica,sans-Serif" font-size="11.00" fill="#000000">created_by</text>
<polygon fill="none" stroke="#000000" points="8.5,-235.2 8.5,-257.2 285.5,-257.2 285.5,-235.2 8.5,-235.2"/>
<image xlink:href="../../images/foreignKeys.png" width="11px" height="12px" preserveAspectRatio="xMinYMin meet" x="13.5" y="-252.2"/>
<text text-anchor="start" x="28.5" y="-242.3" font-family="Helvetica,sans-Serif" font-size="11.00" fill="#000000">updated_by</text>
<polygon fill="none" stroke="#000000" points="8.5,-213.2 8.5,-235.2 285.5,-235.2 285.5,-213.2 8.5,-213.2"/>
<image xlink:href="../../images/foreignKeys.png" width="11px" height="12px" preserveAspectRatio="xMinYMin meet" x="13.5" y="-230.2"/>
<text text-anchor="start" x="28.5" y="-220.3" font-family="Helvetica,sans-Serif" font-size="11.00" fill="#000000">tribal_affiliations</text>
<polygon fill="none" stroke="#000000" points="8.5,-191.2 8.5,-213.2 285.5,-213.2 285.5,-191.2 8.5,-191.2"/>
<image xlink:href="../../images/foreignKeys.png" width="11px" height="12px" preserveAspectRatio="xMinYMin meet" x="13.5" y="-208.2"/>
<text text-anchor="start" x="28.5" y="-198.3" font-family="Helvetica,sans-Serif" font-size="11.00" fill="#000000">sex_identified</text>
<polygon fill="none" stroke="#000000" points="8.5,-172.2 8.5,-191.2 285.5,-191.2 285.5,-172.2 8.5,-172.2"/>
<text text-anchor="start" x="11.5" y="-178.3" font-family="Helvetica,sans-Serif" font-size="11.00" fill="#000000">...</text>
<polygon fill="#ffffff" stroke="transparent" points="8.5,-153.2 8.5,-172.2 137.5,-172.2 137.5,-153.2 8.5,-153.2"/>
<polygon fill="none" stroke="#000000" points="8.5,-153.2 8.5,-172.2 137.5,-172.2 137.5,-153.2 8.5,-153.2"/>
<text text-anchor="start" x="11.5" y="-159.3" font-family="Helvetica,sans-Serif" font-size="11.00" fill="#000000">&lt; 9</text>
<polygon fill="#ffffff" stroke="transparent" points="137.5,-153.2 137.5,-172.2 203.5,-172.2 203.5,-153.2 137.5,-153.2"/>
<polygon fill="none" stroke="#000000" points="137.5,-153.2 137.5,-172.2 203.5,-172.2 203.5,-153.2 137.5,-153.2"/>
<text text-anchor="start" x="194.3862" y="-159.3" font-family="Helvetica,sans-Serif" font-size="11.00" fill="#000000"> &#160;</text>
<polygon fill="#ffffff" stroke="transparent" points="203.5,-153.2 203.5,-172.2 285.5,-172.2 285.5,-153.2 203.5,-153.2"/>
<polygon fill="none" stroke="#000000" points="203.5,-153.2 203.5,-172.2 285.5,-172.2 285.5,-153.2 203.5,-153.2"/>
<text text-anchor="start" x="260.7904" y="-159.3" font-family="Helvetica,sans-Serif" font-size="11.00" fill="#000000">95 &gt;</text>
</a>
</g>
</g>
<!-- onsite_portal_activity&#45;&gt;patient_data -->
<g id="edge1" class="edge">
<title>onsite_portal_activity:w&#45;&gt;patient_data:e</title>
<path fill="none" stroke="#000000" d="M321.776,-312.2C309.7815,-312.2 302.3229,-312.2 285.5,-312.2"/>
<polygon fill="#000000" stroke="#000000" points="328.5,-312.2001 336.5,-315.8 332.5,-312.2 336.5,-312.2 336.5,-312.2 336.5,-312.2 332.5,-312.2 336.5,-308.6 328.5,-312.2001 328.5,-312.2001"/>
<ellipse fill="none" stroke="#000000" cx="325.3" cy="-312.2001" rx="3.2" ry="3.2"/>
</g>
</g>
</svg>
