<?xml version="1.0" encoding="UTF-8" standalone="no"?>
<!DOCTYPE svg PUBLIC "-//W3C//DTD SVG 1.1//EN"
 "http://www.w3.org/Graphics/SVG/1.1/DTD/svg11.dtd">
<!-- Generated by graphviz version 2.40.1 (20161225.0304)
 -->
<!-- Title: twoDegreesRelationshipsDiagram Pages: 1 -->
<svg width="1450pt" height="1068pt"
 viewBox="0.00 0.00 1450.00 1068.11" xmlns="http://www.w3.org/2000/svg" xmlns:xlink="http://www.w3.org/1999/xlink">
<g id="graph0" class="graph" transform="scale(1 1) rotate(0) translate(4 1064.11)">
<title>twoDegreesRelationshipsDiagram</title>
<polygon fill="#ffffff" stroke="transparent" points="-4,4 -4,-1064.11 1446,-1064.11 1446,4 -4,4"/>
<text text-anchor="middle" x="72.4936" y="-7.3" font-family="Helvetica,sans-Serif" font-size="11.00" fill="#000000">Generated by SchemaSpy</text>
<!-- form_group_attendance -->
<g id="node1" class="node">
<title>form_group_attendance</title>
<g id="a_node1"><a xlink:href="../../tables/form_group_attendance.html" xlink:title="form_group_attendance" target="_top">
<polygon fill="#ffffff" stroke="transparent" points="1235,-154.9481 1235,-215.9481 1434,-215.9481 1434,-154.9481 1235,-154.9481"/>
<polygon fill="#f5f5f5" stroke="transparent" points="1235.5,-192.4481 1235.5,-215.4481 1434.5,-215.4481 1434.5,-192.4481 1235.5,-192.4481"/>
<polygon fill="none" stroke="#000000" points="1235.5,-192.4481 1235.5,-215.4481 1434.5,-215.4481 1434.5,-192.4481 1235.5,-192.4481"/>
<text text-anchor="start" x="1240.5" y="-201.0481" font-family="Helvetica,sans-Serif" font-weight="bold" font-size="11.00" fill="#000000">form_group_attendance</text>
<text text-anchor="start" x="1400.0219" y="-200.5481" font-family="Helvetica,sans-Serif" font-size="11.00" fill="#000000">[table]</text>
<polygon fill="none" stroke="#000000" points="1235.5,-173.4481 1235.5,-192.4481 1434.5,-192.4481 1434.5,-173.4481 1235.5,-173.4481"/>
<text text-anchor="start" x="1238.5" y="-179.5481" font-family="Helvetica,sans-Serif" font-size="11.00" fill="#000000">...</text>
<polygon fill="#ffffff" stroke="transparent" points="1235.5,-154.4481 1235.5,-173.4481 1328.5,-173.4481 1328.5,-154.4481 1235.5,-154.4481"/>
<polygon fill="none" stroke="#000000" points="1235.5,-154.4481 1235.5,-173.4481 1328.5,-173.4481 1328.5,-154.4481 1235.5,-154.4481"/>
<text text-anchor="start" x="1238.5" y="-160.5481" font-family="Helvetica,sans-Serif" font-size="11.00" fill="#000000">&lt; 5</text>
<polygon fill="#ffffff" stroke="transparent" points="1328.5,-154.4481 1328.5,-173.4481 1376.5,-173.4481 1376.5,-154.4481 1328.5,-154.4481"/>
<polygon fill="none" stroke="#000000" points="1328.5,-154.4481 1328.5,-173.4481 1376.5,-173.4481 1376.5,-154.4481 1328.5,-154.4481"/>
<text text-anchor="start" x="1367.3862" y="-160.5481" font-family="Helvetica,sans-Serif" font-size="11.00" fill="#000000"> &#160;</text>
<polygon fill="#ffffff" stroke="transparent" points="1376.5,-154.4481 1376.5,-173.4481 1434.5,-173.4481 1434.5,-154.4481 1376.5,-154.4481"/>
<polygon fill="none" stroke="#000000" points="1376.5,-154.4481 1376.5,-173.4481 1434.5,-173.4481 1434.5,-154.4481 1376.5,-154.4481"/>
<text text-anchor="start" x="1415.9053" y="-160.5481" font-family="Helvetica,sans-Serif" font-size="11.00" fill="#000000">1 &gt;</text>
</a>
</g>
</g>
<!-- form_groups_encounter -->
<g id="node2" class="node">
<title>form_groups_encounter</title>
<g id="a_node2"><a xlink:href="../../tables/form_groups_encounter.html" xlink:title="form_groups_encounter" target="_top">
<polygon fill="#ffffff" stroke="transparent" points="988,-241.9481 988,-302.9481 1186,-302.9481 1186,-241.9481 988,-241.9481"/>
<polygon fill="#f5f5f5" stroke="transparent" points="988,-279.4481 988,-302.4481 1186,-302.4481 1186,-279.4481 988,-279.4481"/>
<polygon fill="none" stroke="#000000" points="988,-279.4481 988,-302.4481 1186,-302.4481 1186,-279.4481 988,-279.4481"/>
<text text-anchor="start" x="993" y="-288.0481" font-family="Helvetica,sans-Serif" font-weight="bold" font-size="11.00" fill="#000000">form_groups_encounter</text>
<text text-anchor="start" x="1151.5219" y="-287.5481" font-family="Helvetica,sans-Serif" font-size="11.00" fill="#000000">[table]</text>
<polygon fill="none" stroke="#000000" points="988,-260.4481 988,-279.4481 1186,-279.4481 1186,-260.4481 988,-260.4481"/>
<text text-anchor="start" x="991" y="-266.5481" font-family="Helvetica,sans-Serif" font-size="11.00" fill="#000000">...</text>
<polygon fill="#ffffff" stroke="transparent" points="988,-241.4481 988,-260.4481 1081,-260.4481 1081,-241.4481 988,-241.4481"/>
<polygon fill="none" stroke="#000000" points="988,-241.4481 988,-260.4481 1081,-260.4481 1081,-241.4481 988,-241.4481"/>
<text text-anchor="start" x="991" y="-247.5481" font-family="Helvetica,sans-Serif" font-size="11.00" fill="#000000">&lt; 7</text>
<polygon fill="#ffffff" stroke="transparent" points="1081,-241.4481 1081,-260.4481 1129,-260.4481 1129,-241.4481 1081,-241.4481"/>
<polygon fill="none" stroke="#000000" points="1081,-241.4481 1081,-260.4481 1129,-260.4481 1129,-241.4481 1081,-241.4481"/>
<text text-anchor="start" x="1119.8862" y="-247.5481" font-family="Helvetica,sans-Serif" font-size="11.00" fill="#000000"> &#160;</text>
<polygon fill="#ffffff" stroke="transparent" points="1129,-241.4481 1129,-260.4481 1186,-260.4481 1186,-241.4481 1129,-241.4481"/>
<polygon fill="none" stroke="#000000" points="1129,-241.4481 1129,-260.4481 1186,-260.4481 1186,-241.4481 1129,-241.4481"/>
<text text-anchor="start" x="1167.4053" y="-247.5481" font-family="Helvetica,sans-Serif" font-size="11.00" fill="#000000">1 &gt;</text>
</a>
</g>
</g>
<!-- form_group_attendance&#45;&gt;form_groups_encounter -->
<g id="edge1" class="edge">
<title>form_group_attendance:w&#45;&gt;form_groups_encounter:e</title>
<path fill="none" stroke="#000000" d="M1221.4717,-185.7691C1211.5897,-191.4888 1208.0849,-203.4501 1194,-212.4481 1180.4494,-221.1048 1165.5848,-229.8742 1151.3598,-237.9368"/>
<polygon fill="#000000" stroke="#000000" points="1227.7152,-184.2911 1236.3293,-185.9513 1231.6076,-183.3696 1235.5,-182.4481 1235.5,-182.4481 1235.5,-182.4481 1231.6076,-183.3696 1234.6707,-178.945 1227.7152,-184.2911 1227.7152,-184.2911"/>
<ellipse fill="none" stroke="#000000" cx="1224.6012" cy="-185.0283" rx="3.2" ry="3.2"/>
</g>
<!-- therapy_groups -->
<g id="node3" class="node">
<title>therapy_groups</title>
<g id="a_node3"><a xlink:href="../../tables/therapy_groups.html" xlink:title="therapy_groups" target="_top">
<polygon fill="#ffffff" stroke="transparent" points="404.5,-142.9481 404.5,-203.9481 548.5,-203.9481 548.5,-142.9481 404.5,-142.9481"/>
<polygon fill="#f5f5f5" stroke="transparent" points="404.5,-180.4481 404.5,-203.4481 548.5,-203.4481 548.5,-180.4481 404.5,-180.4481"/>
<polygon fill="none" stroke="#000000" points="404.5,-180.4481 404.5,-203.4481 548.5,-203.4481 548.5,-180.4481 404.5,-180.4481"/>
<text text-anchor="start" x="409.5" y="-189.0481" font-family="Helvetica,sans-Serif" font-weight="bold" font-size="11.00" fill="#000000">therapy_groups</text>
<text text-anchor="start" x="514.0219" y="-188.5481" font-family="Helvetica,sans-Serif" font-size="11.00" fill="#000000">[table]</text>
<polygon fill="none" stroke="#000000" points="404.5,-161.4481 404.5,-180.4481 548.5,-180.4481 548.5,-161.4481 404.5,-161.4481"/>
<text text-anchor="start" x="407.5" y="-167.5481" font-family="Helvetica,sans-Serif" font-size="11.00" fill="#000000">...</text>
<polygon fill="#ffffff" stroke="transparent" points="404.5,-142.4481 404.5,-161.4481 465.5,-161.4481 465.5,-142.4481 404.5,-142.4481"/>
<polygon fill="none" stroke="#000000" points="404.5,-142.4481 404.5,-161.4481 465.5,-161.4481 465.5,-142.4481 404.5,-142.4481"/>
<text text-anchor="start" x="407.5" y="-148.5481" font-family="Helvetica,sans-Serif" font-size="11.00" fill="#000000"> &#160;</text>
<polygon fill="#ffffff" stroke="transparent" points="465.5,-142.4481 465.5,-161.4481 502.5,-161.4481 502.5,-142.4481 465.5,-142.4481"/>
<polygon fill="none" stroke="#000000" points="465.5,-142.4481 465.5,-161.4481 502.5,-161.4481 502.5,-142.4481 465.5,-142.4481"/>
<text text-anchor="start" x="493.3862" y="-148.5481" font-family="Helvetica,sans-Serif" font-size="11.00" fill="#000000"> &#160;</text>
<polygon fill="#ffffff" stroke="transparent" points="502.5,-142.4481 502.5,-161.4481 548.5,-161.4481 548.5,-142.4481 502.5,-142.4481"/>
<polygon fill="none" stroke="#000000" points="502.5,-142.4481 502.5,-161.4481 548.5,-161.4481 548.5,-142.4481 502.5,-142.4481"/>
<text text-anchor="start" x="529.9053" y="-148.5481" font-family="Helvetica,sans-Serif" font-size="11.00" fill="#000000">6 &gt;</text>
</a>
</g>
</g>
<!-- form_group_attendance&#45;&gt;therapy_groups -->
<g id="edge2" class="edge">
<title>form_group_attendance:w&#45;&gt;therapy_groups:e</title>
<path fill="none" stroke="#000000" d="M1221.0148,-182.1142C1149.6926,-179.1476 1006.939,-157.35 947,-154.4481 831.5796,-148.8603 802.3645,-147.8066 687,-154.4481 625.1375,-158.0096 610.4649,-170.4481 548.5,-170.4481"/>
<polygon fill="#000000" stroke="#000000" points="1227.5021,-182.2637 1235.417,-186.0472 1231.5011,-182.3559 1235.5,-182.4481 1235.5,-182.4481 1235.5,-182.4481 1231.5011,-182.3559 1235.583,-178.8491 1227.5021,-182.2637 1227.5021,-182.2637"/>
<ellipse fill="none" stroke="#000000" cx="1224.303" cy="-182.1899" rx="3.2" ry="3.2"/>
</g>
<!-- forms -->
<g id="node4" class="node">
<title>forms</title>
<g id="a_node4"><a xlink:href="../../tables/forms.html" xlink:title="forms" target="_top">
<polygon fill="#ffffff" stroke="transparent" points="778,-194.9481 778,-255.9481 856,-255.9481 856,-194.9481 778,-194.9481"/>
<polygon fill="#f5f5f5" stroke="transparent" points="778,-232.4481 778,-255.4481 856,-255.4481 856,-232.4481 778,-232.4481"/>
<polygon fill="none" stroke="#000000" points="778,-232.4481 778,-255.4481 856,-255.4481 856,-232.4481 778,-232.4481"/>
<text text-anchor="start" x="783" y="-241.0481" font-family="Helvetica,sans-Serif" font-weight="bold" font-size="11.00" fill="#000000">forms</text>
<text text-anchor="start" x="821.5219" y="-240.5481" font-family="Helvetica,sans-Serif" font-size="11.00" fill="#000000">[table]</text>
<polygon fill="none" stroke="#000000" points="778,-213.4481 778,-232.4481 856,-232.4481 856,-213.4481 778,-213.4481"/>
<text text-anchor="start" x="781" y="-219.5481" font-family="Helvetica,sans-Serif" font-size="11.00" fill="#000000">...</text>
<polygon fill="#ffffff" stroke="transparent" points="778,-194.4481 778,-213.4481 808,-213.4481 808,-194.4481 778,-194.4481"/>
<polygon fill="none" stroke="#000000" points="778,-194.4481 778,-213.4481 808,-213.4481 808,-194.4481 778,-194.4481"/>
<text text-anchor="start" x="781" y="-200.5481" font-family="Helvetica,sans-Serif" font-size="11.00" fill="#000000">&lt; 6</text>
<polygon fill="#ffffff" stroke="transparent" points="808,-194.4481 808,-213.4481 824,-213.4481 824,-194.4481 808,-194.4481"/>
<polygon fill="none" stroke="#000000" points="808,-194.4481 808,-213.4481 824,-213.4481 824,-194.4481 808,-194.4481"/>
<text text-anchor="start" x="814.8862" y="-200.5481" font-family="Helvetica,sans-Serif" font-size="11.00" fill="#000000"> &#160;</text>
<polygon fill="#ffffff" stroke="transparent" points="824,-194.4481 824,-213.4481 856,-213.4481 856,-194.4481 824,-194.4481"/>
<polygon fill="none" stroke="#000000" points="824,-194.4481 824,-213.4481 856,-213.4481 856,-194.4481 824,-194.4481"/>
<text text-anchor="start" x="831.2904" y="-200.5481" font-family="Helvetica,sans-Serif" font-size="11.00" fill="#000000">14 &gt;</text>
</a>
</g>
</g>
<!-- form_group_attendance&#45;&gt;forms -->
<g id="edge3" class="edge">
<title>form_group_attendance:w&#45;&gt;forms:e</title>
<path fill="none" stroke="#000000" d="M1224.7452,-182.5027C1064.1078,-184.1484 1021.9572,-222.4481 856,-222.4481"/>
<polygon fill="#000000" stroke="#000000" points="1234.6797,-178.4523 1234.7204,-186.4522 1233.1204,-186.4603 1233.0797,-178.4604 1234.6797,-178.4523"/>
<polyline fill="none" stroke="#000000" points="1235.5,-182.4481 1231.5001,-182.4685 "/>
<ellipse fill="none" stroke="#000000" cx="1228.3001" cy="-182.4848" rx="3.2" ry="3.2"/>
</g>
<!-- users -->
<g id="node5" class="node">
<title>users</title>
<g id="a_node5"><a xlink:href="../../tables/users.html" xlink:title="users" target="_top">
<polygon fill="#ffffff" stroke="transparent" points="162.5,-792.9481 162.5,-853.9481 237.5,-853.9481 237.5,-792.9481 162.5,-792.9481"/>
<polygon fill="#f5f5f5" stroke="transparent" points="163,-830.4481 163,-853.4481 238,-853.4481 238,-830.4481 163,-830.4481"/>
<polygon fill="none" stroke="#000000" points="163,-830.4481 163,-853.4481 238,-853.4481 238,-830.4481 163,-830.4481"/>
<text text-anchor="start" x="168" y="-839.0481" font-family="Helvetica,sans-Serif" font-weight="bold" font-size="11.00" fill="#000000">users</text>
<text text-anchor="start" x="203.5219" y="-838.5481" font-family="Helvetica,sans-Serif" font-size="11.00" fill="#000000">[table]</text>
<polygon fill="none" stroke="#000000" points="163,-811.4481 163,-830.4481 238,-830.4481 238,-811.4481 163,-811.4481"/>
<text text-anchor="start" x="166" y="-817.5481" font-family="Helvetica,sans-Serif" font-size="11.00" fill="#000000">...</text>
<polygon fill="#ffffff" stroke="transparent" points="163,-792.4481 163,-811.4481 191,-811.4481 191,-792.4481 163,-792.4481"/>
<polygon fill="none" stroke="#000000" points="163,-792.4481 163,-811.4481 191,-811.4481 191,-792.4481 163,-792.4481"/>
<text text-anchor="start" x="166" y="-798.5481" font-family="Helvetica,sans-Serif" font-size="11.00" fill="#000000">&lt; 2</text>
<polygon fill="#ffffff" stroke="transparent" points="191,-792.4481 191,-811.4481 207,-811.4481 207,-792.4481 191,-792.4481"/>
<polygon fill="none" stroke="#000000" points="191,-792.4481 191,-811.4481 207,-811.4481 207,-792.4481 191,-792.4481"/>
<text text-anchor="start" x="197.8862" y="-798.5481" font-family="Helvetica,sans-Serif" font-size="11.00" fill="#000000"> &#160;</text>
<polygon fill="#ffffff" stroke="transparent" points="207,-792.4481 207,-811.4481 238,-811.4481 238,-792.4481 207,-792.4481"/>
<polygon fill="none" stroke="#000000" points="207,-792.4481 207,-811.4481 238,-811.4481 238,-792.4481 207,-792.4481"/>
<text text-anchor="start" x="213.2904" y="-798.5481" font-family="Helvetica,sans-Serif" font-size="11.00" fill="#000000">90 &gt;</text>
</a>
</g>
</g>
<!-- form_group_attendance&#45;&gt;users -->
<g id="edge4" class="edge">
<title>form_group_attendance:w&#45;&gt;users:e</title>
<path fill="none" stroke="#000000" d="M1221.4058,-178.2329C1212.4916,-171.7182 1209.1947,-159.4352 1194,-154.4481 965.7786,-79.5441 894.1493,-137.3381 654,-132.4481 496.2549,-129.2362 415.3881,-25.9228 299,-132.4481 185.7759,-236.0776 391.4886,-820.4481 238,-820.4481"/>
<polygon fill="#000000" stroke="#000000" points="1227.8354,-180.1558 1234.4685,-185.8972 1231.6677,-181.302 1235.5,-182.4481 1235.5,-182.4481 1235.5,-182.4481 1231.6677,-181.302 1236.5315,-178.9991 1227.8354,-180.1558 1227.8354,-180.1558"/>
<ellipse fill="none" stroke="#000000" cx="1224.7696" cy="-179.2389" rx="3.2" ry="3.2"/>
</g>
<!-- form_groups_encounter&#45;&gt;therapy_groups -->
<g id="edge7" class="edge">
<title>form_groups_encounter:w&#45;&gt;therapy_groups:e</title>
<path fill="none" stroke="#000000" d="M1033.1615,-229.2371C1008.41,-211.9387 977.7531,-193.8986 947,-184.4481 777.5978,-132.3909 725.7204,-170.4481 548.5,-170.4481"/>
<polygon fill="#000000" stroke="#000000" points="1038.6836,-233.2179 1043.0679,-240.8165 1041.9284,-235.5571 1045.1731,-237.8962 1045.1731,-237.8962 1045.1731,-237.8962 1041.9284,-235.5571 1047.2784,-234.9759 1038.6836,-233.2179 1038.6836,-233.2179"/>
<ellipse fill="none" stroke="#000000" cx="1036.0878" cy="-231.3466" rx="3.2" ry="3.2"/>
</g>
<!-- form_groups_encounter&#45;&gt;forms -->
<g id="edge8" class="edge">
<title>form_groups_encounter:w&#45;&gt;forms:e</title>
<path fill="none" stroke="#000000" d="M969.3686,-236.9144C933.3359,-228.7682 893.3463,-222.4481 856,-222.4481"/>
<polygon fill="#000000" stroke="#000000" points="980.0472,-235.2987 978.2292,-243.0894 976.671,-242.7258 978.489,-234.9351 980.0472,-235.2987"/>
<polyline fill="none" stroke="#000000" points="979.9172,-239.3759 976.0219,-238.4669 "/>
<ellipse fill="none" stroke="#000000" cx="972.9056" cy="-237.7397" rx="3.2" ry="3.2"/>
</g>
<!-- form_groups_encounter&#45;&gt;users -->
<g id="edge10" class="edge">
<title>form_groups_encounter:w&#45;&gt;users:e</title>
<path fill="none" stroke="#000000" d="M965.426,-267.8963C750.3776,-264.1201 323.1289,-264.3908 299,-286.4481 211.8225,-366.141 356.1138,-814.4481 238,-820.4481"/>
<polygon fill="#000000" stroke="#000000" points="971.9073,-268.0155 979.8396,-271.7622 975.9066,-268.0891 979.9059,-268.1628 979.9059,-268.1628 979.9059,-268.1628 975.9066,-268.0891 979.9722,-264.5634 971.9073,-268.0155 971.9073,-268.0155"/>
<ellipse fill="none" stroke="#000000" cx="968.7078" cy="-267.9566" rx="3.2" ry="3.2"/>
</g>
<!-- form_groups_encounter&#45;&gt;users -->
<g id="edge11" class="edge">
<title>form_groups_encounter:w&#45;&gt;users:e</title>
<path fill="none" stroke="#000000" d="M965.426,-275.4879C750.3776,-277.1201 323.1289,-277.3908 299,-299.4481 211.8225,-379.141 356.1138,-827.4481 238,-820.4481"/>
<polygon fill="#000000" stroke="#000000" points="971.9062,-275.4365 979.9345,-278.9728 975.906,-275.4047 979.9059,-275.373 979.9059,-275.373 979.9059,-275.373 975.906,-275.4047 979.8773,-271.7731 971.9062,-275.4365 971.9062,-275.4365"/>
<ellipse fill="none" stroke="#000000" cx="968.7063" cy="-275.4619" rx="3.2" ry="3.2"/>
</g>
<!-- openemr_postcalendar_events -->
<g id="node6" class="node">
<title>openemr_postcalendar_events</title>
<g id="a_node6"><a xlink:href="../../tables/openemr_postcalendar_events.html" xlink:title="openemr_postcalendar_events" target="_top">
<polygon fill="#ffffff" stroke="transparent" points="695,-772.9481 695,-833.9481 939,-833.9481 939,-772.9481 695,-772.9481"/>
<polygon fill="#f5f5f5" stroke="transparent" points="695,-810.4481 695,-833.4481 939,-833.4481 939,-810.4481 695,-810.4481"/>
<polygon fill="none" stroke="#000000" points="695,-810.4481 695,-833.4481 939,-833.4481 939,-810.4481 695,-810.4481"/>
<text text-anchor="start" x="700" y="-819.0481" font-family="Helvetica,sans-Serif" font-weight="bold" font-size="11.00" fill="#000000">openemr_postcalendar_events</text>
<text text-anchor="start" x="904.5219" y="-818.5481" font-family="Helvetica,sans-Serif" font-size="11.00" fill="#000000">[table]</text>
<polygon fill="none" stroke="#000000" points="695,-791.4481 695,-810.4481 939,-810.4481 939,-791.4481 695,-791.4481"/>
<text text-anchor="start" x="698" y="-797.5481" font-family="Helvetica,sans-Serif" font-size="11.00" fill="#000000">...</text>
<polygon fill="#ffffff" stroke="transparent" points="695,-772.4481 695,-791.4481 814,-791.4481 814,-772.4481 695,-772.4481"/>
<polygon fill="none" stroke="#000000" points="695,-772.4481 695,-791.4481 814,-791.4481 814,-772.4481 695,-772.4481"/>
<text text-anchor="start" x="698" y="-778.5481" font-family="Helvetica,sans-Serif" font-size="11.00" fill="#000000">&lt; 10</text>
<polygon fill="#ffffff" stroke="transparent" points="814,-772.4481 814,-791.4481 872,-791.4481 872,-772.4481 814,-772.4481"/>
<polygon fill="none" stroke="#000000" points="814,-772.4481 814,-791.4481 872,-791.4481 872,-772.4481 814,-772.4481"/>
<text text-anchor="start" x="862.8862" y="-778.5481" font-family="Helvetica,sans-Serif" font-size="11.00" fill="#000000"> &#160;</text>
<polygon fill="#ffffff" stroke="transparent" points="872,-772.4481 872,-791.4481 939,-791.4481 939,-772.4481 872,-772.4481"/>
<polygon fill="none" stroke="#000000" points="872,-772.4481 872,-791.4481 939,-791.4481 939,-772.4481 872,-772.4481"/>
<text text-anchor="start" x="920.4053" y="-778.5481" font-family="Helvetica,sans-Serif" font-size="11.00" fill="#000000">2 &gt;</text>
</a>
</g>
</g>
<!-- form_groups_encounter&#45;&gt;openemr_postcalendar_events -->
<g id="edge5" class="edge">
<title>form_groups_encounter:w&#45;&gt;openemr_postcalendar_events:e</title>
<path fill="none" stroke="#000000" d="M1062.6623,-320.3123C1008.9654,-425.9162 881.402,-676.791 834.6048,-768.8254"/>
<polygon fill="#000000" stroke="#000000" points="1065.6585,-314.4196 1072.4935,-308.9202 1067.4715,-310.8541 1069.2845,-307.2885 1069.2845,-307.2885 1069.2845,-307.2885 1067.4715,-310.8541 1066.0756,-305.6568 1065.6585,-314.4196 1065.6585,-314.4196"/>
<ellipse fill="none" stroke="#000000" cx="1064.2081" cy="-317.2721" rx="3.2" ry="3.2"/>
</g>
<!-- facility -->
<g id="node7" class="node">
<title>facility</title>
<g id="a_node7"><a xlink:href="../../tables/facility.html" xlink:title="facility" target="_top">
<polygon fill="#ffffff" stroke="transparent" points="8,-792.9481 8,-853.9481 93,-853.9481 93,-792.9481 8,-792.9481"/>
<polygon fill="#f5f5f5" stroke="transparent" points="8.5,-830.4481 8.5,-853.4481 93.5,-853.4481 93.5,-830.4481 8.5,-830.4481"/>
<polygon fill="none" stroke="#000000" points="8.5,-830.4481 8.5,-853.4481 93.5,-853.4481 93.5,-830.4481 8.5,-830.4481"/>
<text text-anchor="start" x="13.5" y="-839.0481" font-family="Helvetica,sans-Serif" font-weight="bold" font-size="11.00" fill="#000000">facility</text>
<text text-anchor="start" x="59.0219" y="-838.5481" font-family="Helvetica,sans-Serif" font-size="11.00" fill="#000000">[table]</text>
<polygon fill="none" stroke="#000000" points="8.5,-811.4481 8.5,-830.4481 93.5,-830.4481 93.5,-811.4481 8.5,-811.4481"/>
<text text-anchor="start" x="11.5" y="-817.5481" font-family="Helvetica,sans-Serif" font-size="11.00" fill="#000000">...</text>
<polygon fill="#ffffff" stroke="transparent" points="8.5,-792.4481 8.5,-811.4481 37.5,-811.4481 37.5,-792.4481 8.5,-792.4481"/>
<polygon fill="none" stroke="#000000" points="8.5,-792.4481 8.5,-811.4481 37.5,-811.4481 37.5,-792.4481 8.5,-792.4481"/>
<text text-anchor="start" x="11.5" y="-798.5481" font-family="Helvetica,sans-Serif" font-size="11.00" fill="#000000"> &#160;</text>
<polygon fill="#ffffff" stroke="transparent" points="37.5,-792.4481 37.5,-811.4481 57.5,-811.4481 57.5,-792.4481 37.5,-792.4481"/>
<polygon fill="none" stroke="#000000" points="37.5,-792.4481 37.5,-811.4481 57.5,-811.4481 57.5,-792.4481 37.5,-792.4481"/>
<text text-anchor="start" x="48.3862" y="-798.5481" font-family="Helvetica,sans-Serif" font-size="11.00" fill="#000000"> &#160;</text>
<polygon fill="#ffffff" stroke="transparent" points="57.5,-792.4481 57.5,-811.4481 93.5,-811.4481 93.5,-792.4481 57.5,-792.4481"/>
<polygon fill="none" stroke="#000000" points="57.5,-792.4481 57.5,-811.4481 93.5,-811.4481 93.5,-792.4481 57.5,-792.4481"/>
<text text-anchor="start" x="68.7904" y="-798.5481" font-family="Helvetica,sans-Serif" font-size="11.00" fill="#000000">10 &gt;</text>
</a>
</g>
</g>
<!-- form_groups_encounter&#45;&gt;facility -->
<g id="edge6" class="edge">
<title>form_groups_encounter:w&#45;&gt;facility:e</title>
<path fill="none" stroke="#000000" d="M1047.5262,-227.2789C1021.7644,-201.1091 985.7979,-170.2892 947,-154.4481 680.2148,-45.5205 530.0902,39.7056 299,-132.4481 235.0203,-180.1107 173.2817,-820.4481 93.5,-820.4481"/>
<polygon fill="#000000" stroke="#000000" points="1052.0432,-231.9995 1054.973,-240.2685 1054.8086,-234.8896 1057.574,-237.7796 1057.574,-237.7796 1057.574,-237.7796 1054.8086,-234.8896 1060.1751,-235.2908 1052.0432,-231.9995 1052.0432,-231.9995"/>
<ellipse fill="none" stroke="#000000" cx="1049.8308" cy="-229.6874" rx="3.2" ry="3.2"/>
</g>
<!-- openemr_postcalendar_categories -->
<g id="node8" class="node">
<title>openemr_postcalendar_categories</title>
<g id="a_node8"><a xlink:href="../../tables/openemr_postcalendar_categories.html" xlink:title="openemr_postcalendar_categories" target="_top">
<polygon fill="#ffffff" stroke="transparent" points="307,-303.4481 307,-789.4481 646,-789.4481 646,-303.4481 307,-303.4481"/>
<polygon fill="#f5f5f5" stroke="transparent" points="309.5,-764.4481 309.5,-787.4481 644.5,-787.4481 644.5,-764.4481 309.5,-764.4481"/>
<polygon fill="none" stroke="#000000" points="309.5,-764.4481 309.5,-787.4481 644.5,-787.4481 644.5,-764.4481 309.5,-764.4481"/>
<text text-anchor="start" x="314.5" y="-773.0481" font-family="Helvetica,sans-Serif" font-weight="bold" font-size="11.00" fill="#000000">openemr_postcalendar_categories</text>
<text text-anchor="start" x="609.5437" y="-772.5481" font-family="Helvetica,sans-Serif" font-size="11.00" fill="#000000">[table]</text>
<polygon fill="none" stroke="#000000" points="309.5,-742.4481 309.5,-764.4481 561.5,-764.4481 561.5,-742.4481 309.5,-742.4481"/>
<image xlink:href="../../images/primaryKeys.png" width="11px" height="12px" preserveAspectRatio="xMinYMin meet" x="314.5" y="-759.448"/>
<text text-anchor="start" x="329.5" y="-749.5481" font-family="Helvetica,sans-Serif" font-size="11.00" fill="#000000">pc_catid</text>
<polygon fill="none" stroke="#000000" points="561.5,-742.4481 561.5,-764.4481 644.5,-764.4481 644.5,-742.4481 561.5,-742.4481"/>
<text text-anchor="start" x="564.1783" y="-750.1481" font-family="Helvetica,sans-Serif" font-size="11.00" fill="#000000">int unsigned[10]</text>
<polygon fill="#ffffff" stroke="transparent" points="309.5,-720.4481 309.5,-742.4481 561.5,-742.4481 561.5,-720.4481 309.5,-720.4481"/>
<polygon fill="none" stroke="#000000" points="309.5,-720.4481 309.5,-742.4481 561.5,-742.4481 561.5,-720.4481 309.5,-720.4481"/>
<text text-anchor="start" x="329.5" y="-727.5481" font-family="Helvetica,sans-Serif" font-size="11.00" fill="#000000">pc_constant_id</text>
<polygon fill="none" stroke="#000000" points="561.5,-720.4481 561.5,-742.4481 644.5,-742.4481 644.5,-720.4481 561.5,-720.4481"/>
<text text-anchor="start" x="564.5" y="-728.1481" font-family="Helvetica,sans-Serif" font-size="11.00" fill="#000000">varchar[255]</text>
<polygon fill="#ffffff" stroke="transparent" points="309.5,-698.4481 309.5,-720.4481 561.5,-720.4481 561.5,-698.4481 309.5,-698.4481"/>
<polygon fill="none" stroke="#000000" points="309.5,-698.4481 309.5,-720.4481 561.5,-720.4481 561.5,-698.4481 309.5,-698.4481"/>
<text text-anchor="start" x="329.5" y="-705.5481" font-family="Helvetica,sans-Serif" font-size="11.00" fill="#000000">pc_catname</text>
<polygon fill="none" stroke="#000000" points="561.5,-698.4481 561.5,-720.4481 644.5,-720.4481 644.5,-698.4481 561.5,-698.4481"/>
<text text-anchor="start" x="564.5" y="-706.1481" font-family="Helvetica,sans-Serif" font-size="11.00" fill="#000000">varchar[100]</text>
<polygon fill="#ffffff" stroke="transparent" points="309.5,-676.4481 309.5,-698.4481 561.5,-698.4481 561.5,-676.4481 309.5,-676.4481"/>
<polygon fill="none" stroke="#000000" points="309.5,-676.4481 309.5,-698.4481 561.5,-698.4481 561.5,-676.4481 309.5,-676.4481"/>
<text text-anchor="start" x="329.5" y="-683.5481" font-family="Helvetica,sans-Serif" font-size="11.00" fill="#000000">pc_catcolor</text>
<polygon fill="none" stroke="#000000" points="561.5,-676.4481 561.5,-698.4481 644.5,-698.4481 644.5,-676.4481 561.5,-676.4481"/>
<text text-anchor="start" x="564.5" y="-684.1481" font-family="Helvetica,sans-Serif" font-size="11.00" fill="#000000">varchar[50]</text>
<polygon fill="none" stroke="#000000" points="309.5,-654.4481 309.5,-676.4481 561.5,-676.4481 561.5,-654.4481 309.5,-654.4481"/>
<text text-anchor="start" x="329.5" y="-661.5481" font-family="Helvetica,sans-Serif" font-size="11.00" fill="#000000">pc_catdesc</text>
<polygon fill="none" stroke="#000000" points="561.5,-654.4481 561.5,-676.4481 644.5,-676.4481 644.5,-654.4481 561.5,-654.4481"/>
<text text-anchor="start" x="564.5" y="-662.1481" font-family="Helvetica,sans-Serif" font-size="11.00" fill="#000000">text[65535]</text>
<polygon fill="none" stroke="#000000" points="309.5,-632.4481 309.5,-654.4481 561.5,-654.4481 561.5,-632.4481 309.5,-632.4481"/>
<text text-anchor="start" x="329.5" y="-639.5481" font-family="Helvetica,sans-Serif" font-size="11.00" fill="#000000">pc_recurrtype</text>
<polygon fill="none" stroke="#000000" points="561.5,-632.4481 561.5,-654.4481 644.5,-654.4481 644.5,-632.4481 561.5,-632.4481"/>
<text text-anchor="start" x="564.5" y="-640.1481" font-family="Helvetica,sans-Serif" font-size="11.00" fill="#000000">int[10]</text>
<polygon fill="none" stroke="#000000" points="309.5,-610.4481 309.5,-632.4481 561.5,-632.4481 561.5,-610.4481 309.5,-610.4481"/>
<text text-anchor="start" x="329.5" y="-617.5481" font-family="Helvetica,sans-Serif" font-size="11.00" fill="#000000">pc_enddate</text>
<polygon fill="none" stroke="#000000" points="561.5,-610.4481 561.5,-632.4481 644.5,-632.4481 644.5,-610.4481 561.5,-610.4481"/>
<text text-anchor="start" x="564.5" y="-618.1481" font-family="Helvetica,sans-Serif" font-size="11.00" fill="#000000">date[10]</text>
<polygon fill="none" stroke="#000000" points="309.5,-588.4481 309.5,-610.4481 561.5,-610.4481 561.5,-588.4481 309.5,-588.4481"/>
<text text-anchor="start" x="329.5" y="-595.5481" font-family="Helvetica,sans-Serif" font-size="11.00" fill="#000000">pc_recurrspec</text>
<polygon fill="none" stroke="#000000" points="561.5,-588.4481 561.5,-610.4481 644.5,-610.4481 644.5,-588.4481 561.5,-588.4481"/>
<text text-anchor="start" x="564.5" y="-596.1481" font-family="Helvetica,sans-Serif" font-size="11.00" fill="#000000">text[65535]</text>
<polygon fill="none" stroke="#000000" points="309.5,-566.4481 309.5,-588.4481 561.5,-588.4481 561.5,-566.4481 309.5,-566.4481"/>
<text text-anchor="start" x="329.5" y="-573.5481" font-family="Helvetica,sans-Serif" font-size="11.00" fill="#000000">pc_recurrfreq</text>
<polygon fill="none" stroke="#000000" points="561.5,-566.4481 561.5,-588.4481 644.5,-588.4481 644.5,-566.4481 561.5,-566.4481"/>
<text text-anchor="start" x="564.5" y="-574.1481" font-family="Helvetica,sans-Serif" font-size="11.00" fill="#000000">int[10]</text>
<polygon fill="none" stroke="#000000" points="309.5,-544.4481 309.5,-566.4481 561.5,-566.4481 561.5,-544.4481 309.5,-544.4481"/>
<text text-anchor="start" x="329.5" y="-551.5481" font-family="Helvetica,sans-Serif" font-size="11.00" fill="#000000">pc_duration</text>
<polygon fill="none" stroke="#000000" points="561.5,-544.4481 561.5,-566.4481 644.5,-566.4481 644.5,-544.4481 561.5,-544.4481"/>
<text text-anchor="start" x="564.5" y="-552.1481" font-family="Helvetica,sans-Serif" font-size="11.00" fill="#000000">bigint[19]</text>
<polygon fill="none" stroke="#000000" points="309.5,-522.4481 309.5,-544.4481 561.5,-544.4481 561.5,-522.4481 309.5,-522.4481"/>
<text text-anchor="start" x="329.5" y="-529.5481" font-family="Helvetica,sans-Serif" font-size="11.00" fill="#000000">pc_end_date_flag</text>
<polygon fill="none" stroke="#000000" points="561.5,-522.4481 561.5,-544.4481 644.5,-544.4481 644.5,-522.4481 561.5,-522.4481"/>
<text text-anchor="start" x="564.5" y="-530.1481" font-family="Helvetica,sans-Serif" font-size="11.00" fill="#000000">boolean[3]</text>
<polygon fill="none" stroke="#000000" points="309.5,-500.4481 309.5,-522.4481 561.5,-522.4481 561.5,-500.4481 309.5,-500.4481"/>
<text text-anchor="start" x="329.5" y="-507.5481" font-family="Helvetica,sans-Serif" font-size="11.00" fill="#000000">pc_end_date_type</text>
<polygon fill="none" stroke="#000000" points="561.5,-500.4481 561.5,-522.4481 644.5,-522.4481 644.5,-500.4481 561.5,-500.4481"/>
<text text-anchor="start" x="564.5" y="-508.1481" font-family="Helvetica,sans-Serif" font-size="11.00" fill="#000000">int[10]</text>
<polygon fill="none" stroke="#000000" points="309.5,-478.4481 309.5,-500.4481 561.5,-500.4481 561.5,-478.4481 309.5,-478.4481"/>
<text text-anchor="start" x="329.5" y="-485.5481" font-family="Helvetica,sans-Serif" font-size="11.00" fill="#000000">pc_end_date_freq</text>
<polygon fill="none" stroke="#000000" points="561.5,-478.4481 561.5,-500.4481 644.5,-500.4481 644.5,-478.4481 561.5,-478.4481"/>
<text text-anchor="start" x="564.5" y="-486.1481" font-family="Helvetica,sans-Serif" font-size="11.00" fill="#000000">int[10]</text>
<polygon fill="none" stroke="#000000" points="309.5,-456.4481 309.5,-478.4481 561.5,-478.4481 561.5,-456.4481 309.5,-456.4481"/>
<text text-anchor="start" x="329.5" y="-463.5481" font-family="Helvetica,sans-Serif" font-size="11.00" fill="#000000">pc_end_all_day</text>
<polygon fill="none" stroke="#000000" points="561.5,-456.4481 561.5,-478.4481 644.5,-478.4481 644.5,-456.4481 561.5,-456.4481"/>
<text text-anchor="start" x="564.5" y="-464.1481" font-family="Helvetica,sans-Serif" font-size="11.00" fill="#000000">boolean[3]</text>
<polygon fill="none" stroke="#000000" points="309.5,-434.4481 309.5,-456.4481 561.5,-456.4481 561.5,-434.4481 309.5,-434.4481"/>
<text text-anchor="start" x="329.5" y="-441.5481" font-family="Helvetica,sans-Serif" font-size="11.00" fill="#000000">pc_dailylimit</text>
<polygon fill="none" stroke="#000000" points="561.5,-434.4481 561.5,-456.4481 644.5,-456.4481 644.5,-434.4481 561.5,-434.4481"/>
<text text-anchor="start" x="564.5" y="-442.1481" font-family="Helvetica,sans-Serif" font-size="11.00" fill="#000000">int[10]</text>
<polygon fill="none" stroke="#000000" points="309.5,-412.4481 309.5,-434.4481 561.5,-434.4481 561.5,-412.4481 309.5,-412.4481"/>
<text text-anchor="start" x="329.5" y="-419.5481" font-family="Helvetica,sans-Serif" font-size="11.00" fill="#000000">pc_cattype</text>
<polygon fill="none" stroke="#000000" points="561.5,-412.4481 561.5,-434.4481 644.5,-434.4481 644.5,-412.4481 561.5,-412.4481"/>
<text text-anchor="start" x="564.5" y="-420.1481" font-family="Helvetica,sans-Serif" font-size="11.00" fill="#000000">int[10]</text>
<polygon fill="none" stroke="#000000" points="309.5,-390.4481 309.5,-412.4481 561.5,-412.4481 561.5,-390.4481 309.5,-390.4481"/>
<text text-anchor="start" x="329.5" y="-397.5481" font-family="Helvetica,sans-Serif" font-size="11.00" fill="#000000">pc_active</text>
<polygon fill="none" stroke="#000000" points="561.5,-390.4481 561.5,-412.4481 644.5,-412.4481 644.5,-390.4481 561.5,-390.4481"/>
<text text-anchor="start" x="564.5" y="-398.1481" font-family="Helvetica,sans-Serif" font-size="11.00" fill="#000000">boolean[3]</text>
<polygon fill="none" stroke="#000000" points="309.5,-368.4481 309.5,-390.4481 561.5,-390.4481 561.5,-368.4481 309.5,-368.4481"/>
<text text-anchor="start" x="329.5" y="-375.5481" font-family="Helvetica,sans-Serif" font-size="11.00" fill="#000000">pc_seq</text>
<polygon fill="none" stroke="#000000" points="561.5,-368.4481 561.5,-390.4481 644.5,-390.4481 644.5,-368.4481 561.5,-368.4481"/>
<text text-anchor="start" x="564.5" y="-376.1481" font-family="Helvetica,sans-Serif" font-size="11.00" fill="#000000">int[10]</text>
<polygon fill="none" stroke="#000000" points="309.5,-346.4481 309.5,-368.4481 561.5,-368.4481 561.5,-346.4481 309.5,-346.4481"/>
<text text-anchor="start" x="329.5" y="-353.5481" font-family="Helvetica,sans-Serif" font-size="11.00" fill="#000000">aco_spec</text>
<polygon fill="none" stroke="#000000" points="561.5,-346.4481 561.5,-368.4481 644.5,-368.4481 644.5,-346.4481 561.5,-346.4481"/>
<text text-anchor="start" x="564.5" y="-354.1481" font-family="Helvetica,sans-Serif" font-size="11.00" fill="#000000">varchar[63]</text>
<polygon fill="none" stroke="#000000" points="309.5,-324.4481 309.5,-346.4481 561.5,-346.4481 561.5,-324.4481 309.5,-324.4481"/>
<text text-anchor="start" x="329.5" y="-331.5481" font-family="Helvetica,sans-Serif" font-size="11.00" fill="#000000">pc_last_updated</text>
<polygon fill="none" stroke="#000000" points="561.5,-324.4481 561.5,-346.4481 644.5,-346.4481 644.5,-324.4481 561.5,-324.4481"/>
<text text-anchor="start" x="564.5" y="-332.1481" font-family="Helvetica,sans-Serif" font-size="11.00" fill="#000000">datetime[19]</text>
<polygon fill="#ffffff" stroke="transparent" points="309.5,-305.4481 309.5,-324.4481 439.5,-324.4481 439.5,-305.4481 309.5,-305.4481"/>
<polygon fill="none" stroke="#000000" points="309.5,-305.4481 309.5,-324.4481 439.5,-324.4481 439.5,-305.4481 309.5,-305.4481"/>
<text text-anchor="start" x="312.5" y="-311.5481" font-family="Helvetica,sans-Serif" font-size="11.00" fill="#000000">&lt; 0</text>
<polygon fill="#ffffff" stroke="transparent" points="439.5,-305.4481 439.5,-324.4481 561.5,-324.4481 561.5,-305.4481 439.5,-305.4481"/>
<polygon fill="none" stroke="#000000" points="439.5,-305.4481 439.5,-324.4481 561.5,-324.4481 561.5,-305.4481 439.5,-305.4481"/>
<text text-anchor="start" x="552.3862" y="-311.5481" font-family="Helvetica,sans-Serif" font-size="11.00" fill="#000000"> &#160;</text>
<polygon fill="#ffffff" stroke="transparent" points="561.5,-305.4481 561.5,-324.4481 644.5,-324.4481 644.5,-305.4481 561.5,-305.4481"/>
<polygon fill="none" stroke="#000000" points="561.5,-305.4481 561.5,-324.4481 644.5,-324.4481 644.5,-305.4481 561.5,-305.4481"/>
<text text-anchor="start" x="625.9053" y="-311.5481" font-family="Helvetica,sans-Serif" font-size="11.00" fill="#000000">3 &gt;</text>
<polygon fill="none" stroke="#000000" stroke-width="2" points="308,-304.4481 308,-788.4481 645,-788.4481 645,-304.4481 308,-304.4481"/>
</a>
</g>
</g>
<!-- form_groups_encounter&#45;&gt;openemr_postcalendar_categories -->
<g id="edge9" class="edge">
<title>form_groups_encounter:w&#45;&gt;openemr_postcalendar_categories:e</title>
<path fill="none" stroke="#000000" d="M1069.5998,-320.5935C1022.125,-442.4447 878.0751,-753.4481 644.5,-753.4481"/>
<polygon fill="#000000" stroke="#000000" points="1071.926,-314.5124 1078.1467,-308.3267 1073.3552,-310.7765 1074.7843,-307.0405 1074.7843,-307.0405 1074.7843,-307.0405 1073.3552,-310.7765 1071.422,-305.7542 1071.926,-314.5124 1071.926,-314.5124"/>
<ellipse fill="none" stroke="#000000" cx="1070.7827" cy="-317.5012" rx="3.2" ry="3.2"/>
</g>
<!-- forms&#45;&gt;therapy_groups -->
<g id="edge14" class="edge">
<title>forms:w&#45;&gt;therapy_groups:e</title>
<path fill="none" stroke="#000000" d="M763.5466,-222.1023C671.276,-217.5907 648.0809,-170.4481 548.5,-170.4481"/>
<polygon fill="#000000" stroke="#000000" points="770.0023,-222.2567 777.9139,-226.0471 774.0011,-222.3524 778,-222.4481 778,-222.4481 778,-222.4481 774.0011,-222.3524 778.0861,-218.8492 770.0023,-222.2567 770.0023,-222.2567"/>
<ellipse fill="none" stroke="#000000" cx="766.8032" cy="-222.1802" rx="3.2" ry="3.2"/>
</g>
<!-- forms&#45;&gt;users -->
<g id="edge13" class="edge">
<title>forms:w&#45;&gt;users:e</title>
<path fill="none" stroke="#000000" d="M763.4283,-222.4331C675.4544,-222.345 334.8767,-222.8052 299,-257.4481 208.4723,-344.8626 363.8433,-820.4481 238,-820.4481"/>
<polygon fill="#000000" stroke="#000000" points="770,-222.4398 777.9963,-226.0481 774,-222.444 778,-222.4481 778,-222.4481 778,-222.4481 774,-222.444 778.0037,-218.8482 770,-222.4398 770,-222.4398"/>
<ellipse fill="none" stroke="#000000" cx="766.8" cy="-222.4365" rx="3.2" ry="3.2"/>
</g>
<!-- forms&#45;&gt;users -->
<g id="edge15" class="edge">
<title>forms:w&#45;&gt;users:e</title>
<path fill="none" stroke="#000000" d="M763.4211,-222.4802C675.4104,-222.8308 334.7689,-226.648 299,-261.4481 209.4357,-348.5868 362.9596,-820.4481 238,-820.4481"/>
<polygon fill="#000000" stroke="#000000" points="770,-222.4658 778.0079,-226.0481 774,-222.457 778,-222.4481 778,-222.4481 778,-222.4481 774,-222.457 777.9921,-218.8482 770,-222.4658 770,-222.4658"/>
<ellipse fill="none" stroke="#000000" cx="766.8" cy="-222.4729" rx="3.2" ry="3.2"/>
</g>
<!-- patient_data -->
<g id="node9" class="node">
<title>patient_data</title>
<g id="a_node9"><a xlink:href="../../tables/patient_data.html" xlink:title="patient_data" target="_top">
<polygon fill="#ffffff" stroke="transparent" points="414.5,-876.9481 414.5,-937.9481 538.5,-937.9481 538.5,-876.9481 414.5,-876.9481"/>
<polygon fill="#f5f5f5" stroke="transparent" points="414.5,-914.4481 414.5,-937.4481 538.5,-937.4481 538.5,-914.4481 414.5,-914.4481"/>
<polygon fill="none" stroke="#000000" points="414.5,-914.4481 414.5,-937.4481 538.5,-937.4481 538.5,-914.4481 414.5,-914.4481"/>
<text text-anchor="start" x="419.5" y="-923.0481" font-family="Helvetica,sans-Serif" font-weight="bold" font-size="11.00" fill="#000000">patient_data</text>
<text text-anchor="start" x="504.0219" y="-922.5481" font-family="Helvetica,sans-Serif" font-size="11.00" fill="#000000">[table]</text>
<polygon fill="none" stroke="#000000" points="414.5,-895.4481 414.5,-914.4481 538.5,-914.4481 538.5,-895.4481 414.5,-895.4481"/>
<text text-anchor="start" x="417.5" y="-901.5481" font-family="Helvetica,sans-Serif" font-size="11.00" fill="#000000">...</text>
<polygon fill="#ffffff" stroke="transparent" points="414.5,-876.4481 414.5,-895.4481 467.5,-895.4481 467.5,-876.4481 414.5,-876.4481"/>
<polygon fill="none" stroke="#000000" points="414.5,-876.4481 414.5,-895.4481 467.5,-895.4481 467.5,-876.4481 414.5,-876.4481"/>
<text text-anchor="start" x="417.5" y="-882.5481" font-family="Helvetica,sans-Serif" font-size="11.00" fill="#000000">&lt; 9</text>
<polygon fill="#ffffff" stroke="transparent" points="467.5,-876.4481 467.5,-895.4481 495.5,-895.4481 495.5,-876.4481 467.5,-876.4481"/>
<polygon fill="none" stroke="#000000" points="467.5,-876.4481 467.5,-895.4481 495.5,-895.4481 495.5,-876.4481 467.5,-876.4481"/>
<text text-anchor="start" x="486.3862" y="-882.5481" font-family="Helvetica,sans-Serif" font-size="11.00" fill="#000000"> &#160;</text>
<polygon fill="#ffffff" stroke="transparent" points="495.5,-876.4481 495.5,-895.4481 538.5,-895.4481 538.5,-876.4481 495.5,-876.4481"/>
<polygon fill="none" stroke="#000000" points="495.5,-876.4481 495.5,-895.4481 538.5,-895.4481 538.5,-876.4481 495.5,-876.4481"/>
<text text-anchor="start" x="513.7904" y="-882.5481" font-family="Helvetica,sans-Serif" font-size="11.00" fill="#000000">95 &gt;</text>
</a>
</g>
</g>
<!-- forms&#45;&gt;patient_data -->
<g id="edge12" class="edge">
<title>forms:w&#45;&gt;patient_data:e</title>
<path fill="none" stroke="#000000" d="M763.5637,-222.8263C525.4155,-235.756 783.0745,-577.3676 654,-800.4481 619.4056,-860.238 607.5768,-904.4481 538.5,-904.4481"/>
<polygon fill="#000000" stroke="#000000" points="770.0027,-222.6577 778.0943,-226.0469 774.0014,-222.5529 778,-222.4481 778,-222.4481 778,-222.4481 774.0014,-222.5529 777.9057,-218.8494 770.0027,-222.6577 770.0027,-222.6577"/>
<ellipse fill="none" stroke="#000000" cx="766.8038" cy="-222.7415" rx="3.2" ry="3.2"/>
</g>
<!-- users&#45;&gt;facility -->
<g id="edge37" class="edge">
<title>users:w&#45;&gt;facility:e</title>
<path fill="none" stroke="#000000" d="M148.6068,-817.8403C128.6804,-814.6335 118.9592,-815.5028 93.5,-820.4481"/>
<polygon fill="#000000" stroke="#000000" points="155.1282,-819.0218 162.3582,-823.9905 159.0641,-819.735 163,-820.4481 163,-820.4481 163,-820.4481 159.0641,-819.735 163.6418,-816.9058 155.1282,-819.0218 155.1282,-819.0218"/>
<ellipse fill="none" stroke="#000000" cx="151.9794" cy="-818.4513" rx="3.2" ry="3.2"/>
</g>
<!-- users&#45;&gt;facility -->
<g id="edge38" class="edge">
<title>users:w&#45;&gt;facility:e</title>
<path fill="none" stroke="#000000" d="M148.8908,-823.4372C128.7722,-827.2414 119.0799,-826.245 93.5,-820.4481"/>
<polygon fill="#000000" stroke="#000000" points="155.1737,-822.1062 163.7461,-823.97 159.0868,-821.2772 163,-820.4481 163,-820.4481 163,-820.4481 159.0868,-821.2772 162.2539,-816.9263 155.1737,-822.1062 155.1737,-822.1062"/>
<ellipse fill="none" stroke="#000000" cx="152.0432" cy="-822.7694" rx="3.2" ry="3.2"/>
</g>
<!-- openemr_postcalendar_events&#45;&gt;therapy_groups -->
<g id="edge21" class="edge">
<title>openemr_postcalendar_events:w&#45;&gt;therapy_groups:e</title>
<path fill="none" stroke="#000000" d="M807.238,-754.2243C776.3337,-605.4222 675.1623,-170.4481 548.5,-170.4481"/>
<polygon fill="#000000" stroke="#000000" points="808.5628,-760.6771 806.6452,-769.2377 809.3672,-764.5954 810.1717,-768.5137 810.1717,-768.5137 810.1717,-768.5137 809.3672,-764.5954 813.6981,-767.7897 808.5628,-760.6771 808.5628,-760.6771"/>
<ellipse fill="none" stroke="#000000" cx="807.9192" cy="-757.5425" rx="3.2" ry="3.2"/>
</g>
<!-- openemr_postcalendar_events&#45;&gt;users -->
<g id="edge16" class="edge">
<title>openemr_postcalendar_events:w&#45;&gt;users:e</title>
<path fill="none" stroke="#000000" d="M672.0866,-805.6613C554.9916,-809.9224 385.914,-817.0009 238,-820.4481"/>
<polygon fill="#000000" stroke="#000000" points="678.8252,-805.4186 686.9496,-808.7282 682.8226,-805.2746 686.82,-805.1305 686.82,-805.1305 686.82,-805.1305 682.8226,-805.2746 686.6903,-801.5329 678.8252,-805.4186 678.8252,-805.4186"/>
<ellipse fill="none" stroke="#000000" cx="675.6272" cy="-805.5338" rx="3.2" ry="3.2"/>
</g>
<!-- openemr_postcalendar_events&#45;&gt;users -->
<g id="edge22" class="edge">
<title>openemr_postcalendar_events:w&#45;&gt;users:e</title>
<path fill="none" stroke="#000000" d="M672.0866,-815.1946C554.9916,-820.5693 385.914,-824.47 238,-820.4481"/>
<polygon fill="#000000" stroke="#000000" points="678.8289,-814.8756 686.9902,-818.0933 682.8244,-814.6864 686.82,-814.4973 686.82,-814.4973 686.82,-814.4973 682.8244,-814.6864 686.6498,-810.9014 678.8289,-814.8756 678.8289,-814.8756"/>
<ellipse fill="none" stroke="#000000" cx="675.6325" cy="-815.0268" rx="3.2" ry="3.2"/>
</g>
<!-- openemr_postcalendar_events&#45;&gt;facility -->
<g id="edge18" class="edge">
<title>openemr_postcalendar_events:w&#45;&gt;facility:e</title>
<path fill="none" stroke="#000000" d="M785.4542,-850.175C756.8986,-890.2193 710.6844,-945.0718 654,-969.4481 441.4021,-1060.8729 309.0066,-1093.8716 134,-942.4481 88.8773,-903.406 153.1686,-814.4481 93.5,-820.4481"/>
<polygon fill="#000000" stroke="#000000" points="789.17,-844.8383 796.6957,-840.3301 791.4557,-841.5556 793.7413,-838.273 793.7413,-838.273 793.7413,-838.273 791.4557,-841.5556 790.787,-836.2159 789.17,-844.8383 789.17,-844.8383"/>
<ellipse fill="none" stroke="#000000" cx="787.3415" cy="-847.4644" rx="3.2" ry="3.2"/>
</g>
<!-- openemr_postcalendar_events&#45;&gt;facility -->
<g id="edge20" class="edge">
<title>openemr_postcalendar_events:w&#45;&gt;facility:e</title>
<path fill="none" stroke="#000000" d="M791.9774,-850.5586C764.2408,-894.229 715.2285,-956.1177 654,-982.4481 441.4021,-1073.8729 309.0066,-1106.8716 134,-955.4481 88.8773,-916.406 153.1686,-827.4481 93.5,-820.4481"/>
<polygon fill="#000000" stroke="#000000" points="795.3741,-845.0276 802.6283,-840.0944 797.4674,-841.619 799.5606,-838.2104 799.5606,-838.2104 799.5606,-838.2104 797.4674,-841.619 796.4929,-836.3265 795.3741,-845.0276 795.3741,-845.0276"/>
<ellipse fill="none" stroke="#000000" cx="793.6995" cy="-847.7544" rx="3.2" ry="3.2"/>
</g>
<!-- openemr_postcalendar_events&#45;&gt;openemr_postcalendar_categories -->
<g id="edge19" class="edge">
<title>openemr_postcalendar_events:w&#45;&gt;openemr_postcalendar_categories:e</title>
<path fill="none" stroke="#000000" d="M732.4903,-764.5638C704.9173,-756.6033 673.8402,-751.2427 644.5,-753.4481"/>
<polygon fill="#000000" stroke="#000000" points="738.9225,-766.5629 745.4936,-772.375 742.7423,-767.7501 746.562,-768.9373 746.562,-768.9373 746.562,-768.9373 742.7423,-767.7501 747.6305,-765.4995 738.9225,-766.5629 738.9225,-766.5629"/>
<ellipse fill="none" stroke="#000000" cx="735.8667" cy="-765.6131" rx="3.2" ry="3.2"/>
</g>
<!-- openemr_postcalendar_events&#45;&gt;openemr_postcalendar_categories -->
<g id="edge24" class="edge">
<title>openemr_postcalendar_events:w&#45;&gt;openemr_postcalendar_categories:e</title>
<path fill="none" stroke="#000000" d="M703.5987,-764.7736C684.1534,-759.4104 663.9452,-755.1534 644.5,-753.4481"/>
<polygon fill="#000000" stroke="#000000" points="709.9208,-766.6157 716.5943,-772.3099 713.7611,-767.7347 717.6014,-768.8537 717.6014,-768.8537 717.6014,-768.8537 713.7611,-767.7347 718.6085,-765.3974 709.9208,-766.6157 709.9208,-766.6157"/>
<ellipse fill="none" stroke="#000000" cx="706.8485" cy="-765.7205" rx="3.2" ry="3.2"/>
</g>
<!-- openemr_postcalendar_events&#45;&gt;patient_data -->
<g id="edge23" class="edge">
<title>openemr_postcalendar_events:w&#45;&gt;patient_data:e</title>
<path fill="none" stroke="#000000" d="M745.5925,-844.8643C690.7931,-872.7461 612.2661,-904.4481 538.5,-904.4481"/>
<polygon fill="#000000" stroke="#000000" points="751.5522,-841.7606 760.3106,-841.2583 755.1,-839.9129 758.6477,-838.0653 758.6477,-838.0653 758.6477,-838.0653 755.1,-839.9129 756.9848,-834.8724 751.5522,-841.7606 751.5522,-841.7606"/>
<ellipse fill="none" stroke="#000000" cx="748.7141" cy="-843.2387" rx="3.2" ry="3.2"/>
</g>
<!-- list_options -->
<g id="node10" class="node">
<title>list_options</title>
<g id="a_node10"><a xlink:href="../../tables/list_options.html" xlink:title="list_options" target="_top">
<polygon fill="#ffffff" stroke="transparent" points="142,-876.9481 142,-937.9481 258,-937.9481 258,-876.9481 142,-876.9481"/>
<polygon fill="#f5f5f5" stroke="transparent" points="142,-914.4481 142,-937.4481 258,-937.4481 258,-914.4481 142,-914.4481"/>
<polygon fill="none" stroke="#000000" points="142,-914.4481 142,-937.4481 258,-937.4481 258,-914.4481 142,-914.4481"/>
<text text-anchor="start" x="147" y="-923.0481" font-family="Helvetica,sans-Serif" font-weight="bold" font-size="11.00" fill="#000000">list_options</text>
<text text-anchor="start" x="223.5219" y="-922.5481" font-family="Helvetica,sans-Serif" font-size="11.00" fill="#000000">[table]</text>
<polygon fill="none" stroke="#000000" points="142,-895.4481 142,-914.4481 258,-914.4481 258,-895.4481 142,-895.4481"/>
<text text-anchor="start" x="145" y="-901.5481" font-family="Helvetica,sans-Serif" font-size="11.00" fill="#000000">...</text>
<polygon fill="#ffffff" stroke="transparent" points="142,-876.4481 142,-895.4481 186,-895.4481 186,-876.4481 142,-876.4481"/>
<polygon fill="none" stroke="#000000" points="142,-876.4481 142,-895.4481 186,-895.4481 186,-876.4481 142,-876.4481"/>
<text text-anchor="start" x="145" y="-882.5481" font-family="Helvetica,sans-Serif" font-size="11.00" fill="#000000"> &#160;</text>
<polygon fill="#ffffff" stroke="transparent" points="186,-876.4481 186,-895.4481 214,-895.4481 214,-876.4481 186,-876.4481"/>
<polygon fill="none" stroke="#000000" points="186,-876.4481 186,-895.4481 214,-895.4481 214,-876.4481 186,-876.4481"/>
<text text-anchor="start" x="204.8862" y="-882.5481" font-family="Helvetica,sans-Serif" font-size="11.00" fill="#000000"> &#160;</text>
<polygon fill="#ffffff" stroke="transparent" points="214,-876.4481 214,-895.4481 258,-895.4481 258,-876.4481 214,-876.4481"/>
<polygon fill="none" stroke="#000000" points="214,-876.4481 214,-895.4481 258,-895.4481 258,-876.4481 214,-876.4481"/>
<text text-anchor="start" x="233.2904" y="-882.5481" font-family="Helvetica,sans-Serif" font-size="11.00" fill="#000000">98 &gt;</text>
</a>
</g>
</g>
<!-- openemr_postcalendar_events&#45;&gt;list_options -->
<g id="edge17" class="edge">
<title>openemr_postcalendar_events:w&#45;&gt;list_options:e</title>
<path fill="none" stroke="#000000" d="M777.451,-849.155C747.659,-882.0001 703.5581,-923.5954 654,-942.4481 580.2662,-970.4978 371.34,-973.9185 299,-942.4481 274.4894,-931.7852 284.7296,-898.4481 258,-904.4481"/>
<polygon fill="#000000" stroke="#000000" points="782.0716,-843.9411 790.0718,-840.3415 784.7246,-840.9475 787.3776,-837.9538 787.3776,-837.9538 787.3776,-837.9538 784.7246,-840.9475 784.6833,-835.5662 782.0716,-843.9411 782.0716,-843.9411"/>
<ellipse fill="none" stroke="#000000" cx="779.9492" cy="-846.336" rx="3.2" ry="3.2"/>
</g>
<!-- openemr_postcalendar_events&#45;&gt;list_options -->
<g id="edge25" class="edge">
<title>openemr_postcalendar_events:w&#45;&gt;list_options:e</title>
<path fill="none" stroke="#000000" d="M786.127,-849.5464C756.6157,-886.261 708.6226,-934.6688 654,-955.4481 580.2662,-983.4978 371.34,-986.9185 299,-955.4481 274.4894,-944.7852 284.7296,-911.4481 258,-904.4481"/>
<polygon fill="#000000" stroke="#000000" points="790.1312,-844.4005 797.8854,-840.2976 792.5877,-841.2436 795.0442,-838.0868 795.0442,-838.0868 795.0442,-838.0868 792.5877,-841.2436 792.203,-835.8759 790.1312,-844.4005 790.1312,-844.4005"/>
<ellipse fill="none" stroke="#000000" cx="788.166" cy="-846.926" rx="3.2" ry="3.2"/>
</g>
<!-- patient_data&#45;&gt;users -->
<g id="edge26" class="edge">
<title>patient_data:w&#45;&gt;users:e</title>
<path fill="none" stroke="#000000" d="M401.3051,-897.9341C357.4921,-875.4709 343.3804,-859.321 299,-836.4481 269.7413,-821.3688 270.9159,-794.4481 238,-820.4481"/>
<polygon fill="#000000" stroke="#000000" points="407.3265,-900.9067 412.9064,-907.6762 410.9133,-902.6774 414.5,-904.4481 414.5,-904.4481 414.5,-904.4481 410.9133,-902.6774 416.0936,-901.2201 407.3265,-900.9067 407.3265,-900.9067"/>
<ellipse fill="none" stroke="#000000" cx="404.4571" cy="-899.4902" rx="3.2" ry="3.2"/>
</g>
<!-- patient_data&#45;&gt;users -->
<g id="edge27" class="edge">
<title>patient_data:w&#45;&gt;users:e</title>
<path fill="none" stroke="#000000" d="M400.4662,-900.7644C357.31,-888.2635 343.096,-872.1744 299,-849.4481 269.7413,-834.3688 270.9159,-807.4481 238,-820.4481"/>
<polygon fill="#000000" stroke="#000000" points="406.7621,-902.417 413.586,-907.9302 410.6311,-903.4326 414.5,-904.4481 414.5,-904.4481 414.5,-904.4481 410.6311,-903.4326 415.414,-900.9661 406.7621,-902.417 406.7621,-902.417"/>
<ellipse fill="none" stroke="#000000" cx="403.667" cy="-901.6045" rx="3.2" ry="3.2"/>
</g>
<!-- patient_data&#45;&gt;users -->
<g id="edge29" class="edge">
<title>patient_data:w&#45;&gt;users:e</title>
<path fill="none" stroke="#000000" d="M399.9109,-903.9895C357.1872,-901.125 342.9063,-885.0766 299,-862.4481 269.7413,-847.3688 270.9159,-820.4481 238,-820.4481"/>
<polygon fill="#000000" stroke="#000000" points="406.504,-904.1967 414.3869,-908.0464 410.502,-904.3224 414.5,-904.4481 414.5,-904.4481 414.5,-904.4481 410.502,-904.3224 414.6131,-900.8499 406.504,-904.1967 406.504,-904.1967"/>
<ellipse fill="none" stroke="#000000" cx="403.3055" cy="-904.0961" rx="3.2" ry="3.2"/>
</g>
<!-- patient_data&#45;&gt;users -->
<g id="edge30" class="edge">
<title>patient_data:w&#45;&gt;users:e</title>
<path fill="none" stroke="#000000" d="M400.1881,-907.3321C357.2487,-914.1943 343.0011,-898.1255 299,-875.4481 269.7413,-860.3688 270.9159,-833.4481 238,-820.4481"/>
<polygon fill="#000000" stroke="#000000" points="406.6576,-906.0285 415.2111,-907.9772 410.5788,-905.2383 414.5,-904.4481 414.5,-904.4481 414.5,-904.4481 410.5788,-905.2383 413.7889,-900.9191 406.6576,-906.0285 406.6576,-906.0285"/>
<ellipse fill="none" stroke="#000000" cx="403.5207" cy="-906.6606" rx="3.2" ry="3.2"/>
</g>
<!-- patient_data&#45;&gt;users -->
<g id="edge33" class="edge">
<title>patient_data:w&#45;&gt;users:e</title>
<path fill="none" stroke="#000000" d="M401.3051,-910.2213C357.4921,-927.4709 343.3804,-911.321 299,-888.4481 269.7413,-873.3688 270.9159,-846.4481 238,-820.4481"/>
<polygon fill="#000000" stroke="#000000" points="407.1708,-907.6549 415.943,-907.7463 410.8354,-906.0515 414.5,-904.4481 414.5,-904.4481 414.5,-904.4481 410.8354,-906.0515 413.057,-901.15 407.1708,-907.6549 407.1708,-907.6549"/>
<ellipse fill="none" stroke="#000000" cx="404.2391" cy="-908.9376" rx="3.2" ry="3.2"/>
</g>
<!-- patient_data&#45;&gt;list_options -->
<g id="edge28" class="edge">
<title>patient_data:w&#45;&gt;list_options:e</title>
<path fill="none" stroke="#000000" d="M400.1985,-901.8335C342.1588,-891.516 322.5291,-892.3876 258,-904.4481"/>
<polygon fill="#000000" stroke="#000000" points="406.6304,-903.0093 413.8525,-907.9895 410.5652,-903.7287 414.5,-904.4481 414.5,-904.4481 414.5,-904.4481 410.5652,-903.7287 415.1475,-900.9068 406.6304,-903.0093 406.6304,-903.0093"/>
<ellipse fill="none" stroke="#000000" cx="403.4826" cy="-902.4338" rx="3.2" ry="3.2"/>
</g>
<!-- patient_data&#45;&gt;list_options -->
<g id="edge31" class="edge">
<title>patient_data:w&#45;&gt;list_options:e</title>
<path fill="none" stroke="#000000" d="M399.8324,-904.4481C342.0759,-904.4481 322.3932,-904.4481 258,-904.4481"/>
<polygon fill="#000000" stroke="#000000" points="406.5,-904.4482 414.5,-908.0481 410.5,-904.4482 414.5,-904.4481 414.5,-904.4481 414.5,-904.4481 410.5,-904.4482 414.5,-900.8481 406.5,-904.4482 406.5,-904.4482"/>
<ellipse fill="none" stroke="#000000" cx="403.3" cy="-904.4482" rx="3.2" ry="3.2"/>
</g>
<!-- patient_data&#45;&gt;list_options -->
<g id="edge32" class="edge">
<title>patient_data:w&#45;&gt;list_options:e</title>
<path fill="none" stroke="#000000" d="M400.1985,-907.0628C342.1588,-917.3803 322.5291,-916.5087 258,-904.4481"/>
<polygon fill="#000000" stroke="#000000" points="406.6304,-905.887 415.1475,-907.9895 410.5652,-905.1676 414.5,-904.4481 414.5,-904.4481 414.5,-904.4481 410.5652,-905.1676 413.8525,-900.9068 406.6304,-905.887 406.6304,-905.887"/>
<ellipse fill="none" stroke="#000000" cx="403.4826" cy="-906.4625" rx="3.2" ry="3.2"/>
</g>
<!-- patient_tracker -->
<g id="node11" class="node">
<title>patient_tracker</title>
<g id="a_node11"><a xlink:href="../../tables/patient_tracker.html" xlink:title="patient_tracker" target="_top">
<polygon fill="#ffffff" stroke="transparent" points="1016,-830.9481 1016,-891.9481 1158,-891.9481 1158,-830.9481 1016,-830.9481"/>
<polygon fill="#f5f5f5" stroke="transparent" points="1016,-868.4481 1016,-891.4481 1158,-891.4481 1158,-868.4481 1016,-868.4481"/>
<polygon fill="none" stroke="#000000" points="1016,-868.4481 1016,-891.4481 1158,-891.4481 1158,-868.4481 1016,-868.4481"/>
<text text-anchor="start" x="1021" y="-877.0481" font-family="Helvetica,sans-Serif" font-weight="bold" font-size="11.00" fill="#000000">patient_tracker</text>
<text text-anchor="start" x="1123.5219" y="-876.5481" font-family="Helvetica,sans-Serif" font-size="11.00" fill="#000000">[table]</text>
<polygon fill="none" stroke="#000000" points="1016,-849.4481 1016,-868.4481 1158,-868.4481 1158,-849.4481 1016,-849.4481"/>
<text text-anchor="start" x="1019" y="-855.5481" font-family="Helvetica,sans-Serif" font-size="11.00" fill="#000000">...</text>
<polygon fill="#ffffff" stroke="transparent" points="1016,-830.4481 1016,-849.4481 1081,-849.4481 1081,-830.4481 1016,-830.4481"/>
<polygon fill="none" stroke="#000000" points="1016,-830.4481 1016,-849.4481 1081,-849.4481 1081,-830.4481 1016,-830.4481"/>
<text text-anchor="start" x="1019" y="-836.5481" font-family="Helvetica,sans-Serif" font-size="11.00" fill="#000000">&lt; 4</text>
<polygon fill="#ffffff" stroke="transparent" points="1081,-830.4481 1081,-849.4481 1115,-849.4481 1115,-830.4481 1081,-830.4481"/>
<polygon fill="none" stroke="#000000" points="1081,-830.4481 1081,-849.4481 1115,-849.4481 1115,-830.4481 1081,-830.4481"/>
<text text-anchor="start" x="1105.8862" y="-836.5481" font-family="Helvetica,sans-Serif" font-size="11.00" fill="#000000"> &#160;</text>
<polygon fill="#ffffff" stroke="transparent" points="1115,-830.4481 1115,-849.4481 1158,-849.4481 1158,-830.4481 1115,-830.4481"/>
<polygon fill="none" stroke="#000000" points="1115,-830.4481 1115,-849.4481 1158,-849.4481 1158,-830.4481 1115,-830.4481"/>
<text text-anchor="start" x="1139.4053" y="-836.5481" font-family="Helvetica,sans-Serif" font-size="11.00" fill="#000000">1 &gt;</text>
</a>
</g>
</g>
<!-- patient_tracker&#45;&gt;users -->
<g id="edge35" class="edge">
<title>patient_tracker:w&#45;&gt;users:e</title>
<path fill="none" stroke="#000000" d="M1001.2243,-858.4534C694.5163,-858.6686 611.08,-865.2923 299,-831.4481 271.6122,-828.478 265.5484,-820.4481 238,-820.4481"/>
<polygon fill="#000000" stroke="#000000" points="1008,-858.451 1016.0013,-862.0481 1012,-858.4496 1016,-858.4481 1016,-858.4481 1016,-858.4481 1012,-858.4496 1015.9987,-854.8481 1008,-858.451 1008,-858.451"/>
<ellipse fill="none" stroke="#000000" cx="1004.8" cy="-858.4522" rx="3.2" ry="3.2"/>
</g>
<!-- patient_tracker&#45;&gt;openemr_postcalendar_events -->
<g id="edge34" class="edge">
<title>patient_tracker:w&#45;&gt;openemr_postcalendar_events:e</title>
<path fill="none" stroke="#000000" d="M1001.393,-857.2198C980.9441,-854.3215 951.6088,-846.6444 922.3332,-837.9682"/>
<polygon fill="#000000" stroke="#000000" points="1008.0281,-857.7777 1015.6983,-862.0355 1012.0141,-858.1129 1016,-858.4481 1016,-858.4481 1016,-858.4481 1012.0141,-858.1129 1016.3017,-854.8608 1008.0281,-857.7777 1008.0281,-857.7777"/>
<ellipse fill="none" stroke="#000000" cx="1004.8394" cy="-857.5096" rx="3.2" ry="3.2"/>
</g>
<!-- patient_tracker&#45;&gt;patient_data -->
<g id="edge36" class="edge">
<title>patient_tracker:w&#45;&gt;patient_data:e</title>
<path fill="none" stroke="#000000" d="M1001.6041,-858.9927C981.7423,-860.6163 972.3687,-865.4943 947,-868.4481 765.9638,-889.5271 720.7592,-904.4481 538.5,-904.4481"/>
<polygon fill="#000000" stroke="#000000" points="1008.0057,-858.7506 1016.1361,-862.0456 1012.0029,-858.5994 1016,-858.4481 1016,-858.4481 1016,-858.4481 1012.0029,-858.5994 1015.8639,-854.8507 1008.0057,-858.7506 1008.0057,-858.7506"/>
<ellipse fill="none" stroke="#000000" cx="1004.808" cy="-858.8716" rx="3.2" ry="3.2"/>
</g>
</g>
</svg>
