<?xml version="1.0" encoding="UTF-8" standalone="no"?>
<!DOCTYPE svg PUBLIC "-//W3C//DTD SVG 1.1//EN"
 "http://www.w3.org/Graphics/SVG/1.1/DTD/svg11.dtd">
<!-- Generated by graphviz version 2.40.1 (20161225.0304)
 -->
<!-- Title: oneDegreeRelationshipsDiagram Pages: 1 -->
<svg width="750pt" height="622pt"
 viewBox="0.00 0.00 750.00 622.45" xmlns="http://www.w3.org/2000/svg" xmlns:xlink="http://www.w3.org/1999/xlink">
<g id="graph0" class="graph" transform="scale(1 1) rotate(0) translate(4 618.454)">
<title>oneDegreeRelationshipsDiagram</title>
<polygon fill="#ffffff" stroke="transparent" points="-4,4 -4,-618.454 746,-618.454 746,4 -4,4"/>
<text text-anchor="middle" x="72.4936" y="-7.3" font-family="Helvetica,sans-Serif" font-size="11.00" fill="#000000">Generated by SchemaSpy</text>
<!-- patient_data -->
<g id="node1" class="node">
<title>patient_data</title>
<g id="a_node1"><a xlink:href="../../tables/patient_data.html" xlink:title="patient_data" target="_top">
<polygon fill="#ffffff" stroke="transparent" points="189,-164.2 189,-555.2 466,-555.2 466,-164.2 189,-164.2"/>
<polygon fill="#f5f5f5" stroke="transparent" points="189.5,-531.7 189.5,-554.7 466.5,-554.7 466.5,-531.7 189.5,-531.7"/>
<polygon fill="none" stroke="#000000" points="189.5,-531.7 189.5,-554.7 466.5,-554.7 466.5,-531.7 189.5,-531.7"/>
<text text-anchor="start" x="194.5" y="-540.3" font-family="Helvetica,sans-Serif" font-weight="bold" font-size="11.00" fill="#000000">patient_data</text>
<text text-anchor="start" x="431.5437" y="-539.8" font-family="Helvetica,sans-Serif" font-size="11.00" fill="#000000">[table]</text>
<polygon fill="none" stroke="#000000" points="189.5,-509.7 189.5,-531.7 466.5,-531.7 466.5,-509.7 189.5,-509.7"/>
<image xlink:href="../../images/primaryKeys.png" width="11px" height="12px" preserveAspectRatio="xMinYMin meet" x="194.5" y="-526.7"/>
<text text-anchor="start" x="209.5" y="-516.8" font-family="Helvetica,sans-Serif" font-size="11.00" fill="#000000">id</text>
<polygon fill="#ffffff" stroke="transparent" points="189.5,-487.7 189.5,-509.7 466.5,-509.7 466.5,-487.7 189.5,-487.7"/>
<polygon fill="none" stroke="#000000" points="189.5,-487.7 189.5,-509.7 466.5,-509.7 466.5,-487.7 189.5,-487.7"/>
<text text-anchor="start" x="209.5" y="-494.8" font-family="Helvetica,sans-Serif" font-size="11.00" fill="#000000">uuid</text>
<polygon fill="#ffffff" stroke="transparent" points="189.5,-465.7 189.5,-487.7 466.5,-487.7 466.5,-465.7 189.5,-465.7"/>
<polygon fill="none" stroke="#000000" points="189.5,-465.7 189.5,-487.7 466.5,-487.7 466.5,-465.7 189.5,-465.7"/>
<text text-anchor="start" x="209.5" y="-472.8" font-family="Helvetica,sans-Serif" font-size="11.00" fill="#000000">fname</text>
<polygon fill="#ffffff" stroke="transparent" points="189.5,-443.7 189.5,-465.7 466.5,-465.7 466.5,-443.7 189.5,-443.7"/>
<polygon fill="none" stroke="#000000" points="189.5,-443.7 189.5,-465.7 466.5,-465.7 466.5,-443.7 189.5,-443.7"/>
<text text-anchor="start" x="209.5" y="-450.8" font-family="Helvetica,sans-Serif" font-size="11.00" fill="#000000">lname</text>
<polygon fill="#ffffff" stroke="transparent" points="189.5,-421.7 189.5,-443.7 466.5,-443.7 466.5,-421.7 189.5,-421.7"/>
<polygon fill="none" stroke="#000000" points="189.5,-421.7 189.5,-443.7 466.5,-443.7 466.5,-421.7 189.5,-421.7"/>
<text text-anchor="start" x="209.5" y="-428.8" font-family="Helvetica,sans-Serif" font-size="11.00" fill="#000000">DOB</text>
<polygon fill="none" stroke="#000000" points="189.5,-399.7 189.5,-421.7 466.5,-421.7 466.5,-399.7 189.5,-399.7"/>
<image xlink:href="../../images/foreignKeys.png" width="11px" height="12px" preserveAspectRatio="xMinYMin meet" x="194.5" y="-416.7"/>
<text text-anchor="start" x="209.5" y="-406.8" font-family="Helvetica,sans-Serif" font-size="11.00" fill="#000000">pharmacy_id</text>
<polygon fill="none" stroke="#000000" points="189.5,-377.7 189.5,-399.7 466.5,-399.7 466.5,-377.7 189.5,-377.7"/>
<image xlink:href="../../images/foreignKeys.png" width="11px" height="12px" preserveAspectRatio="xMinYMin meet" x="194.5" y="-394.7"/>
<text text-anchor="start" x="209.5" y="-384.8" font-family="Helvetica,sans-Serif" font-size="11.00" fill="#000000">providerID</text>
<polygon fill="none" stroke="#000000" points="189.5,-355.7 189.5,-377.7 466.5,-377.7 466.5,-355.7 189.5,-355.7"/>
<image xlink:href="../../images/foreignKeys.png" width="11px" height="12px" preserveAspectRatio="xMinYMin meet" x="194.5" y="-372.7"/>
<text text-anchor="start" x="209.5" y="-362.8" font-family="Helvetica,sans-Serif" font-size="11.00" fill="#000000">ref_providerID</text>
<polygon fill="none" stroke="#000000" points="189.5,-333.7 189.5,-355.7 466.5,-355.7 466.5,-333.7 189.5,-333.7"/>
<image xlink:href="../../images/foreignKeys.png" width="11px" height="12px" preserveAspectRatio="xMinYMin meet" x="194.5" y="-350.7"/>
<text text-anchor="start" x="209.5" y="-340.8" font-family="Helvetica,sans-Serif" font-size="11.00" fill="#000000">interpreter_needed</text>
<polygon fill="none" stroke="#000000" points="189.5,-311.7 189.5,-333.7 466.5,-333.7 466.5,-311.7 189.5,-311.7"/>
<image xlink:href="../../images/primaryKeys.png" width="11px" height="12px" preserveAspectRatio="xMinYMin meet" x="194.5" y="-328.7"/>
<text text-anchor="start" x="209.5" y="-318.8" font-family="Helvetica,sans-Serif" font-size="11.00" fill="#000000">pid</text>
<polygon fill="none" stroke="#000000" points="189.5,-289.7 189.5,-311.7 466.5,-311.7 466.5,-289.7 189.5,-289.7"/>
<image xlink:href="../../images/foreignKeys.png" width="11px" height="12px" preserveAspectRatio="xMinYMin meet" x="194.5" y="-306.7"/>
<text text-anchor="start" x="209.5" y="-296.8" font-family="Helvetica,sans-Serif" font-size="11.00" fill="#000000">advance_directive_user_authenticator</text>
<polygon fill="none" stroke="#000000" points="189.5,-267.7 189.5,-289.7 466.5,-289.7 466.5,-267.7 189.5,-267.7"/>
<image xlink:href="../../images/foreignKeys.png" width="11px" height="12px" preserveAspectRatio="xMinYMin meet" x="194.5" y="-284.7"/>
<text text-anchor="start" x="209.5" y="-274.8" font-family="Helvetica,sans-Serif" font-size="11.00" fill="#000000">created_by</text>
<polygon fill="none" stroke="#000000" points="189.5,-245.7 189.5,-267.7 466.5,-267.7 466.5,-245.7 189.5,-245.7"/>
<image xlink:href="../../images/foreignKeys.png" width="11px" height="12px" preserveAspectRatio="xMinYMin meet" x="194.5" y="-262.7"/>
<text text-anchor="start" x="209.5" y="-252.8" font-family="Helvetica,sans-Serif" font-size="11.00" fill="#000000">updated_by</text>
<polygon fill="none" stroke="#000000" points="189.5,-223.7 189.5,-245.7 466.5,-245.7 466.5,-223.7 189.5,-223.7"/>
<image xlink:href="../../images/foreignKeys.png" width="11px" height="12px" preserveAspectRatio="xMinYMin meet" x="194.5" y="-240.7"/>
<text text-anchor="start" x="209.5" y="-230.8" font-family="Helvetica,sans-Serif" font-size="11.00" fill="#000000">tribal_affiliations</text>
<polygon fill="none" stroke="#000000" points="189.5,-201.7 189.5,-223.7 466.5,-223.7 466.5,-201.7 189.5,-201.7"/>
<image xlink:href="../../images/foreignKeys.png" width="11px" height="12px" preserveAspectRatio="xMinYMin meet" x="194.5" y="-218.7"/>
<text text-anchor="start" x="209.5" y="-208.8" font-family="Helvetica,sans-Serif" font-size="11.00" fill="#000000">sex_identified</text>
<polygon fill="none" stroke="#000000" points="189.5,-182.7 189.5,-201.7 466.5,-201.7 466.5,-182.7 189.5,-182.7"/>
<text text-anchor="start" x="192.5" y="-188.8" font-family="Helvetica,sans-Serif" font-size="11.00" fill="#000000">...</text>
<polygon fill="#ffffff" stroke="transparent" points="189.5,-163.7 189.5,-182.7 318.5,-182.7 318.5,-163.7 189.5,-163.7"/>
<polygon fill="none" stroke="#000000" points="189.5,-163.7 189.5,-182.7 318.5,-182.7 318.5,-163.7 189.5,-163.7"/>
<text text-anchor="start" x="192.5" y="-169.8" font-family="Helvetica,sans-Serif" font-size="11.00" fill="#000000">&lt; 9</text>
<polygon fill="#ffffff" stroke="transparent" points="318.5,-163.7 318.5,-182.7 384.5,-182.7 384.5,-163.7 318.5,-163.7"/>
<polygon fill="none" stroke="#000000" points="318.5,-163.7 318.5,-182.7 384.5,-182.7 384.5,-163.7 318.5,-163.7"/>
<text text-anchor="start" x="375.3862" y="-169.8" font-family="Helvetica,sans-Serif" font-size="11.00" fill="#000000"> &#160;</text>
<polygon fill="#ffffff" stroke="transparent" points="384.5,-163.7 384.5,-182.7 466.5,-182.7 466.5,-163.7 384.5,-163.7"/>
<polygon fill="none" stroke="#000000" points="384.5,-163.7 384.5,-182.7 466.5,-182.7 466.5,-163.7 384.5,-163.7"/>
<text text-anchor="start" x="441.7904" y="-169.8" font-family="Helvetica,sans-Serif" font-size="11.00" fill="#000000">95 &gt;</text>
</a>
</g>
</g>
<!-- list_options -->
<g id="node2" class="node">
<title>list_options</title>
<g id="a_node2"><a xlink:href="../../tables/list_options.html" xlink:title="list_options" target="_top">
<polygon fill="#ffffff" stroke="transparent" points="8,-186.2 8,-291.2 140,-291.2 140,-186.2 8,-186.2"/>
<polygon fill="#f5f5f5" stroke="transparent" points="8,-267.7 8,-290.7 140,-290.7 140,-267.7 8,-267.7"/>
<polygon fill="none" stroke="#000000" points="8,-267.7 8,-290.7 140,-290.7 140,-267.7 8,-267.7"/>
<text text-anchor="start" x="13" y="-276.3" font-family="Helvetica,sans-Serif" font-weight="bold" font-size="11.00" fill="#000000">list_options</text>
<text text-anchor="start" x="105.0437" y="-275.8" font-family="Helvetica,sans-Serif" font-size="11.00" fill="#000000">[table]</text>
<polygon fill="none" stroke="#000000" points="8,-245.7 8,-267.7 140,-267.7 140,-245.7 8,-245.7"/>
<image xlink:href="../../images/primaryKeys.png" width="11px" height="12px" preserveAspectRatio="xMinYMin meet" x="13" y="-262.7"/>
<text text-anchor="start" x="28" y="-252.8" font-family="Helvetica,sans-Serif" font-size="11.00" fill="#000000">list_id</text>
<polygon fill="none" stroke="#000000" points="8,-223.7 8,-245.7 140,-245.7 140,-223.7 8,-223.7"/>
<image xlink:href="../../images/primaryKeys.png" width="11px" height="12px" preserveAspectRatio="xMinYMin meet" x="13" y="-240.7"/>
<text text-anchor="start" x="28" y="-230.8" font-family="Helvetica,sans-Serif" font-size="11.00" fill="#000000">option_id</text>
<polygon fill="none" stroke="#000000" points="8,-204.7 8,-223.7 140,-223.7 140,-204.7 8,-204.7"/>
<text text-anchor="start" x="11" y="-210.8" font-family="Helvetica,sans-Serif" font-size="11.00" fill="#000000">...</text>
<polygon fill="#ffffff" stroke="transparent" points="8,-185.7 8,-204.7 60,-204.7 60,-185.7 8,-185.7"/>
<polygon fill="none" stroke="#000000" points="8,-185.7 8,-204.7 60,-204.7 60,-185.7 8,-185.7"/>
<text text-anchor="start" x="11" y="-191.8" font-family="Helvetica,sans-Serif" font-size="11.00" fill="#000000"> &#160;</text>
<polygon fill="#ffffff" stroke="transparent" points="60,-185.7 60,-204.7 92,-204.7 92,-185.7 60,-185.7"/>
<polygon fill="none" stroke="#000000" points="60,-185.7 60,-204.7 92,-204.7 92,-185.7 60,-185.7"/>
<text text-anchor="start" x="82.8862" y="-191.8" font-family="Helvetica,sans-Serif" font-size="11.00" fill="#000000"> &#160;</text>
<polygon fill="#ffffff" stroke="transparent" points="92,-185.7 92,-204.7 140,-204.7 140,-185.7 92,-185.7"/>
<polygon fill="none" stroke="#000000" points="92,-185.7 92,-204.7 140,-204.7 140,-185.7 92,-185.7"/>
<text text-anchor="start" x="115.2904" y="-191.8" font-family="Helvetica,sans-Serif" font-size="11.00" fill="#000000">98 &gt;</text>
</a>
</g>
</g>
<!-- patient_data&#45;&gt;list_options -->
<g id="edge1" class="edge">
<title>patient_data:w&#45;&gt;list_options:e</title>
<path fill="none" stroke="#000000" d="M175.2431,-340.785C147.538,-321.1897 187.5377,-234.7 140,-234.7"/>
<polygon fill="#000000" stroke="#000000" points="181.7856,-342.5816 188.5467,-348.1715 185.6428,-343.6408 189.5,-344.7 189.5,-344.7 189.5,-344.7 185.6428,-343.6408 190.4533,-341.2285 181.7856,-342.5816 181.7856,-342.5816"/>
<ellipse fill="none" stroke="#000000" cx="178.6998" cy="-341.7342" rx="3.2" ry="3.2"/>
</g>
<!-- patient_data&#45;&gt;list_options -->
<g id="edge2" class="edge">
<title>patient_data:w&#45;&gt;list_options:e</title>
<path fill="none" stroke="#000000" d="M175.3612,-215.9462C163.4382,-222.0658 158.2443,-234.7 140,-234.7"/>
<polygon fill="#000000" stroke="#000000" points="181.7029,-214.4902 190.3056,-216.2087 185.6014,-213.5951 189.5,-212.7 189.5,-212.7 189.5,-212.7 185.6014,-213.5951 188.6944,-209.1913 181.7029,-214.4902 181.7029,-214.4902"/>
<ellipse fill="none" stroke="#000000" cx="178.584" cy="-215.2063" rx="3.2" ry="3.2"/>
</g>
<!-- patient_data&#45;&gt;list_options -->
<g id="edge3" class="edge">
<title>patient_data:w&#45;&gt;list_options:e</title>
<path fill="none" stroke="#000000" d="M174.8428,-234.7C163.4139,-234.7 156.1563,-234.7 140,-234.7"/>
<polygon fill="#000000" stroke="#000000" points="181.5,-234.7001 189.5,-238.3 185.5,-234.7 189.5,-234.7 189.5,-234.7 189.5,-234.7 185.5,-234.7 189.5,-231.1 181.5,-234.7001 181.5,-234.7001"/>
<ellipse fill="none" stroke="#000000" cx="178.3" cy="-234.7001" rx="3.2" ry="3.2"/>
</g>
<!-- patient_reminders -->
<g id="node3" class="node">
<title>patient_reminders</title>
<g id="a_node3"><a xlink:href="../../tables/patient_reminders.html" xlink:title="patient_reminders" target="_top">
<polygon fill="#ffffff" stroke="transparent" points="515,-114.7 515,-468.7 734,-468.7 734,-114.7 515,-114.7"/>
<polygon fill="#f5f5f5" stroke="transparent" points="517.5,-443.7 517.5,-466.7 732.5,-466.7 732.5,-443.7 517.5,-443.7"/>
<polygon fill="none" stroke="#000000" points="517.5,-443.7 517.5,-466.7 732.5,-466.7 732.5,-443.7 517.5,-443.7"/>
<text text-anchor="start" x="522.5" y="-452.3" font-family="Helvetica,sans-Serif" font-weight="bold" font-size="11.00" fill="#000000">patient_reminders</text>
<text text-anchor="start" x="697.5437" y="-451.8" font-family="Helvetica,sans-Serif" font-size="11.00" fill="#000000">[table]</text>
<polygon fill="none" stroke="#000000" points="517.5,-421.7 517.5,-443.7 666.5,-443.7 666.5,-421.7 517.5,-421.7"/>
<image xlink:href="../../images/primaryKeys.png" width="11px" height="12px" preserveAspectRatio="xMinYMin meet" x="522.5" y="-438.7"/>
<text text-anchor="start" x="537.5" y="-428.8" font-family="Helvetica,sans-Serif" font-size="11.00" fill="#000000">id</text>
<polygon fill="none" stroke="#000000" points="666.5,-421.7 666.5,-443.7 732.5,-443.7 732.5,-421.7 666.5,-421.7"/>
<text text-anchor="start" x="669.5" y="-429.4" font-family="Helvetica,sans-Serif" font-size="11.00" fill="#000000">bigint[19]</text>
<polygon fill="none" stroke="#000000" points="517.5,-399.7 517.5,-421.7 666.5,-421.7 666.5,-399.7 517.5,-399.7"/>
<text text-anchor="start" x="537.5" y="-406.8" font-family="Helvetica,sans-Serif" font-size="11.00" fill="#000000">active</text>
<polygon fill="none" stroke="#000000" points="666.5,-399.7 666.5,-421.7 732.5,-421.7 732.5,-399.7 666.5,-399.7"/>
<text text-anchor="start" x="669.5" y="-407.4" font-family="Helvetica,sans-Serif" font-size="11.00" fill="#000000">boolean[3]</text>
<polygon fill="none" stroke="#000000" points="517.5,-377.7 517.5,-399.7 666.5,-399.7 666.5,-377.7 517.5,-377.7"/>
<text text-anchor="start" x="537.5" y="-384.8" font-family="Helvetica,sans-Serif" font-size="11.00" fill="#000000">date_inactivated</text>
<polygon fill="none" stroke="#000000" points="666.5,-377.7 666.5,-399.7 732.5,-399.7 732.5,-377.7 666.5,-377.7"/>
<text text-anchor="start" x="669.2401" y="-385.4" font-family="Helvetica,sans-Serif" font-size="11.00" fill="#000000">datetime[19]</text>
<polygon fill="none" stroke="#000000" points="517.5,-355.7 517.5,-377.7 666.5,-377.7 666.5,-355.7 517.5,-355.7"/>
<image xlink:href="../../images/foreignKeys.png" width="11px" height="12px" preserveAspectRatio="xMinYMin meet" x="522.5" y="-372.7"/>
<text text-anchor="start" x="537.5" y="-362.8" font-family="Helvetica,sans-Serif" font-size="11.00" fill="#000000">reason_inactivated</text>
<polygon fill="none" stroke="#000000" points="666.5,-355.7 666.5,-377.7 732.5,-377.7 732.5,-355.7 666.5,-355.7"/>
<text text-anchor="start" x="669.5" y="-363.4" font-family="Helvetica,sans-Serif" font-size="11.00" fill="#000000">varchar[31]</text>
<polygon fill="none" stroke="#000000" points="517.5,-333.7 517.5,-355.7 666.5,-355.7 666.5,-333.7 517.5,-333.7"/>
<image xlink:href="../../images/foreignKeys.png" width="11px" height="12px" preserveAspectRatio="xMinYMin meet" x="522.5" y="-350.7"/>
<text text-anchor="start" x="537.5" y="-340.8" font-family="Helvetica,sans-Serif" font-size="11.00" fill="#000000">due_status</text>
<polygon fill="none" stroke="#000000" points="666.5,-333.7 666.5,-355.7 732.5,-355.7 732.5,-333.7 666.5,-333.7"/>
<text text-anchor="start" x="669.5" y="-341.4" font-family="Helvetica,sans-Serif" font-size="11.00" fill="#000000">varchar[31]</text>
<polygon fill="#ffffff" stroke="transparent" points="517.5,-311.7 517.5,-333.7 666.5,-333.7 666.5,-311.7 517.5,-311.7"/>
<polygon fill="none" stroke="#000000" points="517.5,-311.7 517.5,-333.7 666.5,-333.7 666.5,-311.7 517.5,-311.7"/>
<image xlink:href="../../images/foreignKeys.png" width="11px" height="12px" preserveAspectRatio="xMinYMin meet" x="522.5" y="-328.7"/>
<text text-anchor="start" x="537.5" y="-318.8" font-family="Helvetica,sans-Serif" font-size="11.00" fill="#000000">pid</text>
<polygon fill="none" stroke="#000000" points="666.5,-311.7 666.5,-333.7 732.5,-333.7 732.5,-311.7 666.5,-311.7"/>
<text text-anchor="start" x="669.5" y="-319.4" font-family="Helvetica,sans-Serif" font-size="11.00" fill="#000000">bigint[19]</text>
<polygon fill="#ffffff" stroke="transparent" points="517.5,-289.7 517.5,-311.7 666.5,-311.7 666.5,-289.7 517.5,-289.7"/>
<polygon fill="none" stroke="#000000" points="517.5,-289.7 517.5,-311.7 666.5,-311.7 666.5,-289.7 517.5,-289.7"/>
<image xlink:href="../../images/foreignKeys.png" width="11px" height="12px" preserveAspectRatio="xMinYMin meet" x="522.5" y="-306.7"/>
<text text-anchor="start" x="537.5" y="-296.8" font-family="Helvetica,sans-Serif" font-size="11.00" fill="#000000">category</text>
<polygon fill="none" stroke="#000000" points="666.5,-289.7 666.5,-311.7 732.5,-311.7 732.5,-289.7 666.5,-289.7"/>
<text text-anchor="start" x="669.5" y="-297.4" font-family="Helvetica,sans-Serif" font-size="11.00" fill="#000000">varchar[31]</text>
<polygon fill="#ffffff" stroke="transparent" points="517.5,-267.7 517.5,-289.7 666.5,-289.7 666.5,-267.7 517.5,-267.7"/>
<polygon fill="none" stroke="#000000" points="517.5,-267.7 517.5,-289.7 666.5,-289.7 666.5,-267.7 517.5,-267.7"/>
<image xlink:href="../../images/foreignKeys.png" width="11px" height="12px" preserveAspectRatio="xMinYMin meet" x="522.5" y="-284.7"/>
<text text-anchor="start" x="537.5" y="-274.8" font-family="Helvetica,sans-Serif" font-size="11.00" fill="#000000">item</text>
<polygon fill="none" stroke="#000000" points="666.5,-267.7 666.5,-289.7 732.5,-289.7 732.5,-267.7 666.5,-267.7"/>
<text text-anchor="start" x="669.5" y="-275.4" font-family="Helvetica,sans-Serif" font-size="11.00" fill="#000000">varchar[31]</text>
<polygon fill="none" stroke="#000000" points="517.5,-245.7 517.5,-267.7 666.5,-267.7 666.5,-245.7 517.5,-245.7"/>
<text text-anchor="start" x="537.5" y="-252.8" font-family="Helvetica,sans-Serif" font-size="11.00" fill="#000000">date_created</text>
<polygon fill="none" stroke="#000000" points="666.5,-245.7 666.5,-267.7 732.5,-267.7 732.5,-245.7 666.5,-245.7"/>
<text text-anchor="start" x="669.2401" y="-253.4" font-family="Helvetica,sans-Serif" font-size="11.00" fill="#000000">datetime[19]</text>
<polygon fill="none" stroke="#000000" points="517.5,-223.7 517.5,-245.7 666.5,-245.7 666.5,-223.7 517.5,-223.7"/>
<text text-anchor="start" x="537.5" y="-230.8" font-family="Helvetica,sans-Serif" font-size="11.00" fill="#000000">date_sent</text>
<polygon fill="none" stroke="#000000" points="666.5,-223.7 666.5,-245.7 732.5,-245.7 732.5,-223.7 666.5,-223.7"/>
<text text-anchor="start" x="669.2401" y="-231.4" font-family="Helvetica,sans-Serif" font-size="11.00" fill="#000000">datetime[19]</text>
<polygon fill="none" stroke="#000000" points="517.5,-201.7 517.5,-223.7 666.5,-223.7 666.5,-201.7 517.5,-201.7"/>
<text text-anchor="start" x="537.5" y="-208.8" font-family="Helvetica,sans-Serif" font-size="11.00" fill="#000000">voice_status</text>
<polygon fill="none" stroke="#000000" points="666.5,-201.7 666.5,-223.7 732.5,-223.7 732.5,-201.7 666.5,-201.7"/>
<text text-anchor="start" x="669.5" y="-209.4" font-family="Helvetica,sans-Serif" font-size="11.00" fill="#000000">boolean[3]</text>
<polygon fill="none" stroke="#000000" points="517.5,-179.7 517.5,-201.7 666.5,-201.7 666.5,-179.7 517.5,-179.7"/>
<text text-anchor="start" x="537.5" y="-186.8" font-family="Helvetica,sans-Serif" font-size="11.00" fill="#000000">sms_status</text>
<polygon fill="none" stroke="#000000" points="666.5,-179.7 666.5,-201.7 732.5,-201.7 732.5,-179.7 666.5,-179.7"/>
<text text-anchor="start" x="669.5" y="-187.4" font-family="Helvetica,sans-Serif" font-size="11.00" fill="#000000">boolean[3]</text>
<polygon fill="none" stroke="#000000" points="517.5,-157.7 517.5,-179.7 666.5,-179.7 666.5,-157.7 517.5,-157.7"/>
<text text-anchor="start" x="537.5" y="-164.8" font-family="Helvetica,sans-Serif" font-size="11.00" fill="#000000">email_status</text>
<polygon fill="none" stroke="#000000" points="666.5,-157.7 666.5,-179.7 732.5,-179.7 732.5,-157.7 666.5,-157.7"/>
<text text-anchor="start" x="669.5" y="-165.4" font-family="Helvetica,sans-Serif" font-size="11.00" fill="#000000">boolean[3]</text>
<polygon fill="none" stroke="#000000" points="517.5,-135.7 517.5,-157.7 666.5,-157.7 666.5,-135.7 517.5,-135.7"/>
<text text-anchor="start" x="537.5" y="-142.8" font-family="Helvetica,sans-Serif" font-size="11.00" fill="#000000">mail_status</text>
<polygon fill="none" stroke="#000000" points="666.5,-135.7 666.5,-157.7 732.5,-157.7 732.5,-135.7 666.5,-135.7"/>
<text text-anchor="start" x="669.5" y="-143.4" font-family="Helvetica,sans-Serif" font-size="11.00" fill="#000000">boolean[3]</text>
<polygon fill="#ffffff" stroke="transparent" points="517.5,-116.7 517.5,-135.7 596.5,-135.7 596.5,-116.7 517.5,-116.7"/>
<polygon fill="none" stroke="#000000" points="517.5,-116.7 517.5,-135.7 596.5,-135.7 596.5,-116.7 517.5,-116.7"/>
<text text-anchor="start" x="520.5" y="-122.8" font-family="Helvetica,sans-Serif" font-size="11.00" fill="#000000">&lt; 5</text>
<polygon fill="#ffffff" stroke="transparent" points="596.5,-116.7 596.5,-135.7 666.5,-135.7 666.5,-116.7 596.5,-116.7"/>
<polygon fill="none" stroke="#000000" points="596.5,-116.7 596.5,-135.7 666.5,-135.7 666.5,-116.7 596.5,-116.7"/>
<text text-anchor="start" x="657.3862" y="-122.8" font-family="Helvetica,sans-Serif" font-size="11.00" fill="#000000"> &#160;</text>
<polygon fill="#ffffff" stroke="transparent" points="666.5,-116.7 666.5,-135.7 732.5,-135.7 732.5,-116.7 666.5,-116.7"/>
<polygon fill="none" stroke="#000000" points="666.5,-116.7 666.5,-135.7 732.5,-135.7 732.5,-116.7 666.5,-116.7"/>
<text text-anchor="start" x="713.9053" y="-122.8" font-family="Helvetica,sans-Serif" font-size="11.00" fill="#000000">0 &gt;</text>
<polygon fill="none" stroke="#000000" stroke-width="2" points="516,-115.7 516,-467.7 733,-467.7 733,-115.7 516,-115.7"/>
</a>
</g>
</g>
<!-- patient_reminders&#45;&gt;patient_data -->
<g id="edge7" class="edge">
<title>patient_reminders:w&#45;&gt;patient_data:e</title>
<path fill="none" stroke="#000000" d="M502.776,-322.7C490.7815,-322.7 483.3229,-322.7 466.5,-322.7"/>
<polygon fill="#000000" stroke="#000000" points="509.5,-322.7001 517.5,-326.3 513.5,-322.7 517.5,-322.7 517.5,-322.7 517.5,-322.7 513.5,-322.7 517.5,-319.1 509.5,-322.7001 509.5,-322.7001"/>
<ellipse fill="none" stroke="#000000" cx="506.3" cy="-322.7001" rx="3.2" ry="3.2"/>
</g>
<!-- patient_reminders&#45;&gt;list_options -->
<g id="edge5" class="edge">
<title>patient_reminders:w&#45;&gt;list_options:e</title>
<path fill="none" stroke="#000000" d="M503.1032,-346.0713C431.4096,-361.6367 547.0916,-505.5928 474,-565.7 448.8549,-586.3782 205.3942,-587.259 181,-565.7 125.463,-516.6177 214.1177,-234.7 140,-234.7"/>
<polygon fill="#000000" stroke="#000000" points="509.536,-345.4586 517.8414,-348.2838 513.518,-345.0793 517.5,-344.7 517.5,-344.7 517.5,-344.7 513.518,-345.0793 517.1586,-341.1162 509.536,-345.4586 509.536,-345.4586"/>
<ellipse fill="none" stroke="#000000" cx="506.3505" cy="-345.762" rx="3.2" ry="3.2"/>
</g>
<!-- patient_reminders&#45;&gt;list_options -->
<g id="edge8" class="edge">
<title>patient_reminders:w&#45;&gt;list_options:e</title>
<path fill="none" stroke="#000000" d="M502.9767,-368.1372C433.661,-383.8465 545.481,-524.1793 474,-582.7 423.6193,-623.9461 229.6595,-625.9632 181,-582.7 122.8067,-530.9603 217.8682,-234.7 140,-234.7"/>
<polygon fill="#000000" stroke="#000000" points="509.5389,-367.4878 517.8545,-370.2825 513.5194,-367.0939 517.5,-366.7 517.5,-366.7 517.5,-366.7 513.5194,-367.0939 517.1455,-363.1175 509.5389,-367.4878 509.5389,-367.4878"/>
<ellipse fill="none" stroke="#000000" cx="506.3544" cy="-367.803" rx="3.2" ry="3.2"/>
</g>
<!-- rule_action_item -->
<g id="node4" class="node">
<title>rule_action_item</title>
<g id="a_node4"><a xlink:href="../../tables/rule_action_item.html" xlink:title="rule_action_item" target="_top">
<polygon fill="#ffffff" stroke="transparent" points="252.5,-38.2 252.5,-143.2 402.5,-143.2 402.5,-38.2 252.5,-38.2"/>
<polygon fill="#f5f5f5" stroke="transparent" points="252.5,-119.7 252.5,-142.7 402.5,-142.7 402.5,-119.7 252.5,-119.7"/>
<polygon fill="none" stroke="#000000" points="252.5,-119.7 252.5,-142.7 402.5,-142.7 402.5,-119.7 252.5,-119.7"/>
<text text-anchor="start" x="257.5" y="-128.3" font-family="Helvetica,sans-Serif" font-weight="bold" font-size="11.00" fill="#000000">rule_action_item</text>
<text text-anchor="start" x="368.0219" y="-127.8" font-family="Helvetica,sans-Serif" font-size="11.00" fill="#000000">[table]</text>
<polygon fill="none" stroke="#000000" points="252.5,-97.7 252.5,-119.7 402.5,-119.7 402.5,-97.7 252.5,-97.7"/>
<image xlink:href="../../images/primaryKeys.png" width="11px" height="12px" preserveAspectRatio="xMinYMin meet" x="257.5" y="-114.7"/>
<text text-anchor="start" x="273.5" y="-104.8" font-family="Helvetica,sans-Serif" font-size="11.00" fill="#000000">category</text>
<polygon fill="none" stroke="#000000" points="252.5,-75.7 252.5,-97.7 402.5,-97.7 402.5,-75.7 252.5,-75.7"/>
<image xlink:href="../../images/primaryKeys.png" width="11px" height="12px" preserveAspectRatio="xMinYMin meet" x="257.5" y="-92.7"/>
<text text-anchor="start" x="273.5" y="-82.8" font-family="Helvetica,sans-Serif" font-size="11.00" fill="#000000">item</text>
<polygon fill="none" stroke="#000000" points="252.5,-56.7 252.5,-75.7 402.5,-75.7 402.5,-56.7 252.5,-56.7"/>
<text text-anchor="start" x="255.5" y="-62.8" font-family="Helvetica,sans-Serif" font-size="11.00" fill="#000000">...</text>
<polygon fill="#ffffff" stroke="transparent" points="252.5,-37.7 252.5,-56.7 321.5,-56.7 321.5,-37.7 252.5,-37.7"/>
<polygon fill="none" stroke="#000000" points="252.5,-37.7 252.5,-56.7 321.5,-56.7 321.5,-37.7 252.5,-37.7"/>
<text text-anchor="start" x="255.5" y="-43.8" font-family="Helvetica,sans-Serif" font-size="11.00" fill="#000000">&lt; 2</text>
<polygon fill="#ffffff" stroke="transparent" points="321.5,-37.7 321.5,-56.7 357.5,-56.7 357.5,-37.7 321.5,-37.7"/>
<polygon fill="none" stroke="#000000" points="321.5,-37.7 321.5,-56.7 357.5,-56.7 357.5,-37.7 321.5,-37.7"/>
<text text-anchor="start" x="348.3862" y="-43.8" font-family="Helvetica,sans-Serif" font-size="11.00" fill="#000000"> &#160;</text>
<polygon fill="#ffffff" stroke="transparent" points="357.5,-37.7 357.5,-56.7 402.5,-56.7 402.5,-37.7 357.5,-37.7"/>
<polygon fill="none" stroke="#000000" points="357.5,-37.7 357.5,-56.7 402.5,-56.7 402.5,-37.7 357.5,-37.7"/>
<text text-anchor="start" x="383.9053" y="-43.8" font-family="Helvetica,sans-Serif" font-size="11.00" fill="#000000">4 &gt;</text>
</a>
</g>
</g>
<!-- patient_reminders&#45;&gt;rule_action_item -->
<g id="edge4" class="edge">
<title>patient_reminders:w&#45;&gt;rule_action_item:e</title>
<path fill="none" stroke="#000000" d="M503.0244,-298.8162C459.6609,-285.4012 511.6904,-203.4459 474,-153.7 451.325,-123.7722 440.0477,-108.7 402.5,-108.7"/>
<polygon fill="#000000" stroke="#000000" points="509.5669,-299.6676 517.0354,-304.2699 513.5334,-300.1838 517.5,-300.7 517.5,-300.7 517.5,-300.7 513.5334,-300.1838 517.9646,-297.1301 509.5669,-299.6676 509.5669,-299.6676"/>
<ellipse fill="none" stroke="#000000" cx="506.3936" cy="-299.2546" rx="3.2" ry="3.2"/>
</g>
<!-- patient_reminders&#45;&gt;rule_action_item -->
<g id="edge6" class="edge">
<title>patient_reminders:w&#45;&gt;rule_action_item:e</title>
<path fill="none" stroke="#000000" d="M503.1322,-276.6298C467.1733,-264.1701 502.9278,-198.2034 474,-153.7 450.2658,-117.1866 446.0493,-86.7 402.5,-86.7"/>
<polygon fill="#000000" stroke="#000000" points="509.5818,-277.559 516.9866,-282.2632 513.5409,-278.1295 517.5,-278.7 517.5,-278.7 517.5,-278.7 513.5409,-278.1295 518.0134,-275.1368 509.5818,-277.559 509.5818,-277.559"/>
<ellipse fill="none" stroke="#000000" cx="506.4145" cy="-277.1027" rx="3.2" ry="3.2"/>
</g>
<!-- rule_action_item&#45;&gt;list_options -->
<g id="edge9" class="edge">
<title>rule_action_item:w&#45;&gt;list_options:e</title>
<path fill="none" stroke="#000000" d="M237.8921,-109.7602C212.0998,-113.9038 202.6306,-129.9542 181,-153.7 153.8284,-183.5287 180.3491,-234.7 140,-234.7"/>
<polygon fill="#000000" stroke="#000000" points="244.521,-109.2792 252.7606,-112.2906 248.5105,-108.9896 252.5,-108.7 252.5,-108.7 252.5,-108.7 248.5105,-108.9896 252.2394,-105.1094 244.521,-109.2792 244.521,-109.2792"/>
<ellipse fill="none" stroke="#000000" cx="241.3294" cy="-109.5108" rx="3.2" ry="3.2"/>
</g>
<!-- rule_action_item&#45;&gt;list_options -->
<g id="edge10" class="edge">
<title>rule_action_item:w&#45;&gt;list_options:e</title>
<path fill="none" stroke="#000000" d="M237.9956,-88.1496C208.1135,-94.7804 203.855,-123.2092 181,-153.7 156.7994,-185.9859 180.3491,-234.7 140,-234.7"/>
<polygon fill="#000000" stroke="#000000" points="244.5397,-87.4957 252.858,-90.2822 248.5198,-87.0978 252.5,-86.7 252.5,-86.7 252.5,-86.7 248.5198,-87.0978 252.142,-83.1178 244.5397,-87.4957 244.5397,-87.4957"/>
<ellipse fill="none" stroke="#000000" cx="241.3555" cy="-87.8139" rx="3.2" ry="3.2"/>
</g>
</g>
</svg>
