<?xml version="1.0" encoding="UTF-8" standalone="no"?>
<!DOCTYPE svg PUBLIC "-//W3C//DTD SVG 1.1//EN"
 "http://www.w3.org/Graphics/SVG/1.1/DTD/svg11.dtd">
<!-- Generated by graphviz version 2.40.1 (20161225.0304)
 -->
<!-- Title: oneDegreeRelationshipsDiagram Pages: 1 -->
<svg width="820pt" height="496pt"
 viewBox="0.00 0.00 820.00 496.20" xmlns="http://www.w3.org/2000/svg" xmlns:xlink="http://www.w3.org/1999/xlink">
<g id="graph0" class="graph" transform="scale(1 1) rotate(0) translate(4 492.2)">
<title>oneDegreeRelationshipsDiagram</title>
<polygon fill="#ffffff" stroke="transparent" points="-4,4 -4,-492.2 816,-492.2 816,4 -4,4"/>
<text text-anchor="middle" x="72.4936" y="-7.3" font-family="Helvetica,sans-Serif" font-size="11.00" fill="#000000">Generated by SchemaSpy</text>
<!-- patient_data -->
<g id="node1" class="node">
<title>patient_data</title>
<g id="a_node1"><a xlink:href="../../tables/patient_data.html" xlink:title="patient_data" target="_top">
<polygon fill="#ffffff" stroke="transparent" points="224,-93.2 224,-484.2 501,-484.2 501,-93.2 224,-93.2"/>
<polygon fill="#f5f5f5" stroke="transparent" points="224.5,-460.7 224.5,-483.7 501.5,-483.7 501.5,-460.7 224.5,-460.7"/>
<polygon fill="none" stroke="#000000" points="224.5,-460.7 224.5,-483.7 501.5,-483.7 501.5,-460.7 224.5,-460.7"/>
<text text-anchor="start" x="229.5" y="-469.3" font-family="Helvetica,sans-Serif" font-weight="bold" font-size="11.00" fill="#000000">patient_data</text>
<text text-anchor="start" x="466.5437" y="-468.8" font-family="Helvetica,sans-Serif" font-size="11.00" fill="#000000">[table]</text>
<polygon fill="none" stroke="#000000" points="224.5,-438.7 224.5,-460.7 501.5,-460.7 501.5,-438.7 224.5,-438.7"/>
<image xlink:href="../../images/primaryKeys.png" width="11px" height="12px" preserveAspectRatio="xMinYMin meet" x="229.5" y="-455.7"/>
<text text-anchor="start" x="244.5" y="-445.8" font-family="Helvetica,sans-Serif" font-size="11.00" fill="#000000">id</text>
<polygon fill="#ffffff" stroke="transparent" points="224.5,-416.7 224.5,-438.7 501.5,-438.7 501.5,-416.7 224.5,-416.7"/>
<polygon fill="none" stroke="#000000" points="224.5,-416.7 224.5,-438.7 501.5,-438.7 501.5,-416.7 224.5,-416.7"/>
<text text-anchor="start" x="244.5" y="-423.8" font-family="Helvetica,sans-Serif" font-size="11.00" fill="#000000">uuid</text>
<polygon fill="#ffffff" stroke="transparent" points="224.5,-394.7 224.5,-416.7 501.5,-416.7 501.5,-394.7 224.5,-394.7"/>
<polygon fill="none" stroke="#000000" points="224.5,-394.7 224.5,-416.7 501.5,-416.7 501.5,-394.7 224.5,-394.7"/>
<text text-anchor="start" x="244.5" y="-401.8" font-family="Helvetica,sans-Serif" font-size="11.00" fill="#000000">fname</text>
<polygon fill="#ffffff" stroke="transparent" points="224.5,-372.7 224.5,-394.7 501.5,-394.7 501.5,-372.7 224.5,-372.7"/>
<polygon fill="none" stroke="#000000" points="224.5,-372.7 224.5,-394.7 501.5,-394.7 501.5,-372.7 224.5,-372.7"/>
<text text-anchor="start" x="244.5" y="-379.8" font-family="Helvetica,sans-Serif" font-size="11.00" fill="#000000">lname</text>
<polygon fill="#ffffff" stroke="transparent" points="224.5,-350.7 224.5,-372.7 501.5,-372.7 501.5,-350.7 224.5,-350.7"/>
<polygon fill="none" stroke="#000000" points="224.5,-350.7 224.5,-372.7 501.5,-372.7 501.5,-350.7 224.5,-350.7"/>
<text text-anchor="start" x="244.5" y="-357.8" font-family="Helvetica,sans-Serif" font-size="11.00" fill="#000000">DOB</text>
<polygon fill="none" stroke="#000000" points="224.5,-328.7 224.5,-350.7 501.5,-350.7 501.5,-328.7 224.5,-328.7"/>
<image xlink:href="../../images/foreignKeys.png" width="11px" height="12px" preserveAspectRatio="xMinYMin meet" x="229.5" y="-345.7"/>
<text text-anchor="start" x="244.5" y="-335.8" font-family="Helvetica,sans-Serif" font-size="11.00" fill="#000000">pharmacy_id</text>
<polygon fill="none" stroke="#000000" points="224.5,-306.7 224.5,-328.7 501.5,-328.7 501.5,-306.7 224.5,-306.7"/>
<image xlink:href="../../images/foreignKeys.png" width="11px" height="12px" preserveAspectRatio="xMinYMin meet" x="229.5" y="-323.7"/>
<text text-anchor="start" x="244.5" y="-313.8" font-family="Helvetica,sans-Serif" font-size="11.00" fill="#000000">providerID</text>
<polygon fill="none" stroke="#000000" points="224.5,-284.7 224.5,-306.7 501.5,-306.7 501.5,-284.7 224.5,-284.7"/>
<image xlink:href="../../images/foreignKeys.png" width="11px" height="12px" preserveAspectRatio="xMinYMin meet" x="229.5" y="-301.7"/>
<text text-anchor="start" x="244.5" y="-291.8" font-family="Helvetica,sans-Serif" font-size="11.00" fill="#000000">ref_providerID</text>
<polygon fill="none" stroke="#000000" points="224.5,-262.7 224.5,-284.7 501.5,-284.7 501.5,-262.7 224.5,-262.7"/>
<image xlink:href="../../images/foreignKeys.png" width="11px" height="12px" preserveAspectRatio="xMinYMin meet" x="229.5" y="-279.7"/>
<text text-anchor="start" x="244.5" y="-269.8" font-family="Helvetica,sans-Serif" font-size="11.00" fill="#000000">interpreter_needed</text>
<polygon fill="none" stroke="#000000" points="224.5,-240.7 224.5,-262.7 501.5,-262.7 501.5,-240.7 224.5,-240.7"/>
<image xlink:href="../../images/primaryKeys.png" width="11px" height="12px" preserveAspectRatio="xMinYMin meet" x="229.5" y="-257.7"/>
<text text-anchor="start" x="244.5" y="-247.8" font-family="Helvetica,sans-Serif" font-size="11.00" fill="#000000">pid</text>
<polygon fill="none" stroke="#000000" points="224.5,-218.7 224.5,-240.7 501.5,-240.7 501.5,-218.7 224.5,-218.7"/>
<image xlink:href="../../images/foreignKeys.png" width="11px" height="12px" preserveAspectRatio="xMinYMin meet" x="229.5" y="-235.7"/>
<text text-anchor="start" x="244.5" y="-225.8" font-family="Helvetica,sans-Serif" font-size="11.00" fill="#000000">advance_directive_user_authenticator</text>
<polygon fill="none" stroke="#000000" points="224.5,-196.7 224.5,-218.7 501.5,-218.7 501.5,-196.7 224.5,-196.7"/>
<image xlink:href="../../images/foreignKeys.png" width="11px" height="12px" preserveAspectRatio="xMinYMin meet" x="229.5" y="-213.7"/>
<text text-anchor="start" x="244.5" y="-203.8" font-family="Helvetica,sans-Serif" font-size="11.00" fill="#000000">created_by</text>
<polygon fill="none" stroke="#000000" points="224.5,-174.7 224.5,-196.7 501.5,-196.7 501.5,-174.7 224.5,-174.7"/>
<image xlink:href="../../images/foreignKeys.png" width="11px" height="12px" preserveAspectRatio="xMinYMin meet" x="229.5" y="-191.7"/>
<text text-anchor="start" x="244.5" y="-181.8" font-family="Helvetica,sans-Serif" font-size="11.00" fill="#000000">updated_by</text>
<polygon fill="none" stroke="#000000" points="224.5,-152.7 224.5,-174.7 501.5,-174.7 501.5,-152.7 224.5,-152.7"/>
<image xlink:href="../../images/foreignKeys.png" width="11px" height="12px" preserveAspectRatio="xMinYMin meet" x="229.5" y="-169.7"/>
<text text-anchor="start" x="244.5" y="-159.8" font-family="Helvetica,sans-Serif" font-size="11.00" fill="#000000">tribal_affiliations</text>
<polygon fill="none" stroke="#000000" points="224.5,-130.7 224.5,-152.7 501.5,-152.7 501.5,-130.7 224.5,-130.7"/>
<image xlink:href="../../images/foreignKeys.png" width="11px" height="12px" preserveAspectRatio="xMinYMin meet" x="229.5" y="-147.7"/>
<text text-anchor="start" x="244.5" y="-137.8" font-family="Helvetica,sans-Serif" font-size="11.00" fill="#000000">sex_identified</text>
<polygon fill="none" stroke="#000000" points="224.5,-111.7 224.5,-130.7 501.5,-130.7 501.5,-111.7 224.5,-111.7"/>
<text text-anchor="start" x="227.5" y="-117.8" font-family="Helvetica,sans-Serif" font-size="11.00" fill="#000000">...</text>
<polygon fill="#ffffff" stroke="transparent" points="224.5,-92.7 224.5,-111.7 353.5,-111.7 353.5,-92.7 224.5,-92.7"/>
<polygon fill="none" stroke="#000000" points="224.5,-92.7 224.5,-111.7 353.5,-111.7 353.5,-92.7 224.5,-92.7"/>
<text text-anchor="start" x="227.5" y="-98.8" font-family="Helvetica,sans-Serif" font-size="11.00" fill="#000000">&lt; 9</text>
<polygon fill="#ffffff" stroke="transparent" points="353.5,-92.7 353.5,-111.7 419.5,-111.7 419.5,-92.7 353.5,-92.7"/>
<polygon fill="none" stroke="#000000" points="353.5,-92.7 353.5,-111.7 419.5,-111.7 419.5,-92.7 353.5,-92.7"/>
<text text-anchor="start" x="410.3862" y="-98.8" font-family="Helvetica,sans-Serif" font-size="11.00" fill="#000000"> &#160;</text>
<polygon fill="#ffffff" stroke="transparent" points="419.5,-92.7 419.5,-111.7 501.5,-111.7 501.5,-92.7 419.5,-92.7"/>
<polygon fill="none" stroke="#000000" points="419.5,-92.7 419.5,-111.7 501.5,-111.7 501.5,-92.7 419.5,-92.7"/>
<text text-anchor="start" x="476.7904" y="-98.8" font-family="Helvetica,sans-Serif" font-size="11.00" fill="#000000">95 &gt;</text>
</a>
</g>
</g>
<!-- users -->
<g id="node2" class="node">
<title>users</title>
<g id="a_node2"><a xlink:href="../../tables/users.html" xlink:title="users" target="_top">
<polygon fill="#ffffff" stroke="transparent" points="8,-38.2 8,-253.2 175,-253.2 175,-38.2 8,-38.2"/>
<polygon fill="#f5f5f5" stroke="transparent" points="8.5,-229.7 8.5,-252.7 175.5,-252.7 175.5,-229.7 8.5,-229.7"/>
<polygon fill="none" stroke="#000000" points="8.5,-229.7 8.5,-252.7 175.5,-252.7 175.5,-229.7 8.5,-229.7"/>
<text text-anchor="start" x="13.5" y="-238.3" font-family="Helvetica,sans-Serif" font-weight="bold" font-size="11.00" fill="#000000">users</text>
<text text-anchor="start" x="140.5437" y="-237.8" font-family="Helvetica,sans-Serif" font-size="11.00" fill="#000000">[table]</text>
<polygon fill="none" stroke="#000000" points="8.5,-207.7 8.5,-229.7 175.5,-229.7 175.5,-207.7 8.5,-207.7"/>
<image xlink:href="../../images/primaryKeys.png" width="11px" height="12px" preserveAspectRatio="xMinYMin meet" x="13.5" y="-224.7"/>
<text text-anchor="start" x="28.5" y="-214.8" font-family="Helvetica,sans-Serif" font-size="11.00" fill="#000000">id</text>
<polygon fill="#ffffff" stroke="transparent" points="8.5,-185.7 8.5,-207.7 175.5,-207.7 175.5,-185.7 8.5,-185.7"/>
<polygon fill="none" stroke="#000000" points="8.5,-185.7 8.5,-207.7 175.5,-207.7 175.5,-185.7 8.5,-185.7"/>
<text text-anchor="start" x="28.5" y="-192.8" font-family="Helvetica,sans-Serif" font-size="11.00" fill="#000000">uuid</text>
<polygon fill="none" stroke="#000000" points="8.5,-163.7 8.5,-185.7 175.5,-185.7 175.5,-163.7 8.5,-163.7"/>
<image xlink:href="../../images/primaryKeys.png" width="11px" height="12px" preserveAspectRatio="xMinYMin meet" x="13.5" y="-180.7"/>
<text text-anchor="start" x="28.5" y="-170.8" font-family="Helvetica,sans-Serif" font-size="11.00" fill="#000000">username</text>
<polygon fill="none" stroke="#000000" points="8.5,-141.7 8.5,-163.7 175.5,-163.7 175.5,-141.7 8.5,-141.7"/>
<image xlink:href="../../images/foreignKeys.png" width="11px" height="12px" preserveAspectRatio="xMinYMin meet" x="13.5" y="-158.7"/>
<text text-anchor="start" x="28.5" y="-148.8" font-family="Helvetica,sans-Serif" font-size="11.00" fill="#000000">facility_id</text>
<polygon fill="#ffffff" stroke="transparent" points="8.5,-119.7 8.5,-141.7 175.5,-141.7 175.5,-119.7 8.5,-119.7"/>
<polygon fill="none" stroke="#000000" points="8.5,-119.7 8.5,-141.7 175.5,-141.7 175.5,-119.7 8.5,-119.7"/>
<text text-anchor="start" x="28.5" y="-126.8" font-family="Helvetica,sans-Serif" font-size="11.00" fill="#000000">google_signin_email</text>
<polygon fill="#ffffff" stroke="transparent" points="8.5,-97.7 8.5,-119.7 175.5,-119.7 175.5,-97.7 8.5,-97.7"/>
<polygon fill="none" stroke="#000000" points="8.5,-97.7 8.5,-119.7 175.5,-119.7 175.5,-97.7 8.5,-97.7"/>
<text text-anchor="start" x="28.5" y="-104.8" font-family="Helvetica,sans-Serif" font-size="11.00" fill="#000000">abook_type</text>
<polygon fill="none" stroke="#000000" points="8.5,-75.7 8.5,-97.7 175.5,-97.7 175.5,-75.7 8.5,-75.7"/>
<image xlink:href="../../images/foreignKeys.png" width="11px" height="12px" preserveAspectRatio="xMinYMin meet" x="13.5" y="-92.7"/>
<text text-anchor="start" x="28.5" y="-82.8" font-family="Helvetica,sans-Serif" font-size="11.00" fill="#000000">billing_facility_id</text>
<polygon fill="none" stroke="#000000" points="8.5,-56.7 8.5,-75.7 175.5,-75.7 175.5,-56.7 8.5,-56.7"/>
<text text-anchor="start" x="11.5" y="-62.8" font-family="Helvetica,sans-Serif" font-size="11.00" fill="#000000">...</text>
<polygon fill="#ffffff" stroke="transparent" points="8.5,-37.7 8.5,-56.7 82.5,-56.7 82.5,-37.7 8.5,-37.7"/>
<polygon fill="none" stroke="#000000" points="8.5,-37.7 8.5,-56.7 82.5,-56.7 82.5,-37.7 8.5,-37.7"/>
<text text-anchor="start" x="11.5" y="-43.8" font-family="Helvetica,sans-Serif" font-size="11.00" fill="#000000">&lt; 2</text>
<polygon fill="#ffffff" stroke="transparent" points="82.5,-37.7 82.5,-56.7 121.5,-56.7 121.5,-37.7 82.5,-37.7"/>
<polygon fill="none" stroke="#000000" points="82.5,-37.7 82.5,-56.7 121.5,-56.7 121.5,-37.7 82.5,-37.7"/>
<text text-anchor="start" x="112.3862" y="-43.8" font-family="Helvetica,sans-Serif" font-size="11.00" fill="#000000"> &#160;</text>
<polygon fill="#ffffff" stroke="transparent" points="121.5,-37.7 121.5,-56.7 175.5,-56.7 175.5,-37.7 121.5,-37.7"/>
<polygon fill="none" stroke="#000000" points="121.5,-37.7 121.5,-56.7 175.5,-56.7 175.5,-37.7 121.5,-37.7"/>
<text text-anchor="start" x="150.7904" y="-43.8" font-family="Helvetica,sans-Serif" font-size="11.00" fill="#000000">90 &gt;</text>
</a>
</g>
</g>
<!-- patient_data&#45;&gt;users -->
<g id="edge1" class="edge">
<title>patient_data:w&#45;&gt;users:e</title>
<path fill="none" stroke="#000000" d="M210.2027,-227.8836C198.7382,-224.7593 192.0655,-218.7 175.5,-218.7"/>
<polygon fill="#000000" stroke="#000000" points="216.5638,-228.6917 224.0463,-233.2713 220.5319,-229.1958 224.5,-229.7 224.5,-229.7 224.5,-229.7 220.5319,-229.1958 224.9537,-226.1287 216.5638,-228.6917 216.5638,-228.6917"/>
<ellipse fill="none" stroke="#000000" cx="213.3893" cy="-228.2884" rx="3.2" ry="3.2"/>
</g>
<!-- patient_data&#45;&gt;users -->
<g id="edge2" class="edge">
<title>patient_data:w&#45;&gt;users:e</title>
<path fill="none" stroke="#000000" d="M210.2027,-209.5164C198.7382,-212.6407 192.0655,-218.7 175.5,-218.7"/>
<polygon fill="#000000" stroke="#000000" points="216.5638,-208.7083 224.9537,-211.2713 220.5319,-208.2042 224.5,-207.7 224.5,-207.7 224.5,-207.7 220.5319,-208.2042 224.0463,-204.1287 216.5638,-208.7083 216.5638,-208.7083"/>
<ellipse fill="none" stroke="#000000" cx="213.3893" cy="-209.1116" rx="3.2" ry="3.2"/>
</g>
<!-- patient_data&#45;&gt;users -->
<g id="edge3" class="edge">
<title>patient_data:w&#45;&gt;users:e</title>
<path fill="none" stroke="#000000" d="M210.6394,-313.6965C185.8773,-295.1751 218.6495,-218.7 175.5,-218.7"/>
<polygon fill="#000000" stroke="#000000" points="216.8142,-315.48 223.501,-321.1586 220.6571,-316.59 224.5,-317.7 224.5,-317.7 224.5,-317.7 220.6571,-316.59 225.499,-314.2414 216.8142,-315.48 216.8142,-315.48"/>
<ellipse fill="none" stroke="#000000" cx="213.7399" cy="-314.592" rx="3.2" ry="3.2"/>
</g>
<!-- patient_data&#45;&gt;users -->
<g id="edge4" class="edge">
<title>patient_data:w&#45;&gt;users:e</title>
<path fill="none" stroke="#000000" d="M210.7659,-291.1139C191.8724,-274.5372 210.0427,-218.7 175.5,-218.7"/>
<polygon fill="#000000" stroke="#000000" points="216.9119,-293.1661 223.3598,-299.1147 220.7059,-294.4331 224.5,-295.7 224.5,-295.7 224.5,-295.7 220.7059,-294.4331 225.6402,-292.2853 216.9119,-293.1661 216.9119,-293.1661"/>
<ellipse fill="none" stroke="#000000" cx="213.8766" cy="-292.1526" rx="3.2" ry="3.2"/>
</g>
<!-- patient_data&#45;&gt;users -->
<g id="edge5" class="edge">
<title>patient_data:w&#45;&gt;users:e</title>
<path fill="none" stroke="#000000" d="M210.5457,-190.0142C198.3073,-198.9592 195.8075,-218.7 175.5,-218.7"/>
<polygon fill="#000000" stroke="#000000" points="216.8569,-188.063 225.5634,-189.1394 220.6785,-186.8815 224.5,-185.7 224.5,-185.7 224.5,-185.7 220.6785,-186.8815 223.4366,-182.2606 216.8569,-188.063 216.8569,-188.063"/>
<ellipse fill="none" stroke="#000000" cx="213.7997" cy="-189.0082" rx="3.2" ry="3.2"/>
</g>
<!-- patient_history -->
<g id="node3" class="node">
<title>patient_history</title>
<g id="a_node3"><a xlink:href="../../tables/patient_history.html" xlink:title="patient_history" target="_top">
<polygon fill="#ffffff" stroke="transparent" points="550,-39.7 550,-393.7 804,-393.7 804,-39.7 550,-39.7"/>
<polygon fill="#f5f5f5" stroke="transparent" points="552,-368.7 552,-391.7 802,-391.7 802,-368.7 552,-368.7"/>
<polygon fill="none" stroke="#000000" points="552,-368.7 552,-391.7 802,-391.7 802,-368.7 552,-368.7"/>
<text text-anchor="start" x="557" y="-377.3" font-family="Helvetica,sans-Serif" font-weight="bold" font-size="11.00" fill="#000000">patient_history</text>
<text text-anchor="start" x="767.0437" y="-376.8" font-family="Helvetica,sans-Serif" font-size="11.00" fill="#000000">[table]</text>
<polygon fill="none" stroke="#000000" points="552,-346.7 552,-368.7 736,-368.7 736,-346.7 552,-346.7"/>
<image xlink:href="../../images/primaryKeys.png" width="11px" height="12px" preserveAspectRatio="xMinYMin meet" x="557" y="-363.7"/>
<text text-anchor="start" x="572" y="-353.8" font-family="Helvetica,sans-Serif" font-size="11.00" fill="#000000">id</text>
<polygon fill="none" stroke="#000000" points="736,-346.7 736,-368.7 802,-368.7 802,-346.7 736,-346.7"/>
<text text-anchor="start" x="739" y="-354.4" font-family="Helvetica,sans-Serif" font-size="11.00" fill="#000000">bigint[19]</text>
<polygon fill="#ffffff" stroke="transparent" points="552,-324.7 552,-346.7 736,-346.7 736,-324.7 552,-324.7"/>
<polygon fill="none" stroke="#000000" points="552,-324.7 552,-346.7 736,-346.7 736,-324.7 552,-324.7"/>
<text text-anchor="start" x="572" y="-331.8" font-family="Helvetica,sans-Serif" font-size="11.00" fill="#000000">uuid</text>
<polygon fill="none" stroke="#000000" points="736,-324.7 736,-346.7 802,-346.7 802,-324.7 736,-324.7"/>
<text text-anchor="start" x="739" y="-332.4" font-family="Helvetica,sans-Serif" font-size="11.00" fill="#000000">binary[16]</text>
<polygon fill="none" stroke="#000000" points="552,-302.7 552,-324.7 736,-324.7 736,-302.7 552,-302.7"/>
<text text-anchor="start" x="572" y="-309.8" font-family="Helvetica,sans-Serif" font-size="11.00" fill="#000000">date</text>
<polygon fill="none" stroke="#000000" points="736,-302.7 736,-324.7 802,-324.7 802,-302.7 736,-302.7"/>
<text text-anchor="start" x="738.7401" y="-310.4" font-family="Helvetica,sans-Serif" font-size="11.00" fill="#000000">datetime[19]</text>
<polygon fill="none" stroke="#000000" points="552,-280.7 552,-302.7 736,-302.7 736,-280.7 552,-280.7"/>
<text text-anchor="start" x="572" y="-287.8" font-family="Helvetica,sans-Serif" font-size="11.00" fill="#000000">care_team_provider</text>
<polygon fill="none" stroke="#000000" points="736,-280.7 736,-302.7 802,-302.7 802,-280.7 736,-280.7"/>
<text text-anchor="start" x="739" y="-288.4" font-family="Helvetica,sans-Serif" font-size="11.00" fill="#000000">text[65535]</text>
<polygon fill="none" stroke="#000000" points="552,-258.7 552,-280.7 736,-280.7 736,-258.7 552,-258.7"/>
<text text-anchor="start" x="572" y="-265.8" font-family="Helvetica,sans-Serif" font-size="11.00" fill="#000000">care_team_facility</text>
<polygon fill="none" stroke="#000000" points="736,-258.7 736,-280.7 802,-280.7 802,-258.7 736,-258.7"/>
<text text-anchor="start" x="739" y="-266.4" font-family="Helvetica,sans-Serif" font-size="11.00" fill="#000000">text[65535]</text>
<polygon fill="#ffffff" stroke="transparent" points="552,-236.7 552,-258.7 736,-258.7 736,-236.7 552,-236.7"/>
<polygon fill="none" stroke="#000000" points="552,-236.7 552,-258.7 736,-258.7 736,-236.7 552,-236.7"/>
<image xlink:href="../../images/foreignKeys.png" width="11px" height="12px" preserveAspectRatio="xMinYMin meet" x="557" y="-253.7"/>
<text text-anchor="start" x="572" y="-243.8" font-family="Helvetica,sans-Serif" font-size="11.00" fill="#000000">pid</text>
<polygon fill="none" stroke="#000000" points="736,-236.7 736,-258.7 802,-258.7 802,-236.7 736,-236.7"/>
<text text-anchor="start" x="739" y="-244.4" font-family="Helvetica,sans-Serif" font-size="11.00" fill="#000000">bigint[19]</text>
<polygon fill="none" stroke="#000000" points="552,-214.7 552,-236.7 736,-236.7 736,-214.7 552,-214.7"/>
<text text-anchor="start" x="572" y="-221.8" font-family="Helvetica,sans-Serif" font-size="11.00" fill="#000000">history_type_key</text>
<polygon fill="none" stroke="#000000" points="736,-214.7 736,-236.7 802,-236.7 802,-214.7 736,-214.7"/>
<text text-anchor="start" x="739" y="-222.4" font-family="Helvetica,sans-Serif" font-size="11.00" fill="#000000">varchar[36]</text>
<polygon fill="none" stroke="#000000" points="552,-192.7 552,-214.7 736,-214.7 736,-192.7 552,-192.7"/>
<text text-anchor="start" x="572" y="-199.8" font-family="Helvetica,sans-Serif" font-size="11.00" fill="#000000">previous_name_prefix</text>
<polygon fill="none" stroke="#000000" points="736,-192.7 736,-214.7 802,-214.7 802,-192.7 736,-192.7"/>
<text text-anchor="start" x="739" y="-200.4" font-family="Helvetica,sans-Serif" font-size="11.00" fill="#000000">text[65535]</text>
<polygon fill="none" stroke="#000000" points="552,-170.7 552,-192.7 736,-192.7 736,-170.7 552,-170.7"/>
<text text-anchor="start" x="572" y="-177.8" font-family="Helvetica,sans-Serif" font-size="11.00" fill="#000000">previous_name_first</text>
<polygon fill="none" stroke="#000000" points="736,-170.7 736,-192.7 802,-192.7 802,-170.7 736,-170.7"/>
<text text-anchor="start" x="739" y="-178.4" font-family="Helvetica,sans-Serif" font-size="11.00" fill="#000000">text[65535]</text>
<polygon fill="none" stroke="#000000" points="552,-148.7 552,-170.7 736,-170.7 736,-148.7 552,-148.7"/>
<text text-anchor="start" x="572" y="-155.8" font-family="Helvetica,sans-Serif" font-size="11.00" fill="#000000">previous_name_middle</text>
<polygon fill="none" stroke="#000000" points="736,-148.7 736,-170.7 802,-170.7 802,-148.7 736,-148.7"/>
<text text-anchor="start" x="739" y="-156.4" font-family="Helvetica,sans-Serif" font-size="11.00" fill="#000000">text[65535]</text>
<polygon fill="none" stroke="#000000" points="552,-126.7 552,-148.7 736,-148.7 736,-126.7 552,-126.7"/>
<text text-anchor="start" x="572" y="-133.8" font-family="Helvetica,sans-Serif" font-size="11.00" fill="#000000">previous_name_last</text>
<polygon fill="none" stroke="#000000" points="736,-126.7 736,-148.7 802,-148.7 802,-126.7 736,-126.7"/>
<text text-anchor="start" x="739" y="-134.4" font-family="Helvetica,sans-Serif" font-size="11.00" fill="#000000">text[65535]</text>
<polygon fill="none" stroke="#000000" points="552,-104.7 552,-126.7 736,-126.7 736,-104.7 552,-104.7"/>
<text text-anchor="start" x="572" y="-111.8" font-family="Helvetica,sans-Serif" font-size="11.00" fill="#000000">previous_name_suffix</text>
<polygon fill="none" stroke="#000000" points="736,-104.7 736,-126.7 802,-126.7 802,-104.7 736,-104.7"/>
<text text-anchor="start" x="739" y="-112.4" font-family="Helvetica,sans-Serif" font-size="11.00" fill="#000000">text[65535]</text>
<polygon fill="none" stroke="#000000" points="552,-82.7 552,-104.7 736,-104.7 736,-82.7 552,-82.7"/>
<text text-anchor="start" x="572" y="-89.8" font-family="Helvetica,sans-Serif" font-size="11.00" fill="#000000">previous_name_enddate</text>
<polygon fill="none" stroke="#000000" points="736,-82.7 736,-104.7 802,-104.7 802,-82.7 736,-82.7"/>
<text text-anchor="start" x="739" y="-90.4" font-family="Helvetica,sans-Serif" font-size="11.00" fill="#000000">date[10]</text>
<polygon fill="none" stroke="#000000" points="552,-60.7 552,-82.7 736,-82.7 736,-60.7 552,-60.7"/>
<image xlink:href="../../images/foreignKeys.png" width="11px" height="12px" preserveAspectRatio="xMinYMin meet" x="557" y="-77.7"/>
<text text-anchor="start" x="572" y="-67.8" font-family="Helvetica,sans-Serif" font-size="11.00" fill="#000000">created_by</text>
<polygon fill="none" stroke="#000000" points="736,-60.7 736,-82.7 802,-82.7 802,-60.7 736,-60.7"/>
<text text-anchor="start" x="739" y="-68.4" font-family="Helvetica,sans-Serif" font-size="11.00" fill="#000000">bigint[19]</text>
<polygon fill="#ffffff" stroke="transparent" points="552,-41.7 552,-60.7 648,-60.7 648,-41.7 552,-41.7"/>
<polygon fill="none" stroke="#000000" points="552,-41.7 552,-60.7 648,-60.7 648,-41.7 552,-41.7"/>
<text text-anchor="start" x="555" y="-47.8" font-family="Helvetica,sans-Serif" font-size="11.00" fill="#000000">&lt; 2</text>
<polygon fill="#ffffff" stroke="transparent" points="648,-41.7 648,-60.7 736,-60.7 736,-41.7 648,-41.7"/>
<polygon fill="none" stroke="#000000" points="648,-41.7 648,-60.7 736,-60.7 736,-41.7 648,-41.7"/>
<text text-anchor="start" x="726.8862" y="-47.8" font-family="Helvetica,sans-Serif" font-size="11.00" fill="#000000"> &#160;</text>
<polygon fill="#ffffff" stroke="transparent" points="736,-41.7 736,-60.7 802,-60.7 802,-41.7 736,-41.7"/>
<polygon fill="none" stroke="#000000" points="736,-41.7 736,-60.7 802,-60.7 802,-41.7 736,-41.7"/>
<text text-anchor="start" x="783.4053" y="-47.8" font-family="Helvetica,sans-Serif" font-size="11.00" fill="#000000">0 &gt;</text>
<polygon fill="none" stroke="#000000" stroke-width="2" points="551,-40.7 551,-392.7 803,-392.7 803,-40.7 551,-40.7"/>
</a>
</g>
</g>
<!-- patient_history&#45;&gt;patient_data -->
<g id="edge7" class="edge">
<title>patient_history:w&#45;&gt;patient_data:e</title>
<path fill="none" stroke="#000000" d="M537.4008,-248.3605C525.5316,-249.4966 518.2102,-251.7 501.5,-251.7"/>
<polygon fill="#000000" stroke="#000000" points="544.0082,-248.0616 552.1627,-251.2963 548.0041,-247.8808 552,-247.7 552,-247.7 552,-247.7 548.0041,-247.8808 551.8373,-244.1037 544.0082,-248.0616 544.0082,-248.0616"/>
<ellipse fill="none" stroke="#000000" cx="540.8114" cy="-248.2063" rx="3.2" ry="3.2"/>
</g>
<!-- patient_history&#45;&gt;users -->
<g id="edge6" class="edge">
<title>patient_history:w&#45;&gt;users:e</title>
<path fill="none" stroke="#000000" d="M537.3806,-71.4438C397.9972,-66.5594 330.3774,5.5286 216,-82.7 166.063,-121.2205 238.5677,-218.7 175.5,-218.7"/>
<polygon fill="#000000" stroke="#000000" points="544.0012,-71.5598 551.9369,-75.2994 548.0006,-71.6299 552,-71.7 552,-71.7 552,-71.7 548.0006,-71.6299 552.0631,-68.1006 544.0012,-71.5598 544.0012,-71.5598"/>
<ellipse fill="none" stroke="#000000" cx="540.8017" cy="-71.5037" rx="3.2" ry="3.2"/>
</g>
</g>
</svg>
