<?xml version="1.0" encoding="UTF-8" standalone="no"?>
<!DOCTYPE svg PUBLIC "-//W3C//DTD SVG 1.1//EN"
 "http://www.w3.org/Graphics/SVG/1.1/DTD/svg11.dtd">
<!-- Generated by graphviz version 2.40.1 (20161225.0304)
 -->
<!-- Title: oneDegreeRelationshipsDiagram Pages: 1 -->
<svg width="874pt" height="755pt"
 viewBox="0.00 0.00 874.00 754.70" xmlns="http://www.w3.org/2000/svg" xmlns:xlink="http://www.w3.org/1999/xlink">
<g id="graph0" class="graph" transform="scale(1 1) rotate(0) translate(4 750.7)">
<title>oneDegreeRelationshipsDiagram</title>
<polygon fill="#ffffff" stroke="transparent" points="-4,4 -4,-750.7 870,-750.7 870,4 -4,4"/>
<text text-anchor="middle" x="72.4936" y="-7.3" font-family="Helvetica,sans-Serif" font-size="11.00" fill="#000000">Generated by SchemaSpy</text>
<!-- patient_care_experience_preferences -->
<g id="node1" class="node">
<title>patient_care_experience_preferences</title>
<g id="a_node1"><a xlink:href="../../tables/patient_care_experience_preferences.html" xlink:title="patient_care_experience_preferences" target="_top">
<polygon fill="#ffffff" stroke="transparent" points="515,-38.2 515,-392.2 858,-392.2 858,-38.2 515,-38.2"/>
<polygon fill="#f5f5f5" stroke="transparent" points="517.5,-367.2 517.5,-390.2 856.5,-390.2 856.5,-367.2 517.5,-367.2"/>
<polygon fill="none" stroke="#000000" points="517.5,-367.2 517.5,-390.2 856.5,-390.2 856.5,-367.2 517.5,-367.2"/>
<text text-anchor="start" x="522.5" y="-375.8" font-family="Helvetica,sans-Serif" font-weight="bold" font-size="11.00" fill="#000000">patient_care_experience_preferences</text>
<text text-anchor="start" x="821.5437" y="-375.3" font-family="Helvetica,sans-Serif" font-size="11.00" fill="#000000">[table]</text>
<polygon fill="none" stroke="#000000" points="517.5,-345.2 517.5,-367.2 789.5,-367.2 789.5,-345.2 517.5,-345.2"/>
<image xlink:href="../../images/primaryKeys.png" width="11px" height="12px" preserveAspectRatio="xMinYMin meet" x="522.5" y="-362.2"/>
<text text-anchor="start" x="537.5" y="-352.3" font-family="Helvetica,sans-Serif" font-size="11.00" fill="#000000">id</text>
<polygon fill="none" stroke="#000000" points="789.5,-345.2 789.5,-367.2 856.5,-367.2 856.5,-345.2 789.5,-345.2"/>
<text text-anchor="start" x="792.5" y="-352.9" font-family="Helvetica,sans-Serif" font-size="11.00" fill="#000000">int[10]</text>
<polygon fill="#ffffff" stroke="transparent" points="517.5,-323.2 517.5,-345.2 789.5,-345.2 789.5,-323.2 517.5,-323.2"/>
<polygon fill="none" stroke="#000000" points="517.5,-323.2 517.5,-345.2 789.5,-345.2 789.5,-323.2 517.5,-323.2"/>
<text text-anchor="start" x="537.5" y="-330.3" font-family="Helvetica,sans-Serif" font-size="11.00" fill="#000000">uuid</text>
<polygon fill="none" stroke="#000000" points="789.5,-323.2 789.5,-345.2 856.5,-345.2 856.5,-323.2 789.5,-323.2"/>
<text text-anchor="start" x="792.5" y="-330.9" font-family="Helvetica,sans-Serif" font-size="11.00" fill="#000000">binary[16]</text>
<polygon fill="#ffffff" stroke="transparent" points="517.5,-301.2 517.5,-323.2 789.5,-323.2 789.5,-301.2 517.5,-301.2"/>
<polygon fill="none" stroke="#000000" points="517.5,-301.2 517.5,-323.2 789.5,-323.2 789.5,-301.2 517.5,-301.2"/>
<image xlink:href="../../images/foreignKeys.png" width="11px" height="12px" preserveAspectRatio="xMinYMin meet" x="522.5" y="-318.2"/>
<text text-anchor="start" x="537.5" y="-308.3" font-family="Helvetica,sans-Serif" font-size="11.00" fill="#000000">patient_id</text>
<polygon fill="none" stroke="#000000" points="789.5,-301.2 789.5,-323.2 856.5,-323.2 856.5,-301.2 789.5,-301.2"/>
<text text-anchor="start" x="792.5" y="-308.9" font-family="Helvetica,sans-Serif" font-size="11.00" fill="#000000">int[10]</text>
<polygon fill="#ffffff" stroke="transparent" points="517.5,-279.2 517.5,-301.2 789.5,-301.2 789.5,-279.2 517.5,-279.2"/>
<polygon fill="none" stroke="#000000" points="517.5,-279.2 517.5,-301.2 789.5,-301.2 789.5,-279.2 517.5,-279.2"/>
<image xlink:href="../../images/foreignKeys.png" width="11px" height="12px" preserveAspectRatio="xMinYMin meet" x="522.5" y="-296.2"/>
<text text-anchor="start" x="537.5" y="-286.3" font-family="Helvetica,sans-Serif" font-size="11.00" fill="#000000">observation_code</text>
<polygon fill="none" stroke="#000000" points="789.5,-279.2 789.5,-301.2 856.5,-301.2 856.5,-279.2 789.5,-279.2"/>
<text text-anchor="start" x="792.5" y="-286.9" font-family="Helvetica,sans-Serif" font-size="11.00" fill="#000000">varchar[50]</text>
<polygon fill="none" stroke="#000000" points="517.5,-257.2 517.5,-279.2 789.5,-279.2 789.5,-257.2 517.5,-257.2"/>
<text text-anchor="start" x="537.5" y="-264.3" font-family="Helvetica,sans-Serif" font-size="11.00" fill="#000000">observation_code_text</text>
<polygon fill="none" stroke="#000000" points="789.5,-257.2 789.5,-279.2 856.5,-279.2 856.5,-257.2 789.5,-257.2"/>
<text text-anchor="start" x="792.4365" y="-264.9" font-family="Helvetica,sans-Serif" font-size="11.00" fill="#000000">varchar[255]</text>
<polygon fill="none" stroke="#000000" points="517.5,-235.2 517.5,-257.2 789.5,-257.2 789.5,-235.2 517.5,-235.2"/>
<text text-anchor="start" x="537.5" y="-242.3" font-family="Helvetica,sans-Serif" font-size="11.00" fill="#000000">value_type</text>
<polygon fill="none" stroke="#000000" points="789.5,-235.2 789.5,-257.2 856.5,-257.2 856.5,-235.2 789.5,-235.2"/>
<text text-anchor="start" x="792.5" y="-242.9" font-family="Helvetica,sans-Serif" font-size="11.00" fill="#000000">enum[7]</text>
<polygon fill="none" stroke="#000000" points="517.5,-213.2 517.5,-235.2 789.5,-235.2 789.5,-213.2 517.5,-213.2"/>
<image xlink:href="../../images/foreignKeys.png" width="11px" height="12px" preserveAspectRatio="xMinYMin meet" x="522.5" y="-230.2"/>
<text text-anchor="start" x="537.5" y="-220.3" font-family="Helvetica,sans-Serif" font-size="11.00" fill="#000000">value_code</text>
<polygon fill="none" stroke="#000000" points="789.5,-213.2 789.5,-235.2 856.5,-235.2 856.5,-213.2 789.5,-213.2"/>
<text text-anchor="start" x="792.5" y="-220.9" font-family="Helvetica,sans-Serif" font-size="11.00" fill="#000000">varchar[50]</text>
<polygon fill="none" stroke="#000000" points="517.5,-191.2 517.5,-213.2 789.5,-213.2 789.5,-191.2 517.5,-191.2"/>
<image xlink:href="../../images/foreignKeys.png" width="11px" height="12px" preserveAspectRatio="xMinYMin meet" x="522.5" y="-208.2"/>
<text text-anchor="start" x="537.5" y="-198.3" font-family="Helvetica,sans-Serif" font-size="11.00" fill="#000000">value_code_system</text>
<polygon fill="none" stroke="#000000" points="789.5,-191.2 789.5,-213.2 856.5,-213.2 856.5,-191.2 789.5,-191.2"/>
<text text-anchor="start" x="792.4365" y="-198.9" font-family="Helvetica,sans-Serif" font-size="11.00" fill="#000000">varchar[255]</text>
<polygon fill="none" stroke="#000000" points="517.5,-169.2 517.5,-191.2 789.5,-191.2 789.5,-169.2 517.5,-169.2"/>
<image xlink:href="../../images/foreignKeys.png" width="11px" height="12px" preserveAspectRatio="xMinYMin meet" x="522.5" y="-186.2"/>
<text text-anchor="start" x="537.5" y="-176.3" font-family="Helvetica,sans-Serif" font-size="11.00" fill="#000000">value_display</text>
<polygon fill="none" stroke="#000000" points="789.5,-169.2 789.5,-191.2 856.5,-191.2 856.5,-169.2 789.5,-169.2"/>
<text text-anchor="start" x="792.4365" y="-176.9" font-family="Helvetica,sans-Serif" font-size="11.00" fill="#000000">varchar[255]</text>
<polygon fill="none" stroke="#000000" points="517.5,-147.2 517.5,-169.2 789.5,-169.2 789.5,-147.2 517.5,-147.2"/>
<text text-anchor="start" x="537.5" y="-154.3" font-family="Helvetica,sans-Serif" font-size="11.00" fill="#000000">value_text</text>
<polygon fill="none" stroke="#000000" points="789.5,-147.2 789.5,-169.2 856.5,-169.2 856.5,-147.2 789.5,-147.2"/>
<text text-anchor="start" x="792.5" y="-154.9" font-family="Helvetica,sans-Serif" font-size="11.00" fill="#000000">text[65535]</text>
<polygon fill="none" stroke="#000000" points="517.5,-125.2 517.5,-147.2 789.5,-147.2 789.5,-125.2 517.5,-125.2"/>
<text text-anchor="start" x="537.5" y="-132.3" font-family="Helvetica,sans-Serif" font-size="11.00" fill="#000000">value_boolean</text>
<polygon fill="none" stroke="#000000" points="789.5,-125.2 789.5,-147.2 856.5,-147.2 856.5,-125.2 789.5,-125.2"/>
<text text-anchor="start" x="792.5" y="-132.9" font-family="Helvetica,sans-Serif" font-size="11.00" fill="#000000">boolean[3]</text>
<polygon fill="none" stroke="#000000" points="517.5,-103.2 517.5,-125.2 789.5,-125.2 789.5,-103.2 517.5,-103.2"/>
<text text-anchor="start" x="537.5" y="-110.3" font-family="Helvetica,sans-Serif" font-size="11.00" fill="#000000">effective_datetime</text>
<polygon fill="none" stroke="#000000" points="789.5,-103.2 789.5,-125.2 856.5,-125.2 856.5,-103.2 789.5,-103.2"/>
<text text-anchor="start" x="792.5" y="-110.9" font-family="Helvetica,sans-Serif" font-size="11.00" fill="#000000">datetime[19]</text>
<polygon fill="#ffffff" stroke="transparent" points="517.5,-81.2 517.5,-103.2 789.5,-103.2 789.5,-81.2 517.5,-81.2"/>
<polygon fill="none" stroke="#000000" points="517.5,-81.2 517.5,-103.2 789.5,-103.2 789.5,-81.2 517.5,-81.2"/>
<text text-anchor="start" x="537.5" y="-88.3" font-family="Helvetica,sans-Serif" font-size="11.00" fill="#000000">status</text>
<polygon fill="none" stroke="#000000" points="789.5,-81.2 789.5,-103.2 856.5,-103.2 856.5,-81.2 789.5,-81.2"/>
<text text-anchor="start" x="792.5" y="-88.9" font-family="Helvetica,sans-Serif" font-size="11.00" fill="#000000">varchar[20]</text>
<polygon fill="none" stroke="#000000" points="517.5,-59.2 517.5,-81.2 789.5,-81.2 789.5,-59.2 517.5,-59.2"/>
<text text-anchor="start" x="537.5" y="-66.3" font-family="Helvetica,sans-Serif" font-size="11.00" fill="#000000">note</text>
<polygon fill="none" stroke="#000000" points="789.5,-59.2 789.5,-81.2 856.5,-81.2 856.5,-59.2 789.5,-59.2"/>
<text text-anchor="start" x="792.5" y="-66.9" font-family="Helvetica,sans-Serif" font-size="11.00" fill="#000000">text[65535]</text>
<polygon fill="#ffffff" stroke="transparent" points="517.5,-40.2 517.5,-59.2 657.5,-59.2 657.5,-40.2 517.5,-40.2"/>
<polygon fill="none" stroke="#000000" points="517.5,-40.2 517.5,-59.2 657.5,-59.2 657.5,-40.2 517.5,-40.2"/>
<text text-anchor="start" x="520.5" y="-46.3" font-family="Helvetica,sans-Serif" font-size="11.00" fill="#000000">&lt; 5</text>
<polygon fill="#ffffff" stroke="transparent" points="657.5,-40.2 657.5,-59.2 789.5,-59.2 789.5,-40.2 657.5,-40.2"/>
<polygon fill="none" stroke="#000000" points="657.5,-40.2 657.5,-59.2 789.5,-59.2 789.5,-40.2 657.5,-40.2"/>
<text text-anchor="start" x="780.3862" y="-46.3" font-family="Helvetica,sans-Serif" font-size="11.00" fill="#000000"> &#160;</text>
<polygon fill="#ffffff" stroke="transparent" points="789.5,-40.2 789.5,-59.2 856.5,-59.2 856.5,-40.2 789.5,-40.2"/>
<polygon fill="none" stroke="#000000" points="789.5,-40.2 789.5,-59.2 856.5,-59.2 856.5,-40.2 789.5,-40.2"/>
<text text-anchor="start" x="837.9053" y="-46.3" font-family="Helvetica,sans-Serif" font-size="11.00" fill="#000000">0 &gt;</text>
<polygon fill="none" stroke="#000000" stroke-width="2" points="516,-39.2 516,-391.2 857,-391.2 857,-39.2 516,-39.2"/>
</a>
</g>
</g>
<!-- list_options -->
<g id="node2" class="node">
<title>list_options</title>
<g id="a_node2"><a xlink:href="../../tables/list_options.html" xlink:title="list_options" target="_top">
<polygon fill="#ffffff" stroke="transparent" points="8,-362.7 8,-467.7 140,-467.7 140,-362.7 8,-362.7"/>
<polygon fill="#f5f5f5" stroke="transparent" points="8,-444.2 8,-467.2 140,-467.2 140,-444.2 8,-444.2"/>
<polygon fill="none" stroke="#000000" points="8,-444.2 8,-467.2 140,-467.2 140,-444.2 8,-444.2"/>
<text text-anchor="start" x="13" y="-452.8" font-family="Helvetica,sans-Serif" font-weight="bold" font-size="11.00" fill="#000000">list_options</text>
<text text-anchor="start" x="105.0437" y="-452.3" font-family="Helvetica,sans-Serif" font-size="11.00" fill="#000000">[table]</text>
<polygon fill="none" stroke="#000000" points="8,-422.2 8,-444.2 140,-444.2 140,-422.2 8,-422.2"/>
<image xlink:href="../../images/primaryKeys.png" width="11px" height="12px" preserveAspectRatio="xMinYMin meet" x="13" y="-439.2"/>
<text text-anchor="start" x="28" y="-429.3" font-family="Helvetica,sans-Serif" font-size="11.00" fill="#000000">list_id</text>
<polygon fill="none" stroke="#000000" points="8,-400.2 8,-422.2 140,-422.2 140,-400.2 8,-400.2"/>
<image xlink:href="../../images/primaryKeys.png" width="11px" height="12px" preserveAspectRatio="xMinYMin meet" x="13" y="-417.2"/>
<text text-anchor="start" x="28" y="-407.3" font-family="Helvetica,sans-Serif" font-size="11.00" fill="#000000">option_id</text>
<polygon fill="none" stroke="#000000" points="8,-381.2 8,-400.2 140,-400.2 140,-381.2 8,-381.2"/>
<text text-anchor="start" x="11" y="-387.3" font-family="Helvetica,sans-Serif" font-size="11.00" fill="#000000">...</text>
<polygon fill="#ffffff" stroke="transparent" points="8,-362.2 8,-381.2 60,-381.2 60,-362.2 8,-362.2"/>
<polygon fill="none" stroke="#000000" points="8,-362.2 8,-381.2 60,-381.2 60,-362.2 8,-362.2"/>
<text text-anchor="start" x="11" y="-368.3" font-family="Helvetica,sans-Serif" font-size="11.00" fill="#000000"> &#160;</text>
<polygon fill="#ffffff" stroke="transparent" points="60,-362.2 60,-381.2 92,-381.2 92,-362.2 60,-362.2"/>
<polygon fill="none" stroke="#000000" points="60,-362.2 60,-381.2 92,-381.2 92,-362.2 60,-362.2"/>
<text text-anchor="start" x="82.8862" y="-368.3" font-family="Helvetica,sans-Serif" font-size="11.00" fill="#000000"> &#160;</text>
<polygon fill="#ffffff" stroke="transparent" points="92,-362.2 92,-381.2 140,-381.2 140,-362.2 92,-362.2"/>
<polygon fill="none" stroke="#000000" points="92,-362.2 92,-381.2 140,-381.2 140,-362.2 92,-362.2"/>
<text text-anchor="start" x="115.2904" y="-368.3" font-family="Helvetica,sans-Serif" font-size="11.00" fill="#000000">98 &gt;</text>
</a>
</g>
</g>
<!-- patient_care_experience_preferences&#45;&gt;list_options -->
<g id="edge1" class="edge">
<title>patient_care_experience_preferences:w&#45;&gt;list_options:e</title>
<path fill="none" stroke="#000000" d="M503.1537,-293.5651C493.6449,-298.7829 489.0586,-308.6928 474,-313.2 411.3388,-331.955 236.1334,-306.008 181,-341.2 150.6087,-360.599 176.0548,-411.2 140,-411.2"/>
<polygon fill="#000000" stroke="#000000" points="509.7114,-292.0269 518.3221,-293.7049 513.6057,-291.1135 517.5,-290.2 517.5,-290.2 517.5,-290.2 513.6057,-291.1135 516.6779,-286.6951 509.7114,-292.0269 509.7114,-292.0269"/>
<ellipse fill="none" stroke="#000000" cx="506.5959" cy="-292.7577" rx="3.2" ry="3.2"/>
</g>
<!-- patient_data -->
<g id="node3" class="node">
<title>patient_data</title>
<g id="a_node3"><a xlink:href="../../tables/patient_data.html" xlink:title="patient_data" target="_top">
<polygon fill="#ffffff" stroke="transparent" points="189,-351.7 189,-742.7 466,-742.7 466,-351.7 189,-351.7"/>
<polygon fill="#f5f5f5" stroke="transparent" points="189.5,-719.2 189.5,-742.2 466.5,-742.2 466.5,-719.2 189.5,-719.2"/>
<polygon fill="none" stroke="#000000" points="189.5,-719.2 189.5,-742.2 466.5,-742.2 466.5,-719.2 189.5,-719.2"/>
<text text-anchor="start" x="194.5" y="-727.8" font-family="Helvetica,sans-Serif" font-weight="bold" font-size="11.00" fill="#000000">patient_data</text>
<text text-anchor="start" x="431.5437" y="-727.3" font-family="Helvetica,sans-Serif" font-size="11.00" fill="#000000">[table]</text>
<polygon fill="none" stroke="#000000" points="189.5,-697.2 189.5,-719.2 466.5,-719.2 466.5,-697.2 189.5,-697.2"/>
<image xlink:href="../../images/primaryKeys.png" width="11px" height="12px" preserveAspectRatio="xMinYMin meet" x="194.5" y="-714.2"/>
<text text-anchor="start" x="209.5" y="-704.3" font-family="Helvetica,sans-Serif" font-size="11.00" fill="#000000">id</text>
<polygon fill="#ffffff" stroke="transparent" points="189.5,-675.2 189.5,-697.2 466.5,-697.2 466.5,-675.2 189.5,-675.2"/>
<polygon fill="none" stroke="#000000" points="189.5,-675.2 189.5,-697.2 466.5,-697.2 466.5,-675.2 189.5,-675.2"/>
<text text-anchor="start" x="209.5" y="-682.3" font-family="Helvetica,sans-Serif" font-size="11.00" fill="#000000">uuid</text>
<polygon fill="#ffffff" stroke="transparent" points="189.5,-653.2 189.5,-675.2 466.5,-675.2 466.5,-653.2 189.5,-653.2"/>
<polygon fill="none" stroke="#000000" points="189.5,-653.2 189.5,-675.2 466.5,-675.2 466.5,-653.2 189.5,-653.2"/>
<text text-anchor="start" x="209.5" y="-660.3" font-family="Helvetica,sans-Serif" font-size="11.00" fill="#000000">fname</text>
<polygon fill="#ffffff" stroke="transparent" points="189.5,-631.2 189.5,-653.2 466.5,-653.2 466.5,-631.2 189.5,-631.2"/>
<polygon fill="none" stroke="#000000" points="189.5,-631.2 189.5,-653.2 466.5,-653.2 466.5,-631.2 189.5,-631.2"/>
<text text-anchor="start" x="209.5" y="-638.3" font-family="Helvetica,sans-Serif" font-size="11.00" fill="#000000">lname</text>
<polygon fill="#ffffff" stroke="transparent" points="189.5,-609.2 189.5,-631.2 466.5,-631.2 466.5,-609.2 189.5,-609.2"/>
<polygon fill="none" stroke="#000000" points="189.5,-609.2 189.5,-631.2 466.5,-631.2 466.5,-609.2 189.5,-609.2"/>
<text text-anchor="start" x="209.5" y="-616.3" font-family="Helvetica,sans-Serif" font-size="11.00" fill="#000000">DOB</text>
<polygon fill="none" stroke="#000000" points="189.5,-587.2 189.5,-609.2 466.5,-609.2 466.5,-587.2 189.5,-587.2"/>
<image xlink:href="../../images/foreignKeys.png" width="11px" height="12px" preserveAspectRatio="xMinYMin meet" x="194.5" y="-604.2"/>
<text text-anchor="start" x="209.5" y="-594.3" font-family="Helvetica,sans-Serif" font-size="11.00" fill="#000000">pharmacy_id</text>
<polygon fill="none" stroke="#000000" points="189.5,-565.2 189.5,-587.2 466.5,-587.2 466.5,-565.2 189.5,-565.2"/>
<image xlink:href="../../images/foreignKeys.png" width="11px" height="12px" preserveAspectRatio="xMinYMin meet" x="194.5" y="-582.2"/>
<text text-anchor="start" x="209.5" y="-572.3" font-family="Helvetica,sans-Serif" font-size="11.00" fill="#000000">providerID</text>
<polygon fill="none" stroke="#000000" points="189.5,-543.2 189.5,-565.2 466.5,-565.2 466.5,-543.2 189.5,-543.2"/>
<image xlink:href="../../images/foreignKeys.png" width="11px" height="12px" preserveAspectRatio="xMinYMin meet" x="194.5" y="-560.2"/>
<text text-anchor="start" x="209.5" y="-550.3" font-family="Helvetica,sans-Serif" font-size="11.00" fill="#000000">ref_providerID</text>
<polygon fill="none" stroke="#000000" points="189.5,-521.2 189.5,-543.2 466.5,-543.2 466.5,-521.2 189.5,-521.2"/>
<image xlink:href="../../images/foreignKeys.png" width="11px" height="12px" preserveAspectRatio="xMinYMin meet" x="194.5" y="-538.2"/>
<text text-anchor="start" x="209.5" y="-528.3" font-family="Helvetica,sans-Serif" font-size="11.00" fill="#000000">interpreter_needed</text>
<polygon fill="none" stroke="#000000" points="189.5,-499.2 189.5,-521.2 466.5,-521.2 466.5,-499.2 189.5,-499.2"/>
<image xlink:href="../../images/primaryKeys.png" width="11px" height="12px" preserveAspectRatio="xMinYMin meet" x="194.5" y="-516.2"/>
<text text-anchor="start" x="209.5" y="-506.3" font-family="Helvetica,sans-Serif" font-size="11.00" fill="#000000">pid</text>
<polygon fill="none" stroke="#000000" points="189.5,-477.2 189.5,-499.2 466.5,-499.2 466.5,-477.2 189.5,-477.2"/>
<image xlink:href="../../images/foreignKeys.png" width="11px" height="12px" preserveAspectRatio="xMinYMin meet" x="194.5" y="-494.2"/>
<text text-anchor="start" x="209.5" y="-484.3" font-family="Helvetica,sans-Serif" font-size="11.00" fill="#000000">advance_directive_user_authenticator</text>
<polygon fill="none" stroke="#000000" points="189.5,-455.2 189.5,-477.2 466.5,-477.2 466.5,-455.2 189.5,-455.2"/>
<image xlink:href="../../images/foreignKeys.png" width="11px" height="12px" preserveAspectRatio="xMinYMin meet" x="194.5" y="-472.2"/>
<text text-anchor="start" x="209.5" y="-462.3" font-family="Helvetica,sans-Serif" font-size="11.00" fill="#000000">created_by</text>
<polygon fill="none" stroke="#000000" points="189.5,-433.2 189.5,-455.2 466.5,-455.2 466.5,-433.2 189.5,-433.2"/>
<image xlink:href="../../images/foreignKeys.png" width="11px" height="12px" preserveAspectRatio="xMinYMin meet" x="194.5" y="-450.2"/>
<text text-anchor="start" x="209.5" y="-440.3" font-family="Helvetica,sans-Serif" font-size="11.00" fill="#000000">updated_by</text>
<polygon fill="none" stroke="#000000" points="189.5,-411.2 189.5,-433.2 466.5,-433.2 466.5,-411.2 189.5,-411.2"/>
<image xlink:href="../../images/foreignKeys.png" width="11px" height="12px" preserveAspectRatio="xMinYMin meet" x="194.5" y="-428.2"/>
<text text-anchor="start" x="209.5" y="-418.3" font-family="Helvetica,sans-Serif" font-size="11.00" fill="#000000">tribal_affiliations</text>
<polygon fill="none" stroke="#000000" points="189.5,-389.2 189.5,-411.2 466.5,-411.2 466.5,-389.2 189.5,-389.2"/>
<image xlink:href="../../images/foreignKeys.png" width="11px" height="12px" preserveAspectRatio="xMinYMin meet" x="194.5" y="-406.2"/>
<text text-anchor="start" x="209.5" y="-396.3" font-family="Helvetica,sans-Serif" font-size="11.00" fill="#000000">sex_identified</text>
<polygon fill="none" stroke="#000000" points="189.5,-370.2 189.5,-389.2 466.5,-389.2 466.5,-370.2 189.5,-370.2"/>
<text text-anchor="start" x="192.5" y="-376.3" font-family="Helvetica,sans-Serif" font-size="11.00" fill="#000000">...</text>
<polygon fill="#ffffff" stroke="transparent" points="189.5,-351.2 189.5,-370.2 318.5,-370.2 318.5,-351.2 189.5,-351.2"/>
<polygon fill="none" stroke="#000000" points="189.5,-351.2 189.5,-370.2 318.5,-370.2 318.5,-351.2 189.5,-351.2"/>
<text text-anchor="start" x="192.5" y="-357.3" font-family="Helvetica,sans-Serif" font-size="11.00" fill="#000000">&lt; 9</text>
<polygon fill="#ffffff" stroke="transparent" points="318.5,-351.2 318.5,-370.2 384.5,-370.2 384.5,-351.2 318.5,-351.2"/>
<polygon fill="none" stroke="#000000" points="318.5,-351.2 318.5,-370.2 384.5,-370.2 384.5,-351.2 318.5,-351.2"/>
<text text-anchor="start" x="375.3862" y="-357.3" font-family="Helvetica,sans-Serif" font-size="11.00" fill="#000000"> &#160;</text>
<polygon fill="#ffffff" stroke="transparent" points="384.5,-351.2 384.5,-370.2 466.5,-370.2 466.5,-351.2 384.5,-351.2"/>
<polygon fill="none" stroke="#000000" points="384.5,-351.2 384.5,-370.2 466.5,-370.2 466.5,-351.2 384.5,-351.2"/>
<text text-anchor="start" x="441.7904" y="-357.3" font-family="Helvetica,sans-Serif" font-size="11.00" fill="#000000">95 &gt;</text>
</a>
</g>
</g>
<!-- patient_care_experience_preferences&#45;&gt;patient_data -->
<g id="edge2" class="edge">
<title>patient_care_experience_preferences:w&#45;&gt;patient_data:e</title>
<path fill="none" stroke="#000000" d="M502.9503,-314.4236C442.1051,-336.1766 551.6928,-510.2 466.5,-510.2"/>
<polygon fill="#000000" stroke="#000000" points="509.5918,-313.4087 518.0439,-315.7587 513.5459,-312.8043 517.5,-312.2 517.5,-312.2 517.5,-312.2 513.5459,-312.8043 516.9561,-308.6413 509.5918,-313.4087 509.5918,-313.4087"/>
<ellipse fill="none" stroke="#000000" cx="506.4286" cy="-313.8921" rx="3.2" ry="3.2"/>
</g>
<!-- preference_value_sets -->
<g id="node4" class="node">
<title>preference_value_sets</title>
<g id="a_node4"><a xlink:href="../../tables/preference_value_sets.html" xlink:title="preference_value_sets" target="_top">
<polygon fill="#ffffff" stroke="transparent" points="233,-131.7 233,-302.7 422,-302.7 422,-131.7 233,-131.7"/>
<polygon fill="#f5f5f5" stroke="transparent" points="233.5,-279.2 233.5,-302.2 422.5,-302.2 422.5,-279.2 233.5,-279.2"/>
<polygon fill="none" stroke="#000000" points="233.5,-279.2 233.5,-302.2 422.5,-302.2 422.5,-279.2 233.5,-279.2"/>
<text text-anchor="start" x="238.5" y="-287.8" font-family="Helvetica,sans-Serif" font-weight="bold" font-size="11.00" fill="#000000">preference_value_sets</text>
<text text-anchor="start" x="388.0219" y="-287.3" font-family="Helvetica,sans-Serif" font-size="11.00" fill="#000000">[table]</text>
<polygon fill="none" stroke="#000000" points="233.5,-257.2 233.5,-279.2 422.5,-279.2 422.5,-257.2 233.5,-257.2"/>
<image xlink:href="../../images/primaryKeys.png" width="11px" height="12px" preserveAspectRatio="xMinYMin meet" x="238.5" y="-274.2"/>
<text text-anchor="start" x="262.5" y="-264.3" font-family="Helvetica,sans-Serif" font-size="11.00" fill="#000000">id</text>
<polygon fill="#ffffff" stroke="transparent" points="233.5,-235.2 233.5,-257.2 422.5,-257.2 422.5,-235.2 233.5,-235.2"/>
<polygon fill="none" stroke="#000000" points="233.5,-235.2 233.5,-257.2 422.5,-257.2 422.5,-235.2 233.5,-235.2"/>
<text text-anchor="start" x="262.5" y="-242.3" font-family="Helvetica,sans-Serif" font-size="11.00" fill="#000000">loinc_code</text>
<polygon fill="none" stroke="#000000" points="233.5,-213.2 233.5,-235.2 422.5,-235.2 422.5,-213.2 233.5,-213.2"/>
<image xlink:href="../../images/primaryKeys.png" width="11px" height="12px" preserveAspectRatio="xMinYMin meet" x="238.5" y="-230.2"/>
<text text-anchor="start" x="262.5" y="-220.3" font-family="Helvetica,sans-Serif" font-size="11.00" fill="#000000">answer_code</text>
<polygon fill="none" stroke="#000000" points="233.5,-191.2 233.5,-213.2 422.5,-213.2 422.5,-191.2 233.5,-191.2"/>
<image xlink:href="../../images/primaryKeys.png" width="11px" height="12px" preserveAspectRatio="xMinYMin meet" x="238.5" y="-208.2"/>
<text text-anchor="start" x="262.5" y="-198.3" font-family="Helvetica,sans-Serif" font-size="11.00" fill="#000000">answer_system</text>
<polygon fill="none" stroke="#000000" points="233.5,-169.2 233.5,-191.2 422.5,-191.2 422.5,-169.2 233.5,-169.2"/>
<image xlink:href="../../images/primaryKeys.png" width="11px" height="12px" preserveAspectRatio="xMinYMin meet" x="238.5" y="-186.2"/>
<text text-anchor="start" x="262.5" y="-176.3" font-family="Helvetica,sans-Serif" font-size="11.00" fill="#000000">answer_display</text>
<polygon fill="none" stroke="#000000" points="233.5,-150.2 233.5,-169.2 422.5,-169.2 422.5,-150.2 233.5,-150.2"/>
<text text-anchor="start" x="236.5" y="-156.3" font-family="Helvetica,sans-Serif" font-size="11.00" fill="#000000">...</text>
<polygon fill="#ffffff" stroke="transparent" points="233.5,-131.2 233.5,-150.2 317.5,-150.2 317.5,-131.2 233.5,-131.2"/>
<polygon fill="none" stroke="#000000" points="233.5,-131.2 233.5,-150.2 317.5,-150.2 317.5,-131.2 233.5,-131.2"/>
<text text-anchor="start" x="236.5" y="-137.3" font-family="Helvetica,sans-Serif" font-size="11.00" fill="#000000"> &#160;</text>
<polygon fill="#ffffff" stroke="transparent" points="317.5,-131.2 317.5,-150.2 365.5,-150.2 365.5,-131.2 317.5,-131.2"/>
<polygon fill="none" stroke="#000000" points="317.5,-131.2 317.5,-150.2 365.5,-150.2 365.5,-131.2 317.5,-131.2"/>
<text text-anchor="start" x="356.3862" y="-137.3" font-family="Helvetica,sans-Serif" font-size="11.00" fill="#000000"> &#160;</text>
<polygon fill="#ffffff" stroke="transparent" points="365.5,-131.2 365.5,-150.2 422.5,-150.2 422.5,-131.2 365.5,-131.2"/>
<polygon fill="none" stroke="#000000" points="365.5,-131.2 365.5,-150.2 422.5,-150.2 422.5,-131.2 365.5,-131.2"/>
<text text-anchor="start" x="403.9053" y="-137.3" font-family="Helvetica,sans-Serif" font-size="11.00" fill="#000000">6 &gt;</text>
</a>
</g>
</g>
<!-- patient_care_experience_preferences&#45;&gt;preference_value_sets -->
<g id="edge3" class="edge">
<title>patient_care_experience_preferences:w&#45;&gt;preference_value_sets:e</title>
<path fill="none" stroke="#000000" d="M503.0273,-224.2C472.1441,-224.2 459.4444,-224.2 422.5,-224.2"/>
<polygon fill="#000000" stroke="#000000" points="509.5,-224.2001 517.5,-227.8 513.5,-224.2 517.5,-224.2 517.5,-224.2 517.5,-224.2 513.5,-224.2 517.5,-220.6 509.5,-224.2001 509.5,-224.2001"/>
<ellipse fill="none" stroke="#000000" cx="506.3" cy="-224.2001" rx="3.2" ry="3.2"/>
</g>
<!-- patient_care_experience_preferences&#45;&gt;preference_value_sets -->
<g id="edge4" class="edge">
<title>patient_care_experience_preferences:w&#45;&gt;preference_value_sets:e</title>
<path fill="none" stroke="#000000" d="M503.0273,-202.2C472.1441,-202.2 459.4444,-202.2 422.5,-202.2"/>
<polygon fill="#000000" stroke="#000000" points="509.5,-202.2001 517.5,-205.8 513.5,-202.2 517.5,-202.2 517.5,-202.2 517.5,-202.2 513.5,-202.2 517.5,-198.6 509.5,-202.2001 509.5,-202.2001"/>
<ellipse fill="none" stroke="#000000" cx="506.3" cy="-202.2001" rx="3.2" ry="3.2"/>
</g>
<!-- patient_care_experience_preferences&#45;&gt;preference_value_sets -->
<g id="edge5" class="edge">
<title>patient_care_experience_preferences:w&#45;&gt;preference_value_sets:e</title>
<path fill="none" stroke="#000000" d="M503.0273,-180.2C472.1441,-180.2 459.4444,-180.2 422.5,-180.2"/>
<polygon fill="#000000" stroke="#000000" points="509.5,-180.2001 517.5,-183.8 513.5,-180.2 517.5,-180.2 517.5,-180.2 517.5,-180.2 513.5,-180.2 517.5,-176.6 509.5,-180.2001 509.5,-180.2001"/>
<ellipse fill="none" stroke="#000000" cx="506.3" cy="-180.2001" rx="3.2" ry="3.2"/>
</g>
<!-- patient_data&#45;&gt;list_options -->
<g id="edge6" class="edge">
<title>patient_data:w&#45;&gt;list_options:e</title>
<path fill="none" stroke="#000000" d="M175.3973,-528.7092C143.6588,-508.87 192.2026,-411.2 140,-411.2"/>
<polygon fill="#000000" stroke="#000000" points="181.7344,-530.2778 188.635,-535.6945 185.6172,-531.2389 189.5,-532.2 189.5,-532.2 189.5,-532.2 185.6172,-531.2389 190.365,-528.7055 181.7344,-530.2778 181.7344,-530.2778"/>
<ellipse fill="none" stroke="#000000" cx="178.6281" cy="-529.5089" rx="3.2" ry="3.2"/>
</g>
<!-- patient_data&#45;&gt;list_options -->
<g id="edge7" class="edge">
<title>patient_data:w&#45;&gt;list_options:e</title>
<path fill="none" stroke="#000000" d="M175.0598,-402.0164C163.4771,-405.1407 156.7264,-411.2 140,-411.2"/>
<polygon fill="#000000" stroke="#000000" points="181.5626,-401.1985 189.9493,-403.7719 185.5313,-400.6992 189.5,-400.2 189.5,-400.2 189.5,-400.2 185.5313,-400.6992 189.0507,-396.6281 181.5626,-401.1985 181.5626,-401.1985"/>
<ellipse fill="none" stroke="#000000" cx="178.3876" cy="-401.5979" rx="3.2" ry="3.2"/>
</g>
<!-- patient_data&#45;&gt;list_options -->
<g id="edge8" class="edge">
<title>patient_data:w&#45;&gt;list_options:e</title>
<path fill="none" stroke="#000000" d="M175.0598,-420.3836C163.4771,-417.2593 156.7264,-411.2 140,-411.2"/>
<polygon fill="#000000" stroke="#000000" points="181.5626,-421.2015 189.0507,-425.7719 185.5313,-421.7008 189.5,-422.2 189.5,-422.2 189.5,-422.2 185.5313,-421.7008 189.9493,-418.6281 181.5626,-421.2015 181.5626,-421.2015"/>
<ellipse fill="none" stroke="#000000" cx="178.3876" cy="-420.8021" rx="3.2" ry="3.2"/>
</g>
</g>
</svg>
