<?xml version="1.0" encoding="UTF-8" standalone="no"?>
<!DOCTYPE svg PUBLIC "-//W3C//DTD SVG 1.1//EN"
 "http://www.w3.org/Graphics/SVG/1.1/DTD/svg11.dtd">
<!-- Generated by graphviz version 2.40.1 (20161225.0304)
 -->
<!-- Title: oneDegreeRelationshipsDiagram Pages: 1 -->
<svg width="789pt" height="538pt"
 viewBox="0.00 0.00 789.00 537.71" xmlns="http://www.w3.org/2000/svg" xmlns:xlink="http://www.w3.org/1999/xlink">
<g id="graph0" class="graph" transform="scale(1 1) rotate(0) translate(4 533.7091)">
<title>oneDegreeRelationshipsDiagram</title>
<polygon fill="#ffffff" stroke="transparent" points="-4,4 -4,-533.7091 785,-533.7091 785,4 -4,4"/>
<text text-anchor="middle" x="72.4936" y="-7.3" font-family="Helvetica,sans-Serif" font-size="11.00" fill="#000000">Generated by SchemaSpy</text>
<!-- patient_data -->
<g id="node1" class="node">
<title>patient_data</title>
<g id="a_node1"><a xlink:href="../../tables/patient_data.html" xlink:title="patient_data" target="_top">
<polygon fill="#ffffff" stroke="transparent" points="224,-82.2 224,-473.2 501,-473.2 501,-82.2 224,-82.2"/>
<polygon fill="#f5f5f5" stroke="transparent" points="224.5,-449.7 224.5,-472.7 501.5,-472.7 501.5,-449.7 224.5,-449.7"/>
<polygon fill="none" stroke="#000000" points="224.5,-449.7 224.5,-472.7 501.5,-472.7 501.5,-449.7 224.5,-449.7"/>
<text text-anchor="start" x="229.5" y="-458.3" font-family="Helvetica,sans-Serif" font-weight="bold" font-size="11.00" fill="#000000">patient_data</text>
<text text-anchor="start" x="466.5437" y="-457.8" font-family="Helvetica,sans-Serif" font-size="11.00" fill="#000000">[table]</text>
<polygon fill="none" stroke="#000000" points="224.5,-427.7 224.5,-449.7 501.5,-449.7 501.5,-427.7 224.5,-427.7"/>
<image xlink:href="../../images/primaryKeys.png" width="11px" height="12px" preserveAspectRatio="xMinYMin meet" x="229.5" y="-444.7"/>
<text text-anchor="start" x="244.5" y="-434.8" font-family="Helvetica,sans-Serif" font-size="11.00" fill="#000000">id</text>
<polygon fill="#ffffff" stroke="transparent" points="224.5,-405.7 224.5,-427.7 501.5,-427.7 501.5,-405.7 224.5,-405.7"/>
<polygon fill="none" stroke="#000000" points="224.5,-405.7 224.5,-427.7 501.5,-427.7 501.5,-405.7 224.5,-405.7"/>
<text text-anchor="start" x="244.5" y="-412.8" font-family="Helvetica,sans-Serif" font-size="11.00" fill="#000000">uuid</text>
<polygon fill="#ffffff" stroke="transparent" points="224.5,-383.7 224.5,-405.7 501.5,-405.7 501.5,-383.7 224.5,-383.7"/>
<polygon fill="none" stroke="#000000" points="224.5,-383.7 224.5,-405.7 501.5,-405.7 501.5,-383.7 224.5,-383.7"/>
<text text-anchor="start" x="244.5" y="-390.8" font-family="Helvetica,sans-Serif" font-size="11.00" fill="#000000">fname</text>
<polygon fill="#ffffff" stroke="transparent" points="224.5,-361.7 224.5,-383.7 501.5,-383.7 501.5,-361.7 224.5,-361.7"/>
<polygon fill="none" stroke="#000000" points="224.5,-361.7 224.5,-383.7 501.5,-383.7 501.5,-361.7 224.5,-361.7"/>
<text text-anchor="start" x="244.5" y="-368.8" font-family="Helvetica,sans-Serif" font-size="11.00" fill="#000000">lname</text>
<polygon fill="#ffffff" stroke="transparent" points="224.5,-339.7 224.5,-361.7 501.5,-361.7 501.5,-339.7 224.5,-339.7"/>
<polygon fill="none" stroke="#000000" points="224.5,-339.7 224.5,-361.7 501.5,-361.7 501.5,-339.7 224.5,-339.7"/>
<text text-anchor="start" x="244.5" y="-346.8" font-family="Helvetica,sans-Serif" font-size="11.00" fill="#000000">DOB</text>
<polygon fill="none" stroke="#000000" points="224.5,-317.7 224.5,-339.7 501.5,-339.7 501.5,-317.7 224.5,-317.7"/>
<image xlink:href="../../images/foreignKeys.png" width="11px" height="12px" preserveAspectRatio="xMinYMin meet" x="229.5" y="-334.7"/>
<text text-anchor="start" x="244.5" y="-324.8" font-family="Helvetica,sans-Serif" font-size="11.00" fill="#000000">pharmacy_id</text>
<polygon fill="none" stroke="#000000" points="224.5,-295.7 224.5,-317.7 501.5,-317.7 501.5,-295.7 224.5,-295.7"/>
<image xlink:href="../../images/foreignKeys.png" width="11px" height="12px" preserveAspectRatio="xMinYMin meet" x="229.5" y="-312.7"/>
<text text-anchor="start" x="244.5" y="-302.8" font-family="Helvetica,sans-Serif" font-size="11.00" fill="#000000">providerID</text>
<polygon fill="none" stroke="#000000" points="224.5,-273.7 224.5,-295.7 501.5,-295.7 501.5,-273.7 224.5,-273.7"/>
<image xlink:href="../../images/foreignKeys.png" width="11px" height="12px" preserveAspectRatio="xMinYMin meet" x="229.5" y="-290.7"/>
<text text-anchor="start" x="244.5" y="-280.8" font-family="Helvetica,sans-Serif" font-size="11.00" fill="#000000">ref_providerID</text>
<polygon fill="none" stroke="#000000" points="224.5,-251.7 224.5,-273.7 501.5,-273.7 501.5,-251.7 224.5,-251.7"/>
<image xlink:href="../../images/foreignKeys.png" width="11px" height="12px" preserveAspectRatio="xMinYMin meet" x="229.5" y="-268.7"/>
<text text-anchor="start" x="244.5" y="-258.8" font-family="Helvetica,sans-Serif" font-size="11.00" fill="#000000">interpreter_needed</text>
<polygon fill="none" stroke="#000000" points="224.5,-229.7 224.5,-251.7 501.5,-251.7 501.5,-229.7 224.5,-229.7"/>
<image xlink:href="../../images/primaryKeys.png" width="11px" height="12px" preserveAspectRatio="xMinYMin meet" x="229.5" y="-246.7"/>
<text text-anchor="start" x="244.5" y="-236.8" font-family="Helvetica,sans-Serif" font-size="11.00" fill="#000000">pid</text>
<polygon fill="none" stroke="#000000" points="224.5,-207.7 224.5,-229.7 501.5,-229.7 501.5,-207.7 224.5,-207.7"/>
<image xlink:href="../../images/foreignKeys.png" width="11px" height="12px" preserveAspectRatio="xMinYMin meet" x="229.5" y="-224.7"/>
<text text-anchor="start" x="244.5" y="-214.8" font-family="Helvetica,sans-Serif" font-size="11.00" fill="#000000">advance_directive_user_authenticator</text>
<polygon fill="none" stroke="#000000" points="224.5,-185.7 224.5,-207.7 501.5,-207.7 501.5,-185.7 224.5,-185.7"/>
<image xlink:href="../../images/foreignKeys.png" width="11px" height="12px" preserveAspectRatio="xMinYMin meet" x="229.5" y="-202.7"/>
<text text-anchor="start" x="244.5" y="-192.8" font-family="Helvetica,sans-Serif" font-size="11.00" fill="#000000">created_by</text>
<polygon fill="none" stroke="#000000" points="224.5,-163.7 224.5,-185.7 501.5,-185.7 501.5,-163.7 224.5,-163.7"/>
<image xlink:href="../../images/foreignKeys.png" width="11px" height="12px" preserveAspectRatio="xMinYMin meet" x="229.5" y="-180.7"/>
<text text-anchor="start" x="244.5" y="-170.8" font-family="Helvetica,sans-Serif" font-size="11.00" fill="#000000">updated_by</text>
<polygon fill="none" stroke="#000000" points="224.5,-141.7 224.5,-163.7 501.5,-163.7 501.5,-141.7 224.5,-141.7"/>
<image xlink:href="../../images/foreignKeys.png" width="11px" height="12px" preserveAspectRatio="xMinYMin meet" x="229.5" y="-158.7"/>
<text text-anchor="start" x="244.5" y="-148.8" font-family="Helvetica,sans-Serif" font-size="11.00" fill="#000000">tribal_affiliations</text>
<polygon fill="none" stroke="#000000" points="224.5,-119.7 224.5,-141.7 501.5,-141.7 501.5,-119.7 224.5,-119.7"/>
<image xlink:href="../../images/foreignKeys.png" width="11px" height="12px" preserveAspectRatio="xMinYMin meet" x="229.5" y="-136.7"/>
<text text-anchor="start" x="244.5" y="-126.8" font-family="Helvetica,sans-Serif" font-size="11.00" fill="#000000">sex_identified</text>
<polygon fill="none" stroke="#000000" points="224.5,-100.7 224.5,-119.7 501.5,-119.7 501.5,-100.7 224.5,-100.7"/>
<text text-anchor="start" x="227.5" y="-106.8" font-family="Helvetica,sans-Serif" font-size="11.00" fill="#000000">...</text>
<polygon fill="#ffffff" stroke="transparent" points="224.5,-81.7 224.5,-100.7 353.5,-100.7 353.5,-81.7 224.5,-81.7"/>
<polygon fill="none" stroke="#000000" points="224.5,-81.7 224.5,-100.7 353.5,-100.7 353.5,-81.7 224.5,-81.7"/>
<text text-anchor="start" x="227.5" y="-87.8" font-family="Helvetica,sans-Serif" font-size="11.00" fill="#000000">&lt; 9</text>
<polygon fill="#ffffff" stroke="transparent" points="353.5,-81.7 353.5,-100.7 419.5,-100.7 419.5,-81.7 353.5,-81.7"/>
<polygon fill="none" stroke="#000000" points="353.5,-81.7 353.5,-100.7 419.5,-100.7 419.5,-81.7 353.5,-81.7"/>
<text text-anchor="start" x="410.3862" y="-87.8" font-family="Helvetica,sans-Serif" font-size="11.00" fill="#000000"> &#160;</text>
<polygon fill="#ffffff" stroke="transparent" points="419.5,-81.7 419.5,-100.7 501.5,-100.7 501.5,-81.7 419.5,-81.7"/>
<polygon fill="none" stroke="#000000" points="419.5,-81.7 419.5,-100.7 501.5,-100.7 501.5,-81.7 419.5,-81.7"/>
<text text-anchor="start" x="476.7904" y="-87.8" font-family="Helvetica,sans-Serif" font-size="11.00" fill="#000000">95 &gt;</text>
</a>
</g>
</g>
<!-- users -->
<g id="node2" class="node">
<title>users</title>
<g id="a_node2"><a xlink:href="../../tables/users.html" xlink:title="users" target="_top">
<polygon fill="#ffffff" stroke="transparent" points="8,-38.2 8,-253.2 175,-253.2 175,-38.2 8,-38.2"/>
<polygon fill="#f5f5f5" stroke="transparent" points="8.5,-229.7 8.5,-252.7 175.5,-252.7 175.5,-229.7 8.5,-229.7"/>
<polygon fill="none" stroke="#000000" points="8.5,-229.7 8.5,-252.7 175.5,-252.7 175.5,-229.7 8.5,-229.7"/>
<text text-anchor="start" x="13.5" y="-238.3" font-family="Helvetica,sans-Serif" font-weight="bold" font-size="11.00" fill="#000000">users</text>
<text text-anchor="start" x="140.5437" y="-237.8" font-family="Helvetica,sans-Serif" font-size="11.00" fill="#000000">[table]</text>
<polygon fill="none" stroke="#000000" points="8.5,-207.7 8.5,-229.7 175.5,-229.7 175.5,-207.7 8.5,-207.7"/>
<image xlink:href="../../images/primaryKeys.png" width="11px" height="12px" preserveAspectRatio="xMinYMin meet" x="13.5" y="-224.7"/>
<text text-anchor="start" x="28.5" y="-214.8" font-family="Helvetica,sans-Serif" font-size="11.00" fill="#000000">id</text>
<polygon fill="#ffffff" stroke="transparent" points="8.5,-185.7 8.5,-207.7 175.5,-207.7 175.5,-185.7 8.5,-185.7"/>
<polygon fill="none" stroke="#000000" points="8.5,-185.7 8.5,-207.7 175.5,-207.7 175.5,-185.7 8.5,-185.7"/>
<text text-anchor="start" x="28.5" y="-192.8" font-family="Helvetica,sans-Serif" font-size="11.00" fill="#000000">uuid</text>
<polygon fill="none" stroke="#000000" points="8.5,-163.7 8.5,-185.7 175.5,-185.7 175.5,-163.7 8.5,-163.7"/>
<image xlink:href="../../images/primaryKeys.png" width="11px" height="12px" preserveAspectRatio="xMinYMin meet" x="13.5" y="-180.7"/>
<text text-anchor="start" x="28.5" y="-170.8" font-family="Helvetica,sans-Serif" font-size="11.00" fill="#000000">username</text>
<polygon fill="none" stroke="#000000" points="8.5,-141.7 8.5,-163.7 175.5,-163.7 175.5,-141.7 8.5,-141.7"/>
<image xlink:href="../../images/foreignKeys.png" width="11px" height="12px" preserveAspectRatio="xMinYMin meet" x="13.5" y="-158.7"/>
<text text-anchor="start" x="28.5" y="-148.8" font-family="Helvetica,sans-Serif" font-size="11.00" fill="#000000">facility_id</text>
<polygon fill="#ffffff" stroke="transparent" points="8.5,-119.7 8.5,-141.7 175.5,-141.7 175.5,-119.7 8.5,-119.7"/>
<polygon fill="none" stroke="#000000" points="8.5,-119.7 8.5,-141.7 175.5,-141.7 175.5,-119.7 8.5,-119.7"/>
<text text-anchor="start" x="28.5" y="-126.8" font-family="Helvetica,sans-Serif" font-size="11.00" fill="#000000">google_signin_email</text>
<polygon fill="#ffffff" stroke="transparent" points="8.5,-97.7 8.5,-119.7 175.5,-119.7 175.5,-97.7 8.5,-97.7"/>
<polygon fill="none" stroke="#000000" points="8.5,-97.7 8.5,-119.7 175.5,-119.7 175.5,-97.7 8.5,-97.7"/>
<text text-anchor="start" x="28.5" y="-104.8" font-family="Helvetica,sans-Serif" font-size="11.00" fill="#000000">abook_type</text>
<polygon fill="none" stroke="#000000" points="8.5,-75.7 8.5,-97.7 175.5,-97.7 175.5,-75.7 8.5,-75.7"/>
<image xlink:href="../../images/foreignKeys.png" width="11px" height="12px" preserveAspectRatio="xMinYMin meet" x="13.5" y="-92.7"/>
<text text-anchor="start" x="28.5" y="-82.8" font-family="Helvetica,sans-Serif" font-size="11.00" fill="#000000">billing_facility_id</text>
<polygon fill="none" stroke="#000000" points="8.5,-56.7 8.5,-75.7 175.5,-75.7 175.5,-56.7 8.5,-56.7"/>
<text text-anchor="start" x="11.5" y="-62.8" font-family="Helvetica,sans-Serif" font-size="11.00" fill="#000000">...</text>
<polygon fill="#ffffff" stroke="transparent" points="8.5,-37.7 8.5,-56.7 82.5,-56.7 82.5,-37.7 8.5,-37.7"/>
<polygon fill="none" stroke="#000000" points="8.5,-37.7 8.5,-56.7 82.5,-56.7 82.5,-37.7 8.5,-37.7"/>
<text text-anchor="start" x="11.5" y="-43.8" font-family="Helvetica,sans-Serif" font-size="11.00" fill="#000000">&lt; 2</text>
<polygon fill="#ffffff" stroke="transparent" points="82.5,-37.7 82.5,-56.7 121.5,-56.7 121.5,-37.7 82.5,-37.7"/>
<polygon fill="none" stroke="#000000" points="82.5,-37.7 82.5,-56.7 121.5,-56.7 121.5,-37.7 82.5,-37.7"/>
<text text-anchor="start" x="112.3862" y="-43.8" font-family="Helvetica,sans-Serif" font-size="11.00" fill="#000000"> &#160;</text>
<polygon fill="#ffffff" stroke="transparent" points="121.5,-37.7 121.5,-56.7 175.5,-56.7 175.5,-37.7 121.5,-37.7"/>
<polygon fill="none" stroke="#000000" points="121.5,-37.7 121.5,-56.7 175.5,-56.7 175.5,-37.7 121.5,-37.7"/>
<text text-anchor="start" x="150.7904" y="-43.8" font-family="Helvetica,sans-Serif" font-size="11.00" fill="#000000">90 &gt;</text>
</a>
</g>
</g>
<!-- patient_data&#45;&gt;users -->
<g id="edge1" class="edge">
<title>patient_data:w&#45;&gt;users:e</title>
<path fill="none" stroke="#000000" d="M209.9909,-218.7C198.6774,-218.7 191.4931,-218.7 175.5,-218.7"/>
<polygon fill="#000000" stroke="#000000" points="216.5,-218.7001 224.5,-222.3 220.5,-218.7 224.5,-218.7 224.5,-218.7 224.5,-218.7 220.5,-218.7 224.5,-215.1 216.5,-218.7001 216.5,-218.7001"/>
<ellipse fill="none" stroke="#000000" cx="213.3" cy="-218.7001" rx="3.2" ry="3.2"/>
</g>
<!-- patient_data&#45;&gt;users -->
<g id="edge2" class="edge">
<title>patient_data:w&#45;&gt;users:e</title>
<path fill="none" stroke="#000000" d="M210.1297,-200.1375C198.5865,-206.325 193.4041,-218.7 175.5,-218.7"/>
<polygon fill="#000000" stroke="#000000" points="216.7195,-198.5612 225.3375,-200.2012 220.6098,-197.6306 224.5,-196.7 224.5,-196.7 224.5,-196.7 220.6098,-197.6306 223.6625,-193.1988 216.7195,-198.5612 216.7195,-198.5612"/>
<ellipse fill="none" stroke="#000000" cx="213.6073" cy="-199.3057" rx="3.2" ry="3.2"/>
</g>
<!-- patient_data&#45;&gt;users -->
<g id="edge3" class="edge">
<title>patient_data:w&#45;&gt;users:e</title>
<path fill="none" stroke="#000000" d="M210.4863,-302.2151C189.2228,-284.2824 214.1452,-218.7 175.5,-218.7"/>
<polygon fill="#000000" stroke="#000000" points="216.8807,-304.2615 223.4027,-310.1287 220.6903,-305.4807 224.5,-306.7 224.5,-306.7 224.5,-306.7 220.6903,-305.4807 225.5973,-303.2713 216.8807,-304.2615 216.8807,-304.2615"/>
<ellipse fill="none" stroke="#000000" cx="213.833" cy="-303.2861" rx="3.2" ry="3.2"/>
</g>
<!-- patient_data&#45;&gt;users -->
<g id="edge4" class="edge">
<title>patient_data:w&#45;&gt;users:e</title>
<path fill="none" stroke="#000000" d="M210.8768,-279.9534C194.2322,-264.8202 206.0399,-218.7 175.5,-218.7"/>
<polygon fill="#000000" stroke="#000000" points="216.9454,-282.0678 223.3155,-288.0996 220.7227,-283.3839 224.5,-284.7 224.5,-284.7 224.5,-284.7 220.7227,-283.3839 225.6845,-281.3004 216.9454,-282.0678 216.9454,-282.0678"/>
<ellipse fill="none" stroke="#000000" cx="213.9236" cy="-281.0149" rx="3.2" ry="3.2"/>
</g>
<!-- patient_data&#45;&gt;users -->
<g id="edge5" class="edge">
<title>patient_data:w&#45;&gt;users:e</title>
<path fill="none" stroke="#000000" d="M210.8171,-179.4088C197.5046,-190.7596 198.824,-218.7 175.5,-218.7"/>
<polygon fill="#000000" stroke="#000000" points="216.9354,-177.3033 225.6715,-178.1041 220.7177,-176.0016 224.5,-174.7 224.5,-174.7 224.5,-174.7 220.7177,-176.0016 223.3285,-171.2959 216.9354,-177.3033 216.9354,-177.3033"/>
<ellipse fill="none" stroke="#000000" cx="213.9096" cy="-178.3446" rx="3.2" ry="3.2"/>
</g>
<!-- person_patient_link -->
<g id="node3" class="node">
<title>person_patient_link</title>
<g id="a_node3"><a xlink:href="../../tables/person_patient_link.html" xlink:title="person_patient_link" target="_top">
<polygon fill="#ffffff" stroke="transparent" points="550,-296.7 550,-518.7 773,-518.7 773,-296.7 550,-296.7"/>
<polygon fill="#f5f5f5" stroke="transparent" points="552.5,-493.7 552.5,-516.7 771.5,-516.7 771.5,-493.7 552.5,-493.7"/>
<polygon fill="none" stroke="#000000" points="552.5,-493.7 552.5,-516.7 771.5,-516.7 771.5,-493.7 552.5,-493.7"/>
<text text-anchor="start" x="557.5" y="-502.3" font-family="Helvetica,sans-Serif" font-weight="bold" font-size="11.00" fill="#000000">person_patient_link</text>
<text text-anchor="start" x="736.5437" y="-501.8" font-family="Helvetica,sans-Serif" font-size="11.00" fill="#000000">[table]</text>
<polygon fill="none" stroke="#000000" points="552.5,-471.7 552.5,-493.7 705.5,-493.7 705.5,-471.7 552.5,-471.7"/>
<image xlink:href="../../images/primaryKeys.png" width="11px" height="12px" preserveAspectRatio="xMinYMin meet" x="557.5" y="-488.7"/>
<text text-anchor="start" x="572.5" y="-478.8" font-family="Helvetica,sans-Serif" font-size="11.00" fill="#000000">id</text>
<polygon fill="none" stroke="#000000" points="705.5,-471.7 705.5,-493.7 771.5,-493.7 771.5,-471.7 705.5,-471.7"/>
<text text-anchor="start" x="708.5" y="-479.4" font-family="Helvetica,sans-Serif" font-size="11.00" fill="#000000">bigint[19]</text>
<polygon fill="#ffffff" stroke="transparent" points="552.5,-449.7 552.5,-471.7 705.5,-471.7 705.5,-449.7 552.5,-449.7"/>
<polygon fill="none" stroke="#000000" points="552.5,-449.7 552.5,-471.7 705.5,-471.7 705.5,-449.7 552.5,-449.7"/>
<image xlink:href="../../images/foreignKeys.png" width="11px" height="12px" preserveAspectRatio="xMinYMin meet" x="557.5" y="-466.7"/>
<text text-anchor="start" x="572.5" y="-456.8" font-family="Helvetica,sans-Serif" font-size="11.00" fill="#000000">person_id</text>
<polygon fill="none" stroke="#000000" points="705.5,-449.7 705.5,-471.7 771.5,-471.7 771.5,-449.7 705.5,-449.7"/>
<text text-anchor="start" x="708.5" y="-457.4" font-family="Helvetica,sans-Serif" font-size="11.00" fill="#000000">bigint[19]</text>
<polygon fill="#ffffff" stroke="transparent" points="552.5,-427.7 552.5,-449.7 705.5,-449.7 705.5,-427.7 552.5,-427.7"/>
<polygon fill="none" stroke="#000000" points="552.5,-427.7 552.5,-449.7 705.5,-449.7 705.5,-427.7 552.5,-427.7"/>
<image xlink:href="../../images/foreignKeys.png" width="11px" height="12px" preserveAspectRatio="xMinYMin meet" x="557.5" y="-444.7"/>
<text text-anchor="start" x="572.5" y="-434.8" font-family="Helvetica,sans-Serif" font-size="11.00" fill="#000000">patient_id</text>
<polygon fill="none" stroke="#000000" points="705.5,-427.7 705.5,-449.7 771.5,-449.7 771.5,-427.7 705.5,-427.7"/>
<text text-anchor="start" x="708.5" y="-435.4" font-family="Helvetica,sans-Serif" font-size="11.00" fill="#000000">bigint[19]</text>
<polygon fill="#ffffff" stroke="transparent" points="552.5,-405.7 552.5,-427.7 705.5,-427.7 705.5,-405.7 552.5,-405.7"/>
<polygon fill="none" stroke="#000000" points="552.5,-405.7 552.5,-427.7 705.5,-427.7 705.5,-405.7 552.5,-405.7"/>
<text text-anchor="start" x="572.5" y="-412.8" font-family="Helvetica,sans-Serif" font-size="11.00" fill="#000000">linked_date</text>
<polygon fill="none" stroke="#000000" points="705.5,-405.7 705.5,-427.7 771.5,-427.7 771.5,-405.7 705.5,-405.7"/>
<text text-anchor="start" x="708.2401" y="-413.4" font-family="Helvetica,sans-Serif" font-size="11.00" fill="#000000">datetime[19]</text>
<polygon fill="none" stroke="#000000" points="552.5,-383.7 552.5,-405.7 705.5,-405.7 705.5,-383.7 552.5,-383.7"/>
<image xlink:href="../../images/foreignKeys.png" width="11px" height="12px" preserveAspectRatio="xMinYMin meet" x="557.5" y="-400.7"/>
<text text-anchor="start" x="572.5" y="-390.8" font-family="Helvetica,sans-Serif" font-size="11.00" fill="#000000">linked_by</text>
<polygon fill="none" stroke="#000000" points="705.5,-383.7 705.5,-405.7 771.5,-405.7 771.5,-383.7 705.5,-383.7"/>
<text text-anchor="start" x="708.5" y="-391.4" font-family="Helvetica,sans-Serif" font-size="11.00" fill="#000000">bigint[19]</text>
<polygon fill="#ffffff" stroke="transparent" points="552.5,-361.7 552.5,-383.7 705.5,-383.7 705.5,-361.7 552.5,-361.7"/>
<polygon fill="none" stroke="#000000" points="552.5,-361.7 552.5,-383.7 705.5,-383.7 705.5,-361.7 552.5,-361.7"/>
<text text-anchor="start" x="572.5" y="-368.8" font-family="Helvetica,sans-Serif" font-size="11.00" fill="#000000">link_method</text>
<polygon fill="none" stroke="#000000" points="705.5,-361.7 705.5,-383.7 771.5,-383.7 771.5,-361.7 705.5,-361.7"/>
<text text-anchor="start" x="708.5" y="-369.4" font-family="Helvetica,sans-Serif" font-size="11.00" fill="#000000">varchar[50]</text>
<polygon fill="none" stroke="#000000" points="552.5,-339.7 552.5,-361.7 705.5,-361.7 705.5,-339.7 552.5,-339.7"/>
<text text-anchor="start" x="572.5" y="-346.8" font-family="Helvetica,sans-Serif" font-size="11.00" fill="#000000">notes</text>
<polygon fill="none" stroke="#000000" points="705.5,-339.7 705.5,-361.7 771.5,-361.7 771.5,-339.7 705.5,-339.7"/>
<text text-anchor="start" x="708.5" y="-347.4" font-family="Helvetica,sans-Serif" font-size="11.00" fill="#000000">text[65535]</text>
<polygon fill="#ffffff" stroke="transparent" points="552.5,-317.7 552.5,-339.7 705.5,-339.7 705.5,-317.7 552.5,-317.7"/>
<polygon fill="none" stroke="#000000" points="552.5,-317.7 552.5,-339.7 705.5,-339.7 705.5,-317.7 552.5,-317.7"/>
<text text-anchor="start" x="572.5" y="-324.8" font-family="Helvetica,sans-Serif" font-size="11.00" fill="#000000">active</text>
<polygon fill="none" stroke="#000000" points="705.5,-317.7 705.5,-339.7 771.5,-339.7 771.5,-317.7 705.5,-317.7"/>
<text text-anchor="start" x="708.5" y="-325.4" font-family="Helvetica,sans-Serif" font-size="11.00" fill="#000000">boolean[3]</text>
<polygon fill="#ffffff" stroke="transparent" points="552.5,-298.7 552.5,-317.7 633.5,-317.7 633.5,-298.7 552.5,-298.7"/>
<polygon fill="none" stroke="#000000" points="552.5,-298.7 552.5,-317.7 633.5,-317.7 633.5,-298.7 552.5,-298.7"/>
<text text-anchor="start" x="555.5" y="-304.8" font-family="Helvetica,sans-Serif" font-size="11.00" fill="#000000">&lt; 3</text>
<polygon fill="#ffffff" stroke="transparent" points="633.5,-298.7 633.5,-317.7 705.5,-317.7 705.5,-298.7 633.5,-298.7"/>
<polygon fill="none" stroke="#000000" points="633.5,-298.7 633.5,-317.7 705.5,-317.7 705.5,-298.7 633.5,-298.7"/>
<text text-anchor="start" x="696.3862" y="-304.8" font-family="Helvetica,sans-Serif" font-size="11.00" fill="#000000"> &#160;</text>
<polygon fill="#ffffff" stroke="transparent" points="705.5,-298.7 705.5,-317.7 771.5,-317.7 771.5,-298.7 705.5,-298.7"/>
<polygon fill="none" stroke="#000000" points="705.5,-298.7 705.5,-317.7 771.5,-317.7 771.5,-298.7 705.5,-298.7"/>
<text text-anchor="start" x="752.9053" y="-304.8" font-family="Helvetica,sans-Serif" font-size="11.00" fill="#000000">0 &gt;</text>
<polygon fill="none" stroke="#000000" stroke-width="2" points="551,-297.7 551,-517.7 772,-517.7 772,-297.7 551,-297.7"/>
</a>
</g>
</g>
<!-- person_patient_link&#45;&gt;patient_data -->
<g id="edge7" class="edge">
<title>person_patient_link:w&#45;&gt;patient_data:e</title>
<path fill="none" stroke="#000000" d="M537.776,-438.7C525.7815,-438.7 518.3229,-438.7 501.5,-438.7"/>
<polygon fill="#000000" stroke="#000000" points="544.5,-438.7001 552.5,-442.3 548.5,-438.7 552.5,-438.7 552.5,-438.7 552.5,-438.7 548.5,-438.7 552.5,-435.1 544.5,-438.7001 544.5,-438.7001"/>
<ellipse fill="none" stroke="#000000" cx="541.3" cy="-438.7001" rx="3.2" ry="3.2"/>
</g>
<!-- person_patient_link&#45;&gt;users -->
<g id="edge6" class="edge">
<title>person_patient_link:w&#45;&gt;users:e</title>
<path fill="none" stroke="#000000" d="M538.5329,-390.1298C491.9866,-354.0765 559.3703,-115.7414 509,-71.7 459.9832,-28.842 267.7953,-32.245 216,-71.7 162.0915,-112.7648 243.2676,-218.7 175.5,-218.7"/>
<polygon fill="#000000" stroke="#000000" points="544.8967,-392.2121 551.3804,-398.1215 548.6983,-393.456 552.5,-394.7 552.5,-394.7 552.5,-394.7 548.6983,-393.456 553.6196,-391.2785 544.8967,-392.2121 544.8967,-392.2121"/>
<ellipse fill="none" stroke="#000000" cx="541.8554" cy="-391.2169" rx="3.2" ry="3.2"/>
</g>
<!-- person_patient_link&#45;&gt;users -->
<g id="edge8" class="edge">
<title>person_patient_link:w&#45;&gt;users:e</title>
<path fill="none" stroke="#000000" d="M538.2006,-464.2364C528.756,-469.6891 524.2561,-479.915 509,-483.7 382.6095,-515.0569 314.7921,-568.5408 216,-483.7 170.8057,-444.888 235.0727,-218.7 175.5,-218.7"/>
<polygon fill="#000000" stroke="#000000" points="544.734,-462.6207 553.3643,-464.1947 548.617,-461.6603 552.5,-460.7 552.5,-460.7 552.5,-460.7 548.617,-461.6603 551.6357,-457.2053 544.734,-462.6207 544.734,-462.6207"/>
<ellipse fill="none" stroke="#000000" cx="541.6276" cy="-463.389" rx="3.2" ry="3.2"/>
</g>
</g>
</svg>
