<?xml version="1.0" encoding="UTF-8" standalone="no"?>
<!DOCTYPE svg PUBLIC "-//W3C//DTD SVG 1.1//EN"
 "http://www.w3.org/Graphics/SVG/1.1/DTD/svg11.dtd">
<!-- Generated by graphviz version 2.40.1 (20161225.0304)
 -->
<!-- Title: oneDegreeRelationshipsDiagram Pages: 1 -->
<svg width="465pt" height="751pt"
 viewBox="0.00 0.00 465.00 750.70" xmlns="http://www.w3.org/2000/svg" xmlns:xlink="http://www.w3.org/1999/xlink">
<g id="graph0" class="graph" transform="scale(1 1) rotate(0) translate(4 746.7)">
<title>oneDegreeRelationshipsDiagram</title>
<polygon fill="#ffffff" stroke="transparent" points="-4,4 -4,-746.7 461,-746.7 461,4 -4,4"/>
<text text-anchor="middle" x="72.4936" y="-7.3" font-family="Helvetica,sans-Serif" font-size="11.00" fill="#000000">Generated by SchemaSpy</text>
<!-- person -->
<g id="node1" class="node">
<title>person</title>
<g id="a_node1"><a xlink:href="../../tables/person.html" xlink:title="person" target="_top">
<polygon fill="#ffffff" stroke="transparent" points="224,-164.7 224,-738.7 449,-738.7 449,-164.7 224,-164.7"/>
<polygon fill="#f5f5f5" stroke="transparent" points="226.5,-713.7 226.5,-736.7 447.5,-736.7 447.5,-713.7 226.5,-713.7"/>
<polygon fill="none" stroke="#000000" points="226.5,-713.7 226.5,-736.7 447.5,-736.7 447.5,-713.7 226.5,-713.7"/>
<text text-anchor="start" x="231.5" y="-722.3" font-family="Helvetica,sans-Serif" font-weight="bold" font-size="11.00" fill="#000000">person</text>
<text text-anchor="start" x="412.5437" y="-721.8" font-family="Helvetica,sans-Serif" font-size="11.00" fill="#000000">[table]</text>
<polygon fill="none" stroke="#000000" points="226.5,-691.7 226.5,-713.7 380.5,-713.7 380.5,-691.7 226.5,-691.7"/>
<image xlink:href="../../images/primaryKeys.png" width="11px" height="12px" preserveAspectRatio="xMinYMin meet" x="231.5" y="-708.7"/>
<text text-anchor="start" x="246.5" y="-698.8" font-family="Helvetica,sans-Serif" font-size="11.00" fill="#000000">id</text>
<polygon fill="none" stroke="#000000" points="380.5,-691.7 380.5,-713.7 447.5,-713.7 447.5,-691.7 380.5,-691.7"/>
<text text-anchor="start" x="383.5" y="-699.4" font-family="Helvetica,sans-Serif" font-size="11.00" fill="#000000">bigint[19]</text>
<polygon fill="#ffffff" stroke="transparent" points="226.5,-669.7 226.5,-691.7 380.5,-691.7 380.5,-669.7 226.5,-669.7"/>
<polygon fill="none" stroke="#000000" points="226.5,-669.7 226.5,-691.7 380.5,-691.7 380.5,-669.7 226.5,-669.7"/>
<text text-anchor="start" x="246.5" y="-676.8" font-family="Helvetica,sans-Serif" font-size="11.00" fill="#000000">uuid</text>
<polygon fill="none" stroke="#000000" points="380.5,-669.7 380.5,-691.7 447.5,-691.7 447.5,-669.7 380.5,-669.7"/>
<text text-anchor="start" x="383.5" y="-677.4" font-family="Helvetica,sans-Serif" font-size="11.00" fill="#000000">binary[16]</text>
<polygon fill="none" stroke="#000000" points="226.5,-647.7 226.5,-669.7 380.5,-669.7 380.5,-647.7 226.5,-647.7"/>
<text text-anchor="start" x="246.5" y="-654.8" font-family="Helvetica,sans-Serif" font-size="11.00" fill="#000000">title</text>
<polygon fill="none" stroke="#000000" points="380.5,-647.7 380.5,-669.7 447.5,-669.7 447.5,-647.7 380.5,-647.7"/>
<text text-anchor="start" x="383.5" y="-655.4" font-family="Helvetica,sans-Serif" font-size="11.00" fill="#000000">varchar[31]</text>
<polygon fill="#ffffff" stroke="transparent" points="226.5,-625.7 226.5,-647.7 380.5,-647.7 380.5,-625.7 226.5,-625.7"/>
<polygon fill="none" stroke="#000000" points="226.5,-625.7 226.5,-647.7 380.5,-647.7 380.5,-625.7 226.5,-625.7"/>
<text text-anchor="start" x="246.5" y="-632.8" font-family="Helvetica,sans-Serif" font-size="11.00" fill="#000000">first_name</text>
<polygon fill="none" stroke="#000000" points="380.5,-625.7 380.5,-647.7 447.5,-647.7 447.5,-625.7 380.5,-625.7"/>
<text text-anchor="start" x="383.5" y="-633.4" font-family="Helvetica,sans-Serif" font-size="11.00" fill="#000000">varchar[63]</text>
<polygon fill="none" stroke="#000000" points="226.5,-603.7 226.5,-625.7 380.5,-625.7 380.5,-603.7 226.5,-603.7"/>
<text text-anchor="start" x="246.5" y="-610.8" font-family="Helvetica,sans-Serif" font-size="11.00" fill="#000000">middle_name</text>
<polygon fill="none" stroke="#000000" points="380.5,-603.7 380.5,-625.7 447.5,-625.7 447.5,-603.7 380.5,-603.7"/>
<text text-anchor="start" x="383.5" y="-611.4" font-family="Helvetica,sans-Serif" font-size="11.00" fill="#000000">varchar[63]</text>
<polygon fill="#ffffff" stroke="transparent" points="226.5,-581.7 226.5,-603.7 380.5,-603.7 380.5,-581.7 226.5,-581.7"/>
<polygon fill="none" stroke="#000000" points="226.5,-581.7 226.5,-603.7 380.5,-603.7 380.5,-581.7 226.5,-581.7"/>
<text text-anchor="start" x="246.5" y="-588.8" font-family="Helvetica,sans-Serif" font-size="11.00" fill="#000000">last_name</text>
<polygon fill="none" stroke="#000000" points="380.5,-581.7 380.5,-603.7 447.5,-603.7 447.5,-581.7 380.5,-581.7"/>
<text text-anchor="start" x="383.5" y="-589.4" font-family="Helvetica,sans-Serif" font-size="11.00" fill="#000000">varchar[63]</text>
<polygon fill="none" stroke="#000000" points="226.5,-559.7 226.5,-581.7 380.5,-581.7 380.5,-559.7 226.5,-559.7"/>
<text text-anchor="start" x="246.5" y="-566.8" font-family="Helvetica,sans-Serif" font-size="11.00" fill="#000000">preferred_name</text>
<polygon fill="none" stroke="#000000" points="380.5,-559.7 380.5,-581.7 447.5,-581.7 447.5,-559.7 380.5,-559.7"/>
<text text-anchor="start" x="383.5" y="-567.4" font-family="Helvetica,sans-Serif" font-size="11.00" fill="#000000">varchar[63]</text>
<polygon fill="none" stroke="#000000" points="226.5,-537.7 226.5,-559.7 380.5,-559.7 380.5,-537.7 226.5,-537.7"/>
<text text-anchor="start" x="246.5" y="-544.8" font-family="Helvetica,sans-Serif" font-size="11.00" fill="#000000">gender</text>
<polygon fill="none" stroke="#000000" points="380.5,-537.7 380.5,-559.7 447.5,-559.7 447.5,-537.7 380.5,-537.7"/>
<text text-anchor="start" x="383.5" y="-545.4" font-family="Helvetica,sans-Serif" font-size="11.00" fill="#000000">varchar[31]</text>
<polygon fill="#ffffff" stroke="transparent" points="226.5,-515.7 226.5,-537.7 380.5,-537.7 380.5,-515.7 226.5,-515.7"/>
<polygon fill="none" stroke="#000000" points="226.5,-515.7 226.5,-537.7 380.5,-537.7 380.5,-515.7 226.5,-515.7"/>
<text text-anchor="start" x="246.5" y="-522.8" font-family="Helvetica,sans-Serif" font-size="11.00" fill="#000000">birth_date</text>
<polygon fill="none" stroke="#000000" points="380.5,-515.7 380.5,-537.7 447.5,-537.7 447.5,-515.7 380.5,-515.7"/>
<text text-anchor="start" x="383.5" y="-523.4" font-family="Helvetica,sans-Serif" font-size="11.00" fill="#000000">date[10]</text>
<polygon fill="none" stroke="#000000" points="226.5,-493.7 226.5,-515.7 380.5,-515.7 380.5,-493.7 226.5,-493.7"/>
<text text-anchor="start" x="246.5" y="-500.8" font-family="Helvetica,sans-Serif" font-size="11.00" fill="#000000">death_date</text>
<polygon fill="none" stroke="#000000" points="380.5,-493.7 380.5,-515.7 447.5,-515.7 447.5,-493.7 380.5,-493.7"/>
<text text-anchor="start" x="383.5" y="-501.4" font-family="Helvetica,sans-Serif" font-size="11.00" fill="#000000">date[10]</text>
<polygon fill="none" stroke="#000000" points="226.5,-471.7 226.5,-493.7 380.5,-493.7 380.5,-471.7 226.5,-471.7"/>
<text text-anchor="start" x="246.5" y="-478.8" font-family="Helvetica,sans-Serif" font-size="11.00" fill="#000000">marital_status</text>
<polygon fill="none" stroke="#000000" points="380.5,-471.7 380.5,-493.7 447.5,-493.7 447.5,-471.7 380.5,-471.7"/>
<text text-anchor="start" x="383.5" y="-479.4" font-family="Helvetica,sans-Serif" font-size="11.00" fill="#000000">varchar[31]</text>
<polygon fill="none" stroke="#000000" points="226.5,-449.7 226.5,-471.7 380.5,-471.7 380.5,-449.7 226.5,-449.7"/>
<text text-anchor="start" x="246.5" y="-456.8" font-family="Helvetica,sans-Serif" font-size="11.00" fill="#000000">race</text>
<polygon fill="none" stroke="#000000" points="380.5,-449.7 380.5,-471.7 447.5,-471.7 447.5,-449.7 380.5,-449.7"/>
<text text-anchor="start" x="383.5" y="-457.4" font-family="Helvetica,sans-Serif" font-size="11.00" fill="#000000">varchar[63]</text>
<polygon fill="none" stroke="#000000" points="226.5,-427.7 226.5,-449.7 380.5,-449.7 380.5,-427.7 226.5,-427.7"/>
<text text-anchor="start" x="246.5" y="-434.8" font-family="Helvetica,sans-Serif" font-size="11.00" fill="#000000">ethnicity</text>
<polygon fill="none" stroke="#000000" points="380.5,-427.7 380.5,-449.7 447.5,-449.7 447.5,-427.7 380.5,-427.7"/>
<text text-anchor="start" x="383.5" y="-435.4" font-family="Helvetica,sans-Serif" font-size="11.00" fill="#000000">varchar[63]</text>
<polygon fill="none" stroke="#000000" points="226.5,-405.7 226.5,-427.7 380.5,-427.7 380.5,-405.7 226.5,-405.7"/>
<text text-anchor="start" x="246.5" y="-412.8" font-family="Helvetica,sans-Serif" font-size="11.00" fill="#000000">preferred_language</text>
<polygon fill="none" stroke="#000000" points="380.5,-405.7 380.5,-427.7 447.5,-427.7 447.5,-405.7 380.5,-405.7"/>
<text text-anchor="start" x="383.5" y="-413.4" font-family="Helvetica,sans-Serif" font-size="11.00" fill="#000000">varchar[63]</text>
<polygon fill="none" stroke="#000000" points="226.5,-383.7 226.5,-405.7 380.5,-405.7 380.5,-383.7 226.5,-383.7"/>
<text text-anchor="start" x="246.5" y="-390.8" font-family="Helvetica,sans-Serif" font-size="11.00" fill="#000000">communication</text>
<polygon fill="none" stroke="#000000" points="380.5,-383.7 380.5,-405.7 447.5,-405.7 447.5,-383.7 380.5,-383.7"/>
<text text-anchor="start" x="383.4365" y="-391.4" font-family="Helvetica,sans-Serif" font-size="11.00" fill="#000000">varchar[254]</text>
<polygon fill="none" stroke="#000000" points="226.5,-361.7 226.5,-383.7 380.5,-383.7 380.5,-361.7 226.5,-361.7"/>
<text text-anchor="start" x="246.5" y="-368.8" font-family="Helvetica,sans-Serif" font-size="11.00" fill="#000000">ssn</text>
<polygon fill="none" stroke="#000000" points="380.5,-361.7 380.5,-383.7 447.5,-383.7 447.5,-361.7 380.5,-361.7"/>
<text text-anchor="start" x="383.5" y="-369.4" font-family="Helvetica,sans-Serif" font-size="11.00" fill="#000000">varchar[31]</text>
<polygon fill="#ffffff" stroke="transparent" points="226.5,-339.7 226.5,-361.7 380.5,-361.7 380.5,-339.7 226.5,-339.7"/>
<polygon fill="none" stroke="#000000" points="226.5,-339.7 226.5,-361.7 380.5,-361.7 380.5,-339.7 226.5,-339.7"/>
<text text-anchor="start" x="246.5" y="-346.8" font-family="Helvetica,sans-Serif" font-size="11.00" fill="#000000">active</text>
<polygon fill="none" stroke="#000000" points="380.5,-339.7 380.5,-361.7 447.5,-361.7 447.5,-339.7 380.5,-339.7"/>
<text text-anchor="start" x="383.5" y="-347.4" font-family="Helvetica,sans-Serif" font-size="11.00" fill="#000000">boolean[3]</text>
<polygon fill="none" stroke="#000000" points="226.5,-317.7 226.5,-339.7 380.5,-339.7 380.5,-317.7 226.5,-317.7"/>
<text text-anchor="start" x="246.5" y="-324.8" font-family="Helvetica,sans-Serif" font-size="11.00" fill="#000000">inactive_reason</text>
<polygon fill="none" stroke="#000000" points="380.5,-317.7 380.5,-339.7 447.5,-339.7 447.5,-317.7 380.5,-317.7"/>
<text text-anchor="start" x="383.4365" y="-325.4" font-family="Helvetica,sans-Serif" font-size="11.00" fill="#000000">varchar[255]</text>
<polygon fill="none" stroke="#000000" points="226.5,-295.7 226.5,-317.7 380.5,-317.7 380.5,-295.7 226.5,-295.7"/>
<text text-anchor="start" x="246.5" y="-302.8" font-family="Helvetica,sans-Serif" font-size="11.00" fill="#000000">inactive_date</text>
<polygon fill="none" stroke="#000000" points="380.5,-295.7 380.5,-317.7 447.5,-317.7 447.5,-295.7 380.5,-295.7"/>
<text text-anchor="start" x="383.5" y="-303.4" font-family="Helvetica,sans-Serif" font-size="11.00" fill="#000000">datetime[19]</text>
<polygon fill="none" stroke="#000000" points="226.5,-273.7 226.5,-295.7 380.5,-295.7 380.5,-273.7 226.5,-273.7"/>
<text text-anchor="start" x="246.5" y="-280.8" font-family="Helvetica,sans-Serif" font-size="11.00" fill="#000000">notes</text>
<polygon fill="none" stroke="#000000" points="380.5,-273.7 380.5,-295.7 447.5,-295.7 447.5,-273.7 380.5,-273.7"/>
<text text-anchor="start" x="383.5" y="-281.4" font-family="Helvetica,sans-Serif" font-size="11.00" fill="#000000">text[65535]</text>
<polygon fill="none" stroke="#000000" points="226.5,-251.7 226.5,-273.7 380.5,-273.7 380.5,-251.7 226.5,-251.7"/>
<text text-anchor="start" x="246.5" y="-258.8" font-family="Helvetica,sans-Serif" font-size="11.00" fill="#000000">created_date</text>
<polygon fill="none" stroke="#000000" points="380.5,-251.7 380.5,-273.7 447.5,-273.7 447.5,-251.7 380.5,-251.7"/>
<text text-anchor="start" x="383.5" y="-259.4" font-family="Helvetica,sans-Serif" font-size="11.00" fill="#000000">datetime[19]</text>
<polygon fill="none" stroke="#000000" points="226.5,-229.7 226.5,-251.7 380.5,-251.7 380.5,-229.7 226.5,-229.7"/>
<image xlink:href="../../images/foreignKeys.png" width="11px" height="12px" preserveAspectRatio="xMinYMin meet" x="231.5" y="-246.7"/>
<text text-anchor="start" x="246.5" y="-236.8" font-family="Helvetica,sans-Serif" font-size="11.00" fill="#000000">created_by</text>
<polygon fill="none" stroke="#000000" points="380.5,-229.7 380.5,-251.7 447.5,-251.7 447.5,-229.7 380.5,-229.7"/>
<text text-anchor="start" x="383.5" y="-237.4" font-family="Helvetica,sans-Serif" font-size="11.00" fill="#000000">bigint[19]</text>
<polygon fill="none" stroke="#000000" points="226.5,-207.7 226.5,-229.7 380.5,-229.7 380.5,-207.7 226.5,-207.7"/>
<text text-anchor="start" x="246.5" y="-214.8" font-family="Helvetica,sans-Serif" font-size="11.00" fill="#000000">updated_date</text>
<polygon fill="none" stroke="#000000" points="380.5,-207.7 380.5,-229.7 447.5,-229.7 447.5,-207.7 380.5,-207.7"/>
<text text-anchor="start" x="383.5" y="-215.4" font-family="Helvetica,sans-Serif" font-size="11.00" fill="#000000">datetime[19]</text>
<polygon fill="none" stroke="#000000" points="226.5,-185.7 226.5,-207.7 380.5,-207.7 380.5,-185.7 226.5,-185.7"/>
<image xlink:href="../../images/foreignKeys.png" width="11px" height="12px" preserveAspectRatio="xMinYMin meet" x="231.5" y="-202.7"/>
<text text-anchor="start" x="246.5" y="-192.8" font-family="Helvetica,sans-Serif" font-size="11.00" fill="#000000">updated_by</text>
<polygon fill="none" stroke="#000000" points="380.5,-185.7 380.5,-207.7 447.5,-207.7 447.5,-185.7 380.5,-185.7"/>
<text text-anchor="start" x="383.5" y="-193.4" font-family="Helvetica,sans-Serif" font-size="11.00" fill="#000000">bigint[19]</text>
<polygon fill="#ffffff" stroke="transparent" points="226.5,-166.7 226.5,-185.7 307.5,-185.7 307.5,-166.7 226.5,-166.7"/>
<polygon fill="none" stroke="#000000" points="226.5,-166.7 226.5,-185.7 307.5,-185.7 307.5,-166.7 226.5,-166.7"/>
<text text-anchor="start" x="229.5" y="-172.8" font-family="Helvetica,sans-Serif" font-size="11.00" fill="#000000">&lt; 2</text>
<polygon fill="#ffffff" stroke="transparent" points="307.5,-166.7 307.5,-185.7 380.5,-185.7 380.5,-166.7 307.5,-166.7"/>
<polygon fill="none" stroke="#000000" points="307.5,-166.7 307.5,-185.7 380.5,-185.7 380.5,-166.7 307.5,-166.7"/>
<text text-anchor="start" x="371.3862" y="-172.8" font-family="Helvetica,sans-Serif" font-size="11.00" fill="#000000"> &#160;</text>
<polygon fill="#ffffff" stroke="transparent" points="380.5,-166.7 380.5,-185.7 447.5,-185.7 447.5,-166.7 380.5,-166.7"/>
<polygon fill="none" stroke="#000000" points="380.5,-166.7 380.5,-185.7 447.5,-185.7 447.5,-166.7 380.5,-166.7"/>
<text text-anchor="start" x="428.9053" y="-172.8" font-family="Helvetica,sans-Serif" font-size="11.00" fill="#000000">0 &gt;</text>
<polygon fill="none" stroke="#000000" stroke-width="2" points="225,-165.7 225,-737.7 448,-737.7 448,-165.7 225,-165.7"/>
</a>
</g>
</g>
<!-- users -->
<g id="node2" class="node">
<title>users</title>
<g id="a_node2"><a xlink:href="../../tables/users.html" xlink:title="users" target="_top">
<polygon fill="#ffffff" stroke="transparent" points="8,-38.2 8,-253.2 175,-253.2 175,-38.2 8,-38.2"/>
<polygon fill="#f5f5f5" stroke="transparent" points="8.5,-229.7 8.5,-252.7 175.5,-252.7 175.5,-229.7 8.5,-229.7"/>
<polygon fill="none" stroke="#000000" points="8.5,-229.7 8.5,-252.7 175.5,-252.7 175.5,-229.7 8.5,-229.7"/>
<text text-anchor="start" x="13.5" y="-238.3" font-family="Helvetica,sans-Serif" font-weight="bold" font-size="11.00" fill="#000000">users</text>
<text text-anchor="start" x="140.5437" y="-237.8" font-family="Helvetica,sans-Serif" font-size="11.00" fill="#000000">[table]</text>
<polygon fill="none" stroke="#000000" points="8.5,-207.7 8.5,-229.7 175.5,-229.7 175.5,-207.7 8.5,-207.7"/>
<image xlink:href="../../images/primaryKeys.png" width="11px" height="12px" preserveAspectRatio="xMinYMin meet" x="13.5" y="-224.7"/>
<text text-anchor="start" x="28.5" y="-214.8" font-family="Helvetica,sans-Serif" font-size="11.00" fill="#000000">id</text>
<polygon fill="#ffffff" stroke="transparent" points="8.5,-185.7 8.5,-207.7 175.5,-207.7 175.5,-185.7 8.5,-185.7"/>
<polygon fill="none" stroke="#000000" points="8.5,-185.7 8.5,-207.7 175.5,-207.7 175.5,-185.7 8.5,-185.7"/>
<text text-anchor="start" x="28.5" y="-192.8" font-family="Helvetica,sans-Serif" font-size="11.00" fill="#000000">uuid</text>
<polygon fill="none" stroke="#000000" points="8.5,-163.7 8.5,-185.7 175.5,-185.7 175.5,-163.7 8.5,-163.7"/>
<image xlink:href="../../images/primaryKeys.png" width="11px" height="12px" preserveAspectRatio="xMinYMin meet" x="13.5" y="-180.7"/>
<text text-anchor="start" x="28.5" y="-170.8" font-family="Helvetica,sans-Serif" font-size="11.00" fill="#000000">username</text>
<polygon fill="none" stroke="#000000" points="8.5,-141.7 8.5,-163.7 175.5,-163.7 175.5,-141.7 8.5,-141.7"/>
<image xlink:href="../../images/foreignKeys.png" width="11px" height="12px" preserveAspectRatio="xMinYMin meet" x="13.5" y="-158.7"/>
<text text-anchor="start" x="28.5" y="-148.8" font-family="Helvetica,sans-Serif" font-size="11.00" fill="#000000">facility_id</text>
<polygon fill="#ffffff" stroke="transparent" points="8.5,-119.7 8.5,-141.7 175.5,-141.7 175.5,-119.7 8.5,-119.7"/>
<polygon fill="none" stroke="#000000" points="8.5,-119.7 8.5,-141.7 175.5,-141.7 175.5,-119.7 8.5,-119.7"/>
<text text-anchor="start" x="28.5" y="-126.8" font-family="Helvetica,sans-Serif" font-size="11.00" fill="#000000">google_signin_email</text>
<polygon fill="#ffffff" stroke="transparent" points="8.5,-97.7 8.5,-119.7 175.5,-119.7 175.5,-97.7 8.5,-97.7"/>
<polygon fill="none" stroke="#000000" points="8.5,-97.7 8.5,-119.7 175.5,-119.7 175.5,-97.7 8.5,-97.7"/>
<text text-anchor="start" x="28.5" y="-104.8" font-family="Helvetica,sans-Serif" font-size="11.00" fill="#000000">abook_type</text>
<polygon fill="none" stroke="#000000" points="8.5,-75.7 8.5,-97.7 175.5,-97.7 175.5,-75.7 8.5,-75.7"/>
<image xlink:href="../../images/foreignKeys.png" width="11px" height="12px" preserveAspectRatio="xMinYMin meet" x="13.5" y="-92.7"/>
<text text-anchor="start" x="28.5" y="-82.8" font-family="Helvetica,sans-Serif" font-size="11.00" fill="#000000">billing_facility_id</text>
<polygon fill="none" stroke="#000000" points="8.5,-56.7 8.5,-75.7 175.5,-75.7 175.5,-56.7 8.5,-56.7"/>
<text text-anchor="start" x="11.5" y="-62.8" font-family="Helvetica,sans-Serif" font-size="11.00" fill="#000000">...</text>
<polygon fill="#ffffff" stroke="transparent" points="8.5,-37.7 8.5,-56.7 82.5,-56.7 82.5,-37.7 8.5,-37.7"/>
<polygon fill="none" stroke="#000000" points="8.5,-37.7 8.5,-56.7 82.5,-56.7 82.5,-37.7 8.5,-37.7"/>
<text text-anchor="start" x="11.5" y="-43.8" font-family="Helvetica,sans-Serif" font-size="11.00" fill="#000000">&lt; 2</text>
<polygon fill="#ffffff" stroke="transparent" points="82.5,-37.7 82.5,-56.7 121.5,-56.7 121.5,-37.7 82.5,-37.7"/>
<polygon fill="none" stroke="#000000" points="82.5,-37.7 82.5,-56.7 121.5,-56.7 121.5,-37.7 82.5,-37.7"/>
<text text-anchor="start" x="112.3862" y="-43.8" font-family="Helvetica,sans-Serif" font-size="11.00" fill="#000000"> &#160;</text>
<polygon fill="#ffffff" stroke="transparent" points="121.5,-37.7 121.5,-56.7 175.5,-56.7 175.5,-37.7 121.5,-37.7"/>
<polygon fill="none" stroke="#000000" points="121.5,-37.7 121.5,-56.7 175.5,-56.7 175.5,-37.7 121.5,-37.7"/>
<text text-anchor="start" x="150.7904" y="-43.8" font-family="Helvetica,sans-Serif" font-size="11.00" fill="#000000">90 &gt;</text>
</a>
</g>
</g>
<!-- person&#45;&gt;users -->
<g id="edge1" class="edge">
<title>person:w&#45;&gt;users:e</title>
<path fill="none" stroke="#000000" d="M212.3489,-237.641C199.7843,-231.596 194.4,-218.7 175.5,-218.7"/>
<polygon fill="#000000" stroke="#000000" points="218.6806,-239.0097 225.7393,-244.2187 222.5903,-239.8548 226.5,-240.7 226.5,-240.7 226.5,-240.7 222.5903,-239.8548 227.2607,-237.1813 218.6806,-239.0097 218.6806,-239.0097"/>
<ellipse fill="none" stroke="#000000" cx="215.5528" cy="-238.3335" rx="3.2" ry="3.2"/>
</g>
<!-- person&#45;&gt;users -->
<g id="edge2" class="edge">
<title>person:w&#45;&gt;users:e</title>
<path fill="none" stroke="#000000" d="M212.3489,-199.759C199.7843,-205.804 194.4,-218.7 175.5,-218.7"/>
<polygon fill="#000000" stroke="#000000" points="218.6806,-198.3903 227.2607,-200.2187 222.5903,-197.5452 226.5,-196.7 226.5,-196.7 226.5,-196.7 222.5903,-197.5452 225.7393,-193.1813 218.6806,-198.3903 218.6806,-198.3903"/>
<ellipse fill="none" stroke="#000000" cx="215.5528" cy="-199.0665" rx="3.2" ry="3.2"/>
</g>
</g>
</svg>
