<?xml version="1.0" encoding="UTF-8" standalone="no"?>
<!DOCTYPE svg PUBLIC "-//W3C//DTD SVG 1.1//EN"
 "http://www.w3.org/Graphics/SVG/1.1/DTD/svg11.dtd">
<!-- Generated by graphviz version 2.40.1 (20161225.0304)
 -->
<!-- Title: oneDegreeRelationshipsDiagram Pages: 1 -->
<svg width="800pt" height="588pt"
 viewBox="0.00 0.00 800.00 588.20" xmlns="http://www.w3.org/2000/svg" xmlns:xlink="http://www.w3.org/1999/xlink">
<g id="graph0" class="graph" transform="scale(1 1) rotate(0) translate(4 584.2)">
<title>oneDegreeRelationshipsDiagram</title>
<polygon fill="#ffffff" stroke="transparent" points="-4,4 -4,-584.2 796,-584.2 796,4 -4,4"/>
<text text-anchor="middle" x="72.4936" y="-7.3" font-family="Helvetica,sans-Serif" font-size="11.00" fill="#000000">Generated by SchemaSpy</text>
<!-- patient_data -->
<g id="node1" class="node">
<title>patient_data</title>
<g id="a_node1"><a xlink:href="../../tables/patient_data.html" xlink:title="patient_data" target="_top">
<polygon fill="#ffffff" stroke="transparent" points="264,-185.2 264,-576.2 541,-576.2 541,-185.2 264,-185.2"/>
<polygon fill="#f5f5f5" stroke="transparent" points="264.5,-552.7 264.5,-575.7 541.5,-575.7 541.5,-552.7 264.5,-552.7"/>
<polygon fill="none" stroke="#000000" points="264.5,-552.7 264.5,-575.7 541.5,-575.7 541.5,-552.7 264.5,-552.7"/>
<text text-anchor="start" x="269.5" y="-561.3" font-family="Helvetica,sans-Serif" font-weight="bold" font-size="11.00" fill="#000000">patient_data</text>
<text text-anchor="start" x="506.5437" y="-560.8" font-family="Helvetica,sans-Serif" font-size="11.00" fill="#000000">[table]</text>
<polygon fill="none" stroke="#000000" points="264.5,-530.7 264.5,-552.7 541.5,-552.7 541.5,-530.7 264.5,-530.7"/>
<image xlink:href="../../images/primaryKeys.png" width="11px" height="12px" preserveAspectRatio="xMinYMin meet" x="269.5" y="-547.7"/>
<text text-anchor="start" x="284.5" y="-537.8" font-family="Helvetica,sans-Serif" font-size="11.00" fill="#000000">id</text>
<polygon fill="#ffffff" stroke="transparent" points="264.5,-508.7 264.5,-530.7 541.5,-530.7 541.5,-508.7 264.5,-508.7"/>
<polygon fill="none" stroke="#000000" points="264.5,-508.7 264.5,-530.7 541.5,-530.7 541.5,-508.7 264.5,-508.7"/>
<text text-anchor="start" x="284.5" y="-515.8" font-family="Helvetica,sans-Serif" font-size="11.00" fill="#000000">uuid</text>
<polygon fill="#ffffff" stroke="transparent" points="264.5,-486.7 264.5,-508.7 541.5,-508.7 541.5,-486.7 264.5,-486.7"/>
<polygon fill="none" stroke="#000000" points="264.5,-486.7 264.5,-508.7 541.5,-508.7 541.5,-486.7 264.5,-486.7"/>
<text text-anchor="start" x="284.5" y="-493.8" font-family="Helvetica,sans-Serif" font-size="11.00" fill="#000000">fname</text>
<polygon fill="#ffffff" stroke="transparent" points="264.5,-464.7 264.5,-486.7 541.5,-486.7 541.5,-464.7 264.5,-464.7"/>
<polygon fill="none" stroke="#000000" points="264.5,-464.7 264.5,-486.7 541.5,-486.7 541.5,-464.7 264.5,-464.7"/>
<text text-anchor="start" x="284.5" y="-471.8" font-family="Helvetica,sans-Serif" font-size="11.00" fill="#000000">lname</text>
<polygon fill="#ffffff" stroke="transparent" points="264.5,-442.7 264.5,-464.7 541.5,-464.7 541.5,-442.7 264.5,-442.7"/>
<polygon fill="none" stroke="#000000" points="264.5,-442.7 264.5,-464.7 541.5,-464.7 541.5,-442.7 264.5,-442.7"/>
<text text-anchor="start" x="284.5" y="-449.8" font-family="Helvetica,sans-Serif" font-size="11.00" fill="#000000">DOB</text>
<polygon fill="none" stroke="#000000" points="264.5,-420.7 264.5,-442.7 541.5,-442.7 541.5,-420.7 264.5,-420.7"/>
<image xlink:href="../../images/foreignKeys.png" width="11px" height="12px" preserveAspectRatio="xMinYMin meet" x="269.5" y="-437.7"/>
<text text-anchor="start" x="284.5" y="-427.8" font-family="Helvetica,sans-Serif" font-size="11.00" fill="#000000">pharmacy_id</text>
<polygon fill="none" stroke="#000000" points="264.5,-398.7 264.5,-420.7 541.5,-420.7 541.5,-398.7 264.5,-398.7"/>
<image xlink:href="../../images/foreignKeys.png" width="11px" height="12px" preserveAspectRatio="xMinYMin meet" x="269.5" y="-415.7"/>
<text text-anchor="start" x="284.5" y="-405.8" font-family="Helvetica,sans-Serif" font-size="11.00" fill="#000000">providerID</text>
<polygon fill="none" stroke="#000000" points="264.5,-376.7 264.5,-398.7 541.5,-398.7 541.5,-376.7 264.5,-376.7"/>
<image xlink:href="../../images/foreignKeys.png" width="11px" height="12px" preserveAspectRatio="xMinYMin meet" x="269.5" y="-393.7"/>
<text text-anchor="start" x="284.5" y="-383.8" font-family="Helvetica,sans-Serif" font-size="11.00" fill="#000000">ref_providerID</text>
<polygon fill="none" stroke="#000000" points="264.5,-354.7 264.5,-376.7 541.5,-376.7 541.5,-354.7 264.5,-354.7"/>
<image xlink:href="../../images/foreignKeys.png" width="11px" height="12px" preserveAspectRatio="xMinYMin meet" x="269.5" y="-371.7"/>
<text text-anchor="start" x="284.5" y="-361.8" font-family="Helvetica,sans-Serif" font-size="11.00" fill="#000000">interpreter_needed</text>
<polygon fill="none" stroke="#000000" points="264.5,-332.7 264.5,-354.7 541.5,-354.7 541.5,-332.7 264.5,-332.7"/>
<image xlink:href="../../images/primaryKeys.png" width="11px" height="12px" preserveAspectRatio="xMinYMin meet" x="269.5" y="-349.7"/>
<text text-anchor="start" x="284.5" y="-339.8" font-family="Helvetica,sans-Serif" font-size="11.00" fill="#000000">pid</text>
<polygon fill="none" stroke="#000000" points="264.5,-310.7 264.5,-332.7 541.5,-332.7 541.5,-310.7 264.5,-310.7"/>
<image xlink:href="../../images/foreignKeys.png" width="11px" height="12px" preserveAspectRatio="xMinYMin meet" x="269.5" y="-327.7"/>
<text text-anchor="start" x="284.5" y="-317.8" font-family="Helvetica,sans-Serif" font-size="11.00" fill="#000000">advance_directive_user_authenticator</text>
<polygon fill="none" stroke="#000000" points="264.5,-288.7 264.5,-310.7 541.5,-310.7 541.5,-288.7 264.5,-288.7"/>
<image xlink:href="../../images/foreignKeys.png" width="11px" height="12px" preserveAspectRatio="xMinYMin meet" x="269.5" y="-305.7"/>
<text text-anchor="start" x="284.5" y="-295.8" font-family="Helvetica,sans-Serif" font-size="11.00" fill="#000000">created_by</text>
<polygon fill="none" stroke="#000000" points="264.5,-266.7 264.5,-288.7 541.5,-288.7 541.5,-266.7 264.5,-266.7"/>
<image xlink:href="../../images/foreignKeys.png" width="11px" height="12px" preserveAspectRatio="xMinYMin meet" x="269.5" y="-283.7"/>
<text text-anchor="start" x="284.5" y="-273.8" font-family="Helvetica,sans-Serif" font-size="11.00" fill="#000000">updated_by</text>
<polygon fill="none" stroke="#000000" points="264.5,-244.7 264.5,-266.7 541.5,-266.7 541.5,-244.7 264.5,-244.7"/>
<image xlink:href="../../images/foreignKeys.png" width="11px" height="12px" preserveAspectRatio="xMinYMin meet" x="269.5" y="-261.7"/>
<text text-anchor="start" x="284.5" y="-251.8" font-family="Helvetica,sans-Serif" font-size="11.00" fill="#000000">tribal_affiliations</text>
<polygon fill="none" stroke="#000000" points="264.5,-222.7 264.5,-244.7 541.5,-244.7 541.5,-222.7 264.5,-222.7"/>
<image xlink:href="../../images/foreignKeys.png" width="11px" height="12px" preserveAspectRatio="xMinYMin meet" x="269.5" y="-239.7"/>
<text text-anchor="start" x="284.5" y="-229.8" font-family="Helvetica,sans-Serif" font-size="11.00" fill="#000000">sex_identified</text>
<polygon fill="none" stroke="#000000" points="264.5,-203.7 264.5,-222.7 541.5,-222.7 541.5,-203.7 264.5,-203.7"/>
<text text-anchor="start" x="267.5" y="-209.8" font-family="Helvetica,sans-Serif" font-size="11.00" fill="#000000">...</text>
<polygon fill="#ffffff" stroke="transparent" points="264.5,-184.7 264.5,-203.7 393.5,-203.7 393.5,-184.7 264.5,-184.7"/>
<polygon fill="none" stroke="#000000" points="264.5,-184.7 264.5,-203.7 393.5,-203.7 393.5,-184.7 264.5,-184.7"/>
<text text-anchor="start" x="267.5" y="-190.8" font-family="Helvetica,sans-Serif" font-size="11.00" fill="#000000">&lt; 9</text>
<polygon fill="#ffffff" stroke="transparent" points="393.5,-184.7 393.5,-203.7 459.5,-203.7 459.5,-184.7 393.5,-184.7"/>
<polygon fill="none" stroke="#000000" points="393.5,-184.7 393.5,-203.7 459.5,-203.7 459.5,-184.7 393.5,-184.7"/>
<text text-anchor="start" x="450.3862" y="-190.8" font-family="Helvetica,sans-Serif" font-size="11.00" fill="#000000"> &#160;</text>
<polygon fill="#ffffff" stroke="transparent" points="459.5,-184.7 459.5,-203.7 541.5,-203.7 541.5,-184.7 459.5,-184.7"/>
<polygon fill="none" stroke="#000000" points="459.5,-184.7 459.5,-203.7 541.5,-203.7 541.5,-184.7 459.5,-184.7"/>
<text text-anchor="start" x="516.7904" y="-190.8" font-family="Helvetica,sans-Serif" font-size="11.00" fill="#000000">95 &gt;</text>
</a>
</g>
</g>
<!-- pharmacies -->
<g id="node2" class="node">
<title>pharmacies</title>
<g id="a_node2"><a xlink:href="../../tables/pharmacies.html" xlink:title="pharmacies" target="_top">
<polygon fill="#ffffff" stroke="transparent" points="8,-153.7 8,-331.7 215,-331.7 215,-153.7 8,-153.7"/>
<polygon fill="#f5f5f5" stroke="transparent" points="10.5,-306.7 10.5,-329.7 213.5,-329.7 213.5,-306.7 10.5,-306.7"/>
<polygon fill="none" stroke="#000000" points="10.5,-306.7 10.5,-329.7 213.5,-329.7 213.5,-306.7 10.5,-306.7"/>
<text text-anchor="start" x="15.5" y="-315.3" font-family="Helvetica,sans-Serif" font-weight="bold" font-size="11.00" fill="#000000">pharmacies</text>
<text text-anchor="start" x="178.5437" y="-314.8" font-family="Helvetica,sans-Serif" font-size="11.00" fill="#000000">[table]</text>
<polygon fill="none" stroke="#000000" points="10.5,-284.7 10.5,-306.7 146.5,-306.7 146.5,-284.7 10.5,-284.7"/>
<image xlink:href="../../images/primaryKeys.png" width="11px" height="12px" preserveAspectRatio="xMinYMin meet" x="15.5" y="-301.7"/>
<text text-anchor="start" x="30.5" y="-291.8" font-family="Helvetica,sans-Serif" font-size="11.00" fill="#000000">id</text>
<polygon fill="none" stroke="#000000" points="146.5,-284.7 146.5,-306.7 213.5,-306.7 213.5,-284.7 146.5,-284.7"/>
<text text-anchor="start" x="149.5" y="-292.4" font-family="Helvetica,sans-Serif" font-size="11.00" fill="#000000">int[10]</text>
<polygon fill="none" stroke="#000000" points="10.5,-262.7 10.5,-284.7 146.5,-284.7 146.5,-262.7 10.5,-262.7"/>
<text text-anchor="start" x="30.5" y="-269.8" font-family="Helvetica,sans-Serif" font-size="11.00" fill="#000000">name</text>
<polygon fill="none" stroke="#000000" points="146.5,-262.7 146.5,-284.7 213.5,-284.7 213.5,-262.7 146.5,-262.7"/>
<text text-anchor="start" x="149.4365" y="-270.4" font-family="Helvetica,sans-Serif" font-size="11.00" fill="#000000">varchar[255]</text>
<polygon fill="none" stroke="#000000" points="10.5,-240.7 10.5,-262.7 146.5,-262.7 146.5,-240.7 10.5,-240.7"/>
<text text-anchor="start" x="30.5" y="-247.8" font-family="Helvetica,sans-Serif" font-size="11.00" fill="#000000">transmit_method</text>
<polygon fill="none" stroke="#000000" points="146.5,-240.7 146.5,-262.7 213.5,-262.7 213.5,-240.7 146.5,-240.7"/>
<text text-anchor="start" x="149.5" y="-248.4" font-family="Helvetica,sans-Serif" font-size="11.00" fill="#000000">int[10]</text>
<polygon fill="none" stroke="#000000" points="10.5,-218.7 10.5,-240.7 146.5,-240.7 146.5,-218.7 10.5,-218.7"/>
<text text-anchor="start" x="30.5" y="-225.8" font-family="Helvetica,sans-Serif" font-size="11.00" fill="#000000">email</text>
<polygon fill="none" stroke="#000000" points="146.5,-218.7 146.5,-240.7 213.5,-240.7 213.5,-218.7 146.5,-218.7"/>
<text text-anchor="start" x="149.4365" y="-226.4" font-family="Helvetica,sans-Serif" font-size="11.00" fill="#000000">varchar[255]</text>
<polygon fill="none" stroke="#000000" points="10.5,-196.7 10.5,-218.7 146.5,-218.7 146.5,-196.7 10.5,-196.7"/>
<text text-anchor="start" x="30.5" y="-203.8" font-family="Helvetica,sans-Serif" font-size="11.00" fill="#000000">ncpdp</text>
<polygon fill="none" stroke="#000000" points="146.5,-196.7 146.5,-218.7 213.5,-218.7 213.5,-196.7 146.5,-196.7"/>
<text text-anchor="start" x="149.5" y="-204.4" font-family="Helvetica,sans-Serif" font-size="11.00" fill="#000000">int[10]</text>
<polygon fill="none" stroke="#000000" points="10.5,-174.7 10.5,-196.7 146.5,-196.7 146.5,-174.7 10.5,-174.7"/>
<text text-anchor="start" x="30.5" y="-181.8" font-family="Helvetica,sans-Serif" font-size="11.00" fill="#000000">npi</text>
<polygon fill="none" stroke="#000000" points="146.5,-174.7 146.5,-196.7 213.5,-196.7 213.5,-174.7 146.5,-174.7"/>
<text text-anchor="start" x="149.5" y="-182.4" font-family="Helvetica,sans-Serif" font-size="11.00" fill="#000000">int[10]</text>
<polygon fill="#ffffff" stroke="transparent" points="10.5,-155.7 10.5,-174.7 82.5,-174.7 82.5,-155.7 10.5,-155.7"/>
<polygon fill="none" stroke="#000000" points="10.5,-155.7 10.5,-174.7 82.5,-174.7 82.5,-155.7 10.5,-155.7"/>
<text text-anchor="start" x="13.5" y="-161.8" font-family="Helvetica,sans-Serif" font-size="11.00" fill="#000000">&lt; 0</text>
<polygon fill="#ffffff" stroke="transparent" points="82.5,-155.7 82.5,-174.7 146.5,-174.7 146.5,-155.7 82.5,-155.7"/>
<polygon fill="none" stroke="#000000" points="82.5,-155.7 82.5,-174.7 146.5,-174.7 146.5,-155.7 82.5,-155.7"/>
<text text-anchor="start" x="137.3862" y="-161.8" font-family="Helvetica,sans-Serif" font-size="11.00" fill="#000000"> &#160;</text>
<polygon fill="#ffffff" stroke="transparent" points="146.5,-155.7 146.5,-174.7 213.5,-174.7 213.5,-155.7 146.5,-155.7"/>
<polygon fill="none" stroke="#000000" points="146.5,-155.7 146.5,-174.7 213.5,-174.7 213.5,-155.7 146.5,-155.7"/>
<text text-anchor="start" x="194.9053" y="-161.8" font-family="Helvetica,sans-Serif" font-size="11.00" fill="#000000">2 &gt;</text>
<polygon fill="none" stroke="#000000" stroke-width="2" points="9,-154.7 9,-330.7 214,-330.7 214,-154.7 9,-154.7"/>
</a>
</g>
</g>
<!-- patient_data&#45;&gt;pharmacies -->
<g id="edge1" class="edge">
<title>patient_data:w&#45;&gt;pharmacies:e</title>
<path fill="none" stroke="#000000" d="M250.3483,-428.6039C212.829,-408.3603 272.2549,-295.7 213.5,-295.7"/>
<polygon fill="#000000" stroke="#000000" points="256.6848,-429.9902 263.7306,-435.2168 260.5924,-430.8451 264.5,-431.7 264.5,-431.7 264.5,-431.7 260.5924,-430.8451 265.2694,-428.1832 256.6848,-429.9902 256.6848,-429.9902"/>
<ellipse fill="none" stroke="#000000" cx="253.5588" cy="-429.3062" rx="3.2" ry="3.2"/>
</g>
<!-- prescriptions -->
<g id="node3" class="node">
<title>prescriptions</title>
<g id="a_node3"><a xlink:href="../../tables/prescriptions.html" xlink:title="prescriptions" target="_top">
<polygon fill="#ffffff" stroke="transparent" points="590,-38.2 590,-341.2 784,-341.2 784,-38.2 590,-38.2"/>
<polygon fill="#f5f5f5" stroke="transparent" points="590,-317.7 590,-340.7 784,-340.7 784,-317.7 590,-317.7"/>
<polygon fill="none" stroke="#000000" points="590,-317.7 590,-340.7 784,-340.7 784,-317.7 590,-317.7"/>
<text text-anchor="start" x="595" y="-326.3" font-family="Helvetica,sans-Serif" font-weight="bold" font-size="11.00" fill="#000000">prescriptions</text>
<text text-anchor="start" x="749.0437" y="-325.8" font-family="Helvetica,sans-Serif" font-size="11.00" fill="#000000">[table]</text>
<polygon fill="none" stroke="#000000" points="590,-295.7 590,-317.7 784,-317.7 784,-295.7 590,-295.7"/>
<image xlink:href="../../images/primaryKeys.png" width="11px" height="12px" preserveAspectRatio="xMinYMin meet" x="595" y="-312.7"/>
<text text-anchor="start" x="610" y="-302.8" font-family="Helvetica,sans-Serif" font-size="11.00" fill="#000000">id</text>
<polygon fill="#ffffff" stroke="transparent" points="590,-273.7 590,-295.7 784,-295.7 784,-273.7 590,-273.7"/>
<polygon fill="none" stroke="#000000" points="590,-273.7 590,-295.7 784,-295.7 784,-273.7 590,-273.7"/>
<text text-anchor="start" x="610" y="-280.8" font-family="Helvetica,sans-Serif" font-size="11.00" fill="#000000">uuid</text>
<polygon fill="#ffffff" stroke="transparent" points="590,-251.7 590,-273.7 784,-273.7 784,-251.7 590,-251.7"/>
<polygon fill="none" stroke="#000000" points="590,-251.7 590,-273.7 784,-273.7 784,-251.7 590,-251.7"/>
<image xlink:href="../../images/foreignKeys.png" width="11px" height="12px" preserveAspectRatio="xMinYMin meet" x="595" y="-268.7"/>
<text text-anchor="start" x="610" y="-258.8" font-family="Helvetica,sans-Serif" font-size="11.00" fill="#000000">patient_id</text>
<polygon fill="none" stroke="#000000" points="590,-229.7 590,-251.7 784,-251.7 784,-229.7 590,-229.7"/>
<image xlink:href="../../images/foreignKeys.png" width="11px" height="12px" preserveAspectRatio="xMinYMin meet" x="595" y="-246.7"/>
<text text-anchor="start" x="610" y="-236.8" font-family="Helvetica,sans-Serif" font-size="11.00" fill="#000000">pharmacy_id</text>
<polygon fill="none" stroke="#000000" points="590,-207.7 590,-229.7 784,-229.7 784,-207.7 590,-207.7"/>
<image xlink:href="../../images/foreignKeys.png" width="11px" height="12px" preserveAspectRatio="xMinYMin meet" x="595" y="-224.7"/>
<text text-anchor="start" x="610" y="-214.8" font-family="Helvetica,sans-Serif" font-size="11.00" fill="#000000">provider_id</text>
<polygon fill="none" stroke="#000000" points="590,-185.7 590,-207.7 784,-207.7 784,-185.7 590,-185.7"/>
<image xlink:href="../../images/foreignKeys.png" width="11px" height="12px" preserveAspectRatio="xMinYMin meet" x="595" y="-202.7"/>
<text text-anchor="start" x="610" y="-192.8" font-family="Helvetica,sans-Serif" font-size="11.00" fill="#000000">drug_id</text>
<polygon fill="none" stroke="#000000" points="590,-163.7 590,-185.7 784,-185.7 784,-163.7 590,-163.7"/>
<image xlink:href="../../images/foreignKeys.png" width="11px" height="12px" preserveAspectRatio="xMinYMin meet" x="595" y="-180.7"/>
<text text-anchor="start" x="610" y="-170.8" font-family="Helvetica,sans-Serif" font-size="11.00" fill="#000000">route</text>
<polygon fill="none" stroke="#000000" points="590,-141.7 590,-163.7 784,-163.7 784,-141.7 590,-141.7"/>
<image xlink:href="../../images/foreignKeys.png" width="11px" height="12px" preserveAspectRatio="xMinYMin meet" x="595" y="-158.7"/>
<text text-anchor="start" x="610" y="-148.8" font-family="Helvetica,sans-Serif" font-size="11.00" fill="#000000">usage_category</text>
<polygon fill="none" stroke="#000000" points="590,-119.7 590,-141.7 784,-141.7 784,-119.7 590,-119.7"/>
<image xlink:href="../../images/foreignKeys.png" width="11px" height="12px" preserveAspectRatio="xMinYMin meet" x="595" y="-136.7"/>
<text text-anchor="start" x="610" y="-126.8" font-family="Helvetica,sans-Serif" font-size="11.00" fill="#000000">request_intent</text>
<polygon fill="none" stroke="#000000" points="590,-97.7 590,-119.7 784,-119.7 784,-97.7 590,-97.7"/>
<image xlink:href="../../images/foreignKeys.png" width="11px" height="12px" preserveAspectRatio="xMinYMin meet" x="595" y="-114.7"/>
<text text-anchor="start" x="610" y="-104.8" font-family="Helvetica,sans-Serif" font-size="11.00" fill="#000000">created_by</text>
<polygon fill="none" stroke="#000000" points="590,-75.7 590,-97.7 784,-97.7 784,-75.7 590,-75.7"/>
<image xlink:href="../../images/foreignKeys.png" width="11px" height="12px" preserveAspectRatio="xMinYMin meet" x="595" y="-92.7"/>
<text text-anchor="start" x="610" y="-82.8" font-family="Helvetica,sans-Serif" font-size="11.00" fill="#000000">updated_by</text>
<polygon fill="none" stroke="#000000" points="590,-56.7 590,-75.7 784,-75.7 784,-56.7 590,-56.7"/>
<text text-anchor="start" x="593" y="-62.8" font-family="Helvetica,sans-Serif" font-size="11.00" fill="#000000">...</text>
<polygon fill="#ffffff" stroke="transparent" points="590,-37.7 590,-56.7 681,-56.7 681,-37.7 590,-37.7"/>
<polygon fill="none" stroke="#000000" points="590,-37.7 590,-56.7 681,-56.7 681,-37.7 590,-37.7"/>
<text text-anchor="start" x="593" y="-43.8" font-family="Helvetica,sans-Serif" font-size="11.00" fill="#000000">&lt; 9</text>
<polygon fill="#ffffff" stroke="transparent" points="681,-37.7 681,-56.7 728,-56.7 728,-37.7 681,-37.7"/>
<polygon fill="none" stroke="#000000" points="681,-37.7 681,-56.7 728,-56.7 728,-37.7 681,-37.7"/>
<text text-anchor="start" x="718.8862" y="-43.8" font-family="Helvetica,sans-Serif" font-size="11.00" fill="#000000"> &#160;</text>
<polygon fill="#ffffff" stroke="transparent" points="728,-37.7 728,-56.7 784,-56.7 784,-37.7 728,-37.7"/>
<polygon fill="none" stroke="#000000" points="728,-37.7 728,-56.7 784,-56.7 784,-37.7 728,-37.7"/>
<text text-anchor="start" x="765.4053" y="-43.8" font-family="Helvetica,sans-Serif" font-size="11.00" fill="#000000">1 &gt;</text>
</a>
</g>
</g>
<!-- prescriptions&#45;&gt;patient_data -->
<g id="edge2" class="edge">
<title>prescriptions:w&#45;&gt;patient_data:e</title>
<path fill="none" stroke="#000000" d="M576.1884,-267.287C556.6622,-284.422 577.3955,-343.7 541.5,-343.7"/>
<polygon fill="#000000" stroke="#000000" points="582.4078,-265.2215 591.1347,-266.1165 586.2039,-263.9608 590,-262.7 590,-262.7 590,-262.7 586.2039,-263.9608 588.8653,-259.2835 582.4078,-265.2215 582.4078,-265.2215"/>
<ellipse fill="none" stroke="#000000" cx="579.3709" cy="-266.2301" rx="3.2" ry="3.2"/>
</g>
<!-- prescriptions&#45;&gt;pharmacies -->
<g id="edge3" class="edge">
<title>prescriptions:w&#45;&gt;pharmacies:e</title>
<path fill="none" stroke="#000000" d="M575.9794,-236.0472C562.4652,-223.3834 573.5218,-188.3349 549,-174.7 435.1883,-111.417 362.2486,-99.4068 256,-174.7 209.4947,-207.656 270.4986,-295.7 213.5,-295.7"/>
<polygon fill="#000000" stroke="#000000" points="582.4072,-238.1803 588.8661,-244.1168 586.2036,-239.4401 590,-240.7 590,-240.7 590,-240.7 586.2036,-239.4401 591.1339,-237.2832 582.4072,-238.1803 582.4072,-238.1803"/>
<ellipse fill="none" stroke="#000000" cx="579.37" cy="-237.1724" rx="3.2" ry="3.2"/>
</g>
</g>
</svg>
