<?xml version="1.0" encoding="UTF-8" standalone="no"?>
<!DOCTYPE svg PUBLIC "-//W3C//DTD SVG 1.1//EN"
 "http://www.w3.org/Graphics/SVG/1.1/DTD/svg11.dtd">
<!-- Generated by graphviz version 2.40.1 (20161225.0304)
 -->
<!-- Title: oneDegreeRelationshipsDiagram Pages: 1 -->
<svg width="822pt" height="692pt"
 viewBox="0.00 0.00 822.00 692.30" xmlns="http://www.w3.org/2000/svg" xmlns:xlink="http://www.w3.org/1999/xlink">
<g id="graph0" class="graph" transform="scale(1 1) rotate(0) translate(4 688.3014)">
<title>oneDegreeRelationshipsDiagram</title>
<polygon fill="#ffffff" stroke="transparent" points="-4,4 -4,-688.3014 818,-688.3014 818,4 -4,4"/>
<text text-anchor="middle" x="72.4936" y="-7.3" font-family="Helvetica,sans-Serif" font-size="11.00" fill="#000000">Generated by SchemaSpy</text>
<!-- groups -->
<g id="node1" class="node">
<title>groups</title>
<g id="a_node1"><a xlink:href="../../tables/groups.html" xlink:title="groups" target="_top">
<polygon fill="#ffffff" stroke="transparent" points="319.5,-73.8886 319.5,-181.8886 405.5,-181.8886 405.5,-73.8886 319.5,-73.8886"/>
<polygon fill="#f5f5f5" stroke="transparent" points="319.5,-158.8886 319.5,-181.8886 405.5,-181.8886 405.5,-158.8886 319.5,-158.8886"/>
<polygon fill="none" stroke="#000000" points="319.5,-158.8886 319.5,-181.8886 405.5,-181.8886 405.5,-158.8886 319.5,-158.8886"/>
<text text-anchor="start" x="324.5" y="-167.4886" font-family="Helvetica,sans-Serif" font-weight="bold" font-size="11.00" fill="#000000">groups</text>
<text text-anchor="start" x="371.0219" y="-166.9886" font-family="Helvetica,sans-Serif" font-size="11.00" fill="#000000">[table]</text>
<polygon fill="none" stroke="#000000" points="319.5,-136.8886 319.5,-158.8886 405.5,-158.8886 405.5,-136.8886 319.5,-136.8886"/>
<image xlink:href="../../images/primaryKeys.png" width="11px" height="12px" preserveAspectRatio="xMinYMin meet" x="324.5" y="-153.889"/>
<text text-anchor="start" x="348.5" y="-143.9886" font-family="Helvetica,sans-Serif" font-size="11.00" fill="#000000">id</text>
<polygon fill="none" stroke="#000000" points="319.5,-114.8886 319.5,-136.8886 405.5,-136.8886 405.5,-114.8886 319.5,-114.8886"/>
<image xlink:href="../../images/primaryKeys.png" width="11px" height="12px" preserveAspectRatio="xMinYMin meet" x="324.5" y="-131.889"/>
<text text-anchor="start" x="348.5" y="-121.9886" font-family="Helvetica,sans-Serif" font-size="11.00" fill="#000000">name</text>
<polygon fill="none" stroke="#000000" points="319.5,-92.8886 319.5,-114.8886 405.5,-114.8886 405.5,-92.8886 319.5,-92.8886"/>
<image xlink:href="../../images/foreignKeys.png" width="11px" height="12px" preserveAspectRatio="xMinYMin meet" x="324.5" y="-109.889"/>
<text text-anchor="start" x="348.5" y="-99.9886" font-family="Helvetica,sans-Serif" font-size="11.00" fill="#000000">user</text>
<polygon fill="#ffffff" stroke="transparent" points="319.5,-73.8886 319.5,-92.8886 353.5,-92.8886 353.5,-73.8886 319.5,-73.8886"/>
<polygon fill="none" stroke="#000000" points="319.5,-73.8886 319.5,-92.8886 353.5,-92.8886 353.5,-73.8886 319.5,-73.8886"/>
<text text-anchor="start" x="322.5" y="-79.9886" font-family="Helvetica,sans-Serif" font-size="11.00" fill="#000000">&lt; 1</text>
<polygon fill="#ffffff" stroke="transparent" points="353.5,-73.8886 353.5,-92.8886 371.5,-92.8886 371.5,-73.8886 353.5,-73.8886"/>
<polygon fill="none" stroke="#000000" points="353.5,-73.8886 353.5,-92.8886 371.5,-92.8886 371.5,-73.8886 353.5,-73.8886"/>
<text text-anchor="start" x="362.3862" y="-79.9886" font-family="Helvetica,sans-Serif" font-size="11.00" fill="#000000"> &#160;</text>
<polygon fill="#ffffff" stroke="transparent" points="371.5,-73.8886 371.5,-92.8886 405.5,-92.8886 405.5,-73.8886 371.5,-73.8886"/>
<polygon fill="none" stroke="#000000" points="371.5,-73.8886 371.5,-92.8886 405.5,-92.8886 405.5,-73.8886 371.5,-73.8886"/>
<text text-anchor="start" x="380.7904" y="-79.9886" font-family="Helvetica,sans-Serif" font-size="11.00" fill="#000000">17 &gt;</text>
</a>
</g>
</g>
<!-- users -->
<g id="node2" class="node">
<title>users</title>
<g id="a_node2"><a xlink:href="../../tables/users.html" xlink:title="users" target="_top">
<polygon fill="#ffffff" stroke="transparent" points="8,-247.3886 8,-462.3886 175,-462.3886 175,-247.3886 8,-247.3886"/>
<polygon fill="#f5f5f5" stroke="transparent" points="8.5,-438.8886 8.5,-461.8886 175.5,-461.8886 175.5,-438.8886 8.5,-438.8886"/>
<polygon fill="none" stroke="#000000" points="8.5,-438.8886 8.5,-461.8886 175.5,-461.8886 175.5,-438.8886 8.5,-438.8886"/>
<text text-anchor="start" x="13.5" y="-447.4886" font-family="Helvetica,sans-Serif" font-weight="bold" font-size="11.00" fill="#000000">users</text>
<text text-anchor="start" x="140.5437" y="-446.9886" font-family="Helvetica,sans-Serif" font-size="11.00" fill="#000000">[table]</text>
<polygon fill="none" stroke="#000000" points="8.5,-416.8886 8.5,-438.8886 175.5,-438.8886 175.5,-416.8886 8.5,-416.8886"/>
<image xlink:href="../../images/primaryKeys.png" width="11px" height="12px" preserveAspectRatio="xMinYMin meet" x="13.5" y="-433.889"/>
<text text-anchor="start" x="28.5" y="-423.9886" font-family="Helvetica,sans-Serif" font-size="11.00" fill="#000000">id</text>
<polygon fill="#ffffff" stroke="transparent" points="8.5,-394.8886 8.5,-416.8886 175.5,-416.8886 175.5,-394.8886 8.5,-394.8886"/>
<polygon fill="none" stroke="#000000" points="8.5,-394.8886 8.5,-416.8886 175.5,-416.8886 175.5,-394.8886 8.5,-394.8886"/>
<text text-anchor="start" x="28.5" y="-401.9886" font-family="Helvetica,sans-Serif" font-size="11.00" fill="#000000">uuid</text>
<polygon fill="none" stroke="#000000" points="8.5,-372.8886 8.5,-394.8886 175.5,-394.8886 175.5,-372.8886 8.5,-372.8886"/>
<image xlink:href="../../images/primaryKeys.png" width="11px" height="12px" preserveAspectRatio="xMinYMin meet" x="13.5" y="-389.889"/>
<text text-anchor="start" x="28.5" y="-379.9886" font-family="Helvetica,sans-Serif" font-size="11.00" fill="#000000">username</text>
<polygon fill="none" stroke="#000000" points="8.5,-350.8886 8.5,-372.8886 175.5,-372.8886 175.5,-350.8886 8.5,-350.8886"/>
<image xlink:href="../../images/foreignKeys.png" width="11px" height="12px" preserveAspectRatio="xMinYMin meet" x="13.5" y="-367.889"/>
<text text-anchor="start" x="28.5" y="-357.9886" font-family="Helvetica,sans-Serif" font-size="11.00" fill="#000000">facility_id</text>
<polygon fill="#ffffff" stroke="transparent" points="8.5,-328.8886 8.5,-350.8886 175.5,-350.8886 175.5,-328.8886 8.5,-328.8886"/>
<polygon fill="none" stroke="#000000" points="8.5,-328.8886 8.5,-350.8886 175.5,-350.8886 175.5,-328.8886 8.5,-328.8886"/>
<text text-anchor="start" x="28.5" y="-335.9886" font-family="Helvetica,sans-Serif" font-size="11.00" fill="#000000">google_signin_email</text>
<polygon fill="#ffffff" stroke="transparent" points="8.5,-306.8886 8.5,-328.8886 175.5,-328.8886 175.5,-306.8886 8.5,-306.8886"/>
<polygon fill="none" stroke="#000000" points="8.5,-306.8886 8.5,-328.8886 175.5,-328.8886 175.5,-306.8886 8.5,-306.8886"/>
<text text-anchor="start" x="28.5" y="-313.9886" font-family="Helvetica,sans-Serif" font-size="11.00" fill="#000000">abook_type</text>
<polygon fill="none" stroke="#000000" points="8.5,-284.8886 8.5,-306.8886 175.5,-306.8886 175.5,-284.8886 8.5,-284.8886"/>
<image xlink:href="../../images/foreignKeys.png" width="11px" height="12px" preserveAspectRatio="xMinYMin meet" x="13.5" y="-301.889"/>
<text text-anchor="start" x="28.5" y="-291.9886" font-family="Helvetica,sans-Serif" font-size="11.00" fill="#000000">billing_facility_id</text>
<polygon fill="none" stroke="#000000" points="8.5,-265.8886 8.5,-284.8886 175.5,-284.8886 175.5,-265.8886 8.5,-265.8886"/>
<text text-anchor="start" x="11.5" y="-271.9886" font-family="Helvetica,sans-Serif" font-size="11.00" fill="#000000">...</text>
<polygon fill="#ffffff" stroke="transparent" points="8.5,-246.8886 8.5,-265.8886 82.5,-265.8886 82.5,-246.8886 8.5,-246.8886"/>
<polygon fill="none" stroke="#000000" points="8.5,-246.8886 8.5,-265.8886 82.5,-265.8886 82.5,-246.8886 8.5,-246.8886"/>
<text text-anchor="start" x="11.5" y="-252.9886" font-family="Helvetica,sans-Serif" font-size="11.00" fill="#000000">&lt; 2</text>
<polygon fill="#ffffff" stroke="transparent" points="82.5,-246.8886 82.5,-265.8886 121.5,-265.8886 121.5,-246.8886 82.5,-246.8886"/>
<polygon fill="none" stroke="#000000" points="82.5,-246.8886 82.5,-265.8886 121.5,-265.8886 121.5,-246.8886 82.5,-246.8886"/>
<text text-anchor="start" x="112.3862" y="-252.9886" font-family="Helvetica,sans-Serif" font-size="11.00" fill="#000000"> &#160;</text>
<polygon fill="#ffffff" stroke="transparent" points="121.5,-246.8886 121.5,-265.8886 175.5,-265.8886 175.5,-246.8886 121.5,-246.8886"/>
<polygon fill="none" stroke="#000000" points="121.5,-246.8886 121.5,-265.8886 175.5,-265.8886 175.5,-246.8886 121.5,-246.8886"/>
<text text-anchor="start" x="150.7904" y="-252.9886" font-family="Helvetica,sans-Serif" font-size="11.00" fill="#000000">90 &gt;</text>
</a>
</g>
</g>
<!-- groups&#45;&gt;users -->
<g id="edge1" class="edge">
<title>groups:w&#45;&gt;users:e</title>
<path fill="none" stroke="#000000" d="M304.8962,-104.6904C256.6438,-110.3276 244.2618,-145.1761 216,-192.8886 171.7755,-267.55 262.2763,-383.8886 175.5,-383.8886"/>
<polygon fill="#000000" stroke="#000000" points="311.512,-104.3272 319.6974,-107.4832 315.506,-104.1079 319.5,-103.8886 319.5,-103.8886 319.5,-103.8886 315.506,-104.1079 319.3026,-100.294 311.512,-104.3272 311.512,-104.3272"/>
<ellipse fill="none" stroke="#000000" cx="308.3168" cy="-104.5027" rx="3.2" ry="3.2"/>
</g>
<!-- patient_data -->
<g id="node3" class="node">
<title>patient_data</title>
<g id="a_node3"><a xlink:href="../../tables/patient_data.html" xlink:title="patient_data" target="_top">
<polygon fill="#ffffff" stroke="transparent" points="224,-203.3886 224,-594.3886 501,-594.3886 501,-203.3886 224,-203.3886"/>
<polygon fill="#f5f5f5" stroke="transparent" points="224.5,-570.8886 224.5,-593.8886 501.5,-593.8886 501.5,-570.8886 224.5,-570.8886"/>
<polygon fill="none" stroke="#000000" points="224.5,-570.8886 224.5,-593.8886 501.5,-593.8886 501.5,-570.8886 224.5,-570.8886"/>
<text text-anchor="start" x="229.5" y="-579.4886" font-family="Helvetica,sans-Serif" font-weight="bold" font-size="11.00" fill="#000000">patient_data</text>
<text text-anchor="start" x="466.5437" y="-578.9886" font-family="Helvetica,sans-Serif" font-size="11.00" fill="#000000">[table]</text>
<polygon fill="none" stroke="#000000" points="224.5,-548.8886 224.5,-570.8886 501.5,-570.8886 501.5,-548.8886 224.5,-548.8886"/>
<image xlink:href="../../images/primaryKeys.png" width="11px" height="12px" preserveAspectRatio="xMinYMin meet" x="229.5" y="-565.889"/>
<text text-anchor="start" x="244.5" y="-555.9886" font-family="Helvetica,sans-Serif" font-size="11.00" fill="#000000">id</text>
<polygon fill="#ffffff" stroke="transparent" points="224.5,-526.8886 224.5,-548.8886 501.5,-548.8886 501.5,-526.8886 224.5,-526.8886"/>
<polygon fill="none" stroke="#000000" points="224.5,-526.8886 224.5,-548.8886 501.5,-548.8886 501.5,-526.8886 224.5,-526.8886"/>
<text text-anchor="start" x="244.5" y="-533.9886" font-family="Helvetica,sans-Serif" font-size="11.00" fill="#000000">uuid</text>
<polygon fill="#ffffff" stroke="transparent" points="224.5,-504.8886 224.5,-526.8886 501.5,-526.8886 501.5,-504.8886 224.5,-504.8886"/>
<polygon fill="none" stroke="#000000" points="224.5,-504.8886 224.5,-526.8886 501.5,-526.8886 501.5,-504.8886 224.5,-504.8886"/>
<text text-anchor="start" x="244.5" y="-511.9886" font-family="Helvetica,sans-Serif" font-size="11.00" fill="#000000">fname</text>
<polygon fill="#ffffff" stroke="transparent" points="224.5,-482.8886 224.5,-504.8886 501.5,-504.8886 501.5,-482.8886 224.5,-482.8886"/>
<polygon fill="none" stroke="#000000" points="224.5,-482.8886 224.5,-504.8886 501.5,-504.8886 501.5,-482.8886 224.5,-482.8886"/>
<text text-anchor="start" x="244.5" y="-489.9886" font-family="Helvetica,sans-Serif" font-size="11.00" fill="#000000">lname</text>
<polygon fill="#ffffff" stroke="transparent" points="224.5,-460.8886 224.5,-482.8886 501.5,-482.8886 501.5,-460.8886 224.5,-460.8886"/>
<polygon fill="none" stroke="#000000" points="224.5,-460.8886 224.5,-482.8886 501.5,-482.8886 501.5,-460.8886 224.5,-460.8886"/>
<text text-anchor="start" x="244.5" y="-467.9886" font-family="Helvetica,sans-Serif" font-size="11.00" fill="#000000">DOB</text>
<polygon fill="none" stroke="#000000" points="224.5,-438.8886 224.5,-460.8886 501.5,-460.8886 501.5,-438.8886 224.5,-438.8886"/>
<image xlink:href="../../images/foreignKeys.png" width="11px" height="12px" preserveAspectRatio="xMinYMin meet" x="229.5" y="-455.889"/>
<text text-anchor="start" x="244.5" y="-445.9886" font-family="Helvetica,sans-Serif" font-size="11.00" fill="#000000">pharmacy_id</text>
<polygon fill="none" stroke="#000000" points="224.5,-416.8886 224.5,-438.8886 501.5,-438.8886 501.5,-416.8886 224.5,-416.8886"/>
<image xlink:href="../../images/foreignKeys.png" width="11px" height="12px" preserveAspectRatio="xMinYMin meet" x="229.5" y="-433.889"/>
<text text-anchor="start" x="244.5" y="-423.9886" font-family="Helvetica,sans-Serif" font-size="11.00" fill="#000000">providerID</text>
<polygon fill="none" stroke="#000000" points="224.5,-394.8886 224.5,-416.8886 501.5,-416.8886 501.5,-394.8886 224.5,-394.8886"/>
<image xlink:href="../../images/foreignKeys.png" width="11px" height="12px" preserveAspectRatio="xMinYMin meet" x="229.5" y="-411.889"/>
<text text-anchor="start" x="244.5" y="-401.9886" font-family="Helvetica,sans-Serif" font-size="11.00" fill="#000000">ref_providerID</text>
<polygon fill="none" stroke="#000000" points="224.5,-372.8886 224.5,-394.8886 501.5,-394.8886 501.5,-372.8886 224.5,-372.8886"/>
<image xlink:href="../../images/foreignKeys.png" width="11px" height="12px" preserveAspectRatio="xMinYMin meet" x="229.5" y="-389.889"/>
<text text-anchor="start" x="244.5" y="-379.9886" font-family="Helvetica,sans-Serif" font-size="11.00" fill="#000000">interpreter_needed</text>
<polygon fill="none" stroke="#000000" points="224.5,-350.8886 224.5,-372.8886 501.5,-372.8886 501.5,-350.8886 224.5,-350.8886"/>
<image xlink:href="../../images/primaryKeys.png" width="11px" height="12px" preserveAspectRatio="xMinYMin meet" x="229.5" y="-367.889"/>
<text text-anchor="start" x="244.5" y="-357.9886" font-family="Helvetica,sans-Serif" font-size="11.00" fill="#000000">pid</text>
<polygon fill="none" stroke="#000000" points="224.5,-328.8886 224.5,-350.8886 501.5,-350.8886 501.5,-328.8886 224.5,-328.8886"/>
<image xlink:href="../../images/foreignKeys.png" width="11px" height="12px" preserveAspectRatio="xMinYMin meet" x="229.5" y="-345.889"/>
<text text-anchor="start" x="244.5" y="-335.9886" font-family="Helvetica,sans-Serif" font-size="11.00" fill="#000000">advance_directive_user_authenticator</text>
<polygon fill="none" stroke="#000000" points="224.5,-306.8886 224.5,-328.8886 501.5,-328.8886 501.5,-306.8886 224.5,-306.8886"/>
<image xlink:href="../../images/foreignKeys.png" width="11px" height="12px" preserveAspectRatio="xMinYMin meet" x="229.5" y="-323.889"/>
<text text-anchor="start" x="244.5" y="-313.9886" font-family="Helvetica,sans-Serif" font-size="11.00" fill="#000000">created_by</text>
<polygon fill="none" stroke="#000000" points="224.5,-284.8886 224.5,-306.8886 501.5,-306.8886 501.5,-284.8886 224.5,-284.8886"/>
<image xlink:href="../../images/foreignKeys.png" width="11px" height="12px" preserveAspectRatio="xMinYMin meet" x="229.5" y="-301.889"/>
<text text-anchor="start" x="244.5" y="-291.9886" font-family="Helvetica,sans-Serif" font-size="11.00" fill="#000000">updated_by</text>
<polygon fill="none" stroke="#000000" points="224.5,-262.8886 224.5,-284.8886 501.5,-284.8886 501.5,-262.8886 224.5,-262.8886"/>
<image xlink:href="../../images/foreignKeys.png" width="11px" height="12px" preserveAspectRatio="xMinYMin meet" x="229.5" y="-279.889"/>
<text text-anchor="start" x="244.5" y="-269.9886" font-family="Helvetica,sans-Serif" font-size="11.00" fill="#000000">tribal_affiliations</text>
<polygon fill="none" stroke="#000000" points="224.5,-240.8886 224.5,-262.8886 501.5,-262.8886 501.5,-240.8886 224.5,-240.8886"/>
<image xlink:href="../../images/foreignKeys.png" width="11px" height="12px" preserveAspectRatio="xMinYMin meet" x="229.5" y="-257.889"/>
<text text-anchor="start" x="244.5" y="-247.9886" font-family="Helvetica,sans-Serif" font-size="11.00" fill="#000000">sex_identified</text>
<polygon fill="none" stroke="#000000" points="224.5,-221.8886 224.5,-240.8886 501.5,-240.8886 501.5,-221.8886 224.5,-221.8886"/>
<text text-anchor="start" x="227.5" y="-227.9886" font-family="Helvetica,sans-Serif" font-size="11.00" fill="#000000">...</text>
<polygon fill="#ffffff" stroke="transparent" points="224.5,-202.8886 224.5,-221.8886 353.5,-221.8886 353.5,-202.8886 224.5,-202.8886"/>
<polygon fill="none" stroke="#000000" points="224.5,-202.8886 224.5,-221.8886 353.5,-221.8886 353.5,-202.8886 224.5,-202.8886"/>
<text text-anchor="start" x="227.5" y="-208.9886" font-family="Helvetica,sans-Serif" font-size="11.00" fill="#000000">&lt; 9</text>
<polygon fill="#ffffff" stroke="transparent" points="353.5,-202.8886 353.5,-221.8886 419.5,-221.8886 419.5,-202.8886 353.5,-202.8886"/>
<polygon fill="none" stroke="#000000" points="353.5,-202.8886 353.5,-221.8886 419.5,-221.8886 419.5,-202.8886 353.5,-202.8886"/>
<text text-anchor="start" x="410.3862" y="-208.9886" font-family="Helvetica,sans-Serif" font-size="11.00" fill="#000000"> &#160;</text>
<polygon fill="#ffffff" stroke="transparent" points="419.5,-202.8886 419.5,-221.8886 501.5,-221.8886 501.5,-202.8886 419.5,-202.8886"/>
<polygon fill="none" stroke="#000000" points="419.5,-202.8886 419.5,-221.8886 501.5,-221.8886 501.5,-202.8886 419.5,-202.8886"/>
<text text-anchor="start" x="476.7904" y="-208.9886" font-family="Helvetica,sans-Serif" font-size="11.00" fill="#000000">95 &gt;</text>
</a>
</g>
</g>
<!-- patient_data&#45;&gt;users -->
<g id="edge2" class="edge">
<title>patient_data:w&#45;&gt;users:e</title>
<path fill="none" stroke="#000000" d="M210.4863,-344.3735C189.2228,-362.3062 214.1452,-427.8886 175.5,-427.8886"/>
<polygon fill="#000000" stroke="#000000" points="216.8807,-342.3271 225.5973,-343.3173 220.6903,-341.1079 224.5,-339.8886 224.5,-339.8886 224.5,-339.8886 220.6903,-341.1079 223.4027,-336.4599 216.8807,-342.3271 216.8807,-342.3271"/>
<ellipse fill="none" stroke="#000000" cx="213.833" cy="-343.3025" rx="3.2" ry="3.2"/>
</g>
<!-- patient_data&#45;&gt;users -->
<g id="edge3" class="edge">
<title>patient_data:w&#45;&gt;users:e</title>
<path fill="none" stroke="#000000" d="M210.282,-321.8036C182.6981,-341.3989 222.9572,-427.8886 175.5,-427.8886"/>
<polygon fill="#000000" stroke="#000000" points="216.7871,-320.0125 225.4557,-321.3595 220.6435,-318.9505 224.5,-317.8886 224.5,-317.8886 224.5,-317.8886 220.6435,-318.9505 223.5443,-314.4178 216.7871,-320.0125 216.7871,-320.0125"/>
<ellipse fill="none" stroke="#000000" cx="213.7019" cy="-320.862" rx="3.2" ry="3.2"/>
</g>
<!-- patient_data&#45;&gt;users -->
<g id="edge5" class="edge">
<title>patient_data:w&#45;&gt;users:e</title>
<path fill="none" stroke="#000000" d="M209.9909,-427.8886C198.6774,-427.8886 191.4931,-427.8886 175.5,-427.8886"/>
<polygon fill="#000000" stroke="#000000" points="216.5,-427.8887 224.5,-431.4886 220.5,-427.8887 224.5,-427.8886 224.5,-427.8886 224.5,-427.8886 220.5,-427.8887 224.5,-424.2886 216.5,-427.8887 216.5,-427.8887"/>
<ellipse fill="none" stroke="#000000" cx="213.3" cy="-427.8887" rx="3.2" ry="3.2"/>
</g>
<!-- patient_data&#45;&gt;users -->
<g id="edge6" class="edge">
<title>patient_data:w&#45;&gt;users:e</title>
<path fill="none" stroke="#000000" d="M210.1297,-409.3261C198.5865,-415.5136 193.4041,-427.8886 175.5,-427.8886"/>
<polygon fill="#000000" stroke="#000000" points="216.7195,-407.7498 225.3375,-409.3899 220.6098,-406.8192 224.5,-405.8886 224.5,-405.8886 224.5,-405.8886 220.6098,-406.8192 223.6625,-402.3874 216.7195,-407.7498 216.7195,-407.7498"/>
<ellipse fill="none" stroke="#000000" cx="213.6073" cy="-408.4943" rx="3.2" ry="3.2"/>
</g>
<!-- patient_data&#45;&gt;users -->
<g id="edge9" class="edge">
<title>patient_data:w&#45;&gt;users:e</title>
<path fill="none" stroke="#000000" d="M210.3293,-299.1516C174.9817,-319.4785 232.2116,-427.8886 175.5,-427.8886"/>
<polygon fill="#000000" stroke="#000000" points="216.704,-297.6838 225.3078,-299.3968 220.602,-296.7862 224.5,-295.8886 224.5,-295.8886 224.5,-295.8886 220.602,-296.7862 223.6922,-292.3804 216.704,-297.6838 216.704,-297.6838"/>
<ellipse fill="none" stroke="#000000" cx="213.5856" cy="-298.4018" rx="3.2" ry="3.2"/>
</g>
<!-- list_options -->
<g id="node4" class="node">
<title>list_options</title>
<g id="a_node4"><a xlink:href="../../tables/list_options.html" xlink:title="list_options" target="_top">
<polygon fill="#ffffff" stroke="transparent" points="25.5,-121.3886 25.5,-226.3886 157.5,-226.3886 157.5,-121.3886 25.5,-121.3886"/>
<polygon fill="#f5f5f5" stroke="transparent" points="25.5,-202.8886 25.5,-225.8886 157.5,-225.8886 157.5,-202.8886 25.5,-202.8886"/>
<polygon fill="none" stroke="#000000" points="25.5,-202.8886 25.5,-225.8886 157.5,-225.8886 157.5,-202.8886 25.5,-202.8886"/>
<text text-anchor="start" x="30.5" y="-211.4886" font-family="Helvetica,sans-Serif" font-weight="bold" font-size="11.00" fill="#000000">list_options</text>
<text text-anchor="start" x="122.5437" y="-210.9886" font-family="Helvetica,sans-Serif" font-size="11.00" fill="#000000">[table]</text>
<polygon fill="none" stroke="#000000" points="25.5,-180.8886 25.5,-202.8886 157.5,-202.8886 157.5,-180.8886 25.5,-180.8886"/>
<image xlink:href="../../images/primaryKeys.png" width="11px" height="12px" preserveAspectRatio="xMinYMin meet" x="30.5" y="-197.889"/>
<text text-anchor="start" x="45.5" y="-187.9886" font-family="Helvetica,sans-Serif" font-size="11.00" fill="#000000">list_id</text>
<polygon fill="none" stroke="#000000" points="25.5,-158.8886 25.5,-180.8886 157.5,-180.8886 157.5,-158.8886 25.5,-158.8886"/>
<image xlink:href="../../images/primaryKeys.png" width="11px" height="12px" preserveAspectRatio="xMinYMin meet" x="30.5" y="-175.889"/>
<text text-anchor="start" x="45.5" y="-165.9886" font-family="Helvetica,sans-Serif" font-size="11.00" fill="#000000">option_id</text>
<polygon fill="none" stroke="#000000" points="25.5,-139.8886 25.5,-158.8886 157.5,-158.8886 157.5,-139.8886 25.5,-139.8886"/>
<text text-anchor="start" x="28.5" y="-145.9886" font-family="Helvetica,sans-Serif" font-size="11.00" fill="#000000">...</text>
<polygon fill="#ffffff" stroke="transparent" points="25.5,-120.8886 25.5,-139.8886 77.5,-139.8886 77.5,-120.8886 25.5,-120.8886"/>
<polygon fill="none" stroke="#000000" points="25.5,-120.8886 25.5,-139.8886 77.5,-139.8886 77.5,-120.8886 25.5,-120.8886"/>
<text text-anchor="start" x="28.5" y="-126.9886" font-family="Helvetica,sans-Serif" font-size="11.00" fill="#000000"> &#160;</text>
<polygon fill="#ffffff" stroke="transparent" points="77.5,-120.8886 77.5,-139.8886 109.5,-139.8886 109.5,-120.8886 77.5,-120.8886"/>
<polygon fill="none" stroke="#000000" points="77.5,-120.8886 77.5,-139.8886 109.5,-139.8886 109.5,-120.8886 77.5,-120.8886"/>
<text text-anchor="start" x="100.3862" y="-126.9886" font-family="Helvetica,sans-Serif" font-size="11.00" fill="#000000"> &#160;</text>
<polygon fill="#ffffff" stroke="transparent" points="109.5,-120.8886 109.5,-139.8886 157.5,-139.8886 157.5,-120.8886 109.5,-120.8886"/>
<polygon fill="none" stroke="#000000" points="109.5,-120.8886 109.5,-139.8886 157.5,-139.8886 157.5,-120.8886 109.5,-120.8886"/>
<text text-anchor="start" x="132.7904" y="-126.9886" font-family="Helvetica,sans-Serif" font-size="11.00" fill="#000000">98 &gt;</text>
</a>
</g>
</g>
<!-- patient_data&#45;&gt;list_options -->
<g id="edge4" class="edge">
<title>patient_data:w&#45;&gt;list_options:e</title>
<path fill="none" stroke="#000000" d="M210.1545,-382.0386C138.6158,-361.1224 251.7133,-169.8886 157.5,-169.8886"/>
<polygon fill="#000000" stroke="#000000" points="216.5657,-382.8653 224.0395,-387.4591 220.5329,-383.377 224.5,-383.8886 224.5,-383.8886 224.5,-383.8886 220.5329,-383.377 224.9605,-380.3182 216.5657,-382.8653 216.5657,-382.8653"/>
<ellipse fill="none" stroke="#000000" cx="213.392" cy="-382.456" rx="3.2" ry="3.2"/>
</g>
<!-- patient_data&#45;&gt;list_options -->
<g id="edge7" class="edge">
<title>patient_data:w&#45;&gt;list_options:e</title>
<path fill="none" stroke="#000000" d="M210.4031,-248.5726C182.9188,-233.2317 198.8638,-169.8886 157.5,-169.8886"/>
<polygon fill="#000000" stroke="#000000" points="216.7126,-250.0567 223.6756,-255.393 220.6063,-250.9727 224.5,-251.8886 224.5,-251.8886 224.5,-251.8886 220.6063,-250.9727 225.3244,-248.3843 216.7126,-250.0567 216.7126,-250.0567"/>
<ellipse fill="none" stroke="#000000" cx="213.5976" cy="-249.324" rx="3.2" ry="3.2"/>
</g>
<!-- patient_data&#45;&gt;list_options -->
<g id="edge8" class="edge">
<title>patient_data:w&#45;&gt;list_options:e</title>
<path fill="none" stroke="#000000" d="M210.1417,-270.6621C177.4901,-253.108 206.6847,-169.8886 157.5,-169.8886"/>
<polygon fill="#000000" stroke="#000000" points="216.6946,-272.1346 223.7107,-277.401 220.5973,-273.0116 224.5,-273.8886 224.5,-273.8886 224.5,-273.8886 220.5973,-273.0116 225.2893,-270.3762 216.6946,-272.1346 216.6946,-272.1346"/>
<ellipse fill="none" stroke="#000000" cx="213.5725" cy="-271.433" rx="3.2" ry="3.2"/>
</g>
<!-- pnotes -->
<g id="node5" class="node">
<title>pnotes</title>
<g id="a_node5"><a xlink:href="../../tables/pnotes.html" xlink:title="pnotes" target="_top">
<polygon fill="#ffffff" stroke="transparent" points="550,-231.8886 550,-629.8886 806,-629.8886 806,-231.8886 550,-231.8886"/>
<polygon fill="#f5f5f5" stroke="transparent" points="552,-604.8886 552,-627.8886 804,-627.8886 804,-604.8886 552,-604.8886"/>
<polygon fill="none" stroke="#000000" points="552,-604.8886 552,-627.8886 804,-627.8886 804,-604.8886 552,-604.8886"/>
<text text-anchor="start" x="557" y="-613.4886" font-family="Helvetica,sans-Serif" font-weight="bold" font-size="11.00" fill="#000000">pnotes</text>
<text text-anchor="start" x="769.0437" y="-612.9886" font-family="Helvetica,sans-Serif" font-size="11.00" fill="#000000">[table]</text>
<polygon fill="none" stroke="#000000" points="552,-582.8886 552,-604.8886 693,-604.8886 693,-582.8886 552,-582.8886"/>
<image xlink:href="../../images/primaryKeys.png" width="11px" height="12px" preserveAspectRatio="xMinYMin meet" x="557" y="-599.889"/>
<text text-anchor="start" x="572" y="-589.9886" font-family="Helvetica,sans-Serif" font-size="11.00" fill="#000000">id</text>
<polygon fill="none" stroke="#000000" points="693,-582.8886 693,-604.8886 804,-604.8886 804,-582.8886 693,-582.8886"/>
<text text-anchor="start" x="696" y="-590.5886" font-family="Helvetica,sans-Serif" font-size="11.00" fill="#000000">bigint[19]</text>
<polygon fill="none" stroke="#000000" points="552,-560.8886 552,-582.8886 693,-582.8886 693,-560.8886 552,-560.8886"/>
<text text-anchor="start" x="572" y="-567.9886" font-family="Helvetica,sans-Serif" font-size="11.00" fill="#000000">date</text>
<polygon fill="none" stroke="#000000" points="693,-560.8886 693,-582.8886 804,-582.8886 804,-560.8886 693,-560.8886"/>
<text text-anchor="start" x="696" y="-568.5886" font-family="Helvetica,sans-Serif" font-size="11.00" fill="#000000">datetime[19]</text>
<polygon fill="none" stroke="#000000" points="552,-538.8886 552,-560.8886 693,-560.8886 693,-538.8886 552,-538.8886"/>
<text text-anchor="start" x="572" y="-545.9886" font-family="Helvetica,sans-Serif" font-size="11.00" fill="#000000">body</text>
<polygon fill="none" stroke="#000000" points="693,-538.8886 693,-560.8886 804,-560.8886 804,-538.8886 693,-538.8886"/>
<text text-anchor="start" x="695.6115" y="-546.5886" font-family="Helvetica,sans-Serif" font-size="11.00" fill="#000000">longtext[2147483647]</text>
<polygon fill="#ffffff" stroke="transparent" points="552,-516.8886 552,-538.8886 693,-538.8886 693,-516.8886 552,-516.8886"/>
<polygon fill="none" stroke="#000000" points="552,-516.8886 552,-538.8886 693,-538.8886 693,-516.8886 552,-516.8886"/>
<image xlink:href="../../images/foreignKeys.png" width="11px" height="12px" preserveAspectRatio="xMinYMin meet" x="557" y="-533.889"/>
<text text-anchor="start" x="572" y="-523.9886" font-family="Helvetica,sans-Serif" font-size="11.00" fill="#000000">pid</text>
<polygon fill="none" stroke="#000000" points="693,-516.8886 693,-538.8886 804,-538.8886 804,-516.8886 693,-516.8886"/>
<text text-anchor="start" x="696" y="-524.5886" font-family="Helvetica,sans-Serif" font-size="11.00" fill="#000000">bigint[19]</text>
<polygon fill="none" stroke="#000000" points="552,-494.8886 552,-516.8886 693,-516.8886 693,-494.8886 552,-494.8886"/>
<image xlink:href="../../images/foreignKeys.png" width="11px" height="12px" preserveAspectRatio="xMinYMin meet" x="557" y="-511.889"/>
<text text-anchor="start" x="572" y="-501.9886" font-family="Helvetica,sans-Serif" font-size="11.00" fill="#000000">user</text>
<polygon fill="none" stroke="#000000" points="693,-494.8886 693,-516.8886 804,-516.8886 804,-494.8886 693,-494.8886"/>
<text text-anchor="start" x="696" y="-502.5886" font-family="Helvetica,sans-Serif" font-size="11.00" fill="#000000">varchar[255]</text>
<polygon fill="none" stroke="#000000" points="552,-472.8886 552,-494.8886 693,-494.8886 693,-472.8886 552,-472.8886"/>
<image xlink:href="../../images/foreignKeys.png" width="11px" height="12px" preserveAspectRatio="xMinYMin meet" x="557" y="-489.889"/>
<text text-anchor="start" x="572" y="-479.9886" font-family="Helvetica,sans-Serif" font-size="11.00" fill="#000000">groupname</text>
<polygon fill="none" stroke="#000000" points="693,-472.8886 693,-494.8886 804,-494.8886 804,-472.8886 693,-472.8886"/>
<text text-anchor="start" x="696" y="-480.5886" font-family="Helvetica,sans-Serif" font-size="11.00" fill="#000000">varchar[255]</text>
<polygon fill="none" stroke="#000000" points="552,-450.8886 552,-472.8886 693,-472.8886 693,-450.8886 552,-450.8886"/>
<text text-anchor="start" x="572" y="-457.9886" font-family="Helvetica,sans-Serif" font-size="11.00" fill="#000000">activity</text>
<polygon fill="none" stroke="#000000" points="693,-450.8886 693,-472.8886 804,-472.8886 804,-450.8886 693,-450.8886"/>
<text text-anchor="start" x="696" y="-458.5886" font-family="Helvetica,sans-Serif" font-size="11.00" fill="#000000">tinyint[3]</text>
<polygon fill="none" stroke="#000000" points="552,-428.8886 552,-450.8886 693,-450.8886 693,-428.8886 552,-428.8886"/>
<text text-anchor="start" x="572" y="-435.9886" font-family="Helvetica,sans-Serif" font-size="11.00" fill="#000000">authorized</text>
<polygon fill="none" stroke="#000000" points="693,-428.8886 693,-450.8886 804,-450.8886 804,-428.8886 693,-428.8886"/>
<text text-anchor="start" x="696" y="-436.5886" font-family="Helvetica,sans-Serif" font-size="11.00" fill="#000000">tinyint[3]</text>
<polygon fill="none" stroke="#000000" points="552,-406.8886 552,-428.8886 693,-428.8886 693,-406.8886 552,-406.8886"/>
<text text-anchor="start" x="572" y="-413.9886" font-family="Helvetica,sans-Serif" font-size="11.00" fill="#000000">title</text>
<polygon fill="none" stroke="#000000" points="693,-406.8886 693,-428.8886 804,-428.8886 804,-406.8886 693,-406.8886"/>
<text text-anchor="start" x="696" y="-414.5886" font-family="Helvetica,sans-Serif" font-size="11.00" fill="#000000">varchar[255]</text>
<polygon fill="none" stroke="#000000" points="552,-384.8886 552,-406.8886 693,-406.8886 693,-384.8886 552,-384.8886"/>
<image xlink:href="../../images/foreignKeys.png" width="11px" height="12px" preserveAspectRatio="xMinYMin meet" x="557" y="-401.889"/>
<text text-anchor="start" x="572" y="-391.9886" font-family="Helvetica,sans-Serif" font-size="11.00" fill="#000000">assigned_to</text>
<polygon fill="none" stroke="#000000" points="693,-384.8886 693,-406.8886 804,-406.8886 804,-384.8886 693,-384.8886"/>
<text text-anchor="start" x="696" y="-392.5886" font-family="Helvetica,sans-Serif" font-size="11.00" fill="#000000">varchar[255]</text>
<polygon fill="none" stroke="#000000" points="552,-362.8886 552,-384.8886 693,-384.8886 693,-362.8886 552,-362.8886"/>
<text text-anchor="start" x="572" y="-369.9886" font-family="Helvetica,sans-Serif" font-size="11.00" fill="#000000">deleted</text>
<polygon fill="none" stroke="#000000" points="693,-362.8886 693,-384.8886 804,-384.8886 804,-362.8886 693,-362.8886"/>
<text text-anchor="start" x="696" y="-370.5886" font-family="Helvetica,sans-Serif" font-size="11.00" fill="#000000">tinyint[3]</text>
<polygon fill="none" stroke="#000000" points="552,-340.8886 552,-362.8886 693,-362.8886 693,-340.8886 552,-340.8886"/>
<image xlink:href="../../images/foreignKeys.png" width="11px" height="12px" preserveAspectRatio="xMinYMin meet" x="557" y="-357.889"/>
<text text-anchor="start" x="572" y="-347.9886" font-family="Helvetica,sans-Serif" font-size="11.00" fill="#000000">message_status</text>
<polygon fill="none" stroke="#000000" points="693,-340.8886 693,-362.8886 804,-362.8886 804,-340.8886 693,-340.8886"/>
<text text-anchor="start" x="696" y="-348.5886" font-family="Helvetica,sans-Serif" font-size="11.00" fill="#000000">varchar[20]</text>
<polygon fill="none" stroke="#000000" points="552,-318.8886 552,-340.8886 693,-340.8886 693,-318.8886 552,-318.8886"/>
<text text-anchor="start" x="572" y="-325.9886" font-family="Helvetica,sans-Serif" font-size="11.00" fill="#000000">portal_relation</text>
<polygon fill="none" stroke="#000000" points="693,-318.8886 693,-340.8886 804,-340.8886 804,-318.8886 693,-318.8886"/>
<text text-anchor="start" x="696" y="-326.5886" font-family="Helvetica,sans-Serif" font-size="11.00" fill="#000000">varchar[100]</text>
<polygon fill="none" stroke="#000000" points="552,-296.8886 552,-318.8886 693,-318.8886 693,-296.8886 552,-296.8886"/>
<text text-anchor="start" x="572" y="-303.9886" font-family="Helvetica,sans-Serif" font-size="11.00" fill="#000000">is_msg_encrypted</text>
<polygon fill="none" stroke="#000000" points="693,-296.8886 693,-318.8886 804,-318.8886 804,-296.8886 693,-296.8886"/>
<text text-anchor="start" x="696" y="-304.5886" font-family="Helvetica,sans-Serif" font-size="11.00" fill="#000000">tinyint[3]</text>
<polygon fill="none" stroke="#000000" points="552,-274.8886 552,-296.8886 693,-296.8886 693,-274.8886 552,-274.8886"/>
<image xlink:href="../../images/foreignKeys.png" width="11px" height="12px" preserveAspectRatio="xMinYMin meet" x="557" y="-291.889"/>
<text text-anchor="start" x="572" y="-281.9886" font-family="Helvetica,sans-Serif" font-size="11.00" fill="#000000">update_by</text>
<polygon fill="none" stroke="#000000" points="693,-274.8886 693,-296.8886 804,-296.8886 804,-274.8886 693,-274.8886"/>
<text text-anchor="start" x="696" y="-282.5886" font-family="Helvetica,sans-Serif" font-size="11.00" fill="#000000">bigint[19]</text>
<polygon fill="none" stroke="#000000" points="552,-252.8886 552,-274.8886 693,-274.8886 693,-252.8886 552,-252.8886"/>
<text text-anchor="start" x="572" y="-259.9886" font-family="Helvetica,sans-Serif" font-size="11.00" fill="#000000">update_date</text>
<polygon fill="none" stroke="#000000" points="693,-252.8886 693,-274.8886 804,-274.8886 804,-252.8886 693,-252.8886"/>
<text text-anchor="start" x="696" y="-260.5886" font-family="Helvetica,sans-Serif" font-size="11.00" fill="#000000">datetime[19]</text>
<polygon fill="#ffffff" stroke="transparent" points="552,-233.8886 552,-252.8886 627,-252.8886 627,-233.8886 552,-233.8886"/>
<polygon fill="none" stroke="#000000" points="552,-233.8886 552,-252.8886 627,-252.8886 627,-233.8886 552,-233.8886"/>
<text text-anchor="start" x="555" y="-239.9886" font-family="Helvetica,sans-Serif" font-size="11.00" fill="#000000">&lt; 6</text>
<polygon fill="#ffffff" stroke="transparent" points="627,-233.8886 627,-252.8886 693,-252.8886 693,-233.8886 627,-233.8886"/>
<polygon fill="none" stroke="#000000" points="627,-233.8886 627,-252.8886 693,-252.8886 693,-233.8886 627,-233.8886"/>
<text text-anchor="start" x="683.8862" y="-239.9886" font-family="Helvetica,sans-Serif" font-size="11.00" fill="#000000"> &#160;</text>
<polygon fill="#ffffff" stroke="transparent" points="693,-233.8886 693,-252.8886 804,-252.8886 804,-233.8886 693,-233.8886"/>
<polygon fill="none" stroke="#000000" points="693,-233.8886 693,-252.8886 804,-252.8886 804,-233.8886 693,-233.8886"/>
<text text-anchor="start" x="785.4053" y="-239.9886" font-family="Helvetica,sans-Serif" font-size="11.00" fill="#000000">0 &gt;</text>
<polygon fill="none" stroke="#000000" stroke-width="2" points="551,-232.8886 551,-628.8886 805,-628.8886 805,-232.8886 551,-232.8886"/>
</a>
</g>
</g>
<!-- pnotes&#45;&gt;groups -->
<g id="edge11" class="edge">
<title>pnotes:w&#45;&gt;groups:e</title>
<path fill="none" stroke="#000000" d="M538.2788,-479.3542C495.4755,-446.385 541.4571,-243.3596 509,-192.8886 479.3607,-146.7993 460.297,-125.8886 405.5,-125.8886"/>
<polygon fill="#000000" stroke="#000000" points="544.404,-481.3784 550.8704,-487.3068 548.202,-482.6335 552,-483.8886 552,-483.8886 552,-483.8886 548.202,-482.6335 553.1296,-480.4704 544.404,-481.3784 544.404,-481.3784"/>
<ellipse fill="none" stroke="#000000" cx="541.3656" cy="-480.3743" rx="3.2" ry="3.2"/>
</g>
<!-- pnotes&#45;&gt;users -->
<g id="edge10" class="edge">
<title>pnotes:w&#45;&gt;users:e</title>
<path fill="none" stroke="#000000" d="M537.3448,-397.2318C461.1798,-413.0845 585.6685,-565.0746 509,-628.8886 458.9558,-670.5423 266.3828,-670.1322 216,-628.8886 145.4849,-571.1646 266.6287,-427.8886 175.5,-427.8886"/>
<polygon fill="#000000" stroke="#000000" points="544.0334,-396.6188 552.3286,-399.4736 548.0167,-396.2537 552,-395.8886 552,-395.8886 552,-395.8886 548.0167,-396.2537 551.6714,-392.3037 544.0334,-396.6188 544.0334,-396.6188"/>
<ellipse fill="none" stroke="#000000" cx="540.8467" cy="-396.9109" rx="3.2" ry="3.2"/>
</g>
<!-- pnotes&#45;&gt;users -->
<g id="edge14" class="edge">
<title>pnotes:w&#45;&gt;users:e</title>
<path fill="none" stroke="#000000" d="M538.2051,-290.4022C492.2299,-326.0094 558.7499,-561.3949 509,-604.8886 484.4903,-626.3162 241.4585,-625.1798 216,-604.8886 152.8928,-554.5903 256.1997,-427.8886 175.5,-427.8886"/>
<polygon fill="#000000" stroke="#000000" points="544.3966,-288.3764 553.1195,-289.3101 548.1983,-287.1325 552,-285.8886 552,-285.8886 552,-285.8886 548.1983,-287.1325 550.8805,-282.4671 544.3966,-288.3764 544.3966,-288.3764"/>
<ellipse fill="none" stroke="#000000" cx="541.3553" cy="-289.3716" rx="3.2" ry="3.2"/>
</g>
<!-- pnotes&#45;&gt;users -->
<g id="edge15" class="edge">
<title>pnotes:w&#45;&gt;users:e</title>
<path fill="none" stroke="#000000" d="M537.7217,-508.0478C496.0333,-523.3762 559.1765,-616.2155 509,-653.8886 456.9314,-692.9823 265.9363,-695.6717 216,-653.8886 137.738,-588.4047 277.5445,-427.8886 175.5,-427.8886"/>
<polygon fill="#000000" stroke="#000000" points="544.0899,-507.0848 552.5383,-509.4482 548.045,-506.4867 552,-505.8886 552,-505.8886 552,-505.8886 548.045,-506.4867 551.4617,-502.3291 544.0899,-507.0848 544.0899,-507.0848"/>
<ellipse fill="none" stroke="#000000" cx="540.9259" cy="-507.5633" rx="3.2" ry="3.2"/>
</g>
<!-- pnotes&#45;&gt;patient_data -->
<g id="edge13" class="edge">
<title>pnotes:w&#45;&gt;patient_data:e</title>
<path fill="none" stroke="#000000" d="M537.6703,-525.2812C489.2854,-504.1624 572.8928,-361.8886 501.5,-361.8886"/>
<polygon fill="#000000" stroke="#000000" points="544.1292,-526.4564 551.3555,-531.4305 548.0646,-527.1725 552,-527.8886 552,-527.8886 552,-527.8886 548.0646,-527.1725 552.6445,-524.3468 544.1292,-526.4564 544.1292,-526.4564"/>
<ellipse fill="none" stroke="#000000" cx="540.9809" cy="-525.8835" rx="3.2" ry="3.2"/>
</g>
<!-- pnotes&#45;&gt;list_options -->
<g id="edge12" class="edge">
<title>pnotes:w&#45;&gt;list_options:e</title>
<path fill="none" stroke="#000000" d="M538.3675,-346.9376C498.1656,-311.9077 554.0445,-101.7269 509,-62.8886 459.6879,-20.3707 272.0053,-29.6792 216,-62.8886 169.3808,-90.5324 211.699,-169.8886 157.5,-169.8886"/>
<polygon fill="#000000" stroke="#000000" points="544.4806,-349.1577 550.7711,-355.2724 548.2403,-350.5231 552,-351.8886 552,-351.8886 552,-351.8886 548.2403,-350.5231 553.2289,-348.5049 544.4806,-349.1577 544.4806,-349.1577"/>
<ellipse fill="none" stroke="#000000" cx="541.4728" cy="-348.0653" rx="3.2" ry="3.2"/>
</g>
</g>
</svg>
