<?xml version="1.0" encoding="UTF-8" standalone="no"?>
<!DOCTYPE svg PUBLIC "-//W3C//DTD SVG 1.1//EN"
 "http://www.w3.org/Graphics/SVG/1.1/DTD/svg11.dtd">
<!-- Generated by graphviz version 2.40.1 (20161225.0304)
 -->
<!-- Title: twoDegreesRelationshipsDiagram Pages: 1 -->
<svg width="819pt" height="545pt"
 viewBox="0.00 0.00 819.00 545.20" xmlns="http://www.w3.org/2000/svg" xmlns:xlink="http://www.w3.org/1999/xlink">
<g id="graph0" class="graph" transform="scale(1 1) rotate(0) translate(4 541.2)">
<title>twoDegreesRelationshipsDiagram</title>
<polygon fill="#ffffff" stroke="transparent" points="-4,4 -4,-541.2 815,-541.2 815,4 -4,4"/>
<text text-anchor="middle" x="72.4936" y="-7.3" font-family="Helvetica,sans-Serif" font-size="11.00" fill="#000000">Generated by SchemaSpy</text>
<!-- patient_care_experience_preferences -->
<g id="node1" class="node">
<title>patient_care_experience_preferences</title>
<g id="a_node1"><a xlink:href="../../tables/patient_care_experience_preferences.html" xlink:title="patient_care_experience_preferences" target="_top">
<polygon fill="#ffffff" stroke="transparent" points="488.5,-38.2 488.5,-275.2 778.5,-275.2 778.5,-38.2 488.5,-38.2"/>
<polygon fill="#f5f5f5" stroke="transparent" points="488.5,-251.7 488.5,-274.7 778.5,-274.7 778.5,-251.7 488.5,-251.7"/>
<polygon fill="none" stroke="#000000" points="488.5,-251.7 488.5,-274.7 778.5,-274.7 778.5,-251.7 488.5,-251.7"/>
<text text-anchor="start" x="493.5" y="-260.3" font-family="Helvetica,sans-Serif" font-weight="bold" font-size="11.00" fill="#000000">patient_care_experience_preferences</text>
<text text-anchor="start" x="744.0219" y="-259.8" font-family="Helvetica,sans-Serif" font-size="11.00" fill="#000000">[table]</text>
<polygon fill="none" stroke="#000000" points="488.5,-229.7 488.5,-251.7 778.5,-251.7 778.5,-229.7 488.5,-229.7"/>
<image xlink:href="../../images/primaryKeys.png" width="11px" height="12px" preserveAspectRatio="xMinYMin meet" x="493.5" y="-246.7"/>
<text text-anchor="start" x="517.5" y="-236.8" font-family="Helvetica,sans-Serif" font-size="11.00" fill="#000000">id</text>
<polygon fill="#ffffff" stroke="transparent" points="488.5,-207.7 488.5,-229.7 778.5,-229.7 778.5,-207.7 488.5,-207.7"/>
<polygon fill="none" stroke="#000000" points="488.5,-207.7 488.5,-229.7 778.5,-229.7 778.5,-207.7 488.5,-207.7"/>
<text text-anchor="start" x="517.5" y="-214.8" font-family="Helvetica,sans-Serif" font-size="11.00" fill="#000000">uuid</text>
<polygon fill="#ffffff" stroke="transparent" points="488.5,-185.7 488.5,-207.7 778.5,-207.7 778.5,-185.7 488.5,-185.7"/>
<polygon fill="none" stroke="#000000" points="488.5,-185.7 488.5,-207.7 778.5,-207.7 778.5,-185.7 488.5,-185.7"/>
<image xlink:href="../../images/foreignKeys.png" width="11px" height="12px" preserveAspectRatio="xMinYMin meet" x="493.5" y="-202.7"/>
<text text-anchor="start" x="517.5" y="-192.8" font-family="Helvetica,sans-Serif" font-size="11.00" fill="#000000">patient_id</text>
<polygon fill="#ffffff" stroke="transparent" points="488.5,-163.7 488.5,-185.7 778.5,-185.7 778.5,-163.7 488.5,-163.7"/>
<polygon fill="none" stroke="#000000" points="488.5,-163.7 488.5,-185.7 778.5,-185.7 778.5,-163.7 488.5,-163.7"/>
<image xlink:href="../../images/foreignKeys.png" width="11px" height="12px" preserveAspectRatio="xMinYMin meet" x="493.5" y="-180.7"/>
<text text-anchor="start" x="517.5" y="-170.8" font-family="Helvetica,sans-Serif" font-size="11.00" fill="#000000">observation_code</text>
<polygon fill="none" stroke="#000000" points="488.5,-141.7 488.5,-163.7 778.5,-163.7 778.5,-141.7 488.5,-141.7"/>
<image xlink:href="../../images/foreignKeys.png" width="11px" height="12px" preserveAspectRatio="xMinYMin meet" x="493.5" y="-158.7"/>
<text text-anchor="start" x="517.5" y="-148.8" font-family="Helvetica,sans-Serif" font-size="11.00" fill="#000000">value_code</text>
<polygon fill="none" stroke="#000000" points="488.5,-119.7 488.5,-141.7 778.5,-141.7 778.5,-119.7 488.5,-119.7"/>
<image xlink:href="../../images/foreignKeys.png" width="11px" height="12px" preserveAspectRatio="xMinYMin meet" x="493.5" y="-136.7"/>
<text text-anchor="start" x="517.5" y="-126.8" font-family="Helvetica,sans-Serif" font-size="11.00" fill="#000000">value_code_system</text>
<polygon fill="none" stroke="#000000" points="488.5,-97.7 488.5,-119.7 778.5,-119.7 778.5,-97.7 488.5,-97.7"/>
<image xlink:href="../../images/foreignKeys.png" width="11px" height="12px" preserveAspectRatio="xMinYMin meet" x="493.5" y="-114.7"/>
<text text-anchor="start" x="517.5" y="-104.8" font-family="Helvetica,sans-Serif" font-size="11.00" fill="#000000">value_display</text>
<polygon fill="#ffffff" stroke="transparent" points="488.5,-75.7 488.5,-97.7 778.5,-97.7 778.5,-75.7 488.5,-75.7"/>
<polygon fill="none" stroke="#000000" points="488.5,-75.7 488.5,-97.7 778.5,-97.7 778.5,-75.7 488.5,-75.7"/>
<text text-anchor="start" x="517.5" y="-82.8" font-family="Helvetica,sans-Serif" font-size="11.00" fill="#000000">status</text>
<polygon fill="none" stroke="#000000" points="488.5,-56.7 488.5,-75.7 778.5,-75.7 778.5,-56.7 488.5,-56.7"/>
<text text-anchor="start" x="491.5" y="-62.8" font-family="Helvetica,sans-Serif" font-size="11.00" fill="#000000">...</text>
<polygon fill="#ffffff" stroke="transparent" points="488.5,-37.7 488.5,-56.7 631.5,-56.7 631.5,-37.7 488.5,-37.7"/>
<polygon fill="none" stroke="#000000" points="488.5,-37.7 488.5,-56.7 631.5,-56.7 631.5,-37.7 488.5,-37.7"/>
<text text-anchor="start" x="491.5" y="-43.8" font-family="Helvetica,sans-Serif" font-size="11.00" fill="#000000">&lt; 5</text>
<polygon fill="#ffffff" stroke="transparent" points="631.5,-37.7 631.5,-56.7 704.5,-56.7 704.5,-37.7 631.5,-37.7"/>
<polygon fill="none" stroke="#000000" points="631.5,-37.7 631.5,-56.7 704.5,-56.7 704.5,-37.7 631.5,-37.7"/>
<text text-anchor="start" x="695.3862" y="-43.8" font-family="Helvetica,sans-Serif" font-size="11.00" fill="#000000"> &#160;</text>
<polygon fill="#ffffff" stroke="transparent" points="704.5,-37.7 704.5,-56.7 778.5,-56.7 778.5,-37.7 704.5,-37.7"/>
<polygon fill="none" stroke="#000000" points="704.5,-37.7 704.5,-56.7 778.5,-56.7 778.5,-37.7 704.5,-37.7"/>
<text text-anchor="start" x="769.3862" y="-43.8" font-family="Helvetica,sans-Serif" font-size="11.00" fill="#000000"> &#160;</text>
</a>
</g>
</g>
<!-- list_options -->
<g id="node2" class="node">
<title>list_options</title>
<g id="a_node2"><a xlink:href="../../tables/list_options.html" xlink:title="list_options" target="_top">
<polygon fill="#ffffff" stroke="transparent" points="8,-387.2 8,-448.2 124,-448.2 124,-387.2 8,-387.2"/>
<polygon fill="#f5f5f5" stroke="transparent" points="8,-424.7 8,-447.7 124,-447.7 124,-424.7 8,-424.7"/>
<polygon fill="none" stroke="#000000" points="8,-424.7 8,-447.7 124,-447.7 124,-424.7 8,-424.7"/>
<text text-anchor="start" x="13" y="-433.3" font-family="Helvetica,sans-Serif" font-weight="bold" font-size="11.00" fill="#000000">list_options</text>
<text text-anchor="start" x="89.5219" y="-432.8" font-family="Helvetica,sans-Serif" font-size="11.00" fill="#000000">[table]</text>
<polygon fill="none" stroke="#000000" points="8,-405.7 8,-424.7 124,-424.7 124,-405.7 8,-405.7"/>
<text text-anchor="start" x="11" y="-411.8" font-family="Helvetica,sans-Serif" font-size="11.00" fill="#000000">...</text>
<polygon fill="#ffffff" stroke="transparent" points="8,-386.7 8,-405.7 52,-405.7 52,-386.7 8,-386.7"/>
<polygon fill="none" stroke="#000000" points="8,-386.7 8,-405.7 52,-405.7 52,-386.7 8,-386.7"/>
<text text-anchor="start" x="11" y="-392.8" font-family="Helvetica,sans-Serif" font-size="11.00" fill="#000000"> &#160;</text>
<polygon fill="#ffffff" stroke="transparent" points="52,-386.7 52,-405.7 80,-405.7 80,-386.7 52,-386.7"/>
<polygon fill="none" stroke="#000000" points="52,-386.7 52,-405.7 80,-405.7 80,-386.7 52,-386.7"/>
<text text-anchor="start" x="70.8862" y="-392.8" font-family="Helvetica,sans-Serif" font-size="11.00" fill="#000000"> &#160;</text>
<polygon fill="#ffffff" stroke="transparent" points="80,-386.7 80,-405.7 124,-405.7 124,-386.7 80,-386.7"/>
<polygon fill="none" stroke="#000000" points="80,-386.7 80,-405.7 124,-405.7 124,-386.7 80,-386.7"/>
<text text-anchor="start" x="99.2904" y="-392.8" font-family="Helvetica,sans-Serif" font-size="11.00" fill="#000000">98 &gt;</text>
</a>
</g>
</g>
<!-- patient_care_experience_preferences&#45;&gt;list_options -->
<g id="edge1" class="edge">
<title>patient_care_experience_preferences:w&#45;&gt;list_options:e</title>
<path fill="none" stroke="#000000" d="M474.1356,-172.336C453.708,-164.717 450.7414,-140.8302 423,-132.7 312.9617,-100.4508 251.7185,-57.6777 165,-132.7 117.109,-174.1316 187.3255,-414.7 124,-414.7"/>
<polygon fill="#000000" stroke="#000000" points="480.6062,-173.4008 487.9154,-178.2522 484.5531,-174.0504 488.5,-174.7 488.5,-174.7 488.5,-174.7 484.5531,-174.0504 489.0846,-171.1478 480.6062,-173.4008 480.6062,-173.4008"/>
<ellipse fill="none" stroke="#000000" cx="477.4487" cy="-172.8812" rx="3.2" ry="3.2"/>
</g>
<!-- patient_data -->
<g id="node3" class="node">
<title>patient_data</title>
<g id="a_node3"><a xlink:href="../../tables/patient_data.html" xlink:title="patient_data" target="_top">
<polygon fill="#ffffff" stroke="transparent" points="232,-387.2 232,-448.2 356,-448.2 356,-387.2 232,-387.2"/>
<polygon fill="#f5f5f5" stroke="transparent" points="232,-424.7 232,-447.7 356,-447.7 356,-424.7 232,-424.7"/>
<polygon fill="none" stroke="#000000" points="232,-424.7 232,-447.7 356,-447.7 356,-424.7 232,-424.7"/>
<text text-anchor="start" x="237" y="-433.3" font-family="Helvetica,sans-Serif" font-weight="bold" font-size="11.00" fill="#000000">patient_data</text>
<text text-anchor="start" x="321.5219" y="-432.8" font-family="Helvetica,sans-Serif" font-size="11.00" fill="#000000">[table]</text>
<polygon fill="none" stroke="#000000" points="232,-405.7 232,-424.7 356,-424.7 356,-405.7 232,-405.7"/>
<text text-anchor="start" x="235" y="-411.8" font-family="Helvetica,sans-Serif" font-size="11.00" fill="#000000">...</text>
<polygon fill="#ffffff" stroke="transparent" points="232,-386.7 232,-405.7 285,-405.7 285,-386.7 232,-386.7"/>
<polygon fill="none" stroke="#000000" points="232,-386.7 232,-405.7 285,-405.7 285,-386.7 232,-386.7"/>
<text text-anchor="start" x="235" y="-392.8" font-family="Helvetica,sans-Serif" font-size="11.00" fill="#000000">&lt; 9</text>
<polygon fill="#ffffff" stroke="transparent" points="285,-386.7 285,-405.7 313,-405.7 313,-386.7 285,-386.7"/>
<polygon fill="none" stroke="#000000" points="285,-386.7 285,-405.7 313,-405.7 313,-386.7 285,-386.7"/>
<text text-anchor="start" x="303.8862" y="-392.8" font-family="Helvetica,sans-Serif" font-size="11.00" fill="#000000"> &#160;</text>
<polygon fill="#ffffff" stroke="transparent" points="313,-386.7 313,-405.7 356,-405.7 356,-386.7 313,-386.7"/>
<polygon fill="none" stroke="#000000" points="313,-386.7 313,-405.7 356,-405.7 356,-386.7 313,-386.7"/>
<text text-anchor="start" x="331.2904" y="-392.8" font-family="Helvetica,sans-Serif" font-size="11.00" fill="#000000">95 &gt;</text>
</a>
</g>
</g>
<!-- patient_care_experience_preferences&#45;&gt;patient_data -->
<g id="edge2" class="edge">
<title>patient_care_experience_preferences:w&#45;&gt;patient_data:e</title>
<path fill="none" stroke="#000000" d="M474.0161,-198.0777C412.7424,-211.1984 473.8883,-314.9412 423,-375.7 400.8767,-402.1144 390.4552,-414.7 356,-414.7"/>
<polygon fill="#000000" stroke="#000000" points="480.5359,-197.4576 488.8409,-200.2838 484.518,-197.0788 488.5,-196.7 488.5,-196.7 488.5,-196.7 484.518,-197.0788 488.1591,-193.1162 480.5359,-197.4576 480.5359,-197.4576"/>
<ellipse fill="none" stroke="#000000" cx="477.3503" cy="-197.7607" rx="3.2" ry="3.2"/>
</g>
<!-- preference_value_sets -->
<g id="node4" class="node">
<title>preference_value_sets</title>
<g id="a_node4"><a xlink:href="../../tables/preference_value_sets.html" xlink:title="preference_value_sets" target="_top">
<polygon fill="#ffffff" stroke="transparent" points="173,-143.7 173,-365.7 415,-365.7 415,-143.7 173,-143.7"/>
<polygon fill="#f5f5f5" stroke="transparent" points="175,-340.7 175,-363.7 413,-363.7 413,-340.7 175,-340.7"/>
<polygon fill="none" stroke="#000000" points="175,-340.7 175,-363.7 413,-363.7 413,-340.7 175,-340.7"/>
<text text-anchor="start" x="180" y="-349.3" font-family="Helvetica,sans-Serif" font-weight="bold" font-size="11.00" fill="#000000">preference_value_sets</text>
<text text-anchor="start" x="378.0437" y="-348.8" font-family="Helvetica,sans-Serif" font-size="11.00" fill="#000000">[table]</text>
<polygon fill="none" stroke="#000000" points="175,-318.7 175,-340.7 346,-340.7 346,-318.7 175,-318.7"/>
<image xlink:href="../../images/primaryKeys.png" width="11px" height="12px" preserveAspectRatio="xMinYMin meet" x="180" y="-335.7"/>
<text text-anchor="start" x="195" y="-325.8" font-family="Helvetica,sans-Serif" font-size="11.00" fill="#000000">id</text>
<polygon fill="none" stroke="#000000" points="346,-318.7 346,-340.7 413,-340.7 413,-318.7 346,-318.7"/>
<text text-anchor="start" x="349" y="-326.4" font-family="Helvetica,sans-Serif" font-size="11.00" fill="#000000">int[10]</text>
<polygon fill="#ffffff" stroke="transparent" points="175,-296.7 175,-318.7 346,-318.7 346,-296.7 175,-296.7"/>
<polygon fill="none" stroke="#000000" points="175,-296.7 175,-318.7 346,-318.7 346,-296.7 175,-296.7"/>
<text text-anchor="start" x="195" y="-303.8" font-family="Helvetica,sans-Serif" font-size="11.00" fill="#000000">loinc_code</text>
<polygon fill="none" stroke="#000000" points="346,-296.7 346,-318.7 413,-318.7 413,-296.7 346,-296.7"/>
<text text-anchor="start" x="349" y="-304.4" font-family="Helvetica,sans-Serif" font-size="11.00" fill="#000000">varchar[50]</text>
<polygon fill="none" stroke="#000000" points="175,-274.7 175,-296.7 346,-296.7 346,-274.7 175,-274.7"/>
<image xlink:href="../../images/primaryKeys.png" width="11px" height="12px" preserveAspectRatio="xMinYMin meet" x="180" y="-291.7"/>
<text text-anchor="start" x="195" y="-281.8" font-family="Helvetica,sans-Serif" font-size="11.00" fill="#000000">answer_code</text>
<polygon fill="none" stroke="#000000" points="346,-274.7 346,-296.7 413,-296.7 413,-274.7 346,-274.7"/>
<text text-anchor="start" x="348.9365" y="-282.4" font-family="Helvetica,sans-Serif" font-size="11.00" fill="#000000">varchar[100]</text>
<polygon fill="none" stroke="#000000" points="175,-252.7 175,-274.7 346,-274.7 346,-252.7 175,-252.7"/>
<image xlink:href="../../images/primaryKeys.png" width="11px" height="12px" preserveAspectRatio="xMinYMin meet" x="180" y="-269.7"/>
<text text-anchor="start" x="195" y="-259.8" font-family="Helvetica,sans-Serif" font-size="11.00" fill="#000000">answer_system</text>
<polygon fill="none" stroke="#000000" points="346,-252.7 346,-274.7 413,-274.7 413,-252.7 346,-252.7"/>
<text text-anchor="start" x="348.9365" y="-260.4" font-family="Helvetica,sans-Serif" font-size="11.00" fill="#000000">varchar[255]</text>
<polygon fill="none" stroke="#000000" points="175,-230.7 175,-252.7 346,-252.7 346,-230.7 175,-230.7"/>
<image xlink:href="../../images/primaryKeys.png" width="11px" height="12px" preserveAspectRatio="xMinYMin meet" x="180" y="-247.7"/>
<text text-anchor="start" x="195" y="-237.8" font-family="Helvetica,sans-Serif" font-size="11.00" fill="#000000">answer_display</text>
<polygon fill="none" stroke="#000000" points="346,-230.7 346,-252.7 413,-252.7 413,-230.7 346,-230.7"/>
<text text-anchor="start" x="348.9365" y="-238.4" font-family="Helvetica,sans-Serif" font-size="11.00" fill="#000000">varchar[255]</text>
<polygon fill="none" stroke="#000000" points="175,-208.7 175,-230.7 346,-230.7 346,-208.7 175,-208.7"/>
<text text-anchor="start" x="195" y="-215.8" font-family="Helvetica,sans-Serif" font-size="11.00" fill="#000000">answer_definition</text>
<polygon fill="none" stroke="#000000" points="346,-208.7 346,-230.7 413,-230.7 413,-208.7 346,-208.7"/>
<text text-anchor="start" x="349" y="-216.4" font-family="Helvetica,sans-Serif" font-size="11.00" fill="#000000">text[65535]</text>
<polygon fill="none" stroke="#000000" points="175,-186.7 175,-208.7 346,-208.7 346,-186.7 175,-186.7"/>
<text text-anchor="start" x="195" y="-193.8" font-family="Helvetica,sans-Serif" font-size="11.00" fill="#000000">sort_order</text>
<polygon fill="none" stroke="#000000" points="346,-186.7 346,-208.7 413,-208.7 413,-186.7 346,-186.7"/>
<text text-anchor="start" x="349" y="-194.4" font-family="Helvetica,sans-Serif" font-size="11.00" fill="#000000">int[10]</text>
<polygon fill="none" stroke="#000000" points="175,-164.7 175,-186.7 346,-186.7 346,-164.7 175,-164.7"/>
<text text-anchor="start" x="195" y="-171.8" font-family="Helvetica,sans-Serif" font-size="11.00" fill="#000000">active</text>
<polygon fill="none" stroke="#000000" points="346,-164.7 346,-186.7 413,-186.7 413,-164.7 346,-164.7"/>
<text text-anchor="start" x="349" y="-172.4" font-family="Helvetica,sans-Serif" font-size="11.00" fill="#000000">boolean[3]</text>
<polygon fill="#ffffff" stroke="transparent" points="175,-145.7 175,-164.7 265,-164.7 265,-145.7 175,-145.7"/>
<polygon fill="none" stroke="#000000" points="175,-145.7 175,-164.7 265,-164.7 265,-145.7 175,-145.7"/>
<text text-anchor="start" x="178" y="-151.8" font-family="Helvetica,sans-Serif" font-size="11.00" fill="#000000">&lt; 0</text>
<polygon fill="#ffffff" stroke="transparent" points="265,-145.7 265,-164.7 346,-164.7 346,-145.7 265,-145.7"/>
<polygon fill="none" stroke="#000000" points="265,-145.7 265,-164.7 346,-164.7 346,-145.7 265,-145.7"/>
<text text-anchor="start" x="336.8862" y="-151.8" font-family="Helvetica,sans-Serif" font-size="11.00" fill="#000000"> &#160;</text>
<polygon fill="#ffffff" stroke="transparent" points="346,-145.7 346,-164.7 413,-164.7 413,-145.7 346,-145.7"/>
<polygon fill="none" stroke="#000000" points="346,-145.7 346,-164.7 413,-164.7 413,-145.7 346,-145.7"/>
<text text-anchor="start" x="394.4053" y="-151.8" font-family="Helvetica,sans-Serif" font-size="11.00" fill="#000000">6 &gt;</text>
<polygon fill="none" stroke="#000000" stroke-width="2" points="174,-144.7 174,-364.7 414,-364.7 414,-144.7 174,-144.7"/>
</a>
</g>
</g>
<!-- patient_care_experience_preferences&#45;&gt;preference_value_sets -->
<g id="edge3" class="edge">
<title>patient_care_experience_preferences:w&#45;&gt;preference_value_sets:e</title>
<path fill="none" stroke="#000000" d="M474.2233,-155.2381C429.5809,-173.6253 475.3955,-285.7 413,-285.7"/>
<polygon fill="#000000" stroke="#000000" points="480.6235,-154.1003 489.1301,-156.2444 484.5617,-153.4002 488.5,-152.7 488.5,-152.7 488.5,-152.7 484.5617,-153.4002 487.8699,-149.1556 480.6235,-154.1003 480.6235,-154.1003"/>
<ellipse fill="none" stroke="#000000" cx="477.4729" cy="-154.6604" rx="3.2" ry="3.2"/>
</g>
<!-- patient_care_experience_preferences&#45;&gt;preference_value_sets -->
<g id="edge4" class="edge">
<title>patient_care_experience_preferences:w&#45;&gt;preference_value_sets:e</title>
<path fill="none" stroke="#000000" d="M474.2233,-133.2381C429.5809,-151.6253 475.3955,-263.7 413,-263.7"/>
<polygon fill="#000000" stroke="#000000" points="480.6235,-132.1003 489.1301,-134.2444 484.5617,-131.4002 488.5,-130.7 488.5,-130.7 488.5,-130.7 484.5617,-131.4002 487.8699,-127.1556 480.6235,-132.1003 480.6235,-132.1003"/>
<ellipse fill="none" stroke="#000000" cx="477.4729" cy="-132.6604" rx="3.2" ry="3.2"/>
</g>
<!-- patient_care_experience_preferences&#45;&gt;preference_value_sets -->
<g id="edge5" class="edge">
<title>patient_care_experience_preferences:w&#45;&gt;preference_value_sets:e</title>
<path fill="none" stroke="#000000" d="M474.2233,-111.2381C429.5809,-129.6253 475.3955,-241.7 413,-241.7"/>
<polygon fill="#000000" stroke="#000000" points="480.6235,-110.1003 489.1301,-112.2444 484.5617,-109.4002 488.5,-108.7 488.5,-108.7 488.5,-108.7 484.5617,-109.4002 487.8699,-105.1556 480.6235,-110.1003 480.6235,-110.1003"/>
<ellipse fill="none" stroke="#000000" cx="477.4729" cy="-110.6604" rx="3.2" ry="3.2"/>
</g>
<!-- patient_data&#45;&gt;list_options -->
<g id="edge6" class="edge">
<title>patient_data:w&#45;&gt;list_options:e</title>
<path fill="none" stroke="#000000" d="M217.9294,-411.0205C181.0683,-401.8446 166.9375,-403.0711 124,-414.7"/>
<polygon fill="#000000" stroke="#000000" points="224.2603,-412.676 231.0892,-418.1829 228.1301,-413.688 232,-414.7 232,-414.7 232,-414.7 228.1301,-413.688 232.9108,-411.2171 224.2603,-412.676 224.2603,-412.676"/>
<ellipse fill="none" stroke="#000000" cx="221.1644" cy="-411.8664" rx="3.2" ry="3.2"/>
</g>
<!-- patient_data&#45;&gt;list_options -->
<g id="edge7" class="edge">
<title>patient_data:w&#45;&gt;list_options:e</title>
<path fill="none" stroke="#000000" d="M217.4478,-414.7C180.9443,-414.7 166.75,-414.7 124,-414.7"/>
<polygon fill="#000000" stroke="#000000" points="224,-414.7001 232,-418.3 228,-414.7 232,-414.7 232,-414.7 232,-414.7 228,-414.7 232,-411.1 224,-414.7001 224,-414.7001"/>
<ellipse fill="none" stroke="#000000" cx="220.8" cy="-414.7001" rx="3.2" ry="3.2"/>
</g>
<!-- patient_data&#45;&gt;list_options -->
<g id="edge8" class="edge">
<title>patient_data:w&#45;&gt;list_options:e</title>
<path fill="none" stroke="#000000" d="M217.9294,-418.3795C181.0683,-427.5554 166.9375,-426.3289 124,-414.7"/>
<polygon fill="#000000" stroke="#000000" points="224.2603,-416.724 232.9108,-418.1829 228.1301,-415.712 232,-414.7 232,-414.7 232,-414.7 228.1301,-415.712 231.0892,-411.2171 224.2603,-416.724 224.2603,-416.724"/>
<ellipse fill="none" stroke="#000000" cx="221.1644" cy="-417.5336" rx="3.2" ry="3.2"/>
</g>
<!-- patient_treatment_intervention_preferences -->
<g id="node5" class="node">
<title>patient_treatment_intervention_preferences</title>
<g id="a_node5"><a xlink:href="../../tables/patient_treatment_intervention__11811af1.html" xlink:title="patient_treatment_intervention_preferences" target="_top">
<polygon fill="#ffffff" stroke="transparent" points="464,-296.2 464,-533.2 803,-533.2 803,-296.2 464,-296.2"/>
<polygon fill="#f5f5f5" stroke="transparent" points="464.5,-509.7 464.5,-532.7 803.5,-532.7 803.5,-509.7 464.5,-509.7"/>
<polygon fill="none" stroke="#000000" points="464.5,-509.7 464.5,-532.7 803.5,-532.7 803.5,-509.7 464.5,-509.7"/>
<text text-anchor="start" x="469.5" y="-518.3" font-family="Helvetica,sans-Serif" font-weight="bold" font-size="11.00" fill="#000000">patient_treatment_intervention_preferences</text>
<text text-anchor="start" x="769.0219" y="-517.8" font-family="Helvetica,sans-Serif" font-size="11.00" fill="#000000">[table]</text>
<polygon fill="none" stroke="#000000" points="464.5,-487.7 464.5,-509.7 803.5,-509.7 803.5,-487.7 464.5,-487.7"/>
<image xlink:href="../../images/primaryKeys.png" width="11px" height="12px" preserveAspectRatio="xMinYMin meet" x="469.5" y="-504.7"/>
<text text-anchor="start" x="493.5" y="-494.8" font-family="Helvetica,sans-Serif" font-size="11.00" fill="#000000">id</text>
<polygon fill="#ffffff" stroke="transparent" points="464.5,-465.7 464.5,-487.7 803.5,-487.7 803.5,-465.7 464.5,-465.7"/>
<polygon fill="none" stroke="#000000" points="464.5,-465.7 464.5,-487.7 803.5,-487.7 803.5,-465.7 464.5,-465.7"/>
<text text-anchor="start" x="493.5" y="-472.8" font-family="Helvetica,sans-Serif" font-size="11.00" fill="#000000">uuid</text>
<polygon fill="#ffffff" stroke="transparent" points="464.5,-443.7 464.5,-465.7 803.5,-465.7 803.5,-443.7 464.5,-443.7"/>
<polygon fill="none" stroke="#000000" points="464.5,-443.7 464.5,-465.7 803.5,-465.7 803.5,-443.7 464.5,-443.7"/>
<image xlink:href="../../images/foreignKeys.png" width="11px" height="12px" preserveAspectRatio="xMinYMin meet" x="469.5" y="-460.7"/>
<text text-anchor="start" x="493.5" y="-450.8" font-family="Helvetica,sans-Serif" font-size="11.00" fill="#000000">patient_id</text>
<polygon fill="#ffffff" stroke="transparent" points="464.5,-421.7 464.5,-443.7 803.5,-443.7 803.5,-421.7 464.5,-421.7"/>
<polygon fill="none" stroke="#000000" points="464.5,-421.7 464.5,-443.7 803.5,-443.7 803.5,-421.7 464.5,-421.7"/>
<image xlink:href="../../images/foreignKeys.png" width="11px" height="12px" preserveAspectRatio="xMinYMin meet" x="469.5" y="-438.7"/>
<text text-anchor="start" x="493.5" y="-428.8" font-family="Helvetica,sans-Serif" font-size="11.00" fill="#000000">observation_code</text>
<polygon fill="none" stroke="#000000" points="464.5,-399.7 464.5,-421.7 803.5,-421.7 803.5,-399.7 464.5,-399.7"/>
<image xlink:href="../../images/foreignKeys.png" width="11px" height="12px" preserveAspectRatio="xMinYMin meet" x="469.5" y="-416.7"/>
<text text-anchor="start" x="493.5" y="-406.8" font-family="Helvetica,sans-Serif" font-size="11.00" fill="#000000">value_code</text>
<polygon fill="none" stroke="#000000" points="464.5,-377.7 464.5,-399.7 803.5,-399.7 803.5,-377.7 464.5,-377.7"/>
<image xlink:href="../../images/foreignKeys.png" width="11px" height="12px" preserveAspectRatio="xMinYMin meet" x="469.5" y="-394.7"/>
<text text-anchor="start" x="493.5" y="-384.8" font-family="Helvetica,sans-Serif" font-size="11.00" fill="#000000">value_code_system</text>
<polygon fill="none" stroke="#000000" points="464.5,-355.7 464.5,-377.7 803.5,-377.7 803.5,-355.7 464.5,-355.7"/>
<image xlink:href="../../images/foreignKeys.png" width="11px" height="12px" preserveAspectRatio="xMinYMin meet" x="469.5" y="-372.7"/>
<text text-anchor="start" x="493.5" y="-362.8" font-family="Helvetica,sans-Serif" font-size="11.00" fill="#000000">value_display</text>
<polygon fill="#ffffff" stroke="transparent" points="464.5,-333.7 464.5,-355.7 803.5,-355.7 803.5,-333.7 464.5,-333.7"/>
<polygon fill="none" stroke="#000000" points="464.5,-333.7 464.5,-355.7 803.5,-355.7 803.5,-333.7 464.5,-333.7"/>
<text text-anchor="start" x="493.5" y="-340.8" font-family="Helvetica,sans-Serif" font-size="11.00" fill="#000000">status</text>
<polygon fill="none" stroke="#000000" points="464.5,-314.7 464.5,-333.7 803.5,-333.7 803.5,-314.7 464.5,-314.7"/>
<text text-anchor="start" x="467.5" y="-320.8" font-family="Helvetica,sans-Serif" font-size="11.00" fill="#000000">...</text>
<polygon fill="#ffffff" stroke="transparent" points="464.5,-295.7 464.5,-314.7 632.5,-314.7 632.5,-295.7 464.5,-295.7"/>
<polygon fill="none" stroke="#000000" points="464.5,-295.7 464.5,-314.7 632.5,-314.7 632.5,-295.7 464.5,-295.7"/>
<text text-anchor="start" x="467.5" y="-301.8" font-family="Helvetica,sans-Serif" font-size="11.00" fill="#000000">&lt; 5</text>
<polygon fill="#ffffff" stroke="transparent" points="632.5,-295.7 632.5,-314.7 717.5,-314.7 717.5,-295.7 632.5,-295.7"/>
<polygon fill="none" stroke="#000000" points="632.5,-295.7 632.5,-314.7 717.5,-314.7 717.5,-295.7 632.5,-295.7"/>
<text text-anchor="start" x="708.3862" y="-301.8" font-family="Helvetica,sans-Serif" font-size="11.00" fill="#000000"> &#160;</text>
<polygon fill="#ffffff" stroke="transparent" points="717.5,-295.7 717.5,-314.7 803.5,-314.7 803.5,-295.7 717.5,-295.7"/>
<polygon fill="none" stroke="#000000" points="717.5,-295.7 717.5,-314.7 803.5,-314.7 803.5,-295.7 717.5,-295.7"/>
<text text-anchor="start" x="794.3862" y="-301.8" font-family="Helvetica,sans-Serif" font-size="11.00" fill="#000000"> &#160;</text>
</a>
</g>
</g>
<!-- patient_treatment_intervention_preferences&#45;&gt;list_options -->
<g id="edge9" class="edge">
<title>patient_treatment_intervention_preferences:w&#45;&gt;list_options:e</title>
<path fill="none" stroke="#000000" d="M450.5792,-436.6877C441.6523,-442.8379 438.0353,-454.3791 423,-458.7 312.7939,-490.3712 270.1477,-504.4428 165,-458.7 140.4894,-448.037 150.7296,-414.7 124,-414.7"/>
<polygon fill="#000000" stroke="#000000" points="456.8093,-434.9031 465.4914,-436.1608 460.6547,-433.8015 464.5,-432.7 464.5,-432.7 464.5,-432.7 460.6547,-433.8015 463.5086,-429.2392 456.8093,-434.9031 456.8093,-434.9031"/>
<ellipse fill="none" stroke="#000000" cx="453.733" cy="-435.7843" rx="3.2" ry="3.2"/>
</g>
<!-- patient_treatment_intervention_preferences&#45;&gt;patient_data -->
<g id="edge10" class="edge">
<title>patient_treatment_intervention_preferences:w&#45;&gt;patient_data:e</title>
<path fill="none" stroke="#000000" d="M449.9067,-453.5029C411.4334,-446.8474 402.0747,-414.7 356,-414.7"/>
<polygon fill="#000000" stroke="#000000" points="456.5268,-454.0459 464.2056,-458.2879 460.5134,-454.3729 464.5,-454.7 464.5,-454.7 464.5,-454.7 460.5134,-454.3729 464.7944,-451.1121 456.5268,-454.0459 456.5268,-454.0459"/>
<ellipse fill="none" stroke="#000000" cx="453.3375" cy="-453.7842" rx="3.2" ry="3.2"/>
</g>
<!-- patient_treatment_intervention_preferences&#45;&gt;preference_value_sets -->
<g id="edge11" class="edge">
<title>patient_treatment_intervention_preferences:w&#45;&gt;preference_value_sets:e</title>
<path fill="none" stroke="#000000" d="M450.3407,-407.3566C416.5986,-387.478 467.2182,-285.7 413,-285.7"/>
<polygon fill="#000000" stroke="#000000" points="456.7141,-408.8615 463.6727,-414.2036 460.6071,-409.7807 464.5,-410.7 464.5,-410.7 464.5,-410.7 460.6071,-409.7807 465.3273,-407.1964 456.7141,-408.8615 456.7141,-408.8615"/>
<ellipse fill="none" stroke="#000000" cx="453.5998" cy="-408.1261" rx="3.2" ry="3.2"/>
</g>
<!-- patient_treatment_intervention_preferences&#45;&gt;preference_value_sets -->
<g id="edge12" class="edge">
<title>patient_treatment_intervention_preferences:w&#45;&gt;preference_value_sets:e</title>
<path fill="none" stroke="#000000" d="M450.3407,-385.3566C416.5986,-365.478 467.2182,-263.7 413,-263.7"/>
<polygon fill="#000000" stroke="#000000" points="456.7141,-386.8615 463.6727,-392.2036 460.6071,-387.7807 464.5,-388.7 464.5,-388.7 464.5,-388.7 460.6071,-387.7807 465.3273,-385.1964 456.7141,-386.8615 456.7141,-386.8615"/>
<ellipse fill="none" stroke="#000000" cx="453.5998" cy="-386.1261" rx="3.2" ry="3.2"/>
</g>
<!-- patient_treatment_intervention_preferences&#45;&gt;preference_value_sets -->
<g id="edge13" class="edge">
<title>patient_treatment_intervention_preferences:w&#45;&gt;preference_value_sets:e</title>
<path fill="none" stroke="#000000" d="M450.3407,-363.3566C416.5986,-343.478 467.2182,-241.7 413,-241.7"/>
<polygon fill="#000000" stroke="#000000" points="456.7141,-364.8615 463.6727,-370.2036 460.6071,-365.7807 464.5,-366.7 464.5,-366.7 464.5,-366.7 460.6071,-365.7807 465.3273,-363.1964 456.7141,-364.8615 456.7141,-364.8615"/>
<ellipse fill="none" stroke="#000000" cx="453.5998" cy="-364.1261" rx="3.2" ry="3.2"/>
</g>
</g>
</svg>
