<?xml version="1.0" encoding="UTF-8" standalone="no"?>
<!DOCTYPE svg PUBLIC "-//W3C//DTD SVG 1.1//EN"
 "http://www.w3.org/Graphics/SVG/1.1/DTD/svg11.dtd">
<!-- Generated by graphviz version 2.40.1 (20161225.0304)
 -->
<!-- Title: oneDegreeRelationshipsDiagram Pages: 1 -->
<svg width="654pt" height="545pt"
 viewBox="0.00 0.00 654.00 545.20" xmlns="http://www.w3.org/2000/svg" xmlns:xlink="http://www.w3.org/1999/xlink">
<g id="graph0" class="graph" transform="scale(1 1) rotate(0) translate(4 541.2)">
<title>oneDegreeRelationshipsDiagram</title>
<polygon fill="#ffffff" stroke="transparent" points="-4,4 -4,-541.2 650,-541.2 650,4 -4,4"/>
<text text-anchor="middle" x="72.4936" y="-7.3" font-family="Helvetica,sans-Serif" font-size="11.00" fill="#000000">Generated by SchemaSpy</text>
<!-- patient_care_experience_preferences -->
<g id="node1" class="node">
<title>patient_care_experience_preferences</title>
<g id="a_node1"><a xlink:href="../../tables/patient_care_experience_preferences.html" xlink:title="patient_care_experience_preferences" target="_top">
<polygon fill="#ffffff" stroke="transparent" points="323.5,-296.2 323.5,-533.2 613.5,-533.2 613.5,-296.2 323.5,-296.2"/>
<polygon fill="#f5f5f5" stroke="transparent" points="323.5,-509.7 323.5,-532.7 613.5,-532.7 613.5,-509.7 323.5,-509.7"/>
<polygon fill="none" stroke="#000000" points="323.5,-509.7 323.5,-532.7 613.5,-532.7 613.5,-509.7 323.5,-509.7"/>
<text text-anchor="start" x="328.5" y="-518.3" font-family="Helvetica,sans-Serif" font-weight="bold" font-size="11.00" fill="#000000">patient_care_experience_preferences</text>
<text text-anchor="start" x="579.0219" y="-517.8" font-family="Helvetica,sans-Serif" font-size="11.00" fill="#000000">[table]</text>
<polygon fill="none" stroke="#000000" points="323.5,-487.7 323.5,-509.7 613.5,-509.7 613.5,-487.7 323.5,-487.7"/>
<image xlink:href="../../images/primaryKeys.png" width="11px" height="12px" preserveAspectRatio="xMinYMin meet" x="328.5" y="-504.7"/>
<text text-anchor="start" x="352.5" y="-494.8" font-family="Helvetica,sans-Serif" font-size="11.00" fill="#000000">id</text>
<polygon fill="#ffffff" stroke="transparent" points="323.5,-465.7 323.5,-487.7 613.5,-487.7 613.5,-465.7 323.5,-465.7"/>
<polygon fill="none" stroke="#000000" points="323.5,-465.7 323.5,-487.7 613.5,-487.7 613.5,-465.7 323.5,-465.7"/>
<text text-anchor="start" x="352.5" y="-472.8" font-family="Helvetica,sans-Serif" font-size="11.00" fill="#000000">uuid</text>
<polygon fill="#ffffff" stroke="transparent" points="323.5,-443.7 323.5,-465.7 613.5,-465.7 613.5,-443.7 323.5,-443.7"/>
<polygon fill="none" stroke="#000000" points="323.5,-443.7 323.5,-465.7 613.5,-465.7 613.5,-443.7 323.5,-443.7"/>
<image xlink:href="../../images/foreignKeys.png" width="11px" height="12px" preserveAspectRatio="xMinYMin meet" x="328.5" y="-460.7"/>
<text text-anchor="start" x="352.5" y="-450.8" font-family="Helvetica,sans-Serif" font-size="11.00" fill="#000000">patient_id</text>
<polygon fill="#ffffff" stroke="transparent" points="323.5,-421.7 323.5,-443.7 613.5,-443.7 613.5,-421.7 323.5,-421.7"/>
<polygon fill="none" stroke="#000000" points="323.5,-421.7 323.5,-443.7 613.5,-443.7 613.5,-421.7 323.5,-421.7"/>
<image xlink:href="../../images/foreignKeys.png" width="11px" height="12px" preserveAspectRatio="xMinYMin meet" x="328.5" y="-438.7"/>
<text text-anchor="start" x="352.5" y="-428.8" font-family="Helvetica,sans-Serif" font-size="11.00" fill="#000000">observation_code</text>
<polygon fill="none" stroke="#000000" points="323.5,-399.7 323.5,-421.7 613.5,-421.7 613.5,-399.7 323.5,-399.7"/>
<image xlink:href="../../images/foreignKeys.png" width="11px" height="12px" preserveAspectRatio="xMinYMin meet" x="328.5" y="-416.7"/>
<text text-anchor="start" x="352.5" y="-406.8" font-family="Helvetica,sans-Serif" font-size="11.00" fill="#000000">value_code</text>
<polygon fill="none" stroke="#000000" points="323.5,-377.7 323.5,-399.7 613.5,-399.7 613.5,-377.7 323.5,-377.7"/>
<image xlink:href="../../images/foreignKeys.png" width="11px" height="12px" preserveAspectRatio="xMinYMin meet" x="328.5" y="-394.7"/>
<text text-anchor="start" x="352.5" y="-384.8" font-family="Helvetica,sans-Serif" font-size="11.00" fill="#000000">value_code_system</text>
<polygon fill="none" stroke="#000000" points="323.5,-355.7 323.5,-377.7 613.5,-377.7 613.5,-355.7 323.5,-355.7"/>
<image xlink:href="../../images/foreignKeys.png" width="11px" height="12px" preserveAspectRatio="xMinYMin meet" x="328.5" y="-372.7"/>
<text text-anchor="start" x="352.5" y="-362.8" font-family="Helvetica,sans-Serif" font-size="11.00" fill="#000000">value_display</text>
<polygon fill="#ffffff" stroke="transparent" points="323.5,-333.7 323.5,-355.7 613.5,-355.7 613.5,-333.7 323.5,-333.7"/>
<polygon fill="none" stroke="#000000" points="323.5,-333.7 323.5,-355.7 613.5,-355.7 613.5,-333.7 323.5,-333.7"/>
<text text-anchor="start" x="352.5" y="-340.8" font-family="Helvetica,sans-Serif" font-size="11.00" fill="#000000">status</text>
<polygon fill="none" stroke="#000000" points="323.5,-314.7 323.5,-333.7 613.5,-333.7 613.5,-314.7 323.5,-314.7"/>
<text text-anchor="start" x="326.5" y="-320.8" font-family="Helvetica,sans-Serif" font-size="11.00" fill="#000000">...</text>
<polygon fill="#ffffff" stroke="transparent" points="323.5,-295.7 323.5,-314.7 466.5,-314.7 466.5,-295.7 323.5,-295.7"/>
<polygon fill="none" stroke="#000000" points="323.5,-295.7 323.5,-314.7 466.5,-314.7 466.5,-295.7 323.5,-295.7"/>
<text text-anchor="start" x="326.5" y="-301.8" font-family="Helvetica,sans-Serif" font-size="11.00" fill="#000000">&lt; 5</text>
<polygon fill="#ffffff" stroke="transparent" points="466.5,-295.7 466.5,-314.7 539.5,-314.7 539.5,-295.7 466.5,-295.7"/>
<polygon fill="none" stroke="#000000" points="466.5,-295.7 466.5,-314.7 539.5,-314.7 539.5,-295.7 466.5,-295.7"/>
<text text-anchor="start" x="530.3862" y="-301.8" font-family="Helvetica,sans-Serif" font-size="11.00" fill="#000000"> &#160;</text>
<polygon fill="#ffffff" stroke="transparent" points="539.5,-295.7 539.5,-314.7 613.5,-314.7 613.5,-295.7 539.5,-295.7"/>
<polygon fill="none" stroke="#000000" points="539.5,-295.7 539.5,-314.7 613.5,-314.7 613.5,-295.7 539.5,-295.7"/>
<text text-anchor="start" x="604.3862" y="-301.8" font-family="Helvetica,sans-Serif" font-size="11.00" fill="#000000"> &#160;</text>
</a>
</g>
</g>
<!-- preference_value_sets -->
<g id="node2" class="node">
<title>preference_value_sets</title>
<g id="a_node2"><a xlink:href="../../tables/preference_value_sets.html" xlink:title="preference_value_sets" target="_top">
<polygon fill="#ffffff" stroke="transparent" points="8,-139.7 8,-361.7 250,-361.7 250,-139.7 8,-139.7"/>
<polygon fill="#f5f5f5" stroke="transparent" points="10,-336.7 10,-359.7 248,-359.7 248,-336.7 10,-336.7"/>
<polygon fill="none" stroke="#000000" points="10,-336.7 10,-359.7 248,-359.7 248,-336.7 10,-336.7"/>
<text text-anchor="start" x="15" y="-345.3" font-family="Helvetica,sans-Serif" font-weight="bold" font-size="11.00" fill="#000000">preference_value_sets</text>
<text text-anchor="start" x="213.0437" y="-344.8" font-family="Helvetica,sans-Serif" font-size="11.00" fill="#000000">[table]</text>
<polygon fill="none" stroke="#000000" points="10,-314.7 10,-336.7 181,-336.7 181,-314.7 10,-314.7"/>
<image xlink:href="../../images/primaryKeys.png" width="11px" height="12px" preserveAspectRatio="xMinYMin meet" x="15" y="-331.7"/>
<text text-anchor="start" x="30" y="-321.8" font-family="Helvetica,sans-Serif" font-size="11.00" fill="#000000">id</text>
<polygon fill="none" stroke="#000000" points="181,-314.7 181,-336.7 248,-336.7 248,-314.7 181,-314.7"/>
<text text-anchor="start" x="184" y="-322.4" font-family="Helvetica,sans-Serif" font-size="11.00" fill="#000000">int[10]</text>
<polygon fill="#ffffff" stroke="transparent" points="10,-292.7 10,-314.7 181,-314.7 181,-292.7 10,-292.7"/>
<polygon fill="none" stroke="#000000" points="10,-292.7 10,-314.7 181,-314.7 181,-292.7 10,-292.7"/>
<text text-anchor="start" x="30" y="-299.8" font-family="Helvetica,sans-Serif" font-size="11.00" fill="#000000">loinc_code</text>
<polygon fill="none" stroke="#000000" points="181,-292.7 181,-314.7 248,-314.7 248,-292.7 181,-292.7"/>
<text text-anchor="start" x="184" y="-300.4" font-family="Helvetica,sans-Serif" font-size="11.00" fill="#000000">varchar[50]</text>
<polygon fill="none" stroke="#000000" points="10,-270.7 10,-292.7 181,-292.7 181,-270.7 10,-270.7"/>
<image xlink:href="../../images/primaryKeys.png" width="11px" height="12px" preserveAspectRatio="xMinYMin meet" x="15" y="-287.7"/>
<text text-anchor="start" x="30" y="-277.8" font-family="Helvetica,sans-Serif" font-size="11.00" fill="#000000">answer_code</text>
<polygon fill="none" stroke="#000000" points="181,-270.7 181,-292.7 248,-292.7 248,-270.7 181,-270.7"/>
<text text-anchor="start" x="183.9365" y="-278.4" font-family="Helvetica,sans-Serif" font-size="11.00" fill="#000000">varchar[100]</text>
<polygon fill="none" stroke="#000000" points="10,-248.7 10,-270.7 181,-270.7 181,-248.7 10,-248.7"/>
<image xlink:href="../../images/primaryKeys.png" width="11px" height="12px" preserveAspectRatio="xMinYMin meet" x="15" y="-265.7"/>
<text text-anchor="start" x="30" y="-255.8" font-family="Helvetica,sans-Serif" font-size="11.00" fill="#000000">answer_system</text>
<polygon fill="none" stroke="#000000" points="181,-248.7 181,-270.7 248,-270.7 248,-248.7 181,-248.7"/>
<text text-anchor="start" x="183.9365" y="-256.4" font-family="Helvetica,sans-Serif" font-size="11.00" fill="#000000">varchar[255]</text>
<polygon fill="none" stroke="#000000" points="10,-226.7 10,-248.7 181,-248.7 181,-226.7 10,-226.7"/>
<image xlink:href="../../images/primaryKeys.png" width="11px" height="12px" preserveAspectRatio="xMinYMin meet" x="15" y="-243.7"/>
<text text-anchor="start" x="30" y="-233.8" font-family="Helvetica,sans-Serif" font-size="11.00" fill="#000000">answer_display</text>
<polygon fill="none" stroke="#000000" points="181,-226.7 181,-248.7 248,-248.7 248,-226.7 181,-226.7"/>
<text text-anchor="start" x="183.9365" y="-234.4" font-family="Helvetica,sans-Serif" font-size="11.00" fill="#000000">varchar[255]</text>
<polygon fill="none" stroke="#000000" points="10,-204.7 10,-226.7 181,-226.7 181,-204.7 10,-204.7"/>
<text text-anchor="start" x="30" y="-211.8" font-family="Helvetica,sans-Serif" font-size="11.00" fill="#000000">answer_definition</text>
<polygon fill="none" stroke="#000000" points="181,-204.7 181,-226.7 248,-226.7 248,-204.7 181,-204.7"/>
<text text-anchor="start" x="184" y="-212.4" font-family="Helvetica,sans-Serif" font-size="11.00" fill="#000000">text[65535]</text>
<polygon fill="none" stroke="#000000" points="10,-182.7 10,-204.7 181,-204.7 181,-182.7 10,-182.7"/>
<text text-anchor="start" x="30" y="-189.8" font-family="Helvetica,sans-Serif" font-size="11.00" fill="#000000">sort_order</text>
<polygon fill="none" stroke="#000000" points="181,-182.7 181,-204.7 248,-204.7 248,-182.7 181,-182.7"/>
<text text-anchor="start" x="184" y="-190.4" font-family="Helvetica,sans-Serif" font-size="11.00" fill="#000000">int[10]</text>
<polygon fill="none" stroke="#000000" points="10,-160.7 10,-182.7 181,-182.7 181,-160.7 10,-160.7"/>
<text text-anchor="start" x="30" y="-167.8" font-family="Helvetica,sans-Serif" font-size="11.00" fill="#000000">active</text>
<polygon fill="none" stroke="#000000" points="181,-160.7 181,-182.7 248,-182.7 248,-160.7 181,-160.7"/>
<text text-anchor="start" x="184" y="-168.4" font-family="Helvetica,sans-Serif" font-size="11.00" fill="#000000">boolean[3]</text>
<polygon fill="#ffffff" stroke="transparent" points="10,-141.7 10,-160.7 100,-160.7 100,-141.7 10,-141.7"/>
<polygon fill="none" stroke="#000000" points="10,-141.7 10,-160.7 100,-160.7 100,-141.7 10,-141.7"/>
<text text-anchor="start" x="13" y="-147.8" font-family="Helvetica,sans-Serif" font-size="11.00" fill="#000000">&lt; 0</text>
<polygon fill="#ffffff" stroke="transparent" points="100,-141.7 100,-160.7 181,-160.7 181,-141.7 100,-141.7"/>
<polygon fill="none" stroke="#000000" points="100,-141.7 100,-160.7 181,-160.7 181,-141.7 100,-141.7"/>
<text text-anchor="start" x="171.8862" y="-147.8" font-family="Helvetica,sans-Serif" font-size="11.00" fill="#000000"> &#160;</text>
<polygon fill="#ffffff" stroke="transparent" points="181,-141.7 181,-160.7 248,-160.7 248,-141.7 181,-141.7"/>
<polygon fill="none" stroke="#000000" points="181,-141.7 181,-160.7 248,-160.7 248,-141.7 181,-141.7"/>
<text text-anchor="start" x="229.4053" y="-147.8" font-family="Helvetica,sans-Serif" font-size="11.00" fill="#000000">6 &gt;</text>
<polygon fill="none" stroke="#000000" stroke-width="2" points="9,-140.7 9,-360.7 249,-360.7 249,-140.7 9,-140.7"/>
</a>
</g>
</g>
<!-- patient_care_experience_preferences&#45;&gt;preference_value_sets -->
<g id="edge1" class="edge">
<title>patient_care_experience_preferences:w&#45;&gt;preference_value_sets:e</title>
<path fill="none" stroke="#000000" d="M309.2353,-408.1232C265.8308,-389.9419 308.8519,-281.7 248,-281.7"/>
<polygon fill="#000000" stroke="#000000" points="315.6274,-409.2778 322.86,-414.2427 319.5637,-409.9889 323.5,-410.7 323.5,-410.7 323.5,-410.7 319.5637,-409.9889 324.14,-407.1573 315.6274,-409.2778 315.6274,-409.2778"/>
<ellipse fill="none" stroke="#000000" cx="312.4784" cy="-408.709" rx="3.2" ry="3.2"/>
</g>
<!-- patient_care_experience_preferences&#45;&gt;preference_value_sets -->
<g id="edge2" class="edge">
<title>patient_care_experience_preferences:w&#45;&gt;preference_value_sets:e</title>
<path fill="none" stroke="#000000" d="M309.2353,-386.1232C265.8308,-367.9419 308.8519,-259.7 248,-259.7"/>
<polygon fill="#000000" stroke="#000000" points="315.6274,-387.2778 322.86,-392.2427 319.5637,-387.9889 323.5,-388.7 323.5,-388.7 323.5,-388.7 319.5637,-387.9889 324.14,-385.1573 315.6274,-387.2778 315.6274,-387.2778"/>
<ellipse fill="none" stroke="#000000" cx="312.4784" cy="-386.709" rx="3.2" ry="3.2"/>
</g>
<!-- patient_care_experience_preferences&#45;&gt;preference_value_sets -->
<g id="edge3" class="edge">
<title>patient_care_experience_preferences:w&#45;&gt;preference_value_sets:e</title>
<path fill="none" stroke="#000000" d="M309.2353,-364.1232C265.8308,-345.9419 308.8519,-237.7 248,-237.7"/>
<polygon fill="#000000" stroke="#000000" points="315.6274,-365.2778 322.86,-370.2427 319.5637,-365.9889 323.5,-366.7 323.5,-366.7 323.5,-366.7 319.5637,-365.9889 324.14,-363.1573 315.6274,-365.2778 315.6274,-365.2778"/>
<ellipse fill="none" stroke="#000000" cx="312.4784" cy="-364.709" rx="3.2" ry="3.2"/>
</g>
<!-- patient_treatment_intervention_preferences -->
<g id="node3" class="node">
<title>patient_treatment_intervention_preferences</title>
<g id="a_node3"><a xlink:href="../../tables/patient_treatment_intervention__11811af1.html" xlink:title="patient_treatment_intervention_preferences" target="_top">
<polygon fill="#ffffff" stroke="transparent" points="299,-38.2 299,-275.2 638,-275.2 638,-38.2 299,-38.2"/>
<polygon fill="#f5f5f5" stroke="transparent" points="299.5,-251.7 299.5,-274.7 638.5,-274.7 638.5,-251.7 299.5,-251.7"/>
<polygon fill="none" stroke="#000000" points="299.5,-251.7 299.5,-274.7 638.5,-274.7 638.5,-251.7 299.5,-251.7"/>
<text text-anchor="start" x="304.5" y="-260.3" font-family="Helvetica,sans-Serif" font-weight="bold" font-size="11.00" fill="#000000">patient_treatment_intervention_preferences</text>
<text text-anchor="start" x="604.0219" y="-259.8" font-family="Helvetica,sans-Serif" font-size="11.00" fill="#000000">[table]</text>
<polygon fill="none" stroke="#000000" points="299.5,-229.7 299.5,-251.7 638.5,-251.7 638.5,-229.7 299.5,-229.7"/>
<image xlink:href="../../images/primaryKeys.png" width="11px" height="12px" preserveAspectRatio="xMinYMin meet" x="304.5" y="-246.7"/>
<text text-anchor="start" x="328.5" y="-236.8" font-family="Helvetica,sans-Serif" font-size="11.00" fill="#000000">id</text>
<polygon fill="#ffffff" stroke="transparent" points="299.5,-207.7 299.5,-229.7 638.5,-229.7 638.5,-207.7 299.5,-207.7"/>
<polygon fill="none" stroke="#000000" points="299.5,-207.7 299.5,-229.7 638.5,-229.7 638.5,-207.7 299.5,-207.7"/>
<text text-anchor="start" x="328.5" y="-214.8" font-family="Helvetica,sans-Serif" font-size="11.00" fill="#000000">uuid</text>
<polygon fill="#ffffff" stroke="transparent" points="299.5,-185.7 299.5,-207.7 638.5,-207.7 638.5,-185.7 299.5,-185.7"/>
<polygon fill="none" stroke="#000000" points="299.5,-185.7 299.5,-207.7 638.5,-207.7 638.5,-185.7 299.5,-185.7"/>
<image xlink:href="../../images/foreignKeys.png" width="11px" height="12px" preserveAspectRatio="xMinYMin meet" x="304.5" y="-202.7"/>
<text text-anchor="start" x="328.5" y="-192.8" font-family="Helvetica,sans-Serif" font-size="11.00" fill="#000000">patient_id</text>
<polygon fill="#ffffff" stroke="transparent" points="299.5,-163.7 299.5,-185.7 638.5,-185.7 638.5,-163.7 299.5,-163.7"/>
<polygon fill="none" stroke="#000000" points="299.5,-163.7 299.5,-185.7 638.5,-185.7 638.5,-163.7 299.5,-163.7"/>
<image xlink:href="../../images/foreignKeys.png" width="11px" height="12px" preserveAspectRatio="xMinYMin meet" x="304.5" y="-180.7"/>
<text text-anchor="start" x="328.5" y="-170.8" font-family="Helvetica,sans-Serif" font-size="11.00" fill="#000000">observation_code</text>
<polygon fill="none" stroke="#000000" points="299.5,-141.7 299.5,-163.7 638.5,-163.7 638.5,-141.7 299.5,-141.7"/>
<image xlink:href="../../images/foreignKeys.png" width="11px" height="12px" preserveAspectRatio="xMinYMin meet" x="304.5" y="-158.7"/>
<text text-anchor="start" x="328.5" y="-148.8" font-family="Helvetica,sans-Serif" font-size="11.00" fill="#000000">value_code</text>
<polygon fill="none" stroke="#000000" points="299.5,-119.7 299.5,-141.7 638.5,-141.7 638.5,-119.7 299.5,-119.7"/>
<image xlink:href="../../images/foreignKeys.png" width="11px" height="12px" preserveAspectRatio="xMinYMin meet" x="304.5" y="-136.7"/>
<text text-anchor="start" x="328.5" y="-126.8" font-family="Helvetica,sans-Serif" font-size="11.00" fill="#000000">value_code_system</text>
<polygon fill="none" stroke="#000000" points="299.5,-97.7 299.5,-119.7 638.5,-119.7 638.5,-97.7 299.5,-97.7"/>
<image xlink:href="../../images/foreignKeys.png" width="11px" height="12px" preserveAspectRatio="xMinYMin meet" x="304.5" y="-114.7"/>
<text text-anchor="start" x="328.5" y="-104.8" font-family="Helvetica,sans-Serif" font-size="11.00" fill="#000000">value_display</text>
<polygon fill="#ffffff" stroke="transparent" points="299.5,-75.7 299.5,-97.7 638.5,-97.7 638.5,-75.7 299.5,-75.7"/>
<polygon fill="none" stroke="#000000" points="299.5,-75.7 299.5,-97.7 638.5,-97.7 638.5,-75.7 299.5,-75.7"/>
<text text-anchor="start" x="328.5" y="-82.8" font-family="Helvetica,sans-Serif" font-size="11.00" fill="#000000">status</text>
<polygon fill="none" stroke="#000000" points="299.5,-56.7 299.5,-75.7 638.5,-75.7 638.5,-56.7 299.5,-56.7"/>
<text text-anchor="start" x="302.5" y="-62.8" font-family="Helvetica,sans-Serif" font-size="11.00" fill="#000000">...</text>
<polygon fill="#ffffff" stroke="transparent" points="299.5,-37.7 299.5,-56.7 467.5,-56.7 467.5,-37.7 299.5,-37.7"/>
<polygon fill="none" stroke="#000000" points="299.5,-37.7 299.5,-56.7 467.5,-56.7 467.5,-37.7 299.5,-37.7"/>
<text text-anchor="start" x="302.5" y="-43.8" font-family="Helvetica,sans-Serif" font-size="11.00" fill="#000000">&lt; 5</text>
<polygon fill="#ffffff" stroke="transparent" points="467.5,-37.7 467.5,-56.7 552.5,-56.7 552.5,-37.7 467.5,-37.7"/>
<polygon fill="none" stroke="#000000" points="467.5,-37.7 467.5,-56.7 552.5,-56.7 552.5,-37.7 467.5,-37.7"/>
<text text-anchor="start" x="543.3862" y="-43.8" font-family="Helvetica,sans-Serif" font-size="11.00" fill="#000000"> &#160;</text>
<polygon fill="#ffffff" stroke="transparent" points="552.5,-37.7 552.5,-56.7 638.5,-56.7 638.5,-37.7 552.5,-37.7"/>
<polygon fill="none" stroke="#000000" points="552.5,-37.7 552.5,-56.7 638.5,-56.7 638.5,-37.7 552.5,-37.7"/>
<text text-anchor="start" x="629.3862" y="-43.8" font-family="Helvetica,sans-Serif" font-size="11.00" fill="#000000"> &#160;</text>
</a>
</g>
</g>
<!-- patient_treatment_intervention_preferences&#45;&gt;preference_value_sets -->
<g id="edge4" class="edge">
<title>patient_treatment_intervention_preferences:w&#45;&gt;preference_value_sets:e</title>
<path fill="none" stroke="#000000" d="M285.4424,-155.8888C250.0853,-175.7537 303.9459,-281.7 248,-281.7"/>
<polygon fill="#000000" stroke="#000000" points="291.6982,-154.4698 300.2964,-156.2108 295.5991,-153.5849 299.5,-152.7 299.5,-152.7 299.5,-152.7 295.5991,-153.5849 298.7036,-149.1892 291.6982,-154.4698 291.6982,-154.4698"/>
<ellipse fill="none" stroke="#000000" cx="288.5775" cy="-155.1777" rx="3.2" ry="3.2"/>
</g>
<!-- patient_treatment_intervention_preferences&#45;&gt;preference_value_sets -->
<g id="edge5" class="edge">
<title>patient_treatment_intervention_preferences:w&#45;&gt;preference_value_sets:e</title>
<path fill="none" stroke="#000000" d="M285.4424,-133.8888C250.0853,-153.7537 303.9459,-259.7 248,-259.7"/>
<polygon fill="#000000" stroke="#000000" points="291.6982,-132.4698 300.2964,-134.2108 295.5991,-131.5849 299.5,-130.7 299.5,-130.7 299.5,-130.7 295.5991,-131.5849 298.7036,-127.1892 291.6982,-132.4698 291.6982,-132.4698"/>
<ellipse fill="none" stroke="#000000" cx="288.5775" cy="-133.1777" rx="3.2" ry="3.2"/>
</g>
<!-- patient_treatment_intervention_preferences&#45;&gt;preference_value_sets -->
<g id="edge6" class="edge">
<title>patient_treatment_intervention_preferences:w&#45;&gt;preference_value_sets:e</title>
<path fill="none" stroke="#000000" d="M285.4424,-111.8888C250.0853,-131.7537 303.9459,-237.7 248,-237.7"/>
<polygon fill="#000000" stroke="#000000" points="291.6982,-110.4698 300.2964,-112.2108 295.5991,-109.5849 299.5,-108.7 299.5,-108.7 299.5,-108.7 295.5991,-109.5849 298.7036,-105.1892 291.6982,-110.4698 291.6982,-110.4698"/>
<ellipse fill="none" stroke="#000000" cx="288.5775" cy="-111.1777" rx="3.2" ry="3.2"/>
</g>
</g>
</svg>
