<?xml version="1.0" encoding="UTF-8" standalone="no"?>
<!DOCTYPE svg PUBLIC "-//W3C//DTD SVG 1.1//EN"
 "http://www.w3.org/Graphics/SVG/1.1/DTD/svg11.dtd">
<!-- Generated by graphviz version 2.40.1 (20161225.0304)
 -->
<!-- Title: oneDegreeRelationshipsDiagram Pages: 1 -->
<svg width="896pt" height="685pt"
 viewBox="0.00 0.00 896.00 685.05" xmlns="http://www.w3.org/2000/svg" xmlns:xlink="http://www.w3.org/1999/xlink">
<g id="graph0" class="graph" transform="scale(1 1) rotate(0) translate(4 681.0504)">
<title>oneDegreeRelationshipsDiagram</title>
<polygon fill="#ffffff" stroke="transparent" points="-4,4 -4,-681.0504 892,-681.0504 892,4 -4,4"/>
<text text-anchor="middle" x="72.4936" y="-7.3" font-family="Helvetica,sans-Serif" font-size="11.00" fill="#000000">Generated by SchemaSpy</text>
<!-- procedure_order -->
<g id="node1" class="node">
<title>procedure_order</title>
<g id="a_node1"><a xlink:href="../../tables/procedure_order.html" xlink:title="procedure_order" target="_top">
<polygon fill="#ffffff" stroke="transparent" points="224,-84.0504 224,-585.0504 393,-585.0504 393,-84.0504 224,-84.0504"/>
<polygon fill="#f5f5f5" stroke="transparent" points="224.5,-561.5504 224.5,-584.5504 393.5,-584.5504 393.5,-561.5504 224.5,-561.5504"/>
<polygon fill="none" stroke="#000000" points="224.5,-561.5504 224.5,-584.5504 393.5,-584.5504 393.5,-561.5504 224.5,-561.5504"/>
<text text-anchor="start" x="229.5" y="-570.1504" font-family="Helvetica,sans-Serif" font-weight="bold" font-size="11.00" fill="#000000">procedure_order</text>
<text text-anchor="start" x="358.5437" y="-569.6504" font-family="Helvetica,sans-Serif" font-size="11.00" fill="#000000">[table]</text>
<polygon fill="none" stroke="#000000" points="224.5,-539.5504 224.5,-561.5504 393.5,-561.5504 393.5,-539.5504 224.5,-539.5504"/>
<image xlink:href="../../images/primaryKeys.png" width="11px" height="12px" preserveAspectRatio="xMinYMin meet" x="229.5" y="-556.55"/>
<text text-anchor="start" x="244.5" y="-546.6504" font-family="Helvetica,sans-Serif" font-size="11.00" fill="#000000">procedure_order_id</text>
<polygon fill="#ffffff" stroke="transparent" points="224.5,-517.5504 224.5,-539.5504 393.5,-539.5504 393.5,-517.5504 224.5,-517.5504"/>
<polygon fill="none" stroke="#000000" points="224.5,-517.5504 224.5,-539.5504 393.5,-539.5504 393.5,-517.5504 224.5,-517.5504"/>
<text text-anchor="start" x="244.5" y="-524.6504" font-family="Helvetica,sans-Serif" font-size="11.00" fill="#000000">uuid</text>
<polygon fill="none" stroke="#000000" points="224.5,-495.5504 224.5,-517.5504 393.5,-517.5504 393.5,-495.5504 224.5,-495.5504"/>
<image xlink:href="../../images/foreignKeys.png" width="11px" height="12px" preserveAspectRatio="xMinYMin meet" x="229.5" y="-512.55"/>
<text text-anchor="start" x="244.5" y="-502.6504" font-family="Helvetica,sans-Serif" font-size="11.00" fill="#000000">provider_id</text>
<polygon fill="#ffffff" stroke="transparent" points="224.5,-473.5504 224.5,-495.5504 393.5,-495.5504 393.5,-473.5504 224.5,-473.5504"/>
<polygon fill="none" stroke="#000000" points="224.5,-473.5504 224.5,-495.5504 393.5,-495.5504 393.5,-473.5504 224.5,-473.5504"/>
<image xlink:href="../../images/foreignKeys.png" width="11px" height="12px" preserveAspectRatio="xMinYMin meet" x="229.5" y="-490.55"/>
<text text-anchor="start" x="244.5" y="-480.6504" font-family="Helvetica,sans-Serif" font-size="11.00" fill="#000000">patient_id</text>
<polygon fill="none" stroke="#000000" points="224.5,-451.5504 224.5,-473.5504 393.5,-473.5504 393.5,-451.5504 224.5,-451.5504"/>
<image xlink:href="../../images/foreignKeys.png" width="11px" height="12px" preserveAspectRatio="xMinYMin meet" x="229.5" y="-468.55"/>
<text text-anchor="start" x="244.5" y="-458.6504" font-family="Helvetica,sans-Serif" font-size="11.00" fill="#000000">encounter_id</text>
<polygon fill="#ffffff" stroke="transparent" points="224.5,-429.5504 224.5,-451.5504 393.5,-451.5504 393.5,-429.5504 224.5,-429.5504"/>
<polygon fill="none" stroke="#000000" points="224.5,-429.5504 224.5,-451.5504 393.5,-451.5504 393.5,-429.5504 224.5,-429.5504"/>
<text text-anchor="start" x="244.5" y="-436.6504" font-family="Helvetica,sans-Serif" font-size="11.00" fill="#000000">date_ordered</text>
<polygon fill="none" stroke="#000000" points="224.5,-407.5504 224.5,-429.5504 393.5,-429.5504 393.5,-407.5504 224.5,-407.5504"/>
<image xlink:href="../../images/foreignKeys.png" width="11px" height="12px" preserveAspectRatio="xMinYMin meet" x="229.5" y="-424.55"/>
<text text-anchor="start" x="244.5" y="-414.6504" font-family="Helvetica,sans-Serif" font-size="11.00" fill="#000000">order_priority</text>
<polygon fill="none" stroke="#000000" points="224.5,-385.5504 224.5,-407.5504 393.5,-407.5504 393.5,-385.5504 224.5,-385.5504"/>
<image xlink:href="../../images/foreignKeys.png" width="11px" height="12px" preserveAspectRatio="xMinYMin meet" x="229.5" y="-402.55"/>
<text text-anchor="start" x="244.5" y="-392.6504" font-family="Helvetica,sans-Serif" font-size="11.00" fill="#000000">order_status</text>
<polygon fill="none" stroke="#000000" points="224.5,-363.5504 224.5,-385.5504 393.5,-385.5504 393.5,-363.5504 224.5,-363.5504"/>
<image xlink:href="../../images/foreignKeys.png" width="11px" height="12px" preserveAspectRatio="xMinYMin meet" x="229.5" y="-380.55"/>
<text text-anchor="start" x="244.5" y="-370.6504" font-family="Helvetica,sans-Serif" font-size="11.00" fill="#000000">lab_id</text>
<polygon fill="#ffffff" stroke="transparent" points="224.5,-341.5504 224.5,-363.5504 393.5,-363.5504 393.5,-341.5504 224.5,-341.5504"/>
<polygon fill="none" stroke="#000000" points="224.5,-341.5504 224.5,-363.5504 393.5,-363.5504 393.5,-341.5504 224.5,-341.5504"/>
<image xlink:href="../../images/foreignKeys.png" width="11px" height="12px" preserveAspectRatio="xMinYMin meet" x="229.5" y="-358.55"/>
<text text-anchor="start" x="244.5" y="-348.6504" font-family="Helvetica,sans-Serif" font-size="11.00" fill="#000000">specimen_type</text>
<polygon fill="none" stroke="#000000" points="224.5,-319.5504 224.5,-341.5504 393.5,-341.5504 393.5,-319.5504 224.5,-319.5504"/>
<image xlink:href="../../images/foreignKeys.png" width="11px" height="12px" preserveAspectRatio="xMinYMin meet" x="229.5" y="-336.55"/>
<text text-anchor="start" x="244.5" y="-326.6504" font-family="Helvetica,sans-Serif" font-size="11.00" fill="#000000">specimen_location</text>
<polygon fill="none" stroke="#000000" points="224.5,-297.5504 224.5,-319.5504 393.5,-319.5504 393.5,-297.5504 224.5,-297.5504"/>
<image xlink:href="../../images/foreignKeys.png" width="11px" height="12px" preserveAspectRatio="xMinYMin meet" x="229.5" y="-314.55"/>
<text text-anchor="start" x="244.5" y="-304.6504" font-family="Helvetica,sans-Serif" font-size="11.00" fill="#000000">billing_type</text>
<polygon fill="none" stroke="#000000" points="224.5,-275.5504 224.5,-297.5504 393.5,-297.5504 393.5,-275.5504 224.5,-275.5504"/>
<image xlink:href="../../images/foreignKeys.png" width="11px" height="12px" preserveAspectRatio="xMinYMin meet" x="229.5" y="-292.55"/>
<text text-anchor="start" x="244.5" y="-282.6504" font-family="Helvetica,sans-Serif" font-size="11.00" fill="#000000">procedure_type</text>
<polygon fill="none" stroke="#000000" points="224.5,-253.5504 224.5,-275.5504 393.5,-275.5504 393.5,-253.5504 224.5,-253.5504"/>
<image xlink:href="../../images/foreignKeys.png" width="11px" height="12px" preserveAspectRatio="xMinYMin meet" x="229.5" y="-270.55"/>
<text text-anchor="start" x="244.5" y="-260.6504" font-family="Helvetica,sans-Serif" font-size="11.00" fill="#000000">collector_id</text>
<polygon fill="none" stroke="#000000" points="224.5,-231.5504 224.5,-253.5504 393.5,-253.5504 393.5,-231.5504 224.5,-231.5504"/>
<image xlink:href="../../images/foreignKeys.png" width="11px" height="12px" preserveAspectRatio="xMinYMin meet" x="229.5" y="-248.55"/>
<text text-anchor="start" x="244.5" y="-238.6504" font-family="Helvetica,sans-Serif" font-size="11.00" fill="#000000">account_facility</text>
<polygon fill="none" stroke="#000000" points="224.5,-209.5504 224.5,-231.5504 393.5,-231.5504 393.5,-209.5504 224.5,-209.5504"/>
<image xlink:href="../../images/foreignKeys.png" width="11px" height="12px" preserveAspectRatio="xMinYMin meet" x="229.5" y="-226.55"/>
<text text-anchor="start" x="244.5" y="-216.6504" font-family="Helvetica,sans-Serif" font-size="11.00" fill="#000000">procedure_order_type</text>
<polygon fill="#ffffff" stroke="transparent" points="224.5,-187.5504 224.5,-209.5504 393.5,-209.5504 393.5,-187.5504 224.5,-187.5504"/>
<polygon fill="none" stroke="#000000" points="224.5,-187.5504 224.5,-209.5504 393.5,-209.5504 393.5,-187.5504 224.5,-187.5504"/>
<text text-anchor="start" x="244.5" y="-194.6504" font-family="Helvetica,sans-Serif" font-size="11.00" fill="#000000">scheduled_date</text>
<polygon fill="none" stroke="#000000" points="224.5,-165.5504 224.5,-187.5504 393.5,-187.5504 393.5,-165.5504 224.5,-165.5504"/>
<image xlink:href="../../images/foreignKeys.png" width="11px" height="12px" preserveAspectRatio="xMinYMin meet" x="229.5" y="-182.55"/>
<text text-anchor="start" x="244.5" y="-172.6504" font-family="Helvetica,sans-Serif" font-size="11.00" fill="#000000">performer_type</text>
<polygon fill="#ffffff" stroke="transparent" points="224.5,-143.5504 224.5,-165.5504 393.5,-165.5504 393.5,-143.5504 224.5,-143.5504"/>
<polygon fill="none" stroke="#000000" points="224.5,-143.5504 224.5,-165.5504 393.5,-165.5504 393.5,-143.5504 224.5,-143.5504"/>
<image xlink:href="../../images/foreignKeys.png" width="11px" height="12px" preserveAspectRatio="xMinYMin meet" x="229.5" y="-160.55"/>
<text text-anchor="start" x="244.5" y="-150.6504" font-family="Helvetica,sans-Serif" font-size="11.00" fill="#000000">order_intent</text>
<polygon fill="#ffffff" stroke="transparent" points="224.5,-121.5504 224.5,-143.5504 393.5,-143.5504 393.5,-121.5504 224.5,-121.5504"/>
<polygon fill="none" stroke="#000000" points="224.5,-121.5504 224.5,-143.5504 393.5,-143.5504 393.5,-121.5504 224.5,-121.5504"/>
<image xlink:href="../../images/foreignKeys.png" width="11px" height="12px" preserveAspectRatio="xMinYMin meet" x="229.5" y="-138.55"/>
<text text-anchor="start" x="244.5" y="-128.6504" font-family="Helvetica,sans-Serif" font-size="11.00" fill="#000000">location_id</text>
<polygon fill="none" stroke="#000000" points="224.5,-102.5504 224.5,-121.5504 393.5,-121.5504 393.5,-102.5504 224.5,-102.5504"/>
<text text-anchor="start" x="227.5" y="-108.6504" font-family="Helvetica,sans-Serif" font-size="11.00" fill="#000000">...</text>
<polygon fill="#ffffff" stroke="transparent" points="224.5,-83.5504 224.5,-102.5504 305.5,-102.5504 305.5,-83.5504 224.5,-83.5504"/>
<polygon fill="none" stroke="#000000" points="224.5,-83.5504 224.5,-102.5504 305.5,-102.5504 305.5,-83.5504 224.5,-83.5504"/>
<text text-anchor="start" x="227.5" y="-89.6504" font-family="Helvetica,sans-Serif" font-size="11.00" fill="#000000">&lt; 16</text>
<polygon fill="#ffffff" stroke="transparent" points="305.5,-83.5504 305.5,-102.5504 344.5,-102.5504 344.5,-83.5504 305.5,-83.5504"/>
<polygon fill="none" stroke="#000000" points="305.5,-83.5504 305.5,-102.5504 344.5,-102.5504 344.5,-83.5504 305.5,-83.5504"/>
<text text-anchor="start" x="335.3862" y="-89.6504" font-family="Helvetica,sans-Serif" font-size="11.00" fill="#000000"> &#160;</text>
<polygon fill="#ffffff" stroke="transparent" points="344.5,-83.5504 344.5,-102.5504 393.5,-102.5504 393.5,-83.5504 344.5,-83.5504"/>
<polygon fill="none" stroke="#000000" points="344.5,-83.5504 344.5,-102.5504 393.5,-102.5504 393.5,-83.5504 344.5,-83.5504"/>
<text text-anchor="start" x="374.9053" y="-89.6504" font-family="Helvetica,sans-Serif" font-size="11.00" fill="#000000">5 &gt;</text>
</a>
</g>
</g>
<!-- list_options -->
<g id="node2" class="node">
<title>list_options</title>
<g id="a_node2"><a xlink:href="../../tables/list_options.html" xlink:title="list_options" target="_top">
<polygon fill="#ffffff" stroke="transparent" points="25.5,-282.0504 25.5,-387.0504 157.5,-387.0504 157.5,-282.0504 25.5,-282.0504"/>
<polygon fill="#f5f5f5" stroke="transparent" points="25.5,-363.5504 25.5,-386.5504 157.5,-386.5504 157.5,-363.5504 25.5,-363.5504"/>
<polygon fill="none" stroke="#000000" points="25.5,-363.5504 25.5,-386.5504 157.5,-386.5504 157.5,-363.5504 25.5,-363.5504"/>
<text text-anchor="start" x="30.5" y="-372.1504" font-family="Helvetica,sans-Serif" font-weight="bold" font-size="11.00" fill="#000000">list_options</text>
<text text-anchor="start" x="122.5437" y="-371.6504" font-family="Helvetica,sans-Serif" font-size="11.00" fill="#000000">[table]</text>
<polygon fill="none" stroke="#000000" points="25.5,-341.5504 25.5,-363.5504 157.5,-363.5504 157.5,-341.5504 25.5,-341.5504"/>
<image xlink:href="../../images/primaryKeys.png" width="11px" height="12px" preserveAspectRatio="xMinYMin meet" x="30.5" y="-358.55"/>
<text text-anchor="start" x="45.5" y="-348.6504" font-family="Helvetica,sans-Serif" font-size="11.00" fill="#000000">list_id</text>
<polygon fill="none" stroke="#000000" points="25.5,-319.5504 25.5,-341.5504 157.5,-341.5504 157.5,-319.5504 25.5,-319.5504"/>
<image xlink:href="../../images/primaryKeys.png" width="11px" height="12px" preserveAspectRatio="xMinYMin meet" x="30.5" y="-336.55"/>
<text text-anchor="start" x="45.5" y="-326.6504" font-family="Helvetica,sans-Serif" font-size="11.00" fill="#000000">option_id</text>
<polygon fill="none" stroke="#000000" points="25.5,-300.5504 25.5,-319.5504 157.5,-319.5504 157.5,-300.5504 25.5,-300.5504"/>
<text text-anchor="start" x="28.5" y="-306.6504" font-family="Helvetica,sans-Serif" font-size="11.00" fill="#000000">...</text>
<polygon fill="#ffffff" stroke="transparent" points="25.5,-281.5504 25.5,-300.5504 77.5,-300.5504 77.5,-281.5504 25.5,-281.5504"/>
<polygon fill="none" stroke="#000000" points="25.5,-281.5504 25.5,-300.5504 77.5,-300.5504 77.5,-281.5504 25.5,-281.5504"/>
<text text-anchor="start" x="28.5" y="-287.6504" font-family="Helvetica,sans-Serif" font-size="11.00" fill="#000000"> &#160;</text>
<polygon fill="#ffffff" stroke="transparent" points="77.5,-281.5504 77.5,-300.5504 109.5,-300.5504 109.5,-281.5504 77.5,-281.5504"/>
<polygon fill="none" stroke="#000000" points="77.5,-281.5504 77.5,-300.5504 109.5,-300.5504 109.5,-281.5504 77.5,-281.5504"/>
<text text-anchor="start" x="100.3862" y="-287.6504" font-family="Helvetica,sans-Serif" font-size="11.00" fill="#000000"> &#160;</text>
<polygon fill="#ffffff" stroke="transparent" points="109.5,-281.5504 109.5,-300.5504 157.5,-300.5504 157.5,-281.5504 109.5,-281.5504"/>
<polygon fill="none" stroke="#000000" points="109.5,-281.5504 109.5,-300.5504 157.5,-300.5504 157.5,-281.5504 109.5,-281.5504"/>
<text text-anchor="start" x="132.7904" y="-287.6504" font-family="Helvetica,sans-Serif" font-size="11.00" fill="#000000">98 &gt;</text>
</a>
</g>
</g>
<!-- procedure_order&#45;&gt;list_options -->
<g id="edge1" class="edge">
<title>procedure_order:w&#45;&gt;list_options:e</title>
<path fill="none" stroke="#000000" d="M210.1836,-310.3508C190.8056,-315.605 183.3327,-330.5504 157.5,-330.5504"/>
<polygon fill="#000000" stroke="#000000" points="216.5625,-309.5486 224.9492,-312.1223 220.5313,-309.0495 224.5,-308.5504 224.5,-308.5504 224.5,-308.5504 220.5313,-309.0495 224.0508,-304.9785 216.5625,-309.5486 216.5625,-309.5486"/>
<ellipse fill="none" stroke="#000000" cx="213.3875" cy="-309.9479" rx="3.2" ry="3.2"/>
</g>
<!-- procedure_order&#45;&gt;list_options -->
<g id="edge3" class="edge">
<title>procedure_order:w&#45;&gt;list_options:e</title>
<path fill="none" stroke="#000000" d="M210.1533,-156.7757C153.3237,-177.1493 235.6404,-330.5504 157.5,-330.5504"/>
<polygon fill="#000000" stroke="#000000" points="216.5945,-155.7767 225.0518,-158.1079 220.5473,-155.1635 224.5,-154.5504 224.5,-154.5504 224.5,-154.5504 220.5473,-155.1635 223.9482,-150.9929 216.5945,-155.7767 216.5945,-155.7767"/>
<ellipse fill="none" stroke="#000000" cx="213.4323" cy="-156.2672" rx="3.2" ry="3.2"/>
</g>
<!-- procedure_order&#45;&gt;list_options -->
<g id="edge4" class="edge">
<title>procedure_order:w&#45;&gt;list_options:e</title>
<path fill="none" stroke="#000000" d="M210.2746,-415.2082C181.5772,-399.1339 200.8963,-330.5504 157.5,-330.5504"/>
<polygon fill="#000000" stroke="#000000" points="216.7121,-416.7206 223.6766,-422.055 220.606,-417.6355 224.5,-418.5504 224.5,-418.5504 224.5,-418.5504 220.606,-417.6355 225.3234,-415.0458 216.7121,-416.7206 216.7121,-416.7206"/>
<ellipse fill="none" stroke="#000000" cx="213.5969" cy="-415.9887" rx="3.2" ry="3.2"/>
</g>
<!-- procedure_order&#45;&gt;list_options -->
<g id="edge5" class="edge">
<title>procedure_order:w&#45;&gt;list_options:e</title>
<path fill="none" stroke="#000000" d="M210.3321,-393.1867C186.1479,-379.7372 193.5843,-330.5504 157.5,-330.5504"/>
<polygon fill="#000000" stroke="#000000" points="216.7164,-394.7024 223.6684,-400.053 220.6082,-395.6264 224.5,-396.5504 224.5,-396.5504 224.5,-396.5504 220.6082,-395.6264 225.3316,-393.0478 216.7164,-394.7024 216.7164,-394.7024"/>
<ellipse fill="none" stroke="#000000" cx="213.6029" cy="-393.9632" rx="3.2" ry="3.2"/>
</g>
<!-- procedure_order&#45;&gt;list_options -->
<g id="edge6" class="edge">
<title>procedure_order:w&#45;&gt;list_options:e</title>
<path fill="none" stroke="#000000" d="M210.036,-179.0949C161.4833,-199.1178 226.4559,-330.5504 157.5,-330.5504"/>
<polygon fill="#000000" stroke="#000000" points="216.621,-177.9365 225.1237,-180.096 220.5605,-177.2435 224.5,-176.5504 224.5,-176.5504 224.5,-176.5504 220.5605,-177.2435 223.8763,-173.0049 216.621,-177.9365 216.621,-177.9365"/>
<ellipse fill="none" stroke="#000000" cx="213.4694" cy="-178.491" rx="3.2" ry="3.2"/>
</g>
<!-- procedure_order&#45;&gt;list_options -->
<g id="edge7" class="edge">
<title>procedure_order:w&#45;&gt;list_options:e</title>
<path fill="none" stroke="#000000" d="M210.08,-223.7239C175.8219,-241.7595 208.9299,-330.5504 157.5,-330.5504"/>
<polygon fill="#000000" stroke="#000000" points="216.687,-222.2699 225.2738,-224.0663 220.5935,-221.4102 224.5,-220.5504 224.5,-220.5504 224.5,-220.5504 220.5935,-221.4102 223.7262,-217.0345 216.687,-222.2699 216.687,-222.2699"/>
<ellipse fill="none" stroke="#000000" cx="213.5617" cy="-222.9577" rx="3.2" ry="3.2"/>
</g>
<!-- procedure_order&#45;&gt;list_options -->
<g id="edge8" class="edge">
<title>procedure_order:w&#45;&gt;list_options:e</title>
<path fill="none" stroke="#000000" d="M210.1241,-289.5747C189.2136,-299.5156 187.4194,-330.5504 157.5,-330.5504"/>
<polygon fill="#000000" stroke="#000000" points="216.6714,-288.1974 225.2411,-290.0733 220.5857,-287.3739 224.5,-286.5504 224.5,-286.5504 224.5,-286.5504 220.5857,-287.3739 223.7589,-283.0275 216.6714,-288.1974 216.6714,-288.1974"/>
<ellipse fill="none" stroke="#000000" cx="213.5399" cy="-288.8562" rx="3.2" ry="3.2"/>
</g>
<!-- procedure_order&#45;&gt;list_options -->
<g id="edge10" class="edge">
<title>procedure_order:w&#45;&gt;list_options:e</title>
<path fill="none" stroke="#000000" d="M210.0809,-330.5504C191.2359,-330.5504 181.8108,-330.5504 157.5,-330.5504"/>
<polygon fill="#000000" stroke="#000000" points="216.5,-330.5505 224.5,-334.1504 220.5,-330.5504 224.5,-330.5504 224.5,-330.5504 224.5,-330.5504 220.5,-330.5504 224.5,-326.9504 216.5,-330.5505 216.5,-330.5505"/>
<ellipse fill="none" stroke="#000000" cx="213.3" cy="-330.5505" rx="3.2" ry="3.2"/>
</g>
<!-- procedure_order&#45;&gt;list_options -->
<g id="edge11" class="edge">
<title>procedure_order:w&#45;&gt;list_options:e</title>
<path fill="none" stroke="#000000" d="M210.1836,-350.7501C190.8056,-345.4958 183.3327,-330.5504 157.5,-330.5504"/>
<polygon fill="#000000" stroke="#000000" points="216.5625,-351.5522 224.0508,-356.1223 220.5313,-352.0513 224.5,-352.5504 224.5,-352.5504 224.5,-352.5504 220.5313,-352.0513 224.9492,-348.9785 216.5625,-351.5522 216.5625,-351.5522"/>
<ellipse fill="none" stroke="#000000" cx="213.3875" cy="-351.1529" rx="3.2" ry="3.2"/>
</g>
<!-- users -->
<g id="node3" class="node">
<title>users</title>
<g id="a_node3"><a xlink:href="../../tables/users.html" xlink:title="users" target="_top">
<polygon fill="#ffffff" stroke="transparent" points="8,-46.0504 8,-261.0504 175,-261.0504 175,-46.0504 8,-46.0504"/>
<polygon fill="#f5f5f5" stroke="transparent" points="8.5,-237.5504 8.5,-260.5504 175.5,-260.5504 175.5,-237.5504 8.5,-237.5504"/>
<polygon fill="none" stroke="#000000" points="8.5,-237.5504 8.5,-260.5504 175.5,-260.5504 175.5,-237.5504 8.5,-237.5504"/>
<text text-anchor="start" x="13.5" y="-246.1504" font-family="Helvetica,sans-Serif" font-weight="bold" font-size="11.00" fill="#000000">users</text>
<text text-anchor="start" x="140.5437" y="-245.6504" font-family="Helvetica,sans-Serif" font-size="11.00" fill="#000000">[table]</text>
<polygon fill="none" stroke="#000000" points="8.5,-215.5504 8.5,-237.5504 175.5,-237.5504 175.5,-215.5504 8.5,-215.5504"/>
<image xlink:href="../../images/primaryKeys.png" width="11px" height="12px" preserveAspectRatio="xMinYMin meet" x="13.5" y="-232.55"/>
<text text-anchor="start" x="28.5" y="-222.6504" font-family="Helvetica,sans-Serif" font-size="11.00" fill="#000000">id</text>
<polygon fill="#ffffff" stroke="transparent" points="8.5,-193.5504 8.5,-215.5504 175.5,-215.5504 175.5,-193.5504 8.5,-193.5504"/>
<polygon fill="none" stroke="#000000" points="8.5,-193.5504 8.5,-215.5504 175.5,-215.5504 175.5,-193.5504 8.5,-193.5504"/>
<text text-anchor="start" x="28.5" y="-200.6504" font-family="Helvetica,sans-Serif" font-size="11.00" fill="#000000">uuid</text>
<polygon fill="none" stroke="#000000" points="8.5,-171.5504 8.5,-193.5504 175.5,-193.5504 175.5,-171.5504 8.5,-171.5504"/>
<image xlink:href="../../images/primaryKeys.png" width="11px" height="12px" preserveAspectRatio="xMinYMin meet" x="13.5" y="-188.55"/>
<text text-anchor="start" x="28.5" y="-178.6504" font-family="Helvetica,sans-Serif" font-size="11.00" fill="#000000">username</text>
<polygon fill="none" stroke="#000000" points="8.5,-149.5504 8.5,-171.5504 175.5,-171.5504 175.5,-149.5504 8.5,-149.5504"/>
<image xlink:href="../../images/foreignKeys.png" width="11px" height="12px" preserveAspectRatio="xMinYMin meet" x="13.5" y="-166.55"/>
<text text-anchor="start" x="28.5" y="-156.6504" font-family="Helvetica,sans-Serif" font-size="11.00" fill="#000000">facility_id</text>
<polygon fill="#ffffff" stroke="transparent" points="8.5,-127.5504 8.5,-149.5504 175.5,-149.5504 175.5,-127.5504 8.5,-127.5504"/>
<polygon fill="none" stroke="#000000" points="8.5,-127.5504 8.5,-149.5504 175.5,-149.5504 175.5,-127.5504 8.5,-127.5504"/>
<text text-anchor="start" x="28.5" y="-134.6504" font-family="Helvetica,sans-Serif" font-size="11.00" fill="#000000">google_signin_email</text>
<polygon fill="#ffffff" stroke="transparent" points="8.5,-105.5504 8.5,-127.5504 175.5,-127.5504 175.5,-105.5504 8.5,-105.5504"/>
<polygon fill="none" stroke="#000000" points="8.5,-105.5504 8.5,-127.5504 175.5,-127.5504 175.5,-105.5504 8.5,-105.5504"/>
<text text-anchor="start" x="28.5" y="-112.6504" font-family="Helvetica,sans-Serif" font-size="11.00" fill="#000000">abook_type</text>
<polygon fill="none" stroke="#000000" points="8.5,-83.5504 8.5,-105.5504 175.5,-105.5504 175.5,-83.5504 8.5,-83.5504"/>
<image xlink:href="../../images/foreignKeys.png" width="11px" height="12px" preserveAspectRatio="xMinYMin meet" x="13.5" y="-100.55"/>
<text text-anchor="start" x="28.5" y="-90.6504" font-family="Helvetica,sans-Serif" font-size="11.00" fill="#000000">billing_facility_id</text>
<polygon fill="none" stroke="#000000" points="8.5,-64.5504 8.5,-83.5504 175.5,-83.5504 175.5,-64.5504 8.5,-64.5504"/>
<text text-anchor="start" x="11.5" y="-70.6504" font-family="Helvetica,sans-Serif" font-size="11.00" fill="#000000">...</text>
<polygon fill="#ffffff" stroke="transparent" points="8.5,-45.5504 8.5,-64.5504 82.5,-64.5504 82.5,-45.5504 8.5,-45.5504"/>
<polygon fill="none" stroke="#000000" points="8.5,-45.5504 8.5,-64.5504 82.5,-64.5504 82.5,-45.5504 8.5,-45.5504"/>
<text text-anchor="start" x="11.5" y="-51.6504" font-family="Helvetica,sans-Serif" font-size="11.00" fill="#000000">&lt; 2</text>
<polygon fill="#ffffff" stroke="transparent" points="82.5,-45.5504 82.5,-64.5504 121.5,-64.5504 121.5,-45.5504 82.5,-45.5504"/>
<polygon fill="none" stroke="#000000" points="82.5,-45.5504 82.5,-64.5504 121.5,-64.5504 121.5,-45.5504 82.5,-45.5504"/>
<text text-anchor="start" x="112.3862" y="-51.6504" font-family="Helvetica,sans-Serif" font-size="11.00" fill="#000000"> &#160;</text>
<polygon fill="#ffffff" stroke="transparent" points="121.5,-45.5504 121.5,-64.5504 175.5,-64.5504 175.5,-45.5504 121.5,-45.5504"/>
<polygon fill="none" stroke="#000000" points="121.5,-45.5504 121.5,-64.5504 175.5,-64.5504 175.5,-45.5504 121.5,-45.5504"/>
<text text-anchor="start" x="150.7904" y="-51.6504" font-family="Helvetica,sans-Serif" font-size="11.00" fill="#000000">90 &gt;</text>
</a>
</g>
</g>
<!-- procedure_order&#45;&gt;users -->
<g id="edge2" class="edge">
<title>procedure_order:w&#45;&gt;users:e</title>
<path fill="none" stroke="#000000" d="M210.5438,-259.8909C198.0061,-249.7438 197.0306,-226.5504 175.5,-226.5504"/>
<polygon fill="#000000" stroke="#000000" points="216.9118,-262.0169 223.3599,-267.9651 220.7059,-263.2836 224.5,-264.5504 224.5,-264.5504 224.5,-264.5504 220.7059,-263.2836 225.6401,-261.1357 216.9118,-262.0169 216.9118,-262.0169"/>
<ellipse fill="none" stroke="#000000" cx="213.8765" cy="-261.0035" rx="3.2" ry="3.2"/>
</g>
<!-- procedure_order&#45;&gt;users -->
<g id="edge9" class="edge">
<title>procedure_order:w&#45;&gt;users:e</title>
<path fill="none" stroke="#000000" d="M211.1492,-500.7022C173.5866,-460.4933 233.2393,-226.5504 175.5,-226.5504"/>
<polygon fill="#000000" stroke="#000000" points="217.1722,-503.3405 223.0555,-509.8479 220.8361,-504.9455 224.5,-506.5504 224.5,-506.5504 224.5,-506.5504 220.8361,-504.9455 225.9445,-503.2529 217.1722,-503.3405 217.1722,-503.3405"/>
<ellipse fill="none" stroke="#000000" cx="214.2411" cy="-502.0565" rx="3.2" ry="3.2"/>
</g>
<!-- procedure_report -->
<g id="node4" class="node">
<title>procedure_report</title>
<g id="a_node4"><a xlink:href="../../tables/procedure_report.html" xlink:title="procedure_report" target="_top">
<polygon fill="#ffffff" stroke="transparent" points="442,-298.5504 442,-630.5504 674,-630.5504 674,-298.5504 442,-298.5504"/>
<polygon fill="#f5f5f5" stroke="transparent" points="444,-605.5504 444,-628.5504 672,-628.5504 672,-605.5504 444,-605.5504"/>
<polygon fill="none" stroke="#000000" points="444,-605.5504 444,-628.5504 672,-628.5504 672,-605.5504 444,-605.5504"/>
<text text-anchor="start" x="449" y="-614.1504" font-family="Helvetica,sans-Serif" font-weight="bold" font-size="11.00" fill="#000000">procedure_report</text>
<text text-anchor="start" x="637.0437" y="-613.6504" font-family="Helvetica,sans-Serif" font-size="11.00" fill="#000000">[table]</text>
<polygon fill="none" stroke="#000000" points="444,-583.5504 444,-605.5504 606,-605.5504 606,-583.5504 444,-583.5504"/>
<image xlink:href="../../images/primaryKeys.png" width="11px" height="12px" preserveAspectRatio="xMinYMin meet" x="449" y="-600.55"/>
<text text-anchor="start" x="464" y="-590.6504" font-family="Helvetica,sans-Serif" font-size="11.00" fill="#000000">procedure_report_id</text>
<polygon fill="none" stroke="#000000" points="606,-583.5504 606,-605.5504 672,-605.5504 672,-583.5504 606,-583.5504"/>
<text text-anchor="start" x="609" y="-591.2504" font-family="Helvetica,sans-Serif" font-size="11.00" fill="#000000">bigint[19]</text>
<polygon fill="#ffffff" stroke="transparent" points="444,-561.5504 444,-583.5504 606,-583.5504 606,-561.5504 444,-561.5504"/>
<polygon fill="none" stroke="#000000" points="444,-561.5504 444,-583.5504 606,-583.5504 606,-561.5504 444,-561.5504"/>
<text text-anchor="start" x="464" y="-568.6504" font-family="Helvetica,sans-Serif" font-size="11.00" fill="#000000">uuid</text>
<polygon fill="none" stroke="#000000" points="606,-561.5504 606,-583.5504 672,-583.5504 672,-561.5504 606,-561.5504"/>
<text text-anchor="start" x="609" y="-569.2504" font-family="Helvetica,sans-Serif" font-size="11.00" fill="#000000">binary[16]</text>
<polygon fill="#ffffff" stroke="transparent" points="444,-539.5504 444,-561.5504 606,-561.5504 606,-539.5504 444,-539.5504"/>
<polygon fill="none" stroke="#000000" points="444,-539.5504 444,-561.5504 606,-561.5504 606,-539.5504 444,-539.5504"/>
<image xlink:href="../../images/foreignKeys.png" width="11px" height="12px" preserveAspectRatio="xMinYMin meet" x="449" y="-556.55"/>
<text text-anchor="start" x="464" y="-546.6504" font-family="Helvetica,sans-Serif" font-size="11.00" fill="#000000">procedure_order_id</text>
<polygon fill="none" stroke="#000000" points="606,-539.5504 606,-561.5504 672,-561.5504 672,-539.5504 606,-539.5504"/>
<text text-anchor="start" x="609" y="-547.2504" font-family="Helvetica,sans-Serif" font-size="11.00" fill="#000000">bigint[19]</text>
<polygon fill="none" stroke="#000000" points="444,-517.5504 444,-539.5504 606,-539.5504 606,-517.5504 444,-517.5504"/>
<text text-anchor="start" x="464" y="-524.6504" font-family="Helvetica,sans-Serif" font-size="11.00" fill="#000000">procedure_order_seq</text>
<polygon fill="none" stroke="#000000" points="606,-517.5504 606,-539.5504 672,-539.5504 672,-517.5504 606,-517.5504"/>
<text text-anchor="start" x="609" y="-525.2504" font-family="Helvetica,sans-Serif" font-size="11.00" fill="#000000">int[10]</text>
<polygon fill="none" stroke="#000000" points="444,-495.5504 444,-517.5504 606,-517.5504 606,-495.5504 444,-495.5504"/>
<text text-anchor="start" x="464" y="-502.6504" font-family="Helvetica,sans-Serif" font-size="11.00" fill="#000000">date_collected</text>
<polygon fill="none" stroke="#000000" points="606,-495.5504 606,-517.5504 672,-517.5504 672,-495.5504 606,-495.5504"/>
<text text-anchor="start" x="608.7401" y="-503.2504" font-family="Helvetica,sans-Serif" font-size="11.00" fill="#000000">datetime[19]</text>
<polygon fill="none" stroke="#000000" points="444,-473.5504 444,-495.5504 606,-495.5504 606,-473.5504 444,-473.5504"/>
<text text-anchor="start" x="464" y="-480.6504" font-family="Helvetica,sans-Serif" font-size="11.00" fill="#000000">date_collected_tz</text>
<polygon fill="none" stroke="#000000" points="606,-473.5504 606,-495.5504 672,-495.5504 672,-473.5504 606,-473.5504"/>
<text text-anchor="start" x="609" y="-481.2504" font-family="Helvetica,sans-Serif" font-size="11.00" fill="#000000">varchar[5]</text>
<polygon fill="none" stroke="#000000" points="444,-451.5504 444,-473.5504 606,-473.5504 606,-451.5504 444,-451.5504"/>
<text text-anchor="start" x="464" y="-458.6504" font-family="Helvetica,sans-Serif" font-size="11.00" fill="#000000">date_report</text>
<polygon fill="none" stroke="#000000" points="606,-451.5504 606,-473.5504 672,-473.5504 672,-451.5504 606,-451.5504"/>
<text text-anchor="start" x="608.7401" y="-459.2504" font-family="Helvetica,sans-Serif" font-size="11.00" fill="#000000">datetime[19]</text>
<polygon fill="none" stroke="#000000" points="444,-429.5504 444,-451.5504 606,-451.5504 606,-429.5504 444,-429.5504"/>
<text text-anchor="start" x="464" y="-436.6504" font-family="Helvetica,sans-Serif" font-size="11.00" fill="#000000">date_report_tz</text>
<polygon fill="none" stroke="#000000" points="606,-429.5504 606,-451.5504 672,-451.5504 672,-429.5504 606,-429.5504"/>
<text text-anchor="start" x="609" y="-437.2504" font-family="Helvetica,sans-Serif" font-size="11.00" fill="#000000">varchar[5]</text>
<polygon fill="none" stroke="#000000" points="444,-407.5504 444,-429.5504 606,-429.5504 606,-407.5504 444,-407.5504"/>
<image xlink:href="../../images/foreignKeys.png" width="11px" height="12px" preserveAspectRatio="xMinYMin meet" x="449" y="-424.55"/>
<text text-anchor="start" x="464" y="-414.6504" font-family="Helvetica,sans-Serif" font-size="11.00" fill="#000000">source</text>
<polygon fill="none" stroke="#000000" points="606,-407.5504 606,-429.5504 672,-429.5504 672,-407.5504 606,-407.5504"/>
<text text-anchor="start" x="609" y="-415.2504" font-family="Helvetica,sans-Serif" font-size="11.00" fill="#000000">bigint[19]</text>
<polygon fill="none" stroke="#000000" points="444,-385.5504 444,-407.5504 606,-407.5504 606,-385.5504 444,-385.5504"/>
<text text-anchor="start" x="464" y="-392.6504" font-family="Helvetica,sans-Serif" font-size="11.00" fill="#000000">specimen_num</text>
<polygon fill="none" stroke="#000000" points="606,-385.5504 606,-407.5504 672,-407.5504 672,-385.5504 606,-385.5504"/>
<text text-anchor="start" x="609" y="-393.2504" font-family="Helvetica,sans-Serif" font-size="11.00" fill="#000000">varchar[63]</text>
<polygon fill="none" stroke="#000000" points="444,-363.5504 444,-385.5504 606,-385.5504 606,-363.5504 444,-363.5504"/>
<image xlink:href="../../images/foreignKeys.png" width="11px" height="12px" preserveAspectRatio="xMinYMin meet" x="449" y="-380.55"/>
<text text-anchor="start" x="464" y="-370.6504" font-family="Helvetica,sans-Serif" font-size="11.00" fill="#000000">report_status</text>
<polygon fill="none" stroke="#000000" points="606,-363.5504 606,-385.5504 672,-385.5504 672,-363.5504 606,-363.5504"/>
<text text-anchor="start" x="609" y="-371.2504" font-family="Helvetica,sans-Serif" font-size="11.00" fill="#000000">varchar[31]</text>
<polygon fill="none" stroke="#000000" points="444,-341.5504 444,-363.5504 606,-363.5504 606,-341.5504 444,-341.5504"/>
<text text-anchor="start" x="464" y="-348.6504" font-family="Helvetica,sans-Serif" font-size="11.00" fill="#000000">review_status</text>
<polygon fill="none" stroke="#000000" points="606,-341.5504 606,-363.5504 672,-363.5504 672,-341.5504 606,-341.5504"/>
<text text-anchor="start" x="609" y="-349.2504" font-family="Helvetica,sans-Serif" font-size="11.00" fill="#000000">varchar[31]</text>
<polygon fill="none" stroke="#000000" points="444,-319.5504 444,-341.5504 606,-341.5504 606,-319.5504 444,-319.5504"/>
<text text-anchor="start" x="464" y="-326.6504" font-family="Helvetica,sans-Serif" font-size="11.00" fill="#000000">report_notes</text>
<polygon fill="none" stroke="#000000" points="606,-319.5504 606,-341.5504 672,-341.5504 672,-319.5504 606,-319.5504"/>
<text text-anchor="start" x="609" y="-327.2504" font-family="Helvetica,sans-Serif" font-size="11.00" fill="#000000">text[65535]</text>
<polygon fill="#ffffff" stroke="transparent" points="444,-300.5504 444,-319.5504 529,-319.5504 529,-300.5504 444,-300.5504"/>
<polygon fill="none" stroke="#000000" points="444,-300.5504 444,-319.5504 529,-319.5504 529,-300.5504 444,-300.5504"/>
<text text-anchor="start" x="447" y="-306.6504" font-family="Helvetica,sans-Serif" font-size="11.00" fill="#000000">&lt; 3</text>
<polygon fill="#ffffff" stroke="transparent" points="529,-300.5504 529,-319.5504 606,-319.5504 606,-300.5504 529,-300.5504"/>
<polygon fill="none" stroke="#000000" points="529,-300.5504 529,-319.5504 606,-319.5504 606,-300.5504 529,-300.5504"/>
<text text-anchor="start" x="596.8862" y="-306.6504" font-family="Helvetica,sans-Serif" font-size="11.00" fill="#000000"> &#160;</text>
<polygon fill="#ffffff" stroke="transparent" points="606,-300.5504 606,-319.5504 672,-319.5504 672,-300.5504 606,-300.5504"/>
<polygon fill="none" stroke="#000000" points="606,-300.5504 606,-319.5504 672,-319.5504 672,-300.5504 606,-300.5504"/>
<text text-anchor="start" x="653.4053" y="-306.6504" font-family="Helvetica,sans-Serif" font-size="11.00" fill="#000000">1 &gt;</text>
<polygon fill="none" stroke="#000000" stroke-width="2" points="443,-299.5504 443,-629.5504 673,-629.5504 673,-299.5504 443,-299.5504"/>
</a>
</g>
</g>
<!-- procedure_report&#45;&gt;procedure_order -->
<g id="edge12" class="edge">
<title>procedure_report:w&#45;&gt;procedure_order:e</title>
<path fill="none" stroke="#000000" d="M429.4203,-550.5504C417.5435,-550.5504 410.158,-550.5504 393.5,-550.5504"/>
<polygon fill="#000000" stroke="#000000" points="436,-550.5505 444,-554.1504 440,-550.5504 444,-550.5504 444,-550.5504 444,-550.5504 440,-550.5504 444,-546.9504 436,-550.5505 436,-550.5505"/>
<ellipse fill="none" stroke="#000000" cx="432.8" cy="-550.5505" rx="3.2" ry="3.2"/>
</g>
<!-- procedure_report&#45;&gt;list_options -->
<g id="edge13" class="edge">
<title>procedure_report:w&#45;&gt;list_options:e</title>
<path fill="none" stroke="#000000" d="M429.6129,-375.9212C357.9904,-391.4812 473.995,-535.3892 401,-595.5504 337.5505,-647.8444 280.1008,-647.044 216,-595.5504 121.9693,-520.0135 278.1135,-330.5504 157.5,-330.5504"/>
<polygon fill="#000000" stroke="#000000" points="436.0361,-375.3093 444.3415,-378.1342 440.018,-374.9298 444,-374.5504 444,-374.5504 444,-374.5504 440.018,-374.9298 443.6585,-370.9666 436.0361,-375.3093 436.0361,-375.3093"/>
<ellipse fill="none" stroke="#000000" cx="432.8505" cy="-375.6128" rx="3.2" ry="3.2"/>
</g>
<!-- procedure_report&#45;&gt;users -->
<g id="edge14" class="edge">
<title>procedure_report:w&#45;&gt;users:e</title>
<path fill="none" stroke="#000000" d="M430.1048,-414.3786C378.9597,-378.4265 454.8391,-121.0957 401,-73.5504 339.3695,-19.1245 281.1554,-23.398 216,-73.5504 160.2588,-116.4564 245.842,-226.5504 175.5,-226.5504"/>
<polygon fill="#000000" stroke="#000000" points="436.3379,-416.2499 442.9648,-421.9984 440.1689,-417.4002 444,-418.5504 444,-418.5504 444,-418.5504 440.1689,-417.4002 445.0352,-415.1025 436.3379,-416.2499 436.3379,-416.2499"/>
<ellipse fill="none" stroke="#000000" cx="433.273" cy="-415.3297" rx="3.2" ry="3.2"/>
</g>
<!-- procedure_result -->
<g id="node5" class="node">
<title>procedure_result</title>
<g id="a_node5"><a xlink:href="../../tables/procedure_result.html" xlink:title="procedure_result" target="_top">
<polygon fill="#ffffff" stroke="transparent" points="723,-524.0504 723,-673.0504 880,-673.0504 880,-524.0504 723,-524.0504"/>
<polygon fill="#f5f5f5" stroke="transparent" points="723.5,-649.5504 723.5,-672.5504 880.5,-672.5504 880.5,-649.5504 723.5,-649.5504"/>
<polygon fill="none" stroke="#000000" points="723.5,-649.5504 723.5,-672.5504 880.5,-672.5504 880.5,-649.5504 723.5,-649.5504"/>
<text text-anchor="start" x="728.5" y="-658.1504" font-family="Helvetica,sans-Serif" font-weight="bold" font-size="11.00" fill="#000000">procedure_result</text>
<text text-anchor="start" x="845.5437" y="-657.6504" font-family="Helvetica,sans-Serif" font-size="11.00" fill="#000000">[table]</text>
<polygon fill="none" stroke="#000000" points="723.5,-627.5504 723.5,-649.5504 880.5,-649.5504 880.5,-627.5504 723.5,-627.5504"/>
<image xlink:href="../../images/primaryKeys.png" width="11px" height="12px" preserveAspectRatio="xMinYMin meet" x="728.5" y="-644.55"/>
<text text-anchor="start" x="743.5" y="-634.6504" font-family="Helvetica,sans-Serif" font-size="11.00" fill="#000000">procedure_result_id</text>
<polygon fill="#ffffff" stroke="transparent" points="723.5,-605.5504 723.5,-627.5504 880.5,-627.5504 880.5,-605.5504 723.5,-605.5504"/>
<polygon fill="none" stroke="#000000" points="723.5,-605.5504 723.5,-627.5504 880.5,-627.5504 880.5,-605.5504 723.5,-605.5504"/>
<text text-anchor="start" x="743.5" y="-612.6504" font-family="Helvetica,sans-Serif" font-size="11.00" fill="#000000">uuid</text>
<polygon fill="#ffffff" stroke="transparent" points="723.5,-583.5504 723.5,-605.5504 880.5,-605.5504 880.5,-583.5504 723.5,-583.5504"/>
<polygon fill="none" stroke="#000000" points="723.5,-583.5504 723.5,-605.5504 880.5,-605.5504 880.5,-583.5504 723.5,-583.5504"/>
<image xlink:href="../../images/foreignKeys.png" width="11px" height="12px" preserveAspectRatio="xMinYMin meet" x="728.5" y="-600.55"/>
<text text-anchor="start" x="743.5" y="-590.6504" font-family="Helvetica,sans-Serif" font-size="11.00" fill="#000000">procedure_report_id</text>
<polygon fill="none" stroke="#000000" points="723.5,-561.5504 723.5,-583.5504 880.5,-583.5504 880.5,-561.5504 723.5,-561.5504"/>
<image xlink:href="../../images/foreignKeys.png" width="11px" height="12px" preserveAspectRatio="xMinYMin meet" x="728.5" y="-578.55"/>
<text text-anchor="start" x="743.5" y="-568.6504" font-family="Helvetica,sans-Serif" font-size="11.00" fill="#000000">document_id</text>
<polygon fill="none" stroke="#000000" points="723.5,-542.5504 723.5,-561.5504 880.5,-561.5504 880.5,-542.5504 723.5,-542.5504"/>
<text text-anchor="start" x="726.5" y="-548.6504" font-family="Helvetica,sans-Serif" font-size="11.00" fill="#000000">...</text>
<polygon fill="#ffffff" stroke="transparent" points="723.5,-523.5504 723.5,-542.5504 795.5,-542.5504 795.5,-523.5504 723.5,-523.5504"/>
<polygon fill="none" stroke="#000000" points="723.5,-523.5504 723.5,-542.5504 795.5,-542.5504 795.5,-523.5504 723.5,-523.5504"/>
<text text-anchor="start" x="726.5" y="-529.6504" font-family="Helvetica,sans-Serif" font-size="11.00" fill="#000000">&lt; 2</text>
<polygon fill="#ffffff" stroke="transparent" points="795.5,-523.5504 795.5,-542.5504 833.5,-542.5504 833.5,-523.5504 795.5,-523.5504"/>
<polygon fill="none" stroke="#000000" points="795.5,-523.5504 795.5,-542.5504 833.5,-542.5504 833.5,-523.5504 795.5,-523.5504"/>
<text text-anchor="start" x="824.3862" y="-529.6504" font-family="Helvetica,sans-Serif" font-size="11.00" fill="#000000"> &#160;</text>
<polygon fill="#ffffff" stroke="transparent" points="833.5,-523.5504 833.5,-542.5504 880.5,-542.5504 880.5,-523.5504 833.5,-523.5504"/>
<polygon fill="none" stroke="#000000" points="833.5,-523.5504 833.5,-542.5504 880.5,-542.5504 880.5,-523.5504 833.5,-523.5504"/>
<text text-anchor="start" x="861.9053" y="-529.6504" font-family="Helvetica,sans-Serif" font-size="11.00" fill="#000000">1 &gt;</text>
</a>
</g>
</g>
<!-- procedure_result&#45;&gt;procedure_report -->
<g id="edge15" class="edge">
<title>procedure_result:w&#45;&gt;procedure_report:e</title>
<path fill="none" stroke="#000000" d="M709.0156,-594.5504C696.6771,-594.5504 689.1667,-594.5504 672,-594.5504"/>
<polygon fill="#000000" stroke="#000000" points="715.5,-594.5505 723.5,-598.1504 719.5,-594.5504 723.5,-594.5504 723.5,-594.5504 723.5,-594.5504 719.5,-594.5504 723.5,-590.9504 715.5,-594.5505 715.5,-594.5505"/>
<ellipse fill="none" stroke="#000000" cx="712.3" cy="-594.5505" rx="3.2" ry="3.2"/>
</g>
</g>
</svg>
