<?xml version="1.0" encoding="UTF-8" standalone="no"?>
<!DOCTYPE svg PUBLIC "-//W3C//DTD SVG 1.1//EN"
 "http://www.w3.org/Graphics/SVG/1.1/DTD/svg11.dtd">
<!-- Generated by graphviz version 2.40.1 (20161225.0304)
 -->
<!-- Title: twoDegreesRelationshipsDiagram Pages: 1 -->
<svg width="1645pt" height="731pt"
 viewBox="0.00 0.00 1645.00 730.59" xmlns="http://www.w3.org/2000/svg" xmlns:xlink="http://www.w3.org/1999/xlink">
<g id="graph0" class="graph" transform="scale(1 1) rotate(0) translate(4 726.5878)">
<title>twoDegreesRelationshipsDiagram</title>
<polygon fill="#ffffff" stroke="transparent" points="-4,4 -4,-726.5878 1641,-726.5878 1641,4 -4,4"/>
<text text-anchor="middle" x="72.4936" y="-7.3" font-family="Helvetica,sans-Serif" font-size="11.00" fill="#000000">Generated by SchemaSpy</text>
<!-- clinical_notes_documents -->
<g id="node1" class="node">
<title>clinical_notes_documents</title>
<g id="a_node1"><a xlink:href="../../tables/clinical_notes_documents.html" xlink:title="clinical_notes_documents" target="_top">
<polygon fill="#ffffff" stroke="transparent" points="835,-305.5878 835,-366.5878 1045,-366.5878 1045,-305.5878 835,-305.5878"/>
<polygon fill="#f5f5f5" stroke="transparent" points="835,-343.0878 835,-366.0878 1045,-366.0878 1045,-343.0878 835,-343.0878"/>
<polygon fill="none" stroke="#000000" points="835,-343.0878 835,-366.0878 1045,-366.0878 1045,-343.0878 835,-343.0878"/>
<text text-anchor="start" x="840" y="-351.6878" font-family="Helvetica,sans-Serif" font-weight="bold" font-size="11.00" fill="#000000">clinical_notes_documents</text>
<text text-anchor="start" x="1010.5219" y="-351.1878" font-family="Helvetica,sans-Serif" font-size="11.00" fill="#000000">[table]</text>
<polygon fill="none" stroke="#000000" points="835,-324.0878 835,-343.0878 1045,-343.0878 1045,-324.0878 835,-324.0878"/>
<text text-anchor="start" x="838" y="-330.1878" font-family="Helvetica,sans-Serif" font-size="11.00" fill="#000000">...</text>
<polygon fill="#ffffff" stroke="transparent" points="835,-305.0878 835,-324.0878 938,-324.0878 938,-305.0878 835,-305.0878"/>
<polygon fill="none" stroke="#000000" points="835,-305.0878 835,-324.0878 938,-324.0878 938,-305.0878 835,-305.0878"/>
<text text-anchor="start" x="838" y="-311.1878" font-family="Helvetica,sans-Serif" font-size="11.00" fill="#000000">&lt; 3</text>
<polygon fill="#ffffff" stroke="transparent" points="938,-305.0878 938,-324.0878 991,-324.0878 991,-305.0878 938,-305.0878"/>
<polygon fill="none" stroke="#000000" points="938,-305.0878 938,-324.0878 991,-324.0878 991,-305.0878 938,-305.0878"/>
<text text-anchor="start" x="981.8862" y="-311.1878" font-family="Helvetica,sans-Serif" font-size="11.00" fill="#000000"> &#160;</text>
<polygon fill="#ffffff" stroke="transparent" points="991,-305.0878 991,-324.0878 1045,-324.0878 1045,-305.0878 991,-305.0878"/>
<polygon fill="none" stroke="#000000" points="991,-305.0878 991,-324.0878 1045,-324.0878 1045,-305.0878 991,-305.0878"/>
<text text-anchor="start" x="1035.8862" y="-311.1878" font-family="Helvetica,sans-Serif" font-size="11.00" fill="#000000"> &#160;</text>
</a>
</g>
</g>
<!-- form_clinical_notes -->
<g id="node2" class="node">
<title>form_clinical_notes</title>
<g id="a_node2"><a xlink:href="../../tables/form_clinical_notes.html" xlink:title="form_clinical_notes" target="_top">
<polygon fill="#ffffff" stroke="transparent" points="346,-487.5878 346,-548.5878 514,-548.5878 514,-487.5878 346,-487.5878"/>
<polygon fill="#f5f5f5" stroke="transparent" points="346,-525.0878 346,-548.0878 514,-548.0878 514,-525.0878 346,-525.0878"/>
<polygon fill="none" stroke="#000000" points="346,-525.0878 346,-548.0878 514,-548.0878 514,-525.0878 346,-525.0878"/>
<text text-anchor="start" x="351" y="-533.6878" font-family="Helvetica,sans-Serif" font-weight="bold" font-size="11.00" fill="#000000">form_clinical_notes</text>
<text text-anchor="start" x="479.5219" y="-533.1878" font-family="Helvetica,sans-Serif" font-size="11.00" fill="#000000">[table]</text>
<polygon fill="none" stroke="#000000" points="346,-506.0878 346,-525.0878 514,-525.0878 514,-506.0878 346,-506.0878"/>
<text text-anchor="start" x="349" y="-512.1878" font-family="Helvetica,sans-Serif" font-size="11.00" fill="#000000">...</text>
<polygon fill="#ffffff" stroke="transparent" points="346,-487.0878 346,-506.0878 424,-506.0878 424,-487.0878 346,-487.0878"/>
<polygon fill="none" stroke="#000000" points="346,-487.0878 346,-506.0878 424,-506.0878 424,-487.0878 346,-487.0878"/>
<text text-anchor="start" x="349" y="-493.1878" font-family="Helvetica,sans-Serif" font-size="11.00" fill="#000000">&lt; 3</text>
<polygon fill="#ffffff" stroke="transparent" points="424,-487.0878 424,-506.0878 464,-506.0878 464,-487.0878 424,-487.0878"/>
<polygon fill="none" stroke="#000000" points="424,-487.0878 424,-506.0878 464,-506.0878 464,-487.0878 424,-487.0878"/>
<text text-anchor="start" x="454.8862" y="-493.1878" font-family="Helvetica,sans-Serif" font-size="11.00" fill="#000000"> &#160;</text>
<polygon fill="#ffffff" stroke="transparent" points="464,-487.0878 464,-506.0878 514,-506.0878 514,-487.0878 464,-487.0878"/>
<polygon fill="none" stroke="#000000" points="464,-487.0878 464,-506.0878 514,-506.0878 514,-487.0878 464,-487.0878"/>
<text text-anchor="start" x="495.4053" y="-493.1878" font-family="Helvetica,sans-Serif" font-size="11.00" fill="#000000">2 &gt;</text>
</a>
</g>
</g>
<!-- clinical_notes_documents&#45;&gt;form_clinical_notes -->
<g id="edge1" class="edge">
<title>clinical_notes_documents:w&#45;&gt;form_clinical_notes:e</title>
<path fill="none" stroke="#000000" d="M820.7175,-335.4168C784.4657,-350.0424 836.3655,-429.7934 794,-467.0878 770.3073,-487.9445 545.5649,-515.0878 514,-515.0878"/>
<polygon fill="#000000" stroke="#000000" points="827.1043,-334.3754 835.5794,-336.6409 831.0521,-333.7316 835,-333.0878 835,-333.0878 835,-333.0878 831.0521,-333.7316 834.4206,-329.5347 827.1043,-334.3754 827.1043,-334.3754"/>
<ellipse fill="none" stroke="#000000" cx="823.946" cy="-334.8904" rx="3.2" ry="3.2"/>
</g>
<!-- users -->
<g id="node3" class="node">
<title>users</title>
<g id="a_node3"><a xlink:href="../../tables/users.html" xlink:title="users" target="_top">
<polygon fill="#ffffff" stroke="transparent" points="28.5,-237.5878 28.5,-298.5878 103.5,-298.5878 103.5,-237.5878 28.5,-237.5878"/>
<polygon fill="#f5f5f5" stroke="transparent" points="29,-275.0878 29,-298.0878 104,-298.0878 104,-275.0878 29,-275.0878"/>
<polygon fill="none" stroke="#000000" points="29,-275.0878 29,-298.0878 104,-298.0878 104,-275.0878 29,-275.0878"/>
<text text-anchor="start" x="34" y="-283.6878" font-family="Helvetica,sans-Serif" font-weight="bold" font-size="11.00" fill="#000000">users</text>
<text text-anchor="start" x="69.5219" y="-283.1878" font-family="Helvetica,sans-Serif" font-size="11.00" fill="#000000">[table]</text>
<polygon fill="none" stroke="#000000" points="29,-256.0878 29,-275.0878 104,-275.0878 104,-256.0878 29,-256.0878"/>
<text text-anchor="start" x="32" y="-262.1878" font-family="Helvetica,sans-Serif" font-size="11.00" fill="#000000">...</text>
<polygon fill="#ffffff" stroke="transparent" points="29,-237.0878 29,-256.0878 57,-256.0878 57,-237.0878 29,-237.0878"/>
<polygon fill="none" stroke="#000000" points="29,-237.0878 29,-256.0878 57,-256.0878 57,-237.0878 29,-237.0878"/>
<text text-anchor="start" x="32" y="-243.1878" font-family="Helvetica,sans-Serif" font-size="11.00" fill="#000000">&lt; 2</text>
<polygon fill="#ffffff" stroke="transparent" points="57,-237.0878 57,-256.0878 73,-256.0878 73,-237.0878 57,-237.0878"/>
<polygon fill="none" stroke="#000000" points="57,-237.0878 57,-256.0878 73,-256.0878 73,-237.0878 57,-237.0878"/>
<text text-anchor="start" x="63.8862" y="-243.1878" font-family="Helvetica,sans-Serif" font-size="11.00" fill="#000000"> &#160;</text>
<polygon fill="#ffffff" stroke="transparent" points="73,-237.0878 73,-256.0878 104,-256.0878 104,-237.0878 73,-237.0878"/>
<polygon fill="none" stroke="#000000" points="73,-237.0878 73,-256.0878 104,-256.0878 104,-237.0878 73,-237.0878"/>
<text text-anchor="start" x="79.2904" y="-243.1878" font-family="Helvetica,sans-Serif" font-size="11.00" fill="#000000">90 &gt;</text>
</a>
</g>
</g>
<!-- clinical_notes_documents&#45;&gt;users -->
<g id="edge2" class="edge">
<title>clinical_notes_documents:w&#45;&gt;users:e</title>
<path fill="none" stroke="#000000" d="M820.6138,-331.1751C771.5738,-315.5989 849.9607,-209.0338 794,-165.0878 737.295,-120.5573 250.1359,-136.6464 165,-182.0878 124.613,-203.6444 149.7799,-265.0878 104,-265.0878"/>
<polygon fill="#000000" stroke="#000000" points="827.0698,-332.0334 834.5255,-336.6564 831.0349,-332.5606 835,-333.0878 835,-333.0878 835,-333.0878 831.0349,-332.5606 835.4745,-329.5192 827.0698,-332.0334 827.0698,-332.0334"/>
<ellipse fill="none" stroke="#000000" cx="823.8977" cy="-331.6117" rx="3.2" ry="3.2"/>
</g>
<!-- documents -->
<g id="node4" class="node">
<title>documents</title>
<g id="a_node4"><a xlink:href="../../tables/documents.html" xlink:title="documents" target="_top">
<polygon fill="#ffffff" stroke="transparent" points="563,-175.5878 563,-456.5878 786,-456.5878 786,-175.5878 563,-175.5878"/>
<polygon fill="#f5f5f5" stroke="transparent" points="563.5,-433.0878 563.5,-456.0878 786.5,-456.0878 786.5,-433.0878 563.5,-433.0878"/>
<polygon fill="none" stroke="#000000" points="563.5,-433.0878 563.5,-456.0878 786.5,-456.0878 786.5,-433.0878 563.5,-433.0878"/>
<text text-anchor="start" x="568.5" y="-441.6878" font-family="Helvetica,sans-Serif" font-weight="bold" font-size="11.00" fill="#000000">documents</text>
<text text-anchor="start" x="751.5437" y="-441.1878" font-family="Helvetica,sans-Serif" font-size="11.00" fill="#000000">[table]</text>
<polygon fill="none" stroke="#000000" points="563.5,-411.0878 563.5,-433.0878 786.5,-433.0878 786.5,-411.0878 563.5,-411.0878"/>
<image xlink:href="../../images/primaryKeys.png" width="11px" height="12px" preserveAspectRatio="xMinYMin meet" x="568.5" y="-428.088"/>
<text text-anchor="start" x="583.5" y="-418.1878" font-family="Helvetica,sans-Serif" font-size="11.00" fill="#000000">id</text>
<polygon fill="#ffffff" stroke="transparent" points="563.5,-389.0878 563.5,-411.0878 786.5,-411.0878 786.5,-389.0878 563.5,-389.0878"/>
<polygon fill="none" stroke="#000000" points="563.5,-389.0878 563.5,-411.0878 786.5,-411.0878 786.5,-389.0878 563.5,-389.0878"/>
<text text-anchor="start" x="583.5" y="-396.1878" font-family="Helvetica,sans-Serif" font-size="11.00" fill="#000000">uuid</text>
<polygon fill="#ffffff" stroke="transparent" points="563.5,-367.0878 563.5,-389.0878 786.5,-389.0878 786.5,-367.0878 563.5,-367.0878"/>
<polygon fill="none" stroke="#000000" points="563.5,-367.0878 563.5,-389.0878 786.5,-389.0878 786.5,-367.0878 563.5,-367.0878"/>
<image xlink:href="../../images/foreignKeys.png" width="11px" height="12px" preserveAspectRatio="xMinYMin meet" x="568.5" y="-384.088"/>
<text text-anchor="start" x="583.5" y="-374.1878" font-family="Helvetica,sans-Serif" font-size="11.00" fill="#000000">owner</text>
<polygon fill="#ffffff" stroke="transparent" points="563.5,-345.0878 563.5,-367.0878 786.5,-367.0878 786.5,-345.0878 563.5,-345.0878"/>
<polygon fill="none" stroke="#000000" points="563.5,-345.0878 563.5,-367.0878 786.5,-367.0878 786.5,-345.0878 563.5,-345.0878"/>
<text text-anchor="start" x="583.5" y="-352.1878" font-family="Helvetica,sans-Serif" font-size="11.00" fill="#000000">revision</text>
<polygon fill="#ffffff" stroke="transparent" points="563.5,-323.0878 563.5,-345.0878 786.5,-345.0878 786.5,-323.0878 563.5,-323.0878"/>
<polygon fill="none" stroke="#000000" points="563.5,-323.0878 563.5,-345.0878 786.5,-345.0878 786.5,-323.0878 563.5,-323.0878"/>
<image xlink:href="../../images/foreignKeys.png" width="11px" height="12px" preserveAspectRatio="xMinYMin meet" x="568.5" y="-340.088"/>
<text text-anchor="start" x="583.5" y="-330.1878" font-family="Helvetica,sans-Serif" font-size="11.00" fill="#000000">foreign_id</text>
<polygon fill="none" stroke="#000000" points="563.5,-301.0878 563.5,-323.0878 786.5,-323.0878 786.5,-301.0878 563.5,-301.0878"/>
<image xlink:href="../../images/foreignKeys.png" width="11px" height="12px" preserveAspectRatio="xMinYMin meet" x="568.5" y="-318.088"/>
<text text-anchor="start" x="583.5" y="-308.1878" font-family="Helvetica,sans-Serif" font-size="11.00" fill="#000000">list_id</text>
<polygon fill="#ffffff" stroke="transparent" points="563.5,-279.0878 563.5,-301.0878 786.5,-301.0878 786.5,-279.0878 563.5,-279.0878"/>
<polygon fill="none" stroke="#000000" points="563.5,-279.0878 563.5,-301.0878 786.5,-301.0878 786.5,-279.0878 563.5,-279.0878"/>
<text text-anchor="start" x="583.5" y="-286.1878" font-family="Helvetica,sans-Serif" font-size="11.00" fill="#000000">drive_uuid</text>
<polygon fill="none" stroke="#000000" points="563.5,-257.0878 563.5,-279.0878 786.5,-279.0878 786.5,-257.0878 563.5,-257.0878"/>
<image xlink:href="../../images/foreignKeys.png" width="11px" height="12px" preserveAspectRatio="xMinYMin meet" x="568.5" y="-274.088"/>
<text text-anchor="start" x="583.5" y="-264.1878" font-family="Helvetica,sans-Serif" font-size="11.00" fill="#000000">encounter_id</text>
<polygon fill="#ffffff" stroke="transparent" points="563.5,-235.0878 563.5,-257.0878 786.5,-257.0878 786.5,-235.0878 563.5,-235.0878"/>
<polygon fill="none" stroke="#000000" points="563.5,-235.0878 563.5,-257.0878 786.5,-257.0878 786.5,-235.0878 563.5,-235.0878"/>
<text text-anchor="start" x="583.5" y="-242.1878" font-family="Helvetica,sans-Serif" font-size="11.00" fill="#000000">foreign_reference_id</text>
<polygon fill="#ffffff" stroke="transparent" points="563.5,-213.0878 563.5,-235.0878 786.5,-235.0878 786.5,-213.0878 563.5,-213.0878"/>
<polygon fill="none" stroke="#000000" points="563.5,-213.0878 563.5,-235.0878 786.5,-235.0878 786.5,-213.0878 563.5,-213.0878"/>
<text text-anchor="start" x="583.5" y="-220.1878" font-family="Helvetica,sans-Serif" font-size="11.00" fill="#000000">foreign_reference_table</text>
<polygon fill="none" stroke="#000000" points="563.5,-194.0878 563.5,-213.0878 786.5,-213.0878 786.5,-194.0878 563.5,-194.0878"/>
<text text-anchor="start" x="566.5" y="-200.1878" font-family="Helvetica,sans-Serif" font-size="11.00" fill="#000000">...</text>
<polygon fill="#ffffff" stroke="transparent" points="563.5,-175.0878 563.5,-194.0878 668.5,-194.0878 668.5,-175.0878 563.5,-175.0878"/>
<polygon fill="none" stroke="#000000" points="563.5,-175.0878 563.5,-194.0878 668.5,-194.0878 668.5,-175.0878 563.5,-175.0878"/>
<text text-anchor="start" x="566.5" y="-181.1878" font-family="Helvetica,sans-Serif" font-size="11.00" fill="#000000">&lt; 4</text>
<polygon fill="#ffffff" stroke="transparent" points="668.5,-175.0878 668.5,-194.0878 722.5,-194.0878 722.5,-175.0878 668.5,-175.0878"/>
<polygon fill="none" stroke="#000000" points="668.5,-175.0878 668.5,-194.0878 722.5,-194.0878 722.5,-175.0878 668.5,-175.0878"/>
<text text-anchor="start" x="713.3862" y="-181.1878" font-family="Helvetica,sans-Serif" font-size="11.00" fill="#000000"> &#160;</text>
<polygon fill="#ffffff" stroke="transparent" points="722.5,-175.0878 722.5,-194.0878 786.5,-194.0878 786.5,-175.0878 722.5,-175.0878"/>
<polygon fill="none" stroke="#000000" points="722.5,-175.0878 722.5,-194.0878 786.5,-194.0878 786.5,-175.0878 722.5,-175.0878"/>
<text text-anchor="start" x="767.9053" y="-181.1878" font-family="Helvetica,sans-Serif" font-size="11.00" fill="#000000">4 &gt;</text>
</a>
</g>
</g>
<!-- clinical_notes_documents&#45;&gt;documents -->
<g id="edge3" class="edge">
<title>clinical_notes_documents:w&#45;&gt;documents:e</title>
<path fill="none" stroke="#000000" d="M821.2303,-337.3804C799.4728,-355.1585 825.5647,-422.0878 786.5,-422.0878"/>
<polygon fill="#000000" stroke="#000000" points="827.3625,-335.4688 836.0714,-336.5247 831.1813,-334.2783 835,-333.0878 835,-333.0878 835,-333.0878 831.1813,-334.2783 833.9286,-329.6509 827.3625,-335.4688 827.3625,-335.4688"/>
<ellipse fill="none" stroke="#000000" cx="824.3075" cy="-336.4212" rx="3.2" ry="3.2"/>
</g>
<!-- patient_data -->
<g id="node8" class="node">
<title>patient_data</title>
<g id="a_node8"><a xlink:href="../../tables/patient_data.html" xlink:title="patient_data" target="_top">
<polygon fill="#ffffff" stroke="transparent" points="173,-322.5878 173,-383.5878 297,-383.5878 297,-322.5878 173,-322.5878"/>
<polygon fill="#f5f5f5" stroke="transparent" points="173,-360.0878 173,-383.0878 297,-383.0878 297,-360.0878 173,-360.0878"/>
<polygon fill="none" stroke="#000000" points="173,-360.0878 173,-383.0878 297,-383.0878 297,-360.0878 173,-360.0878"/>
<text text-anchor="start" x="178" y="-368.6878" font-family="Helvetica,sans-Serif" font-weight="bold" font-size="11.00" fill="#000000">patient_data</text>
<text text-anchor="start" x="262.5219" y="-368.1878" font-family="Helvetica,sans-Serif" font-size="11.00" fill="#000000">[table]</text>
<polygon fill="none" stroke="#000000" points="173,-341.0878 173,-360.0878 297,-360.0878 297,-341.0878 173,-341.0878"/>
<text text-anchor="start" x="176" y="-347.1878" font-family="Helvetica,sans-Serif" font-size="11.00" fill="#000000">...</text>
<polygon fill="#ffffff" stroke="transparent" points="173,-322.0878 173,-341.0878 226,-341.0878 226,-322.0878 173,-322.0878"/>
<polygon fill="none" stroke="#000000" points="173,-322.0878 173,-341.0878 226,-341.0878 226,-322.0878 173,-322.0878"/>
<text text-anchor="start" x="176" y="-328.1878" font-family="Helvetica,sans-Serif" font-size="11.00" fill="#000000">&lt; 9</text>
<polygon fill="#ffffff" stroke="transparent" points="226,-322.0878 226,-341.0878 254,-341.0878 254,-322.0878 226,-322.0878"/>
<polygon fill="none" stroke="#000000" points="226,-322.0878 226,-341.0878 254,-341.0878 254,-322.0878 226,-322.0878"/>
<text text-anchor="start" x="244.8862" y="-328.1878" font-family="Helvetica,sans-Serif" font-size="11.00" fill="#000000"> &#160;</text>
<polygon fill="#ffffff" stroke="transparent" points="254,-322.0878 254,-341.0878 297,-341.0878 297,-322.0878 254,-322.0878"/>
<polygon fill="none" stroke="#000000" points="254,-322.0878 254,-341.0878 297,-341.0878 297,-322.0878 254,-322.0878"/>
<text text-anchor="start" x="272.2904" y="-328.1878" font-family="Helvetica,sans-Serif" font-size="11.00" fill="#000000">95 &gt;</text>
</a>
</g>
</g>
<!-- form_clinical_notes&#45;&gt;patient_data -->
<g id="edge13" class="edge">
<title>form_clinical_notes:w&#45;&gt;patient_data:e</title>
<path fill="none" stroke="#000000" d="M331.8023,-512.496C283.9442,-491.5045 367.8211,-350.0878 297,-350.0878"/>
<polygon fill="#000000" stroke="#000000" points="338.1301,-513.6511 345.3535,-518.6293 342.065,-514.3695 346,-515.0878 346,-515.0878 346,-515.0878 342.065,-514.3695 346.6465,-511.5463 338.1301,-513.6511 338.1301,-513.6511"/>
<ellipse fill="none" stroke="#000000" cx="334.9821" cy="-513.0764" rx="3.2" ry="3.2"/>
</g>
<!-- list_options -->
<g id="node10" class="node">
<title>list_options</title>
<g id="a_node10"><a xlink:href="../../tables/list_options.html" xlink:title="list_options" target="_top">
<polygon fill="#ffffff" stroke="transparent" points="8,-487.5878 8,-548.5878 124,-548.5878 124,-487.5878 8,-487.5878"/>
<polygon fill="#f5f5f5" stroke="transparent" points="8,-525.0878 8,-548.0878 124,-548.0878 124,-525.0878 8,-525.0878"/>
<polygon fill="none" stroke="#000000" points="8,-525.0878 8,-548.0878 124,-548.0878 124,-525.0878 8,-525.0878"/>
<text text-anchor="start" x="13" y="-533.6878" font-family="Helvetica,sans-Serif" font-weight="bold" font-size="11.00" fill="#000000">list_options</text>
<text text-anchor="start" x="89.5219" y="-533.1878" font-family="Helvetica,sans-Serif" font-size="11.00" fill="#000000">[table]</text>
<polygon fill="none" stroke="#000000" points="8,-506.0878 8,-525.0878 124,-525.0878 124,-506.0878 8,-506.0878"/>
<text text-anchor="start" x="11" y="-512.1878" font-family="Helvetica,sans-Serif" font-size="11.00" fill="#000000">...</text>
<polygon fill="#ffffff" stroke="transparent" points="8,-487.0878 8,-506.0878 52,-506.0878 52,-487.0878 8,-487.0878"/>
<polygon fill="none" stroke="#000000" points="8,-487.0878 8,-506.0878 52,-506.0878 52,-487.0878 8,-487.0878"/>
<text text-anchor="start" x="11" y="-493.1878" font-family="Helvetica,sans-Serif" font-size="11.00" fill="#000000"> &#160;</text>
<polygon fill="#ffffff" stroke="transparent" points="52,-487.0878 52,-506.0878 80,-506.0878 80,-487.0878 52,-487.0878"/>
<polygon fill="none" stroke="#000000" points="52,-487.0878 52,-506.0878 80,-506.0878 80,-487.0878 52,-487.0878"/>
<text text-anchor="start" x="70.8862" y="-493.1878" font-family="Helvetica,sans-Serif" font-size="11.00" fill="#000000"> &#160;</text>
<polygon fill="#ffffff" stroke="transparent" points="80,-487.0878 80,-506.0878 124,-506.0878 124,-487.0878 80,-487.0878"/>
<polygon fill="none" stroke="#000000" points="80,-487.0878 80,-506.0878 124,-506.0878 124,-487.0878 80,-487.0878"/>
<text text-anchor="start" x="99.2904" y="-493.1878" font-family="Helvetica,sans-Serif" font-size="11.00" fill="#000000">98 &gt;</text>
</a>
</g>
</g>
<!-- form_clinical_notes&#45;&gt;list_options -->
<g id="edge11" class="edge">
<title>form_clinical_notes:w&#45;&gt;list_options:e</title>
<path fill="none" stroke="#000000" d="M331.5218,-515.0878C244.6373,-515.0878 217.6563,-515.0878 124,-515.0878"/>
<polygon fill="#000000" stroke="#000000" points="338,-515.0879 346,-518.6878 342,-515.0878 346,-515.0878 346,-515.0878 346,-515.0878 342,-515.0878 346,-511.4878 338,-515.0879 338,-515.0879"/>
<ellipse fill="none" stroke="#000000" cx="334.8" cy="-515.0879" rx="3.2" ry="3.2"/>
</g>
<!-- form_clinical_notes&#45;&gt;list_options -->
<g id="edge12" class="edge">
<title>form_clinical_notes:w&#45;&gt;list_options:e</title>
<path fill="none" stroke="#000000" d="M331.5218,-515.0878C244.6373,-515.0878 217.6563,-515.0878 124,-515.0878"/>
<polygon fill="#000000" stroke="#000000" points="338,-515.0879 346,-518.6878 342,-515.0878 346,-515.0878 346,-515.0878 346,-515.0878 342,-515.0878 346,-511.4878 338,-515.0879 338,-515.0879"/>
<ellipse fill="none" stroke="#000000" cx="334.8" cy="-515.0879" rx="3.2" ry="3.2"/>
</g>
<!-- documents&#45;&gt;users -->
<g id="edge10" class="edge">
<title>documents:w&#45;&gt;users:e</title>
<path fill="none" stroke="#000000" d="M549.2485,-375.5478C516.7194,-360.9884 562.0315,-287.6095 522,-254.0878 399.8638,-151.813 316.8541,-173.945 165,-222.0878 133.381,-232.1121 137.17,-265.0878 104,-265.0878"/>
<polygon fill="#000000" stroke="#000000" points="555.6241,-376.684 562.8683,-381.6319 559.5621,-377.3859 563.5,-378.0878 563.5,-378.0878 563.5,-378.0878 559.5621,-377.3859 564.1317,-374.5436 555.6241,-376.684 555.6241,-376.684"/>
<ellipse fill="none" stroke="#000000" cx="552.4738" cy="-376.1225" rx="3.2" ry="3.2"/>
</g>
<!-- form_encounter -->
<g id="node7" class="node">
<title>form_encounter</title>
<g id="a_node7"><a xlink:href="../../tables/form_encounter.html" xlink:title="form_encounter" target="_top">
<polygon fill="#ffffff" stroke="transparent" points="357.5,-295.5878 357.5,-356.5878 502.5,-356.5878 502.5,-295.5878 357.5,-295.5878"/>
<polygon fill="#f5f5f5" stroke="transparent" points="358,-333.0878 358,-356.0878 503,-356.0878 503,-333.0878 358,-333.0878"/>
<polygon fill="none" stroke="#000000" points="358,-333.0878 358,-356.0878 503,-356.0878 503,-333.0878 358,-333.0878"/>
<text text-anchor="start" x="363" y="-341.6878" font-family="Helvetica,sans-Serif" font-weight="bold" font-size="11.00" fill="#000000">form_encounter</text>
<text text-anchor="start" x="468.5219" y="-341.1878" font-family="Helvetica,sans-Serif" font-size="11.00" fill="#000000">[table]</text>
<polygon fill="none" stroke="#000000" points="358,-314.0878 358,-333.0878 503,-333.0878 503,-314.0878 358,-314.0878"/>
<text text-anchor="start" x="361" y="-320.1878" font-family="Helvetica,sans-Serif" font-size="11.00" fill="#000000">...</text>
<polygon fill="#ffffff" stroke="transparent" points="358,-295.0878 358,-314.0878 421,-314.0878 421,-295.0878 358,-295.0878"/>
<polygon fill="none" stroke="#000000" points="358,-295.0878 358,-314.0878 421,-314.0878 421,-295.0878 358,-295.0878"/>
<text text-anchor="start" x="361" y="-301.1878" font-family="Helvetica,sans-Serif" font-size="11.00" fill="#000000">&lt; 1</text>
<polygon fill="#ffffff" stroke="transparent" points="421,-295.0878 421,-314.0878 454,-314.0878 454,-295.0878 421,-295.0878"/>
<polygon fill="none" stroke="#000000" points="421,-295.0878 421,-314.0878 454,-314.0878 454,-295.0878 421,-295.0878"/>
<text text-anchor="start" x="444.8862" y="-301.1878" font-family="Helvetica,sans-Serif" font-size="11.00" fill="#000000"> &#160;</text>
<polygon fill="#ffffff" stroke="transparent" points="454,-295.0878 454,-314.0878 503,-314.0878 503,-295.0878 454,-295.0878"/>
<polygon fill="none" stroke="#000000" points="454,-295.0878 454,-314.0878 503,-314.0878 503,-295.0878 454,-295.0878"/>
<text text-anchor="start" x="478.2904" y="-301.1878" font-family="Helvetica,sans-Serif" font-size="11.00" fill="#000000">19 &gt;</text>
</a>
</g>
</g>
<!-- documents&#45;&gt;form_encounter -->
<g id="edge7" class="edge">
<title>documents:w&#45;&gt;form_encounter:e</title>
<path fill="none" stroke="#000000" d="M549.3749,-271.8682C529.8172,-284.2942 533.5193,-323.0878 503,-323.0878"/>
<polygon fill="#000000" stroke="#000000" points="555.772,-270.1561 564.4308,-271.5654 559.636,-269.122 563.5,-268.0878 563.5,-268.0878 563.5,-268.0878 559.636,-269.122 562.5692,-264.6102 555.772,-270.1561 555.772,-270.1561"/>
<ellipse fill="none" stroke="#000000" cx="552.6808" cy="-270.9835" rx="3.2" ry="3.2"/>
</g>
<!-- documents&#45;&gt;patient_data -->
<g id="edge8" class="edge">
<title>documents:w&#45;&gt;patient_data:e</title>
<path fill="none" stroke="#000000" d="M549.5548,-329.1113C538.8278,-318.6061 542.0263,-294.3704 522,-285.0878 447.8052,-250.6969 409.6082,-245.5926 338,-285.0878 308.0917,-301.5836 331.1558,-350.0878 297,-350.0878"/>
<polygon fill="#000000" stroke="#000000" points="555.9654,-331.399 562.29,-337.4784 559.7327,-332.7434 563.5,-334.0878 563.5,-334.0878 563.5,-334.0878 559.7327,-332.7434 564.71,-330.6972 555.9654,-331.399 555.9654,-331.399"/>
<ellipse fill="none" stroke="#000000" cx="552.9515" cy="-330.3235" rx="3.2" ry="3.2"/>
</g>
<!-- lists -->
<g id="node9" class="node">
<title>lists</title>
<g id="a_node9"><a xlink:href="../../tables/lists.html" xlink:title="lists" target="_top">
<polygon fill="#ffffff" stroke="transparent" points="396.5,-405.5878 396.5,-466.5878 463.5,-466.5878 463.5,-405.5878 396.5,-405.5878"/>
<polygon fill="#f5f5f5" stroke="transparent" points="397,-443.0878 397,-466.0878 464,-466.0878 464,-443.0878 397,-443.0878"/>
<polygon fill="none" stroke="#000000" points="397,-443.0878 397,-466.0878 464,-466.0878 464,-443.0878 397,-443.0878"/>
<text text-anchor="start" x="402" y="-451.6878" font-family="Helvetica,sans-Serif" font-weight="bold" font-size="11.00" fill="#000000">lists</text>
<text text-anchor="start" x="429.5219" y="-451.1878" font-family="Helvetica,sans-Serif" font-size="11.00" fill="#000000">[table]</text>
<polygon fill="none" stroke="#000000" points="397,-424.0878 397,-443.0878 464,-443.0878 464,-424.0878 397,-424.0878"/>
<text text-anchor="start" x="400" y="-430.1878" font-family="Helvetica,sans-Serif" font-size="11.00" fill="#000000">...</text>
<polygon fill="#ffffff" stroke="transparent" points="397,-405.0878 397,-424.0878 427,-424.0878 427,-405.0878 397,-405.0878"/>
<polygon fill="none" stroke="#000000" points="397,-405.0878 397,-424.0878 427,-424.0878 427,-405.0878 397,-405.0878"/>
<text text-anchor="start" x="400" y="-411.1878" font-family="Helvetica,sans-Serif" font-size="11.00" fill="#000000">&lt; 11</text>
<polygon fill="#ffffff" stroke="transparent" points="427,-405.0878 427,-424.0878 441,-424.0878 441,-405.0878 427,-405.0878"/>
<polygon fill="none" stroke="#000000" points="427,-405.0878 427,-424.0878 441,-424.0878 441,-405.0878 427,-405.0878"/>
<text text-anchor="start" x="431.8862" y="-411.1878" font-family="Helvetica,sans-Serif" font-size="11.00" fill="#000000"> &#160;</text>
<polygon fill="#ffffff" stroke="transparent" points="441,-405.0878 441,-424.0878 464,-424.0878 464,-405.0878 441,-405.0878"/>
<polygon fill="none" stroke="#000000" points="441,-405.0878 441,-424.0878 464,-424.0878 464,-405.0878 441,-405.0878"/>
<text text-anchor="start" x="445.4053" y="-411.1878" font-family="Helvetica,sans-Serif" font-size="11.00" fill="#000000">5 &gt;</text>
</a>
</g>
</g>
<!-- documents&#45;&gt;lists -->
<g id="edge9" class="edge">
<title>documents:w&#45;&gt;lists:e</title>
<path fill="none" stroke="#000000" d="M549.1171,-315.6321C535.1693,-324.4769 537.4138,-348.17 522,-367.0878 497.3335,-397.3616 503.0505,-433.0878 464,-433.0878"/>
<polygon fill="#000000" stroke="#000000" points="555.7324,-314.002 564.3614,-315.5832 559.6162,-313.0449 563.5,-312.0878 563.5,-312.0878 563.5,-312.0878 559.6162,-313.0449 562.6386,-308.5924 555.7324,-314.002 555.7324,-314.002"/>
<ellipse fill="none" stroke="#000000" cx="552.6253" cy="-314.7677" rx="3.2" ry="3.2"/>
</g>
<!-- clinical_notes_procedure_results -->
<g id="node5" class="node">
<title>clinical_notes_procedure_results</title>
<g id="a_node5"><a xlink:href="../../tables/clinical_notes_procedure_results.html" xlink:title="clinical_notes_procedure_results" target="_top">
<polygon fill="#ffffff" stroke="transparent" points="1371,-389.0878 1371,-541.0878 1629,-541.0878 1629,-389.0878 1371,-389.0878"/>
<polygon fill="#f5f5f5" stroke="transparent" points="1371,-518.0878 1371,-541.0878 1629,-541.0878 1629,-518.0878 1371,-518.0878"/>
<polygon fill="none" stroke="#000000" points="1371,-518.0878 1371,-541.0878 1629,-541.0878 1629,-518.0878 1371,-518.0878"/>
<text text-anchor="start" x="1376" y="-526.6878" font-family="Helvetica,sans-Serif" font-weight="bold" font-size="11.00" fill="#000000">clinical_notes_procedure_results</text>
<text text-anchor="start" x="1594.5219" y="-526.1878" font-family="Helvetica,sans-Serif" font-size="11.00" fill="#000000">[table]</text>
<polygon fill="none" stroke="#000000" points="1371,-496.0878 1371,-518.0878 1629,-518.0878 1629,-496.0878 1371,-496.0878"/>
<image xlink:href="../../images/primaryKeys.png" width="11px" height="12px" preserveAspectRatio="xMinYMin meet" x="1376" y="-513.088"/>
<text text-anchor="start" x="1400" y="-503.1878" font-family="Helvetica,sans-Serif" font-size="11.00" fill="#000000">id</text>
<polygon fill="#ffffff" stroke="transparent" points="1371,-474.0878 1371,-496.0878 1629,-496.0878 1629,-474.0878 1371,-474.0878"/>
<polygon fill="none" stroke="#000000" points="1371,-474.0878 1371,-496.0878 1629,-496.0878 1629,-474.0878 1371,-474.0878"/>
<image xlink:href="../../images/foreignKeys.png" width="11px" height="12px" preserveAspectRatio="xMinYMin meet" x="1376" y="-491.088"/>
<text text-anchor="start" x="1400" y="-481.1878" font-family="Helvetica,sans-Serif" font-size="11.00" fill="#000000">clinical_note_id</text>
<polygon fill="#ffffff" stroke="transparent" points="1371,-452.0878 1371,-474.0878 1629,-474.0878 1629,-452.0878 1371,-452.0878"/>
<polygon fill="none" stroke="#000000" points="1371,-452.0878 1371,-474.0878 1629,-474.0878 1629,-452.0878 1371,-452.0878"/>
<image xlink:href="../../images/foreignKeys.png" width="11px" height="12px" preserveAspectRatio="xMinYMin meet" x="1376" y="-469.088"/>
<text text-anchor="start" x="1400" y="-459.1878" font-family="Helvetica,sans-Serif" font-size="11.00" fill="#000000">procedure_result_id</text>
<polygon fill="#ffffff" stroke="transparent" points="1371,-430.0878 1371,-452.0878 1629,-452.0878 1629,-430.0878 1371,-430.0878"/>
<polygon fill="none" stroke="#000000" points="1371,-430.0878 1371,-452.0878 1629,-452.0878 1629,-430.0878 1371,-430.0878"/>
<text text-anchor="start" x="1400" y="-437.1878" font-family="Helvetica,sans-Serif" font-size="11.00" fill="#000000">created_at</text>
<polygon fill="none" stroke="#000000" points="1371,-408.0878 1371,-430.0878 1629,-430.0878 1629,-408.0878 1371,-408.0878"/>
<image xlink:href="../../images/foreignKeys.png" width="11px" height="12px" preserveAspectRatio="xMinYMin meet" x="1376" y="-425.088"/>
<text text-anchor="start" x="1400" y="-415.1878" font-family="Helvetica,sans-Serif" font-size="11.00" fill="#000000">created_by</text>
<polygon fill="#ffffff" stroke="transparent" points="1371,-389.0878 1371,-408.0878 1498,-408.0878 1498,-389.0878 1371,-389.0878"/>
<polygon fill="none" stroke="#000000" points="1371,-389.0878 1371,-408.0878 1498,-408.0878 1498,-389.0878 1371,-389.0878"/>
<text text-anchor="start" x="1374" y="-395.1878" font-family="Helvetica,sans-Serif" font-size="11.00" fill="#000000">&lt; 3</text>
<polygon fill="#ffffff" stroke="transparent" points="1498,-389.0878 1498,-408.0878 1563,-408.0878 1563,-389.0878 1498,-389.0878"/>
<polygon fill="none" stroke="#000000" points="1498,-389.0878 1498,-408.0878 1563,-408.0878 1563,-389.0878 1498,-389.0878"/>
<text text-anchor="start" x="1553.8862" y="-395.1878" font-family="Helvetica,sans-Serif" font-size="11.00" fill="#000000"> &#160;</text>
<polygon fill="#ffffff" stroke="transparent" points="1563,-389.0878 1563,-408.0878 1629,-408.0878 1629,-389.0878 1563,-389.0878"/>
<polygon fill="none" stroke="#000000" points="1563,-389.0878 1563,-408.0878 1629,-408.0878 1629,-389.0878 1563,-389.0878"/>
<text text-anchor="start" x="1619.8862" y="-395.1878" font-family="Helvetica,sans-Serif" font-size="11.00" fill="#000000"> &#160;</text>
</a>
</g>
</g>
<!-- clinical_notes_procedure_results&#45;&gt;form_clinical_notes -->
<g id="edge4" class="edge">
<title>clinical_notes_procedure_results:w&#45;&gt;form_clinical_notes:e</title>
<path fill="none" stroke="#000000" d="M1357.0072,-489.1073C1348.3735,-495.0544 1344.5955,-505.9406 1330,-510.0878 1155.5681,-559.6511 695.3367,-515.0878 514,-515.0878"/>
<polygon fill="#000000" stroke="#000000" points="1363.3109,-487.2966 1371.9939,-488.5479 1367.1555,-486.1922 1371,-485.0878 1371,-485.0878 1371,-485.0878 1367.1555,-486.1922 1370.0061,-481.6277 1363.3109,-487.2966 1363.3109,-487.2966"/>
<ellipse fill="none" stroke="#000000" cx="1360.2353" cy="-488.1801" rx="3.2" ry="3.2"/>
</g>
<!-- clinical_notes_procedure_results&#45;&gt;users -->
<g id="edge5" class="edge">
<title>clinical_notes_procedure_results:w&#45;&gt;users:e</title>
<path fill="none" stroke="#000000" d="M1357.1284,-414.6801C1309.4701,-378.8916 1380.3667,-136.0834 1330,-90.0878 1201.9357,26.8624 1113.4296,-77.0878 940,-77.0878 940,-77.0878 940,-77.0878 430,-77.0878 311.6993,-77.0878 258.9348,-30.1759 165,-102.0878 103.5805,-149.1075 181.3512,-265.0878 104,-265.0878"/>
<polygon fill="#000000" stroke="#000000" points="1363.3756,-416.6651 1369.9098,-422.5188 1367.1878,-417.8764 1371,-419.0878 1371,-419.0878 1371,-419.0878 1367.1878,-417.8764 1372.0902,-415.6568 1363.3756,-416.6651 1363.3756,-416.6651"/>
<ellipse fill="none" stroke="#000000" cx="1360.3259" cy="-415.696" rx="3.2" ry="3.2"/>
</g>
<!-- procedure_result -->
<g id="node6" class="node">
<title>procedure_result</title>
<g id="a_node6"><a xlink:href="../../tables/procedure_result.html" xlink:title="procedure_result" target="_top">
<polygon fill="#ffffff" stroke="transparent" points="1094,-101.0878 1094,-499.0878 1322,-499.0878 1322,-101.0878 1094,-101.0878"/>
<polygon fill="#f5f5f5" stroke="transparent" points="1096,-474.0878 1096,-497.0878 1320,-497.0878 1320,-474.0878 1096,-474.0878"/>
<polygon fill="none" stroke="#000000" points="1096,-474.0878 1096,-497.0878 1320,-497.0878 1320,-474.0878 1096,-474.0878"/>
<text text-anchor="start" x="1101" y="-482.6878" font-family="Helvetica,sans-Serif" font-weight="bold" font-size="11.00" fill="#000000">procedure_result</text>
<text text-anchor="start" x="1285.0437" y="-482.1878" font-family="Helvetica,sans-Serif" font-size="11.00" fill="#000000">[table]</text>
<polygon fill="none" stroke="#000000" points="1096,-452.0878 1096,-474.0878 1253,-474.0878 1253,-452.0878 1096,-452.0878"/>
<image xlink:href="../../images/primaryKeys.png" width="11px" height="12px" preserveAspectRatio="xMinYMin meet" x="1101" y="-469.088"/>
<text text-anchor="start" x="1116" y="-459.1878" font-family="Helvetica,sans-Serif" font-size="11.00" fill="#000000">procedure_result_id</text>
<polygon fill="none" stroke="#000000" points="1253,-452.0878 1253,-474.0878 1320,-474.0878 1320,-452.0878 1253,-452.0878"/>
<text text-anchor="start" x="1256" y="-459.7878" font-family="Helvetica,sans-Serif" font-size="11.00" fill="#000000">bigint[19]</text>
<polygon fill="#ffffff" stroke="transparent" points="1096,-430.0878 1096,-452.0878 1253,-452.0878 1253,-430.0878 1096,-430.0878"/>
<polygon fill="none" stroke="#000000" points="1096,-430.0878 1096,-452.0878 1253,-452.0878 1253,-430.0878 1096,-430.0878"/>
<text text-anchor="start" x="1116" y="-437.1878" font-family="Helvetica,sans-Serif" font-size="11.00" fill="#000000">uuid</text>
<polygon fill="none" stroke="#000000" points="1253,-430.0878 1253,-452.0878 1320,-452.0878 1320,-430.0878 1253,-430.0878"/>
<text text-anchor="start" x="1256" y="-437.7878" font-family="Helvetica,sans-Serif" font-size="11.00" fill="#000000">binary[16]</text>
<polygon fill="#ffffff" stroke="transparent" points="1096,-408.0878 1096,-430.0878 1253,-430.0878 1253,-408.0878 1096,-408.0878"/>
<polygon fill="none" stroke="#000000" points="1096,-408.0878 1096,-430.0878 1253,-430.0878 1253,-408.0878 1096,-408.0878"/>
<image xlink:href="../../images/foreignKeys.png" width="11px" height="12px" preserveAspectRatio="xMinYMin meet" x="1101" y="-425.088"/>
<text text-anchor="start" x="1116" y="-415.1878" font-family="Helvetica,sans-Serif" font-size="11.00" fill="#000000">procedure_report_id</text>
<polygon fill="none" stroke="#000000" points="1253,-408.0878 1253,-430.0878 1320,-430.0878 1320,-408.0878 1253,-408.0878"/>
<text text-anchor="start" x="1256" y="-415.7878" font-family="Helvetica,sans-Serif" font-size="11.00" fill="#000000">bigint[19]</text>
<polygon fill="none" stroke="#000000" points="1096,-386.0878 1096,-408.0878 1253,-408.0878 1253,-386.0878 1096,-386.0878"/>
<text text-anchor="start" x="1116" y="-393.1878" font-family="Helvetica,sans-Serif" font-size="11.00" fill="#000000">result_data_type</text>
<polygon fill="none" stroke="#000000" points="1253,-386.0878 1253,-408.0878 1320,-408.0878 1320,-386.0878 1253,-386.0878"/>
<text text-anchor="start" x="1256" y="-393.7878" font-family="Helvetica,sans-Serif" font-size="11.00" fill="#000000">char[1]</text>
<polygon fill="none" stroke="#000000" points="1096,-364.0878 1096,-386.0878 1253,-386.0878 1253,-364.0878 1096,-364.0878"/>
<text text-anchor="start" x="1116" y="-371.1878" font-family="Helvetica,sans-Serif" font-size="11.00" fill="#000000">result_code</text>
<polygon fill="none" stroke="#000000" points="1253,-364.0878 1253,-386.0878 1320,-386.0878 1320,-364.0878 1253,-364.0878"/>
<text text-anchor="start" x="1256" y="-371.7878" font-family="Helvetica,sans-Serif" font-size="11.00" fill="#000000">varchar[31]</text>
<polygon fill="none" stroke="#000000" points="1096,-342.0878 1096,-364.0878 1253,-364.0878 1253,-342.0878 1096,-342.0878"/>
<text text-anchor="start" x="1116" y="-349.1878" font-family="Helvetica,sans-Serif" font-size="11.00" fill="#000000">result_text</text>
<polygon fill="none" stroke="#000000" points="1253,-342.0878 1253,-364.0878 1320,-364.0878 1320,-342.0878 1253,-342.0878"/>
<text text-anchor="start" x="1255.9365" y="-349.7878" font-family="Helvetica,sans-Serif" font-size="11.00" fill="#000000">varchar[255]</text>
<polygon fill="none" stroke="#000000" points="1096,-320.0878 1096,-342.0878 1253,-342.0878 1253,-320.0878 1096,-320.0878"/>
<text text-anchor="start" x="1116" y="-327.1878" font-family="Helvetica,sans-Serif" font-size="11.00" fill="#000000">date</text>
<polygon fill="none" stroke="#000000" points="1253,-320.0878 1253,-342.0878 1320,-342.0878 1320,-320.0878 1253,-320.0878"/>
<text text-anchor="start" x="1256" y="-327.7878" font-family="Helvetica,sans-Serif" font-size="11.00" fill="#000000">datetime[19]</text>
<polygon fill="none" stroke="#000000" points="1096,-298.0878 1096,-320.0878 1253,-320.0878 1253,-298.0878 1096,-298.0878"/>
<text text-anchor="start" x="1116" y="-305.1878" font-family="Helvetica,sans-Serif" font-size="11.00" fill="#000000">facility</text>
<polygon fill="none" stroke="#000000" points="1253,-298.0878 1253,-320.0878 1320,-320.0878 1320,-298.0878 1253,-298.0878"/>
<text text-anchor="start" x="1255.9365" y="-305.7878" font-family="Helvetica,sans-Serif" font-size="11.00" fill="#000000">varchar[255]</text>
<polygon fill="none" stroke="#000000" points="1096,-276.0878 1096,-298.0878 1253,-298.0878 1253,-276.0878 1096,-276.0878"/>
<text text-anchor="start" x="1116" y="-283.1878" font-family="Helvetica,sans-Serif" font-size="11.00" fill="#000000">units</text>
<polygon fill="none" stroke="#000000" points="1253,-276.0878 1253,-298.0878 1320,-298.0878 1320,-276.0878 1253,-276.0878"/>
<text text-anchor="start" x="1256" y="-283.7878" font-family="Helvetica,sans-Serif" font-size="11.00" fill="#000000">varchar[31]</text>
<polygon fill="none" stroke="#000000" points="1096,-254.0878 1096,-276.0878 1253,-276.0878 1253,-254.0878 1096,-254.0878"/>
<text text-anchor="start" x="1116" y="-261.1878" font-family="Helvetica,sans-Serif" font-size="11.00" fill="#000000">result</text>
<polygon fill="none" stroke="#000000" points="1253,-254.0878 1253,-276.0878 1320,-276.0878 1320,-254.0878 1253,-254.0878"/>
<text text-anchor="start" x="1255.9365" y="-261.7878" font-family="Helvetica,sans-Serif" font-size="11.00" fill="#000000">varchar[255]</text>
<polygon fill="none" stroke="#000000" points="1096,-232.0878 1096,-254.0878 1253,-254.0878 1253,-232.0878 1096,-232.0878"/>
<text text-anchor="start" x="1116" y="-239.1878" font-family="Helvetica,sans-Serif" font-size="11.00" fill="#000000">range</text>
<polygon fill="none" stroke="#000000" points="1253,-232.0878 1253,-254.0878 1320,-254.0878 1320,-232.0878 1253,-232.0878"/>
<text text-anchor="start" x="1255.9365" y="-239.7878" font-family="Helvetica,sans-Serif" font-size="11.00" fill="#000000">varchar[255]</text>
<polygon fill="none" stroke="#000000" points="1096,-210.0878 1096,-232.0878 1253,-232.0878 1253,-210.0878 1096,-210.0878"/>
<text text-anchor="start" x="1116" y="-217.1878" font-family="Helvetica,sans-Serif" font-size="11.00" fill="#000000">abnormal</text>
<polygon fill="none" stroke="#000000" points="1253,-210.0878 1253,-232.0878 1320,-232.0878 1320,-210.0878 1253,-210.0878"/>
<text text-anchor="start" x="1256" y="-217.7878" font-family="Helvetica,sans-Serif" font-size="11.00" fill="#000000">varchar[31]</text>
<polygon fill="none" stroke="#000000" points="1096,-188.0878 1096,-210.0878 1253,-210.0878 1253,-188.0878 1096,-188.0878"/>
<text text-anchor="start" x="1116" y="-195.1878" font-family="Helvetica,sans-Serif" font-size="11.00" fill="#000000">comments</text>
<polygon fill="none" stroke="#000000" points="1253,-188.0878 1253,-210.0878 1320,-210.0878 1320,-188.0878 1253,-188.0878"/>
<text text-anchor="start" x="1256" y="-195.7878" font-family="Helvetica,sans-Serif" font-size="11.00" fill="#000000">text[65535]</text>
<polygon fill="none" stroke="#000000" points="1096,-166.0878 1096,-188.0878 1253,-188.0878 1253,-166.0878 1096,-166.0878"/>
<image xlink:href="../../images/foreignKeys.png" width="11px" height="12px" preserveAspectRatio="xMinYMin meet" x="1101" y="-183.088"/>
<text text-anchor="start" x="1116" y="-173.1878" font-family="Helvetica,sans-Serif" font-size="11.00" fill="#000000">document_id</text>
<polygon fill="none" stroke="#000000" points="1253,-166.0878 1253,-188.0878 1320,-188.0878 1320,-166.0878 1253,-166.0878"/>
<text text-anchor="start" x="1256" y="-173.7878" font-family="Helvetica,sans-Serif" font-size="11.00" fill="#000000">bigint[19]</text>
<polygon fill="none" stroke="#000000" points="1096,-144.0878 1096,-166.0878 1253,-166.0878 1253,-144.0878 1096,-144.0878"/>
<text text-anchor="start" x="1116" y="-151.1878" font-family="Helvetica,sans-Serif" font-size="11.00" fill="#000000">result_status</text>
<polygon fill="none" stroke="#000000" points="1253,-144.0878 1253,-166.0878 1320,-166.0878 1320,-144.0878 1253,-144.0878"/>
<text text-anchor="start" x="1256" y="-151.7878" font-family="Helvetica,sans-Serif" font-size="11.00" fill="#000000">varchar[31]</text>
<polygon fill="none" stroke="#000000" points="1096,-122.0878 1096,-144.0878 1253,-144.0878 1253,-122.0878 1096,-122.0878"/>
<text text-anchor="start" x="1116" y="-129.1878" font-family="Helvetica,sans-Serif" font-size="11.00" fill="#000000">date_end</text>
<polygon fill="none" stroke="#000000" points="1253,-122.0878 1253,-144.0878 1320,-144.0878 1320,-122.0878 1253,-122.0878"/>
<text text-anchor="start" x="1256" y="-129.7878" font-family="Helvetica,sans-Serif" font-size="11.00" fill="#000000">datetime[19]</text>
<polygon fill="#ffffff" stroke="transparent" points="1096,-103.0878 1096,-122.0878 1179,-122.0878 1179,-103.0878 1096,-103.0878"/>
<polygon fill="none" stroke="#000000" points="1096,-103.0878 1096,-122.0878 1179,-122.0878 1179,-103.0878 1096,-103.0878"/>
<text text-anchor="start" x="1099" y="-109.1878" font-family="Helvetica,sans-Serif" font-size="11.00" fill="#000000">&lt; 2</text>
<polygon fill="#ffffff" stroke="transparent" points="1179,-103.0878 1179,-122.0878 1253,-122.0878 1253,-103.0878 1179,-103.0878"/>
<polygon fill="none" stroke="#000000" points="1179,-103.0878 1179,-122.0878 1253,-122.0878 1253,-103.0878 1179,-103.0878"/>
<text text-anchor="start" x="1243.8862" y="-109.1878" font-family="Helvetica,sans-Serif" font-size="11.00" fill="#000000"> &#160;</text>
<polygon fill="#ffffff" stroke="transparent" points="1253,-103.0878 1253,-122.0878 1320,-122.0878 1320,-103.0878 1253,-103.0878"/>
<polygon fill="none" stroke="#000000" points="1253,-103.0878 1253,-122.0878 1320,-122.0878 1320,-103.0878 1253,-103.0878"/>
<text text-anchor="start" x="1301.4053" y="-109.1878" font-family="Helvetica,sans-Serif" font-size="11.00" fill="#000000">1 &gt;</text>
<polygon fill="none" stroke="#000000" stroke-width="2" points="1095,-102.0878 1095,-498.0878 1321,-498.0878 1321,-102.0878 1095,-102.0878"/>
</a>
</g>
</g>
<!-- clinical_notes_procedure_results&#45;&gt;procedure_result -->
<g id="edge6" class="edge">
<title>clinical_notes_procedure_results:w&#45;&gt;procedure_result:e</title>
<path fill="none" stroke="#000000" d="M1356.276,-463.0878C1344.2815,-463.0878 1336.8229,-463.0878 1320,-463.0878"/>
<polygon fill="#000000" stroke="#000000" points="1363,-463.0878 1371,-466.6878 1367,-463.0878 1371,-463.0878 1371,-463.0878 1371,-463.0878 1367,-463.0878 1371,-459.4878 1363,-463.0878 1363,-463.0878"/>
<ellipse fill="none" stroke="#000000" cx="1359.8" cy="-463.0879" rx="3.2" ry="3.2"/>
</g>
<!-- procedure_result&#45;&gt;documents -->
<g id="edge51" class="edge">
<title>procedure_result:w&#45;&gt;documents:e</title>
<path fill="none" stroke="#000000" d="M1081.6637,-178.5644C1018.3372,-193.5903 1116.0106,-319.4213 1053,-377.0878 1015.6679,-411.2536 875.9009,-392.0612 827,-405.0878 808.1364,-410.1128 806.0214,-422.0878 786.5,-422.0878"/>
<polygon fill="#000000" stroke="#000000" points="1088.0421,-177.9075 1096.3689,-180.6689 1092.021,-177.4976 1096,-177.0878 1096,-177.0878 1096,-177.0878 1092.021,-177.4976 1095.6311,-173.5067 1088.0421,-177.9075 1088.0421,-177.9075"/>
<ellipse fill="none" stroke="#000000" cx="1084.8589" cy="-178.2353" rx="3.2" ry="3.2"/>
</g>
<!-- procedure_report -->
<g id="node14" class="node">
<title>procedure_report</title>
<g id="a_node14"><a xlink:href="../../tables/procedure_report.html" xlink:title="procedure_report" target="_top">
<polygon fill="#ffffff" stroke="transparent" points="859,-547.5878 859,-718.5878 1021,-718.5878 1021,-547.5878 859,-547.5878"/>
<polygon fill="#f5f5f5" stroke="transparent" points="859,-695.0878 859,-718.0878 1021,-718.0878 1021,-695.0878 859,-695.0878"/>
<polygon fill="none" stroke="#000000" points="859,-695.0878 859,-718.0878 1021,-718.0878 1021,-695.0878 859,-695.0878"/>
<text text-anchor="start" x="864" y="-703.6878" font-family="Helvetica,sans-Serif" font-weight="bold" font-size="11.00" fill="#000000">procedure_report</text>
<text text-anchor="start" x="986.0437" y="-703.1878" font-family="Helvetica,sans-Serif" font-size="11.00" fill="#000000">[table]</text>
<polygon fill="none" stroke="#000000" points="859,-673.0878 859,-695.0878 1021,-695.0878 1021,-673.0878 859,-673.0878"/>
<image xlink:href="../../images/primaryKeys.png" width="11px" height="12px" preserveAspectRatio="xMinYMin meet" x="864" y="-690.088"/>
<text text-anchor="start" x="879" y="-680.1878" font-family="Helvetica,sans-Serif" font-size="11.00" fill="#000000">procedure_report_id</text>
<polygon fill="#ffffff" stroke="transparent" points="859,-651.0878 859,-673.0878 1021,-673.0878 1021,-651.0878 859,-651.0878"/>
<polygon fill="none" stroke="#000000" points="859,-651.0878 859,-673.0878 1021,-673.0878 1021,-651.0878 859,-651.0878"/>
<text text-anchor="start" x="879" y="-658.1878" font-family="Helvetica,sans-Serif" font-size="11.00" fill="#000000">uuid</text>
<polygon fill="#ffffff" stroke="transparent" points="859,-629.0878 859,-651.0878 1021,-651.0878 1021,-629.0878 859,-629.0878"/>
<polygon fill="none" stroke="#000000" points="859,-629.0878 859,-651.0878 1021,-651.0878 1021,-629.0878 859,-629.0878"/>
<image xlink:href="../../images/foreignKeys.png" width="11px" height="12px" preserveAspectRatio="xMinYMin meet" x="864" y="-646.088"/>
<text text-anchor="start" x="879" y="-636.1878" font-family="Helvetica,sans-Serif" font-size="11.00" fill="#000000">procedure_order_id</text>
<polygon fill="none" stroke="#000000" points="859,-607.0878 859,-629.0878 1021,-629.0878 1021,-607.0878 859,-607.0878"/>
<image xlink:href="../../images/foreignKeys.png" width="11px" height="12px" preserveAspectRatio="xMinYMin meet" x="864" y="-624.088"/>
<text text-anchor="start" x="879" y="-614.1878" font-family="Helvetica,sans-Serif" font-size="11.00" fill="#000000">source</text>
<polygon fill="none" stroke="#000000" points="859,-585.0878 859,-607.0878 1021,-607.0878 1021,-585.0878 859,-585.0878"/>
<image xlink:href="../../images/foreignKeys.png" width="11px" height="12px" preserveAspectRatio="xMinYMin meet" x="864" y="-602.088"/>
<text text-anchor="start" x="879" y="-592.1878" font-family="Helvetica,sans-Serif" font-size="11.00" fill="#000000">report_status</text>
<polygon fill="none" stroke="#000000" points="859,-566.0878 859,-585.0878 1021,-585.0878 1021,-566.0878 859,-566.0878"/>
<text text-anchor="start" x="862" y="-572.1878" font-family="Helvetica,sans-Serif" font-size="11.00" fill="#000000">...</text>
<polygon fill="#ffffff" stroke="transparent" points="859,-547.0878 859,-566.0878 934,-566.0878 934,-547.0878 859,-547.0878"/>
<polygon fill="none" stroke="#000000" points="859,-547.0878 859,-566.0878 934,-566.0878 934,-547.0878 859,-547.0878"/>
<text text-anchor="start" x="862" y="-553.1878" font-family="Helvetica,sans-Serif" font-size="11.00" fill="#000000">&lt; 3</text>
<polygon fill="#ffffff" stroke="transparent" points="934,-547.0878 934,-566.0878 973,-566.0878 973,-547.0878 934,-547.0878"/>
<polygon fill="none" stroke="#000000" points="934,-547.0878 934,-566.0878 973,-566.0878 973,-547.0878 934,-547.0878"/>
<text text-anchor="start" x="963.8862" y="-553.1878" font-family="Helvetica,sans-Serif" font-size="11.00" fill="#000000"> &#160;</text>
<polygon fill="#ffffff" stroke="transparent" points="973,-547.0878 973,-566.0878 1021,-566.0878 1021,-547.0878 973,-547.0878"/>
<polygon fill="none" stroke="#000000" points="973,-547.0878 973,-566.0878 1021,-566.0878 1021,-547.0878 973,-547.0878"/>
<text text-anchor="start" x="1002.4053" y="-553.1878" font-family="Helvetica,sans-Serif" font-size="11.00" fill="#000000">1 &gt;</text>
</a>
</g>
</g>
<!-- procedure_result&#45;&gt;procedure_report -->
<g id="edge52" class="edge">
<title>procedure_result:w&#45;&gt;procedure_report:e</title>
<path fill="none" stroke="#000000" d="M1082.4898,-424.6227C1042.1435,-462.6776 1076.9424,-684.0878 1021,-684.0878"/>
<polygon fill="#000000" stroke="#000000" points="1088.5972,-422.1206 1097.3648,-422.4191 1092.2986,-420.6042 1096,-419.0878 1096,-419.0878 1096,-419.0878 1092.2986,-420.6042 1094.6352,-415.7565 1088.5972,-422.1206 1088.5972,-422.1206"/>
<ellipse fill="none" stroke="#000000" cx="1085.636" cy="-423.3338" rx="3.2" ry="3.2"/>
</g>
<!-- form_encounter&#45;&gt;patient_data -->
<g id="edge14" class="edge">
<title>form_encounter:w&#45;&gt;patient_data:e</title>
<path fill="none" stroke="#000000" d="M343.4096,-325.7754C326.6203,-332.6047 320.8575,-350.0878 297,-350.0878"/>
<polygon fill="#000000" stroke="#000000" points="350.1324,-324.5371 358.6522,-326.6282 354.0662,-323.8124 358,-323.0878 358,-323.0878 358,-323.0878 354.0662,-323.8124 357.3478,-319.5474 350.1324,-324.5371 350.1324,-324.5371"/>
<ellipse fill="none" stroke="#000000" cx="346.9853" cy="-325.1168" rx="3.2" ry="3.2"/>
</g>
<!-- patient_data&#45;&gt;users -->
<g id="edge27" class="edge">
<title>patient_data:w&#45;&gt;users:e</title>
<path fill="none" stroke="#000000" d="M161.2177,-341.3597C128.9747,-309.1259 148.0963,-241.5253 104,-265.0878"/>
<polygon fill="#000000" stroke="#000000" points="166.5716,-345.3258 170.8571,-352.9806 169.7858,-347.7068 173,-350.0878 173,-350.0878 173,-350.0878 169.7858,-347.7068 175.1429,-347.195 166.5716,-345.3258 166.5716,-345.3258"/>
<ellipse fill="none" stroke="#000000" cx="164.0003" cy="-343.421" rx="3.2" ry="3.2"/>
</g>
<!-- patient_data&#45;&gt;users -->
<g id="edge28" class="edge">
<title>patient_data:w&#45;&gt;users:e</title>
<path fill="none" stroke="#000000" d="M159.9924,-343.7712C129.4586,-320.2482 147.5261,-253.4589 104,-265.0878"/>
<polygon fill="#000000" stroke="#000000" points="165.8036,-346.5932 171.4274,-353.3262 169.4018,-348.3405 173,-350.0878 173,-350.0878 173,-350.0878 169.4018,-348.3405 174.5726,-346.8494 165.8036,-346.5932 165.8036,-346.5932"/>
<ellipse fill="none" stroke="#000000" cx="162.9251" cy="-345.1953" rx="3.2" ry="3.2"/>
</g>
<!-- patient_data&#45;&gt;users -->
<g id="edge30" class="edge">
<title>patient_data:w&#45;&gt;users:e</title>
<path fill="none" stroke="#000000" d="M158.8171,-346.8595C129.9215,-331.3332 146.9559,-265.0878 104,-265.0878"/>
<polygon fill="#000000" stroke="#000000" points="165.1995,-348.3122 172.201,-353.598 169.0998,-349.2 173,-350.0878 173,-350.0878 173,-350.0878 169.0998,-349.2 173.799,-346.5776 165.1995,-348.3122 165.1995,-348.3122"/>
<ellipse fill="none" stroke="#000000" cx="162.0793" cy="-347.602" rx="3.2" ry="3.2"/>
</g>
<!-- patient_data&#45;&gt;users -->
<g id="edge31" class="edge">
<title>patient_data:w&#45;&gt;users:e</title>
<path fill="none" stroke="#000000" d="M158.4363,-350.8012C130.071,-343.5576 146.7659,-276.5136 104,-265.0878"/>
<polygon fill="#000000" stroke="#000000" points="165.0096,-350.4793 173.1762,-353.6835 169.0048,-350.2835 173,-350.0878 173,-350.0878 173,-350.0878 169.0048,-350.2835 172.8238,-346.4921 165.0096,-350.4793 165.0096,-350.4793"/>
<ellipse fill="none" stroke="#000000" cx="161.8134" cy="-350.6358" rx="3.2" ry="3.2"/>
</g>
<!-- patient_data&#45;&gt;users -->
<g id="edge34" class="edge">
<title>patient_data:w&#45;&gt;users:e</title>
<path fill="none" stroke="#000000" d="M159.2034,-354.8976C129.7695,-357.5871 147.146,-288.1425 104,-265.0878"/>
<polygon fill="#000000" stroke="#000000" points="165.4459,-352.7214 174.1851,-353.4871 169.2229,-351.4046 173,-350.0878 173,-350.0878 173,-350.0878 169.2229,-351.4046 171.8149,-346.6884 165.4459,-352.7214 165.4459,-352.7214"/>
<ellipse fill="none" stroke="#000000" cx="162.4242" cy="-353.7748" rx="3.2" ry="3.2"/>
</g>
<!-- patient_data&#45;&gt;list_options -->
<g id="edge29" class="edge">
<title>patient_data:w&#45;&gt;list_options:e</title>
<path fill="none" stroke="#000000" d="M158.5011,-350.0696C111.2974,-361.3426 194.6716,-503.078 124,-515.0878"/>
<polygon fill="#000000" stroke="#000000" points="165,-350.0777 172.9955,-353.6878 169,-350.0827 173,-350.0878 173,-350.0878 173,-350.0878 169,-350.0827 173.0045,-346.4878 165,-350.0777 165,-350.0777"/>
<ellipse fill="none" stroke="#000000" cx="161.8" cy="-350.0737" rx="3.2" ry="3.2"/>
</g>
<!-- patient_data&#45;&gt;list_options -->
<g id="edge32" class="edge">
<title>patient_data:w&#45;&gt;list_options:e</title>
<path fill="none" stroke="#000000" d="M158.8023,-352.6796C110.9442,-373.6711 194.8211,-515.0878 124,-515.0878"/>
<polygon fill="#000000" stroke="#000000" points="165.1301,-351.5245 173.6465,-353.6293 169.065,-350.8061 173,-350.0878 173,-350.0878 173,-350.0878 169.065,-350.8061 172.3535,-346.5463 165.1301,-351.5245 165.1301,-351.5245"/>
<ellipse fill="none" stroke="#000000" cx="161.9821" cy="-352.0991" rx="3.2" ry="3.2"/>
</g>
<!-- patient_data&#45;&gt;list_options -->
<g id="edge33" class="edge">
<title>patient_data:w&#45;&gt;list_options:e</title>
<path fill="none" stroke="#000000" d="M159.4151,-354.9697C110.2336,-385.4109 195.1199,-527.1737 124,-515.0878"/>
<polygon fill="#000000" stroke="#000000" points="165.4714,-352.7933 174.2175,-353.4757 169.2357,-351.4406 173,-350.0878 173,-350.0878 173,-350.0878 169.2357,-351.4406 171.7825,-346.6999 165.4714,-352.7933 165.4714,-352.7933"/>
<ellipse fill="none" stroke="#000000" cx="162.4599" cy="-353.8755" rx="3.2" ry="3.2"/>
</g>
<!-- lists&#45;&gt;users -->
<g id="edge22" class="edge">
<title>lists:w&#45;&gt;users:e</title>
<path fill="none" stroke="#000000" d="M382.4251,-431.0485C358.1547,-423.2216 357.9639,-394.1866 338,-367.0878 321.0918,-344.1367 328.1323,-328.7473 305,-312.0878 253.286,-274.8441 226.9447,-296.0639 165,-281.0878 137.7567,-274.5013 132.0282,-265.0878 104,-265.0878"/>
<polygon fill="#000000" stroke="#000000" points="389.0772,-431.9792 396.5011,-436.6531 393.0386,-432.5335 397,-433.0878 397,-433.0878 397,-433.0878 393.0386,-432.5335 397.4989,-429.5225 389.0772,-431.9792 389.0772,-431.9792"/>
<ellipse fill="none" stroke="#000000" cx="385.9081" cy="-431.5357" rx="3.2" ry="3.2"/>
</g>
<!-- lists&#45;&gt;patient_data -->
<g id="edge18" class="edge">
<title>lists:w&#45;&gt;patient_data:e</title>
<path fill="none" stroke="#000000" d="M382.5184,-431.2388C363.336,-425.6429 358.2565,-408.2197 338,-391.0878 318.3235,-374.4464 322.7701,-350.0878 297,-350.0878"/>
<polygon fill="#000000" stroke="#000000" points="389.0644,-432.0746 396.544,-436.6588 393.0322,-432.5812 397,-433.0878 397,-433.0878 397,-433.0878 393.0322,-432.5812 397.456,-429.5168 389.0644,-432.0746 389.0644,-432.0746"/>
<ellipse fill="none" stroke="#000000" cx="385.8902" cy="-431.6693" rx="3.2" ry="3.2"/>
</g>
<!-- lists&#45;&gt;list_options -->
<g id="edge15" class="edge">
<title>lists:w&#45;&gt;list_options:e</title>
<path fill="none" stroke="#000000" d="M382.2837,-433.4716C268.5685,-439.5227 245.616,-515.0878 124,-515.0878"/>
<polygon fill="#000000" stroke="#000000" points="389.0027,-433.2964 397.0939,-436.6866 393.0014,-433.1921 397,-433.0878 397,-433.0878 397,-433.0878 393.0014,-433.1921 396.9061,-429.489 389.0027,-433.2964 389.0027,-433.2964"/>
<ellipse fill="none" stroke="#000000" cx="385.8038" cy="-433.3799" rx="3.2" ry="3.2"/>
</g>
<!-- lists&#45;&gt;list_options -->
<g id="edge16" class="edge">
<title>lists:w&#45;&gt;list_options:e</title>
<path fill="none" stroke="#000000" d="M382.631,-429.8499C268.6151,-407.4178 245.7397,-484.3378 124,-515.0878"/>
<polygon fill="#000000" stroke="#000000" points="389.1957,-431.3291 396.2086,-436.5997 393.0978,-432.2085 397,-433.0878 397,-433.0878 397,-433.0878 393.0978,-432.2085 397.7914,-429.5759 389.1957,-431.3291 389.1957,-431.3291"/>
<ellipse fill="none" stroke="#000000" cx="386.074" cy="-430.6256" rx="3.2" ry="3.2"/>
</g>
<!-- lists&#45;&gt;list_options -->
<g id="edge17" class="edge">
<title>lists:w&#45;&gt;list_options:e</title>
<path fill="none" stroke="#000000" d="M382.631,-431.3138C268.6151,-420.3979 245.7397,-496.83 124,-515.0878"/>
<polygon fill="#000000" stroke="#000000" points="389.0603,-432.1075 396.5589,-436.6607 393.0301,-432.5977 397,-433.0878 397,-433.0878 397,-433.0878 393.0301,-432.5977 397.4411,-429.5149 389.0603,-432.1075 389.0603,-432.1075"/>
<ellipse fill="none" stroke="#000000" cx="385.8844" cy="-431.7154" rx="3.2" ry="3.2"/>
</g>
<!-- lists&#45;&gt;list_options -->
<g id="edge19" class="edge">
<title>lists:w&#45;&gt;list_options:e</title>
<path fill="none" stroke="#000000" d="M382.2837,-432.7798C268.5685,-433.5324 245.616,-509.328 124,-515.0878"/>
<polygon fill="#000000" stroke="#000000" points="389.0018,-432.9203 396.9246,-436.687 393.0009,-433.0041 397,-433.0878 397,-433.0878 397,-433.0878 393.0009,-433.0041 397.0754,-429.4886 389.0018,-432.9203 389.0018,-432.9203"/>
<ellipse fill="none" stroke="#000000" cx="385.8025" cy="-432.8534" rx="3.2" ry="3.2"/>
</g>
<!-- lists&#45;&gt;list_options -->
<g id="edge20" class="edge">
<title>lists:w&#45;&gt;list_options:e</title>
<path fill="none" stroke="#000000" d="M382.631,-434.2417C268.6151,-446.3582 245.7397,-521.8144 124,-515.0878"/>
<polygon fill="#000000" stroke="#000000" points="389.0257,-433.7282 397.2882,-436.6762 393.0128,-433.408 397,-433.0878 397,-433.0878 397,-433.0878 393.0128,-433.408 396.7118,-429.4993 389.0257,-433.7282 389.0257,-433.7282"/>
<ellipse fill="none" stroke="#000000" cx="385.8359" cy="-433.9844" rx="3.2" ry="3.2"/>
</g>
<!-- lists&#45;&gt;list_options -->
<g id="edge21" class="edge">
<title>lists:w&#45;&gt;list_options:e</title>
<path fill="none" stroke="#000000" d="M382.631,-435.7056C268.6151,-459.3384 245.7397,-534.3065 124,-515.0878"/>
<polygon fill="#000000" stroke="#000000" points="389.1295,-434.5217 397.6453,-436.6295 393.0648,-433.8048 397,-433.0878 397,-433.0878 397,-433.0878 393.0648,-433.8048 396.3547,-429.5461 389.1295,-434.5217 389.1295,-434.5217"/>
<ellipse fill="none" stroke="#000000" cx="385.9814" cy="-435.0953" rx="3.2" ry="3.2"/>
</g>
<!-- lists&#45;&gt;list_options -->
<g id="edge23" class="edge">
<title>lists:w&#45;&gt;list_options:e</title>
<path fill="none" stroke="#000000" d="M382.9789,-437.0625C268.6615,-472.1671 245.8634,-546.831 124,-515.0878"/>
<polygon fill="#000000" stroke="#000000" points="389.3033,-435.2697 397.9819,-436.5513 393.1516,-434.1787 397,-433.0878 397,-433.0878 397,-433.0878 393.1516,-434.1787 396.0181,-429.6243 389.3033,-435.2697 389.3033,-435.2697"/>
<ellipse fill="none" stroke="#000000" cx="386.2246" cy="-436.1425" rx="3.2" ry="3.2"/>
</g>
<!-- categories_to_documents -->
<g id="node11" class="node">
<title>categories_to_documents</title>
<g id="a_node11"><a xlink:href="../../tables/categories_to_documents.html" xlink:title="categories_to_documents" target="_top">
<polygon fill="#ffffff" stroke="transparent" points="835,-415.5878 835,-476.5878 1045,-476.5878 1045,-415.5878 835,-415.5878"/>
<polygon fill="#f5f5f5" stroke="transparent" points="835,-453.0878 835,-476.0878 1045,-476.0878 1045,-453.0878 835,-453.0878"/>
<polygon fill="none" stroke="#000000" points="835,-453.0878 835,-476.0878 1045,-476.0878 1045,-453.0878 835,-453.0878"/>
<text text-anchor="start" x="840" y="-461.6878" font-family="Helvetica,sans-Serif" font-weight="bold" font-size="11.00" fill="#000000">categories_to_documents</text>
<text text-anchor="start" x="1010.5219" y="-461.1878" font-family="Helvetica,sans-Serif" font-size="11.00" fill="#000000">[table]</text>
<polygon fill="none" stroke="#000000" points="835,-434.0878 835,-453.0878 1045,-453.0878 1045,-434.0878 835,-434.0878"/>
<text text-anchor="start" x="838" y="-440.1878" font-family="Helvetica,sans-Serif" font-size="11.00" fill="#000000">...</text>
<polygon fill="#ffffff" stroke="transparent" points="835,-415.0878 835,-434.0878 938,-434.0878 938,-415.0878 835,-415.0878"/>
<polygon fill="none" stroke="#000000" points="835,-415.0878 835,-434.0878 938,-434.0878 938,-415.0878 835,-415.0878"/>
<text text-anchor="start" x="838" y="-421.1878" font-family="Helvetica,sans-Serif" font-size="11.00" fill="#000000">&lt; 1</text>
<polygon fill="#ffffff" stroke="transparent" points="938,-415.0878 938,-434.0878 991,-434.0878 991,-415.0878 938,-415.0878"/>
<polygon fill="none" stroke="#000000" points="938,-415.0878 938,-434.0878 991,-434.0878 991,-415.0878 938,-415.0878"/>
<text text-anchor="start" x="981.8862" y="-421.1878" font-family="Helvetica,sans-Serif" font-size="11.00" fill="#000000"> &#160;</text>
<polygon fill="#ffffff" stroke="transparent" points="991,-415.0878 991,-434.0878 1045,-434.0878 1045,-415.0878 991,-415.0878"/>
<polygon fill="none" stroke="#000000" points="991,-415.0878 991,-434.0878 1045,-434.0878 1045,-415.0878 991,-415.0878"/>
<text text-anchor="start" x="1035.8862" y="-421.1878" font-family="Helvetica,sans-Serif" font-size="11.00" fill="#000000"> &#160;</text>
</a>
</g>
</g>
<!-- categories_to_documents&#45;&gt;documents -->
<g id="edge24" class="edge">
<title>categories_to_documents:w&#45;&gt;documents:e</title>
<path fill="none" stroke="#000000" d="M820.8155,-439.8065C809.377,-433.9003 804.1171,-422.0878 786.5,-422.0878"/>
<polygon fill="#000000" stroke="#000000" points="827.2058,-441.2848 834.1886,-446.5952 831.1029,-442.1863 835,-443.0878 835,-443.0878 835,-443.0878 831.1029,-442.1863 835.8114,-439.5804 827.2058,-441.2848 827.2058,-441.2848"/>
<ellipse fill="none" stroke="#000000" cx="824.0881" cy="-440.5635" rx="3.2" ry="3.2"/>
</g>
<!-- notes -->
<g id="node12" class="node">
<title>notes</title>
<g id="a_node12"><a xlink:href="../../tables/notes.html" xlink:title="notes" target="_top">
<polygon fill="#ffffff" stroke="transparent" points="902,-170.5878 902,-231.5878 978,-231.5878 978,-170.5878 902,-170.5878"/>
<polygon fill="#f5f5f5" stroke="transparent" points="902,-208.0878 902,-231.0878 978,-231.0878 978,-208.0878 902,-208.0878"/>
<polygon fill="none" stroke="#000000" points="902,-208.0878 902,-231.0878 978,-231.0878 978,-208.0878 902,-208.0878"/>
<text text-anchor="start" x="907" y="-216.6878" font-family="Helvetica,sans-Serif" font-weight="bold" font-size="11.00" fill="#000000">notes</text>
<text text-anchor="start" x="943.5219" y="-216.1878" font-family="Helvetica,sans-Serif" font-size="11.00" fill="#000000">[table]</text>
<polygon fill="none" stroke="#000000" points="902,-189.0878 902,-208.0878 978,-208.0878 978,-189.0878 902,-189.0878"/>
<text text-anchor="start" x="905" y="-195.1878" font-family="Helvetica,sans-Serif" font-size="11.00" fill="#000000">...</text>
<polygon fill="#ffffff" stroke="transparent" points="902,-170.0878 902,-189.0878 938,-189.0878 938,-170.0878 902,-170.0878"/>
<polygon fill="none" stroke="#000000" points="902,-170.0878 902,-189.0878 938,-189.0878 938,-170.0878 902,-170.0878"/>
<text text-anchor="start" x="905" y="-176.1878" font-family="Helvetica,sans-Serif" font-size="11.00" fill="#000000">&lt; 2</text>
<polygon fill="#ffffff" stroke="transparent" points="938,-170.0878 938,-189.0878 958,-189.0878 958,-170.0878 938,-170.0878"/>
<polygon fill="none" stroke="#000000" points="938,-170.0878 938,-189.0878 958,-189.0878 958,-170.0878 938,-170.0878"/>
<text text-anchor="start" x="948.8862" y="-176.1878" font-family="Helvetica,sans-Serif" font-size="11.00" fill="#000000"> &#160;</text>
<polygon fill="#ffffff" stroke="transparent" points="958,-170.0878 958,-189.0878 978,-189.0878 978,-170.0878 958,-170.0878"/>
<polygon fill="none" stroke="#000000" points="958,-170.0878 958,-189.0878 978,-189.0878 978,-170.0878 958,-170.0878"/>
<text text-anchor="start" x="968.8862" y="-176.1878" font-family="Helvetica,sans-Serif" font-size="11.00" fill="#000000"> &#160;</text>
</a>
</g>
</g>
<!-- notes&#45;&gt;users -->
<g id="edge26" class="edge">
<title>notes:w&#45;&gt;users:e</title>
<path fill="none" stroke="#000000" d="M887.5245,-196.9001C847.029,-189.7984 841.5381,-152.8629 794,-141.0878 658.3225,-107.4807 283.6636,-67.2179 165,-141.0878 112.859,-173.5464 165.4186,-265.0878 104,-265.0878"/>
<polygon fill="#000000" stroke="#000000" points="894.0268,-197.4335 901.7056,-201.6757 898.0134,-197.7607 902,-198.0878 902,-198.0878 902,-198.0878 898.0134,-197.7607 902.2944,-194.4999 894.0268,-197.4335 894.0268,-197.4335"/>
<ellipse fill="none" stroke="#000000" cx="890.8375" cy="-197.1718" rx="3.2" ry="3.2"/>
</g>
<!-- notes&#45;&gt;documents -->
<g id="edge25" class="edge">
<title>notes:w&#45;&gt;documents:e</title>
<path fill="none" stroke="#000000" d="M887.6486,-199.4367C848.1601,-207.6046 849.8571,-251.55 827,-295.0878 799.4611,-347.5434 845.745,-422.0878 786.5,-422.0878"/>
<polygon fill="#000000" stroke="#000000" points="894.0351,-198.8365 902.3369,-201.672 898.0176,-198.4621 902,-198.0878 902,-198.0878 902,-198.0878 898.0176,-198.4621 901.6631,-194.5036 894.0351,-198.8365 894.0351,-198.8365"/>
<ellipse fill="none" stroke="#000000" cx="890.8491" cy="-199.1359" rx="3.2" ry="3.2"/>
</g>
<!-- procedure_order -->
<g id="node13" class="node">
<title>procedure_order</title>
<g id="a_node13"><a xlink:href="../../tables/procedure_order.html" xlink:title="procedure_order" target="_top">
<polygon fill="#ffffff" stroke="transparent" points="599,-620.5878 599,-681.5878 750,-681.5878 750,-620.5878 599,-620.5878"/>
<polygon fill="#f5f5f5" stroke="transparent" points="599.5,-658.0878 599.5,-681.0878 750.5,-681.0878 750.5,-658.0878 599.5,-658.0878"/>
<polygon fill="none" stroke="#000000" points="599.5,-658.0878 599.5,-681.0878 750.5,-681.0878 750.5,-658.0878 599.5,-658.0878"/>
<text text-anchor="start" x="604.5" y="-666.6878" font-family="Helvetica,sans-Serif" font-weight="bold" font-size="11.00" fill="#000000">procedure_order</text>
<text text-anchor="start" x="716.0219" y="-666.1878" font-family="Helvetica,sans-Serif" font-size="11.00" fill="#000000">[table]</text>
<polygon fill="none" stroke="#000000" points="599.5,-639.0878 599.5,-658.0878 750.5,-658.0878 750.5,-639.0878 599.5,-639.0878"/>
<text text-anchor="start" x="602.5" y="-645.1878" font-family="Helvetica,sans-Serif" font-size="11.00" fill="#000000">...</text>
<polygon fill="#ffffff" stroke="transparent" points="599.5,-620.0878 599.5,-639.0878 671.5,-639.0878 671.5,-620.0878 599.5,-620.0878"/>
<polygon fill="none" stroke="#000000" points="599.5,-620.0878 599.5,-639.0878 671.5,-639.0878 671.5,-620.0878 599.5,-620.0878"/>
<text text-anchor="start" x="602.5" y="-626.1878" font-family="Helvetica,sans-Serif" font-size="11.00" fill="#000000">&lt; 16</text>
<polygon fill="#ffffff" stroke="transparent" points="671.5,-620.0878 671.5,-639.0878 706.5,-639.0878 706.5,-620.0878 671.5,-620.0878"/>
<polygon fill="none" stroke="#000000" points="671.5,-620.0878 671.5,-639.0878 706.5,-639.0878 706.5,-620.0878 671.5,-620.0878"/>
<text text-anchor="start" x="697.3862" y="-626.1878" font-family="Helvetica,sans-Serif" font-size="11.00" fill="#000000"> &#160;</text>
<polygon fill="#ffffff" stroke="transparent" points="706.5,-620.0878 706.5,-639.0878 750.5,-639.0878 750.5,-620.0878 706.5,-620.0878"/>
<polygon fill="none" stroke="#000000" points="706.5,-620.0878 706.5,-639.0878 750.5,-639.0878 750.5,-620.0878 706.5,-620.0878"/>
<text text-anchor="start" x="731.9053" y="-626.1878" font-family="Helvetica,sans-Serif" font-size="11.00" fill="#000000">5 &gt;</text>
</a>
</g>
</g>
<!-- procedure_order&#45;&gt;users -->
<g id="edge36" class="edge">
<title>procedure_order:w&#45;&gt;users:e</title>
<path fill="none" stroke="#000000" d="M584.9476,-645.8386C569.7799,-640.3564 564.4953,-625.3318 555,-606.0878 523.2697,-541.7806 574.0722,-334.3901 522,-285.0878 454.471,-221.1509 196.9952,-265.0878 104,-265.0878"/>
<polygon fill="#000000" stroke="#000000" points="591.5939,-646.8658 598.9501,-651.6456 595.5469,-647.4768 599.5,-648.0878 599.5,-648.0878 599.5,-648.0878 595.5469,-647.4768 600.0499,-644.53 591.5939,-646.8658 591.5939,-646.8658"/>
<ellipse fill="none" stroke="#000000" cx="588.4314" cy="-646.377" rx="3.2" ry="3.2"/>
</g>
<!-- procedure_order&#45;&gt;users -->
<g id="edge45" class="edge">
<title>procedure_order:w&#45;&gt;users:e</title>
<path fill="none" stroke="#000000" d="M584.9493,-645.8378C569.7851,-640.3538 564.5077,-625.3257 555,-606.0878 523.6202,-542.5937 573.2286,-337.9941 522,-289.0878 454.7018,-224.8403 197.0419,-265.0878 104,-265.0878"/>
<polygon fill="#000000" stroke="#000000" points="591.594,-646.8652 598.9498,-651.6455 595.547,-647.4765 599.5,-648.0878 599.5,-648.0878 599.5,-648.0878 595.547,-647.4765 600.0502,-644.5301 591.594,-646.8652 591.594,-646.8652"/>
<ellipse fill="none" stroke="#000000" cx="588.4315" cy="-646.3762" rx="3.2" ry="3.2"/>
</g>
<!-- procedure_order&#45;&gt;form_encounter -->
<g id="edge37" class="edge">
<title>procedure_order:w&#45;&gt;form_encounter:e</title>
<path fill="none" stroke="#000000" d="M584.995,-645.8147C569.9296,-640.2807 564.8504,-625.1525 555,-606.0878 525.6489,-549.2806 566.9417,-323.0878 503,-323.0878"/>
<polygon fill="#000000" stroke="#000000" points="591.5965,-646.8492 598.9426,-651.6444 595.5482,-647.4685 599.5,-648.0878 599.5,-648.0878 599.5,-648.0878 595.5482,-647.4685 600.0574,-644.5312 591.5965,-646.8492 591.5965,-646.8492"/>
<ellipse fill="none" stroke="#000000" cx="588.435" cy="-646.3537" rx="3.2" ry="3.2"/>
</g>
<!-- procedure_order&#45;&gt;patient_data -->
<g id="edge41" class="edge">
<title>procedure_order:w&#45;&gt;patient_data:e</title>
<path fill="none" stroke="#000000" d="M585.0149,-645.8043C569.9923,-640.248 564.999,-625.0749 555,-606.0878 510.7723,-522.1039 589.2553,-462.0662 522,-395.0878 492.6941,-365.9025 377.8386,-378.2009 338,-367.0878 318.9989,-361.7874 316.7265,-350.0878 297,-350.0878"/>
<polygon fill="#000000" stroke="#000000" points="591.5976,-646.842 598.9394,-651.6439 595.5488,-647.4649 599.5,-648.0878 599.5,-648.0878 599.5,-648.0878 595.5488,-647.4649 600.0606,-644.5317 591.5976,-646.842 591.5976,-646.842"/>
<ellipse fill="none" stroke="#000000" cx="588.4366" cy="-646.3437" rx="3.2" ry="3.2"/>
</g>
<!-- procedure_order&#45;&gt;list_options -->
<g id="edge35" class="edge">
<title>procedure_order:w&#45;&gt;list_options:e</title>
<path fill="none" stroke="#000000" d="M584.8524,-648.1685C400.2842,-650.1923 323.3037,-688.7045 165,-583.0878 135.6433,-563.5017 159.2907,-515.0878 124,-515.0878"/>
<polygon fill="#000000" stroke="#000000" points="591.5001,-648.1319 599.5199,-651.6877 595.5001,-648.1099 599.5,-648.0878 599.5,-648.0878 599.5,-648.0878 595.5001,-648.1099 599.4801,-644.4878 591.5001,-648.1319 591.5001,-648.1319"/>
<ellipse fill="none" stroke="#000000" cx="588.3002" cy="-648.1496" rx="3.2" ry="3.2"/>
</g>
<!-- procedure_order&#45;&gt;list_options -->
<g id="edge38" class="edge">
<title>procedure_order:w&#45;&gt;list_options:e</title>
<path fill="none" stroke="#000000" d="M585.3908,-644.9371C400.2379,-604.8585 324.6382,-638.5099 165,-534.0878 136.7301,-515.596 157.7807,-470.0878 124,-515.0878"/>
<polygon fill="#000000" stroke="#000000" points="591.6923,-646.3442 598.7154,-651.6013 595.5962,-647.216 599.5,-648.0878 599.5,-648.0878 599.5,-648.0878 595.5962,-647.216 600.2846,-644.5743 591.6923,-646.3442 591.6923,-646.3442"/>
<ellipse fill="none" stroke="#000000" cx="588.5692" cy="-645.6468" rx="3.2" ry="3.2"/>
</g>
<!-- procedure_order&#45;&gt;list_options -->
<g id="edge39" class="edge">
<title>procedure_order:w&#45;&gt;list_options:e</title>
<path fill="none" stroke="#000000" d="M585.1129,-645.8241C400.1622,-617.8922 324.5583,-651.4576 165,-547.0878 136.7301,-528.596 157.7807,-483.0878 124,-515.0878"/>
<polygon fill="#000000" stroke="#000000" points="591.5972,-646.8443 598.9404,-651.644 595.5486,-647.4661 599.5,-648.0878 599.5,-648.0878 599.5,-648.0878 595.5486,-647.4661 600.0596,-644.5315 591.5972,-646.8443 591.5972,-646.8443"/>
<ellipse fill="none" stroke="#000000" cx="588.4361" cy="-646.347" rx="3.2" ry="3.2"/>
</g>
<!-- procedure_order&#45;&gt;list_options -->
<g id="edge40" class="edge">
<title>procedure_order:w&#45;&gt;list_options:e</title>
<path fill="none" stroke="#000000" d="M585.1129,-646.7713C400.1622,-630.8922 324.5583,-664.4576 165,-560.0878 136.7301,-541.596 157.7807,-496.0878 124,-515.0878"/>
<polygon fill="#000000" stroke="#000000" points="591.5333,-647.3588 599.1719,-651.6728 595.5166,-647.7233 599.5,-648.0878 599.5,-648.0878 599.5,-648.0878 595.5166,-647.7233 599.8281,-644.5028 591.5333,-647.3588 591.5333,-647.3588"/>
<ellipse fill="none" stroke="#000000" cx="588.3466" cy="-647.0672" rx="3.2" ry="3.2"/>
</g>
<!-- procedure_order&#45;&gt;list_options -->
<g id="edge42" class="edge">
<title>procedure_order:w&#45;&gt;list_options:e</title>
<path fill="none" stroke="#000000" d="M584.8351,-647.7128C400.0865,-643.9257 324.4784,-677.4053 165,-573.0878 136.7301,-554.596 157.7807,-509.0878 124,-515.0878"/>
<polygon fill="#000000" stroke="#000000" points="591.5026,-647.8833 599.408,-651.6866 595.5013,-647.9855 599.5,-648.0878 599.5,-648.0878 599.5,-648.0878 595.5013,-647.9855 599.592,-644.489 591.5026,-647.8833 591.5026,-647.8833"/>
<ellipse fill="none" stroke="#000000" cx="588.3037" cy="-647.8014" rx="3.2" ry="3.2"/>
</g>
<!-- procedure_order&#45;&gt;list_options -->
<g id="edge43" class="edge">
<title>procedure_order:w&#45;&gt;list_options:e</title>
<path fill="none" stroke="#000000" d="M584.8351,-648.6781C400.0865,-656.9257 324.4784,-690.4053 165,-586.0878 136.7301,-567.596 157.7807,-522.0878 124,-515.0878"/>
<polygon fill="#000000" stroke="#000000" points="591.5065,-648.4096 599.6448,-651.6849 595.5032,-648.2487 599.5,-648.0878 599.5,-648.0878 599.5,-648.0878 595.5032,-648.2487 599.3552,-644.4907 591.5065,-648.4096 591.5065,-648.4096"/>
<ellipse fill="none" stroke="#000000" cx="588.3091" cy="-648.5384" rx="3.2" ry="3.2"/>
</g>
<!-- procedure_order&#45;&gt;list_options -->
<g id="edge44" class="edge">
<title>procedure_order:w&#45;&gt;list_options:e</title>
<path fill="none" stroke="#000000" d="M585.1129,-649.613C400.1622,-669.8922 324.5583,-703.4576 165,-599.0878 136.7301,-580.596 157.7807,-535.0878 124,-515.0878"/>
<polygon fill="#000000" stroke="#000000" points="591.5446,-648.9312 599.8795,-651.6677 595.5223,-648.5095 599.5,-648.0878 599.5,-648.0878 599.5,-648.0878 595.5223,-648.5095 599.1205,-644.5079 591.5446,-648.9312 591.5446,-648.9312"/>
<ellipse fill="none" stroke="#000000" cx="588.3624" cy="-649.2686" rx="3.2" ry="3.2"/>
</g>
<!-- procedure_order&#45;&gt;list_options -->
<g id="edge46" class="edge">
<title>procedure_order:w&#45;&gt;list_options:e</title>
<path fill="none" stroke="#000000" d="M585.1129,-650.5602C400.1622,-682.8922 324.5583,-716.4576 165,-612.0878 136.7301,-593.596 157.7807,-548.0878 124,-515.0878"/>
<polygon fill="#000000" stroke="#000000" points="591.6156,-649.4428 600.1097,-651.6358 595.5578,-648.7653 599.5,-648.0878 599.5,-648.0878 599.5,-648.0878 595.5578,-648.7653 598.8903,-644.5398 591.6156,-649.4428 591.6156,-649.4428"/>
<ellipse fill="none" stroke="#000000" cx="588.4618" cy="-649.9847" rx="3.2" ry="3.2"/>
</g>
<!-- procedure_order&#45;&gt;list_options -->
<g id="edge47" class="edge">
<title>procedure_order:w&#45;&gt;list_options:e</title>
<path fill="none" stroke="#000000" d="M585.3908,-651.4407C400.2379,-695.8585 324.6382,-729.5099 165,-625.0878 136.7301,-606.596 157.7807,-561.0878 124,-515.0878"/>
<polygon fill="#000000" stroke="#000000" points="591.7167,-649.9374 600.3323,-651.5903 595.6084,-649.0126 599.5,-648.0878 599.5,-648.0878 599.5,-648.0878 595.6084,-649.0126 598.6677,-644.5853 591.7167,-649.9374 591.7167,-649.9374"/>
<ellipse fill="none" stroke="#000000" cx="588.6034" cy="-650.6773" rx="3.2" ry="3.2"/>
</g>
<!-- procedure_report&#45;&gt;users -->
<g id="edge50" class="edge">
<title>procedure_report:w&#45;&gt;users:e</title>
<path fill="none" stroke="#000000" d="M844.4151,-617.1543C762.1281,-607.4624 596.7926,-524.4063 555,-467.0878 497.2674,-387.9076 596.296,-312.9836 522,-249.0878 461.8509,-197.3586 243.7299,-240.319 165,-250.0878 137.2937,-253.5256 131.9188,-265.0878 104,-265.0878"/>
<polygon fill="#000000" stroke="#000000" points="851.0163,-617.5768 858.77,-621.6804 855.0082,-617.8323 859,-618.0878 859,-618.0878 859,-618.0878 855.0082,-617.8323 859.23,-614.4951 851.0163,-617.5768 851.0163,-617.5768"/>
<ellipse fill="none" stroke="#000000" cx="847.8229" cy="-617.3724" rx="3.2" ry="3.2"/>
</g>
<!-- procedure_report&#45;&gt;list_options -->
<g id="edge49" class="edge">
<title>procedure_report:w&#45;&gt;list_options:e</title>
<path fill="none" stroke="#000000" d="M844.2753,-596.0736C624.2778,-595.6416 563.6333,-585.3057 338,-559.0878 260.6311,-550.0978 240.1447,-551.5827 165,-531.0878 146.1287,-525.9409 143.5606,-515.0878 124,-515.0878"/>
<polygon fill="#000000" stroke="#000000" points="851,-596.08 858.9965,-599.6878 855,-596.0839 859,-596.0878 859,-596.0878 859,-596.0878 855,-596.0839 859.0035,-592.4878 851,-596.08 851,-596.08"/>
<ellipse fill="none" stroke="#000000" cx="847.8" cy="-596.0769" rx="3.2" ry="3.2"/>
</g>
<!-- procedure_report&#45;&gt;procedure_order -->
<g id="edge48" class="edge">
<title>procedure_report:w&#45;&gt;procedure_order:e</title>
<path fill="none" stroke="#000000" d="M844.3505,-640.354C807.6296,-641.7421 793.5645,-648.0878 750.5,-648.0878"/>
<polygon fill="#000000" stroke="#000000" points="851.0013,-640.2332 859.0654,-643.6872 855.0007,-640.1605 859,-640.0878 859,-640.0878 859,-640.0878 855.0007,-640.1605 858.9346,-636.4884 851.0013,-640.2332 851.0013,-640.2332"/>
<ellipse fill="none" stroke="#000000" cx="847.8018" cy="-640.2913" rx="3.2" ry="3.2"/>
</g>
</g>
</svg>
