<?xml version="1.0" encoding="UTF-8" standalone="no"?>
<!DOCTYPE svg PUBLIC "-//W3C//DTD SVG 1.1//EN"
 "http://www.w3.org/Graphics/SVG/1.1/DTD/svg11.dtd">
<!-- Generated by graphviz version 2.40.1 (20161225.0304)
 -->
<!-- Title: oneDegreeRelationshipsDiagram Pages: 1 -->
<svg width="1438pt" height="709pt"
 viewBox="0.00 0.00 1438.00 709.34" xmlns="http://www.w3.org/2000/svg" xmlns:xlink="http://www.w3.org/1999/xlink">
<g id="graph0" class="graph" transform="scale(1 1) rotate(0) translate(4 705.336)">
<title>oneDegreeRelationshipsDiagram</title>
<polygon fill="#ffffff" stroke="transparent" points="-4,4 -4,-705.336 1434,-705.336 1434,4 -4,4"/>
<text text-anchor="middle" x="72.4936" y="-7.3" font-family="Helvetica,sans-Serif" font-size="11.00" fill="#000000">Generated by SchemaSpy</text>
<!-- form_encounter -->
<g id="node1" class="node">
<title>form_encounter</title>
<g id="a_node1"><a xlink:href="../../tables/form_encounter.html" xlink:title="form_encounter" target="_top">
<polygon fill="#ffffff" stroke="transparent" points="550,-255.59 550,-426.59 758,-426.59 758,-255.59 550,-255.59"/>
<polygon fill="#f5f5f5" stroke="transparent" points="550,-403.09 550,-426.09 758,-426.09 758,-403.09 550,-403.09"/>
<polygon fill="none" stroke="#000000" points="550,-403.09 550,-426.09 758,-426.09 758,-403.09 550,-403.09"/>
<text text-anchor="start" x="555" y="-411.69" font-family="Helvetica,sans-Serif" font-weight="bold" font-size="11.00" fill="#000000">form_encounter</text>
<text text-anchor="start" x="723.0437" y="-411.19" font-family="Helvetica,sans-Serif" font-size="11.00" fill="#000000">[table]</text>
<polygon fill="none" stroke="#000000" points="550,-381.09 550,-403.09 758,-403.09 758,-381.09 550,-381.09"/>
<image xlink:href="../../images/primaryKeys.png" width="11px" height="12px" preserveAspectRatio="xMinYMin meet" x="555" y="-398.09"/>
<text text-anchor="start" x="570" y="-388.19" font-family="Helvetica,sans-Serif" font-size="11.00" fill="#000000">id</text>
<polygon fill="#ffffff" stroke="transparent" points="550,-359.09 550,-381.09 758,-381.09 758,-359.09 550,-359.09"/>
<polygon fill="none" stroke="#000000" points="550,-359.09 550,-381.09 758,-381.09 758,-359.09 550,-359.09"/>
<text text-anchor="start" x="570" y="-366.19" font-family="Helvetica,sans-Serif" font-size="11.00" fill="#000000">uuid</text>
<polygon fill="#ffffff" stroke="transparent" points="550,-337.09 550,-359.09 758,-359.09 758,-337.09 550,-337.09"/>
<polygon fill="none" stroke="#000000" points="550,-337.09 550,-359.09 758,-359.09 758,-337.09 550,-337.09"/>
<text text-anchor="start" x="570" y="-344.19" font-family="Helvetica,sans-Serif" font-size="11.00" fill="#000000">date</text>
<polygon fill="#ffffff" stroke="transparent" points="550,-315.09 550,-337.09 758,-337.09 758,-315.09 550,-315.09"/>
<polygon fill="none" stroke="#000000" points="550,-315.09 550,-337.09 758,-337.09 758,-315.09 550,-315.09"/>
<image xlink:href="../../images/foreignKeys.png" width="11px" height="12px" preserveAspectRatio="xMinYMin meet" x="555" y="-332.09"/>
<text text-anchor="start" x="570" y="-322.19" font-family="Helvetica,sans-Serif" font-size="11.00" fill="#000000">pid</text>
<polygon fill="none" stroke="#000000" points="550,-293.09 550,-315.09 758,-315.09 758,-293.09 550,-293.09"/>
<image xlink:href="../../images/primaryKeys.png" width="11px" height="12px" preserveAspectRatio="xMinYMin meet" x="555" y="-310.09"/>
<text text-anchor="start" x="570" y="-300.19" font-family="Helvetica,sans-Serif" font-size="11.00" fill="#000000">encounter</text>
<polygon fill="none" stroke="#000000" points="550,-274.09 550,-293.09 758,-293.09 758,-274.09 550,-274.09"/>
<text text-anchor="start" x="553" y="-280.19" font-family="Helvetica,sans-Serif" font-size="11.00" fill="#000000">...</text>
<polygon fill="#ffffff" stroke="transparent" points="550,-255.09 550,-274.09 645,-274.09 645,-255.09 550,-255.09"/>
<polygon fill="none" stroke="#000000" points="550,-255.09 550,-274.09 645,-274.09 645,-255.09 550,-255.09"/>
<text text-anchor="start" x="553" y="-261.19" font-family="Helvetica,sans-Serif" font-size="11.00" fill="#000000">&lt; 1</text>
<polygon fill="#ffffff" stroke="transparent" points="645,-255.09 645,-274.09 694,-274.09 694,-255.09 645,-255.09"/>
<polygon fill="none" stroke="#000000" points="645,-255.09 645,-274.09 694,-274.09 694,-255.09 645,-255.09"/>
<text text-anchor="start" x="684.8862" y="-261.19" font-family="Helvetica,sans-Serif" font-size="11.00" fill="#000000"> &#160;</text>
<polygon fill="#ffffff" stroke="transparent" points="694,-255.09 694,-274.09 758,-274.09 758,-255.09 694,-255.09"/>
<polygon fill="none" stroke="#000000" points="694,-255.09 694,-274.09 758,-274.09 758,-255.09 694,-255.09"/>
<text text-anchor="start" x="733.2904" y="-261.19" font-family="Helvetica,sans-Serif" font-size="11.00" fill="#000000">19 &gt;</text>
</a>
</g>
</g>
<!-- patient_data -->
<g id="node2" class="node">
<title>patient_data</title>
<g id="a_node2"><a xlink:href="../../tables/patient_data.html" xlink:title="patient_data" target="_top">
<polygon fill="#ffffff" stroke="transparent" points="224,-255.59 224,-646.59 501,-646.59 501,-255.59 224,-255.59"/>
<polygon fill="#f5f5f5" stroke="transparent" points="224.5,-623.09 224.5,-646.09 501.5,-646.09 501.5,-623.09 224.5,-623.09"/>
<polygon fill="none" stroke="#000000" points="224.5,-623.09 224.5,-646.09 501.5,-646.09 501.5,-623.09 224.5,-623.09"/>
<text text-anchor="start" x="229.5" y="-631.69" font-family="Helvetica,sans-Serif" font-weight="bold" font-size="11.00" fill="#000000">patient_data</text>
<text text-anchor="start" x="466.5437" y="-631.19" font-family="Helvetica,sans-Serif" font-size="11.00" fill="#000000">[table]</text>
<polygon fill="none" stroke="#000000" points="224.5,-601.09 224.5,-623.09 501.5,-623.09 501.5,-601.09 224.5,-601.09"/>
<image xlink:href="../../images/primaryKeys.png" width="11px" height="12px" preserveAspectRatio="xMinYMin meet" x="229.5" y="-618.09"/>
<text text-anchor="start" x="244.5" y="-608.19" font-family="Helvetica,sans-Serif" font-size="11.00" fill="#000000">id</text>
<polygon fill="#ffffff" stroke="transparent" points="224.5,-579.09 224.5,-601.09 501.5,-601.09 501.5,-579.09 224.5,-579.09"/>
<polygon fill="none" stroke="#000000" points="224.5,-579.09 224.5,-601.09 501.5,-601.09 501.5,-579.09 224.5,-579.09"/>
<text text-anchor="start" x="244.5" y="-586.19" font-family="Helvetica,sans-Serif" font-size="11.00" fill="#000000">uuid</text>
<polygon fill="#ffffff" stroke="transparent" points="224.5,-557.09 224.5,-579.09 501.5,-579.09 501.5,-557.09 224.5,-557.09"/>
<polygon fill="none" stroke="#000000" points="224.5,-557.09 224.5,-579.09 501.5,-579.09 501.5,-557.09 224.5,-557.09"/>
<text text-anchor="start" x="244.5" y="-564.19" font-family="Helvetica,sans-Serif" font-size="11.00" fill="#000000">fname</text>
<polygon fill="#ffffff" stroke="transparent" points="224.5,-535.09 224.5,-557.09 501.5,-557.09 501.5,-535.09 224.5,-535.09"/>
<polygon fill="none" stroke="#000000" points="224.5,-535.09 224.5,-557.09 501.5,-557.09 501.5,-535.09 224.5,-535.09"/>
<text text-anchor="start" x="244.5" y="-542.19" font-family="Helvetica,sans-Serif" font-size="11.00" fill="#000000">lname</text>
<polygon fill="#ffffff" stroke="transparent" points="224.5,-513.09 224.5,-535.09 501.5,-535.09 501.5,-513.09 224.5,-513.09"/>
<polygon fill="none" stroke="#000000" points="224.5,-513.09 224.5,-535.09 501.5,-535.09 501.5,-513.09 224.5,-513.09"/>
<text text-anchor="start" x="244.5" y="-520.19" font-family="Helvetica,sans-Serif" font-size="11.00" fill="#000000">DOB</text>
<polygon fill="none" stroke="#000000" points="224.5,-491.09 224.5,-513.09 501.5,-513.09 501.5,-491.09 224.5,-491.09"/>
<image xlink:href="../../images/foreignKeys.png" width="11px" height="12px" preserveAspectRatio="xMinYMin meet" x="229.5" y="-508.09"/>
<text text-anchor="start" x="244.5" y="-498.19" font-family="Helvetica,sans-Serif" font-size="11.00" fill="#000000">pharmacy_id</text>
<polygon fill="none" stroke="#000000" points="224.5,-469.09 224.5,-491.09 501.5,-491.09 501.5,-469.09 224.5,-469.09"/>
<image xlink:href="../../images/foreignKeys.png" width="11px" height="12px" preserveAspectRatio="xMinYMin meet" x="229.5" y="-486.09"/>
<text text-anchor="start" x="244.5" y="-476.19" font-family="Helvetica,sans-Serif" font-size="11.00" fill="#000000">providerID</text>
<polygon fill="none" stroke="#000000" points="224.5,-447.09 224.5,-469.09 501.5,-469.09 501.5,-447.09 224.5,-447.09"/>
<image xlink:href="../../images/foreignKeys.png" width="11px" height="12px" preserveAspectRatio="xMinYMin meet" x="229.5" y="-464.09"/>
<text text-anchor="start" x="244.5" y="-454.19" font-family="Helvetica,sans-Serif" font-size="11.00" fill="#000000">ref_providerID</text>
<polygon fill="none" stroke="#000000" points="224.5,-425.09 224.5,-447.09 501.5,-447.09 501.5,-425.09 224.5,-425.09"/>
<image xlink:href="../../images/foreignKeys.png" width="11px" height="12px" preserveAspectRatio="xMinYMin meet" x="229.5" y="-442.09"/>
<text text-anchor="start" x="244.5" y="-432.19" font-family="Helvetica,sans-Serif" font-size="11.00" fill="#000000">interpreter_needed</text>
<polygon fill="none" stroke="#000000" points="224.5,-403.09 224.5,-425.09 501.5,-425.09 501.5,-403.09 224.5,-403.09"/>
<image xlink:href="../../images/primaryKeys.png" width="11px" height="12px" preserveAspectRatio="xMinYMin meet" x="229.5" y="-420.09"/>
<text text-anchor="start" x="244.5" y="-410.19" font-family="Helvetica,sans-Serif" font-size="11.00" fill="#000000">pid</text>
<polygon fill="none" stroke="#000000" points="224.5,-381.09 224.5,-403.09 501.5,-403.09 501.5,-381.09 224.5,-381.09"/>
<image xlink:href="../../images/foreignKeys.png" width="11px" height="12px" preserveAspectRatio="xMinYMin meet" x="229.5" y="-398.09"/>
<text text-anchor="start" x="244.5" y="-388.19" font-family="Helvetica,sans-Serif" font-size="11.00" fill="#000000">advance_directive_user_authenticator</text>
<polygon fill="none" stroke="#000000" points="224.5,-359.09 224.5,-381.09 501.5,-381.09 501.5,-359.09 224.5,-359.09"/>
<image xlink:href="../../images/foreignKeys.png" width="11px" height="12px" preserveAspectRatio="xMinYMin meet" x="229.5" y="-376.09"/>
<text text-anchor="start" x="244.5" y="-366.19" font-family="Helvetica,sans-Serif" font-size="11.00" fill="#000000">created_by</text>
<polygon fill="none" stroke="#000000" points="224.5,-337.09 224.5,-359.09 501.5,-359.09 501.5,-337.09 224.5,-337.09"/>
<image xlink:href="../../images/foreignKeys.png" width="11px" height="12px" preserveAspectRatio="xMinYMin meet" x="229.5" y="-354.09"/>
<text text-anchor="start" x="244.5" y="-344.19" font-family="Helvetica,sans-Serif" font-size="11.00" fill="#000000">updated_by</text>
<polygon fill="none" stroke="#000000" points="224.5,-315.09 224.5,-337.09 501.5,-337.09 501.5,-315.09 224.5,-315.09"/>
<image xlink:href="../../images/foreignKeys.png" width="11px" height="12px" preserveAspectRatio="xMinYMin meet" x="229.5" y="-332.09"/>
<text text-anchor="start" x="244.5" y="-322.19" font-family="Helvetica,sans-Serif" font-size="11.00" fill="#000000">tribal_affiliations</text>
<polygon fill="none" stroke="#000000" points="224.5,-293.09 224.5,-315.09 501.5,-315.09 501.5,-293.09 224.5,-293.09"/>
<image xlink:href="../../images/foreignKeys.png" width="11px" height="12px" preserveAspectRatio="xMinYMin meet" x="229.5" y="-310.09"/>
<text text-anchor="start" x="244.5" y="-300.19" font-family="Helvetica,sans-Serif" font-size="11.00" fill="#000000">sex_identified</text>
<polygon fill="none" stroke="#000000" points="224.5,-274.09 224.5,-293.09 501.5,-293.09 501.5,-274.09 224.5,-274.09"/>
<text text-anchor="start" x="227.5" y="-280.19" font-family="Helvetica,sans-Serif" font-size="11.00" fill="#000000">...</text>
<polygon fill="#ffffff" stroke="transparent" points="224.5,-255.09 224.5,-274.09 353.5,-274.09 353.5,-255.09 224.5,-255.09"/>
<polygon fill="none" stroke="#000000" points="224.5,-255.09 224.5,-274.09 353.5,-274.09 353.5,-255.09 224.5,-255.09"/>
<text text-anchor="start" x="227.5" y="-261.19" font-family="Helvetica,sans-Serif" font-size="11.00" fill="#000000">&lt; 9</text>
<polygon fill="#ffffff" stroke="transparent" points="353.5,-255.09 353.5,-274.09 419.5,-274.09 419.5,-255.09 353.5,-255.09"/>
<polygon fill="none" stroke="#000000" points="353.5,-255.09 353.5,-274.09 419.5,-274.09 419.5,-255.09 353.5,-255.09"/>
<text text-anchor="start" x="410.3862" y="-261.19" font-family="Helvetica,sans-Serif" font-size="11.00" fill="#000000"> &#160;</text>
<polygon fill="#ffffff" stroke="transparent" points="419.5,-255.09 419.5,-274.09 501.5,-274.09 501.5,-255.09 419.5,-255.09"/>
<polygon fill="none" stroke="#000000" points="419.5,-255.09 419.5,-274.09 501.5,-274.09 501.5,-255.09 419.5,-255.09"/>
<text text-anchor="start" x="476.7904" y="-261.19" font-family="Helvetica,sans-Serif" font-size="11.00" fill="#000000">95 &gt;</text>
</a>
</g>
</g>
<!-- form_encounter&#45;&gt;patient_data -->
<g id="edge1" class="edge">
<title>form_encounter:w&#45;&gt;patient_data:e</title>
<path fill="none" stroke="#000000" d="M536.0395,-330.5749C514.905,-348.5076 540.0523,-414.09 501.5,-414.09"/>
<polygon fill="#000000" stroke="#000000" points="542.3834,-328.5369 551.1011,-329.5175 546.1917,-327.3135 550,-326.09 550,-326.09 550,-326.09 546.1917,-327.3135 548.8989,-322.6625 542.3834,-328.5369 542.3834,-328.5369"/>
<ellipse fill="none" stroke="#000000" cx="539.3367" cy="-329.5157" rx="3.2" ry="3.2"/>
</g>
<!-- users -->
<g id="node6" class="node">
<title>users</title>
<g id="a_node6"><a xlink:href="../../tables/users.html" xlink:title="users" target="_top">
<polygon fill="#ffffff" stroke="transparent" points="8,-178.59 8,-393.59 175,-393.59 175,-178.59 8,-178.59"/>
<polygon fill="#f5f5f5" stroke="transparent" points="8.5,-370.09 8.5,-393.09 175.5,-393.09 175.5,-370.09 8.5,-370.09"/>
<polygon fill="none" stroke="#000000" points="8.5,-370.09 8.5,-393.09 175.5,-393.09 175.5,-370.09 8.5,-370.09"/>
<text text-anchor="start" x="13.5" y="-378.69" font-family="Helvetica,sans-Serif" font-weight="bold" font-size="11.00" fill="#000000">users</text>
<text text-anchor="start" x="140.5437" y="-378.19" font-family="Helvetica,sans-Serif" font-size="11.00" fill="#000000">[table]</text>
<polygon fill="none" stroke="#000000" points="8.5,-348.09 8.5,-370.09 175.5,-370.09 175.5,-348.09 8.5,-348.09"/>
<image xlink:href="../../images/primaryKeys.png" width="11px" height="12px" preserveAspectRatio="xMinYMin meet" x="13.5" y="-365.09"/>
<text text-anchor="start" x="28.5" y="-355.19" font-family="Helvetica,sans-Serif" font-size="11.00" fill="#000000">id</text>
<polygon fill="#ffffff" stroke="transparent" points="8.5,-326.09 8.5,-348.09 175.5,-348.09 175.5,-326.09 8.5,-326.09"/>
<polygon fill="none" stroke="#000000" points="8.5,-326.09 8.5,-348.09 175.5,-348.09 175.5,-326.09 8.5,-326.09"/>
<text text-anchor="start" x="28.5" y="-333.19" font-family="Helvetica,sans-Serif" font-size="11.00" fill="#000000">uuid</text>
<polygon fill="none" stroke="#000000" points="8.5,-304.09 8.5,-326.09 175.5,-326.09 175.5,-304.09 8.5,-304.09"/>
<image xlink:href="../../images/primaryKeys.png" width="11px" height="12px" preserveAspectRatio="xMinYMin meet" x="13.5" y="-321.09"/>
<text text-anchor="start" x="28.5" y="-311.19" font-family="Helvetica,sans-Serif" font-size="11.00" fill="#000000">username</text>
<polygon fill="none" stroke="#000000" points="8.5,-282.09 8.5,-304.09 175.5,-304.09 175.5,-282.09 8.5,-282.09"/>
<image xlink:href="../../images/foreignKeys.png" width="11px" height="12px" preserveAspectRatio="xMinYMin meet" x="13.5" y="-299.09"/>
<text text-anchor="start" x="28.5" y="-289.19" font-family="Helvetica,sans-Serif" font-size="11.00" fill="#000000">facility_id</text>
<polygon fill="#ffffff" stroke="transparent" points="8.5,-260.09 8.5,-282.09 175.5,-282.09 175.5,-260.09 8.5,-260.09"/>
<polygon fill="none" stroke="#000000" points="8.5,-260.09 8.5,-282.09 175.5,-282.09 175.5,-260.09 8.5,-260.09"/>
<text text-anchor="start" x="28.5" y="-267.19" font-family="Helvetica,sans-Serif" font-size="11.00" fill="#000000">google_signin_email</text>
<polygon fill="#ffffff" stroke="transparent" points="8.5,-238.09 8.5,-260.09 175.5,-260.09 175.5,-238.09 8.5,-238.09"/>
<polygon fill="none" stroke="#000000" points="8.5,-238.09 8.5,-260.09 175.5,-260.09 175.5,-238.09 8.5,-238.09"/>
<text text-anchor="start" x="28.5" y="-245.19" font-family="Helvetica,sans-Serif" font-size="11.00" fill="#000000">abook_type</text>
<polygon fill="none" stroke="#000000" points="8.5,-216.09 8.5,-238.09 175.5,-238.09 175.5,-216.09 8.5,-216.09"/>
<image xlink:href="../../images/foreignKeys.png" width="11px" height="12px" preserveAspectRatio="xMinYMin meet" x="13.5" y="-233.09"/>
<text text-anchor="start" x="28.5" y="-223.19" font-family="Helvetica,sans-Serif" font-size="11.00" fill="#000000">billing_facility_id</text>
<polygon fill="none" stroke="#000000" points="8.5,-197.09 8.5,-216.09 175.5,-216.09 175.5,-197.09 8.5,-197.09"/>
<text text-anchor="start" x="11.5" y="-203.19" font-family="Helvetica,sans-Serif" font-size="11.00" fill="#000000">...</text>
<polygon fill="#ffffff" stroke="transparent" points="8.5,-178.09 8.5,-197.09 82.5,-197.09 82.5,-178.09 8.5,-178.09"/>
<polygon fill="none" stroke="#000000" points="8.5,-178.09 8.5,-197.09 82.5,-197.09 82.5,-178.09 8.5,-178.09"/>
<text text-anchor="start" x="11.5" y="-184.19" font-family="Helvetica,sans-Serif" font-size="11.00" fill="#000000">&lt; 2</text>
<polygon fill="#ffffff" stroke="transparent" points="82.5,-178.09 82.5,-197.09 121.5,-197.09 121.5,-178.09 82.5,-178.09"/>
<polygon fill="none" stroke="#000000" points="82.5,-178.09 82.5,-197.09 121.5,-197.09 121.5,-178.09 82.5,-178.09"/>
<text text-anchor="start" x="112.3862" y="-184.19" font-family="Helvetica,sans-Serif" font-size="11.00" fill="#000000"> &#160;</text>
<polygon fill="#ffffff" stroke="transparent" points="121.5,-178.09 121.5,-197.09 175.5,-197.09 175.5,-178.09 121.5,-178.09"/>
<polygon fill="none" stroke="#000000" points="121.5,-178.09 121.5,-197.09 175.5,-197.09 175.5,-178.09 121.5,-178.09"/>
<text text-anchor="start" x="150.7904" y="-184.19" font-family="Helvetica,sans-Serif" font-size="11.00" fill="#000000">90 &gt;</text>
</a>
</g>
</g>
<!-- patient_data&#45;&gt;users -->
<g id="edge6" class="edge">
<title>patient_data:w&#45;&gt;users:e</title>
<path fill="none" stroke="#000000" d="M210.5457,-387.7758C198.3073,-378.8308 195.8075,-359.09 175.5,-359.09"/>
<polygon fill="#000000" stroke="#000000" points="216.8569,-389.727 223.4366,-395.5294 220.6785,-390.9085 224.5,-392.09 224.5,-392.09 224.5,-392.09 220.6785,-390.9085 225.5634,-388.6506 216.8569,-389.727 216.8569,-389.727"/>
<ellipse fill="none" stroke="#000000" cx="213.7997" cy="-388.7818" rx="3.2" ry="3.2"/>
</g>
<!-- patient_data&#45;&gt;users -->
<g id="edge7" class="edge">
<title>patient_data:w&#45;&gt;users:e</title>
<path fill="none" stroke="#000000" d="M210.2027,-368.2736C198.7382,-365.1493 192.0655,-359.09 175.5,-359.09"/>
<polygon fill="#000000" stroke="#000000" points="216.5638,-369.0817 224.0463,-373.6613 220.5319,-369.5859 224.5,-370.09 224.5,-370.09 224.5,-370.09 220.5319,-369.5859 224.9537,-366.5187 216.5638,-369.0817 216.5638,-369.0817"/>
<ellipse fill="none" stroke="#000000" cx="213.3893" cy="-368.6784" rx="3.2" ry="3.2"/>
</g>
<!-- patient_data&#45;&gt;users -->
<g id="edge8" class="edge">
<title>patient_data:w&#45;&gt;users:e</title>
<path fill="none" stroke="#000000" d="M210.43,-476.5992C178.8075,-456.76 227.6273,-359.09 175.5,-359.09"/>
<polygon fill="#000000" stroke="#000000" points="216.7354,-478.1636 223.6331,-483.5841 220.6177,-479.1268 224.5,-480.09 224.5,-480.09 224.5,-480.09 220.6177,-479.1268 225.3669,-476.5959 216.7354,-478.1636 216.7354,-478.1636"/>
<ellipse fill="none" stroke="#000000" cx="213.6296" cy="-477.393" rx="3.2" ry="3.2"/>
</g>
<!-- patient_data&#45;&gt;users -->
<g id="edge9" class="edge">
<title>patient_data:w&#45;&gt;users:e</title>
<path fill="none" stroke="#000000" d="M210.6394,-454.0865C185.8773,-435.5652 218.6495,-359.09 175.5,-359.09"/>
<polygon fill="#000000" stroke="#000000" points="216.8142,-455.87 223.501,-461.5486 220.6571,-456.98 224.5,-458.09 224.5,-458.09 224.5,-458.09 220.6571,-456.98 225.499,-454.6314 216.8142,-455.87 216.8142,-455.87"/>
<ellipse fill="none" stroke="#000000" cx="213.7399" cy="-454.982" rx="3.2" ry="3.2"/>
</g>
<!-- patient_data&#45;&gt;users -->
<g id="edge10" class="edge">
<title>patient_data:w&#45;&gt;users:e</title>
<path fill="none" stroke="#000000" d="M210.2027,-349.9064C198.7382,-353.0308 192.0655,-359.09 175.5,-359.09"/>
<polygon fill="#000000" stroke="#000000" points="216.5638,-349.0983 224.9537,-351.6613 220.5319,-348.5942 224.5,-348.09 224.5,-348.09 224.5,-348.09 220.5319,-348.5942 224.0463,-344.5187 216.5638,-349.0983 216.5638,-349.0983"/>
<ellipse fill="none" stroke="#000000" cx="213.3893" cy="-349.5017" rx="3.2" ry="3.2"/>
</g>
<!-- form_questionnaire_assessments -->
<g id="node3" class="node">
<title>form_questionnaire_assessments</title>
<g id="a_node3"><a xlink:href="../../tables/form_questionnaire_assessments.html" xlink:title="form_questionnaire_assessments" target="_top">
<polygon fill="#ffffff" stroke="transparent" points="1159,-420.59 1159,-635.59 1422,-635.59 1422,-420.59 1159,-420.59"/>
<polygon fill="#f5f5f5" stroke="transparent" points="1159.5,-612.09 1159.5,-635.09 1422.5,-635.09 1422.5,-612.09 1159.5,-612.09"/>
<polygon fill="none" stroke="#000000" points="1159.5,-612.09 1159.5,-635.09 1422.5,-635.09 1422.5,-612.09 1159.5,-612.09"/>
<text text-anchor="start" x="1164.5" y="-620.69" font-family="Helvetica,sans-Serif" font-weight="bold" font-size="11.00" fill="#000000">form_questionnaire_assessments</text>
<text text-anchor="start" x="1388.0219" y="-620.19" font-family="Helvetica,sans-Serif" font-size="11.00" fill="#000000">[table]</text>
<polygon fill="none" stroke="#000000" points="1159.5,-590.09 1159.5,-612.09 1422.5,-612.09 1422.5,-590.09 1159.5,-590.09"/>
<image xlink:href="../../images/primaryKeys.png" width="11px" height="12px" preserveAspectRatio="xMinYMin meet" x="1164.5" y="-607.09"/>
<text text-anchor="start" x="1188.5" y="-597.19" font-family="Helvetica,sans-Serif" font-size="11.00" fill="#000000">id</text>
<polygon fill="none" stroke="#000000" points="1159.5,-568.09 1159.5,-590.09 1422.5,-590.09 1422.5,-568.09 1159.5,-568.09"/>
<image xlink:href="../../images/foreignKeys.png" width="11px" height="12px" preserveAspectRatio="xMinYMin meet" x="1164.5" y="-585.09"/>
<text text-anchor="start" x="1188.5" y="-575.19" font-family="Helvetica,sans-Serif" font-size="11.00" fill="#000000">response_id</text>
<polygon fill="none" stroke="#000000" points="1159.5,-546.09 1159.5,-568.09 1422.5,-568.09 1422.5,-546.09 1159.5,-546.09"/>
<image xlink:href="../../images/foreignKeys.png" width="11px" height="12px" preserveAspectRatio="xMinYMin meet" x="1164.5" y="-563.09"/>
<text text-anchor="start" x="1188.5" y="-553.19" font-family="Helvetica,sans-Serif" font-size="11.00" fill="#000000">pid</text>
<polygon fill="none" stroke="#000000" points="1159.5,-524.09 1159.5,-546.09 1422.5,-546.09 1422.5,-524.09 1159.5,-524.09"/>
<image xlink:href="../../images/foreignKeys.png" width="11px" height="12px" preserveAspectRatio="xMinYMin meet" x="1164.5" y="-541.09"/>
<text text-anchor="start" x="1188.5" y="-531.19" font-family="Helvetica,sans-Serif" font-size="11.00" fill="#000000">user</text>
<polygon fill="none" stroke="#000000" points="1159.5,-502.09 1159.5,-524.09 1422.5,-524.09 1422.5,-502.09 1159.5,-502.09"/>
<image xlink:href="../../images/foreignKeys.png" width="11px" height="12px" preserveAspectRatio="xMinYMin meet" x="1164.5" y="-519.09"/>
<text text-anchor="start" x="1188.5" y="-509.19" font-family="Helvetica,sans-Serif" font-size="11.00" fill="#000000">groupname</text>
<polygon fill="none" stroke="#000000" points="1159.5,-480.09 1159.5,-502.09 1422.5,-502.09 1422.5,-480.09 1159.5,-480.09"/>
<image xlink:href="../../images/foreignKeys.png" width="11px" height="12px" preserveAspectRatio="xMinYMin meet" x="1164.5" y="-497.09"/>
<text text-anchor="start" x="1188.5" y="-487.19" font-family="Helvetica,sans-Serif" font-size="11.00" fill="#000000">questionnaire_id</text>
<polygon fill="none" stroke="#000000" points="1159.5,-458.09 1159.5,-480.09 1422.5,-480.09 1422.5,-458.09 1159.5,-458.09"/>
<image xlink:href="../../images/foreignKeys.png" width="11px" height="12px" preserveAspectRatio="xMinYMin meet" x="1164.5" y="-475.09"/>
<text text-anchor="start" x="1188.5" y="-465.19" font-family="Helvetica,sans-Serif" font-size="11.00" fill="#000000">category</text>
<polygon fill="none" stroke="#000000" points="1159.5,-439.09 1159.5,-458.09 1422.5,-458.09 1422.5,-439.09 1159.5,-439.09"/>
<text text-anchor="start" x="1162.5" y="-445.19" font-family="Helvetica,sans-Serif" font-size="11.00" fill="#000000">...</text>
<polygon fill="#ffffff" stroke="transparent" points="1159.5,-420.09 1159.5,-439.09 1289.5,-439.09 1289.5,-420.09 1159.5,-420.09"/>
<polygon fill="none" stroke="#000000" points="1159.5,-420.09 1159.5,-439.09 1289.5,-439.09 1289.5,-420.09 1159.5,-420.09"/>
<text text-anchor="start" x="1162.5" y="-426.19" font-family="Helvetica,sans-Serif" font-size="11.00" fill="#000000">&lt; 6</text>
<polygon fill="#ffffff" stroke="transparent" points="1289.5,-420.09 1289.5,-439.09 1355.5,-439.09 1355.5,-420.09 1289.5,-420.09"/>
<polygon fill="none" stroke="#000000" points="1289.5,-420.09 1289.5,-439.09 1355.5,-439.09 1355.5,-420.09 1289.5,-420.09"/>
<text text-anchor="start" x="1346.3862" y="-426.19" font-family="Helvetica,sans-Serif" font-size="11.00" fill="#000000"> &#160;</text>
<polygon fill="#ffffff" stroke="transparent" points="1355.5,-420.09 1355.5,-439.09 1422.5,-439.09 1422.5,-420.09 1355.5,-420.09"/>
<polygon fill="none" stroke="#000000" points="1355.5,-420.09 1355.5,-439.09 1422.5,-439.09 1422.5,-420.09 1355.5,-420.09"/>
<text text-anchor="start" x="1413.3862" y="-426.19" font-family="Helvetica,sans-Serif" font-size="11.00" fill="#000000"> &#160;</text>
</a>
</g>
</g>
<!-- form_questionnaire_assessments&#45;&gt;patient_data -->
<g id="edge2" class="edge">
<title>form_questionnaire_assessments:w&#45;&gt;patient_data:e</title>
<path fill="none" stroke="#000000" d="M1145.5069,-561.401C1130.9621,-573.8164 1142.6576,-609.7423 1118,-625.09 1009.1634,-692.8334 639.8172,-739.9536 542,-657.09 500.2286,-621.7043 556.2449,-414.09 501.5,-414.09"/>
<polygon fill="#000000" stroke="#000000" points="1151.8546,-559.4455 1160.56,-560.5304 1155.6773,-558.2677 1159.5,-557.09 1159.5,-557.09 1159.5,-557.09 1155.6773,-558.2677 1158.44,-553.6496 1151.8546,-559.4455 1151.8546,-559.4455"/>
<ellipse fill="none" stroke="#000000" cx="1148.7964" cy="-560.3876" rx="3.2" ry="3.2"/>
</g>
<!-- questionnaire_repository -->
<g id="node4" class="node">
<title>questionnaire_repository</title>
<g id="a_node4"><a xlink:href="../../tables/questionnaire_repository.html" xlink:title="questionnaire_repository" target="_top">
<polygon fill="#ffffff" stroke="transparent" points="550,-475.59 550,-646.59 758,-646.59 758,-475.59 550,-475.59"/>
<polygon fill="#f5f5f5" stroke="transparent" points="550,-623.09 550,-646.09 758,-646.09 758,-623.09 550,-623.09"/>
<polygon fill="none" stroke="#000000" points="550,-623.09 550,-646.09 758,-646.09 758,-623.09 550,-623.09"/>
<text text-anchor="start" x="555" y="-631.69" font-family="Helvetica,sans-Serif" font-weight="bold" font-size="11.00" fill="#000000">questionnaire_repository</text>
<text text-anchor="start" x="723.5219" y="-631.19" font-family="Helvetica,sans-Serif" font-size="11.00" fill="#000000">[table]</text>
<polygon fill="none" stroke="#000000" points="550,-601.09 550,-623.09 758,-623.09 758,-601.09 550,-601.09"/>
<image xlink:href="../../images/primaryKeys.png" width="11px" height="12px" preserveAspectRatio="xMinYMin meet" x="555" y="-618.09"/>
<text text-anchor="start" x="579" y="-608.19" font-family="Helvetica,sans-Serif" font-size="11.00" fill="#000000">id</text>
<polygon fill="#ffffff" stroke="transparent" points="550,-579.09 550,-601.09 758,-601.09 758,-579.09 550,-579.09"/>
<polygon fill="none" stroke="#000000" points="550,-579.09 550,-601.09 758,-601.09 758,-579.09 550,-579.09"/>
<text text-anchor="start" x="579" y="-586.19" font-family="Helvetica,sans-Serif" font-size="11.00" fill="#000000">uuid</text>
<polygon fill="none" stroke="#000000" points="550,-557.09 550,-579.09 758,-579.09 758,-557.09 550,-557.09"/>
<image xlink:href="../../images/primaryKeys.png" width="11px" height="12px" preserveAspectRatio="xMinYMin meet" x="555" y="-574.09"/>
<text text-anchor="start" x="579" y="-564.19" font-family="Helvetica,sans-Serif" font-size="11.00" fill="#000000">questionnaire_id</text>
<polygon fill="#ffffff" stroke="transparent" points="550,-535.09 550,-557.09 758,-557.09 758,-535.09 550,-535.09"/>
<polygon fill="none" stroke="#000000" points="550,-535.09 550,-557.09 758,-557.09 758,-535.09 550,-535.09"/>
<text text-anchor="start" x="579" y="-542.19" font-family="Helvetica,sans-Serif" font-size="11.00" fill="#000000">name</text>
<polygon fill="none" stroke="#000000" points="550,-513.09 550,-535.09 758,-535.09 758,-513.09 550,-513.09"/>
<image xlink:href="../../images/foreignKeys.png" width="11px" height="12px" preserveAspectRatio="xMinYMin meet" x="555" y="-530.09"/>
<text text-anchor="start" x="579" y="-520.19" font-family="Helvetica,sans-Serif" font-size="11.00" fill="#000000">category</text>
<polygon fill="none" stroke="#000000" points="550,-494.09 550,-513.09 758,-513.09 758,-494.09 550,-494.09"/>
<text text-anchor="start" x="553" y="-500.19" font-family="Helvetica,sans-Serif" font-size="11.00" fill="#000000">...</text>
<polygon fill="#ffffff" stroke="transparent" points="550,-475.09 550,-494.09 648,-494.09 648,-475.09 550,-475.09"/>
<polygon fill="none" stroke="#000000" points="550,-475.09 550,-494.09 648,-494.09 648,-475.09 550,-475.09"/>
<text text-anchor="start" x="553" y="-481.19" font-family="Helvetica,sans-Serif" font-size="11.00" fill="#000000">&lt; 1</text>
<polygon fill="#ffffff" stroke="transparent" points="648,-475.09 648,-494.09 698,-494.09 698,-475.09 648,-475.09"/>
<polygon fill="none" stroke="#000000" points="648,-475.09 648,-494.09 698,-494.09 698,-475.09 648,-475.09"/>
<text text-anchor="start" x="688.8862" y="-481.19" font-family="Helvetica,sans-Serif" font-size="11.00" fill="#000000"> &#160;</text>
<polygon fill="#ffffff" stroke="transparent" points="698,-475.09 698,-494.09 758,-494.09 758,-475.09 698,-475.09"/>
<polygon fill="none" stroke="#000000" points="698,-475.09 698,-494.09 758,-494.09 758,-475.09 698,-475.09"/>
<text text-anchor="start" x="739.4053" y="-481.19" font-family="Helvetica,sans-Serif" font-size="11.00" fill="#000000">3 &gt;</text>
</a>
</g>
</g>
<!-- form_questionnaire_assessments&#45;&gt;questionnaire_repository -->
<g id="edge3" class="edge">
<title>form_questionnaire_assessments:w&#45;&gt;questionnaire_repository:e</title>
<path fill="none" stroke="#000000" d="M1145.3307,-494.3523C1121.1853,-509.0203 1153.532,-569.1863 1118,-593.09 1000.3644,-672.2279 935.4973,-631.423 799,-593.09 778.4523,-587.3195 779.3426,-568.09 758,-568.09"/>
<polygon fill="#000000" stroke="#000000" points="1151.704,-492.885 1160.3077,-494.5982 1155.602,-491.9875 1159.5,-491.09 1159.5,-491.09 1159.5,-491.09 1155.602,-491.9875 1158.6923,-487.5818 1151.704,-492.885 1151.704,-492.885"/>
<ellipse fill="none" stroke="#000000" cx="1148.5855" cy="-493.603" rx="3.2" ry="3.2"/>
</g>
<!-- questionnaire_response -->
<g id="node5" class="node">
<title>questionnaire_response</title>
<g id="a_node5"><a xlink:href="../../tables/questionnaire_response.html" xlink:title="questionnaire_response" target="_top">
<polygon fill="#ffffff" stroke="transparent" points="807,-96.09 807,-582.09 1110,-582.09 1110,-96.09 807,-96.09"/>
<polygon fill="#f5f5f5" stroke="transparent" points="809.5,-557.09 809.5,-580.09 1108.5,-580.09 1108.5,-557.09 809.5,-557.09"/>
<polygon fill="none" stroke="#000000" points="809.5,-557.09 809.5,-580.09 1108.5,-580.09 1108.5,-557.09 809.5,-557.09"/>
<text text-anchor="start" x="814.5" y="-565.69" font-family="Helvetica,sans-Serif" font-weight="bold" font-size="11.00" fill="#000000">questionnaire_response</text>
<text text-anchor="start" x="1073.5437" y="-565.19" font-family="Helvetica,sans-Serif" font-size="11.00" fill="#000000">[table]</text>
<polygon fill="none" stroke="#000000" points="809.5,-535.09 809.5,-557.09 997.5,-557.09 997.5,-535.09 809.5,-535.09"/>
<image xlink:href="../../images/primaryKeys.png" width="11px" height="12px" preserveAspectRatio="xMinYMin meet" x="814.5" y="-552.09"/>
<text text-anchor="start" x="829.5" y="-542.19" font-family="Helvetica,sans-Serif" font-size="11.00" fill="#000000">id</text>
<polygon fill="none" stroke="#000000" points="997.5,-535.09 997.5,-557.09 1108.5,-557.09 1108.5,-535.09 997.5,-535.09"/>
<text text-anchor="start" x="1000.5" y="-542.79" font-family="Helvetica,sans-Serif" font-size="11.00" fill="#000000">bigint[19]</text>
<polygon fill="#ffffff" stroke="transparent" points="809.5,-513.09 809.5,-535.09 997.5,-535.09 997.5,-513.09 809.5,-513.09"/>
<polygon fill="none" stroke="#000000" points="809.5,-513.09 809.5,-535.09 997.5,-535.09 997.5,-513.09 809.5,-513.09"/>
<text text-anchor="start" x="829.5" y="-520.19" font-family="Helvetica,sans-Serif" font-size="11.00" fill="#000000">uuid</text>
<polygon fill="none" stroke="#000000" points="997.5,-513.09 997.5,-535.09 1108.5,-535.09 1108.5,-513.09 997.5,-513.09"/>
<text text-anchor="start" x="1000.5" y="-520.79" font-family="Helvetica,sans-Serif" font-size="11.00" fill="#000000">binary[16]</text>
<polygon fill="none" stroke="#000000" points="809.5,-491.09 809.5,-513.09 997.5,-513.09 997.5,-491.09 809.5,-491.09"/>
<image xlink:href="../../images/primaryKeys.png" width="11px" height="12px" preserveAspectRatio="xMinYMin meet" x="814.5" y="-508.09"/>
<text text-anchor="start" x="829.5" y="-498.19" font-family="Helvetica,sans-Serif" font-size="11.00" fill="#000000">response_id</text>
<polygon fill="none" stroke="#000000" points="997.5,-491.09 997.5,-513.09 1108.5,-513.09 1108.5,-491.09 997.5,-491.09"/>
<text text-anchor="start" x="1000.5" y="-498.79" font-family="Helvetica,sans-Serif" font-size="11.00" fill="#000000">varchar[255]</text>
<polygon fill="none" stroke="#000000" points="809.5,-469.09 809.5,-491.09 997.5,-491.09 997.5,-469.09 809.5,-469.09"/>
<image xlink:href="../../images/foreignKeys.png" width="11px" height="12px" preserveAspectRatio="xMinYMin meet" x="814.5" y="-486.09"/>
<text text-anchor="start" x="829.5" y="-476.19" font-family="Helvetica,sans-Serif" font-size="11.00" fill="#000000">questionnaire_foreign_id</text>
<polygon fill="none" stroke="#000000" points="997.5,-469.09 997.5,-491.09 1108.5,-491.09 1108.5,-469.09 997.5,-469.09"/>
<text text-anchor="start" x="1000.5" y="-476.79" font-family="Helvetica,sans-Serif" font-size="11.00" fill="#000000">bigint[19]</text>
<polygon fill="#ffffff" stroke="transparent" points="809.5,-447.09 809.5,-469.09 997.5,-469.09 997.5,-447.09 809.5,-447.09"/>
<polygon fill="none" stroke="#000000" points="809.5,-447.09 809.5,-469.09 997.5,-469.09 997.5,-447.09 809.5,-447.09"/>
<text text-anchor="start" x="829.5" y="-454.19" font-family="Helvetica,sans-Serif" font-size="11.00" fill="#000000">questionnaire_id</text>
<polygon fill="none" stroke="#000000" points="997.5,-447.09 997.5,-469.09 1108.5,-469.09 1108.5,-447.09 997.5,-447.09"/>
<text text-anchor="start" x="1000.5" y="-454.79" font-family="Helvetica,sans-Serif" font-size="11.00" fill="#000000">varchar[255]</text>
<polygon fill="#ffffff" stroke="transparent" points="809.5,-425.09 809.5,-447.09 997.5,-447.09 997.5,-425.09 809.5,-425.09"/>
<polygon fill="none" stroke="#000000" points="809.5,-425.09 809.5,-447.09 997.5,-447.09 997.5,-425.09 809.5,-425.09"/>
<text text-anchor="start" x="829.5" y="-432.19" font-family="Helvetica,sans-Serif" font-size="11.00" fill="#000000">questionnaire_name</text>
<polygon fill="none" stroke="#000000" points="997.5,-425.09 997.5,-447.09 1108.5,-447.09 1108.5,-425.09 997.5,-425.09"/>
<text text-anchor="start" x="1000.5" y="-432.79" font-family="Helvetica,sans-Serif" font-size="11.00" fill="#000000">varchar[255]</text>
<polygon fill="#ffffff" stroke="transparent" points="809.5,-403.09 809.5,-425.09 997.5,-425.09 997.5,-403.09 809.5,-403.09"/>
<polygon fill="none" stroke="#000000" points="809.5,-403.09 809.5,-425.09 997.5,-425.09 997.5,-403.09 809.5,-403.09"/>
<image xlink:href="../../images/foreignKeys.png" width="11px" height="12px" preserveAspectRatio="xMinYMin meet" x="814.5" y="-420.09"/>
<text text-anchor="start" x="829.5" y="-410.19" font-family="Helvetica,sans-Serif" font-size="11.00" fill="#000000">patient_id</text>
<polygon fill="none" stroke="#000000" points="997.5,-403.09 997.5,-425.09 1108.5,-425.09 1108.5,-403.09 997.5,-403.09"/>
<text text-anchor="start" x="1000.5" y="-410.79" font-family="Helvetica,sans-Serif" font-size="11.00" fill="#000000">int[10]</text>
<polygon fill="none" stroke="#000000" points="809.5,-381.09 809.5,-403.09 997.5,-403.09 997.5,-381.09 809.5,-381.09"/>
<image xlink:href="../../images/foreignKeys.png" width="11px" height="12px" preserveAspectRatio="xMinYMin meet" x="814.5" y="-398.09"/>
<text text-anchor="start" x="829.5" y="-388.19" font-family="Helvetica,sans-Serif" font-size="11.00" fill="#000000">encounter</text>
<polygon fill="none" stroke="#000000" points="997.5,-381.09 997.5,-403.09 1108.5,-403.09 1108.5,-381.09 997.5,-381.09"/>
<text text-anchor="start" x="1000.5" y="-388.79" font-family="Helvetica,sans-Serif" font-size="11.00" fill="#000000">int[10]</text>
<polygon fill="none" stroke="#000000" points="809.5,-359.09 809.5,-381.09 997.5,-381.09 997.5,-359.09 809.5,-359.09"/>
<image xlink:href="../../images/foreignKeys.png" width="11px" height="12px" preserveAspectRatio="xMinYMin meet" x="814.5" y="-376.09"/>
<text text-anchor="start" x="829.5" y="-366.19" font-family="Helvetica,sans-Serif" font-size="11.00" fill="#000000">audit_user_id</text>
<polygon fill="none" stroke="#000000" points="997.5,-359.09 997.5,-381.09 1108.5,-381.09 1108.5,-359.09 997.5,-359.09"/>
<text text-anchor="start" x="1000.5" y="-366.79" font-family="Helvetica,sans-Serif" font-size="11.00" fill="#000000">int[10]</text>
<polygon fill="none" stroke="#000000" points="809.5,-337.09 809.5,-359.09 997.5,-359.09 997.5,-337.09 809.5,-337.09"/>
<image xlink:href="../../images/foreignKeys.png" width="11px" height="12px" preserveAspectRatio="xMinYMin meet" x="814.5" y="-354.09"/>
<text text-anchor="start" x="829.5" y="-344.19" font-family="Helvetica,sans-Serif" font-size="11.00" fill="#000000">creator_user_id</text>
<polygon fill="none" stroke="#000000" points="997.5,-337.09 997.5,-359.09 1108.5,-359.09 1108.5,-337.09 997.5,-337.09"/>
<text text-anchor="start" x="1000.5" y="-344.79" font-family="Helvetica,sans-Serif" font-size="11.00" fill="#000000">int[10]</text>
<polygon fill="none" stroke="#000000" points="809.5,-315.09 809.5,-337.09 997.5,-337.09 997.5,-315.09 809.5,-315.09"/>
<text text-anchor="start" x="829.5" y="-322.19" font-family="Helvetica,sans-Serif" font-size="11.00" fill="#000000">create_time</text>
<polygon fill="none" stroke="#000000" points="997.5,-315.09 997.5,-337.09 1108.5,-337.09 1108.5,-315.09 997.5,-315.09"/>
<text text-anchor="start" x="1000.5" y="-322.79" font-family="Helvetica,sans-Serif" font-size="11.00" fill="#000000">datetime[19]</text>
<polygon fill="none" stroke="#000000" points="809.5,-293.09 809.5,-315.09 997.5,-315.09 997.5,-293.09 809.5,-293.09"/>
<text text-anchor="start" x="829.5" y="-300.19" font-family="Helvetica,sans-Serif" font-size="11.00" fill="#000000">last_updated</text>
<polygon fill="none" stroke="#000000" points="997.5,-293.09 997.5,-315.09 1108.5,-315.09 1108.5,-293.09 997.5,-293.09"/>
<text text-anchor="start" x="1000.5" y="-300.79" font-family="Helvetica,sans-Serif" font-size="11.00" fill="#000000">datetime[19]</text>
<polygon fill="none" stroke="#000000" points="809.5,-271.09 809.5,-293.09 997.5,-293.09 997.5,-271.09 809.5,-271.09"/>
<text text-anchor="start" x="829.5" y="-278.19" font-family="Helvetica,sans-Serif" font-size="11.00" fill="#000000">version</text>
<polygon fill="none" stroke="#000000" points="997.5,-271.09 997.5,-293.09 1108.5,-293.09 1108.5,-271.09 997.5,-271.09"/>
<text text-anchor="start" x="1000.5" y="-278.79" font-family="Helvetica,sans-Serif" font-size="11.00" fill="#000000">int[10]</text>
<polygon fill="none" stroke="#000000" points="809.5,-249.09 809.5,-271.09 997.5,-271.09 997.5,-249.09 809.5,-249.09"/>
<text text-anchor="start" x="829.5" y="-256.19" font-family="Helvetica,sans-Serif" font-size="11.00" fill="#000000">status</text>
<polygon fill="none" stroke="#000000" points="997.5,-249.09 997.5,-271.09 1108.5,-271.09 1108.5,-249.09 997.5,-249.09"/>
<text text-anchor="start" x="1000.5" y="-256.79" font-family="Helvetica,sans-Serif" font-size="11.00" fill="#000000">varchar[63]</text>
<polygon fill="none" stroke="#000000" points="809.5,-227.09 809.5,-249.09 997.5,-249.09 997.5,-227.09 809.5,-227.09"/>
<text text-anchor="start" x="829.5" y="-234.19" font-family="Helvetica,sans-Serif" font-size="11.00" fill="#000000">questionnaire</text>
<polygon fill="none" stroke="#000000" points="997.5,-227.09 997.5,-249.09 1108.5,-249.09 1108.5,-227.09 997.5,-227.09"/>
<text text-anchor="start" x="1000.1115" y="-234.79" font-family="Helvetica,sans-Serif" font-size="11.00" fill="#000000">longtext[2147483647]</text>
<polygon fill="none" stroke="#000000" points="809.5,-205.09 809.5,-227.09 997.5,-227.09 997.5,-205.09 809.5,-205.09"/>
<text text-anchor="start" x="829.5" y="-212.19" font-family="Helvetica,sans-Serif" font-size="11.00" fill="#000000">questionnaire_response</text>
<polygon fill="none" stroke="#000000" points="997.5,-205.09 997.5,-227.09 1108.5,-227.09 1108.5,-205.09 997.5,-205.09"/>
<text text-anchor="start" x="1000.1115" y="-212.79" font-family="Helvetica,sans-Serif" font-size="11.00" fill="#000000">longtext[2147483647]</text>
<polygon fill="none" stroke="#000000" points="809.5,-183.09 809.5,-205.09 997.5,-205.09 997.5,-183.09 809.5,-183.09"/>
<text text-anchor="start" x="829.5" y="-190.19" font-family="Helvetica,sans-Serif" font-size="11.00" fill="#000000">form_response</text>
<polygon fill="none" stroke="#000000" points="997.5,-183.09 997.5,-205.09 1108.5,-205.09 1108.5,-183.09 997.5,-183.09"/>
<text text-anchor="start" x="1000.1115" y="-190.79" font-family="Helvetica,sans-Serif" font-size="11.00" fill="#000000">longtext[2147483647]</text>
<polygon fill="none" stroke="#000000" points="809.5,-161.09 809.5,-183.09 997.5,-183.09 997.5,-161.09 809.5,-161.09"/>
<text text-anchor="start" x="829.5" y="-168.19" font-family="Helvetica,sans-Serif" font-size="11.00" fill="#000000">form_score</text>
<polygon fill="none" stroke="#000000" points="997.5,-161.09 997.5,-183.09 1108.5,-183.09 1108.5,-161.09 997.5,-161.09"/>
<text text-anchor="start" x="1000.5" y="-168.79" font-family="Helvetica,sans-Serif" font-size="11.00" fill="#000000">int[10]</text>
<polygon fill="none" stroke="#000000" points="809.5,-139.09 809.5,-161.09 997.5,-161.09 997.5,-139.09 809.5,-139.09"/>
<text text-anchor="start" x="829.5" y="-146.19" font-family="Helvetica,sans-Serif" font-size="11.00" fill="#000000">tscore</text>
<polygon fill="none" stroke="#000000" points="997.5,-139.09 997.5,-161.09 1108.5,-161.09 1108.5,-139.09 997.5,-139.09"/>
<text text-anchor="start" x="1000.5" y="-146.79" font-family="Helvetica,sans-Serif" font-size="11.00" fill="#000000">double[22]</text>
<polygon fill="none" stroke="#000000" points="809.5,-117.09 809.5,-139.09 997.5,-139.09 997.5,-117.09 809.5,-117.09"/>
<text text-anchor="start" x="829.5" y="-124.19" font-family="Helvetica,sans-Serif" font-size="11.00" fill="#000000">error</text>
<polygon fill="none" stroke="#000000" points="997.5,-117.09 997.5,-139.09 1108.5,-139.09 1108.5,-117.09 997.5,-117.09"/>
<text text-anchor="start" x="1000.5" y="-124.79" font-family="Helvetica,sans-Serif" font-size="11.00" fill="#000000">double[22]</text>
<polygon fill="#ffffff" stroke="transparent" points="809.5,-98.09 809.5,-117.09 907.5,-117.09 907.5,-98.09 809.5,-98.09"/>
<polygon fill="none" stroke="#000000" points="809.5,-98.09 809.5,-117.09 907.5,-117.09 907.5,-98.09 809.5,-98.09"/>
<text text-anchor="start" x="812.5" y="-104.19" font-family="Helvetica,sans-Serif" font-size="11.00" fill="#000000">&lt; 5</text>
<polygon fill="#ffffff" stroke="transparent" points="907.5,-98.09 907.5,-117.09 997.5,-117.09 997.5,-98.09 907.5,-98.09"/>
<polygon fill="none" stroke="#000000" points="907.5,-98.09 907.5,-117.09 997.5,-117.09 997.5,-98.09 907.5,-98.09"/>
<text text-anchor="start" x="988.3862" y="-104.19" font-family="Helvetica,sans-Serif" font-size="11.00" fill="#000000"> &#160;</text>
<polygon fill="#ffffff" stroke="transparent" points="997.5,-98.09 997.5,-117.09 1108.5,-117.09 1108.5,-98.09 997.5,-98.09"/>
<polygon fill="none" stroke="#000000" points="997.5,-98.09 997.5,-117.09 1108.5,-117.09 1108.5,-98.09 997.5,-98.09"/>
<text text-anchor="start" x="1089.9053" y="-104.19" font-family="Helvetica,sans-Serif" font-size="11.00" fill="#000000">1 &gt;</text>
<polygon fill="none" stroke="#000000" stroke-width="2" points="808,-97.09 808,-581.09 1109,-581.09 1109,-97.09 808,-97.09"/>
</a>
</g>
</g>
<!-- form_questionnaire_assessments&#45;&gt;questionnaire_response -->
<g id="edge4" class="edge">
<title>form_questionnaire_assessments:w&#45;&gt;questionnaire_response:e</title>
<path fill="none" stroke="#000000" d="M1145.5177,-574.5039C1126.094,-557.9272 1143.4549,-502.09 1108.5,-502.09"/>
<polygon fill="#000000" stroke="#000000" points="1151.8984,-576.5967 1158.378,-582.5107 1155.6992,-577.8434 1159.5,-579.09 1159.5,-579.09 1159.5,-579.09 1155.6992,-577.8434 1160.622,-575.6693 1151.8984,-576.5967 1151.8984,-576.5967"/>
<ellipse fill="none" stroke="#000000" cx="1148.8578" cy="-575.5994" rx="3.2" ry="3.2"/>
</g>
<!-- form_questionnaire_assessments&#45;&gt;users -->
<g id="edge5" class="edge">
<title>form_questionnaire_assessments:w&#45;&gt;users:e</title>
<path fill="none" stroke="#000000" d="M1145.0475,-531.7737C1073.016,-494.2139 1188.1419,-149.0609 1118,-85.09 965.5676,53.9316 301.5174,-129.3231 216,-203.09 175.919,-237.6637 228.4323,-315.09 175.5,-315.09"/>
<polygon fill="#000000" stroke="#000000" points="1151.7026,-533.3008 1158.6948,-538.5988 1155.6013,-534.1954 1159.5,-535.09 1159.5,-535.09 1159.5,-535.09 1155.6013,-534.1954 1160.3052,-531.5812 1151.7026,-533.3008 1151.7026,-533.3008"/>
<ellipse fill="none" stroke="#000000" cx="1148.5837" cy="-532.5851" rx="3.2" ry="3.2"/>
</g>
<!-- questionnaire_response&#45;&gt;form_encounter -->
<g id="edge13" class="edge">
<title>questionnaire_response:w&#45;&gt;form_encounter:e</title>
<path fill="none" stroke="#000000" d="M795.5174,-387.8456C773.0886,-370.2673 797.2979,-304.09 758,-304.09"/>
<polygon fill="#000000" stroke="#000000" points="801.8449,-389.7663 808.4543,-395.5348 805.6725,-390.9281 809.5,-392.09 809.5,-392.09 809.5,-392.09 805.6725,-390.9281 810.5457,-388.6452 801.8449,-389.7663 801.8449,-389.7663"/>
<ellipse fill="none" stroke="#000000" cx="798.7829" cy="-388.8368" rx="3.2" ry="3.2"/>
</g>
<!-- questionnaire_response&#45;&gt;patient_data -->
<g id="edge14" class="edge">
<title>questionnaire_response:w&#45;&gt;patient_data:e</title>
<path fill="none" stroke="#000000" d="M795.2006,-417.6265C785.756,-423.0791 781.2561,-433.305 766,-437.09 669.3738,-461.0626 638.2543,-462.5146 542,-437.09 521.9863,-431.8036 522.2001,-414.09 501.5,-414.09"/>
<polygon fill="#000000" stroke="#000000" points="801.734,-416.0107 810.3643,-417.5847 805.617,-415.0504 809.5,-414.09 809.5,-414.09 809.5,-414.09 805.617,-415.0504 808.6357,-410.5953 801.734,-416.0107 801.734,-416.0107"/>
<ellipse fill="none" stroke="#000000" cx="798.6276" cy="-416.779" rx="3.2" ry="3.2"/>
</g>
<!-- questionnaire_response&#45;&gt;questionnaire_repository -->
<g id="edge15" class="edge">
<title>questionnaire_response:w&#45;&gt;questionnaire_repository:e</title>
<path fill="none" stroke="#000000" d="M795.1856,-483.353C759.2774,-503.6799 815.0699,-612.09 758,-612.09"/>
<polygon fill="#000000" stroke="#000000" points="801.7001,-481.868 810.3001,-483.6 805.6,-480.979 809.5,-480.09 809.5,-480.09 809.5,-480.09 805.6,-480.979 808.6999,-476.58 801.7001,-481.868 801.7001,-481.868"/>
<ellipse fill="none" stroke="#000000" cx="798.5801" cy="-482.5792" rx="3.2" ry="3.2"/>
</g>
<!-- questionnaire_response&#45;&gt;users -->
<g id="edge11" class="edge">
<title>questionnaire_response:w&#45;&gt;users:e</title>
<path fill="none" stroke="#000000" d="M795.1109,-367.4313C762.3808,-352.2083 809.0756,-275.7091 766,-245.09 716.1904,-209.6842 265.9238,-209.8454 216,-245.09 172.0742,-276.1002 229.2691,-359.09 175.5,-359.09"/>
<polygon fill="#000000" stroke="#000000" points="801.6332,-368.6364 808.8459,-373.6301 805.5666,-369.3632 809.5,-370.09 809.5,-370.09 809.5,-370.09 805.5666,-369.3632 810.1541,-366.5499 801.6332,-368.6364 801.6332,-368.6364"/>
<ellipse fill="none" stroke="#000000" cx="798.4864" cy="-368.055" rx="3.2" ry="3.2"/>
</g>
<!-- questionnaire_response&#45;&gt;users -->
<g id="edge12" class="edge">
<title>questionnaire_response:w&#45;&gt;users:e</title>
<path fill="none" stroke="#000000" d="M794.8919,-345.4965C759.9321,-329.9652 811.0976,-248.8455 766,-216.09 749.4295,-204.0545 231.3437,-203.4664 216,-215.09 163.0062,-255.2354 241.9831,-359.09 175.5,-359.09"/>
<polygon fill="#000000" stroke="#000000" points="801.6232,-346.6915 808.8707,-351.6346 805.5616,-347.3908 809.5,-348.09 809.5,-348.09 809.5,-348.09 805.5616,-347.3908 810.1293,-344.5454 801.6232,-346.6915 801.6232,-346.6915"/>
<ellipse fill="none" stroke="#000000" cx="798.4725" cy="-346.1321" rx="3.2" ry="3.2"/>
</g>
</g>
</svg>
