<?xml version="1.0" encoding="UTF-8" standalone="no"?>
<!DOCTYPE svg PUBLIC "-//W3C//DTD SVG 1.1//EN"
 "http://www.w3.org/Graphics/SVG/1.1/DTD/svg11.dtd">
<!-- Generated by graphviz version 2.40.1 (20161225.0304)
 -->
<!-- Title: oneDegreeRelationshipsDiagram Pages: 1 -->
<svg width="1089pt" height="803pt"
 viewBox="0.00 0.00 1089.00 803.29" xmlns="http://www.w3.org/2000/svg" xmlns:xlink="http://www.w3.org/1999/xlink">
<g id="graph0" class="graph" transform="scale(1 1) rotate(0) translate(4 799.2922)">
<title>oneDegreeRelationshipsDiagram</title>
<polygon fill="#ffffff" stroke="transparent" points="-4,4 -4,-799.2922 1085,-799.2922 1085,4 -4,4"/>
<text text-anchor="middle" x="72.4936" y="-7.3" font-family="Helvetica,sans-Serif" font-size="11.00" fill="#000000">Generated by SchemaSpy</text>
<!-- form_observation -->
<g id="node1" class="node">
<title>form_observation</title>
<g id="a_node1"><a xlink:href="../../tables/form_observation.html" xlink:title="form_observation" target="_top">
<polygon fill="#ffffff" stroke="transparent" points="543,-510.2922 543,-791.2922 761,-791.2922 761,-510.2922 543,-510.2922"/>
<polygon fill="#f5f5f5" stroke="transparent" points="543,-767.7922 543,-790.7922 761,-790.7922 761,-767.7922 543,-767.7922"/>
<polygon fill="none" stroke="#000000" points="543,-767.7922 543,-790.7922 761,-790.7922 761,-767.7922 543,-767.7922"/>
<text text-anchor="start" x="548" y="-776.3922" font-family="Helvetica,sans-Serif" font-weight="bold" font-size="11.00" fill="#000000">form_observation</text>
<text text-anchor="start" x="726.0437" y="-775.8922" font-family="Helvetica,sans-Serif" font-size="11.00" fill="#000000">[table]</text>
<polygon fill="none" stroke="#000000" points="543,-745.7922 543,-767.7922 761,-767.7922 761,-745.7922 543,-745.7922"/>
<image xlink:href="../../images/primaryKeys.png" width="11px" height="12px" preserveAspectRatio="xMinYMin meet" x="548" y="-762.792"/>
<text text-anchor="start" x="563" y="-752.8922" font-family="Helvetica,sans-Serif" font-size="11.00" fill="#000000">id</text>
<polygon fill="#ffffff" stroke="transparent" points="543,-723.7922 543,-745.7922 761,-745.7922 761,-723.7922 543,-723.7922"/>
<polygon fill="none" stroke="#000000" points="543,-723.7922 543,-745.7922 761,-745.7922 761,-723.7922 543,-723.7922"/>
<image xlink:href="../../images/foreignKeys.png" width="11px" height="12px" preserveAspectRatio="xMinYMin meet" x="548" y="-740.792"/>
<text text-anchor="start" x="563" y="-730.8922" font-family="Helvetica,sans-Serif" font-size="11.00" fill="#000000">form_id</text>
<polygon fill="#ffffff" stroke="transparent" points="543,-701.7922 543,-723.7922 761,-723.7922 761,-701.7922 543,-701.7922"/>
<polygon fill="none" stroke="#000000" points="543,-701.7922 543,-723.7922 761,-723.7922 761,-701.7922 543,-701.7922"/>
<text text-anchor="start" x="563" y="-708.8922" font-family="Helvetica,sans-Serif" font-size="11.00" fill="#000000">date</text>
<polygon fill="#ffffff" stroke="transparent" points="543,-679.7922 543,-701.7922 761,-701.7922 761,-679.7922 543,-679.7922"/>
<polygon fill="none" stroke="#000000" points="543,-679.7922 543,-701.7922 761,-701.7922 761,-679.7922 543,-679.7922"/>
<image xlink:href="../../images/foreignKeys.png" width="11px" height="12px" preserveAspectRatio="xMinYMin meet" x="548" y="-696.792"/>
<text text-anchor="start" x="563" y="-686.8922" font-family="Helvetica,sans-Serif" font-size="11.00" fill="#000000">pid</text>
<polygon fill="#ffffff" stroke="transparent" points="543,-657.7922 543,-679.7922 761,-679.7922 761,-657.7922 543,-657.7922"/>
<polygon fill="none" stroke="#000000" points="543,-657.7922 543,-679.7922 761,-679.7922 761,-657.7922 543,-657.7922"/>
<image xlink:href="../../images/foreignKeys.png" width="11px" height="12px" preserveAspectRatio="xMinYMin meet" x="548" y="-674.792"/>
<text text-anchor="start" x="563" y="-664.8922" font-family="Helvetica,sans-Serif" font-size="11.00" fill="#000000">encounter</text>
<polygon fill="none" stroke="#000000" points="543,-635.7922 543,-657.7922 761,-657.7922 761,-635.7922 543,-635.7922"/>
<image xlink:href="../../images/foreignKeys.png" width="11px" height="12px" preserveAspectRatio="xMinYMin meet" x="548" y="-652.792"/>
<text text-anchor="start" x="563" y="-642.8922" font-family="Helvetica,sans-Serif" font-size="11.00" fill="#000000">user</text>
<polygon fill="none" stroke="#000000" points="543,-613.7922 543,-635.7922 761,-635.7922 761,-613.7922 543,-613.7922"/>
<image xlink:href="../../images/foreignKeys.png" width="11px" height="12px" preserveAspectRatio="xMinYMin meet" x="548" y="-630.792"/>
<text text-anchor="start" x="563" y="-620.8922" font-family="Helvetica,sans-Serif" font-size="11.00" fill="#000000">ob_status</text>
<polygon fill="#ffffff" stroke="transparent" points="543,-591.7922 543,-613.7922 761,-613.7922 761,-591.7922 543,-591.7922"/>
<polygon fill="none" stroke="#000000" points="543,-591.7922 543,-613.7922 761,-613.7922 761,-591.7922 543,-591.7922"/>
<image xlink:href="../../images/foreignKeys.png" width="11px" height="12px" preserveAspectRatio="xMinYMin meet" x="548" y="-608.792"/>
<text text-anchor="start" x="563" y="-598.8922" font-family="Helvetica,sans-Serif" font-size="11.00" fill="#000000">parent_observation_id</text>
<polygon fill="#ffffff" stroke="transparent" points="543,-569.7922 543,-591.7922 761,-591.7922 761,-569.7922 543,-569.7922"/>
<polygon fill="none" stroke="#000000" points="543,-569.7922 543,-591.7922 761,-591.7922 761,-569.7922 543,-569.7922"/>
<image xlink:href="../../images/foreignKeys.png" width="11px" height="12px" preserveAspectRatio="xMinYMin meet" x="548" y="-586.792"/>
<text text-anchor="start" x="563" y="-576.8922" font-family="Helvetica,sans-Serif" font-size="11.00" fill="#000000">category</text>
<polygon fill="#ffffff" stroke="transparent" points="543,-547.7922 543,-569.7922 761,-569.7922 761,-547.7922 543,-547.7922"/>
<polygon fill="none" stroke="#000000" points="543,-547.7922 543,-569.7922 761,-569.7922 761,-547.7922 543,-547.7922"/>
<image xlink:href="../../images/foreignKeys.png" width="11px" height="12px" preserveAspectRatio="xMinYMin meet" x="548" y="-564.792"/>
<text text-anchor="start" x="563" y="-554.8922" font-family="Helvetica,sans-Serif" font-size="11.00" fill="#000000">questionnaire_response_id</text>
<polygon fill="none" stroke="#000000" points="543,-528.7922 543,-547.7922 761,-547.7922 761,-528.7922 543,-528.7922"/>
<text text-anchor="start" x="546" y="-534.8922" font-family="Helvetica,sans-Serif" font-size="11.00" fill="#000000">...</text>
<polygon fill="#ffffff" stroke="transparent" points="543,-509.7922 543,-528.7922 650,-528.7922 650,-509.7922 543,-509.7922"/>
<polygon fill="none" stroke="#000000" points="543,-509.7922 543,-528.7922 650,-528.7922 650,-509.7922 543,-509.7922"/>
<text text-anchor="start" x="546" y="-515.8922" font-family="Helvetica,sans-Serif" font-size="11.00" fill="#000000">&lt; 8</text>
<polygon fill="#ffffff" stroke="transparent" points="650,-509.7922 650,-528.7922 705,-528.7922 705,-509.7922 650,-509.7922"/>
<polygon fill="none" stroke="#000000" points="650,-509.7922 650,-528.7922 705,-528.7922 705,-509.7922 650,-509.7922"/>
<text text-anchor="start" x="695.8862" y="-515.8922" font-family="Helvetica,sans-Serif" font-size="11.00" fill="#000000"> &#160;</text>
<polygon fill="#ffffff" stroke="transparent" points="705,-509.7922 705,-528.7922 761,-528.7922 761,-509.7922 705,-509.7922"/>
<polygon fill="none" stroke="#000000" points="705,-509.7922 705,-528.7922 761,-528.7922 761,-509.7922 705,-509.7922"/>
<text text-anchor="start" x="751.8862" y="-515.8922" font-family="Helvetica,sans-Serif" font-size="11.00" fill="#000000"> &#160;</text>
</a>
</g>
</g>
<!-- list_options -->
<g id="node2" class="node">
<title>list_options</title>
<g id="a_node2"><a xlink:href="../../tables/list_options.html" xlink:title="list_options" target="_top">
<polygon fill="#ffffff" stroke="transparent" points="8,-319.2922 8,-424.2922 140,-424.2922 140,-319.2922 8,-319.2922"/>
<polygon fill="#f5f5f5" stroke="transparent" points="8,-400.7922 8,-423.7922 140,-423.7922 140,-400.7922 8,-400.7922"/>
<polygon fill="none" stroke="#000000" points="8,-400.7922 8,-423.7922 140,-423.7922 140,-400.7922 8,-400.7922"/>
<text text-anchor="start" x="13" y="-409.3922" font-family="Helvetica,sans-Serif" font-weight="bold" font-size="11.00" fill="#000000">list_options</text>
<text text-anchor="start" x="105.0437" y="-408.8922" font-family="Helvetica,sans-Serif" font-size="11.00" fill="#000000">[table]</text>
<polygon fill="none" stroke="#000000" points="8,-378.7922 8,-400.7922 140,-400.7922 140,-378.7922 8,-378.7922"/>
<image xlink:href="../../images/primaryKeys.png" width="11px" height="12px" preserveAspectRatio="xMinYMin meet" x="13" y="-395.792"/>
<text text-anchor="start" x="28" y="-385.8922" font-family="Helvetica,sans-Serif" font-size="11.00" fill="#000000">list_id</text>
<polygon fill="none" stroke="#000000" points="8,-356.7922 8,-378.7922 140,-378.7922 140,-356.7922 8,-356.7922"/>
<image xlink:href="../../images/primaryKeys.png" width="11px" height="12px" preserveAspectRatio="xMinYMin meet" x="13" y="-373.792"/>
<text text-anchor="start" x="28" y="-363.8922" font-family="Helvetica,sans-Serif" font-size="11.00" fill="#000000">option_id</text>
<polygon fill="none" stroke="#000000" points="8,-337.7922 8,-356.7922 140,-356.7922 140,-337.7922 8,-337.7922"/>
<text text-anchor="start" x="11" y="-343.8922" font-family="Helvetica,sans-Serif" font-size="11.00" fill="#000000">...</text>
<polygon fill="#ffffff" stroke="transparent" points="8,-318.7922 8,-337.7922 60,-337.7922 60,-318.7922 8,-318.7922"/>
<polygon fill="none" stroke="#000000" points="8,-318.7922 8,-337.7922 60,-337.7922 60,-318.7922 8,-318.7922"/>
<text text-anchor="start" x="11" y="-324.8922" font-family="Helvetica,sans-Serif" font-size="11.00" fill="#000000"> &#160;</text>
<polygon fill="#ffffff" stroke="transparent" points="60,-318.7922 60,-337.7922 92,-337.7922 92,-318.7922 60,-318.7922"/>
<polygon fill="none" stroke="#000000" points="60,-318.7922 60,-337.7922 92,-337.7922 92,-318.7922 60,-318.7922"/>
<text text-anchor="start" x="82.8862" y="-324.8922" font-family="Helvetica,sans-Serif" font-size="11.00" fill="#000000"> &#160;</text>
<polygon fill="#ffffff" stroke="transparent" points="92,-318.7922 92,-337.7922 140,-337.7922 140,-318.7922 92,-318.7922"/>
<polygon fill="none" stroke="#000000" points="92,-318.7922 92,-337.7922 140,-337.7922 140,-318.7922 92,-318.7922"/>
<text text-anchor="start" x="115.2904" y="-324.8922" font-family="Helvetica,sans-Serif" font-size="11.00" fill="#000000">98 &gt;</text>
</a>
</g>
</g>
<!-- form_observation&#45;&gt;list_options -->
<g id="edge1" class="edge">
<title>form_observation:w&#45;&gt;list_options:e</title>
<path fill="none" stroke="#000000" d="M528.5956,-581.1534C438.9509,-585.1861 239.2462,-620.7189 181,-571.7922 110.1877,-512.3102 232.4797,-367.7922 140,-367.7922"/>
<polygon fill="#000000" stroke="#000000" points="535.0025,-580.9928 543.0903,-584.3911 539.0013,-580.8925 543,-580.7922 543,-580.7922 543,-580.7922 539.0013,-580.8925 542.9097,-577.1934 535.0025,-580.9928 535.0025,-580.9928"/>
<ellipse fill="none" stroke="#000000" cx="531.8035" cy="-581.0731" rx="3.2" ry="3.2"/>
</g>
<!-- form_observation&#45;&gt;list_options -->
<g id="edge2" class="edge">
<title>form_observation:w&#45;&gt;list_options:e</title>
<path fill="none" stroke="#000000" d="M528.5522,-624.9985C376.5768,-629.3253 296.8072,-699.191 181,-593.7922 105.5028,-525.0805 242.084,-367.7922 140,-367.7922"/>
<polygon fill="#000000" stroke="#000000" points="535.0008,-624.9065 543.0514,-628.3919 539.0004,-624.8494 543,-624.7922 543,-624.7922 543,-624.7922 539.0004,-624.8494 542.9486,-621.1926 535.0008,-624.9065 535.0008,-624.9065"/>
<ellipse fill="none" stroke="#000000" cx="531.8011" cy="-624.9522" rx="3.2" ry="3.2"/>
</g>
<!-- questionnaire_repository -->
<g id="node3" class="node">
<title>questionnaire_repository</title>
<g id="a_node3"><a xlink:href="../../tables/questionnaire_repository.html" xlink:title="questionnaire_repository" target="_top">
<polygon fill="#ffffff" stroke="transparent" points="189,-118.7922 189,-560.7922 494,-560.7922 494,-118.7922 189,-118.7922"/>
<polygon fill="#f5f5f5" stroke="transparent" points="191.5,-535.7922 191.5,-558.7922 492.5,-558.7922 492.5,-535.7922 191.5,-535.7922"/>
<polygon fill="none" stroke="#000000" points="191.5,-535.7922 191.5,-558.7922 492.5,-558.7922 492.5,-535.7922 191.5,-535.7922"/>
<text text-anchor="start" x="196.5" y="-544.3922" font-family="Helvetica,sans-Serif" font-weight="bold" font-size="11.00" fill="#000000">questionnaire_repository</text>
<text text-anchor="start" x="457.5437" y="-543.8922" font-family="Helvetica,sans-Serif" font-size="11.00" fill="#000000">[table]</text>
<polygon fill="none" stroke="#000000" points="191.5,-513.7922 191.5,-535.7922 381.5,-535.7922 381.5,-513.7922 191.5,-513.7922"/>
<image xlink:href="../../images/primaryKeys.png" width="11px" height="12px" preserveAspectRatio="xMinYMin meet" x="196.5" y="-530.792"/>
<text text-anchor="start" x="211.5" y="-520.8922" font-family="Helvetica,sans-Serif" font-size="11.00" fill="#000000">id</text>
<polygon fill="none" stroke="#000000" points="381.5,-513.7922 381.5,-535.7922 492.5,-535.7922 492.5,-513.7922 381.5,-513.7922"/>
<text text-anchor="start" x="384.5" y="-521.4922" font-family="Helvetica,sans-Serif" font-size="11.00" fill="#000000">bigint unsigned[20]</text>
<polygon fill="#ffffff" stroke="transparent" points="191.5,-491.7922 191.5,-513.7922 381.5,-513.7922 381.5,-491.7922 191.5,-491.7922"/>
<polygon fill="none" stroke="#000000" points="191.5,-491.7922 191.5,-513.7922 381.5,-513.7922 381.5,-491.7922 191.5,-491.7922"/>
<text text-anchor="start" x="211.5" y="-498.8922" font-family="Helvetica,sans-Serif" font-size="11.00" fill="#000000">uuid</text>
<polygon fill="none" stroke="#000000" points="381.5,-491.7922 381.5,-513.7922 492.5,-513.7922 492.5,-491.7922 381.5,-491.7922"/>
<text text-anchor="start" x="384.5" y="-499.4922" font-family="Helvetica,sans-Serif" font-size="11.00" fill="#000000">binary[16]</text>
<polygon fill="none" stroke="#000000" points="191.5,-469.7922 191.5,-491.7922 381.5,-491.7922 381.5,-469.7922 191.5,-469.7922"/>
<image xlink:href="../../images/primaryKeys.png" width="11px" height="12px" preserveAspectRatio="xMinYMin meet" x="196.5" y="-486.792"/>
<text text-anchor="start" x="211.5" y="-476.8922" font-family="Helvetica,sans-Serif" font-size="11.00" fill="#000000">questionnaire_id</text>
<polygon fill="none" stroke="#000000" points="381.5,-469.7922 381.5,-491.7922 492.5,-491.7922 492.5,-469.7922 381.5,-469.7922"/>
<text text-anchor="start" x="384.5" y="-477.4922" font-family="Helvetica,sans-Serif" font-size="11.00" fill="#000000">varchar[255]</text>
<polygon fill="none" stroke="#000000" points="191.5,-447.7922 191.5,-469.7922 381.5,-469.7922 381.5,-447.7922 191.5,-447.7922"/>
<text text-anchor="start" x="211.5" y="-454.8922" font-family="Helvetica,sans-Serif" font-size="11.00" fill="#000000">provider</text>
<polygon fill="none" stroke="#000000" points="381.5,-447.7922 381.5,-469.7922 492.5,-469.7922 492.5,-447.7922 381.5,-447.7922"/>
<text text-anchor="start" x="384.5" y="-455.4922" font-family="Helvetica,sans-Serif" font-size="11.00" fill="#000000">int unsigned[10]</text>
<polygon fill="none" stroke="#000000" points="191.5,-425.7922 191.5,-447.7922 381.5,-447.7922 381.5,-425.7922 191.5,-425.7922"/>
<text text-anchor="start" x="211.5" y="-432.8922" font-family="Helvetica,sans-Serif" font-size="11.00" fill="#000000">version</text>
<polygon fill="none" stroke="#000000" points="381.5,-425.7922 381.5,-447.7922 492.5,-447.7922 492.5,-425.7922 381.5,-425.7922"/>
<text text-anchor="start" x="384.5" y="-433.4922" font-family="Helvetica,sans-Serif" font-size="11.00" fill="#000000">int[10]</text>
<polygon fill="none" stroke="#000000" points="191.5,-403.7922 191.5,-425.7922 381.5,-425.7922 381.5,-403.7922 191.5,-403.7922"/>
<text text-anchor="start" x="211.5" y="-410.8922" font-family="Helvetica,sans-Serif" font-size="11.00" fill="#000000">created_date</text>
<polygon fill="none" stroke="#000000" points="381.5,-403.7922 381.5,-425.7922 492.5,-425.7922 492.5,-403.7922 381.5,-403.7922"/>
<text text-anchor="start" x="384.5" y="-411.4922" font-family="Helvetica,sans-Serif" font-size="11.00" fill="#000000">datetime[19]</text>
<polygon fill="none" stroke="#000000" points="191.5,-381.7922 191.5,-403.7922 381.5,-403.7922 381.5,-381.7922 191.5,-381.7922"/>
<text text-anchor="start" x="211.5" y="-388.8922" font-family="Helvetica,sans-Serif" font-size="11.00" fill="#000000">modified_date</text>
<polygon fill="none" stroke="#000000" points="381.5,-381.7922 381.5,-403.7922 492.5,-403.7922 492.5,-381.7922 381.5,-381.7922"/>
<text text-anchor="start" x="384.5" y="-389.4922" font-family="Helvetica,sans-Serif" font-size="11.00" fill="#000000">datetime[19]</text>
<polygon fill="#ffffff" stroke="transparent" points="191.5,-359.7922 191.5,-381.7922 381.5,-381.7922 381.5,-359.7922 191.5,-359.7922"/>
<polygon fill="none" stroke="#000000" points="191.5,-359.7922 191.5,-381.7922 381.5,-381.7922 381.5,-359.7922 191.5,-359.7922"/>
<text text-anchor="start" x="211.5" y="-366.8922" font-family="Helvetica,sans-Serif" font-size="11.00" fill="#000000">name</text>
<polygon fill="none" stroke="#000000" points="381.5,-359.7922 381.5,-381.7922 492.5,-381.7922 492.5,-359.7922 381.5,-359.7922"/>
<text text-anchor="start" x="384.5" y="-367.4922" font-family="Helvetica,sans-Serif" font-size="11.00" fill="#000000">varchar[255]</text>
<polygon fill="none" stroke="#000000" points="191.5,-337.7922 191.5,-359.7922 381.5,-359.7922 381.5,-337.7922 191.5,-337.7922"/>
<text text-anchor="start" x="211.5" y="-344.8922" font-family="Helvetica,sans-Serif" font-size="11.00" fill="#000000">type</text>
<polygon fill="none" stroke="#000000" points="381.5,-337.7922 381.5,-359.7922 492.5,-359.7922 492.5,-337.7922 381.5,-337.7922"/>
<text text-anchor="start" x="384.5" y="-345.4922" font-family="Helvetica,sans-Serif" font-size="11.00" fill="#000000">varchar[63]</text>
<polygon fill="none" stroke="#000000" points="191.5,-315.7922 191.5,-337.7922 381.5,-337.7922 381.5,-315.7922 191.5,-315.7922"/>
<text text-anchor="start" x="211.5" y="-322.8922" font-family="Helvetica,sans-Serif" font-size="11.00" fill="#000000">profile</text>
<polygon fill="none" stroke="#000000" points="381.5,-315.7922 381.5,-337.7922 492.5,-337.7922 492.5,-315.7922 381.5,-315.7922"/>
<text text-anchor="start" x="384.5" y="-323.4922" font-family="Helvetica,sans-Serif" font-size="11.00" fill="#000000">varchar[255]</text>
<polygon fill="none" stroke="#000000" points="191.5,-293.7922 191.5,-315.7922 381.5,-315.7922 381.5,-293.7922 191.5,-293.7922"/>
<text text-anchor="start" x="211.5" y="-300.8922" font-family="Helvetica,sans-Serif" font-size="11.00" fill="#000000">active</text>
<polygon fill="none" stroke="#000000" points="381.5,-293.7922 381.5,-315.7922 492.5,-315.7922 492.5,-293.7922 381.5,-293.7922"/>
<text text-anchor="start" x="384.5" y="-301.4922" font-family="Helvetica,sans-Serif" font-size="11.00" fill="#000000">boolean[3]</text>
<polygon fill="none" stroke="#000000" points="191.5,-271.7922 191.5,-293.7922 381.5,-293.7922 381.5,-271.7922 191.5,-271.7922"/>
<text text-anchor="start" x="211.5" y="-278.8922" font-family="Helvetica,sans-Serif" font-size="11.00" fill="#000000">status</text>
<polygon fill="none" stroke="#000000" points="381.5,-271.7922 381.5,-293.7922 492.5,-293.7922 492.5,-271.7922 381.5,-271.7922"/>
<text text-anchor="start" x="384.5" y="-279.4922" font-family="Helvetica,sans-Serif" font-size="11.00" fill="#000000">varchar[31]</text>
<polygon fill="none" stroke="#000000" points="191.5,-249.7922 191.5,-271.7922 381.5,-271.7922 381.5,-249.7922 191.5,-249.7922"/>
<text text-anchor="start" x="211.5" y="-256.8922" font-family="Helvetica,sans-Serif" font-size="11.00" fill="#000000">source_url</text>
<polygon fill="none" stroke="#000000" points="381.5,-249.7922 381.5,-271.7922 492.5,-271.7922 492.5,-249.7922 381.5,-249.7922"/>
<text text-anchor="start" x="384.5" y="-257.4922" font-family="Helvetica,sans-Serif" font-size="11.00" fill="#000000">text[65535]</text>
<polygon fill="none" stroke="#000000" points="191.5,-227.7922 191.5,-249.7922 381.5,-249.7922 381.5,-227.7922 191.5,-227.7922"/>
<text text-anchor="start" x="211.5" y="-234.8922" font-family="Helvetica,sans-Serif" font-size="11.00" fill="#000000">code</text>
<polygon fill="none" stroke="#000000" points="381.5,-227.7922 381.5,-249.7922 492.5,-249.7922 492.5,-227.7922 381.5,-227.7922"/>
<text text-anchor="start" x="384.5" y="-235.4922" font-family="Helvetica,sans-Serif" font-size="11.00" fill="#000000">varchar[255]</text>
<polygon fill="none" stroke="#000000" points="191.5,-205.7922 191.5,-227.7922 381.5,-227.7922 381.5,-205.7922 191.5,-205.7922"/>
<text text-anchor="start" x="211.5" y="-212.8922" font-family="Helvetica,sans-Serif" font-size="11.00" fill="#000000">code_display</text>
<polygon fill="none" stroke="#000000" points="381.5,-205.7922 381.5,-227.7922 492.5,-227.7922 492.5,-205.7922 381.5,-205.7922"/>
<text text-anchor="start" x="384.5" y="-213.4922" font-family="Helvetica,sans-Serif" font-size="11.00" fill="#000000">text[65535]</text>
<polygon fill="none" stroke="#000000" points="191.5,-183.7922 191.5,-205.7922 381.5,-205.7922 381.5,-183.7922 191.5,-183.7922"/>
<text text-anchor="start" x="211.5" y="-190.8922" font-family="Helvetica,sans-Serif" font-size="11.00" fill="#000000">questionnaire</text>
<polygon fill="none" stroke="#000000" points="381.5,-183.7922 381.5,-205.7922 492.5,-205.7922 492.5,-183.7922 381.5,-183.7922"/>
<text text-anchor="start" x="384.1115" y="-191.4922" font-family="Helvetica,sans-Serif" font-size="11.00" fill="#000000">longtext[2147483647]</text>
<polygon fill="none" stroke="#000000" points="191.5,-161.7922 191.5,-183.7922 381.5,-183.7922 381.5,-161.7922 191.5,-161.7922"/>
<text text-anchor="start" x="211.5" y="-168.8922" font-family="Helvetica,sans-Serif" font-size="11.00" fill="#000000">lform</text>
<polygon fill="none" stroke="#000000" points="381.5,-161.7922 381.5,-183.7922 492.5,-183.7922 492.5,-161.7922 381.5,-161.7922"/>
<text text-anchor="start" x="384.1115" y="-169.4922" font-family="Helvetica,sans-Serif" font-size="11.00" fill="#000000">longtext[2147483647]</text>
<polygon fill="none" stroke="#000000" points="191.5,-139.7922 191.5,-161.7922 381.5,-161.7922 381.5,-139.7922 191.5,-139.7922"/>
<image xlink:href="../../images/foreignKeys.png" width="11px" height="12px" preserveAspectRatio="xMinYMin meet" x="196.5" y="-156.792"/>
<text text-anchor="start" x="211.5" y="-146.8922" font-family="Helvetica,sans-Serif" font-size="11.00" fill="#000000">category</text>
<polygon fill="none" stroke="#000000" points="381.5,-139.7922 381.5,-161.7922 492.5,-161.7922 492.5,-139.7922 381.5,-139.7922"/>
<text text-anchor="start" x="384.5" y="-147.4922" font-family="Helvetica,sans-Serif" font-size="11.00" fill="#000000">varchar[64]</text>
<polygon fill="#ffffff" stroke="transparent" points="191.5,-120.7922 191.5,-139.7922 290.5,-139.7922 290.5,-120.7922 191.5,-120.7922"/>
<polygon fill="none" stroke="#000000" points="191.5,-120.7922 191.5,-139.7922 290.5,-139.7922 290.5,-120.7922 191.5,-120.7922"/>
<text text-anchor="start" x="194.5" y="-126.8922" font-family="Helvetica,sans-Serif" font-size="11.00" fill="#000000">&lt; 1</text>
<polygon fill="#ffffff" stroke="transparent" points="290.5,-120.7922 290.5,-139.7922 381.5,-139.7922 381.5,-120.7922 290.5,-120.7922"/>
<polygon fill="none" stroke="#000000" points="290.5,-120.7922 290.5,-139.7922 381.5,-139.7922 381.5,-120.7922 290.5,-120.7922"/>
<text text-anchor="start" x="372.3862" y="-126.8922" font-family="Helvetica,sans-Serif" font-size="11.00" fill="#000000"> &#160;</text>
<polygon fill="#ffffff" stroke="transparent" points="381.5,-120.7922 381.5,-139.7922 492.5,-139.7922 492.5,-120.7922 381.5,-120.7922"/>
<polygon fill="none" stroke="#000000" points="381.5,-120.7922 381.5,-139.7922 492.5,-139.7922 492.5,-120.7922 381.5,-120.7922"/>
<text text-anchor="start" x="473.9053" y="-126.8922" font-family="Helvetica,sans-Serif" font-size="11.00" fill="#000000">3 &gt;</text>
<polygon fill="none" stroke="#000000" stroke-width="2" points="190,-119.7922 190,-559.7922 493,-559.7922 493,-119.7922 190,-119.7922"/>
</a>
</g>
</g>
<!-- form_observation&#45;&gt;questionnaire_repository -->
<g id="edge3" class="edge">
<title>form_observation:w&#45;&gt;questionnaire_repository:e</title>
<path fill="none" stroke="#000000" d="M529.0046,-554.6232C516.0564,-545.5442 513.6385,-524.7922 492.5,-524.7922"/>
<polygon fill="#000000" stroke="#000000" points="535.3329,-556.5083 541.9722,-562.2424 539.1665,-557.6503 543,-558.7922 543,-558.7922 543,-558.7922 539.1665,-557.6503 544.0278,-555.3421 535.3329,-556.5083 535.3329,-556.5083"/>
<ellipse fill="none" stroke="#000000" cx="532.2661" cy="-555.5947" rx="3.2" ry="3.2"/>
</g>
<!-- questionnaire_repository&#45;&gt;list_options -->
<g id="edge7" class="edge">
<title>questionnaire_repository:w&#45;&gt;list_options:e</title>
<path fill="none" stroke="#000000" d="M176.9338,-152.8019C108.2115,-174.6781 233.5089,-367.7922 140,-367.7922"/>
<polygon fill="#000000" stroke="#000000" points="183.5751,-151.8857 191.992,-154.3585 187.5375,-151.339 191.5,-150.7922 191.5,-150.7922 191.5,-150.7922 187.5375,-151.339 191.008,-147.226 183.5751,-151.8857 183.5751,-151.8857"/>
<ellipse fill="none" stroke="#000000" cx="180.4051" cy="-152.323" rx="3.2" ry="3.2"/>
</g>
<!-- form_questionnaire_assessments -->
<g id="node4" class="node">
<title>form_questionnaire_assessments</title>
<g id="a_node4"><a xlink:href="../../tables/form_questionnaire_assessments.html" xlink:title="form_questionnaire_assessments" target="_top">
<polygon fill="#ffffff" stroke="transparent" points="810,-113.2922 810,-328.2922 1073,-328.2922 1073,-113.2922 810,-113.2922"/>
<polygon fill="#f5f5f5" stroke="transparent" points="810.5,-304.7922 810.5,-327.7922 1073.5,-327.7922 1073.5,-304.7922 810.5,-304.7922"/>
<polygon fill="none" stroke="#000000" points="810.5,-304.7922 810.5,-327.7922 1073.5,-327.7922 1073.5,-304.7922 810.5,-304.7922"/>
<text text-anchor="start" x="815.5" y="-313.3922" font-family="Helvetica,sans-Serif" font-weight="bold" font-size="11.00" fill="#000000">form_questionnaire_assessments</text>
<text text-anchor="start" x="1039.0219" y="-312.8922" font-family="Helvetica,sans-Serif" font-size="11.00" fill="#000000">[table]</text>
<polygon fill="none" stroke="#000000" points="810.5,-282.7922 810.5,-304.7922 1073.5,-304.7922 1073.5,-282.7922 810.5,-282.7922"/>
<image xlink:href="../../images/primaryKeys.png" width="11px" height="12px" preserveAspectRatio="xMinYMin meet" x="815.5" y="-299.792"/>
<text text-anchor="start" x="839.5" y="-289.8922" font-family="Helvetica,sans-Serif" font-size="11.00" fill="#000000">id</text>
<polygon fill="none" stroke="#000000" points="810.5,-260.7922 810.5,-282.7922 1073.5,-282.7922 1073.5,-260.7922 810.5,-260.7922"/>
<image xlink:href="../../images/foreignKeys.png" width="11px" height="12px" preserveAspectRatio="xMinYMin meet" x="815.5" y="-277.792"/>
<text text-anchor="start" x="839.5" y="-267.8922" font-family="Helvetica,sans-Serif" font-size="11.00" fill="#000000">response_id</text>
<polygon fill="none" stroke="#000000" points="810.5,-238.7922 810.5,-260.7922 1073.5,-260.7922 1073.5,-238.7922 810.5,-238.7922"/>
<image xlink:href="../../images/foreignKeys.png" width="11px" height="12px" preserveAspectRatio="xMinYMin meet" x="815.5" y="-255.792"/>
<text text-anchor="start" x="839.5" y="-245.8922" font-family="Helvetica,sans-Serif" font-size="11.00" fill="#000000">pid</text>
<polygon fill="none" stroke="#000000" points="810.5,-216.7922 810.5,-238.7922 1073.5,-238.7922 1073.5,-216.7922 810.5,-216.7922"/>
<image xlink:href="../../images/foreignKeys.png" width="11px" height="12px" preserveAspectRatio="xMinYMin meet" x="815.5" y="-233.792"/>
<text text-anchor="start" x="839.5" y="-223.8922" font-family="Helvetica,sans-Serif" font-size="11.00" fill="#000000">user</text>
<polygon fill="none" stroke="#000000" points="810.5,-194.7922 810.5,-216.7922 1073.5,-216.7922 1073.5,-194.7922 810.5,-194.7922"/>
<image xlink:href="../../images/foreignKeys.png" width="11px" height="12px" preserveAspectRatio="xMinYMin meet" x="815.5" y="-211.792"/>
<text text-anchor="start" x="839.5" y="-201.8922" font-family="Helvetica,sans-Serif" font-size="11.00" fill="#000000">groupname</text>
<polygon fill="none" stroke="#000000" points="810.5,-172.7922 810.5,-194.7922 1073.5,-194.7922 1073.5,-172.7922 810.5,-172.7922"/>
<image xlink:href="../../images/foreignKeys.png" width="11px" height="12px" preserveAspectRatio="xMinYMin meet" x="815.5" y="-189.792"/>
<text text-anchor="start" x="839.5" y="-179.8922" font-family="Helvetica,sans-Serif" font-size="11.00" fill="#000000">questionnaire_id</text>
<polygon fill="none" stroke="#000000" points="810.5,-150.7922 810.5,-172.7922 1073.5,-172.7922 1073.5,-150.7922 810.5,-150.7922"/>
<image xlink:href="../../images/foreignKeys.png" width="11px" height="12px" preserveAspectRatio="xMinYMin meet" x="815.5" y="-167.792"/>
<text text-anchor="start" x="839.5" y="-157.8922" font-family="Helvetica,sans-Serif" font-size="11.00" fill="#000000">category</text>
<polygon fill="none" stroke="#000000" points="810.5,-131.7922 810.5,-150.7922 1073.5,-150.7922 1073.5,-131.7922 810.5,-131.7922"/>
<text text-anchor="start" x="813.5" y="-137.8922" font-family="Helvetica,sans-Serif" font-size="11.00" fill="#000000">...</text>
<polygon fill="#ffffff" stroke="transparent" points="810.5,-112.7922 810.5,-131.7922 940.5,-131.7922 940.5,-112.7922 810.5,-112.7922"/>
<polygon fill="none" stroke="#000000" points="810.5,-112.7922 810.5,-131.7922 940.5,-131.7922 940.5,-112.7922 810.5,-112.7922"/>
<text text-anchor="start" x="813.5" y="-118.8922" font-family="Helvetica,sans-Serif" font-size="11.00" fill="#000000">&lt; 6</text>
<polygon fill="#ffffff" stroke="transparent" points="940.5,-112.7922 940.5,-131.7922 1006.5,-131.7922 1006.5,-112.7922 940.5,-112.7922"/>
<polygon fill="none" stroke="#000000" points="940.5,-112.7922 940.5,-131.7922 1006.5,-131.7922 1006.5,-112.7922 940.5,-112.7922"/>
<text text-anchor="start" x="997.3862" y="-118.8922" font-family="Helvetica,sans-Serif" font-size="11.00" fill="#000000"> &#160;</text>
<polygon fill="#ffffff" stroke="transparent" points="1006.5,-112.7922 1006.5,-131.7922 1073.5,-131.7922 1073.5,-112.7922 1006.5,-112.7922"/>
<polygon fill="none" stroke="#000000" points="1006.5,-112.7922 1006.5,-131.7922 1073.5,-131.7922 1073.5,-112.7922 1006.5,-112.7922"/>
<text text-anchor="start" x="1064.3862" y="-118.8922" font-family="Helvetica,sans-Serif" font-size="11.00" fill="#000000"> &#160;</text>
</a>
</g>
</g>
<!-- form_questionnaire_assessments&#45;&gt;list_options -->
<g id="edge4" class="edge">
<title>form_questionnaire_assessments:w&#45;&gt;list_options:e</title>
<path fill="none" stroke="#000000" d="M795.9824,-160.5542C787.543,-158.9419 781.5639,-156.0617 769,-153.7922 511.0763,-107.2036 380.2936,61.4346 181,-108.7922 136.691,-146.6388 198.2722,-367.7922 140,-367.7922"/>
<polygon fill="#000000" stroke="#000000" points="802.5289,-161.1124 810.1941,-165.3792 806.5145,-161.4523 810.5,-161.7922 810.5,-161.7922 810.5,-161.7922 806.5145,-161.4523 810.8059,-158.2053 802.5289,-161.1124 802.5289,-161.1124"/>
<ellipse fill="none" stroke="#000000" cx="799.3405" cy="-160.8405" rx="3.2" ry="3.2"/>
</g>
<!-- form_questionnaire_assessments&#45;&gt;questionnaire_repository -->
<g id="edge5" class="edge">
<title>form_questionnaire_assessments:w&#45;&gt;questionnaire_repository:e</title>
<path fill="none" stroke="#000000" d="M796.0588,-183.4777C682.8825,-178.5621 622.2097,-118.7591 535,-197.7922 487.8774,-240.4967 556.0941,-480.7922 492.5,-480.7922"/>
<polygon fill="#000000" stroke="#000000" points="802.5019,-183.618 810.4216,-187.3914 806.5009,-183.7051 810.5,-183.7922 810.5,-183.7922 810.5,-183.7922 806.5009,-183.7051 810.5784,-180.1931 802.5019,-183.618 802.5019,-183.618"/>
<ellipse fill="none" stroke="#000000" cx="799.3027" cy="-183.5483" rx="3.2" ry="3.2"/>
</g>
<!-- questionnaire_response -->
<g id="node5" class="node">
<title>questionnaire_response</title>
<g id="a_node5"><a xlink:href="../../tables/questionnaire_response.html" xlink:title="questionnaire_response" target="_top">
<polygon fill="#ffffff" stroke="transparent" points="552,-208.2922 552,-489.2922 752,-489.2922 752,-208.2922 552,-208.2922"/>
<polygon fill="#f5f5f5" stroke="transparent" points="552,-465.7922 552,-488.7922 752,-488.7922 752,-465.7922 552,-465.7922"/>
<polygon fill="none" stroke="#000000" points="552,-465.7922 552,-488.7922 752,-488.7922 752,-465.7922 552,-465.7922"/>
<text text-anchor="start" x="557" y="-474.3922" font-family="Helvetica,sans-Serif" font-weight="bold" font-size="11.00" fill="#000000">questionnaire_response</text>
<text text-anchor="start" x="717.5219" y="-473.8922" font-family="Helvetica,sans-Serif" font-size="11.00" fill="#000000">[table]</text>
<polygon fill="none" stroke="#000000" points="552,-443.7922 552,-465.7922 752,-465.7922 752,-443.7922 552,-443.7922"/>
<image xlink:href="../../images/primaryKeys.png" width="11px" height="12px" preserveAspectRatio="xMinYMin meet" x="557" y="-460.792"/>
<text text-anchor="start" x="578" y="-450.8922" font-family="Helvetica,sans-Serif" font-size="11.00" fill="#000000">id</text>
<polygon fill="#ffffff" stroke="transparent" points="552,-421.7922 552,-443.7922 752,-443.7922 752,-421.7922 552,-421.7922"/>
<polygon fill="none" stroke="#000000" points="552,-421.7922 552,-443.7922 752,-443.7922 752,-421.7922 552,-421.7922"/>
<text text-anchor="start" x="578" y="-428.8922" font-family="Helvetica,sans-Serif" font-size="11.00" fill="#000000">uuid</text>
<polygon fill="none" stroke="#000000" points="552,-399.7922 552,-421.7922 752,-421.7922 752,-399.7922 552,-399.7922"/>
<image xlink:href="../../images/primaryKeys.png" width="11px" height="12px" preserveAspectRatio="xMinYMin meet" x="557" y="-416.792"/>
<text text-anchor="start" x="578" y="-406.8922" font-family="Helvetica,sans-Serif" font-size="11.00" fill="#000000">response_id</text>
<polygon fill="none" stroke="#000000" points="552,-377.7922 552,-399.7922 752,-399.7922 752,-377.7922 552,-377.7922"/>
<image xlink:href="../../images/foreignKeys.png" width="11px" height="12px" preserveAspectRatio="xMinYMin meet" x="557" y="-394.792"/>
<text text-anchor="start" x="578" y="-384.8922" font-family="Helvetica,sans-Serif" font-size="11.00" fill="#000000">questionnaire_foreign_id</text>
<polygon fill="#ffffff" stroke="transparent" points="552,-355.7922 552,-377.7922 752,-377.7922 752,-355.7922 552,-355.7922"/>
<polygon fill="none" stroke="#000000" points="552,-355.7922 552,-377.7922 752,-377.7922 752,-355.7922 552,-355.7922"/>
<text text-anchor="start" x="578" y="-362.8922" font-family="Helvetica,sans-Serif" font-size="11.00" fill="#000000">questionnaire_id</text>
<polygon fill="#ffffff" stroke="transparent" points="552,-333.7922 552,-355.7922 752,-355.7922 752,-333.7922 552,-333.7922"/>
<polygon fill="none" stroke="#000000" points="552,-333.7922 552,-355.7922 752,-355.7922 752,-333.7922 552,-333.7922"/>
<text text-anchor="start" x="578" y="-340.8922" font-family="Helvetica,sans-Serif" font-size="11.00" fill="#000000">questionnaire_name</text>
<polygon fill="#ffffff" stroke="transparent" points="552,-311.7922 552,-333.7922 752,-333.7922 752,-311.7922 552,-311.7922"/>
<polygon fill="none" stroke="#000000" points="552,-311.7922 552,-333.7922 752,-333.7922 752,-311.7922 552,-311.7922"/>
<image xlink:href="../../images/foreignKeys.png" width="11px" height="12px" preserveAspectRatio="xMinYMin meet" x="557" y="-328.792"/>
<text text-anchor="start" x="578" y="-318.8922" font-family="Helvetica,sans-Serif" font-size="11.00" fill="#000000">patient_id</text>
<polygon fill="none" stroke="#000000" points="552,-289.7922 552,-311.7922 752,-311.7922 752,-289.7922 552,-289.7922"/>
<image xlink:href="../../images/foreignKeys.png" width="11px" height="12px" preserveAspectRatio="xMinYMin meet" x="557" y="-306.792"/>
<text text-anchor="start" x="578" y="-296.8922" font-family="Helvetica,sans-Serif" font-size="11.00" fill="#000000">encounter</text>
<polygon fill="none" stroke="#000000" points="552,-267.7922 552,-289.7922 752,-289.7922 752,-267.7922 552,-267.7922"/>
<image xlink:href="../../images/foreignKeys.png" width="11px" height="12px" preserveAspectRatio="xMinYMin meet" x="557" y="-284.792"/>
<text text-anchor="start" x="578" y="-274.8922" font-family="Helvetica,sans-Serif" font-size="11.00" fill="#000000">audit_user_id</text>
<polygon fill="none" stroke="#000000" points="552,-245.7922 552,-267.7922 752,-267.7922 752,-245.7922 552,-245.7922"/>
<image xlink:href="../../images/foreignKeys.png" width="11px" height="12px" preserveAspectRatio="xMinYMin meet" x="557" y="-262.792"/>
<text text-anchor="start" x="578" y="-252.8922" font-family="Helvetica,sans-Serif" font-size="11.00" fill="#000000">creator_user_id</text>
<polygon fill="none" stroke="#000000" points="552,-226.7922 552,-245.7922 752,-245.7922 752,-226.7922 552,-226.7922"/>
<text text-anchor="start" x="555" y="-232.8922" font-family="Helvetica,sans-Serif" font-size="11.00" fill="#000000">...</text>
<polygon fill="#ffffff" stroke="transparent" points="552,-207.7922 552,-226.7922 646,-226.7922 646,-207.7922 552,-207.7922"/>
<polygon fill="none" stroke="#000000" points="552,-207.7922 552,-226.7922 646,-226.7922 646,-207.7922 552,-207.7922"/>
<text text-anchor="start" x="555" y="-213.8922" font-family="Helvetica,sans-Serif" font-size="11.00" fill="#000000">&lt; 5</text>
<polygon fill="#ffffff" stroke="transparent" points="646,-207.7922 646,-226.7922 694,-226.7922 694,-207.7922 646,-207.7922"/>
<polygon fill="none" stroke="#000000" points="646,-207.7922 646,-226.7922 694,-226.7922 694,-207.7922 646,-207.7922"/>
<text text-anchor="start" x="684.8862" y="-213.8922" font-family="Helvetica,sans-Serif" font-size="11.00" fill="#000000"> &#160;</text>
<polygon fill="#ffffff" stroke="transparent" points="694,-207.7922 694,-226.7922 752,-226.7922 752,-207.7922 694,-207.7922"/>
<polygon fill="none" stroke="#000000" points="694,-207.7922 694,-226.7922 752,-226.7922 752,-207.7922 694,-207.7922"/>
<text text-anchor="start" x="733.4053" y="-213.8922" font-family="Helvetica,sans-Serif" font-size="11.00" fill="#000000">1 &gt;</text>
</a>
</g>
</g>
<!-- form_questionnaire_assessments&#45;&gt;questionnaire_response -->
<g id="edge6" class="edge">
<title>form_questionnaire_assessments:w&#45;&gt;questionnaire_response:e</title>
<path fill="none" stroke="#000000" d="M796.1978,-274.6955C755.4065,-294.6563 813.266,-410.7922 752,-410.7922"/>
<polygon fill="#000000" stroke="#000000" points="802.6599,-273.3838 811.2162,-275.3203 806.5799,-272.588 810.5,-271.7922 810.5,-271.7922 810.5,-271.7922 806.5799,-272.588 809.7838,-268.2642 802.6599,-273.3838 802.6599,-273.3838"/>
<ellipse fill="none" stroke="#000000" cx="799.5239" cy="-274.0204" rx="3.2" ry="3.2"/>
</g>
<!-- questionnaire_response&#45;&gt;questionnaire_repository -->
<g id="edge8" class="edge">
<title>questionnaire_response:w&#45;&gt;questionnaire_repository:e</title>
<path fill="none" stroke="#000000" d="M537.8818,-391.6328C497.4543,-411.1628 552.8062,-524.7922 492.5,-524.7922"/>
<polygon fill="#000000" stroke="#000000" points="544.1572,-390.3703 552.7101,-392.3215 548.0786,-389.5812 552,-388.7922 552,-388.7922 552,-388.7922 548.0786,-389.5812 551.2899,-385.263 544.1572,-390.3703 544.1572,-390.3703"/>
<ellipse fill="none" stroke="#000000" cx="541.02" cy="-391.0015" rx="3.2" ry="3.2"/>
</g>
</g>
</svg>
