<?xml version="1.0" encoding="UTF-8" standalone="no"?>
<!DOCTYPE svg PUBLIC "-//W3C//DTD SVG 1.1//EN"
 "http://www.w3.org/Graphics/SVG/1.1/DTD/svg11.dtd">
<!-- Generated by graphviz version 2.40.1 (20161225.0304)
 -->
<!-- Title: oneDegreeRelationshipsDiagram Pages: 1 -->
<svg width="560pt" height="595pt"
 viewBox="0.00 0.00 560.00 594.70" xmlns="http://www.w3.org/2000/svg" xmlns:xlink="http://www.w3.org/1999/xlink">
<g id="graph0" class="graph" transform="scale(1 1) rotate(0) translate(4 590.7)">
<title>oneDegreeRelationshipsDiagram</title>
<polygon fill="#ffffff" stroke="transparent" points="-4,4 -4,-590.7 556,-590.7 556,4 -4,4"/>
<text text-anchor="middle" x="72.4936" y="-7.3" font-family="Helvetica,sans-Serif" font-size="11.00" fill="#000000">Generated by SchemaSpy</text>
<!-- rule_patient_data -->
<g id="node1" class="node">
<title>rule_patient_data</title>
<g id="a_node1"><a xlink:href="../../tables/rule_patient_data.html" xlink:title="rule_patient_data" target="_top">
<polygon fill="#ffffff" stroke="transparent" points="334,-38.2 334,-238.2 544,-238.2 544,-38.2 334,-38.2"/>
<polygon fill="#f5f5f5" stroke="transparent" points="336,-213.2 336,-236.2 542,-236.2 542,-213.2 336,-213.2"/>
<polygon fill="none" stroke="#000000" points="336,-213.2 336,-236.2 542,-236.2 542,-213.2 336,-213.2"/>
<text text-anchor="start" x="341" y="-221.8" font-family="Helvetica,sans-Serif" font-weight="bold" font-size="11.00" fill="#000000">rule_patient_data</text>
<text text-anchor="start" x="507.0437" y="-221.3" font-family="Helvetica,sans-Serif" font-size="11.00" fill="#000000">[table]</text>
<polygon fill="none" stroke="#000000" points="336,-191.2 336,-213.2 475,-213.2 475,-191.2 336,-191.2"/>
<image xlink:href="../../images/primaryKeys.png" width="11px" height="12px" preserveAspectRatio="xMinYMin meet" x="341" y="-208.2"/>
<text text-anchor="start" x="356" y="-198.3" font-family="Helvetica,sans-Serif" font-size="11.00" fill="#000000">id</text>
<polygon fill="none" stroke="#000000" points="475,-191.2 475,-213.2 542,-213.2 542,-191.2 475,-191.2"/>
<text text-anchor="start" x="478" y="-198.9" font-family="Helvetica,sans-Serif" font-size="11.00" fill="#000000">bigint[19]</text>
<polygon fill="none" stroke="#000000" points="336,-169.2 336,-191.2 475,-191.2 475,-169.2 336,-169.2"/>
<text text-anchor="start" x="356" y="-176.3" font-family="Helvetica,sans-Serif" font-size="11.00" fill="#000000">date</text>
<polygon fill="none" stroke="#000000" points="475,-169.2 475,-191.2 542,-191.2 542,-169.2 475,-169.2"/>
<text text-anchor="start" x="478" y="-176.9" font-family="Helvetica,sans-Serif" font-size="11.00" fill="#000000">datetime[19]</text>
<polygon fill="#ffffff" stroke="transparent" points="336,-147.2 336,-169.2 475,-169.2 475,-147.2 336,-147.2"/>
<polygon fill="none" stroke="#000000" points="336,-147.2 336,-169.2 475,-169.2 475,-147.2 336,-147.2"/>
<image xlink:href="../../images/foreignKeys.png" width="11px" height="12px" preserveAspectRatio="xMinYMin meet" x="341" y="-164.2"/>
<text text-anchor="start" x="356" y="-154.3" font-family="Helvetica,sans-Serif" font-size="11.00" fill="#000000">pid</text>
<polygon fill="none" stroke="#000000" points="475,-147.2 475,-169.2 542,-169.2 542,-147.2 475,-147.2"/>
<text text-anchor="start" x="478" y="-154.9" font-family="Helvetica,sans-Serif" font-size="11.00" fill="#000000">bigint[19]</text>
<polygon fill="#ffffff" stroke="transparent" points="336,-125.2 336,-147.2 475,-147.2 475,-125.2 336,-125.2"/>
<polygon fill="none" stroke="#000000" points="336,-125.2 336,-147.2 475,-147.2 475,-125.2 336,-125.2"/>
<image xlink:href="../../images/foreignKeys.png" width="11px" height="12px" preserveAspectRatio="xMinYMin meet" x="341" y="-142.2"/>
<text text-anchor="start" x="356" y="-132.3" font-family="Helvetica,sans-Serif" font-size="11.00" fill="#000000">category</text>
<polygon fill="none" stroke="#000000" points="475,-125.2 475,-147.2 542,-147.2 542,-125.2 475,-125.2"/>
<text text-anchor="start" x="478" y="-132.9" font-family="Helvetica,sans-Serif" font-size="11.00" fill="#000000">varchar[31]</text>
<polygon fill="#ffffff" stroke="transparent" points="336,-103.2 336,-125.2 475,-125.2 475,-103.2 336,-103.2"/>
<polygon fill="none" stroke="#000000" points="336,-103.2 336,-125.2 475,-125.2 475,-103.2 336,-103.2"/>
<image xlink:href="../../images/foreignKeys.png" width="11px" height="12px" preserveAspectRatio="xMinYMin meet" x="341" y="-120.2"/>
<text text-anchor="start" x="356" y="-110.3" font-family="Helvetica,sans-Serif" font-size="11.00" fill="#000000">item</text>
<polygon fill="none" stroke="#000000" points="475,-103.2 475,-125.2 542,-125.2 542,-103.2 475,-103.2"/>
<text text-anchor="start" x="478" y="-110.9" font-family="Helvetica,sans-Serif" font-size="11.00" fill="#000000">varchar[31]</text>
<polygon fill="none" stroke="#000000" points="336,-81.2 336,-103.2 475,-103.2 475,-81.2 336,-81.2"/>
<text text-anchor="start" x="356" y="-88.3" font-family="Helvetica,sans-Serif" font-size="11.00" fill="#000000">complete</text>
<polygon fill="none" stroke="#000000" points="475,-81.2 475,-103.2 542,-103.2 542,-81.2 475,-81.2"/>
<text text-anchor="start" x="478" y="-88.9" font-family="Helvetica,sans-Serif" font-size="11.00" fill="#000000">varchar[31]</text>
<polygon fill="none" stroke="#000000" points="336,-59.2 336,-81.2 475,-81.2 475,-59.2 336,-59.2"/>
<text text-anchor="start" x="356" y="-66.3" font-family="Helvetica,sans-Serif" font-size="11.00" fill="#000000">result</text>
<polygon fill="none" stroke="#000000" points="475,-59.2 475,-81.2 542,-81.2 542,-59.2 475,-59.2"/>
<text text-anchor="start" x="477.9365" y="-66.9" font-family="Helvetica,sans-Serif" font-size="11.00" fill="#000000">varchar[255]</text>
<polygon fill="#ffffff" stroke="transparent" points="336,-40.2 336,-59.2 410,-59.2 410,-40.2 336,-40.2"/>
<polygon fill="none" stroke="#000000" points="336,-40.2 336,-59.2 410,-59.2 410,-40.2 336,-40.2"/>
<text text-anchor="start" x="339" y="-46.3" font-family="Helvetica,sans-Serif" font-size="11.00" fill="#000000">&lt; 3</text>
<polygon fill="#ffffff" stroke="transparent" points="410,-40.2 410,-59.2 475,-59.2 475,-40.2 410,-40.2"/>
<polygon fill="none" stroke="#000000" points="410,-40.2 410,-59.2 475,-59.2 475,-40.2 410,-40.2"/>
<text text-anchor="start" x="465.8862" y="-46.3" font-family="Helvetica,sans-Serif" font-size="11.00" fill="#000000"> &#160;</text>
<polygon fill="#ffffff" stroke="transparent" points="475,-40.2 475,-59.2 542,-59.2 542,-40.2 475,-40.2"/>
<polygon fill="none" stroke="#000000" points="475,-40.2 475,-59.2 542,-59.2 542,-40.2 475,-40.2"/>
<text text-anchor="start" x="523.4053" y="-46.3" font-family="Helvetica,sans-Serif" font-size="11.00" fill="#000000">0 &gt;</text>
<polygon fill="none" stroke="#000000" stroke-width="2" points="335,-39.2 335,-237.2 543,-237.2 543,-39.2 335,-39.2"/>
</a>
</g>
</g>
<!-- rule_action_item -->
<g id="node2" class="node">
<title>rule_action_item</title>
<g id="a_node2"><a xlink:href="../../tables/rule_action_item.html" xlink:title="rule_action_item" target="_top">
<polygon fill="#ffffff" stroke="transparent" points="71.5,-65.7 71.5,-170.7 221.5,-170.7 221.5,-65.7 71.5,-65.7"/>
<polygon fill="#f5f5f5" stroke="transparent" points="71.5,-147.2 71.5,-170.2 221.5,-170.2 221.5,-147.2 71.5,-147.2"/>
<polygon fill="none" stroke="#000000" points="71.5,-147.2 71.5,-170.2 221.5,-170.2 221.5,-147.2 71.5,-147.2"/>
<text text-anchor="start" x="76.5" y="-155.8" font-family="Helvetica,sans-Serif" font-weight="bold" font-size="11.00" fill="#000000">rule_action_item</text>
<text text-anchor="start" x="187.0219" y="-155.3" font-family="Helvetica,sans-Serif" font-size="11.00" fill="#000000">[table]</text>
<polygon fill="none" stroke="#000000" points="71.5,-125.2 71.5,-147.2 221.5,-147.2 221.5,-125.2 71.5,-125.2"/>
<image xlink:href="../../images/primaryKeys.png" width="11px" height="12px" preserveAspectRatio="xMinYMin meet" x="76.5" y="-142.2"/>
<text text-anchor="start" x="92.5" y="-132.3" font-family="Helvetica,sans-Serif" font-size="11.00" fill="#000000">category</text>
<polygon fill="none" stroke="#000000" points="71.5,-103.2 71.5,-125.2 221.5,-125.2 221.5,-103.2 71.5,-103.2"/>
<image xlink:href="../../images/primaryKeys.png" width="11px" height="12px" preserveAspectRatio="xMinYMin meet" x="76.5" y="-120.2"/>
<text text-anchor="start" x="92.5" y="-110.3" font-family="Helvetica,sans-Serif" font-size="11.00" fill="#000000">item</text>
<polygon fill="none" stroke="#000000" points="71.5,-84.2 71.5,-103.2 221.5,-103.2 221.5,-84.2 71.5,-84.2"/>
<text text-anchor="start" x="74.5" y="-90.3" font-family="Helvetica,sans-Serif" font-size="11.00" fill="#000000">...</text>
<polygon fill="#ffffff" stroke="transparent" points="71.5,-65.2 71.5,-84.2 140.5,-84.2 140.5,-65.2 71.5,-65.2"/>
<polygon fill="none" stroke="#000000" points="71.5,-65.2 71.5,-84.2 140.5,-84.2 140.5,-65.2 71.5,-65.2"/>
<text text-anchor="start" x="74.5" y="-71.3" font-family="Helvetica,sans-Serif" font-size="11.00" fill="#000000">&lt; 2</text>
<polygon fill="#ffffff" stroke="transparent" points="140.5,-65.2 140.5,-84.2 176.5,-84.2 176.5,-65.2 140.5,-65.2"/>
<polygon fill="none" stroke="#000000" points="140.5,-65.2 140.5,-84.2 176.5,-84.2 176.5,-65.2 140.5,-65.2"/>
<text text-anchor="start" x="167.3862" y="-71.3" font-family="Helvetica,sans-Serif" font-size="11.00" fill="#000000"> &#160;</text>
<polygon fill="#ffffff" stroke="transparent" points="176.5,-65.2 176.5,-84.2 221.5,-84.2 221.5,-65.2 176.5,-65.2"/>
<polygon fill="none" stroke="#000000" points="176.5,-65.2 176.5,-84.2 221.5,-84.2 221.5,-65.2 176.5,-65.2"/>
<text text-anchor="start" x="202.9053" y="-71.3" font-family="Helvetica,sans-Serif" font-size="11.00" fill="#000000">4 &gt;</text>
</a>
</g>
</g>
<!-- rule_patient_data&#45;&gt;rule_action_item -->
<g id="edge1" class="edge">
<title>rule_patient_data:w&#45;&gt;rule_action_item:e</title>
<path fill="none" stroke="#000000" d="M321.5959,-136.2C282.1332,-136.2 267.2205,-136.2 221.5,-136.2"/>
<polygon fill="#000000" stroke="#000000" points="328,-136.2001 336,-139.8 332,-136.2 336,-136.2 336,-136.2 336,-136.2 332,-136.2 336,-132.6 328,-136.2001 328,-136.2001"/>
<ellipse fill="none" stroke="#000000" cx="324.8" cy="-136.2001" rx="3.2" ry="3.2"/>
</g>
<!-- rule_patient_data&#45;&gt;rule_action_item -->
<g id="edge2" class="edge">
<title>rule_patient_data:w&#45;&gt;rule_action_item:e</title>
<path fill="none" stroke="#000000" d="M321.5959,-114.2C282.1332,-114.2 267.2205,-114.2 221.5,-114.2"/>
<polygon fill="#000000" stroke="#000000" points="328,-114.2001 336,-117.8 332,-114.2 336,-114.2 336,-114.2 336,-114.2 332,-114.2 336,-110.6 328,-114.2001 328,-114.2001"/>
<ellipse fill="none" stroke="#000000" cx="324.8" cy="-114.2001" rx="3.2" ry="3.2"/>
</g>
<!-- patient_data -->
<g id="node3" class="node">
<title>patient_data</title>
<g id="a_node3"><a xlink:href="../../tables/patient_data.html" xlink:title="patient_data" target="_top">
<polygon fill="#ffffff" stroke="transparent" points="8,-191.7 8,-582.7 285,-582.7 285,-191.7 8,-191.7"/>
<polygon fill="#f5f5f5" stroke="transparent" points="8.5,-559.2 8.5,-582.2 285.5,-582.2 285.5,-559.2 8.5,-559.2"/>
<polygon fill="none" stroke="#000000" points="8.5,-559.2 8.5,-582.2 285.5,-582.2 285.5,-559.2 8.5,-559.2"/>
<text text-anchor="start" x="13.5" y="-567.8" font-family="Helvetica,sans-Serif" font-weight="bold" font-size="11.00" fill="#000000">patient_data</text>
<text text-anchor="start" x="250.5437" y="-567.3" font-family="Helvetica,sans-Serif" font-size="11.00" fill="#000000">[table]</text>
<polygon fill="none" stroke="#000000" points="8.5,-537.2 8.5,-559.2 285.5,-559.2 285.5,-537.2 8.5,-537.2"/>
<image xlink:href="../../images/primaryKeys.png" width="11px" height="12px" preserveAspectRatio="xMinYMin meet" x="13.5" y="-554.2"/>
<text text-anchor="start" x="28.5" y="-544.3" font-family="Helvetica,sans-Serif" font-size="11.00" fill="#000000">id</text>
<polygon fill="#ffffff" stroke="transparent" points="8.5,-515.2 8.5,-537.2 285.5,-537.2 285.5,-515.2 8.5,-515.2"/>
<polygon fill="none" stroke="#000000" points="8.5,-515.2 8.5,-537.2 285.5,-537.2 285.5,-515.2 8.5,-515.2"/>
<text text-anchor="start" x="28.5" y="-522.3" font-family="Helvetica,sans-Serif" font-size="11.00" fill="#000000">uuid</text>
<polygon fill="#ffffff" stroke="transparent" points="8.5,-493.2 8.5,-515.2 285.5,-515.2 285.5,-493.2 8.5,-493.2"/>
<polygon fill="none" stroke="#000000" points="8.5,-493.2 8.5,-515.2 285.5,-515.2 285.5,-493.2 8.5,-493.2"/>
<text text-anchor="start" x="28.5" y="-500.3" font-family="Helvetica,sans-Serif" font-size="11.00" fill="#000000">fname</text>
<polygon fill="#ffffff" stroke="transparent" points="8.5,-471.2 8.5,-493.2 285.5,-493.2 285.5,-471.2 8.5,-471.2"/>
<polygon fill="none" stroke="#000000" points="8.5,-471.2 8.5,-493.2 285.5,-493.2 285.5,-471.2 8.5,-471.2"/>
<text text-anchor="start" x="28.5" y="-478.3" font-family="Helvetica,sans-Serif" font-size="11.00" fill="#000000">lname</text>
<polygon fill="#ffffff" stroke="transparent" points="8.5,-449.2 8.5,-471.2 285.5,-471.2 285.5,-449.2 8.5,-449.2"/>
<polygon fill="none" stroke="#000000" points="8.5,-449.2 8.5,-471.2 285.5,-471.2 285.5,-449.2 8.5,-449.2"/>
<text text-anchor="start" x="28.5" y="-456.3" font-family="Helvetica,sans-Serif" font-size="11.00" fill="#000000">DOB</text>
<polygon fill="none" stroke="#000000" points="8.5,-427.2 8.5,-449.2 285.5,-449.2 285.5,-427.2 8.5,-427.2"/>
<image xlink:href="../../images/foreignKeys.png" width="11px" height="12px" preserveAspectRatio="xMinYMin meet" x="13.5" y="-444.2"/>
<text text-anchor="start" x="28.5" y="-434.3" font-family="Helvetica,sans-Serif" font-size="11.00" fill="#000000">pharmacy_id</text>
<polygon fill="none" stroke="#000000" points="8.5,-405.2 8.5,-427.2 285.5,-427.2 285.5,-405.2 8.5,-405.2"/>
<image xlink:href="../../images/foreignKeys.png" width="11px" height="12px" preserveAspectRatio="xMinYMin meet" x="13.5" y="-422.2"/>
<text text-anchor="start" x="28.5" y="-412.3" font-family="Helvetica,sans-Serif" font-size="11.00" fill="#000000">providerID</text>
<polygon fill="none" stroke="#000000" points="8.5,-383.2 8.5,-405.2 285.5,-405.2 285.5,-383.2 8.5,-383.2"/>
<image xlink:href="../../images/foreignKeys.png" width="11px" height="12px" preserveAspectRatio="xMinYMin meet" x="13.5" y="-400.2"/>
<text text-anchor="start" x="28.5" y="-390.3" font-family="Helvetica,sans-Serif" font-size="11.00" fill="#000000">ref_providerID</text>
<polygon fill="none" stroke="#000000" points="8.5,-361.2 8.5,-383.2 285.5,-383.2 285.5,-361.2 8.5,-361.2"/>
<image xlink:href="../../images/foreignKeys.png" width="11px" height="12px" preserveAspectRatio="xMinYMin meet" x="13.5" y="-378.2"/>
<text text-anchor="start" x="28.5" y="-368.3" font-family="Helvetica,sans-Serif" font-size="11.00" fill="#000000">interpreter_needed</text>
<polygon fill="none" stroke="#000000" points="8.5,-339.2 8.5,-361.2 285.5,-361.2 285.5,-339.2 8.5,-339.2"/>
<image xlink:href="../../images/primaryKeys.png" width="11px" height="12px" preserveAspectRatio="xMinYMin meet" x="13.5" y="-356.2"/>
<text text-anchor="start" x="28.5" y="-346.3" font-family="Helvetica,sans-Serif" font-size="11.00" fill="#000000">pid</text>
<polygon fill="none" stroke="#000000" points="8.5,-317.2 8.5,-339.2 285.5,-339.2 285.5,-317.2 8.5,-317.2"/>
<image xlink:href="../../images/foreignKeys.png" width="11px" height="12px" preserveAspectRatio="xMinYMin meet" x="13.5" y="-334.2"/>
<text text-anchor="start" x="28.5" y="-324.3" font-family="Helvetica,sans-Serif" font-size="11.00" fill="#000000">advance_directive_user_authenticator</text>
<polygon fill="none" stroke="#000000" points="8.5,-295.2 8.5,-317.2 285.5,-317.2 285.5,-295.2 8.5,-295.2"/>
<image xlink:href="../../images/foreignKeys.png" width="11px" height="12px" preserveAspectRatio="xMinYMin meet" x="13.5" y="-312.2"/>
<text text-anchor="start" x="28.5" y="-302.3" font-family="Helvetica,sans-Serif" font-size="11.00" fill="#000000">created_by</text>
<polygon fill="none" stroke="#000000" points="8.5,-273.2 8.5,-295.2 285.5,-295.2 285.5,-273.2 8.5,-273.2"/>
<image xlink:href="../../images/foreignKeys.png" width="11px" height="12px" preserveAspectRatio="xMinYMin meet" x="13.5" y="-290.2"/>
<text text-anchor="start" x="28.5" y="-280.3" font-family="Helvetica,sans-Serif" font-size="11.00" fill="#000000">updated_by</text>
<polygon fill="none" stroke="#000000" points="8.5,-251.2 8.5,-273.2 285.5,-273.2 285.5,-251.2 8.5,-251.2"/>
<image xlink:href="../../images/foreignKeys.png" width="11px" height="12px" preserveAspectRatio="xMinYMin meet" x="13.5" y="-268.2"/>
<text text-anchor="start" x="28.5" y="-258.3" font-family="Helvetica,sans-Serif" font-size="11.00" fill="#000000">tribal_affiliations</text>
<polygon fill="none" stroke="#000000" points="8.5,-229.2 8.5,-251.2 285.5,-251.2 285.5,-229.2 8.5,-229.2"/>
<image xlink:href="../../images/foreignKeys.png" width="11px" height="12px" preserveAspectRatio="xMinYMin meet" x="13.5" y="-246.2"/>
<text text-anchor="start" x="28.5" y="-236.3" font-family="Helvetica,sans-Serif" font-size="11.00" fill="#000000">sex_identified</text>
<polygon fill="none" stroke="#000000" points="8.5,-210.2 8.5,-229.2 285.5,-229.2 285.5,-210.2 8.5,-210.2"/>
<text text-anchor="start" x="11.5" y="-216.3" font-family="Helvetica,sans-Serif" font-size="11.00" fill="#000000">...</text>
<polygon fill="#ffffff" stroke="transparent" points="8.5,-191.2 8.5,-210.2 137.5,-210.2 137.5,-191.2 8.5,-191.2"/>
<polygon fill="none" stroke="#000000" points="8.5,-191.2 8.5,-210.2 137.5,-210.2 137.5,-191.2 8.5,-191.2"/>
<text text-anchor="start" x="11.5" y="-197.3" font-family="Helvetica,sans-Serif" font-size="11.00" fill="#000000">&lt; 9</text>
<polygon fill="#ffffff" stroke="transparent" points="137.5,-191.2 137.5,-210.2 203.5,-210.2 203.5,-191.2 137.5,-191.2"/>
<polygon fill="none" stroke="#000000" points="137.5,-191.2 137.5,-210.2 203.5,-210.2 203.5,-191.2 137.5,-191.2"/>
<text text-anchor="start" x="194.3862" y="-197.3" font-family="Helvetica,sans-Serif" font-size="11.00" fill="#000000"> &#160;</text>
<polygon fill="#ffffff" stroke="transparent" points="203.5,-191.2 203.5,-210.2 285.5,-210.2 285.5,-191.2 203.5,-191.2"/>
<polygon fill="none" stroke="#000000" points="203.5,-191.2 203.5,-210.2 285.5,-210.2 285.5,-191.2 203.5,-191.2"/>
<text text-anchor="start" x="260.7904" y="-197.3" font-family="Helvetica,sans-Serif" font-size="11.00" fill="#000000">95 &gt;</text>
</a>
</g>
</g>
<!-- rule_patient_data&#45;&gt;patient_data -->
<g id="edge3" class="edge">
<title>rule_patient_data:w&#45;&gt;patient_data:e</title>
<path fill="none" stroke="#000000" d="M321.4937,-160.49C263.113,-182.1524 368.0486,-350.2 285.5,-350.2"/>
<polygon fill="#000000" stroke="#000000" points="328.0979,-159.4475 336.5614,-161.756 332.0489,-158.8237 336,-158.2 336,-158.2 336,-158.2 332.0489,-158.8237 335.4386,-154.644 328.0979,-159.4475 328.0979,-159.4475"/>
<ellipse fill="none" stroke="#000000" cx="324.937" cy="-159.9465" rx="3.2" ry="3.2"/>
</g>
</g>
</svg>
