<?xml version="1.0" encoding="UTF-8" standalone="no"?>
<!DOCTYPE svg PUBLIC "-//W3C//DTD SVG 1.1//EN"
 "http://www.w3.org/Graphics/SVG/1.1/DTD/svg11.dtd">
<!-- Generated by graphviz version 2.40.1 (20161225.0304)
 -->
<!-- Title: oneDegreeRelationshipsDiagram Pages: 1 -->
<svg width="1034pt" height="558pt"
 viewBox="0.00 0.00 1034.00 557.63" xmlns="http://www.w3.org/2000/svg" xmlns:xlink="http://www.w3.org/1999/xlink">
<g id="graph0" class="graph" transform="scale(1 1) rotate(0) translate(4 553.6265)">
<title>oneDegreeRelationshipsDiagram</title>
<polygon fill="#ffffff" stroke="transparent" points="-4,4 -4,-553.6265 1030,-553.6265 1030,4 -4,4"/>
<text text-anchor="middle" x="72.4936" y="-7.3" font-family="Helvetica,sans-Serif" font-size="11.00" fill="#000000">Generated by SchemaSpy</text>
<!-- form_encounter -->
<g id="node1" class="node">
<title>form_encounter</title>
<g id="a_node1"><a xlink:href="../../tables/form_encounter.html" xlink:title="form_encounter" target="_top">
<polygon fill="#ffffff" stroke="transparent" points="550,-242.6265 550,-413.6265 758,-413.6265 758,-242.6265 550,-242.6265"/>
<polygon fill="#f5f5f5" stroke="transparent" points="550,-390.1265 550,-413.1265 758,-413.1265 758,-390.1265 550,-390.1265"/>
<polygon fill="none" stroke="#000000" points="550,-390.1265 550,-413.1265 758,-413.1265 758,-390.1265 550,-390.1265"/>
<text text-anchor="start" x="555" y="-398.7265" font-family="Helvetica,sans-Serif" font-weight="bold" font-size="11.00" fill="#000000">form_encounter</text>
<text text-anchor="start" x="723.0437" y="-398.2265" font-family="Helvetica,sans-Serif" font-size="11.00" fill="#000000">[table]</text>
<polygon fill="none" stroke="#000000" points="550,-368.1265 550,-390.1265 758,-390.1265 758,-368.1265 550,-368.1265"/>
<image xlink:href="../../images/primaryKeys.png" width="11px" height="12px" preserveAspectRatio="xMinYMin meet" x="555" y="-385.126"/>
<text text-anchor="start" x="570" y="-375.2265" font-family="Helvetica,sans-Serif" font-size="11.00" fill="#000000">id</text>
<polygon fill="#ffffff" stroke="transparent" points="550,-346.1265 550,-368.1265 758,-368.1265 758,-346.1265 550,-346.1265"/>
<polygon fill="none" stroke="#000000" points="550,-346.1265 550,-368.1265 758,-368.1265 758,-346.1265 550,-346.1265"/>
<text text-anchor="start" x="570" y="-353.2265" font-family="Helvetica,sans-Serif" font-size="11.00" fill="#000000">uuid</text>
<polygon fill="#ffffff" stroke="transparent" points="550,-324.1265 550,-346.1265 758,-346.1265 758,-324.1265 550,-324.1265"/>
<polygon fill="none" stroke="#000000" points="550,-324.1265 550,-346.1265 758,-346.1265 758,-324.1265 550,-324.1265"/>
<text text-anchor="start" x="570" y="-331.2265" font-family="Helvetica,sans-Serif" font-size="11.00" fill="#000000">date</text>
<polygon fill="#ffffff" stroke="transparent" points="550,-302.1265 550,-324.1265 758,-324.1265 758,-302.1265 550,-302.1265"/>
<polygon fill="none" stroke="#000000" points="550,-302.1265 550,-324.1265 758,-324.1265 758,-302.1265 550,-302.1265"/>
<image xlink:href="../../images/foreignKeys.png" width="11px" height="12px" preserveAspectRatio="xMinYMin meet" x="555" y="-319.126"/>
<text text-anchor="start" x="570" y="-309.2265" font-family="Helvetica,sans-Serif" font-size="11.00" fill="#000000">pid</text>
<polygon fill="none" stroke="#000000" points="550,-280.1265 550,-302.1265 758,-302.1265 758,-280.1265 550,-280.1265"/>
<image xlink:href="../../images/primaryKeys.png" width="11px" height="12px" preserveAspectRatio="xMinYMin meet" x="555" y="-297.126"/>
<text text-anchor="start" x="570" y="-287.2265" font-family="Helvetica,sans-Serif" font-size="11.00" fill="#000000">encounter</text>
<polygon fill="none" stroke="#000000" points="550,-261.1265 550,-280.1265 758,-280.1265 758,-261.1265 550,-261.1265"/>
<text text-anchor="start" x="553" y="-267.2265" font-family="Helvetica,sans-Serif" font-size="11.00" fill="#000000">...</text>
<polygon fill="#ffffff" stroke="transparent" points="550,-242.1265 550,-261.1265 645,-261.1265 645,-242.1265 550,-242.1265"/>
<polygon fill="none" stroke="#000000" points="550,-242.1265 550,-261.1265 645,-261.1265 645,-242.1265 550,-242.1265"/>
<text text-anchor="start" x="553" y="-248.2265" font-family="Helvetica,sans-Serif" font-size="11.00" fill="#000000">&lt; 1</text>
<polygon fill="#ffffff" stroke="transparent" points="645,-242.1265 645,-261.1265 694,-261.1265 694,-242.1265 645,-242.1265"/>
<polygon fill="none" stroke="#000000" points="645,-242.1265 645,-261.1265 694,-261.1265 694,-242.1265 645,-242.1265"/>
<text text-anchor="start" x="684.8862" y="-248.2265" font-family="Helvetica,sans-Serif" font-size="11.00" fill="#000000"> &#160;</text>
<polygon fill="#ffffff" stroke="transparent" points="694,-242.1265 694,-261.1265 758,-261.1265 758,-242.1265 694,-242.1265"/>
<polygon fill="none" stroke="#000000" points="694,-242.1265 694,-261.1265 758,-261.1265 758,-242.1265 694,-242.1265"/>
<text text-anchor="start" x="733.2904" y="-248.2265" font-family="Helvetica,sans-Serif" font-size="11.00" fill="#000000">19 &gt;</text>
</a>
</g>
</g>
<!-- patient_data -->
<g id="node2" class="node">
<title>patient_data</title>
<g id="a_node2"><a xlink:href="../../tables/patient_data.html" xlink:title="patient_data" target="_top">
<polygon fill="#ffffff" stroke="transparent" points="224,-154.6265 224,-545.6265 501,-545.6265 501,-154.6265 224,-154.6265"/>
<polygon fill="#f5f5f5" stroke="transparent" points="224.5,-522.1265 224.5,-545.1265 501.5,-545.1265 501.5,-522.1265 224.5,-522.1265"/>
<polygon fill="none" stroke="#000000" points="224.5,-522.1265 224.5,-545.1265 501.5,-545.1265 501.5,-522.1265 224.5,-522.1265"/>
<text text-anchor="start" x="229.5" y="-530.7265" font-family="Helvetica,sans-Serif" font-weight="bold" font-size="11.00" fill="#000000">patient_data</text>
<text text-anchor="start" x="466.5437" y="-530.2265" font-family="Helvetica,sans-Serif" font-size="11.00" fill="#000000">[table]</text>
<polygon fill="none" stroke="#000000" points="224.5,-500.1265 224.5,-522.1265 501.5,-522.1265 501.5,-500.1265 224.5,-500.1265"/>
<image xlink:href="../../images/primaryKeys.png" width="11px" height="12px" preserveAspectRatio="xMinYMin meet" x="229.5" y="-517.126"/>
<text text-anchor="start" x="244.5" y="-507.2265" font-family="Helvetica,sans-Serif" font-size="11.00" fill="#000000">id</text>
<polygon fill="#ffffff" stroke="transparent" points="224.5,-478.1265 224.5,-500.1265 501.5,-500.1265 501.5,-478.1265 224.5,-478.1265"/>
<polygon fill="none" stroke="#000000" points="224.5,-478.1265 224.5,-500.1265 501.5,-500.1265 501.5,-478.1265 224.5,-478.1265"/>
<text text-anchor="start" x="244.5" y="-485.2265" font-family="Helvetica,sans-Serif" font-size="11.00" fill="#000000">uuid</text>
<polygon fill="#ffffff" stroke="transparent" points="224.5,-456.1265 224.5,-478.1265 501.5,-478.1265 501.5,-456.1265 224.5,-456.1265"/>
<polygon fill="none" stroke="#000000" points="224.5,-456.1265 224.5,-478.1265 501.5,-478.1265 501.5,-456.1265 224.5,-456.1265"/>
<text text-anchor="start" x="244.5" y="-463.2265" font-family="Helvetica,sans-Serif" font-size="11.00" fill="#000000">fname</text>
<polygon fill="#ffffff" stroke="transparent" points="224.5,-434.1265 224.5,-456.1265 501.5,-456.1265 501.5,-434.1265 224.5,-434.1265"/>
<polygon fill="none" stroke="#000000" points="224.5,-434.1265 224.5,-456.1265 501.5,-456.1265 501.5,-434.1265 224.5,-434.1265"/>
<text text-anchor="start" x="244.5" y="-441.2265" font-family="Helvetica,sans-Serif" font-size="11.00" fill="#000000">lname</text>
<polygon fill="#ffffff" stroke="transparent" points="224.5,-412.1265 224.5,-434.1265 501.5,-434.1265 501.5,-412.1265 224.5,-412.1265"/>
<polygon fill="none" stroke="#000000" points="224.5,-412.1265 224.5,-434.1265 501.5,-434.1265 501.5,-412.1265 224.5,-412.1265"/>
<text text-anchor="start" x="244.5" y="-419.2265" font-family="Helvetica,sans-Serif" font-size="11.00" fill="#000000">DOB</text>
<polygon fill="none" stroke="#000000" points="224.5,-390.1265 224.5,-412.1265 501.5,-412.1265 501.5,-390.1265 224.5,-390.1265"/>
<image xlink:href="../../images/foreignKeys.png" width="11px" height="12px" preserveAspectRatio="xMinYMin meet" x="229.5" y="-407.126"/>
<text text-anchor="start" x="244.5" y="-397.2265" font-family="Helvetica,sans-Serif" font-size="11.00" fill="#000000">pharmacy_id</text>
<polygon fill="none" stroke="#000000" points="224.5,-368.1265 224.5,-390.1265 501.5,-390.1265 501.5,-368.1265 224.5,-368.1265"/>
<image xlink:href="../../images/foreignKeys.png" width="11px" height="12px" preserveAspectRatio="xMinYMin meet" x="229.5" y="-385.126"/>
<text text-anchor="start" x="244.5" y="-375.2265" font-family="Helvetica,sans-Serif" font-size="11.00" fill="#000000">providerID</text>
<polygon fill="none" stroke="#000000" points="224.5,-346.1265 224.5,-368.1265 501.5,-368.1265 501.5,-346.1265 224.5,-346.1265"/>
<image xlink:href="../../images/foreignKeys.png" width="11px" height="12px" preserveAspectRatio="xMinYMin meet" x="229.5" y="-363.126"/>
<text text-anchor="start" x="244.5" y="-353.2265" font-family="Helvetica,sans-Serif" font-size="11.00" fill="#000000">ref_providerID</text>
<polygon fill="none" stroke="#000000" points="224.5,-324.1265 224.5,-346.1265 501.5,-346.1265 501.5,-324.1265 224.5,-324.1265"/>
<image xlink:href="../../images/foreignKeys.png" width="11px" height="12px" preserveAspectRatio="xMinYMin meet" x="229.5" y="-341.126"/>
<text text-anchor="start" x="244.5" y="-331.2265" font-family="Helvetica,sans-Serif" font-size="11.00" fill="#000000">interpreter_needed</text>
<polygon fill="none" stroke="#000000" points="224.5,-302.1265 224.5,-324.1265 501.5,-324.1265 501.5,-302.1265 224.5,-302.1265"/>
<image xlink:href="../../images/primaryKeys.png" width="11px" height="12px" preserveAspectRatio="xMinYMin meet" x="229.5" y="-319.126"/>
<text text-anchor="start" x="244.5" y="-309.2265" font-family="Helvetica,sans-Serif" font-size="11.00" fill="#000000">pid</text>
<polygon fill="none" stroke="#000000" points="224.5,-280.1265 224.5,-302.1265 501.5,-302.1265 501.5,-280.1265 224.5,-280.1265"/>
<image xlink:href="../../images/foreignKeys.png" width="11px" height="12px" preserveAspectRatio="xMinYMin meet" x="229.5" y="-297.126"/>
<text text-anchor="start" x="244.5" y="-287.2265" font-family="Helvetica,sans-Serif" font-size="11.00" fill="#000000">advance_directive_user_authenticator</text>
<polygon fill="none" stroke="#000000" points="224.5,-258.1265 224.5,-280.1265 501.5,-280.1265 501.5,-258.1265 224.5,-258.1265"/>
<image xlink:href="../../images/foreignKeys.png" width="11px" height="12px" preserveAspectRatio="xMinYMin meet" x="229.5" y="-275.126"/>
<text text-anchor="start" x="244.5" y="-265.2265" font-family="Helvetica,sans-Serif" font-size="11.00" fill="#000000">created_by</text>
<polygon fill="none" stroke="#000000" points="224.5,-236.1265 224.5,-258.1265 501.5,-258.1265 501.5,-236.1265 224.5,-236.1265"/>
<image xlink:href="../../images/foreignKeys.png" width="11px" height="12px" preserveAspectRatio="xMinYMin meet" x="229.5" y="-253.126"/>
<text text-anchor="start" x="244.5" y="-243.2265" font-family="Helvetica,sans-Serif" font-size="11.00" fill="#000000">updated_by</text>
<polygon fill="none" stroke="#000000" points="224.5,-214.1265 224.5,-236.1265 501.5,-236.1265 501.5,-214.1265 224.5,-214.1265"/>
<image xlink:href="../../images/foreignKeys.png" width="11px" height="12px" preserveAspectRatio="xMinYMin meet" x="229.5" y="-231.126"/>
<text text-anchor="start" x="244.5" y="-221.2265" font-family="Helvetica,sans-Serif" font-size="11.00" fill="#000000">tribal_affiliations</text>
<polygon fill="none" stroke="#000000" points="224.5,-192.1265 224.5,-214.1265 501.5,-214.1265 501.5,-192.1265 224.5,-192.1265"/>
<image xlink:href="../../images/foreignKeys.png" width="11px" height="12px" preserveAspectRatio="xMinYMin meet" x="229.5" y="-209.126"/>
<text text-anchor="start" x="244.5" y="-199.2265" font-family="Helvetica,sans-Serif" font-size="11.00" fill="#000000">sex_identified</text>
<polygon fill="none" stroke="#000000" points="224.5,-173.1265 224.5,-192.1265 501.5,-192.1265 501.5,-173.1265 224.5,-173.1265"/>
<text text-anchor="start" x="227.5" y="-179.2265" font-family="Helvetica,sans-Serif" font-size="11.00" fill="#000000">...</text>
<polygon fill="#ffffff" stroke="transparent" points="224.5,-154.1265 224.5,-173.1265 353.5,-173.1265 353.5,-154.1265 224.5,-154.1265"/>
<polygon fill="none" stroke="#000000" points="224.5,-154.1265 224.5,-173.1265 353.5,-173.1265 353.5,-154.1265 224.5,-154.1265"/>
<text text-anchor="start" x="227.5" y="-160.2265" font-family="Helvetica,sans-Serif" font-size="11.00" fill="#000000">&lt; 9</text>
<polygon fill="#ffffff" stroke="transparent" points="353.5,-154.1265 353.5,-173.1265 419.5,-173.1265 419.5,-154.1265 353.5,-154.1265"/>
<polygon fill="none" stroke="#000000" points="353.5,-154.1265 353.5,-173.1265 419.5,-173.1265 419.5,-154.1265 353.5,-154.1265"/>
<text text-anchor="start" x="410.3862" y="-160.2265" font-family="Helvetica,sans-Serif" font-size="11.00" fill="#000000"> &#160;</text>
<polygon fill="#ffffff" stroke="transparent" points="419.5,-154.1265 419.5,-173.1265 501.5,-173.1265 501.5,-154.1265 419.5,-154.1265"/>
<polygon fill="none" stroke="#000000" points="419.5,-154.1265 419.5,-173.1265 501.5,-173.1265 501.5,-154.1265 419.5,-154.1265"/>
<text text-anchor="start" x="476.7904" y="-160.2265" font-family="Helvetica,sans-Serif" font-size="11.00" fill="#000000">95 &gt;</text>
</a>
</g>
</g>
<!-- form_encounter&#45;&gt;patient_data -->
<g id="edge1" class="edge">
<title>form_encounter:w&#45;&gt;patient_data:e</title>
<path fill="none" stroke="#000000" d="M535.2829,-313.1265C524.2886,-313.1265 517.1615,-313.1265 501.5,-313.1265"/>
<polygon fill="#000000" stroke="#000000" points="542,-313.1265 550,-316.7265 546,-313.1265 550,-313.1265 550,-313.1265 550,-313.1265 546,-313.1265 550,-309.5265 542,-313.1265 542,-313.1265"/>
<ellipse fill="none" stroke="#000000" cx="538.8" cy="-313.1265" rx="3.2" ry="3.2"/>
</g>
<!-- users -->
<g id="node3" class="node">
<title>users</title>
<g id="a_node3"><a xlink:href="../../tables/users.html" xlink:title="users" target="_top">
<polygon fill="#ffffff" stroke="transparent" points="8,-99.6265 8,-314.6265 175,-314.6265 175,-99.6265 8,-99.6265"/>
<polygon fill="#f5f5f5" stroke="transparent" points="8.5,-291.1265 8.5,-314.1265 175.5,-314.1265 175.5,-291.1265 8.5,-291.1265"/>
<polygon fill="none" stroke="#000000" points="8.5,-291.1265 8.5,-314.1265 175.5,-314.1265 175.5,-291.1265 8.5,-291.1265"/>
<text text-anchor="start" x="13.5" y="-299.7265" font-family="Helvetica,sans-Serif" font-weight="bold" font-size="11.00" fill="#000000">users</text>
<text text-anchor="start" x="140.5437" y="-299.2265" font-family="Helvetica,sans-Serif" font-size="11.00" fill="#000000">[table]</text>
<polygon fill="none" stroke="#000000" points="8.5,-269.1265 8.5,-291.1265 175.5,-291.1265 175.5,-269.1265 8.5,-269.1265"/>
<image xlink:href="../../images/primaryKeys.png" width="11px" height="12px" preserveAspectRatio="xMinYMin meet" x="13.5" y="-286.126"/>
<text text-anchor="start" x="28.5" y="-276.2265" font-family="Helvetica,sans-Serif" font-size="11.00" fill="#000000">id</text>
<polygon fill="#ffffff" stroke="transparent" points="8.5,-247.1265 8.5,-269.1265 175.5,-269.1265 175.5,-247.1265 8.5,-247.1265"/>
<polygon fill="none" stroke="#000000" points="8.5,-247.1265 8.5,-269.1265 175.5,-269.1265 175.5,-247.1265 8.5,-247.1265"/>
<text text-anchor="start" x="28.5" y="-254.2265" font-family="Helvetica,sans-Serif" font-size="11.00" fill="#000000">uuid</text>
<polygon fill="none" stroke="#000000" points="8.5,-225.1265 8.5,-247.1265 175.5,-247.1265 175.5,-225.1265 8.5,-225.1265"/>
<image xlink:href="../../images/primaryKeys.png" width="11px" height="12px" preserveAspectRatio="xMinYMin meet" x="13.5" y="-242.126"/>
<text text-anchor="start" x="28.5" y="-232.2265" font-family="Helvetica,sans-Serif" font-size="11.00" fill="#000000">username</text>
<polygon fill="none" stroke="#000000" points="8.5,-203.1265 8.5,-225.1265 175.5,-225.1265 175.5,-203.1265 8.5,-203.1265"/>
<image xlink:href="../../images/foreignKeys.png" width="11px" height="12px" preserveAspectRatio="xMinYMin meet" x="13.5" y="-220.126"/>
<text text-anchor="start" x="28.5" y="-210.2265" font-family="Helvetica,sans-Serif" font-size="11.00" fill="#000000">facility_id</text>
<polygon fill="#ffffff" stroke="transparent" points="8.5,-181.1265 8.5,-203.1265 175.5,-203.1265 175.5,-181.1265 8.5,-181.1265"/>
<polygon fill="none" stroke="#000000" points="8.5,-181.1265 8.5,-203.1265 175.5,-203.1265 175.5,-181.1265 8.5,-181.1265"/>
<text text-anchor="start" x="28.5" y="-188.2265" font-family="Helvetica,sans-Serif" font-size="11.00" fill="#000000">google_signin_email</text>
<polygon fill="#ffffff" stroke="transparent" points="8.5,-159.1265 8.5,-181.1265 175.5,-181.1265 175.5,-159.1265 8.5,-159.1265"/>
<polygon fill="none" stroke="#000000" points="8.5,-159.1265 8.5,-181.1265 175.5,-181.1265 175.5,-159.1265 8.5,-159.1265"/>
<text text-anchor="start" x="28.5" y="-166.2265" font-family="Helvetica,sans-Serif" font-size="11.00" fill="#000000">abook_type</text>
<polygon fill="none" stroke="#000000" points="8.5,-137.1265 8.5,-159.1265 175.5,-159.1265 175.5,-137.1265 8.5,-137.1265"/>
<image xlink:href="../../images/foreignKeys.png" width="11px" height="12px" preserveAspectRatio="xMinYMin meet" x="13.5" y="-154.126"/>
<text text-anchor="start" x="28.5" y="-144.2265" font-family="Helvetica,sans-Serif" font-size="11.00" fill="#000000">billing_facility_id</text>
<polygon fill="none" stroke="#000000" points="8.5,-118.1265 8.5,-137.1265 175.5,-137.1265 175.5,-118.1265 8.5,-118.1265"/>
<text text-anchor="start" x="11.5" y="-124.2265" font-family="Helvetica,sans-Serif" font-size="11.00" fill="#000000">...</text>
<polygon fill="#ffffff" stroke="transparent" points="8.5,-99.1265 8.5,-118.1265 82.5,-118.1265 82.5,-99.1265 8.5,-99.1265"/>
<polygon fill="none" stroke="#000000" points="8.5,-99.1265 8.5,-118.1265 82.5,-118.1265 82.5,-99.1265 8.5,-99.1265"/>
<text text-anchor="start" x="11.5" y="-105.2265" font-family="Helvetica,sans-Serif" font-size="11.00" fill="#000000">&lt; 2</text>
<polygon fill="#ffffff" stroke="transparent" points="82.5,-99.1265 82.5,-118.1265 121.5,-118.1265 121.5,-99.1265 82.5,-99.1265"/>
<polygon fill="none" stroke="#000000" points="82.5,-99.1265 82.5,-118.1265 121.5,-118.1265 121.5,-99.1265 82.5,-99.1265"/>
<text text-anchor="start" x="112.3862" y="-105.2265" font-family="Helvetica,sans-Serif" font-size="11.00" fill="#000000"> &#160;</text>
<polygon fill="#ffffff" stroke="transparent" points="121.5,-99.1265 121.5,-118.1265 175.5,-118.1265 175.5,-99.1265 121.5,-99.1265"/>
<polygon fill="none" stroke="#000000" points="121.5,-99.1265 121.5,-118.1265 175.5,-118.1265 175.5,-99.1265 121.5,-99.1265"/>
<text text-anchor="start" x="150.7904" y="-105.2265" font-family="Helvetica,sans-Serif" font-size="11.00" fill="#000000">90 &gt;</text>
</a>
</g>
</g>
<!-- patient_data&#45;&gt;users -->
<g id="edge2" class="edge">
<title>patient_data:w&#45;&gt;users:e</title>
<path fill="none" stroke="#000000" d="M210.2027,-289.31C198.7382,-286.1857 192.0655,-280.1265 175.5,-280.1265"/>
<polygon fill="#000000" stroke="#000000" points="216.5638,-290.1182 224.0463,-294.6978 220.5319,-290.6223 224.5,-291.1265 224.5,-291.1265 224.5,-291.1265 220.5319,-290.6223 224.9537,-287.5552 216.5638,-290.1182 216.5638,-290.1182"/>
<ellipse fill="none" stroke="#000000" cx="213.3893" cy="-289.7148" rx="3.2" ry="3.2"/>
</g>
<!-- patient_data&#45;&gt;users -->
<g id="edge3" class="edge">
<title>patient_data:w&#45;&gt;users:e</title>
<path fill="none" stroke="#000000" d="M210.2027,-270.9429C198.7382,-274.0672 192.0655,-280.1265 175.5,-280.1265"/>
<polygon fill="#000000" stroke="#000000" points="216.5638,-270.1348 224.9537,-272.6978 220.5319,-269.6306 224.5,-269.1265 224.5,-269.1265 224.5,-269.1265 220.5319,-269.6306 224.0463,-265.5552 216.5638,-270.1348 216.5638,-270.1348"/>
<ellipse fill="none" stroke="#000000" cx="213.3893" cy="-270.5381" rx="3.2" ry="3.2"/>
</g>
<!-- patient_data&#45;&gt;users -->
<g id="edge4" class="edge">
<title>patient_data:w&#45;&gt;users:e</title>
<path fill="none" stroke="#000000" d="M210.6394,-375.1229C185.8773,-356.6016 218.6495,-280.1265 175.5,-280.1265"/>
<polygon fill="#000000" stroke="#000000" points="216.8142,-376.9064 223.501,-382.5851 220.6571,-378.0164 224.5,-379.1265 224.5,-379.1265 224.5,-379.1265 220.6571,-378.0164 225.499,-375.6679 216.8142,-376.9064 216.8142,-376.9064"/>
<ellipse fill="none" stroke="#000000" cx="213.7399" cy="-376.0184" rx="3.2" ry="3.2"/>
</g>
<!-- patient_data&#45;&gt;users -->
<g id="edge5" class="edge">
<title>patient_data:w&#45;&gt;users:e</title>
<path fill="none" stroke="#000000" d="M210.7659,-352.5404C191.8724,-335.9637 210.0427,-280.1265 175.5,-280.1265"/>
<polygon fill="#000000" stroke="#000000" points="216.9119,-354.5926 223.3598,-360.5411 220.7059,-355.8595 224.5,-357.1265 224.5,-357.1265 224.5,-357.1265 220.7059,-355.8595 225.6402,-353.7118 216.9119,-354.5926 216.9119,-354.5926"/>
<ellipse fill="none" stroke="#000000" cx="213.8766" cy="-353.579" rx="3.2" ry="3.2"/>
</g>
<!-- patient_data&#45;&gt;users -->
<g id="edge6" class="edge">
<title>patient_data:w&#45;&gt;users:e</title>
<path fill="none" stroke="#000000" d="M210.5457,-251.4406C198.3073,-260.3857 195.8075,-280.1265 175.5,-280.1265"/>
<polygon fill="#000000" stroke="#000000" points="216.8569,-249.4895 225.5634,-250.5658 220.6785,-248.308 224.5,-247.1265 224.5,-247.1265 224.5,-247.1265 220.6785,-248.308 223.4366,-243.6871 216.8569,-249.4895 216.8569,-249.4895"/>
<ellipse fill="none" stroke="#000000" cx="213.7997" cy="-250.4347" rx="3.2" ry="3.2"/>
</g>
<!-- shared_attributes -->
<g id="node4" class="node">
<title>shared_attributes</title>
<g id="a_node4"><a xlink:href="../../tables/shared_attributes.html" xlink:title="shared_attributes" target="_top">
<polygon fill="#ffffff" stroke="transparent" points="807,-119.1265 807,-297.1265 1018,-297.1265 1018,-119.1265 807,-119.1265"/>
<polygon fill="#f5f5f5" stroke="transparent" points="809.5,-272.1265 809.5,-295.1265 1016.5,-295.1265 1016.5,-272.1265 809.5,-272.1265"/>
<polygon fill="none" stroke="#000000" points="809.5,-272.1265 809.5,-295.1265 1016.5,-295.1265 1016.5,-272.1265 809.5,-272.1265"/>
<text text-anchor="start" x="814.5" y="-280.7265" font-family="Helvetica,sans-Serif" font-weight="bold" font-size="11.00" fill="#000000">shared_attributes</text>
<text text-anchor="start" x="981.5437" y="-280.2265" font-family="Helvetica,sans-Serif" font-size="11.00" fill="#000000">[table]</text>
<polygon fill="none" stroke="#000000" points="809.5,-250.1265 809.5,-272.1265 950.5,-272.1265 950.5,-250.1265 809.5,-250.1265"/>
<image xlink:href="../../images/primaryKeys.png" width="11px" height="12px" preserveAspectRatio="xMinYMin meet" x="814.5" y="-267.126"/>
<text text-anchor="start" x="829.5" y="-257.2265" font-family="Helvetica,sans-Serif" font-size="11.00" fill="#000000">pid</text>
<polygon fill="none" stroke="#000000" points="950.5,-250.1265 950.5,-272.1265 1016.5,-272.1265 1016.5,-250.1265 950.5,-250.1265"/>
<text text-anchor="start" x="953.5" y="-257.8265" font-family="Helvetica,sans-Serif" font-size="11.00" fill="#000000">bigint[19]</text>
<polygon fill="none" stroke="#000000" points="809.5,-228.1265 809.5,-250.1265 950.5,-250.1265 950.5,-228.1265 809.5,-228.1265"/>
<image xlink:href="../../images/primaryKeys.png" width="11px" height="12px" preserveAspectRatio="xMinYMin meet" x="814.5" y="-245.126"/>
<text text-anchor="start" x="829.5" y="-235.2265" font-family="Helvetica,sans-Serif" font-size="11.00" fill="#000000">encounter</text>
<polygon fill="none" stroke="#000000" points="950.5,-228.1265 950.5,-250.1265 1016.5,-250.1265 1016.5,-228.1265 950.5,-228.1265"/>
<text text-anchor="start" x="953.5" y="-235.8265" font-family="Helvetica,sans-Serif" font-size="11.00" fill="#000000">bigint[19]</text>
<polygon fill="none" stroke="#000000" points="809.5,-206.1265 809.5,-228.1265 950.5,-228.1265 950.5,-206.1265 809.5,-206.1265"/>
<image xlink:href="../../images/primaryKeys.png" width="11px" height="12px" preserveAspectRatio="xMinYMin meet" x="814.5" y="-223.126"/>
<text text-anchor="start" x="829.5" y="-213.2265" font-family="Helvetica,sans-Serif" font-size="11.00" fill="#000000">field_id</text>
<polygon fill="none" stroke="#000000" points="950.5,-206.1265 950.5,-228.1265 1016.5,-228.1265 1016.5,-206.1265 950.5,-206.1265"/>
<text text-anchor="start" x="953.5" y="-213.8265" font-family="Helvetica,sans-Serif" font-size="11.00" fill="#000000">varchar[31]</text>
<polygon fill="none" stroke="#000000" points="809.5,-184.1265 809.5,-206.1265 950.5,-206.1265 950.5,-184.1265 809.5,-184.1265"/>
<text text-anchor="start" x="829.5" y="-191.2265" font-family="Helvetica,sans-Serif" font-size="11.00" fill="#000000">last_update</text>
<polygon fill="none" stroke="#000000" points="950.5,-184.1265 950.5,-206.1265 1016.5,-206.1265 1016.5,-184.1265 950.5,-184.1265"/>
<text text-anchor="start" x="953.2401" y="-191.8265" font-family="Helvetica,sans-Serif" font-size="11.00" fill="#000000">datetime[19]</text>
<polygon fill="none" stroke="#000000" points="809.5,-162.1265 809.5,-184.1265 950.5,-184.1265 950.5,-162.1265 809.5,-162.1265"/>
<image xlink:href="../../images/foreignKeys.png" width="11px" height="12px" preserveAspectRatio="xMinYMin meet" x="814.5" y="-179.126"/>
<text text-anchor="start" x="829.5" y="-169.2265" font-family="Helvetica,sans-Serif" font-size="11.00" fill="#000000">user_id</text>
<polygon fill="none" stroke="#000000" points="950.5,-162.1265 950.5,-184.1265 1016.5,-184.1265 1016.5,-162.1265 950.5,-162.1265"/>
<text text-anchor="start" x="953.5" y="-169.8265" font-family="Helvetica,sans-Serif" font-size="11.00" fill="#000000">bigint[19]</text>
<polygon fill="none" stroke="#000000" points="809.5,-140.1265 809.5,-162.1265 950.5,-162.1265 950.5,-140.1265 809.5,-140.1265"/>
<text text-anchor="start" x="829.5" y="-147.2265" font-family="Helvetica,sans-Serif" font-size="11.00" fill="#000000">field_value</text>
<polygon fill="none" stroke="#000000" points="950.5,-140.1265 950.5,-162.1265 1016.5,-162.1265 1016.5,-140.1265 950.5,-140.1265"/>
<text text-anchor="start" x="953.5" y="-147.8265" font-family="Helvetica,sans-Serif" font-size="11.00" fill="#000000">text[65535]</text>
<polygon fill="#ffffff" stroke="transparent" points="809.5,-121.1265 809.5,-140.1265 884.5,-140.1265 884.5,-121.1265 809.5,-121.1265"/>
<polygon fill="none" stroke="#000000" points="809.5,-121.1265 809.5,-140.1265 884.5,-140.1265 884.5,-121.1265 809.5,-121.1265"/>
<text text-anchor="start" x="812.5" y="-127.2265" font-family="Helvetica,sans-Serif" font-size="11.00" fill="#000000">&lt; 4</text>
<polygon fill="#ffffff" stroke="transparent" points="884.5,-121.1265 884.5,-140.1265 950.5,-140.1265 950.5,-121.1265 884.5,-121.1265"/>
<polygon fill="none" stroke="#000000" points="884.5,-121.1265 884.5,-140.1265 950.5,-140.1265 950.5,-121.1265 884.5,-121.1265"/>
<text text-anchor="start" x="941.3862" y="-127.2265" font-family="Helvetica,sans-Serif" font-size="11.00" fill="#000000"> &#160;</text>
<polygon fill="#ffffff" stroke="transparent" points="950.5,-121.1265 950.5,-140.1265 1016.5,-140.1265 1016.5,-121.1265 950.5,-121.1265"/>
<polygon fill="none" stroke="#000000" points="950.5,-121.1265 950.5,-140.1265 1016.5,-140.1265 1016.5,-121.1265 950.5,-121.1265"/>
<text text-anchor="start" x="997.9053" y="-127.2265" font-family="Helvetica,sans-Serif" font-size="11.00" fill="#000000">0 &gt;</text>
<polygon fill="none" stroke="#000000" stroke-width="2" points="808,-120.1265 808,-296.1265 1017,-296.1265 1017,-120.1265 808,-120.1265"/>
</a>
</g>
</g>
<!-- shared_attributes&#45;&gt;form_encounter -->
<g id="edge7" class="edge">
<title>shared_attributes:w&#45;&gt;form_encounter:e</title>
<path fill="none" stroke="#000000" d="M795.4561,-243.9253C780.4356,-256.7983 784.4284,-291.1265 758,-291.1265"/>
<polygon fill="#000000" stroke="#000000" points="801.9297,-241.7133 810.6641,-242.5331 805.7149,-240.4199 809.5,-239.1265 809.5,-239.1265 809.5,-239.1265 805.7149,-240.4199 808.3359,-235.7199 801.9297,-241.7133 801.9297,-241.7133"/>
<ellipse fill="none" stroke="#000000" cx="798.9016" cy="-242.748" rx="3.2" ry="3.2"/>
</g>
<!-- shared_attributes&#45;&gt;patient_data -->
<g id="edge9" class="edge">
<title>shared_attributes:w&#45;&gt;patient_data:e</title>
<path fill="none" stroke="#000000" d="M795.1143,-263.0852C747.502,-278.5845 820.9332,-381.9308 766,-424.1265 687.0478,-484.7718 623.5737,-481.197 542,-424.1265 498.9707,-394.0223 554.0145,-313.1265 501.5,-313.1265"/>
<polygon fill="#000000" stroke="#000000" points="801.5731,-262.2058 809.9857,-264.6936 805.5366,-261.6661 809.5,-261.1265 809.5,-261.1265 809.5,-261.1265 805.5366,-261.6661 809.0143,-257.5594 801.5731,-262.2058 801.5731,-262.2058"/>
<ellipse fill="none" stroke="#000000" cx="798.4024" cy="-262.6375" rx="3.2" ry="3.2"/>
</g>
<!-- shared_attributes&#45;&gt;users -->
<g id="edge10" class="edge">
<title>shared_attributes:w&#45;&gt;users:e</title>
<path fill="none" stroke="#000000" d="M795.2876,-170.1952C767.3348,-155.4011 804.8134,-88.6032 766,-62.1265 683.7574,-6.0242 640.8008,-49.8912 542,-62.1265 393.7305,-80.4879 323.8905,-40.7793 216,-144.1265 170.4558,-187.7528 238.5677,-280.1265 175.5,-280.1265"/>
<polygon fill="#000000" stroke="#000000" points="801.6649,-171.5105 808.7728,-176.6523 805.5825,-172.3185 809.5,-173.1265 809.5,-173.1265 809.5,-173.1265 805.5825,-172.3185 810.2272,-169.6007 801.6649,-171.5105 801.6649,-171.5105"/>
<ellipse fill="none" stroke="#000000" cx="798.5309" cy="-170.8641" rx="3.2" ry="3.2"/>
</g>
<!-- layout_options -->
<g id="node5" class="node">
<title>layout_options</title>
<g id="a_node5"><a xlink:href="../../tables/layout_options.html" xlink:title="layout_options" target="_top">
<polygon fill="#ffffff" stroke="transparent" points="585,-72.6265 585,-221.6265 723,-221.6265 723,-72.6265 585,-72.6265"/>
<polygon fill="#f5f5f5" stroke="transparent" points="585,-198.1265 585,-221.1265 723,-221.1265 723,-198.1265 585,-198.1265"/>
<polygon fill="none" stroke="#000000" points="585,-198.1265 585,-221.1265 723,-221.1265 723,-198.1265 585,-198.1265"/>
<text text-anchor="start" x="590" y="-206.7265" font-family="Helvetica,sans-Serif" font-weight="bold" font-size="11.00" fill="#000000">layout_options</text>
<text text-anchor="start" x="688.5219" y="-206.2265" font-family="Helvetica,sans-Serif" font-size="11.00" fill="#000000">[table]</text>
<polygon fill="none" stroke="#000000" points="585,-176.1265 585,-198.1265 723,-198.1265 723,-176.1265 585,-176.1265"/>
<image xlink:href="../../images/primaryKeys.png" width="11px" height="12px" preserveAspectRatio="xMinYMin meet" x="590" y="-193.126"/>
<text text-anchor="start" x="614" y="-183.2265" font-family="Helvetica,sans-Serif" font-size="11.00" fill="#000000">form_id</text>
<polygon fill="none" stroke="#000000" points="585,-154.1265 585,-176.1265 723,-176.1265 723,-154.1265 585,-154.1265"/>
<image xlink:href="../../images/primaryKeys.png" width="11px" height="12px" preserveAspectRatio="xMinYMin meet" x="590" y="-171.126"/>
<text text-anchor="start" x="614" y="-161.2265" font-family="Helvetica,sans-Serif" font-size="11.00" fill="#000000">field_id</text>
<polygon fill="none" stroke="#000000" points="585,-132.1265 585,-154.1265 723,-154.1265 723,-132.1265 585,-132.1265"/>
<image xlink:href="../../images/foreignKeys.png" width="11px" height="12px" preserveAspectRatio="xMinYMin meet" x="590" y="-149.126"/>
<text text-anchor="start" x="614" y="-139.2265" font-family="Helvetica,sans-Serif" font-size="11.00" fill="#000000">group_id</text>
<polygon fill="none" stroke="#000000" points="585,-110.1265 585,-132.1265 723,-132.1265 723,-110.1265 585,-110.1265"/>
<image xlink:href="../../images/primaryKeys.png" width="11px" height="12px" preserveAspectRatio="xMinYMin meet" x="590" y="-127.126"/>
<text text-anchor="start" x="614" y="-117.2265" font-family="Helvetica,sans-Serif" font-size="11.00" fill="#000000">seq</text>
<polygon fill="none" stroke="#000000" points="585,-91.1265 585,-110.1265 723,-110.1265 723,-91.1265 585,-91.1265"/>
<text text-anchor="start" x="588" y="-97.2265" font-family="Helvetica,sans-Serif" font-size="11.00" fill="#000000">...</text>
<polygon fill="#ffffff" stroke="transparent" points="585,-72.1265 585,-91.1265 648,-91.1265 648,-72.1265 585,-72.1265"/>
<polygon fill="none" stroke="#000000" points="585,-72.1265 585,-91.1265 648,-91.1265 648,-72.1265 585,-72.1265"/>
<text text-anchor="start" x="588" y="-78.2265" font-family="Helvetica,sans-Serif" font-size="11.00" fill="#000000">&lt; 2</text>
<polygon fill="#ffffff" stroke="transparent" points="648,-72.1265 648,-91.1265 681,-91.1265 681,-72.1265 648,-72.1265"/>
<polygon fill="none" stroke="#000000" points="648,-72.1265 648,-91.1265 681,-91.1265 681,-72.1265 648,-72.1265"/>
<text text-anchor="start" x="671.8862" y="-78.2265" font-family="Helvetica,sans-Serif" font-size="11.00" fill="#000000"> &#160;</text>
<polygon fill="#ffffff" stroke="transparent" points="681,-72.1265 681,-91.1265 723,-91.1265 723,-72.1265 681,-72.1265"/>
<polygon fill="none" stroke="#000000" points="681,-72.1265 681,-91.1265 723,-91.1265 723,-72.1265 681,-72.1265"/>
<text text-anchor="start" x="704.4053" y="-78.2265" font-family="Helvetica,sans-Serif" font-size="11.00" fill="#000000">3 &gt;</text>
</a>
</g>
</g>
<!-- shared_attributes&#45;&gt;layout_options -->
<g id="edge8" class="edge">
<title>shared_attributes:w&#45;&gt;layout_options:e</title>
<path fill="none" stroke="#000000" d="M795.1484,-215.0236C764.7168,-205.2952 762.4246,-165.1265 723,-165.1265"/>
<polygon fill="#000000" stroke="#000000" points="801.5845,-215.9666 808.9781,-220.6884 805.5423,-216.5465 809.5,-217.1265 809.5,-217.1265 809.5,-217.1265 805.5423,-216.5465 810.0219,-213.5645 801.5845,-215.9666 801.5845,-215.9666"/>
<ellipse fill="none" stroke="#000000" cx="798.4183" cy="-215.5027" rx="3.2" ry="3.2"/>
</g>
</g>
</svg>
