<?xml version="1.0" encoding="UTF-8" standalone="no"?>
<!DOCTYPE svg PUBLIC "-//W3C//DTD SVG 1.1//EN"
 "http://www.w3.org/Graphics/SVG/1.1/DTD/svg11.dtd">
<!-- Generated by graphviz version 2.40.1 (20161225.0304)
 -->
<!-- Title: oneDegreeRelationshipsDiagram Pages: 1 -->
<svg width="628pt" height="545pt"
 viewBox="0.00 0.00 628.00 545.20" xmlns="http://www.w3.org/2000/svg" xmlns:xlink="http://www.w3.org/1999/xlink">
<g id="graph0" class="graph" transform="scale(1 1) rotate(0) translate(4 541.2)">
<title>oneDegreeRelationshipsDiagram</title>
<polygon fill="#ffffff" stroke="transparent" points="-4,4 -4,-541.2 624,-541.2 624,4 -4,4"/>
<text text-anchor="middle" x="72.4936" y="-7.3" font-family="Helvetica,sans-Serif" font-size="11.00" fill="#000000">Generated by SchemaSpy</text>
<!-- therapy_groups_participants -->
<g id="node1" class="node">
<title>therapy_groups_participants</title>
<g id="a_node1"><a xlink:href="../../tables/therapy_groups_participants.html" xlink:title="therapy_groups_participants" target="_top">
<polygon fill="#ffffff" stroke="transparent" points="334,-216.7 334,-394.7 612,-394.7 612,-216.7 334,-216.7"/>
<polygon fill="#f5f5f5" stroke="transparent" points="336,-369.7 336,-392.7 610,-392.7 610,-369.7 336,-369.7"/>
<polygon fill="none" stroke="#000000" points="336,-369.7 336,-392.7 610,-392.7 610,-369.7 336,-369.7"/>
<text text-anchor="start" x="341" y="-378.3" font-family="Helvetica,sans-Serif" font-weight="bold" font-size="11.00" fill="#000000">therapy_groups_participants</text>
<text text-anchor="start" x="575.0437" y="-377.8" font-family="Helvetica,sans-Serif" font-size="11.00" fill="#000000">[table]</text>
<polygon fill="none" stroke="#000000" points="336,-347.7 336,-369.7 550,-369.7 550,-347.7 336,-347.7"/>
<image xlink:href="../../images/primaryKeys.png" width="11px" height="12px" preserveAspectRatio="xMinYMin meet" x="341" y="-364.7"/>
<text text-anchor="start" x="356" y="-354.8" font-family="Helvetica,sans-Serif" font-size="11.00" fill="#000000">group_id</text>
<polygon fill="none" stroke="#000000" points="550,-347.7 550,-369.7 610,-369.7 610,-347.7 550,-347.7"/>
<text text-anchor="start" x="553" y="-355.4" font-family="Helvetica,sans-Serif" font-size="11.00" fill="#000000">int[10]</text>
<polygon fill="none" stroke="#000000" points="336,-325.7 336,-347.7 550,-347.7 550,-325.7 336,-325.7"/>
<image xlink:href="../../images/primaryKeys.png" width="11px" height="12px" preserveAspectRatio="xMinYMin meet" x="341" y="-342.7"/>
<text text-anchor="start" x="356" y="-332.8" font-family="Helvetica,sans-Serif" font-size="11.00" fill="#000000">pid</text>
<polygon fill="none" stroke="#000000" points="550,-325.7 550,-347.7 610,-347.7 610,-325.7 550,-325.7"/>
<text text-anchor="start" x="553" y="-333.4" font-family="Helvetica,sans-Serif" font-size="11.00" fill="#000000">bigint[19]</text>
<polygon fill="none" stroke="#000000" points="336,-303.7 336,-325.7 550,-325.7 550,-303.7 336,-303.7"/>
<text text-anchor="start" x="356" y="-310.8" font-family="Helvetica,sans-Serif" font-size="11.00" fill="#000000">group_patient_status</text>
<polygon fill="none" stroke="#000000" points="550,-303.7 550,-325.7 610,-325.7 610,-303.7 550,-303.7"/>
<text text-anchor="start" x="553" y="-311.4" font-family="Helvetica,sans-Serif" font-size="11.00" fill="#000000">int[10]</text>
<polygon fill="none" stroke="#000000" points="336,-281.7 336,-303.7 550,-303.7 550,-281.7 336,-281.7"/>
<text text-anchor="start" x="356" y="-288.8" font-family="Helvetica,sans-Serif" font-size="11.00" fill="#000000">group_patient_start</text>
<polygon fill="none" stroke="#000000" points="550,-281.7 550,-303.7 610,-303.7 610,-281.7 550,-281.7"/>
<text text-anchor="start" x="553" y="-289.4" font-family="Helvetica,sans-Serif" font-size="11.00" fill="#000000">date[10]</text>
<polygon fill="none" stroke="#000000" points="336,-259.7 336,-281.7 550,-281.7 550,-259.7 336,-259.7"/>
<text text-anchor="start" x="356" y="-266.8" font-family="Helvetica,sans-Serif" font-size="11.00" fill="#000000">group_patient_end</text>
<polygon fill="none" stroke="#000000" points="550,-259.7 550,-281.7 610,-281.7 610,-259.7 550,-259.7"/>
<text text-anchor="start" x="553" y="-267.4" font-family="Helvetica,sans-Serif" font-size="11.00" fill="#000000">date[10]</text>
<polygon fill="none" stroke="#000000" points="336,-237.7 336,-259.7 550,-259.7 550,-237.7 336,-237.7"/>
<text text-anchor="start" x="356" y="-244.8" font-family="Helvetica,sans-Serif" font-size="11.00" fill="#000000">group_patient_comment</text>
<polygon fill="none" stroke="#000000" points="550,-237.7 550,-259.7 610,-259.7 610,-237.7 550,-237.7"/>
<text text-anchor="start" x="552.7915" y="-245.4" font-family="Helvetica,sans-Serif" font-size="11.00" fill="#000000">text[65535]</text>
<polygon fill="#ffffff" stroke="transparent" points="336,-218.7 336,-237.7 447,-237.7 447,-218.7 336,-218.7"/>
<polygon fill="none" stroke="#000000" points="336,-218.7 336,-237.7 447,-237.7 447,-218.7 336,-218.7"/>
<text text-anchor="start" x="339" y="-224.8" font-family="Helvetica,sans-Serif" font-size="11.00" fill="#000000">&lt; 2</text>
<polygon fill="#ffffff" stroke="transparent" points="447,-218.7 447,-237.7 550,-237.7 550,-218.7 447,-218.7"/>
<polygon fill="none" stroke="#000000" points="447,-218.7 447,-237.7 550,-237.7 550,-218.7 447,-218.7"/>
<text text-anchor="start" x="540.8862" y="-224.8" font-family="Helvetica,sans-Serif" font-size="11.00" fill="#000000"> &#160;</text>
<polygon fill="#ffffff" stroke="transparent" points="550,-218.7 550,-237.7 610,-237.7 610,-218.7 550,-218.7"/>
<polygon fill="none" stroke="#000000" points="550,-218.7 550,-237.7 610,-237.7 610,-218.7 550,-218.7"/>
<text text-anchor="start" x="591.4053" y="-224.8" font-family="Helvetica,sans-Serif" font-size="11.00" fill="#000000">0 &gt;</text>
<polygon fill="none" stroke="#000000" stroke-width="2" points="335,-217.7 335,-393.7 611,-393.7 611,-217.7 335,-217.7"/>
</a>
</g>
</g>
<!-- therapy_groups -->
<g id="node2" class="node">
<title>therapy_groups</title>
<g id="a_node2"><a xlink:href="../../tables/therapy_groups.html" xlink:title="therapy_groups" target="_top">
<polygon fill="#ffffff" stroke="transparent" points="54.5,-450.2 54.5,-533.2 238.5,-533.2 238.5,-450.2 54.5,-450.2"/>
<polygon fill="#f5f5f5" stroke="transparent" points="54.5,-509.7 54.5,-532.7 238.5,-532.7 238.5,-509.7 54.5,-509.7"/>
<polygon fill="none" stroke="#000000" points="54.5,-509.7 54.5,-532.7 238.5,-532.7 238.5,-509.7 54.5,-509.7"/>
<text text-anchor="start" x="59.5" y="-518.3" font-family="Helvetica,sans-Serif" font-weight="bold" font-size="11.00" fill="#000000">therapy_groups</text>
<text text-anchor="start" x="203.5437" y="-517.8" font-family="Helvetica,sans-Serif" font-size="11.00" fill="#000000">[table]</text>
<polygon fill="none" stroke="#000000" points="54.5,-487.7 54.5,-509.7 238.5,-509.7 238.5,-487.7 54.5,-487.7"/>
<image xlink:href="../../images/primaryKeys.png" width="11px" height="12px" preserveAspectRatio="xMinYMin meet" x="59.5" y="-504.7"/>
<text text-anchor="start" x="74.5" y="-494.8" font-family="Helvetica,sans-Serif" font-size="11.00" fill="#000000">group_id</text>
<polygon fill="none" stroke="#000000" points="54.5,-468.7 54.5,-487.7 238.5,-487.7 238.5,-468.7 54.5,-468.7"/>
<text text-anchor="start" x="57.5" y="-474.8" font-family="Helvetica,sans-Serif" font-size="11.00" fill="#000000">...</text>
<polygon fill="#ffffff" stroke="transparent" points="54.5,-449.7 54.5,-468.7 135.5,-468.7 135.5,-449.7 54.5,-449.7"/>
<polygon fill="none" stroke="#000000" points="54.5,-449.7 54.5,-468.7 135.5,-468.7 135.5,-449.7 54.5,-449.7"/>
<text text-anchor="start" x="57.5" y="-455.8" font-family="Helvetica,sans-Serif" font-size="11.00" fill="#000000"> &#160;</text>
<polygon fill="#ffffff" stroke="transparent" points="135.5,-449.7 135.5,-468.7 182.5,-468.7 182.5,-449.7 135.5,-449.7"/>
<polygon fill="none" stroke="#000000" points="135.5,-449.7 135.5,-468.7 182.5,-468.7 182.5,-449.7 135.5,-449.7"/>
<text text-anchor="start" x="173.3862" y="-455.8" font-family="Helvetica,sans-Serif" font-size="11.00" fill="#000000"> &#160;</text>
<polygon fill="#ffffff" stroke="transparent" points="182.5,-449.7 182.5,-468.7 238.5,-468.7 238.5,-449.7 182.5,-449.7"/>
<polygon fill="none" stroke="#000000" points="182.5,-449.7 182.5,-468.7 238.5,-468.7 238.5,-449.7 182.5,-449.7"/>
<text text-anchor="start" x="219.9053" y="-455.8" font-family="Helvetica,sans-Serif" font-size="11.00" fill="#000000">6 &gt;</text>
</a>
</g>
</g>
<!-- therapy_groups_participants&#45;&gt;therapy_groups -->
<g id="edge1" class="edge">
<title>therapy_groups_participants:w&#45;&gt;therapy_groups:e</title>
<path fill="none" stroke="#000000" d="M321.6044,-361.653C300.5866,-372.5574 313.0791,-411.3894 293,-439.7 272.3485,-468.8176 274.1976,-498.7 238.5,-498.7"/>
<polygon fill="#000000" stroke="#000000" points="328.1632,-360.3076 336.7234,-362.2266 332.0816,-359.5038 336,-358.7 336,-358.7 336,-358.7 332.0816,-359.5038 335.2766,-355.1734 328.1632,-360.3076 328.1632,-360.3076"/>
<ellipse fill="none" stroke="#000000" cx="325.0285" cy="-360.9507" rx="3.2" ry="3.2"/>
</g>
<!-- patient_data -->
<g id="node3" class="node">
<title>patient_data</title>
<g id="a_node3"><a xlink:href="../../tables/patient_data.html" xlink:title="patient_data" target="_top">
<polygon fill="#ffffff" stroke="transparent" points="8,-38.2 8,-429.2 285,-429.2 285,-38.2 8,-38.2"/>
<polygon fill="#f5f5f5" stroke="transparent" points="8.5,-405.7 8.5,-428.7 285.5,-428.7 285.5,-405.7 8.5,-405.7"/>
<polygon fill="none" stroke="#000000" points="8.5,-405.7 8.5,-428.7 285.5,-428.7 285.5,-405.7 8.5,-405.7"/>
<text text-anchor="start" x="13.5" y="-414.3" font-family="Helvetica,sans-Serif" font-weight="bold" font-size="11.00" fill="#000000">patient_data</text>
<text text-anchor="start" x="250.5437" y="-413.8" font-family="Helvetica,sans-Serif" font-size="11.00" fill="#000000">[table]</text>
<polygon fill="none" stroke="#000000" points="8.5,-383.7 8.5,-405.7 285.5,-405.7 285.5,-383.7 8.5,-383.7"/>
<image xlink:href="../../images/primaryKeys.png" width="11px" height="12px" preserveAspectRatio="xMinYMin meet" x="13.5" y="-400.7"/>
<text text-anchor="start" x="28.5" y="-390.8" font-family="Helvetica,sans-Serif" font-size="11.00" fill="#000000">id</text>
<polygon fill="#ffffff" stroke="transparent" points="8.5,-361.7 8.5,-383.7 285.5,-383.7 285.5,-361.7 8.5,-361.7"/>
<polygon fill="none" stroke="#000000" points="8.5,-361.7 8.5,-383.7 285.5,-383.7 285.5,-361.7 8.5,-361.7"/>
<text text-anchor="start" x="28.5" y="-368.8" font-family="Helvetica,sans-Serif" font-size="11.00" fill="#000000">uuid</text>
<polygon fill="#ffffff" stroke="transparent" points="8.5,-339.7 8.5,-361.7 285.5,-361.7 285.5,-339.7 8.5,-339.7"/>
<polygon fill="none" stroke="#000000" points="8.5,-339.7 8.5,-361.7 285.5,-361.7 285.5,-339.7 8.5,-339.7"/>
<text text-anchor="start" x="28.5" y="-346.8" font-family="Helvetica,sans-Serif" font-size="11.00" fill="#000000">fname</text>
<polygon fill="#ffffff" stroke="transparent" points="8.5,-317.7 8.5,-339.7 285.5,-339.7 285.5,-317.7 8.5,-317.7"/>
<polygon fill="none" stroke="#000000" points="8.5,-317.7 8.5,-339.7 285.5,-339.7 285.5,-317.7 8.5,-317.7"/>
<text text-anchor="start" x="28.5" y="-324.8" font-family="Helvetica,sans-Serif" font-size="11.00" fill="#000000">lname</text>
<polygon fill="#ffffff" stroke="transparent" points="8.5,-295.7 8.5,-317.7 285.5,-317.7 285.5,-295.7 8.5,-295.7"/>
<polygon fill="none" stroke="#000000" points="8.5,-295.7 8.5,-317.7 285.5,-317.7 285.5,-295.7 8.5,-295.7"/>
<text text-anchor="start" x="28.5" y="-302.8" font-family="Helvetica,sans-Serif" font-size="11.00" fill="#000000">DOB</text>
<polygon fill="none" stroke="#000000" points="8.5,-273.7 8.5,-295.7 285.5,-295.7 285.5,-273.7 8.5,-273.7"/>
<image xlink:href="../../images/foreignKeys.png" width="11px" height="12px" preserveAspectRatio="xMinYMin meet" x="13.5" y="-290.7"/>
<text text-anchor="start" x="28.5" y="-280.8" font-family="Helvetica,sans-Serif" font-size="11.00" fill="#000000">pharmacy_id</text>
<polygon fill="none" stroke="#000000" points="8.5,-251.7 8.5,-273.7 285.5,-273.7 285.5,-251.7 8.5,-251.7"/>
<image xlink:href="../../images/foreignKeys.png" width="11px" height="12px" preserveAspectRatio="xMinYMin meet" x="13.5" y="-268.7"/>
<text text-anchor="start" x="28.5" y="-258.8" font-family="Helvetica,sans-Serif" font-size="11.00" fill="#000000">providerID</text>
<polygon fill="none" stroke="#000000" points="8.5,-229.7 8.5,-251.7 285.5,-251.7 285.5,-229.7 8.5,-229.7"/>
<image xlink:href="../../images/foreignKeys.png" width="11px" height="12px" preserveAspectRatio="xMinYMin meet" x="13.5" y="-246.7"/>
<text text-anchor="start" x="28.5" y="-236.8" font-family="Helvetica,sans-Serif" font-size="11.00" fill="#000000">ref_providerID</text>
<polygon fill="none" stroke="#000000" points="8.5,-207.7 8.5,-229.7 285.5,-229.7 285.5,-207.7 8.5,-207.7"/>
<image xlink:href="../../images/foreignKeys.png" width="11px" height="12px" preserveAspectRatio="xMinYMin meet" x="13.5" y="-224.7"/>
<text text-anchor="start" x="28.5" y="-214.8" font-family="Helvetica,sans-Serif" font-size="11.00" fill="#000000">interpreter_needed</text>
<polygon fill="none" stroke="#000000" points="8.5,-185.7 8.5,-207.7 285.5,-207.7 285.5,-185.7 8.5,-185.7"/>
<image xlink:href="../../images/primaryKeys.png" width="11px" height="12px" preserveAspectRatio="xMinYMin meet" x="13.5" y="-202.7"/>
<text text-anchor="start" x="28.5" y="-192.8" font-family="Helvetica,sans-Serif" font-size="11.00" fill="#000000">pid</text>
<polygon fill="none" stroke="#000000" points="8.5,-163.7 8.5,-185.7 285.5,-185.7 285.5,-163.7 8.5,-163.7"/>
<image xlink:href="../../images/foreignKeys.png" width="11px" height="12px" preserveAspectRatio="xMinYMin meet" x="13.5" y="-180.7"/>
<text text-anchor="start" x="28.5" y="-170.8" font-family="Helvetica,sans-Serif" font-size="11.00" fill="#000000">advance_directive_user_authenticator</text>
<polygon fill="none" stroke="#000000" points="8.5,-141.7 8.5,-163.7 285.5,-163.7 285.5,-141.7 8.5,-141.7"/>
<image xlink:href="../../images/foreignKeys.png" width="11px" height="12px" preserveAspectRatio="xMinYMin meet" x="13.5" y="-158.7"/>
<text text-anchor="start" x="28.5" y="-148.8" font-family="Helvetica,sans-Serif" font-size="11.00" fill="#000000">created_by</text>
<polygon fill="none" stroke="#000000" points="8.5,-119.7 8.5,-141.7 285.5,-141.7 285.5,-119.7 8.5,-119.7"/>
<image xlink:href="../../images/foreignKeys.png" width="11px" height="12px" preserveAspectRatio="xMinYMin meet" x="13.5" y="-136.7"/>
<text text-anchor="start" x="28.5" y="-126.8" font-family="Helvetica,sans-Serif" font-size="11.00" fill="#000000">updated_by</text>
<polygon fill="none" stroke="#000000" points="8.5,-97.7 8.5,-119.7 285.5,-119.7 285.5,-97.7 8.5,-97.7"/>
<image xlink:href="../../images/foreignKeys.png" width="11px" height="12px" preserveAspectRatio="xMinYMin meet" x="13.5" y="-114.7"/>
<text text-anchor="start" x="28.5" y="-104.8" font-family="Helvetica,sans-Serif" font-size="11.00" fill="#000000">tribal_affiliations</text>
<polygon fill="none" stroke="#000000" points="8.5,-75.7 8.5,-97.7 285.5,-97.7 285.5,-75.7 8.5,-75.7"/>
<image xlink:href="../../images/foreignKeys.png" width="11px" height="12px" preserveAspectRatio="xMinYMin meet" x="13.5" y="-92.7"/>
<text text-anchor="start" x="28.5" y="-82.8" font-family="Helvetica,sans-Serif" font-size="11.00" fill="#000000">sex_identified</text>
<polygon fill="none" stroke="#000000" points="8.5,-56.7 8.5,-75.7 285.5,-75.7 285.5,-56.7 8.5,-56.7"/>
<text text-anchor="start" x="11.5" y="-62.8" font-family="Helvetica,sans-Serif" font-size="11.00" fill="#000000">...</text>
<polygon fill="#ffffff" stroke="transparent" points="8.5,-37.7 8.5,-56.7 137.5,-56.7 137.5,-37.7 8.5,-37.7"/>
<polygon fill="none" stroke="#000000" points="8.5,-37.7 8.5,-56.7 137.5,-56.7 137.5,-37.7 8.5,-37.7"/>
<text text-anchor="start" x="11.5" y="-43.8" font-family="Helvetica,sans-Serif" font-size="11.00" fill="#000000">&lt; 9</text>
<polygon fill="#ffffff" stroke="transparent" points="137.5,-37.7 137.5,-56.7 203.5,-56.7 203.5,-37.7 137.5,-37.7"/>
<polygon fill="none" stroke="#000000" points="137.5,-37.7 137.5,-56.7 203.5,-56.7 203.5,-37.7 137.5,-37.7"/>
<text text-anchor="start" x="194.3862" y="-43.8" font-family="Helvetica,sans-Serif" font-size="11.00" fill="#000000"> &#160;</text>
<polygon fill="#ffffff" stroke="transparent" points="203.5,-37.7 203.5,-56.7 285.5,-56.7 285.5,-37.7 203.5,-37.7"/>
<polygon fill="none" stroke="#000000" points="203.5,-37.7 203.5,-56.7 285.5,-56.7 285.5,-37.7 203.5,-37.7"/>
<text text-anchor="start" x="260.7904" y="-43.8" font-family="Helvetica,sans-Serif" font-size="11.00" fill="#000000">95 &gt;</text>
</a>
</g>
</g>
<!-- therapy_groups_participants&#45;&gt;patient_data -->
<g id="edge2" class="edge">
<title>therapy_groups_participants:w&#45;&gt;patient_data:e</title>
<path fill="none" stroke="#000000" d="M321.5393,-333.5129C283.3565,-312.6738 345.7036,-196.7 285.5,-196.7"/>
<polygon fill="#000000" stroke="#000000" points="328.1875,-334.9781 335.2251,-340.2156 332.0938,-335.839 336,-336.7 336,-336.7 336,-336.7 332.0938,-335.839 336.7749,-333.1844 328.1875,-334.9781 328.1875,-334.9781"/>
<ellipse fill="none" stroke="#000000" cx="325.0625" cy="-334.2893" rx="3.2" ry="3.2"/>
</g>
</g>
</svg>
