<?xml version="1.0" encoding="UTF-8" standalone="no"?>
<!DOCTYPE svg PUBLIC "-//W3C//DTD SVG 1.1//EN"
 "http://www.w3.org/Graphics/SVG/1.1/DTD/svg11.dtd">
<!-- Generated by graphviz version 2.40.1 (20161225.0304)
 -->
<!-- Title: oneDegreeRelationshipsDiagram Pages: 1 -->
<svg width="886pt" height="693pt"
 viewBox="0.00 0.00 886.00 692.61" xmlns="http://www.w3.org/2000/svg" xmlns:xlink="http://www.w3.org/1999/xlink">
<g id="graph0" class="graph" transform="scale(1 1) rotate(0) translate(4 688.6108)">
<title>oneDegreeRelationshipsDiagram</title>
<polygon fill="#ffffff" stroke="transparent" points="-4,4 -4,-688.6108 882,-688.6108 882,4 -4,4"/>
<text text-anchor="middle" x="72.4936" y="-7.3" font-family="Helvetica,sans-Serif" font-size="11.00" fill="#000000">Generated by SchemaSpy</text>
<!-- patient_data -->
<g id="node1" class="node">
<title>patient_data</title>
<g id="a_node1"><a xlink:href="../../tables/patient_data.html" xlink:title="patient_data" target="_top">
<polygon fill="#ffffff" stroke="transparent" points="189,-97.6108 189,-488.6108 466,-488.6108 466,-97.6108 189,-97.6108"/>
<polygon fill="#f5f5f5" stroke="transparent" points="189.5,-465.1108 189.5,-488.1108 466.5,-488.1108 466.5,-465.1108 189.5,-465.1108"/>
<polygon fill="none" stroke="#000000" points="189.5,-465.1108 189.5,-488.1108 466.5,-488.1108 466.5,-465.1108 189.5,-465.1108"/>
<text text-anchor="start" x="194.5" y="-473.7108" font-family="Helvetica,sans-Serif" font-weight="bold" font-size="11.00" fill="#000000">patient_data</text>
<text text-anchor="start" x="431.5437" y="-473.2108" font-family="Helvetica,sans-Serif" font-size="11.00" fill="#000000">[table]</text>
<polygon fill="none" stroke="#000000" points="189.5,-443.1108 189.5,-465.1108 466.5,-465.1108 466.5,-443.1108 189.5,-443.1108"/>
<image xlink:href="../../images/primaryKeys.png" width="11px" height="12px" preserveAspectRatio="xMinYMin meet" x="194.5" y="-460.111"/>
<text text-anchor="start" x="209.5" y="-450.2108" font-family="Helvetica,sans-Serif" font-size="11.00" fill="#000000">id</text>
<polygon fill="#ffffff" stroke="transparent" points="189.5,-421.1108 189.5,-443.1108 466.5,-443.1108 466.5,-421.1108 189.5,-421.1108"/>
<polygon fill="none" stroke="#000000" points="189.5,-421.1108 189.5,-443.1108 466.5,-443.1108 466.5,-421.1108 189.5,-421.1108"/>
<text text-anchor="start" x="209.5" y="-428.2108" font-family="Helvetica,sans-Serif" font-size="11.00" fill="#000000">uuid</text>
<polygon fill="#ffffff" stroke="transparent" points="189.5,-399.1108 189.5,-421.1108 466.5,-421.1108 466.5,-399.1108 189.5,-399.1108"/>
<polygon fill="none" stroke="#000000" points="189.5,-399.1108 189.5,-421.1108 466.5,-421.1108 466.5,-399.1108 189.5,-399.1108"/>
<text text-anchor="start" x="209.5" y="-406.2108" font-family="Helvetica,sans-Serif" font-size="11.00" fill="#000000">fname</text>
<polygon fill="#ffffff" stroke="transparent" points="189.5,-377.1108 189.5,-399.1108 466.5,-399.1108 466.5,-377.1108 189.5,-377.1108"/>
<polygon fill="none" stroke="#000000" points="189.5,-377.1108 189.5,-399.1108 466.5,-399.1108 466.5,-377.1108 189.5,-377.1108"/>
<text text-anchor="start" x="209.5" y="-384.2108" font-family="Helvetica,sans-Serif" font-size="11.00" fill="#000000">lname</text>
<polygon fill="#ffffff" stroke="transparent" points="189.5,-355.1108 189.5,-377.1108 466.5,-377.1108 466.5,-355.1108 189.5,-355.1108"/>
<polygon fill="none" stroke="#000000" points="189.5,-355.1108 189.5,-377.1108 466.5,-377.1108 466.5,-355.1108 189.5,-355.1108"/>
<text text-anchor="start" x="209.5" y="-362.2108" font-family="Helvetica,sans-Serif" font-size="11.00" fill="#000000">DOB</text>
<polygon fill="none" stroke="#000000" points="189.5,-333.1108 189.5,-355.1108 466.5,-355.1108 466.5,-333.1108 189.5,-333.1108"/>
<image xlink:href="../../images/foreignKeys.png" width="11px" height="12px" preserveAspectRatio="xMinYMin meet" x="194.5" y="-350.111"/>
<text text-anchor="start" x="209.5" y="-340.2108" font-family="Helvetica,sans-Serif" font-size="11.00" fill="#000000">pharmacy_id</text>
<polygon fill="none" stroke="#000000" points="189.5,-311.1108 189.5,-333.1108 466.5,-333.1108 466.5,-311.1108 189.5,-311.1108"/>
<image xlink:href="../../images/foreignKeys.png" width="11px" height="12px" preserveAspectRatio="xMinYMin meet" x="194.5" y="-328.111"/>
<text text-anchor="start" x="209.5" y="-318.2108" font-family="Helvetica,sans-Serif" font-size="11.00" fill="#000000">providerID</text>
<polygon fill="none" stroke="#000000" points="189.5,-289.1108 189.5,-311.1108 466.5,-311.1108 466.5,-289.1108 189.5,-289.1108"/>
<image xlink:href="../../images/foreignKeys.png" width="11px" height="12px" preserveAspectRatio="xMinYMin meet" x="194.5" y="-306.111"/>
<text text-anchor="start" x="209.5" y="-296.2108" font-family="Helvetica,sans-Serif" font-size="11.00" fill="#000000">ref_providerID</text>
<polygon fill="none" stroke="#000000" points="189.5,-267.1108 189.5,-289.1108 466.5,-289.1108 466.5,-267.1108 189.5,-267.1108"/>
<image xlink:href="../../images/foreignKeys.png" width="11px" height="12px" preserveAspectRatio="xMinYMin meet" x="194.5" y="-284.111"/>
<text text-anchor="start" x="209.5" y="-274.2108" font-family="Helvetica,sans-Serif" font-size="11.00" fill="#000000">interpreter_needed</text>
<polygon fill="none" stroke="#000000" points="189.5,-245.1108 189.5,-267.1108 466.5,-267.1108 466.5,-245.1108 189.5,-245.1108"/>
<image xlink:href="../../images/primaryKeys.png" width="11px" height="12px" preserveAspectRatio="xMinYMin meet" x="194.5" y="-262.111"/>
<text text-anchor="start" x="209.5" y="-252.2108" font-family="Helvetica,sans-Serif" font-size="11.00" fill="#000000">pid</text>
<polygon fill="none" stroke="#000000" points="189.5,-223.1108 189.5,-245.1108 466.5,-245.1108 466.5,-223.1108 189.5,-223.1108"/>
<image xlink:href="../../images/foreignKeys.png" width="11px" height="12px" preserveAspectRatio="xMinYMin meet" x="194.5" y="-240.111"/>
<text text-anchor="start" x="209.5" y="-230.2108" font-family="Helvetica,sans-Serif" font-size="11.00" fill="#000000">advance_directive_user_authenticator</text>
<polygon fill="none" stroke="#000000" points="189.5,-201.1108 189.5,-223.1108 466.5,-223.1108 466.5,-201.1108 189.5,-201.1108"/>
<image xlink:href="../../images/foreignKeys.png" width="11px" height="12px" preserveAspectRatio="xMinYMin meet" x="194.5" y="-218.111"/>
<text text-anchor="start" x="209.5" y="-208.2108" font-family="Helvetica,sans-Serif" font-size="11.00" fill="#000000">created_by</text>
<polygon fill="none" stroke="#000000" points="189.5,-179.1108 189.5,-201.1108 466.5,-201.1108 466.5,-179.1108 189.5,-179.1108"/>
<image xlink:href="../../images/foreignKeys.png" width="11px" height="12px" preserveAspectRatio="xMinYMin meet" x="194.5" y="-196.111"/>
<text text-anchor="start" x="209.5" y="-186.2108" font-family="Helvetica,sans-Serif" font-size="11.00" fill="#000000">updated_by</text>
<polygon fill="none" stroke="#000000" points="189.5,-157.1108 189.5,-179.1108 466.5,-179.1108 466.5,-157.1108 189.5,-157.1108"/>
<image xlink:href="../../images/foreignKeys.png" width="11px" height="12px" preserveAspectRatio="xMinYMin meet" x="194.5" y="-174.111"/>
<text text-anchor="start" x="209.5" y="-164.2108" font-family="Helvetica,sans-Serif" font-size="11.00" fill="#000000">tribal_affiliations</text>
<polygon fill="none" stroke="#000000" points="189.5,-135.1108 189.5,-157.1108 466.5,-157.1108 466.5,-135.1108 189.5,-135.1108"/>
<image xlink:href="../../images/foreignKeys.png" width="11px" height="12px" preserveAspectRatio="xMinYMin meet" x="194.5" y="-152.111"/>
<text text-anchor="start" x="209.5" y="-142.2108" font-family="Helvetica,sans-Serif" font-size="11.00" fill="#000000">sex_identified</text>
<polygon fill="none" stroke="#000000" points="189.5,-116.1108 189.5,-135.1108 466.5,-135.1108 466.5,-116.1108 189.5,-116.1108"/>
<text text-anchor="start" x="192.5" y="-122.2108" font-family="Helvetica,sans-Serif" font-size="11.00" fill="#000000">...</text>
<polygon fill="#ffffff" stroke="transparent" points="189.5,-97.1108 189.5,-116.1108 318.5,-116.1108 318.5,-97.1108 189.5,-97.1108"/>
<polygon fill="none" stroke="#000000" points="189.5,-97.1108 189.5,-116.1108 318.5,-116.1108 318.5,-97.1108 189.5,-97.1108"/>
<text text-anchor="start" x="192.5" y="-103.2108" font-family="Helvetica,sans-Serif" font-size="11.00" fill="#000000">&lt; 9</text>
<polygon fill="#ffffff" stroke="transparent" points="318.5,-97.1108 318.5,-116.1108 384.5,-116.1108 384.5,-97.1108 318.5,-97.1108"/>
<polygon fill="none" stroke="#000000" points="318.5,-97.1108 318.5,-116.1108 384.5,-116.1108 384.5,-97.1108 318.5,-97.1108"/>
<text text-anchor="start" x="375.3862" y="-103.2108" font-family="Helvetica,sans-Serif" font-size="11.00" fill="#000000"> &#160;</text>
<polygon fill="#ffffff" stroke="transparent" points="384.5,-97.1108 384.5,-116.1108 466.5,-116.1108 466.5,-97.1108 384.5,-97.1108"/>
<polygon fill="none" stroke="#000000" points="384.5,-97.1108 384.5,-116.1108 466.5,-116.1108 466.5,-97.1108 384.5,-97.1108"/>
<text text-anchor="start" x="441.7904" y="-103.2108" font-family="Helvetica,sans-Serif" font-size="11.00" fill="#000000">95 &gt;</text>
</a>
</g>
</g>
<!-- list_options -->
<g id="node2" class="node">
<title>list_options</title>
<g id="a_node2"><a xlink:href="../../tables/list_options.html" xlink:title="list_options" target="_top">
<polygon fill="#ffffff" stroke="transparent" points="8,-108.6108 8,-213.6108 140,-213.6108 140,-108.6108 8,-108.6108"/>
<polygon fill="#f5f5f5" stroke="transparent" points="8,-190.1108 8,-213.1108 140,-213.1108 140,-190.1108 8,-190.1108"/>
<polygon fill="none" stroke="#000000" points="8,-190.1108 8,-213.1108 140,-213.1108 140,-190.1108 8,-190.1108"/>
<text text-anchor="start" x="13" y="-198.7108" font-family="Helvetica,sans-Serif" font-weight="bold" font-size="11.00" fill="#000000">list_options</text>
<text text-anchor="start" x="105.0437" y="-198.2108" font-family="Helvetica,sans-Serif" font-size="11.00" fill="#000000">[table]</text>
<polygon fill="none" stroke="#000000" points="8,-168.1108 8,-190.1108 140,-190.1108 140,-168.1108 8,-168.1108"/>
<image xlink:href="../../images/primaryKeys.png" width="11px" height="12px" preserveAspectRatio="xMinYMin meet" x="13" y="-185.111"/>
<text text-anchor="start" x="28" y="-175.2108" font-family="Helvetica,sans-Serif" font-size="11.00" fill="#000000">list_id</text>
<polygon fill="none" stroke="#000000" points="8,-146.1108 8,-168.1108 140,-168.1108 140,-146.1108 8,-146.1108"/>
<image xlink:href="../../images/primaryKeys.png" width="11px" height="12px" preserveAspectRatio="xMinYMin meet" x="13" y="-163.111"/>
<text text-anchor="start" x="28" y="-153.2108" font-family="Helvetica,sans-Serif" font-size="11.00" fill="#000000">option_id</text>
<polygon fill="none" stroke="#000000" points="8,-127.1108 8,-146.1108 140,-146.1108 140,-127.1108 8,-127.1108"/>
<text text-anchor="start" x="11" y="-133.2108" font-family="Helvetica,sans-Serif" font-size="11.00" fill="#000000">...</text>
<polygon fill="#ffffff" stroke="transparent" points="8,-108.1108 8,-127.1108 60,-127.1108 60,-108.1108 8,-108.1108"/>
<polygon fill="none" stroke="#000000" points="8,-108.1108 8,-127.1108 60,-127.1108 60,-108.1108 8,-108.1108"/>
<text text-anchor="start" x="11" y="-114.2108" font-family="Helvetica,sans-Serif" font-size="11.00" fill="#000000"> &#160;</text>
<polygon fill="#ffffff" stroke="transparent" points="60,-108.1108 60,-127.1108 92,-127.1108 92,-108.1108 60,-108.1108"/>
<polygon fill="none" stroke="#000000" points="60,-108.1108 60,-127.1108 92,-127.1108 92,-108.1108 60,-108.1108"/>
<text text-anchor="start" x="82.8862" y="-114.2108" font-family="Helvetica,sans-Serif" font-size="11.00" fill="#000000"> &#160;</text>
<polygon fill="#ffffff" stroke="transparent" points="92,-108.1108 92,-127.1108 140,-127.1108 140,-108.1108 92,-108.1108"/>
<polygon fill="none" stroke="#000000" points="92,-108.1108 92,-127.1108 140,-127.1108 140,-108.1108 92,-108.1108"/>
<text text-anchor="start" x="115.2904" y="-114.2108" font-family="Helvetica,sans-Serif" font-size="11.00" fill="#000000">98 &gt;</text>
</a>
</g>
</g>
<!-- patient_data&#45;&gt;list_options -->
<g id="edge1" class="edge">
<title>patient_data:w&#45;&gt;list_options:e</title>
<path fill="none" stroke="#000000" d="M175.3973,-274.62C143.6588,-254.7808 192.2026,-157.1108 140,-157.1108"/>
<polygon fill="#000000" stroke="#000000" points="181.7344,-276.1886 188.635,-281.6054 185.6172,-277.1497 189.5,-278.1108 189.5,-278.1108 189.5,-278.1108 185.6172,-277.1497 190.365,-274.6163 181.7344,-276.1886 181.7344,-276.1886"/>
<ellipse fill="none" stroke="#000000" cx="178.6281" cy="-275.4197" rx="3.2" ry="3.2"/>
</g>
<!-- patient_data&#45;&gt;list_options -->
<g id="edge2" class="edge">
<title>patient_data:w&#45;&gt;list_options:e</title>
<path fill="none" stroke="#000000" d="M175.0598,-147.9272C163.4771,-151.0516 156.7264,-157.1108 140,-157.1108"/>
<polygon fill="#000000" stroke="#000000" points="181.5626,-147.1093 189.9493,-149.6827 185.5313,-146.6101 189.5,-146.1108 189.5,-146.1108 189.5,-146.1108 185.5313,-146.6101 189.0507,-142.539 181.5626,-147.1093 181.5626,-147.1093"/>
<ellipse fill="none" stroke="#000000" cx="178.3876" cy="-147.5087" rx="3.2" ry="3.2"/>
</g>
<!-- patient_data&#45;&gt;list_options -->
<g id="edge3" class="edge">
<title>patient_data:w&#45;&gt;list_options:e</title>
<path fill="none" stroke="#000000" d="M175.0598,-166.2944C163.4771,-163.1701 156.7264,-157.1108 140,-157.1108"/>
<polygon fill="#000000" stroke="#000000" points="181.5626,-167.1123 189.0507,-171.6827 185.5313,-167.6116 189.5,-168.1108 189.5,-168.1108 189.5,-168.1108 185.5313,-167.6116 189.9493,-164.539 181.5626,-167.1123 181.5626,-167.1123"/>
<ellipse fill="none" stroke="#000000" cx="178.3876" cy="-166.7129" rx="3.2" ry="3.2"/>
</g>
<!-- therapy_groups_participant_attendance -->
<g id="node3" class="node">
<title>therapy_groups_participant_attendance</title>
<g id="a_node3"><a xlink:href="../../tables/therapy_groups_participant_attendance.html" xlink:title="therapy_groups_participant_attendance" target="_top">
<polygon fill="#ffffff" stroke="transparent" points="515,-180.1108 515,-314.1108 870,-314.1108 870,-180.1108 515,-180.1108"/>
<polygon fill="#f5f5f5" stroke="transparent" points="517.5,-289.1108 517.5,-312.1108 868.5,-312.1108 868.5,-289.1108 517.5,-289.1108"/>
<polygon fill="none" stroke="#000000" points="517.5,-289.1108 517.5,-312.1108 868.5,-312.1108 868.5,-289.1108 517.5,-289.1108"/>
<text text-anchor="start" x="522.5" y="-297.7108" font-family="Helvetica,sans-Serif" font-weight="bold" font-size="11.00" fill="#000000">therapy_groups_participant_attendance</text>
<text text-anchor="start" x="833.5437" y="-297.2108" font-family="Helvetica,sans-Serif" font-size="11.00" fill="#000000">[table]</text>
<polygon fill="none" stroke="#000000" points="517.5,-267.1108 517.5,-289.1108 807.5,-289.1108 807.5,-267.1108 517.5,-267.1108"/>
<image xlink:href="../../images/primaryKeys.png" width="11px" height="12px" preserveAspectRatio="xMinYMin meet" x="522.5" y="-284.111"/>
<text text-anchor="start" x="537.5" y="-274.2108" font-family="Helvetica,sans-Serif" font-size="11.00" fill="#000000">form_id</text>
<polygon fill="none" stroke="#000000" points="807.5,-267.1108 807.5,-289.1108 868.5,-289.1108 868.5,-267.1108 807.5,-267.1108"/>
<text text-anchor="start" x="810.5" y="-274.8108" font-family="Helvetica,sans-Serif" font-size="11.00" fill="#000000">int[10]</text>
<polygon fill="none" stroke="#000000" points="517.5,-245.1108 517.5,-267.1108 807.5,-267.1108 807.5,-245.1108 517.5,-245.1108"/>
<image xlink:href="../../images/primaryKeys.png" width="11px" height="12px" preserveAspectRatio="xMinYMin meet" x="522.5" y="-262.111"/>
<text text-anchor="start" x="537.5" y="-252.2108" font-family="Helvetica,sans-Serif" font-size="11.00" fill="#000000">pid</text>
<polygon fill="none" stroke="#000000" points="807.5,-245.1108 807.5,-267.1108 868.5,-267.1108 868.5,-245.1108 807.5,-245.1108"/>
<text text-anchor="start" x="810.5" y="-252.8108" font-family="Helvetica,sans-Serif" font-size="11.00" fill="#000000">bigint[19]</text>
<polygon fill="none" stroke="#000000" points="517.5,-223.1108 517.5,-245.1108 807.5,-245.1108 807.5,-223.1108 517.5,-223.1108"/>
<text text-anchor="start" x="537.5" y="-230.2108" font-family="Helvetica,sans-Serif" font-size="11.00" fill="#000000">meeting_patient_comment</text>
<polygon fill="none" stroke="#000000" points="807.5,-223.1108 807.5,-245.1108 868.5,-245.1108 868.5,-223.1108 807.5,-223.1108"/>
<text text-anchor="start" x="810.5" y="-230.8108" font-family="Helvetica,sans-Serif" font-size="11.00" fill="#000000">text[65535]</text>
<polygon fill="none" stroke="#000000" points="517.5,-201.1108 517.5,-223.1108 807.5,-223.1108 807.5,-201.1108 517.5,-201.1108"/>
<image xlink:href="../../images/foreignKeys.png" width="11px" height="12px" preserveAspectRatio="xMinYMin meet" x="522.5" y="-218.111"/>
<text text-anchor="start" x="537.5" y="-208.2108" font-family="Helvetica,sans-Serif" font-size="11.00" fill="#000000">meeting_patient_status</text>
<polygon fill="none" stroke="#000000" points="807.5,-201.1108 807.5,-223.1108 868.5,-223.1108 868.5,-201.1108 807.5,-201.1108"/>
<text text-anchor="start" x="810.494" y="-208.8108" font-family="Helvetica,sans-Serif" font-size="11.00" fill="#000000">varchar[15]</text>
<polygon fill="#ffffff" stroke="transparent" points="517.5,-182.1108 517.5,-201.1108 666.5,-201.1108 666.5,-182.1108 517.5,-182.1108"/>
<polygon fill="none" stroke="#000000" points="517.5,-182.1108 517.5,-201.1108 666.5,-201.1108 666.5,-182.1108 517.5,-182.1108"/>
<text text-anchor="start" x="520.5" y="-188.2108" font-family="Helvetica,sans-Serif" font-size="11.00" fill="#000000">&lt; 3</text>
<polygon fill="#ffffff" stroke="transparent" points="666.5,-182.1108 666.5,-201.1108 807.5,-201.1108 807.5,-182.1108 666.5,-182.1108"/>
<polygon fill="none" stroke="#000000" points="666.5,-182.1108 666.5,-201.1108 807.5,-201.1108 807.5,-182.1108 666.5,-182.1108"/>
<text text-anchor="start" x="798.3862" y="-188.2108" font-family="Helvetica,sans-Serif" font-size="11.00" fill="#000000"> &#160;</text>
<polygon fill="#ffffff" stroke="transparent" points="807.5,-182.1108 807.5,-201.1108 868.5,-201.1108 868.5,-182.1108 807.5,-182.1108"/>
<polygon fill="none" stroke="#000000" points="807.5,-182.1108 807.5,-201.1108 868.5,-201.1108 868.5,-182.1108 807.5,-182.1108"/>
<text text-anchor="start" x="849.9053" y="-188.2108" font-family="Helvetica,sans-Serif" font-size="11.00" fill="#000000">0 &gt;</text>
<polygon fill="none" stroke="#000000" stroke-width="2" points="516,-181.1108 516,-313.1108 869,-313.1108 869,-181.1108 516,-181.1108"/>
</a>
</g>
</g>
<!-- therapy_groups_participant_attendance&#45;&gt;patient_data -->
<g id="edge6" class="edge">
<title>therapy_groups_participant_attendance:w&#45;&gt;patient_data:e</title>
<path fill="none" stroke="#000000" d="M502.776,-256.1108C490.7815,-256.1108 483.3229,-256.1108 466.5,-256.1108"/>
<polygon fill="#000000" stroke="#000000" points="509.5,-256.1109 517.5,-259.7108 513.5,-256.1108 517.5,-256.1108 517.5,-256.1108 517.5,-256.1108 513.5,-256.1108 517.5,-252.5108 509.5,-256.1109 509.5,-256.1109"/>
<ellipse fill="none" stroke="#000000" cx="506.3" cy="-256.1109" rx="3.2" ry="3.2"/>
</g>
<!-- therapy_groups_participant_attendance&#45;&gt;list_options -->
<g id="edge5" class="edge">
<title>therapy_groups_participant_attendance:w&#45;&gt;list_options:e</title>
<path fill="none" stroke="#000000" d="M503.1109,-209.4521C470.3808,-194.2291 517.0756,-117.7299 474,-87.1108 367.8602,-11.6643 293.9787,-22.3525 181,-87.1108 149.7194,-105.0406 176.0548,-157.1108 140,-157.1108"/>
<polygon fill="#000000" stroke="#000000" points="509.6332,-210.6572 516.8459,-215.6509 513.5666,-211.384 517.5,-212.1108 517.5,-212.1108 517.5,-212.1108 513.5666,-211.384 518.1541,-208.5707 509.6332,-210.6572 509.6332,-210.6572"/>
<ellipse fill="none" stroke="#000000" cx="506.4864" cy="-210.0758" rx="3.2" ry="3.2"/>
</g>
<!-- form_group_attendance -->
<g id="node4" class="node">
<title>form_group_attendance</title>
<g id="a_node4"><a xlink:href="../../tables/form_group_attendance.html" xlink:title="form_group_attendance" target="_top">
<polygon fill="#ffffff" stroke="transparent" points="228,-509.6108 228,-680.6108 427,-680.6108 427,-509.6108 228,-509.6108"/>
<polygon fill="#f5f5f5" stroke="transparent" points="228.5,-657.1108 228.5,-680.1108 427.5,-680.1108 427.5,-657.1108 228.5,-657.1108"/>
<polygon fill="none" stroke="#000000" points="228.5,-657.1108 228.5,-680.1108 427.5,-680.1108 427.5,-657.1108 228.5,-657.1108"/>
<text text-anchor="start" x="233.5" y="-665.7108" font-family="Helvetica,sans-Serif" font-weight="bold" font-size="11.00" fill="#000000">form_group_attendance</text>
<text text-anchor="start" x="393.0219" y="-665.2108" font-family="Helvetica,sans-Serif" font-size="11.00" fill="#000000">[table]</text>
<polygon fill="none" stroke="#000000" points="228.5,-635.1108 228.5,-657.1108 427.5,-657.1108 427.5,-635.1108 228.5,-635.1108"/>
<image xlink:href="../../images/primaryKeys.png" width="11px" height="12px" preserveAspectRatio="xMinYMin meet" x="233.5" y="-652.111"/>
<text text-anchor="start" x="257.5" y="-642.2108" font-family="Helvetica,sans-Serif" font-size="11.00" fill="#000000">id</text>
<polygon fill="none" stroke="#000000" points="228.5,-613.1108 228.5,-635.1108 427.5,-635.1108 427.5,-613.1108 228.5,-613.1108"/>
<image xlink:href="../../images/foreignKeys.png" width="11px" height="12px" preserveAspectRatio="xMinYMin meet" x="233.5" y="-630.111"/>
<text text-anchor="start" x="257.5" y="-620.2108" font-family="Helvetica,sans-Serif" font-size="11.00" fill="#000000">group_id</text>
<polygon fill="none" stroke="#000000" points="228.5,-591.1108 228.5,-613.1108 427.5,-613.1108 427.5,-591.1108 228.5,-591.1108"/>
<image xlink:href="../../images/foreignKeys.png" width="11px" height="12px" preserveAspectRatio="xMinYMin meet" x="233.5" y="-608.111"/>
<text text-anchor="start" x="257.5" y="-598.2108" font-family="Helvetica,sans-Serif" font-size="11.00" fill="#000000">user</text>
<polygon fill="none" stroke="#000000" points="228.5,-569.1108 228.5,-591.1108 427.5,-591.1108 427.5,-569.1108 228.5,-569.1108"/>
<image xlink:href="../../images/foreignKeys.png" width="11px" height="12px" preserveAspectRatio="xMinYMin meet" x="233.5" y="-586.111"/>
<text text-anchor="start" x="257.5" y="-576.2108" font-family="Helvetica,sans-Serif" font-size="11.00" fill="#000000">groupname</text>
<polygon fill="none" stroke="#000000" points="228.5,-547.1108 228.5,-569.1108 427.5,-569.1108 427.5,-547.1108 228.5,-547.1108"/>
<image xlink:href="../../images/foreignKeys.png" width="11px" height="12px" preserveAspectRatio="xMinYMin meet" x="233.5" y="-564.111"/>
<text text-anchor="start" x="257.5" y="-554.2108" font-family="Helvetica,sans-Serif" font-size="11.00" fill="#000000">encounter_id</text>
<polygon fill="none" stroke="#000000" points="228.5,-528.1108 228.5,-547.1108 427.5,-547.1108 427.5,-528.1108 228.5,-528.1108"/>
<text text-anchor="start" x="231.5" y="-534.2108" font-family="Helvetica,sans-Serif" font-size="11.00" fill="#000000">...</text>
<polygon fill="#ffffff" stroke="transparent" points="228.5,-509.1108 228.5,-528.1108 321.5,-528.1108 321.5,-509.1108 228.5,-509.1108"/>
<polygon fill="none" stroke="#000000" points="228.5,-509.1108 228.5,-528.1108 321.5,-528.1108 321.5,-509.1108 228.5,-509.1108"/>
<text text-anchor="start" x="231.5" y="-515.2108" font-family="Helvetica,sans-Serif" font-size="11.00" fill="#000000">&lt; 5</text>
<polygon fill="#ffffff" stroke="transparent" points="321.5,-509.1108 321.5,-528.1108 369.5,-528.1108 369.5,-509.1108 321.5,-509.1108"/>
<polygon fill="none" stroke="#000000" points="321.5,-509.1108 321.5,-528.1108 369.5,-528.1108 369.5,-509.1108 321.5,-509.1108"/>
<text text-anchor="start" x="360.3862" y="-515.2108" font-family="Helvetica,sans-Serif" font-size="11.00" fill="#000000"> &#160;</text>
<polygon fill="#ffffff" stroke="transparent" points="369.5,-509.1108 369.5,-528.1108 427.5,-528.1108 427.5,-509.1108 369.5,-509.1108"/>
<polygon fill="none" stroke="#000000" points="369.5,-509.1108 369.5,-528.1108 427.5,-528.1108 427.5,-509.1108 369.5,-509.1108"/>
<text text-anchor="start" x="408.9053" y="-515.2108" font-family="Helvetica,sans-Serif" font-size="11.00" fill="#000000">1 &gt;</text>
</a>
</g>
</g>
<!-- therapy_groups_participant_attendance&#45;&gt;form_group_attendance -->
<g id="edge4" class="edge">
<title>therapy_groups_participant_attendance:w&#45;&gt;form_group_attendance:e</title>
<path fill="none" stroke="#000000" d="M503.8479,-283.5197C471.0959,-313.1195 485.0929,-455.7324 474,-499.1108 457.0231,-565.4986 496.0241,-646.1108 427.5,-646.1108"/>
<polygon fill="#000000" stroke="#000000" points="510.0625,-281.0575 518.826,-281.4577 513.7812,-279.5842 517.5,-278.1108 517.5,-278.1108 517.5,-278.1108 513.7812,-279.5842 516.174,-274.7639 510.0625,-281.0575 510.0625,-281.0575"/>
<ellipse fill="none" stroke="#000000" cx="507.0874" cy="-282.2362" rx="3.2" ry="3.2"/>
</g>
</g>
</svg>
