<?xml version="1.0" encoding="UTF-8" standalone="no"?>
<!DOCTYPE svg PUBLIC "-//W3C//DTD SVG 1.1//EN"
 "http://www.w3.org/Graphics/SVG/1.1/DTD/svg11.dtd">
<!-- Generated by graphviz version 2.40.1 (20161225.0304)
 -->
<!-- Title: oneDegreeRelationshipsDiagram Pages: 1 -->
<svg width="668pt" height="441pt"
 viewBox="0.00 0.00 668.00 441.20" xmlns="http://www.w3.org/2000/svg" xmlns:xlink="http://www.w3.org/1999/xlink">
<g id="graph0" class="graph" transform="scale(1 1) rotate(0) translate(4 437.2)">
<title>oneDegreeRelationshipsDiagram</title>
<polygon fill="#ffffff" stroke="transparent" points="-4,4 -4,-437.2 664,-437.2 664,4 -4,4"/>
<text text-anchor="middle" x="72.4936" y="-7.3" font-family="Helvetica,sans-Serif" font-size="11.00" fill="#000000">Generated by SchemaSpy</text>
<!-- lbf_data -->
<g id="node1" class="node">
<title>lbf_data</title>
<g id="a_node1"><a xlink:href="../../tables/lbf_data.html" xlink:title="lbf_data" target="_top">
<polygon fill="#ffffff" stroke="transparent" points="559,-255.2 559,-360.2 652,-360.2 652,-255.2 559,-255.2"/>
<polygon fill="#f5f5f5" stroke="transparent" points="559.5,-336.7 559.5,-359.7 652.5,-359.7 652.5,-336.7 559.5,-336.7"/>
<polygon fill="none" stroke="#000000" points="559.5,-336.7 559.5,-359.7 652.5,-359.7 652.5,-336.7 559.5,-336.7"/>
<text text-anchor="start" x="564.5" y="-345.3" font-family="Helvetica,sans-Serif" font-weight="bold" font-size="11.00" fill="#000000">lbf_data</text>
<text text-anchor="start" x="618.0219" y="-344.8" font-family="Helvetica,sans-Serif" font-size="11.00" fill="#000000">[table]</text>
<polygon fill="none" stroke="#000000" points="559.5,-314.7 559.5,-336.7 652.5,-336.7 652.5,-314.7 559.5,-314.7"/>
<image xlink:href="../../images/primaryKeys.png" width="11px" height="12px" preserveAspectRatio="xMinYMin meet" x="564.5" y="-331.7"/>
<text text-anchor="start" x="579.5" y="-321.8" font-family="Helvetica,sans-Serif" font-size="11.00" fill="#000000">form_id</text>
<polygon fill="none" stroke="#000000" points="559.5,-292.7 559.5,-314.7 652.5,-314.7 652.5,-292.7 559.5,-292.7"/>
<image xlink:href="../../images/primaryKeys.png" width="11px" height="12px" preserveAspectRatio="xMinYMin meet" x="564.5" y="-309.7"/>
<text text-anchor="start" x="579.5" y="-299.8" font-family="Helvetica,sans-Serif" font-size="11.00" fill="#000000">field_id</text>
<polygon fill="none" stroke="#000000" points="559.5,-273.7 559.5,-292.7 652.5,-292.7 652.5,-273.7 559.5,-273.7"/>
<text text-anchor="start" x="562.5" y="-279.8" font-family="Helvetica,sans-Serif" font-size="11.00" fill="#000000">...</text>
<polygon fill="#ffffff" stroke="transparent" points="559.5,-254.7 559.5,-273.7 604.5,-273.7 604.5,-254.7 559.5,-254.7"/>
<polygon fill="none" stroke="#000000" points="559.5,-254.7 559.5,-273.7 604.5,-273.7 604.5,-254.7 559.5,-254.7"/>
<text text-anchor="start" x="562.5" y="-260.8" font-family="Helvetica,sans-Serif" font-size="11.00" fill="#000000">&lt; 2</text>
<polygon fill="#ffffff" stroke="transparent" points="604.5,-254.7 604.5,-273.7 628.5,-273.7 628.5,-254.7 604.5,-254.7"/>
<polygon fill="none" stroke="#000000" points="604.5,-254.7 604.5,-273.7 628.5,-273.7 628.5,-254.7 604.5,-254.7"/>
<text text-anchor="start" x="619.3862" y="-260.8" font-family="Helvetica,sans-Serif" font-size="11.00" fill="#000000"> &#160;</text>
<polygon fill="#ffffff" stroke="transparent" points="628.5,-254.7 628.5,-273.7 652.5,-273.7 652.5,-254.7 628.5,-254.7"/>
<polygon fill="none" stroke="#000000" points="628.5,-254.7 628.5,-273.7 652.5,-273.7 652.5,-254.7 628.5,-254.7"/>
<text text-anchor="start" x="643.3862" y="-260.8" font-family="Helvetica,sans-Serif" font-size="11.00" fill="#000000"> &#160;</text>
</a>
</g>
</g>
<!-- transactions -->
<g id="node2" class="node">
<title>transactions</title>
<g id="a_node2"><a xlink:href="../../tables/transactions.html" xlink:title="transactions" target="_top">
<polygon fill="#ffffff" stroke="transparent" points="334,-98.7 334,-298.7 510,-298.7 510,-98.7 334,-98.7"/>
<polygon fill="#f5f5f5" stroke="transparent" points="336,-273.7 336,-296.7 508,-296.7 508,-273.7 336,-273.7"/>
<polygon fill="none" stroke="#000000" points="336,-273.7 336,-296.7 508,-296.7 508,-273.7 336,-273.7"/>
<text text-anchor="start" x="341" y="-282.3" font-family="Helvetica,sans-Serif" font-weight="bold" font-size="11.00" fill="#000000">transactions</text>
<text text-anchor="start" x="473.0437" y="-281.8" font-family="Helvetica,sans-Serif" font-size="11.00" fill="#000000">[table]</text>
<polygon fill="none" stroke="#000000" points="336,-251.7 336,-273.7 441,-273.7 441,-251.7 336,-251.7"/>
<image xlink:href="../../images/primaryKeys.png" width="11px" height="12px" preserveAspectRatio="xMinYMin meet" x="341" y="-268.7"/>
<text text-anchor="start" x="356" y="-258.8" font-family="Helvetica,sans-Serif" font-size="11.00" fill="#000000">id</text>
<polygon fill="none" stroke="#000000" points="441,-251.7 441,-273.7 508,-273.7 508,-251.7 441,-251.7"/>
<text text-anchor="start" x="444" y="-259.4" font-family="Helvetica,sans-Serif" font-size="11.00" fill="#000000">bigint[19]</text>
<polygon fill="none" stroke="#000000" points="336,-229.7 336,-251.7 441,-251.7 441,-229.7 336,-229.7"/>
<text text-anchor="start" x="356" y="-236.8" font-family="Helvetica,sans-Serif" font-size="11.00" fill="#000000">date</text>
<polygon fill="none" stroke="#000000" points="441,-229.7 441,-251.7 508,-251.7 508,-229.7 441,-229.7"/>
<text text-anchor="start" x="444" y="-237.4" font-family="Helvetica,sans-Serif" font-size="11.00" fill="#000000">datetime[19]</text>
<polygon fill="none" stroke="#000000" points="336,-207.7 336,-229.7 441,-229.7 441,-207.7 336,-207.7"/>
<text text-anchor="start" x="356" y="-214.8" font-family="Helvetica,sans-Serif" font-size="11.00" fill="#000000">title</text>
<polygon fill="none" stroke="#000000" points="441,-207.7 441,-229.7 508,-229.7 508,-207.7 441,-207.7"/>
<text text-anchor="start" x="443.9365" y="-215.4" font-family="Helvetica,sans-Serif" font-size="11.00" fill="#000000">varchar[255]</text>
<polygon fill="#ffffff" stroke="transparent" points="336,-185.7 336,-207.7 441,-207.7 441,-185.7 336,-185.7"/>
<polygon fill="none" stroke="#000000" points="336,-185.7 336,-207.7 441,-207.7 441,-185.7 336,-185.7"/>
<image xlink:href="../../images/foreignKeys.png" width="11px" height="12px" preserveAspectRatio="xMinYMin meet" x="341" y="-202.7"/>
<text text-anchor="start" x="356" y="-192.8" font-family="Helvetica,sans-Serif" font-size="11.00" fill="#000000">pid</text>
<polygon fill="none" stroke="#000000" points="441,-185.7 441,-207.7 508,-207.7 508,-185.7 441,-185.7"/>
<text text-anchor="start" x="444" y="-193.4" font-family="Helvetica,sans-Serif" font-size="11.00" fill="#000000">bigint[19]</text>
<polygon fill="none" stroke="#000000" points="336,-163.7 336,-185.7 441,-185.7 441,-163.7 336,-163.7"/>
<text text-anchor="start" x="356" y="-170.8" font-family="Helvetica,sans-Serif" font-size="11.00" fill="#000000">user</text>
<polygon fill="none" stroke="#000000" points="441,-163.7 441,-185.7 508,-185.7 508,-163.7 441,-163.7"/>
<text text-anchor="start" x="443.9365" y="-171.4" font-family="Helvetica,sans-Serif" font-size="11.00" fill="#000000">varchar[255]</text>
<polygon fill="none" stroke="#000000" points="336,-141.7 336,-163.7 441,-163.7 441,-141.7 336,-141.7"/>
<text text-anchor="start" x="356" y="-148.8" font-family="Helvetica,sans-Serif" font-size="11.00" fill="#000000">groupname</text>
<polygon fill="none" stroke="#000000" points="441,-141.7 441,-163.7 508,-163.7 508,-141.7 441,-141.7"/>
<text text-anchor="start" x="443.9365" y="-149.4" font-family="Helvetica,sans-Serif" font-size="11.00" fill="#000000">varchar[255]</text>
<polygon fill="none" stroke="#000000" points="336,-119.7 336,-141.7 441,-141.7 441,-119.7 336,-119.7"/>
<text text-anchor="start" x="356" y="-126.8" font-family="Helvetica,sans-Serif" font-size="11.00" fill="#000000">authorized</text>
<polygon fill="none" stroke="#000000" points="441,-119.7 441,-141.7 508,-141.7 508,-119.7 441,-119.7"/>
<text text-anchor="start" x="444" y="-127.4" font-family="Helvetica,sans-Serif" font-size="11.00" fill="#000000">tinyint[3]</text>
<polygon fill="#ffffff" stroke="transparent" points="336,-100.7 336,-119.7 393,-119.7 393,-100.7 336,-100.7"/>
<polygon fill="none" stroke="#000000" points="336,-100.7 336,-119.7 393,-119.7 393,-100.7 336,-100.7"/>
<text text-anchor="start" x="339" y="-106.8" font-family="Helvetica,sans-Serif" font-size="11.00" fill="#000000">&lt; 1</text>
<polygon fill="#ffffff" stroke="transparent" points="393,-100.7 393,-119.7 441,-119.7 441,-100.7 393,-100.7"/>
<polygon fill="none" stroke="#000000" points="393,-100.7 393,-119.7 441,-119.7 441,-100.7 393,-100.7"/>
<text text-anchor="start" x="431.8862" y="-106.8" font-family="Helvetica,sans-Serif" font-size="11.00" fill="#000000"> &#160;</text>
<polygon fill="#ffffff" stroke="transparent" points="441,-100.7 441,-119.7 508,-119.7 508,-100.7 441,-100.7"/>
<polygon fill="none" stroke="#000000" points="441,-100.7 441,-119.7 508,-119.7 508,-100.7 441,-100.7"/>
<text text-anchor="start" x="489.4053" y="-106.8" font-family="Helvetica,sans-Serif" font-size="11.00" fill="#000000">2 &gt;</text>
<polygon fill="none" stroke="#000000" stroke-width="2" points="335,-99.7 335,-297.7 509,-297.7 509,-99.7 335,-99.7"/>
</a>
</g>
</g>
<!-- lbf_data&#45;&gt;transactions -->
<g id="edge1" class="edge">
<title>lbf_data:w&#45;&gt;transactions:e</title>
<path fill="none" stroke="#000000" d="M545.799,-321.1692C528.6358,-306.7239 538.2316,-262.7 508,-262.7"/>
<polygon fill="#000000" stroke="#000000" points="551.9045,-323.1882 558.3697,-329.118 555.7023,-324.4441 559.5,-325.7 559.5,-325.7 559.5,-325.7 555.7023,-324.4441 560.6303,-322.282 551.9045,-323.1882 551.9045,-323.1882"/>
<ellipse fill="none" stroke="#000000" cx="548.8663" cy="-322.1835" rx="3.2" ry="3.2"/>
</g>
<!-- patient_data -->
<g id="node4" class="node">
<title>patient_data</title>
<g id="a_node4"><a xlink:href="../../tables/patient_data.html" xlink:title="patient_data" target="_top">
<polygon fill="#ffffff" stroke="transparent" points="8,-38.2 8,-429.2 285,-429.2 285,-38.2 8,-38.2"/>
<polygon fill="#f5f5f5" stroke="transparent" points="8.5,-405.7 8.5,-428.7 285.5,-428.7 285.5,-405.7 8.5,-405.7"/>
<polygon fill="none" stroke="#000000" points="8.5,-405.7 8.5,-428.7 285.5,-428.7 285.5,-405.7 8.5,-405.7"/>
<text text-anchor="start" x="13.5" y="-414.3" font-family="Helvetica,sans-Serif" font-weight="bold" font-size="11.00" fill="#000000">patient_data</text>
<text text-anchor="start" x="250.5437" y="-413.8" font-family="Helvetica,sans-Serif" font-size="11.00" fill="#000000">[table]</text>
<polygon fill="none" stroke="#000000" points="8.5,-383.7 8.5,-405.7 285.5,-405.7 285.5,-383.7 8.5,-383.7"/>
<image xlink:href="../../images/primaryKeys.png" width="11px" height="12px" preserveAspectRatio="xMinYMin meet" x="13.5" y="-400.7"/>
<text text-anchor="start" x="28.5" y="-390.8" font-family="Helvetica,sans-Serif" font-size="11.00" fill="#000000">id</text>
<polygon fill="#ffffff" stroke="transparent" points="8.5,-361.7 8.5,-383.7 285.5,-383.7 285.5,-361.7 8.5,-361.7"/>
<polygon fill="none" stroke="#000000" points="8.5,-361.7 8.5,-383.7 285.5,-383.7 285.5,-361.7 8.5,-361.7"/>
<text text-anchor="start" x="28.5" y="-368.8" font-family="Helvetica,sans-Serif" font-size="11.00" fill="#000000">uuid</text>
<polygon fill="#ffffff" stroke="transparent" points="8.5,-339.7 8.5,-361.7 285.5,-361.7 285.5,-339.7 8.5,-339.7"/>
<polygon fill="none" stroke="#000000" points="8.5,-339.7 8.5,-361.7 285.5,-361.7 285.5,-339.7 8.5,-339.7"/>
<text text-anchor="start" x="28.5" y="-346.8" font-family="Helvetica,sans-Serif" font-size="11.00" fill="#000000">fname</text>
<polygon fill="#ffffff" stroke="transparent" points="8.5,-317.7 8.5,-339.7 285.5,-339.7 285.5,-317.7 8.5,-317.7"/>
<polygon fill="none" stroke="#000000" points="8.5,-317.7 8.5,-339.7 285.5,-339.7 285.5,-317.7 8.5,-317.7"/>
<text text-anchor="start" x="28.5" y="-324.8" font-family="Helvetica,sans-Serif" font-size="11.00" fill="#000000">lname</text>
<polygon fill="#ffffff" stroke="transparent" points="8.5,-295.7 8.5,-317.7 285.5,-317.7 285.5,-295.7 8.5,-295.7"/>
<polygon fill="none" stroke="#000000" points="8.5,-295.7 8.5,-317.7 285.5,-317.7 285.5,-295.7 8.5,-295.7"/>
<text text-anchor="start" x="28.5" y="-302.8" font-family="Helvetica,sans-Serif" font-size="11.00" fill="#000000">DOB</text>
<polygon fill="none" stroke="#000000" points="8.5,-273.7 8.5,-295.7 285.5,-295.7 285.5,-273.7 8.5,-273.7"/>
<image xlink:href="../../images/foreignKeys.png" width="11px" height="12px" preserveAspectRatio="xMinYMin meet" x="13.5" y="-290.7"/>
<text text-anchor="start" x="28.5" y="-280.8" font-family="Helvetica,sans-Serif" font-size="11.00" fill="#000000">pharmacy_id</text>
<polygon fill="none" stroke="#000000" points="8.5,-251.7 8.5,-273.7 285.5,-273.7 285.5,-251.7 8.5,-251.7"/>
<image xlink:href="../../images/foreignKeys.png" width="11px" height="12px" preserveAspectRatio="xMinYMin meet" x="13.5" y="-268.7"/>
<text text-anchor="start" x="28.5" y="-258.8" font-family="Helvetica,sans-Serif" font-size="11.00" fill="#000000">providerID</text>
<polygon fill="none" stroke="#000000" points="8.5,-229.7 8.5,-251.7 285.5,-251.7 285.5,-229.7 8.5,-229.7"/>
<image xlink:href="../../images/foreignKeys.png" width="11px" height="12px" preserveAspectRatio="xMinYMin meet" x="13.5" y="-246.7"/>
<text text-anchor="start" x="28.5" y="-236.8" font-family="Helvetica,sans-Serif" font-size="11.00" fill="#000000">ref_providerID</text>
<polygon fill="none" stroke="#000000" points="8.5,-207.7 8.5,-229.7 285.5,-229.7 285.5,-207.7 8.5,-207.7"/>
<image xlink:href="../../images/foreignKeys.png" width="11px" height="12px" preserveAspectRatio="xMinYMin meet" x="13.5" y="-224.7"/>
<text text-anchor="start" x="28.5" y="-214.8" font-family="Helvetica,sans-Serif" font-size="11.00" fill="#000000">interpreter_needed</text>
<polygon fill="none" stroke="#000000" points="8.5,-185.7 8.5,-207.7 285.5,-207.7 285.5,-185.7 8.5,-185.7"/>
<image xlink:href="../../images/primaryKeys.png" width="11px" height="12px" preserveAspectRatio="xMinYMin meet" x="13.5" y="-202.7"/>
<text text-anchor="start" x="28.5" y="-192.8" font-family="Helvetica,sans-Serif" font-size="11.00" fill="#000000">pid</text>
<polygon fill="none" stroke="#000000" points="8.5,-163.7 8.5,-185.7 285.5,-185.7 285.5,-163.7 8.5,-163.7"/>
<image xlink:href="../../images/foreignKeys.png" width="11px" height="12px" preserveAspectRatio="xMinYMin meet" x="13.5" y="-180.7"/>
<text text-anchor="start" x="28.5" y="-170.8" font-family="Helvetica,sans-Serif" font-size="11.00" fill="#000000">advance_directive_user_authenticator</text>
<polygon fill="none" stroke="#000000" points="8.5,-141.7 8.5,-163.7 285.5,-163.7 285.5,-141.7 8.5,-141.7"/>
<image xlink:href="../../images/foreignKeys.png" width="11px" height="12px" preserveAspectRatio="xMinYMin meet" x="13.5" y="-158.7"/>
<text text-anchor="start" x="28.5" y="-148.8" font-family="Helvetica,sans-Serif" font-size="11.00" fill="#000000">created_by</text>
<polygon fill="none" stroke="#000000" points="8.5,-119.7 8.5,-141.7 285.5,-141.7 285.5,-119.7 8.5,-119.7"/>
<image xlink:href="../../images/foreignKeys.png" width="11px" height="12px" preserveAspectRatio="xMinYMin meet" x="13.5" y="-136.7"/>
<text text-anchor="start" x="28.5" y="-126.8" font-family="Helvetica,sans-Serif" font-size="11.00" fill="#000000">updated_by</text>
<polygon fill="none" stroke="#000000" points="8.5,-97.7 8.5,-119.7 285.5,-119.7 285.5,-97.7 8.5,-97.7"/>
<image xlink:href="../../images/foreignKeys.png" width="11px" height="12px" preserveAspectRatio="xMinYMin meet" x="13.5" y="-114.7"/>
<text text-anchor="start" x="28.5" y="-104.8" font-family="Helvetica,sans-Serif" font-size="11.00" fill="#000000">tribal_affiliations</text>
<polygon fill="none" stroke="#000000" points="8.5,-75.7 8.5,-97.7 285.5,-97.7 285.5,-75.7 8.5,-75.7"/>
<image xlink:href="../../images/foreignKeys.png" width="11px" height="12px" preserveAspectRatio="xMinYMin meet" x="13.5" y="-92.7"/>
<text text-anchor="start" x="28.5" y="-82.8" font-family="Helvetica,sans-Serif" font-size="11.00" fill="#000000">sex_identified</text>
<polygon fill="none" stroke="#000000" points="8.5,-56.7 8.5,-75.7 285.5,-75.7 285.5,-56.7 8.5,-56.7"/>
<text text-anchor="start" x="11.5" y="-62.8" font-family="Helvetica,sans-Serif" font-size="11.00" fill="#000000">...</text>
<polygon fill="#ffffff" stroke="transparent" points="8.5,-37.7 8.5,-56.7 137.5,-56.7 137.5,-37.7 8.5,-37.7"/>
<polygon fill="none" stroke="#000000" points="8.5,-37.7 8.5,-56.7 137.5,-56.7 137.5,-37.7 8.5,-37.7"/>
<text text-anchor="start" x="11.5" y="-43.8" font-family="Helvetica,sans-Serif" font-size="11.00" fill="#000000">&lt; 9</text>
<polygon fill="#ffffff" stroke="transparent" points="137.5,-37.7 137.5,-56.7 203.5,-56.7 203.5,-37.7 137.5,-37.7"/>
<polygon fill="none" stroke="#000000" points="137.5,-37.7 137.5,-56.7 203.5,-56.7 203.5,-37.7 137.5,-37.7"/>
<text text-anchor="start" x="194.3862" y="-43.8" font-family="Helvetica,sans-Serif" font-size="11.00" fill="#000000"> &#160;</text>
<polygon fill="#ffffff" stroke="transparent" points="203.5,-37.7 203.5,-56.7 285.5,-56.7 285.5,-37.7 203.5,-37.7"/>
<polygon fill="none" stroke="#000000" points="203.5,-37.7 203.5,-56.7 285.5,-56.7 285.5,-37.7 203.5,-37.7"/>
<text text-anchor="start" x="260.7904" y="-43.8" font-family="Helvetica,sans-Serif" font-size="11.00" fill="#000000">95 &gt;</text>
</a>
</g>
</g>
<!-- transactions&#45;&gt;patient_data -->
<g id="edge3" class="edge">
<title>transactions:w&#45;&gt;patient_data:e</title>
<path fill="none" stroke="#000000" d="M321.4203,-196.7C309.5435,-196.7 302.158,-196.7 285.5,-196.7"/>
<polygon fill="#000000" stroke="#000000" points="328,-196.7001 336,-200.3 332,-196.7 336,-196.7 336,-196.7 336,-196.7 332,-196.7 336,-193.1 328,-196.7001 328,-196.7001"/>
<ellipse fill="none" stroke="#000000" cx="324.8" cy="-196.7001" rx="3.2" ry="3.2"/>
</g>
<!-- lbt_data -->
<g id="node3" class="node">
<title>lbt_data</title>
<g id="a_node3"><a xlink:href="../../tables/lbt_data.html" xlink:title="lbt_data" target="_top">
<polygon fill="#ffffff" stroke="transparent" points="559,-129.2 559,-234.2 652,-234.2 652,-129.2 559,-129.2"/>
<polygon fill="#f5f5f5" stroke="transparent" points="559.5,-210.7 559.5,-233.7 652.5,-233.7 652.5,-210.7 559.5,-210.7"/>
<polygon fill="none" stroke="#000000" points="559.5,-210.7 559.5,-233.7 652.5,-233.7 652.5,-210.7 559.5,-210.7"/>
<text text-anchor="start" x="564.5" y="-219.3" font-family="Helvetica,sans-Serif" font-weight="bold" font-size="11.00" fill="#000000">lbt_data</text>
<text text-anchor="start" x="618.0219" y="-218.8" font-family="Helvetica,sans-Serif" font-size="11.00" fill="#000000">[table]</text>
<polygon fill="none" stroke="#000000" points="559.5,-188.7 559.5,-210.7 652.5,-210.7 652.5,-188.7 559.5,-188.7"/>
<image xlink:href="../../images/primaryKeys.png" width="11px" height="12px" preserveAspectRatio="xMinYMin meet" x="564.5" y="-205.7"/>
<text text-anchor="start" x="579.5" y="-195.8" font-family="Helvetica,sans-Serif" font-size="11.00" fill="#000000">form_id</text>
<polygon fill="none" stroke="#000000" points="559.5,-166.7 559.5,-188.7 652.5,-188.7 652.5,-166.7 559.5,-166.7"/>
<image xlink:href="../../images/primaryKeys.png" width="11px" height="12px" preserveAspectRatio="xMinYMin meet" x="564.5" y="-183.7"/>
<text text-anchor="start" x="579.5" y="-173.8" font-family="Helvetica,sans-Serif" font-size="11.00" fill="#000000">field_id</text>
<polygon fill="none" stroke="#000000" points="559.5,-147.7 559.5,-166.7 652.5,-166.7 652.5,-147.7 559.5,-147.7"/>
<text text-anchor="start" x="562.5" y="-153.8" font-family="Helvetica,sans-Serif" font-size="11.00" fill="#000000">...</text>
<polygon fill="#ffffff" stroke="transparent" points="559.5,-128.7 559.5,-147.7 604.5,-147.7 604.5,-128.7 559.5,-128.7"/>
<polygon fill="none" stroke="#000000" points="559.5,-128.7 559.5,-147.7 604.5,-147.7 604.5,-128.7 559.5,-128.7"/>
<text text-anchor="start" x="562.5" y="-134.8" font-family="Helvetica,sans-Serif" font-size="11.00" fill="#000000">&lt; 2</text>
<polygon fill="#ffffff" stroke="transparent" points="604.5,-128.7 604.5,-147.7 628.5,-147.7 628.5,-128.7 604.5,-128.7"/>
<polygon fill="none" stroke="#000000" points="604.5,-128.7 604.5,-147.7 628.5,-147.7 628.5,-128.7 604.5,-128.7"/>
<text text-anchor="start" x="619.3862" y="-134.8" font-family="Helvetica,sans-Serif" font-size="11.00" fill="#000000"> &#160;</text>
<polygon fill="#ffffff" stroke="transparent" points="628.5,-128.7 628.5,-147.7 652.5,-147.7 652.5,-128.7 628.5,-128.7"/>
<polygon fill="none" stroke="#000000" points="628.5,-128.7 628.5,-147.7 652.5,-147.7 652.5,-128.7 628.5,-128.7"/>
<text text-anchor="start" x="643.3862" y="-134.8" font-family="Helvetica,sans-Serif" font-size="11.00" fill="#000000"> &#160;</text>
</a>
</g>
</g>
<!-- lbt_data&#45;&gt;transactions -->
<g id="edge2" class="edge">
<title>lbt_data:w&#45;&gt;transactions:e</title>
<path fill="none" stroke="#000000" d="M545.799,-204.2308C528.6358,-218.6761 538.2316,-262.7 508,-262.7"/>
<polygon fill="#000000" stroke="#000000" points="551.9045,-202.2118 560.6303,-203.118 555.7023,-200.9559 559.5,-199.7 559.5,-199.7 559.5,-199.7 555.7023,-200.9559 558.3697,-196.282 551.9045,-202.2118 551.9045,-202.2118"/>
<ellipse fill="none" stroke="#000000" cx="548.8663" cy="-203.2165" rx="3.2" ry="3.2"/>
</g>
</g>
</svg>
