<?xml version="1.0" encoding="UTF-8" standalone="no"?>
<!DOCTYPE svg PUBLIC "-//W3C//DTD SVG 1.1//EN"
 "http://www.w3.org/Graphics/SVG/1.1/DTD/svg11.dtd">
<!-- Generated by graphviz version 2.40.1 (20161225.0304)
 -->
<!-- Title: oneDegreeRelationshipsDiagram Pages: 1 -->
<svg width="1007pt" height="608pt"
 viewBox="0.00 0.00 1007.00 607.70" xmlns="http://www.w3.org/2000/svg" xmlns:xlink="http://www.w3.org/1999/xlink">
<g id="graph0" class="graph" transform="scale(1 1) rotate(0) translate(4 603.7)">
<title>oneDegreeRelationshipsDiagram</title>
<polygon fill="#ffffff" stroke="transparent" points="-4,4 -4,-603.7 1003,-603.7 1003,4 -4,4"/>
<text text-anchor="middle" x="72.4936" y="-7.3" font-family="Helvetica,sans-Serif" font-size="11.00" fill="#000000">Generated by SchemaSpy</text>
<!-- form_encounter -->
<g id="node1" class="node">
<title>form_encounter</title>
<g id="a_node1"><a xlink:href="../../tables/form_encounter.html" xlink:title="form_encounter" target="_top">
<polygon fill="#ffffff" stroke="transparent" points="550,-211.7 550,-382.7 758,-382.7 758,-211.7 550,-211.7"/>
<polygon fill="#f5f5f5" stroke="transparent" points="550,-359.2 550,-382.2 758,-382.2 758,-359.2 550,-359.2"/>
<polygon fill="none" stroke="#000000" points="550,-359.2 550,-382.2 758,-382.2 758,-359.2 550,-359.2"/>
<text text-anchor="start" x="555" y="-367.8" font-family="Helvetica,sans-Serif" font-weight="bold" font-size="11.00" fill="#000000">form_encounter</text>
<text text-anchor="start" x="723.0437" y="-367.3" font-family="Helvetica,sans-Serif" font-size="11.00" fill="#000000">[table]</text>
<polygon fill="none" stroke="#000000" points="550,-337.2 550,-359.2 758,-359.2 758,-337.2 550,-337.2"/>
<image xlink:href="../../images/primaryKeys.png" width="11px" height="12px" preserveAspectRatio="xMinYMin meet" x="555" y="-354.2"/>
<text text-anchor="start" x="570" y="-344.3" font-family="Helvetica,sans-Serif" font-size="11.00" fill="#000000">id</text>
<polygon fill="#ffffff" stroke="transparent" points="550,-315.2 550,-337.2 758,-337.2 758,-315.2 550,-315.2"/>
<polygon fill="none" stroke="#000000" points="550,-315.2 550,-337.2 758,-337.2 758,-315.2 550,-315.2"/>
<text text-anchor="start" x="570" y="-322.3" font-family="Helvetica,sans-Serif" font-size="11.00" fill="#000000">uuid</text>
<polygon fill="#ffffff" stroke="transparent" points="550,-293.2 550,-315.2 758,-315.2 758,-293.2 550,-293.2"/>
<polygon fill="none" stroke="#000000" points="550,-293.2 550,-315.2 758,-315.2 758,-293.2 550,-293.2"/>
<text text-anchor="start" x="570" y="-300.3" font-family="Helvetica,sans-Serif" font-size="11.00" fill="#000000">date</text>
<polygon fill="#ffffff" stroke="transparent" points="550,-271.2 550,-293.2 758,-293.2 758,-271.2 550,-271.2"/>
<polygon fill="none" stroke="#000000" points="550,-271.2 550,-293.2 758,-293.2 758,-271.2 550,-271.2"/>
<image xlink:href="../../images/foreignKeys.png" width="11px" height="12px" preserveAspectRatio="xMinYMin meet" x="555" y="-288.2"/>
<text text-anchor="start" x="570" y="-278.3" font-family="Helvetica,sans-Serif" font-size="11.00" fill="#000000">pid</text>
<polygon fill="none" stroke="#000000" points="550,-249.2 550,-271.2 758,-271.2 758,-249.2 550,-249.2"/>
<image xlink:href="../../images/primaryKeys.png" width="11px" height="12px" preserveAspectRatio="xMinYMin meet" x="555" y="-266.2"/>
<text text-anchor="start" x="570" y="-256.3" font-family="Helvetica,sans-Serif" font-size="11.00" fill="#000000">encounter</text>
<polygon fill="none" stroke="#000000" points="550,-230.2 550,-249.2 758,-249.2 758,-230.2 550,-230.2"/>
<text text-anchor="start" x="553" y="-236.3" font-family="Helvetica,sans-Serif" font-size="11.00" fill="#000000">...</text>
<polygon fill="#ffffff" stroke="transparent" points="550,-211.2 550,-230.2 645,-230.2 645,-211.2 550,-211.2"/>
<polygon fill="none" stroke="#000000" points="550,-211.2 550,-230.2 645,-230.2 645,-211.2 550,-211.2"/>
<text text-anchor="start" x="553" y="-217.3" font-family="Helvetica,sans-Serif" font-size="11.00" fill="#000000">&lt; 1</text>
<polygon fill="#ffffff" stroke="transparent" points="645,-211.2 645,-230.2 694,-230.2 694,-211.2 645,-211.2"/>
<polygon fill="none" stroke="#000000" points="645,-211.2 645,-230.2 694,-230.2 694,-211.2 645,-211.2"/>
<text text-anchor="start" x="684.8862" y="-217.3" font-family="Helvetica,sans-Serif" font-size="11.00" fill="#000000"> &#160;</text>
<polygon fill="#ffffff" stroke="transparent" points="694,-211.2 694,-230.2 758,-230.2 758,-211.2 694,-211.2"/>
<polygon fill="none" stroke="#000000" points="694,-211.2 694,-230.2 758,-230.2 758,-211.2 694,-211.2"/>
<text text-anchor="start" x="733.2904" y="-217.3" font-family="Helvetica,sans-Serif" font-size="11.00" fill="#000000">19 &gt;</text>
</a>
</g>
</g>
<!-- patient_data -->
<g id="node2" class="node">
<title>patient_data</title>
<g id="a_node2"><a xlink:href="../../tables/patient_data.html" xlink:title="patient_data" target="_top">
<polygon fill="#ffffff" stroke="transparent" points="224,-204.7 224,-595.7 501,-595.7 501,-204.7 224,-204.7"/>
<polygon fill="#f5f5f5" stroke="transparent" points="224.5,-572.2 224.5,-595.2 501.5,-595.2 501.5,-572.2 224.5,-572.2"/>
<polygon fill="none" stroke="#000000" points="224.5,-572.2 224.5,-595.2 501.5,-595.2 501.5,-572.2 224.5,-572.2"/>
<text text-anchor="start" x="229.5" y="-580.8" font-family="Helvetica,sans-Serif" font-weight="bold" font-size="11.00" fill="#000000">patient_data</text>
<text text-anchor="start" x="466.5437" y="-580.3" font-family="Helvetica,sans-Serif" font-size="11.00" fill="#000000">[table]</text>
<polygon fill="none" stroke="#000000" points="224.5,-550.2 224.5,-572.2 501.5,-572.2 501.5,-550.2 224.5,-550.2"/>
<image xlink:href="../../images/primaryKeys.png" width="11px" height="12px" preserveAspectRatio="xMinYMin meet" x="229.5" y="-567.2"/>
<text text-anchor="start" x="244.5" y="-557.3" font-family="Helvetica,sans-Serif" font-size="11.00" fill="#000000">id</text>
<polygon fill="#ffffff" stroke="transparent" points="224.5,-528.2 224.5,-550.2 501.5,-550.2 501.5,-528.2 224.5,-528.2"/>
<polygon fill="none" stroke="#000000" points="224.5,-528.2 224.5,-550.2 501.5,-550.2 501.5,-528.2 224.5,-528.2"/>
<text text-anchor="start" x="244.5" y="-535.3" font-family="Helvetica,sans-Serif" font-size="11.00" fill="#000000">uuid</text>
<polygon fill="#ffffff" stroke="transparent" points="224.5,-506.2 224.5,-528.2 501.5,-528.2 501.5,-506.2 224.5,-506.2"/>
<polygon fill="none" stroke="#000000" points="224.5,-506.2 224.5,-528.2 501.5,-528.2 501.5,-506.2 224.5,-506.2"/>
<text text-anchor="start" x="244.5" y="-513.3" font-family="Helvetica,sans-Serif" font-size="11.00" fill="#000000">fname</text>
<polygon fill="#ffffff" stroke="transparent" points="224.5,-484.2 224.5,-506.2 501.5,-506.2 501.5,-484.2 224.5,-484.2"/>
<polygon fill="none" stroke="#000000" points="224.5,-484.2 224.5,-506.2 501.5,-506.2 501.5,-484.2 224.5,-484.2"/>
<text text-anchor="start" x="244.5" y="-491.3" font-family="Helvetica,sans-Serif" font-size="11.00" fill="#000000">lname</text>
<polygon fill="#ffffff" stroke="transparent" points="224.5,-462.2 224.5,-484.2 501.5,-484.2 501.5,-462.2 224.5,-462.2"/>
<polygon fill="none" stroke="#000000" points="224.5,-462.2 224.5,-484.2 501.5,-484.2 501.5,-462.2 224.5,-462.2"/>
<text text-anchor="start" x="244.5" y="-469.3" font-family="Helvetica,sans-Serif" font-size="11.00" fill="#000000">DOB</text>
<polygon fill="none" stroke="#000000" points="224.5,-440.2 224.5,-462.2 501.5,-462.2 501.5,-440.2 224.5,-440.2"/>
<image xlink:href="../../images/foreignKeys.png" width="11px" height="12px" preserveAspectRatio="xMinYMin meet" x="229.5" y="-457.2"/>
<text text-anchor="start" x="244.5" y="-447.3" font-family="Helvetica,sans-Serif" font-size="11.00" fill="#000000">pharmacy_id</text>
<polygon fill="none" stroke="#000000" points="224.5,-418.2 224.5,-440.2 501.5,-440.2 501.5,-418.2 224.5,-418.2"/>
<image xlink:href="../../images/foreignKeys.png" width="11px" height="12px" preserveAspectRatio="xMinYMin meet" x="229.5" y="-435.2"/>
<text text-anchor="start" x="244.5" y="-425.3" font-family="Helvetica,sans-Serif" font-size="11.00" fill="#000000">providerID</text>
<polygon fill="none" stroke="#000000" points="224.5,-396.2 224.5,-418.2 501.5,-418.2 501.5,-396.2 224.5,-396.2"/>
<image xlink:href="../../images/foreignKeys.png" width="11px" height="12px" preserveAspectRatio="xMinYMin meet" x="229.5" y="-413.2"/>
<text text-anchor="start" x="244.5" y="-403.3" font-family="Helvetica,sans-Serif" font-size="11.00" fill="#000000">ref_providerID</text>
<polygon fill="none" stroke="#000000" points="224.5,-374.2 224.5,-396.2 501.5,-396.2 501.5,-374.2 224.5,-374.2"/>
<image xlink:href="../../images/foreignKeys.png" width="11px" height="12px" preserveAspectRatio="xMinYMin meet" x="229.5" y="-391.2"/>
<text text-anchor="start" x="244.5" y="-381.3" font-family="Helvetica,sans-Serif" font-size="11.00" fill="#000000">interpreter_needed</text>
<polygon fill="none" stroke="#000000" points="224.5,-352.2 224.5,-374.2 501.5,-374.2 501.5,-352.2 224.5,-352.2"/>
<image xlink:href="../../images/primaryKeys.png" width="11px" height="12px" preserveAspectRatio="xMinYMin meet" x="229.5" y="-369.2"/>
<text text-anchor="start" x="244.5" y="-359.3" font-family="Helvetica,sans-Serif" font-size="11.00" fill="#000000">pid</text>
<polygon fill="none" stroke="#000000" points="224.5,-330.2 224.5,-352.2 501.5,-352.2 501.5,-330.2 224.5,-330.2"/>
<image xlink:href="../../images/foreignKeys.png" width="11px" height="12px" preserveAspectRatio="xMinYMin meet" x="229.5" y="-347.2"/>
<text text-anchor="start" x="244.5" y="-337.3" font-family="Helvetica,sans-Serif" font-size="11.00" fill="#000000">advance_directive_user_authenticator</text>
<polygon fill="none" stroke="#000000" points="224.5,-308.2 224.5,-330.2 501.5,-330.2 501.5,-308.2 224.5,-308.2"/>
<image xlink:href="../../images/foreignKeys.png" width="11px" height="12px" preserveAspectRatio="xMinYMin meet" x="229.5" y="-325.2"/>
<text text-anchor="start" x="244.5" y="-315.3" font-family="Helvetica,sans-Serif" font-size="11.00" fill="#000000">created_by</text>
<polygon fill="none" stroke="#000000" points="224.5,-286.2 224.5,-308.2 501.5,-308.2 501.5,-286.2 224.5,-286.2"/>
<image xlink:href="../../images/foreignKeys.png" width="11px" height="12px" preserveAspectRatio="xMinYMin meet" x="229.5" y="-303.2"/>
<text text-anchor="start" x="244.5" y="-293.3" font-family="Helvetica,sans-Serif" font-size="11.00" fill="#000000">updated_by</text>
<polygon fill="none" stroke="#000000" points="224.5,-264.2 224.5,-286.2 501.5,-286.2 501.5,-264.2 224.5,-264.2"/>
<image xlink:href="../../images/foreignKeys.png" width="11px" height="12px" preserveAspectRatio="xMinYMin meet" x="229.5" y="-281.2"/>
<text text-anchor="start" x="244.5" y="-271.3" font-family="Helvetica,sans-Serif" font-size="11.00" fill="#000000">tribal_affiliations</text>
<polygon fill="none" stroke="#000000" points="224.5,-242.2 224.5,-264.2 501.5,-264.2 501.5,-242.2 224.5,-242.2"/>
<image xlink:href="../../images/foreignKeys.png" width="11px" height="12px" preserveAspectRatio="xMinYMin meet" x="229.5" y="-259.2"/>
<text text-anchor="start" x="244.5" y="-249.3" font-family="Helvetica,sans-Serif" font-size="11.00" fill="#000000">sex_identified</text>
<polygon fill="none" stroke="#000000" points="224.5,-223.2 224.5,-242.2 501.5,-242.2 501.5,-223.2 224.5,-223.2"/>
<text text-anchor="start" x="227.5" y="-229.3" font-family="Helvetica,sans-Serif" font-size="11.00" fill="#000000">...</text>
<polygon fill="#ffffff" stroke="transparent" points="224.5,-204.2 224.5,-223.2 353.5,-223.2 353.5,-204.2 224.5,-204.2"/>
<polygon fill="none" stroke="#000000" points="224.5,-204.2 224.5,-223.2 353.5,-223.2 353.5,-204.2 224.5,-204.2"/>
<text text-anchor="start" x="227.5" y="-210.3" font-family="Helvetica,sans-Serif" font-size="11.00" fill="#000000">&lt; 9</text>
<polygon fill="#ffffff" stroke="transparent" points="353.5,-204.2 353.5,-223.2 419.5,-223.2 419.5,-204.2 353.5,-204.2"/>
<polygon fill="none" stroke="#000000" points="353.5,-204.2 353.5,-223.2 419.5,-223.2 419.5,-204.2 353.5,-204.2"/>
<text text-anchor="start" x="410.3862" y="-210.3" font-family="Helvetica,sans-Serif" font-size="11.00" fill="#000000"> &#160;</text>
<polygon fill="#ffffff" stroke="transparent" points="419.5,-204.2 419.5,-223.2 501.5,-223.2 501.5,-204.2 419.5,-204.2"/>
<polygon fill="none" stroke="#000000" points="419.5,-204.2 419.5,-223.2 501.5,-223.2 501.5,-204.2 419.5,-204.2"/>
<text text-anchor="start" x="476.7904" y="-210.3" font-family="Helvetica,sans-Serif" font-size="11.00" fill="#000000">95 &gt;</text>
</a>
</g>
</g>
<!-- form_encounter&#45;&gt;patient_data -->
<g id="edge1" class="edge">
<title>form_encounter:w&#45;&gt;patient_data:e</title>
<path fill="none" stroke="#000000" d="M536.1884,-286.787C516.6622,-303.922 537.3955,-363.2 501.5,-363.2"/>
<polygon fill="#000000" stroke="#000000" points="542.4078,-284.7215 551.1347,-285.6165 546.2039,-283.4608 550,-282.2 550,-282.2 550,-282.2 546.2039,-283.4608 548.8653,-278.7835 542.4078,-284.7215 542.4078,-284.7215"/>
<ellipse fill="none" stroke="#000000" cx="539.3709" cy="-285.7301" rx="3.2" ry="3.2"/>
</g>
<!-- users -->
<g id="node3" class="node">
<title>users</title>
<g id="a_node3"><a xlink:href="../../tables/users.html" xlink:title="users" target="_top">
<polygon fill="#ffffff" stroke="transparent" points="8,-149.7 8,-364.7 175,-364.7 175,-149.7 8,-149.7"/>
<polygon fill="#f5f5f5" stroke="transparent" points="8.5,-341.2 8.5,-364.2 175.5,-364.2 175.5,-341.2 8.5,-341.2"/>
<polygon fill="none" stroke="#000000" points="8.5,-341.2 8.5,-364.2 175.5,-364.2 175.5,-341.2 8.5,-341.2"/>
<text text-anchor="start" x="13.5" y="-349.8" font-family="Helvetica,sans-Serif" font-weight="bold" font-size="11.00" fill="#000000">users</text>
<text text-anchor="start" x="140.5437" y="-349.3" font-family="Helvetica,sans-Serif" font-size="11.00" fill="#000000">[table]</text>
<polygon fill="none" stroke="#000000" points="8.5,-319.2 8.5,-341.2 175.5,-341.2 175.5,-319.2 8.5,-319.2"/>
<image xlink:href="../../images/primaryKeys.png" width="11px" height="12px" preserveAspectRatio="xMinYMin meet" x="13.5" y="-336.2"/>
<text text-anchor="start" x="28.5" y="-326.3" font-family="Helvetica,sans-Serif" font-size="11.00" fill="#000000">id</text>
<polygon fill="#ffffff" stroke="transparent" points="8.5,-297.2 8.5,-319.2 175.5,-319.2 175.5,-297.2 8.5,-297.2"/>
<polygon fill="none" stroke="#000000" points="8.5,-297.2 8.5,-319.2 175.5,-319.2 175.5,-297.2 8.5,-297.2"/>
<text text-anchor="start" x="28.5" y="-304.3" font-family="Helvetica,sans-Serif" font-size="11.00" fill="#000000">uuid</text>
<polygon fill="none" stroke="#000000" points="8.5,-275.2 8.5,-297.2 175.5,-297.2 175.5,-275.2 8.5,-275.2"/>
<image xlink:href="../../images/primaryKeys.png" width="11px" height="12px" preserveAspectRatio="xMinYMin meet" x="13.5" y="-292.2"/>
<text text-anchor="start" x="28.5" y="-282.3" font-family="Helvetica,sans-Serif" font-size="11.00" fill="#000000">username</text>
<polygon fill="none" stroke="#000000" points="8.5,-253.2 8.5,-275.2 175.5,-275.2 175.5,-253.2 8.5,-253.2"/>
<image xlink:href="../../images/foreignKeys.png" width="11px" height="12px" preserveAspectRatio="xMinYMin meet" x="13.5" y="-270.2"/>
<text text-anchor="start" x="28.5" y="-260.3" font-family="Helvetica,sans-Serif" font-size="11.00" fill="#000000">facility_id</text>
<polygon fill="#ffffff" stroke="transparent" points="8.5,-231.2 8.5,-253.2 175.5,-253.2 175.5,-231.2 8.5,-231.2"/>
<polygon fill="none" stroke="#000000" points="8.5,-231.2 8.5,-253.2 175.5,-253.2 175.5,-231.2 8.5,-231.2"/>
<text text-anchor="start" x="28.5" y="-238.3" font-family="Helvetica,sans-Serif" font-size="11.00" fill="#000000">google_signin_email</text>
<polygon fill="#ffffff" stroke="transparent" points="8.5,-209.2 8.5,-231.2 175.5,-231.2 175.5,-209.2 8.5,-209.2"/>
<polygon fill="none" stroke="#000000" points="8.5,-209.2 8.5,-231.2 175.5,-231.2 175.5,-209.2 8.5,-209.2"/>
<text text-anchor="start" x="28.5" y="-216.3" font-family="Helvetica,sans-Serif" font-size="11.00" fill="#000000">abook_type</text>
<polygon fill="none" stroke="#000000" points="8.5,-187.2 8.5,-209.2 175.5,-209.2 175.5,-187.2 8.5,-187.2"/>
<image xlink:href="../../images/foreignKeys.png" width="11px" height="12px" preserveAspectRatio="xMinYMin meet" x="13.5" y="-204.2"/>
<text text-anchor="start" x="28.5" y="-194.3" font-family="Helvetica,sans-Serif" font-size="11.00" fill="#000000">billing_facility_id</text>
<polygon fill="none" stroke="#000000" points="8.5,-168.2 8.5,-187.2 175.5,-187.2 175.5,-168.2 8.5,-168.2"/>
<text text-anchor="start" x="11.5" y="-174.3" font-family="Helvetica,sans-Serif" font-size="11.00" fill="#000000">...</text>
<polygon fill="#ffffff" stroke="transparent" points="8.5,-149.2 8.5,-168.2 82.5,-168.2 82.5,-149.2 8.5,-149.2"/>
<polygon fill="none" stroke="#000000" points="8.5,-149.2 8.5,-168.2 82.5,-168.2 82.5,-149.2 8.5,-149.2"/>
<text text-anchor="start" x="11.5" y="-155.3" font-family="Helvetica,sans-Serif" font-size="11.00" fill="#000000">&lt; 2</text>
<polygon fill="#ffffff" stroke="transparent" points="82.5,-149.2 82.5,-168.2 121.5,-168.2 121.5,-149.2 82.5,-149.2"/>
<polygon fill="none" stroke="#000000" points="82.5,-149.2 82.5,-168.2 121.5,-168.2 121.5,-149.2 82.5,-149.2"/>
<text text-anchor="start" x="112.3862" y="-155.3" font-family="Helvetica,sans-Serif" font-size="11.00" fill="#000000"> &#160;</text>
<polygon fill="#ffffff" stroke="transparent" points="121.5,-149.2 121.5,-168.2 175.5,-168.2 175.5,-149.2 121.5,-149.2"/>
<polygon fill="none" stroke="#000000" points="121.5,-149.2 121.5,-168.2 175.5,-168.2 175.5,-149.2 121.5,-149.2"/>
<text text-anchor="start" x="150.7904" y="-155.3" font-family="Helvetica,sans-Serif" font-size="11.00" fill="#000000">90 &gt;</text>
</a>
</g>
</g>
<!-- patient_data&#45;&gt;users -->
<g id="edge2" class="edge">
<title>patient_data:w&#45;&gt;users:e</title>
<path fill="none" stroke="#000000" d="M210.2027,-339.3836C198.7382,-336.2593 192.0655,-330.2 175.5,-330.2"/>
<polygon fill="#000000" stroke="#000000" points="216.5638,-340.1917 224.0463,-344.7713 220.5319,-340.6958 224.5,-341.2 224.5,-341.2 224.5,-341.2 220.5319,-340.6958 224.9537,-337.6287 216.5638,-340.1917 216.5638,-340.1917"/>
<ellipse fill="none" stroke="#000000" cx="213.3893" cy="-339.7884" rx="3.2" ry="3.2"/>
</g>
<!-- patient_data&#45;&gt;users -->
<g id="edge3" class="edge">
<title>patient_data:w&#45;&gt;users:e</title>
<path fill="none" stroke="#000000" d="M210.2027,-321.0164C198.7382,-324.1407 192.0655,-330.2 175.5,-330.2"/>
<polygon fill="#000000" stroke="#000000" points="216.5638,-320.2083 224.9537,-322.7713 220.5319,-319.7042 224.5,-319.2 224.5,-319.2 224.5,-319.2 220.5319,-319.7042 224.0463,-315.6287 216.5638,-320.2083 216.5638,-320.2083"/>
<ellipse fill="none" stroke="#000000" cx="213.3893" cy="-320.6116" rx="3.2" ry="3.2"/>
</g>
<!-- patient_data&#45;&gt;users -->
<g id="edge4" class="edge">
<title>patient_data:w&#45;&gt;users:e</title>
<path fill="none" stroke="#000000" d="M210.6394,-425.1965C185.8773,-406.6751 218.6495,-330.2 175.5,-330.2"/>
<polygon fill="#000000" stroke="#000000" points="216.8142,-426.98 223.501,-432.6586 220.6571,-428.09 224.5,-429.2 224.5,-429.2 224.5,-429.2 220.6571,-428.09 225.499,-425.7414 216.8142,-426.98 216.8142,-426.98"/>
<ellipse fill="none" stroke="#000000" cx="213.7399" cy="-426.092" rx="3.2" ry="3.2"/>
</g>
<!-- patient_data&#45;&gt;users -->
<g id="edge5" class="edge">
<title>patient_data:w&#45;&gt;users:e</title>
<path fill="none" stroke="#000000" d="M210.7659,-402.6139C191.8724,-386.0372 210.0427,-330.2 175.5,-330.2"/>
<polygon fill="#000000" stroke="#000000" points="216.9119,-404.6661 223.3598,-410.6147 220.7059,-405.9331 224.5,-407.2 224.5,-407.2 224.5,-407.2 220.7059,-405.9331 225.6402,-403.7853 216.9119,-404.6661 216.9119,-404.6661"/>
<ellipse fill="none" stroke="#000000" cx="213.8766" cy="-403.6526" rx="3.2" ry="3.2"/>
</g>
<!-- patient_data&#45;&gt;users -->
<g id="edge6" class="edge">
<title>patient_data:w&#45;&gt;users:e</title>
<path fill="none" stroke="#000000" d="M210.5457,-301.5142C198.3073,-310.4592 195.8075,-330.2 175.5,-330.2"/>
<polygon fill="#000000" stroke="#000000" points="216.8569,-299.563 225.5634,-300.6394 220.6785,-298.3815 224.5,-297.2 224.5,-297.2 224.5,-297.2 220.6785,-298.3815 223.4366,-293.7606 216.8569,-299.563 216.8569,-299.563"/>
<ellipse fill="none" stroke="#000000" cx="213.7997" cy="-300.5082" rx="3.2" ry="3.2"/>
</g>
<!-- voids -->
<g id="node4" class="node">
<title>voids</title>
<g id="a_node4"><a xlink:href="../../tables/voids.html" xlink:title="voids" target="_top">
<polygon fill="#ffffff" stroke="transparent" points="807,-38.2 807,-348.2 991,-348.2 991,-38.2 807,-38.2"/>
<polygon fill="#f5f5f5" stroke="transparent" points="809,-323.2 809,-346.2 989,-346.2 989,-323.2 809,-323.2"/>
<polygon fill="none" stroke="#000000" points="809,-323.2 809,-346.2 989,-346.2 989,-323.2 809,-323.2"/>
<text text-anchor="start" x="814" y="-331.8" font-family="Helvetica,sans-Serif" font-weight="bold" font-size="11.00" fill="#000000">voids</text>
<text text-anchor="start" x="954.0437" y="-331.3" font-family="Helvetica,sans-Serif" font-size="11.00" fill="#000000">[table]</text>
<polygon fill="none" stroke="#000000" points="809,-301.2 809,-323.2 918,-323.2 918,-301.2 809,-301.2"/>
<image xlink:href="../../images/primaryKeys.png" width="11px" height="12px" preserveAspectRatio="xMinYMin meet" x="814" y="-318.2"/>
<text text-anchor="start" x="829" y="-308.3" font-family="Helvetica,sans-Serif" font-size="11.00" fill="#000000">void_id</text>
<polygon fill="none" stroke="#000000" points="918,-301.2 918,-323.2 989,-323.2 989,-301.2 918,-301.2"/>
<text text-anchor="start" x="921" y="-308.9" font-family="Helvetica,sans-Serif" font-size="11.00" fill="#000000">bigint[19]</text>
<polygon fill="#ffffff" stroke="transparent" points="809,-279.2 809,-301.2 918,-301.2 918,-279.2 809,-279.2"/>
<polygon fill="none" stroke="#000000" points="809,-279.2 809,-301.2 918,-301.2 918,-279.2 809,-279.2"/>
<image xlink:href="../../images/foreignKeys.png" width="11px" height="12px" preserveAspectRatio="xMinYMin meet" x="814" y="-296.2"/>
<text text-anchor="start" x="829" y="-286.3" font-family="Helvetica,sans-Serif" font-size="11.00" fill="#000000">patient_id</text>
<polygon fill="none" stroke="#000000" points="918,-279.2 918,-301.2 989,-301.2 989,-279.2 918,-279.2"/>
<text text-anchor="start" x="921" y="-286.9" font-family="Helvetica,sans-Serif" font-size="11.00" fill="#000000">bigint[19]</text>
<polygon fill="#ffffff" stroke="transparent" points="809,-257.2 809,-279.2 918,-279.2 918,-257.2 809,-257.2"/>
<polygon fill="none" stroke="#000000" points="809,-257.2 809,-279.2 918,-279.2 918,-257.2 809,-257.2"/>
<image xlink:href="../../images/foreignKeys.png" width="11px" height="12px" preserveAspectRatio="xMinYMin meet" x="814" y="-274.2"/>
<text text-anchor="start" x="829" y="-264.3" font-family="Helvetica,sans-Serif" font-size="11.00" fill="#000000">encounter_id</text>
<polygon fill="none" stroke="#000000" points="918,-257.2 918,-279.2 989,-279.2 989,-257.2 918,-257.2"/>
<text text-anchor="start" x="921" y="-264.9" font-family="Helvetica,sans-Serif" font-size="11.00" fill="#000000">bigint[19]</text>
<polygon fill="none" stroke="#000000" points="809,-235.2 809,-257.2 918,-257.2 918,-235.2 809,-235.2"/>
<text text-anchor="start" x="829" y="-242.3" font-family="Helvetica,sans-Serif" font-size="11.00" fill="#000000">what_voided</text>
<polygon fill="none" stroke="#000000" points="918,-235.2 918,-257.2 989,-257.2 989,-235.2 918,-235.2"/>
<text text-anchor="start" x="921" y="-242.9" font-family="Helvetica,sans-Serif" font-size="11.00" fill="#000000">varchar[31]</text>
<polygon fill="none" stroke="#000000" points="809,-213.2 809,-235.2 918,-235.2 918,-213.2 809,-213.2"/>
<text text-anchor="start" x="829" y="-220.3" font-family="Helvetica,sans-Serif" font-size="11.00" fill="#000000">date_original</text>
<polygon fill="none" stroke="#000000" points="918,-213.2 918,-235.2 989,-235.2 989,-213.2 918,-213.2"/>
<text text-anchor="start" x="921" y="-220.9" font-family="Helvetica,sans-Serif" font-size="11.00" fill="#000000">datetime[19]</text>
<polygon fill="#ffffff" stroke="transparent" points="809,-191.2 809,-213.2 918,-213.2 918,-191.2 809,-191.2"/>
<polygon fill="none" stroke="#000000" points="809,-191.2 809,-213.2 918,-213.2 918,-191.2 809,-191.2"/>
<text text-anchor="start" x="829" y="-198.3" font-family="Helvetica,sans-Serif" font-size="11.00" fill="#000000">date_voided</text>
<polygon fill="none" stroke="#000000" points="918,-191.2 918,-213.2 989,-213.2 989,-191.2 918,-191.2"/>
<text text-anchor="start" x="921" y="-198.9" font-family="Helvetica,sans-Serif" font-size="11.00" fill="#000000">datetime[19]</text>
<polygon fill="none" stroke="#000000" points="809,-169.2 809,-191.2 918,-191.2 918,-169.2 809,-169.2"/>
<image xlink:href="../../images/foreignKeys.png" width="11px" height="12px" preserveAspectRatio="xMinYMin meet" x="814" y="-186.2"/>
<text text-anchor="start" x="829" y="-176.3" font-family="Helvetica,sans-Serif" font-size="11.00" fill="#000000">user_id</text>
<polygon fill="none" stroke="#000000" points="918,-169.2 918,-191.2 989,-191.2 989,-169.2 918,-169.2"/>
<text text-anchor="start" x="921" y="-176.9" font-family="Helvetica,sans-Serif" font-size="11.00" fill="#000000">bigint[19]</text>
<polygon fill="none" stroke="#000000" points="809,-147.2 809,-169.2 918,-169.2 918,-147.2 809,-147.2"/>
<text text-anchor="start" x="829" y="-154.3" font-family="Helvetica,sans-Serif" font-size="11.00" fill="#000000">amount1</text>
<polygon fill="none" stroke="#000000" points="918,-147.2 918,-169.2 989,-169.2 989,-147.2 918,-147.2"/>
<text text-anchor="start" x="920.7981" y="-154.9" font-family="Helvetica,sans-Serif" font-size="11.00" fill="#000000">decimal[12,2]</text>
<polygon fill="none" stroke="#000000" points="809,-125.2 809,-147.2 918,-147.2 918,-125.2 809,-125.2"/>
<text text-anchor="start" x="829" y="-132.3" font-family="Helvetica,sans-Serif" font-size="11.00" fill="#000000">amount2</text>
<polygon fill="none" stroke="#000000" points="918,-125.2 918,-147.2 989,-147.2 989,-125.2 918,-125.2"/>
<text text-anchor="start" x="920.7981" y="-132.9" font-family="Helvetica,sans-Serif" font-size="11.00" fill="#000000">decimal[12,2]</text>
<polygon fill="none" stroke="#000000" points="809,-103.2 809,-125.2 918,-125.2 918,-103.2 809,-103.2"/>
<text text-anchor="start" x="829" y="-110.3" font-family="Helvetica,sans-Serif" font-size="11.00" fill="#000000">other_info</text>
<polygon fill="none" stroke="#000000" points="918,-103.2 918,-125.2 989,-125.2 989,-103.2 918,-103.2"/>
<text text-anchor="start" x="921" y="-110.9" font-family="Helvetica,sans-Serif" font-size="11.00" fill="#000000">text[65535]</text>
<polygon fill="none" stroke="#000000" points="809,-81.2 809,-103.2 918,-103.2 918,-81.2 809,-81.2"/>
<text text-anchor="start" x="829" y="-88.3" font-family="Helvetica,sans-Serif" font-size="11.00" fill="#000000">reason</text>
<polygon fill="none" stroke="#000000" points="918,-81.2 918,-103.2 989,-103.2 989,-81.2 918,-81.2"/>
<text text-anchor="start" x="921" y="-88.9" font-family="Helvetica,sans-Serif" font-size="11.00" fill="#000000">varchar[31]</text>
<polygon fill="none" stroke="#000000" points="809,-59.2 809,-81.2 918,-81.2 918,-59.2 809,-59.2"/>
<text text-anchor="start" x="829" y="-66.3" font-family="Helvetica,sans-Serif" font-size="11.00" fill="#000000">notes</text>
<polygon fill="none" stroke="#000000" points="918,-59.2 918,-81.2 989,-81.2 989,-59.2 918,-59.2"/>
<text text-anchor="start" x="921" y="-66.9" font-family="Helvetica,sans-Serif" font-size="11.00" fill="#000000">varchar[255]</text>
<polygon fill="#ffffff" stroke="transparent" points="809,-40.2 809,-59.2 868,-59.2 868,-40.2 809,-40.2"/>
<polygon fill="none" stroke="#000000" points="809,-40.2 809,-59.2 868,-59.2 868,-40.2 809,-40.2"/>
<text text-anchor="start" x="812" y="-46.3" font-family="Helvetica,sans-Serif" font-size="11.00" fill="#000000">&lt; 3</text>
<polygon fill="#ffffff" stroke="transparent" points="868,-40.2 868,-59.2 918,-59.2 918,-40.2 868,-40.2"/>
<polygon fill="none" stroke="#000000" points="868,-40.2 868,-59.2 918,-59.2 918,-40.2 868,-40.2"/>
<text text-anchor="start" x="908.8862" y="-46.3" font-family="Helvetica,sans-Serif" font-size="11.00" fill="#000000"> &#160;</text>
<polygon fill="#ffffff" stroke="transparent" points="918,-40.2 918,-59.2 989,-59.2 989,-40.2 918,-40.2"/>
<polygon fill="none" stroke="#000000" points="918,-40.2 918,-59.2 989,-59.2 989,-40.2 918,-40.2"/>
<text text-anchor="start" x="970.4053" y="-46.3" font-family="Helvetica,sans-Serif" font-size="11.00" fill="#000000">0 &gt;</text>
<polygon fill="none" stroke="#000000" stroke-width="2" points="808,-39.2 808,-347.2 990,-347.2 990,-39.2 808,-39.2"/>
</a>
</g>
</g>
<!-- voids&#45;&gt;form_encounter -->
<g id="edge7" class="edge">
<title>voids:w&#45;&gt;form_encounter:e</title>
<path fill="none" stroke="#000000" d="M794.5783,-266.95C782.3855,-264.7 775.2079,-260.2 758,-260.2"/>
<polygon fill="#000000" stroke="#000000" points="801.0299,-267.5091 808.6891,-271.7866 805.0149,-267.8546 809,-268.2 809,-268.2 809,-268.2 805.0149,-267.8546 809.3109,-264.6134 801.0299,-267.5091 801.0299,-267.5091"/>
<ellipse fill="none" stroke="#000000" cx="797.8418" cy="-267.2328" rx="3.2" ry="3.2"/>
</g>
<!-- voids&#45;&gt;patient_data -->
<g id="edge8" class="edge">
<title>voids:w&#45;&gt;patient_data:e</title>
<path fill="none" stroke="#000000" d="M794.9364,-293.3019C769.6843,-307.7807 802.2855,-369.0277 766,-393.2 683.1457,-448.3949 636.54,-424.401 542,-393.2 520.7281,-386.1796 523.9004,-363.2 501.5,-363.2"/>
<polygon fill="#000000" stroke="#000000" points="801.1878,-291.9231 809.7754,-293.7155 805.0939,-291.0616 809,-290.2 809,-290.2 809,-290.2 805.0939,-291.0616 808.2246,-286.6845 801.1878,-291.9231 801.1878,-291.9231"/>
<ellipse fill="none" stroke="#000000" cx="798.0629" cy="-292.6124" rx="3.2" ry="3.2"/>
</g>
<!-- voids&#45;&gt;users -->
<g id="edge9" class="edge">
<title>voids:w&#45;&gt;users:e</title>
<path fill="none" stroke="#000000" d="M794.4723,-180.052C540.8909,-174.885 421.587,-37.1044 216,-194.2 165.8878,-232.4923 238.5677,-330.2 175.5,-330.2"/>
<polygon fill="#000000" stroke="#000000" points="801.0004,-180.1185 808.9633,-183.7998 805.0002,-180.1592 809,-180.2 809,-180.2 809,-180.2 805.0002,-180.1592 809.0367,-176.6002 801.0004,-180.1185 801.0004,-180.1185"/>
<ellipse fill="none" stroke="#000000" cx="797.8006" cy="-180.0859" rx="3.2" ry="3.2"/>
</g>
</g>
</svg>
