<?xml version="1.0" encoding="UTF-8" standalone="no"?>
<!-- Generator: Adobe Illustrator 19.0.0, SVG Export Plug-In . SVG Version: 6.00 Build 0)  -->

<svg
   xmlns:dc="http://purl.org/dc/elements/1.1/"
   xmlns:cc="http://creativecommons.org/ns#"
   xmlns:rdf="http://www.w3.org/1999/02/22-rdf-syntax-ns#"
   xmlns:svg="http://www.w3.org/2000/svg"
   xmlns="http://www.w3.org/2000/svg"
   xmlns:sodipodi="http://sodipodi.sourceforge.net/DTD/sodipodi-0.dtd"
   xmlns:inkscape="http://www.inkscape.org/namespaces/inkscape"
   version="1.1"
   id="Layer_1"
   x="0px"
   y="0px"
   viewBox="0 0 469.333 469.333"
   style="enable-background:new 0 0 469.333 469.333;"
   xml:space="preserve"
   sodipodi:docname="calendar.svg"
   inkscape:version="0.92.1 r15371"><metadata
     id="metadata4587"><rdf:RDF><cc:Work
         rdf:about=""><dc:format>image/svg+xml</dc:format><dc:type
           rdf:resource="http://purl.org/dc/dcmitype/StillImage" /></cc:Work></rdf:RDF></metadata><defs
     id="defs4585" /><sodipodi:namedview
     pagecolor="#ffffff"
     bordercolor="#666666"
     borderopacity="1"
     objecttolerance="10"
     gridtolerance="10"
     guidetolerance="10"
     inkscape:pageopacity="0"
     inkscape:pageshadow="2"
     inkscape:window-width="1920"
     inkscape:window-height="1017"
     id="namedview4583"
     showgrid="false"
     inkscape:zoom="0.50284126"
     inkscape:cx="-106.39541"
     inkscape:cy="251.57045"
     inkscape:window-x="-8"
     inkscape:window-y="-8"
     inkscape:window-maximized="1"
     inkscape:current-layer="g4548" /><g
     id="g4550"><g
       id="g4548"><g
         id="g4546"
         style="fill:#a50f00;fill-opacity:1"><path
           d="M426.667,42.667h-64v-32C362.667,4.771,357.896,0,352,0c-5.896,0-10.667,4.771-10.667,10.667v32h-192v-32     C149.333,4.771,144.562,0,138.667,0S128,4.771,128,10.667v32H42.667C19.146,42.667,0,61.802,0,85.333v341.333     c0,23.531,19.146,42.667,42.667,42.667h309.313v-0.004l0.021,0.004c2.771,0,5.5-1.083,7.542-3.125l106.667-106.667     c2.034-2.042,2.708-4.767,2.711-7.542h0.414V85.333C469.333,61.802,450.188,42.667,426.667,42.667z M362.667,432.917V384     c0-11.76,9.563-21.333,21.333-21.333h48.917L362.667,432.917z M448,341.333h-64c-23.521,0-42.667,19.135-42.667,42.667v64H42.667     c-11.771,0-21.333-9.573-21.333-21.333v-256H448V341.333z M448,149.333H21.333v-64C21.333,73.573,30.896,64,42.667,64H128v21.333     c-11.771,0-21.333,9.573-21.333,21.333S116.229,128,128,128c11.771,0,21.333-9.573,21.333-21.333V64h192v21.333     c-11.771,0-21.333,9.573-21.333,21.333S329.563,128,341.333,128s21.333-9.573,21.333-21.333V64h64     C438.438,64,448,73.573,448,85.333V149.333z"
           id="path4540"
           style="fill:#a50f00;fill-opacity:1" /><path
           d="M192,362.667c-11.771,0-21.333-9.573-21.333-21.333c0-5.896-4.771-10.667-10.667-10.667     c-5.896,0-10.667,4.771-10.667,10.667C149.333,364.865,168.479,384,192,384c23.521,0,42.667-19.135,42.667-42.667     c0-12.729-5.604-24.177-14.479-32c8.875-7.823,14.479-19.271,14.479-32c0-23.531-19.146-42.667-42.667-42.667     c-23.521,0-42.667,19.135-42.667,42.667c0,5.896,4.771,10.667,10.667,10.667c5.896,0,10.667-4.771,10.667-10.667     c0-11.76,9.563-21.333,21.333-21.333c11.771,0,21.333,9.573,21.333,21.333c0,11.76-9.563,21.333-21.333,21.333     c-5.896,0-10.667,4.771-10.667,10.667c0,5.896,4.771,10.667,10.667,10.667c11.771,0,21.333,9.573,21.333,21.333     S203.771,362.667,192,362.667z"
           id="path4542"
           style="fill:#a50f00;fill-opacity:1" /><path
           d="M266.687,256.021c0,0,0,0,0.021,0l10.625-0.01v117.323c0,5.896,4.771,10.667,10.667,10.667     c5.896,0,10.667-4.771,10.667-10.667v-128c0-2.833-1.125-5.542-3.125-7.542s-4.708-3.125-7.542-3.125c0,0,0,0-0.021,0     l-21.292,0.021c-5.896,0.01-10.667,4.781-10.667,10.677C256.021,251.25,260.792,256.021,266.687,256.021z"
           id="path4544"
           style="fill:#a50f00;fill-opacity:1" /></g></g></g><g
     id="g4552" /><g
     id="g4554" /><g
     id="g4556" /><g
     id="g4558" /><g
     id="g4560" /><g
     id="g4562" /><g
     id="g4564" /><g
     id="g4566" /><g
     id="g4568" /><g
     id="g4570" /><g
     id="g4572" /><g
     id="g4574" /><g
     id="g4576" /><g
     id="g4578" /><g
     id="g4580" /></svg>