<?xml version="1.0" encoding="UTF-8" standalone="no"?>
<!-- Generator: Adobe Illustrator 19.0.0, SVG Export Plug-In . SVG Version: 6.00 Build 0)  -->

<svg
   xmlns:dc="http://purl.org/dc/elements/1.1/"
   xmlns:cc="http://creativecommons.org/ns#"
   xmlns:rdf="http://www.w3.org/1999/02/22-rdf-syntax-ns#"
   xmlns:svg="http://www.w3.org/2000/svg"
   xmlns="http://www.w3.org/2000/svg"
   xmlns:sodipodi="http://sodipodi.sourceforge.net/DTD/sodipodi-0.dtd"
   xmlns:inkscape="http://www.inkscape.org/namespaces/inkscape"
   version="1.1"
   id="Layer_1"
   x="0px"
   y="0px"
   viewBox="0 0 500 371.62"
   xml:space="preserve"
   sodipodi:docname="cloud.svg"
   inkscape:version="0.92.1 r15371"
   width="371.62"
   height="371.62"><metadata
     id="metadata41"><rdf:RDF><cc:Work
         rdf:about=""><dc:format>image/svg+xml</dc:format><dc:type
           rdf:resource="http://purl.org/dc/dcmitype/StillImage" /><dc:title></dc:title></cc:Work></rdf:RDF></metadata><defs
     id="defs39" /><sodipodi:namedview
     pagecolor="#ffffff"
     bordercolor="#666666"
     borderopacity="1"
     objecttolerance="10"
     gridtolerance="10"
     guidetolerance="10"
     inkscape:pageopacity="0"
     inkscape:pageshadow="2"
     inkscape:window-width="1920"
     inkscape:window-height="1017"
     id="namedview37"
     showgrid="false"
     showborder="true"
     inkscape:zoom="1"
     inkscape:cx="201.96373"
     inkscape:cy="199.4661"
     inkscape:window-x="-8"
     inkscape:window-y="-8"
     inkscape:window-maximized="1"
     inkscape:current-layer="Layer_1"
     viewbox-width="500" /><g
     id="g4"
     style="fill:none;stroke:#000000;stroke-width:17.36004448;stroke-miterlimit:4;stroke-dasharray:none;stroke-opacity:0.98404254"
     transform="matrix(1.2725095,0,0,1.2725095,13.55501,-50.63499)"><path
       style="fill:none;stroke:#000000;stroke-width:17.36004448;stroke-miterlimit:4;stroke-dasharray:none;stroke-opacity:0.98404254"
       d="m 62.513,153.087 c -0.009,-0.525 -0.02,-1.049 -0.02,-1.575 0,-50.155 40.659,-90.814 90.814,-90.814 43.222,0 79.388,30.196 88.562,70.643 8.555,-4.789 18.409,-7.531 28.91,-7.531 32.766,0 59.328,26.562 59.328,59.328 0,1.339 -0.06,2.664 -0.148,3.981 24.325,9.03 41.661,32.444 41.661,59.911 0,35.286 -28.605,63.892 -63.892,63.892 H 79.865 C 35.757,310.921 0,275.164 0,231.056 0,192.907 26.749,161.011 62.513,153.087 Z"
       id="path2"
       inkscape:connector-curvature="0" /></g><g
     id="g6" /><g
     id="g8" /><g
     id="g10" /><g
     id="g12" /><g
     id="g14" /><g
     id="g16" /><g
     id="g18" /><g
     id="g20" /><g
     id="g22" /><g
     id="g24" /><g
     id="g26" /><g
     id="g28" /><g
     id="g30" /><g
     id="g32" /><g
     id="g34" /></svg>