<?xml version="1.0" encoding="UTF-8" standalone="no"?>
<!-- Generator: Adobe Illustrator 16.0.0, SVG Export Plug-In . SVG Version: 6.00 Build 0)  -->

<svg
   xmlns:dc="http://purl.org/dc/elements/1.1/"
   xmlns:cc="http://creativecommons.org/ns#"
   xmlns:rdf="http://www.w3.org/1999/02/22-rdf-syntax-ns#"
   xmlns:svg="http://www.w3.org/2000/svg"
   xmlns="http://www.w3.org/2000/svg"
   xmlns:sodipodi="http://sodipodi.sourceforge.net/DTD/sodipodi-0.dtd"
   xmlns:inkscape="http://www.inkscape.org/namespaces/inkscape"
   version="1.1"
   id="Capa_1"
   x="0px"
   y="0px"
   width="137.281px"
   height="137.28px"
   viewBox="0 0 137.281 137.28"
   style="enable-background:new 0 0 137.281 137.28;"
   xml:space="preserve"
   sodipodi:docname="flowchart.svg"
   inkscape:version="0.92.1 r15371"><metadata
     id="metadata5787"><rdf:RDF><cc:Work
         rdf:about=""><dc:format>image/svg+xml</dc:format><dc:type
           rdf:resource="http://purl.org/dc/dcmitype/StillImage" /></cc:Work></rdf:RDF></metadata><defs
     id="defs5785" /><sodipodi:namedview
     pagecolor="#ffffff"
     bordercolor="#666666"
     borderopacity="1"
     objecttolerance="10"
     gridtolerance="10"
     guidetolerance="10"
     inkscape:pageopacity="0"
     inkscape:pageshadow="2"
     inkscape:window-width="1920"
     inkscape:window-height="1017"
     id="namedview5783"
     showgrid="false"
     inkscape:zoom="1.7191142"
     inkscape:cx="-25.88492"
     inkscape:cy="68.639999"
     inkscape:window-x="-8"
     inkscape:window-y="-8"
     inkscape:window-maximized="1"
     inkscape:current-layer="g5748" /><g
     id="g5750"><g
       id="g5748"><path
         d="M105.605,0H31.676C14.262,0,10.557,3.688,10.557,21.124v95.036c0,17.417,3.698,21.12,21.119,21.12h71.287v-5.603H31.676    c-14.356,0-15.515-1.159-15.515-15.518V21.124c0-14.355,1.159-15.521,15.515-15.521h73.929c14.353,0,15.515,1.16,15.515,15.521    v92.398h5.604V21.124C126.723,3.688,123.025,0,105.605,0z"
         id="path5734"
         style="fill:#a50f00;fill-opacity:1" /><polygon
         points="106.436,133.801 123.249,116.991 106.436,116.991   "
         id="polygon5736"
         style="fill:#a50f00;fill-opacity:1" /><polygon
         points="55.789,57.305 55.789,46.676 31.414,46.676 31.414,57.305 42.576,57.305 42.576,61.049 40.688,61.049     43.6,66.881 46.528,61.049 44.63,61.049 44.63,57.305   "
         id="polygon5738"
         style="fill:#a50f00;fill-opacity:1" /><rect
         x="81.498"
         y="36.041"
         width="24.369"
         height="10.635"
         id="rect5740"
         style="fill:#a50f00;fill-opacity:1" /><polygon
         points="55.789,79.267 55.789,68.64 31.414,68.64 31.414,79.267 42.576,79.267 42.576,82.879 40.68,82.879 43.6,88.722     46.528,82.879 44.63,82.879 44.63,79.267   "
         id="polygon5742"
         style="fill:#a50f00;fill-opacity:1" /><rect
         x="31.414"
         y="90.616"
         width="24.375"
         height="10.637"
         id="rect5744"
         style="fill:#a50f00;fill-opacity:1" /><polygon
         points="58.712,51.992 58.712,95.935 60.776,95.935 60.776,74.988 69.005,74.988 69.005,42.372 79.046,42.372     79.046,40.314 66.942,40.314 66.942,72.931 60.776,72.931 60.776,51.992   "
         id="polygon5746"
         style="fill:#a50f00;fill-opacity:1" /></g></g><g
     id="g5752" /><g
     id="g5754" /><g
     id="g5756" /><g
     id="g5758" /><g
     id="g5760" /><g
     id="g5762" /><g
     id="g5764" /><g
     id="g5766" /><g
     id="g5768" /><g
     id="g5770" /><g
     id="g5772" /><g
     id="g5774" /><g
     id="g5776" /><g
     id="g5778" /><g
     id="g5780" /></svg>