<?xml version="1.0" encoding="utf-8"?>
<!-- Generator: Adobe Illustrator 22.0.1, SVG Export Plug-In . SVG Version: 6.00 Build 0)  -->
<svg version="1.1" id="Layer_1" xmlns="http://www.w3.org/2000/svg" xmlns:xlink="http://www.w3.org/1999/xlink" x="0px" y="0px"
	 viewBox="0 0 500 500" style="enable-background:new 0 0 500 500;" xml:space="preserve">
<style type="text/css">
	.st0{fill:#9FC2CC;}
	.st1{fill:#C4EEFF;}
	.st2{fill:#8DABB2;}
</style>
<g>
	<g>
		<g>
			<polygon class="st0" points="2.8,177.8 67.7,196.8 67.7,104.6 2.8,85.6 			"/>
			<polygon class="st0" points="140.1,125.8 140.1,218 249.6,250 249.6,157.8 			"/>
		</g>
		<g>
			<polygon class="st1" points="317.5,31.5 249.6,11 182.6,31.2 250.5,51.1 			"/>
			<polygon class="st1" points="387.6,52.7 322.1,72.1 431.9,104.5 496.5,85.6 			"/>
			<polygon class="st1" points="112.5,52.4 2.8,85.6 67.7,104.6 178.8,72.1 			"/>
			<polygon class="st1" points="140.1,125.8 249.6,157.8 359.5,125.7 359.5,125.7 250.3,93.3 			"/>
		</g>
		<g>
			<polygon class="st2" points="249.6,250 359.5,217.8 359.5,217.7 359.5,216.6 359.5,125.7 249.6,157.8 			"/>
			<polygon class="st2" points="431.9,104.5 431.9,196.6 496.5,177.8 496.5,85.6 			"/>
		</g>
	</g>
	<g>
		<g>
			<polygon class="st1" points="23.8,423.7 89.7,443 89.7,236.4 23.8,217.1 			"/>
			<polygon class="st1" points="162.1,257.6 162.1,464.2 247.6,489.2 247.6,282.6 			"/>
		</g>
		<g>
			<polygon class="st0" points="247.6,282.6 247.6,489.2 248.7,489.6 337.6,463.6 337.6,257.4 249.6,283.2 			"/>
			<polygon class="st0" points="410,236.2 410,442.3 473.6,423.7 473.6,217.6 			"/>
		</g>
	</g>
</g>
</svg>
