<?xml version="1.0" encoding="utf-8"?>
<!-- Generator: Adobe Illustrator 22.0.1, SVG Export Plug-In . SVG Version: 6.00 Build 0)  -->
<svg version="1.1" id="Layer_1" xmlns="http://www.w3.org/2000/svg" xmlns:xlink="http://www.w3.org/1999/xlink" x="0px" y="0px"
	 viewBox="0 0 800 600" style="enable-background:new 0 0 800 600;" xml:space="preserve">
<style type="text/css">
	.st0{fill:#FFFFFF;}
	.st1{clip-path:url(#SVGID_2_);fill:#FFFFFF;}
</style>
<g>
	<g>
		
			<sodipodi:namedview  bordercolor="#666666" borderopacity="1" fit-margin-bottom="0" fit-margin-left="0" fit-margin-right="0" fit-margin-top="0" gridtolerance="10" guidetolerance="10" id="namedview3682" inkscape:current-layer="g3688" inkscape:cx="238.02639" inkscape:cy="53.94295" inkscape:guide-bbox="true" inkscape:object-paths="true" inkscape:pagecheckerboard="true" inkscape:pageopacity="0" inkscape:pageshadow="2" inkscape:showpageshadow="true" inkscape:snap-grids="false" inkscape:snap-to-guides="false" inkscape:window-height="1017" inkscape:window-maximized="1" inkscape:window-width="1920" inkscape:window-x="-8" inkscape:window-y="-8" inkscape:zoom="1.076933" objecttolerance="10" pagecolor="#ffffff" showgrid="false" showguides="false">
			<sodipodi:guide  id="guide3856" inkscape:locked="false" orientation="0,1" position="315.24877,126.15644"></sodipodi:guide>
			<sodipodi:guide  id="guide3858" inkscape:locked="false" orientation="0,1" position="355.01124,6.8690427"></sodipodi:guide>
		</sodipodi:namedview>
		
			<g id="g3688_1_" transform="matrix(1.3333333,0,0,-1.3333333,-119.68388,300.10077)" inkscape:groupmode="layer" inkscape:label="OpenEMR Master">
			<g id="g3854_1_" transform="matrix(0.74202937,0,0,0.74202937,34.862522,50.045173)">
				<g id="g3714_1_" transform="translate(208.2329,185.5537)">
					<path id="path3716_1_" inkscape:connector-curvature="0" class="st0" d="M141.7-231.1c-3.3,8.1-11.2,13.8-20.5,13.8
						c-12.2,0-22.1-9.9-22.1-22.1c0-1.3,0.1-2.6,0.3-3.8c-0.4,1.8-0.5,3.6-0.5,5.5c0,15.1,12.2,27.3,27.3,27.3
						c11.3,0,21-6.9,25.2-16.7c0.3-0.6,0.4-1.3,0.4-2.1c0-2.9-2.3-5.3-5.3-5.3C144.4-234.4,142.5-233,141.7-231.1"/>
				</g>
				<g id="g3718_1_" transform="translate(142.416,98.7559)">
					<path id="path3720_1_" inkscape:connector-curvature="0" class="st0" d="M180.4-180.1c8-3.4,17.7-1.8,24.2,4.7
						c8.6,8.6,8.6,22.6,0,31.2c-0.9,0.9-1.9,1.8-2.9,2.5c1.5-1,2.9-2.2,4.3-3.5c10.7-10.7,10.7-28,0-38.6c-8-8-19.7-10-29.6-6
						c-0.6,0.3-1.2,0.6-1.8,1.2c-2,2-2,5.4,0,7.4C176.2-179.6,178.5-179.2,180.4-180.1"/>
				</g>
				<g id="g3722_1_" transform="translate(102.416,184.6387)">
					<path id="path3724_1_" inkscape:connector-curvature="0" class="st0" d="M203.9-230.5c-3.4-8-1.8-17.7,4.7-24.2
						c8.6-8.6,22.6-8.6,31.2,0c0.9,0.9,1.8,1.9,2.5,2.9c-1-1.5-2.2-2.9-3.5-4.3c-10.7-10.7-28-10.7-38.6,0c-8,8-10,19.7-6,29.6
						c0.3,0.6,0.6,1.2,1.2,1.8c2,2,5.4,2,7.4,0C204.3-226.3,204.7-228.6,203.9-230.5"/>
				</g>
				<g id="g3746_1_" transform="translate(208.2329,185.5537)">
					<path id="path3748_1_" inkscape:connector-curvature="0" class="st0" d="M141.7-231.1c-3.3,8.1-11.2,13.8-20.5,13.8
						c-12.2,0-22.1-9.9-22.1-22.1c0-1.3,0.1-2.6,0.3-3.8c-0.4,1.8-0.5,3.6-0.5,5.5c0,15.1,12.2,27.3,27.3,27.3
						c11.3,0,21-6.9,25.2-16.7c0.3-0.6,0.4-1.3,0.4-2.1c0-2.9-2.3-5.3-5.3-5.3C144.4-234.4,142.5-233,141.7-231.1"/>
				</g>
				<g id="g3750_1_" transform="translate(142.416,98.7559)">
					<path id="path3752_1_" inkscape:connector-curvature="0" class="st0" d="M180.4-180.1c8-3.4,17.7-1.8,24.2,4.7
						c8.6,8.6,8.6,22.6,0,31.2c-0.9,0.9-1.9,1.8-2.9,2.5c1.5-1,2.9-2.2,4.3-3.5c10.7-10.7,10.7-28,0-38.6c-8-8-19.7-10-29.6-6
						c-0.6,0.3-1.2,0.6-1.8,1.2c-2,2-2,5.4,0,7.4C176.2-179.6,178.5-179.2,180.4-180.1"/>
				</g>
				<g id="g3754_1_" transform="translate(102.416,184.6387)">
					<path id="path3756_1_" inkscape:connector-curvature="0" class="st0" d="M203.9-230.5c-3.4-8-1.8-17.7,4.7-24.2
						c8.6-8.6,22.6-8.6,31.2,0c0.9,0.9,1.8,1.9,2.5,2.9c-1-1.5-2.2-2.9-3.5-4.3c-10.7-10.7-28-10.7-38.6,0c-8,8-10,19.7-6,29.6
						c0.3,0.6,0.6,1.2,1.2,1.8c2,2,5.4,2,7.4,0C204.3-226.3,204.7-228.6,203.9-230.5"/>
				</g>
			</g>
			<g id="g6571_1_" transform="translate(-2.53432)">
				<g id="g3702_1_" transform="translate(376.01427,170.29305)">
					<path id="path3704_1_" inkscape:connector-curvature="0" class="st0" d="M-3.1-161.2c0,4.6-2.9,7.8-7,7.8
						c-4.2,0-7.1-3.2-7.1-7.8c0-4.7,2.9-7.9,7.1-7.9C-6-169.1-3.1-165.9-3.1-161.2 M4.9-161.5c0-8.6-5.2-14.4-13-14.4
						c-3.9,0-7,1.6-9,4.4v-14.4h-8v38.6h8v-4.2c2,2.8,5.1,4.4,8.9,4.4C-0.5-146.9,4.9-152.8,4.9-161.5"/>
				</g>
				<g id="g3706_1_" transform="translate(451.30867,175.65245)">
					<path id="path3708_1_" inkscape:connector-curvature="0" class="st0" d="M-47.4-164.3c-0.1,3.7-2.5,6.2-6.3,6.2
						c-3.6,0-6-2.4-6.7-6.2H-47.4z M-39.6-169.2h-20.5c0.9-3.6,3.7-5.7,7.4-5.7c2.7,0,5.2,1.1,7.2,3l4.3-4.3c-2.9-3.2-7-5-12.1-5
						c-9.1,0-14.8,5.8-14.8,14.4c0,8.8,6,14.6,14.6,14.6c10,0,14.6-6.6,13.9-17"/>
				</g>
				<g id="g3710_1_" transform="translate(543.66127,178.92055)">
					<path id="path3712_1_" inkscape:connector-curvature="0" class="st0" d="M-101.7-166.3v-17.9h-8v15.5c0,3.6-2.1,5.8-5.7,5.8
						c-4.2-0.1-6.6-3.1-6.6-7.3v-14h-8v28.4h8v-4.9c2,3.5,5.4,5.2,9.8,5.3c6.3,0,10.4-4.2,10.4-10.9"/>
				</g>
				<path id="path3726_1_" inkscape:connector-curvature="0" class="st0" d="M361.9-10.6h108.8v-2.2H361.9V-10.6z"/>
				<g id="g3730_1_" transform="translate(674.11927,117.15585)">
					<path id="path3732_1_" inkscape:connector-curvature="0" class="st0" d="M-178.4-129.9h22.9l2,2.2h-24.8V-129.9z"/>
				</g>
				<g id="g3734_1_" transform="translate(640.39367,100.88145)">
					<path id="path3736_1_" inkscape:connector-curvature="0" class="st0" d="M-158.5-120.3l-11.2,35.4v-28.7h-3.1v35.5h3.9
						l10.2-33.6l10.1,33.6h3.9v-35.5h-2.8v28.8L-158.5-120.3z"/>
				</g>
				<g id="g3738_1_" transform="translate(560.65437,196.10995)">
					<path id="path3740_1_" inkscape:connector-curvature="0" class="st0" d="M-111.6-176.4v-9.2h14.2v-3.1h-14.2v-9.6h16.4v-2.8
						H-115v27.8h19.2v-3.1L-111.6-176.4L-111.6-176.4z"/>
				</g>
				<g id="g3742_1_" transform="translate(707.45227,164.67195)">
					<path id="path3744_1_" inkscape:connector-curvature="0" class="st0" d="M-197.8-157.9c5.1,0,8,2.2,8,6.6c0,4.2-2.9,6.4-8,6.4
						h-7.4v-13H-197.8z M-196.1-160.9c-0.6,0-1.2-0.1-1.9-0.1h-7.6v-8.7h-3.1v27.8h10.6c7,0,11-3.4,11-9.3c0-4.6-2.2-7.7-6.2-9
						l6.5-9.5h-3.5L-196.1-160.9z"/>
				</g>
				<g id="g3758_1_" transform="translate(262.94247,169.77015)">
					<path id="path3760_1_" inkscape:connector-curvature="0" class="st0" d="M63.4-160.9c0-4.7,2.9-7.8,7.1-7.8
						c4.2,0,7.1,3.2,7.1,7.8c0,4.7-2.9,7.8-7.1,7.8C66.2-153.1,63.4-156.3,63.4-160.9 M85.7-160.8c0-8.7-6.1-14.5-15.2-14.5
						c-9.1,0-15.3,5.9-15.3,14.5c0,8.7,6.1,14.5,15.3,14.5C79.5-146.3,85.7-152.1,85.7-160.8"/>
				</g>
				<path id="path3776_1_" inkscape:connector-curvature="0" class="st0" d="M318-10.6h29.4v-2.2H318V-10.6z"/>
			</g>
			<g id="g3758-2-2_1_" transform="translate(131.36876,66.870595)">
			</g>
			<g id="g3758-2-3-0_1_" transform="translate(1063.294,216.0347)">
			</g>
		</g>
	</g>
	<g>
		<path class="st0" d="M256.5,201.8c-0.1,0.5-0.1,1-0.1,1.5c0,2.5,0.9,4.7,2.4,6.4l20.1,20.1l2.8-2.8L256.5,201.8L256.5,201.8z"/>
		<g>
			<defs>
				<rect id="SVGID_1_" x="256.2" y="193" width="48" height="38"/>
			</defs>
			<clipPath id="SVGID_2_">
				<use xlink:href="#SVGID_1_"  style="overflow:visible;"/>
			</clipPath>
			<path class="st1" d="M273.1,195.9c-1.8-1.7-4.2-2.7-6.9-2.7c-0.4,0-0.9,0-1.3,0.1l25.4,25.4l2.8-2.8L273.1,195.9L273.1,195.9z"/>
			<path class="st1" d="M293.9,192.9c-2.6,0-4.9,1-6.6,2.6L266,216.8l2.8,2.8l26.6-26.6C294.9,193,294.4,192.9,293.9,192.9
				L293.9,192.9z"/>
		</g>
		<path class="st0" d="M299.5,194.6l-27.5,27.5l2.8,2.8l27.5-27.5C301.5,196.3,300.6,195.3,299.5,194.6L299.5,194.6z"/>
		<path class="st0" d="M303.9,202.8c0-0.5,0-0.9-0.1-1.3l-26.6,26.6l2.8,2.8l21.4-21.4C303,207.7,304,205.4,303.9,202.8L303.9,202.8
			z"/>
		<path class="st0" d="M260.9,194.9c-0.6,0.4-1.1,0.8-1.6,1.3l-0.1,0.1c-0.4,0.4-0.8,0.9-1.1,1.4l27.6,27.6l2.8-2.8L260.9,194.9
			L260.9,194.9z"/>
		<polygon class="st0" points="290.3,213.1 287.5,215.9 281.3,209.7 284.1,206.9 290.3,213.1 		"/>
		<polygon class="st0" points="278.2,221.5 275.4,218.6 281.8,212.2 284.6,215.1 278.2,221.5 		"/>
		<path class="st0" d="M189,219l1.2-7h-6.5l-1.2,7H189L189,219z M178.7,222h-5.1l0.5-3h5.3l1.2-7h-5.3l0.5-3h5.4l1.4-8h3.2l-1.4,8
			h6.2l1.4-8h3.2l-1.4,8h5.4l-0.5,3h-5.3l-1.2,7h5.3l-0.5,3H192l-1.4,8h-3.4l1.4-8h-6.5l-1.4,8h-3.4L178.7,222L178.7,222z
			 M221.7,193.4c8.5,0,13,4.3,13,4.3l-2.5,3.7c0,0-4-3.5-10.1-3.5c-8.4,0-13.5,6.1-13.5,13.8c0,8.3,5.7,14,13.2,14
			c6.2,0,11.1-4.5,11.1-4.5V216h-7v-4h10v18h-4v-2.5c0.2-0.8,0.2-1.5,0.2-1.5H232c0,0-3.9,4.4-11,4.4c-9.6,0-17.6-7.6-17.6-18.5
			C203.5,201.5,211.3,193.4,221.7,193.4L221.7,193.4z M243.9,194h5v36h-5V194L243.9,194z M310.9,194h5v36h-5V194L310.9,194z
			 M325.9,194h4.8l15.9,23.3c1.3,1.9,3,5.2,3,4.7h0.1c0,0.4-0.4-2.8-0.8-4.7V194h6v36h-5l-16.2-22.9c-1.3-1.9-3-5.1-3-5.1h-0.1
			c0,0,0.4,3.1,0.4,5.1V230h-5V194L325.9,194z M379.9,193.4c8.5,0,13,4.3,13,4.3l-2.5,3.7c0,0-4-3.5-10.1-3.5
			c-8.4,0-13.5,6.1-13.5,13.8c0,8.3,5.7,14,13.2,14c6.2,0,10.9-4.5,10.9-4.5V216h-6v-4h10v18h-5v-2.5c0.3-0.8,0.4-1.5,0.4-1.5h-0.1
			c0,0-3.9,4.4-11,4.4c-9.6,0-17.6-7.6-17.6-18.5C361.6,201.5,369.4,193.4,379.9,193.4L379.9,193.4z"/>
		<path class="st0" d="M413.9,199h-12v-5h29v5h-12v31h-5V199L413.9,199z M435.9,194v23.1c0,7.9,5.7,13.3,14,13.3
			c8.3,0,14-5.3,14-13.3V194h-5v23c0,5.7-3.7,8.9-9.4,8.7c-4.8-0.1-8.6-4.1-8.6-8.9V194H435.9L435.9,194z M472.9,194v36h22v-5h-17
			v-11h13v-4h-13v-12h16v-4H472.9L472.9,194z M501.8,221.9l-2.8,3.8c0,0,4.2,4.7,11.8,4.7c7.1,0,11.3-4.6,11.3-10.1
			c0-11.6-17.3-9.6-17.3-17c0-2.8,2.7-5.2,6.5-5.2c4.6,0,7.8,3.1,7.8,3.1l2.3-4.1c0,0-3.5-3.6-10.1-3.6c-6.7,0-11.5,4.4-11.5,10
			c0,11,17.3,9.3,17.3,17c0,3.4-2.8,5.3-6.2,5.3C505.6,225.7,501.8,221.9,501.8,221.9L501.8,221.9z M540.4,225h-6.5v-27h6.5
			c8,0,13.3,4.7,13.3,13.4C553.7,220.2,548.4,225,540.4,225L540.4,225z M528.9,194v36h11.9c11,0,18.3-6.6,18.3-18.1
			c0-11.4-7.2-17.9-18.3-17.9H528.9L528.9,194z M577.5,199L577.5,199c0.1,0,0.8,3.2,1.4,4.9l3.9,11.1h-10.6l3.9-11.1
			C576.7,202.1,577.5,199,577.5,199L577.5,199z M584,220l3.5,10h5.6l-13-36h-5.3l-13,36h5.6l3.4-10H584L584,220z M603.9,214.7V230h5
			v-15.2l11.9-20.8h-6.2l-6.4,11.6c-1.1,2-2.1,4.4-2.1,4.4h-0.1c0,0-1-2.5-2.1-4.4l-6.5-11.6h-5.3L603.9,214.7L603.9,214.7z"/>
	</g>
</g>
</svg>
