<?xml version="1.0" encoding="utf-8"?>
<!-- Generator: Adobe Illustrator 22.0.1, SVG Export Plug-In . SVG Version: 6.00 Build 0)  -->
<svg version="1.1" id="Layer_1" xmlns="http://www.w3.org/2000/svg" xmlns:xlink="http://www.w3.org/1999/xlink" x="0px" y="0px"
	 width="447.5px" height="154px" viewBox="0 0 447.5 154" style="enable-background:new 0 0 447.5 154;" xml:space="preserve">
<style type="text/css">
	.st0{fill:#FFFFFF;}
	.st1{clip-path:url(#SVGID_2_);fill:#FFFFFF;}
	.st2{clip-path:url(#SVGID_4_);}
	.st3{clip-path:url(#SVGID_6_);fill:#FFFFFF;}
</style>
<g>
	<path class="st0" d="M83,8.8c-0.1,0.5-0.1,1-0.1,1.5c0,2.5,0.9,4.7,2.4,6.4l20.1,20.1l2.8-2.8L83,8.8L83,8.8z"/>
	<g>
		<defs>
			<rect id="SVGID_1_" x="0.5" width="447" height="38"/>
		</defs>
		<clipPath id="SVGID_2_">
			<use xlink:href="#SVGID_1_"  style="overflow:visible;"/>
		</clipPath>
		<path class="st1" d="M99.6,2.9c-1.8-1.7-4.2-2.7-6.9-2.7c-0.4,0-0.9,0-1.3,0.1l25.4,25.4l2.8-2.8L99.6,2.9L99.6,2.9z"/>
		<path class="st1" d="M120.3,0c-2.6,0-4.9,1-6.6,2.6L92.4,23.9l2.8,2.8l26.6-26.6C121.3,0,120.8,0,120.3,0L120.3,0z"/>
	</g>
	<path class="st0" d="M125.9,1.7L98.4,29.2l2.8,2.8l27.5-27.5C128,3.4,127,2.4,125.9,1.7L125.9,1.7z"/>
	<path class="st0" d="M130.4,9.9c0-0.5,0-0.9-0.1-1.3l-26.6,26.6l2.8,2.8l21.4-21.4C129.5,14.8,130.4,12.4,130.4,9.9L130.4,9.9z"/>
	<path class="st0" d="M87.3,1.9c-0.6,0.4-1.1,0.8-1.6,1.3l-0.1,0.1c-0.4,0.4-0.8,0.9-1.1,1.4l27.6,27.6l2.8-2.8L87.3,1.9L87.3,1.9z"
		/>
	<polygon class="st0" points="116.8,20.1 113.9,22.9 107.8,16.8 110.6,13.9 116.8,20.1 	"/>
	<polygon class="st0" points="105.6,31.5 102.8,34.3 96.5,28 99.3,25.2 105.6,31.5 	"/>
	<polygon class="st0" points="104.7,28.5 101.8,25.7 108.3,19.3 111.1,22.1 104.7,28.5 	"/>
	<path class="st0" d="M15.5,26l1.2-7h-6.5L9,26H15.5L15.5,26z M5.1,29H0l0.5-3h5.3L7,19H1.7l0.5-3h5.4l1.4-8h3.2l-1.4,8h6.2l1.4-8
		h3.2l-1.4,8h5.4l-0.5,3H20l-1.2,7H24l-0.5,3h-5.1L17,37h-3.4l1.4-8H8.5l-1.4,8H3.7L5.1,29L5.1,29z"/>
	<path class="st0" d="M48.6,0.5c8.5,0,13,4.3,13,4.3l-2.5,3.7c0,0-4-3.5-10.1-3.5c-8.4,0-13.5,6.1-13.5,13.8c0,8.3,5.7,14,13.2,14
		c6.2,0,9.8-4.5,9.8-4.5V23h-6v-4h11v18h-5v-2.4c0.5-0.8,0.6-1.5,0.6-1.6H59c0,0.1-3.9,4.4-11,4.4c-9.6,0-17.6-7.6-17.6-18.5
		C30.4,8.6,38.2,0.5,48.6,0.5L48.6,0.5z"/>
	<polygon class="st0" points="71.5,1 76.5,1 76.5,37 71.5,37 71.5,1 	"/>
	<polygon class="st0" points="137.5,1 142.5,1 142.5,37 137.5,37 137.5,1 	"/>
	<path class="st0" d="M152.5,1h5.4l15.9,22.9c1.3,1.9,3,5.1,3,5.1h0.1c0,0-0.4-3.1-0.4-5.1V1h5v36h-5l-16.2-22.9
		c-1.3-1.9-3-5.1-3-5.1h-0.1c0,0,0.4,3.1,0.4,5.1V37h-5V1L152.5,1z"/>
	<path class="st0" d="M206.8,0.5c8.5,0,13,4.3,13,4.3l-2.5,3.7c0,0-4-3.5-10.1-3.5c-8.4,0-13.5,6.1-13.5,13.8c0,8.3,5.7,14,13.2,14
		c6.2,0,10.6-4.5,10.6-4.5V23h-6v-4h10v18h-5v-2.4c0.7-0.8,0.7-1.5,0.7-1.6h-0.1c0,0.1-3.9,4.4-11,4.4c-9.6,0-17.6-7.6-17.6-18.5
		C188.6,8.6,196.4,0.5,206.8,0.5L206.8,0.5z"/>
	<polygon class="st0" points="240.5,6 228.5,6 228.5,1 257.5,1 257.5,6 245.5,6 245.5,37 240.5,37 240.5,6 	"/>
	<path class="st0" d="M262.5,1h5l0,22.8c0,4.8,3.8,8.7,8.6,8.9c5.7,0.1,9.4-3.1,9.4-8.7V1h5v23.1c0,7.9-5.7,13.3-14,13.3
		c-8.3,0-14-5.3-14-13.3V1L262.5,1z"/>
	<polygon class="st0" points="299.5,1 320.5,1 320.5,5 304.5,5 304.5,17 317.5,17 317.5,21 304.5,21 304.5,32 321.5,32 321.5,37 
		299.5,37 299.5,1 	"/>
	<path class="st0" d="M328.2,28.9c0,0,3.8,3.8,9.1,3.8c3.3,0,6.2-1.9,6.2-5.3c0-7.7-17.3-6.1-17.3-17c0-5.6,4.8-10,11.5-10
		c6.6,0,10.1,3.6,10.1,3.6l-2.3,4.1c0,0-3.3-3.1-7.8-3.1c-3.8,0-6.5,2.4-6.5,5.2c0,7.4,17.3,5.4,17.3,17c0,5.5-4.3,10.1-11.3,10.1
		c-7.6,0-11.8-4.7-11.8-4.7L328.2,28.9L328.2,28.9z"/>
	<path class="st0" d="M368,32c8,0,13.3-4.8,13.3-13.6C381.3,9.7,376,5,368,5h-6.5v27H368L368,32z M356.5,1h11.9
		c11,0,18.3,6.6,18.3,17.9c0,11.4-7.2,18.1-18.3,18.1h-11.9V1L356.5,1z"/>
	<path class="st0" d="M403.9,6c0,0-0.8,3.2-1.4,4.9L398.7,22h10.6l-3.9-11.1C404.8,9.2,404,6,403.9,6L403.9,6L403.9,6z M410.5,27
		h-13.1l-3.4,10h-5.6l13-36h5.3l13,36H414L410.5,27L410.5,27z"/>
	<path class="st0" d="M430.5,21.8L418.5,1h5.2l6.5,11.6c1.1,1.9,2.1,4.4,2.1,4.4h0.1c0,0,1-2.4,2.1-4.4L441,1h6.4l-11.9,20.8V37h-5
		V21.8L430.5,21.8z"/>
</g>
<g>
	<g>
		<defs>
			<rect id="SVGID_3_" x="49.5" y="38" width="348" height="116"/>
		</defs>
		<clipPath id="SVGID_4_">
			<use xlink:href="#SVGID_3_"  style="overflow:visible;"/>
		</clipPath>
		<g class="st2">
			<defs>
				<rect id="SVGID_5_" x="49.5" y="38" width="348" height="116"/>
			</defs>
			<clipPath id="SVGID_6_">
				<use xlink:href="#SVGID_5_"  style="overflow:visible;"/>
			</clipPath>
			<path class="st3" d="M125.9,85.4c-2.6-6.4-8.9-11-16.2-11c-9.7,0-17.5,7.8-17.5,17.5c0,1,0.1,2.1,0.3,3c-0.3-1.4-0.4-2.9-0.4-4.4
				c0-12,9.7-21.7,21.7-21.7c9,0,16.7,5.4,20,13.2c0.2,0.5,0.3,1.1,0.3,1.6c0,2.3-1.9,4.2-4.2,4.2C128,88.1,126.5,87,125.9,85.4"/>
			<path class="st3" d="M104.4,113.8c6.4,2.7,14,1.5,19.2-3.7c6.8-6.8,6.8-17.9,0-24.8c-0.7-0.7-1.5-1.4-2.3-2
				c1.2,0.8,2.3,1.7,3.4,2.8c8.5,8.5,8.5,22.2,0,30.6c-6.3,6.3-15.6,7.9-23.5,4.8c-0.5-0.2-1-0.5-1.4-0.9c-1.6-1.6-1.6-4.3,0-5.9
				C101,113.5,102.8,113.2,104.4,113.8"/>
			<path class="st3" d="M91.3,85.7c-2.7,6.4-1.5,14,3.7,19.2c6.8,6.8,17.9,6.8,24.8,0c0.7-0.7,1.4-1.5,2-2.3
				c-0.8,1.2-1.7,2.3-2.8,3.4c-8.5,8.5-22.2,8.5-30.6,0c-6.3-6.3-7.9-15.6-4.8-23.5c0.2-0.5,0.5-1,0.9-1.4c1.6-1.6,4.3-1.6,5.9,0
				C91.6,82.4,91.9,84.2,91.3,85.7"/>
			<polygon class="st3" points="338.5,116 363,116 365.1,114 338.5,114 			"/>
			<rect x="195.5" y="114" class="st3" width="116" height="2"/>
			<rect x="148.5" y="114" class="st3" width="31" height="2"/>
			<path class="st3" d="M353.5,96c5.5,0,8.6-2.4,8.6-7.1c0-4.6-3.1-6.9-8.6-6.9h-8v14H353.5z M354.9,98.9c-0.7,0-1.4,0.1-2.1,0.1
				h-8.3v9h-3V79h11.4c7.5,0,11.8,3.7,11.8,10.1c0,5-2.4,8.3-6.7,9.7l7,10.2h-3.5L354.9,98.9z"/>
			<polygon class="st3" points="323.5,124.2 311.5,86.3 311.5,117 308.5,117 308.5,79 312.7,79 323.5,114.9 334.4,79 338.5,79 
				338.5,117 335.5,117 335.5,86.2 			"/>
			<polygon class="st3" points="288.5,82 288.5,92 303.5,92 303.5,95 288.5,95 288.5,105 306.5,105 306.5,109 284.5,109 284.5,79 
				305.5,79 305.5,82 288.5,82 			"/>
			<path class="st3" d="M281.5,89v19h-9V91.4c0-3.8-2.3-6.2-6-6.2c-4.4,0.1-7,3.3-7,7.8v15h-9V78h9v5.3c2.2-3.8,5.8-5.6,10.5-5.6
				c6.8,0,11.1,4.5,11.1,11.6"/>
			<path class="st3" d="M240.2,91c-0.1-4-2.7-6.6-6.7-6.6c-3.8,0-6.5,2.6-7.1,6.6H240.2z M248.5,96h-22c1,3.8,3.9,6.1,7.9,6.1
				c2.9,0,5.6-1.1,7.7-3.2l4.6,4.6c-3.1,3.4-7.5,5.4-13,5.4c-9.7,0-15.9-6.2-15.9-15.4c0-9.4,6.4-15.6,15.6-15.6
				c10.7,0,15.6,7.1,14.9,18.1"/>
			<path class="st3" d="M207,93.1c0-4.9-3.1-8.4-7.5-8.4c-4.5,0-7.6,3.5-7.6,8.4c0,5,3.1,8.4,7.6,8.4C204,101.5,207,98.1,207,93.1
				 M216.2,93.2c0,9.1-5.8,15.2-14.6,15.2c-4.4,0-7.8-1.7-10.1-4.7V119h-9V78h9v4.4c2.2-3,5.7-4.7,9.9-4.7
				C210.2,77.7,216.2,83.9,216.2,93.2"/>
			<path class="st3" d="M157.2,93.4c0,5,3.1,8.4,7.6,8.4c4.5,0,7.6-3.4,7.6-8.4c0-5-3.1-8.4-7.6-8.4C160.2,85,157.2,88.4,157.2,93.4
				 M181,93.2c0,9.3-6.6,15.5-16.3,15.5c-9.8,0-16.3-6.3-16.3-15.5c0-9.3,6.6-15.5,16.3-15.5C174.5,77.7,181,83.9,181,93.2"/>
		</g>
	</g>
</g>
</svg>
