<?xml version="1.0" encoding="utf-8"?>
<!-- Generator: Adobe Illustrator 22.0.1, SVG Export Plug-In . SVG Version: 6.00 Build 0)  -->
<svg version="1.1" id="Layer_1" xmlns="http://www.w3.org/2000/svg" xmlns:xlink="http://www.w3.org/1999/xlink" x="0px" y="0px"
	 viewBox="0 0 792 566.6" style="enable-background:new 0 0 792 566.6;" xml:space="preserve">
<style type="text/css">
	.st0{fill:#FFFFFF;}
</style>
<g>
	<g>
		<path class="st0" d="M255.6,273.4c-0.1,0.5-0.1,1-0.1,1.5c0,2.5,0.9,4.7,2.4,6.4l20.1,20.1l2.8-2.8L255.6,273.4z"/>
		<path class="st0" d="M272.2,267.5c-1.8-1.7-4.2-2.7-6.9-2.7c-0.4,0-0.9,0-1.3,0.1l25.4,25.4l2.8-2.8L272.2,267.5z"/>
		<path class="st0" d="M292.9,264.6c-2.6,0-4.9,1-6.6,2.6L265,288.5l2.8,2.8l26.6-26.6C293.9,264.6,293.4,264.6,292.9,264.6z"/>
		<path class="st0" d="M298.5,266.2L271,293.8l2.8,2.8l27.5-27.5C300.6,267.9,299.6,267,298.5,266.2z"/>
		<path class="st0" d="M303,274.4c0-0.5,0-0.9-0.1-1.3l-26.6,26.6l2.8,2.8l21.4-21.4C302.1,279.3,303,277,303,274.4z"/>
		<path class="st0" d="M259.9,266.5c-0.6,0.4-1.1,0.8-1.6,1.3l-0.1,0.1c-0.4,0.4-0.8,0.9-1.1,1.4l27.6,27.6l2.8-2.8L259.9,266.5z"/>
		
			<rect x="282.9" y="278.6" transform="matrix(0.7075 -0.7067 0.7067 0.7075 -116.6855 284.067)" class="st0" width="4" height="8.7"/>
		
			<rect x="271.7" y="289.9" transform="matrix(0.7072 -0.707 0.707 0.7072 -127.9584 279.6595)" class="st0" width="4" height="8.9"/>
		
			<rect x="274.5" y="286.5" transform="matrix(0.7076 -0.7066 0.7066 0.7076 -122.2544 281.5293)" class="st0" width="9.1" height="4"/>
	</g>
	<g>
		<g>
			<path class="st0" d="M177.9,293.6h-5.3l0.5-3h5.3l1.2-6.8h-5.3l0.5-3h5.3l1.4-8.1h3.3l-1.4,8.1h6.3l1.4-8.1h3.3l-1.4,8.1h5.3
				l-0.5,3h-5.3l-1.2,6.8h5.3l-0.5,3h-5.3l-1.4,7.8h-3.3l1.3-7.8h-6.3l-1.3,7.8h-3.3L177.9,293.6z M188,290.6l1.2-6.8h-6.3l-1.2,6.8
				H188z"/>
			<path class="st0" d="M220.7,265.1c8.5,0,13,4.3,13,4.3l-2.5,3.7c0,0-4-3.5-10.1-3.5c-8.4,0-13.5,6.1-13.5,13.8
				c0,8.3,5.7,14,13.2,14c6.2,0,10.1-4.5,10.1-4.5v-5.2h-5.8v-4.4h10.4v18h-4.4v-2.2c0-0.8,0.1-1.5,0.1-1.5H231c0,0-3.9,4.4-11,4.4
				c-9.6,0-17.6-7.6-17.6-18.5C202.5,273.2,210.3,265.1,220.7,265.1z"/>
			<path class="st0" d="M243.3,265.7h5v35.7h-5V265.7z"/>
			<path class="st0" d="M310,265.7h5v35.7h-5V265.7z"/>
			<path class="st0" d="M324.8,265.7h5l15.9,23.2c1.3,1.9,3,5.2,3,5.2h0.1c0,0-0.4-3.2-0.4-5.2v-23.2h5v35.7h-4.9l-15.9-23.2
				c-1.3-2-3-5.2-3-5.2h-0.1c0,0,0.4,3.2,0.4,5.2v23.2h-5V265.7z"/>
			<path class="st0" d="M378.9,265.1c8.5,0,13,4.3,13,4.3l-2.5,3.7c0,0-4-3.5-10.1-3.5c-8.4,0-13.5,6.1-13.5,13.8
				c0,8.3,5.7,14,13.2,14c6.2,0,10.1-4.5,10.1-4.5v-5.2h-5.8v-4.4h10.4v18h-4.4v-2.2c0-0.8,0.1-1.5,0.1-1.5h-0.1c0,0-3.9,4.4-11,4.4
				c-9.6,0-17.6-7.6-17.6-18.5C360.7,273.2,368.5,265.1,378.9,265.1z"/>
		</g>
		<g>
			<path class="st0" d="M412.5,270h-12.2v-4.3h29.5v4.3h-12.2v31.4h-5V270z"/>
			<path class="st0" d="M434.4,265.7h5v23.1c0,5.5,3.5,8.6,9,8.6c5.5,0,9.1-3.2,9.1-8.8v-23h5v23.1c0,7.9-5.7,13.3-14.1,13.3
				c-8.3,0-14.1-5.3-14.1-13.3V265.7z"/>
			<path class="st0" d="M471.7,265.7h20.7v4.3h-15.7v11.2h12.8v4.3h-12.8V297h16.6v4.3h-21.6V265.7z"/>
			<path class="st0" d="M500.8,293.5c0,0,3.8,3.8,9.1,3.8c3.3,0,6.2-1.9,6.2-5.3c0-7.7-17.3-6.1-17.3-17c0-5.6,4.8-10,11.5-10
				c6.6,0,10.1,3.6,10.1,3.6l-2.3,4.1c0,0-3.3-3.1-7.8-3.1c-3.8,0-6.5,2.4-6.5,5.2c0,7.4,17.3,5.4,17.3,17c0,5.5-4.3,10.1-11.3,10.1
				c-7.6,0-11.8-4.7-11.8-4.7L500.8,293.5z"/>
			<path class="st0" d="M528.3,265.7h11.8c10.9,0,18.1,6.5,18.1,17.8c0,11.3-7.2,17.9-18.1,17.9h-11.8V265.7z M539.8,297
				c8,0,13.3-4.8,13.3-13.6c0-8.8-5.3-13.5-13.3-13.5h-6.5v27H539.8z"/>
			<path class="st0" d="M583.3,291.1h-13.5l-3.5,10.3h-5.2l12.8-35.7h5.3l12.8,35.7h-5.2L583.3,291.1z M576.5,270.6
				c0,0-0.8,3.2-1.4,5.1l-4,11.3h10.8l-3.9-11.3c-0.6-1.8-1.4-5.1-1.4-5.1H576.5z"/>
			<path class="st0" d="M602.5,286.3l-12-20.6h5.7l6.6,11.7c1.1,2,2.2,4.5,2.2,4.5h0.1c0,0,1.1-2.5,2.2-4.5l6.5-11.7h5.7l-11.9,20.6
				v15.1h-5V286.3z"/>
		</g>
	</g>
</g>
</svg>
