<?xml version="1.0" encoding="UTF-8" standalone="no"?>
<!-- Generator: Adobe Illustrator 19.0.0, SVG Export Plug-In . SVG Version: 6.00 Build 0)  -->

<svg
   xmlns:dc="http://purl.org/dc/elements/1.1/"
   xmlns:cc="http://creativecommons.org/ns#"
   xmlns:rdf="http://www.w3.org/1999/02/22-rdf-syntax-ns#"
   xmlns:svg="http://www.w3.org/2000/svg"
   xmlns="http://www.w3.org/2000/svg"
   xmlns:sodipodi="http://sodipodi.sourceforge.net/DTD/sodipodi-0.dtd"
   xmlns:inkscape="http://www.inkscape.org/namespaces/inkscape"
   version="1.1"
   id="Layer_1"
   x="0px"
   y="0px"
   viewBox="0 0 512 512"
   style="enable-background:new 0 0 512 512;"
   xml:space="preserve"
   sodipodi:docname="invoice.svg"
   inkscape:version="0.92.1 r15371"><metadata
     id="metadata6387"><rdf:RDF><cc:Work
         rdf:about=""><dc:format>image/svg+xml</dc:format><dc:type
           rdf:resource="http://purl.org/dc/dcmitype/StillImage" /></cc:Work></rdf:RDF></metadata><defs
     id="defs6385" /><sodipodi:namedview
     pagecolor="#ffffff"
     bordercolor="#666666"
     borderopacity="1"
     objecttolerance="10"
     gridtolerance="10"
     guidetolerance="10"
     inkscape:pageopacity="0"
     inkscape:pageshadow="2"
     inkscape:window-width="1920"
     inkscape:window-height="1017"
     id="namedview6383"
     showgrid="false"
     inkscape:zoom="0.4609375"
     inkscape:cx="-96.542373"
     inkscape:cy="256"
     inkscape:window-x="-8"
     inkscape:window-y="-8"
     inkscape:window-maximized="1"
     inkscape:current-layer="Layer_1" /><g
     id="g6350"
     style="fill:#a50f00;fill-opacity:1"><g
       id="g6348"
       style="fill:#a50f00;fill-opacity:1"><g
         id="g6346"
         style="fill:#a50f00;fill-opacity:1"><path
           d="M444.875,109.792L338.208,3.125c-2-2-4.708-3.125-7.542-3.125h-224C83.146,0,64,19.135,64,42.667v426.667     C64,492.865,83.146,512,106.667,512h298.667C428.854,512,448,492.865,448,469.333v-352     C448,114.5,446.875,111.792,444.875,109.792z M341.333,36.417l70.25,70.25h-48.917c-11.771,0-21.333-9.573-21.333-21.333V36.417z      M426.667,469.333c0,11.76-9.563,21.333-21.333,21.333H106.667c-11.771,0-21.333-9.573-21.333-21.333V42.667     c0-11.76,9.563-21.333,21.333-21.333H320v64C320,108.865,339.146,128,362.667,128h64V469.333z"
           id="path6332"
           style="fill:#a50f00;fill-opacity:1" /><path
           d="M373.333,298.667H138.667c-5.896,0-10.667,4.771-10.667,10.667c0,5.896,4.771,10.667,10.667,10.667h234.667     c5.896,0,10.667-4.771,10.667-10.667C384,303.438,379.229,298.667,373.333,298.667z"
           id="path6334"
           style="fill:#a50f00;fill-opacity:1" /><path
           d="M373.333,234.667H138.667c-5.896,0-10.667,4.771-10.667,10.667c0,5.896,4.771,10.667,10.667,10.667h234.667     c5.896,0,10.667-4.771,10.667-10.667C384,239.438,379.229,234.667,373.333,234.667z"
           id="path6336"
           style="fill:#a50f00;fill-opacity:1" /><path
           d="M373.333,362.667H138.667c-5.896,0-10.667,4.771-10.667,10.667c0,5.896,4.771,10.667,10.667,10.667h234.667     c5.896,0,10.667-4.771,10.667-10.667C384,367.438,379.229,362.667,373.333,362.667z"
           id="path6338"
           style="fill:#a50f00;fill-opacity:1" /><path
           d="M266.667,426.667h-128c-5.896,0-10.667,4.771-10.667,10.667c0,5.896,4.771,10.667,10.667,10.667h128     c5.896,0,10.667-4.771,10.667-10.667C277.333,431.438,272.563,426.667,266.667,426.667z"
           id="path6340"
           style="fill:#a50f00;fill-opacity:1" /><path
           d="M234.667,181.333c0,5.896,4.771,10.667,10.667,10.667h128c5.896,0,10.667-4.771,10.667-10.667     c0-5.896-4.771-10.667-10.667-10.667h-128C239.438,170.667,234.667,175.438,234.667,181.333z"
           id="path6342"
           style="fill:#a50f00;fill-opacity:1" /><path
           d="M160,170.667h-21.333c-5.896,0-10.667,4.771-10.667,10.667c0,5.896,4.771,10.667,10.667,10.667h10.667     c0,5.896,4.771,10.667,10.667,10.667s10.667-4.771,10.667-10.667v-1.965C183.056,185.617,192,173.888,192,160     c0-17.646-14.354-32-32-32c-5.875,0-10.667-4.781-10.667-10.667c0-5.885,4.792-10.667,10.667-10.667h21.333     c5.896,0,10.667-4.771,10.667-10.667s-4.771-10.667-10.667-10.667h-10.667c0-5.896-4.771-10.667-10.667-10.667     s-10.667,4.771-10.667,10.667v1.965C136.944,91.716,128,103.445,128,117.333c0,17.646,14.354,32,32,32     c5.875,0,10.667,4.781,10.667,10.667S165.875,170.667,160,170.667z"
           id="path6344"
           style="fill:#a50f00;fill-opacity:1" /></g></g></g><g
     id="g6352" /><g
     id="g6354" /><g
     id="g6356" /><g
     id="g6358" /><g
     id="g6360" /><g
     id="g6362" /><g
     id="g6364" /><g
     id="g6366" /><g
     id="g6368" /><g
     id="g6370" /><g
     id="g6372" /><g
     id="g6374" /><g
     id="g6376" /><g
     id="g6378" /><g
     id="g6380" /></svg>