<?xml version="1.0" encoding="UTF-8" standalone="no"?>
<!-- Generator: Adobe Illustrator 19.1.0, SVG Export Plug-In . SVG Version: 6.00 Build 0)  -->

<svg
   xmlns:dc="http://purl.org/dc/elements/1.1/"
   xmlns:cc="http://creativecommons.org/ns#"
   xmlns:rdf="http://www.w3.org/1999/02/22-rdf-syntax-ns#"
   xmlns:svg="http://www.w3.org/2000/svg"
   xmlns="http://www.w3.org/2000/svg"
   xmlns:sodipodi="http://sodipodi.sourceforge.net/DTD/sodipodi-0.dtd"
   xmlns:inkscape="http://www.inkscape.org/namespaces/inkscape"
   version="1.1"
   id="Capa_1"
   x="0px"
   y="0px"
   viewBox="0 0 482.8 482.8"
   style="enable-background:new 0 0 482.8 482.8;"
   xml:space="preserve"
   sodipodi:docname="padlock.svg"
   inkscape:version="0.92.1 r15371"><metadata
     id="metadata8789"><rdf:RDF><cc:Work
         rdf:about=""><dc:format>image/svg+xml</dc:format><dc:type
           rdf:resource="http://purl.org/dc/dcmitype/StillImage" /></cc:Work></rdf:RDF></metadata><defs
     id="defs8787" /><sodipodi:namedview
     pagecolor="#ffffff"
     bordercolor="#666666"
     borderopacity="1"
     objecttolerance="10"
     gridtolerance="10"
     guidetolerance="10"
     inkscape:pageopacity="0"
     inkscape:pageshadow="2"
     inkscape:window-width="1920"
     inkscape:window-height="1017"
     id="namedview8785"
     showgrid="false"
     inkscape:zoom="0.48881526"
     inkscape:cx="-91.036438"
     inkscape:cy="241.39999"
     inkscape:window-x="-8"
     inkscape:window-y="-8"
     inkscape:window-maximized="1"
     inkscape:current-layer="Capa_1" /><g
     id="g8752"
     style="fill:#a50f00;fill-opacity:1"><g
       id="g8750"
       style="fill:#a50f00;fill-opacity:1"><path
         d="M395.95,210.4h-7.1v-62.9c0-81.3-66.1-147.5-147.5-147.5c-81.3,0-147.5,66.1-147.5,147.5c0,7.5,6,13.5,13.5,13.5    s13.5-6,13.5-13.5c0-66.4,54-120.5,120.5-120.5c66.4,0,120.5,54,120.5,120.5v62.9h-275c-14.4,0-26.1,11.7-26.1,26.1v168.1    c0,43.1,35.1,78.2,78.2,78.2h204.9c43.1,0,78.2-35.1,78.2-78.2V236.5C422.05,222.1,410.35,210.4,395.95,210.4z M395.05,404.6    c0,28.2-22.9,51.2-51.2,51.2h-204.8c-28.2,0-51.2-22.9-51.2-51.2V237.4h307.2L395.05,404.6L395.05,404.6z"
         id="path8746"
         style="fill:#a50f00;fill-opacity:1" /><path
         d="M241.45,399.1c27.9,0,50.5-22.7,50.5-50.5c0-27.9-22.7-50.5-50.5-50.5c-27.9,0-50.5,22.7-50.5,50.5    S213.55,399.1,241.45,399.1z M241.45,325c13,0,23.5,10.6,23.5,23.5s-10.5,23.6-23.5,23.6s-23.5-10.6-23.5-23.5    S228.45,325,241.45,325z"
         id="path8748"
         style="fill:#a50f00;fill-opacity:1" /></g></g><g
     id="g8754" /><g
     id="g8756" /><g
     id="g8758" /><g
     id="g8760" /><g
     id="g8762" /><g
     id="g8764" /><g
     id="g8766" /><g
     id="g8768" /><g
     id="g8770" /><g
     id="g8772" /><g
     id="g8774" /><g
     id="g8776" /><g
     id="g8778" /><g
     id="g8780" /><g
     id="g8782" /></svg>