<svg version="1" xmlns="http://www.w3.org/2000/svg" width="666.667" height="666.667" viewBox="0 0 500.000000 500.000000"><path d="M287 4.3c-.3.3-3.5.7-7.1 1.1-31.7 2.9-67.8 17.7-95.9 39.2-42.2 32.3-69.7 81.1-75.7 134.4-1.1 9.2-.8 42.9.3 44 .5.5.8-3.5.7-10.6-1.2-71.1 49.1-135.7 119.4-153.5 14.7-3.7 20.7-4.4 38.8-4.4 18 0 24.1.7 38.8 4.4 28.1 7.1 52.6 21.1 73.2 41.7 13.3 13.3 21.8 25.6 31.4 45 10.2 20.6 15.8 26.3 29.1 29.8 23.8 6.2 46.8-10.9 47.6-35.4.2-7.7-1.4-13.6-7.1-25.5-11.7-24.2-31.3-49.1-52.4-66.3-26.2-21.5-60.5-36.9-93.1-41.8-1.9-.3-4.6-.8-6-1.1-3.1-.6-41.4-1.5-42-1z"/><path d="M57 104.4c-10.6 3-19.7 10.2-24.1 18.7-4.9 9.7-9.8 26.1-13.5 45.9-2.7 14-2.6 50.7.1 65.1 3.4 17.6 5.9 26.3 11.4 40.2 19.4 48.6 59.2 88.6 107.7 108.5 11 4.5 27.7 9.5 36.9 11.1 3.3.6 7.4 1.3 9 1.6 9.5 1.7 31.5 2.3 45.5 1.3 28.4-2.1 61.7-13 86-28.1 17.9-11.2 42.7-33.3 52-46.3 2.6-3.7.9-2.3-7 5.6-11.6 11.8-14.3 14-24.6 21-21.9 14.9-47.6 24.2-73.4 26.7-9.2.9-25.7 1-31 .2-19.8-3-31.5-5.8-43.2-10.6-43.9-17.8-76.9-52.8-91.7-97-2.2-6.5-4.4-14.5-5-17.8-.6-3.3-1.3-6.9-1.5-8-1.8-9.4-2.3-28.3-1.2-40.5 1.1-11.5 4.4-25.2 9.2-39 5.2-14.7 5.5-15.9 5.5-22.6-.2-14.8-10.2-29.3-23.9-34.4-6.9-2.6-17.4-3.3-23.2-1.6zM376 136.4c0 .2.8 1 1.8 1.7 1.5 1.3 1.6 1.2.3-.4s-2.1-2.1-2.1-1.3z"/><path d="M389.7 148.3c33 31.7 50.2 70.9 50.6 115.5.4 55-28.8 106.7-76.8 136.2-12.2 7.5-34.7 16.7-45.5 18.6-1.4.3-3.2.7-4 .9-.8.3-3.3.7-5.5 1-2.2.4-5.1.9-6.5 1.1-5.9 1.2-32.1 1.1-41-.2-12-1.7-26.6-5.4-36.1-9.2-10.6-4.2-17-5.5-23.4-4.7-20.7 2.4-34.7 18.4-34.2 39.1.2 6.7.7 9 3.5 14.6 5.9 12 13.6 17.7 32.2 23.6 14.5 4.6 24.2 6.7 40 8.8 7.3 1 32.7 1.1 41.5.2 23.7-2.5 44.5-8.4 66-18.8 10.1-4.9 25.7-14 27.5-16 .3-.3 3.2-2.5 6.5-5 10-7.3 23.9-20.8 32.7-31.7 5.1-6.3 16.8-22.8 16.8-23.8 0-.2 1.3-2.6 2.9-5.3 5.6-9.5 15.6-34.1 17.6-43.1 5.8-26.4 6.4-31.1 6.6-50.6 0-16.1-.7-24.5-3.1-37-.6-2.8-1.2-6-1.5-7.3-4.5-23.6-18.5-53.9-35.3-76.2-8.8-11.6-29.8-32.2-40.2-39.4-.8-.6 3.1 3.4 8.7 8.7zM108.6 225.8c-.2.4-.1 1.4.4 2.2.7 1.1.9.9.7-.8-.1-2.4-.3-2.6-1.1-1.4z"/><path d="M374.9 311.7c-1.3 1.6-1.2 1.7.4.4 1.6-1.3 2.1-2.1 1.3-2.1-.2 0-1 .8-1.7 1.7zM371.9 315.7c-1.3 1.6-1.2 1.7.4.4 1.6-1.3 2.1-2.1 1.3-2.1-.2 0-1 .8-1.7 1.7z"/></svg>