<?xml version="1.0" encoding="UTF-8"?>
<svg version="1.0" viewBox="0 0 510 510" xmlns="http://www.w3.org/2000/svg">
 <g transform="translate(.0096851 310)">
  <g transform="translate(.99514 -10.887)">
   <g fill-rule="evenodd">
    <path d="m382.83 85.901c5.4403 2.573 9.0332 8.898 7.8318 14.894-0.39669 3.6839-2.8902 7.0277-6.381 8.2972-8.5005 4.5227-18.032 6.3476-27.19 9.0453-3.3095 0.94081-6.8117 1.1222-10.212 0.51008-6.109-0.6461-12.207-1.3942-18.316-2.0516-3.7629-0.72544-7.8998-2.4257-9.4526-6.2342-1.0994-2.4937-0.24935-5.6788 1.9834-7.2771 3.1962-3.1171 7.7525-3.9672 11.719-5.7242 5.6103-2.2217 11.334-4.1146 17.092-5.9055 3.8536-1.4055 7.5484-3.2191 11.039-5.3501 4.3976-2.165 9.4526-2.097 14.236-1.8929 2.6068 0.21536 5.225 0.6461 7.6504 1.6889z" stroke="#fff" stroke-linejoin="round" stroke-width="4.0899"/>
    <path d="m450.37 81.526c2.3801 1.1562 4.7036 2.5504 6.3584 4.67 1.9608 2.4597 3.3775 5.7695 2.3915 8.932-1.3147 3.0831-4.1936 5.7015-7.6391 5.9735-3.2189 0.62342-6.5964 0.85012-9.5546 2.403-2.7995 1.2468-5.2363 3.1285-7.9451 4.534-6.279 4.1146-13.317 6.801-20.265 9.5214-8.3985 3.3552-16.842 6.6083-25.513 9.204-8.4212 2.607-16.763 5.6222-25.49 7.0164-6.1997 0.6461-13.023-1.0202-17.409-5.6562-1.7341-2.7884-0.26069-6.4383 2.1648-8.2972 3.3209-2.7317 7.7184-3.3778 11.674-4.7494 11.425-3.5478 22.929-6.9257 34.07-11.301 5.9277-3.1965 11.595-6.869 17.216-10.587 4.8396-3.6839 9.3392-8.1159 15.154-10.247 5.0323-2.0856 10.291-4.806 15.902-3.9106 3.0715 0.34005 6.0297 1.3715 8.8859 2.4937z" stroke="#fff" stroke-linejoin="round" stroke-width="4.0899"/>
    <path d="m485.61 94.085c-4.9756 0.95214-8.8405 4.5567-12.218 8.1045-9.0332 9.3174-16.287 20.131-24.617 30.038-4.6583 5.8035-11.289 9.4647-16.752 14.384-1.7568 1.5302-3.1168 3.9559-2.4141 6.3249 0.58937 2.1083 2.8902 3.4798 5.0323 3.0718 2.1875-0.36272 4.1709-1.4509 6.3244-1.995 4.2729-1.4736 8.5118-3.2532 12.207-5.9055 5.8937-3.3325 12.513-4.9761 18.69-7.6851 3.0828-1.2242 6.0864-2.6297 9.0559-4.1146 5.4176-2.539 11.141-4.6927 15.856-8.4672 3.6269-2.9018 7.0271-6.4836 8.2965-11.074 1.6434-5.1801 1.0541-11.301-2.4141-15.62-2.6635-3.1285-6.4604-5.0894-10.325-6.2909-2.1875-0.62342-4.4429-0.95214-6.7211-0.77078z" stroke="#fff" stroke-linejoin="round" stroke-width="4.0899"/>
    <path d="m477.96 85.04c3.6836 1.3035 7.6618 3.6159 8.7272 7.6738-0.58937 5.8829-2.3121 11.584-4.7376 16.957-1.7454 4.0693-3.9782 7.9005-6.177 11.732-4.919 8.2519-11.255 15.586-18.429 21.945-5.2136 4.6587-10.881 8.8073-16.899 12.378-10.824 6.733-22.079 12.729-33.277 18.805-7.4124 3.8652-15.074 7.3564-23.201 9.4647-7.4011 2.0403-15.142 2.3237-22.77 2.7431-19.166 0.8728-38.309 2.2897-57.441 3.6839-15.38 1.1448-30.59 3.8652-45.846 6.0189-6.1884 0.75944-12.422 2.1083-18.667 1.2015-5.2703-0.63476-10.065-3.1058-14.961-4.9987-6.483-2.6864-12.898-5.6675-19.766-7.2431-18.236-4.738-36.586-9.068-54.698-14.259-16.672-4.6474-33.277-9.5894-50.051-13.829-5.4743-1.3715-11.039-2.3124-16.638-2.9924-13.317-1.9723-26.794-2.5844-40.122-4.4547-3.1849-0.64609-6.483-2.063-8.2512-4.9421-1.7001-2.4144-2.5842-5.3388-3.3322-8.1839-1.0994-5.1574-1.5868-10.904 1.0654-15.699 2.2895-3.8879 7.1064-5.6448 11.459-5.1574 9.2372 0.51007 18.588 2.029 27.78 0.23803 10.325-1.6096 20.503-4.0126 30.704-6.2116 7.3331-1.8589 14.802-3.1398 22.351-3.6385 6.483-0.4534 13-1.3035 19.494-0.66877 5.089 0.65743 9.6566 3.1171 14.202 5.3388 4.5789 1.6322 9.4866 1.4736 14.258 1.961 4.3183 0.71411 8.4892 2.1083 12.694 3.2985 3.2982 0.99748 6.6304 2.029 10.065 2.369 3.2302 0.54408 6.5397 0.39673 9.7699 0.91814 2.8335 0.18136 5.5877 1.0542 8.1492 2.2217 7.2538 2.573 14.938 3.6272 22.124 6.3816 5.803 2.131 11.663 4.0919 17.658 5.5882 3.4569 0.9068 6.7437 2.335 10.133 3.4458 8.8632 2.267 17.726 4.5793 26.612 6.7897 9.6339 2.2897 19.268 4.568 28.856 7.0277 6.8571 1.8136 13.487 4.3526 20.231 6.5403 4.851 1.4736 9.8946 3.0378 15.018 2.5617 2.5162-0.35139 5.4403-1.5982 6.041-4.3413 1.7341-5.9395-1.4621-12.038-0.13601-18.034 0.0567-1.9723 1.4508-3.2985 3.1509-4.0466 3.4229-1.4509 7.1744-1.8589 10.631-3.1965 13.51-4.2733 26.907-8.8753 40.213-13.749 6.449-2.5617 12.309-6.3929 17.681-10.757 9.3506-7.0617 18.497-14.509 28.822-20.131 4.5449-2.131 9.8606-3.2418 14.768-1.6889 0.92939 0.24937 1.8248 0.63476 2.7428 0.9408z" stroke="#fff" stroke-linejoin="round" stroke-width="4.0899"/>
    <path d="m136.82 11.039c14.406 6.4043 29.106 12.276 42.843 20.074 7.6958 4.602 15.108 9.6574 22.237 15.098 5.055 3.4798 9.0559 8.3086 14.315 11.516 4.6243 2.7431 10.178 3.2531 14.836 5.9395 5.0776 2.4824 10.246 4.9761 15.845 6.0416 4.1709 0.8728 8.3305 1.927 12.218 3.7406 4.9643 2.0856 9.8606 4.3753 15.052 5.8602 6.8344 2.2557 13.657 4.568 20.56 6.6196 10.824 3.7179 20.277 10.349 30.262 15.756 10.654 6.4836 21.353 13.33 29.706 22.704 3.8196 4.5 7.0044 9.7481 8.0925 15.608 0.87272 4.3073 0.62337 8.83-0.54403 13.047-1.4621 4.568-3.6836 9.4421-8.0925 11.834-2.4368 1.2922-5.4743 1.4055-8.0018 0.28338-9.2712-2.8338-18.123-6.8804-27.247-10.145-7.0838-2.7884-14.406-4.9987-21.829-6.6763-16.774-3.5365-33.311-8.0819-49.938-12.287-18.769-4.806-37.527-9.6461-56.443-13.851-18.814-4.0239-37.561-8.4786-56.568-11.482-8.3078-1.0088-16.74-0.9408-25.014 0.30605-7.1744 0.97481-14.315 2.4484-21.229 4.6587-4.4089 1.5869-9.2259 2.7544-12.773 5.9849-3.1849 3.1171-4.4429 7.5378-6.1884 11.505-2.1648 4.9874-3.9782 10.474-8.1038 14.225-2.8335 2.539-6.7551 2.9698-10.393 3.2305-7.7411 0.72544-15.528 0.27204-23.269-0.068-3.7856-0.57809-5.9504-4.4433-6.3697-7.9572-0.88405-8.2065-1.4168-16.458-2.1421-24.688-1.1674-13.432-1.9608-26.932-4.1936-40.251-1.4281-8.4446-3.7969-16.685-6.4604-24.812-2.0515-6.4723-4.1142-12.956-5.8597-19.519-0.46469-2.2557 1.1447-4.4206 3.2189-5.1801 4.7489-2.1763 9.8606-3.3778 14.78-5.0894 21.387-6.7783 42.639-14.01 64.377-19.564 7.9111-1.8816 16.242-1.9723 24.175-0.13602 8.9992 1.5982 17.681 4.5567 26.465 7.0617 0.55537 0.20403 1.1221 0.40806 1.6774 0.61209z" stroke="#ffe6ff" stroke-linejoin="round" stroke-width="4.0899"/>
    <path d="m335.47 123.18c3.6609 2.0063 7.3104 4.3186 9.9399 7.6284 1.9494 2.5504 3.5816 5.3841 4.7376 8.3992 0.97473 2.5277 1.1221 5.2821 0.65738 7.9458-0.57804 4.0919-2.1195 7.9685-3.4569 11.856-0.66871 1.8363-1.8134 4.0579-4.0122 4.228-2.3688 0.32872-4.6583-0.61209-6.9024-1.2468-4.5789-1.5982-8.8858-3.8766-13.555-5.2141-3.7742-1.2015-7.3671-2.9244-10.824-4.84-1.6321-0.87279-3.7402-2.0516-3.4002-4.228-0.0453-1.9836 0.82738-3.8426 1.1107-5.7922 0.80472-4.8287 1.9041-9.6348 3.9782-14.089 0.97472-2.4144 2.6408-4.534 4.5789-6.2569 3.4229-2.2783 7.8885-2.1763 11.674-0.97481 1.9608 0.53274 3.6496 1.7229 5.4743 2.5844z" fill="#fff1ce"/>
    <path d="m14.034 29.867c3.0375 1.3149 4.4089 3.2758 4.8396 4.7947 0.86138 1.9383 1.7794 3.8879 2.0175 5.7128 0.82738 2.8451 0.88405 5.5428 1.4621 8.3312 0.96339 3.8312 2.2101 7.7078 3.8082 11.652 0.86138 2.2443 2.4368 4.5907 3.5702 6.869 1.4508 1.7116 2.4935 3.5479 5.3043 5.1234 2.8108 1.4055 5.9957 1.7456 8.5572 1.7116 4.2843 0.13602 8.4325 0.09068 12.286-0.23804 3.1849-0.20403 6.4604-0.31738 9.7926-0.37406 5.9844-0.2607 11.787-0.7141 17.772-0.98614 3.7516 0.04534 7.0611-0.4194 11.13 0.01134 3.4342 0.18136 7.0384 0.56675 10.62 1.0088 3.3095 0.53274 6.5737 0.91814 9.8946 1.5416 4.0349 1.0202 8.0245 1.6209 12.071 2.7204 4.1936 1.0088 8.6818 2.097 12.399 4.1146 6.007 2.9244 12.275 5.7128 17.624 9.0227 2.5615 1.5076 5.327 3.1965 6.0297 4.9307 1.6548 2.7317 1.0994 5.0667 1.5301 7.5604 0.35136 1.7796 2.8448 3.7972 5.7577 5.4295 3.0942 1.8249 6.0977 3.7179 8.4892 5.7355 1.9154 1.4169 3.4909 2.8791 4.5109 4.3413 1.4621 1.9723 2.2328 3.8652 2.6975 5.7015 0.83872 1.9723 1.6321 3.9446 1.6888 5.7695 0.26068 2.1423 0.47603 4.2846 0.44203 6.3476-0.36269 1.4396-1.4054 2.6184-2.8108 3.6272-3.0375 2.8338-5.735 5.8262-8.7045 8.6826-1.7908 1.7343-5.7803 2.2443-8.6365 3.3778-4.5676 1.0315-9.4526 1.8363-14.394 2.5957-3.2302 0.2267-6.4604 0.49874-10.223 0.13602-3.9102-0.28337-7.9111-0.6801-11.969-1.2015-3.9102-0.62343-7.7638-0.97481-11.799-2.0856-7.3444-1.7116-14.7-3.7746-22.056-5.5542-3.8422-0.9068-7.7185-2.0516-11.527-2.7771-4.2276-0.47607-7.9111 0.034-9.8719 1.4169-2.4481 1.0428-4.6356 2.2217-7.2651 3.1511-2.1195 0.78212-4.6696 1.2922-7.4464 1.5756-3.1735-0.0567-6.3244-0.068-9.7699-0.49874-2.5048-0.12468-4.8736-1.5302-6.8797-2.675-2.0741-1.5302-5.667-2.3124-7.1631-1.4509-1.4054 0.72544-2.4255 1.6776-3.2075 2.6977-2.3121 1.2128-6.0184 1.5189-9.7586 1.6322-3.1849-0.39673-5.939-2.6637-6.075-4.1146-1.4508-3.2985-2.7768-6.597-3.6155-9.8048-0.19268-2.165-0.90672-4.4433-0.90672-6.563-0.22668-4.2053-0.95206-8.5352-1.2014-12.741-0.62337-6.3023-1.0427-12.548-1.8021-18.884-0.5327-3.5025-1.3147-7.073-1.7114-10.553-0.87272-6.4723-2.2215-13.058-3.1849-19.553-1.2127-6.2002-1.8361-12.276-2.7088-18.408-0.79338-3.4572-1.1561-6.8237-2.3235-10.36-0.47603-1.8023-1.0314-3.6159-1.2807-5.3615 0.35135-1.2128 1.8248-1.9496 3.3095-2.6524 2.1988-0.4874 3.7289-1.6209 6.8231-1.3262 1.0541-0.02267 2.7428 0.34005 3.8649 0.83879z"/>
   </g>
   <path d="m368.9-288.21c48.937 1.0201 91.507 31.728 106.93 83.72 26.056 135.12-124.19 191.97-206.95 272.72-71.839-93.451-212.49-117.6-205.46-255.82 6.1076-30.823 23.331-55.916 46.425-73.564 30.945-23.677 74.05-31.815 110.88-17.666 19.705 6.9556 37.652 19.04 51.065 35.059 23.307-28.729 60.15-45.247 97.096-44.44z"/>
  </g>
 </g>
</svg>
