<?xml version="1.0" encoding="UTF-8" standalone="no"?>
<!-- Generator: Adobe Illustrator 19.0.0, SVG Export Plug-In . SVG Version: 6.00 Build 0)  -->

<svg
   xmlns:dc="http://purl.org/dc/elements/1.1/"
   xmlns:cc="http://creativecommons.org/ns#"
   xmlns:rdf="http://www.w3.org/1999/02/22-rdf-syntax-ns#"
   xmlns:svg="http://www.w3.org/2000/svg"
   xmlns="http://www.w3.org/2000/svg"
   xmlns:sodipodi="http://sodipodi.sourceforge.net/DTD/sodipodi-0.dtd"
   xmlns:inkscape="http://www.inkscape.org/namespaces/inkscape"
   version="1.1"
   id="Layer_1"
   x="0px"
   y="0px"
   viewBox="0 0 512 512"
   style="enable-background:new 0 0 512 512;"
   xml:space="preserve"
   sodipodi:docname="medical-report.svg"
   inkscape:version="0.92.1 r15371"><metadata
     id="metadata7001"><rdf:RDF><cc:Work
         rdf:about=""><dc:format>image/svg+xml</dc:format><dc:type
           rdf:resource="http://purl.org/dc/dcmitype/StillImage" /></cc:Work></rdf:RDF></metadata><defs
     id="defs6999" /><sodipodi:namedview
     pagecolor="#ffffff"
     bordercolor="#666666"
     borderopacity="1"
     objecttolerance="10"
     gridtolerance="10"
     guidetolerance="10"
     inkscape:pageopacity="0"
     inkscape:pageshadow="2"
     inkscape:window-width="1920"
     inkscape:window-height="1017"
     id="namedview6997"
     showgrid="false"
     inkscape:zoom="0.4609375"
     inkscape:cx="-96.542373"
     inkscape:cy="256"
     inkscape:window-x="-8"
     inkscape:window-y="-8"
     inkscape:window-maximized="1"
     inkscape:current-layer="Layer_1" /><g
     id="g6964"
     style="fill:#a50f00;fill-opacity:1"><g
       id="g6962"
       style="fill:#a50f00;fill-opacity:1"><g
         id="g6960"
         style="fill:#a50f00;fill-opacity:1"><path
           d="M90.129,436.816H73.5c-1.378,0-2.5-1.122-2.5-2.5V162.813c0-4.142-3.358-7.5-7.5-7.5c-4.142,0-7.5,3.358-7.5,7.5v271.504     c0,9.649,7.851,17.5,17.5,17.5h16.629c4.142,0,7.5-3.358,7.5-7.5C97.629,440.175,94.271,436.816,90.129,436.816z"
           id="path6932"
           style="fill:#a50f00;fill-opacity:1" /><path
           d="M227.125,297.52c-4.142,0-7.5,3.358-7.5,7.5v25.019h-42.75v-43.242h13.916c4.142,0,7.5-3.358,7.5-7.5     c0-4.142-3.358-7.5-7.5-7.5h-21.416c-4.142,0-7.5,3.358-7.5,7.5v58.242c0,4.142,3.358,7.5,7.5,7.5h57.75     c4.142,0,7.5-3.358,7.5-7.5V305.02C234.625,300.878,231.267,297.52,227.125,297.52z"
           id="path6934"
           style="fill:#a50f00;fill-opacity:1" /><path
           d="M185.292,291.991c-3.711,1.84-5.228,6.34-3.388,10.051l9.625,19.414c1.266,2.553,3.87,4.168,6.72,4.168     c2.85,0,5.454-1.615,6.72-4.168l28.875-58.242c1.84-3.711,0.323-8.211-3.388-10.051c-3.711-1.84-8.212-0.323-10.051,3.388     L198.25,301.24l-2.905-5.861C193.504,291.668,189.005,290.151,185.292,291.991z"
           id="path6936"
           style="fill:#a50f00;fill-opacity:1" /><path
           d="M284.875,136.338H371.5c4.142,0,7.5-3.358,7.5-7.5c0-4.142-3.358-7.5-7.5-7.5h-86.625c-4.142,0-7.5,3.358-7.5,7.5     C277.375,132.98,280.733,136.338,284.875,136.338z"
           id="path6938"
           style="fill:#a50f00;fill-opacity:1" /><path
           d="M222.312,140.752h-11.75v-11.914c0-4.142-3.358-7.5-7.5-7.5c-4.142,0-7.5,3.358-7.5,7.5v11.914h-11.75     c-4.142,0-7.5,3.358-7.5,7.5c0,4.142,3.358,7.5,7.5,7.5h11.75v11.914c0,4.142,3.358,7.5,7.5,7.5c4.142,0,7.5-3.358,7.5-7.5     v-11.914h11.75c4.142,0,7.5-3.358,7.5-7.5C229.812,144.11,226.455,140.752,222.312,140.752z"
           id="path6940"
           style="fill:#a50f00;fill-opacity:1" /><path
           d="M227.125,378.574h-57.75c-4.142,0-7.5,3.358-7.5,7.5v58.242c0,4.142,3.358,7.5,7.5,7.5h57.75c4.142,0,7.5-3.358,7.5-7.5     v-58.242C234.625,381.932,231.267,378.574,227.125,378.574z M219.625,436.816h-42.75v-43.242h42.75V436.816z"
           id="path6942"
           style="fill:#a50f00;fill-opacity:1" /><path
           d="M63.5,142.81c4.142,0,7.5-3.358,7.5-7.5V17.5c0-1.378,1.122-2.5,2.5-2.5h307.25c1.378,0,2.5,1.122,2.5,2.5v22.033     c0,4.142,3.358,7.5,7.5,7.5c4.142,0,7.5-3.358,7.5-7.5V17.5c0-9.649-7.851-17.5-17.5-17.5H73.5C63.851,0,56,7.851,56,17.5v117.81     C56,139.452,59.358,142.81,63.5,142.81z"
           id="path6944"
           style="fill:#a50f00;fill-opacity:1" /><path
           d="M400.375,281.504h-134.75c-4.142,0-7.5,3.358-7.5,7.5c0,4.142,3.358,7.5,7.5,7.5h134.75c4.142,0,7.5-3.358,7.5-7.5     C407.875,284.862,404.517,281.504,400.375,281.504z"
           id="path6946"
           style="fill:#a50f00;fill-opacity:1" /><path
           d="M400.375,150.459h-115.5c-4.142,0-7.5,3.358-7.5,7.5c0,4.142,3.358,7.5,7.5,7.5h115.5c4.142,0,7.5-3.358,7.5-7.5     C407.875,153.817,404.517,150.459,400.375,150.459z"
           id="path6948"
           style="fill:#a50f00;fill-opacity:1" /><path
           d="M438.5,60.184H131.25c-9.649,0-17.5,7.851-17.5,17.5V494.5c0,9.649,7.851,17.5,17.5,17.5H438.5     c9.649,0,17.5-7.851,17.5-17.5V77.684C456,68.034,448.149,60.184,438.5,60.184z M441,494.5c0,1.378-1.122,2.5-2.5,2.5H131.25     c-1.378,0-2.5-1.122-2.5-2.5V77.684c0-1.378,1.122-2.5,2.5-2.5H438.5c1.378,0,2.5,1.122,2.5,2.5V494.5z"
           id="path6950"
           style="fill:#a50f00;fill-opacity:1" /><path
           d="M366.687,417.402H265.625c-4.142,0-7.5,3.358-7.5,7.5c0,4.142,3.358,7.5,7.5,7.5h101.062c4.142,0,7.5-3.358,7.5-7.5     C374.187,420.76,370.83,417.402,366.687,417.402z"
           id="path6952"
           style="fill:#a50f00;fill-opacity:1" /><path
           d="M203.062,97.07c-28.018,0-50.812,22.96-50.812,51.182c0,28.222,22.794,51.182,50.812,51.182     c28.019,0,50.813-22.96,50.813-51.182C253.875,120.03,231.081,97.07,203.062,97.07z M203.062,184.434     c-19.747,0-35.812-16.231-35.812-36.182c0-19.951,16.065-36.182,35.812-36.182c19.748,0,35.813,16.231,35.813,36.182     C238.875,168.203,222.81,184.434,203.062,184.434z"
           id="path6954"
           style="fill:#a50f00;fill-opacity:1" /><path
           d="M400.375,388.281h-134.75c-4.142,0-7.5,3.358-7.5,7.5c0,4.142,3.358,7.5,7.5,7.5h134.75c4.142,0,7.5-3.358,7.5-7.5     C407.875,391.639,404.517,388.281,400.375,388.281z"
           id="path6956"
           style="fill:#a50f00;fill-opacity:1" /><path
           d="M265.625,325.625h101.062c4.142,0,7.5-3.358,7.5-7.5c0-4.142-3.358-7.5-7.5-7.5H265.625c-4.142,0-7.5,3.358-7.5,7.5     C258.125,322.267,261.483,325.625,265.625,325.625z"
           id="path6958"
           style="fill:#a50f00;fill-opacity:1" /></g></g></g><g
     id="g6966" /><g
     id="g6968" /><g
     id="g6970" /><g
     id="g6972" /><g
     id="g6974" /><g
     id="g6976" /><g
     id="g6978" /><g
     id="g6980" /><g
     id="g6982" /><g
     id="g6984" /><g
     id="g6986" /><g
     id="g6988" /><g
     id="g6990" /><g
     id="g6992" /><g
     id="g6994" /></svg>