<?xml version="1.0" encoding="UTF-8" standalone="no"?>
<!-- Generator: Adobe Illustrator 19.0.0, SVG Export Plug-In . SVG Version: 6.00 Build 0)  -->

<svg
   xmlns:dc="http://purl.org/dc/elements/1.1/"
   xmlns:cc="http://creativecommons.org/ns#"
   xmlns:rdf="http://www.w3.org/1999/02/22-rdf-syntax-ns#"
   xmlns:svg="http://www.w3.org/2000/svg"
   xmlns="http://www.w3.org/2000/svg"
   xmlns:sodipodi="http://sodipodi.sourceforge.net/DTD/sodipodi-0.dtd"
   xmlns:inkscape="http://www.inkscape.org/namespaces/inkscape"
   version="1.1"
   id="Capa_1"
   x="0px"
   y="0px"
   viewBox="0 0 512 512"
   style="enable-background:new 0 0 512 512;"
   xml:space="preserve"
   sodipodi:docname="prescription.svg"
   inkscape:version="0.92.1 r15371"><metadata
     id="metadata5189"><rdf:RDF><cc:Work
         rdf:about=""><dc:format>image/svg+xml</dc:format><dc:type
           rdf:resource="http://purl.org/dc/dcmitype/StillImage" /><dc:title></dc:title></cc:Work></rdf:RDF></metadata><defs
     id="defs5187" /><sodipodi:namedview
     pagecolor="#ffffff"
     bordercolor="#666666"
     borderopacity="1"
     objecttolerance="10"
     gridtolerance="10"
     guidetolerance="10"
     inkscape:pageopacity="0"
     inkscape:pageshadow="2"
     inkscape:window-width="1920"
     inkscape:window-height="1017"
     id="namedview5185"
     showgrid="false"
     inkscape:zoom="0.4609375"
     inkscape:cx="280.94915"
     inkscape:cy="214.77966"
     inkscape:window-x="-8"
     inkscape:window-y="-8"
     inkscape:window-maximized="1"
     inkscape:current-layer="Capa_1" /><path
     style="fill:#a50f00;fill-opacity:1"
     d="M 106.66602 0 C 83.135012 0 64 19.135969 64 42.667969 L 64 469.33398 C 64 492.86498 83.135968 512 106.66797 512 L 405.33398 512 C 428.86498 512 448 492.86403 448 469.33203 L 448 117.33203 C 448 114.49903 446.875 111.79297 444.875 109.79297 L 338.20703 3.125 C 336.20703 1.125 333.50002 0 330.66602 0 L 106.66602 0 z M 106.66797 21.333984 L 320 21.333984 L 320 85.333984 C 320 108.86498 339.14697 128 362.66797 128 L 426.66797 128 L 426.66797 469.33203 C 426.66797 481.09303 417.10303 490.66797 405.33203 490.66797 L 106.66797 490.66797 C 94.896968 490.66797 85.333984 481.09398 85.333984 469.33398 L 85.333984 42.667969 C 85.333984 30.907969 94.897968 21.333984 106.66797 21.333984 z M 341.33203 36.417969 L 411.58203 106.66797 L 362.66602 106.66797 C 350.89502 106.66797 341.33203 97.093984 341.33203 85.333984 L 341.33203 36.417969 z "
     id="path5132" /><linearGradient
     id="SVGID_1_"
     gradientUnits="userSpaceOnUse"
     x1="-30.0002"
     y1="641.8779"
     x2="-25.7514"
     y2="637.6291"
     gradientTransform="matrix(21.3333 0 0 -21.3333 996.3334 13791.667)"><stop
       offset="0"
       style="stop-color:#000000;stop-opacity:0.1"
       id="stop5138" /><stop
       offset="1"
       style="stop-color:#000000;stop-opacity:0"
       id="stop5140" /></linearGradient><path
     style="fill:#a50f00;fill-opacity:1"
     d="M337.333,301c-4.604-3.667-11.302-2.917-15,1.667l-31.441,39.302l-48.62-68.066  c20.393-7.499,35.061-26.941,35.061-49.902c0-29.406-23.927-53.333-53.333-53.333h-42.667c-5.896,0-10.667,4.771-10.667,10.667  v149.333c0,5.896,4.771,10.667,10.667,10.667c5.896,0,10.667-4.771,10.667-10.667v-53.333h26.514l58.531,81.943L237,409.333  c-3.677,4.604-2.927,11.313,1.667,15c1.969,1.573,4.323,2.333,6.656,2.333c3.135,0,6.229-1.375,8.344-4l36.272-45.34l32.051,44.871  c2.083,2.917,5.354,4.469,8.688,4.469c2.146,0,4.313-0.646,6.188-1.99c4.792-3.417,5.906-10.083,2.479-14.875l-35.559-49.783  L339,316C342.677,311.396,341.927,304.688,337.333,301z M192,192h32c17.646,0,32,14.354,32,32s-14.354,32-32,32h-32V192z"
     id="path5145" /><linearGradient
     id="SVGID_2_"
     gradientUnits="userSpaceOnUse"
     x1="-46.4381"
     y1="639.0643"
     x2="-23.653"
     y2="628.4362"
     gradientTransform="matrix(21.3333 0 0 -21.3333 996.3334 13791.667)"><stop
       offset="0"
       style="stop-color:#FFFFFF;stop-opacity:0.2"
       id="stop5147" /><stop
       offset="1"
       style="stop-color:#FFFFFF;stop-opacity:0"
       id="stop5149" /></linearGradient><g
     id="g5154" /><g
     id="g5156" /><g
     id="g5158" /><g
     id="g5160" /><g
     id="g5162" /><g
     id="g5164" /><g
     id="g5166" /><g
     id="g5168" /><g
     id="g5170" /><g
     id="g5172" /><g
     id="g5174" /><g
     id="g5176" /><g
     id="g5178" /><g
     id="g5180" /><g
     id="g5182" /></svg>