<?xml version="1.0" encoding="UTF-8" standalone="no"?>
<!-- Generator: Adobe Illustrator 19.0.0, SVG Export Plug-In . SVG Version: 6.00 Build 0)  -->

<svg
   xmlns:dc="http://purl.org/dc/elements/1.1/"
   xmlns:cc="http://creativecommons.org/ns#"
   xmlns:rdf="http://www.w3.org/1999/02/22-rdf-syntax-ns#"
   xmlns:svg="http://www.w3.org/2000/svg"
   xmlns="http://www.w3.org/2000/svg"
   xmlns:sodipodi="http://sodipodi.sourceforge.net/DTD/sodipodi-0.dtd"
   xmlns:inkscape="http://www.inkscape.org/namespaces/inkscape"
   version="1.1"
   id="Layer_1"
   x="0px"
   y="0px"
   viewBox="0 0 512 512"
   style="enable-background:new 0 0 512 512;"
   xml:space="preserve"
   sodipodi:docname="vaccine.svg"
   inkscape:version="0.92.1 r15371"><metadata
     id="metadata7605"><rdf:RDF><cc:Work
         rdf:about=""><dc:format>image/svg+xml</dc:format><dc:type
           rdf:resource="http://purl.org/dc/dcmitype/StillImage" /></cc:Work></rdf:RDF></metadata><defs
     id="defs7603" /><sodipodi:namedview
     pagecolor="#ffffff"
     bordercolor="#666666"
     borderopacity="1"
     objecttolerance="10"
     gridtolerance="10"
     guidetolerance="10"
     inkscape:pageopacity="0"
     inkscape:pageshadow="2"
     inkscape:window-width="1920"
     inkscape:window-height="1017"
     id="namedview7601"
     showgrid="false"
     inkscape:zoom="0.4609375"
     inkscape:cx="-96.542373"
     inkscape:cy="256"
     inkscape:window-x="-8"
     inkscape:window-y="-8"
     inkscape:window-maximized="1"
     inkscape:current-layer="Layer_1" /><g
     id="g7568"
     style="fill:#a50f00;fill-opacity:1"><g
       id="g7566"
       style="fill:#a50f00;fill-opacity:1"><g
         id="g7564"
         style="fill:#a50f00;fill-opacity:1"><path
           d="M157.352,318.125v11.914h-11.689c-4.143,0-7.5,3.358-7.5,7.5c0,4.142,3.357,7.5,7.5,7.5h11.689v11.914     c0,4.142,3.357,7.5,7.5,7.5s7.5-3.358,7.5-7.5v-11.914h11.689c4.143,0,7.5-3.358,7.5-7.5c0-4.142-3.357-7.5-7.5-7.5h-11.689     v-11.914c0-4.142-3.357-7.5-7.5-7.5S157.352,313.983,157.352,318.125z"
           id="path7546"
           style="fill:#a50f00;fill-opacity:1" /><path
           d="M184.041,456.23h-38.379c-4.143,0-7.5,3.358-7.5,7.5c0,4.142,3.357,7.5,7.5,7.5h38.379c4.143,0,7.5-3.358,7.5-7.5     C191.541,459.588,188.184,456.23,184.041,456.23z"
           id="path7548"
           style="fill:#a50f00;fill-opacity:1" /><path
           d="M164.852,242.675c-2.329,0-4.526,1.082-5.946,2.929l-38.886,50.582c-9.955,12.95-15.438,29.114-15.438,45.513     c0,33.574,27.037,60.889,60.271,60.889c33.234,0,60.271-27.314,60.271-60.889c0-16.399-5.483-32.563-15.438-45.513     l-38.888-50.582C169.378,243.757,167.181,242.675,164.852,242.675z M210.121,341.699c0.001,25.303-20.308,45.889-45.269,45.889     c-24.962,0-45.271-20.585-45.271-45.889c0-13.111,4.379-26.028,12.331-36.371l32.939-42.847l32.939,42.847     C205.742,315.671,210.121,328.588,210.121,341.699z"
           id="path7550"
           style="fill:#a50f00;fill-opacity:1" /><path
           d="M390.324,244.617h-9.595c-4.143,0-7.5,3.358-7.5,7.5c0,4.142,3.357,7.5,7.5,7.5h9.595c4.143,0,7.5-3.358,7.5-7.5     C397.824,247.975,394.467,244.617,390.324,244.617z"
           id="path7552"
           style="fill:#a50f00;fill-opacity:1" /><path
           d="M390.324,186.375h-9.595c-4.143,0-7.5,3.358-7.5,7.5c0,4.142,3.357,7.5,7.5,7.5h9.595c4.143,0,7.5-3.358,7.5-7.5     C397.824,189.733,394.467,186.375,390.324,186.375z"
           id="path7554"
           style="fill:#a50f00;fill-opacity:1" /><path
           d="M227.585,62.61c6.923-2.334,11.929-8.875,11.929-16.575V17.5c0-9.649-7.851-17.5-17.5-17.5H107.689     c-9.649,0-17.5,7.851-17.5,17.5v28.535c0,7.7,5.005,14.241,11.928,16.575L74.773,97.192C72.34,100.269,71,104.124,71,108.046     v377.04C71,499.926,82.973,512,97.689,512h134.324c14.717,0,26.689-12.074,26.689-26.914v-377.04     c0-3.922-1.34-7.777-3.773-10.854L227.585,62.61z M105.189,17.5c0-1.378,1.121-2.5,2.5-2.5h114.324c1.379,0,2.5,1.122,2.5,2.5     v28.535c0,1.378-1.121,2.5-2.5,2.5H107.689c-1.379,0-2.5-1.122-2.5-2.5V17.5z M243.704,485.087     c-0.001,6.568-5.245,11.913-11.69,11.913H97.689C91.244,497,86,491.655,86,485.086v-324.48h26.476     c4.758,0,9.521,1.138,13.777,3.292l60.551,30.63c6.346,3.21,13.451,4.907,20.549,4.907h36.351V485.087z M243.704,184.433h-36.351     c-4.757,0-9.521-1.138-13.777-3.292l-60.551-30.63c-6.345-3.21-13.45-4.907-20.549-4.907H86V112.07h87.486     c4.143,0,7.5-3.358,7.5-7.5c0-4.142-3.357-7.5-7.5-7.5H93.992l26.517-33.535h88.685l26.518,33.535h-33.441     c-4.143,0-7.5,3.358-7.5,7.5c0,4.142,3.357,7.5,7.5,7.5h41.433V184.433z"
           id="path7556"
           style="fill:#a50f00;fill-opacity:1" /><path
           d="M433.5,79.598h-26.081V15h16.486c4.143,0,7.5-3.358,7.5-7.5s-3.357-7.5-7.5-7.5h-76.757c-4.143,0-7.5,3.358-7.5,7.5     s3.357,7.5,7.5,7.5h16.486v64.598h-26.081c-4.143,0-7.5,3.358-7.5,7.5c0,3.188,1.993,5.905,4.798,6.99V300.36     c0,9.649,7.851,17.5,17.5,17.5h1.689v21.328c0,7.069,4.221,13.158,10.268,15.917l3.855,31.198     c0.625,5.066,4.817,8.92,9.863,9.188V504.5c0,4.142,3.357,7.5,7.5,7.5s7.5-3.358,7.5-7.5V395.49     c5.042-0.268,9.235-4.12,9.863-9.187l3.854-31.198c6.047-2.759,10.269-8.848,10.269-15.917V317.86h1.689     c9.649,0,17.5-7.851,17.5-17.5V94.087c2.807-1.085,4.799-3.801,4.799-6.989C441,82.956,437.643,79.598,433.5,79.598z M378.635,15     h13.784v64.598h-13.784V15z M378.635,94.598h13.784v60.156c0,1.378-1.121,2.5-2.5,2.5h-8.784c-1.379,0-2.5-1.122-2.5-2.5V94.598z      M388.491,380.516h-5.929l-2.944-23.828h11.817L388.491,380.516z M421.203,300.36c0,1.378-1.121,2.499-2.5,2.499h-14.946     c-4.143,0-7.5,3.358-7.5,7.5c0,3.541,2.457,6.501,5.757,7.288v21.54c0,1.378-1.121,2.5-2.5,2.5h-27.973     c-1.379,0-2.5-1.122-2.5-2.5v-21.328h5.932c4.143,0,7.5-3.358,7.5-7.5c0-4.142-3.357-7.5-7.5-7.5h-22.621     c-1.379,0-2.5-1.122-2.5-2.5V94.598h13.783v60.156c0,9.649,7.851,17.5,17.5,17.5h8.784c9.649,0,17.5-7.851,17.5-17.5V94.598     h13.784V300.36z"
           id="path7558"
           style="fill:#a50f00;fill-opacity:1" /><path
           d="M390.324,273.738h-9.595c-4.143,0-7.5,3.358-7.5,7.5c0,4.142,3.357,7.5,7.5,7.5h9.595c4.143,0,7.5-3.358,7.5-7.5     C397.824,277.096,394.467,273.738,390.324,273.738z"
           id="path7560"
           style="fill:#a50f00;fill-opacity:1" /><path
           d="M390.324,215.496h-9.595c-4.143,0-7.5,3.358-7.5,7.5c0,4.142,3.357,7.5,7.5,7.5h9.595c4.143,0,7.5-3.358,7.5-7.5     C397.824,218.854,394.467,215.496,390.324,215.496z"
           id="path7562"
           style="fill:#a50f00;fill-opacity:1" /></g></g></g><g
     id="g7570" /><g
     id="g7572" /><g
     id="g7574" /><g
     id="g7576" /><g
     id="g7578" /><g
     id="g7580" /><g
     id="g7582" /><g
     id="g7584" /><g
     id="g7586" /><g
     id="g7588" /><g
     id="g7590" /><g
     id="g7592" /><g
     id="g7594" /><g
     id="g7596" /><g
     id="g7598" /></svg>